G04 #@! TF.FileFunction,Soldermask,Top*
%FSLAX46Y46*%
G04 Gerber Fmt 4.6, Leading zero omitted, Abs format (unit mm)*
G04 Created by KiCad (PCBNEW no-bzr-kicad_new3d-viewer) date 07/10/16 17:39:31*
%MOMM*%
%LPD*%
G01*
G04 APERTURE LIST*
%ADD10C,0.150000*%
%ADD11C,0.700000*%
%ADD12C,1.350000*%
%ADD13C,0.254000*%
G04 APERTURE END LIST*
D10*
D11*
X166770000Y-80700000D02*
X166770000Y-83900000D01*
D12*
X167680000Y-82300000D02*
G75*
G03X167680000Y-82300000I-3830000J0D01*
G01*
D13*
G36*
X173429034Y-60617890D02*
X86383034Y-60617890D01*
X86383034Y-58871890D01*
X173429034Y-58871890D01*
X173429034Y-60617890D01*
X173429034Y-60617890D01*
G37*
X173429034Y-60617890D02*
X86383034Y-60617890D01*
X86383034Y-58871890D01*
X173429034Y-58871890D01*
X173429034Y-60617890D01*
G36*
X173429034Y-98617890D02*
X86383034Y-98617890D01*
X86383034Y-96871890D01*
X173429034Y-96871890D01*
X173429034Y-98617890D01*
X173429034Y-98617890D01*
G37*
X173429034Y-98617890D02*
X86383034Y-98617890D01*
X86383034Y-96871890D01*
X173429034Y-96871890D01*
X173429034Y-98617890D01*
G36*
X176998875Y-59116121D02*
X177665057Y-59639550D01*
X178090325Y-60206573D01*
X178296797Y-60976984D01*
X178346753Y-96296499D01*
X178138172Y-97247363D01*
X177663545Y-97911841D01*
X177194998Y-98286679D01*
X176184933Y-98623367D01*
X173533969Y-98670706D01*
X173633329Y-58877000D01*
X176090216Y-58877000D01*
X176998875Y-59116121D01*
X176998875Y-59116121D01*
G37*
X176998875Y-59116121D02*
X177665057Y-59639550D01*
X178090325Y-60206573D01*
X178296797Y-60976984D01*
X178346753Y-96296499D01*
X178138172Y-97247363D01*
X177663545Y-97911841D01*
X177194998Y-98286679D01*
X176184933Y-98623367D01*
X173533969Y-98670706D01*
X173633329Y-58877000D01*
X176090216Y-58877000D01*
X176998875Y-59116121D01*
G36*
X86223316Y-98623000D02*
X83766429Y-98623000D01*
X82857770Y-98383879D01*
X82191588Y-97860450D01*
X81766320Y-97293427D01*
X81559848Y-96523016D01*
X81509892Y-61203501D01*
X81718473Y-60252637D01*
X82193100Y-59588159D01*
X82661647Y-59213321D01*
X83671712Y-58876633D01*
X86322676Y-58829294D01*
X86223316Y-98623000D01*
X86223316Y-98623000D01*
G37*
X86223316Y-98623000D02*
X83766429Y-98623000D01*
X82857770Y-98383879D01*
X82191588Y-97860450D01*
X81766320Y-97293427D01*
X81559848Y-96523016D01*
X81509892Y-61203501D01*
X81718473Y-60252637D01*
X82193100Y-59588159D01*
X82661647Y-59213321D01*
X83671712Y-58876633D01*
X86322676Y-58829294D01*
X86223316Y-98623000D01*
M02*
