G04 #@! TF.FileFunction,Profile,NP*
%FSLAX46Y46*%
G04 Gerber Fmt 4.6, Leading zero omitted, Abs format (unit mm)*
G04 Created by KiCad (PCBNEW no-bzr-kicad_new3d-viewer) date 07/10/16 17:39:31*
%MOMM*%
%LPD*%
G01*
G04 APERTURE LIST*
%ADD10C,0.150000*%
G04 APERTURE END LIST*
D10*
X86608348Y-62529764D02*
G75*
G03X86608348Y-62529764I-1400000J0D01*
G01*
X81408348Y-61229764D02*
G75*
G02X83908348Y-58729764I2500000J0D01*
G01*
X175908348Y-58729764D02*
X83908348Y-58729764D01*
X175908348Y-58729764D02*
G75*
G02X178408348Y-61229764I0J-2500000D01*
G01*
X83908348Y-98729764D02*
G75*
G02X81408348Y-96229764I0J2500000D01*
G01*
X81408348Y-61229764D02*
X81408348Y-96229764D01*
X175908348Y-98729764D02*
X83908348Y-98729764D01*
X114911900Y-82160340D02*
X114911900Y-89760340D01*
X109711900Y-82160340D02*
X114911900Y-82160340D01*
X109711900Y-89760340D02*
X109711900Y-82160340D01*
X114911900Y-89760340D02*
X109711900Y-89760340D01*
X136411900Y-87760340D02*
X136411900Y-92160340D01*
X137911900Y-87760340D02*
X136411900Y-87760340D01*
X137911900Y-84060340D02*
X137911900Y-87760340D01*
X122911900Y-84060340D02*
X137911900Y-84060340D01*
X122911900Y-87760340D02*
X122911900Y-84060340D01*
X123911900Y-87760340D02*
X122911900Y-87760340D01*
X123911900Y-92160340D02*
X123911900Y-87760340D01*
X136411900Y-92160340D02*
X123911900Y-92160340D01*
X176008348Y-94929764D02*
G75*
G03X176008348Y-94929764I-1400000J0D01*
G01*
X178408348Y-96229764D02*
G75*
G02X175908348Y-98729764I-2500000J0D01*
G01*
X176208348Y-62529764D02*
G75*
G03X176208348Y-62529764I-1600000J0D01*
G01*
X178408348Y-96229764D02*
X178408348Y-61229764D01*
X86806034Y-94944890D02*
G75*
G03X86806034Y-94944890I-1600000J0D01*
G01*
X166561308Y-83880762D02*
G75*
G02X166550000Y-80700000I-2711308J1580762D01*
G01*
X166550000Y-80700000D02*
X166560000Y-83880000D01*
M02*
