%MOIN*%
%OFA0B0*%
%FSLAX46Y46*%
%IPPOS*%
%LPD*%
%ADD10C,0.005905511811023622*%
%ADD11C,0.015748031496062995*%
%ADD12C,0.01968503937007874*%
%ADD13C,0.017716535433070866*%
%ADD14C,0.00039370078740157485*%
%ADD15C,0.03937007874015748*%
%ADD16C,0.11811023622047245*%
%ADD17C,0.027559055118110236*%
%ADD18C,0.053149606299212608*%
%ADD29C,0.005905511811023622*%
%ADD30C,0.0078740157480314977*%
%ADD31C,0.01968503937007874*%
%ADD32C,0.015748031496062995*%
%ADD33C,0.03937007874015748*%
%ADD34C,0.11811023622047245*%
%ADD35C,0.027559055118110236*%
%ADD36C,0.053149606299212608*%
%ADD47C,0.005905511811023622*%
%ADD48C,0.0039370078740157488*%
%ADD49C,0.21653543307086615*%
%ADD50C,0.01*%
%ADD61C,0.005905511811023622*%
%ADD62C,0.0039370078740157488*%
%ADD63C,0.21653543307086615*%
%ADD64C,0.01*%
%ADD75C,0.005905511811023622*%
%ADD76C,0.0039370078740157488*%
%ADD77C,0.21653543307086615*%
%ADD78C,0.01*%
%ADD89C,0.005905511811023622*%
%ADD90C,0.0039370078740157488*%
%ADD91C,0.21653543307086615*%
%ADD92C,0.01*%
%ADD103C,0.005905511811023622*%
%ADD114C,0.005905511811023622*%
%LPD*%
G01G01G01G01G01G01G01G01*
D10*
D11*
X0002529246Y0000836839D02*
X0002562992Y0000836839D01*
X0002562992Y0000907705D01*
D12*
X0002401574Y0000872834D02*
X0002192913Y0000872834D01*
D11*
X0002059616Y0000836252D02*
X0002059616Y0000907119D01*
X0002059616Y0000873373D02*
X0002019121Y0000873373D01*
X0002019121Y0000836252D02*
X0002019121Y0000907119D01*
D12*
X0001893307Y0000873228D02*
G75*
G02G02G02G02X0001812598Y0000955929J0000080732D01X0001812598Y0000955929J0000080732D01X0001812598Y0000955929J0000080732D01G02G02X0001812598Y0000955929J0000080732D01G02G02X0001812598Y0000955929J0000080732D01X0001812598Y0000955929J0000080732D01X0001812598Y0000955929J0000080732D01X0001812598Y0000955929J0000080732D01*
G01G01G01G01G01G01G01G01*
X0001810629Y0001262992D02*
X0001812598Y0000955929D01*
X0001810605Y0001264566D02*
G75*
G02G02G02G02X0001893307Y0001345275I0000080732D01X0001893307Y0001345275I0000080732D01X0001893307Y0001345275I0000080732D01G02G02X0001893307Y0001345275I0000080732D01G02G02X0001893307Y0001345275I0000080732D01X0001893307Y0001345275I0000080732D01X0001893307Y0001345275I0000080732D01X0001893307Y0001345275I0000080732D01*
G01G01G01G01G01G01G01G01*
X0002700787Y0001345275D02*
X0001893700Y0001345275D01*
X0002696850Y0001345275D02*
G75*
G02G02G02G02X0002777559Y0001262574J-0000080732D01X0002777559Y0001262574J-0000080732D01X0002777559Y0001262574J-0000080732D01G02G02X0002777559Y0001262574J-0000080732D01G02G02X0002777559Y0001262574J-0000080732D01X0002777559Y0001262574J-0000080732D01X0002777559Y0001262574J-0000080732D01X0002777559Y0001262574J-0000080732D01*
G01G01G01G01G01G01G01G01*
X0002777559Y0000952755D02*
X0002777559Y0001262574D01*
X0002777559Y0000952755D02*
G75*
G02G02G02G02X0002694857Y0000872047I-0000080732D01X0002694857Y0000872047I-0000080732D01X0002694857Y0000872047I-0000080732D01G02G02X0002694857Y0000872047I-0000080732D01G02G02X0002694857Y0000872047I-0000080732D01X0002694857Y0000872047I-0000080732D01X0002694857Y0000872047I-0000080732D01X0002694857Y0000872047I-0000080732D01*
G01G01G01G01G01G01G01G01*
D11*
X0002815147Y0001070622D02*
X0002815147Y0001021128D01*
X0002893888Y0001045875D02*
X0002815147Y0001045875D01*
X0002815147Y0001000505D02*
X0002893888Y0000942763D01*
X0002815147Y0000942763D02*
X0002893888Y0001000505D01*
X0002893888Y0000864398D02*
X0002893888Y0000913892D01*
X0002893888Y0000889145D02*
X0002815147Y0000889145D01*
X0002826396Y0000897394D01*
X0002833895Y0000905643D01*
X0002837645Y0000913892D01*
D12*
X0001810605Y0000713385D02*
G75*
G02G02G02G02X0001893307Y0000794094I0000080732D01X0001893307Y0000794094I0000080732D01X0001893307Y0000794094I0000080732D01G02G02X0001893307Y0000794094I0000080732D01G02G02X0001893307Y0000794094I0000080732D01X0001893307Y0000794094I0000080732D01X0001893307Y0000794094I0000080732D01X0001893307Y0000794094I0000080732D01*
G01G01G01G01G01G01G01G01*
X0001810629Y0000711811D02*
X0001812598Y0000404748D01*
X0001893307Y0000322047D02*
G75*
G02G02G02G02X0001812598Y0000404748J0000080732D01X0001812598Y0000404748J0000080732D01X0001812598Y0000404748J0000080732D01G02G02X0001812598Y0000404748J0000080732D01G02G02X0001812598Y0000404748J0000080732D01X0001812598Y0000404748J0000080732D01X0001812598Y0000404748J0000080732D01X0001812598Y0000404748J0000080732D01*
G01G01G01G01G01G01G01G01*
X0001633858Y0001345275D02*
G75*
G02G02G02G02X0001714566Y0001262574J-0000080732D01X0001714566Y0001262574J-0000080732D01X0001714566Y0001262574J-0000080732D01G02G02X0001714566Y0001262574J-0000080732D01G02G02X0001714566Y0001262574J-0000080732D01X0001714566Y0001262574J-0000080732D01X0001714566Y0001262574J-0000080732D01X0001714566Y0001262574J-0000080732D01*
G01G01G01G01G01G01G01G01*
X0001714566Y0000954724D02*
X0001714566Y0001262574D01*
X0001714566Y0000953543D02*
G75*
G02G02G02G02X0001631863Y0000872834I-0000080732D01X0001631863Y0000872834I-0000080732D01X0001631863Y0000872834I-0000080732D01G02G02X0001631863Y0000872834I-0000080732D01G02G02X0001631863Y0000872834I-0000080732D01X0001631863Y0000872834I-0000080732D01X0001631863Y0000872834I-0000080732D01X0001631863Y0000872834I-0000080732D01*
G01G01G01G01G01G01G01G01*
D11*
X0001466254Y0000836839D02*
X0001499999Y0000836839D01*
X0001499999Y0000907705D01*
D12*
X0001338582Y0000872834D02*
X0001129921Y0000872834D01*
D11*
X0001006748Y0000907119D02*
X0000989876Y0000836252D01*
X0000976377Y0000886871D01*
X0000962879Y0000836252D01*
X0000946006Y0000907119D01*
D12*
X0000826771Y0000872834D02*
X0000618110Y0000872834D01*
D11*
X0000484814Y0000836839D02*
X0000484814Y0000907705D01*
X0000484814Y0000873958D02*
X0000444319Y0000873958D01*
X0000444319Y0000836839D02*
X0000444319Y0000907705D01*
D12*
X0000319135Y0000874216D02*
G75*
G02G02G02G02X0000238426Y0000956918J0000080732D01X0000238426Y0000956918J0000080732D01X0000238426Y0000956918J0000080732D01G02G02X0000238426Y0000956918J0000080732D01G02G02X0000238426Y0000956918J0000080732D01X0000238426Y0000956918J0000080732D01X0000238426Y0000956918J0000080732D01X0000238426Y0000956918J0000080732D01*
G01G01G01G01G01G01G01G01*
X0001637795Y0001345275D02*
X0000320866Y0001345275D01*
X0000238163Y0001264566D02*
G75*
G02G02G02G02X0000320866Y0001345275I0000080732D01X0000320866Y0001345275I0000080732D01X0000320866Y0001345275I0000080732D01G02G02X0000320866Y0001345275I0000080732D01G02G02X0000320866Y0001345275I0000080732D01X0000320866Y0001345275I0000080732D01X0000320866Y0001345275I0000080732D01X0000320866Y0001345275I0000080732D01*
G01G01G01G01G01G01G01G01*
X0000238426Y0000956894D02*
X0000238426Y0001265949D01*
D11*
X0000198217Y0001021822D02*
X0000160723Y0001050693D01*
X0000198217Y0001071316D02*
X0000119478Y0001071316D01*
X0000119478Y0001038319D01*
X0000123228Y0001030071D01*
X0000126977Y0001025946D01*
X0000134476Y0001021822D01*
X0000145725Y0001021822D01*
X0000153224Y0001025946D01*
X0000156974Y0001030071D01*
X0000160723Y0001038319D01*
X0000160723Y0001071316D01*
X0000119478Y0000992950D02*
X0000198217Y0000935208D01*
X0000119478Y0000935208D02*
X0000198217Y0000992950D01*
X0000198217Y0000856842D02*
X0000198217Y0000906335D01*
X0000198217Y0000881589D02*
X0000119478Y0000881589D01*
X0000130727Y0000889838D01*
X0000138226Y0000898086D01*
X0000141975Y0000906335D01*
X0002059616Y0000285071D02*
X0002059616Y0000355937D01*
X0002059616Y0000322192D02*
X0002019121Y0000322192D01*
X0002019121Y0000285071D02*
X0002019121Y0000355937D01*
X0002529246Y0000285658D02*
X0002562992Y0000285658D01*
X0002562992Y0000356524D01*
D12*
X0002401574Y0000321653D02*
X0002192913Y0000321653D01*
X0002700787Y0000794094D02*
X0001893700Y0000794094D01*
X0002696850Y0000794094D02*
G75*
G02G02G02G02X0002777559Y0000711393J-0000080732D01X0002777559Y0000711393J-0000080732D01X0002777559Y0000711393J-0000080732D01G02G02X0002777559Y0000711393J-0000080732D01G02G02X0002777559Y0000711393J-0000080732D01X0002777559Y0000711393J-0000080732D01X0002777559Y0000711393J-0000080732D01X0002777559Y0000711393J-0000080732D01*
G01G01G01G01G01G01G01G01*
X0002777559Y0000401574D02*
X0002777559Y0000711393D01*
X0002777559Y0000402361D02*
G75*
G02G02G02G02X0002694857Y0000321653I-0000080732D01X0002694857Y0000321653I-0000080732D01X0002694857Y0000321653I-0000080732D01G02G02X0002694857Y0000321653I-0000080732D01G02G02X0002694857Y0000321653I-0000080732D01X0002694857Y0000321653I-0000080732D01X0002694857Y0000321653I-0000080732D01X0002694857Y0000321653I-0000080732D01*
G01G01G01G01G01G01G01G01*
D11*
X0002815147Y0000519441D02*
X0002815147Y0000469947D01*
X0002893888Y0000494694D02*
X0002815147Y0000494694D01*
X0002815147Y0000449325D02*
X0002893888Y0000391582D01*
X0002815147Y0000391582D02*
X0002893888Y0000449325D01*
X0002822647Y0000362710D02*
X0002818897Y0000358586D01*
X0002815147Y0000350337D01*
X0002815147Y0000329715D01*
X0002818897Y0000321466D01*
X0002822647Y0000317341D01*
X0002830146Y0000313217D01*
X0002837645Y0000313217D01*
X0002848893Y0000317341D01*
X0002893888Y0000366835D01*
X0002893888Y0000313217D01*
D12*
X0000826771Y0000321653D02*
X0000618110Y0000321653D01*
D11*
X0000198217Y0000470641D02*
X0000160723Y0000499512D01*
X0000198217Y0000520134D02*
X0000119478Y0000520134D01*
X0000119478Y0000487139D01*
X0000123228Y0000478890D01*
X0000126977Y0000474765D01*
X0000134476Y0000470641D01*
X0000145725Y0000470641D01*
X0000153224Y0000474765D01*
X0000156974Y0000478890D01*
X0000160723Y0000487139D01*
X0000160723Y0000520134D01*
X0000119478Y0000441769D02*
X0000198217Y0000384027D01*
X0000119478Y0000384027D02*
X0000198217Y0000441769D01*
X0000126977Y0000355155D02*
X0000123228Y0000351030D01*
X0000119478Y0000342782D01*
X0000119478Y0000322159D01*
X0000123228Y0000313910D01*
X0000126977Y0000309786D01*
X0000134476Y0000305661D01*
X0000141975Y0000305661D01*
X0000153224Y0000309786D01*
X0000198217Y0000359280D01*
X0000198217Y0000305661D01*
D12*
X0001714566Y0000401574D02*
X0001714566Y0000711393D01*
X0001714566Y0000402361D02*
G75*
G02G02G02G02X0001631863Y0000321653I-0000080732D01X0001631863Y0000321653I-0000080732D01X0001631863Y0000321653I-0000080732D01G02G02X0001631863Y0000321653I-0000080732D01G02G02X0001631863Y0000321653I-0000080732D01X0001631863Y0000321653I-0000080732D01X0001631863Y0000321653I-0000080732D01X0001631863Y0000321653I-0000080732D01*
G01G01G01G01G01G01G01G01*
X0001633858Y0000794094D02*
G75*
G02G02G02G02X0001714566Y0000711393J-0000080732D01X0001714566Y0000711393J-0000080732D01X0001714566Y0000711393J-0000080732D01G02G02X0001714566Y0000711393J-0000080732D01G02G02X0001714566Y0000711393J-0000080732D01X0001714566Y0000711393J-0000080732D01X0001714566Y0000711393J-0000080732D01X0001714566Y0000711393J-0000080732D01*
G01G01G01G01G01G01G01G01*
X0001338582Y0000321653D02*
X0001129921Y0000321653D01*
X0000238426Y0000405712D02*
X0000238426Y0000714767D01*
X0000319135Y0000323034D02*
G75*
G02G02G02G02X0000238426Y0000405737J0000080732D01X0000238426Y0000405737J0000080732D01X0000238426Y0000405737J0000080732D01G02G02X0000238426Y0000405737J0000080732D01G02G02X0000238426Y0000405737J0000080732D01X0000238426Y0000405737J0000080732D01X0000238426Y0000405737J0000080732D01X0000238426Y0000405737J0000080732D01*
G01G01G01G01G01G01G01G01*
X0000238163Y0000713385D02*
G75*
G02G02G02G02X0000320866Y0000794094I0000080732D01X0000320866Y0000794094I0000080732D01X0000320866Y0000794094I0000080732D01G02G02X0000320866Y0000794094I0000080732D01G02G02X0000320866Y0000794094I0000080732D01X0000320866Y0000794094I0000080732D01X0000320866Y0000794094I0000080732D01X0000320866Y0000794094I0000080732D01*
G01G01G01G01G01G01G01G01*
X0001637795Y0000794094D02*
X0000320866Y0000794094D01*
D11*
X0000484814Y0000285658D02*
X0000484814Y0000356524D01*
X0000484814Y0000322778D02*
X0000444319Y0000322778D01*
X0000444319Y0000285658D02*
X0000444319Y0000356524D01*
X0001006748Y0000355937D02*
X0000989876Y0000285071D01*
X0000976377Y0000335690D01*
X0000962879Y0000285071D01*
X0000946006Y0000355937D01*
X0001466254Y0000285658D02*
X0001499999Y0000285658D01*
X0001499999Y0000356524D01*
D13*
X0000946850Y0000088526D02*
X0000997469Y0000088526D01*
X0000997469Y0000194825D01*
X0000911417Y0000088526D02*
X0000911417Y0000159392D01*
X0000911417Y0000194825D02*
X0000916479Y0000189763D01*
X0000911417Y0000184701D01*
X0000906355Y0000189763D01*
X0000911417Y0000194825D01*
X0000911417Y0000184701D01*
X0000860798Y0000088526D02*
X0000860798Y0000159392D01*
X0000860798Y0000149268D02*
X0000855736Y0000154330D01*
X0000845613Y0000159392D01*
X0000830427Y0000159392D01*
X0000820302Y0000154330D01*
X0000815241Y0000144207D01*
X0000815241Y0000088526D01*
X0000815241Y0000144207D02*
X0000810179Y0000154330D01*
X0000800056Y0000159392D01*
X0000784870Y0000159392D01*
X0000774746Y0000154330D01*
X0000769684Y0000144207D01*
X0000769684Y0000088526D01*
X0000678570Y0000093588D02*
X0000688695Y0000088526D01*
X0000708942Y0000088526D01*
X0000719066Y0000093588D01*
X0000724128Y0000103712D01*
X0000724128Y0000144207D01*
X0000719066Y0000154330D01*
X0000708942Y0000159392D01*
X0000688695Y0000159392D01*
X0000678570Y0000154330D01*
X0000673509Y0000144207D01*
X0000673509Y0000134083D01*
X0000724128Y0000123959D01*
X0000633014Y0000093588D02*
X0000617829Y0000088526D01*
X0000592519Y0000088526D01*
X0000582395Y0000093588D01*
X0000577334Y0000098650D01*
X0000572272Y0000108773D01*
X0000572272Y0000118897D01*
X0000577334Y0000129021D01*
X0000582395Y0000134083D01*
X0000592519Y0000139145D01*
X0000612767Y0000144207D01*
X0000622890Y0000149268D01*
X0000627952Y0000154330D01*
X0000633014Y0000164454D01*
X0000633014Y0000174578D01*
X0000627952Y0000184701D01*
X0000622890Y0000189763D01*
X0000612767Y0000194825D01*
X0000587457Y0000194825D01*
X0000572272Y0000189763D01*
X0000526715Y0000088526D02*
X0000526715Y0000194825D01*
X0000501406Y0000194825D01*
X0000486220Y0000189763D01*
X0000476096Y0000179640D01*
X0000471034Y0000169516D01*
X0000465972Y0000149268D01*
X0000465972Y0000134083D01*
X0000471034Y0000113835D01*
X0000476096Y0000103712D01*
X0000486220Y0000093588D01*
X0000501406Y0000088526D01*
X0000526715Y0000088526D01*
X0000359673Y0000088526D02*
X0000395106Y0000139145D01*
X0000420416Y0000088526D02*
X0000420416Y0000194825D01*
X0000379921Y0000194825D01*
X0000369797Y0000189763D01*
X0000364735Y0000184701D01*
X0000359673Y0000174578D01*
X0000359673Y0000159392D01*
X0000364735Y0000149268D01*
X0000369797Y0000144207D01*
X0000379921Y0000139145D01*
X0000420416Y0000139145D01*
D14*
G36*
X0001159607Y0000089047D02*
X0001158168Y0000088595D01*
X0001156569Y0000087523D01*
X0001154583Y0000085566D01*
X0001151984Y0000082462D01*
X0001148543Y0000077950D01*
X0001144033Y0000071767D01*
X0001138228Y0000063650D01*
X0001134512Y0000058425D01*
X0001128681Y0000050181D01*
X0001123432Y0000042692D01*
X0001118985Y0000036276D01*
X0001115557Y0000031247D01*
X0001113365Y0000027926D01*
X0001112628Y0000026639D01*
X0001113266Y0000025550D01*
X0001115466Y0000026746D01*
X0001119260Y0000030248D01*
X0001122000Y0000033126D01*
X0001128859Y0000040571D01*
X0001134341Y0000046622D01*
X0001139035Y0000051960D01*
X0001143528Y0000057264D01*
X0001148410Y0000063214D01*
X0001153731Y0000069821D01*
X0001158333Y0000075698D01*
X0001162164Y0000080846D01*
X0001164920Y0000084835D01*
X0001166295Y0000087237D01*
X0001166384Y0000087677D01*
X0001164775Y0000088670D01*
X0001161504Y0000089134D01*
X0001161115Y0000089139D01*
X0001159607Y0000089047D01*
X0001159607Y0000089047D01*
G37*
X0001159607Y0000089047D02*
X0001158168Y0000088595D01*
X0001156569Y0000087523D01*
X0001154583Y0000085566D01*
X0001151984Y0000082462D01*
X0001148543Y0000077950D01*
X0001144033Y0000071767D01*
X0001138228Y0000063650D01*
X0001134512Y0000058425D01*
X0001128681Y0000050181D01*
X0001123432Y0000042692D01*
X0001118985Y0000036276D01*
X0001115557Y0000031247D01*
X0001113365Y0000027926D01*
X0001112628Y0000026639D01*
X0001113266Y0000025550D01*
X0001115466Y0000026746D01*
X0001119260Y0000030248D01*
X0001122000Y0000033126D01*
X0001128859Y0000040571D01*
X0001134341Y0000046622D01*
X0001139035Y0000051960D01*
X0001143528Y0000057264D01*
X0001148410Y0000063214D01*
X0001153731Y0000069821D01*
X0001158333Y0000075698D01*
X0001162164Y0000080846D01*
X0001164920Y0000084835D01*
X0001166295Y0000087237D01*
X0001166384Y0000087677D01*
X0001164775Y0000088670D01*
X0001161504Y0000089134D01*
X0001161115Y0000089139D01*
X0001159607Y0000089047D01*
G36*
X0001291922Y0000267704D02*
X0001289079Y0000265075D01*
X0001284805Y0000260334D01*
X0001282435Y0000257552D01*
X0001278377Y0000252747D01*
X0001274913Y0000248668D01*
X0001272520Y0000245877D01*
X0001271797Y0000245053D01*
X0001270453Y0000243473D01*
X0001267609Y0000240062D01*
X0001263582Y0000235198D01*
X0001258681Y0000229260D01*
X0001253290Y0000222709D01*
X0001247161Y0000215344D01*
X0001240922Y0000208005D01*
X0001235078Y0000201279D01*
X0001230136Y0000195748D01*
X0001227302Y0000192710D01*
X0001223032Y0000188336D01*
X0001220193Y0000185723D01*
X0001218236Y0000184564D01*
X0001216615Y0000184558D01*
X0001214783Y0000185399D01*
X0001214452Y0000185582D01*
X0001210616Y0000188633D01*
X0001207571Y0000193298D01*
X0001205098Y0000200009D01*
X0001203264Y0000207731D01*
X0001201409Y0000216934D01*
X0001199998Y0000223706D01*
X0001198921Y0000228419D01*
X0001198068Y0000231447D01*
X0001197329Y0000233160D01*
X0001196595Y0000233932D01*
X0001195757Y0000234133D01*
X0001195480Y0000234139D01*
X0001194367Y0000233662D01*
X0001193481Y0000231933D01*
X0001192701Y0000228504D01*
X0001191911Y0000222923D01*
X0001191422Y0000218716D01*
X0001190701Y0000211713D01*
X0001190127Y0000205159D01*
X0001189773Y0000199947D01*
X0001189696Y0000197645D01*
X0001188996Y0000191399D01*
X0001187142Y0000183852D01*
X0001184477Y0000176139D01*
X0001181341Y0000169393D01*
X0001181031Y0000168844D01*
X0001179089Y0000164749D01*
X0001178689Y0000162190D01*
X0001179766Y0000161493D01*
X0001182198Y0000162945D01*
X0001183713Y0000164052D01*
X0001186076Y0000165434D01*
X0001189695Y0000167297D01*
X0001194977Y0000169851D01*
X0001202330Y0000173301D01*
X0001205142Y0000174607D01*
X0001208434Y0000175490D01*
X0001213249Y0000176077D01*
X0001216335Y0000176208D01*
X0001221185Y0000176059D01*
X0001224263Y0000175256D01*
X0001226639Y0000173432D01*
X0001227622Y0000172348D01*
X0001230260Y0000168201D01*
X0001231892Y0000163700D01*
X0001231903Y0000163645D01*
X0001231644Y0000158216D01*
X0001229182Y0000151061D01*
X0001224548Y0000142234D01*
X0001217775Y0000131789D01*
X0001208895Y0000119781D01*
X0001197998Y0000106332D01*
X0001193613Y0000100748D01*
X0001191062Y0000096651D01*
X0001190477Y0000094257D01*
X0001190500Y0000094189D01*
X0001191245Y0000091548D01*
X0001192167Y0000087306D01*
X0001192627Y0000084853D01*
X0001193346Y0000081099D01*
X0001194233Y0000077220D01*
X0001195463Y0000072548D01*
X0001197212Y0000066410D01*
X0001199330Y0000059232D01*
X0001200966Y0000055718D01*
X0001202900Y0000054382D01*
X0001204684Y0000055530D01*
X0001204697Y0000055551D01*
X0001205133Y0000057478D01*
X0001205670Y0000061697D01*
X0001206247Y0000067652D01*
X0001206807Y0000074780D01*
X0001206986Y0000077413D01*
X0001207959Y0000089161D01*
X0001209249Y0000098504D01*
X0001210976Y0000105890D01*
X0001213259Y0000111760D01*
X0001216216Y0000116563D01*
X0001218026Y0000118748D01*
X0001221247Y0000122112D01*
X0001224397Y0000124780D01*
X0001227870Y0000126849D01*
X0001232063Y0000128428D01*
X0001237369Y0000129619D01*
X0001244184Y0000130522D01*
X0001252901Y0000131243D01*
X0001263916Y0000131885D01*
X0001269256Y0000132152D01*
X0001276671Y0000132579D01*
X0001283118Y0000133073D01*
X0001288033Y0000133582D01*
X0001290848Y0000134053D01*
X0001291224Y0000134194D01*
X0001292305Y0000135845D01*
X0001291151Y0000137439D01*
X0001288328Y0000138367D01*
X0001287288Y0000138425D01*
X0001282113Y0000138951D01*
X0001275516Y0000140365D01*
X0001268245Y0000142419D01*
X0001261047Y0000144867D01*
X0001254670Y0000147462D01*
X0001249863Y0000149957D01*
X0001247910Y0000151430D01*
X0001245389Y0000154196D01*
X0001244694Y0000156219D01*
X0001245534Y0000158674D01*
X0001245934Y0000159462D01*
X0001248981Y0000163582D01*
X0001254438Y0000168772D01*
X0001262359Y0000175082D01*
X0001272798Y0000182555D01*
X0001275424Y0000184350D01*
X0001282226Y0000188894D01*
X0001290146Y0000194064D01*
X0001298579Y0000199478D01*
X0001306922Y0000204755D01*
X0001314573Y0000209513D01*
X0001320929Y0000213370D01*
X0001324647Y0000215534D01*
X0001330027Y0000218642D01*
X0001333315Y0000220811D01*
X0001334961Y0000222382D01*
X0001335421Y0000223705D01*
X0001335421Y0000223740D01*
X0001334262Y0000223677D01*
X0001330769Y0000222329D01*
X0001324915Y0000219684D01*
X0001316676Y0000215728D01*
X0001306030Y0000210451D01*
X0001292948Y0000203839D01*
X0001277407Y0000195882D01*
X0001260680Y0000187239D01*
X0001254398Y0000184117D01*
X0001250095Y0000182349D01*
X0001247323Y0000181780D01*
X0001245765Y0000182167D01*
X0001243575Y0000184070D01*
X0001242986Y0000185016D01*
X0001243170Y0000185986D01*
X0001244112Y0000188013D01*
X0001245909Y0000191247D01*
X0001248655Y0000195841D01*
X0001252446Y0000201947D01*
X0001257375Y0000209716D01*
X0001263539Y0000219300D01*
X0001271032Y0000230851D01*
X0001279951Y0000244521D01*
X0001287076Y0000255408D01*
X0001290174Y0000260266D01*
X0001292552Y0000264250D01*
X0001293855Y0000266740D01*
X0001293993Y0000267194D01*
X0001293503Y0000268363D01*
X0001291922Y0000267704D01*
X0001291922Y0000267704D01*
G37*
X0001291922Y0000267704D02*
X0001289079Y0000265075D01*
X0001284805Y0000260334D01*
X0001282435Y0000257552D01*
X0001278377Y0000252747D01*
X0001274913Y0000248668D01*
X0001272520Y0000245877D01*
X0001271797Y0000245053D01*
X0001270453Y0000243473D01*
X0001267609Y0000240062D01*
X0001263582Y0000235198D01*
X0001258681Y0000229260D01*
X0001253290Y0000222709D01*
X0001247161Y0000215344D01*
X0001240922Y0000208005D01*
X0001235078Y0000201279D01*
X0001230136Y0000195748D01*
X0001227302Y0000192710D01*
X0001223032Y0000188336D01*
X0001220193Y0000185723D01*
X0001218236Y0000184564D01*
X0001216615Y0000184558D01*
X0001214783Y0000185399D01*
X0001214452Y0000185582D01*
X0001210616Y0000188633D01*
X0001207571Y0000193298D01*
X0001205098Y0000200009D01*
X0001203264Y0000207731D01*
X0001201409Y0000216934D01*
X0001199998Y0000223706D01*
X0001198921Y0000228419D01*
X0001198068Y0000231447D01*
X0001197329Y0000233160D01*
X0001196595Y0000233932D01*
X0001195757Y0000234133D01*
X0001195480Y0000234139D01*
X0001194367Y0000233662D01*
X0001193481Y0000231933D01*
X0001192701Y0000228504D01*
X0001191911Y0000222923D01*
X0001191422Y0000218716D01*
X0001190701Y0000211713D01*
X0001190127Y0000205159D01*
X0001189773Y0000199947D01*
X0001189696Y0000197645D01*
X0001188996Y0000191399D01*
X0001187142Y0000183852D01*
X0001184477Y0000176139D01*
X0001181341Y0000169393D01*
X0001181031Y0000168844D01*
X0001179089Y0000164749D01*
X0001178689Y0000162190D01*
X0001179766Y0000161493D01*
X0001182198Y0000162945D01*
X0001183713Y0000164052D01*
X0001186076Y0000165434D01*
X0001189695Y0000167297D01*
X0001194977Y0000169851D01*
X0001202330Y0000173301D01*
X0001205142Y0000174607D01*
X0001208434Y0000175490D01*
X0001213249Y0000176077D01*
X0001216335Y0000176208D01*
X0001221185Y0000176059D01*
X0001224263Y0000175256D01*
X0001226639Y0000173432D01*
X0001227622Y0000172348D01*
X0001230260Y0000168201D01*
X0001231892Y0000163700D01*
X0001231903Y0000163645D01*
X0001231644Y0000158216D01*
X0001229182Y0000151061D01*
X0001224548Y0000142234D01*
X0001217775Y0000131789D01*
X0001208895Y0000119781D01*
X0001197998Y0000106332D01*
X0001193613Y0000100748D01*
X0001191062Y0000096651D01*
X0001190477Y0000094257D01*
X0001190500Y0000094189D01*
X0001191245Y0000091548D01*
X0001192167Y0000087306D01*
X0001192627Y0000084853D01*
X0001193346Y0000081099D01*
X0001194233Y0000077220D01*
X0001195463Y0000072548D01*
X0001197212Y0000066410D01*
X0001199330Y0000059232D01*
X0001200966Y0000055718D01*
X0001202900Y0000054382D01*
X0001204684Y0000055530D01*
X0001204697Y0000055551D01*
X0001205133Y0000057478D01*
X0001205670Y0000061697D01*
X0001206247Y0000067652D01*
X0001206807Y0000074780D01*
X0001206986Y0000077413D01*
X0001207959Y0000089161D01*
X0001209249Y0000098504D01*
X0001210976Y0000105890D01*
X0001213259Y0000111760D01*
X0001216216Y0000116563D01*
X0001218026Y0000118748D01*
X0001221247Y0000122112D01*
X0001224397Y0000124780D01*
X0001227870Y0000126849D01*
X0001232063Y0000128428D01*
X0001237369Y0000129619D01*
X0001244184Y0000130522D01*
X0001252901Y0000131243D01*
X0001263916Y0000131885D01*
X0001269256Y0000132152D01*
X0001276671Y0000132579D01*
X0001283118Y0000133073D01*
X0001288033Y0000133582D01*
X0001290848Y0000134053D01*
X0001291224Y0000134194D01*
X0001292305Y0000135845D01*
X0001291151Y0000137439D01*
X0001288328Y0000138367D01*
X0001287288Y0000138425D01*
X0001282113Y0000138951D01*
X0001275516Y0000140365D01*
X0001268245Y0000142419D01*
X0001261047Y0000144867D01*
X0001254670Y0000147462D01*
X0001249863Y0000149957D01*
X0001247910Y0000151430D01*
X0001245389Y0000154196D01*
X0001244694Y0000156219D01*
X0001245534Y0000158674D01*
X0001245934Y0000159462D01*
X0001248981Y0000163582D01*
X0001254438Y0000168772D01*
X0001262359Y0000175082D01*
X0001272798Y0000182555D01*
X0001275424Y0000184350D01*
X0001282226Y0000188894D01*
X0001290146Y0000194064D01*
X0001298579Y0000199478D01*
X0001306922Y0000204755D01*
X0001314573Y0000209513D01*
X0001320929Y0000213370D01*
X0001324647Y0000215534D01*
X0001330027Y0000218642D01*
X0001333315Y0000220811D01*
X0001334961Y0000222382D01*
X0001335421Y0000223705D01*
X0001335421Y0000223740D01*
X0001334262Y0000223677D01*
X0001330769Y0000222329D01*
X0001324915Y0000219684D01*
X0001316676Y0000215728D01*
X0001306030Y0000210451D01*
X0001292948Y0000203839D01*
X0001277407Y0000195882D01*
X0001260680Y0000187239D01*
X0001254398Y0000184117D01*
X0001250095Y0000182349D01*
X0001247323Y0000181780D01*
X0001245765Y0000182167D01*
X0001243575Y0000184070D01*
X0001242986Y0000185016D01*
X0001243170Y0000185986D01*
X0001244112Y0000188013D01*
X0001245909Y0000191247D01*
X0001248655Y0000195841D01*
X0001252446Y0000201947D01*
X0001257375Y0000209716D01*
X0001263539Y0000219300D01*
X0001271032Y0000230851D01*
X0001279951Y0000244521D01*
X0001287076Y0000255408D01*
X0001290174Y0000260266D01*
X0001292552Y0000264250D01*
X0001293855Y0000266740D01*
X0001293993Y0000267194D01*
X0001293503Y0000268363D01*
X0001291922Y0000267704D01*
G36*
X0001147606Y0000115218D02*
X0001143357Y0000113480D01*
X0001136874Y0000110181D01*
X0001135773Y0000109589D01*
X0001129137Y0000105853D01*
X0001121698Y0000101414D01*
X0001113832Y0000096525D01*
X0001105917Y0000091437D01*
X0001098327Y0000086404D01*
X0001091441Y0000081676D01*
X0001085633Y0000077507D01*
X0001081280Y0000074148D01*
X0001078758Y0000071852D01*
X0001078278Y0000071059D01*
X0001078672Y0000070210D01*
X0001080066Y0000070171D01*
X0001082781Y0000071066D01*
X0001087139Y0000073017D01*
X0001093458Y0000076148D01*
X0001098993Y0000078988D01*
X0001111654Y0000085641D01*
X0001121983Y0000091320D01*
X0001130259Y0000096207D01*
X0001136763Y0000100489D01*
X0001141775Y0000104344D01*
X0001145575Y0000107959D01*
X0001148237Y0000111223D01*
X0001149918Y0000114072D01*
X0001149751Y0000115408D01*
X0001147606Y0000115218D01*
X0001147606Y0000115218D01*
G37*
X0001147606Y0000115218D02*
X0001143357Y0000113480D01*
X0001136874Y0000110181D01*
X0001135773Y0000109589D01*
X0001129137Y0000105853D01*
X0001121698Y0000101414D01*
X0001113832Y0000096525D01*
X0001105917Y0000091437D01*
X0001098327Y0000086404D01*
X0001091441Y0000081676D01*
X0001085633Y0000077507D01*
X0001081280Y0000074148D01*
X0001078758Y0000071852D01*
X0001078278Y0000071059D01*
X0001078672Y0000070210D01*
X0001080066Y0000070171D01*
X0001082781Y0000071066D01*
X0001087139Y0000073017D01*
X0001093458Y0000076148D01*
X0001098993Y0000078988D01*
X0001111654Y0000085641D01*
X0001121983Y0000091320D01*
X0001130259Y0000096207D01*
X0001136763Y0000100489D01*
X0001141775Y0000104344D01*
X0001145575Y0000107959D01*
X0001148237Y0000111223D01*
X0001149918Y0000114072D01*
X0001149751Y0000115408D01*
X0001147606Y0000115218D01*
G36*
X0001171648Y0000159306D02*
X0001168797Y0000158885D01*
X0001163719Y0000158365D01*
X0001157040Y0000157800D01*
X0001149386Y0000157246D01*
X0001146136Y0000157037D01*
X0001133139Y0000156196D01*
X0001122785Y0000155443D01*
X0001114860Y0000154756D01*
X0001109152Y0000154113D01*
X0001105448Y0000153492D01*
X0001103534Y0000152870D01*
X0001103199Y0000152582D01*
X0001103846Y0000151456D01*
X0001106434Y0000150472D01*
X0001110760Y0000149388D01*
X0001116385Y0000147824D01*
X0001122550Y0000146011D01*
X0001128493Y0000144180D01*
X0001133453Y0000142560D01*
X0001136672Y0000141385D01*
X0001137226Y0000141131D01*
X0001139969Y0000140269D01*
X0001144454Y0000139415D01*
X0001148369Y0000138904D01*
X0001156994Y0000138003D01*
X0001164630Y0000145887D01*
X0001168585Y0000150156D01*
X0001171892Y0000154061D01*
X0001173893Y0000156819D01*
X0001173999Y0000157009D01*
X0001174996Y0000159233D01*
X0001174188Y0000159787D01*
X0001171648Y0000159306D01*
X0001171648Y0000159306D01*
G37*
X0001171648Y0000159306D02*
X0001168797Y0000158885D01*
X0001163719Y0000158365D01*
X0001157040Y0000157800D01*
X0001149386Y0000157246D01*
X0001146136Y0000157037D01*
X0001133139Y0000156196D01*
X0001122785Y0000155443D01*
X0001114860Y0000154756D01*
X0001109152Y0000154113D01*
X0001105448Y0000153492D01*
X0001103534Y0000152870D01*
X0001103199Y0000152582D01*
X0001103846Y0000151456D01*
X0001106434Y0000150472D01*
X0001110760Y0000149388D01*
X0001116385Y0000147824D01*
X0001122550Y0000146011D01*
X0001128493Y0000144180D01*
X0001133453Y0000142560D01*
X0001136672Y0000141385D01*
X0001137226Y0000141131D01*
X0001139969Y0000140269D01*
X0001144454Y0000139415D01*
X0001148369Y0000138904D01*
X0001156994Y0000138003D01*
X0001164630Y0000145887D01*
X0001168585Y0000150156D01*
X0001171892Y0000154061D01*
X0001173893Y0000156819D01*
X0001173999Y0000157009D01*
X0001174996Y0000159233D01*
X0001174188Y0000159787D01*
X0001171648Y0000159306D01*
%LPC*%
D15*
X0000236876Y0000151574D02*
G75*
G03G03G03G03X0000236876Y0000151574I-0000070734D01X0000236876Y0000151574I-0000070734D01X0000236876Y0000151574I-0000070734D01G03G03X0000236876Y0000151574I-0000070734D01G03G03X0000236876Y0000151574I-0000070734D01X0000236876Y0000151574I-0000070734D01X0000236876Y0000151574I-0000070734D01X0000236876Y0000151574I-0000070734D01*
G01G01G01G01G01G01G01G01*
X0000236482Y0001237007D02*
G75*
G03G03G03G03X0000236482Y0001237007I-0000070734D01X0000236482Y0001237007I-0000070734D01X0000236482Y0001237007I-0000070734D01G03G03X0000236482Y0001237007I-0000070734D01G03G03X0000236482Y0001237007I-0000070734D01X0000236482Y0001237007I-0000070734D01X0000236482Y0001237007I-0000070734D01X0000236482Y0001237007I-0000070734D01*
G01G01G01G01G01G01G01G01*
X0002918503Y0001237401D02*
G75*
G03G03G03G03X0002918503Y0001237401I-0000070734D01X0002918503Y0001237401I-0000070734D01X0002918503Y0001237401I-0000070734D01G03G03X0002918503Y0001237401I-0000070734D01G03G03X0002918503Y0001237401I-0000070734D01X0002918503Y0001237401I-0000070734D01X0002918503Y0001237401I-0000070734D01X0002918503Y0001237401I-0000070734D01*
G01G01G01G01G01G01G01G01*
X0002917037Y0000153744D02*
G75*
G03G03G03G03X0002917037Y0000153744I-0000070734D01X0002917037Y0000153744I-0000070734D01X0002917037Y0000153744I-0000070734D01G03G03X0002917037Y0000153744I-0000070734D01G03G03X0002917037Y0000153744I-0000070734D01X0002917037Y0000153744I-0000070734D01X0002917037Y0000153744I-0000070734D01X0002917037Y0000153744I-0000070734D01*
G01G01G01G01G01G01G01G01*
D16*
X0002655905Y0000565748D02*
G75*
G03G03G03G03X0002655905Y0000565748I-0000104724D01X0002655905Y0000565748I-0000104724D01X0002655905Y0000565748I-0000104724D01G03G03X0002655905Y0000565748I-0000104724D01G03G03X0002655905Y0000565748I-0000104724D01X0002655905Y0000565748I-0000104724D01X0002655905Y0000565748I-0000104724D01X0002655905Y0000565748I-0000104724D01*
G01G01G01G01G01G01G01G01*
D17*
X0002666535Y0000638188D02*
X0002666535Y0000492913D01*
D18*
X0002701967Y0000565748D02*
G75*
G03G03G03G03X0002701967Y0000565748I-0000150787D01X0002701967Y0000565748I-0000150787D01X0002701967Y0000565748I-0000150787D01G03G03X0002701967Y0000565748I-0000150787D01G03G03X0002701967Y0000565748I-0000150787D01X0002701967Y0000565748I-0000150787D01X0002701967Y0000565748I-0000150787D01X0002701967Y0000565748I-0000150787D01*
G01G01G01G01G01G01G01G01*
D16*
X0002144094Y0000565748D02*
G75*
G03G03G03G03X0002144094Y0000565748I-0000104724D01X0002144094Y0000565748I-0000104724D01X0002144094Y0000565748I-0000104724D01G03G03X0002144094Y0000565748I-0000104724D01G03G03X0002144094Y0000565748I-0000104724D01X0002144094Y0000565748I-0000104724D01X0002144094Y0000565748I-0000104724D01X0002144094Y0000565748I-0000104724D01*
G01G01G01G01G01G01G01G01*
D17*
X0002154724Y0000638188D02*
X0002154724Y0000492913D01*
D18*
X0002190157Y0000565748D02*
G75*
G03G03G03G03X0002190157Y0000565748I-0000150787D01X0002190157Y0000565748I-0000150787D01X0002190157Y0000565748I-0000150787D01G03G03X0002190157Y0000565748I-0000150787D01G03G03X0002190157Y0000565748I-0000150787D01X0002190157Y0000565748I-0000150787D01X0002190157Y0000565748I-0000150787D01X0002190157Y0000565748I-0000150787D01*
G01G01G01G01G01G01G01G01*
D16*
X0002655905Y0001116929D02*
G75*
G03G03G03G03X0002655905Y0001116929I-0000104724D01X0002655905Y0001116929I-0000104724D01X0002655905Y0001116929I-0000104724D01G03G03X0002655905Y0001116929I-0000104724D01G03G03X0002655905Y0001116929I-0000104724D01X0002655905Y0001116929I-0000104724D01X0002655905Y0001116929I-0000104724D01X0002655905Y0001116929I-0000104724D01*
G01G01G01G01G01G01G01G01*
D17*
X0002666535Y0001189370D02*
X0002666535Y0001044094D01*
D18*
X0002701967Y0001116929D02*
G75*
G03G03G03G03X0002701967Y0001116929I-0000150787D01X0002701967Y0001116929I-0000150787D01X0002701967Y0001116929I-0000150787D01G03G03X0002701967Y0001116929I-0000150787D01G03G03X0002701967Y0001116929I-0000150787D01X0002701967Y0001116929I-0000150787D01X0002701967Y0001116929I-0000150787D01X0002701967Y0001116929I-0000150787D01*
G01G01G01G01G01G01G01G01*
D16*
X0002144094Y0001116929D02*
G75*
G03G03G03G03X0002144094Y0001116929I-0000104724D01X0002144094Y0001116929I-0000104724D01X0002144094Y0001116929I-0000104724D01G03G03X0002144094Y0001116929I-0000104724D01G03G03X0002144094Y0001116929I-0000104724D01X0002144094Y0001116929I-0000104724D01X0002144094Y0001116929I-0000104724D01X0002144094Y0001116929I-0000104724D01*
G01G01G01G01G01G01G01G01*
D17*
X0002154724Y0001189370D02*
X0002154724Y0001044094D01*
D18*
X0002190157Y0001116929D02*
G75*
G03G03G03G03X0002190157Y0001116929I-0000150787D01X0002190157Y0001116929I-0000150787D01X0002190157Y0001116929I-0000150787D01G03G03X0002190157Y0001116929I-0000150787D01G03G03X0002190157Y0001116929I-0000150787D01X0002190157Y0001116929I-0000150787D01X0002190157Y0001116929I-0000150787D01X0002190157Y0001116929I-0000150787D01*
G01G01G01G01G01G01G01G01*
D16*
X0001592913Y0000565748D02*
G75*
G03G03G03G03X0001592913Y0000565748I-0000104724D01X0001592913Y0000565748I-0000104724D01X0001592913Y0000565748I-0000104724D01G03G03X0001592913Y0000565748I-0000104724D01G03G03X0001592913Y0000565748I-0000104724D01X0001592913Y0000565748I-0000104724D01X0001592913Y0000565748I-0000104724D01X0001592913Y0000565748I-0000104724D01*
G01G01G01G01G01G01G01G01*
D17*
X0001603543Y0000638188D02*
X0001603543Y0000492913D01*
D18*
X0001638976Y0000565748D02*
G75*
G03G03G03G03X0001638976Y0000565748I-0000150787D01X0001638976Y0000565748I-0000150787D01X0001638976Y0000565748I-0000150787D01G03G03X0001638976Y0000565748I-0000150787D01G03G03X0001638976Y0000565748I-0000150787D01X0001638976Y0000565748I-0000150787D01X0001638976Y0000565748I-0000150787D01X0001638976Y0000565748I-0000150787D01*
G01G01G01G01G01G01G01G01*
D16*
X0001081102Y0000565748D02*
G75*
G03G03G03G03X0001081102Y0000565748I-0000104724D01X0001081102Y0000565748I-0000104724D01X0001081102Y0000565748I-0000104724D01G03G03X0001081102Y0000565748I-0000104724D01G03G03X0001081102Y0000565748I-0000104724D01X0001081102Y0000565748I-0000104724D01X0001081102Y0000565748I-0000104724D01X0001081102Y0000565748I-0000104724D01*
G01G01G01G01G01G01G01G01*
D17*
X0001091732Y0000638188D02*
X0001091732Y0000492913D01*
D18*
X0001127165Y0000565748D02*
G75*
G03G03G03G03X0001127165Y0000565748I-0000150787D01X0001127165Y0000565748I-0000150787D01X0001127165Y0000565748I-0000150787D01G03G03X0001127165Y0000565748I-0000150787D01G03G03X0001127165Y0000565748I-0000150787D01X0001127165Y0000565748I-0000150787D01X0001127165Y0000565748I-0000150787D01X0001127165Y0000565748I-0000150787D01*
G01G01G01G01G01G01G01G01*
D16*
X0000569291Y0000565748D02*
G75*
G03G03G03G03X0000569291Y0000565748I-0000104724D01X0000569291Y0000565748I-0000104724D01X0000569291Y0000565748I-0000104724D01G03G03X0000569291Y0000565748I-0000104724D01G03G03X0000569291Y0000565748I-0000104724D01X0000569291Y0000565748I-0000104724D01X0000569291Y0000565748I-0000104724D01X0000569291Y0000565748I-0000104724D01*
G01G01G01G01G01G01G01G01*
D17*
X0000579921Y0000638188D02*
X0000579921Y0000492913D01*
D18*
X0000615354Y0000565748D02*
G75*
G03G03G03G03X0000615354Y0000565748I-0000150787D01X0000615354Y0000565748I-0000150787D01X0000615354Y0000565748I-0000150787D01G03G03X0000615354Y0000565748I-0000150787D01G03G03X0000615354Y0000565748I-0000150787D01X0000615354Y0000565748I-0000150787D01X0000615354Y0000565748I-0000150787D01X0000615354Y0000565748I-0000150787D01*
G01G01G01G01G01G01G01G01*
D16*
X0001592913Y0001116929D02*
G75*
G03G03G03G03X0001592913Y0001116929I-0000104724D01X0001592913Y0001116929I-0000104724D01X0001592913Y0001116929I-0000104724D01G03G03X0001592913Y0001116929I-0000104724D01G03G03X0001592913Y0001116929I-0000104724D01X0001592913Y0001116929I-0000104724D01X0001592913Y0001116929I-0000104724D01X0001592913Y0001116929I-0000104724D01*
G01G01G01G01G01G01G01G01*
D17*
X0001603543Y0001189370D02*
X0001603543Y0001044094D01*
D18*
X0001638976Y0001116929D02*
G75*
G03G03G03G03X0001638976Y0001116929I-0000150787D01X0001638976Y0001116929I-0000150787D01X0001638976Y0001116929I-0000150787D01G03G03X0001638976Y0001116929I-0000150787D01G03G03X0001638976Y0001116929I-0000150787D01X0001638976Y0001116929I-0000150787D01X0001638976Y0001116929I-0000150787D01X0001638976Y0001116929I-0000150787D01*
G01G01G01G01G01G01G01G01*
D16*
X0001081102Y0001116929D02*
G75*
G03G03G03G03X0001081102Y0001116929I-0000104724D01X0001081102Y0001116929I-0000104724D01X0001081102Y0001116929I-0000104724D01G03G03X0001081102Y0001116929I-0000104724D01G03G03X0001081102Y0001116929I-0000104724D01X0001081102Y0001116929I-0000104724D01X0001081102Y0001116929I-0000104724D01X0001081102Y0001116929I-0000104724D01*
G01G01G01G01G01G01G01G01*
D17*
X0001091732Y0001189370D02*
X0001091732Y0001044094D01*
D18*
X0001127165Y0001116929D02*
G75*
G03G03G03G03X0001127165Y0001116929I-0000150787D01X0001127165Y0001116929I-0000150787D01X0001127165Y0001116929I-0000150787D01G03G03X0001127165Y0001116929I-0000150787D01G03G03X0001127165Y0001116929I-0000150787D01X0001127165Y0001116929I-0000150787D01X0001127165Y0001116929I-0000150787D01X0001127165Y0001116929I-0000150787D01*
G01G01G01G01G01G01G01G01*
D16*
X0000569291Y0001116929D02*
G75*
G03G03G03G03X0000569291Y0001116929I-0000104724D01X0000569291Y0001116929I-0000104724D01X0000569291Y0001116929I-0000104724D01G03G03X0000569291Y0001116929I-0000104724D01G03G03X0000569291Y0001116929I-0000104724D01X0000569291Y0001116929I-0000104724D01X0000569291Y0001116929I-0000104724D01X0000569291Y0001116929I-0000104724D01*
G01G01G01G01G01G01G01G01*
D17*
X0000579921Y0001189370D02*
X0000579921Y0001044094D01*
D18*
X0000615354Y0001116929D02*
G75*
G03G03G03G03X0000615354Y0001116929I-0000150787D01X0000615354Y0001116929I-0000150787D01X0000615354Y0001116929I-0000150787D01G03G03X0000615354Y0001116929I-0000150787D01G03G03X0000615354Y0001116929I-0000150787D01X0000615354Y0001116929I-0000150787D01X0000615354Y0001116929I-0000150787D01X0000615354Y0001116929I-0000150787D01*
G01G01G01G01G01G01G01G01*
%LPD*%
G01G01G01G01G01G01G01G01*
D29*
D30*
X0001707255Y0002024184D02*
X0001707255Y0001984813D01*
X0001707255Y0002022309D02*
X0001703880Y0002024184D01*
X0001697131Y0002024184D01*
X0001693757Y0002022309D01*
X0001692069Y0002020433D01*
X0001690382Y0002016684D01*
X0001690382Y0002005436D01*
X0001692069Y0002001687D01*
X0001693757Y0001999812D01*
X0001697131Y0001997936D01*
X0001703880Y0001997936D01*
X0001707255Y0001999812D01*
X0001670134Y0001997936D02*
X0001673509Y0001999812D01*
X0001675196Y0002003562D01*
X0001675196Y0002037307D01*
X0001641451Y0002024184D02*
X0001641451Y0001997936D01*
X0001656635Y0002024184D02*
X0001656635Y0002003562D01*
X0001654949Y0001999812D01*
X0001651574Y0001997936D01*
X0001646512Y0001997936D01*
X0001643138Y0001999812D01*
X0001641451Y0002001687D01*
X0001609392Y0002024184D02*
X0001609392Y0001992313D01*
X0001611079Y0001988563D01*
X0001612767Y0001986689D01*
X0001616141Y0001984813D01*
X0001621203Y0001984813D01*
X0001624578Y0001986689D01*
X0001609392Y0001999812D02*
X0001612767Y0001997936D01*
X0001619516Y0001997936D01*
X0001622890Y0001999812D01*
X0001624578Y0002001687D01*
X0001626265Y0002005436D01*
X0001626265Y0002016684D01*
X0001624578Y0002020433D01*
X0001622890Y0002022309D01*
X0001619516Y0002024184D01*
X0001612767Y0002024184D01*
X0001609392Y0002022309D01*
X0001540213Y0002039181D02*
X0001570584Y0001988563D01*
X0001503092Y0001999812D02*
X0001499718Y0001997936D01*
X0001492969Y0001997936D01*
X0001489595Y0001999812D01*
X0001487907Y0002003562D01*
X0001487907Y0002005436D01*
X0001489595Y0002009186D01*
X0001492969Y0002011061D01*
X0001498030Y0002011061D01*
X0001501406Y0002012935D01*
X0001503092Y0002016684D01*
X0001503092Y0002018560D01*
X0001501406Y0002022309D01*
X0001498030Y0002024184D01*
X0001492969Y0002024184D01*
X0001489595Y0002022309D01*
X0001467660Y0001997936D02*
X0001471034Y0001999812D01*
X0001472722Y0002001687D01*
X0001474409Y0002005436D01*
X0001474409Y0002016684D01*
X0001472722Y0002020433D01*
X0001471034Y0002022309D01*
X0001467660Y0002024184D01*
X0001462598Y0002024184D01*
X0001459223Y0002022309D01*
X0001457536Y0002020433D01*
X0001455849Y0002016684D01*
X0001455849Y0002005436D01*
X0001457536Y0002001687D01*
X0001459223Y0001999812D01*
X0001462598Y0001997936D01*
X0001467660Y0001997936D01*
X0001425477Y0001999812D02*
X0001428852Y0001997936D01*
X0001435601Y0001997936D01*
X0001438976Y0001999812D01*
X0001440663Y0002001687D01*
X0001442350Y0002005436D01*
X0001442350Y0002016684D01*
X0001440663Y0002020433D01*
X0001438976Y0002022309D01*
X0001435601Y0002024184D01*
X0001428852Y0002024184D01*
X0001425477Y0002022309D01*
X0001410292Y0001997936D02*
X0001410292Y0002037307D01*
X0001406917Y0002012935D02*
X0001396794Y0001997936D01*
X0001396794Y0002024184D02*
X0001410292Y0002009186D01*
X0001368110Y0001999812D02*
X0001371484Y0001997936D01*
X0001378233Y0001997936D01*
X0001381608Y0001999812D01*
X0001383295Y0002003562D01*
X0001383295Y0002018560D01*
X0001381608Y0002022309D01*
X0001378233Y0002024184D01*
X0001371484Y0002024184D01*
X0001368110Y0002022309D01*
X0001366422Y0002018560D01*
X0001366422Y0002014810D01*
X0001383295Y0002011061D01*
X0001356299Y0002024184D02*
X0001342799Y0002024184D01*
X0001351237Y0002037307D02*
X0001351237Y0002003562D01*
X0001349550Y0001999812D01*
X0001346175Y0001997936D01*
X0001342799Y0001997936D01*
X0000929133Y0001616047D02*
X0000929133Y0001655418D01*
X0000920697Y0001655418D01*
X0000915635Y0001653542D01*
X0000912260Y0001649793D01*
X0000910572Y0001646044D01*
X0000908886Y0001638545D01*
X0000908886Y0001632920D01*
X0000910572Y0001625421D01*
X0000912260Y0001621672D01*
X0000915635Y0001617922D01*
X0000920697Y0001616047D01*
X0000929133Y0001616047D01*
X0000873453Y0001619797D02*
X0000875140Y0001617922D01*
X0000880202Y0001616047D01*
X0000883577Y0001616047D01*
X0000888638Y0001617922D01*
X0000892013Y0001621672D01*
X0000893700Y0001625421D01*
X0000895388Y0001632920D01*
X0000895388Y0001638545D01*
X0000893700Y0001646044D01*
X0000892013Y0001649793D01*
X0000888638Y0001653542D01*
X0000883577Y0001655418D01*
X0000880202Y0001655418D01*
X0000875140Y0001653542D01*
X0000873453Y0001651668D01*
X0000816085Y0001655418D02*
X0000822834Y0001655418D01*
X0000826209Y0001653542D01*
X0000827896Y0001651668D01*
X0000831271Y0001646044D01*
X0000832958Y0001638545D01*
X0000832958Y0001623547D01*
X0000831271Y0001619797D01*
X0000829583Y0001617922D01*
X0000826209Y0001616047D01*
X0000819460Y0001616047D01*
X0000816085Y0001617922D01*
X0000814398Y0001619797D01*
X0000812710Y0001623547D01*
X0000812710Y0001632920D01*
X0000814398Y0001636670D01*
X0000816085Y0001638545D01*
X0000819460Y0001640419D01*
X0000826209Y0001640419D01*
X0000829583Y0001638545D01*
X0000831271Y0001636670D01*
X0000832958Y0001632920D01*
X0000797524Y0001631046D02*
X0000770528Y0001631046D01*
X0000735095Y0001616047D02*
X0000755343Y0001616047D01*
X0000745219Y0001616047D02*
X0000745219Y0001655418D01*
X0000748593Y0001649793D01*
X0000751968Y0001646044D01*
X0000755343Y0001644169D01*
X0000721597Y0001651668D02*
X0000719909Y0001653542D01*
X0000716535Y0001655418D01*
X0000708098Y0001655418D01*
X0000704723Y0001653542D01*
X0000703037Y0001651668D01*
X0000701349Y0001647919D01*
X0000701349Y0001644169D01*
X0000703037Y0001638545D01*
X0000723284Y0001616047D01*
X0000701349Y0001616047D01*
X0000664228Y0001655418D02*
X0000652418Y0001616047D01*
X0000640607Y0001655418D01*
D31*
X0001354330Y0002114173D02*
X0001248031Y0002114173D01*
X0001779527Y0002114173D02*
X0001685039Y0002114173D01*
X0001861047Y0001643700D02*
G75*
G02G02G02G02X0001778344Y0001562992I-0000080732D01X0001778344Y0001562992I-0000080732D01X0001778344Y0001562992I-0000080732D01G02G02X0001778344Y0001562992I-0000080732D01G02G02X0001778344Y0001562992I-0000080732D01X0001778344Y0001562992I-0000080732D01X0001778344Y0001562992I-0000080732D01X0001778344Y0001562992I-0000080732D01*
G01G01G01G01G01G01G01G01*
X0001246460Y0001562992D02*
G75*
G02G02G02G02X0001165748Y0001645693I-0000000003J0000080732D01X0001165748Y0001645693I-0000000003J0000080732D01X0001165748Y0001645693I-0000000003J0000080732D01G02G02X0001165748Y0001645693I-0000000003J0000080732D01G02G02X0001165748Y0001645693I-0000000003J0000080732D01X0001165748Y0001645693I-0000000003J0000080732D01X0001165748Y0001645693I-0000000003J0000080732D01X0001165748Y0001645693I-0000000003J0000080732D01*
G01G01G01G01G01G01G01G01*
X0001248031Y0001562992D02*
X0001779527Y0001562992D01*
X0001165354Y0001641732D02*
X0001165354Y0002031496D01*
X0001165354Y0002031496D02*
G75*
G02G02G02G02X0001248037Y0002113922I0000080714J0000001717D01X0001248037Y0002113922I0000080714J0000001717D01X0001248037Y0002113922I0000080714J0000001717D01G02G02X0001248037Y0002113922I0000080714J0000001717D01G02G02X0001248037Y0002113922I0000080714J0000001717D01X0001248037Y0002113922I0000080714J0000001717D01X0001248037Y0002113922I0000080714J0000001717D01X0001248037Y0002113922I0000080714J0000001717D01*
G01G01G01G01G01G01G01G01*
X0001781496Y0002114197D02*
G75*
G02G02G02G02X0001862204Y0002031496J-0000080732D01X0001862204Y0002031496J-0000080732D01X0001862204Y0002031496J-0000080732D01G02G02X0001862204Y0002031496J-0000080732D01G02G02X0001862204Y0002031496J-0000080732D01X0001862204Y0002031496J-0000080732D01X0001862204Y0002031496J-0000080732D01X0001862204Y0002031496J-0000080732D01*
G01G01G01G01G01G01G01G01*
X0001861023Y0001642912D02*
X0001862204Y0002031496D01*
X0000562992Y0001641732D02*
X0000562992Y0002031496D01*
X0000562992Y0002031102D02*
G75*
G02G02G02G02X0000645693Y0002111811I0000080732D01X0000645693Y0002111811I0000080732D01X0000645693Y0002111811I0000080732D01G02G02X0000645693Y0002111811I0000080732D01G02G02X0000645693Y0002111811I0000080732D01X0000645693Y0002111811I0000080732D01X0000645693Y0002111811I0000080732D01X0000645693Y0002111811I0000080732D01*
G01G01G01G01G01G01G01G01*
X0000644098Y0001560629D02*
G75*
G02G02G02G02X0000563385Y0001643331I-0000000003J0000080732D01X0000563385Y0001643331I-0000000003J0000080732D01X0000563385Y0001643331I-0000000003J0000080732D01G02G02X0000563385Y0001643331I-0000000003J0000080732D01G02G02X0000563385Y0001643331I-0000000003J0000080732D01X0000563385Y0001643331I-0000000003J0000080732D01X0000563385Y0001643331I-0000000003J0000080732D01X0000563385Y0001643331I-0000000003J0000080732D01*
G01G01G01G01G01G01G01G01*
X0000640157Y0001560629D02*
X0000936220Y0001560629D01*
X0001018527Y0001641338D02*
G75*
G02G02G02G02X0000935826Y0001560629I-0000080732D01X0000935826Y0001560629I-0000080732D01X0000935826Y0001560629I-0000080732D01G02G02X0000935826Y0001560629I-0000080732D01G02G02X0000935826Y0001560629I-0000080732D01X0000935826Y0001560629I-0000080732D01X0000935826Y0001560629I-0000080732D01X0000935826Y0001560629I-0000080732D01*
G01G01G01G01G01G01G01G01*
X0001018502Y0001642912D02*
X0001019685Y0002031496D01*
X0000938976Y0002114197D02*
G75*
G02G02G02G02X0001019685Y0002031496J-0000080732D01X0001019685Y0002031496J-0000080732D01X0001019685Y0002031496J-0000080732D01G02G02X0001019685Y0002031496J-0000080732D01G02G02X0001019685Y0002031496J-0000080732D01X0001019685Y0002031496J-0000080732D01X0001019685Y0002031496J-0000080732D01X0001019685Y0002031496J-0000080732D01*
G01G01G01G01G01G01G01G01*
D32*
X0000889763Y0002086050D02*
X0000889763Y0002156917D01*
X0000862767Y0002156917D01*
X0000856017Y0002153543D01*
X0000852643Y0002150168D01*
X0000849268Y0002143419D01*
X0000849268Y0002133295D01*
X0000852643Y0002126546D01*
X0000856017Y0002123172D01*
X0000862767Y0002119797D01*
X0000889763Y0002119797D01*
X0000825646Y0002156917D02*
X0000808773Y0002086050D01*
X0000795275Y0002136670D01*
X0000781777Y0002086050D01*
X0000764904Y0002156917D01*
X0000697412Y0002086050D02*
X0000721034Y0002119797D01*
X0000737906Y0002086050D02*
X0000737906Y0002156917D01*
X0000710911Y0002156917D01*
X0000704161Y0002153543D01*
X0000700786Y0002150168D01*
X0000697412Y0002143419D01*
X0000697412Y0002133295D01*
X0000700786Y0002126546D01*
X0000704161Y0002123172D01*
X0000710911Y0002119797D01*
X0000737906Y0002119797D01*
X0001605174Y0002156917D02*
X0001605174Y0002099550D01*
X0001601799Y0002092800D01*
X0001598425Y0002089426D01*
X0001591676Y0002086050D01*
X0001578177Y0002086050D01*
X0001571428Y0002089426D01*
X0001568053Y0002092800D01*
X0001564678Y0002099550D01*
X0001564678Y0002156917D01*
X0001534308Y0002089426D02*
X0001524184Y0002086050D01*
X0001507311Y0002086050D01*
X0001500562Y0002089426D01*
X0001497187Y0002092800D01*
X0001493813Y0002099550D01*
X0001493813Y0002106299D01*
X0001497187Y0002113048D01*
X0001500562Y0002116422D01*
X0001507311Y0002119797D01*
X0001520809Y0002123172D01*
X0001527559Y0002126546D01*
X0001530933Y0002129921D01*
X0001534308Y0002136670D01*
X0001534308Y0002143419D01*
X0001530933Y0002150168D01*
X0001527559Y0002153543D01*
X0001520809Y0002156917D01*
X0001503937Y0002156917D01*
X0001493813Y0002153543D01*
X0001439819Y0002123172D02*
X0001429696Y0002119797D01*
X0001426321Y0002116422D01*
X0001422947Y0002109673D01*
X0001422947Y0002099550D01*
X0001426321Y0002092800D01*
X0001429696Y0002089426D01*
X0001436444Y0002086050D01*
X0001463442Y0002086050D01*
X0001463442Y0002156917D01*
X0001439819Y0002156917D01*
X0001433070Y0002153543D01*
X0001429696Y0002150168D01*
X0001426321Y0002143419D01*
X0001426321Y0002136670D01*
X0001429696Y0002129921D01*
X0001433070Y0002126546D01*
X0001439819Y0002123172D01*
X0001463442Y0002123172D01*
D31*
X0002323991Y0002535826D02*
G75*
G02G02G02G02X0002406692Y0002616535I0000080732D01X0002406692Y0002616535I0000080732D01X0002406692Y0002616535I0000080732D01G02G02X0002406692Y0002616535I0000080732D01G02G02X0002406692Y0002616535I0000080732D01X0002406692Y0002616535I0000080732D01X0002406692Y0002616535I0000080732D01X0002406692Y0002616535I0000080732D01*
G01G01G01G01G01G01G01G01*
X0002324015Y0002534251D02*
X0002324015Y0002227189D01*
X0002405118Y0002144070D02*
G75*
G02G02G02G02X0002324409Y0002226771J0000080732D01X0002324409Y0002226771J0000080732D01X0002324409Y0002226771J0000080732D01G02G02X0002324409Y0002226771J0000080732D01G02G02X0002324409Y0002226771J0000080732D01X0002324409Y0002226771J0000080732D01X0002324409Y0002226771J0000080732D01X0002324409Y0002226771J0000080732D01*
G01G01G01G01G01G01G01G01*
D32*
X0002593250Y0002110461D02*
X0002616872Y0002144207D01*
X0002633745Y0002110461D02*
X0002633745Y0002181327D01*
X0002606749Y0002181327D01*
X0002599999Y0002177952D01*
X0002596625Y0002174578D01*
X0002593250Y0002167829D01*
X0002593250Y0002157705D01*
X0002596625Y0002150956D01*
X0002599999Y0002147581D01*
X0002606749Y0002144207D01*
X0002633745Y0002144207D01*
X0002562879Y0002147581D02*
X0002539257Y0002147581D01*
X0002529133Y0002110461D02*
X0002562879Y0002110461D01*
X0002562879Y0002181327D01*
X0002529133Y0002181327D01*
X0002475140Y0002147581D02*
X0002498762Y0002147581D01*
X0002498762Y0002110461D02*
X0002498762Y0002181327D01*
X0002465016Y0002181327D01*
X0002594938Y0001995163D02*
X0002598312Y0001991788D01*
X0002608436Y0001988413D01*
X0002615185Y0001988413D01*
X0002625309Y0001991788D01*
X0002632058Y0001998537D01*
X0002635433Y0002005286D01*
X0002638807Y0002018784D01*
X0002638807Y0002028908D01*
X0002635433Y0002042406D01*
X0002632058Y0002049156D01*
X0002625309Y0002055905D01*
X0002615185Y0002059280D01*
X0002608436Y0002059280D01*
X0002598312Y0002055905D01*
X0002594938Y0002052530D01*
X0002530821Y0001988413D02*
X0002564566Y0001988413D01*
X0002564566Y0002059280D01*
X0002507199Y0001988413D02*
X0002507199Y0002059280D01*
X0002466704Y0001988413D02*
X0002497075Y0002028908D01*
X0002466704Y0002059280D02*
X0002507199Y0002018784D01*
D31*
X0002702362Y0002616535D02*
X0002406299Y0002616535D01*
X0002698425Y0002616535D02*
G75*
G02G02G02G02X0002779133Y0002533834J-0000080732D01X0002779133Y0002533834J-0000080732D01X0002779133Y0002533834J-0000080732D01G02G02X0002779133Y0002533834J-0000080732D01G02G02X0002779133Y0002533834J-0000080732D01X0002779133Y0002533834J-0000080732D01X0002779133Y0002533834J-0000080732D01X0002779133Y0002533834J-0000080732D01*
G01G01G01G01G01G01G01G01*
X0002781102Y0002226771D02*
X0002779133Y0002533834D01*
X0002781102Y0002224803D02*
G75*
G02G02G02G02X0002698401Y0002144094I-0000080732D01X0002698401Y0002144094I-0000080732D01X0002698401Y0002144094I-0000080732D01G02G02X0002698401Y0002144094I-0000080732D01G02G02X0002698401Y0002144094I-0000080732D01X0002698401Y0002144094I-0000080732D01X0002698401Y0002144094I-0000080732D01X0002698401Y0002144094I-0000080732D01*
G01G01G01G01G01G01G01G01*
%LPC*%
D33*
X0000236876Y0001608267D02*
G75*
G03G03G03G03X0000236876Y0001608267I-0000070734D01X0000236876Y0001608267I-0000070734D01X0000236876Y0001608267I-0000070734D01G03G03X0000236876Y0001608267I-0000070734D01G03G03X0000236876Y0001608267I-0000070734D01X0000236876Y0001608267I-0000070734D01X0000236876Y0001608267I-0000070734D01X0000236876Y0001608267I-0000070734D01*
G01G01G01G01G01G01G01G01*
X0000236482Y0002693699D02*
G75*
G03G03G03G03X0000236482Y0002693699I-0000070734D01X0000236482Y0002693699I-0000070734D01X0000236482Y0002693699I-0000070734D01G03G03X0000236482Y0002693699I-0000070734D01G03G03X0000236482Y0002693699I-0000070734D01X0000236482Y0002693699I-0000070734D01X0000236482Y0002693699I-0000070734D01X0000236482Y0002693699I-0000070734D01*
G01G01G01G01G01G01G01G01*
X0002918503Y0002694094D02*
G75*
G03G03G03G03X0002918503Y0002694094I-0000070734D01X0002918503Y0002694094I-0000070734D01X0002918503Y0002694094I-0000070734D01G03G03X0002918503Y0002694094I-0000070734D01G03G03X0002918503Y0002694094I-0000070734D01X0002918503Y0002694094I-0000070734D01X0002918503Y0002694094I-0000070734D01X0002918503Y0002694094I-0000070734D01*
G01G01G01G01G01G01G01G01*
X0002917037Y0001610437D02*
G75*
G03G03G03G03X0002917037Y0001610437I-0000070734D01X0002917037Y0001610437I-0000070734D01X0002917037Y0001610437I-0000070734D01G03G03X0002917037Y0001610437I-0000070734D01G03G03X0002917037Y0001610437I-0000070734D01X0002917037Y0001610437I-0000070734D01X0002917037Y0001610437I-0000070734D01X0002917037Y0001610437I-0000070734D01*
G01G01G01G01G01G01G01G01*
D34*
X0002657283Y0002387960D02*
G75*
G03G03G03G03X0002657283Y0002387960I-0000104724D01X0002657283Y0002387960I-0000104724D01X0002657283Y0002387960I-0000104724D01G03G03X0002657283Y0002387960I-0000104724D01G03G03X0002657283Y0002387960I-0000104724D01X0002657283Y0002387960I-0000104724D01X0002657283Y0002387960I-0000104724D01X0002657283Y0002387960I-0000104724D01*
G01G01G01G01G01G01G01G01*
D35*
X0002667913Y0002460401D02*
X0002667913Y0002315125D01*
D36*
X0002703345Y0002387960D02*
G75*
G03G03G03G03X0002703345Y0002387960I-0000150787D01X0002703345Y0002387960I-0000150787D01X0002703345Y0002387960I-0000150787D01G03G03X0002703345Y0002387960I-0000150787D01G03G03X0002703345Y0002387960I-0000150787D01X0002703345Y0002387960I-0000150787D01X0002703345Y0002387960I-0000150787D01X0002703345Y0002387960I-0000150787D01*
G01G01G01G01G01G01G01G01*
%LPD*%
G01G01G01G01G01G01G01G01*
D47*
D48*
X0000281589Y0003181102D02*
X0000281589Y0003199850D01*
X0000242219Y0003199850D01*
X0000281589Y0003167978D02*
X0000255343Y0003167978D01*
X0000242219Y0003167978D02*
X0000244094Y0003169853D01*
X0000245969Y0003167978D01*
X0000244094Y0003166104D01*
X0000242219Y0003167978D01*
X0000245969Y0003167978D01*
X0000281589Y0003149230D02*
X0000255343Y0003149230D01*
X0000259092Y0003149230D02*
X0000257216Y0003147356D01*
X0000255343Y0003143607D01*
X0000255343Y0003137981D01*
X0000257216Y0003134233D01*
X0000260967Y0003132358D01*
X0000281589Y0003132358D01*
X0000260967Y0003132358D02*
X0000257216Y0003130483D01*
X0000255343Y0003126734D01*
X0000255343Y0003121109D01*
X0000257216Y0003117360D01*
X0000260967Y0003115485D01*
X0000281589Y0003115485D01*
X0000279715Y0003081739D02*
X0000281589Y0003085489D01*
X0000281589Y0003092988D01*
X0000279715Y0003096737D01*
X0000275965Y0003098612D01*
X0000260967Y0003098612D01*
X0000257216Y0003096737D01*
X0000255343Y0003092988D01*
X0000255343Y0003085489D01*
X0000257216Y0003081739D01*
X0000260967Y0003079865D01*
X0000264716Y0003079865D01*
X0000268466Y0003098612D01*
X0000279715Y0003064865D02*
X0000281589Y0003059242D01*
X0000281589Y0003049868D01*
X0000279715Y0003046119D01*
X0000277840Y0003044244D01*
X0000274090Y0003042369D01*
X0000270341Y0003042369D01*
X0000266591Y0003044244D01*
X0000264716Y0003046119D01*
X0000262842Y0003049868D01*
X0000260967Y0003057367D01*
X0000259092Y0003061117D01*
X0000257216Y0003062991D01*
X0000253468Y0003064865D01*
X0000249718Y0003064865D01*
X0000245969Y0003062991D01*
X0000244094Y0003061117D01*
X0000242219Y0003057367D01*
X0000242219Y0003047994D01*
X0000244094Y0003042369D01*
X0000281589Y0003025496D02*
X0000242219Y0003025496D01*
X0000242219Y0003016122D01*
X0000244094Y0003010497D01*
X0000247844Y0003006749D01*
X0000251593Y0003004874D01*
X0000259092Y0003002999D01*
X0000264716Y0003002999D01*
X0000272215Y0003004874D01*
X0000275965Y0003006749D01*
X0000279715Y0003010497D01*
X0000281589Y0003016122D01*
X0000281589Y0003025496D01*
X0000281589Y0002963629D02*
X0000262842Y0002976752D01*
X0000281589Y0002986125D02*
X0000242219Y0002986125D01*
X0000242219Y0002971128D01*
X0000244094Y0002967379D01*
X0000245969Y0002965504D01*
X0000249718Y0002963629D01*
X0000255343Y0002963629D01*
X0000259092Y0002965504D01*
X0000260967Y0002967379D01*
X0000262842Y0002971128D01*
X0000262842Y0002986125D01*
%LPC*%
D49*
X0000480708Y0003083464D03*
D50*
G36*
X0000203135Y0002943976D02*
X0000128094Y0002943976D01*
X0000127336Y0003219803D01*
X0000202375Y0003219803D01*
X0000203135Y0002943976D01*
X0000203135Y0002943976D01*
G37*
X0000203135Y0002943976D02*
X0000128094Y0002943976D01*
X0000127336Y0003219803D01*
X0000202375Y0003219803D01*
X0000203135Y0002943976D01*
%LPD*%
G01G01G01G01G01G01G01G01*
D61*
D62*
X0000281589Y0003535433D02*
X0000281589Y0003554180D01*
X0000242219Y0003554180D01*
X0000281589Y0003522309D02*
X0000255343Y0003522309D01*
X0000242219Y0003522309D02*
X0000244094Y0003524184D01*
X0000245969Y0003522309D01*
X0000244094Y0003520434D01*
X0000242219Y0003522309D01*
X0000245969Y0003522309D01*
X0000281589Y0003503562D02*
X0000255343Y0003503562D01*
X0000259092Y0003503562D02*
X0000257216Y0003501687D01*
X0000255343Y0003497937D01*
X0000255343Y0003492313D01*
X0000257216Y0003488563D01*
X0000260967Y0003486689D01*
X0000281589Y0003486689D01*
X0000260967Y0003486689D02*
X0000257216Y0003484813D01*
X0000255343Y0003481064D01*
X0000255343Y0003475440D01*
X0000257216Y0003471691D01*
X0000260967Y0003469816D01*
X0000281589Y0003469816D01*
X0000279715Y0003436069D02*
X0000281589Y0003439820D01*
X0000281589Y0003447319D01*
X0000279715Y0003451068D01*
X0000275965Y0003452943D01*
X0000260967Y0003452943D01*
X0000257216Y0003451068D01*
X0000255343Y0003447319D01*
X0000255343Y0003439820D01*
X0000257216Y0003436069D01*
X0000260967Y0003434195D01*
X0000264716Y0003434195D01*
X0000268466Y0003452943D01*
X0000279715Y0003419197D02*
X0000281589Y0003413573D01*
X0000281589Y0003404199D01*
X0000279715Y0003400449D01*
X0000277840Y0003398575D01*
X0000274090Y0003396700D01*
X0000270341Y0003396700D01*
X0000266591Y0003398575D01*
X0000264716Y0003400449D01*
X0000262842Y0003404199D01*
X0000260967Y0003411697D01*
X0000259092Y0003415448D01*
X0000257216Y0003417322D01*
X0000253468Y0003419197D01*
X0000249718Y0003419197D01*
X0000245969Y0003417322D01*
X0000244094Y0003415448D01*
X0000242219Y0003411697D01*
X0000242219Y0003402324D01*
X0000244094Y0003396700D01*
X0000281589Y0003379827D02*
X0000242219Y0003379827D01*
X0000242219Y0003370453D01*
X0000244094Y0003364829D01*
X0000247844Y0003361079D01*
X0000251593Y0003359205D01*
X0000259092Y0003357330D01*
X0000264716Y0003357330D01*
X0000272215Y0003359205D01*
X0000275965Y0003361079D01*
X0000279715Y0003364829D01*
X0000281589Y0003370453D01*
X0000281589Y0003379827D01*
X0000281589Y0003317960D02*
X0000262842Y0003331083D01*
X0000281589Y0003340457D02*
X0000242219Y0003340457D01*
X0000242219Y0003325458D01*
X0000244094Y0003321709D01*
X0000245969Y0003319835D01*
X0000249718Y0003317960D01*
X0000255343Y0003317960D01*
X0000259092Y0003319835D01*
X0000260967Y0003321709D01*
X0000262842Y0003325458D01*
X0000262842Y0003340457D01*
%LPC*%
D63*
X0000480708Y0003437795D03*
D64*
G36*
X0000203135Y0003298307D02*
X0000128094Y0003298307D01*
X0000127336Y0003574133D01*
X0000202375Y0003574133D01*
X0000203135Y0003298307D01*
X0000203135Y0003298307D01*
G37*
X0000203135Y0003298307D02*
X0000128094Y0003298307D01*
X0000127336Y0003574133D01*
X0000202375Y0003574133D01*
X0000203135Y0003298307D01*
G04 next file*
%LPD*%
G01G01G01G01G01G01G01G01*
D75*
D76*
X0000832770Y0003181102D02*
X0000832770Y0003199850D01*
X0000793400Y0003199850D01*
X0000832770Y0003167978D02*
X0000806524Y0003167978D01*
X0000793400Y0003167978D02*
X0000795275Y0003169853D01*
X0000797150Y0003167978D01*
X0000795275Y0003166104D01*
X0000793400Y0003167978D01*
X0000797150Y0003167978D01*
X0000832770Y0003149230D02*
X0000806524Y0003149230D01*
X0000810272Y0003149230D02*
X0000808398Y0003147356D01*
X0000806524Y0003143607D01*
X0000806524Y0003137981D01*
X0000808398Y0003134233D01*
X0000812148Y0003132358D01*
X0000832770Y0003132358D01*
X0000812148Y0003132358D02*
X0000808398Y0003130483D01*
X0000806524Y0003126734D01*
X0000806524Y0003121109D01*
X0000808398Y0003117360D01*
X0000812148Y0003115485D01*
X0000832770Y0003115485D01*
X0000830896Y0003081739D02*
X0000832770Y0003085489D01*
X0000832770Y0003092988D01*
X0000830896Y0003096737D01*
X0000827146Y0003098612D01*
X0000812148Y0003098612D01*
X0000808398Y0003096737D01*
X0000806524Y0003092988D01*
X0000806524Y0003085489D01*
X0000808398Y0003081739D01*
X0000812148Y0003079865D01*
X0000815898Y0003079865D01*
X0000819647Y0003098612D01*
X0000830896Y0003064865D02*
X0000832770Y0003059242D01*
X0000832770Y0003049868D01*
X0000830896Y0003046119D01*
X0000829021Y0003044244D01*
X0000825271Y0003042369D01*
X0000821522Y0003042369D01*
X0000817772Y0003044244D01*
X0000815898Y0003046119D01*
X0000814023Y0003049868D01*
X0000812148Y0003057367D01*
X0000810272Y0003061117D01*
X0000808398Y0003062991D01*
X0000804649Y0003064865D01*
X0000800899Y0003064865D01*
X0000797150Y0003062991D01*
X0000795275Y0003061117D01*
X0000793400Y0003057367D01*
X0000793400Y0003047994D01*
X0000795275Y0003042369D01*
X0000832770Y0003025496D02*
X0000793400Y0003025496D01*
X0000793400Y0003016122D01*
X0000795275Y0003010497D01*
X0000799025Y0003006749D01*
X0000802774Y0003004874D01*
X0000810272Y0003002999D01*
X0000815898Y0003002999D01*
X0000823397Y0003004874D01*
X0000827146Y0003006749D01*
X0000830896Y0003010497D01*
X0000832770Y0003016122D01*
X0000832770Y0003025496D01*
X0000832770Y0002963629D02*
X0000814023Y0002976752D01*
X0000832770Y0002986125D02*
X0000793400Y0002986125D01*
X0000793400Y0002971128D01*
X0000795275Y0002967379D01*
X0000797150Y0002965504D01*
X0000800899Y0002963629D01*
X0000806524Y0002963629D01*
X0000810272Y0002965504D01*
X0000812148Y0002967379D01*
X0000814023Y0002971128D01*
X0000814023Y0002986125D01*
%LPC*%
D77*
X0001031889Y0003083464D03*
D78*
G36*
X0000754315Y0002943976D02*
X0000679276Y0002943976D01*
X0000678517Y0003219803D01*
X0000753556Y0003219803D01*
X0000754315Y0002943976D01*
X0000754315Y0002943976D01*
G37*
X0000754315Y0002943976D02*
X0000679276Y0002943976D01*
X0000678517Y0003219803D01*
X0000753556Y0003219803D01*
X0000754315Y0002943976D01*
%LPD*%
G01G01G01G01G01G01G01G01*
D89*
D90*
X0000832770Y0003535433D02*
X0000832770Y0003554180D01*
X0000793400Y0003554180D01*
X0000832770Y0003522309D02*
X0000806524Y0003522309D01*
X0000793400Y0003522309D02*
X0000795275Y0003524184D01*
X0000797150Y0003522309D01*
X0000795275Y0003520434D01*
X0000793400Y0003522309D01*
X0000797150Y0003522309D01*
X0000832770Y0003503562D02*
X0000806524Y0003503562D01*
X0000810272Y0003503562D02*
X0000808398Y0003501687D01*
X0000806524Y0003497937D01*
X0000806524Y0003492313D01*
X0000808398Y0003488563D01*
X0000812148Y0003486689D01*
X0000832770Y0003486689D01*
X0000812148Y0003486689D02*
X0000808398Y0003484813D01*
X0000806524Y0003481064D01*
X0000806524Y0003475440D01*
X0000808398Y0003471691D01*
X0000812148Y0003469816D01*
X0000832770Y0003469816D01*
X0000830896Y0003436069D02*
X0000832770Y0003439820D01*
X0000832770Y0003447319D01*
X0000830896Y0003451068D01*
X0000827146Y0003452943D01*
X0000812148Y0003452943D01*
X0000808398Y0003451068D01*
X0000806524Y0003447319D01*
X0000806524Y0003439820D01*
X0000808398Y0003436069D01*
X0000812148Y0003434195D01*
X0000815898Y0003434195D01*
X0000819647Y0003452943D01*
X0000830896Y0003419197D02*
X0000832770Y0003413573D01*
X0000832770Y0003404199D01*
X0000830896Y0003400449D01*
X0000829021Y0003398575D01*
X0000825271Y0003396700D01*
X0000821522Y0003396700D01*
X0000817772Y0003398575D01*
X0000815898Y0003400449D01*
X0000814023Y0003404199D01*
X0000812148Y0003411697D01*
X0000810272Y0003415448D01*
X0000808398Y0003417322D01*
X0000804649Y0003419197D01*
X0000800899Y0003419197D01*
X0000797150Y0003417322D01*
X0000795275Y0003415448D01*
X0000793400Y0003411697D01*
X0000793400Y0003402324D01*
X0000795275Y0003396700D01*
X0000832770Y0003379827D02*
X0000793400Y0003379827D01*
X0000793400Y0003370453D01*
X0000795275Y0003364829D01*
X0000799025Y0003361079D01*
X0000802774Y0003359205D01*
X0000810272Y0003357330D01*
X0000815898Y0003357330D01*
X0000823397Y0003359205D01*
X0000827146Y0003361079D01*
X0000830896Y0003364829D01*
X0000832770Y0003370453D01*
X0000832770Y0003379827D01*
X0000832770Y0003317960D02*
X0000814023Y0003331083D01*
X0000832770Y0003340457D02*
X0000793400Y0003340457D01*
X0000793400Y0003325458D01*
X0000795275Y0003321709D01*
X0000797150Y0003319835D01*
X0000800899Y0003317960D01*
X0000806524Y0003317960D01*
X0000810272Y0003319835D01*
X0000812148Y0003321709D01*
X0000814023Y0003325458D01*
X0000814023Y0003340457D01*
%LPC*%
D91*
X0001031889Y0003437795D03*
D92*
G36*
X0000754315Y0003298307D02*
X0000679276Y0003298307D01*
X0000678517Y0003574133D01*
X0000753556Y0003574133D01*
X0000754315Y0003298307D01*
X0000754315Y0003298307D01*
G37*
X0000754315Y0003298307D02*
X0000679276Y0003298307D01*
X0000678517Y0003574133D01*
X0000753556Y0003574133D01*
X0000754315Y0003298307D01*
G04 next file*
%LPD*%
G01G01G01G01G01G01G01G01*
D103*
%LPC*%
G04 next file*
G04 #@! TF.FileFunction,Legend,Bot*
G04 Gerber Fmt 4.6, Leading zero omitted, Abs format (unit mm)*
G04 Created by KiCad (PCBNEW (2016-07-22 BZR 6991, Git 146a78a)-product) date 08/19/16 17:37:13*
%LPD*%
G01G01G01G01G01G01G01G01*
G04 APERTURE LIST*
G04 APERTURE END LIST*
D114*
%LPC*%
M02*