%MOIN*%
%OFA0B0*%
%FSLAX46Y46*%
%IPPOS*%
%LPD*%
%ADD10C,0.005905511811023622*%
%ADD11C,0.00984251968503937*%
%ADD12C,0.011811023622047244*%
%ADD13C,0.015748031496062995*%
%ADD14C,0.027559055118110236*%
%ADD15C,0.053149606299212608*%
%ADD16C,0.11811023622047245*%
%ADD17C,0.01*%
%ADD28C,0.005905511811023622*%
%ADD29C,0.00984251968503937*%
%ADD30C,0.0078740157480314977*%
%ADD31C,0.011811023622047244*%
%ADD32C,0.027559055118110236*%
%ADD33C,0.053149606299212608*%
%ADD34C,0.11811023622047245*%
%ADD35C,0.01*%
%ADD46C,0.005905511811023622*%
%ADD47C,0.0039370078740157488*%
%ADD48C,0.21653543307086615*%
%ADD49C,0.01*%
%ADD60C,0.005905511811023622*%
%ADD61C,0.0039370078740157488*%
%ADD62C,0.21653543307086615*%
%ADD63C,0.01*%
%ADD74C,0.005905511811023622*%
%ADD75C,0.0039370078740157488*%
%ADD76C,0.21653543307086615*%
%ADD77C,0.01*%
%ADD88C,0.005905511811023622*%
%ADD89C,0.0039370078740157488*%
%ADD90C,0.21653543307086615*%
%ADD91C,0.01*%
%ADD102C,0.005905511811023622*%
%ADD103C,0.0078740157480314977*%
%ADD104C,0.01*%
%ADD115C,0.005905511811023622*%
%ADD116C,0.0078740157480314977*%
%ADD117C,0.01*%
%LPD*%
G01G01G01G01G01G01G01G01*
D10*
D11*
X0002415471Y0000296550D02*
X0002417346Y0000298425D01*
X0002421095Y0000300300D01*
X0002430469Y0000300300D01*
X0002434219Y0000298425D01*
X0002436093Y0000296550D01*
X0002437968Y0000292800D01*
X0002437968Y0000289051D01*
X0002436093Y0000283427D01*
X0002413596Y0000260929D01*
X0002437968Y0000260929D01*
X0002462340Y0000300300D02*
X0002466090Y0000300300D01*
X0002469839Y0000298425D01*
X0002471714Y0000296550D01*
X0002473589Y0000292800D01*
X0002475463Y0000285301D01*
X0002475463Y0000275928D01*
X0002473589Y0000268428D01*
X0002471714Y0000264679D01*
X0002469839Y0000262804D01*
X0002466090Y0000260929D01*
X0002462340Y0000260929D01*
X0002458591Y0000262804D01*
X0002456716Y0000264679D01*
X0002454841Y0000268428D01*
X0002452966Y0000275928D01*
X0002452966Y0000285301D01*
X0002454841Y0000292800D01*
X0002456716Y0000296550D01*
X0002458591Y0000298425D01*
X0002462340Y0000300300D01*
X0002512959Y0000260929D02*
X0002490462Y0000260929D01*
X0002501710Y0000260929D02*
X0002501710Y0000300300D01*
X0002497961Y0000294675D01*
X0002494211Y0000290926D01*
X0002490462Y0000289051D01*
X0002546705Y0000300300D02*
X0002539206Y0000300300D01*
X0002535456Y0000298425D01*
X0002533581Y0000296550D01*
X0002529832Y0000290926D01*
X0002527957Y0000283427D01*
X0002527957Y0000268428D01*
X0002529832Y0000264679D01*
X0002531706Y0000262804D01*
X0002535456Y0000260929D01*
X0002542954Y0000260929D01*
X0002546705Y0000262804D01*
X0002548579Y0000264679D01*
X0002550454Y0000268428D01*
X0002550454Y0000277802D01*
X0002548579Y0000281552D01*
X0002546705Y0000283427D01*
X0002542954Y0000285301D01*
X0002535456Y0000285301D01*
X0002531706Y0000283427D01*
X0002529832Y0000281552D01*
X0002527957Y0000277802D01*
X0002574826Y0000300300D02*
X0002578576Y0000300300D01*
X0002582325Y0000298425D01*
X0002584200Y0000296550D01*
X0002586075Y0000292800D01*
X0002587949Y0000285301D01*
X0002587949Y0000275928D01*
X0002586075Y0000268428D01*
X0002584200Y0000264679D01*
X0002582325Y0000262804D01*
X0002578576Y0000260929D01*
X0002574826Y0000260929D01*
X0002571077Y0000262804D01*
X0002569202Y0000264679D01*
X0002567326Y0000268428D01*
X0002565452Y0000275928D01*
X0002565452Y0000285301D01*
X0002567326Y0000292800D01*
X0002569202Y0000296550D01*
X0002571077Y0000298425D01*
X0002574826Y0000300300D01*
X0002610447Y0000283427D02*
X0002606697Y0000285301D01*
X0002604822Y0000287176D01*
X0002602948Y0000290926D01*
X0002602948Y0000292800D01*
X0002604822Y0000296550D01*
X0002606697Y0000298425D01*
X0002610447Y0000300300D01*
X0002617946Y0000300300D01*
X0002621695Y0000298425D01*
X0002623570Y0000296550D01*
X0002625445Y0000292800D01*
X0002625445Y0000290926D01*
X0002623570Y0000287176D01*
X0002621695Y0000285301D01*
X0002617946Y0000283427D01*
X0002610447Y0000283427D01*
X0002606697Y0000281552D01*
X0002604822Y0000279677D01*
X0002602948Y0000275928D01*
X0002602948Y0000268428D01*
X0002604822Y0000264679D01*
X0002606697Y0000262804D01*
X0002610447Y0000260929D01*
X0002617946Y0000260929D01*
X0002621695Y0000262804D01*
X0002623570Y0000264679D01*
X0002625445Y0000268428D01*
X0002625445Y0000275928D01*
X0002623570Y0000279677D01*
X0002621695Y0000281552D01*
X0002617946Y0000283427D01*
X0002662940Y0000260929D02*
X0002640443Y0000260929D01*
X0002651691Y0000260929D02*
X0002651691Y0000300300D01*
X0002647942Y0000294675D01*
X0002644192Y0000290926D01*
X0002640443Y0000289051D01*
X0002681687Y0000260929D02*
X0002689187Y0000260929D01*
X0002692936Y0000262804D01*
X0002694811Y0000264679D01*
X0002698561Y0000270303D01*
X0002700435Y0000277802D01*
X0002700435Y0000292800D01*
X0002698561Y0000296550D01*
X0002696686Y0000298425D01*
X0002692936Y0000300300D01*
X0002685437Y0000300300D01*
X0002681687Y0000298425D01*
X0002679813Y0000296550D01*
X0002677937Y0000292800D01*
X0002677937Y0000283427D01*
X0002679813Y0000279677D01*
X0002681687Y0000277802D01*
X0002685437Y0000275928D01*
X0002692936Y0000275928D01*
X0002696686Y0000277802D01*
X0002698561Y0000279677D01*
X0002700435Y0000283427D01*
X0002453285Y0000129883D02*
X0002449535Y0000131758D01*
X0002447661Y0000133633D01*
X0002445786Y0000137382D01*
X0002445786Y0000139257D01*
X0002447661Y0000143007D01*
X0002449535Y0000144881D01*
X0002453285Y0000146756D01*
X0002460784Y0000146756D01*
X0002464534Y0000144881D01*
X0002466408Y0000143007D01*
X0002468283Y0000139257D01*
X0002468283Y0000137382D01*
X0002466408Y0000133633D01*
X0002464534Y0000131758D01*
X0002460784Y0000129883D01*
X0002453285Y0000129883D01*
X0002449535Y0000128009D01*
X0002447661Y0000126134D01*
X0002445786Y0000122384D01*
X0002445786Y0000114884D01*
X0002447661Y0000111136D01*
X0002449535Y0000109261D01*
X0002453285Y0000107386D01*
X0002460784Y0000107386D01*
X0002464534Y0000109261D01*
X0002466408Y0000111136D01*
X0002468283Y0000114884D01*
X0002468283Y0000122384D01*
X0002466408Y0000126134D01*
X0002464534Y0000128009D01*
X0002460784Y0000129883D01*
X0002481407Y0000107386D02*
X0002502029Y0000133633D01*
X0002481407Y0000133633D02*
X0002502029Y0000107386D01*
X0002517027Y0000107386D02*
X0002517027Y0000146756D01*
X0002530149Y0000118635D01*
X0002543274Y0000146756D01*
X0002543274Y0000107386D01*
X0002560147Y0000143007D02*
X0002562021Y0000144881D01*
X0002565771Y0000146756D01*
X0002575145Y0000146756D01*
X0002578893Y0000144881D01*
X0002580769Y0000143007D01*
X0002582644Y0000139257D01*
X0002582644Y0000135508D01*
X0002580769Y0000129883D01*
X0002558272Y0000107386D01*
X0002582644Y0000107386D01*
X0002599517Y0000111136D02*
X0002601392Y0000109261D01*
X0002599517Y0000107386D01*
X0002597642Y0000109261D01*
X0002599517Y0000111136D01*
X0002599517Y0000107386D01*
X0002637012Y0000146756D02*
X0002618264Y0000146756D01*
X0002616390Y0000128009D01*
X0002618264Y0000129883D01*
X0002622014Y0000131758D01*
X0002631388Y0000131758D01*
X0002635137Y0000129883D01*
X0002637012Y0000128009D01*
X0002638886Y0000124259D01*
X0002638886Y0000114884D01*
X0002637012Y0000111136D01*
X0002635137Y0000109261D01*
X0002631388Y0000107386D01*
X0002622014Y0000107386D01*
X0002618264Y0000109261D01*
X0002616390Y0000111136D01*
X0002685756Y0000122384D02*
X0002715752Y0000122384D01*
X0002734500Y0000133633D02*
X0002764496Y0000122384D01*
X0002734500Y0000111136D01*
D12*
X0001488694Y0000151462D02*
X0001520190Y0000151462D01*
X0001499943Y0000104218D01*
X0001558436Y0000151462D02*
X0001549437Y0000151462D01*
X0001544938Y0000149212D01*
X0001542688Y0000146962D01*
X0001538188Y0000140213D01*
X0001535938Y0000131214D01*
X0001535938Y0000113217D01*
X0001538188Y0000108717D01*
X0001540438Y0000106467D01*
X0001544938Y0000104218D01*
X0001553936Y0000104218D01*
X0001558436Y0000106467D01*
X0001560686Y0000108717D01*
X0001562935Y0000113217D01*
X0001562935Y0000124465D01*
X0001560686Y0000128965D01*
X0001558436Y0000131214D01*
X0001553936Y0000133464D01*
X0001544938Y0000133464D01*
X0001540438Y0000131214D01*
X0001538188Y0000128965D01*
X0001535938Y0000124465D01*
X0001578682Y0000104218D02*
X0001603430Y0000135714D01*
X0001578682Y0000135714D02*
X0001603430Y0000104218D01*
X0001616928Y0000151462D02*
X0001646175Y0000151462D01*
X0001630427Y0000133464D01*
X0001637176Y0000133464D01*
X0001641676Y0000131214D01*
X0001643925Y0000128965D01*
X0001646175Y0000124465D01*
X0001646175Y0000113217D01*
X0001643925Y0000108717D01*
X0001641676Y0000106467D01*
X0001637176Y0000104218D01*
X0001623678Y0000104218D01*
X0001619178Y0000106467D01*
X0001616928Y0000108717D01*
X0001688920Y0000151462D02*
X0001666422Y0000151462D01*
X0001664171Y0000128965D01*
X0001666422Y0000131214D01*
X0001670922Y0000133464D01*
X0001682170Y0000133464D01*
X0001686670Y0000131214D01*
X0001688920Y0000128965D01*
X0001691169Y0000124465D01*
X0001691169Y0000113217D01*
X0001688920Y0000108717D01*
X0001686670Y0000106467D01*
X0001682170Y0000104218D01*
X0001670922Y0000104218D01*
X0001666422Y0000106467D01*
X0001664171Y0000108717D01*
X0001706917Y0000104218D02*
X0001731664Y0000135714D01*
X0001706917Y0000135714D02*
X0001731664Y0000104218D01*
X0001774409Y0000104218D02*
X0001747412Y0000104218D01*
X0001760910Y0000104218D02*
X0001760910Y0000151462D01*
X0001756411Y0000144713D01*
X0001751912Y0000140213D01*
X0001747412Y0000137964D01*
X0001803653Y0000151462D02*
X0001808155Y0000151462D01*
X0001812654Y0000149212D01*
X0001814904Y0000146962D01*
X0001817154Y0000142463D01*
X0001819403Y0000133464D01*
X0001819403Y0000122214D01*
X0001817154Y0000113217D01*
X0001814904Y0000108717D01*
X0001812654Y0000106467D01*
X0001808155Y0000104218D01*
X0001803653Y0000104218D01*
X0001799156Y0000106467D01*
X0001796906Y0000108717D01*
X0001794656Y0000113217D01*
X0001792407Y0000122214D01*
X0001792407Y0000133464D01*
X0001794656Y0000142463D01*
X0001796906Y0000146962D01*
X0001799156Y0000149212D01*
X0001803653Y0000151462D01*
X0001848650Y0000151462D02*
X0001853149Y0000151462D01*
X0001857649Y0000149212D01*
X0001859898Y0000146962D01*
X0001862148Y0000142463D01*
X0001864398Y0000133464D01*
X0001864398Y0000122214D01*
X0001862148Y0000113217D01*
X0001859898Y0000108717D01*
X0001857649Y0000106467D01*
X0001853149Y0000104218D01*
X0001848650Y0000104218D01*
X0001844150Y0000106467D01*
X0001841900Y0000108717D01*
X0001839651Y0000113217D01*
X0001837401Y0000122214D01*
X0001837401Y0000133464D01*
X0001839651Y0000142463D01*
X0001841900Y0000146962D01*
X0001844150Y0000149212D01*
X0001848650Y0000151462D01*
X0001918391Y0000106467D02*
X0001922890Y0000104218D01*
X0001931889Y0000104218D01*
X0001936389Y0000106467D01*
X0001938638Y0000110967D01*
X0001938638Y0000113217D01*
X0001936389Y0000117716D01*
X0001931889Y0000119966D01*
X0001925140Y0000119966D01*
X0001920641Y0000122214D01*
X0001918391Y0000126715D01*
X0001918391Y0000128965D01*
X0001920641Y0000133464D01*
X0001925140Y0000135714D01*
X0001931889Y0000135714D01*
X0001936389Y0000133464D01*
X0001958884Y0000135714D02*
X0001958884Y0000088470D01*
X0001958884Y0000133464D02*
X0001963385Y0000135714D01*
X0001972384Y0000135714D01*
X0001976884Y0000133464D01*
X0001979133Y0000131214D01*
X0001981383Y0000126715D01*
X0001981383Y0000113217D01*
X0001979133Y0000108717D01*
X0001976884Y0000106467D01*
X0001972384Y0000104218D01*
X0001963385Y0000104218D01*
X0001958884Y0000106467D01*
X0002008379Y0000104218D02*
X0002003880Y0000106467D01*
X0002001631Y0000110967D01*
X0002001631Y0000151462D01*
X0002026377Y0000104218D02*
X0002026377Y0000135714D01*
X0002026377Y0000151462D02*
X0002024128Y0000149212D01*
X0002026377Y0000146962D01*
X0002028627Y0000149212D01*
X0002026377Y0000151462D01*
X0002026377Y0000146962D01*
X0002042125Y0000135714D02*
X0002060123Y0000135714D01*
X0002048874Y0000151462D02*
X0002048874Y0000110967D01*
X0002051124Y0000106467D01*
X0002055624Y0000104218D01*
X0002060123Y0000104218D01*
X0002109617Y0000106467D02*
X0002114116Y0000104218D01*
X0002123115Y0000104218D01*
X0002127615Y0000106467D01*
X0002129865Y0000110967D01*
X0002129865Y0000113217D01*
X0002127615Y0000117716D01*
X0002123115Y0000119966D01*
X0002116366Y0000119966D01*
X0002111867Y0000122214D01*
X0002109617Y0000126715D01*
X0002109617Y0000128965D01*
X0002111867Y0000133464D01*
X0002116366Y0000135714D01*
X0002123115Y0000135714D01*
X0002127615Y0000133464D01*
X0002150112Y0000104218D02*
X0002150112Y0000151462D01*
X0002170359Y0000104218D02*
X0002170359Y0000128965D01*
X0002168110Y0000133464D01*
X0002163610Y0000135714D01*
X0002156861Y0000135714D01*
X0002152362Y0000133464D01*
X0002150112Y0000131214D01*
X0002210854Y0000106467D02*
X0002206355Y0000104218D01*
X0002197356Y0000104218D01*
X0002192857Y0000106467D01*
X0002190607Y0000110967D01*
X0002190607Y0000128965D01*
X0002192857Y0000133464D01*
X0002197356Y0000135714D01*
X0002206355Y0000135714D01*
X0002210854Y0000133464D01*
X0002213104Y0000128965D01*
X0002213104Y0000124465D01*
X0002190607Y0000119966D01*
X0002240101Y0000104218D02*
X0002235601Y0000106467D01*
X0002233352Y0000110967D01*
X0002233352Y0000151462D01*
X0002264848Y0000104218D02*
X0002260348Y0000106467D01*
X0002258098Y0000110967D01*
X0002258098Y0000151462D01*
D13*
X0002573940Y0000794600D02*
X0002597937Y0000794600D01*
X0002582939Y0000815598D02*
X0002582939Y0000761604D01*
X0002585938Y0000755605D01*
X0002591938Y0000752605D01*
X0002597937Y0000752605D01*
X0002612935Y0000752605D02*
X0002645931Y0000794600D01*
X0002612935Y0000794600D02*
X0002645931Y0000752605D01*
X0002666929Y0000809598D02*
X0002669928Y0000812598D01*
X0002675927Y0000815598D01*
X0002690926Y0000815598D01*
X0002696925Y0000812598D01*
X0002699925Y0000809598D01*
X0002702924Y0000803599D01*
X0002702924Y0000797600D01*
X0002699925Y0000788600D01*
X0002663929Y0000752605D01*
X0002702924Y0000752605D01*
X0002759917Y0000752605D02*
X0002729921Y0000752605D01*
X0002729921Y0000815598D01*
X0002112110Y0000794600D02*
X0002136107Y0000794600D01*
X0002121109Y0000815598D02*
X0002121109Y0000761604D01*
X0002124109Y0000755605D01*
X0002130108Y0000752605D01*
X0002136107Y0000752605D01*
X0002151106Y0000752605D02*
X0002184101Y0000794600D01*
X0002151106Y0000794600D02*
X0002184101Y0000752605D01*
X0002205099Y0000809598D02*
X0002208098Y0000812598D01*
X0002214098Y0000815598D01*
X0002229096Y0000815598D01*
X0002235095Y0000812598D01*
X0002238095Y0000809598D01*
X0002241094Y0000803599D01*
X0002241094Y0000797600D01*
X0002238095Y0000788600D01*
X0002202099Y0000752605D01*
X0002241094Y0000752605D01*
X0002268091Y0000752605D02*
X0002268091Y0000815598D01*
X0002268091Y0000785600D02*
X0002304086Y0000785600D01*
X0002304086Y0000752605D02*
X0002304086Y0000815598D01*
X0001212542Y0000752605D02*
X0001212542Y0000794600D01*
X0001212542Y0000782602D02*
X0001215541Y0000788600D01*
X0001218541Y0000791600D01*
X0001224540Y0000794600D01*
X0001230539Y0000794600D01*
X0001245538Y0000752605D02*
X0001278533Y0000794600D01*
X0001245538Y0000794600D02*
X0001278533Y0000752605D01*
X0001299531Y0000809598D02*
X0001302530Y0000812598D01*
X0001308530Y0000815598D01*
X0001323528Y0000815598D01*
X0001329527Y0000812598D01*
X0001332527Y0000809598D01*
X0001335526Y0000803599D01*
X0001335526Y0000797600D01*
X0001332527Y0000788600D01*
X0001296531Y0000752605D01*
X0001335526Y0000752605D01*
X0001392519Y0000752605D02*
X0001362521Y0000752605D01*
X0001362521Y0000815598D01*
X0000681177Y0000752605D02*
X0000681177Y0000794600D01*
X0000681177Y0000782602D02*
X0000684176Y0000788600D01*
X0000687176Y0000791600D01*
X0000693175Y0000794600D01*
X0000699175Y0000794600D01*
X0000714173Y0000752605D02*
X0000747168Y0000794600D01*
X0000714173Y0000794600D02*
X0000747168Y0000752605D01*
X0000768166Y0000809598D02*
X0000771166Y0000812598D01*
X0000777165Y0000815598D01*
X0000792162Y0000815598D01*
X0000798162Y0000812598D01*
X0000801162Y0000809598D01*
X0000804161Y0000803599D01*
X0000804161Y0000797600D01*
X0000801162Y0000788600D01*
X0000765166Y0000752605D01*
X0000804161Y0000752605D01*
X0000825159Y0000815598D02*
X0000840157Y0000752605D01*
X0000852155Y0000797600D01*
X0000864154Y0000752605D01*
X0000879152Y0000815598D01*
X0000213704Y0000752605D02*
X0000213704Y0000794600D01*
X0000213704Y0000782602D02*
X0000216704Y0000788600D01*
X0000219702Y0000791600D01*
X0000225703Y0000794600D01*
X0000231702Y0000794600D01*
X0000246700Y0000752605D02*
X0000279696Y0000794600D01*
X0000246700Y0000794600D02*
X0000279696Y0000752605D01*
X0000300693Y0000809598D02*
X0000303693Y0000812598D01*
X0000309692Y0000815598D01*
X0000324690Y0000815598D01*
X0000330689Y0000812598D01*
X0000333689Y0000809598D01*
X0000336689Y0000803599D01*
X0000336689Y0000797600D01*
X0000333689Y0000788600D01*
X0000297694Y0000752605D01*
X0000336689Y0000752605D01*
X0000363685Y0000752605D02*
X0000363685Y0000815598D01*
X0000363685Y0000785600D02*
X0000399681Y0000785600D01*
X0000399681Y0000752605D02*
X0000399681Y0000815598D01*
X0000213704Y0000868747D02*
X0000213704Y0000910742D01*
X0000213704Y0000898743D02*
X0000216704Y0000904743D01*
X0000219702Y0000907742D01*
X0000225703Y0000910742D01*
X0000231702Y0000910742D01*
X0000246700Y0000868747D02*
X0000279696Y0000910742D01*
X0000246700Y0000910742D02*
X0000279696Y0000868747D01*
X0000336689Y0000868747D02*
X0000300693Y0000868747D01*
X0000318691Y0000868747D02*
X0000318691Y0000931739D01*
X0000312692Y0000922740D01*
X0000306692Y0000916741D01*
X0000300693Y0000913742D01*
X0000363685Y0000868747D02*
X0000363685Y0000931739D01*
X0000363685Y0000901743D02*
X0000399681Y0000901743D01*
X0000399681Y0000868747D02*
X0000399681Y0000931739D01*
X0000681177Y0000868747D02*
X0000681177Y0000910742D01*
X0000681177Y0000898743D02*
X0000684176Y0000904743D01*
X0000687176Y0000907742D01*
X0000693175Y0000910742D01*
X0000699175Y0000910742D01*
X0000714173Y0000868747D02*
X0000747168Y0000910742D01*
X0000714173Y0000910742D02*
X0000747168Y0000868747D01*
X0000804161Y0000868747D02*
X0000768166Y0000868747D01*
X0000786164Y0000868747D02*
X0000786164Y0000931739D01*
X0000780164Y0000922740D01*
X0000774165Y0000916741D01*
X0000768166Y0000913742D01*
X0000825159Y0000931739D02*
X0000840157Y0000868747D01*
X0000852155Y0000913742D01*
X0000864154Y0000868747D01*
X0000879152Y0000931739D01*
X0001212542Y0000868747D02*
X0001212542Y0000910742D01*
X0001212542Y0000898743D02*
X0001215541Y0000904743D01*
X0001218541Y0000907742D01*
X0001224540Y0000910742D01*
X0001230539Y0000910742D01*
X0001245538Y0000868747D02*
X0001278533Y0000910742D01*
X0001245538Y0000910742D02*
X0001278533Y0000868747D01*
X0001335526Y0000868747D02*
X0001299531Y0000868747D01*
X0001317529Y0000868747D02*
X0001317529Y0000931739D01*
X0001311529Y0000922740D01*
X0001305530Y0000916741D01*
X0001299531Y0000913742D01*
X0001392519Y0000868747D02*
X0001362521Y0000868747D01*
X0001362521Y0000931739D01*
X0002112110Y0000910742D02*
X0002136107Y0000910742D01*
X0002121109Y0000931739D02*
X0002121109Y0000877746D01*
X0002124109Y0000871747D01*
X0002130108Y0000868747D01*
X0002136107Y0000868747D01*
X0002151106Y0000868747D02*
X0002184101Y0000910742D01*
X0002151106Y0000910742D02*
X0002184101Y0000868747D01*
X0002241094Y0000868747D02*
X0002205099Y0000868747D01*
X0002223097Y0000868747D02*
X0002223097Y0000931739D01*
X0002217097Y0000922740D01*
X0002211098Y0000916741D01*
X0002205099Y0000913742D01*
X0002268091Y0000868747D02*
X0002268091Y0000931739D01*
X0002268091Y0000901743D02*
X0002304086Y0000901743D01*
X0002304086Y0000868747D02*
X0002304086Y0000931739D01*
X0002573940Y0000910742D02*
X0002597937Y0000910742D01*
X0002582939Y0000931739D02*
X0002582939Y0000877746D01*
X0002585938Y0000871747D01*
X0002591938Y0000868747D01*
X0002597937Y0000868747D01*
X0002612935Y0000868747D02*
X0002645931Y0000910742D01*
X0002612935Y0000910742D02*
X0002645931Y0000868747D01*
X0002702924Y0000868747D02*
X0002666929Y0000868747D01*
X0002684926Y0000868747D02*
X0002684926Y0000931739D01*
X0002678927Y0000922740D01*
X0002672928Y0000916741D01*
X0002666929Y0000913742D01*
X0002759917Y0000868747D02*
X0002729921Y0000868747D01*
X0002729921Y0000931739D01*
%LPC*%
D14*
X0002651181Y0000637401D02*
X0002651181Y0000481101D01*
D15*
X0002687007Y0000559448D02*
G75*
G03G03G03G03X0002687007Y0000559448I-0000150787D01X0002687007Y0000559448I-0000150787D01X0002687007Y0000559448I-0000150787D01G03G03X0002687007Y0000559448I-0000150787D01G03G03X0002687007Y0000559448I-0000150787D01X0002687007Y0000559448I-0000150787D01X0002687007Y0000559448I-0000150787D01X0002687007Y0000559448I-0000150787D01*
G01G01G01G01G01G01G01G01*
D16*
X0002640944Y0000559448D02*
G75*
G03G03G03G03X0002640944Y0000559448I-0000104724D01X0002640944Y0000559448I-0000104724D01X0002640944Y0000559448I-0000104724D01G03G03X0002640944Y0000559448I-0000104724D01G03G03X0002640944Y0000559448I-0000104724D01X0002640944Y0000559448I-0000104724D01X0002640944Y0000559448I-0000104724D01X0002640944Y0000559448I-0000104724D01*
G01G01G01G01G01G01G01G01*
D14*
X0002139370Y0000637401D02*
X0002139370Y0000481101D01*
D15*
X0002175196Y0000559448D02*
G75*
G03G03G03G03X0002175196Y0000559448I-0000150787D01X0002175196Y0000559448I-0000150787D01X0002175196Y0000559448I-0000150787D01G03G03X0002175196Y0000559448I-0000150787D01G03G03X0002175196Y0000559448I-0000150787D01X0002175196Y0000559448I-0000150787D01X0002175196Y0000559448I-0000150787D01X0002175196Y0000559448I-0000150787D01*
G01G01G01G01G01G01G01G01*
D16*
X0002129133Y0000559448D02*
G75*
G03G03G03G03X0002129133Y0000559448I-0000104724D01X0002129133Y0000559448I-0000104724D01X0002129133Y0000559448I-0000104724D01G03G03X0002129133Y0000559448I-0000104724D01G03G03X0002129133Y0000559448I-0000104724D01X0002129133Y0000559448I-0000104724D01X0002129133Y0000559448I-0000104724D01X0002129133Y0000559448I-0000104724D01*
G01G01G01G01G01G01G01G01*
D14*
X0002651181Y0001188582D02*
X0002651181Y0001032283D01*
D15*
X0002687007Y0001110629D02*
G75*
G03G03G03G03X0002687007Y0001110629I-0000150787D01X0002687007Y0001110629I-0000150787D01X0002687007Y0001110629I-0000150787D01G03G03X0002687007Y0001110629I-0000150787D01G03G03X0002687007Y0001110629I-0000150787D01X0002687007Y0001110629I-0000150787D01X0002687007Y0001110629I-0000150787D01X0002687007Y0001110629I-0000150787D01*
G01G01G01G01G01G01G01G01*
D16*
X0002640944Y0001110629D02*
G75*
G03G03G03G03X0002640944Y0001110629I-0000104724D01X0002640944Y0001110629I-0000104724D01X0002640944Y0001110629I-0000104724D01G03G03X0002640944Y0001110629I-0000104724D01G03G03X0002640944Y0001110629I-0000104724D01X0002640944Y0001110629I-0000104724D01X0002640944Y0001110629I-0000104724D01X0002640944Y0001110629I-0000104724D01*
G01G01G01G01G01G01G01G01*
D14*
X0002139370Y0001188582D02*
X0002139370Y0001032283D01*
D15*
X0002175196Y0001110629D02*
G75*
G03G03G03G03X0002175196Y0001110629I-0000150787D01X0002175196Y0001110629I-0000150787D01X0002175196Y0001110629I-0000150787D01G03G03X0002175196Y0001110629I-0000150787D01G03G03X0002175196Y0001110629I-0000150787D01X0002175196Y0001110629I-0000150787D01X0002175196Y0001110629I-0000150787D01X0002175196Y0001110629I-0000150787D01*
G01G01G01G01G01G01G01G01*
D16*
X0002129133Y0001110629D02*
G75*
G03G03G03G03X0002129133Y0001110629I-0000104724D01X0002129133Y0001110629I-0000104724D01X0002129133Y0001110629I-0000104724D01G03G03X0002129133Y0001110629I-0000104724D01G03G03X0002129133Y0001110629I-0000104724D01X0002129133Y0001110629I-0000104724D01X0002129133Y0001110629I-0000104724D01X0002129133Y0001110629I-0000104724D01*
G01G01G01G01G01G01G01G01*
D14*
X0001588188Y0000637401D02*
X0001588188Y0000481101D01*
D15*
X0001624015Y0000559448D02*
G75*
G03G03G03G03X0001624015Y0000559448I-0000150787D01X0001624015Y0000559448I-0000150787D01X0001624015Y0000559448I-0000150787D01G03G03X0001624015Y0000559448I-0000150787D01G03G03X0001624015Y0000559448I-0000150787D01X0001624015Y0000559448I-0000150787D01X0001624015Y0000559448I-0000150787D01X0001624015Y0000559448I-0000150787D01*
G01G01G01G01G01G01G01G01*
D16*
X0001577952Y0000559448D02*
G75*
G03G03G03G03X0001577952Y0000559448I-0000104724D01X0001577952Y0000559448I-0000104724D01X0001577952Y0000559448I-0000104724D01G03G03X0001577952Y0000559448I-0000104724D01G03G03X0001577952Y0000559448I-0000104724D01X0001577952Y0000559448I-0000104724D01X0001577952Y0000559448I-0000104724D01X0001577952Y0000559448I-0000104724D01*
G01G01G01G01G01G01G01G01*
D14*
X0001076377Y0000637401D02*
X0001076377Y0000481101D01*
D15*
X0001112204Y0000559448D02*
G75*
G03G03G03G03X0001112204Y0000559448I-0000150787D01X0001112204Y0000559448I-0000150787D01X0001112204Y0000559448I-0000150787D01G03G03X0001112204Y0000559448I-0000150787D01G03G03X0001112204Y0000559448I-0000150787D01X0001112204Y0000559448I-0000150787D01X0001112204Y0000559448I-0000150787D01X0001112204Y0000559448I-0000150787D01*
G01G01G01G01G01G01G01G01*
D16*
X0001066141Y0000559448D02*
G75*
G03G03G03G03X0001066141Y0000559448I-0000104724D01X0001066141Y0000559448I-0000104724D01X0001066141Y0000559448I-0000104724D01G03G03X0001066141Y0000559448I-0000104724D01G03G03X0001066141Y0000559448I-0000104724D01X0001066141Y0000559448I-0000104724D01X0001066141Y0000559448I-0000104724D01X0001066141Y0000559448I-0000104724D01*
G01G01G01G01G01G01G01G01*
D14*
X0000564566Y0000637401D02*
X0000564566Y0000481101D01*
D15*
X0000600393Y0000559448D02*
G75*
G03G03G03G03X0000600393Y0000559448I-0000150787D01X0000600393Y0000559448I-0000150787D01X0000600393Y0000559448I-0000150787D01G03G03X0000600393Y0000559448I-0000150787D01G03G03X0000600393Y0000559448I-0000150787D01X0000600393Y0000559448I-0000150787D01X0000600393Y0000559448I-0000150787D01X0000600393Y0000559448I-0000150787D01*
G01G01G01G01G01G01G01G01*
D16*
X0000554330Y0000559448D02*
G75*
G03G03G03G03X0000554330Y0000559448I-0000104724D01X0000554330Y0000559448I-0000104724D01X0000554330Y0000559448I-0000104724D01G03G03X0000554330Y0000559448I-0000104724D01G03G03X0000554330Y0000559448I-0000104724D01X0000554330Y0000559448I-0000104724D01X0000554330Y0000559448I-0000104724D01X0000554330Y0000559448I-0000104724D01*
G01G01G01G01G01G01G01G01*
D14*
X0001588188Y0001188582D02*
X0001588188Y0001032283D01*
D15*
X0001624015Y0001110629D02*
G75*
G03G03G03G03X0001624015Y0001110629I-0000150787D01X0001624015Y0001110629I-0000150787D01X0001624015Y0001110629I-0000150787D01G03G03X0001624015Y0001110629I-0000150787D01G03G03X0001624015Y0001110629I-0000150787D01X0001624015Y0001110629I-0000150787D01X0001624015Y0001110629I-0000150787D01X0001624015Y0001110629I-0000150787D01*
G01G01G01G01G01G01G01G01*
D16*
X0001577952Y0001110629D02*
G75*
G03G03G03G03X0001577952Y0001110629I-0000104724D01X0001577952Y0001110629I-0000104724D01X0001577952Y0001110629I-0000104724D01G03G03X0001577952Y0001110629I-0000104724D01G03G03X0001577952Y0001110629I-0000104724D01X0001577952Y0001110629I-0000104724D01X0001577952Y0001110629I-0000104724D01X0001577952Y0001110629I-0000104724D01*
G01G01G01G01G01G01G01G01*
D14*
X0001076377Y0001188582D02*
X0001076377Y0001032283D01*
D15*
X0001112204Y0001110629D02*
G75*
G03G03G03G03X0001112204Y0001110629I-0000150787D01X0001112204Y0001110629I-0000150787D01X0001112204Y0001110629I-0000150787D01G03G03X0001112204Y0001110629I-0000150787D01G03G03X0001112204Y0001110629I-0000150787D01X0001112204Y0001110629I-0000150787D01X0001112204Y0001110629I-0000150787D01X0001112204Y0001110629I-0000150787D01*
G01G01G01G01G01G01G01G01*
D16*
X0001066141Y0001110629D02*
G75*
G03G03G03G03X0001066141Y0001110629I-0000104724D01X0001066141Y0001110629I-0000104724D01X0001066141Y0001110629I-0000104724D01G03G03X0001066141Y0001110629I-0000104724D01G03G03X0001066141Y0001110629I-0000104724D01X0001066141Y0001110629I-0000104724D01X0001066141Y0001110629I-0000104724D01X0001066141Y0001110629I-0000104724D01*
G01G01G01G01G01G01G01G01*
D14*
X0000564566Y0001188582D02*
X0000564566Y0001032283D01*
D15*
X0000600393Y0001110629D02*
G75*
G03G03G03G03X0000600393Y0001110629I-0000150787D01X0000600393Y0001110629I-0000150787D01X0000600393Y0001110629I-0000150787D01G03G03X0000600393Y0001110629I-0000150787D01G03G03X0000600393Y0001110629I-0000150787D01X0000600393Y0001110629I-0000150787D01X0000600393Y0001110629I-0000150787D01X0000600393Y0001110629I-0000150787D01*
G01G01G01G01G01G01G01G01*
D16*
X0000554330Y0001110629D02*
G75*
G03G03G03G03X0000554330Y0001110629I-0000104724D01X0000554330Y0001110629I-0000104724D01X0000554330Y0001110629I-0000104724D01G03G03X0000554330Y0001110629I-0000104724D01G03G03X0000554330Y0001110629I-0000104724D01X0000554330Y0001110629I-0000104724D01X0000554330Y0001110629I-0000104724D01X0000554330Y0001110629I-0000104724D01*
G01G01G01G01G01G01G01G01*
D17*
G36*
X0002889560Y0001404843D02*
X0002890990Y0001306178D01*
X0000089557Y0001304609D01*
X0000087766Y0001405235D01*
X0002889560Y0001404843D01*
X0002889560Y0001404843D01*
G37*
X0002889560Y0001404843D02*
X0002890990Y0001306178D01*
X0000089557Y0001304609D01*
X0000087766Y0001405235D01*
X0002889560Y0001404843D01*
G36*
X0002881218Y0000072887D02*
X0002881969Y-0000024530D01*
X0000080535Y-0000026099D01*
X0000079425Y0000073279D01*
X0002881218Y0000072887D01*
X0002881218Y0000072887D01*
G37*
X0002881218Y0000072887D02*
X0002881969Y-0000024530D01*
X0000080535Y-0000026099D01*
X0000079425Y0000073279D01*
X0002881218Y0000072887D01*
G36*
X0003043031Y-0000026102D02*
X0002805000Y-0000026102D01*
X0002805000Y0001404842D01*
X0003043031Y0001404842D01*
X0003043031Y-0000026102D01*
X0003043031Y-0000026102D01*
G37*
X0003043031Y-0000026102D02*
X0002805000Y-0000026102D01*
X0002805000Y0001404842D01*
X0003043031Y0001404842D01*
X0003043031Y-0000026102D01*
G36*
X0000188700Y-0000024797D02*
X-0000049330Y-0000024797D01*
X-0000049330Y0001406147D01*
X0000188700Y0001406147D01*
X0000188700Y-0000024797D01*
X0000188700Y-0000024797D01*
G37*
X0000188700Y-0000024797D02*
X-0000049330Y-0000024797D01*
X-0000049330Y0001406147D01*
X0000188700Y0001406147D01*
X0000188700Y-0000024797D01*
G36*
X0002797624Y0000177047D02*
X0000170324Y0000177439D01*
X0000169990Y0000233583D01*
X0002817381Y0000233975D01*
X0002797624Y0000177047D01*
X0002797624Y0000177047D01*
G37*
X0002797624Y0000177047D02*
X0000170324Y0000177439D01*
X0000169990Y0000233583D01*
X0002817381Y0000233975D01*
X0002797624Y0000177047D01*
%LPD*%
G01G01G01G01G01G01G01G01*
D28*
D29*
X0002424132Y0001770566D02*
X0002426007Y0001772440D01*
X0002429757Y0001774314D01*
X0002439131Y0001774314D01*
X0002442880Y0001772440D01*
X0002444755Y0001770566D01*
X0002446630Y0001766816D01*
X0002446630Y0001763066D01*
X0002444755Y0001757442D01*
X0002422258Y0001734945D01*
X0002446630Y0001734945D01*
X0002471002Y0001774314D02*
X0002474751Y0001774314D01*
X0002478501Y0001772440D01*
X0002480375Y0001770566D01*
X0002482250Y0001766816D01*
X0002484125Y0001759317D01*
X0002484125Y0001749943D01*
X0002482250Y0001742444D01*
X0002480375Y0001738695D01*
X0002478501Y0001736819D01*
X0002474751Y0001734945D01*
X0002471002Y0001734945D01*
X0002467252Y0001736819D01*
X0002465377Y0001738695D01*
X0002463502Y0001742444D01*
X0002461628Y0001749943D01*
X0002461628Y0001759317D01*
X0002463502Y0001766816D01*
X0002465377Y0001770566D01*
X0002467252Y0001772440D01*
X0002471002Y0001774314D01*
X0002521620Y0001734945D02*
X0002499123Y0001734945D01*
X0002510372Y0001734945D02*
X0002510372Y0001774314D01*
X0002506622Y0001768691D01*
X0002502873Y0001764941D01*
X0002499123Y0001763066D01*
X0002555366Y0001774314D02*
X0002547867Y0001774314D01*
X0002544117Y0001772440D01*
X0002542243Y0001770566D01*
X0002538493Y0001764941D01*
X0002536618Y0001757442D01*
X0002536618Y0001742444D01*
X0002538493Y0001738695D01*
X0002540368Y0001736819D01*
X0002544117Y0001734945D01*
X0002551616Y0001734945D01*
X0002555366Y0001736819D01*
X0002557241Y0001738695D01*
X0002559116Y0001742444D01*
X0002559116Y0001751818D01*
X0002557241Y0001755568D01*
X0002555366Y0001757442D01*
X0002551616Y0001759317D01*
X0002544117Y0001759317D01*
X0002540368Y0001757442D01*
X0002538493Y0001755568D01*
X0002536618Y0001751818D01*
X0002583487Y0001774314D02*
X0002587237Y0001774314D01*
X0002590987Y0001772440D01*
X0002592861Y0001770566D01*
X0002594736Y0001766816D01*
X0002596611Y0001759317D01*
X0002596611Y0001749943D01*
X0002594736Y0001742444D01*
X0002592861Y0001738695D01*
X0002590987Y0001736819D01*
X0002587237Y0001734945D01*
X0002583487Y0001734945D01*
X0002579738Y0001736819D01*
X0002577863Y0001738695D01*
X0002575988Y0001742444D01*
X0002574113Y0001749943D01*
X0002574113Y0001759317D01*
X0002575988Y0001766816D01*
X0002577863Y0001770566D01*
X0002579738Y0001772440D01*
X0002583487Y0001774314D01*
X0002619108Y0001757442D02*
X0002615359Y0001759317D01*
X0002613484Y0001761191D01*
X0002611609Y0001764941D01*
X0002611609Y0001766816D01*
X0002613484Y0001770566D01*
X0002615359Y0001772440D01*
X0002619108Y0001774314D01*
X0002626607Y0001774314D01*
X0002630357Y0001772440D01*
X0002632231Y0001770566D01*
X0002634106Y0001766816D01*
X0002634106Y0001764941D01*
X0002632231Y0001761191D01*
X0002630357Y0001759317D01*
X0002626607Y0001757442D01*
X0002619108Y0001757442D01*
X0002615359Y0001755568D01*
X0002613484Y0001753693D01*
X0002611609Y0001749943D01*
X0002611609Y0001742444D01*
X0002613484Y0001738695D01*
X0002615359Y0001736819D01*
X0002619108Y0001734945D01*
X0002626607Y0001734945D01*
X0002630357Y0001736819D01*
X0002632231Y0001738695D01*
X0002634106Y0001742444D01*
X0002634106Y0001749943D01*
X0002632231Y0001753693D01*
X0002630357Y0001755568D01*
X0002626607Y0001757442D01*
X0002671601Y0001734945D02*
X0002649103Y0001734945D01*
X0002660353Y0001734945D02*
X0002660353Y0001774314D01*
X0002656603Y0001768691D01*
X0002652854Y0001764941D01*
X0002649103Y0001763066D01*
X0002690349Y0001734945D02*
X0002697847Y0001734945D01*
X0002701598Y0001736819D01*
X0002703472Y0001738695D01*
X0002707222Y0001744319D01*
X0002709097Y0001751818D01*
X0002709097Y0001766816D01*
X0002707222Y0001770566D01*
X0002705347Y0001772440D01*
X0002701598Y0001774314D01*
X0002694099Y0001774314D01*
X0002690349Y0001772440D01*
X0002688474Y0001770566D01*
X0002686600Y0001766816D01*
X0002686600Y0001757442D01*
X0002688474Y0001753693D01*
X0002690349Y0001751818D01*
X0002694099Y0001749943D01*
X0002701598Y0001749943D01*
X0002705347Y0001751818D01*
X0002707222Y0001753693D01*
X0002709097Y0001757442D01*
D30*
X0000309392Y0002596362D02*
X0000297581Y0002615110D01*
X0000289145Y0002596362D02*
X0000289145Y0002635733D01*
X0000302643Y0002635733D01*
X0000306017Y0002633858D01*
X0000307705Y0002631983D01*
X0000309392Y0002628233D01*
X0000309392Y0002622609D01*
X0000307705Y0002618860D01*
X0000306017Y0002616985D01*
X0000302643Y0002615110D01*
X0000289145Y0002615110D01*
X0000336389Y0002616985D02*
X0000324578Y0002616985D01*
X0000324578Y0002596362D02*
X0000324578Y0002635733D01*
X0000341451Y0002635733D01*
X0000376884Y0002635733D02*
X0000397131Y0002635733D01*
X0000387007Y0002596362D02*
X0000387007Y0002635733D01*
X0000408942Y0002596362D02*
X0000408942Y0002622609D01*
X0000408942Y0002615110D02*
X0000410629Y0002618860D01*
X0000412317Y0002620734D01*
X0000415691Y0002622609D01*
X0000419066Y0002622609D01*
X0000446062Y0002596362D02*
X0000446062Y0002616985D01*
X0000444375Y0002620734D01*
X0000441000Y0002622609D01*
X0000434251Y0002622609D01*
X0000430877Y0002620734D01*
X0000446062Y0002598237D02*
X0000442688Y0002596362D01*
X0000434251Y0002596362D01*
X0000430877Y0002598237D01*
X0000429189Y0002601987D01*
X0000429189Y0002605736D01*
X0000430877Y0002609486D01*
X0000434251Y0002611361D01*
X0000442688Y0002611361D01*
X0000446062Y0002613235D01*
X0000462935Y0002622609D02*
X0000462935Y0002596362D01*
X0000462935Y0002618860D02*
X0000464623Y0002620734D01*
X0000467997Y0002622609D01*
X0000473059Y0002622609D01*
X0000476434Y0002620734D01*
X0000478121Y0002616985D01*
X0000478121Y0002596362D01*
X0000493307Y0002598237D02*
X0000496681Y0002596362D01*
X0000503430Y0002596362D01*
X0000506804Y0002598237D01*
X0000508492Y0002601987D01*
X0000508492Y0002603862D01*
X0000506804Y0002607611D01*
X0000503430Y0002609486D01*
X0000498368Y0002609486D01*
X0000494994Y0002611361D01*
X0000493307Y0002615110D01*
X0000493307Y0002616985D01*
X0000494994Y0002620734D01*
X0000498368Y0002622609D01*
X0000503430Y0002622609D01*
X0000506804Y0002620734D01*
X0000538863Y0002598237D02*
X0000535489Y0002596362D01*
X0000528740Y0002596362D01*
X0000525365Y0002598237D01*
X0000523678Y0002600112D01*
X0000521989Y0002603862D01*
X0000521989Y0002615110D01*
X0000523678Y0002618860D01*
X0000525365Y0002620734D01*
X0000528740Y0002622609D01*
X0000535489Y0002622609D01*
X0000538863Y0002620734D01*
X0000567547Y0002598237D02*
X0000564173Y0002596362D01*
X0000557424Y0002596362D01*
X0000554049Y0002598237D01*
X0000552362Y0002601987D01*
X0000552362Y0002616985D01*
X0000554049Y0002620734D01*
X0000557424Y0002622609D01*
X0000564173Y0002622609D01*
X0000567547Y0002620734D01*
X0000569235Y0002616985D01*
X0000569235Y0002613235D01*
X0000552362Y0002609486D01*
X0000584420Y0002596362D02*
X0000584420Y0002622609D01*
X0000584420Y0002635733D02*
X0000582733Y0002633858D01*
X0000584420Y0002631983D01*
X0000586107Y0002633858D01*
X0000584420Y0002635733D01*
X0000584420Y0002631983D01*
X0000597918Y0002622609D02*
X0000606355Y0002596362D01*
X0000614791Y0002622609D01*
X0000641788Y0002598237D02*
X0000638413Y0002596362D01*
X0000631664Y0002596362D01*
X0000628290Y0002598237D01*
X0000626602Y0002601987D01*
X0000626602Y0002616985D01*
X0000628290Y0002620734D01*
X0000631664Y0002622609D01*
X0000638413Y0002622609D01*
X0000641788Y0002620734D01*
X0000643475Y0002616985D01*
X0000643475Y0002613235D01*
X0000626602Y0002609486D01*
X0000658661Y0002596362D02*
X0000658661Y0002622609D01*
X0000658661Y0002615110D02*
X0000660348Y0002618860D01*
X0000662035Y0002620734D01*
X0000665410Y0002622609D01*
X0000668785Y0002622609D01*
X0000680596Y0002600112D02*
X0000682283Y0002598237D01*
X0000680596Y0002596362D01*
X0000678908Y0002598237D01*
X0000680596Y0002600112D01*
X0000680596Y0002596362D01*
X0000680596Y0002620734D02*
X0000682283Y0002618860D01*
X0000680596Y0002616985D01*
X0000678908Y0002618860D01*
X0000680596Y0002620734D01*
X0000680596Y0002616985D01*
X0000741338Y0002596362D02*
X0000724465Y0002596362D01*
X0000724465Y0002635733D01*
X0000753149Y0002596362D02*
X0000753149Y0002622609D01*
X0000753149Y0002635733D02*
X0000751462Y0002633858D01*
X0000753149Y0002631983D01*
X0000754836Y0002633858D01*
X0000753149Y0002635733D01*
X0000753149Y0002631983D01*
X0000770022Y0002596362D02*
X0000770022Y0002622609D01*
X0000770022Y0002618860D02*
X0000771709Y0002620734D01*
X0000775084Y0002622609D01*
X0000780146Y0002622609D01*
X0000783520Y0002620734D01*
X0000785208Y0002616985D01*
X0000785208Y0002596362D01*
X0000785208Y0002616985D02*
X0000786895Y0002620734D01*
X0000790269Y0002622609D01*
X0000795331Y0002622609D01*
X0000798706Y0002620734D01*
X0000800393Y0002616985D01*
X0000800393Y0002596362D01*
X0000830764Y0002598237D02*
X0000827390Y0002596362D01*
X0000820641Y0002596362D01*
X0000817266Y0002598237D01*
X0000815579Y0002601987D01*
X0000815579Y0002616985D01*
X0000817266Y0002620734D01*
X0000820641Y0002622609D01*
X0000827390Y0002622609D01*
X0000830764Y0002620734D01*
X0000832452Y0002616985D01*
X0000832452Y0002613235D01*
X0000815579Y0002609486D01*
X0000874633Y0002596362D02*
X0000874633Y0002635733D01*
X0000886445Y0002607611D01*
X0000898256Y0002635733D01*
X0000898256Y0002596362D01*
X0000915129Y0002596362D02*
X0000915129Y0002622609D01*
X0000915129Y0002635733D02*
X0000913441Y0002633858D01*
X0000915129Y0002631983D01*
X0000916816Y0002633858D01*
X0000915129Y0002635733D01*
X0000915129Y0002631983D01*
X0000947187Y0002598237D02*
X0000943813Y0002596362D01*
X0000937064Y0002596362D01*
X0000933689Y0002598237D01*
X0000932002Y0002600112D01*
X0000930314Y0002603862D01*
X0000930314Y0002615110D01*
X0000932002Y0002618860D01*
X0000933689Y0002620734D01*
X0000937064Y0002622609D01*
X0000943813Y0002622609D01*
X0000947187Y0002620734D01*
X0000962373Y0002596362D02*
X0000962373Y0002622609D01*
X0000962373Y0002615110D02*
X0000964059Y0002618860D01*
X0000965748Y0002620734D01*
X0000969122Y0002622609D01*
X0000972497Y0002622609D01*
X0000989370Y0002596362D02*
X0000985995Y0002598237D01*
X0000984308Y0002600112D01*
X0000982620Y0002603862D01*
X0000982620Y0002615110D01*
X0000984308Y0002618860D01*
X0000985995Y0002620734D01*
X0000989370Y0002622609D01*
X0000994431Y0002622609D01*
X0000997806Y0002620734D01*
X0000999493Y0002618860D01*
X0001001181Y0002615110D01*
X0001001181Y0002603862D01*
X0000999493Y0002600112D01*
X0000997806Y0002598237D01*
X0000994431Y0002596362D01*
X0000989370Y0002596362D01*
X0001014679Y0002598237D02*
X0001018053Y0002596362D01*
X0001024802Y0002596362D01*
X0001028176Y0002598237D01*
X0001029865Y0002601987D01*
X0001029865Y0002603862D01*
X0001028176Y0002607611D01*
X0001024802Y0002609486D01*
X0001019741Y0002609486D01*
X0001016366Y0002611361D01*
X0001014679Y0002615110D01*
X0001014679Y0002616985D01*
X0001016366Y0002620734D01*
X0001019741Y0002622609D01*
X0001024802Y0002622609D01*
X0001028176Y0002620734D01*
X0001041676Y0002622609D02*
X0001050112Y0002596362D01*
X0001058548Y0002622609D02*
X0001050112Y0002596362D01*
X0001046737Y0002586989D01*
X0001045050Y0002585114D01*
X0001041676Y0002583239D01*
X0001070359Y0002598237D02*
X0001073734Y0002596362D01*
X0001080483Y0002596362D01*
X0001083858Y0002598237D01*
X0001085545Y0002601987D01*
X0001085545Y0002603862D01*
X0001083858Y0002607611D01*
X0001080483Y0002609486D01*
X0001075421Y0002609486D01*
X0001072047Y0002611361D01*
X0001070359Y0002615110D01*
X0001070359Y0002616985D01*
X0001072047Y0002620734D01*
X0001075421Y0002622609D01*
X0001080483Y0002622609D01*
X0001083858Y0002620734D01*
X0001095669Y0002622609D02*
X0001109167Y0002622609D01*
X0001100731Y0002635733D02*
X0001100731Y0002601987D01*
X0001102418Y0002598237D01*
X0001105792Y0002596362D01*
X0001109167Y0002596362D01*
X0001134476Y0002598237D02*
X0001131102Y0002596362D01*
X0001124353Y0002596362D01*
X0001120978Y0002598237D01*
X0001119291Y0002601987D01*
X0001119291Y0002616985D01*
X0001120978Y0002620734D01*
X0001124353Y0002622609D01*
X0001131102Y0002622609D01*
X0001134476Y0002620734D01*
X0001136164Y0002616985D01*
X0001136164Y0002613235D01*
X0001119291Y0002609486D01*
X0001151349Y0002596362D02*
X0001151349Y0002622609D01*
X0001151349Y0002618860D02*
X0001153037Y0002620734D01*
X0001156411Y0002622609D01*
X0001161473Y0002622609D01*
X0001164848Y0002620734D01*
X0001166535Y0002616985D01*
X0001166535Y0002596362D01*
X0001166535Y0002616985D02*
X0001168222Y0002620734D01*
X0001171597Y0002622609D01*
X0001176659Y0002622609D01*
X0001180033Y0002620734D01*
X0001181721Y0002616985D01*
X0001181721Y0002596362D01*
X0001196906Y0002598237D02*
X0001200281Y0002596362D01*
X0001207030Y0002596362D01*
X0001210404Y0002598237D01*
X0001212092Y0002601987D01*
X0001212092Y0002603862D01*
X0001210404Y0002607611D01*
X0001207030Y0002609486D01*
X0001201968Y0002609486D01*
X0001198593Y0002611361D01*
X0001196906Y0002615110D01*
X0001196906Y0002616985D01*
X0001198593Y0002620734D01*
X0001201968Y0002622609D01*
X0001207030Y0002622609D01*
X0001210404Y0002620734D01*
X0001271147Y0002596362D02*
X0001254274Y0002596362D01*
X0001254274Y0002635733D01*
X0001282958Y0002596362D02*
X0001282958Y0002635733D01*
X0001294769Y0002607611D01*
X0001306580Y0002635733D01*
X0001306580Y0002596362D01*
X0001321766Y0002598237D02*
X0001326827Y0002596362D01*
X0001335264Y0002596362D01*
X0001338638Y0002598237D01*
X0001340326Y0002600112D01*
X0001342013Y0002603862D01*
X0001342013Y0002607611D01*
X0001340326Y0002611361D01*
X0001338638Y0002613235D01*
X0001335264Y0002615110D01*
X0001328515Y0002616985D01*
X0001325140Y0002618860D01*
X0001323453Y0002620734D01*
X0001321766Y0002624483D01*
X0001321766Y0002628233D01*
X0001323453Y0002631983D01*
X0001325140Y0002633858D01*
X0001328515Y0002635733D01*
X0001336951Y0002635733D01*
X0001342013Y0002633858D01*
X0001353824Y0002635733D02*
X0001377446Y0002635733D01*
X0001362260Y0002596362D01*
X0001397694Y0002635733D02*
X0001401068Y0002635733D01*
X0001404443Y0002633858D01*
X0001406130Y0002631983D01*
X0001407817Y0002628233D01*
X0001409505Y0002620734D01*
X0001409505Y0002611361D01*
X0001407817Y0002603862D01*
X0001406130Y0002600112D01*
X0001404443Y0002598237D01*
X0001401068Y0002596362D01*
X0001397694Y0002596362D01*
X0001394319Y0002598237D01*
X0001392631Y0002600112D01*
X0001390944Y0002603862D01*
X0001389257Y0002611361D01*
X0001389257Y0002620734D01*
X0001390944Y0002628233D01*
X0001392631Y0002631983D01*
X0001394319Y0002633858D01*
X0001397694Y0002635733D01*
X0001431439Y0002635733D02*
X0001434814Y0002635733D01*
X0001438186Y0002633858D01*
X0001439875Y0002631983D01*
X0001441563Y0002628233D01*
X0001443250Y0002620734D01*
X0001443250Y0002611361D01*
X0001441563Y0002603862D01*
X0001439875Y0002600112D01*
X0001438186Y0002598237D01*
X0001434814Y0002596362D01*
X0001431439Y0002596362D01*
X0001428065Y0002598237D01*
X0001426377Y0002600112D01*
X0001424690Y0002603862D01*
X0001423003Y0002611361D01*
X0001423003Y0002620734D01*
X0001424690Y0002628233D01*
X0001426377Y0002631983D01*
X0001428065Y0002633858D01*
X0001431439Y0002635733D01*
X0001456749Y0002631983D02*
X0001458436Y0002633858D01*
X0001461811Y0002635733D01*
X0001470247Y0002635733D01*
X0001473622Y0002633858D01*
X0001475309Y0002631983D01*
X0001476996Y0002628233D01*
X0001476996Y0002624483D01*
X0001475309Y0002618860D01*
X0001455061Y0002596362D01*
X0001476996Y0002596362D01*
X0001492181Y0002596362D02*
X0001492181Y0002635733D01*
X0001503993Y0002607611D01*
X0001515804Y0002635733D01*
X0001515804Y0002596362D01*
X0001559673Y0002596362D02*
X0001559673Y0002635733D01*
X0001571483Y0002607611D01*
X0001583295Y0002635733D01*
X0001583295Y0002596362D01*
X0001600168Y0002596362D02*
X0001600168Y0002635733D01*
X0001617041Y0002596362D02*
X0001617041Y0002635733D01*
X0001628852Y0002607611D01*
X0001640663Y0002635733D01*
X0001640663Y0002596362D01*
X0001664285Y0002635733D02*
X0001671033Y0002635733D01*
X0001674409Y0002633858D01*
X0001677784Y0002630108D01*
X0001679471Y0002622609D01*
X0001679471Y0002609486D01*
X0001677784Y0002601987D01*
X0001674409Y0002598237D01*
X0001671033Y0002596362D01*
X0001664285Y0002596362D01*
X0001660911Y0002598237D01*
X0001657536Y0002601987D01*
X0001655849Y0002609486D01*
X0001655849Y0002622609D01*
X0001657536Y0002630108D01*
X0001660911Y0002633858D01*
X0001664285Y0002635733D01*
X0001733464Y0002616985D02*
X0001721653Y0002616985D01*
X0001721653Y0002596362D02*
X0001721653Y0002635733D01*
X0001738526Y0002635733D01*
X0001752023Y0002596362D02*
X0001752023Y0002635733D01*
X0001765523Y0002635733D01*
X0001768897Y0002633858D01*
X0001770584Y0002631983D01*
X0001772272Y0002628233D01*
X0001772272Y0002622609D01*
X0001770584Y0002618860D01*
X0001768897Y0002616985D01*
X0001765523Y0002615110D01*
X0001752023Y0002615110D01*
X0001807705Y0002596362D02*
X0001795894Y0002615110D01*
X0001787457Y0002596362D02*
X0001787457Y0002635733D01*
X0001800956Y0002635733D01*
X0001804329Y0002633858D01*
X0001806017Y0002631983D01*
X0001807705Y0002628233D01*
X0001807705Y0002622609D01*
X0001806017Y0002618860D01*
X0001804329Y0002616985D01*
X0001800956Y0002615110D01*
X0001787457Y0002615110D01*
X0001834701Y0002616985D02*
X0001822890Y0002616985D01*
X0001822890Y0002596362D02*
X0001822890Y0002635733D01*
X0001839763Y0002635733D01*
X0000300956Y0002550056D02*
X0000289145Y0002550056D01*
X0000289145Y0002529433D02*
X0000289145Y0002568803D01*
X0000306017Y0002568803D01*
X0000319516Y0002529433D02*
X0000319516Y0002568803D01*
X0000333014Y0002568803D01*
X0000336389Y0002566929D01*
X0000338076Y0002565054D01*
X0000339763Y0002561304D01*
X0000339763Y0002555680D01*
X0000338076Y0002551930D01*
X0000336389Y0002550056D01*
X0000333014Y0002548181D01*
X0000319516Y0002548181D01*
X0000373509Y0002566929D02*
X0000370134Y0002568803D01*
X0000365073Y0002568803D01*
X0000360011Y0002566929D01*
X0000356636Y0002563179D01*
X0000354949Y0002559430D01*
X0000353262Y0002551930D01*
X0000353262Y0002546306D01*
X0000354949Y0002538807D01*
X0000356636Y0002535058D01*
X0000360011Y0002531308D01*
X0000365073Y0002529433D01*
X0000368446Y0002529433D01*
X0000373509Y0002531308D01*
X0000375196Y0002533183D01*
X0000375196Y0002546306D01*
X0000368446Y0002546306D01*
X0000388695Y0002540682D02*
X0000405568Y0002540682D01*
X0000385320Y0002529433D02*
X0000397131Y0002568803D01*
X0000408942Y0002529433D01*
X0000420753Y0002533183D02*
X0000422440Y0002531308D01*
X0000420753Y0002529433D01*
X0000419066Y0002531308D01*
X0000420753Y0002533183D01*
X0000420753Y0002529433D01*
X0000420753Y0002553805D02*
X0000422440Y0002551930D01*
X0000420753Y0002550056D01*
X0000419066Y0002551930D01*
X0000420753Y0002553805D01*
X0000420753Y0002550056D01*
X0000462935Y0002540682D02*
X0000479808Y0002540682D01*
X0000459561Y0002529433D02*
X0000471372Y0002568803D01*
X0000483183Y0002529433D01*
X0000500055Y0002529433D02*
X0000496681Y0002531308D01*
X0000494994Y0002535058D01*
X0000494994Y0002568803D01*
X0000508492Y0002555680D02*
X0000521989Y0002555680D01*
X0000513553Y0002568803D02*
X0000513553Y0002535058D01*
X0000515240Y0002531308D01*
X0000518615Y0002529433D01*
X0000521989Y0002529433D01*
X0000547300Y0002531308D02*
X0000543925Y0002529433D01*
X0000537176Y0002529433D01*
X0000533802Y0002531308D01*
X0000532114Y0002535058D01*
X0000532114Y0002550056D01*
X0000533802Y0002553805D01*
X0000537176Y0002555680D01*
X0000543925Y0002555680D01*
X0000547300Y0002553805D01*
X0000548987Y0002550056D01*
X0000548987Y0002546306D01*
X0000532114Y0002542557D01*
X0000564173Y0002529433D02*
X0000564173Y0002555680D01*
X0000564173Y0002548181D02*
X0000565860Y0002551930D01*
X0000567547Y0002553805D01*
X0000570922Y0002555680D01*
X0000574296Y0002555680D01*
X0000601293Y0002529433D02*
X0000601293Y0002550056D01*
X0000599606Y0002553805D01*
X0000596231Y0002555680D01*
X0000589482Y0002555680D01*
X0000586107Y0002553805D01*
X0000601293Y0002531308D02*
X0000597918Y0002529433D01*
X0000589482Y0002529433D01*
X0000586107Y0002531308D01*
X0000584420Y0002535058D01*
X0000584420Y0002538807D01*
X0000586107Y0002542557D01*
X0000589482Y0002544431D01*
X0000597918Y0002544431D01*
X0000601293Y0002546306D01*
X0000665410Y0002533183D02*
X0000663723Y0002531308D01*
X0000658661Y0002529433D01*
X0000655286Y0002529433D01*
X0000650223Y0002531308D01*
X0000646850Y0002535058D01*
X0000645163Y0002538807D01*
X0000643475Y0002546306D01*
X0000643475Y0002551930D01*
X0000645163Y0002559430D01*
X0000646850Y0002563179D01*
X0000650223Y0002566929D01*
X0000655286Y0002568803D01*
X0000658661Y0002568803D01*
X0000663723Y0002566929D01*
X0000665410Y0002565054D01*
X0000677220Y0002555680D02*
X0000685658Y0002529433D01*
X0000694094Y0002555680D02*
X0000685658Y0002529433D01*
X0000682283Y0002520060D01*
X0000680596Y0002518185D01*
X0000677220Y0002516310D01*
X0000722778Y0002531308D02*
X0000719403Y0002529433D01*
X0000712654Y0002529433D01*
X0000709280Y0002531308D01*
X0000707592Y0002533183D01*
X0000705905Y0002536932D01*
X0000705905Y0002548181D01*
X0000707592Y0002551930D01*
X0000709280Y0002553805D01*
X0000712654Y0002555680D01*
X0000719403Y0002555680D01*
X0000722778Y0002553805D01*
X0000743024Y0002529433D02*
X0000739651Y0002531308D01*
X0000737963Y0002535058D01*
X0000737963Y0002568803D01*
X0000761586Y0002529433D02*
X0000758211Y0002531308D01*
X0000756523Y0002533183D01*
X0000754836Y0002536932D01*
X0000754836Y0002548181D01*
X0000756523Y0002551930D01*
X0000758211Y0002553805D01*
X0000761586Y0002555680D01*
X0000766646Y0002555680D01*
X0000770022Y0002553805D01*
X0000771709Y0002551930D01*
X0000773397Y0002548181D01*
X0000773397Y0002536932D01*
X0000771709Y0002533183D01*
X0000770022Y0002531308D01*
X0000766646Y0002529433D01*
X0000761586Y0002529433D01*
X0000788582Y0002555680D02*
X0000788582Y0002529433D01*
X0000788582Y0002551930D02*
X0000790269Y0002553805D01*
X0000793644Y0002555680D01*
X0000798706Y0002555680D01*
X0000802080Y0002553805D01*
X0000803768Y0002550056D01*
X0000803768Y0002529433D01*
X0000834138Y0002531308D02*
X0000830764Y0002529433D01*
X0000824015Y0002529433D01*
X0000820641Y0002531308D01*
X0000818953Y0002535058D01*
X0000818953Y0002550056D01*
X0000820641Y0002553805D01*
X0000824015Y0002555680D01*
X0000830764Y0002555680D01*
X0000834138Y0002553805D01*
X0000835826Y0002550056D01*
X0000835826Y0002546306D01*
X0000818953Y0002542557D01*
X0000878008Y0002529433D02*
X0000878008Y0002568803D01*
X0000889820Y0002568803D02*
X0000901631Y0002529433D01*
X0000913441Y0002568803D01*
X0000952249Y0002550056D02*
X0000964059Y0002550056D01*
X0000969122Y0002529433D02*
X0000952249Y0002529433D01*
X0000952249Y0002568803D01*
X0000969122Y0002568803D01*
X0000984308Y0002529433D02*
X0000984308Y0002568803D01*
X0000997806Y0002568803D01*
X0001001181Y0002566929D01*
X0001002868Y0002565054D01*
X0001004555Y0002561304D01*
X0001004555Y0002555680D01*
X0001002868Y0002551930D01*
X0001001181Y0002550056D01*
X0000997806Y0002548181D01*
X0000984308Y0002548181D01*
X0001034926Y0002555680D02*
X0001034926Y0002529433D01*
X0001026489Y0002570678D02*
X0001018053Y0002542557D01*
X0001039987Y0002542557D01*
X0001073734Y0002533183D02*
X0001072047Y0002531308D01*
X0001066985Y0002529433D01*
X0001063610Y0002529433D01*
X0001058548Y0002531308D01*
X0001055174Y0002535058D01*
X0001053487Y0002538807D01*
X0001051799Y0002546306D01*
X0001051799Y0002551930D01*
X0001053487Y0002559430D01*
X0001055174Y0002563179D01*
X0001058548Y0002566929D01*
X0001063610Y0002568803D01*
X0001066985Y0002568803D01*
X0001072047Y0002566929D01*
X0001073734Y0002565054D01*
X0001088920Y0002550056D02*
X0001100731Y0002550056D01*
X0001105792Y0002529433D02*
X0001088920Y0002529433D01*
X0001088920Y0002568803D01*
X0001105792Y0002568803D01*
X0001136164Y0002555680D02*
X0001136164Y0002529433D01*
X0001127727Y0002570678D02*
X0001119291Y0002542557D01*
X0001141226Y0002542557D01*
X0001161473Y0002568803D02*
X0001164848Y0002568803D01*
X0001168222Y0002566929D01*
X0001169910Y0002565054D01*
X0001171597Y0002561304D01*
X0001173284Y0002553805D01*
X0001173284Y0002544431D01*
X0001171597Y0002536932D01*
X0001169910Y0002533183D01*
X0001168222Y0002531308D01*
X0001164848Y0002529433D01*
X0001161473Y0002529433D01*
X0001158098Y0002531308D01*
X0001156411Y0002533183D01*
X0001154724Y0002536932D01*
X0001153037Y0002544431D01*
X0001153037Y0002553805D01*
X0001154724Y0002561304D01*
X0001156411Y0002565054D01*
X0001158098Y0002566929D01*
X0001161473Y0002568803D01*
X0001200281Y0002550056D02*
X0001188470Y0002550056D01*
X0001188470Y0002529433D02*
X0001188470Y0002568803D01*
X0001205343Y0002568803D01*
X0001217154Y0002565054D02*
X0001218841Y0002566929D01*
X0001222215Y0002568803D01*
X0001230652Y0002568803D01*
X0001234026Y0002566929D01*
X0001235714Y0002565054D01*
X0001237401Y0002561304D01*
X0001237401Y0002557555D01*
X0001235714Y0002551930D01*
X0001215466Y0002529433D01*
X0001237401Y0002529433D01*
X0001249212Y0002568803D02*
X0001271147Y0002568803D01*
X0001259336Y0002553805D01*
X0001264398Y0002553805D01*
X0001267772Y0002551930D01*
X0001269460Y0002550056D01*
X0001271147Y0002546306D01*
X0001271147Y0002536932D01*
X0001269460Y0002533183D01*
X0001267772Y0002531308D01*
X0001264398Y0002529433D01*
X0001254274Y0002529433D01*
X0001250899Y0002531308D01*
X0001249212Y0002533183D01*
X0001288020Y0002531308D02*
X0001288020Y0002529433D01*
X0001286332Y0002525684D01*
X0001284644Y0002523809D01*
X0001345388Y0002531308D02*
X0001342013Y0002529433D01*
X0001335264Y0002529433D01*
X0001331889Y0002531308D01*
X0001330202Y0002533183D01*
X0001328515Y0002536932D01*
X0001328515Y0002548181D01*
X0001330202Y0002551930D01*
X0001331889Y0002553805D01*
X0001335264Y0002555680D01*
X0001342013Y0002555680D01*
X0001345388Y0002553805D01*
X0001365635Y0002529433D02*
X0001362260Y0002531308D01*
X0001360573Y0002533183D01*
X0001358886Y0002536932D01*
X0001358886Y0002548181D01*
X0001360573Y0002551930D01*
X0001362260Y0002553805D01*
X0001365635Y0002555680D01*
X0001370697Y0002555680D01*
X0001374071Y0002553805D01*
X0001375759Y0002551930D01*
X0001377446Y0002548181D01*
X0001377446Y0002536932D01*
X0001375759Y0002533183D01*
X0001374071Y0002531308D01*
X0001370697Y0002529433D01*
X0001365635Y0002529433D01*
X0001392631Y0002529433D02*
X0001392631Y0002555680D01*
X0001392631Y0002551930D02*
X0001394319Y0002553805D01*
X0001397694Y0002555680D01*
X0001402755Y0002555680D01*
X0001406130Y0002553805D01*
X0001407817Y0002550056D01*
X0001407817Y0002529433D01*
X0001407817Y0002550056D02*
X0001409505Y0002553805D01*
X0001412877Y0002555680D01*
X0001417941Y0002555680D01*
X0001421316Y0002553805D01*
X0001423003Y0002550056D01*
X0001423003Y0002529433D01*
X0001439875Y0002555680D02*
X0001439875Y0002516310D01*
X0001439875Y0002553805D02*
X0001443250Y0002555680D01*
X0001450000Y0002555680D01*
X0001453374Y0002553805D01*
X0001455061Y0002551930D01*
X0001456749Y0002548181D01*
X0001456749Y0002536932D01*
X0001455061Y0002533183D01*
X0001453374Y0002531308D01*
X0001450000Y0002529433D01*
X0001443250Y0002529433D01*
X0001439875Y0002531308D01*
X0001471934Y0002533183D02*
X0001473622Y0002531308D01*
X0001471934Y0002529433D01*
X0001470247Y0002531308D01*
X0001471934Y0002533183D01*
X0001471934Y0002529433D01*
X0001512429Y0002555680D02*
X0001519178Y0002529433D01*
X0001525927Y0002548181D01*
X0001532677Y0002529433D01*
X0001539426Y0002555680D01*
X0001552924Y0002529433D02*
X0001552924Y0002555680D01*
X0001552924Y0002568803D02*
X0001551237Y0002566929D01*
X0001552924Y0002565054D01*
X0001554611Y0002566929D01*
X0001552924Y0002568803D01*
X0001552924Y0002565054D01*
X0001564735Y0002555680D02*
X0001578233Y0002555680D01*
X0001569797Y0002568803D02*
X0001569797Y0002535058D01*
X0001571483Y0002531308D01*
X0001574859Y0002529433D01*
X0001578233Y0002529433D01*
X0001590044Y0002529433D02*
X0001590044Y0002568803D01*
X0001605230Y0002529433D02*
X0001605230Y0002550056D01*
X0001603543Y0002553805D01*
X0001600168Y0002555680D01*
X0001595106Y0002555680D01*
X0001591732Y0002553805D01*
X0001590044Y0002551930D01*
X0001649100Y0002550056D02*
X0001660911Y0002550056D01*
X0001665972Y0002529433D02*
X0001649100Y0002529433D01*
X0001649100Y0002568803D01*
X0001665972Y0002568803D01*
X0001681158Y0002529433D02*
X0001681158Y0002568803D01*
X0001694656Y0002568803D01*
X0001698031Y0002566929D01*
X0001699718Y0002565054D01*
X0001701404Y0002561304D01*
X0001701404Y0002555680D01*
X0001699718Y0002551930D01*
X0001698031Y0002550056D01*
X0001694656Y0002548181D01*
X0001681158Y0002548181D01*
X0001731777Y0002555680D02*
X0001731777Y0002529433D01*
X0001723340Y0002570678D02*
X0001714904Y0002542557D01*
X0001736839Y0002542557D01*
X0001770584Y0002533183D02*
X0001768897Y0002531308D01*
X0001763835Y0002529433D01*
X0001760461Y0002529433D01*
X0001755399Y0002531308D01*
X0001752023Y0002535058D01*
X0001750337Y0002538807D01*
X0001748650Y0002546306D01*
X0001748650Y0002551930D01*
X0001750337Y0002559430D01*
X0001752023Y0002563179D01*
X0001755399Y0002566929D01*
X0001760461Y0002568803D01*
X0001763835Y0002568803D01*
X0001768897Y0002566929D01*
X0001770584Y0002565054D01*
X0001785770Y0002550056D02*
X0001797581Y0002550056D01*
X0001802643Y0002529433D02*
X0001785770Y0002529433D01*
X0001785770Y0002568803D01*
X0001802643Y0002568803D01*
X0001814454Y0002568803D02*
X0001836389Y0002568803D01*
X0001824578Y0002553805D01*
X0001829640Y0002553805D01*
X0001833014Y0002551930D01*
X0001834701Y0002550056D01*
X0001836389Y0002546306D01*
X0001836389Y0002536932D01*
X0001834701Y0002533183D01*
X0001833014Y0002531308D01*
X0001829640Y0002529433D01*
X0001819516Y0002529433D01*
X0001816141Y0002531308D01*
X0001814454Y0002533183D01*
X0001858323Y0002568803D02*
X0001861698Y0002568803D01*
X0001865073Y0002566929D01*
X0001866760Y0002565054D01*
X0001868447Y0002561304D01*
X0001870134Y0002553805D01*
X0001870134Y0002544431D01*
X0001868447Y0002536932D01*
X0001866760Y0002533183D01*
X0001865073Y0002531308D01*
X0001861698Y0002529433D01*
X0001858323Y0002529433D01*
X0001854949Y0002531308D01*
X0001853262Y0002533183D01*
X0001851574Y0002536932D01*
X0001849887Y0002544431D01*
X0001849887Y0002553805D01*
X0001851574Y0002561304D01*
X0001853262Y0002565054D01*
X0001854949Y0002566929D01*
X0001858323Y0002568803D01*
X0001897131Y0002550056D02*
X0001885320Y0002550056D01*
X0001885320Y0002529433D02*
X0001885320Y0002568803D01*
X0001902193Y0002568803D01*
X0001914004Y0002565054D02*
X0001915691Y0002566929D01*
X0001919066Y0002568803D01*
X0001927502Y0002568803D01*
X0001930877Y0002566929D01*
X0001932564Y0002565054D01*
X0001934251Y0002561304D01*
X0001934251Y0002557555D01*
X0001932564Y0002551930D01*
X0001912316Y0002529433D01*
X0001934251Y0002529433D01*
X0001946062Y0002568803D02*
X0001967997Y0002568803D01*
X0001956186Y0002553805D01*
X0001961248Y0002553805D01*
X0001964622Y0002551930D01*
X0001966310Y0002550056D01*
X0001967997Y0002546306D01*
X0001967997Y0002536932D01*
X0001966310Y0002533183D01*
X0001964622Y0002531308D01*
X0001961248Y0002529433D01*
X0001951124Y0002529433D01*
X0001947750Y0002531308D01*
X0001946062Y0002533183D01*
X0000289145Y0002462504D02*
X0000289145Y0002501874D01*
X0000300956Y0002473753D01*
X0000312767Y0002501874D01*
X0000312767Y0002462504D01*
X0000343137Y0002464379D02*
X0000339763Y0002462504D01*
X0000333014Y0002462504D01*
X0000329640Y0002464379D01*
X0000327952Y0002468129D01*
X0000327952Y0002483127D01*
X0000329640Y0002486876D01*
X0000333014Y0002488751D01*
X0000339763Y0002488751D01*
X0000343137Y0002486876D01*
X0000344825Y0002483127D01*
X0000344825Y0002479377D01*
X0000327952Y0002475628D01*
X0000360011Y0002462504D02*
X0000360011Y0002488751D01*
X0000360011Y0002485001D02*
X0000361698Y0002486876D01*
X0000365073Y0002488751D01*
X0000370134Y0002488751D01*
X0000373509Y0002486876D01*
X0000375196Y0002483127D01*
X0000375196Y0002462504D01*
X0000375196Y0002483127D02*
X0000376884Y0002486876D01*
X0000380257Y0002488751D01*
X0000385320Y0002488751D01*
X0000388695Y0002486876D01*
X0000390382Y0002483127D01*
X0000390382Y0002462504D01*
X0000412317Y0002462504D02*
X0000408942Y0002464379D01*
X0000407255Y0002466254D01*
X0000405568Y0002470003D01*
X0000405568Y0002481252D01*
X0000407255Y0002485001D01*
X0000408942Y0002486876D01*
X0000412317Y0002488751D01*
X0000417379Y0002488751D01*
X0000420753Y0002486876D01*
X0000422440Y0002485001D01*
X0000424128Y0002481252D01*
X0000424128Y0002470003D01*
X0000422440Y0002466254D01*
X0000420753Y0002464379D01*
X0000417379Y0002462504D01*
X0000412317Y0002462504D01*
X0000439312Y0002462504D02*
X0000439312Y0002488751D01*
X0000439312Y0002481252D02*
X0000441000Y0002485001D01*
X0000442688Y0002486876D01*
X0000446062Y0002488751D01*
X0000449437Y0002488751D01*
X0000457874Y0002488751D02*
X0000466309Y0002462504D01*
X0000474746Y0002488751D02*
X0000466309Y0002462504D01*
X0000462935Y0002453130D01*
X0000461248Y0002451256D01*
X0000457874Y0002449381D01*
X0000488245Y0002466254D02*
X0000489932Y0002464379D01*
X0000488245Y0002462504D01*
X0000486557Y0002464379D01*
X0000488245Y0002466254D01*
X0000488245Y0002462504D01*
X0000488245Y0002486876D02*
X0000489932Y0002485001D01*
X0000488245Y0002483127D01*
X0000486557Y0002485001D01*
X0000488245Y0002486876D01*
X0000488245Y0002483127D01*
X0000530427Y0002498125D02*
X0000532114Y0002500000D01*
X0000535489Y0002501874D01*
X0000543925Y0002501874D01*
X0000547300Y0002500000D01*
X0000548987Y0002498125D01*
X0000550674Y0002494375D01*
X0000550674Y0002490626D01*
X0000548987Y0002485001D01*
X0000528740Y0002462504D01*
X0000550674Y0002462504D01*
X0000582733Y0002501874D02*
X0000565860Y0002501874D01*
X0000564173Y0002483127D01*
X0000565860Y0002485001D01*
X0000569235Y0002486876D01*
X0000577671Y0002486876D01*
X0000581046Y0002485001D01*
X0000582733Y0002483127D01*
X0000584420Y0002479377D01*
X0000584420Y0002470003D01*
X0000582733Y0002466254D01*
X0000581046Y0002464379D01*
X0000577671Y0002462504D01*
X0000569235Y0002462504D01*
X0000565860Y0002464379D01*
X0000564173Y0002466254D01*
X0000614791Y0002501874D02*
X0000608042Y0002501874D01*
X0000604668Y0002500000D01*
X0000602980Y0002498125D01*
X0000599606Y0002492500D01*
X0000597918Y0002485001D01*
X0000597918Y0002470003D01*
X0000599606Y0002466254D01*
X0000601293Y0002464379D01*
X0000604668Y0002462504D01*
X0000611417Y0002462504D01*
X0000614791Y0002464379D01*
X0000616479Y0002466254D01*
X0000618166Y0002470003D01*
X0000618166Y0002479377D01*
X0000616479Y0002483127D01*
X0000614791Y0002485001D01*
X0000611417Y0002486876D01*
X0000604668Y0002486876D01*
X0000601293Y0002485001D01*
X0000599606Y0002483127D01*
X0000597918Y0002479377D01*
X0000660348Y0002462504D02*
X0000660348Y0002501874D01*
X0000672159Y0002473753D01*
X0000683970Y0002501874D01*
X0000683970Y0002462504D01*
X0000712654Y0002483127D02*
X0000717715Y0002481252D01*
X0000719403Y0002479377D01*
X0000721091Y0002475628D01*
X0000721091Y0002470003D01*
X0000719403Y0002466254D01*
X0000717715Y0002464379D01*
X0000714341Y0002462504D01*
X0000700843Y0002462504D01*
X0000700843Y0002501874D01*
X0000712654Y0002501874D01*
X0000716029Y0002500000D01*
X0000717715Y0002498125D01*
X0000719403Y0002494375D01*
X0000719403Y0002490626D01*
X0000717715Y0002486876D01*
X0000716029Y0002485001D01*
X0000712654Y0002483127D01*
X0000700843Y0002483127D01*
X0000732902Y0002488751D02*
X0000741338Y0002462504D01*
X0000749775Y0002488751D02*
X0000741338Y0002462504D01*
X0000737963Y0002453130D01*
X0000736276Y0002451256D01*
X0000732902Y0002449381D01*
X0000758211Y0002488751D02*
X0000771709Y0002488751D01*
X0000763273Y0002501874D02*
X0000763273Y0002468129D01*
X0000764960Y0002464379D01*
X0000768335Y0002462504D01*
X0000771709Y0002462504D01*
X0000797018Y0002464379D02*
X0000793644Y0002462504D01*
X0000786895Y0002462504D01*
X0000783520Y0002464379D01*
X0000781832Y0002468129D01*
X0000781832Y0002483127D01*
X0000783520Y0002486876D01*
X0000786895Y0002488751D01*
X0000793644Y0002488751D01*
X0000797018Y0002486876D01*
X0000798706Y0002483127D01*
X0000798706Y0002479377D01*
X0000781832Y0002475628D01*
X0000812204Y0002464379D02*
X0000815579Y0002462504D01*
X0000822328Y0002462504D01*
X0000825703Y0002464379D01*
X0000827390Y0002468129D01*
X0000827390Y0002470003D01*
X0000825703Y0002473753D01*
X0000822328Y0002475628D01*
X0000817266Y0002475628D01*
X0000813892Y0002477502D01*
X0000812204Y0002481252D01*
X0000812204Y0002483127D01*
X0000813892Y0002486876D01*
X0000817266Y0002488751D01*
X0000822328Y0002488751D01*
X0000825703Y0002486876D01*
X0000869572Y0002462504D02*
X0000869572Y0002501874D01*
X0000878008Y0002501874D01*
X0000883070Y0002500000D01*
X0000886445Y0002496250D01*
X0000888132Y0002492500D01*
X0000889820Y0002485001D01*
X0000889820Y0002479377D01*
X0000888132Y0002471878D01*
X0000886445Y0002468129D01*
X0000883070Y0002464379D01*
X0000878008Y0002462504D01*
X0000869572Y0002462504D01*
X0000905005Y0002462504D02*
X0000905005Y0002501874D01*
X0000913441Y0002501874D01*
X0000918503Y0002500000D01*
X0000921878Y0002496250D01*
X0000923564Y0002492500D01*
X0000925253Y0002485001D01*
X0000925253Y0002479377D01*
X0000923564Y0002471878D01*
X0000921878Y0002468129D01*
X0000918503Y0002464379D01*
X0000913441Y0002462504D01*
X0000905005Y0002462504D01*
X0000960686Y0002462504D02*
X0000948875Y0002481252D01*
X0000940438Y0002462504D02*
X0000940438Y0002501874D01*
X0000953936Y0002501874D01*
X0000957311Y0002500000D01*
X0000958998Y0002498125D01*
X0000960686Y0002494375D01*
X0000960686Y0002488751D01*
X0000958998Y0002485001D01*
X0000957311Y0002483127D01*
X0000953936Y0002481252D01*
X0000940438Y0002481252D01*
X0000974184Y0002498125D02*
X0000975871Y0002500000D01*
X0000979246Y0002501874D01*
X0000987682Y0002501874D01*
X0000991056Y0002500000D01*
X0000992744Y0002498125D01*
X0000994431Y0002494375D01*
X0000994431Y0002490626D01*
X0000992744Y0002485001D01*
X0000972497Y0002462504D01*
X0000994431Y0002462504D01*
X0001034926Y0002464379D02*
X0001039987Y0002462504D01*
X0001048424Y0002462504D01*
X0001051799Y0002464379D01*
X0001053487Y0002466254D01*
X0001055174Y0002470003D01*
X0001055174Y0002473753D01*
X0001053487Y0002477502D01*
X0001051799Y0002479377D01*
X0001048424Y0002481252D01*
X0001041676Y0002483127D01*
X0001038300Y0002485001D01*
X0001036613Y0002486876D01*
X0001034926Y0002490626D01*
X0001034926Y0002494375D01*
X0001036613Y0002498125D01*
X0001038300Y0002500000D01*
X0001041676Y0002501874D01*
X0001050112Y0002501874D01*
X0001055174Y0002500000D01*
X0001070359Y0002462504D02*
X0001070359Y0002501874D01*
X0001078796Y0002501874D01*
X0001083858Y0002500000D01*
X0001087232Y0002496250D01*
X0001088920Y0002492500D01*
X0001090607Y0002485001D01*
X0001090607Y0002479377D01*
X0001088920Y0002471878D01*
X0001087232Y0002468129D01*
X0001083858Y0002464379D01*
X0001078796Y0002462504D01*
X0001070359Y0002462504D01*
X0001126040Y0002462504D02*
X0001114229Y0002481252D01*
X0001105792Y0002462504D02*
X0001105792Y0002501874D01*
X0001119291Y0002501874D01*
X0001122665Y0002500000D01*
X0001124353Y0002498125D01*
X0001126040Y0002494375D01*
X0001126040Y0002488751D01*
X0001124353Y0002485001D01*
X0001122665Y0002483127D01*
X0001119291Y0002481252D01*
X0001105792Y0002481252D01*
X0001139538Y0002473753D02*
X0001156411Y0002473753D01*
X0001136164Y0002462504D02*
X0001147975Y0002501874D01*
X0001159786Y0002462504D01*
X0001171597Y0002462504D02*
X0001171597Y0002501874D01*
X0001183408Y0002473753D01*
X0001195219Y0002501874D01*
X0001195219Y0002462504D01*
X0000309392Y0002399325D02*
X0000307705Y0002397450D01*
X0000302643Y0002395575D01*
X0000299268Y0002395575D01*
X0000294206Y0002397450D01*
X0000290832Y0002401199D01*
X0000289145Y0002404949D01*
X0000287457Y0002412448D01*
X0000287457Y0002418072D01*
X0000289145Y0002425571D01*
X0000290832Y0002429321D01*
X0000294206Y0002433070D01*
X0000299268Y0002434945D01*
X0000302643Y0002434945D01*
X0000307705Y0002433070D01*
X0000309392Y0002431196D01*
X0000329640Y0002395575D02*
X0000326265Y0002397450D01*
X0000324578Y0002399325D01*
X0000322890Y0002403074D01*
X0000322890Y0002414323D01*
X0000324578Y0002418072D01*
X0000326265Y0002419947D01*
X0000329640Y0002421822D01*
X0000334700Y0002421822D01*
X0000338076Y0002419947D01*
X0000339763Y0002418072D01*
X0000341451Y0002414323D01*
X0000341451Y0002403074D01*
X0000339763Y0002399325D01*
X0000338076Y0002397450D01*
X0000334700Y0002395575D01*
X0000329640Y0002395575D01*
X0000356636Y0002421822D02*
X0000356636Y0002395575D01*
X0000356636Y0002418072D02*
X0000358323Y0002419947D01*
X0000361698Y0002421822D01*
X0000366760Y0002421822D01*
X0000370134Y0002419947D01*
X0000371822Y0002416197D01*
X0000371822Y0002395575D01*
X0000383633Y0002421822D02*
X0000397131Y0002421822D01*
X0000388695Y0002434945D02*
X0000388695Y0002401199D01*
X0000390382Y0002397450D01*
X0000393757Y0002395575D01*
X0000397131Y0002395575D01*
X0000408942Y0002395575D02*
X0000408942Y0002421822D01*
X0000408942Y0002434945D02*
X0000407255Y0002433070D01*
X0000408942Y0002431196D01*
X0000410629Y0002433070D01*
X0000408942Y0002434945D01*
X0000408942Y0002431196D01*
X0000425815Y0002421822D02*
X0000425815Y0002395575D01*
X0000425815Y0002418072D02*
X0000427502Y0002419947D01*
X0000430877Y0002421822D01*
X0000435939Y0002421822D01*
X0000439312Y0002419947D01*
X0000441000Y0002416197D01*
X0000441000Y0002395575D01*
X0000473059Y0002421822D02*
X0000473059Y0002395575D01*
X0000457874Y0002421822D02*
X0000457874Y0002401199D01*
X0000459561Y0002397450D01*
X0000462935Y0002395575D01*
X0000467997Y0002395575D01*
X0000471372Y0002397450D01*
X0000473059Y0002399325D01*
X0000494994Y0002395575D02*
X0000491619Y0002397450D01*
X0000489932Y0002399325D01*
X0000488245Y0002403074D01*
X0000488245Y0002414323D01*
X0000489932Y0002418072D01*
X0000491619Y0002419947D01*
X0000494994Y0002421822D01*
X0000500055Y0002421822D01*
X0000503430Y0002419947D01*
X0000505117Y0002418072D01*
X0000506804Y0002414323D01*
X0000506804Y0002403074D01*
X0000505117Y0002399325D01*
X0000503430Y0002397450D01*
X0000500055Y0002395575D01*
X0000494994Y0002395575D01*
X0000537176Y0002421822D02*
X0000537176Y0002395575D01*
X0000521989Y0002421822D02*
X0000521989Y0002401199D01*
X0000523678Y0002397450D01*
X0000527052Y0002395575D01*
X0000532114Y0002395575D01*
X0000535489Y0002397450D01*
X0000537176Y0002399325D01*
X0000552362Y0002397450D02*
X0000555736Y0002395575D01*
X0000562485Y0002395575D01*
X0000565860Y0002397450D01*
X0000567547Y0002401199D01*
X0000567547Y0002403074D01*
X0000565860Y0002406824D01*
X0000562485Y0002408698D01*
X0000557424Y0002408698D01*
X0000554049Y0002410573D01*
X0000552362Y0002414323D01*
X0000552362Y0002416197D01*
X0000554049Y0002419947D01*
X0000557424Y0002421822D01*
X0000562485Y0002421822D01*
X0000565860Y0002419947D01*
X0000604668Y0002421822D02*
X0000618166Y0002421822D01*
X0000609729Y0002395575D02*
X0000609729Y0002429321D01*
X0000611417Y0002433070D01*
X0000614791Y0002434945D01*
X0000618166Y0002434945D01*
X0000629977Y0002395575D02*
X0000629977Y0002421822D01*
X0000629977Y0002414323D02*
X0000631664Y0002418072D01*
X0000633352Y0002419947D01*
X0000636726Y0002421822D01*
X0000640100Y0002421822D01*
X0000665410Y0002397450D02*
X0000662035Y0002395575D01*
X0000655286Y0002395575D01*
X0000651912Y0002397450D01*
X0000650223Y0002401199D01*
X0000650223Y0002416197D01*
X0000651912Y0002419947D01*
X0000655286Y0002421822D01*
X0000662035Y0002421822D01*
X0000665410Y0002419947D01*
X0000667097Y0002416197D01*
X0000667097Y0002412448D01*
X0000650223Y0002408698D01*
X0000697469Y0002421822D02*
X0000697469Y0002382452D01*
X0000697469Y0002397450D02*
X0000694094Y0002395575D01*
X0000687345Y0002395575D01*
X0000683970Y0002397450D01*
X0000682283Y0002399325D01*
X0000680596Y0002403074D01*
X0000680596Y0002414323D01*
X0000682283Y0002418072D01*
X0000683970Y0002419947D01*
X0000687345Y0002421822D01*
X0000694094Y0002421822D01*
X0000697469Y0002419947D01*
X0000729527Y0002421822D02*
X0000729527Y0002395575D01*
X0000714341Y0002421822D02*
X0000714341Y0002401199D01*
X0000716029Y0002397450D01*
X0000719403Y0002395575D01*
X0000724465Y0002395575D01*
X0000727840Y0002397450D01*
X0000729527Y0002399325D01*
X0000759898Y0002397450D02*
X0000756523Y0002395575D01*
X0000749775Y0002395575D01*
X0000746400Y0002397450D01*
X0000744713Y0002401199D01*
X0000744713Y0002416197D01*
X0000746400Y0002419947D01*
X0000749775Y0002421822D01*
X0000756523Y0002421822D01*
X0000759898Y0002419947D01*
X0000761586Y0002416197D01*
X0000761586Y0002412448D01*
X0000744713Y0002408698D01*
X0000776771Y0002421822D02*
X0000776771Y0002395575D01*
X0000776771Y0002418072D02*
X0000778458Y0002419947D01*
X0000781832Y0002421822D01*
X0000786895Y0002421822D01*
X0000790269Y0002419947D01*
X0000791957Y0002416197D01*
X0000791957Y0002395575D01*
X0000824015Y0002397450D02*
X0000820641Y0002395575D01*
X0000813892Y0002395575D01*
X0000810517Y0002397450D01*
X0000808830Y0002399325D01*
X0000807141Y0002403074D01*
X0000807141Y0002414323D01*
X0000808830Y0002418072D01*
X0000810517Y0002419947D01*
X0000813892Y0002421822D01*
X0000820641Y0002421822D01*
X0000824015Y0002419947D01*
X0000835826Y0002421822D02*
X0000844263Y0002395575D01*
X0000852699Y0002421822D02*
X0000844263Y0002395575D01*
X0000840888Y0002386201D01*
X0000839201Y0002384326D01*
X0000835826Y0002382452D01*
X0000893194Y0002395575D02*
X0000893194Y0002421822D01*
X0000893194Y0002414323D02*
X0000894881Y0002418072D01*
X0000896569Y0002419947D01*
X0000899942Y0002421822D01*
X0000903318Y0002421822D01*
X0000930314Y0002395575D02*
X0000930314Y0002416197D01*
X0000928627Y0002419947D01*
X0000925253Y0002421822D01*
X0000918503Y0002421822D01*
X0000915129Y0002419947D01*
X0000930314Y0002397450D02*
X0000926940Y0002395575D01*
X0000918503Y0002395575D01*
X0000915129Y0002397450D01*
X0000913441Y0002401199D01*
X0000913441Y0002404949D01*
X0000915129Y0002408698D01*
X0000918503Y0002410573D01*
X0000926940Y0002410573D01*
X0000930314Y0002412448D01*
X0000947187Y0002421822D02*
X0000947187Y0002395575D01*
X0000947187Y0002418072D02*
X0000948875Y0002419947D01*
X0000952249Y0002421822D01*
X0000957311Y0002421822D01*
X0000960686Y0002419947D01*
X0000962373Y0002416197D01*
X0000962373Y0002395575D01*
X0000994431Y0002421822D02*
X0000994431Y0002389951D01*
X0000992744Y0002386201D01*
X0000991056Y0002384326D01*
X0000987682Y0002382452D01*
X0000982620Y0002382452D01*
X0000979246Y0002384326D01*
X0000994431Y0002397450D02*
X0000991056Y0002395575D01*
X0000984308Y0002395575D01*
X0000980933Y0002397450D01*
X0000979246Y0002399325D01*
X0000977559Y0002403074D01*
X0000977559Y0002414323D01*
X0000979246Y0002418072D01*
X0000980933Y0002419947D01*
X0000984308Y0002421822D01*
X0000991056Y0002421822D01*
X0000994431Y0002419947D01*
X0001024802Y0002397450D02*
X0001021428Y0002395575D01*
X0001014679Y0002395575D01*
X0001011304Y0002397450D01*
X0001009617Y0002401199D01*
X0001009617Y0002416197D01*
X0001011304Y0002419947D01*
X0001014679Y0002421822D01*
X0001021428Y0002421822D01*
X0001024802Y0002419947D01*
X0001026489Y0002416197D01*
X0001026489Y0002412448D01*
X0001009617Y0002408698D01*
X0001041676Y0002399325D02*
X0001043363Y0002397450D01*
X0001041676Y0002395575D01*
X0001039987Y0002397450D01*
X0001041676Y0002399325D01*
X0001041676Y0002395575D01*
X0001041676Y0002419947D02*
X0001043363Y0002418072D01*
X0001041676Y0002416197D01*
X0001039987Y0002418072D01*
X0001041676Y0002419947D01*
X0001041676Y0002416197D01*
X0001104105Y0002395575D02*
X0001083858Y0002395575D01*
X0001093981Y0002395575D02*
X0001093981Y0002434945D01*
X0001090607Y0002429321D01*
X0001087232Y0002425571D01*
X0001083858Y0002423697D01*
X0001126040Y0002434945D02*
X0001129415Y0002434945D01*
X0001132789Y0002433070D01*
X0001134476Y0002431196D01*
X0001136164Y0002427446D01*
X0001137851Y0002419947D01*
X0001137851Y0002410573D01*
X0001136164Y0002403074D01*
X0001134476Y0002399325D01*
X0001132789Y0002397450D01*
X0001129415Y0002395575D01*
X0001126040Y0002395575D01*
X0001122665Y0002397450D01*
X0001120978Y0002399325D01*
X0001119291Y0002403074D01*
X0001117604Y0002410573D01*
X0001117604Y0002419947D01*
X0001119291Y0002427446D01*
X0001120978Y0002431196D01*
X0001122665Y0002433070D01*
X0001126040Y0002434945D01*
X0001159786Y0002434945D02*
X0001163160Y0002434945D01*
X0001166535Y0002433070D01*
X0001168222Y0002431196D01*
X0001169910Y0002427446D01*
X0001171597Y0002419947D01*
X0001171597Y0002410573D01*
X0001169910Y0002403074D01*
X0001168222Y0002399325D01*
X0001166535Y0002397450D01*
X0001163160Y0002395575D01*
X0001159786Y0002395575D01*
X0001156411Y0002397450D01*
X0001154724Y0002399325D01*
X0001153037Y0002403074D01*
X0001151349Y0002410573D01*
X0001151349Y0002419947D01*
X0001153037Y0002427446D01*
X0001154724Y0002431196D01*
X0001156411Y0002433070D01*
X0001159786Y0002434945D01*
X0001213779Y0002395575D02*
X0001213779Y0002434945D01*
X0001217154Y0002410573D02*
X0001227277Y0002395575D01*
X0001227277Y0002421822D02*
X0001213779Y0002406824D01*
X0001242463Y0002395575D02*
X0001242463Y0002434945D01*
X0001242463Y0002416197D02*
X0001262710Y0002416197D01*
X0001262710Y0002395575D02*
X0001262710Y0002434945D01*
X0001276209Y0002421822D02*
X0001294769Y0002421822D01*
X0001276209Y0002395575D01*
X0001294769Y0002395575D01*
X0001343700Y0002408698D02*
X0001330202Y0002408698D01*
X0001379133Y0002434945D02*
X0001401068Y0002434945D01*
X0001389257Y0002419947D01*
X0001394319Y0002419947D01*
X0001397694Y0002418072D01*
X0001399381Y0002416197D01*
X0001401068Y0002412448D01*
X0001401068Y0002403074D01*
X0001399381Y0002399325D01*
X0001397694Y0002397450D01*
X0001394319Y0002395575D01*
X0001384195Y0002395575D01*
X0001380821Y0002397450D01*
X0001379133Y0002399325D01*
X0001416254Y0002399325D02*
X0001417941Y0002397450D01*
X0001416254Y0002395575D01*
X0001414566Y0002397450D01*
X0001416254Y0002399325D01*
X0001416254Y0002395575D01*
X0001438186Y0002418072D02*
X0001434814Y0002419947D01*
X0001433127Y0002421822D01*
X0001431439Y0002425571D01*
X0001431439Y0002427446D01*
X0001433127Y0002431196D01*
X0001434814Y0002433070D01*
X0001438186Y0002434945D01*
X0001444938Y0002434945D01*
X0001448312Y0002433070D01*
X0001450000Y0002431196D01*
X0001451687Y0002427446D01*
X0001451687Y0002425571D01*
X0001450000Y0002421822D01*
X0001448312Y0002419947D01*
X0001444938Y0002418072D01*
X0001438186Y0002418072D01*
X0001434814Y0002416197D01*
X0001433127Y0002414323D01*
X0001431439Y0002410573D01*
X0001431439Y0002403074D01*
X0001433127Y0002399325D01*
X0001434814Y0002397450D01*
X0001438186Y0002395575D01*
X0001444938Y0002395575D01*
X0001448312Y0002397450D01*
X0001450000Y0002399325D01*
X0001451687Y0002403074D01*
X0001451687Y0002410573D01*
X0001450000Y0002414323D01*
X0001448312Y0002416197D01*
X0001444938Y0002418072D01*
X0001512429Y0002433070D02*
X0001509055Y0002434945D01*
X0001503993Y0002434945D01*
X0001498931Y0002433070D01*
X0001495556Y0002429321D01*
X0001493869Y0002425571D01*
X0001492181Y0002418072D01*
X0001492181Y0002412448D01*
X0001493869Y0002404949D01*
X0001495556Y0002401199D01*
X0001498931Y0002397450D01*
X0001503993Y0002395575D01*
X0001507367Y0002395575D01*
X0001512429Y0002397450D01*
X0001514116Y0002399325D01*
X0001514116Y0002412448D01*
X0001507367Y0002412448D01*
X0001529302Y0002395575D02*
X0001529302Y0002434945D01*
X0001529302Y0002416197D02*
X0001549550Y0002416197D01*
X0001549550Y0002395575D02*
X0001549550Y0002434945D01*
X0001563048Y0002421822D02*
X0001581608Y0002421822D01*
X0001563048Y0002395575D01*
X0001581608Y0002395575D01*
X0000300956Y0002349268D02*
X0000306017Y0002347394D01*
X0000307705Y0002345519D01*
X0000309392Y0002341769D01*
X0000309392Y0002336145D01*
X0000307705Y0002332395D01*
X0000306017Y0002330521D01*
X0000302643Y0002328646D01*
X0000289145Y0002328646D01*
X0000289145Y0002368016D01*
X0000300956Y0002368016D01*
X0000304330Y0002366141D01*
X0000306017Y0002364266D01*
X0000307705Y0002360517D01*
X0000307705Y0002356767D01*
X0000306017Y0002353018D01*
X0000304330Y0002351143D01*
X0000300956Y0002349268D01*
X0000289145Y0002349268D01*
X0000339763Y0002328646D02*
X0000339763Y0002349268D01*
X0000338076Y0002353018D01*
X0000334700Y0002354893D01*
X0000327952Y0002354893D01*
X0000324578Y0002353018D01*
X0000339763Y0002330521D02*
X0000336389Y0002328646D01*
X0000327952Y0002328646D01*
X0000324578Y0002330521D01*
X0000322890Y0002334270D01*
X0000322890Y0002338020D01*
X0000324578Y0002341769D01*
X0000327952Y0002343644D01*
X0000336389Y0002343644D01*
X0000339763Y0002345519D01*
X0000356636Y0002354893D02*
X0000356636Y0002328646D01*
X0000356636Y0002351143D02*
X0000358323Y0002353018D01*
X0000361698Y0002354893D01*
X0000366760Y0002354893D01*
X0000370134Y0002353018D01*
X0000371822Y0002349268D01*
X0000371822Y0002328646D01*
X0000403880Y0002328646D02*
X0000403880Y0002368016D01*
X0000403880Y0002330521D02*
X0000400506Y0002328646D01*
X0000393757Y0002328646D01*
X0000390382Y0002330521D01*
X0000388695Y0002332395D01*
X0000387007Y0002336145D01*
X0000387007Y0002347394D01*
X0000388695Y0002351143D01*
X0000390382Y0002353018D01*
X0000393757Y0002354893D01*
X0000400506Y0002354893D01*
X0000403880Y0002353018D01*
X0000417379Y0002354893D02*
X0000424128Y0002328646D01*
X0000430877Y0002347394D01*
X0000437626Y0002328646D01*
X0000444375Y0002354893D01*
X0000457874Y0002328646D02*
X0000457874Y0002354893D01*
X0000457874Y0002368016D02*
X0000456186Y0002366141D01*
X0000457874Y0002364266D01*
X0000459561Y0002366141D01*
X0000457874Y0002368016D01*
X0000457874Y0002364266D01*
X0000489932Y0002328646D02*
X0000489932Y0002368016D01*
X0000489932Y0002330521D02*
X0000486557Y0002328646D01*
X0000479808Y0002328646D01*
X0000476434Y0002330521D01*
X0000474746Y0002332395D01*
X0000473059Y0002336145D01*
X0000473059Y0002347394D01*
X0000474746Y0002351143D01*
X0000476434Y0002353018D01*
X0000479808Y0002354893D01*
X0000486557Y0002354893D01*
X0000489932Y0002353018D01*
X0000501743Y0002354893D02*
X0000515240Y0002354893D01*
X0000506804Y0002368016D02*
X0000506804Y0002334270D01*
X0000508492Y0002330521D01*
X0000511866Y0002328646D01*
X0000515240Y0002328646D01*
X0000527052Y0002328646D02*
X0000527052Y0002368016D01*
X0000542238Y0002328646D02*
X0000542238Y0002349268D01*
X0000540551Y0002353018D01*
X0000537176Y0002354893D01*
X0000532114Y0002354893D01*
X0000528740Y0002353018D01*
X0000527052Y0002351143D01*
X0000559111Y0002332395D02*
X0000560798Y0002330521D01*
X0000559111Y0002328646D01*
X0000557424Y0002330521D01*
X0000559111Y0002332395D01*
X0000559111Y0002328646D01*
X0000559111Y0002353018D02*
X0000560798Y0002351143D01*
X0000559111Y0002349268D01*
X0000557424Y0002351143D01*
X0000559111Y0002353018D01*
X0000559111Y0002349268D01*
X0000618166Y0002368016D02*
X0000611417Y0002368016D01*
X0000608042Y0002366141D01*
X0000606355Y0002364266D01*
X0000602980Y0002358642D01*
X0000601293Y0002351143D01*
X0000601293Y0002336145D01*
X0000602980Y0002332395D01*
X0000604668Y0002330521D01*
X0000608042Y0002328646D01*
X0000614791Y0002328646D01*
X0000618166Y0002330521D01*
X0000619853Y0002332395D01*
X0000621541Y0002336145D01*
X0000621541Y0002345519D01*
X0000619853Y0002349268D01*
X0000618166Y0002351143D01*
X0000614791Y0002353018D01*
X0000608042Y0002353018D01*
X0000604668Y0002351143D01*
X0000602980Y0002349268D01*
X0000601293Y0002345519D01*
X0000655286Y0002328646D02*
X0000635039Y0002328646D01*
X0000645163Y0002328646D02*
X0000645163Y0002368016D01*
X0000641788Y0002362392D01*
X0000638413Y0002358642D01*
X0000635039Y0002356767D01*
X0000670472Y0002332395D02*
X0000672159Y0002330521D01*
X0000670472Y0002328646D01*
X0000668785Y0002330521D01*
X0000670472Y0002332395D01*
X0000670472Y0002328646D01*
X0000702529Y0002354893D02*
X0000702529Y0002328646D01*
X0000694094Y0002369891D02*
X0000685658Y0002341769D01*
X0000707592Y0002341769D01*
X0000736276Y0002354893D02*
X0000736276Y0002328646D01*
X0000727840Y0002369891D02*
X0000719403Y0002341769D01*
X0000741338Y0002341769D01*
X0000781832Y0002328646D02*
X0000781832Y0002368016D01*
X0000793644Y0002339895D01*
X0000805455Y0002368016D01*
X0000805455Y0002328646D01*
X0000822328Y0002328646D02*
X0000822328Y0002368016D01*
X0000822328Y0002349268D02*
X0000842575Y0002349268D01*
X0000842575Y0002328646D02*
X0000842575Y0002368016D01*
X0000856074Y0002354893D02*
X0000874633Y0002354893D01*
X0000856074Y0002328646D01*
X0000874633Y0002328646D01*
X0000289145Y0002261717D02*
X0000289145Y0002301087D01*
X0000302643Y0002301087D01*
X0000306017Y0002299212D01*
X0000307705Y0002297337D01*
X0000309392Y0002293588D01*
X0000309392Y0002287964D01*
X0000307705Y0002284214D01*
X0000306017Y0002282339D01*
X0000302643Y0002280464D01*
X0000289145Y0002280464D01*
X0000329640Y0002261717D02*
X0000326265Y0002263592D01*
X0000324578Y0002265466D01*
X0000322890Y0002269216D01*
X0000322890Y0002280464D01*
X0000324578Y0002284214D01*
X0000326265Y0002286089D01*
X0000329640Y0002287964D01*
X0000334700Y0002287964D01*
X0000338076Y0002286089D01*
X0000339763Y0002284214D01*
X0000341451Y0002280464D01*
X0000341451Y0002269216D01*
X0000339763Y0002265466D01*
X0000338076Y0002263592D01*
X0000334700Y0002261717D01*
X0000329640Y0002261717D01*
X0000353262Y0002287964D02*
X0000360011Y0002261717D01*
X0000366760Y0002280464D01*
X0000373509Y0002261717D01*
X0000380257Y0002287964D01*
X0000407255Y0002263592D02*
X0000403880Y0002261717D01*
X0000397131Y0002261717D01*
X0000393757Y0002263592D01*
X0000392069Y0002267341D01*
X0000392069Y0002282339D01*
X0000393757Y0002286089D01*
X0000397131Y0002287964D01*
X0000403880Y0002287964D01*
X0000407255Y0002286089D01*
X0000408942Y0002282339D01*
X0000408942Y0002278590D01*
X0000392069Y0002274840D01*
X0000424128Y0002261717D02*
X0000424128Y0002287964D01*
X0000424128Y0002280464D02*
X0000425815Y0002284214D01*
X0000427502Y0002286089D01*
X0000430877Y0002287964D01*
X0000434251Y0002287964D01*
X0000479808Y0002301087D02*
X0000486557Y0002301087D01*
X0000489932Y0002299212D01*
X0000493307Y0002295463D01*
X0000494994Y0002287964D01*
X0000494994Y0002274840D01*
X0000493307Y0002267341D01*
X0000489932Y0002263592D01*
X0000486557Y0002261717D01*
X0000479808Y0002261717D01*
X0000476434Y0002263592D01*
X0000473059Y0002267341D01*
X0000471372Y0002274840D01*
X0000471372Y0002287964D01*
X0000473059Y0002295463D01*
X0000476434Y0002299212D01*
X0000479808Y0002301087D01*
X0000525365Y0002287964D02*
X0000525365Y0002261717D01*
X0000510179Y0002287964D02*
X0000510179Y0002267341D01*
X0000511866Y0002263592D01*
X0000515240Y0002261717D01*
X0000520302Y0002261717D01*
X0000523678Y0002263592D01*
X0000525365Y0002265466D01*
X0000537176Y0002287964D02*
X0000550674Y0002287964D01*
X0000542238Y0002301087D02*
X0000542238Y0002267341D01*
X0000543925Y0002263592D01*
X0000547300Y0002261717D01*
X0000550674Y0002261717D01*
X0000562485Y0002287964D02*
X0000562485Y0002248593D01*
X0000562485Y0002286089D02*
X0000565860Y0002287964D01*
X0000572609Y0002287964D01*
X0000575984Y0002286089D01*
X0000577671Y0002284214D01*
X0000579358Y0002280464D01*
X0000579358Y0002269216D01*
X0000577671Y0002265466D01*
X0000575984Y0002263592D01*
X0000572609Y0002261717D01*
X0000565860Y0002261717D01*
X0000562485Y0002263592D01*
X0000609729Y0002287964D02*
X0000609729Y0002261717D01*
X0000594544Y0002287964D02*
X0000594544Y0002267341D01*
X0000596231Y0002263592D01*
X0000599606Y0002261717D01*
X0000604668Y0002261717D01*
X0000608042Y0002263592D01*
X0000609729Y0002265466D01*
X0000621541Y0002287964D02*
X0000635039Y0002287964D01*
X0000626602Y0002301087D02*
X0000626602Y0002267341D01*
X0000628290Y0002263592D01*
X0000631664Y0002261717D01*
X0000635039Y0002261717D01*
X0000683970Y0002246719D02*
X0000682283Y0002248593D01*
X0000678908Y0002254218D01*
X0000677220Y0002257967D01*
X0000675534Y0002263592D01*
X0000673847Y0002272965D01*
X0000673847Y0002280464D01*
X0000675534Y0002289838D01*
X0000677220Y0002295463D01*
X0000678908Y0002299212D01*
X0000682283Y0002304836D01*
X0000683970Y0002306711D01*
X0000717715Y0002265466D02*
X0000716029Y0002263592D01*
X0000710967Y0002261717D01*
X0000707592Y0002261717D01*
X0000702529Y0002263592D01*
X0000699156Y0002267341D01*
X0000697469Y0002271091D01*
X0000695781Y0002278590D01*
X0000695781Y0002284214D01*
X0000697469Y0002291713D01*
X0000699156Y0002295463D01*
X0000702529Y0002299212D01*
X0000707592Y0002301087D01*
X0000710967Y0002301087D01*
X0000716029Y0002299212D01*
X0000717715Y0002297337D01*
X0000729527Y0002301087D02*
X0000737963Y0002261717D01*
X0000744713Y0002289838D01*
X0000751462Y0002261717D01*
X0000759898Y0002301087D01*
X0000770022Y0002246719D02*
X0000771709Y0002248593D01*
X0000775084Y0002254218D01*
X0000776771Y0002257967D01*
X0000778458Y0002263592D01*
X0000780146Y0002272965D01*
X0000780146Y0002280464D01*
X0000778458Y0002289838D01*
X0000776771Y0002295463D01*
X0000775084Y0002299212D01*
X0000771709Y0002304836D01*
X0000770022Y0002306711D01*
X0000797018Y0002265466D02*
X0000798706Y0002263592D01*
X0000797018Y0002261717D01*
X0000795331Y0002263592D01*
X0000797018Y0002265466D01*
X0000797018Y0002261717D01*
X0000797018Y0002286089D02*
X0000798706Y0002284214D01*
X0000797018Y0002282339D01*
X0000795331Y0002284214D01*
X0000797018Y0002286089D01*
X0000797018Y0002282339D01*
X0000856074Y0002287964D02*
X0000856074Y0002261717D01*
X0000840888Y0002287964D02*
X0000840888Y0002267341D01*
X0000842575Y0002263592D01*
X0000845950Y0002261717D01*
X0000851012Y0002261717D01*
X0000854386Y0002263592D01*
X0000856074Y0002265466D01*
X0000872947Y0002287964D02*
X0000872947Y0002248593D01*
X0000872947Y0002286089D02*
X0000876321Y0002287964D01*
X0000883070Y0002287964D01*
X0000886445Y0002286089D01*
X0000888132Y0002284214D01*
X0000889820Y0002280464D01*
X0000889820Y0002269216D01*
X0000888132Y0002265466D01*
X0000886445Y0002263592D01*
X0000883070Y0002261717D01*
X0000876321Y0002261717D01*
X0000872947Y0002263592D01*
X0000926940Y0002287964D02*
X0000940438Y0002287964D01*
X0000932002Y0002301087D02*
X0000932002Y0002267341D01*
X0000933689Y0002263592D01*
X0000937064Y0002261717D01*
X0000940438Y0002261717D01*
X0000957311Y0002261717D02*
X0000953936Y0002263592D01*
X0000952249Y0002265466D01*
X0000950562Y0002269216D01*
X0000950562Y0002280464D01*
X0000952249Y0002284214D01*
X0000953936Y0002286089D01*
X0000957311Y0002287964D01*
X0000962373Y0002287964D01*
X0000965748Y0002286089D01*
X0000967435Y0002284214D01*
X0000969122Y0002280464D01*
X0000969122Y0002269216D01*
X0000967435Y0002265466D01*
X0000965748Y0002263592D01*
X0000962373Y0002261717D01*
X0000957311Y0002261717D01*
X0001029865Y0002261717D02*
X0001009617Y0002261717D01*
X0001019741Y0002261717D02*
X0001019741Y0002301087D01*
X0001016366Y0002295463D01*
X0001012991Y0002291713D01*
X0001009617Y0002289838D01*
X0001051799Y0002301087D02*
X0001055174Y0002301087D01*
X0001058548Y0002299212D01*
X0001060236Y0002297337D01*
X0001061923Y0002293588D01*
X0001063610Y0002286089D01*
X0001063610Y0002276715D01*
X0001061923Y0002269216D01*
X0001060236Y0002265466D01*
X0001058548Y0002263592D01*
X0001055174Y0002261717D01*
X0001051799Y0002261717D01*
X0001048424Y0002263592D01*
X0001046737Y0002265466D01*
X0001045050Y0002269216D01*
X0001043363Y0002276715D01*
X0001043363Y0002286089D01*
X0001045050Y0002293588D01*
X0001046737Y0002297337D01*
X0001048424Y0002299212D01*
X0001051799Y0002301087D01*
X0001120978Y0002261717D02*
X0001120978Y0002301087D01*
X0001120978Y0002263592D02*
X0001117604Y0002261717D01*
X0001110854Y0002261717D01*
X0001107480Y0002263592D01*
X0001105792Y0002265466D01*
X0001104105Y0002269216D01*
X0001104105Y0002280464D01*
X0001105792Y0002284214D01*
X0001107480Y0002286089D01*
X0001110854Y0002287964D01*
X0001117604Y0002287964D01*
X0001120978Y0002286089D01*
X0001149662Y0002282339D02*
X0001154724Y0002280464D01*
X0001156411Y0002278590D01*
X0001158098Y0002274840D01*
X0001158098Y0002269216D01*
X0001156411Y0002265466D01*
X0001154724Y0002263592D01*
X0001151349Y0002261717D01*
X0001137851Y0002261717D01*
X0001137851Y0002301087D01*
X0001149662Y0002301087D01*
X0001153037Y0002299212D01*
X0001154724Y0002297337D01*
X0001156411Y0002293588D01*
X0001156411Y0002289838D01*
X0001154724Y0002286089D01*
X0001153037Y0002284214D01*
X0001149662Y0002282339D01*
X0001137851Y0002282339D01*
X0001173284Y0002261717D02*
X0001173284Y0002287964D01*
X0001173284Y0002284214D02*
X0001174971Y0002286089D01*
X0001178346Y0002287964D01*
X0001183408Y0002287964D01*
X0001186782Y0002286089D01*
X0001188470Y0002282339D01*
X0001188470Y0002261717D01*
X0001188470Y0002282339D02*
X0001190157Y0002286089D01*
X0001193532Y0002287964D01*
X0001198593Y0002287964D01*
X0001201968Y0002286089D01*
X0001203655Y0002282339D01*
X0001203655Y0002261717D01*
X0000289145Y0002194788D02*
X0000289145Y0002234158D01*
X0000300956Y0002206036D01*
X0000312767Y0002234158D01*
X0000312767Y0002194788D01*
X0000344825Y0002221034D02*
X0000344825Y0002194788D01*
X0000329640Y0002221034D02*
X0000329640Y0002200412D01*
X0000331327Y0002196662D01*
X0000334700Y0002194788D01*
X0000339763Y0002194788D01*
X0000343137Y0002196662D01*
X0000344825Y0002198537D01*
X0000366760Y0002194788D02*
X0000363385Y0002196662D01*
X0000361698Y0002200412D01*
X0000361698Y0002234158D01*
X0000375196Y0002221034D02*
X0000388695Y0002221034D01*
X0000380257Y0002234158D02*
X0000380257Y0002200412D01*
X0000381945Y0002196662D01*
X0000385320Y0002194788D01*
X0000388695Y0002194788D01*
X0000400506Y0002194788D02*
X0000400506Y0002221034D01*
X0000400506Y0002234158D02*
X0000398818Y0002232283D01*
X0000400506Y0002230408D01*
X0000402193Y0002232283D01*
X0000400506Y0002234158D01*
X0000400506Y0002230408D01*
X0000417379Y0002221034D02*
X0000417379Y0002181664D01*
X0000417379Y0002219160D02*
X0000420753Y0002221034D01*
X0000427502Y0002221034D01*
X0000430877Y0002219160D01*
X0000432564Y0002217285D01*
X0000434251Y0002213535D01*
X0000434251Y0002202287D01*
X0000432564Y0002198537D01*
X0000430877Y0002196662D01*
X0000427502Y0002194788D01*
X0000420753Y0002194788D01*
X0000417379Y0002196662D01*
X0000454499Y0002194788D02*
X0000451124Y0002196662D01*
X0000449437Y0002200412D01*
X0000449437Y0002234158D01*
X0000481496Y0002196662D02*
X0000478121Y0002194788D01*
X0000471372Y0002194788D01*
X0000467997Y0002196662D01*
X0000466309Y0002200412D01*
X0000466309Y0002215410D01*
X0000467997Y0002219160D01*
X0000471372Y0002221034D01*
X0000478121Y0002221034D01*
X0000481496Y0002219160D01*
X0000483183Y0002215410D01*
X0000483183Y0002211661D01*
X0000466309Y0002207911D01*
X0000494994Y0002194788D02*
X0000513553Y0002221034D01*
X0000494994Y0002221034D02*
X0000513553Y0002194788D01*
X0000527052Y0002194788D02*
X0000527052Y0002221034D01*
X0000527052Y0002234158D02*
X0000525365Y0002232283D01*
X0000527052Y0002230408D01*
X0000528740Y0002232283D01*
X0000527052Y0002234158D01*
X0000527052Y0002230408D01*
X0000543925Y0002221034D02*
X0000543925Y0002194788D01*
X0000543925Y0002217285D02*
X0000545613Y0002219160D01*
X0000548987Y0002221034D01*
X0000554049Y0002221034D01*
X0000557424Y0002219160D01*
X0000559111Y0002215410D01*
X0000559111Y0002194788D01*
X0000591169Y0002221034D02*
X0000591169Y0002189163D01*
X0000589482Y0002185414D01*
X0000587795Y0002183539D01*
X0000584420Y0002181664D01*
X0000579358Y0002181664D01*
X0000575984Y0002183539D01*
X0000591169Y0002196662D02*
X0000587795Y0002194788D01*
X0000581046Y0002194788D01*
X0000577671Y0002196662D01*
X0000575984Y0002198537D01*
X0000574296Y0002202287D01*
X0000574296Y0002213535D01*
X0000575984Y0002217285D01*
X0000577671Y0002219160D01*
X0000581046Y0002221034D01*
X0000587795Y0002221034D01*
X0000591169Y0002219160D01*
X0000608042Y0002198537D02*
X0000609729Y0002196662D01*
X0000608042Y0002194788D01*
X0000606355Y0002196662D01*
X0000608042Y0002198537D01*
X0000608042Y0002194788D01*
X0000608042Y0002219160D02*
X0000609729Y0002217285D01*
X0000608042Y0002215410D01*
X0000606355Y0002217285D01*
X0000608042Y0002219160D01*
X0000608042Y0002215410D01*
X0000650223Y0002230408D02*
X0000651912Y0002232283D01*
X0000655286Y0002234158D01*
X0000663723Y0002234158D01*
X0000667097Y0002232283D01*
X0000668785Y0002230408D01*
X0000670472Y0002226659D01*
X0000670472Y0002222909D01*
X0000668785Y0002217285D01*
X0000648537Y0002194788D01*
X0000670472Y0002194788D01*
X0000682283Y0002194788D02*
X0000700843Y0002221034D01*
X0000682283Y0002221034D02*
X0000700843Y0002194788D01*
X0000712654Y0002230408D02*
X0000714341Y0002232283D01*
X0000717715Y0002234158D01*
X0000726152Y0002234158D01*
X0000729527Y0002232283D01*
X0000731214Y0002230408D01*
X0000732902Y0002226659D01*
X0000732902Y0002222909D01*
X0000731214Y0002217285D01*
X0000710967Y0002194788D01*
X0000732902Y0002194788D01*
X0000775084Y0002194788D02*
X0000775084Y0002234158D01*
X0000786895Y0002206036D01*
X0000798706Y0002234158D01*
X0000798706Y0002194788D01*
X0000815579Y0002194788D02*
X0000815579Y0002234158D01*
X0000832452Y0002194788D02*
X0000832452Y0002234158D01*
X0000844263Y0002206036D01*
X0000856074Y0002234158D01*
X0000856074Y0002194788D01*
X0000879696Y0002234158D02*
X0000886445Y0002234158D01*
X0000889820Y0002232283D01*
X0000893194Y0002228533D01*
X0000894881Y0002221034D01*
X0000894881Y0002207911D01*
X0000893194Y0002200412D01*
X0000889820Y0002196662D01*
X0000886445Y0002194788D01*
X0000879696Y0002194788D01*
X0000876321Y0002196662D01*
X0000872947Y0002200412D01*
X0000871259Y0002207911D01*
X0000871259Y0002221034D01*
X0000872947Y0002228533D01*
X0000876321Y0002232283D01*
X0000879696Y0002234158D01*
D29*
X0002428876Y0001592875D02*
X0002425126Y0001594750D01*
X0002423251Y0001596625D01*
X0002421377Y0001600374D01*
X0002421377Y0001602248D01*
X0002423251Y0001605999D01*
X0002425126Y0001607874D01*
X0002428876Y0001609748D01*
X0002436375Y0001609748D01*
X0002440124Y0001607874D01*
X0002441999Y0001605999D01*
X0002443874Y0001602248D01*
X0002443874Y0001600374D01*
X0002441999Y0001596625D01*
X0002440124Y0001594750D01*
X0002436375Y0001592875D01*
X0002428876Y0001592875D01*
X0002425126Y0001591001D01*
X0002423251Y0001589125D01*
X0002421377Y0001585376D01*
X0002421377Y0001577877D01*
X0002423251Y0001574128D01*
X0002425126Y0001572253D01*
X0002428876Y0001570378D01*
X0002436375Y0001570378D01*
X0002440124Y0001572253D01*
X0002441999Y0001574128D01*
X0002443874Y0001577877D01*
X0002443874Y0001585376D01*
X0002441999Y0001589125D01*
X0002440124Y0001591001D01*
X0002436375Y0001592875D01*
X0002456997Y0001570378D02*
X0002477619Y0001596625D01*
X0002456997Y0001596625D02*
X0002477619Y0001570378D01*
X0002492618Y0001570378D02*
X0002492618Y0001609748D01*
X0002505741Y0001581627D01*
X0002518864Y0001609748D01*
X0002518864Y0001570378D01*
X0002535737Y0001605999D02*
X0002537612Y0001607874D01*
X0002541362Y0001609748D01*
X0002550735Y0001609748D01*
X0002554485Y0001607874D01*
X0002556360Y0001605999D01*
X0002558234Y0001602248D01*
X0002558234Y0001598500D01*
X0002556360Y0001592875D01*
X0002533862Y0001570378D01*
X0002558234Y0001570378D01*
X0002575107Y0001574128D02*
X0002576982Y0001572253D01*
X0002575107Y0001570378D01*
X0002573233Y0001572253D01*
X0002575107Y0001574128D01*
X0002575107Y0001570378D01*
X0002612603Y0001609748D02*
X0002593855Y0001609748D01*
X0002591980Y0001591001D01*
X0002593855Y0001592875D01*
X0002597604Y0001594750D01*
X0002606978Y0001594750D01*
X0002610728Y0001592875D01*
X0002612603Y0001591001D01*
X0002614477Y0001587251D01*
X0002614477Y0001577877D01*
X0002612603Y0001574128D01*
X0002610728Y0001572253D01*
X0002606978Y0001570378D01*
X0002597604Y0001570378D01*
X0002593855Y0001572253D01*
X0002591980Y0001574128D01*
X0002661347Y0001585376D02*
X0002691343Y0001585376D01*
X0002710090Y0001596625D02*
X0002740087Y0001585376D01*
X0002710090Y0001574128D01*
D31*
X0000243813Y0001616422D02*
X0000275309Y0001616422D01*
X0000255060Y0001569178D01*
X0000313554Y0001616422D02*
X0000304555Y0001616422D01*
X0000300056Y0001614173D01*
X0000297806Y0001611923D01*
X0000293307Y0001605174D01*
X0000291057Y0001596175D01*
X0000291057Y0001578177D01*
X0000293307Y0001573678D01*
X0000295556Y0001571428D01*
X0000300056Y0001569178D01*
X0000309055Y0001569178D01*
X0000313554Y0001571428D01*
X0000315804Y0001573678D01*
X0000318052Y0001578177D01*
X0000318052Y0001589426D01*
X0000315804Y0001593925D01*
X0000313554Y0001596175D01*
X0000309055Y0001598425D01*
X0000300056Y0001598425D01*
X0000295556Y0001596175D01*
X0000293307Y0001593925D01*
X0000291057Y0001589426D01*
X0000333802Y0001569178D02*
X0000358548Y0001600674D01*
X0000333802Y0001600674D02*
X0000358548Y0001569178D01*
X0000372047Y0001616422D02*
X0000401293Y0001616422D01*
X0000385545Y0001598425D01*
X0000392294Y0001598425D01*
X0000396794Y0001596175D01*
X0000399043Y0001593925D01*
X0000401293Y0001589426D01*
X0000401293Y0001578177D01*
X0000399043Y0001573678D01*
X0000396794Y0001571428D01*
X0000392294Y0001569178D01*
X0000378796Y0001569178D01*
X0000374296Y0001571428D01*
X0000372047Y0001573678D01*
X0000444038Y0001616422D02*
X0000421541Y0001616422D01*
X0000419291Y0001593925D01*
X0000421541Y0001596175D01*
X0000426040Y0001598425D01*
X0000437289Y0001598425D01*
X0000441788Y0001596175D01*
X0000444038Y0001593925D01*
X0000446287Y0001589426D01*
X0000446287Y0001578177D01*
X0000444038Y0001573678D01*
X0000441788Y0001571428D01*
X0000437289Y0001569178D01*
X0000426040Y0001569178D01*
X0000421541Y0001571428D01*
X0000419291Y0001573678D01*
X0000462035Y0001569178D02*
X0000486782Y0001600674D01*
X0000462035Y0001600674D02*
X0000486782Y0001569178D01*
X0000529527Y0001569178D02*
X0000502530Y0001569178D01*
X0000516028Y0001569178D02*
X0000516028Y0001616422D01*
X0000511529Y0001609673D01*
X0000507030Y0001605174D01*
X0000502530Y0001602924D01*
X0000558773Y0001616422D02*
X0000563273Y0001616422D01*
X0000567772Y0001614173D01*
X0000570022Y0001611923D01*
X0000572272Y0001607424D01*
X0000574521Y0001598425D01*
X0000574521Y0001587176D01*
X0000572272Y0001578177D01*
X0000570022Y0001573678D01*
X0000567772Y0001571428D01*
X0000563273Y0001569178D01*
X0000558773Y0001569178D01*
X0000554274Y0001571428D01*
X0000552024Y0001573678D01*
X0000549775Y0001578177D01*
X0000547525Y0001587176D01*
X0000547525Y0001598425D01*
X0000549775Y0001607424D01*
X0000552024Y0001611923D01*
X0000554274Y0001614173D01*
X0000558773Y0001616422D01*
X0000603768Y0001616422D02*
X0000608267Y0001616422D01*
X0000612767Y0001614173D01*
X0000615016Y0001611923D01*
X0000617266Y0001607424D01*
X0000619516Y0001598425D01*
X0000619516Y0001587176D01*
X0000617266Y0001578177D01*
X0000615016Y0001573678D01*
X0000612767Y0001571428D01*
X0000608267Y0001569178D01*
X0000603768Y0001569178D01*
X0000599268Y0001571428D01*
X0000597019Y0001573678D01*
X0000594769Y0001578177D01*
X0000592519Y0001587176D01*
X0000592519Y0001598425D01*
X0000594769Y0001607424D01*
X0000597019Y0001611923D01*
X0000599268Y0001614173D01*
X0000603768Y0001616422D01*
X0000673509Y0001571428D02*
X0000678008Y0001569178D01*
X0000687007Y0001569178D01*
X0000691507Y0001571428D01*
X0000693757Y0001575926D01*
X0000693757Y0001578177D01*
X0000691507Y0001582677D01*
X0000687007Y0001584926D01*
X0000680258Y0001584926D01*
X0000675759Y0001587176D01*
X0000673509Y0001591676D01*
X0000673509Y0001593925D01*
X0000675759Y0001598425D01*
X0000680258Y0001600674D01*
X0000687007Y0001600674D01*
X0000691507Y0001598425D01*
X0000714004Y0001600674D02*
X0000714004Y0001553430D01*
X0000714004Y0001598425D02*
X0000718503Y0001600674D01*
X0000727502Y0001600674D01*
X0000732002Y0001598425D01*
X0000734251Y0001596175D01*
X0000736501Y0001591676D01*
X0000736501Y0001578177D01*
X0000734251Y0001573678D01*
X0000732002Y0001571428D01*
X0000727502Y0001569178D01*
X0000718503Y0001569178D01*
X0000714004Y0001571428D01*
X0000763498Y0001569178D02*
X0000758998Y0001571428D01*
X0000756749Y0001575926D01*
X0000756749Y0001616422D01*
X0000781496Y0001569178D02*
X0000781496Y0001600674D01*
X0000781496Y0001616422D02*
X0000779246Y0001614173D01*
X0000781496Y0001611923D01*
X0000783745Y0001614173D01*
X0000781496Y0001616422D01*
X0000781496Y0001611923D01*
X0000797244Y0001600674D02*
X0000815241Y0001600674D01*
X0000803993Y0001616422D02*
X0000803993Y0001575926D01*
X0000806242Y0001571428D01*
X0000810742Y0001569178D01*
X0000815241Y0001569178D01*
X0000864734Y0001571428D02*
X0000869235Y0001569178D01*
X0000878233Y0001569178D01*
X0000882733Y0001571428D01*
X0000884983Y0001575926D01*
X0000884983Y0001578177D01*
X0000882733Y0001582677D01*
X0000878233Y0001584926D01*
X0000871484Y0001584926D01*
X0000866985Y0001587176D01*
X0000864734Y0001591676D01*
X0000864734Y0001593925D01*
X0000866985Y0001598425D01*
X0000871484Y0001600674D01*
X0000878233Y0001600674D01*
X0000882733Y0001598425D01*
X0000905230Y0001569178D02*
X0000905230Y0001616422D01*
X0000925478Y0001569178D02*
X0000925478Y0001593925D01*
X0000923228Y0001598425D01*
X0000918728Y0001600674D01*
X0000911979Y0001600674D01*
X0000907479Y0001598425D01*
X0000905230Y0001596175D01*
X0000965972Y0001571428D02*
X0000961473Y0001569178D01*
X0000952474Y0001569178D01*
X0000947975Y0001571428D01*
X0000945725Y0001575926D01*
X0000945725Y0001593925D01*
X0000947975Y0001598425D01*
X0000952474Y0001600674D01*
X0000961473Y0001600674D01*
X0000965972Y0001598425D01*
X0000968222Y0001593925D01*
X0000968222Y0001589426D01*
X0000945725Y0001584926D01*
X0000995219Y0001569178D02*
X0000990719Y0001571428D01*
X0000988470Y0001575926D01*
X0000988470Y0001616422D01*
X0001019965Y0001569178D02*
X0001015466Y0001571428D01*
X0001013217Y0001575926D01*
X0001013217Y0001616422D01*
%LPC*%
D32*
X0002628149Y0002465913D02*
X0002628149Y0002309614D01*
D33*
X0002663976Y0002387960D02*
G75*
G03G03G03G03X0002663976Y0002387960I-0000150787D01X0002663976Y0002387960I-0000150787D01X0002663976Y0002387960I-0000150787D01G03G03X0002663976Y0002387960I-0000150787D01G03G03X0002663976Y0002387960I-0000150787D01X0002663976Y0002387960I-0000150787D01X0002663976Y0002387960I-0000150787D01X0002663976Y0002387960I-0000150787D01*
G01G01G01G01G01G01G01G01*
D34*
X0002617913Y0002387960D02*
G75*
G03G03G03G03X0002617913Y0002387960I-0000104724D01X0002617913Y0002387960I-0000104724D01X0002617913Y0002387960I-0000104724D01G03G03X0002617913Y0002387960I-0000104724D01G03G03X0002617913Y0002387960I-0000104724D01X0002617913Y0002387960I-0000104724D01X0002617913Y0002387960I-0000104724D01X0002617913Y0002387960I-0000104724D01*
G01G01G01G01G01G01G01G01*
D35*
G36*
X0002865150Y0002867835D02*
X0002866580Y0002769170D01*
X0000065147Y0002767601D01*
X0000063357Y0002868227D01*
X0002865150Y0002867835D01*
X0002865150Y0002867835D01*
G37*
X0002865150Y0002867835D02*
X0002866580Y0002769170D01*
X0000065147Y0002767601D01*
X0000063357Y0002868227D01*
X0002865150Y0002867835D01*
G36*
X0002856808Y0001535879D02*
X0002857559Y0001438461D01*
X0000056125Y0001436892D01*
X0000055015Y0001536271D01*
X0002856808Y0001535879D01*
X0002856808Y0001535879D01*
G37*
X0002856808Y0001535879D02*
X0002857559Y0001438461D01*
X0000056125Y0001436892D01*
X0000055015Y0001536271D01*
X0002856808Y0001535879D01*
G36*
X0003018622Y0001436889D02*
X0002780590Y0001436889D01*
X0002780590Y0002867834D01*
X0003018622Y0002867834D01*
X0003018622Y0001436889D01*
X0003018622Y0001436889D01*
G37*
X0003018622Y0001436889D02*
X0002780590Y0001436889D01*
X0002780590Y0002867834D01*
X0003018622Y0002867834D01*
X0003018622Y0001436889D01*
G36*
X0000164291Y0001438194D02*
X-0000073740Y0001438194D01*
X-0000073740Y0002869139D01*
X0000164291Y0002869139D01*
X0000164291Y0001438194D01*
X0000164291Y0001438194D01*
G37*
X0000164291Y0001438194D02*
X-0000073740Y0001438194D01*
X-0000073740Y0002869139D01*
X0000164291Y0002869139D01*
X0000164291Y0001438194D01*
G36*
X0001223346Y0001654606D02*
X0001186102Y0001654606D01*
X0001186102Y0001731219D01*
X0001223346Y0001731219D01*
X0001223346Y0001654606D01*
X0001223346Y0001654606D01*
G37*
X0001223346Y0001654606D02*
X0001186102Y0001654606D01*
X0001186102Y0001731219D01*
X0001223346Y0001731219D01*
X0001223346Y0001654606D01*
G36*
X0001758779Y0001654606D02*
X0001721535Y0001654606D01*
X0001721535Y0001731219D01*
X0001758779Y0001731219D01*
X0001758779Y0001654606D01*
X0001758779Y0001654606D01*
G37*
X0001758779Y0001654606D02*
X0001721535Y0001654606D01*
X0001721535Y0001731219D01*
X0001758779Y0001731219D01*
X0001758779Y0001654606D01*
G36*
X0001792165Y0001831771D02*
X0001754921Y0001831771D01*
X0001754921Y0001908385D01*
X0001792165Y0001908385D01*
X0001792165Y0001831771D01*
X0001792165Y0001831771D01*
G37*
X0001792165Y0001831771D02*
X0001754921Y0001831771D01*
X0001754921Y0001908385D01*
X0001792165Y0001908385D01*
X0001792165Y0001831771D01*
G36*
X0001186217Y0001831771D02*
X0001148973Y0001831771D01*
X0001148973Y0001908385D01*
X0001186217Y0001908385D01*
X0001186217Y0001831771D01*
X0001186217Y0001831771D01*
G37*
X0001186217Y0001831771D02*
X0001148973Y0001831771D01*
X0001148973Y0001908385D01*
X0001186217Y0001908385D01*
X0001186217Y0001831771D01*
%LPD*%
G01G01G01G01G01G01G01G01*
D46*
D47*
X0000246156Y0003000130D02*
X0000246156Y0003026376D01*
X0000285526Y0003009505D01*
X0000246156Y0003058248D02*
X0000246156Y0003050748D01*
X0000248031Y0003047000D01*
X0000249906Y0003045125D01*
X0000255529Y0003041376D01*
X0000263029Y0003039501D01*
X0000278027Y0003039501D01*
X0000281777Y0003041376D01*
X0000283652Y0003043250D01*
X0000285526Y0003047000D01*
X0000285526Y0003054499D01*
X0000283652Y0003058248D01*
X0000281777Y0003060123D01*
X0000278027Y0003061998D01*
X0000268653Y0003061998D01*
X0000264904Y0003060123D01*
X0000263029Y0003058248D01*
X0000261154Y0003054499D01*
X0000261154Y0003047000D01*
X0000263029Y0003043250D01*
X0000264904Y0003041376D01*
X0000268653Y0003039501D01*
X0000285526Y0003075121D02*
X0000259280Y0003095744D01*
X0000259280Y0003075121D02*
X0000285526Y0003095744D01*
X0000246156Y0003106992D02*
X0000246156Y0003131364D01*
X0000261154Y0003118241D01*
X0000261154Y0003123865D01*
X0000263029Y0003127615D01*
X0000264904Y0003129490D01*
X0000268653Y0003131364D01*
X0000278027Y0003131364D01*
X0000281777Y0003129490D01*
X0000283652Y0003127615D01*
X0000285526Y0003123865D01*
X0000285526Y0003112617D01*
X0000283652Y0003108867D01*
X0000281777Y0003106992D01*
X0000246156Y0003166985D02*
X0000246156Y0003148237D01*
X0000264904Y0003146362D01*
X0000263029Y0003148237D01*
X0000261154Y0003151987D01*
X0000261154Y0003161361D01*
X0000263029Y0003165109D01*
X0000264904Y0003166985D01*
X0000268653Y0003168860D01*
X0000278027Y0003168860D01*
X0000281777Y0003166985D01*
X0000283652Y0003165109D01*
X0000285526Y0003161361D01*
X0000285526Y0003151987D01*
X0000283652Y0003148237D01*
X0000281777Y0003146362D01*
%LPC*%
D48*
X0000480708Y0003083464D03*
D49*
G36*
X0000203119Y0002944131D02*
X0000128080Y0002944131D01*
X0000127318Y0003219959D01*
X0000202359Y0003219959D01*
X0000203119Y0002944131D01*
X0000203119Y0002944131D01*
G37*
X0000203119Y0002944131D02*
X0000128080Y0002944131D01*
X0000127318Y0003219959D01*
X0000202359Y0003219959D01*
X0000203119Y0002944131D01*
%LPD*%
G01G01G01G01G01G01G01G01*
D60*
D61*
X0000246156Y0003354461D02*
X0000246156Y0003380708D01*
X0000285526Y0003363835D01*
X0000246156Y0003412579D02*
X0000246156Y0003405080D01*
X0000248031Y0003401330D01*
X0000249906Y0003399456D01*
X0000255529Y0003395706D01*
X0000263029Y0003393832D01*
X0000278027Y0003393832D01*
X0000281777Y0003395706D01*
X0000283652Y0003397580D01*
X0000285526Y0003401330D01*
X0000285526Y0003408830D01*
X0000283652Y0003412579D01*
X0000281777Y0003414454D01*
X0000278027Y0003416329D01*
X0000268653Y0003416329D01*
X0000264904Y0003414454D01*
X0000263029Y0003412579D01*
X0000261154Y0003408830D01*
X0000261154Y0003401330D01*
X0000263029Y0003397580D01*
X0000264904Y0003395706D01*
X0000268653Y0003393832D01*
X0000285526Y0003429452D02*
X0000259280Y0003450074D01*
X0000259280Y0003429452D02*
X0000285526Y0003450074D01*
X0000246156Y0003461323D02*
X0000246156Y0003485695D01*
X0000261154Y0003472572D01*
X0000261154Y0003478196D01*
X0000263029Y0003481945D01*
X0000264904Y0003483820D01*
X0000268653Y0003485695D01*
X0000278027Y0003485695D01*
X0000281777Y0003483820D01*
X0000283652Y0003481945D01*
X0000285526Y0003478196D01*
X0000285526Y0003466947D01*
X0000283652Y0003463198D01*
X0000281777Y0003461323D01*
X0000246156Y0003521316D02*
X0000246156Y0003502568D01*
X0000264904Y0003500692D01*
X0000263029Y0003502568D01*
X0000261154Y0003506317D01*
X0000261154Y0003515691D01*
X0000263029Y0003519441D01*
X0000264904Y0003521316D01*
X0000268653Y0003523190D01*
X0000278027Y0003523190D01*
X0000281777Y0003521316D01*
X0000283652Y0003519441D01*
X0000285526Y0003515691D01*
X0000285526Y0003506317D01*
X0000283652Y0003502568D01*
X0000281777Y0003500692D01*
%LPC*%
D62*
X0000480708Y0003437795D03*
D63*
G36*
X0000203119Y0003298463D02*
X0000128080Y0003298463D01*
X0000127318Y0003574290D01*
X0000202359Y0003574290D01*
X0000203119Y0003298463D01*
X0000203119Y0003298463D01*
G37*
X0000203119Y0003298463D02*
X0000128080Y0003298463D01*
X0000127318Y0003574290D01*
X0000202359Y0003574290D01*
X0000203119Y0003298463D01*
G04 next file*
%LPD*%
G01G01G01G01G01G01G01G01*
D74*
D75*
X0000797337Y0003000130D02*
X0000797337Y0003026376D01*
X0000836707Y0003009505D01*
X0000797337Y0003058248D02*
X0000797337Y0003050748D01*
X0000799212Y0003047000D01*
X0000801086Y0003045125D01*
X0000806711Y0003041376D01*
X0000814209Y0003039501D01*
X0000829208Y0003039501D01*
X0000832958Y0003041376D01*
X0000834833Y0003043250D01*
X0000836707Y0003047000D01*
X0000836707Y0003054499D01*
X0000834833Y0003058248D01*
X0000832958Y0003060123D01*
X0000829208Y0003061998D01*
X0000819835Y0003061998D01*
X0000816085Y0003060123D01*
X0000814209Y0003058248D01*
X0000812335Y0003054499D01*
X0000812335Y0003047000D01*
X0000814209Y0003043250D01*
X0000816085Y0003041376D01*
X0000819835Y0003039501D01*
X0000836707Y0003075121D02*
X0000810461Y0003095744D01*
X0000810461Y0003075121D02*
X0000836707Y0003095744D01*
X0000797337Y0003106992D02*
X0000797337Y0003131364D01*
X0000812335Y0003118241D01*
X0000812335Y0003123865D01*
X0000814209Y0003127615D01*
X0000816085Y0003129490D01*
X0000819835Y0003131364D01*
X0000829208Y0003131364D01*
X0000832958Y0003129490D01*
X0000834833Y0003127615D01*
X0000836707Y0003123865D01*
X0000836707Y0003112617D01*
X0000834833Y0003108867D01*
X0000832958Y0003106992D01*
X0000797337Y0003166985D02*
X0000797337Y0003148237D01*
X0000816085Y0003146362D01*
X0000814209Y0003148237D01*
X0000812335Y0003151987D01*
X0000812335Y0003161361D01*
X0000814209Y0003165109D01*
X0000816085Y0003166985D01*
X0000819835Y0003168860D01*
X0000829208Y0003168860D01*
X0000832958Y0003166985D01*
X0000834833Y0003165109D01*
X0000836707Y0003161361D01*
X0000836707Y0003151987D01*
X0000834833Y0003148237D01*
X0000832958Y0003146362D01*
%LPC*%
D76*
X0001031889Y0003083464D03*
D77*
G36*
X0000754300Y0002944131D02*
X0000679261Y0002944131D01*
X0000678501Y0003219959D01*
X0000753540Y0003219959D01*
X0000754300Y0002944131D01*
X0000754300Y0002944131D01*
G37*
X0000754300Y0002944131D02*
X0000679261Y0002944131D01*
X0000678501Y0003219959D01*
X0000753540Y0003219959D01*
X0000754300Y0002944131D01*
%LPD*%
G01G01G01G01G01G01G01G01*
D88*
D89*
X0000797337Y0003354461D02*
X0000797337Y0003380708D01*
X0000836707Y0003363835D01*
X0000797337Y0003412579D02*
X0000797337Y0003405080D01*
X0000799212Y0003401330D01*
X0000801086Y0003399456D01*
X0000806711Y0003395706D01*
X0000814209Y0003393832D01*
X0000829208Y0003393832D01*
X0000832958Y0003395706D01*
X0000834833Y0003397580D01*
X0000836707Y0003401330D01*
X0000836707Y0003408830D01*
X0000834833Y0003412579D01*
X0000832958Y0003414454D01*
X0000829208Y0003416329D01*
X0000819835Y0003416329D01*
X0000816085Y0003414454D01*
X0000814209Y0003412579D01*
X0000812335Y0003408830D01*
X0000812335Y0003401330D01*
X0000814209Y0003397580D01*
X0000816085Y0003395706D01*
X0000819835Y0003393832D01*
X0000836707Y0003429452D02*
X0000810461Y0003450074D01*
X0000810461Y0003429452D02*
X0000836707Y0003450074D01*
X0000797337Y0003461323D02*
X0000797337Y0003485695D01*
X0000812335Y0003472572D01*
X0000812335Y0003478196D01*
X0000814209Y0003481945D01*
X0000816085Y0003483820D01*
X0000819835Y0003485695D01*
X0000829208Y0003485695D01*
X0000832958Y0003483820D01*
X0000834833Y0003481945D01*
X0000836707Y0003478196D01*
X0000836707Y0003466947D01*
X0000834833Y0003463198D01*
X0000832958Y0003461323D01*
X0000797337Y0003521316D02*
X0000797337Y0003502568D01*
X0000816085Y0003500692D01*
X0000814209Y0003502568D01*
X0000812335Y0003506317D01*
X0000812335Y0003515691D01*
X0000814209Y0003519441D01*
X0000816085Y0003521316D01*
X0000819835Y0003523190D01*
X0000829208Y0003523190D01*
X0000832958Y0003521316D01*
X0000834833Y0003519441D01*
X0000836707Y0003515691D01*
X0000836707Y0003506317D01*
X0000834833Y0003502568D01*
X0000832958Y0003500692D01*
%LPC*%
D90*
X0001031889Y0003437795D03*
D91*
G36*
X0000754300Y0003298463D02*
X0000679261Y0003298463D01*
X0000678501Y0003574290D01*
X0000753540Y0003574290D01*
X0000754300Y0003298463D01*
X0000754300Y0003298463D01*
G37*
X0000754300Y0003298463D02*
X0000679261Y0003298463D01*
X0000678501Y0003574290D01*
X0000753540Y0003574290D01*
X0000754300Y0003298463D01*
G04 next file*
%LPD*%
G01G01G01G01G01G01G01G01*
D102*
D103*
X0001384983Y0002995969D02*
X0001384983Y0003035339D01*
X0001400168Y0002995969D02*
X0001400168Y0003016591D01*
X0001398480Y0003020341D01*
X0001395105Y0003022215D01*
X0001390044Y0003022215D01*
X0001386670Y0003020341D01*
X0001384983Y0003018466D01*
X0001422103Y0002995969D02*
X0001418728Y0002997844D01*
X0001417041Y0002999718D01*
X0001415354Y0003003468D01*
X0001415354Y0003014715D01*
X0001417041Y0003018466D01*
X0001418728Y0003020341D01*
X0001422103Y0003022215D01*
X0001427165Y0003022215D01*
X0001430539Y0003020341D01*
X0001432227Y0003018466D01*
X0001433914Y0003014715D01*
X0001433914Y0003003468D01*
X0001432227Y0002999718D01*
X0001430539Y0002997844D01*
X0001427165Y0002995969D01*
X0001422103Y0002995969D01*
X0001454161Y0002995969D02*
X0001450786Y0002997844D01*
X0001449100Y0003001593D01*
X0001449100Y0003035339D01*
X0001481158Y0002997844D02*
X0001477783Y0002995969D01*
X0001471034Y0002995969D01*
X0001467660Y0002997844D01*
X0001465972Y0003001593D01*
X0001465972Y0003016591D01*
X0001467660Y0003020341D01*
X0001471034Y0003022215D01*
X0001477783Y0003022215D01*
X0001481158Y0003020341D01*
X0001482845Y0003016591D01*
X0001482845Y0003012842D01*
X0001465972Y0003009092D01*
X0001525028Y0003022215D02*
X0001525028Y0002982845D01*
X0001525028Y0003020341D02*
X0001528401Y0003022215D01*
X0001535151Y0003022215D01*
X0001538526Y0003020341D01*
X0001540213Y0003018466D01*
X0001541900Y0003014715D01*
X0001541900Y0003003468D01*
X0001540213Y0002999718D01*
X0001538526Y0002997844D01*
X0001535151Y0002995969D01*
X0001528401Y0002995969D01*
X0001525028Y0002997844D01*
X0001562148Y0002995969D02*
X0001558773Y0002997844D01*
X0001557086Y0003001593D01*
X0001557086Y0003035339D01*
X0001590832Y0003022215D02*
X0001590832Y0002995969D01*
X0001575646Y0003022215D02*
X0001575646Y0003001593D01*
X0001577334Y0002997844D01*
X0001580708Y0002995969D01*
X0001585770Y0002995969D01*
X0001589145Y0002997844D01*
X0001590832Y0002999718D01*
X0001622890Y0003022215D02*
X0001622890Y0002990343D01*
X0001621203Y0002986595D01*
X0001619516Y0002984720D01*
X0001616141Y0002982845D01*
X0001611079Y0002982845D01*
X0001607705Y0002984720D01*
X0001622890Y0002997844D02*
X0001619516Y0002995969D01*
X0001612767Y0002995969D01*
X0001609392Y0002997844D01*
X0001607705Y0002999718D01*
X0001606017Y0003003468D01*
X0001606017Y0003014715D01*
X0001607705Y0003018466D01*
X0001609392Y0003020341D01*
X0001612767Y0003022215D01*
X0001619516Y0003022215D01*
X0001622890Y0003020341D01*
%LPC*%
D104*
G36*
X0001276496Y0002973503D02*
X0001239251Y0002973503D01*
X0001239251Y0003050118D01*
X0001276496Y0003050118D01*
X0001276496Y0002973503D01*
X0001276496Y0002973503D01*
G37*
X0001276496Y0002973503D02*
X0001239251Y0002973503D01*
X0001239251Y0003050118D01*
X0001276496Y0003050118D01*
X0001276496Y0002973503D01*
G36*
X0001780433Y0002973503D02*
X0001743188Y0002973503D01*
X0001743188Y0003050118D01*
X0001780433Y0003050118D01*
X0001780433Y0002973503D01*
X0001780433Y0002973503D01*
G37*
X0001780433Y0002973503D02*
X0001743188Y0002973503D01*
X0001743188Y0003050118D01*
X0001780433Y0003050118D01*
X0001780433Y0002973503D01*
G04 next file*
G04 #@! TF.FileFunction,Legend,Top*
G04 Gerber Fmt 4.6, Leading zero omitted, Abs format (unit mm)*
G04 Created by KiCad (PCBNEW (2016-07-22 BZR 6991, Git 146a78a)-product) date 08/19/16 17:37:13*
%LPD*%
G01G01G01G01G01G01G01G01*
G04 APERTURE LIST*
G04 APERTURE END LIST*
D115*
D116*
X0001609110Y0003275684D02*
X0001609110Y0003236314D01*
X0001593925Y0003275684D02*
X0001593925Y0003255061D01*
X0001595613Y0003251312D01*
X0001598987Y0003249437D01*
X0001604049Y0003249437D01*
X0001607424Y0003251312D01*
X0001609110Y0003253187D01*
X0001571991Y0003275684D02*
X0001575365Y0003273809D01*
X0001577052Y0003271934D01*
X0001578740Y0003268185D01*
X0001578740Y0003256935D01*
X0001577052Y0003253187D01*
X0001575365Y0003251312D01*
X0001571991Y0003249437D01*
X0001566929Y0003249437D01*
X0001563554Y0003251312D01*
X0001561867Y0003253187D01*
X0001560180Y0003256935D01*
X0001560180Y0003268185D01*
X0001561867Y0003271934D01*
X0001563554Y0003273809D01*
X0001566929Y0003275684D01*
X0001571991Y0003275684D01*
X0001539932Y0003275684D02*
X0001543307Y0003273809D01*
X0001544994Y0003270059D01*
X0001544994Y0003236314D01*
X0001512935Y0003273809D02*
X0001516310Y0003275684D01*
X0001523059Y0003275684D01*
X0001526434Y0003273809D01*
X0001528121Y0003270059D01*
X0001528121Y0003255061D01*
X0001526434Y0003251312D01*
X0001523059Y0003249437D01*
X0001516310Y0003249437D01*
X0001512935Y0003251312D01*
X0001511248Y0003255061D01*
X0001511248Y0003258811D01*
X0001528121Y0003262560D01*
X0001469066Y0003249437D02*
X0001469066Y0003288807D01*
X0001469066Y0003251312D02*
X0001465691Y0003249437D01*
X0001458942Y0003249437D01*
X0001455567Y0003251312D01*
X0001453879Y0003253187D01*
X0001452193Y0003256935D01*
X0001452193Y0003268185D01*
X0001453879Y0003271934D01*
X0001455567Y0003273809D01*
X0001458942Y0003275684D01*
X0001465691Y0003275684D01*
X0001469066Y0003273809D01*
X0001431946Y0003275684D02*
X0001435320Y0003273809D01*
X0001437007Y0003270059D01*
X0001437007Y0003236314D01*
X0001403261Y0003249437D02*
X0001403261Y0003275684D01*
X0001418447Y0003249437D02*
X0001418447Y0003270059D01*
X0001416760Y0003273809D01*
X0001413385Y0003275684D01*
X0001408323Y0003275684D01*
X0001404949Y0003273809D01*
X0001403261Y0003271934D01*
X0001371203Y0003249437D02*
X0001371203Y0003281307D01*
X0001372889Y0003285058D01*
X0001374578Y0003286932D01*
X0001377952Y0003288807D01*
X0001383014Y0003288807D01*
X0001386389Y0003286932D01*
X0001371203Y0003273809D02*
X0001374578Y0003275684D01*
X0001381327Y0003275684D01*
X0001384701Y0003273809D01*
X0001386389Y0003271934D01*
X0001388076Y0003268185D01*
X0001388076Y0003256935D01*
X0001386389Y0003253187D01*
X0001384701Y0003251312D01*
X0001381327Y0003249437D01*
X0001374578Y0003249437D01*
X0001371203Y0003251312D01*
%LPC*%
D117*
G36*
X0001247125Y0003304055D02*
X0001284368Y0003304055D01*
X0001284368Y0003227440D01*
X0001247125Y0003227440D01*
X0001247125Y0003304055D01*
X0001247125Y0003304055D01*
G37*
X0001247125Y0003304055D02*
X0001284368Y0003304055D01*
X0001284368Y0003227440D01*
X0001247125Y0003227440D01*
X0001247125Y0003304055D01*
G36*
X0001682165Y0003304055D02*
X0001719409Y0003304055D01*
X0001719409Y0003227440D01*
X0001682165Y0003227440D01*
X0001682165Y0003304055D01*
X0001682165Y0003304055D01*
G37*
X0001682165Y0003304055D02*
X0001719409Y0003304055D01*
X0001719409Y0003227440D01*
X0001682165Y0003227440D01*
X0001682165Y0003304055D01*
M02*