%MOIN*%
%OFA0B0*%
%FSLAX46Y46*%
%IPPOS*%
%LPD*%
%ADD10C,0.005905511811023622*%
%ADD11C,0.031496062992125991*%
%ADD12C,0.01*%
%ADD23C,0.005905511811023622*%
%ADD24C,0.031496062992125991*%
%ADD25C,0.01*%
%ADD36C,0.005905511811023622*%
%ADD37C,0.21653543307086615*%
%ADD38C,0.01*%
%ADD49C,0.005905511811023622*%
%ADD50C,0.21653543307086615*%
%ADD51C,0.01*%
%ADD62C,0.005905511811023622*%
%ADD63C,0.21653543307086615*%
%ADD64C,0.01*%
%ADD75C,0.005905511811023622*%
%ADD76C,0.21653543307086615*%
%ADD77C,0.01*%
%ADD88C,0.005905511811023622*%
%ADD89C,0.01*%
%ADD100C,0.005905511811023622*%
%ADD101C,0.01*%
%LPD*%
G01G01G01G01G01G01G01G01*
D10*
D11*
X-0000039370Y0001417321D02*
X0002399606Y0000565748D03*
X0002419913Y0000641535D03*
X0002475393Y0000697015D03*
X0002551181Y0000717322D03*
X0002626968Y0000697015D03*
X0002682448Y0000641535D03*
X0002702755Y0000565748D03*
X0002682448Y0000489960D03*
X0002626968Y0000434480D03*
X0002551181Y0000414173D03*
X0002475393Y0000434480D03*
X0002419913Y0000489960D03*
X0001887795Y0000565748D03*
X0001908100Y0000641535D03*
X0001963582Y0000697015D03*
X0002039370Y0000717322D03*
X0002115157Y0000697015D03*
X0002170637Y0000641535D03*
X0002190944Y0000565748D03*
X0002170637Y0000489960D03*
X0002115157Y0000434480D03*
X0002039370Y0000414173D03*
X0001963582Y0000434480D03*
X0001908100Y0000489960D03*
X0002399606Y0001116929D03*
X0002419913Y0001192716D03*
X0002475393Y0001248196D03*
X0002551181Y0001268503D03*
X0002626968Y0001248196D03*
X0002682448Y0001192716D03*
X0002702755Y0001116929D03*
X0002682448Y0001041141D03*
X0002626968Y0000985661D03*
X0002551181Y0000965354D03*
X0002475393Y0000985661D03*
X0002419913Y0001041141D03*
X0001887795Y0001116929D03*
X0001908100Y0001192716D03*
X0001963582Y0001248196D03*
X0002039370Y0001268503D03*
X0002115157Y0001248196D03*
X0002170637Y0001192716D03*
X0002190944Y0001116929D03*
X0002170637Y0001041141D03*
X0002115157Y0000985661D03*
X0002039370Y0000965354D03*
X0001963582Y0000985661D03*
X0001908100Y0001041141D03*
X0001336613Y0000565748D03*
X0001356921Y0000641535D03*
X0001412401Y0000697015D03*
X0001488188Y0000717322D03*
X0001563976Y0000697015D03*
X0001619456Y0000641535D03*
X0001639763Y0000565748D03*
X0001619456Y0000489960D03*
X0001563976Y0000434480D03*
X0001488188Y0000414173D03*
X0001412401Y0000434480D03*
X0001356921Y0000489960D03*
X0000824803Y0000565748D03*
X0000845110Y0000641535D03*
X0000900590Y0000697015D03*
X0000976377Y0000717322D03*
X0001052165Y0000697015D03*
X0001107645Y0000641535D03*
X0001127952Y0000565748D03*
X0001107645Y0000489960D03*
X0001052165Y0000434480D03*
X0000976377Y0000414173D03*
X0000900590Y0000434480D03*
X0000845110Y0000489960D03*
X0000312992Y0000565748D03*
X0000333299Y0000641535D03*
X0000388779Y0000697015D03*
X0000464566Y0000717322D03*
X0000540354Y0000697015D03*
X0000595834Y0000641535D03*
X0000616141Y0000565748D03*
X0000595834Y0000489960D03*
X0000540354Y0000434480D03*
X0000464566Y0000414173D03*
X0000388779Y0000434480D03*
X0000333299Y0000489960D03*
X0001336613Y0001116929D03*
X0001356921Y0001192716D03*
X0001412401Y0001248196D03*
X0001488188Y0001268503D03*
X0001563976Y0001248196D03*
X0001619456Y0001192716D03*
X0001639763Y0001116929D03*
X0001619456Y0001041141D03*
X0001563976Y0000985661D03*
X0001488188Y0000965354D03*
X0001412401Y0000985661D03*
X0001356921Y0001041141D03*
X0000824803Y0001116929D03*
X0000845110Y0001192716D03*
X0000900590Y0001248196D03*
X0000976377Y0001268503D03*
X0001052165Y0001248196D03*
X0001107645Y0001192716D03*
X0001127952Y0001116929D03*
X0001107645Y0001041141D03*
X0001052165Y0000985661D03*
X0000976377Y0000965354D03*
X0000900590Y0000985661D03*
X0000845110Y0001041141D03*
X0000312992Y0001116929D03*
X0000333299Y0001192716D03*
X0000388779Y0001248196D03*
X0000464566Y0001268503D03*
X0000540354Y0001248196D03*
X0000595834Y0001192716D03*
X0000616141Y0001116929D03*
X0000595834Y0001041141D03*
X0000540354Y0000985661D03*
X0000464566Y0000965354D03*
X0000388779Y0000985661D03*
X0000333299Y0001041141D03*
D12*
G36*
X0002944072Y0001371708D02*
X0002974091Y0001351650D01*
X0002994149Y0001321630D01*
X0003001299Y0001285689D01*
X0003001299Y0000105255D01*
X0002994149Y0000069313D01*
X0002974091Y0000039294D01*
X0002944072Y0000019235D01*
X0002908129Y0000012086D01*
X0000113523Y0000011692D01*
X0000077581Y0000018842D01*
X0000047562Y0000038900D01*
X0000027503Y0000068920D01*
X0000020354Y0000104861D01*
X0000020354Y0000151968D01*
X0000106614Y0000151968D01*
X0000111115Y0000129338D01*
X0000123934Y0000110154D01*
X0000143118Y0000097335D01*
X0000165747Y0000092834D01*
X0000188377Y0000097335D01*
X0000207561Y0000110154D01*
X0000220380Y0000129338D01*
X0000224881Y0000151968D01*
X0000224568Y0000153543D01*
X0002786929Y0000153543D01*
X0002791430Y0000130913D01*
X0002804249Y0000111729D01*
X0002823433Y0000098910D01*
X0002846062Y0000094409D01*
X0002868692Y0000098910D01*
X0002887876Y0000111729D01*
X0002900695Y0000130913D01*
X0002905196Y0000153543D01*
X0002900695Y0000176172D01*
X0002887876Y0000195357D01*
X0002868692Y0000208175D01*
X0002846062Y0000212677D01*
X0002823433Y0000208175D01*
X0002804249Y0000195357D01*
X0002791430Y0000176172D01*
X0002786929Y0000153543D01*
X0000224568Y0000153543D01*
X0000220380Y0000174598D01*
X0000207561Y0000193782D01*
X0000188377Y0000206601D01*
X0000165747Y0000211102D01*
X0000143118Y0000206601D01*
X0000123934Y0000193782D01*
X0000111115Y0000174598D01*
X0000106614Y0000151968D01*
X0000020354Y0000151968D01*
X0000020354Y0000540983D01*
X0000331060Y0000540983D01*
X0000331661Y0000537939D01*
X0000331661Y0000537939D01*
X0000350699Y0000491778D01*
X0000350699Y0000491778D01*
X0000350929Y0000491432D01*
X0000352420Y0000489195D01*
X0000352420Y0000489195D01*
X0000387675Y0000453834D01*
X0000387675Y0000453833D01*
X0000388709Y0000453140D01*
X0000390252Y0000452106D01*
X0000390252Y0000452105D01*
X0000436355Y0000432927D01*
X0000436355Y0000432927D01*
X0000439398Y0000432317D01*
X0000489331Y0000432242D01*
X0000492375Y0000432842D01*
X0000492375Y0000432842D01*
X0000538536Y0000451881D01*
X0000538536Y0000451881D01*
X0000540087Y0000452914D01*
X0000541119Y0000453601D01*
X0000541119Y0000453601D01*
X0000576481Y0000488856D01*
X0000576484Y0000488861D01*
X0000576489Y0000488864D01*
X0000577352Y0000490156D01*
X0000578208Y0000491432D01*
X0000578210Y0000491439D01*
X0000578213Y0000491444D01*
X0000578511Y0000492939D01*
X0000578818Y0000494476D01*
X0000578817Y0000494482D01*
X0000578818Y0000494488D01*
X0000578818Y0000540983D01*
X0000842871Y0000540983D01*
X0000843472Y0000537939D01*
X0000843472Y0000537939D01*
X0000862511Y0000491778D01*
X0000862511Y0000491778D01*
X0000862740Y0000491432D01*
X0000864231Y0000489195D01*
X0000864231Y0000489195D01*
X0000899486Y0000453834D01*
X0000899486Y0000453833D01*
X0000900520Y0000453140D01*
X0000902063Y0000452106D01*
X0000902063Y0000452105D01*
X0000948166Y0000432927D01*
X0000948166Y0000432927D01*
X0000951209Y0000432317D01*
X0001001142Y0000432242D01*
X0001004186Y0000432842D01*
X0001004186Y0000432842D01*
X0001050347Y0000451881D01*
X0001050347Y0000451881D01*
X0001051898Y0000452914D01*
X0001052930Y0000453601D01*
X0001052930Y0000453601D01*
X0001088292Y0000488856D01*
X0001088295Y0000488861D01*
X0001088300Y0000488864D01*
X0001089163Y0000490156D01*
X0001090019Y0000491432D01*
X0001090021Y0000491439D01*
X0001090024Y0000491444D01*
X0001090322Y0000492939D01*
X0001090629Y0000494476D01*
X0001090628Y0000494482D01*
X0001090629Y0000494488D01*
X0001090629Y0000540983D01*
X0001354682Y0000540983D01*
X0001355283Y0000537939D01*
X0001355283Y0000537939D01*
X0001374322Y0000491778D01*
X0001374322Y0000491778D01*
X0001374551Y0000491432D01*
X0001376042Y0000489195D01*
X0001376042Y0000489195D01*
X0001411297Y0000453834D01*
X0001411297Y0000453833D01*
X0001412331Y0000453140D01*
X0001413874Y0000452106D01*
X0001413874Y0000452105D01*
X0001459977Y0000432927D01*
X0001459977Y0000432927D01*
X0001463020Y0000432317D01*
X0001512953Y0000432242D01*
X0001515997Y0000432842D01*
X0001515997Y0000432842D01*
X0001562158Y0000451881D01*
X0001562158Y0000451881D01*
X0001563709Y0000452914D01*
X0001564739Y0000453601D01*
X0001564739Y0000453601D01*
X0001600103Y0000488856D01*
X0001600106Y0000488861D01*
X0001600111Y0000488864D01*
X0001600974Y0000490156D01*
X0001601830Y0000491432D01*
X0001601832Y0000491439D01*
X0001601835Y0000491444D01*
X0001602133Y0000492939D01*
X0001602440Y0000494476D01*
X0001602439Y0000494482D01*
X0001602440Y0000494488D01*
X0001602440Y0000540983D01*
X0001905864Y0000540983D01*
X0001906464Y0000537939D01*
X0001906464Y0000537939D01*
X0001925503Y0000491778D01*
X0001925503Y0000491778D01*
X0001925732Y0000491432D01*
X0001927223Y0000489195D01*
X0001927223Y0000489195D01*
X0001962478Y0000453834D01*
X0001962478Y0000453833D01*
X0001963512Y0000453140D01*
X0001965055Y0000452106D01*
X0001965055Y0000452105D01*
X0002011158Y0000432927D01*
X0002011159Y0000432927D01*
X0002014201Y0000432317D01*
X0002064134Y0000432242D01*
X0002067178Y0000432842D01*
X0002067178Y0000432842D01*
X0002113339Y0000451881D01*
X0002113340Y0000451881D01*
X0002114890Y0000452914D01*
X0002115922Y0000453601D01*
X0002115922Y0000453601D01*
X0002151284Y0000488856D01*
X0002151287Y0000488861D01*
X0002151292Y0000488864D01*
X0002152155Y0000490156D01*
X0002153012Y0000491432D01*
X0002153013Y0000491439D01*
X0002153016Y0000491444D01*
X0002153314Y0000492939D01*
X0002153622Y0000494476D01*
X0002153620Y0000494482D01*
X0002153622Y0000494488D01*
X0002153622Y0000540983D01*
X0002417675Y0000540983D01*
X0002418275Y0000537939D01*
X0002418275Y0000537939D01*
X0002437314Y0000491778D01*
X0002437314Y0000491778D01*
X0002437544Y0000491432D01*
X0002439034Y0000489195D01*
X0002439034Y0000489195D01*
X0002474289Y0000453834D01*
X0002474289Y0000453833D01*
X0002475323Y0000453140D01*
X0002476866Y0000452106D01*
X0002476866Y0000452105D01*
X0002522969Y0000432927D01*
X0002522970Y0000432927D01*
X0002526012Y0000432317D01*
X0002575945Y0000432242D01*
X0002578989Y0000432842D01*
X0002578989Y0000432842D01*
X0002625150Y0000451881D01*
X0002625151Y0000451881D01*
X0002626701Y0000452914D01*
X0002627733Y0000453601D01*
X0002627733Y0000453601D01*
X0002663095Y0000488856D01*
X0002663098Y0000488861D01*
X0002663103Y0000488864D01*
X0002663966Y0000490156D01*
X0002664823Y0000491432D01*
X0002664823Y0000491439D01*
X0002664827Y0000491444D01*
X0002665125Y0000492939D01*
X0002665433Y0000494476D01*
X0002665431Y0000494482D01*
X0002665433Y0000494488D01*
X0002665433Y0000637007D01*
X0002665433Y0000637007D01*
X0002664827Y0000640051D01*
X0002663103Y0000642631D01*
X0002628063Y0000677670D01*
X0002626769Y0000678535D01*
X0002625495Y0000679390D01*
X0002625484Y0000679394D01*
X0002625484Y0000679394D01*
X0002625484Y0000679394D01*
X0002579392Y0000698568D01*
X0002579392Y0000698568D01*
X0002579392Y0000698568D01*
X0002576959Y0000699056D01*
X0002576349Y0000699178D01*
X0002576349Y0000699178D01*
X0002526416Y0000699254D01*
X0002523372Y0000698653D01*
X0002477211Y0000679614D01*
X0002477211Y0000679614D01*
X0002474628Y0000677894D01*
X0002439266Y0000642639D01*
X0002437539Y0000640062D01*
X0002437539Y0000640062D01*
X0002418360Y0000593959D01*
X0002418360Y0000593959D01*
X0002417750Y0000590916D01*
X0002417675Y0000540983D01*
X0002153622Y0000540983D01*
X0002153622Y0000637007D01*
X0002153622Y0000637007D01*
X0002153016Y0000640051D01*
X0002151292Y0000642631D01*
X0002116253Y0000677670D01*
X0002114958Y0000678535D01*
X0002113684Y0000679390D01*
X0002113673Y0000679394D01*
X0002113673Y0000679394D01*
X0002113673Y0000679394D01*
X0002067581Y0000698568D01*
X0002067581Y0000698568D01*
X0002067581Y0000698568D01*
X0002065148Y0000699056D01*
X0002064538Y0000699178D01*
X0002064538Y0000699178D01*
X0002014605Y0000699254D01*
X0002011561Y0000698653D01*
X0001965400Y0000679614D01*
X0001965400Y0000679614D01*
X0001962817Y0000677894D01*
X0001927455Y0000642639D01*
X0001925728Y0000640062D01*
X0001925728Y0000640062D01*
X0001906549Y0000593959D01*
X0001906549Y0000593959D01*
X0001905939Y0000590916D01*
X0001905864Y0000540983D01*
X0001602440Y0000540983D01*
X0001602440Y0000637007D01*
X0001602440Y0000637007D01*
X0001601835Y0000640051D01*
X0001600111Y0000642631D01*
X0001565072Y0000677670D01*
X0001563777Y0000678535D01*
X0001562503Y0000679390D01*
X0001562492Y0000679394D01*
X0001562492Y0000679394D01*
X0001562492Y0000679394D01*
X0001516400Y0000698568D01*
X0001516400Y0000698568D01*
X0001516400Y0000698568D01*
X0001513967Y0000699056D01*
X0001513356Y0000699178D01*
X0001513356Y0000699178D01*
X0001463424Y0000699254D01*
X0001460380Y0000698653D01*
X0001414219Y0000679614D01*
X0001414218Y0000679614D01*
X0001411636Y0000677894D01*
X0001376274Y0000642639D01*
X0001374546Y0000640062D01*
X0001374546Y0000640062D01*
X0001355368Y0000593959D01*
X0001355368Y0000593959D01*
X0001354758Y0000590916D01*
X0001354682Y0000540983D01*
X0001090629Y0000540983D01*
X0001090629Y0000637007D01*
X0001090629Y0000637007D01*
X0001090024Y0000640051D01*
X0001088300Y0000642631D01*
X0001053261Y0000677670D01*
X0001051966Y0000678535D01*
X0001050692Y0000679390D01*
X0001050681Y0000679394D01*
X0001050681Y0000679394D01*
X0001050681Y0000679394D01*
X0001004589Y0000698568D01*
X0001004589Y0000698568D01*
X0001004589Y0000698568D01*
X0001002156Y0000699056D01*
X0001001546Y0000699178D01*
X0001001546Y0000699178D01*
X0000951613Y0000699254D01*
X0000948569Y0000698653D01*
X0000902408Y0000679614D01*
X0000902407Y0000679614D01*
X0000899825Y0000677894D01*
X0000864462Y0000642639D01*
X0000862735Y0000640062D01*
X0000862735Y0000640062D01*
X0000843557Y0000593959D01*
X0000843557Y0000593959D01*
X0000842947Y0000590916D01*
X0000842871Y0000540983D01*
X0000578818Y0000540983D01*
X0000578818Y0000637007D01*
X0000578818Y0000637007D01*
X0000578213Y0000640051D01*
X0000576489Y0000642631D01*
X0000541450Y0000677670D01*
X0000540155Y0000678535D01*
X0000538881Y0000679390D01*
X0000538870Y0000679394D01*
X0000538870Y0000679394D01*
X0000538870Y0000679394D01*
X0000492778Y0000698568D01*
X0000492778Y0000698568D01*
X0000492777Y0000698568D01*
X0000490345Y0000699056D01*
X0000489735Y0000699178D01*
X0000489735Y0000699178D01*
X0000439801Y0000699254D01*
X0000436758Y0000698653D01*
X0000390597Y0000679614D01*
X0000390596Y0000679614D01*
X0000388014Y0000677894D01*
X0000352652Y0000642639D01*
X0000350923Y0000640062D01*
X0000350923Y0000640062D01*
X0000331745Y0000593959D01*
X0000331745Y0000593959D01*
X0000331136Y0000590916D01*
X0000331060Y0000540983D01*
X0000020354Y0000540983D01*
X0000020354Y0001092164D01*
X0000331060Y0001092164D01*
X0000331661Y0001089120D01*
X0000331661Y0001089120D01*
X0000350699Y0001042959D01*
X0000350699Y0001042959D01*
X0000350929Y0001042613D01*
X0000352420Y0001040376D01*
X0000352420Y0001040376D01*
X0000387675Y0001005015D01*
X0000387675Y0001005015D01*
X0000388709Y0001004321D01*
X0000390252Y0001003287D01*
X0000390252Y0001003287D01*
X0000436355Y0000984108D01*
X0000436355Y0000984108D01*
X0000439398Y0000983498D01*
X0000489331Y0000983423D01*
X0000492375Y0000984023D01*
X0000492375Y0000984023D01*
X0000538536Y0001003061D01*
X0000538536Y0001003061D01*
X0000540087Y0001004095D01*
X0000541119Y0001004782D01*
X0000541119Y0001004782D01*
X0000576481Y0001040037D01*
X0000576484Y0001040041D01*
X0000576489Y0001040045D01*
X0000577352Y0001041337D01*
X0000578208Y0001042613D01*
X0000578210Y0001042620D01*
X0000578213Y0001042624D01*
X0000578511Y0001044121D01*
X0000578818Y0001045657D01*
X0000578817Y0001045663D01*
X0000578818Y0001045669D01*
X0000578818Y0001092164D01*
X0000842871Y0001092164D01*
X0000843472Y0001089120D01*
X0000843472Y0001089120D01*
X0000862511Y0001042959D01*
X0000862511Y0001042959D01*
X0000862740Y0001042613D01*
X0000864231Y0001040376D01*
X0000864231Y0001040376D01*
X0000899486Y0001005015D01*
X0000899486Y0001005015D01*
X0000900520Y0001004321D01*
X0000902063Y0001003287D01*
X0000902063Y0001003287D01*
X0000948166Y0000984108D01*
X0000948166Y0000984108D01*
X0000951209Y0000983498D01*
X0001001142Y0000983423D01*
X0001004186Y0000984023D01*
X0001004186Y0000984023D01*
X0001050347Y0001003061D01*
X0001050347Y0001003061D01*
X0001051898Y0001004095D01*
X0001052930Y0001004782D01*
X0001052930Y0001004782D01*
X0001088292Y0001040037D01*
X0001088295Y0001040041D01*
X0001088300Y0001040045D01*
X0001089163Y0001041337D01*
X0001090019Y0001042613D01*
X0001090021Y0001042620D01*
X0001090024Y0001042624D01*
X0001090322Y0001044121D01*
X0001090629Y0001045657D01*
X0001090628Y0001045663D01*
X0001090629Y0001045669D01*
X0001090629Y0001092164D01*
X0001354682Y0001092164D01*
X0001355283Y0001089120D01*
X0001355283Y0001089120D01*
X0001374322Y0001042959D01*
X0001374322Y0001042959D01*
X0001374551Y0001042613D01*
X0001376042Y0001040376D01*
X0001376042Y0001040376D01*
X0001411297Y0001005015D01*
X0001411297Y0001005015D01*
X0001412331Y0001004321D01*
X0001413874Y0001003287D01*
X0001413874Y0001003287D01*
X0001459977Y0000984108D01*
X0001459977Y0000984108D01*
X0001463020Y0000983498D01*
X0001512953Y0000983423D01*
X0001515997Y0000984023D01*
X0001515997Y0000984023D01*
X0001562158Y0001003061D01*
X0001562158Y0001003061D01*
X0001563709Y0001004095D01*
X0001564739Y0001004782D01*
X0001564739Y0001004782D01*
X0001600103Y0001040037D01*
X0001600106Y0001040041D01*
X0001600111Y0001040045D01*
X0001600974Y0001041337D01*
X0001601830Y0001042613D01*
X0001601832Y0001042620D01*
X0001601835Y0001042624D01*
X0001602133Y0001044121D01*
X0001602440Y0001045657D01*
X0001602439Y0001045663D01*
X0001602440Y0001045669D01*
X0001602440Y0001092164D01*
X0001905864Y0001092164D01*
X0001906464Y0001089120D01*
X0001906464Y0001089120D01*
X0001925503Y0001042959D01*
X0001925503Y0001042959D01*
X0001925732Y0001042613D01*
X0001927223Y0001040376D01*
X0001927223Y0001040376D01*
X0001962478Y0001005015D01*
X0001962478Y0001005015D01*
X0001963512Y0001004321D01*
X0001965055Y0001003287D01*
X0001965055Y0001003287D01*
X0002011158Y0000984108D01*
X0002011159Y0000984108D01*
X0002014201Y0000983498D01*
X0002064134Y0000983423D01*
X0002067178Y0000984023D01*
X0002067178Y0000984023D01*
X0002113339Y0001003061D01*
X0002113340Y0001003061D01*
X0002114890Y0001004095D01*
X0002115922Y0001004782D01*
X0002115922Y0001004782D01*
X0002151284Y0001040037D01*
X0002151287Y0001040041D01*
X0002151292Y0001040045D01*
X0002152155Y0001041337D01*
X0002153012Y0001042613D01*
X0002153013Y0001042620D01*
X0002153016Y0001042624D01*
X0002153314Y0001044121D01*
X0002153622Y0001045657D01*
X0002153620Y0001045663D01*
X0002153622Y0001045669D01*
X0002153622Y0001092164D01*
X0002417675Y0001092164D01*
X0002418275Y0001089120D01*
X0002418275Y0001089120D01*
X0002437314Y0001042959D01*
X0002437314Y0001042959D01*
X0002437544Y0001042613D01*
X0002439034Y0001040376D01*
X0002439034Y0001040376D01*
X0002474289Y0001005015D01*
X0002474289Y0001005015D01*
X0002475323Y0001004321D01*
X0002476866Y0001003287D01*
X0002476866Y0001003287D01*
X0002522969Y0000984108D01*
X0002522970Y0000984108D01*
X0002526012Y0000983498D01*
X0002575945Y0000983423D01*
X0002578989Y0000984023D01*
X0002578989Y0000984023D01*
X0002625150Y0001003061D01*
X0002625151Y0001003061D01*
X0002626701Y0001004095D01*
X0002627733Y0001004782D01*
X0002627733Y0001004782D01*
X0002663095Y0001040037D01*
X0002663098Y0001040041D01*
X0002663103Y0001040045D01*
X0002663966Y0001041337D01*
X0002664823Y0001042613D01*
X0002664823Y0001042620D01*
X0002664827Y0001042624D01*
X0002665125Y0001044121D01*
X0002665433Y0001045657D01*
X0002665431Y0001045663D01*
X0002665433Y0001045669D01*
X0002665433Y0001188188D01*
X0002665433Y0001188188D01*
X0002664827Y0001191232D01*
X0002663103Y0001193812D01*
X0002628063Y0001228851D01*
X0002626769Y0001229716D01*
X0002625495Y0001230571D01*
X0002625484Y0001230575D01*
X0002625484Y0001230575D01*
X0002625484Y0001230575D01*
X0002608129Y0001237795D01*
X0002788503Y0001237795D01*
X0002793005Y0001215165D01*
X0002805823Y0001195981D01*
X0002825008Y0001183162D01*
X0002847637Y0001178661D01*
X0002870267Y0001183162D01*
X0002889451Y0001195981D01*
X0002902270Y0001215165D01*
X0002906771Y0001237795D01*
X0002902270Y0001260424D01*
X0002889451Y0001279609D01*
X0002870267Y0001292427D01*
X0002847637Y0001296929D01*
X0002825008Y0001292427D01*
X0002805823Y0001279609D01*
X0002793005Y0001260424D01*
X0002788503Y0001237795D01*
X0002608129Y0001237795D01*
X0002579392Y0001249749D01*
X0002579392Y0001249749D01*
X0002579392Y0001249749D01*
X0002576959Y0001250237D01*
X0002576349Y0001250359D01*
X0002576349Y0001250359D01*
X0002526416Y0001250435D01*
X0002523372Y0001249834D01*
X0002477211Y0001230795D01*
X0002477211Y0001230795D01*
X0002474628Y0001229075D01*
X0002439266Y0001193820D01*
X0002437539Y0001191243D01*
X0002437539Y0001191243D01*
X0002418360Y0001145140D01*
X0002418360Y0001145140D01*
X0002417750Y0001142097D01*
X0002417675Y0001092164D01*
X0002153622Y0001092164D01*
X0002153622Y0001188188D01*
X0002153622Y0001188188D01*
X0002153016Y0001191232D01*
X0002151292Y0001193812D01*
X0002116253Y0001228851D01*
X0002114958Y0001229716D01*
X0002113684Y0001230571D01*
X0002113673Y0001230575D01*
X0002113673Y0001230575D01*
X0002113673Y0001230575D01*
X0002067581Y0001249749D01*
X0002067581Y0001249749D01*
X0002067581Y0001249749D01*
X0002065148Y0001250237D01*
X0002064538Y0001250359D01*
X0002064538Y0001250359D01*
X0002014605Y0001250435D01*
X0002011561Y0001249834D01*
X0001965400Y0001230795D01*
X0001965400Y0001230795D01*
X0001962817Y0001229075D01*
X0001927455Y0001193820D01*
X0001925728Y0001191243D01*
X0001925728Y0001191243D01*
X0001906549Y0001145140D01*
X0001906549Y0001145140D01*
X0001905939Y0001142097D01*
X0001905864Y0001092164D01*
X0001602440Y0001092164D01*
X0001602440Y0001188188D01*
X0001602440Y0001188188D01*
X0001601835Y0001191232D01*
X0001600111Y0001193812D01*
X0001565072Y0001228851D01*
X0001563777Y0001229716D01*
X0001562503Y0001230571D01*
X0001562492Y0001230575D01*
X0001562492Y0001230575D01*
X0001562492Y0001230575D01*
X0001516400Y0001249749D01*
X0001516400Y0001249749D01*
X0001516400Y0001249749D01*
X0001513967Y0001250237D01*
X0001513356Y0001250359D01*
X0001513356Y0001250359D01*
X0001463424Y0001250435D01*
X0001460380Y0001249834D01*
X0001414219Y0001230795D01*
X0001414218Y0001230795D01*
X0001411636Y0001229075D01*
X0001376274Y0001193820D01*
X0001374546Y0001191243D01*
X0001374546Y0001191243D01*
X0001355368Y0001145140D01*
X0001355368Y0001145140D01*
X0001354758Y0001142097D01*
X0001354682Y0001092164D01*
X0001090629Y0001092164D01*
X0001090629Y0001188188D01*
X0001090629Y0001188188D01*
X0001090024Y0001191232D01*
X0001088300Y0001193812D01*
X0001053261Y0001228851D01*
X0001051966Y0001229716D01*
X0001050692Y0001230571D01*
X0001050681Y0001230575D01*
X0001050681Y0001230575D01*
X0001050681Y0001230575D01*
X0001004589Y0001249749D01*
X0001004589Y0001249749D01*
X0001004589Y0001249749D01*
X0001002156Y0001250237D01*
X0001001546Y0001250359D01*
X0001001546Y0001250359D01*
X0000951613Y0001250435D01*
X0000948569Y0001249834D01*
X0000902408Y0001230795D01*
X0000902407Y0001230795D01*
X0000899825Y0001229075D01*
X0000864462Y0001193820D01*
X0000862735Y0001191243D01*
X0000862735Y0001191243D01*
X0000843557Y0001145140D01*
X0000843557Y0001145140D01*
X0000842947Y0001142097D01*
X0000842871Y0001092164D01*
X0000578818Y0001092164D01*
X0000578818Y0001188188D01*
X0000578818Y0001188188D01*
X0000578213Y0001191232D01*
X0000576489Y0001193812D01*
X0000541450Y0001228851D01*
X0000540155Y0001229716D01*
X0000538881Y0001230571D01*
X0000538870Y0001230575D01*
X0000538870Y0001230575D01*
X0000538870Y0001230575D01*
X0000492778Y0001249749D01*
X0000492778Y0001249749D01*
X0000492777Y0001249749D01*
X0000490345Y0001250237D01*
X0000489735Y0001250359D01*
X0000489735Y0001250359D01*
X0000439801Y0001250435D01*
X0000436758Y0001249834D01*
X0000390597Y0001230795D01*
X0000390596Y0001230795D01*
X0000388014Y0001229075D01*
X0000352652Y0001193820D01*
X0000350923Y0001191243D01*
X0000350923Y0001191243D01*
X0000331745Y0001145140D01*
X0000331745Y0001145140D01*
X0000331136Y0001142097D01*
X0000331060Y0001092164D01*
X0000020354Y0001092164D01*
X0000020354Y0001236614D01*
X0000107007Y0001236614D01*
X0000111509Y0001213984D01*
X0000124327Y0001194800D01*
X0000143512Y0001181981D01*
X0000166141Y0001177480D01*
X0000188771Y0001181981D01*
X0000207955Y0001194800D01*
X0000220774Y0001213984D01*
X0000225275Y0001236614D01*
X0000220774Y0001259243D01*
X0000207955Y0001278428D01*
X0000188771Y0001291246D01*
X0000166141Y0001295748D01*
X0000143512Y0001291246D01*
X0000124327Y0001278428D01*
X0000111509Y0001259243D01*
X0000107007Y0001236614D01*
X0000020354Y0001236614D01*
X0000020354Y0001285689D01*
X0000027503Y0001321630D01*
X0000047562Y0001351650D01*
X0000077581Y0001371708D01*
X0000113523Y0001378858D01*
X0002908130Y0001378858D01*
X0002944072Y0001371708D01*
X0002944072Y0001371708D01*
G37*
X0002944072Y0001371708D02*
X0002974091Y0001351650D01*
X0002994149Y0001321630D01*
X0003001299Y0001285689D01*
X0003001299Y0000105255D01*
X0002994149Y0000069313D01*
X0002974091Y0000039294D01*
X0002944072Y0000019235D01*
X0002908129Y0000012086D01*
X0000113523Y0000011692D01*
X0000077581Y0000018842D01*
X0000047562Y0000038900D01*
X0000027503Y0000068920D01*
X0000020354Y0000104861D01*
X0000020354Y0000151968D01*
X0000106614Y0000151968D01*
X0000111115Y0000129338D01*
X0000123934Y0000110154D01*
X0000143118Y0000097335D01*
X0000165747Y0000092834D01*
X0000188377Y0000097335D01*
X0000207561Y0000110154D01*
X0000220380Y0000129338D01*
X0000224881Y0000151968D01*
X0000224568Y0000153543D01*
X0002786929Y0000153543D01*
X0002791430Y0000130913D01*
X0002804249Y0000111729D01*
X0002823433Y0000098910D01*
X0002846062Y0000094409D01*
X0002868692Y0000098910D01*
X0002887876Y0000111729D01*
X0002900695Y0000130913D01*
X0002905196Y0000153543D01*
X0002900695Y0000176172D01*
X0002887876Y0000195357D01*
X0002868692Y0000208175D01*
X0002846062Y0000212677D01*
X0002823433Y0000208175D01*
X0002804249Y0000195357D01*
X0002791430Y0000176172D01*
X0002786929Y0000153543D01*
X0000224568Y0000153543D01*
X0000220380Y0000174598D01*
X0000207561Y0000193782D01*
X0000188377Y0000206601D01*
X0000165747Y0000211102D01*
X0000143118Y0000206601D01*
X0000123934Y0000193782D01*
X0000111115Y0000174598D01*
X0000106614Y0000151968D01*
X0000020354Y0000151968D01*
X0000020354Y0000540983D01*
X0000331060Y0000540983D01*
X0000331661Y0000537939D01*
X0000331661Y0000537939D01*
X0000350699Y0000491778D01*
X0000350699Y0000491778D01*
X0000350929Y0000491432D01*
X0000352420Y0000489195D01*
X0000352420Y0000489195D01*
X0000387675Y0000453834D01*
X0000387675Y0000453833D01*
X0000388709Y0000453140D01*
X0000390252Y0000452106D01*
X0000390252Y0000452105D01*
X0000436355Y0000432927D01*
X0000436355Y0000432927D01*
X0000439398Y0000432317D01*
X0000489331Y0000432242D01*
X0000492375Y0000432842D01*
X0000492375Y0000432842D01*
X0000538536Y0000451881D01*
X0000538536Y0000451881D01*
X0000540087Y0000452914D01*
X0000541119Y0000453601D01*
X0000541119Y0000453601D01*
X0000576481Y0000488856D01*
X0000576484Y0000488861D01*
X0000576489Y0000488864D01*
X0000577352Y0000490156D01*
X0000578208Y0000491432D01*
X0000578210Y0000491439D01*
X0000578213Y0000491444D01*
X0000578511Y0000492939D01*
X0000578818Y0000494476D01*
X0000578817Y0000494482D01*
X0000578818Y0000494488D01*
X0000578818Y0000540983D01*
X0000842871Y0000540983D01*
X0000843472Y0000537939D01*
X0000843472Y0000537939D01*
X0000862511Y0000491778D01*
X0000862511Y0000491778D01*
X0000862740Y0000491432D01*
X0000864231Y0000489195D01*
X0000864231Y0000489195D01*
X0000899486Y0000453834D01*
X0000899486Y0000453833D01*
X0000900520Y0000453140D01*
X0000902063Y0000452106D01*
X0000902063Y0000452105D01*
X0000948166Y0000432927D01*
X0000948166Y0000432927D01*
X0000951209Y0000432317D01*
X0001001142Y0000432242D01*
X0001004186Y0000432842D01*
X0001004186Y0000432842D01*
X0001050347Y0000451881D01*
X0001050347Y0000451881D01*
X0001051898Y0000452914D01*
X0001052930Y0000453601D01*
X0001052930Y0000453601D01*
X0001088292Y0000488856D01*
X0001088295Y0000488861D01*
X0001088300Y0000488864D01*
X0001089163Y0000490156D01*
X0001090019Y0000491432D01*
X0001090021Y0000491439D01*
X0001090024Y0000491444D01*
X0001090322Y0000492939D01*
X0001090629Y0000494476D01*
X0001090628Y0000494482D01*
X0001090629Y0000494488D01*
X0001090629Y0000540983D01*
X0001354682Y0000540983D01*
X0001355283Y0000537939D01*
X0001355283Y0000537939D01*
X0001374322Y0000491778D01*
X0001374322Y0000491778D01*
X0001374551Y0000491432D01*
X0001376042Y0000489195D01*
X0001376042Y0000489195D01*
X0001411297Y0000453834D01*
X0001411297Y0000453833D01*
X0001412331Y0000453140D01*
X0001413874Y0000452106D01*
X0001413874Y0000452105D01*
X0001459977Y0000432927D01*
X0001459977Y0000432927D01*
X0001463020Y0000432317D01*
X0001512953Y0000432242D01*
X0001515997Y0000432842D01*
X0001515997Y0000432842D01*
X0001562158Y0000451881D01*
X0001562158Y0000451881D01*
X0001563709Y0000452914D01*
X0001564739Y0000453601D01*
X0001564739Y0000453601D01*
X0001600103Y0000488856D01*
X0001600106Y0000488861D01*
X0001600111Y0000488864D01*
X0001600974Y0000490156D01*
X0001601830Y0000491432D01*
X0001601832Y0000491439D01*
X0001601835Y0000491444D01*
X0001602133Y0000492939D01*
X0001602440Y0000494476D01*
X0001602439Y0000494482D01*
X0001602440Y0000494488D01*
X0001602440Y0000540983D01*
X0001905864Y0000540983D01*
X0001906464Y0000537939D01*
X0001906464Y0000537939D01*
X0001925503Y0000491778D01*
X0001925503Y0000491778D01*
X0001925732Y0000491432D01*
X0001927223Y0000489195D01*
X0001927223Y0000489195D01*
X0001962478Y0000453834D01*
X0001962478Y0000453833D01*
X0001963512Y0000453140D01*
X0001965055Y0000452106D01*
X0001965055Y0000452105D01*
X0002011158Y0000432927D01*
X0002011159Y0000432927D01*
X0002014201Y0000432317D01*
X0002064134Y0000432242D01*
X0002067178Y0000432842D01*
X0002067178Y0000432842D01*
X0002113339Y0000451881D01*
X0002113340Y0000451881D01*
X0002114890Y0000452914D01*
X0002115922Y0000453601D01*
X0002115922Y0000453601D01*
X0002151284Y0000488856D01*
X0002151287Y0000488861D01*
X0002151292Y0000488864D01*
X0002152155Y0000490156D01*
X0002153012Y0000491432D01*
X0002153013Y0000491439D01*
X0002153016Y0000491444D01*
X0002153314Y0000492939D01*
X0002153622Y0000494476D01*
X0002153620Y0000494482D01*
X0002153622Y0000494488D01*
X0002153622Y0000540983D01*
X0002417675Y0000540983D01*
X0002418275Y0000537939D01*
X0002418275Y0000537939D01*
X0002437314Y0000491778D01*
X0002437314Y0000491778D01*
X0002437544Y0000491432D01*
X0002439034Y0000489195D01*
X0002439034Y0000489195D01*
X0002474289Y0000453834D01*
X0002474289Y0000453833D01*
X0002475323Y0000453140D01*
X0002476866Y0000452106D01*
X0002476866Y0000452105D01*
X0002522969Y0000432927D01*
X0002522970Y0000432927D01*
X0002526012Y0000432317D01*
X0002575945Y0000432242D01*
X0002578989Y0000432842D01*
X0002578989Y0000432842D01*
X0002625150Y0000451881D01*
X0002625151Y0000451881D01*
X0002626701Y0000452914D01*
X0002627733Y0000453601D01*
X0002627733Y0000453601D01*
X0002663095Y0000488856D01*
X0002663098Y0000488861D01*
X0002663103Y0000488864D01*
X0002663966Y0000490156D01*
X0002664823Y0000491432D01*
X0002664823Y0000491439D01*
X0002664827Y0000491444D01*
X0002665125Y0000492939D01*
X0002665433Y0000494476D01*
X0002665431Y0000494482D01*
X0002665433Y0000494488D01*
X0002665433Y0000637007D01*
X0002665433Y0000637007D01*
X0002664827Y0000640051D01*
X0002663103Y0000642631D01*
X0002628063Y0000677670D01*
X0002626769Y0000678535D01*
X0002625495Y0000679390D01*
X0002625484Y0000679394D01*
X0002625484Y0000679394D01*
X0002625484Y0000679394D01*
X0002579392Y0000698568D01*
X0002579392Y0000698568D01*
X0002579392Y0000698568D01*
X0002576959Y0000699056D01*
X0002576349Y0000699178D01*
X0002576349Y0000699178D01*
X0002526416Y0000699254D01*
X0002523372Y0000698653D01*
X0002477211Y0000679614D01*
X0002477211Y0000679614D01*
X0002474628Y0000677894D01*
X0002439266Y0000642639D01*
X0002437539Y0000640062D01*
X0002437539Y0000640062D01*
X0002418360Y0000593959D01*
X0002418360Y0000593959D01*
X0002417750Y0000590916D01*
X0002417675Y0000540983D01*
X0002153622Y0000540983D01*
X0002153622Y0000637007D01*
X0002153622Y0000637007D01*
X0002153016Y0000640051D01*
X0002151292Y0000642631D01*
X0002116253Y0000677670D01*
X0002114958Y0000678535D01*
X0002113684Y0000679390D01*
X0002113673Y0000679394D01*
X0002113673Y0000679394D01*
X0002113673Y0000679394D01*
X0002067581Y0000698568D01*
X0002067581Y0000698568D01*
X0002067581Y0000698568D01*
X0002065148Y0000699056D01*
X0002064538Y0000699178D01*
X0002064538Y0000699178D01*
X0002014605Y0000699254D01*
X0002011561Y0000698653D01*
X0001965400Y0000679614D01*
X0001965400Y0000679614D01*
X0001962817Y0000677894D01*
X0001927455Y0000642639D01*
X0001925728Y0000640062D01*
X0001925728Y0000640062D01*
X0001906549Y0000593959D01*
X0001906549Y0000593959D01*
X0001905939Y0000590916D01*
X0001905864Y0000540983D01*
X0001602440Y0000540983D01*
X0001602440Y0000637007D01*
X0001602440Y0000637007D01*
X0001601835Y0000640051D01*
X0001600111Y0000642631D01*
X0001565072Y0000677670D01*
X0001563777Y0000678535D01*
X0001562503Y0000679390D01*
X0001562492Y0000679394D01*
X0001562492Y0000679394D01*
X0001562492Y0000679394D01*
X0001516400Y0000698568D01*
X0001516400Y0000698568D01*
X0001516400Y0000698568D01*
X0001513967Y0000699056D01*
X0001513356Y0000699178D01*
X0001513356Y0000699178D01*
X0001463424Y0000699254D01*
X0001460380Y0000698653D01*
X0001414219Y0000679614D01*
X0001414218Y0000679614D01*
X0001411636Y0000677894D01*
X0001376274Y0000642639D01*
X0001374546Y0000640062D01*
X0001374546Y0000640062D01*
X0001355368Y0000593959D01*
X0001355368Y0000593959D01*
X0001354758Y0000590916D01*
X0001354682Y0000540983D01*
X0001090629Y0000540983D01*
X0001090629Y0000637007D01*
X0001090629Y0000637007D01*
X0001090024Y0000640051D01*
X0001088300Y0000642631D01*
X0001053261Y0000677670D01*
X0001051966Y0000678535D01*
X0001050692Y0000679390D01*
X0001050681Y0000679394D01*
X0001050681Y0000679394D01*
X0001050681Y0000679394D01*
X0001004589Y0000698568D01*
X0001004589Y0000698568D01*
X0001004589Y0000698568D01*
X0001002156Y0000699056D01*
X0001001546Y0000699178D01*
X0001001546Y0000699178D01*
X0000951613Y0000699254D01*
X0000948569Y0000698653D01*
X0000902408Y0000679614D01*
X0000902407Y0000679614D01*
X0000899825Y0000677894D01*
X0000864462Y0000642639D01*
X0000862735Y0000640062D01*
X0000862735Y0000640062D01*
X0000843557Y0000593959D01*
X0000843557Y0000593959D01*
X0000842947Y0000590916D01*
X0000842871Y0000540983D01*
X0000578818Y0000540983D01*
X0000578818Y0000637007D01*
X0000578818Y0000637007D01*
X0000578213Y0000640051D01*
X0000576489Y0000642631D01*
X0000541450Y0000677670D01*
X0000540155Y0000678535D01*
X0000538881Y0000679390D01*
X0000538870Y0000679394D01*
X0000538870Y0000679394D01*
X0000538870Y0000679394D01*
X0000492778Y0000698568D01*
X0000492778Y0000698568D01*
X0000492777Y0000698568D01*
X0000490345Y0000699056D01*
X0000489735Y0000699178D01*
X0000489735Y0000699178D01*
X0000439801Y0000699254D01*
X0000436758Y0000698653D01*
X0000390597Y0000679614D01*
X0000390596Y0000679614D01*
X0000388014Y0000677894D01*
X0000352652Y0000642639D01*
X0000350923Y0000640062D01*
X0000350923Y0000640062D01*
X0000331745Y0000593959D01*
X0000331745Y0000593959D01*
X0000331136Y0000590916D01*
X0000331060Y0000540983D01*
X0000020354Y0000540983D01*
X0000020354Y0001092164D01*
X0000331060Y0001092164D01*
X0000331661Y0001089120D01*
X0000331661Y0001089120D01*
X0000350699Y0001042959D01*
X0000350699Y0001042959D01*
X0000350929Y0001042613D01*
X0000352420Y0001040376D01*
X0000352420Y0001040376D01*
X0000387675Y0001005015D01*
X0000387675Y0001005015D01*
X0000388709Y0001004321D01*
X0000390252Y0001003287D01*
X0000390252Y0001003287D01*
X0000436355Y0000984108D01*
X0000436355Y0000984108D01*
X0000439398Y0000983498D01*
X0000489331Y0000983423D01*
X0000492375Y0000984023D01*
X0000492375Y0000984023D01*
X0000538536Y0001003061D01*
X0000538536Y0001003061D01*
X0000540087Y0001004095D01*
X0000541119Y0001004782D01*
X0000541119Y0001004782D01*
X0000576481Y0001040037D01*
X0000576484Y0001040041D01*
X0000576489Y0001040045D01*
X0000577352Y0001041337D01*
X0000578208Y0001042613D01*
X0000578210Y0001042620D01*
X0000578213Y0001042624D01*
X0000578511Y0001044121D01*
X0000578818Y0001045657D01*
X0000578817Y0001045663D01*
X0000578818Y0001045669D01*
X0000578818Y0001092164D01*
X0000842871Y0001092164D01*
X0000843472Y0001089120D01*
X0000843472Y0001089120D01*
X0000862511Y0001042959D01*
X0000862511Y0001042959D01*
X0000862740Y0001042613D01*
X0000864231Y0001040376D01*
X0000864231Y0001040376D01*
X0000899486Y0001005015D01*
X0000899486Y0001005015D01*
X0000900520Y0001004321D01*
X0000902063Y0001003287D01*
X0000902063Y0001003287D01*
X0000948166Y0000984108D01*
X0000948166Y0000984108D01*
X0000951209Y0000983498D01*
X0001001142Y0000983423D01*
X0001004186Y0000984023D01*
X0001004186Y0000984023D01*
X0001050347Y0001003061D01*
X0001050347Y0001003061D01*
X0001051898Y0001004095D01*
X0001052930Y0001004782D01*
X0001052930Y0001004782D01*
X0001088292Y0001040037D01*
X0001088295Y0001040041D01*
X0001088300Y0001040045D01*
X0001089163Y0001041337D01*
X0001090019Y0001042613D01*
X0001090021Y0001042620D01*
X0001090024Y0001042624D01*
X0001090322Y0001044121D01*
X0001090629Y0001045657D01*
X0001090628Y0001045663D01*
X0001090629Y0001045669D01*
X0001090629Y0001092164D01*
X0001354682Y0001092164D01*
X0001355283Y0001089120D01*
X0001355283Y0001089120D01*
X0001374322Y0001042959D01*
X0001374322Y0001042959D01*
X0001374551Y0001042613D01*
X0001376042Y0001040376D01*
X0001376042Y0001040376D01*
X0001411297Y0001005015D01*
X0001411297Y0001005015D01*
X0001412331Y0001004321D01*
X0001413874Y0001003287D01*
X0001413874Y0001003287D01*
X0001459977Y0000984108D01*
X0001459977Y0000984108D01*
X0001463020Y0000983498D01*
X0001512953Y0000983423D01*
X0001515997Y0000984023D01*
X0001515997Y0000984023D01*
X0001562158Y0001003061D01*
X0001562158Y0001003061D01*
X0001563709Y0001004095D01*
X0001564739Y0001004782D01*
X0001564739Y0001004782D01*
X0001600103Y0001040037D01*
X0001600106Y0001040041D01*
X0001600111Y0001040045D01*
X0001600974Y0001041337D01*
X0001601830Y0001042613D01*
X0001601832Y0001042620D01*
X0001601835Y0001042624D01*
X0001602133Y0001044121D01*
X0001602440Y0001045657D01*
X0001602439Y0001045663D01*
X0001602440Y0001045669D01*
X0001602440Y0001092164D01*
X0001905864Y0001092164D01*
X0001906464Y0001089120D01*
X0001906464Y0001089120D01*
X0001925503Y0001042959D01*
X0001925503Y0001042959D01*
X0001925732Y0001042613D01*
X0001927223Y0001040376D01*
X0001927223Y0001040376D01*
X0001962478Y0001005015D01*
X0001962478Y0001005015D01*
X0001963512Y0001004321D01*
X0001965055Y0001003287D01*
X0001965055Y0001003287D01*
X0002011158Y0000984108D01*
X0002011159Y0000984108D01*
X0002014201Y0000983498D01*
X0002064134Y0000983423D01*
X0002067178Y0000984023D01*
X0002067178Y0000984023D01*
X0002113339Y0001003061D01*
X0002113340Y0001003061D01*
X0002114890Y0001004095D01*
X0002115922Y0001004782D01*
X0002115922Y0001004782D01*
X0002151284Y0001040037D01*
X0002151287Y0001040041D01*
X0002151292Y0001040045D01*
X0002152155Y0001041337D01*
X0002153012Y0001042613D01*
X0002153013Y0001042620D01*
X0002153016Y0001042624D01*
X0002153314Y0001044121D01*
X0002153622Y0001045657D01*
X0002153620Y0001045663D01*
X0002153622Y0001045669D01*
X0002153622Y0001092164D01*
X0002417675Y0001092164D01*
X0002418275Y0001089120D01*
X0002418275Y0001089120D01*
X0002437314Y0001042959D01*
X0002437314Y0001042959D01*
X0002437544Y0001042613D01*
X0002439034Y0001040376D01*
X0002439034Y0001040376D01*
X0002474289Y0001005015D01*
X0002474289Y0001005015D01*
X0002475323Y0001004321D01*
X0002476866Y0001003287D01*
X0002476866Y0001003287D01*
X0002522969Y0000984108D01*
X0002522970Y0000984108D01*
X0002526012Y0000983498D01*
X0002575945Y0000983423D01*
X0002578989Y0000984023D01*
X0002578989Y0000984023D01*
X0002625150Y0001003061D01*
X0002625151Y0001003061D01*
X0002626701Y0001004095D01*
X0002627733Y0001004782D01*
X0002627733Y0001004782D01*
X0002663095Y0001040037D01*
X0002663098Y0001040041D01*
X0002663103Y0001040045D01*
X0002663966Y0001041337D01*
X0002664823Y0001042613D01*
X0002664823Y0001042620D01*
X0002664827Y0001042624D01*
X0002665125Y0001044121D01*
X0002665433Y0001045657D01*
X0002665431Y0001045663D01*
X0002665433Y0001045669D01*
X0002665433Y0001188188D01*
X0002665433Y0001188188D01*
X0002664827Y0001191232D01*
X0002663103Y0001193812D01*
X0002628063Y0001228851D01*
X0002626769Y0001229716D01*
X0002625495Y0001230571D01*
X0002625484Y0001230575D01*
X0002625484Y0001230575D01*
X0002625484Y0001230575D01*
X0002608129Y0001237795D01*
X0002788503Y0001237795D01*
X0002793005Y0001215165D01*
X0002805823Y0001195981D01*
X0002825008Y0001183162D01*
X0002847637Y0001178661D01*
X0002870267Y0001183162D01*
X0002889451Y0001195981D01*
X0002902270Y0001215165D01*
X0002906771Y0001237795D01*
X0002902270Y0001260424D01*
X0002889451Y0001279609D01*
X0002870267Y0001292427D01*
X0002847637Y0001296929D01*
X0002825008Y0001292427D01*
X0002805823Y0001279609D01*
X0002793005Y0001260424D01*
X0002788503Y0001237795D01*
X0002608129Y0001237795D01*
X0002579392Y0001249749D01*
X0002579392Y0001249749D01*
X0002579392Y0001249749D01*
X0002576959Y0001250237D01*
X0002576349Y0001250359D01*
X0002576349Y0001250359D01*
X0002526416Y0001250435D01*
X0002523372Y0001249834D01*
X0002477211Y0001230795D01*
X0002477211Y0001230795D01*
X0002474628Y0001229075D01*
X0002439266Y0001193820D01*
X0002437539Y0001191243D01*
X0002437539Y0001191243D01*
X0002418360Y0001145140D01*
X0002418360Y0001145140D01*
X0002417750Y0001142097D01*
X0002417675Y0001092164D01*
X0002153622Y0001092164D01*
X0002153622Y0001188188D01*
X0002153622Y0001188188D01*
X0002153016Y0001191232D01*
X0002151292Y0001193812D01*
X0002116253Y0001228851D01*
X0002114958Y0001229716D01*
X0002113684Y0001230571D01*
X0002113673Y0001230575D01*
X0002113673Y0001230575D01*
X0002113673Y0001230575D01*
X0002067581Y0001249749D01*
X0002067581Y0001249749D01*
X0002067581Y0001249749D01*
X0002065148Y0001250237D01*
X0002064538Y0001250359D01*
X0002064538Y0001250359D01*
X0002014605Y0001250435D01*
X0002011561Y0001249834D01*
X0001965400Y0001230795D01*
X0001965400Y0001230795D01*
X0001962817Y0001229075D01*
X0001927455Y0001193820D01*
X0001925728Y0001191243D01*
X0001925728Y0001191243D01*
X0001906549Y0001145140D01*
X0001906549Y0001145140D01*
X0001905939Y0001142097D01*
X0001905864Y0001092164D01*
X0001602440Y0001092164D01*
X0001602440Y0001188188D01*
X0001602440Y0001188188D01*
X0001601835Y0001191232D01*
X0001600111Y0001193812D01*
X0001565072Y0001228851D01*
X0001563777Y0001229716D01*
X0001562503Y0001230571D01*
X0001562492Y0001230575D01*
X0001562492Y0001230575D01*
X0001562492Y0001230575D01*
X0001516400Y0001249749D01*
X0001516400Y0001249749D01*
X0001516400Y0001249749D01*
X0001513967Y0001250237D01*
X0001513356Y0001250359D01*
X0001513356Y0001250359D01*
X0001463424Y0001250435D01*
X0001460380Y0001249834D01*
X0001414219Y0001230795D01*
X0001414218Y0001230795D01*
X0001411636Y0001229075D01*
X0001376274Y0001193820D01*
X0001374546Y0001191243D01*
X0001374546Y0001191243D01*
X0001355368Y0001145140D01*
X0001355368Y0001145140D01*
X0001354758Y0001142097D01*
X0001354682Y0001092164D01*
X0001090629Y0001092164D01*
X0001090629Y0001188188D01*
X0001090629Y0001188188D01*
X0001090024Y0001191232D01*
X0001088300Y0001193812D01*
X0001053261Y0001228851D01*
X0001051966Y0001229716D01*
X0001050692Y0001230571D01*
X0001050681Y0001230575D01*
X0001050681Y0001230575D01*
X0001050681Y0001230575D01*
X0001004589Y0001249749D01*
X0001004589Y0001249749D01*
X0001004589Y0001249749D01*
X0001002156Y0001250237D01*
X0001001546Y0001250359D01*
X0001001546Y0001250359D01*
X0000951613Y0001250435D01*
X0000948569Y0001249834D01*
X0000902408Y0001230795D01*
X0000902407Y0001230795D01*
X0000899825Y0001229075D01*
X0000864462Y0001193820D01*
X0000862735Y0001191243D01*
X0000862735Y0001191243D01*
X0000843557Y0001145140D01*
X0000843557Y0001145140D01*
X0000842947Y0001142097D01*
X0000842871Y0001092164D01*
X0000578818Y0001092164D01*
X0000578818Y0001188188D01*
X0000578818Y0001188188D01*
X0000578213Y0001191232D01*
X0000576489Y0001193812D01*
X0000541450Y0001228851D01*
X0000540155Y0001229716D01*
X0000538881Y0001230571D01*
X0000538870Y0001230575D01*
X0000538870Y0001230575D01*
X0000538870Y0001230575D01*
X0000492778Y0001249749D01*
X0000492778Y0001249749D01*
X0000492777Y0001249749D01*
X0000490345Y0001250237D01*
X0000489735Y0001250359D01*
X0000489735Y0001250359D01*
X0000439801Y0001250435D01*
X0000436758Y0001249834D01*
X0000390597Y0001230795D01*
X0000390596Y0001230795D01*
X0000388014Y0001229075D01*
X0000352652Y0001193820D01*
X0000350923Y0001191243D01*
X0000350923Y0001191243D01*
X0000331745Y0001145140D01*
X0000331745Y0001145140D01*
X0000331136Y0001142097D01*
X0000331060Y0001092164D01*
X0000020354Y0001092164D01*
X0000020354Y0001236614D01*
X0000107007Y0001236614D01*
X0000111509Y0001213984D01*
X0000124327Y0001194800D01*
X0000143512Y0001181981D01*
X0000166141Y0001177480D01*
X0000188771Y0001181981D01*
X0000207955Y0001194800D01*
X0000220774Y0001213984D01*
X0000225275Y0001236614D01*
X0000220774Y0001259243D01*
X0000207955Y0001278428D01*
X0000188771Y0001291246D01*
X0000166141Y0001295748D01*
X0000143512Y0001291246D01*
X0000124327Y0001278428D01*
X0000111509Y0001259243D01*
X0000107007Y0001236614D01*
X0000020354Y0001236614D01*
X0000020354Y0001285689D01*
X0000027503Y0001321630D01*
X0000047562Y0001351650D01*
X0000077581Y0001371708D01*
X0000113523Y0001378858D01*
X0002908130Y0001378858D01*
X0002944072Y0001371708D01*
G01G01G01G01G01G01G01G01*
D23*
D24*
X-0000039370Y0002874015D02*
X0002400984Y0002387960D03*
X0002421291Y0002463747D03*
X0002476771Y0002519228D03*
X0002552559Y0002539535D03*
X0002628346Y0002519228D03*
X0002683826Y0002463747D03*
X0002704133Y0002387960D03*
X0002683826Y0002312173D03*
X0002628346Y0002256692D03*
X0002552559Y0002236385D03*
X0002476771Y0002256692D03*
X0002421291Y0002312173D03*
D25*
G36*
X0002944072Y0002828401D02*
X0002974091Y0002808343D01*
X0002994149Y0002778323D01*
X0003001299Y0002742382D01*
X0003001299Y0001561948D01*
X0002994149Y0001526006D01*
X0002974091Y0001495987D01*
X0002944072Y0001475928D01*
X0002908129Y0001468779D01*
X0000113523Y0001468385D01*
X0000077581Y0001475535D01*
X0000047562Y0001495593D01*
X0000027503Y0001525613D01*
X0000020354Y0001561554D01*
X0000020354Y0001608661D01*
X0000106614Y0001608661D01*
X0000111115Y0001586031D01*
X0000123934Y0001566847D01*
X0000143118Y0001554028D01*
X0000165747Y0001549527D01*
X0000188377Y0001554028D01*
X0000207561Y0001566847D01*
X0000220380Y0001586031D01*
X0000224881Y0001608661D01*
X0000220380Y0001631290D01*
X0000207561Y0001650475D01*
X0000188377Y0001663293D01*
X0000165747Y0001667795D01*
X0000143118Y0001663293D01*
X0000123934Y0001650475D01*
X0000111115Y0001631290D01*
X0000106614Y0001608661D01*
X0000020354Y0001608661D01*
X0000020354Y0002011810D01*
X0000674133Y0002011810D01*
X0000674133Y0001742124D01*
X0000674267Y0001741452D01*
X0000674267Y0001740766D01*
X0000675766Y0001733233D01*
X0000675766Y0001733233D01*
X0000676806Y0001730721D01*
X0000681073Y0001724335D01*
X0000682996Y0001722412D01*
X0000689382Y0001718144D01*
X0000689382Y0001718144D01*
X0000690853Y0001717535D01*
X0000691893Y0001717104D01*
X0000691893Y0001717104D01*
X0000699427Y0001715606D01*
X0000700114Y0001715606D01*
X0000700786Y0001715472D01*
X0000879921Y0001715472D01*
X0000880594Y0001715606D01*
X0000881280Y0001715606D01*
X0000888813Y0001717104D01*
X0000888813Y0001717104D01*
X0000891325Y0001718144D01*
X0000897712Y0001722412D01*
X0000899634Y0001724335D01*
X0000903901Y0001730721D01*
X0000903902Y0001730721D01*
X0000904942Y0001733233D01*
X0000906440Y0001740766D01*
X0000906440Y0001741452D01*
X0000906574Y0001742124D01*
X0000906574Y0001935039D01*
X0001221377Y0001935039D01*
X0001221377Y0001809054D01*
X0001221511Y0001808381D01*
X0001221511Y0001807695D01*
X0001223010Y0001800161D01*
X0001223010Y0001800161D01*
X0001224050Y0001797650D01*
X0001228317Y0001791264D01*
X0001230240Y0001789341D01*
X0001236626Y0001785074D01*
X0001236626Y0001785074D01*
X0001238098Y0001784464D01*
X0001239138Y0001784033D01*
X0001239138Y0001784033D01*
X0001246672Y0001782535D01*
X0001247358Y0001782535D01*
X0001248031Y0001782401D01*
X0001258779Y0001782401D01*
X0001258779Y0001624015D01*
X0001258913Y0001623342D01*
X0001258913Y0001622656D01*
X0001260410Y0001615123D01*
X0001260410Y0001615123D01*
X0001261452Y0001612611D01*
X0001265719Y0001606223D01*
X0001267642Y0001604302D01*
X0001274028Y0001600035D01*
X0001274028Y0001600035D01*
X0001275499Y0001599425D01*
X0001276540Y0001598994D01*
X0001276540Y0001598994D01*
X0001284073Y0001597495D01*
X0001284759Y0001597495D01*
X0001285433Y0001597362D01*
X0001740157Y0001597362D01*
X0001740830Y0001597495D01*
X0001741516Y0001597495D01*
X0001749050Y0001598994D01*
X0001749050Y0001598994D01*
X0001751561Y0001600035D01*
X0001757947Y0001604302D01*
X0001759871Y0001606223D01*
X0001762551Y0001610236D01*
X0002786929Y0001610236D01*
X0002791430Y0001587606D01*
X0002804249Y0001568422D01*
X0002823433Y0001555603D01*
X0002846062Y0001551102D01*
X0002868692Y0001555603D01*
X0002887876Y0001568422D01*
X0002900695Y0001587606D01*
X0002905196Y0001610236D01*
X0002900695Y0001632865D01*
X0002887876Y0001652050D01*
X0002868692Y0001664866D01*
X0002846062Y0001669370D01*
X0002823433Y0001664866D01*
X0002804249Y0001652050D01*
X0002791430Y0001632865D01*
X0002786929Y0001610236D01*
X0001762551Y0001610236D01*
X0001764138Y0001612611D01*
X0001764138Y0001612611D01*
X0001765178Y0001615123D01*
X0001766677Y0001622656D01*
X0001766677Y0001623342D01*
X0001766811Y0001624015D01*
X0001766811Y0001782401D01*
X0001771653Y0001782401D01*
X0001772326Y0001782535D01*
X0001773013Y0001782535D01*
X0001780546Y0001784033D01*
X0001780546Y0001784033D01*
X0001783058Y0001785074D01*
X0001789444Y0001789341D01*
X0001791367Y0001791264D01*
X0001795634Y0001797650D01*
X0001795634Y0001797650D01*
X0001796674Y0001800161D01*
X0001798173Y0001807695D01*
X0001798173Y0001808381D01*
X0001798307Y0001809054D01*
X0001798307Y0001935039D01*
X0001798173Y0001935712D01*
X0001798173Y0001936398D01*
X0001796674Y0001943932D01*
X0001795634Y0001946443D01*
X0001795634Y0001946443D01*
X0001791367Y0001952830D01*
X0001789444Y0001954752D01*
X0001783058Y0001959020D01*
X0001780546Y0001960060D01*
X0001780546Y0001960060D01*
X0001773013Y0001961559D01*
X0001772326Y0001961559D01*
X0001771653Y0001961692D01*
X0001248031Y0001961692D01*
X0001247358Y0001961559D01*
X0001246672Y0001961559D01*
X0001239138Y0001960060D01*
X0001239138Y0001960060D01*
X0001238152Y0001959651D01*
X0001236626Y0001959020D01*
X0001236626Y0001959020D01*
X0001230240Y0001954752D01*
X0001228317Y0001952830D01*
X0001224050Y0001946443D01*
X0001224050Y0001946443D01*
X0001223010Y0001943932D01*
X0001221511Y0001936398D01*
X0001221511Y0001935712D01*
X0001221377Y0001935039D01*
X0000906574Y0001935039D01*
X0000906574Y0002011810D01*
X0000906440Y0002012484D01*
X0000906440Y0002013170D01*
X0000904942Y0002020703D01*
X0000903902Y0002023215D01*
X0000903901Y0002023215D01*
X0000899634Y0002029601D01*
X0000897712Y0002031524D01*
X0000891325Y0002035791D01*
X0000888813Y0002036832D01*
X0000888813Y0002036832D01*
X0000881280Y0002038330D01*
X0000880594Y0002038330D01*
X0000879921Y0002038463D01*
X0000700786Y0002038463D01*
X0000700114Y0002038330D01*
X0000699427Y0002038330D01*
X0000691893Y0002036832D01*
X0000691893Y0002036832D01*
X0000690908Y0002036423D01*
X0000689382Y0002035791D01*
X0000689382Y0002035791D01*
X0000682996Y0002031524D01*
X0000681073Y0002029601D01*
X0000676806Y0002023215D01*
X0000676806Y0002023215D01*
X0000675766Y0002020703D01*
X0000674267Y0002013170D01*
X0000674267Y0002012484D01*
X0000674133Y0002011810D01*
X0000020354Y0002011810D01*
X0000020354Y0002363196D01*
X0002419053Y0002363196D01*
X0002419653Y0002360151D01*
X0002419653Y0002360151D01*
X0002438692Y0002313990D01*
X0002438692Y0002313990D01*
X0002438921Y0002313646D01*
X0002440412Y0002311407D01*
X0002440412Y0002311407D01*
X0002475667Y0002276046D01*
X0002475667Y0002276046D01*
X0002476701Y0002275352D01*
X0002478244Y0002274318D01*
X0002478244Y0002274318D01*
X0002524347Y0002255140D01*
X0002524347Y0002255140D01*
X0002527390Y0002254530D01*
X0002577323Y0002254454D01*
X0002580367Y0002255055D01*
X0002580367Y0002255055D01*
X0002626528Y0002274094D01*
X0002626528Y0002274094D01*
X0002628079Y0002275126D01*
X0002629111Y0002275814D01*
X0002629111Y0002275814D01*
X0002664473Y0002311068D01*
X0002664476Y0002311073D01*
X0002664481Y0002311077D01*
X0002665344Y0002312368D01*
X0002666201Y0002313646D01*
X0002666202Y0002313652D01*
X0002666205Y0002313657D01*
X0002666503Y0002315153D01*
X0002666811Y0002316688D01*
X0002666809Y0002316694D01*
X0002666811Y0002316700D01*
X0002666811Y0002459220D01*
X0002666811Y0002459220D01*
X0002666205Y0002462263D01*
X0002664481Y0002464843D01*
X0002629441Y0002499883D01*
X0002628147Y0002500748D01*
X0002626873Y0002501602D01*
X0002626862Y0002501607D01*
X0002626862Y0002501607D01*
X0002626862Y0002501607D01*
X0002580770Y0002520780D01*
X0002580770Y0002520780D01*
X0002580770Y0002520780D01*
X0002578336Y0002521268D01*
X0002577727Y0002521390D01*
X0002577727Y0002521390D01*
X0002527794Y0002521466D01*
X0002524750Y0002520865D01*
X0002478589Y0002501827D01*
X0002478589Y0002501827D01*
X0002476006Y0002500106D01*
X0002440644Y0002464852D01*
X0002438917Y0002462274D01*
X0002438917Y0002462274D01*
X0002419738Y0002416171D01*
X0002419738Y0002416171D01*
X0002419128Y0002413129D01*
X0002419053Y0002363196D01*
X0000020354Y0002363196D01*
X0000020354Y0002693307D01*
X0000107007Y0002693307D01*
X0000111509Y0002670677D01*
X0000124327Y0002651493D01*
X0000143512Y0002638673D01*
X0000166141Y0002634173D01*
X0000188771Y0002638673D01*
X0000207955Y0002651493D01*
X0000220774Y0002670677D01*
X0000225275Y0002693307D01*
X0000225040Y0002694488D01*
X0002788503Y0002694488D01*
X0002793005Y0002671858D01*
X0002805823Y0002652674D01*
X0002825008Y0002639855D01*
X0002847637Y0002635353D01*
X0002870267Y0002639855D01*
X0002889451Y0002652674D01*
X0002902270Y0002671858D01*
X0002906771Y0002694488D01*
X0002902270Y0002717117D01*
X0002889451Y0002736301D01*
X0002870267Y0002749120D01*
X0002847637Y0002753622D01*
X0002825008Y0002749120D01*
X0002805823Y0002736301D01*
X0002793005Y0002717117D01*
X0002788503Y0002694488D01*
X0000225040Y0002694488D01*
X0000220774Y0002715936D01*
X0000207955Y0002735121D01*
X0000188771Y0002747939D01*
X0000166141Y0002752440D01*
X0000143512Y0002747939D01*
X0000124327Y0002735121D01*
X0000111509Y0002715936D01*
X0000107007Y0002693307D01*
X0000020354Y0002693307D01*
X0000020354Y0002742382D01*
X0000027503Y0002778323D01*
X0000047562Y0002808343D01*
X0000077581Y0002828401D01*
X0000113523Y0002835551D01*
X0002908130Y0002835551D01*
X0002944072Y0002828401D01*
X0002944072Y0002828401D01*
G37*
X0002944072Y0002828401D02*
X0002974091Y0002808343D01*
X0002994149Y0002778323D01*
X0003001299Y0002742382D01*
X0003001299Y0001561948D01*
X0002994149Y0001526006D01*
X0002974091Y0001495987D01*
X0002944072Y0001475928D01*
X0002908129Y0001468779D01*
X0000113523Y0001468385D01*
X0000077581Y0001475535D01*
X0000047562Y0001495593D01*
X0000027503Y0001525613D01*
X0000020354Y0001561554D01*
X0000020354Y0001608661D01*
X0000106614Y0001608661D01*
X0000111115Y0001586031D01*
X0000123934Y0001566847D01*
X0000143118Y0001554028D01*
X0000165747Y0001549527D01*
X0000188377Y0001554028D01*
X0000207561Y0001566847D01*
X0000220380Y0001586031D01*
X0000224881Y0001608661D01*
X0000220380Y0001631290D01*
X0000207561Y0001650475D01*
X0000188377Y0001663293D01*
X0000165747Y0001667795D01*
X0000143118Y0001663293D01*
X0000123934Y0001650475D01*
X0000111115Y0001631290D01*
X0000106614Y0001608661D01*
X0000020354Y0001608661D01*
X0000020354Y0002011810D01*
X0000674133Y0002011810D01*
X0000674133Y0001742124D01*
X0000674267Y0001741452D01*
X0000674267Y0001740766D01*
X0000675766Y0001733233D01*
X0000675766Y0001733233D01*
X0000676806Y0001730721D01*
X0000681073Y0001724335D01*
X0000682996Y0001722412D01*
X0000689382Y0001718144D01*
X0000689382Y0001718144D01*
X0000690853Y0001717535D01*
X0000691893Y0001717104D01*
X0000691893Y0001717104D01*
X0000699427Y0001715606D01*
X0000700114Y0001715606D01*
X0000700786Y0001715472D01*
X0000879921Y0001715472D01*
X0000880594Y0001715606D01*
X0000881280Y0001715606D01*
X0000888813Y0001717104D01*
X0000888813Y0001717104D01*
X0000891325Y0001718144D01*
X0000897712Y0001722412D01*
X0000899634Y0001724335D01*
X0000903901Y0001730721D01*
X0000903902Y0001730721D01*
X0000904942Y0001733233D01*
X0000906440Y0001740766D01*
X0000906440Y0001741452D01*
X0000906574Y0001742124D01*
X0000906574Y0001935039D01*
X0001221377Y0001935039D01*
X0001221377Y0001809054D01*
X0001221511Y0001808381D01*
X0001221511Y0001807695D01*
X0001223010Y0001800161D01*
X0001223010Y0001800161D01*
X0001224050Y0001797650D01*
X0001228317Y0001791264D01*
X0001230240Y0001789341D01*
X0001236626Y0001785074D01*
X0001236626Y0001785074D01*
X0001238098Y0001784464D01*
X0001239138Y0001784033D01*
X0001239138Y0001784033D01*
X0001246672Y0001782535D01*
X0001247358Y0001782535D01*
X0001248031Y0001782401D01*
X0001258779Y0001782401D01*
X0001258779Y0001624015D01*
X0001258913Y0001623342D01*
X0001258913Y0001622656D01*
X0001260410Y0001615123D01*
X0001260410Y0001615123D01*
X0001261452Y0001612611D01*
X0001265719Y0001606223D01*
X0001267642Y0001604302D01*
X0001274028Y0001600035D01*
X0001274028Y0001600035D01*
X0001275499Y0001599425D01*
X0001276540Y0001598994D01*
X0001276540Y0001598994D01*
X0001284073Y0001597495D01*
X0001284759Y0001597495D01*
X0001285433Y0001597362D01*
X0001740157Y0001597362D01*
X0001740830Y0001597495D01*
X0001741516Y0001597495D01*
X0001749050Y0001598994D01*
X0001749050Y0001598994D01*
X0001751561Y0001600035D01*
X0001757947Y0001604302D01*
X0001759871Y0001606223D01*
X0001762551Y0001610236D01*
X0002786929Y0001610236D01*
X0002791430Y0001587606D01*
X0002804249Y0001568422D01*
X0002823433Y0001555603D01*
X0002846062Y0001551102D01*
X0002868692Y0001555603D01*
X0002887876Y0001568422D01*
X0002900695Y0001587606D01*
X0002905196Y0001610236D01*
X0002900695Y0001632865D01*
X0002887876Y0001652050D01*
X0002868692Y0001664866D01*
X0002846062Y0001669370D01*
X0002823433Y0001664866D01*
X0002804249Y0001652050D01*
X0002791430Y0001632865D01*
X0002786929Y0001610236D01*
X0001762551Y0001610236D01*
X0001764138Y0001612611D01*
X0001764138Y0001612611D01*
X0001765178Y0001615123D01*
X0001766677Y0001622656D01*
X0001766677Y0001623342D01*
X0001766811Y0001624015D01*
X0001766811Y0001782401D01*
X0001771653Y0001782401D01*
X0001772326Y0001782535D01*
X0001773013Y0001782535D01*
X0001780546Y0001784033D01*
X0001780546Y0001784033D01*
X0001783058Y0001785074D01*
X0001789444Y0001789341D01*
X0001791367Y0001791264D01*
X0001795634Y0001797650D01*
X0001795634Y0001797650D01*
X0001796674Y0001800161D01*
X0001798173Y0001807695D01*
X0001798173Y0001808381D01*
X0001798307Y0001809054D01*
X0001798307Y0001935039D01*
X0001798173Y0001935712D01*
X0001798173Y0001936398D01*
X0001796674Y0001943932D01*
X0001795634Y0001946443D01*
X0001795634Y0001946443D01*
X0001791367Y0001952830D01*
X0001789444Y0001954752D01*
X0001783058Y0001959020D01*
X0001780546Y0001960060D01*
X0001780546Y0001960060D01*
X0001773013Y0001961559D01*
X0001772326Y0001961559D01*
X0001771653Y0001961692D01*
X0001248031Y0001961692D01*
X0001247358Y0001961559D01*
X0001246672Y0001961559D01*
X0001239138Y0001960060D01*
X0001239138Y0001960060D01*
X0001238152Y0001959651D01*
X0001236626Y0001959020D01*
X0001236626Y0001959020D01*
X0001230240Y0001954752D01*
X0001228317Y0001952830D01*
X0001224050Y0001946443D01*
X0001224050Y0001946443D01*
X0001223010Y0001943932D01*
X0001221511Y0001936398D01*
X0001221511Y0001935712D01*
X0001221377Y0001935039D01*
X0000906574Y0001935039D01*
X0000906574Y0002011810D01*
X0000906440Y0002012484D01*
X0000906440Y0002013170D01*
X0000904942Y0002020703D01*
X0000903902Y0002023215D01*
X0000903901Y0002023215D01*
X0000899634Y0002029601D01*
X0000897712Y0002031524D01*
X0000891325Y0002035791D01*
X0000888813Y0002036832D01*
X0000888813Y0002036832D01*
X0000881280Y0002038330D01*
X0000880594Y0002038330D01*
X0000879921Y0002038463D01*
X0000700786Y0002038463D01*
X0000700114Y0002038330D01*
X0000699427Y0002038330D01*
X0000691893Y0002036832D01*
X0000691893Y0002036832D01*
X0000690908Y0002036423D01*
X0000689382Y0002035791D01*
X0000689382Y0002035791D01*
X0000682996Y0002031524D01*
X0000681073Y0002029601D01*
X0000676806Y0002023215D01*
X0000676806Y0002023215D01*
X0000675766Y0002020703D01*
X0000674267Y0002013170D01*
X0000674267Y0002012484D01*
X0000674133Y0002011810D01*
X0000020354Y0002011810D01*
X0000020354Y0002363196D01*
X0002419053Y0002363196D01*
X0002419653Y0002360151D01*
X0002419653Y0002360151D01*
X0002438692Y0002313990D01*
X0002438692Y0002313990D01*
X0002438921Y0002313646D01*
X0002440412Y0002311407D01*
X0002440412Y0002311407D01*
X0002475667Y0002276046D01*
X0002475667Y0002276046D01*
X0002476701Y0002275352D01*
X0002478244Y0002274318D01*
X0002478244Y0002274318D01*
X0002524347Y0002255140D01*
X0002524347Y0002255140D01*
X0002527390Y0002254530D01*
X0002577323Y0002254454D01*
X0002580367Y0002255055D01*
X0002580367Y0002255055D01*
X0002626528Y0002274094D01*
X0002626528Y0002274094D01*
X0002628079Y0002275126D01*
X0002629111Y0002275814D01*
X0002629111Y0002275814D01*
X0002664473Y0002311068D01*
X0002664476Y0002311073D01*
X0002664481Y0002311077D01*
X0002665344Y0002312368D01*
X0002666201Y0002313646D01*
X0002666202Y0002313652D01*
X0002666205Y0002313657D01*
X0002666503Y0002315153D01*
X0002666811Y0002316688D01*
X0002666809Y0002316694D01*
X0002666811Y0002316700D01*
X0002666811Y0002459220D01*
X0002666811Y0002459220D01*
X0002666205Y0002462263D01*
X0002664481Y0002464843D01*
X0002629441Y0002499883D01*
X0002628147Y0002500748D01*
X0002626873Y0002501602D01*
X0002626862Y0002501607D01*
X0002626862Y0002501607D01*
X0002626862Y0002501607D01*
X0002580770Y0002520780D01*
X0002580770Y0002520780D01*
X0002580770Y0002520780D01*
X0002578336Y0002521268D01*
X0002577727Y0002521390D01*
X0002577727Y0002521390D01*
X0002527794Y0002521466D01*
X0002524750Y0002520865D01*
X0002478589Y0002501827D01*
X0002478589Y0002501827D01*
X0002476006Y0002500106D01*
X0002440644Y0002464852D01*
X0002438917Y0002462274D01*
X0002438917Y0002462274D01*
X0002419738Y0002416171D01*
X0002419738Y0002416171D01*
X0002419128Y0002413129D01*
X0002419053Y0002363196D01*
X0000020354Y0002363196D01*
X0000020354Y0002693307D01*
X0000107007Y0002693307D01*
X0000111509Y0002670677D01*
X0000124327Y0002651493D01*
X0000143512Y0002638673D01*
X0000166141Y0002634173D01*
X0000188771Y0002638673D01*
X0000207955Y0002651493D01*
X0000220774Y0002670677D01*
X0000225275Y0002693307D01*
X0000225040Y0002694488D01*
X0002788503Y0002694488D01*
X0002793005Y0002671858D01*
X0002805823Y0002652674D01*
X0002825008Y0002639855D01*
X0002847637Y0002635353D01*
X0002870267Y0002639855D01*
X0002889451Y0002652674D01*
X0002902270Y0002671858D01*
X0002906771Y0002694488D01*
X0002902270Y0002717117D01*
X0002889451Y0002736301D01*
X0002870267Y0002749120D01*
X0002847637Y0002753622D01*
X0002825008Y0002749120D01*
X0002805823Y0002736301D01*
X0002793005Y0002717117D01*
X0002788503Y0002694488D01*
X0000225040Y0002694488D01*
X0000220774Y0002715936D01*
X0000207955Y0002735121D01*
X0000188771Y0002747939D01*
X0000166141Y0002752440D01*
X0000143512Y0002747939D01*
X0000124327Y0002735121D01*
X0000111509Y0002715936D01*
X0000107007Y0002693307D01*
X0000020354Y0002693307D01*
X0000020354Y0002742382D01*
X0000027503Y0002778323D01*
X0000047562Y0002808343D01*
X0000077581Y0002828401D01*
X0000113523Y0002835551D01*
X0002908130Y0002835551D01*
X0002944072Y0002828401D01*
G01G01G01G01G01G01G01G01*
D36*
D37*
X0000118110Y0003228346D02*
X0000480708Y0003083464D03*
D38*
G36*
X0000323943Y0003207712D02*
X0000337441Y0003199845D01*
X0000337463Y0003199838D01*
X0000337481Y0003199822D01*
X0000351521Y0003191799D01*
X0000352349Y0003191523D01*
X0000353156Y0003191190D01*
X0000377305Y0003186440D01*
X0000377831Y0003186441D01*
X0000378346Y0003186338D01*
X0000480177Y0003186338D01*
X0000520016Y0003178413D01*
X0000553342Y0003156146D01*
X0000575609Y0003122822D01*
X0000583428Y0003083512D01*
X0000575609Y0003044203D01*
X0000553342Y0003010878D01*
X0000520016Y0002988611D01*
X0000480420Y0002980735D01*
X0000378346Y0002980735D01*
X0000378024Y0002980671D01*
X0000377696Y0002980696D01*
X0000362602Y0002978864D01*
X0000361792Y0002978599D01*
X0000360965Y0002978395D01*
X0000338658Y0002967953D01*
X0000338614Y0002967920D01*
X0000338561Y0002967906D01*
X0000313282Y0002955453D01*
X0000297191Y0002953128D01*
X0000127834Y0002953291D01*
X0000127834Y0003213768D01*
X0000296956Y0003213768D01*
X0000323943Y0003207712D01*
X0000323943Y0003207712D01*
G37*
X0000323943Y0003207712D02*
X0000337441Y0003199845D01*
X0000337463Y0003199838D01*
X0000337481Y0003199822D01*
X0000351521Y0003191799D01*
X0000352349Y0003191523D01*
X0000353156Y0003191190D01*
X0000377305Y0003186440D01*
X0000377831Y0003186441D01*
X0000378346Y0003186338D01*
X0000480177Y0003186338D01*
X0000520016Y0003178413D01*
X0000553342Y0003156146D01*
X0000575609Y0003122822D01*
X0000583428Y0003083512D01*
X0000575609Y0003044203D01*
X0000553342Y0003010878D01*
X0000520016Y0002988611D01*
X0000480420Y0002980735D01*
X0000378346Y0002980735D01*
X0000378024Y0002980671D01*
X0000377696Y0002980696D01*
X0000362602Y0002978864D01*
X0000361792Y0002978599D01*
X0000360965Y0002978395D01*
X0000338658Y0002967953D01*
X0000338614Y0002967920D01*
X0000338561Y0002967906D01*
X0000313282Y0002955453D01*
X0000297191Y0002953128D01*
X0000127834Y0002953291D01*
X0000127834Y0003213768D01*
X0000296956Y0003213768D01*
X0000323943Y0003207712D01*
G01G01G01G01G01G01G01G01*
D49*
D50*
X0000118110Y0003582677D02*
X0000480708Y0003437795D03*
D51*
G36*
X0000323943Y0003562042D02*
X0000337441Y0003554176D01*
X0000337463Y0003554168D01*
X0000337481Y0003554153D01*
X0000351521Y0003546130D01*
X0000352349Y0003545853D01*
X0000353156Y0003545521D01*
X0000377305Y0003540770D01*
X0000377831Y0003540771D01*
X0000378346Y0003540669D01*
X0000480177Y0003540669D01*
X0000520016Y0003532744D01*
X0000553342Y0003510477D01*
X0000575609Y0003477152D01*
X0000583428Y0003437843D01*
X0000575609Y0003398534D01*
X0000553342Y0003365209D01*
X0000520016Y0003342942D01*
X0000480420Y0003335066D01*
X0000378346Y0003335066D01*
X0000378024Y0003335002D01*
X0000377696Y0003335025D01*
X0000362602Y0003333195D01*
X0000361792Y0003332929D01*
X0000360965Y0003332726D01*
X0000338658Y0003322283D01*
X0000338614Y0003322251D01*
X0000338561Y0003322237D01*
X0000313282Y0003309784D01*
X0000297191Y0003307459D01*
X0000127834Y0003307621D01*
X0000127834Y0003568099D01*
X0000296956Y0003568099D01*
X0000323943Y0003562042D01*
X0000323943Y0003562042D01*
G37*
X0000323943Y0003562042D02*
X0000337441Y0003554176D01*
X0000337463Y0003554168D01*
X0000337481Y0003554153D01*
X0000351521Y0003546130D01*
X0000352349Y0003545853D01*
X0000353156Y0003545521D01*
X0000377305Y0003540770D01*
X0000377831Y0003540771D01*
X0000378346Y0003540669D01*
X0000480177Y0003540669D01*
X0000520016Y0003532744D01*
X0000553342Y0003510477D01*
X0000575609Y0003477152D01*
X0000583428Y0003437843D01*
X0000575609Y0003398534D01*
X0000553342Y0003365209D01*
X0000520016Y0003342942D01*
X0000480420Y0003335066D01*
X0000378346Y0003335066D01*
X0000378024Y0003335002D01*
X0000377696Y0003335025D01*
X0000362602Y0003333195D01*
X0000361792Y0003332929D01*
X0000360965Y0003332726D01*
X0000338658Y0003322283D01*
X0000338614Y0003322251D01*
X0000338561Y0003322237D01*
X0000313282Y0003309784D01*
X0000297191Y0003307459D01*
X0000127834Y0003307621D01*
X0000127834Y0003568099D01*
X0000296956Y0003568099D01*
X0000323943Y0003562042D01*
G04 next file*
G01G01G01G01G01G01G01G01*
D62*
D63*
X0000669291Y0003228346D02*
X0001031889Y0003083464D03*
D64*
G36*
X0000875124Y0003207712D02*
X0000888622Y0003199845D01*
X0000888644Y0003199838D01*
X0000888662Y0003199822D01*
X0000902702Y0003191799D01*
X0000903530Y0003191523D01*
X0000904337Y0003191190D01*
X0000928486Y0003186440D01*
X0000929012Y0003186441D01*
X0000929526Y0003186338D01*
X0001031358Y0003186338D01*
X0001071199Y0003178413D01*
X0001104523Y0003156146D01*
X0001126790Y0003122822D01*
X0001134609Y0003083512D01*
X0001126790Y0003044203D01*
X0001104523Y0003010878D01*
X0001071199Y0002988611D01*
X0001031601Y0002980735D01*
X0000929526Y0002980735D01*
X0000929205Y0002980671D01*
X0000928877Y0002980696D01*
X0000913783Y0002978864D01*
X0000912972Y0002978599D01*
X0000912146Y0002978395D01*
X0000889839Y0002967953D01*
X0000889795Y0002967920D01*
X0000889742Y0002967906D01*
X0000864462Y0002955453D01*
X0000848372Y0002953128D01*
X0000679015Y0002953291D01*
X0000679015Y0003213768D01*
X0000848137Y0003213768D01*
X0000875124Y0003207712D01*
X0000875124Y0003207712D01*
G37*
X0000875124Y0003207712D02*
X0000888622Y0003199845D01*
X0000888644Y0003199838D01*
X0000888662Y0003199822D01*
X0000902702Y0003191799D01*
X0000903530Y0003191523D01*
X0000904337Y0003191190D01*
X0000928486Y0003186440D01*
X0000929012Y0003186441D01*
X0000929526Y0003186338D01*
X0001031358Y0003186338D01*
X0001071199Y0003178413D01*
X0001104523Y0003156146D01*
X0001126790Y0003122822D01*
X0001134609Y0003083512D01*
X0001126790Y0003044203D01*
X0001104523Y0003010878D01*
X0001071199Y0002988611D01*
X0001031601Y0002980735D01*
X0000929526Y0002980735D01*
X0000929205Y0002980671D01*
X0000928877Y0002980696D01*
X0000913783Y0002978864D01*
X0000912972Y0002978599D01*
X0000912146Y0002978395D01*
X0000889839Y0002967953D01*
X0000889795Y0002967920D01*
X0000889742Y0002967906D01*
X0000864462Y0002955453D01*
X0000848372Y0002953128D01*
X0000679015Y0002953291D01*
X0000679015Y0003213768D01*
X0000848137Y0003213768D01*
X0000875124Y0003207712D01*
G01G01G01G01G01G01G01G01*
D75*
D76*
X0000669291Y0003582677D02*
X0001031889Y0003437795D03*
D77*
G36*
X0000875124Y0003562042D02*
X0000888622Y0003554176D01*
X0000888644Y0003554168D01*
X0000888662Y0003554153D01*
X0000902702Y0003546130D01*
X0000903530Y0003545853D01*
X0000904337Y0003545521D01*
X0000928486Y0003540770D01*
X0000929012Y0003540771D01*
X0000929526Y0003540669D01*
X0001031358Y0003540669D01*
X0001071199Y0003532744D01*
X0001104523Y0003510477D01*
X0001126790Y0003477152D01*
X0001134609Y0003437843D01*
X0001126790Y0003398534D01*
X0001104523Y0003365209D01*
X0001071199Y0003342942D01*
X0001031601Y0003335066D01*
X0000929526Y0003335066D01*
X0000929205Y0003335002D01*
X0000928877Y0003335025D01*
X0000913783Y0003333195D01*
X0000912972Y0003332929D01*
X0000912146Y0003332726D01*
X0000889839Y0003322283D01*
X0000889795Y0003322251D01*
X0000889742Y0003322237D01*
X0000864462Y0003309784D01*
X0000848372Y0003307459D01*
X0000679015Y0003307621D01*
X0000679015Y0003568099D01*
X0000848137Y0003568099D01*
X0000875124Y0003562042D01*
X0000875124Y0003562042D01*
G37*
X0000875124Y0003562042D02*
X0000888622Y0003554176D01*
X0000888644Y0003554168D01*
X0000888662Y0003554153D01*
X0000902702Y0003546130D01*
X0000903530Y0003545853D01*
X0000904337Y0003545521D01*
X0000928486Y0003540770D01*
X0000929012Y0003540771D01*
X0000929526Y0003540669D01*
X0001031358Y0003540669D01*
X0001071199Y0003532744D01*
X0001104523Y0003510477D01*
X0001126790Y0003477152D01*
X0001134609Y0003437843D01*
X0001126790Y0003398534D01*
X0001104523Y0003365209D01*
X0001071199Y0003342942D01*
X0001031601Y0003335066D01*
X0000929526Y0003335066D01*
X0000929205Y0003335002D01*
X0000928877Y0003335025D01*
X0000913783Y0003333195D01*
X0000912972Y0003332929D01*
X0000912146Y0003332726D01*
X0000889839Y0003322283D01*
X0000889795Y0003322251D01*
X0000889742Y0003322237D01*
X0000864462Y0003309784D01*
X0000848372Y0003307459D01*
X0000679015Y0003307621D01*
X0000679015Y0003568099D01*
X0000848137Y0003568099D01*
X0000875124Y0003562042D01*
G04 next file*
G01G01G01G01G01G01G01G01*
D88*
D89*
G36*
X0001788566Y0003078355D02*
X0001787760Y0003080302D01*
X0001787760Y0003080302D01*
X0001783493Y0003086687D01*
X0001781570Y0003088611D01*
X0001775184Y0003092878D01*
X0001772672Y0003093918D01*
X0001772672Y0003093918D01*
X0001765139Y0003095416D01*
X0001764450Y0003095416D01*
X0001763779Y0003095551D01*
X0001255905Y0003095551D01*
X0001255232Y0003095416D01*
X0001254546Y0003095416D01*
X0001247012Y0003093918D01*
X0001247012Y0003093918D01*
X0001246026Y0003093510D01*
X0001244500Y0003092878D01*
X0001244500Y0003092878D01*
X0001238114Y0003088611D01*
X0001236192Y0003086687D01*
X0001231924Y0003080302D01*
X0001231924Y0003080302D01*
X0001230884Y0003077789D01*
X0001229385Y0003070257D01*
X0001229385Y0003069570D01*
X0001229251Y0003068897D01*
X0001229251Y0002958661D01*
X0001229385Y0002957988D01*
X0001229385Y0002957301D01*
X0001230884Y0002949768D01*
X0001230884Y0002949768D01*
X0001231924Y0002947256D01*
X0001236191Y0002940870D01*
X0001238114Y0002938947D01*
X0001244500Y0002934680D01*
X0001244500Y0002934680D01*
X0001245972Y0002934071D01*
X0001247012Y0002933640D01*
X0001247012Y0002933640D01*
X0001254546Y0002932141D01*
X0001255232Y0002932141D01*
X0001255905Y0002932007D01*
X0001763779Y0002932007D01*
X0001764450Y0002932141D01*
X0001765139Y0002932141D01*
X0001772672Y0002933640D01*
X0001772672Y0002933640D01*
X0001775184Y0002934680D01*
X0001781570Y0002938947D01*
X0001783493Y0002940870D01*
X0001787760Y0002947256D01*
X0001787760Y0002947256D01*
X0001788800Y0002949768D01*
X0001789645Y0002954014D01*
X0001789838Y0002931771D01*
X0001228972Y0002931771D01*
X0001227484Y0003103267D01*
X0001788350Y0003103267D01*
X0001788566Y0003078355D01*
X0001788566Y0003078355D01*
G37*
X0001788566Y0003078355D02*
X0001787760Y0003080302D01*
X0001787760Y0003080302D01*
X0001783493Y0003086687D01*
X0001781570Y0003088611D01*
X0001775184Y0003092878D01*
X0001772672Y0003093918D01*
X0001772672Y0003093918D01*
X0001765139Y0003095416D01*
X0001764450Y0003095416D01*
X0001763779Y0003095551D01*
X0001255905Y0003095551D01*
X0001255232Y0003095416D01*
X0001254546Y0003095416D01*
X0001247012Y0003093918D01*
X0001247012Y0003093918D01*
X0001246026Y0003093510D01*
X0001244500Y0003092878D01*
X0001244500Y0003092878D01*
X0001238114Y0003088611D01*
X0001236192Y0003086687D01*
X0001231924Y0003080302D01*
X0001231924Y0003080302D01*
X0001230884Y0003077789D01*
X0001229385Y0003070257D01*
X0001229385Y0003069570D01*
X0001229251Y0003068897D01*
X0001229251Y0002958661D01*
X0001229385Y0002957988D01*
X0001229385Y0002957301D01*
X0001230884Y0002949768D01*
X0001230884Y0002949768D01*
X0001231924Y0002947256D01*
X0001236191Y0002940870D01*
X0001238114Y0002938947D01*
X0001244500Y0002934680D01*
X0001244500Y0002934680D01*
X0001245972Y0002934071D01*
X0001247012Y0002933640D01*
X0001247012Y0002933640D01*
X0001254546Y0002932141D01*
X0001255232Y0002932141D01*
X0001255905Y0002932007D01*
X0001763779Y0002932007D01*
X0001764450Y0002932141D01*
X0001765139Y0002932141D01*
X0001772672Y0002933640D01*
X0001772672Y0002933640D01*
X0001775184Y0002934680D01*
X0001781570Y0002938947D01*
X0001783493Y0002940870D01*
X0001787760Y0002947256D01*
X0001787760Y0002947256D01*
X0001788800Y0002949768D01*
X0001789645Y0002954014D01*
X0001789838Y0002931771D01*
X0001228972Y0002931771D01*
X0001227484Y0003103267D01*
X0001788350Y0003103267D01*
X0001788566Y0003078355D01*
G36*
X0001768593Y0003080520D02*
X0001772674Y0003077793D01*
X0001775401Y0003073711D01*
X0001776496Y0003068211D01*
X0001776496Y0002959347D01*
X0001775401Y0002953847D01*
X0001772674Y0002949766D01*
X0001768593Y0002947038D01*
X0001763093Y0002945944D01*
X0001256591Y0002945944D01*
X0001251091Y0002947038D01*
X0001247010Y0002949766D01*
X0001244283Y0002953847D01*
X0001243188Y0002959347D01*
X0001243188Y0003068211D01*
X0001244283Y0003073711D01*
X0001247010Y0003077793D01*
X0001251091Y0003080520D01*
X0001256591Y0003081614D01*
X0001763093Y0003081614D01*
X0001768593Y0003080520D01*
X0001768593Y0003080520D01*
G37*
X0001768593Y0003080520D02*
X0001772674Y0003077793D01*
X0001775401Y0003073711D01*
X0001776496Y0003068211D01*
X0001776496Y0002959347D01*
X0001775401Y0002953847D01*
X0001772674Y0002949766D01*
X0001768593Y0002947038D01*
X0001763093Y0002945944D01*
X0001256591Y0002945944D01*
X0001251091Y0002947038D01*
X0001247010Y0002949766D01*
X0001244283Y0002953847D01*
X0001243188Y0002959347D01*
X0001243188Y0003068211D01*
X0001244283Y0003073711D01*
X0001247010Y0003077793D01*
X0001251091Y0003080520D01*
X0001256591Y0003081614D01*
X0001763093Y0003081614D01*
X0001768593Y0003080520D01*
G04 next file*
G04 #@! TF.FileFunction,Copper,L1,Top,Signal*
G04 Gerber Fmt 4.6, Leading zero omitted, Abs format (unit mm)*
G04 Created by KiCad (PCBNEW (2016-07-22 BZR 6991, Git 146a78a)-product) date 08/19/16 17:37:13*
G01G01G01G01G01G01G01G01*
G04 APERTURE LIST*
G04 APERTURE END LIST*
D100*
D101*
G36*
X0001225523Y0003361141D02*
X0001727333Y0003361141D01*
X0001727587Y0003336121D01*
X0001726736Y0003338176D01*
X0001722469Y0003344561D01*
X0001720546Y0003346485D01*
X0001714160Y0003350752D01*
X0001714160Y0003350752D01*
X0001712689Y0003351360D01*
X0001711648Y0003351792D01*
X0001711648Y0003351792D01*
X0001704115Y0003353291D01*
X0001703429Y0003353291D01*
X0001702755Y0003353424D01*
X0001263779Y0003353424D01*
X0001263106Y0003353291D01*
X0001262420Y0003353291D01*
X0001254886Y0003351792D01*
X0001254886Y0003351792D01*
X0001252374Y0003350752D01*
X0001245988Y0003346485D01*
X0001244065Y0003344561D01*
X0001239798Y0003338176D01*
X0001239798Y0003338176D01*
X0001238758Y0003335664D01*
X0001237259Y0003328130D01*
X0001237259Y0003327444D01*
X0001237125Y0003326771D01*
X0001237125Y0003169291D01*
X0001237656Y0003166623D01*
X0001239167Y0003164363D01*
X0001241427Y0003162853D01*
X0001244094Y0003162322D01*
X0001722440Y0003162322D01*
X0001725107Y0003162853D01*
X0001727368Y0003164363D01*
X0001728879Y0003166623D01*
X0001729286Y0003168672D01*
X0001729429Y0003154606D01*
X0001227618Y0003154606D01*
X0001225523Y0003361141D01*
X0001225523Y0003361141D01*
G37*
X0001225523Y0003361141D02*
X0001727333Y0003361141D01*
X0001727587Y0003336121D01*
X0001726736Y0003338176D01*
X0001722469Y0003344561D01*
X0001720546Y0003346485D01*
X0001714160Y0003350752D01*
X0001714160Y0003350752D01*
X0001712689Y0003351360D01*
X0001711648Y0003351792D01*
X0001711648Y0003351792D01*
X0001704115Y0003353291D01*
X0001703429Y0003353291D01*
X0001702755Y0003353424D01*
X0001263779Y0003353424D01*
X0001263106Y0003353291D01*
X0001262420Y0003353291D01*
X0001254886Y0003351792D01*
X0001254886Y0003351792D01*
X0001252374Y0003350752D01*
X0001245988Y0003346485D01*
X0001244065Y0003344561D01*
X0001239798Y0003338176D01*
X0001239798Y0003338176D01*
X0001238758Y0003335664D01*
X0001237259Y0003328130D01*
X0001237259Y0003327444D01*
X0001237125Y0003326771D01*
X0001237125Y0003169291D01*
X0001237656Y0003166623D01*
X0001239167Y0003164363D01*
X0001241427Y0003162853D01*
X0001244094Y0003162322D01*
X0001722440Y0003162322D01*
X0001725107Y0003162853D01*
X0001727368Y0003164363D01*
X0001728879Y0003166623D01*
X0001729286Y0003168672D01*
X0001729429Y0003154606D01*
X0001227618Y0003154606D01*
X0001225523Y0003361141D01*
G36*
X0001251062Y0003326085D02*
X0001252157Y0003331585D01*
X0001254884Y0003335666D01*
X0001258965Y0003338394D01*
X0001264465Y0003339488D01*
X0001702069Y0003339488D01*
X0001707570Y0003338394D01*
X0001711651Y0003335666D01*
X0001714378Y0003331585D01*
X0001715472Y0003326085D01*
X0001715472Y0003176259D01*
X0001251062Y0003176259D01*
X0001251062Y0003326085D01*
X0001251062Y0003326085D01*
G37*
X0001251062Y0003326085D02*
X0001252157Y0003331585D01*
X0001254884Y0003335666D01*
X0001258965Y0003338394D01*
X0001264465Y0003339488D01*
X0001702069Y0003339488D01*
X0001707570Y0003338394D01*
X0001711651Y0003335666D01*
X0001714378Y0003331585D01*
X0001715472Y0003326085D01*
X0001715472Y0003176259D01*
X0001251062Y0003176259D01*
X0001251062Y0003326085D01*
M02*