%
M48
METRIC,000.000
T01C0.46
T03C0.46
T05C3.00
T07C3.00
T09C3.00
T11C3.00
T13C0.50
%
T01
X007570Y028209
X007570Y014209
X008086Y030135
X008086Y026284
X008086Y016134
X008086Y012284
X009493Y031544
X009493Y024874
X009493Y017544
X009493Y010876
X011419Y032060
X011419Y024359
X011419Y018060
X011419Y010361
X013344Y031544
X013344Y024874
X013344Y017544
X013344Y010876
X014754Y030135
X014754Y026284
X014754Y016134
X014754Y012284
X015269Y028209
X015269Y014209
X020570Y028209
X020570Y014209
X021086Y030135
X021086Y026284
X021086Y016134
X021086Y012284
X022496Y031544
X022496Y024874
X022496Y017544
X022496Y010876
X024418Y032060
X024418Y024359
X024418Y018060
X024418Y010361
X026344Y031544
X026344Y024874
X026344Y017544
X026344Y010876
X027753Y030135
X027753Y026284
X027753Y016134
X027753Y012284
X028269Y028209
X028269Y014209
X033570Y028209
X033570Y014209
X034086Y030135
X034086Y026284
X034086Y016134
X034086Y012284
X035495Y031544
X035495Y024874
X035495Y017544
X035495Y010876
X037421Y032060
X037421Y024359
X037421Y018060
X037421Y010361
X039343Y031544
X039343Y024874
X039343Y017544
X039343Y010876
X040753Y030135
X040753Y026284
X040753Y016134
X040753Y012284
X041269Y028209
X041269Y014209
X047570Y028209
X047570Y014209
X048086Y030135
X048086Y026284
X048086Y016134
X048086Y012284
X049496Y031544
X049496Y024874
X049496Y017544
X049496Y010876
X051418Y032060
X051418Y024359
X051418Y018060
X051418Y010361
X053344Y031544
X053344Y024874
X053344Y017544
X053344Y010876
X054754Y030135
X054754Y026284
X054754Y016134
X054754Y012284
X055269Y028209
X055269Y014209
X060570Y028209
X060570Y014209
X061086Y030135
X061086Y026284
X061086Y016134
X061086Y012284
X062495Y031544
X062495Y024874
X062495Y017544
X062495Y010876
X064421Y032060
X064421Y024359
X064421Y018060
X064421Y010361
X066344Y031544
X066344Y024874
X066344Y017544
X066344Y010876
X067753Y030135
X067753Y026284
X067753Y016134
X067753Y012284
X068269Y028209
X068269Y014209
T03
X059986Y060653
X060501Y062578
X060501Y058730
X061908Y063988
X061908Y057320
X063834Y064503
X063834Y056804
X065759Y063988
X065759Y057320
X067169Y062578
X067169Y058730
X067684Y060653
T05
X012060Y078319G85X012359Y078319
T07
X012060Y087319G85X012359Y087319
T09
X026060Y078319G85X026359Y078319
T11
X026060Y087319G85X026359Y087319
T13
X061738Y035250
X060738Y035250
X059738Y035250
X058738Y035250
X057738Y035250
X058250Y036917
X059250Y036918
X060250Y036918
X061250Y036918
X062250Y036918
X038738Y035250
X037738Y035250
X036738Y035250
X035738Y035250
X035250Y036914
X036250Y036914
X037250Y036914
X038250Y036915
X019738Y035250
X018738Y035250
X017738Y035250
X016738Y035250
X015738Y035250
X014738Y035250
X014250Y036911
X015250Y036911
X016250Y036912
X017250Y036912
X018250Y036912
X019250Y036912
X022118Y072410
X021118Y072410
X020118Y072410
X019118Y072410
X018118Y072410
X017118Y072410
X017967Y074625
X018967Y074624
X019967Y074623
X020967Y074623
X022533Y081757
X021576Y082016
X020576Y082016
X019576Y082016
X018576Y082016
X017576Y082016
X022516Y083874
X017967Y083625
X018967Y083624
X019967Y083623
X020967Y083623
X008118Y072410
X007118Y072410
X006118Y072410
X005118Y072410
X004118Y072410
X003118Y072410
X003967Y074625
X004967Y074624
X005967Y074623
X006967Y074623
X008533Y081757
X007576Y082016
X006576Y082016
X005576Y082016
X004576Y082016
X003576Y082016
X008516Y083874
X003967Y083625
X004967Y083624
X005967Y083623
X006967Y083623
X040118Y072410
X039118Y072410
X038118Y072410
X037118Y072410
X036118Y072410
X035118Y072410
X035692Y074400
X036692Y074400
X037692Y074400
X038692Y074400
X039692Y074400
X039953Y078700
X038953Y078700
X037953Y078700
X036953Y078700
X035953Y078700
X035310Y080250
X036310Y080250
X037310Y080250
X038310Y080250
X039310Y080250
X040310Y080250
M30