%MOIN*%
%OFA0B0*%
%FSLAX46Y46*%
%IPPOS*%
%LPD*%
%ADD10C,0.005905511811023622*%
%ADD11C,0.027559055118110236*%
%ADD12C,0.053149606299212608*%
%ADD13C,0.11811023622047245*%
%ADD14C,0.01*%
%ADD25C,0.005905511811023622*%
%ADD26C,0.027559055118110236*%
%ADD27C,0.053149606299212608*%
%ADD28C,0.11811023622047245*%
%ADD29C,0.01*%
%ADD40C,0.005905511811023622*%
%ADD41C,0.21653543307086615*%
%ADD42C,0.01*%
%ADD53C,0.005905511811023622*%
%ADD54C,0.21653543307086615*%
%ADD55C,0.01*%
%ADD66C,0.005905511811023622*%
%ADD67C,0.21653543307086615*%
%ADD68C,0.01*%
%ADD79C,0.005905511811023622*%
%ADD80C,0.21653543307086615*%
%ADD81C,0.01*%
%ADD92C,0.005905511811023622*%
%ADD93C,0.01*%
%ADD104C,0.005905511811023622*%
%ADD105C,0.01*%
%LPD*%
G01G01G01G01G01G01G01G01*
D10*
D11*
X0002651181Y0000637401D02*
X0002651181Y0000481101D01*
D12*
X0002687007Y0000559448D02*
G75*
G03G03G03G03X0002687007Y0000559448I-0000150787D01X0002687007Y0000559448I-0000150787D01X0002687007Y0000559448I-0000150787D01G03G03X0002687007Y0000559448I-0000150787D01G03G03X0002687007Y0000559448I-0000150787D01X0002687007Y0000559448I-0000150787D01X0002687007Y0000559448I-0000150787D01X0002687007Y0000559448I-0000150787D01*
G01G01G01G01G01G01G01G01*
D13*
X0002640944Y0000559448D02*
G75*
G03G03G03G03X0002640944Y0000559448I-0000104724D01X0002640944Y0000559448I-0000104724D01X0002640944Y0000559448I-0000104724D01G03G03X0002640944Y0000559448I-0000104724D01G03G03X0002640944Y0000559448I-0000104724D01X0002640944Y0000559448I-0000104724D01X0002640944Y0000559448I-0000104724D01X0002640944Y0000559448I-0000104724D01*
G01G01G01G01G01G01G01G01*
D11*
X0002139370Y0000637401D02*
X0002139370Y0000481101D01*
D12*
X0002175196Y0000559448D02*
G75*
G03G03G03G03X0002175196Y0000559448I-0000150787D01X0002175196Y0000559448I-0000150787D01X0002175196Y0000559448I-0000150787D01G03G03X0002175196Y0000559448I-0000150787D01G03G03X0002175196Y0000559448I-0000150787D01X0002175196Y0000559448I-0000150787D01X0002175196Y0000559448I-0000150787D01X0002175196Y0000559448I-0000150787D01*
G01G01G01G01G01G01G01G01*
D13*
X0002129133Y0000559448D02*
G75*
G03G03G03G03X0002129133Y0000559448I-0000104724D01X0002129133Y0000559448I-0000104724D01X0002129133Y0000559448I-0000104724D01G03G03X0002129133Y0000559448I-0000104724D01G03G03X0002129133Y0000559448I-0000104724D01X0002129133Y0000559448I-0000104724D01X0002129133Y0000559448I-0000104724D01X0002129133Y0000559448I-0000104724D01*
G01G01G01G01G01G01G01G01*
D11*
X0002651181Y0001188582D02*
X0002651181Y0001032283D01*
D12*
X0002687007Y0001110629D02*
G75*
G03G03G03G03X0002687007Y0001110629I-0000150787D01X0002687007Y0001110629I-0000150787D01X0002687007Y0001110629I-0000150787D01G03G03X0002687007Y0001110629I-0000150787D01G03G03X0002687007Y0001110629I-0000150787D01X0002687007Y0001110629I-0000150787D01X0002687007Y0001110629I-0000150787D01X0002687007Y0001110629I-0000150787D01*
G01G01G01G01G01G01G01G01*
D13*
X0002640944Y0001110629D02*
G75*
G03G03G03G03X0002640944Y0001110629I-0000104724D01X0002640944Y0001110629I-0000104724D01X0002640944Y0001110629I-0000104724D01G03G03X0002640944Y0001110629I-0000104724D01G03G03X0002640944Y0001110629I-0000104724D01X0002640944Y0001110629I-0000104724D01X0002640944Y0001110629I-0000104724D01X0002640944Y0001110629I-0000104724D01*
G01G01G01G01G01G01G01G01*
D11*
X0002139370Y0001188582D02*
X0002139370Y0001032283D01*
D12*
X0002175196Y0001110629D02*
G75*
G03G03G03G03X0002175196Y0001110629I-0000150787D01X0002175196Y0001110629I-0000150787D01X0002175196Y0001110629I-0000150787D01G03G03X0002175196Y0001110629I-0000150787D01G03G03X0002175196Y0001110629I-0000150787D01X0002175196Y0001110629I-0000150787D01X0002175196Y0001110629I-0000150787D01X0002175196Y0001110629I-0000150787D01*
G01G01G01G01G01G01G01G01*
D13*
X0002129133Y0001110629D02*
G75*
G03G03G03G03X0002129133Y0001110629I-0000104724D01X0002129133Y0001110629I-0000104724D01X0002129133Y0001110629I-0000104724D01G03G03X0002129133Y0001110629I-0000104724D01G03G03X0002129133Y0001110629I-0000104724D01X0002129133Y0001110629I-0000104724D01X0002129133Y0001110629I-0000104724D01X0002129133Y0001110629I-0000104724D01*
G01G01G01G01G01G01G01G01*
D11*
X0001588188Y0000637401D02*
X0001588188Y0000481101D01*
D12*
X0001624015Y0000559448D02*
G75*
G03G03G03G03X0001624015Y0000559448I-0000150787D01X0001624015Y0000559448I-0000150787D01X0001624015Y0000559448I-0000150787D01G03G03X0001624015Y0000559448I-0000150787D01G03G03X0001624015Y0000559448I-0000150787D01X0001624015Y0000559448I-0000150787D01X0001624015Y0000559448I-0000150787D01X0001624015Y0000559448I-0000150787D01*
G01G01G01G01G01G01G01G01*
D13*
X0001577952Y0000559448D02*
G75*
G03G03G03G03X0001577952Y0000559448I-0000104724D01X0001577952Y0000559448I-0000104724D01X0001577952Y0000559448I-0000104724D01G03G03X0001577952Y0000559448I-0000104724D01G03G03X0001577952Y0000559448I-0000104724D01X0001577952Y0000559448I-0000104724D01X0001577952Y0000559448I-0000104724D01X0001577952Y0000559448I-0000104724D01*
G01G01G01G01G01G01G01G01*
D11*
X0001076377Y0000637401D02*
X0001076377Y0000481101D01*
D12*
X0001112204Y0000559448D02*
G75*
G03G03G03G03X0001112204Y0000559448I-0000150787D01X0001112204Y0000559448I-0000150787D01X0001112204Y0000559448I-0000150787D01G03G03X0001112204Y0000559448I-0000150787D01G03G03X0001112204Y0000559448I-0000150787D01X0001112204Y0000559448I-0000150787D01X0001112204Y0000559448I-0000150787D01X0001112204Y0000559448I-0000150787D01*
G01G01G01G01G01G01G01G01*
D13*
X0001066141Y0000559448D02*
G75*
G03G03G03G03X0001066141Y0000559448I-0000104724D01X0001066141Y0000559448I-0000104724D01X0001066141Y0000559448I-0000104724D01G03G03X0001066141Y0000559448I-0000104724D01G03G03X0001066141Y0000559448I-0000104724D01X0001066141Y0000559448I-0000104724D01X0001066141Y0000559448I-0000104724D01X0001066141Y0000559448I-0000104724D01*
G01G01G01G01G01G01G01G01*
D11*
X0000564566Y0000637401D02*
X0000564566Y0000481101D01*
D12*
X0000600393Y0000559448D02*
G75*
G03G03G03G03X0000600393Y0000559448I-0000150787D01X0000600393Y0000559448I-0000150787D01X0000600393Y0000559448I-0000150787D01G03G03X0000600393Y0000559448I-0000150787D01G03G03X0000600393Y0000559448I-0000150787D01X0000600393Y0000559448I-0000150787D01X0000600393Y0000559448I-0000150787D01X0000600393Y0000559448I-0000150787D01*
G01G01G01G01G01G01G01G01*
D13*
X0000554330Y0000559448D02*
G75*
G03G03G03G03X0000554330Y0000559448I-0000104724D01X0000554330Y0000559448I-0000104724D01X0000554330Y0000559448I-0000104724D01G03G03X0000554330Y0000559448I-0000104724D01G03G03X0000554330Y0000559448I-0000104724D01X0000554330Y0000559448I-0000104724D01X0000554330Y0000559448I-0000104724D01X0000554330Y0000559448I-0000104724D01*
G01G01G01G01G01G01G01G01*
D11*
X0001588188Y0001188582D02*
X0001588188Y0001032283D01*
D12*
X0001624015Y0001110629D02*
G75*
G03G03G03G03X0001624015Y0001110629I-0000150787D01X0001624015Y0001110629I-0000150787D01X0001624015Y0001110629I-0000150787D01G03G03X0001624015Y0001110629I-0000150787D01G03G03X0001624015Y0001110629I-0000150787D01X0001624015Y0001110629I-0000150787D01X0001624015Y0001110629I-0000150787D01X0001624015Y0001110629I-0000150787D01*
G01G01G01G01G01G01G01G01*
D13*
X0001577952Y0001110629D02*
G75*
G03G03G03G03X0001577952Y0001110629I-0000104724D01X0001577952Y0001110629I-0000104724D01X0001577952Y0001110629I-0000104724D01G03G03X0001577952Y0001110629I-0000104724D01G03G03X0001577952Y0001110629I-0000104724D01X0001577952Y0001110629I-0000104724D01X0001577952Y0001110629I-0000104724D01X0001577952Y0001110629I-0000104724D01*
G01G01G01G01G01G01G01G01*
D11*
X0001076377Y0001188582D02*
X0001076377Y0001032283D01*
D12*
X0001112204Y0001110629D02*
G75*
G03G03G03G03X0001112204Y0001110629I-0000150787D01X0001112204Y0001110629I-0000150787D01X0001112204Y0001110629I-0000150787D01G03G03X0001112204Y0001110629I-0000150787D01G03G03X0001112204Y0001110629I-0000150787D01X0001112204Y0001110629I-0000150787D01X0001112204Y0001110629I-0000150787D01X0001112204Y0001110629I-0000150787D01*
G01G01G01G01G01G01G01G01*
D13*
X0001066141Y0001110629D02*
G75*
G03G03G03G03X0001066141Y0001110629I-0000104724D01X0001066141Y0001110629I-0000104724D01X0001066141Y0001110629I-0000104724D01G03G03X0001066141Y0001110629I-0000104724D01G03G03X0001066141Y0001110629I-0000104724D01X0001066141Y0001110629I-0000104724D01X0001066141Y0001110629I-0000104724D01X0001066141Y0001110629I-0000104724D01*
G01G01G01G01G01G01G01G01*
D11*
X0000564566Y0001188582D02*
X0000564566Y0001032283D01*
D12*
X0000600393Y0001110629D02*
G75*
G03G03G03G03X0000600393Y0001110629I-0000150787D01X0000600393Y0001110629I-0000150787D01X0000600393Y0001110629I-0000150787D01G03G03X0000600393Y0001110629I-0000150787D01G03G03X0000600393Y0001110629I-0000150787D01X0000600393Y0001110629I-0000150787D01X0000600393Y0001110629I-0000150787D01X0000600393Y0001110629I-0000150787D01*
G01G01G01G01G01G01G01G01*
D13*
X0000554330Y0001110629D02*
G75*
G03G03G03G03X0000554330Y0001110629I-0000104724D01X0000554330Y0001110629I-0000104724D01X0000554330Y0001110629I-0000104724D01G03G03X0000554330Y0001110629I-0000104724D01G03G03X0000554330Y0001110629I-0000104724D01X0000554330Y0001110629I-0000104724D01X0000554330Y0001110629I-0000104724D01X0000554330Y0001110629I-0000104724D01*
G01G01G01G01G01G01G01G01*
D14*
G36*
X0002889560Y0001404843D02*
X0002890990Y0001306178D01*
X0000089557Y0001304609D01*
X0000087766Y0001405235D01*
X0002889560Y0001404843D01*
X0002889560Y0001404843D01*
G37*
X0002889560Y0001404843D02*
X0002890990Y0001306178D01*
X0000089557Y0001304609D01*
X0000087766Y0001405235D01*
X0002889560Y0001404843D01*
G36*
X0002881218Y0000072887D02*
X0002881969Y-0000024530D01*
X0000080535Y-0000026099D01*
X0000079425Y0000073279D01*
X0002881218Y0000072887D01*
X0002881218Y0000072887D01*
G37*
X0002881218Y0000072887D02*
X0002881969Y-0000024530D01*
X0000080535Y-0000026099D01*
X0000079425Y0000073279D01*
X0002881218Y0000072887D01*
G36*
X0003043031Y-0000026102D02*
X0002805000Y-0000026102D01*
X0002805000Y0001404842D01*
X0003043031Y0001404842D01*
X0003043031Y-0000026102D01*
X0003043031Y-0000026102D01*
G37*
X0003043031Y-0000026102D02*
X0002805000Y-0000026102D01*
X0002805000Y0001404842D01*
X0003043031Y0001404842D01*
X0003043031Y-0000026102D01*
G36*
X0000188700Y-0000024797D02*
X-0000049330Y-0000024797D01*
X-0000049330Y0001406147D01*
X0000188700Y0001406147D01*
X0000188700Y-0000024797D01*
X0000188700Y-0000024797D01*
G37*
X0000188700Y-0000024797D02*
X-0000049330Y-0000024797D01*
X-0000049330Y0001406147D01*
X0000188700Y0001406147D01*
X0000188700Y-0000024797D01*
G36*
X0002797624Y0000177047D02*
X0000170324Y0000177439D01*
X0000169990Y0000233583D01*
X0002817381Y0000233975D01*
X0002797624Y0000177047D01*
X0002797624Y0000177047D01*
G37*
X0002797624Y0000177047D02*
X0000170324Y0000177439D01*
X0000169990Y0000233583D01*
X0002817381Y0000233975D01*
X0002797624Y0000177047D01*
G01G01G01G01G01G01G01G01*
D25*
D26*
X0002628149Y0002465913D02*
X0002628149Y0002309614D01*
D27*
X0002663976Y0002387960D02*
G75*
G03G03G03G03X0002663976Y0002387960I-0000150787D01X0002663976Y0002387960I-0000150787D01X0002663976Y0002387960I-0000150787D01G03G03X0002663976Y0002387960I-0000150787D01G03G03X0002663976Y0002387960I-0000150787D01X0002663976Y0002387960I-0000150787D01X0002663976Y0002387960I-0000150787D01X0002663976Y0002387960I-0000150787D01*
G01G01G01G01G01G01G01G01*
D28*
X0002617913Y0002387960D02*
G75*
G03G03G03G03X0002617913Y0002387960I-0000104724D01X0002617913Y0002387960I-0000104724D01X0002617913Y0002387960I-0000104724D01G03G03X0002617913Y0002387960I-0000104724D01G03G03X0002617913Y0002387960I-0000104724D01X0002617913Y0002387960I-0000104724D01X0002617913Y0002387960I-0000104724D01X0002617913Y0002387960I-0000104724D01*
G01G01G01G01G01G01G01G01*
D29*
G36*
X0002865150Y0002867835D02*
X0002866580Y0002769170D01*
X0000065147Y0002767601D01*
X0000063357Y0002868227D01*
X0002865150Y0002867835D01*
X0002865150Y0002867835D01*
G37*
X0002865150Y0002867835D02*
X0002866580Y0002769170D01*
X0000065147Y0002767601D01*
X0000063357Y0002868227D01*
X0002865150Y0002867835D01*
G36*
X0002856808Y0001535879D02*
X0002857559Y0001438461D01*
X0000056125Y0001436892D01*
X0000055015Y0001536271D01*
X0002856808Y0001535879D01*
X0002856808Y0001535879D01*
G37*
X0002856808Y0001535879D02*
X0002857559Y0001438461D01*
X0000056125Y0001436892D01*
X0000055015Y0001536271D01*
X0002856808Y0001535879D01*
G36*
X0003018622Y0001436889D02*
X0002780590Y0001436889D01*
X0002780590Y0002867834D01*
X0003018622Y0002867834D01*
X0003018622Y0001436889D01*
X0003018622Y0001436889D01*
G37*
X0003018622Y0001436889D02*
X0002780590Y0001436889D01*
X0002780590Y0002867834D01*
X0003018622Y0002867834D01*
X0003018622Y0001436889D01*
G36*
X0000164291Y0001438194D02*
X-0000073740Y0001438194D01*
X-0000073740Y0002869139D01*
X0000164291Y0002869139D01*
X0000164291Y0001438194D01*
X0000164291Y0001438194D01*
G37*
X0000164291Y0001438194D02*
X-0000073740Y0001438194D01*
X-0000073740Y0002869139D01*
X0000164291Y0002869139D01*
X0000164291Y0001438194D01*
G36*
X0001223346Y0001654606D02*
X0001186102Y0001654606D01*
X0001186102Y0001731219D01*
X0001223346Y0001731219D01*
X0001223346Y0001654606D01*
X0001223346Y0001654606D01*
G37*
X0001223346Y0001654606D02*
X0001186102Y0001654606D01*
X0001186102Y0001731219D01*
X0001223346Y0001731219D01*
X0001223346Y0001654606D01*
G36*
X0001758779Y0001654606D02*
X0001721535Y0001654606D01*
X0001721535Y0001731219D01*
X0001758779Y0001731219D01*
X0001758779Y0001654606D01*
X0001758779Y0001654606D01*
G37*
X0001758779Y0001654606D02*
X0001721535Y0001654606D01*
X0001721535Y0001731219D01*
X0001758779Y0001731219D01*
X0001758779Y0001654606D01*
G36*
X0001792165Y0001831771D02*
X0001754921Y0001831771D01*
X0001754921Y0001908385D01*
X0001792165Y0001908385D01*
X0001792165Y0001831771D01*
X0001792165Y0001831771D01*
G37*
X0001792165Y0001831771D02*
X0001754921Y0001831771D01*
X0001754921Y0001908385D01*
X0001792165Y0001908385D01*
X0001792165Y0001831771D01*
G36*
X0001186217Y0001831771D02*
X0001148973Y0001831771D01*
X0001148973Y0001908385D01*
X0001186217Y0001908385D01*
X0001186217Y0001831771D01*
X0001186217Y0001831771D01*
G37*
X0001186217Y0001831771D02*
X0001148973Y0001831771D01*
X0001148973Y0001908385D01*
X0001186217Y0001908385D01*
X0001186217Y0001831771D01*
G01G01G01G01G01G01G01G01*
D40*
D41*
X0000118110Y0003228346D02*
X0000480708Y0003083464D03*
D42*
G36*
X0000203119Y0002944131D02*
X0000128080Y0002944131D01*
X0000127318Y0003219959D01*
X0000202359Y0003219959D01*
X0000203119Y0002944131D01*
X0000203119Y0002944131D01*
G37*
X0000203119Y0002944131D02*
X0000128080Y0002944131D01*
X0000127318Y0003219959D01*
X0000202359Y0003219959D01*
X0000203119Y0002944131D01*
G01G01G01G01G01G01G01G01*
D53*
D54*
X0000118110Y0003582677D02*
X0000480708Y0003437795D03*
D55*
G36*
X0000203119Y0003298463D02*
X0000128080Y0003298463D01*
X0000127318Y0003574290D01*
X0000202359Y0003574290D01*
X0000203119Y0003298463D01*
X0000203119Y0003298463D01*
G37*
X0000203119Y0003298463D02*
X0000128080Y0003298463D01*
X0000127318Y0003574290D01*
X0000202359Y0003574290D01*
X0000203119Y0003298463D01*
G04 next file*
G01G01G01G01G01G01G01G01*
D66*
D67*
X0000669291Y0003228346D02*
X0001031889Y0003083464D03*
D68*
G36*
X0000754300Y0002944131D02*
X0000679261Y0002944131D01*
X0000678501Y0003219959D01*
X0000753540Y0003219959D01*
X0000754300Y0002944131D01*
X0000754300Y0002944131D01*
G37*
X0000754300Y0002944131D02*
X0000679261Y0002944131D01*
X0000678501Y0003219959D01*
X0000753540Y0003219959D01*
X0000754300Y0002944131D01*
G01G01G01G01G01G01G01G01*
D79*
D80*
X0000669291Y0003582677D02*
X0001031889Y0003437795D03*
D81*
G36*
X0000754300Y0003298463D02*
X0000679261Y0003298463D01*
X0000678501Y0003574290D01*
X0000753540Y0003574290D01*
X0000754300Y0003298463D01*
X0000754300Y0003298463D01*
G37*
X0000754300Y0003298463D02*
X0000679261Y0003298463D01*
X0000678501Y0003574290D01*
X0000753540Y0003574290D01*
X0000754300Y0003298463D01*
G04 next file*
G01G01G01G01G01G01G01G01*
D92*
D93*
G36*
X0001276496Y0002973503D02*
X0001239251Y0002973503D01*
X0001239251Y0003050118D01*
X0001276496Y0003050118D01*
X0001276496Y0002973503D01*
X0001276496Y0002973503D01*
G37*
X0001276496Y0002973503D02*
X0001239251Y0002973503D01*
X0001239251Y0003050118D01*
X0001276496Y0003050118D01*
X0001276496Y0002973503D01*
G36*
X0001780433Y0002973503D02*
X0001743188Y0002973503D01*
X0001743188Y0003050118D01*
X0001780433Y0003050118D01*
X0001780433Y0002973503D01*
X0001780433Y0002973503D01*
G37*
X0001780433Y0002973503D02*
X0001743188Y0002973503D01*
X0001743188Y0003050118D01*
X0001780433Y0003050118D01*
X0001780433Y0002973503D01*
G04 next file*
G04 #@! TF.FileFunction,Soldermask,Top*
G04 Gerber Fmt 4.6, Leading zero omitted, Abs format (unit mm)*
G04 Created by KiCad (PCBNEW (2016-07-22 BZR 6991, Git 146a78a)-product) date 08/19/16 17:37:13*
G01G01G01G01G01G01G01G01*
G04 APERTURE LIST*
G04 APERTURE END LIST*
D104*
D105*
G36*
X0001247125Y0003304055D02*
X0001284368Y0003304055D01*
X0001284368Y0003227440D01*
X0001247125Y0003227440D01*
X0001247125Y0003304055D01*
X0001247125Y0003304055D01*
G37*
X0001247125Y0003304055D02*
X0001284368Y0003304055D01*
X0001284368Y0003227440D01*
X0001247125Y0003227440D01*
X0001247125Y0003304055D01*
G36*
X0001682165Y0003304055D02*
X0001719409Y0003304055D01*
X0001719409Y0003227440D01*
X0001682165Y0003227440D01*
X0001682165Y0003304055D01*
X0001682165Y0003304055D01*
G37*
X0001682165Y0003304055D02*
X0001719409Y0003304055D01*
X0001719409Y0003227440D01*
X0001682165Y0003227440D01*
X0001682165Y0003304055D01*
M02*