%MOIN*%
%OFA0B0*%
%FSLAX46Y46*%
%IPPOS*%
%LPD*%
%ADD10C,0.005905511811023622*%
%ADD11C,0.03937007874015748*%
%ADD12C,0.11811023622047245*%
%ADD13C,0.027559055118110236*%
%ADD14C,0.053149606299212608*%
%ADD25C,0.005905511811023622*%
%ADD26C,0.03937007874015748*%
%ADD27C,0.11811023622047245*%
%ADD28C,0.027559055118110236*%
%ADD29C,0.053149606299212608*%
%ADD40C,0.005905511811023622*%
%ADD41C,0.21653543307086615*%
%ADD42C,0.01*%
%ADD53C,0.005905511811023622*%
%ADD54C,0.21653543307086615*%
%ADD55C,0.01*%
%ADD66C,0.005905511811023622*%
%ADD67C,0.21653543307086615*%
%ADD68C,0.01*%
%ADD79C,0.005905511811023622*%
%ADD80C,0.21653543307086615*%
%ADD81C,0.01*%
%ADD92C,0.005905511811023622*%
%ADD103C,0.005905511811023622*%
%LPD*%
G01G01G01G01G01G01G01G01*
D10*
D11*
X0000236876Y0000151574D02*
G75*
G03G03G03G03X0000236876Y0000151574I-0000070734D01X0000236876Y0000151574I-0000070734D01X0000236876Y0000151574I-0000070734D01G03G03X0000236876Y0000151574I-0000070734D01G03G03X0000236876Y0000151574I-0000070734D01X0000236876Y0000151574I-0000070734D01X0000236876Y0000151574I-0000070734D01X0000236876Y0000151574I-0000070734D01*
G01G01G01G01G01G01G01G01*
X0000236482Y0001237007D02*
G75*
G03G03G03G03X0000236482Y0001237007I-0000070734D01X0000236482Y0001237007I-0000070734D01X0000236482Y0001237007I-0000070734D01G03G03X0000236482Y0001237007I-0000070734D01G03G03X0000236482Y0001237007I-0000070734D01X0000236482Y0001237007I-0000070734D01X0000236482Y0001237007I-0000070734D01X0000236482Y0001237007I-0000070734D01*
G01G01G01G01G01G01G01G01*
X0002918503Y0001237401D02*
G75*
G03G03G03G03X0002918503Y0001237401I-0000070734D01X0002918503Y0001237401I-0000070734D01X0002918503Y0001237401I-0000070734D01G03G03X0002918503Y0001237401I-0000070734D01G03G03X0002918503Y0001237401I-0000070734D01X0002918503Y0001237401I-0000070734D01X0002918503Y0001237401I-0000070734D01X0002918503Y0001237401I-0000070734D01*
G01G01G01G01G01G01G01G01*
X0002917037Y0000153744D02*
G75*
G03G03G03G03X0002917037Y0000153744I-0000070734D01X0002917037Y0000153744I-0000070734D01X0002917037Y0000153744I-0000070734D01G03G03X0002917037Y0000153744I-0000070734D01G03G03X0002917037Y0000153744I-0000070734D01X0002917037Y0000153744I-0000070734D01X0002917037Y0000153744I-0000070734D01X0002917037Y0000153744I-0000070734D01*
G01G01G01G01G01G01G01G01*
D12*
X0002655905Y0000565748D02*
G75*
G03G03G03G03X0002655905Y0000565748I-0000104724D01X0002655905Y0000565748I-0000104724D01X0002655905Y0000565748I-0000104724D01G03G03X0002655905Y0000565748I-0000104724D01G03G03X0002655905Y0000565748I-0000104724D01X0002655905Y0000565748I-0000104724D01X0002655905Y0000565748I-0000104724D01X0002655905Y0000565748I-0000104724D01*
G01G01G01G01G01G01G01G01*
D13*
X0002666535Y0000638188D02*
X0002666535Y0000492913D01*
D14*
X0002701967Y0000565748D02*
G75*
G03G03G03G03X0002701967Y0000565748I-0000150787D01X0002701967Y0000565748I-0000150787D01X0002701967Y0000565748I-0000150787D01G03G03X0002701967Y0000565748I-0000150787D01G03G03X0002701967Y0000565748I-0000150787D01X0002701967Y0000565748I-0000150787D01X0002701967Y0000565748I-0000150787D01X0002701967Y0000565748I-0000150787D01*
G01G01G01G01G01G01G01G01*
D12*
X0002144094Y0000565748D02*
G75*
G03G03G03G03X0002144094Y0000565748I-0000104724D01X0002144094Y0000565748I-0000104724D01X0002144094Y0000565748I-0000104724D01G03G03X0002144094Y0000565748I-0000104724D01G03G03X0002144094Y0000565748I-0000104724D01X0002144094Y0000565748I-0000104724D01X0002144094Y0000565748I-0000104724D01X0002144094Y0000565748I-0000104724D01*
G01G01G01G01G01G01G01G01*
D13*
X0002154724Y0000638188D02*
X0002154724Y0000492913D01*
D14*
X0002190157Y0000565748D02*
G75*
G03G03G03G03X0002190157Y0000565748I-0000150787D01X0002190157Y0000565748I-0000150787D01X0002190157Y0000565748I-0000150787D01G03G03X0002190157Y0000565748I-0000150787D01G03G03X0002190157Y0000565748I-0000150787D01X0002190157Y0000565748I-0000150787D01X0002190157Y0000565748I-0000150787D01X0002190157Y0000565748I-0000150787D01*
G01G01G01G01G01G01G01G01*
D12*
X0002655905Y0001116929D02*
G75*
G03G03G03G03X0002655905Y0001116929I-0000104724D01X0002655905Y0001116929I-0000104724D01X0002655905Y0001116929I-0000104724D01G03G03X0002655905Y0001116929I-0000104724D01G03G03X0002655905Y0001116929I-0000104724D01X0002655905Y0001116929I-0000104724D01X0002655905Y0001116929I-0000104724D01X0002655905Y0001116929I-0000104724D01*
G01G01G01G01G01G01G01G01*
D13*
X0002666535Y0001189370D02*
X0002666535Y0001044094D01*
D14*
X0002701967Y0001116929D02*
G75*
G03G03G03G03X0002701967Y0001116929I-0000150787D01X0002701967Y0001116929I-0000150787D01X0002701967Y0001116929I-0000150787D01G03G03X0002701967Y0001116929I-0000150787D01G03G03X0002701967Y0001116929I-0000150787D01X0002701967Y0001116929I-0000150787D01X0002701967Y0001116929I-0000150787D01X0002701967Y0001116929I-0000150787D01*
G01G01G01G01G01G01G01G01*
D12*
X0002144094Y0001116929D02*
G75*
G03G03G03G03X0002144094Y0001116929I-0000104724D01X0002144094Y0001116929I-0000104724D01X0002144094Y0001116929I-0000104724D01G03G03X0002144094Y0001116929I-0000104724D01G03G03X0002144094Y0001116929I-0000104724D01X0002144094Y0001116929I-0000104724D01X0002144094Y0001116929I-0000104724D01X0002144094Y0001116929I-0000104724D01*
G01G01G01G01G01G01G01G01*
D13*
X0002154724Y0001189370D02*
X0002154724Y0001044094D01*
D14*
X0002190157Y0001116929D02*
G75*
G03G03G03G03X0002190157Y0001116929I-0000150787D01X0002190157Y0001116929I-0000150787D01X0002190157Y0001116929I-0000150787D01G03G03X0002190157Y0001116929I-0000150787D01G03G03X0002190157Y0001116929I-0000150787D01X0002190157Y0001116929I-0000150787D01X0002190157Y0001116929I-0000150787D01X0002190157Y0001116929I-0000150787D01*
G01G01G01G01G01G01G01G01*
D12*
X0001592913Y0000565748D02*
G75*
G03G03G03G03X0001592913Y0000565748I-0000104724D01X0001592913Y0000565748I-0000104724D01X0001592913Y0000565748I-0000104724D01G03G03X0001592913Y0000565748I-0000104724D01G03G03X0001592913Y0000565748I-0000104724D01X0001592913Y0000565748I-0000104724D01X0001592913Y0000565748I-0000104724D01X0001592913Y0000565748I-0000104724D01*
G01G01G01G01G01G01G01G01*
D13*
X0001603543Y0000638188D02*
X0001603543Y0000492913D01*
D14*
X0001638976Y0000565748D02*
G75*
G03G03G03G03X0001638976Y0000565748I-0000150787D01X0001638976Y0000565748I-0000150787D01X0001638976Y0000565748I-0000150787D01G03G03X0001638976Y0000565748I-0000150787D01G03G03X0001638976Y0000565748I-0000150787D01X0001638976Y0000565748I-0000150787D01X0001638976Y0000565748I-0000150787D01X0001638976Y0000565748I-0000150787D01*
G01G01G01G01G01G01G01G01*
D12*
X0001081102Y0000565748D02*
G75*
G03G03G03G03X0001081102Y0000565748I-0000104724D01X0001081102Y0000565748I-0000104724D01X0001081102Y0000565748I-0000104724D01G03G03X0001081102Y0000565748I-0000104724D01G03G03X0001081102Y0000565748I-0000104724D01X0001081102Y0000565748I-0000104724D01X0001081102Y0000565748I-0000104724D01X0001081102Y0000565748I-0000104724D01*
G01G01G01G01G01G01G01G01*
D13*
X0001091732Y0000638188D02*
X0001091732Y0000492913D01*
D14*
X0001127165Y0000565748D02*
G75*
G03G03G03G03X0001127165Y0000565748I-0000150787D01X0001127165Y0000565748I-0000150787D01X0001127165Y0000565748I-0000150787D01G03G03X0001127165Y0000565748I-0000150787D01G03G03X0001127165Y0000565748I-0000150787D01X0001127165Y0000565748I-0000150787D01X0001127165Y0000565748I-0000150787D01X0001127165Y0000565748I-0000150787D01*
G01G01G01G01G01G01G01G01*
D12*
X0000569291Y0000565748D02*
G75*
G03G03G03G03X0000569291Y0000565748I-0000104724D01X0000569291Y0000565748I-0000104724D01X0000569291Y0000565748I-0000104724D01G03G03X0000569291Y0000565748I-0000104724D01G03G03X0000569291Y0000565748I-0000104724D01X0000569291Y0000565748I-0000104724D01X0000569291Y0000565748I-0000104724D01X0000569291Y0000565748I-0000104724D01*
G01G01G01G01G01G01G01G01*
D13*
X0000579921Y0000638188D02*
X0000579921Y0000492913D01*
D14*
X0000615354Y0000565748D02*
G75*
G03G03G03G03X0000615354Y0000565748I-0000150787D01X0000615354Y0000565748I-0000150787D01X0000615354Y0000565748I-0000150787D01G03G03X0000615354Y0000565748I-0000150787D01G03G03X0000615354Y0000565748I-0000150787D01X0000615354Y0000565748I-0000150787D01X0000615354Y0000565748I-0000150787D01X0000615354Y0000565748I-0000150787D01*
G01G01G01G01G01G01G01G01*
D12*
X0001592913Y0001116929D02*
G75*
G03G03G03G03X0001592913Y0001116929I-0000104724D01X0001592913Y0001116929I-0000104724D01X0001592913Y0001116929I-0000104724D01G03G03X0001592913Y0001116929I-0000104724D01G03G03X0001592913Y0001116929I-0000104724D01X0001592913Y0001116929I-0000104724D01X0001592913Y0001116929I-0000104724D01X0001592913Y0001116929I-0000104724D01*
G01G01G01G01G01G01G01G01*
D13*
X0001603543Y0001189370D02*
X0001603543Y0001044094D01*
D14*
X0001638976Y0001116929D02*
G75*
G03G03G03G03X0001638976Y0001116929I-0000150787D01X0001638976Y0001116929I-0000150787D01X0001638976Y0001116929I-0000150787D01G03G03X0001638976Y0001116929I-0000150787D01G03G03X0001638976Y0001116929I-0000150787D01X0001638976Y0001116929I-0000150787D01X0001638976Y0001116929I-0000150787D01X0001638976Y0001116929I-0000150787D01*
G01G01G01G01G01G01G01G01*
D12*
X0001081102Y0001116929D02*
G75*
G03G03G03G03X0001081102Y0001116929I-0000104724D01X0001081102Y0001116929I-0000104724D01X0001081102Y0001116929I-0000104724D01G03G03X0001081102Y0001116929I-0000104724D01G03G03X0001081102Y0001116929I-0000104724D01X0001081102Y0001116929I-0000104724D01X0001081102Y0001116929I-0000104724D01X0001081102Y0001116929I-0000104724D01*
G01G01G01G01G01G01G01G01*
D13*
X0001091732Y0001189370D02*
X0001091732Y0001044094D01*
D14*
X0001127165Y0001116929D02*
G75*
G03G03G03G03X0001127165Y0001116929I-0000150787D01X0001127165Y0001116929I-0000150787D01X0001127165Y0001116929I-0000150787D01G03G03X0001127165Y0001116929I-0000150787D01G03G03X0001127165Y0001116929I-0000150787D01X0001127165Y0001116929I-0000150787D01X0001127165Y0001116929I-0000150787D01X0001127165Y0001116929I-0000150787D01*
G01G01G01G01G01G01G01G01*
D12*
X0000569291Y0001116929D02*
G75*
G03G03G03G03X0000569291Y0001116929I-0000104724D01X0000569291Y0001116929I-0000104724D01X0000569291Y0001116929I-0000104724D01G03G03X0000569291Y0001116929I-0000104724D01G03G03X0000569291Y0001116929I-0000104724D01X0000569291Y0001116929I-0000104724D01X0000569291Y0001116929I-0000104724D01X0000569291Y0001116929I-0000104724D01*
G01G01G01G01G01G01G01G01*
D13*
X0000579921Y0001189370D02*
X0000579921Y0001044094D01*
D14*
X0000615354Y0001116929D02*
G75*
G03G03G03G03X0000615354Y0001116929I-0000150787D01X0000615354Y0001116929I-0000150787D01X0000615354Y0001116929I-0000150787D01G03G03X0000615354Y0001116929I-0000150787D01G03G03X0000615354Y0001116929I-0000150787D01X0000615354Y0001116929I-0000150787D01X0000615354Y0001116929I-0000150787D01X0000615354Y0001116929I-0000150787D01*
G01G01G01G01G01G01G01G01*
G01G01G01G01G01G01G01G01*
D25*
D26*
X0000236876Y0001608267D02*
G75*
G03G03G03G03X0000236876Y0001608267I-0000070734D01X0000236876Y0001608267I-0000070734D01X0000236876Y0001608267I-0000070734D01G03G03X0000236876Y0001608267I-0000070734D01G03G03X0000236876Y0001608267I-0000070734D01X0000236876Y0001608267I-0000070734D01X0000236876Y0001608267I-0000070734D01X0000236876Y0001608267I-0000070734D01*
G01G01G01G01G01G01G01G01*
X0000236482Y0002693699D02*
G75*
G03G03G03G03X0000236482Y0002693699I-0000070734D01X0000236482Y0002693699I-0000070734D01X0000236482Y0002693699I-0000070734D01G03G03X0000236482Y0002693699I-0000070734D01G03G03X0000236482Y0002693699I-0000070734D01X0000236482Y0002693699I-0000070734D01X0000236482Y0002693699I-0000070734D01X0000236482Y0002693699I-0000070734D01*
G01G01G01G01G01G01G01G01*
X0002918503Y0002694094D02*
G75*
G03G03G03G03X0002918503Y0002694094I-0000070734D01X0002918503Y0002694094I-0000070734D01X0002918503Y0002694094I-0000070734D01G03G03X0002918503Y0002694094I-0000070734D01G03G03X0002918503Y0002694094I-0000070734D01X0002918503Y0002694094I-0000070734D01X0002918503Y0002694094I-0000070734D01X0002918503Y0002694094I-0000070734D01*
G01G01G01G01G01G01G01G01*
X0002917037Y0001610437D02*
G75*
G03G03G03G03X0002917037Y0001610437I-0000070734D01X0002917037Y0001610437I-0000070734D01X0002917037Y0001610437I-0000070734D01G03G03X0002917037Y0001610437I-0000070734D01G03G03X0002917037Y0001610437I-0000070734D01X0002917037Y0001610437I-0000070734D01X0002917037Y0001610437I-0000070734D01X0002917037Y0001610437I-0000070734D01*
G01G01G01G01G01G01G01G01*
D27*
X0002657283Y0002387960D02*
G75*
G03G03G03G03X0002657283Y0002387960I-0000104724D01X0002657283Y0002387960I-0000104724D01X0002657283Y0002387960I-0000104724D01G03G03X0002657283Y0002387960I-0000104724D01G03G03X0002657283Y0002387960I-0000104724D01X0002657283Y0002387960I-0000104724D01X0002657283Y0002387960I-0000104724D01X0002657283Y0002387960I-0000104724D01*
G01G01G01G01G01G01G01G01*
D28*
X0002667913Y0002460401D02*
X0002667913Y0002315125D01*
D29*
X0002703345Y0002387960D02*
G75*
G03G03G03G03X0002703345Y0002387960I-0000150787D01X0002703345Y0002387960I-0000150787D01X0002703345Y0002387960I-0000150787D01G03G03X0002703345Y0002387960I-0000150787D01G03G03X0002703345Y0002387960I-0000150787D01X0002703345Y0002387960I-0000150787D01X0002703345Y0002387960I-0000150787D01X0002703345Y0002387960I-0000150787D01*
G01G01G01G01G01G01G01G01*
G01G01G01G01G01G01G01G01*
D40*
D41*
X0000118110Y0003228346D02*
X0000480708Y0003083464D03*
D42*
G36*
X0000203135Y0002943976D02*
X0000128094Y0002943976D01*
X0000127336Y0003219803D01*
X0000202375Y0003219803D01*
X0000203135Y0002943976D01*
X0000203135Y0002943976D01*
G37*
X0000203135Y0002943976D02*
X0000128094Y0002943976D01*
X0000127336Y0003219803D01*
X0000202375Y0003219803D01*
X0000203135Y0002943976D01*
G01G01G01G01G01G01G01G01*
D53*
D54*
X0000118110Y0003582677D02*
X0000480708Y0003437795D03*
D55*
G36*
X0000203135Y0003298307D02*
X0000128094Y0003298307D01*
X0000127336Y0003574133D01*
X0000202375Y0003574133D01*
X0000203135Y0003298307D01*
X0000203135Y0003298307D01*
G37*
X0000203135Y0003298307D02*
X0000128094Y0003298307D01*
X0000127336Y0003574133D01*
X0000202375Y0003574133D01*
X0000203135Y0003298307D01*
G04 next file*
G01G01G01G01G01G01G01G01*
D66*
D67*
X0000669291Y0003228346D02*
X0001031889Y0003083464D03*
D68*
G36*
X0000754315Y0002943976D02*
X0000679276Y0002943976D01*
X0000678517Y0003219803D01*
X0000753556Y0003219803D01*
X0000754315Y0002943976D01*
X0000754315Y0002943976D01*
G37*
X0000754315Y0002943976D02*
X0000679276Y0002943976D01*
X0000678517Y0003219803D01*
X0000753556Y0003219803D01*
X0000754315Y0002943976D01*
G01G01G01G01G01G01G01G01*
D79*
D80*
X0000669291Y0003582677D02*
X0001031889Y0003437795D03*
D81*
G36*
X0000754315Y0003298307D02*
X0000679276Y0003298307D01*
X0000678517Y0003574133D01*
X0000753556Y0003574133D01*
X0000754315Y0003298307D01*
X0000754315Y0003298307D01*
G37*
X0000754315Y0003298307D02*
X0000679276Y0003298307D01*
X0000678517Y0003574133D01*
X0000753556Y0003574133D01*
X0000754315Y0003298307D01*
G04 next file*
G01G01G01G01G01G01G01G01*
D92*
G04 next file*
G04 #@! TF.FileFunction,Soldermask,Bot*
G04 Gerber Fmt 4.6, Leading zero omitted, Abs format (unit mm)*
G04 Created by KiCad (PCBNEW (2016-07-22 BZR 6991, Git 146a78a)-product) date 08/19/16 17:37:13*
G01G01G01G01G01G01G01G01*
G04 APERTURE LIST*
G04 APERTURE END LIST*
D103*
M02*