%MOIN*%
%OFA0B0*%
%FSLAX46Y46*%
%IPPOS*%
%LPD*%
%ADD10C,0.005905511811023622*%
%ADD11C,0.0007874015748031497*%
%ADD22C,0.005905511811023622*%
%ADD23C,0.0039370078740157488*%
%ADD24C,0.0007874015748031497*%
%ADD35C,0.005905511811023622*%
%ADD36C,0.0039370078740157488*%
%ADD47C,0.005905511811023622*%
%ADD48C,0.0039370078740157488*%
%LPD*%
G01G01G01G01*
D10*
D11*
X0000201967Y0000145669D02*
G75*
G03G03X0000201967Y0000145669I-0000051181D01G03G03X0000201967Y0000145669I-0000051181D01X0000201967Y0000145669I-0000051181D01X0000201967Y0000145669I-0000051181D01*
G01G01G01G01*
X0000202362Y0001230314D02*
G75*
G03G03X0000202362Y0001230314I-0000051181D01G03G03X0000202362Y0001230314I-0000051181D01X0000202362Y0001230314I-0000051181D01X0000202362Y0001230314I-0000051181D01*
G01G01G01G01*
X0002883858Y0001231496D02*
G75*
G03G03X0002883858Y0001231496I-0000051181D01G03G03X0002883858Y0001231496I-0000051181D01X0002883858Y0001231496I-0000051181D01X0002883858Y0001231496I-0000051181D01*
G01G01G01G01*
X0000098031Y0000000000D02*
G75*
G02G02X0000000000Y0000098031J0000098031D01G02G02X0000000000Y0000098031J0000098031D01X0000000000Y0000098031J0000098031D01X0000000000Y0000098031J0000098031D01*
G01G01G01G01*
X0000000000Y0001279921D02*
G75*
G02G02X0000098031Y0001377952I0000098031D01G02G02X0000098031Y0001377952I0000098031D01X0000098031Y0001377952I0000098031D01X0000098031Y0001377952I0000098031D01*
G01G01G01G01*
X0002893700Y0001377952D02*
G75*
G02G02X0002991732Y0001279921J-0000098031D01G02G02X0002991732Y0001279921J-0000098031D01X0002991732Y0001279921J-0000098031D01X0002991732Y0001279921J-0000098031D01*
G01G01G01G01*
X0002882283Y0000147244D02*
G75*
G03G03X0002882283Y0000147244I-0000051181D01G03G03X0002882283Y0000147244I-0000051181D01X0002882283Y0000147244I-0000051181D01X0002882283Y0000147244I-0000051181D01*
G01G01G01G01*
X0002991732Y0000098425D02*
G75*
G02G02X0002893700Y0000000393I-0000098031D01G02G02X0002893700Y0000000393I-0000098031D01X0002893700Y0000000393I-0000098031D01X0002893700Y0000000393I-0000098031D01*
G01G01G01G01*
X0000000000Y0000098031D02*
X0000000000Y0001279921D01*
X0002893700Y0000000393D02*
X0000098031Y0000000000D01*
X0002991732Y0001279921D02*
X0002991732Y0000098425D01*
X0000098031Y0001377952D02*
X0002893700Y0001377952D01*
X0002642519Y0000488188D02*
G75*
G02G02X0002642519Y0000630707I-0000106299J0000071259D01G02G02X0002642519Y0000630707I-0000106299J0000071259D01X0002642519Y0000630707I-0000106299J0000071259D01X0002642519Y0000630707I-0000106299J0000071259D01*
G01G01G01G01*
X0002642519Y0000630707D02*
X0002642519Y0000488188D01*
X0002130708Y0000488188D02*
G75*
G02G02X0002130708Y0000630707I-0000106299J0000071259D01G02G02X0002130708Y0000630707I-0000106299J0000071259D01X0002130708Y0000630707I-0000106299J0000071259D01X0002130708Y0000630707I-0000106299J0000071259D01*
G01G01G01G01*
X0002130708Y0000630707D02*
X0002130708Y0000488188D01*
X0002642519Y0001039369D02*
G75*
G02G02X0002642519Y0001181889I-0000106299J0000071259D01G02G02X0002642519Y0001181889I-0000106299J0000071259D01X0002642519Y0001181889I-0000106299J0000071259D01X0002642519Y0001181889I-0000106299J0000071259D01*
G01G01G01G01*
X0002642519Y0001181889D02*
X0002642519Y0001039369D01*
X0002130708Y0001039369D02*
G75*
G02G02X0002130708Y0001181889I-0000106299J0000071259D01G02G02X0002130708Y0001181889I-0000106299J0000071259D01X0002130708Y0001181889I-0000106299J0000071259D01X0002130708Y0001181889I-0000106299J0000071259D01*
G01G01G01G01*
X0002130708Y0001181889D02*
X0002130708Y0001039369D01*
X0001579527Y0000488188D02*
G75*
G02G02X0001579527Y0000630707I-0000106299J0000071259D01G02G02X0001579527Y0000630707I-0000106299J0000071259D01X0001579527Y0000630707I-0000106299J0000071259D01X0001579527Y0000630707I-0000106299J0000071259D01*
G01G01G01G01*
X0001579527Y0000630707D02*
X0001579527Y0000488188D01*
X0001067716Y0000488188D02*
G75*
G02G02X0001067716Y0000630707I-0000106299J0000071259D01G02G02X0001067716Y0000630707I-0000106299J0000071259D01X0001067716Y0000630707I-0000106299J0000071259D01X0001067716Y0000630707I-0000106299J0000071259D01*
G01G01G01G01*
X0001067716Y0000630707D02*
X0001067716Y0000488188D01*
X0000555905Y0000488188D02*
G75*
G02G02X0000555905Y0000630707I-0000106299J0000071259D01G02G02X0000555905Y0000630707I-0000106299J0000071259D01X0000555905Y0000630707I-0000106299J0000071259D01X0000555905Y0000630707I-0000106299J0000071259D01*
G01G01G01G01*
X0000555905Y0000630707D02*
X0000555905Y0000488188D01*
X0001579527Y0001039369D02*
G75*
G02G02X0001579527Y0001181889I-0000106299J0000071259D01G02G02X0001579527Y0001181889I-0000106299J0000071259D01X0001579527Y0001181889I-0000106299J0000071259D01X0001579527Y0001181889I-0000106299J0000071259D01*
G01G01G01G01*
X0001579527Y0001181889D02*
X0001579527Y0001039369D01*
X0001067716Y0001039369D02*
G75*
G02G02X0001067716Y0001181889I-0000106299J0000071259D01G02G02X0001067716Y0001181889I-0000106299J0000071259D01X0001067716Y0001181889I-0000106299J0000071259D01X0001067716Y0001181889I-0000106299J0000071259D01*
G01G01G01G01*
X0001067716Y0001181889D02*
X0001067716Y0001039369D01*
X0000555905Y0001039369D02*
G75*
G02G02X0000555905Y0001181889I-0000106299J0000071259D01G02G02X0000555905Y0001181889I-0000106299J0000071259D01X0000555905Y0001181889I-0000106299J0000071259D01X0000555905Y0001181889I-0000106299J0000071259D01*
G01G01G01G01*
X0000555905Y0001181889D02*
X0000555905Y0001039369D01*
G01G01G01G01*
D22*
D23*
X0001700787Y0001604329D02*
X0001246062Y0001604329D01*
X0001700787Y0001604329D02*
G75*
G03G03X0001720472Y0001624015J0000019685D01G03G03X0001720472Y0001624015J0000019685D01X0001720472Y0001624015J0000019685D01X0001720472Y0001624015J0000019685D01*
G01G01G01G01*
X0001720472Y0001789370D02*
X0001720472Y0001624015D01*
X0000661417Y0001722440D02*
X0000840551Y0001722440D01*
X0000840551Y0001722440D02*
G75*
G03G03X0000860236Y0001742124J0000019685D01G03G03X0000860236Y0001742124J0000019685D01X0000860236Y0001742124J0000019685D01X0000860236Y0001742124J0000019685D01*
G01G01G01G01*
X0000860236Y0002011810D02*
X0000860236Y0001742124D01*
X0000860236Y0002011810D02*
G75*
G03G03X0000840551Y0002031496I-0000019685D01G03G03X0000840551Y0002031496I-0000019685D01X0000840551Y0002031496I-0000019685D01X0000840551Y0002031496I-0000019685D01*
G01G01G01G01*
X0000840551Y0002031496D02*
X0000661417Y0002031496D01*
X0000661417Y0002031496D02*
G75*
G03G03X0000641732Y0002011810J-0000019685D01G03G03X0000641732Y0002011810J-0000019685D01X0000641732Y0002011810J-0000019685D01X0000641732Y0002011810J-0000019685D01*
G01G01G01G01*
X0000641732Y0002011810D02*
X0000641732Y0001742124D01*
X0000641732Y0001742124D02*
G75*
G03G03X0000661417Y0001722440I0000019685D01G03G03X0000661417Y0001722440I0000019685D01X0000661417Y0001722440I0000019685D01X0000661417Y0001722440I0000019685D01*
G01G01G01G01*
X0001226377Y0001624015D02*
G75*
G03G03X0001246062Y0001604329I0000019685D01G03G03X0001246062Y0001604329I0000019685D01X0001246062Y0001604329I0000019685D01X0001246062Y0001604329I0000019685D01*
G01G01G01G01*
X0001226377Y0001789370D02*
X0001226377Y0001624015D01*
X0001720472Y0001789370D02*
X0001732283Y0001789370D01*
X0001226377Y0001789370D02*
X0001208661Y0001789370D01*
X0001732283Y0001789370D02*
G75*
G03G03X0001751968Y0001809054J0000019685D01G03G03X0001751968Y0001809054J0000019685D01X0001751968Y0001809054J0000019685D01X0001751968Y0001809054J0000019685D01*
G01G01G01G01*
X0001751968Y0001935039D02*
X0001751968Y0001809054D01*
X0001188976Y0001809054D02*
G75*
G03G03X0001208661Y0001789370I0000019685D01G03G03X0001208661Y0001789370I0000019685D01X0001208661Y0001789370I0000019685D01X0001208661Y0001789370I0000019685D01*
G01G01G01G01*
X0001188976Y0001935039D02*
X0001188976Y0001809054D01*
X0001208661Y0001954724D02*
G75*
G03G03X0001188976Y0001935039J-0000019685D01G03G03X0001188976Y0001935039J-0000019685D01X0001188976Y0001935039J-0000019685D01X0001188976Y0001935039J-0000019685D01*
G01G01G01G01*
X0001732283Y0001954724D02*
X0001208661Y0001954724D01*
X0001751968Y0001935039D02*
G75*
G03G03X0001732283Y0001954724I-0000019685D01G03G03X0001732283Y0001954724I-0000019685D01X0001732283Y0001954724I-0000019685D01X0001732283Y0001954724I-0000019685D01*
G01G01G01G01*
D22*
X0000177559Y0001608661D02*
G75*
G03G03X0000177559Y0001608661I-0000051181D01G03G03X0000177559Y0001608661I-0000051181D01X0000177559Y0001608661I-0000051181D01X0000177559Y0001608661I-0000051181D01*
G01G01G01G01*
X0000177952Y0002693307D02*
G75*
G03G03X0000177952Y0002693307I-0000051181D01G03G03X0000177952Y0002693307I-0000051181D01X0000177952Y0002693307I-0000051181D01X0000177952Y0002693307I-0000051181D01*
G01G01G01G01*
X0002859448Y0002694488D02*
G75*
G03G03X0002859448Y0002694488I-0000051181D01G03G03X0002859448Y0002694488I-0000051181D01X0002859448Y0002694488I-0000051181D01X0002859448Y0002694488I-0000051181D01*
G01G01G01G01*
D24*
X0000073622Y0001462992D02*
G75*
G02G02X-0000024409Y0001561023J0000098031D01G02G02X-0000024409Y0001561023J0000098031D01X-0000024409Y0001561023J0000098031D01X-0000024409Y0001561023J0000098031D01*
G01G01G01G01*
X-0000024409Y0002742913D02*
G75*
G02G02X0000073622Y0002840944I0000098031D01G02G02X0000073622Y0002840944I0000098031D01X0000073622Y0002840944I0000098031D01X0000073622Y0002840944I0000098031D01*
G01G01G01G01*
X0002869291Y0002840944D02*
G75*
G02G02X0002967321Y0002742913J-0000098031D01G02G02X0002967321Y0002742913J-0000098031D01X0002967321Y0002742913J-0000098031D01X0002967321Y0002742913J-0000098031D01*
G01G01G01G01*
D22*
X0002857873Y0001610236D02*
G75*
G03G03X0002857873Y0001610236I-0000051181D01G03G03X0002857873Y0001610236I-0000051181D01X0002857873Y0001610236I-0000051181D01X0002857873Y0001610236I-0000051181D01*
G01G01G01G01*
D24*
X0002967321Y0001561417D02*
G75*
G02G02X0002869291Y0001463385I-0000098031D01G02G02X0002869291Y0001463385I-0000098031D01X0002869291Y0001463385I-0000098031D01X0002869291Y0001463385I-0000098031D01*
G01G01G01G01*
X-0000024409Y0001561023D02*
X-0000024409Y0002742913D01*
X0002869291Y0001463385D02*
X0000073622Y0001462992D01*
X0002967321Y0002742913D02*
X0002967321Y0001561417D01*
X0000073622Y0002840944D02*
X0002869291Y0002840944D01*
D22*
X0002619488Y0002316700D02*
G75*
G02G02X0002619488Y0002459220I-0000106299J0000071259D01G02G02X0002619488Y0002459220I-0000106299J0000071259D01X0002619488Y0002459220I-0000106299J0000071259D01X0002619488Y0002459220I-0000106299J0000071259D01*
G01G01G01G01*
X0002619488Y0002459220D02*
X0002619488Y0002316700D01*
G04 next file*
G01G01G01G01*
D35*
D36*
X0001255905Y0002938976D02*
X0001763779Y0002938976D01*
X0001236220Y0003068897D02*
X0001236220Y0002958661D01*
X0001763779Y0003088582D02*
X0001255905Y0003088582D01*
X0001783464Y0002958661D02*
X0001783464Y0003068897D01*
X0001763779Y0002938976D02*
G75*
G03G03X0001783464Y0002958661J0000019685D01G03G03X0001783464Y0002958661J0000019685D01X0001783464Y0002958661J0000019685D01X0001783464Y0002958661J0000019685D01*
G01G01G01G01*
X0001783464Y0003068897D02*
G75*
G03G03X0001763779Y0003088582I-0000019685D01G03G03X0001763779Y0003088582I-0000019685D01X0001763779Y0003088582I-0000019685D01X0001763779Y0003088582I-0000019685D01*
G01G01G01G01*
X0001255905Y0003088582D02*
G75*
G03G03X0001236220Y0003068897J-0000019685D01G03G03X0001236220Y0003068897J-0000019685D01X0001236220Y0003068897J-0000019685D01X0001236220Y0003068897J-0000019685D01*
G01G01G01G01*
X0001236220Y0002958661D02*
G75*
G03G03X0001255905Y0002938976I0000019685D01G03G03X0001255905Y0002938976I0000019685D01X0001255905Y0002938976I0000019685D01X0001255905Y0002938976I0000019685D01*
G01G01G01G01*
G04 next file*
G04 #@! TF.FileFunction,Profile,NP*
G04 Gerber Fmt 4.6, Leading zero omitted, Abs format (unit mm)*
G04 Created by KiCad (PCBNEW (2016-07-22 BZR 6991, Git 146a78a)-product) date 08/19/16 17:37:13*
G01G01G01G01*
G04 APERTURE LIST*
G04 APERTURE END LIST*
D47*
D48*
X0001244094Y0003169291D02*
X0001244094Y0003326771D01*
X0001722440Y0003169291D02*
X0001244094Y0003169291D01*
X0001722440Y0003326771D02*
X0001722440Y0003169291D01*
X0001263779Y0003346456D02*
X0001702755Y0003346456D01*
X0001263779Y0003346456D02*
G75*
G03G03X0001244094Y0003326771J0000019685D01G03G03X0001244094Y0003326771J0000019685D01X0001244094Y0003326771J0000019685D01X0001244094Y0003326771J0000019685D01*
G01G01G01G01*
X0001722440Y0003326771D02*
G75*
G03G03X0001702755Y0003346456I0000019685D01G03G03X0001702755Y0003346456I0000019685D01X0001702755Y0003346456I0000019685D01X0001702755Y0003346456I0000019685D01*
G01G01G01G01*
M02*