%MOIN*%
%OFA0B0*%
%FSLAX46Y46*%
%IPPOS*%
%LPD*%
%ADD10C,0.005905511811023622*%
%ADD11C,0.015748031496062995*%
%ADD12C,0.01968503937007874*%
%ADD13C,0.017716535433070866*%
%ADD14C,0.00039370078740157485*%
%ADD15C,0.03937007874015748*%
%ADD16C,0.11811023622047245*%
%ADD17C,0.027559055118110236*%
%ADD18C,0.053149606299212608*%
%ADD29C,0.005905511811023622*%
%ADD30C,0.0078740157480314977*%
%ADD31C,0.01968503937007874*%
%ADD32C,0.015748031496062995*%
%ADD33C,0.03937007874015748*%
%ADD34C,0.11811023622047245*%
%ADD35C,0.027559055118110236*%
%ADD36C,0.053149606299212608*%
%ADD47C,0.005905511811023622*%
%ADD48C,0.0039370078740157488*%
%ADD49C,0.21653543307086615*%
%ADD50C,0.01*%
%ADD61C,0.005905511811023622*%
%ADD62C,0.0039370078740157488*%
%ADD63C,0.21653543307086615*%
%ADD64C,0.01*%
%ADD75C,0.005905511811023622*%
%ADD76C,0.0039370078740157488*%
%ADD77C,0.21653543307086615*%
%ADD78C,0.01*%
%ADD89C,0.005905511811023622*%
%ADD90C,0.0039370078740157488*%
%ADD91C,0.21653543307086615*%
%ADD92C,0.01*%
%ADD103C,0.005905511811023622*%
%ADD114C,0.005905511811023622*%
%LPD*%
G01G01G01G01G01G01G01G01*
D10*
D11*
X0002514285Y0000830539D02*
X0002548031Y0000830539D01*
X0002548031Y0000901406D01*
D12*
X0002386614Y0000866535D02*
X0002177952Y0000866535D01*
D11*
X0002044655Y0000829953D02*
X0002044655Y0000900819D01*
X0002044655Y0000867074D02*
X0002004160Y0000867074D01*
X0002004160Y0000829953D02*
X0002004160Y0000900819D01*
D12*
X0001878346Y0000866929D02*
G75*
G02G02G02G02X0001797637Y0000949630J0000080732D01X0001797637Y0000949630J0000080732D01X0001797637Y0000949630J0000080732D01G02G02X0001797637Y0000949630J0000080732D01G02G02X0001797637Y0000949630J0000080732D01X0001797637Y0000949630J0000080732D01X0001797637Y0000949630J0000080732D01X0001797637Y0000949630J0000080732D01*
G01G01G01G01G01G01G01G01*
X0001795669Y0001256692D02*
X0001797637Y0000949630D01*
X0001795645Y0001258267D02*
G75*
G02G02G02G02X0001878346Y0001338976I0000080732D01X0001878346Y0001338976I0000080732D01X0001878346Y0001338976I0000080732D01G02G02X0001878346Y0001338976I0000080732D01G02G02X0001878346Y0001338976I0000080732D01X0001878346Y0001338976I0000080732D01X0001878346Y0001338976I0000080732D01X0001878346Y0001338976I0000080732D01*
G01G01G01G01G01G01G01G01*
X0002685826Y0001338976D02*
X0001878740Y0001338976D01*
X0002681889Y0001338976D02*
G75*
G02G02G02G02X0002762598Y0001256275J-0000080732D01X0002762598Y0001256275J-0000080732D01X0002762598Y0001256275J-0000080732D01G02G02X0002762598Y0001256275J-0000080732D01G02G02X0002762598Y0001256275J-0000080732D01X0002762598Y0001256275J-0000080732D01X0002762598Y0001256275J-0000080732D01X0002762598Y0001256275J-0000080732D01*
G01G01G01G01G01G01G01G01*
X0002762598Y0000946455D02*
X0002762598Y0001256275D01*
X0002762598Y0000946455D02*
G75*
G02G02G02G02X0002679897Y0000865747I-0000080732D01X0002679897Y0000865747I-0000080732D01X0002679897Y0000865747I-0000080732D01G02G02X0002679897Y0000865747I-0000080732D01G02G02X0002679897Y0000865747I-0000080732D01X0002679897Y0000865747I-0000080732D01X0002679897Y0000865747I-0000080732D01X0002679897Y0000865747I-0000080732D01*
G01G01G01G01G01G01G01G01*
D11*
X0002800187Y0001064323D02*
X0002800187Y0001014829D01*
X0002878927Y0001039576D02*
X0002800187Y0001039576D01*
X0002800187Y0000994207D02*
X0002878927Y0000936463D01*
X0002800187Y0000936463D02*
X0002878927Y0000994207D01*
X0002878927Y0000858099D02*
X0002878927Y0000907592D01*
X0002878927Y0000882845D02*
X0002800187Y0000882845D01*
X0002811436Y0000891094D01*
X0002818935Y0000899343D01*
X0002822683Y0000907592D01*
D12*
X0001795645Y0000707086D02*
G75*
G02G02G02G02X0001878346Y0000787794I0000080732D01X0001878346Y0000787794I0000080732D01X0001878346Y0000787794I0000080732D01G02G02X0001878346Y0000787794I0000080732D01G02G02X0001878346Y0000787794I0000080732D01X0001878346Y0000787794I0000080732D01X0001878346Y0000787794I0000080732D01X0001878346Y0000787794I0000080732D01*
G01G01G01G01G01G01G01G01*
X0001795669Y0000705511D02*
X0001797637Y0000398449D01*
X0001878346Y0000315748D02*
G75*
G02G02G02G02X0001797637Y0000398449J0000080732D01X0001797637Y0000398449J0000080732D01X0001797637Y0000398449J0000080732D01G02G02X0001797637Y0000398449J0000080732D01G02G02X0001797637Y0000398449J0000080732D01X0001797637Y0000398449J0000080732D01X0001797637Y0000398449J0000080732D01X0001797637Y0000398449J0000080732D01*
G01G01G01G01G01G01G01G01*
X0001618897Y0001338976D02*
G75*
G02G02G02G02X0001699606Y0001256275J-0000080732D01X0001699606Y0001256275J-0000080732D01X0001699606Y0001256275J-0000080732D01G02G02X0001699606Y0001256275J-0000080732D01G02G02X0001699606Y0001256275J-0000080732D01X0001699606Y0001256275J-0000080732D01X0001699606Y0001256275J-0000080732D01X0001699606Y0001256275J-0000080732D01*
G01G01G01G01G01G01G01G01*
X0001699606Y0000948425D02*
X0001699606Y0001256275D01*
X0001699606Y0000947244D02*
G75*
G02G02G02G02X0001616905Y0000866535I-0000080732D01X0001616905Y0000866535I-0000080732D01X0001616905Y0000866535I-0000080732D01G02G02X0001616905Y0000866535I-0000080732D01G02G02X0001616905Y0000866535I-0000080732D01X0001616905Y0000866535I-0000080732D01X0001616905Y0000866535I-0000080732D01X0001616905Y0000866535I-0000080732D01*
G01G01G01G01G01G01G01G01*
D11*
X0001451293Y0000830539D02*
X0001485039Y0000830539D01*
X0001485039Y0000901406D01*
D12*
X0001323622Y0000866535D02*
X0001114960Y0000866535D01*
D11*
X0000991788Y0000900819D02*
X0000974915Y0000829953D01*
X0000961417Y0000880571D01*
X0000947918Y0000829953D01*
X0000931046Y0000900819D01*
D12*
X0000811811Y0000866535D02*
X0000603149Y0000866535D01*
D11*
X0000469853Y0000830539D02*
X0000469853Y0000901406D01*
X0000469853Y0000867660D02*
X0000429358Y0000867660D01*
X0000429358Y0000830539D02*
X0000429358Y0000901406D01*
D12*
X0000304174Y0000867917D02*
G75*
G02G02G02G02X0000223465Y0000950618J0000080732D01X0000223465Y0000950618J0000080732D01X0000223465Y0000950618J0000080732D01G02G02X0000223465Y0000950618J0000080732D01G02G02X0000223465Y0000950618J0000080732D01X0000223465Y0000950618J0000080732D01X0000223465Y0000950618J0000080732D01X0000223465Y0000950618J0000080732D01*
G01G01G01G01G01G01G01G01*
X0001622834Y0001338976D02*
X0000305905Y0001338976D01*
X0000223204Y0001258267D02*
G75*
G02G02G02G02X0000305905Y0001338976I0000080732D01X0000305905Y0001338976I0000080732D01X0000305905Y0001338976I0000080732D01G02G02X0000305905Y0001338976I0000080732D01G02G02X0000305905Y0001338976I0000080732D01X0000305905Y0001338976I0000080732D01X0000305905Y0001338976I0000080732D01X0000305905Y0001338976I0000080732D01*
G01G01G01G01G01G01G01G01*
X0000223465Y0000950594D02*
X0000223465Y0001259650D01*
D11*
X0000183258Y0001015523D02*
X0000145762Y0001044394D01*
X0000183258Y0001065016D02*
X0000104518Y0001065016D01*
X0000104518Y0001032021D01*
X0000108267Y0001023771D01*
X0000112017Y0001019647D01*
X0000119515Y0001015523D01*
X0000130762Y0001015523D01*
X0000138263Y0001019647D01*
X0000142013Y0001023771D01*
X0000145762Y0001032021D01*
X0000145762Y0001065016D01*
X0000104518Y0000986651D02*
X0000183258Y0000928908D01*
X0000104518Y0000928908D02*
X0000183258Y0000986651D01*
X0000183258Y0000850543D02*
X0000183258Y0000900037D01*
X0000183258Y0000875290D02*
X0000104518Y0000875290D01*
X0000115766Y0000883539D01*
X0000123265Y0000891788D01*
X0000127013Y0000900037D01*
X0002044655Y0000278772D02*
X0002044655Y0000349638D01*
X0002044655Y0000315892D02*
X0002004160Y0000315892D01*
X0002004160Y0000278772D02*
X0002004160Y0000349638D01*
X0002514285Y0000279358D02*
X0002548031Y0000279358D01*
X0002548031Y0000350225D01*
D12*
X0002386614Y0000315353D02*
X0002177952Y0000315353D01*
X0002685826Y0000787794D02*
X0001878740Y0000787794D01*
X0002681889Y0000787794D02*
G75*
G02G02G02G02X0002762598Y0000705094J-0000080732D01X0002762598Y0000705094J-0000080732D01X0002762598Y0000705094J-0000080732D01G02G02X0002762598Y0000705094J-0000080732D01G02G02X0002762598Y0000705094J-0000080732D01X0002762598Y0000705094J-0000080732D01X0002762598Y0000705094J-0000080732D01X0002762598Y0000705094J-0000080732D01*
G01G01G01G01G01G01G01G01*
X0002762598Y0000395275D02*
X0002762598Y0000705094D01*
X0002762598Y0000396062D02*
G75*
G02G02G02G02X0002679897Y0000315353I-0000080732D01X0002679897Y0000315353I-0000080732D01X0002679897Y0000315353I-0000080732D01G02G02X0002679897Y0000315353I-0000080732D01G02G02X0002679897Y0000315353I-0000080732D01X0002679897Y0000315353I-0000080732D01X0002679897Y0000315353I-0000080732D01X0002679897Y0000315353I-0000080732D01*
G01G01G01G01G01G01G01G01*
D11*
X0002800187Y0000513142D02*
X0002800187Y0000463648D01*
X0002878927Y0000488394D02*
X0002800187Y0000488394D01*
X0002800187Y0000443025D02*
X0002878927Y0000385283D01*
X0002800187Y0000385283D02*
X0002878927Y0000443025D01*
X0002807686Y0000356410D02*
X0002803937Y0000352287D01*
X0002800187Y0000344038D01*
X0002800187Y0000323415D01*
X0002803937Y0000315166D01*
X0002807686Y0000311042D01*
X0002815185Y0000306917D01*
X0002822683Y0000306917D01*
X0002833933Y0000311042D01*
X0002878927Y0000360536D01*
X0002878927Y0000306917D01*
D12*
X0000811811Y0000315353D02*
X0000603149Y0000315353D01*
D11*
X0000183258Y0000464341D02*
X0000145762Y0000493213D01*
X0000183258Y0000513835D02*
X0000104518Y0000513835D01*
X0000104518Y0000480839D01*
X0000108267Y0000472590D01*
X0000112017Y0000468466D01*
X0000119515Y0000464341D01*
X0000130762Y0000464341D01*
X0000138263Y0000468466D01*
X0000142013Y0000472590D01*
X0000145762Y0000480839D01*
X0000145762Y0000513835D01*
X0000104518Y0000435470D02*
X0000183258Y0000377727D01*
X0000104518Y0000377727D02*
X0000183258Y0000435470D01*
X0000112017Y0000348856D02*
X0000108267Y0000344730D01*
X0000104518Y0000336482D01*
X0000104518Y0000315860D01*
X0000108267Y0000307611D01*
X0000112017Y0000303487D01*
X0000119515Y0000299362D01*
X0000127013Y0000299362D01*
X0000138263Y0000303487D01*
X0000183258Y0000352980D01*
X0000183258Y0000299362D01*
D12*
X0001699606Y0000395275D02*
X0001699606Y0000705094D01*
X0001699606Y0000396062D02*
G75*
G02G02G02G02X0001616905Y0000315353I-0000080732D01X0001616905Y0000315353I-0000080732D01X0001616905Y0000315353I-0000080732D01G02G02X0001616905Y0000315353I-0000080732D01G02G02X0001616905Y0000315353I-0000080732D01X0001616905Y0000315353I-0000080732D01X0001616905Y0000315353I-0000080732D01X0001616905Y0000315353I-0000080732D01*
G01G01G01G01G01G01G01G01*
X0001618897Y0000787794D02*
G75*
G02G02G02G02X0001699606Y0000705094J-0000080732D01X0001699606Y0000705094J-0000080732D01X0001699606Y0000705094J-0000080732D01G02G02X0001699606Y0000705094J-0000080732D01G02G02X0001699606Y0000705094J-0000080732D01X0001699606Y0000705094J-0000080732D01X0001699606Y0000705094J-0000080732D01X0001699606Y0000705094J-0000080732D01*
G01G01G01G01G01G01G01G01*
X0001323622Y0000315353D02*
X0001114960Y0000315353D01*
X0000223465Y0000399413D02*
X0000223465Y0000708468D01*
X0000304174Y0000316736D02*
G75*
G02G02G02G02X0000223465Y0000399437J0000080732D01X0000223465Y0000399437J0000080732D01X0000223465Y0000399437J0000080732D01G02G02X0000223465Y0000399437J0000080732D01G02G02X0000223465Y0000399437J0000080732D01X0000223465Y0000399437J0000080732D01X0000223465Y0000399437J0000080732D01X0000223465Y0000399437J0000080732D01*
G01G01G01G01G01G01G01G01*
X0000223204Y0000707086D02*
G75*
G02G02G02G02X0000305905Y0000787794I0000080732D01X0000305905Y0000787794I0000080732D01X0000305905Y0000787794I0000080732D01G02G02X0000305905Y0000787794I0000080732D01G02G02X0000305905Y0000787794I0000080732D01X0000305905Y0000787794I0000080732D01X0000305905Y0000787794I0000080732D01X0000305905Y0000787794I0000080732D01*
G01G01G01G01G01G01G01G01*
X0001622834Y0000787794D02*
X0000305905Y0000787794D01*
D11*
X0000469853Y0000279358D02*
X0000469853Y0000350225D01*
X0000469853Y0000316479D02*
X0000429358Y0000316479D01*
X0000429358Y0000279358D02*
X0000429358Y0000350225D01*
X0000991788Y0000349638D02*
X0000974915Y0000278772D01*
X0000961417Y0000329391D01*
X0000947918Y0000278772D01*
X0000931046Y0000349638D01*
X0001451293Y0000279358D02*
X0001485039Y0000279358D01*
X0001485039Y0000350225D01*
D13*
X0000931889Y0000082227D02*
X0000982508Y0000082227D01*
X0000982508Y0000188526D01*
X0000896456Y0000082227D02*
X0000896456Y0000153093D01*
X0000896456Y0000188526D02*
X0000901518Y0000183464D01*
X0000896456Y0000178402D01*
X0000891394Y0000183464D01*
X0000896456Y0000188526D01*
X0000896456Y0000178402D01*
X0000845837Y0000082227D02*
X0000845837Y0000153093D01*
X0000845837Y0000142969D02*
X0000840776Y0000148031D01*
X0000830652Y0000153093D01*
X0000815466Y0000153093D01*
X0000805343Y0000148031D01*
X0000800281Y0000137907D01*
X0000800281Y0000082227D01*
X0000800281Y0000137907D02*
X0000795219Y0000148031D01*
X0000785095Y0000153093D01*
X0000769910Y0000153093D01*
X0000759785Y0000148031D01*
X0000754724Y0000137907D01*
X0000754724Y0000082227D01*
X0000663610Y0000087289D02*
X0000673734Y0000082227D01*
X0000693981Y0000082227D01*
X0000704105Y0000087289D01*
X0000709167Y0000097412D01*
X0000709167Y0000137907D01*
X0000704105Y0000148031D01*
X0000693981Y0000153093D01*
X0000673734Y0000153093D01*
X0000663610Y0000148031D01*
X0000658548Y0000137907D01*
X0000658548Y0000127784D01*
X0000709167Y0000117660D01*
X0000618053Y0000087289D02*
X0000602868Y0000082227D01*
X0000577559Y0000082227D01*
X0000567435Y0000087289D01*
X0000562373Y0000092350D01*
X0000557311Y0000102474D01*
X0000557311Y0000112598D01*
X0000562373Y0000122722D01*
X0000567435Y0000127784D01*
X0000577559Y0000132845D01*
X0000597806Y0000137907D01*
X0000607930Y0000142969D01*
X0000612992Y0000148031D01*
X0000618053Y0000158155D01*
X0000618053Y0000168278D01*
X0000612992Y0000178402D01*
X0000607930Y0000183464D01*
X0000597806Y0000188526D01*
X0000572497Y0000188526D01*
X0000557311Y0000183464D01*
X0000511754Y0000082227D02*
X0000511754Y0000188526D01*
X0000486445Y0000188526D01*
X0000471259Y0000183464D01*
X0000461136Y0000173340D01*
X0000456074Y0000163217D01*
X0000451012Y0000142969D01*
X0000451012Y0000127784D01*
X0000456074Y0000107535D01*
X0000461136Y0000097412D01*
X0000471259Y0000087289D01*
X0000486445Y0000082227D01*
X0000511754Y0000082227D01*
X0000344713Y0000082227D02*
X0000380145Y0000132845D01*
X0000405454Y0000082227D02*
X0000405454Y0000188526D01*
X0000364960Y0000188526D01*
X0000354836Y0000183464D01*
X0000349775Y0000178402D01*
X0000344713Y0000168278D01*
X0000344713Y0000153093D01*
X0000349775Y0000142969D01*
X0000354836Y0000137907D01*
X0000364960Y0000132845D01*
X0000405454Y0000132845D01*
D14*
G36*
X0001144647Y0000082748D02*
X0001143207Y0000082296D01*
X0001141609Y0000081223D01*
X0001139623Y0000079267D01*
X0001137023Y0000076163D01*
X0001133582Y0000071651D01*
X0001129072Y0000065468D01*
X0001123267Y0000057351D01*
X0001119551Y0000052125D01*
X0001113720Y0000043881D01*
X0001108472Y0000036393D01*
X0001104024Y0000029976D01*
X0001100596Y0000024949D01*
X0001098405Y0000021627D01*
X0001097668Y0000020340D01*
X0001098306Y0000019251D01*
X0001100506Y0000020447D01*
X0001104299Y0000023949D01*
X0001107039Y0000026827D01*
X0001113898Y0000034272D01*
X0001119380Y0000040322D01*
X0001124074Y0000045661D01*
X0001128568Y0000050965D01*
X0001133449Y0000056915D01*
X0001138770Y0000063520D01*
X0001143373Y0000069399D01*
X0001147204Y0000074546D01*
X0001149959Y0000078536D01*
X0001151334Y0000080938D01*
X0001151424Y0000081379D01*
X0001149815Y0000082371D01*
X0001146543Y0000082835D01*
X0001146154Y0000082840D01*
X0001144647Y0000082748D01*
X0001144647Y0000082748D01*
G37*
X0001144647Y0000082748D02*
X0001143207Y0000082296D01*
X0001141609Y0000081223D01*
X0001139623Y0000079267D01*
X0001137023Y0000076163D01*
X0001133582Y0000071651D01*
X0001129072Y0000065468D01*
X0001123267Y0000057351D01*
X0001119551Y0000052125D01*
X0001113720Y0000043881D01*
X0001108472Y0000036393D01*
X0001104024Y0000029976D01*
X0001100596Y0000024949D01*
X0001098405Y0000021627D01*
X0001097668Y0000020340D01*
X0001098306Y0000019251D01*
X0001100506Y0000020447D01*
X0001104299Y0000023949D01*
X0001107039Y0000026827D01*
X0001113898Y0000034272D01*
X0001119380Y0000040322D01*
X0001124074Y0000045661D01*
X0001128568Y0000050965D01*
X0001133449Y0000056915D01*
X0001138770Y0000063520D01*
X0001143373Y0000069399D01*
X0001147204Y0000074546D01*
X0001149959Y0000078536D01*
X0001151334Y0000080938D01*
X0001151424Y0000081379D01*
X0001149815Y0000082371D01*
X0001146543Y0000082835D01*
X0001146154Y0000082840D01*
X0001144647Y0000082748D01*
G36*
X0001276961Y0000261405D02*
X0001274118Y0000258776D01*
X0001269844Y0000254035D01*
X0001267474Y0000251253D01*
X0001263416Y0000246449D01*
X0001259952Y0000242369D01*
X0001257560Y0000239578D01*
X0001256837Y0000238754D01*
X0001255493Y0000237174D01*
X0001252650Y0000233763D01*
X0001248621Y0000228899D01*
X0001243720Y0000222961D01*
X0001238329Y0000216411D01*
X0001232201Y0000209046D01*
X0001225961Y0000201707D01*
X0001220117Y0000194980D01*
X0001215175Y0000189449D01*
X0001212341Y0000186411D01*
X0001208072Y0000182038D01*
X0001205232Y0000179424D01*
X0001203276Y0000178265D01*
X0001201655Y0000178257D01*
X0001199823Y0000179100D01*
X0001199492Y0000179283D01*
X0001195656Y0000182334D01*
X0001192611Y0000186998D01*
X0001190137Y0000193710D01*
X0001188304Y0000201432D01*
X0001186449Y0000210634D01*
X0001185037Y0000217407D01*
X0001183960Y0000222120D01*
X0001183107Y0000225148D01*
X0001182368Y0000226861D01*
X0001181635Y0000227631D01*
X0001180796Y0000227835D01*
X0001180519Y0000227840D01*
X0001179407Y0000227363D01*
X0001178520Y0000225635D01*
X0001177740Y0000222205D01*
X0001176950Y0000216624D01*
X0001176461Y0000212417D01*
X0001175740Y0000205414D01*
X0001175166Y0000198859D01*
X0001174813Y0000193647D01*
X0001174735Y0000191345D01*
X0001174035Y0000185100D01*
X0001172182Y0000177553D01*
X0001169516Y0000169839D01*
X0001166380Y0000163094D01*
X0001166070Y0000162545D01*
X0001164129Y0000158451D01*
X0001163729Y0000155890D01*
X0001164805Y0000155194D01*
X0001167238Y0000156647D01*
X0001168752Y0000157753D01*
X0001171115Y0000159135D01*
X0001174734Y0000160998D01*
X0001180016Y0000163552D01*
X0001187369Y0000167001D01*
X0001190181Y0000168307D01*
X0001193473Y0000169191D01*
X0001198289Y0000169778D01*
X0001201374Y0000169909D01*
X0001206224Y0000169760D01*
X0001209302Y0000168957D01*
X0001211679Y0000167133D01*
X0001212661Y0000166048D01*
X0001215299Y0000161902D01*
X0001216932Y0000157401D01*
X0001216942Y0000157346D01*
X0001216683Y0000151917D01*
X0001214221Y0000144762D01*
X0001209587Y0000135935D01*
X0001202814Y0000125488D01*
X0001193934Y0000113482D01*
X0001183037Y0000100032D01*
X0001178653Y0000094449D01*
X0001176101Y0000090352D01*
X0001175516Y0000087958D01*
X0001175539Y0000087890D01*
X0001176285Y0000085249D01*
X0001177206Y0000081007D01*
X0001177667Y0000078554D01*
X0001178385Y0000074800D01*
X0001179272Y0000070921D01*
X0001180502Y0000066249D01*
X0001182252Y0000060111D01*
X0001184369Y0000052933D01*
X0001186006Y0000049419D01*
X0001187939Y0000048083D01*
X0001189723Y0000049231D01*
X0001189736Y0000049252D01*
X0001190173Y0000051179D01*
X0001190709Y0000055399D01*
X0001191286Y0000061353D01*
X0001191847Y0000068480D01*
X0001192025Y0000071113D01*
X0001192998Y0000082862D01*
X0001194289Y0000092206D01*
X0001196016Y0000099590D01*
X0001198298Y0000105461D01*
X0001201256Y0000110263D01*
X0001203065Y0000112448D01*
X0001206286Y0000115814D01*
X0001209436Y0000118481D01*
X0001212910Y0000120552D01*
X0001217102Y0000122130D01*
X0001222409Y0000123320D01*
X0001229223Y0000124223D01*
X0001237940Y0000124944D01*
X0001248956Y0000125586D01*
X0001254295Y0000125851D01*
X0001261710Y0000126280D01*
X0001268158Y0000126774D01*
X0001273072Y0000127283D01*
X0001275887Y0000127754D01*
X0001276264Y0000127895D01*
X0001277345Y0000129545D01*
X0001276190Y0000131140D01*
X0001273367Y0000132068D01*
X0001272328Y0000132125D01*
X0001267153Y0000132652D01*
X0001260554Y0000134065D01*
X0001253284Y0000136120D01*
X0001246086Y0000138568D01*
X0001239709Y0000141163D01*
X0001234902Y0000143657D01*
X0001232950Y0000145131D01*
X0001230429Y0000147897D01*
X0001229733Y0000149920D01*
X0001230574Y0000152376D01*
X0001230973Y0000153164D01*
X0001234020Y0000157282D01*
X0001239477Y0000162473D01*
X0001247398Y0000168783D01*
X0001257837Y0000176255D01*
X0001260463Y0000178051D01*
X0001267266Y0000182594D01*
X0001275185Y0000187764D01*
X0001283618Y0000193178D01*
X0001291962Y0000198456D01*
X0001299613Y0000203213D01*
X0001305968Y0000207071D01*
X0001309686Y0000209235D01*
X0001315068Y0000212344D01*
X0001318354Y0000214512D01*
X0001320000Y0000216083D01*
X0001320459Y0000217406D01*
X0001320461Y0000217440D01*
X0001319302Y0000217378D01*
X0001315808Y0000216030D01*
X0001309953Y0000213384D01*
X0001301717Y0000209429D01*
X0001291069Y0000204152D01*
X0001277988Y0000197540D01*
X0001262447Y0000189582D01*
X0001245720Y0000180939D01*
X0001239437Y0000177818D01*
X0001235134Y0000176049D01*
X0001232362Y0000175480D01*
X0001230805Y0000175868D01*
X0001228614Y0000177771D01*
X0001228025Y0000178716D01*
X0001228209Y0000179687D01*
X0001229152Y0000181713D01*
X0001230949Y0000184948D01*
X0001233695Y0000189542D01*
X0001237485Y0000195647D01*
X0001242415Y0000203416D01*
X0001248579Y0000213001D01*
X0001256072Y0000224552D01*
X0001264991Y0000238221D01*
X0001272117Y0000249109D01*
X0001275213Y0000253967D01*
X0001277594Y0000257950D01*
X0001278895Y0000260440D01*
X0001279032Y0000260895D01*
X0001278543Y0000262064D01*
X0001276961Y0000261405D01*
X0001276961Y0000261405D01*
G37*
X0001276961Y0000261405D02*
X0001274118Y0000258776D01*
X0001269844Y0000254035D01*
X0001267474Y0000251253D01*
X0001263416Y0000246449D01*
X0001259952Y0000242369D01*
X0001257560Y0000239578D01*
X0001256837Y0000238754D01*
X0001255493Y0000237174D01*
X0001252650Y0000233763D01*
X0001248621Y0000228899D01*
X0001243720Y0000222961D01*
X0001238329Y0000216411D01*
X0001232201Y0000209046D01*
X0001225961Y0000201707D01*
X0001220117Y0000194980D01*
X0001215175Y0000189449D01*
X0001212341Y0000186411D01*
X0001208072Y0000182038D01*
X0001205232Y0000179424D01*
X0001203276Y0000178265D01*
X0001201655Y0000178257D01*
X0001199823Y0000179100D01*
X0001199492Y0000179283D01*
X0001195656Y0000182334D01*
X0001192611Y0000186998D01*
X0001190137Y0000193710D01*
X0001188304Y0000201432D01*
X0001186449Y0000210634D01*
X0001185037Y0000217407D01*
X0001183960Y0000222120D01*
X0001183107Y0000225148D01*
X0001182368Y0000226861D01*
X0001181635Y0000227631D01*
X0001180796Y0000227835D01*
X0001180519Y0000227840D01*
X0001179407Y0000227363D01*
X0001178520Y0000225635D01*
X0001177740Y0000222205D01*
X0001176950Y0000216624D01*
X0001176461Y0000212417D01*
X0001175740Y0000205414D01*
X0001175166Y0000198859D01*
X0001174813Y0000193647D01*
X0001174735Y0000191345D01*
X0001174035Y0000185100D01*
X0001172182Y0000177553D01*
X0001169516Y0000169839D01*
X0001166380Y0000163094D01*
X0001166070Y0000162545D01*
X0001164129Y0000158451D01*
X0001163729Y0000155890D01*
X0001164805Y0000155194D01*
X0001167238Y0000156647D01*
X0001168752Y0000157753D01*
X0001171115Y0000159135D01*
X0001174734Y0000160998D01*
X0001180016Y0000163552D01*
X0001187369Y0000167001D01*
X0001190181Y0000168307D01*
X0001193473Y0000169191D01*
X0001198289Y0000169778D01*
X0001201374Y0000169909D01*
X0001206224Y0000169760D01*
X0001209302Y0000168957D01*
X0001211679Y0000167133D01*
X0001212661Y0000166048D01*
X0001215299Y0000161902D01*
X0001216932Y0000157401D01*
X0001216942Y0000157346D01*
X0001216683Y0000151917D01*
X0001214221Y0000144762D01*
X0001209587Y0000135935D01*
X0001202814Y0000125488D01*
X0001193934Y0000113482D01*
X0001183037Y0000100032D01*
X0001178653Y0000094449D01*
X0001176101Y0000090352D01*
X0001175516Y0000087958D01*
X0001175539Y0000087890D01*
X0001176285Y0000085249D01*
X0001177206Y0000081007D01*
X0001177667Y0000078554D01*
X0001178385Y0000074800D01*
X0001179272Y0000070921D01*
X0001180502Y0000066249D01*
X0001182252Y0000060111D01*
X0001184369Y0000052933D01*
X0001186006Y0000049419D01*
X0001187939Y0000048083D01*
X0001189723Y0000049231D01*
X0001189736Y0000049252D01*
X0001190173Y0000051179D01*
X0001190709Y0000055399D01*
X0001191286Y0000061353D01*
X0001191847Y0000068480D01*
X0001192025Y0000071113D01*
X0001192998Y0000082862D01*
X0001194289Y0000092206D01*
X0001196016Y0000099590D01*
X0001198298Y0000105461D01*
X0001201256Y0000110263D01*
X0001203065Y0000112448D01*
X0001206286Y0000115814D01*
X0001209436Y0000118481D01*
X0001212910Y0000120552D01*
X0001217102Y0000122130D01*
X0001222409Y0000123320D01*
X0001229223Y0000124223D01*
X0001237940Y0000124944D01*
X0001248956Y0000125586D01*
X0001254295Y0000125851D01*
X0001261710Y0000126280D01*
X0001268158Y0000126774D01*
X0001273072Y0000127283D01*
X0001275887Y0000127754D01*
X0001276264Y0000127895D01*
X0001277345Y0000129545D01*
X0001276190Y0000131140D01*
X0001273367Y0000132068D01*
X0001272328Y0000132125D01*
X0001267153Y0000132652D01*
X0001260554Y0000134065D01*
X0001253284Y0000136120D01*
X0001246086Y0000138568D01*
X0001239709Y0000141163D01*
X0001234902Y0000143657D01*
X0001232950Y0000145131D01*
X0001230429Y0000147897D01*
X0001229733Y0000149920D01*
X0001230574Y0000152376D01*
X0001230973Y0000153164D01*
X0001234020Y0000157282D01*
X0001239477Y0000162473D01*
X0001247398Y0000168783D01*
X0001257837Y0000176255D01*
X0001260463Y0000178051D01*
X0001267266Y0000182594D01*
X0001275185Y0000187764D01*
X0001283618Y0000193178D01*
X0001291962Y0000198456D01*
X0001299613Y0000203213D01*
X0001305968Y0000207071D01*
X0001309686Y0000209235D01*
X0001315068Y0000212344D01*
X0001318354Y0000214512D01*
X0001320000Y0000216083D01*
X0001320459Y0000217406D01*
X0001320461Y0000217440D01*
X0001319302Y0000217378D01*
X0001315808Y0000216030D01*
X0001309953Y0000213384D01*
X0001301717Y0000209429D01*
X0001291069Y0000204152D01*
X0001277988Y0000197540D01*
X0001262447Y0000189582D01*
X0001245720Y0000180939D01*
X0001239437Y0000177818D01*
X0001235134Y0000176049D01*
X0001232362Y0000175480D01*
X0001230805Y0000175868D01*
X0001228614Y0000177771D01*
X0001228025Y0000178716D01*
X0001228209Y0000179687D01*
X0001229152Y0000181713D01*
X0001230949Y0000184948D01*
X0001233695Y0000189542D01*
X0001237485Y0000195647D01*
X0001242415Y0000203416D01*
X0001248579Y0000213001D01*
X0001256072Y0000224552D01*
X0001264991Y0000238221D01*
X0001272117Y0000249109D01*
X0001275213Y0000253967D01*
X0001277594Y0000257950D01*
X0001278895Y0000260440D01*
X0001279032Y0000260895D01*
X0001278543Y0000262064D01*
X0001276961Y0000261405D01*
G36*
X0001132646Y0000108918D02*
X0001128396Y0000107181D01*
X0001121914Y0000103881D01*
X0001120813Y0000103290D01*
X0001114176Y0000099553D01*
X0001106737Y0000095115D01*
X0001098872Y0000090225D01*
X0001090956Y0000085138D01*
X0001083367Y0000080105D01*
X0001076480Y0000075377D01*
X0001070672Y0000071208D01*
X0001066319Y0000067849D01*
X0001063797Y0000065553D01*
X0001063318Y0000064760D01*
X0001063711Y0000063908D01*
X0001065105Y0000063872D01*
X0001067821Y0000064767D01*
X0001072178Y0000066718D01*
X0001078498Y0000069848D01*
X0001084032Y0000072689D01*
X0001096693Y0000079342D01*
X0001107022Y0000085021D01*
X0001115298Y0000089909D01*
X0001121803Y0000094189D01*
X0001126815Y0000098045D01*
X0001130614Y0000101659D01*
X0001133276Y0000104924D01*
X0001134957Y0000107773D01*
X0001134790Y0000109110D01*
X0001132646Y0000108918D01*
X0001132646Y0000108918D01*
G37*
X0001132646Y0000108918D02*
X0001128396Y0000107181D01*
X0001121914Y0000103881D01*
X0001120813Y0000103290D01*
X0001114176Y0000099553D01*
X0001106737Y0000095115D01*
X0001098872Y0000090225D01*
X0001090956Y0000085138D01*
X0001083367Y0000080105D01*
X0001076480Y0000075377D01*
X0001070672Y0000071208D01*
X0001066319Y0000067849D01*
X0001063797Y0000065553D01*
X0001063318Y0000064760D01*
X0001063711Y0000063908D01*
X0001065105Y0000063872D01*
X0001067821Y0000064767D01*
X0001072178Y0000066718D01*
X0001078498Y0000069848D01*
X0001084032Y0000072689D01*
X0001096693Y0000079342D01*
X0001107022Y0000085021D01*
X0001115298Y0000089909D01*
X0001121803Y0000094189D01*
X0001126815Y0000098045D01*
X0001130614Y0000101659D01*
X0001133276Y0000104924D01*
X0001134957Y0000107773D01*
X0001134790Y0000109110D01*
X0001132646Y0000108918D01*
G36*
X0001156687Y0000153007D02*
X0001153836Y0000152586D01*
X0001148758Y0000152066D01*
X0001142079Y0000151501D01*
X0001134425Y0000150947D01*
X0001131175Y0000150738D01*
X0001118179Y0000149897D01*
X0001107824Y0000149144D01*
X0001099900Y0000148457D01*
X0001094191Y0000147814D01*
X0001090487Y0000147192D01*
X0001088573Y0000146571D01*
X0001088239Y0000146283D01*
X0001088886Y0000145157D01*
X0001091474Y0000144173D01*
X0001095799Y0000143089D01*
X0001101425Y0000141525D01*
X0001107589Y0000139712D01*
X0001113532Y0000137880D01*
X0001118493Y0000136261D01*
X0001121711Y0000135085D01*
X0001122265Y0000134832D01*
X0001125009Y0000133970D01*
X0001129493Y0000133116D01*
X0001133409Y0000132605D01*
X0001142033Y0000131703D01*
X0001149670Y0000139588D01*
X0001153625Y0000143857D01*
X0001156932Y0000147762D01*
X0001158932Y0000150520D01*
X0001159039Y0000150709D01*
X0001160035Y0000152934D01*
X0001159228Y0000153487D01*
X0001156687Y0000153007D01*
X0001156687Y0000153007D01*
G37*
X0001156687Y0000153007D02*
X0001153836Y0000152586D01*
X0001148758Y0000152066D01*
X0001142079Y0000151501D01*
X0001134425Y0000150947D01*
X0001131175Y0000150738D01*
X0001118179Y0000149897D01*
X0001107824Y0000149144D01*
X0001099900Y0000148457D01*
X0001094191Y0000147814D01*
X0001090487Y0000147192D01*
X0001088573Y0000146571D01*
X0001088239Y0000146283D01*
X0001088886Y0000145157D01*
X0001091474Y0000144173D01*
X0001095799Y0000143089D01*
X0001101425Y0000141525D01*
X0001107589Y0000139712D01*
X0001113532Y0000137880D01*
X0001118493Y0000136261D01*
X0001121711Y0000135085D01*
X0001122265Y0000134832D01*
X0001125009Y0000133970D01*
X0001129493Y0000133116D01*
X0001133409Y0000132605D01*
X0001142033Y0000131703D01*
X0001149670Y0000139588D01*
X0001153625Y0000143857D01*
X0001156932Y0000147762D01*
X0001158932Y0000150520D01*
X0001159039Y0000150709D01*
X0001160035Y0000152934D01*
X0001159228Y0000153487D01*
X0001156687Y0000153007D01*
%LPC*%
D15*
X0000221915Y0000145275D02*
G75*
G03G03G03G03X0000221915Y0000145275I-0000070734D01X0000221915Y0000145275I-0000070734D01X0000221915Y0000145275I-0000070734D01G03G03X0000221915Y0000145275I-0000070734D01G03G03X0000221915Y0000145275I-0000070734D01X0000221915Y0000145275I-0000070734D01X0000221915Y0000145275I-0000070734D01X0000221915Y0000145275I-0000070734D01*
G01G01G01G01G01G01G01G01*
X0000221522Y0001230708D02*
G75*
G03G03G03G03X0000221522Y0001230708I-0000070734D01X0000221522Y0001230708I-0000070734D01X0000221522Y0001230708I-0000070734D01G03G03X0000221522Y0001230708I-0000070734D01G03G03X0000221522Y0001230708I-0000070734D01X0000221522Y0001230708I-0000070734D01X0000221522Y0001230708I-0000070734D01X0000221522Y0001230708I-0000070734D01*
G01G01G01G01G01G01G01G01*
X0002903543Y0001231102D02*
G75*
G03G03G03G03X0002903543Y0001231102I-0000070734D01X0002903543Y0001231102I-0000070734D01X0002903543Y0001231102I-0000070734D01G03G03X0002903543Y0001231102I-0000070734D01G03G03X0002903543Y0001231102I-0000070734D01X0002903543Y0001231102I-0000070734D01X0002903543Y0001231102I-0000070734D01X0002903543Y0001231102I-0000070734D01*
G01G01G01G01G01G01G01G01*
X0002902077Y0000147445D02*
G75*
G03G03G03G03X0002902077Y0000147445I-0000070734D01X0002902077Y0000147445I-0000070734D01X0002902077Y0000147445I-0000070734D01G03G03X0002902077Y0000147445I-0000070734D01G03G03X0002902077Y0000147445I-0000070734D01X0002902077Y0000147445I-0000070734D01X0002902077Y0000147445I-0000070734D01X0002902077Y0000147445I-0000070734D01*
G01G01G01G01G01G01G01G01*
D16*
X0002640944Y0000559448D02*
G75*
G03G03G03G03X0002640944Y0000559448I-0000104724D01X0002640944Y0000559448I-0000104724D01X0002640944Y0000559448I-0000104724D01G03G03X0002640944Y0000559448I-0000104724D01G03G03X0002640944Y0000559448I-0000104724D01X0002640944Y0000559448I-0000104724D01X0002640944Y0000559448I-0000104724D01X0002640944Y0000559448I-0000104724D01*
G01G01G01G01G01G01G01G01*
D17*
X0002651574Y0000631889D02*
X0002651574Y0000486614D01*
D18*
X0002687007Y0000559448D02*
G75*
G03G03G03G03X0002687007Y0000559448I-0000150787D01X0002687007Y0000559448I-0000150787D01X0002687007Y0000559448I-0000150787D01G03G03X0002687007Y0000559448I-0000150787D01G03G03X0002687007Y0000559448I-0000150787D01X0002687007Y0000559448I-0000150787D01X0002687007Y0000559448I-0000150787D01X0002687007Y0000559448I-0000150787D01*
G01G01G01G01G01G01G01G01*
D16*
X0002129133Y0000559448D02*
G75*
G03G03G03G03X0002129133Y0000559448I-0000104724D01X0002129133Y0000559448I-0000104724D01X0002129133Y0000559448I-0000104724D01G03G03X0002129133Y0000559448I-0000104724D01G03G03X0002129133Y0000559448I-0000104724D01X0002129133Y0000559448I-0000104724D01X0002129133Y0000559448I-0000104724D01X0002129133Y0000559448I-0000104724D01*
G01G01G01G01G01G01G01G01*
D17*
X0002139763Y0000631889D02*
X0002139763Y0000486614D01*
D18*
X0002175196Y0000559448D02*
G75*
G03G03G03G03X0002175196Y0000559448I-0000150787D01X0002175196Y0000559448I-0000150787D01X0002175196Y0000559448I-0000150787D01G03G03X0002175196Y0000559448I-0000150787D01G03G03X0002175196Y0000559448I-0000150787D01X0002175196Y0000559448I-0000150787D01X0002175196Y0000559448I-0000150787D01X0002175196Y0000559448I-0000150787D01*
G01G01G01G01G01G01G01G01*
D16*
X0002640944Y0001110629D02*
G75*
G03G03G03G03X0002640944Y0001110629I-0000104724D01X0002640944Y0001110629I-0000104724D01X0002640944Y0001110629I-0000104724D01G03G03X0002640944Y0001110629I-0000104724D01G03G03X0002640944Y0001110629I-0000104724D01X0002640944Y0001110629I-0000104724D01X0002640944Y0001110629I-0000104724D01X0002640944Y0001110629I-0000104724D01*
G01G01G01G01G01G01G01G01*
D17*
X0002651574Y0001183070D02*
X0002651574Y0001037795D01*
D18*
X0002687007Y0001110629D02*
G75*
G03G03G03G03X0002687007Y0001110629I-0000150787D01X0002687007Y0001110629I-0000150787D01X0002687007Y0001110629I-0000150787D01G03G03X0002687007Y0001110629I-0000150787D01G03G03X0002687007Y0001110629I-0000150787D01X0002687007Y0001110629I-0000150787D01X0002687007Y0001110629I-0000150787D01X0002687007Y0001110629I-0000150787D01*
G01G01G01G01G01G01G01G01*
D16*
X0002129133Y0001110629D02*
G75*
G03G03G03G03X0002129133Y0001110629I-0000104724D01X0002129133Y0001110629I-0000104724D01X0002129133Y0001110629I-0000104724D01G03G03X0002129133Y0001110629I-0000104724D01G03G03X0002129133Y0001110629I-0000104724D01X0002129133Y0001110629I-0000104724D01X0002129133Y0001110629I-0000104724D01X0002129133Y0001110629I-0000104724D01*
G01G01G01G01G01G01G01G01*
D17*
X0002139763Y0001183070D02*
X0002139763Y0001037795D01*
D18*
X0002175196Y0001110629D02*
G75*
G03G03G03G03X0002175196Y0001110629I-0000150787D01X0002175196Y0001110629I-0000150787D01X0002175196Y0001110629I-0000150787D01G03G03X0002175196Y0001110629I-0000150787D01G03G03X0002175196Y0001110629I-0000150787D01X0002175196Y0001110629I-0000150787D01X0002175196Y0001110629I-0000150787D01X0002175196Y0001110629I-0000150787D01*
G01G01G01G01G01G01G01G01*
D16*
X0001577952Y0000559448D02*
G75*
G03G03G03G03X0001577952Y0000559448I-0000104724D01X0001577952Y0000559448I-0000104724D01X0001577952Y0000559448I-0000104724D01G03G03X0001577952Y0000559448I-0000104724D01G03G03X0001577952Y0000559448I-0000104724D01X0001577952Y0000559448I-0000104724D01X0001577952Y0000559448I-0000104724D01X0001577952Y0000559448I-0000104724D01*
G01G01G01G01G01G01G01G01*
D17*
X0001588582Y0000631889D02*
X0001588582Y0000486614D01*
D18*
X0001624015Y0000559448D02*
G75*
G03G03G03G03X0001624015Y0000559448I-0000150787D01X0001624015Y0000559448I-0000150787D01X0001624015Y0000559448I-0000150787D01G03G03X0001624015Y0000559448I-0000150787D01G03G03X0001624015Y0000559448I-0000150787D01X0001624015Y0000559448I-0000150787D01X0001624015Y0000559448I-0000150787D01X0001624015Y0000559448I-0000150787D01*
G01G01G01G01G01G01G01G01*
D16*
X0001066141Y0000559448D02*
G75*
G03G03G03G03X0001066141Y0000559448I-0000104724D01X0001066141Y0000559448I-0000104724D01X0001066141Y0000559448I-0000104724D01G03G03X0001066141Y0000559448I-0000104724D01G03G03X0001066141Y0000559448I-0000104724D01X0001066141Y0000559448I-0000104724D01X0001066141Y0000559448I-0000104724D01X0001066141Y0000559448I-0000104724D01*
G01G01G01G01G01G01G01G01*
D17*
X0001076771Y0000631889D02*
X0001076771Y0000486614D01*
D18*
X0001112204Y0000559448D02*
G75*
G03G03G03G03X0001112204Y0000559448I-0000150787D01X0001112204Y0000559448I-0000150787D01X0001112204Y0000559448I-0000150787D01G03G03X0001112204Y0000559448I-0000150787D01G03G03X0001112204Y0000559448I-0000150787D01X0001112204Y0000559448I-0000150787D01X0001112204Y0000559448I-0000150787D01X0001112204Y0000559448I-0000150787D01*
G01G01G01G01G01G01G01G01*
D16*
X0000554330Y0000559448D02*
G75*
G03G03G03G03X0000554330Y0000559448I-0000104724D01X0000554330Y0000559448I-0000104724D01X0000554330Y0000559448I-0000104724D01G03G03X0000554330Y0000559448I-0000104724D01G03G03X0000554330Y0000559448I-0000104724D01X0000554330Y0000559448I-0000104724D01X0000554330Y0000559448I-0000104724D01X0000554330Y0000559448I-0000104724D01*
G01G01G01G01G01G01G01G01*
D17*
X0000564960Y0000631889D02*
X0000564960Y0000486614D01*
D18*
X0000600393Y0000559448D02*
G75*
G03G03G03G03X0000600393Y0000559448I-0000150787D01X0000600393Y0000559448I-0000150787D01X0000600393Y0000559448I-0000150787D01G03G03X0000600393Y0000559448I-0000150787D01G03G03X0000600393Y0000559448I-0000150787D01X0000600393Y0000559448I-0000150787D01X0000600393Y0000559448I-0000150787D01X0000600393Y0000559448I-0000150787D01*
G01G01G01G01G01G01G01G01*
D16*
X0001577952Y0001110629D02*
G75*
G03G03G03G03X0001577952Y0001110629I-0000104724D01X0001577952Y0001110629I-0000104724D01X0001577952Y0001110629I-0000104724D01G03G03X0001577952Y0001110629I-0000104724D01G03G03X0001577952Y0001110629I-0000104724D01X0001577952Y0001110629I-0000104724D01X0001577952Y0001110629I-0000104724D01X0001577952Y0001110629I-0000104724D01*
G01G01G01G01G01G01G01G01*
D17*
X0001588582Y0001183070D02*
X0001588582Y0001037795D01*
D18*
X0001624015Y0001110629D02*
G75*
G03G03G03G03X0001624015Y0001110629I-0000150787D01X0001624015Y0001110629I-0000150787D01X0001624015Y0001110629I-0000150787D01G03G03X0001624015Y0001110629I-0000150787D01G03G03X0001624015Y0001110629I-0000150787D01X0001624015Y0001110629I-0000150787D01X0001624015Y0001110629I-0000150787D01X0001624015Y0001110629I-0000150787D01*
G01G01G01G01G01G01G01G01*
D16*
X0001066141Y0001110629D02*
G75*
G03G03G03G03X0001066141Y0001110629I-0000104724D01X0001066141Y0001110629I-0000104724D01X0001066141Y0001110629I-0000104724D01G03G03X0001066141Y0001110629I-0000104724D01G03G03X0001066141Y0001110629I-0000104724D01X0001066141Y0001110629I-0000104724D01X0001066141Y0001110629I-0000104724D01X0001066141Y0001110629I-0000104724D01*
G01G01G01G01G01G01G01G01*
D17*
X0001076771Y0001183070D02*
X0001076771Y0001037795D01*
D18*
X0001112204Y0001110629D02*
G75*
G03G03G03G03X0001112204Y0001110629I-0000150787D01X0001112204Y0001110629I-0000150787D01X0001112204Y0001110629I-0000150787D01G03G03X0001112204Y0001110629I-0000150787D01G03G03X0001112204Y0001110629I-0000150787D01X0001112204Y0001110629I-0000150787D01X0001112204Y0001110629I-0000150787D01X0001112204Y0001110629I-0000150787D01*
G01G01G01G01G01G01G01G01*
D16*
X0000554330Y0001110629D02*
G75*
G03G03G03G03X0000554330Y0001110629I-0000104724D01X0000554330Y0001110629I-0000104724D01X0000554330Y0001110629I-0000104724D01G03G03X0000554330Y0001110629I-0000104724D01G03G03X0000554330Y0001110629I-0000104724D01X0000554330Y0001110629I-0000104724D01X0000554330Y0001110629I-0000104724D01X0000554330Y0001110629I-0000104724D01*
G01G01G01G01G01G01G01G01*
D17*
X0000564960Y0001183070D02*
X0000564960Y0001037795D01*
D18*
X0000600393Y0001110629D02*
G75*
G03G03G03G03X0000600393Y0001110629I-0000150787D01X0000600393Y0001110629I-0000150787D01X0000600393Y0001110629I-0000150787D01G03G03X0000600393Y0001110629I-0000150787D01G03G03X0000600393Y0001110629I-0000150787D01X0000600393Y0001110629I-0000150787D01X0000600393Y0001110629I-0000150787D01X0000600393Y0001110629I-0000150787D01*
G01G01G01G01G01G01G01G01*
%LPD*%
G01G01G01G01G01G01G01G01*
D29*
D30*
X0001667884Y0002024184D02*
X0001667884Y0001984813D01*
X0001667884Y0002022309D02*
X0001664509Y0002024184D01*
X0001657761Y0002024184D01*
X0001654386Y0002022309D01*
X0001652699Y0002020433D01*
X0001651012Y0002016684D01*
X0001651012Y0002005436D01*
X0001652699Y0002001687D01*
X0001654386Y0001999812D01*
X0001657761Y0001997936D01*
X0001664509Y0001997936D01*
X0001667884Y0001999812D01*
X0001630764Y0001997936D02*
X0001634139Y0001999812D01*
X0001635826Y0002003562D01*
X0001635826Y0002037307D01*
X0001602080Y0002024184D02*
X0001602080Y0001997936D01*
X0001617265Y0002024184D02*
X0001617265Y0002003562D01*
X0001615579Y0001999812D01*
X0001612203Y0001997936D01*
X0001607142Y0001997936D01*
X0001603768Y0001999812D01*
X0001602080Y0002001687D01*
X0001570022Y0002024184D02*
X0001570022Y0001992313D01*
X0001571709Y0001988563D01*
X0001573397Y0001986689D01*
X0001576771Y0001984813D01*
X0001581833Y0001984813D01*
X0001585208Y0001986689D01*
X0001570022Y0001999812D02*
X0001573397Y0001997936D01*
X0001580146Y0001997936D01*
X0001583520Y0001999812D01*
X0001585208Y0002001687D01*
X0001586894Y0002005436D01*
X0001586894Y0002016684D01*
X0001585208Y0002020433D01*
X0001583520Y0002022309D01*
X0001580146Y0002024184D01*
X0001573397Y0002024184D01*
X0001570022Y0002022309D01*
X0001500843Y0002039181D02*
X0001531214Y0001988563D01*
X0001463723Y0001999812D02*
X0001460348Y0001997936D01*
X0001453599Y0001997936D01*
X0001450224Y0001999812D01*
X0001448537Y0002003562D01*
X0001448537Y0002005436D01*
X0001450224Y0002009186D01*
X0001453599Y0002011061D01*
X0001458660Y0002011061D01*
X0001462035Y0002012935D01*
X0001463723Y0002016684D01*
X0001463723Y0002018560D01*
X0001462035Y0002022309D01*
X0001458660Y0002024184D01*
X0001453599Y0002024184D01*
X0001450224Y0002022309D01*
X0001428290Y0001997936D02*
X0001431663Y0001999812D01*
X0001433351Y0002001687D01*
X0001435039Y0002005436D01*
X0001435039Y0002016684D01*
X0001433351Y0002020433D01*
X0001431663Y0002022309D01*
X0001428290Y0002024184D01*
X0001423228Y0002024184D01*
X0001419853Y0002022309D01*
X0001418166Y0002020433D01*
X0001416479Y0002016684D01*
X0001416479Y0002005436D01*
X0001418166Y0002001687D01*
X0001419853Y0001999812D01*
X0001423228Y0001997936D01*
X0001428290Y0001997936D01*
X0001386107Y0001999812D02*
X0001389482Y0001997936D01*
X0001396231Y0001997936D01*
X0001399606Y0001999812D01*
X0001401293Y0002001687D01*
X0001402980Y0002005436D01*
X0001402980Y0002016684D01*
X0001401293Y0002020433D01*
X0001399606Y0002022309D01*
X0001396231Y0002024184D01*
X0001389482Y0002024184D01*
X0001386107Y0002022309D01*
X0001370922Y0001997936D02*
X0001370922Y0002037307D01*
X0001367547Y0002012935D02*
X0001357424Y0001997936D01*
X0001357424Y0002024184D02*
X0001370922Y0002009186D01*
X0001328739Y0001999812D02*
X0001332114Y0001997936D01*
X0001338863Y0001997936D01*
X0001342238Y0001999812D01*
X0001343925Y0002003562D01*
X0001343925Y0002018560D01*
X0001342238Y0002022309D01*
X0001338863Y0002024184D01*
X0001332114Y0002024184D01*
X0001328739Y0002022309D01*
X0001327052Y0002018560D01*
X0001327052Y0002014810D01*
X0001343925Y0002011061D01*
X0001316929Y0002024184D02*
X0001303430Y0002024184D01*
X0001311867Y0002037307D02*
X0001311867Y0002003562D01*
X0001310179Y0001999812D01*
X0001306805Y0001997936D01*
X0001303430Y0001997936D01*
X0000889763Y0001616047D02*
X0000889763Y0001655418D01*
X0000881327Y0001655418D01*
X0000876265Y0001653542D01*
X0000872890Y0001649793D01*
X0000871203Y0001646044D01*
X0000869516Y0001638545D01*
X0000869516Y0001632920D01*
X0000871203Y0001625421D01*
X0000872890Y0001621672D01*
X0000876265Y0001617922D01*
X0000881327Y0001616047D01*
X0000889763Y0001616047D01*
X0000834083Y0001619797D02*
X0000835770Y0001617922D01*
X0000840832Y0001616047D01*
X0000844206Y0001616047D01*
X0000849268Y0001617922D01*
X0000852643Y0001621672D01*
X0000854330Y0001625421D01*
X0000856017Y0001632920D01*
X0000856017Y0001638545D01*
X0000854330Y0001646044D01*
X0000852643Y0001649793D01*
X0000849268Y0001653542D01*
X0000844206Y0001655418D01*
X0000840832Y0001655418D01*
X0000835770Y0001653542D01*
X0000834083Y0001651668D01*
X0000776715Y0001655418D02*
X0000783464Y0001655418D01*
X0000786839Y0001653542D01*
X0000788526Y0001651668D01*
X0000791900Y0001646044D01*
X0000793588Y0001638545D01*
X0000793588Y0001623547D01*
X0000791900Y0001619797D01*
X0000790213Y0001617922D01*
X0000786839Y0001616047D01*
X0000780089Y0001616047D01*
X0000776715Y0001617922D01*
X0000775028Y0001619797D01*
X0000773340Y0001623547D01*
X0000773340Y0001632920D01*
X0000775028Y0001636670D01*
X0000776715Y0001638545D01*
X0000780089Y0001640419D01*
X0000786839Y0001640419D01*
X0000790213Y0001638545D01*
X0000791900Y0001636670D01*
X0000793588Y0001632920D01*
X0000758155Y0001631046D02*
X0000731158Y0001631046D01*
X0000695725Y0001616047D02*
X0000715972Y0001616047D01*
X0000705849Y0001616047D02*
X0000705849Y0001655418D01*
X0000709223Y0001649793D01*
X0000712598Y0001646044D01*
X0000715972Y0001644169D01*
X0000682227Y0001651668D02*
X0000680539Y0001653542D01*
X0000677165Y0001655418D01*
X0000668728Y0001655418D01*
X0000665354Y0001653542D01*
X0000663667Y0001651668D01*
X0000661979Y0001647919D01*
X0000661979Y0001644169D01*
X0000663667Y0001638545D01*
X0000683914Y0001616047D01*
X0000661979Y0001616047D01*
X0000624859Y0001655418D02*
X0000613048Y0001616047D01*
X0000601237Y0001655418D01*
D31*
X0001314960Y0002114173D02*
X0001208661Y0002114173D01*
X0001740157Y0002114173D02*
X0001645668Y0002114173D01*
X0001821677Y0001643700D02*
G75*
G02G02G02G02X0001738975Y0001562992I-0000080732D01X0001738975Y0001562992I-0000080732D01X0001738975Y0001562992I-0000080732D01G02G02X0001738975Y0001562992I-0000080732D01G02G02X0001738975Y0001562992I-0000080732D01X0001738975Y0001562992I-0000080732D01X0001738975Y0001562992I-0000080732D01X0001738975Y0001562992I-0000080732D01*
G01G01G01G01G01G01G01G01*
X0001207090Y0001562992D02*
G75*
G02G02G02G02X0001126377Y0001645693I-0000000003J0000080732D01X0001126377Y0001645693I-0000000003J0000080732D01X0001126377Y0001645693I-0000000003J0000080732D01G02G02X0001126377Y0001645693I-0000000003J0000080732D01G02G02X0001126377Y0001645693I-0000000003J0000080732D01X0001126377Y0001645693I-0000000003J0000080732D01X0001126377Y0001645693I-0000000003J0000080732D01X0001126377Y0001645693I-0000000003J0000080732D01*
G01G01G01G01G01G01G01G01*
X0001208661Y0001562992D02*
X0001740157Y0001562992D01*
X0001125984Y0001641732D02*
X0001125984Y0002031496D01*
X0001125984Y0002031496D02*
G75*
G02G02G02G02X0001208667Y0002113922I0000080714J0000001717D01X0001208667Y0002113922I0000080714J0000001717D01X0001208667Y0002113922I0000080714J0000001717D01G02G02X0001208667Y0002113922I0000080714J0000001717D01G02G02X0001208667Y0002113922I0000080714J0000001717D01X0001208667Y0002113922I0000080714J0000001717D01X0001208667Y0002113922I0000080714J0000001717D01X0001208667Y0002113922I0000080714J0000001717D01*
G01G01G01G01G01G01G01G01*
X0001742124Y0002114197D02*
G75*
G02G02G02G02X0001822834Y0002031496J-0000080732D01X0001822834Y0002031496J-0000080732D01X0001822834Y0002031496J-0000080732D01G02G02X0001822834Y0002031496J-0000080732D01G02G02X0001822834Y0002031496J-0000080732D01X0001822834Y0002031496J-0000080732D01X0001822834Y0002031496J-0000080732D01X0001822834Y0002031496J-0000080732D01*
G01G01G01G01G01G01G01G01*
X0001821653Y0001642912D02*
X0001822834Y0002031496D01*
X0000523622Y0001641732D02*
X0000523622Y0002031496D01*
X0000523622Y0002031102D02*
G75*
G02G02G02G02X0000606323Y0002111811I0000080732D01X0000606323Y0002111811I0000080732D01X0000606323Y0002111811I0000080732D01G02G02X0000606323Y0002111811I0000080732D01G02G02X0000606323Y0002111811I0000080732D01X0000606323Y0002111811I0000080732D01X0000606323Y0002111811I0000080732D01X0000606323Y0002111811I0000080732D01*
G01G01G01G01G01G01G01G01*
X0000604728Y0001560629D02*
G75*
G02G02G02G02X0000524015Y0001643331I-0000000003J0000080732D01X0000524015Y0001643331I-0000000003J0000080732D01X0000524015Y0001643331I-0000000003J0000080732D01G02G02X0000524015Y0001643331I-0000000003J0000080732D01G02G02X0000524015Y0001643331I-0000000003J0000080732D01X0000524015Y0001643331I-0000000003J0000080732D01X0000524015Y0001643331I-0000000003J0000080732D01X0000524015Y0001643331I-0000000003J0000080732D01*
G01G01G01G01G01G01G01G01*
X0000600787Y0001560629D02*
X0000896849Y0001560629D01*
X0000979157Y0001641338D02*
G75*
G02G02G02G02X0000896456Y0001560629I-0000080732D01X0000896456Y0001560629I-0000080732D01X0000896456Y0001560629I-0000080732D01G02G02X0000896456Y0001560629I-0000080732D01G02G02X0000896456Y0001560629I-0000080732D01X0000896456Y0001560629I-0000080732D01X0000896456Y0001560629I-0000080732D01X0000896456Y0001560629I-0000080732D01*
G01G01G01G01G01G01G01G01*
X0000979133Y0001642912D02*
X0000980313Y0002031496D01*
X0000899606Y0002114197D02*
G75*
G02G02G02G02X0000980313Y0002031496J-0000080732D01X0000980313Y0002031496J-0000080732D01X0000980313Y0002031496J-0000080732D01G02G02X0000980313Y0002031496J-0000080732D01G02G02X0000980313Y0002031496J-0000080732D01X0000980313Y0002031496J-0000080732D01X0000980313Y0002031496J-0000080732D01X0000980313Y0002031496J-0000080732D01*
G01G01G01G01G01G01G01G01*
D32*
X0000850392Y0002086050D02*
X0000850392Y0002156917D01*
X0000823397Y0002156917D01*
X0000816647Y0002153543D01*
X0000813272Y0002150168D01*
X0000809898Y0002143419D01*
X0000809898Y0002133295D01*
X0000813272Y0002126546D01*
X0000816647Y0002123172D01*
X0000823397Y0002119797D01*
X0000850392Y0002119797D01*
X0000786276Y0002156917D02*
X0000769403Y0002086050D01*
X0000755905Y0002136670D01*
X0000742407Y0002086050D01*
X0000725534Y0002156917D01*
X0000658042Y0002086050D02*
X0000681663Y0002119797D01*
X0000698537Y0002086050D02*
X0000698537Y0002156917D01*
X0000671541Y0002156917D01*
X0000664791Y0002153543D01*
X0000661417Y0002150168D01*
X0000658042Y0002143419D01*
X0000658042Y0002133295D01*
X0000661417Y0002126546D01*
X0000664791Y0002123172D01*
X0000671541Y0002119797D01*
X0000698537Y0002119797D01*
X0001565804Y0002156917D02*
X0001565804Y0002099550D01*
X0001562429Y0002092800D01*
X0001559055Y0002089426D01*
X0001552305Y0002086050D01*
X0001538807Y0002086050D01*
X0001532058Y0002089426D01*
X0001528683Y0002092800D01*
X0001525308Y0002099550D01*
X0001525308Y0002156917D01*
X0001494938Y0002089426D02*
X0001484814Y0002086050D01*
X0001467939Y0002086050D01*
X0001461192Y0002089426D01*
X0001457817Y0002092800D01*
X0001454443Y0002099550D01*
X0001454443Y0002106299D01*
X0001457817Y0002113048D01*
X0001461192Y0002116422D01*
X0001467939Y0002119797D01*
X0001481439Y0002123172D01*
X0001488188Y0002126546D01*
X0001491563Y0002129921D01*
X0001494938Y0002136670D01*
X0001494938Y0002143419D01*
X0001491563Y0002150168D01*
X0001488188Y0002153543D01*
X0001481439Y0002156917D01*
X0001464566Y0002156917D01*
X0001454443Y0002153543D01*
X0001400449Y0002123172D02*
X0001390326Y0002119797D01*
X0001386951Y0002116422D01*
X0001383577Y0002109673D01*
X0001383577Y0002099550D01*
X0001386951Y0002092800D01*
X0001390326Y0002089426D01*
X0001397075Y0002086050D01*
X0001424071Y0002086050D01*
X0001424071Y0002156917D01*
X0001400449Y0002156917D01*
X0001393700Y0002153543D01*
X0001390326Y0002150168D01*
X0001386951Y0002143419D01*
X0001386951Y0002136670D01*
X0001390326Y0002129921D01*
X0001393700Y0002126546D01*
X0001400449Y0002123172D01*
X0001424071Y0002123172D01*
D31*
X0002284621Y0002535826D02*
G75*
G02G02G02G02X0002367322Y0002616535I0000080732D01X0002367322Y0002616535I0000080732D01X0002367322Y0002616535I0000080732D01G02G02X0002367322Y0002616535I0000080732D01G02G02X0002367322Y0002616535I0000080732D01X0002367322Y0002616535I0000080732D01X0002367322Y0002616535I0000080732D01X0002367322Y0002616535I0000080732D01*
G01G01G01G01G01G01G01G01*
X0002284645Y0002534251D02*
X0002284645Y0002227189D01*
X0002365748Y0002144070D02*
G75*
G02G02G02G02X0002285039Y0002226771J0000080732D01X0002285039Y0002226771J0000080732D01X0002285039Y0002226771J0000080732D01G02G02X0002285039Y0002226771J0000080732D01G02G02X0002285039Y0002226771J0000080732D01X0002285039Y0002226771J0000080732D01X0002285039Y0002226771J0000080732D01X0002285039Y0002226771J0000080732D01*
G01G01G01G01G01G01G01G01*
D32*
X0002553880Y0002110461D02*
X0002577501Y0002144207D01*
X0002594375Y0002110461D02*
X0002594375Y0002181327D01*
X0002567379Y0002181327D01*
X0002560629Y0002177952D01*
X0002557255Y0002174578D01*
X0002553880Y0002167829D01*
X0002553880Y0002157705D01*
X0002557255Y0002150956D01*
X0002560629Y0002147581D01*
X0002567379Y0002144207D01*
X0002594375Y0002144207D01*
X0002523509Y0002147581D02*
X0002499887Y0002147581D01*
X0002489763Y0002110461D02*
X0002523509Y0002110461D01*
X0002523509Y0002181327D01*
X0002489763Y0002181327D01*
X0002435770Y0002147581D02*
X0002459392Y0002147581D01*
X0002459392Y0002110461D02*
X0002459392Y0002181327D01*
X0002425646Y0002181327D01*
X0002555567Y0001995163D02*
X0002558942Y0001991788D01*
X0002569066Y0001988413D01*
X0002575814Y0001988413D01*
X0002585938Y0001991788D01*
X0002592688Y0001998537D01*
X0002596062Y0002005286D01*
X0002599437Y0002018784D01*
X0002599437Y0002028908D01*
X0002596062Y0002042406D01*
X0002592688Y0002049156D01*
X0002585938Y0002055905D01*
X0002575814Y0002059280D01*
X0002569066Y0002059280D01*
X0002558942Y0002055905D01*
X0002555567Y0002052530D01*
X0002491451Y0001988413D02*
X0002525196Y0001988413D01*
X0002525196Y0002059280D01*
X0002467829Y0001988413D02*
X0002467829Y0002059280D01*
X0002427334Y0001988413D02*
X0002457705Y0002028908D01*
X0002427334Y0002059280D02*
X0002467829Y0002018784D01*
D31*
X0002662992Y0002616535D02*
X0002366929Y0002616535D01*
X0002659055Y0002616535D02*
G75*
G02G02G02G02X0002739763Y0002533834J-0000080732D01X0002739763Y0002533834J-0000080732D01X0002739763Y0002533834J-0000080732D01G02G02X0002739763Y0002533834J-0000080732D01G02G02X0002739763Y0002533834J-0000080732D01X0002739763Y0002533834J-0000080732D01X0002739763Y0002533834J-0000080732D01X0002739763Y0002533834J-0000080732D01*
G01G01G01G01G01G01G01G01*
X0002741732Y0002226771D02*
X0002739763Y0002533834D01*
X0002741732Y0002224803D02*
G75*
G02G02G02G02X0002659031Y0002144094I-0000080732D01X0002659031Y0002144094I-0000080732D01X0002659031Y0002144094I-0000080732D01G02G02X0002659031Y0002144094I-0000080732D01G02G02X0002659031Y0002144094I-0000080732D01X0002659031Y0002144094I-0000080732D01X0002659031Y0002144094I-0000080732D01X0002659031Y0002144094I-0000080732D01*
G01G01G01G01G01G01G01G01*
%LPC*%
D33*
X0000197505Y0001608267D02*
G75*
G03G03G03G03X0000197505Y0001608267I-0000070734D01X0000197505Y0001608267I-0000070734D01X0000197505Y0001608267I-0000070734D01G03G03X0000197505Y0001608267I-0000070734D01G03G03X0000197505Y0001608267I-0000070734D01X0000197505Y0001608267I-0000070734D01X0000197505Y0001608267I-0000070734D01X0000197505Y0001608267I-0000070734D01*
G01G01G01G01G01G01G01G01*
X0000197112Y0002693699D02*
G75*
G03G03G03G03X0000197112Y0002693699I-0000070734D01X0000197112Y0002693699I-0000070734D01X0000197112Y0002693699I-0000070734D01G03G03X0000197112Y0002693699I-0000070734D01G03G03X0000197112Y0002693699I-0000070734D01X0000197112Y0002693699I-0000070734D01X0000197112Y0002693699I-0000070734D01X0000197112Y0002693699I-0000070734D01*
G01G01G01G01G01G01G01G01*
X0002879133Y0002694094D02*
G75*
G03G03G03G03X0002879133Y0002694094I-0000070734D01X0002879133Y0002694094I-0000070734D01X0002879133Y0002694094I-0000070734D01G03G03X0002879133Y0002694094I-0000070734D01G03G03X0002879133Y0002694094I-0000070734D01X0002879133Y0002694094I-0000070734D01X0002879133Y0002694094I-0000070734D01X0002879133Y0002694094I-0000070734D01*
G01G01G01G01G01G01G01G01*
X0002877667Y0001610437D02*
G75*
G03G03G03G03X0002877667Y0001610437I-0000070734D01X0002877667Y0001610437I-0000070734D01X0002877667Y0001610437I-0000070734D01G03G03X0002877667Y0001610437I-0000070734D01G03G03X0002877667Y0001610437I-0000070734D01X0002877667Y0001610437I-0000070734D01X0002877667Y0001610437I-0000070734D01X0002877667Y0001610437I-0000070734D01*
G01G01G01G01G01G01G01G01*
D34*
X0002617913Y0002387960D02*
G75*
G03G03G03G03X0002617913Y0002387960I-0000104724D01X0002617913Y0002387960I-0000104724D01X0002617913Y0002387960I-0000104724D01G03G03X0002617913Y0002387960I-0000104724D01G03G03X0002617913Y0002387960I-0000104724D01X0002617913Y0002387960I-0000104724D01X0002617913Y0002387960I-0000104724D01X0002617913Y0002387960I-0000104724D01*
G01G01G01G01G01G01G01G01*
D35*
X0002628543Y0002460401D02*
X0002628543Y0002315125D01*
D36*
X0002663976Y0002387960D02*
G75*
G03G03G03G03X0002663976Y0002387960I-0000150787D01X0002663976Y0002387960I-0000150787D01X0002663976Y0002387960I-0000150787D01G03G03X0002663976Y0002387960I-0000150787D01G03G03X0002663976Y0002387960I-0000150787D01X0002663976Y0002387960I-0000150787D01X0002663976Y0002387960I-0000150787D01X0002663976Y0002387960I-0000150787D01*
G01G01G01G01G01G01G01G01*
%LPD*%
G01G01G01G01G01G01G01G01*
D47*
D48*
X0000281589Y0003181102D02*
X0000281589Y0003199850D01*
X0000242219Y0003199850D01*
X0000281589Y0003167978D02*
X0000255343Y0003167978D01*
X0000242219Y0003167978D02*
X0000244094Y0003169853D01*
X0000245969Y0003167978D01*
X0000244094Y0003166104D01*
X0000242219Y0003167978D01*
X0000245969Y0003167978D01*
X0000281589Y0003149230D02*
X0000255343Y0003149230D01*
X0000259092Y0003149230D02*
X0000257216Y0003147356D01*
X0000255343Y0003143607D01*
X0000255343Y0003137981D01*
X0000257216Y0003134233D01*
X0000260967Y0003132358D01*
X0000281589Y0003132358D01*
X0000260967Y0003132358D02*
X0000257216Y0003130483D01*
X0000255343Y0003126734D01*
X0000255343Y0003121109D01*
X0000257216Y0003117360D01*
X0000260967Y0003115485D01*
X0000281589Y0003115485D01*
X0000279715Y0003081739D02*
X0000281589Y0003085489D01*
X0000281589Y0003092988D01*
X0000279715Y0003096737D01*
X0000275965Y0003098612D01*
X0000260967Y0003098612D01*
X0000257216Y0003096737D01*
X0000255343Y0003092988D01*
X0000255343Y0003085489D01*
X0000257216Y0003081739D01*
X0000260967Y0003079865D01*
X0000264716Y0003079865D01*
X0000268466Y0003098612D01*
X0000279715Y0003064865D02*
X0000281589Y0003059242D01*
X0000281589Y0003049868D01*
X0000279715Y0003046119D01*
X0000277840Y0003044244D01*
X0000274090Y0003042369D01*
X0000270341Y0003042369D01*
X0000266591Y0003044244D01*
X0000264716Y0003046119D01*
X0000262842Y0003049868D01*
X0000260967Y0003057367D01*
X0000259092Y0003061117D01*
X0000257216Y0003062991D01*
X0000253468Y0003064865D01*
X0000249718Y0003064865D01*
X0000245969Y0003062991D01*
X0000244094Y0003061117D01*
X0000242219Y0003057367D01*
X0000242219Y0003047994D01*
X0000244094Y0003042369D01*
X0000281589Y0003025496D02*
X0000242219Y0003025496D01*
X0000242219Y0003016122D01*
X0000244094Y0003010497D01*
X0000247844Y0003006749D01*
X0000251593Y0003004874D01*
X0000259092Y0003002999D01*
X0000264716Y0003002999D01*
X0000272215Y0003004874D01*
X0000275965Y0003006749D01*
X0000279715Y0003010497D01*
X0000281589Y0003016122D01*
X0000281589Y0003025496D01*
X0000281589Y0002963629D02*
X0000262842Y0002976752D01*
X0000281589Y0002986125D02*
X0000242219Y0002986125D01*
X0000242219Y0002971128D01*
X0000244094Y0002967379D01*
X0000245969Y0002965504D01*
X0000249718Y0002963629D01*
X0000255343Y0002963629D01*
X0000259092Y0002965504D01*
X0000260967Y0002967379D01*
X0000262842Y0002971128D01*
X0000262842Y0002986125D01*
%LPC*%
D49*
X0000480708Y0003083464D03*
D50*
G36*
X0000203135Y0002943976D02*
X0000128094Y0002943976D01*
X0000127336Y0003219803D01*
X0000202375Y0003219803D01*
X0000203135Y0002943976D01*
X0000203135Y0002943976D01*
G37*
X0000203135Y0002943976D02*
X0000128094Y0002943976D01*
X0000127336Y0003219803D01*
X0000202375Y0003219803D01*
X0000203135Y0002943976D01*
%LPD*%
G01G01G01G01G01G01G01G01*
D61*
D62*
X0000281589Y0003535433D02*
X0000281589Y0003554180D01*
X0000242219Y0003554180D01*
X0000281589Y0003522309D02*
X0000255343Y0003522309D01*
X0000242219Y0003522309D02*
X0000244094Y0003524184D01*
X0000245969Y0003522309D01*
X0000244094Y0003520434D01*
X0000242219Y0003522309D01*
X0000245969Y0003522309D01*
X0000281589Y0003503562D02*
X0000255343Y0003503562D01*
X0000259092Y0003503562D02*
X0000257216Y0003501687D01*
X0000255343Y0003497937D01*
X0000255343Y0003492313D01*
X0000257216Y0003488563D01*
X0000260967Y0003486689D01*
X0000281589Y0003486689D01*
X0000260967Y0003486689D02*
X0000257216Y0003484813D01*
X0000255343Y0003481064D01*
X0000255343Y0003475440D01*
X0000257216Y0003471691D01*
X0000260967Y0003469816D01*
X0000281589Y0003469816D01*
X0000279715Y0003436069D02*
X0000281589Y0003439820D01*
X0000281589Y0003447319D01*
X0000279715Y0003451068D01*
X0000275965Y0003452943D01*
X0000260967Y0003452943D01*
X0000257216Y0003451068D01*
X0000255343Y0003447319D01*
X0000255343Y0003439820D01*
X0000257216Y0003436069D01*
X0000260967Y0003434195D01*
X0000264716Y0003434195D01*
X0000268466Y0003452943D01*
X0000279715Y0003419197D02*
X0000281589Y0003413573D01*
X0000281589Y0003404199D01*
X0000279715Y0003400449D01*
X0000277840Y0003398575D01*
X0000274090Y0003396700D01*
X0000270341Y0003396700D01*
X0000266591Y0003398575D01*
X0000264716Y0003400449D01*
X0000262842Y0003404199D01*
X0000260967Y0003411697D01*
X0000259092Y0003415448D01*
X0000257216Y0003417322D01*
X0000253468Y0003419197D01*
X0000249718Y0003419197D01*
X0000245969Y0003417322D01*
X0000244094Y0003415448D01*
X0000242219Y0003411697D01*
X0000242219Y0003402324D01*
X0000244094Y0003396700D01*
X0000281589Y0003379827D02*
X0000242219Y0003379827D01*
X0000242219Y0003370453D01*
X0000244094Y0003364829D01*
X0000247844Y0003361079D01*
X0000251593Y0003359205D01*
X0000259092Y0003357330D01*
X0000264716Y0003357330D01*
X0000272215Y0003359205D01*
X0000275965Y0003361079D01*
X0000279715Y0003364829D01*
X0000281589Y0003370453D01*
X0000281589Y0003379827D01*
X0000281589Y0003317960D02*
X0000262842Y0003331083D01*
X0000281589Y0003340457D02*
X0000242219Y0003340457D01*
X0000242219Y0003325458D01*
X0000244094Y0003321709D01*
X0000245969Y0003319835D01*
X0000249718Y0003317960D01*
X0000255343Y0003317960D01*
X0000259092Y0003319835D01*
X0000260967Y0003321709D01*
X0000262842Y0003325458D01*
X0000262842Y0003340457D01*
%LPC*%
D63*
X0000480708Y0003437795D03*
D64*
G36*
X0000203135Y0003298307D02*
X0000128094Y0003298307D01*
X0000127336Y0003574133D01*
X0000202375Y0003574133D01*
X0000203135Y0003298307D01*
X0000203135Y0003298307D01*
G37*
X0000203135Y0003298307D02*
X0000128094Y0003298307D01*
X0000127336Y0003574133D01*
X0000202375Y0003574133D01*
X0000203135Y0003298307D01*
G04 next file*
%LPD*%
G01G01G01G01G01G01G01G01*
D75*
D76*
X0000832770Y0003181102D02*
X0000832770Y0003199850D01*
X0000793400Y0003199850D01*
X0000832770Y0003167978D02*
X0000806524Y0003167978D01*
X0000793400Y0003167978D02*
X0000795275Y0003169853D01*
X0000797150Y0003167978D01*
X0000795275Y0003166104D01*
X0000793400Y0003167978D01*
X0000797150Y0003167978D01*
X0000832770Y0003149230D02*
X0000806524Y0003149230D01*
X0000810272Y0003149230D02*
X0000808398Y0003147356D01*
X0000806524Y0003143607D01*
X0000806524Y0003137981D01*
X0000808398Y0003134233D01*
X0000812148Y0003132358D01*
X0000832770Y0003132358D01*
X0000812148Y0003132358D02*
X0000808398Y0003130483D01*
X0000806524Y0003126734D01*
X0000806524Y0003121109D01*
X0000808398Y0003117360D01*
X0000812148Y0003115485D01*
X0000832770Y0003115485D01*
X0000830896Y0003081739D02*
X0000832770Y0003085489D01*
X0000832770Y0003092988D01*
X0000830896Y0003096737D01*
X0000827146Y0003098612D01*
X0000812148Y0003098612D01*
X0000808398Y0003096737D01*
X0000806524Y0003092988D01*
X0000806524Y0003085489D01*
X0000808398Y0003081739D01*
X0000812148Y0003079865D01*
X0000815898Y0003079865D01*
X0000819647Y0003098612D01*
X0000830896Y0003064865D02*
X0000832770Y0003059242D01*
X0000832770Y0003049868D01*
X0000830896Y0003046119D01*
X0000829021Y0003044244D01*
X0000825271Y0003042369D01*
X0000821522Y0003042369D01*
X0000817772Y0003044244D01*
X0000815898Y0003046119D01*
X0000814023Y0003049868D01*
X0000812148Y0003057367D01*
X0000810272Y0003061117D01*
X0000808398Y0003062991D01*
X0000804649Y0003064865D01*
X0000800899Y0003064865D01*
X0000797150Y0003062991D01*
X0000795275Y0003061117D01*
X0000793400Y0003057367D01*
X0000793400Y0003047994D01*
X0000795275Y0003042369D01*
X0000832770Y0003025496D02*
X0000793400Y0003025496D01*
X0000793400Y0003016122D01*
X0000795275Y0003010497D01*
X0000799025Y0003006749D01*
X0000802774Y0003004874D01*
X0000810272Y0003002999D01*
X0000815898Y0003002999D01*
X0000823397Y0003004874D01*
X0000827146Y0003006749D01*
X0000830896Y0003010497D01*
X0000832770Y0003016122D01*
X0000832770Y0003025496D01*
X0000832770Y0002963629D02*
X0000814023Y0002976752D01*
X0000832770Y0002986125D02*
X0000793400Y0002986125D01*
X0000793400Y0002971128D01*
X0000795275Y0002967379D01*
X0000797150Y0002965504D01*
X0000800899Y0002963629D01*
X0000806524Y0002963629D01*
X0000810272Y0002965504D01*
X0000812148Y0002967379D01*
X0000814023Y0002971128D01*
X0000814023Y0002986125D01*
%LPC*%
D77*
X0001031889Y0003083464D03*
D78*
G36*
X0000754315Y0002943976D02*
X0000679276Y0002943976D01*
X0000678517Y0003219803D01*
X0000753556Y0003219803D01*
X0000754315Y0002943976D01*
X0000754315Y0002943976D01*
G37*
X0000754315Y0002943976D02*
X0000679276Y0002943976D01*
X0000678517Y0003219803D01*
X0000753556Y0003219803D01*
X0000754315Y0002943976D01*
%LPD*%
G01G01G01G01G01G01G01G01*
D89*
D90*
X0000832770Y0003535433D02*
X0000832770Y0003554180D01*
X0000793400Y0003554180D01*
X0000832770Y0003522309D02*
X0000806524Y0003522309D01*
X0000793400Y0003522309D02*
X0000795275Y0003524184D01*
X0000797150Y0003522309D01*
X0000795275Y0003520434D01*
X0000793400Y0003522309D01*
X0000797150Y0003522309D01*
X0000832770Y0003503562D02*
X0000806524Y0003503562D01*
X0000810272Y0003503562D02*
X0000808398Y0003501687D01*
X0000806524Y0003497937D01*
X0000806524Y0003492313D01*
X0000808398Y0003488563D01*
X0000812148Y0003486689D01*
X0000832770Y0003486689D01*
X0000812148Y0003486689D02*
X0000808398Y0003484813D01*
X0000806524Y0003481064D01*
X0000806524Y0003475440D01*
X0000808398Y0003471691D01*
X0000812148Y0003469816D01*
X0000832770Y0003469816D01*
X0000830896Y0003436069D02*
X0000832770Y0003439820D01*
X0000832770Y0003447319D01*
X0000830896Y0003451068D01*
X0000827146Y0003452943D01*
X0000812148Y0003452943D01*
X0000808398Y0003451068D01*
X0000806524Y0003447319D01*
X0000806524Y0003439820D01*
X0000808398Y0003436069D01*
X0000812148Y0003434195D01*
X0000815898Y0003434195D01*
X0000819647Y0003452943D01*
X0000830896Y0003419197D02*
X0000832770Y0003413573D01*
X0000832770Y0003404199D01*
X0000830896Y0003400449D01*
X0000829021Y0003398575D01*
X0000825271Y0003396700D01*
X0000821522Y0003396700D01*
X0000817772Y0003398575D01*
X0000815898Y0003400449D01*
X0000814023Y0003404199D01*
X0000812148Y0003411697D01*
X0000810272Y0003415448D01*
X0000808398Y0003417322D01*
X0000804649Y0003419197D01*
X0000800899Y0003419197D01*
X0000797150Y0003417322D01*
X0000795275Y0003415448D01*
X0000793400Y0003411697D01*
X0000793400Y0003402324D01*
X0000795275Y0003396700D01*
X0000832770Y0003379827D02*
X0000793400Y0003379827D01*
X0000793400Y0003370453D01*
X0000795275Y0003364829D01*
X0000799025Y0003361079D01*
X0000802774Y0003359205D01*
X0000810272Y0003357330D01*
X0000815898Y0003357330D01*
X0000823397Y0003359205D01*
X0000827146Y0003361079D01*
X0000830896Y0003364829D01*
X0000832770Y0003370453D01*
X0000832770Y0003379827D01*
X0000832770Y0003317960D02*
X0000814023Y0003331083D01*
X0000832770Y0003340457D02*
X0000793400Y0003340457D01*
X0000793400Y0003325458D01*
X0000795275Y0003321709D01*
X0000797150Y0003319835D01*
X0000800899Y0003317960D01*
X0000806524Y0003317960D01*
X0000810272Y0003319835D01*
X0000812148Y0003321709D01*
X0000814023Y0003325458D01*
X0000814023Y0003340457D01*
%LPC*%
D91*
X0001031889Y0003437795D03*
D92*
G36*
X0000754315Y0003298307D02*
X0000679276Y0003298307D01*
X0000678517Y0003574133D01*
X0000753556Y0003574133D01*
X0000754315Y0003298307D01*
X0000754315Y0003298307D01*
G37*
X0000754315Y0003298307D02*
X0000679276Y0003298307D01*
X0000678517Y0003574133D01*
X0000753556Y0003574133D01*
X0000754315Y0003298307D01*
G04 next file*
%LPD*%
G01G01G01G01G01G01G01G01*
D103*
%LPC*%
G04 next file*
G04 #@! TF.FileFunction,Legend,Bot*
G04 Gerber Fmt 4.6, Leading zero omitted, Abs format (unit mm)*
G04 Created by KiCad (PCBNEW (2016-07-22 BZR 6991, Git 146a78a)-product) date 08/19/16 17:37:13*
%LPD*%
G01G01G01G01G01G01G01G01*
G04 APERTURE LIST*
G04 APERTURE END LIST*
D114*
%LPC*%
M02*