%MOIN*%
%OFA0B0*%
%FSLAX44Y44*%
%IPPOS*%
%LPD*%
%ADD10C,0*%
D10*
X00001291Y00015575D02*
X00001291Y00015575D01*
X00001180Y00015581D01*
X00001074Y00015611D01*
X00000976Y00015662D01*
X00000892Y00015734D01*
X00000825Y00015822D01*
X00000778Y00015923D01*
X00000754Y00016031D01*
X00000754Y00016141D01*
X00000778Y00016250D01*
X00000825Y00016350D01*
X00000892Y00016438D01*
X00000976Y00016510D01*
X00001074Y00016562D01*
X00001180Y00016591D01*
X00001291Y00016597D01*
X00001400Y00016579D01*
X00001503Y00016538D01*
X00001595Y00016476D01*
X00001671Y00016396D01*
X00001728Y00016301D01*
X00001763Y00016196D01*
X00001775Y00016086D01*
X00001763Y00015976D01*
X00001728Y00015871D01*
X00001671Y00015776D01*
X00001595Y00015696D01*
X00001503Y00015634D01*
X00001400Y00015593D01*
X00001291Y00015575D01*
X00028094Y00015591D02*
X00028094Y00015591D01*
X00027984Y00015597D01*
X00027877Y00015626D01*
X00027779Y00015678D01*
X00027695Y00015750D01*
X00027628Y00015838D01*
X00027581Y00015938D01*
X00027558Y00016047D01*
X00027558Y00016157D01*
X00027581Y00016265D01*
X00027628Y00016366D01*
X00027695Y00016454D01*
X00027779Y00016525D01*
X00027877Y00016577D01*
X00027984Y00016607D01*
X00028094Y00016613D01*
X00028203Y00016595D01*
X00028306Y00016554D01*
X00028398Y00016492D01*
X00028474Y00016412D01*
X00028531Y00016317D01*
X00028566Y00016212D01*
X00028578Y00016102D01*
X00028566Y00015992D01*
X00028531Y00015887D01*
X00028474Y00015792D01*
X00028398Y00015712D01*
X00028306Y00015650D01*
X00028203Y00015609D01*
X00028094Y00015591D01*
X00012460Y00016043D02*
X00012460Y00016043D01*
X00012429Y00016045D01*
X00012399Y00016052D01*
X00012371Y00016064D01*
X00012344Y00016080D01*
X00012321Y00016100D01*
X00012301Y00016124D01*
X00012285Y00016150D01*
X00012273Y00016179D01*
X00012266Y00016209D01*
X00012263Y00016240D01*
X00012263Y00017893D01*
X00012086Y00017893D01*
X00012055Y00017896D01*
X00012025Y00017903D01*
X00011997Y00017915D01*
X00011970Y00017931D01*
X00011947Y00017951D01*
X00011927Y00017974D01*
X00011911Y00018001D01*
X00011899Y00018029D01*
X00011892Y00018059D01*
X00011889Y00018090D01*
X00011889Y00019350D01*
X00011892Y00019381D01*
X00011899Y00019411D01*
X00011911Y00019439D01*
X00011927Y00019466D01*
X00011947Y00019489D01*
X00011970Y00019509D01*
X00011997Y00019525D01*
X00012025Y00019537D01*
X00012055Y00019544D01*
X00012086Y00019547D01*
X00017322Y00019547D01*
X00017353Y00019544D01*
X00017383Y00019537D01*
X00017412Y00019525D01*
X00017438Y00019509D01*
X00017462Y00019489D01*
X00017482Y00019466D01*
X00017498Y00019439D01*
X00017510Y00019411D01*
X00017517Y00019381D01*
X00017519Y00019350D01*
X00017519Y00018090D01*
X00017517Y00018059D01*
X00017510Y00018029D01*
X00017498Y00018001D01*
X00017482Y00017974D01*
X00017462Y00017951D01*
X00017438Y00017931D01*
X00017412Y00017915D01*
X00017383Y00017903D01*
X00017353Y00017896D01*
X00017322Y00017893D01*
X00017204Y00017893D01*
X00017204Y00016240D01*
X00017202Y00016209D01*
X00017195Y00016179D01*
X00017183Y00016150D01*
X00017167Y00016124D01*
X00017147Y00016100D01*
X00017123Y00016080D01*
X00017097Y00016064D01*
X00017068Y00016052D01*
X00017038Y00016045D01*
X00017007Y00016043D01*
X00012460Y00016043D01*
X00008405Y00017224D02*
X00008405Y00017224D01*
X00006614Y00017224D01*
X00006583Y00017226D01*
X00006553Y00017234D01*
X00006524Y00017245D01*
X00006498Y00017262D01*
X00006474Y00017282D01*
X00006454Y00017305D01*
X00006438Y00017331D01*
X00006426Y00017360D01*
X00006419Y00017390D01*
X00006417Y00017421D01*
X00006417Y00020118D01*
X00006419Y00020148D01*
X00006426Y00020178D01*
X00006438Y00020207D01*
X00006454Y00020233D01*
X00006474Y00020257D01*
X00006498Y00020277D01*
X00006524Y00020293D01*
X00006553Y00020305D01*
X00006583Y00020312D01*
X00006614Y00020314D01*
X00008405Y00020314D01*
X00008436Y00020312D01*
X00008466Y00020305D01*
X00008494Y00020293D01*
X00008521Y00020277D01*
X00008544Y00020257D01*
X00008564Y00020233D01*
X00008580Y00020207D01*
X00008592Y00020178D01*
X00008599Y00020148D01*
X00008602Y00020118D01*
X00008602Y00017421D01*
X00008599Y00017390D01*
X00008592Y00017360D01*
X00008580Y00017331D01*
X00008564Y00017305D01*
X00008544Y00017282D01*
X00008521Y00017262D01*
X00008494Y00017245D01*
X00008466Y00017234D01*
X00008436Y00017226D01*
X00008405Y00017224D01*
X00025214Y00022602D02*
X00025214Y00022602D01*
X00025047Y00022602D01*
X00024881Y00022624D01*
X00024719Y00022668D01*
X00024565Y00022732D01*
X00024420Y00022815D01*
X00024287Y00022917D01*
X00024169Y00023036D01*
X00024067Y00023168D01*
X00023983Y00023313D01*
X00023919Y00023468D01*
X00023876Y00023630D01*
X00023854Y00023795D01*
X00023854Y00023963D01*
X00023876Y00024129D01*
X00023919Y00024290D01*
X00023983Y00024445D01*
X00024067Y00024590D01*
X00024169Y00024722D01*
X00024287Y00024841D01*
X00024420Y00024943D01*
X00024565Y00025027D01*
X00024719Y00025091D01*
X00024881Y00025134D01*
X00025047Y00025156D01*
X00025214Y00025156D01*
X00025380Y00025135D01*
X00025541Y00025091D01*
X00025696Y00025028D01*
X00025841Y00024944D01*
X00025974Y00024842D01*
X00026092Y00024724D01*
X00026194Y00024592D01*
X00026194Y00023167D01*
X00026092Y00023034D01*
X00025974Y00022916D01*
X00025841Y00022814D01*
X00025696Y00022731D01*
X00025541Y00022667D01*
X00025380Y00022624D01*
X00025214Y00022602D01*
X00001295Y00026422D02*
X00001295Y00026422D01*
X00001184Y00026428D01*
X00001078Y00026457D01*
X00000980Y00026509D01*
X00000896Y00026581D01*
X00000829Y00026669D01*
X00000782Y00026769D01*
X00000758Y00026877D01*
X00000758Y00026988D01*
X00000782Y00027096D01*
X00000829Y00027196D01*
X00000896Y00027285D01*
X00000980Y00027356D01*
X00001078Y00027408D01*
X00001184Y00027438D01*
X00001295Y00027444D01*
X00001404Y00027426D01*
X00001507Y00027385D01*
X00001599Y00027323D01*
X00001675Y00027242D01*
X00001732Y00027147D01*
X00001767Y00027043D01*
X00001779Y00026933D01*
X00001767Y00026823D01*
X00001732Y00026718D01*
X00001675Y00026623D01*
X00001599Y00026542D01*
X00001507Y00026480D01*
X00001404Y00026439D01*
X00001295Y00026422D01*
X00028110Y00026433D02*
X00028110Y00026433D01*
X00027999Y00026439D01*
X00027893Y00026469D01*
X00027795Y00026521D01*
X00027711Y00026592D01*
X00027644Y00026681D01*
X00027597Y00026781D01*
X00027573Y00026889D01*
X00027573Y00027000D01*
X00027597Y00027108D01*
X00027644Y00027208D01*
X00027711Y00027296D01*
X00027795Y00027368D01*
X00027893Y00027420D01*
X00027999Y00027449D01*
X00028110Y00027455D01*
X00028219Y00027438D01*
X00028322Y00027397D01*
X00028414Y00027334D01*
X00028490Y00027254D01*
X00028547Y00027159D01*
X00028582Y00027054D01*
X00028594Y00026944D01*
X00028582Y00026834D01*
X00028547Y00026729D01*
X00028490Y00026635D01*
X00028414Y00026554D01*
X00028322Y00026492D01*
X00028219Y00026451D01*
X00028110Y00026433D01*
X00003496Y00028409D02*
X00003496Y00028409D01*
X00006740Y00028409D01*
X00006758Y00028409D01*
X00006776Y00028411D01*
X00006794Y00028413D01*
X00006812Y00028416D01*
X00006830Y00028419D01*
X00006848Y00028424D01*
X00006865Y00028429D01*
X00006882Y00028436D01*
X00006899Y00028443D01*
X00006916Y00028450D01*
X00006932Y00028459D01*
X00006947Y00028468D01*
X00006963Y00028478D01*
X00006977Y00028489D01*
X00006992Y00028500D01*
X00007005Y00028512D01*
X00007019Y00028525D01*
X00007031Y00028538D01*
X00007043Y00028552D01*
X00007054Y00028566D01*
X00007266Y00028848D01*
X00007290Y00028884D01*
X00007311Y00028923D01*
X00007326Y00028964D01*
X00007337Y00029006D01*
X00007344Y00029049D01*
X00007345Y00029092D01*
X00007342Y00029136D01*
X00007334Y00029179D01*
X00007321Y00029220D01*
X00007304Y00029260D01*
X00007282Y00029298D01*
X00007257Y00029333D01*
X00007227Y00029366D01*
X00007195Y00029394D01*
X00007159Y00029419D01*
X00007121Y00029440D01*
X00007080Y00029457D01*
X00007038Y00029469D01*
X00006995Y00029476D01*
X00006952Y00029478D01*
X00006736Y00029479D01*
X00006736Y00032191D01*
X00006797Y00032191D01*
X00006845Y00032194D01*
X00006893Y00032203D01*
X00006939Y00032218D01*
X00006983Y00032238D01*
X00007024Y00032263D01*
X00007062Y00032293D01*
X00007095Y00032328D01*
X00007125Y00032367D01*
X00007149Y00032409D01*
X00007168Y00032453D01*
X00007181Y00032499D01*
X00007189Y00032547D01*
X00007190Y00032596D01*
X00007186Y00032644D01*
X00007176Y00032691D01*
X00007160Y00032737D01*
X00007139Y00032780D01*
X00007112Y00032821D01*
X00007081Y00032857D01*
X00007045Y00032890D01*
X00006992Y00032934D01*
X00006981Y00032942D01*
X00006971Y00032950D01*
X00006960Y00032957D01*
X00006948Y00032964D01*
X00006937Y00032971D01*
X00006925Y00032978D01*
X00006913Y00032984D01*
X00006901Y00032989D01*
X00006888Y00032994D01*
X00006876Y00032999D01*
X00006863Y00033003D01*
X00006850Y00033007D01*
X00006837Y00033011D01*
X00006824Y00033014D01*
X00006811Y00033016D01*
X00006797Y00033018D01*
X00006784Y00033020D01*
X00006771Y00033021D01*
X00006757Y00033022D01*
X00006744Y00033022D01*
X00006736Y00033022D01*
X00006736Y00035734D01*
X00008487Y00035734D01*
X00008533Y00035732D01*
X00008578Y00035727D01*
X00008623Y00035719D01*
X00008667Y00035708D01*
X00008711Y00035694D01*
X00008754Y00035678D01*
X00008796Y00035659D01*
X00008836Y00035638D01*
X00008875Y00035614D01*
X00008913Y00035588D01*
X00008946Y00035564D01*
X00008981Y00035543D01*
X00009018Y00035524D01*
X00009055Y00035507D01*
X00009093Y00035493D01*
X00009133Y00035481D01*
X00009173Y00035472D01*
X00009213Y00035465D01*
X00009254Y00035461D01*
X00009295Y00035460D01*
X00010318Y00035460D01*
X00010488Y00035447D01*
X00010653Y00035407D01*
X00010810Y00035342D01*
X00010954Y00035253D01*
X00011084Y00035143D01*
X00011194Y00035014D01*
X00011283Y00034869D01*
X00011348Y00034712D01*
X00011387Y00034547D01*
X00011401Y00034378D01*
X00011387Y00034209D01*
X00011348Y00034044D01*
X00011283Y00033887D01*
X00011194Y00033742D01*
X00011084Y00033613D01*
X00010954Y00033502D01*
X00010810Y00033414D01*
X00010653Y00033349D01*
X00010488Y00033309D01*
X00010318Y00033296D01*
X00010318Y00033296D01*
X00009295Y00033296D01*
X00009255Y00033295D01*
X00009215Y00033291D01*
X00009175Y00033285D01*
X00009136Y00033276D01*
X00009098Y00033265D01*
X00009060Y00033251D01*
X00009024Y00033235D01*
X00008988Y00033217D01*
X00008954Y00033196D01*
X00008939Y00033186D01*
X00008939Y00033186D01*
X00008925Y00033176D01*
X00008912Y00033166D01*
X00008899Y00033155D01*
X00008887Y00033143D01*
X00008875Y00033131D01*
X00008864Y00033119D01*
X00008853Y00033106D01*
X00008843Y00033092D01*
X00008834Y00033079D01*
X00008825Y00033064D01*
X00008816Y00033050D01*
X00008809Y00033035D01*
X00008801Y00033019D01*
X00008795Y00033004D01*
X00008789Y00032988D01*
X00008784Y00032972D01*
X00008780Y00032956D01*
X00008776Y00032939D01*
X00008773Y00032923D01*
X00008771Y00032906D01*
X00008717Y00032432D01*
X00008716Y00032411D01*
X00008715Y00032390D01*
X00008715Y00032369D01*
X00008717Y00032348D01*
X00008720Y00032327D01*
X00008723Y00032306D01*
X00008728Y00032285D01*
X00008735Y00032265D01*
X00008742Y00032245D01*
X00008750Y00032226D01*
X00008759Y00032207D01*
X00008769Y00032188D01*
X00008781Y00032170D01*
X00008793Y00032153D01*
X00008806Y00032136D01*
X00008820Y00032120D01*
X00008835Y00032105D01*
X00008850Y00032091D01*
X00008867Y00032077D01*
X00008884Y00032065D01*
X00008884Y00032065D01*
X00008913Y00032045D01*
X00008946Y00032021D01*
X00008981Y00031999D01*
X00009018Y00031980D01*
X00009055Y00031964D01*
X00009093Y00031949D01*
X00009133Y00031938D01*
X00009173Y00031929D01*
X00009213Y00031922D01*
X00009254Y00031918D01*
X00009295Y00031917D01*
X00010318Y00031917D01*
X00010488Y00031904D01*
X00010653Y00031864D01*
X00010810Y00031799D01*
X00010954Y00031710D01*
X00011084Y00031600D01*
X00011194Y00031471D01*
X00011283Y00031326D01*
X00011348Y00031169D01*
X00011387Y00031004D01*
X00011401Y00030835D01*
X00011387Y00030665D01*
X00011348Y00030500D01*
X00011283Y00030343D01*
X00011194Y00030199D01*
X00011084Y00030069D01*
X00010954Y00029959D01*
X00010810Y00029870D01*
X00010653Y00029805D01*
X00010488Y00029766D01*
X00010318Y00029752D01*
X00010318Y00029753D01*
X00009295Y00029753D01*
X00009255Y00029752D01*
X00009215Y00029748D01*
X00009175Y00029742D01*
X00009136Y00029733D01*
X00009098Y00029721D01*
X00009060Y00029708D01*
X00009024Y00029692D01*
X00008988Y00029673D01*
X00008954Y00029653D01*
X00008921Y00029630D01*
X00008883Y00029603D01*
X00008843Y00029578D01*
X00008802Y00029556D01*
X00008760Y00029536D01*
X00008749Y00029532D01*
X00008722Y00029520D01*
X00008696Y00029507D01*
X00008671Y00029491D01*
X00008647Y00029473D01*
X00008624Y00029454D01*
X00008603Y00029433D01*
X00008584Y00029410D01*
X00008566Y00029386D01*
X00008551Y00029361D01*
X00008537Y00029335D01*
X00008525Y00029308D01*
X00008515Y00029280D01*
X00008508Y00029251D01*
X00008503Y00029222D01*
X00008499Y00029192D01*
X00008498Y00029163D01*
X00008500Y00029133D01*
X00008503Y00029104D01*
X00008509Y00029075D01*
X00008517Y00029046D01*
X00008632Y00028683D01*
X00008640Y00028660D01*
X00008650Y00028637D01*
X00008661Y00028615D01*
X00008674Y00028593D01*
X00008688Y00028573D01*
X00008703Y00028553D01*
X00008719Y00028534D01*
X00008737Y00028517D01*
X00008755Y00028500D01*
X00008775Y00028485D01*
X00008795Y00028471D01*
X00008817Y00028458D01*
X00008839Y00028447D01*
X00008862Y00028437D01*
X00008885Y00028428D01*
X00008909Y00028421D01*
X00008933Y00028416D01*
X00008958Y00028412D01*
X00008983Y00028410D01*
X00009007Y00028409D01*
X00013826Y00028409D01*
X00013826Y00028409D01*
X00013844Y00028409D01*
X00013862Y00028411D01*
X00013880Y00028413D01*
X00013898Y00028416D01*
X00013916Y00028419D01*
X00013933Y00028424D01*
X00013951Y00028429D01*
X00013968Y00028435D01*
X00013984Y00028442D01*
X00014001Y00028450D01*
X00014017Y00028458D01*
X00014032Y00028467D01*
X00014048Y00028477D01*
X00014062Y00028488D01*
X00014076Y00028499D01*
X00014090Y00028510D01*
X00014103Y00028523D01*
X00014116Y00028536D01*
X00014128Y00028549D01*
X00014139Y00028564D01*
X00014287Y00028756D01*
X00014311Y00028793D01*
X00014332Y00028831D01*
X00014348Y00028872D01*
X00014359Y00028914D01*
X00014366Y00028958D01*
X00014367Y00029001D01*
X00014364Y00029045D01*
X00014356Y00029088D01*
X00014344Y00029130D01*
X00014327Y00029170D01*
X00014305Y00029208D01*
X00014279Y00029244D01*
X00014250Y00029276D01*
X00014217Y00029305D01*
X00014181Y00029330D01*
X00014143Y00029351D01*
X00014103Y00029368D01*
X00014061Y00029380D01*
X00014017Y00029387D01*
X00013974Y00029389D01*
X00012559Y00029389D01*
X00012528Y00029392D01*
X00012498Y00029399D01*
X00012469Y00029411D01*
X00012443Y00029427D01*
X00012419Y00029447D01*
X00012399Y00029470D01*
X00012383Y00029497D01*
X00012371Y00029525D01*
X00012364Y00029555D01*
X00012362Y00029586D01*
X00012362Y00030688D01*
X00012364Y00030719D01*
X00012371Y00030749D01*
X00012383Y00030778D01*
X00012399Y00030804D01*
X00012419Y00030828D01*
X00012443Y00030848D01*
X00012469Y00030864D01*
X00012498Y00030876D01*
X00012528Y00030883D01*
X00012559Y00030885D01*
X00013949Y00030885D01*
X00014008Y00030890D01*
X00014066Y00030903D01*
X00014121Y00030925D01*
X00014172Y00030955D01*
X00014218Y00030992D01*
X00014258Y00031036D01*
X00014291Y00031085D01*
X00014317Y00031138D01*
X00014334Y00031195D01*
X00014342Y00031254D01*
X00014341Y00031313D01*
X00014332Y00031372D01*
X00014313Y00031428D01*
X00014287Y00031481D01*
X00014253Y00031530D01*
X00014212Y00031572D01*
X00014165Y00031608D01*
X00014113Y00031637D01*
X00014057Y00031658D01*
X00013999Y00031670D01*
X00013846Y00031689D01*
X00013843Y00031690D01*
X00013841Y00031690D01*
X00013838Y00031690D01*
X00013836Y00031690D01*
X00013833Y00031691D01*
X00013831Y00031691D01*
X00013828Y00031691D01*
X00013826Y00031691D01*
X00013823Y00031691D01*
X00013821Y00031692D01*
X00013818Y00031692D01*
X00013816Y00031692D01*
X00013813Y00031692D01*
X00013811Y00031692D01*
X00013808Y00031692D01*
X00013806Y00031692D01*
X00013803Y00031692D01*
X00013801Y00031692D01*
X00013798Y00031692D01*
X00013796Y00031692D01*
X00012440Y00031692D01*
X00012440Y00033267D01*
X00012443Y00033298D01*
X00012450Y00033328D01*
X00012462Y00033357D01*
X00012478Y00033383D01*
X00012498Y00033406D01*
X00012522Y00033426D01*
X00012548Y00033443D01*
X00012576Y00033454D01*
X00012607Y00033462D01*
X00012637Y00033464D01*
X00017027Y00033464D01*
X00017058Y00033462D01*
X00017088Y00033454D01*
X00017116Y00033443D01*
X00017143Y00033426D01*
X00017166Y00033406D01*
X00017186Y00033383D01*
X00017202Y00033357D01*
X00017214Y00033328D01*
X00017221Y00033298D01*
X00017224Y00033267D01*
X00017224Y00031692D01*
X00016125Y00031692D01*
X00016122Y00031692D01*
X00016120Y00031692D01*
X00016117Y00031692D01*
X00016115Y00031692D01*
X00016112Y00031692D01*
X00016110Y00031692D01*
X00016107Y00031692D01*
X00016105Y00031692D01*
X00016102Y00031692D01*
X00016100Y00031692D01*
X00016097Y00031691D01*
X00016095Y00031691D01*
X00016092Y00031691D01*
X00016090Y00031691D01*
X00016087Y00031691D01*
X00016085Y00031690D01*
X00016082Y00031690D01*
X00016080Y00031690D01*
X00016077Y00031690D01*
X00016075Y00031689D01*
X00015921Y00031670D01*
X00015863Y00031658D01*
X00015808Y00031637D01*
X00015756Y00031608D01*
X00015709Y00031572D01*
X00015668Y00031530D01*
X00015633Y00031481D01*
X00015607Y00031428D01*
X00015589Y00031372D01*
X00015579Y00031313D01*
X00015578Y00031254D01*
X00015587Y00031195D01*
X00015604Y00031138D01*
X00015629Y00031085D01*
X00015662Y00031036D01*
X00015702Y00030992D01*
X00015748Y00030955D01*
X00015799Y00030925D01*
X00015855Y00030903D01*
X00015912Y00030890D01*
X00015971Y00030885D01*
X00017637Y00030885D01*
X00017668Y00030883D01*
X00017698Y00030876D01*
X00017727Y00030864D01*
X00017753Y00030848D01*
X00017776Y00030828D01*
X00017797Y00030804D01*
X00017813Y00030778D01*
X00017825Y00030749D01*
X00017832Y00030719D01*
X00017834Y00030688D01*
X00017834Y00029586D01*
X00017832Y00029555D01*
X00017825Y00029525D01*
X00017813Y00029497D01*
X00017797Y00029470D01*
X00017776Y00029447D01*
X00017753Y00029427D01*
X00017727Y00029411D01*
X00017698Y00029399D01*
X00017668Y00029392D01*
X00017637Y00029389D01*
X00015947Y00029389D01*
X00015903Y00029387D01*
X00015860Y00029380D01*
X00015818Y00029368D01*
X00015777Y00029351D01*
X00015739Y00029330D01*
X00015703Y00029305D01*
X00015670Y00029276D01*
X00015641Y00029244D01*
X00015615Y00029208D01*
X00015594Y00029170D01*
X00015576Y00029130D01*
X00015564Y00029088D01*
X00015556Y00029045D01*
X00015553Y00029001D01*
X00015555Y00028958D01*
X00015561Y00028914D01*
X00015573Y00028872D01*
X00015589Y00028831D01*
X00015609Y00028793D01*
X00015634Y00028756D01*
X00015781Y00028564D01*
X00015792Y00028549D01*
X00015804Y00028536D01*
X00015817Y00028523D01*
X00015830Y00028510D01*
X00015844Y00028499D01*
X00015858Y00028488D01*
X00015873Y00028477D01*
X00015888Y00028467D01*
X00015904Y00028458D01*
X00015920Y00028450D01*
X00015936Y00028442D01*
X00015953Y00028435D01*
X00015970Y00028429D01*
X00015987Y00028424D01*
X00016004Y00028419D01*
X00016022Y00028416D01*
X00016040Y00028413D01*
X00016058Y00028411D01*
X00016076Y00028409D01*
X00016094Y00028409D01*
X00016094Y00028409D01*
X00028692Y00028409D01*
X00028692Y00028409D01*
X00028846Y00028397D01*
X00028995Y00028361D01*
X00029137Y00028302D01*
X00029269Y00028222D01*
X00029386Y00028122D01*
X00029486Y00028005D01*
X00029566Y00027874D01*
X00029625Y00027732D01*
X00029661Y00027582D01*
X00029673Y00027429D01*
X00029673Y00015614D01*
X00029661Y00015460D01*
X00029625Y00015311D01*
X00029566Y00015169D01*
X00029486Y00015037D01*
X00029386Y00014920D01*
X00029269Y00014821D01*
X00029137Y00014740D01*
X00028995Y00014681D01*
X00028846Y00014645D01*
X00028692Y00014633D01*
X00024492Y00014633D01*
X00024452Y00014631D01*
X00024413Y00014625D01*
X00024374Y00014615D01*
X00024337Y00014601D01*
X00024301Y00014584D01*
X00024268Y00014563D01*
X00024236Y00014538D01*
X00024207Y00014511D01*
X00024181Y00014481D01*
X00024158Y00014449D01*
X00024139Y00014414D01*
X00024123Y00014378D01*
X00024111Y00014340D01*
X00024103Y00014301D01*
X00024099Y00014261D01*
X00024098Y00014222D01*
X00024102Y00014182D01*
X00024110Y00014143D01*
X00024122Y00014105D01*
X00024137Y00014068D01*
X00024169Y00014002D01*
X00024179Y00013982D01*
X00024190Y00013963D01*
X00024202Y00013945D01*
X00024216Y00013927D01*
X00024230Y00013911D01*
X00024245Y00013894D01*
X00024261Y00013879D01*
X00024278Y00013865D01*
X00024296Y00013852D01*
X00024314Y00013839D01*
X00024333Y00013828D01*
X00024353Y00013818D01*
X00024373Y00013809D01*
X00024394Y00013801D01*
X00024415Y00013794D01*
X00024436Y00013789D01*
X00024458Y00013785D01*
X00024480Y00013782D01*
X00024502Y00013780D01*
X00024524Y00013779D01*
X00028937Y00013779D01*
X00028937Y00013779D01*
X00029090Y00013767D01*
X00029239Y00013731D01*
X00029382Y00013672D01*
X00029513Y00013592D01*
X00029630Y00013492D01*
X00029730Y00013375D01*
X00029810Y00013244D01*
X00029869Y00013102D01*
X00029905Y00012952D01*
X00029917Y00012799D01*
X00029917Y00000984D01*
X00029905Y00000830D01*
X00029869Y00000681D01*
X00029810Y00000539D01*
X00029730Y00000408D01*
X00029630Y00000291D01*
X00029513Y00000191D01*
X00029382Y00000110D01*
X00029239Y00000051D01*
X00029090Y00000016D01*
X00028937Y00000003D01*
X00000980Y00000000D01*
X00000980Y00000000D01*
X00000826Y00000012D01*
X00000677Y00000047D01*
X00000535Y00000106D01*
X00000404Y00000187D01*
X00000287Y00000287D01*
X00000187Y00000404D01*
X00000106Y00000535D01*
X00000047Y00000677D01*
X00000012Y00000826D01*
X00000000Y00000980D01*
X00000000Y00012799D01*
X00000012Y00012952D01*
X00000047Y00013102D01*
X00000106Y00013244D01*
X00000187Y00013375D01*
X00000287Y00013492D01*
X00000404Y00013592D01*
X00000535Y00013672D01*
X00000677Y00013731D01*
X00000826Y00013767D01*
X00000980Y00013779D01*
X00005579Y00013779D01*
X00005579Y00013779D01*
X00005602Y00013780D01*
X00005626Y00013782D01*
X00005649Y00013785D01*
X00005673Y00013790D01*
X00005695Y00013797D01*
X00005718Y00013804D01*
X00005740Y00013813D01*
X00005761Y00013824D01*
X00005781Y00013835D01*
X00005801Y00013848D01*
X00005820Y00013862D01*
X00005839Y00013877D01*
X00005856Y00013893D01*
X00005872Y00013910D01*
X00005887Y00013928D01*
X00005902Y00013947D01*
X00005915Y00013967D01*
X00005926Y00013988D01*
X00005937Y00014009D01*
X00005946Y00014031D01*
X00005971Y00014094D01*
X00005983Y00014130D01*
X00005991Y00014168D01*
X00005996Y00014206D01*
X00005997Y00014244D01*
X00005995Y00014282D01*
X00005988Y00014319D01*
X00005978Y00014356D01*
X00005965Y00014392D01*
X00005948Y00014426D01*
X00005928Y00014459D01*
X00005905Y00014489D01*
X00005879Y00014517D01*
X00005851Y00014543D01*
X00005820Y00014565D01*
X00005787Y00014585D01*
X00005752Y00014601D01*
X00005716Y00014614D01*
X00005679Y00014623D01*
X00005642Y00014628D01*
X00005603Y00014630D01*
X00005603Y00014630D01*
X00000736Y00014629D01*
X00000736Y00014629D01*
X00000582Y00014641D01*
X00000433Y00014677D01*
X00000291Y00014736D01*
X00000160Y00014817D01*
X00000043Y00014917D01*
X-00000056Y00015034D01*
X-00000137Y00015165D01*
X-00000196Y00015307D01*
X-00000232Y00015456D01*
X-00000244Y00015610D01*
X-00000244Y00027429D01*
X-00000232Y00027582D01*
X-00000196Y00027732D01*
X-00000137Y00027874D01*
X-00000056Y00028005D01*
X00000043Y00028122D01*
X00000160Y00028222D01*
X00000291Y00028302D01*
X00000433Y00028361D01*
X00000582Y00028397D01*
X00000736Y00028409D01*
X00001228Y00028409D01*
X00001228Y00028409D01*
X00001246Y00028409D01*
X00001264Y00028411D01*
X00001282Y00028413D01*
X00001300Y00028416D01*
X00001318Y00028419D01*
X00001336Y00028424D01*
X00001353Y00028429D01*
X00001370Y00028436D01*
X00001387Y00028443D01*
X00001404Y00028450D01*
X00001420Y00028459D01*
X00001436Y00028468D01*
X00001451Y00028478D01*
X00001466Y00028489D01*
X00001480Y00028500D01*
X00001494Y00028512D01*
X00001507Y00028525D01*
X00001519Y00028538D01*
X00001531Y00028552D01*
X00001543Y00028566D01*
X00001754Y00028848D01*
X00001779Y00028884D01*
X00001799Y00028923D01*
X00001814Y00028964D01*
X00001825Y00029006D01*
X00001832Y00029049D01*
X00001833Y00029092D01*
X00001830Y00029136D01*
X00001822Y00029179D01*
X00001809Y00029220D01*
X00001792Y00029260D01*
X00001770Y00029298D01*
X00001745Y00029333D01*
X00001715Y00029366D01*
X00001683Y00029394D01*
X00001647Y00029419D01*
X00001609Y00029440D01*
X00001568Y00029457D01*
X00001527Y00029469D01*
X00001484Y00029476D01*
X00001440Y00029478D01*
X00001224Y00029479D01*
X00001224Y00032191D01*
X00001285Y00032191D01*
X00001333Y00032194D01*
X00001381Y00032203D01*
X00001427Y00032218D01*
X00001471Y00032238D01*
X00001512Y00032263D01*
X00001550Y00032293D01*
X00001584Y00032328D01*
X00001613Y00032367D01*
X00001637Y00032409D01*
X00001656Y00032453D01*
X00001669Y00032499D01*
X00001677Y00032547D01*
X00001679Y00032596D01*
X00001674Y00032644D01*
X00001664Y00032691D01*
X00001648Y00032737D01*
X00001627Y00032780D01*
X00001600Y00032821D01*
X00001569Y00032857D01*
X00001533Y00032890D01*
X00001480Y00032934D01*
X00001470Y00032942D01*
X00001459Y00032950D01*
X00001448Y00032957D01*
X00001436Y00032964D01*
X00001425Y00032971D01*
X00001413Y00032978D01*
X00001401Y00032984D01*
X00001389Y00032989D01*
X00001376Y00032994D01*
X00001364Y00032999D01*
X00001351Y00033003D01*
X00001338Y00033007D01*
X00001325Y00033011D01*
X00001312Y00033014D01*
X00001299Y00033016D01*
X00001286Y00033018D01*
X00001272Y00033020D01*
X00001259Y00033021D01*
X00001246Y00033022D01*
X00001232Y00033022D01*
X00001224Y00033022D01*
X00001224Y00035734D01*
X00002975Y00035734D01*
X00003021Y00035732D01*
X00003066Y00035727D01*
X00003111Y00035719D01*
X00003156Y00035708D01*
X00003199Y00035694D01*
X00003242Y00035678D01*
X00003284Y00035659D01*
X00003324Y00035638D01*
X00003364Y00035614D01*
X00003401Y00035588D01*
X00003435Y00035564D01*
X00003469Y00035543D01*
X00003506Y00035524D01*
X00003543Y00035507D01*
X00003582Y00035493D01*
X00003621Y00035481D01*
X00003661Y00035472D01*
X00003701Y00035465D01*
X00003742Y00035461D01*
X00003783Y00035460D01*
X00004807Y00035460D01*
X00004976Y00035447D01*
X00005141Y00035407D01*
X00005298Y00035342D01*
X00005443Y00035253D01*
X00005572Y00035143D01*
X00005682Y00035014D01*
X00005771Y00034869D01*
X00005836Y00034712D01*
X00005875Y00034547D01*
X00005889Y00034378D01*
X00005875Y00034209D01*
X00005836Y00034044D01*
X00005771Y00033887D01*
X00005682Y00033742D01*
X00005572Y00033613D01*
X00005443Y00033502D01*
X00005298Y00033414D01*
X00005141Y00033349D01*
X00004976Y00033309D01*
X00004807Y00033296D01*
X00004807Y00033296D01*
X00003783Y00033296D01*
X00003743Y00033295D01*
X00003703Y00033291D01*
X00003664Y00033285D01*
X00003625Y00033276D01*
X00003586Y00033265D01*
X00003549Y00033251D01*
X00003512Y00033235D01*
X00003476Y00033217D01*
X00003442Y00033196D01*
X00003427Y00033186D01*
X00003427Y00033186D01*
X00003414Y00033176D01*
X00003400Y00033166D01*
X00003388Y00033155D01*
X00003375Y00033143D01*
X00003364Y00033131D01*
X00003352Y00033119D01*
X00003342Y00033106D01*
X00003331Y00033092D01*
X00003322Y00033079D01*
X00003313Y00033064D01*
X00003304Y00033050D01*
X00003297Y00033035D01*
X00003290Y00033019D01*
X00003283Y00033004D01*
X00003278Y00032988D01*
X00003272Y00032972D01*
X00003268Y00032956D01*
X00003264Y00032939D01*
X00003261Y00032923D01*
X00003259Y00032906D01*
X00003206Y00032432D01*
X00003204Y00032411D01*
X00003203Y00032390D01*
X00003203Y00032369D01*
X00003205Y00032348D01*
X00003208Y00032327D01*
X00003212Y00032306D01*
X00003217Y00032285D01*
X00003223Y00032265D01*
X00003230Y00032245D01*
X00003238Y00032226D01*
X00003247Y00032207D01*
X00003258Y00032188D01*
X00003269Y00032170D01*
X00003281Y00032153D01*
X00003294Y00032136D01*
X00003308Y00032120D01*
X00003323Y00032105D01*
X00003339Y00032091D01*
X00003355Y00032077D01*
X00003372Y00032065D01*
X00003372Y00032065D01*
X00003401Y00032045D01*
X00003435Y00032021D01*
X00003469Y00031999D01*
X00003506Y00031980D01*
X00003543Y00031964D01*
X00003582Y00031949D01*
X00003621Y00031938D01*
X00003661Y00031929D01*
X00003701Y00031922D01*
X00003742Y00031918D01*
X00003783Y00031917D01*
X00004807Y00031917D01*
X00004976Y00031904D01*
X00005141Y00031864D01*
X00005298Y00031799D01*
X00005443Y00031710D01*
X00005572Y00031600D01*
X00005682Y00031471D01*
X00005771Y00031326D01*
X00005836Y00031169D01*
X00005875Y00031004D01*
X00005889Y00030835D01*
X00005875Y00030665D01*
X00005836Y00030500D01*
X00005771Y00030343D01*
X00005682Y00030199D01*
X00005572Y00030069D01*
X00005443Y00029959D01*
X00005298Y00029870D01*
X00005141Y00029805D01*
X00004976Y00029766D01*
X00004807Y00029752D01*
X00004807Y00029753D01*
X00003783Y00029753D01*
X00003743Y00029752D01*
X00003703Y00029748D01*
X00003664Y00029742D01*
X00003625Y00029733D01*
X00003586Y00029721D01*
X00003549Y00029708D01*
X00003512Y00029692D01*
X00003476Y00029673D01*
X00003442Y00029653D01*
X00003409Y00029630D01*
X00003371Y00029603D01*
X00003331Y00029578D01*
X00003290Y00029556D01*
X00003248Y00029536D01*
X00003238Y00029532D01*
X00003238Y00029532D01*
X00003210Y00029520D01*
X00003184Y00029507D01*
X00003159Y00029491D01*
X00003135Y00029473D01*
X00003113Y00029454D01*
X00003092Y00029433D01*
X00003072Y00029410D01*
X00003055Y00029386D01*
X00003039Y00029361D01*
X00003025Y00029335D01*
X00003013Y00029308D01*
X00003004Y00029280D01*
X00002996Y00029251D01*
X00002991Y00029222D01*
X00002988Y00029192D01*
X00002987Y00029163D01*
X00002988Y00029133D01*
X00002991Y00029104D01*
X00002997Y00029075D01*
X00003005Y00029046D01*
X00003120Y00028683D01*
X00003129Y00028660D01*
X00003138Y00028637D01*
X00003150Y00028615D01*
X00003162Y00028593D01*
X00003176Y00028573D01*
X00003191Y00028553D01*
X00003207Y00028534D01*
X00003225Y00028517D01*
X00003244Y00028500D01*
X00003263Y00028485D01*
X00003284Y00028471D01*
X00003305Y00028458D01*
X00003327Y00028447D01*
X00003350Y00028437D01*
X00003373Y00028428D01*
X00003397Y00028421D01*
X00003421Y00028416D01*
X00003446Y00028412D01*
X00003471Y00028410D01*
X00003496Y00028409D01*
X00007781Y00014630D02*
X00007781Y00014630D01*
X00013926Y00014631D01*
X00013926Y00014631D01*
X00013968Y00014629D01*
X00014010Y00014622D01*
X00014051Y00014611D01*
X00014090Y00014596D01*
X00014127Y00014576D01*
X00014162Y00014553D01*
X00014195Y00014526D01*
X00014224Y00014495D01*
X00014250Y00014462D01*
X00014272Y00014426D01*
X00014290Y00014388D01*
X00014304Y00014348D01*
X00014314Y00014307D01*
X00014319Y00014265D01*
X00014320Y00014223D01*
X00014316Y00014181D01*
X00014308Y00014140D01*
X00014295Y00014099D01*
X00014278Y00014061D01*
X00014257Y00014024D01*
X00014215Y00013959D01*
X00014204Y00013943D01*
X00014192Y00013927D01*
X00014180Y00013912D01*
X00014166Y00013898D01*
X00014152Y00013884D01*
X00014138Y00013871D01*
X00014122Y00013859D01*
X00014106Y00013847D01*
X00014090Y00013837D01*
X00014073Y00013827D01*
X00014055Y00013818D01*
X00014037Y00013810D01*
X00014019Y00013803D01*
X00014001Y00013797D01*
X00013982Y00013791D01*
X00013963Y00013787D01*
X00013943Y00013783D01*
X00013924Y00013781D01*
X00013904Y00013780D01*
X00013885Y00013779D01*
X00013885Y00013779D01*
X00007806Y00013779D01*
X00007806Y00013779D01*
X00007782Y00013780D01*
X00007759Y00013782D01*
X00007735Y00013785D01*
X00007712Y00013790D01*
X00007689Y00013797D01*
X00007667Y00013804D01*
X00007645Y00013813D01*
X00007624Y00013824D01*
X00007603Y00013835D01*
X00007583Y00013848D01*
X00007564Y00013862D01*
X00007546Y00013877D01*
X00007529Y00013893D01*
X00007512Y00013910D01*
X00007497Y00013929D01*
X00007483Y00013948D01*
X00007470Y00013967D01*
X00007458Y00013988D01*
X00007448Y00014009D01*
X00007439Y00014031D01*
X00007414Y00014095D01*
X00007402Y00014131D01*
X00007394Y00014168D01*
X00007389Y00014206D01*
X00007388Y00014244D01*
X00007390Y00014283D01*
X00007397Y00014320D01*
X00007406Y00014357D01*
X00007420Y00014393D01*
X00007437Y00014427D01*
X00007457Y00014459D01*
X00007480Y00014490D01*
X00007506Y00014518D01*
X00007534Y00014543D01*
X00007565Y00014566D01*
X00007598Y00014585D01*
X00007632Y00014601D01*
X00007668Y00014614D01*
X00007705Y00014623D01*
X00007743Y00014629D01*
X00007781Y00014630D01*
X00001535Y00000945D02*
X00001535Y00000945D01*
X00001425Y00000951D01*
X00001318Y00000981D01*
X00001220Y00001033D01*
X00001136Y00001104D01*
X00001069Y00001192D01*
X00001022Y00001293D01*
X00000999Y00001401D01*
X00000999Y00001512D01*
X00001022Y00001620D01*
X00001069Y00001720D01*
X00001136Y00001808D01*
X00001220Y00001880D01*
X00001318Y00001932D01*
X00001425Y00001961D01*
X00001535Y00001967D01*
X00001644Y00001949D01*
X00001747Y00001908D01*
X00001839Y00001846D01*
X00001915Y00001766D01*
X00001972Y00001671D01*
X00002007Y00001566D01*
X00002019Y00001456D01*
X00002007Y00001346D01*
X00001972Y00001241D01*
X00001915Y00001146D01*
X00001839Y00001066D01*
X00001747Y00001004D01*
X00001644Y00000963D01*
X00001535Y00000945D01*
X00028338Y00000961D02*
X00028338Y00000961D01*
X00028228Y00000967D01*
X00028121Y00000996D01*
X00028023Y00001048D01*
X00027939Y00001120D01*
X00027872Y00001208D01*
X00027826Y00001309D01*
X00027802Y00001417D01*
X00027802Y00001527D01*
X00027826Y00001635D01*
X00027872Y00001736D01*
X00027939Y00001824D01*
X00028023Y00001896D01*
X00028121Y00001947D01*
X00028228Y00001977D01*
X00028338Y00001983D01*
X00028447Y00001965D01*
X00028550Y00001924D01*
X00028642Y00001862D01*
X00028718Y00001782D01*
X00028775Y00001687D01*
X00028810Y00001582D01*
X00028822Y00001472D01*
X00028810Y00001362D01*
X00028775Y00001257D01*
X00028718Y00001162D01*
X00028642Y00001082D01*
X00028550Y00001020D01*
X00028447Y00000979D01*
X00028338Y00000961D01*
X00004578Y00004317D02*
X00004578Y00004317D01*
X00004411Y00004317D01*
X00004245Y00004339D01*
X00004083Y00004382D01*
X00003929Y00004447D01*
X00003784Y00004530D01*
X00003651Y00004632D01*
X00003533Y00004751D01*
X00003431Y00004883D01*
X00003348Y00005028D01*
X00003284Y00005183D01*
X00003240Y00005344D01*
X00003219Y00005510D01*
X00003219Y00005678D01*
X00003240Y00005844D01*
X00003284Y00006005D01*
X00003348Y00006160D01*
X00003431Y00006305D01*
X00003533Y00006437D01*
X00003651Y00006556D01*
X00003784Y00006658D01*
X00003929Y00006741D01*
X00004083Y00006806D01*
X00004245Y00006849D01*
X00004411Y00006871D01*
X00004578Y00006871D01*
X00004744Y00006849D01*
X00004906Y00006806D01*
X00005060Y00006742D01*
X00005205Y00006659D01*
X00005338Y00006557D01*
X00005457Y00006439D01*
X00005559Y00006307D01*
X00005559Y00004881D01*
X00005457Y00004749D01*
X00005338Y00004631D01*
X00005205Y00004529D01*
X00005060Y00004446D01*
X00004906Y00004382D01*
X00004744Y00004339D01*
X00004578Y00004317D01*
X00009696Y00004317D02*
X00009696Y00004317D01*
X00009529Y00004317D01*
X00009363Y00004339D01*
X00009201Y00004382D01*
X00009047Y00004447D01*
X00008902Y00004530D01*
X00008769Y00004632D01*
X00008651Y00004751D01*
X00008549Y00004883D01*
X00008466Y00005028D01*
X00008402Y00005183D01*
X00008358Y00005344D01*
X00008337Y00005510D01*
X00008337Y00005678D01*
X00008358Y00005844D01*
X00008402Y00006005D01*
X00008466Y00006160D01*
X00008549Y00006305D01*
X00008651Y00006437D01*
X00008769Y00006556D01*
X00008902Y00006658D01*
X00009047Y00006741D01*
X00009201Y00006806D01*
X00009363Y00006849D01*
X00009529Y00006871D01*
X00009696Y00006871D01*
X00009862Y00006849D01*
X00010024Y00006806D01*
X00010178Y00006742D01*
X00010323Y00006659D01*
X00010456Y00006557D01*
X00010575Y00006439D01*
X00010677Y00006307D01*
X00010677Y00004881D01*
X00010575Y00004749D01*
X00010456Y00004631D01*
X00010323Y00004529D01*
X00010178Y00004446D01*
X00010024Y00004382D01*
X00009862Y00004339D01*
X00009696Y00004317D01*
X00014814Y00004317D02*
X00014814Y00004317D01*
X00014647Y00004317D01*
X00014481Y00004339D01*
X00014320Y00004382D01*
X00014165Y00004447D01*
X00014020Y00004530D01*
X00013888Y00004632D01*
X00013769Y00004751D01*
X00013667Y00004883D01*
X00013584Y00005028D01*
X00013520Y00005183D01*
X00013477Y00005344D01*
X00013455Y00005510D01*
X00013455Y00005678D01*
X00013477Y00005844D01*
X00013520Y00006005D01*
X00013584Y00006160D01*
X00013667Y00006305D01*
X00013769Y00006437D01*
X00013888Y00006556D01*
X00014020Y00006658D01*
X00014165Y00006741D01*
X00014320Y00006806D01*
X00014481Y00006849D01*
X00014647Y00006871D01*
X00014814Y00006871D01*
X00014980Y00006849D01*
X00015142Y00006806D01*
X00015296Y00006742D01*
X00015441Y00006659D01*
X00015574Y00006557D01*
X00015693Y00006439D01*
X00015795Y00006307D01*
X00015795Y00004881D01*
X00015693Y00004749D01*
X00015574Y00004631D01*
X00015441Y00004529D01*
X00015296Y00004446D01*
X00015142Y00004382D01*
X00014980Y00004339D01*
X00014814Y00004317D01*
X00020326Y00004317D02*
X00020326Y00004317D01*
X00020159Y00004317D01*
X00019993Y00004339D01*
X00019831Y00004382D01*
X00019677Y00004447D01*
X00019532Y00004530D01*
X00019399Y00004632D01*
X00019281Y00004751D01*
X00019179Y00004883D01*
X00019096Y00005028D01*
X00019032Y00005183D01*
X00018988Y00005344D01*
X00018967Y00005510D01*
X00018967Y00005678D01*
X00018988Y00005844D01*
X00019032Y00006005D01*
X00019096Y00006160D01*
X00019179Y00006305D01*
X00019281Y00006437D01*
X00019399Y00006556D01*
X00019532Y00006658D01*
X00019677Y00006741D01*
X00019831Y00006806D01*
X00019993Y00006849D01*
X00020159Y00006871D01*
X00020326Y00006871D01*
X00020492Y00006849D01*
X00020654Y00006806D01*
X00020808Y00006742D01*
X00020953Y00006659D01*
X00021086Y00006557D01*
X00021205Y00006439D01*
X00021307Y00006307D01*
X00021307Y00004881D01*
X00021205Y00004749D01*
X00021086Y00004631D01*
X00020953Y00004529D01*
X00020808Y00004446D01*
X00020654Y00004382D01*
X00020492Y00004339D01*
X00020326Y00004317D01*
X00025444Y00004317D02*
X00025444Y00004317D01*
X00025277Y00004317D01*
X00025111Y00004339D01*
X00024949Y00004382D01*
X00024795Y00004447D01*
X00024650Y00004530D01*
X00024517Y00004632D01*
X00024399Y00004751D01*
X00024297Y00004883D01*
X00024214Y00005028D01*
X00024150Y00005183D01*
X00024107Y00005344D01*
X00024085Y00005510D01*
X00024085Y00005678D01*
X00024107Y00005844D01*
X00024150Y00006005D01*
X00024214Y00006160D01*
X00024297Y00006305D01*
X00024399Y00006437D01*
X00024517Y00006556D01*
X00024650Y00006658D01*
X00024795Y00006741D01*
X00024949Y00006806D01*
X00025111Y00006849D01*
X00025277Y00006871D01*
X00025444Y00006871D01*
X00025610Y00006849D01*
X00025772Y00006806D01*
X00025926Y00006742D01*
X00026071Y00006659D01*
X00026204Y00006557D01*
X00026323Y00006439D01*
X00026425Y00006307D01*
X00026425Y00004881D01*
X00026323Y00004749D01*
X00026204Y00004631D01*
X00026071Y00004529D01*
X00025926Y00004446D01*
X00025772Y00004382D01*
X00025610Y00004339D01*
X00025444Y00004317D01*
X00004578Y00009829D02*
X00004578Y00009829D01*
X00004411Y00009829D01*
X00004245Y00009851D01*
X00004083Y00009894D01*
X00003929Y00009958D01*
X00003784Y00010042D01*
X00003651Y00010144D01*
X00003533Y00010262D01*
X00003431Y00010395D01*
X00003348Y00010540D01*
X00003284Y00010695D01*
X00003240Y00010856D01*
X00003219Y00011022D01*
X00003219Y00011189D01*
X00003240Y00011355D01*
X00003284Y00011517D01*
X00003348Y00011672D01*
X00003431Y00011816D01*
X00003533Y00011949D01*
X00003651Y00012068D01*
X00003784Y00012169D01*
X00003929Y00012253D01*
X00004083Y00012317D01*
X00004245Y00012361D01*
X00004411Y00012383D01*
X00004578Y00012383D01*
X00004744Y00012361D01*
X00004906Y00012318D01*
X00005060Y00012254D01*
X00005205Y00012171D01*
X00005338Y00012069D01*
X00005457Y00011951D01*
X00005559Y00011818D01*
X00005559Y00010393D01*
X00005457Y00010261D01*
X00005338Y00010142D01*
X00005205Y00010041D01*
X00005060Y00009957D01*
X00004906Y00009894D01*
X00004744Y00009850D01*
X00004578Y00009829D01*
X00009696Y00009829D02*
X00009696Y00009829D01*
X00009529Y00009829D01*
X00009363Y00009851D01*
X00009201Y00009894D01*
X00009047Y00009958D01*
X00008902Y00010042D01*
X00008769Y00010144D01*
X00008651Y00010262D01*
X00008549Y00010395D01*
X00008466Y00010540D01*
X00008402Y00010695D01*
X00008358Y00010856D01*
X00008337Y00011022D01*
X00008337Y00011189D01*
X00008358Y00011355D01*
X00008402Y00011517D01*
X00008466Y00011672D01*
X00008549Y00011816D01*
X00008651Y00011949D01*
X00008769Y00012068D01*
X00008902Y00012169D01*
X00009047Y00012253D01*
X00009201Y00012317D01*
X00009363Y00012361D01*
X00009529Y00012383D01*
X00009696Y00012383D01*
X00009862Y00012361D01*
X00010024Y00012318D01*
X00010178Y00012254D01*
X00010323Y00012171D01*
X00010456Y00012069D01*
X00010575Y00011951D01*
X00010677Y00011818D01*
X00010677Y00010393D01*
X00010575Y00010261D01*
X00010456Y00010142D01*
X00010323Y00010041D01*
X00010178Y00009957D01*
X00010024Y00009894D01*
X00009862Y00009850D01*
X00009696Y00009829D01*
X00014814Y00009829D02*
X00014814Y00009829D01*
X00014647Y00009829D01*
X00014481Y00009851D01*
X00014320Y00009894D01*
X00014165Y00009958D01*
X00014020Y00010042D01*
X00013888Y00010144D01*
X00013769Y00010262D01*
X00013667Y00010395D01*
X00013584Y00010540D01*
X00013520Y00010695D01*
X00013477Y00010856D01*
X00013455Y00011022D01*
X00013455Y00011189D01*
X00013477Y00011355D01*
X00013520Y00011517D01*
X00013584Y00011672D01*
X00013667Y00011816D01*
X00013769Y00011949D01*
X00013888Y00012068D01*
X00014020Y00012169D01*
X00014165Y00012253D01*
X00014320Y00012317D01*
X00014481Y00012361D01*
X00014647Y00012383D01*
X00014814Y00012383D01*
X00014980Y00012361D01*
X00015142Y00012318D01*
X00015296Y00012254D01*
X00015441Y00012171D01*
X00015574Y00012069D01*
X00015693Y00011951D01*
X00015795Y00011818D01*
X00015795Y00010393D01*
X00015693Y00010261D01*
X00015574Y00010142D01*
X00015441Y00010041D01*
X00015296Y00009957D01*
X00015142Y00009894D01*
X00014980Y00009850D01*
X00014814Y00009829D01*
X00020326Y00009829D02*
X00020326Y00009829D01*
X00020159Y00009829D01*
X00019993Y00009851D01*
X00019831Y00009894D01*
X00019677Y00009958D01*
X00019532Y00010042D01*
X00019399Y00010144D01*
X00019281Y00010262D01*
X00019179Y00010395D01*
X00019096Y00010540D01*
X00019032Y00010695D01*
X00018988Y00010856D01*
X00018967Y00011022D01*
X00018967Y00011189D01*
X00018988Y00011355D01*
X00019032Y00011517D01*
X00019096Y00011672D01*
X00019179Y00011816D01*
X00019281Y00011949D01*
X00019399Y00012068D01*
X00019532Y00012169D01*
X00019677Y00012253D01*
X00019831Y00012317D01*
X00019993Y00012361D01*
X00020159Y00012383D01*
X00020326Y00012383D01*
X00020492Y00012361D01*
X00020654Y00012318D01*
X00020808Y00012254D01*
X00020953Y00012171D01*
X00021086Y00012069D01*
X00021205Y00011951D01*
X00021307Y00011818D01*
X00021307Y00010393D01*
X00021205Y00010261D01*
X00021086Y00010142D01*
X00020953Y00010041D01*
X00020808Y00009957D01*
X00020654Y00009894D01*
X00020492Y00009850D01*
X00020326Y00009829D01*
X00025444Y00009829D02*
X00025444Y00009829D01*
X00025277Y00009829D01*
X00025111Y00009851D01*
X00024949Y00009894D01*
X00024795Y00009958D01*
X00024650Y00010042D01*
X00024517Y00010144D01*
X00024399Y00010262D01*
X00024297Y00010395D01*
X00024214Y00010540D01*
X00024150Y00010695D01*
X00024107Y00010856D01*
X00024085Y00011022D01*
X00024085Y00011189D01*
X00024107Y00011355D01*
X00024150Y00011517D01*
X00024214Y00011672D01*
X00024297Y00011816D01*
X00024399Y00011949D01*
X00024517Y00012068D01*
X00024650Y00012169D01*
X00024795Y00012253D01*
X00024949Y00012317D01*
X00025111Y00012361D01*
X00025277Y00012383D01*
X00025444Y00012383D01*
X00025610Y00012361D01*
X00025772Y00012318D01*
X00025926Y00012254D01*
X00026071Y00012171D01*
X00026204Y00012069D01*
X00026323Y00011951D01*
X00026425Y00011818D01*
X00026425Y00010393D01*
X00026323Y00010261D01*
X00026204Y00010142D01*
X00026071Y00010041D01*
X00025926Y00009957D01*
X00025772Y00009894D01*
X00025610Y00009850D01*
X00025444Y00009829D01*
X00001539Y00011792D02*
X00001539Y00011792D01*
X00001429Y00011798D01*
X00001322Y00011827D01*
X00001224Y00011879D01*
X00001140Y00011951D01*
X00001073Y00012039D01*
X00001026Y00012139D01*
X00001003Y00012247D01*
X00001003Y00012358D01*
X00001026Y00012466D01*
X00001073Y00012567D01*
X00001140Y00012655D01*
X00001224Y00012726D01*
X00001322Y00012778D01*
X00001429Y00012808D01*
X00001539Y00012814D01*
X00001648Y00012796D01*
X00001751Y00012755D01*
X00001843Y00012693D01*
X00001919Y00012612D01*
X00001976Y00012518D01*
X00002011Y00012413D01*
X00002023Y00012303D01*
X00002011Y00012193D01*
X00001976Y00012088D01*
X00001919Y00011993D01*
X00001843Y00011913D01*
X00001751Y00011850D01*
X00001648Y00011809D01*
X00001539Y00011792D01*
X00028354Y00011803D02*
X00028354Y00011803D01*
X00028243Y00011809D01*
X00028137Y00011839D01*
X00028039Y00011891D01*
X00027955Y00011962D01*
X00027888Y00012051D01*
X00027841Y00012151D01*
X00027817Y00012259D01*
X00027817Y00012370D01*
X00027841Y00012478D01*
X00027888Y00012578D01*
X00027955Y00012666D01*
X00028039Y00012738D01*
X00028137Y00012790D01*
X00028243Y00012820D01*
X00028354Y00012826D01*
X00028463Y00012808D01*
X00028566Y00012767D01*
X00028658Y00012705D01*
X00028734Y00012624D01*
X00028791Y00012529D01*
X00028826Y00012424D01*
X00028838Y00012314D01*
X00028826Y00012204D01*
X00028791Y00012100D01*
X00028734Y00012005D01*
X00028658Y00011924D01*
X00028566Y00011862D01*
X00028463Y00011821D01*
X00028354Y00011803D01*
X00015248Y00013779D02*
X00015248Y00013779D01*
X00022719Y00013779D01*
X00022742Y00013780D01*
X00022764Y00013782D01*
X00022785Y00013785D01*
X00022807Y00013789D01*
X00022828Y00013794D01*
X00022849Y00013801D01*
X00022870Y00013809D01*
X00022890Y00013818D01*
X00022910Y00013828D01*
X00022929Y00013839D01*
X00022947Y00013852D01*
X00022965Y00013865D01*
X00022982Y00013879D01*
X00022998Y00013894D01*
X00023013Y00013910D01*
X00023027Y00013927D01*
X00023040Y00013945D01*
X00023053Y00013963D01*
X00023064Y00013982D01*
X00023074Y00014002D01*
X00023106Y00014068D01*
X00023121Y00014104D01*
X00023133Y00014142D01*
X00023141Y00014181D01*
X00023145Y00014221D01*
X00023144Y00014261D01*
X00023140Y00014300D01*
X00023132Y00014339D01*
X00023120Y00014377D01*
X00023104Y00014414D01*
X00023085Y00014448D01*
X00023062Y00014481D01*
X00023036Y00014511D01*
X00023007Y00014538D01*
X00022976Y00014562D01*
X00022942Y00014583D01*
X00022906Y00014601D01*
X00022869Y00014615D01*
X00022830Y00014625D01*
X00022791Y00014631D01*
X00022751Y00014633D01*
X00015206Y00014631D01*
X00015206Y00014631D01*
X00015164Y00014629D01*
X00015123Y00014622D01*
X00015082Y00014611D01*
X00015043Y00014596D01*
X00015005Y00014576D01*
X00014970Y00014553D01*
X00014938Y00014526D01*
X00014909Y00014495D01*
X00014883Y00014462D01*
X00014861Y00014426D01*
X00014843Y00014388D01*
X00014829Y00014348D01*
X00014819Y00014307D01*
X00014814Y00014266D01*
X00014813Y00014223D01*
X00014817Y00014181D01*
X00014825Y00014140D01*
X00014838Y00014100D01*
X00014855Y00014061D01*
X00014875Y00014025D01*
X00014917Y00013960D01*
X00014928Y00013943D01*
X00014940Y00013928D01*
X00014953Y00013913D01*
X00014966Y00013898D01*
X00014980Y00013884D01*
X00014995Y00013871D01*
X00015010Y00013859D01*
X00015026Y00013848D01*
X00015043Y00013837D01*
X00015060Y00013827D01*
X00015077Y00013818D01*
X00015095Y00013810D01*
X00015114Y00013803D01*
X00015132Y00013797D01*
X00015151Y00013791D01*
X00015170Y00013787D01*
X00015190Y00013783D01*
X00015209Y00013781D01*
X00015229Y00013780D01*
X00015248Y00013779D01*
M02*