%MOIN*%
%OFA0B0*%
%FSLAX46Y46*%
%IPPOS*%
%LPD*%
%ADD10C,0.005905511811023622*%
%ADD11C,0.031496062992125991*%
%ADD12C,0.01*%
%ADD23C,0.005905511811023622*%
%ADD24C,0.031496062992125991*%
%ADD25C,0.01*%
%ADD36C,0.005905511811023622*%
%ADD37C,0.21653543307086615*%
%ADD38C,0.01*%
%ADD49C,0.005905511811023622*%
%ADD50C,0.21653543307086615*%
%ADD51C,0.01*%
%ADD62C,0.005905511811023622*%
%ADD63C,0.21653543307086615*%
%ADD64C,0.01*%
%ADD75C,0.005905511811023622*%
%ADD76C,0.21653543307086615*%
%ADD77C,0.01*%
%ADD88C,0.005905511811023622*%
%ADD89C,0.01*%
%ADD100C,0.005905511811023622*%
%ADD101C,0.01*%
%LPD*%
G01G01G01G01G01G01G01G01*
D10*
D11*
X-0000054330Y0001411023D02*
X0002384645Y0000559448D03*
X0002404952Y0000635236D03*
X0002460433Y0000690715D03*
X0002536220Y0000711023D03*
X0002612006Y0000690715D03*
X0002667488Y0000635236D03*
X0002687795Y0000559448D03*
X0002667488Y0000483661D03*
X0002612006Y0000428181D03*
X0002536220Y0000407874D03*
X0002460433Y0000428181D03*
X0002404952Y0000483661D03*
X0001872834Y0000559448D03*
X0001893141Y0000635236D03*
X0001948622Y0000690715D03*
X0002024409Y0000711023D03*
X0002100196Y0000690715D03*
X0002155677Y0000635236D03*
X0002175984Y0000559448D03*
X0002155677Y0000483661D03*
X0002100196Y0000428181D03*
X0002024409Y0000407874D03*
X0001948622Y0000428181D03*
X0001893141Y0000483661D03*
X0002384645Y0001110629D03*
X0002404952Y0001186417D03*
X0002460433Y0001241897D03*
X0002536220Y0001262204D03*
X0002612006Y0001241897D03*
X0002667488Y0001186417D03*
X0002687795Y0001110629D03*
X0002667488Y0001034842D03*
X0002612006Y0000979362D03*
X0002536220Y0000959055D03*
X0002460433Y0000979362D03*
X0002404952Y0001034842D03*
X0001872834Y0001110629D03*
X0001893141Y0001186417D03*
X0001948622Y0001241897D03*
X0002024409Y0001262204D03*
X0002100196Y0001241897D03*
X0002155677Y0001186417D03*
X0002175984Y0001110629D03*
X0002155677Y0001034842D03*
X0002100196Y0000979362D03*
X0002024409Y0000959055D03*
X0001948622Y0000979362D03*
X0001893141Y0001034842D03*
X0001321653Y0000559448D03*
X0001341960Y0000635236D03*
X0001397440Y0000690715D03*
X0001473228Y0000711023D03*
X0001549015Y0000690715D03*
X0001604494Y0000635236D03*
X0001624802Y0000559448D03*
X0001604494Y0000483661D03*
X0001549015Y0000428181D03*
X0001473228Y0000407874D03*
X0001397440Y0000428181D03*
X0001341960Y0000483661D03*
X0000809842Y0000559448D03*
X0000830149Y0000635236D03*
X0000885629Y0000690715D03*
X0000961417Y0000711023D03*
X0001037204Y0000690715D03*
X0001092684Y0000635236D03*
X0001112992Y0000559448D03*
X0001092684Y0000483661D03*
X0001037204Y0000428181D03*
X0000961417Y0000407874D03*
X0000885629Y0000428181D03*
X0000830149Y0000483661D03*
X0000298031Y0000559448D03*
X0000318338Y0000635236D03*
X0000373818Y0000690715D03*
X0000449606Y0000711023D03*
X0000525393Y0000690715D03*
X0000580873Y0000635236D03*
X0000601181Y0000559448D03*
X0000580873Y0000483661D03*
X0000525393Y0000428181D03*
X0000449606Y0000407874D03*
X0000373818Y0000428181D03*
X0000318338Y0000483661D03*
X0001321653Y0001110629D03*
X0001341960Y0001186417D03*
X0001397440Y0001241897D03*
X0001473228Y0001262204D03*
X0001549015Y0001241897D03*
X0001604494Y0001186417D03*
X0001624802Y0001110629D03*
X0001604494Y0001034842D03*
X0001549015Y0000979362D03*
X0001473228Y0000959055D03*
X0001397440Y0000979362D03*
X0001341960Y0001034842D03*
X0000809842Y0001110629D03*
X0000830149Y0001186417D03*
X0000885629Y0001241897D03*
X0000961417Y0001262204D03*
X0001037204Y0001241897D03*
X0001092684Y0001186417D03*
X0001112992Y0001110629D03*
X0001092684Y0001034842D03*
X0001037204Y0000979362D03*
X0000961417Y0000959055D03*
X0000885629Y0000979362D03*
X0000830149Y0001034842D03*
X0000298031Y0001110629D03*
X0000318338Y0001186417D03*
X0000373818Y0001241897D03*
X0000449606Y0001262204D03*
X0000525393Y0001241897D03*
X0000580873Y0001186417D03*
X0000601181Y0001110629D03*
X0000580873Y0001034842D03*
X0000525393Y0000979362D03*
X0000449606Y0000959055D03*
X0000373818Y0000979362D03*
X0000318338Y0001034842D03*
D12*
G36*
X0002929111Y0001365409D02*
X0002959130Y0001345351D01*
X0002979189Y0001315331D01*
X0002986338Y0001279389D01*
X0002986338Y0000098956D01*
X0002979189Y0000063014D01*
X0002959130Y0000032995D01*
X0002929111Y0000012936D01*
X0002893169Y0000005787D01*
X0000098562Y0000005393D01*
X0000062618Y0000012542D01*
X0000032599Y0000032599D01*
X0000012542Y0000062618D01*
X0000005393Y0000098562D01*
X0000005393Y0000145669D01*
X0000091653Y0000145669D01*
X0000096154Y0000123039D01*
X0000108973Y0000103855D01*
X0000128157Y0000091036D01*
X0000150787Y0000086535D01*
X0000173416Y0000091036D01*
X0000192601Y0000103855D01*
X0000205419Y0000123039D01*
X0000209921Y0000145669D01*
X0000209608Y0000147244D01*
X0002771968Y0000147244D01*
X0002776468Y0000124614D01*
X0002789288Y0000105430D01*
X0002808472Y0000092611D01*
X0002831102Y0000088110D01*
X0002853731Y0000092611D01*
X0002872916Y0000105430D01*
X0002885734Y0000124614D01*
X0002890236Y0000147244D01*
X0002885734Y0000169873D01*
X0002872916Y0000189058D01*
X0002853731Y0000201876D01*
X0002831102Y0000206377D01*
X0002808472Y0000201876D01*
X0002789288Y0000189058D01*
X0002776468Y0000169873D01*
X0002771968Y0000147244D01*
X0000209608Y0000147244D01*
X0000205419Y0000168298D01*
X0000192601Y0000187483D01*
X0000173416Y0000200301D01*
X0000150787Y0000204803D01*
X0000128157Y0000200301D01*
X0000108973Y0000187483D01*
X0000096154Y0000168298D01*
X0000091653Y0000145669D01*
X0000005393Y0000145669D01*
X0000005393Y0000534684D01*
X0000316099Y0000534684D01*
X0000316701Y0000531640D01*
X0000316701Y0000531639D01*
X0000335739Y0000485479D01*
X0000335739Y0000485478D01*
X0000335969Y0000485134D01*
X0000337459Y0000482896D01*
X0000337460Y0000482896D01*
X0000372714Y0000447534D01*
X0000372714Y0000447534D01*
X0000373748Y0000446841D01*
X0000375291Y0000445806D01*
X0000375292Y0000445806D01*
X0000421395Y0000426628D01*
X0000421395Y0000426628D01*
X0000424437Y0000426018D01*
X0000474370Y0000425942D01*
X0000477415Y0000426543D01*
X0000477415Y0000426543D01*
X0000523576Y0000445581D01*
X0000523576Y0000445581D01*
X0000525126Y0000446614D01*
X0000526158Y0000447302D01*
X0000526159Y0000447302D01*
X0000561520Y0000482556D01*
X0000561523Y0000482562D01*
X0000561528Y0000482565D01*
X0000562391Y0000483856D01*
X0000563248Y0000485134D01*
X0000563249Y0000485140D01*
X0000563252Y0000485145D01*
X0000563550Y0000486641D01*
X0000563858Y0000488176D01*
X0000563857Y0000488183D01*
X0000563858Y0000488188D01*
X0000563858Y0000534684D01*
X0000827911Y0000534684D01*
X0000828512Y0000531640D01*
X0000828512Y0000531639D01*
X0000847550Y0000485479D01*
X0000847550Y0000485478D01*
X0000847780Y0000485134D01*
X0000849269Y0000482896D01*
X0000849271Y0000482896D01*
X0000884525Y0000447534D01*
X0000884525Y0000447534D01*
X0000885559Y0000446841D01*
X0000887102Y0000445806D01*
X0000887102Y0000445806D01*
X0000933206Y0000426628D01*
X0000933206Y0000426628D01*
X0000936248Y0000426018D01*
X0000986181Y0000425942D01*
X0000989226Y0000426543D01*
X0000989226Y0000426543D01*
X0001035387Y0000445581D01*
X0001035387Y0000445581D01*
X0001036937Y0000446614D01*
X0001037970Y0000447302D01*
X0001037970Y0000447302D01*
X0001073331Y0000482556D01*
X0001073334Y0000482562D01*
X0001073340Y0000482565D01*
X0001074202Y0000483856D01*
X0001075059Y0000485134D01*
X0001075060Y0000485140D01*
X0001075063Y0000485145D01*
X0001075361Y0000486641D01*
X0001075669Y0000488176D01*
X0001075668Y0000488183D01*
X0001075669Y0000488188D01*
X0001075669Y0000534684D01*
X0001339722Y0000534684D01*
X0001340323Y0000531640D01*
X0001340323Y0000531639D01*
X0001359361Y0000485479D01*
X0001359361Y0000485478D01*
X0001359591Y0000485134D01*
X0001361081Y0000482896D01*
X0001361082Y0000482896D01*
X0001396336Y0000447534D01*
X0001396336Y0000447534D01*
X0001397370Y0000446841D01*
X0001398913Y0000445806D01*
X0001398914Y0000445806D01*
X0001445017Y0000426628D01*
X0001445017Y0000426628D01*
X0001448059Y0000426018D01*
X0001497992Y0000425942D01*
X0001501037Y0000426543D01*
X0001501037Y0000426543D01*
X0001547198Y0000445581D01*
X0001547198Y0000445581D01*
X0001548748Y0000446614D01*
X0001549781Y0000447302D01*
X0001549781Y0000447302D01*
X0001585142Y0000482556D01*
X0001585144Y0000482562D01*
X0001585151Y0000482565D01*
X0001586013Y0000483856D01*
X0001586870Y0000485134D01*
X0001586871Y0000485140D01*
X0001586874Y0000485145D01*
X0001587172Y0000486641D01*
X0001587479Y0000488176D01*
X0001587479Y0000488183D01*
X0001587479Y0000488188D01*
X0001587479Y0000534684D01*
X0001890903Y0000534684D01*
X0001891504Y0000531640D01*
X0001891504Y0000531639D01*
X0001910542Y0000485479D01*
X0001910542Y0000485478D01*
X0001910772Y0000485134D01*
X0001912263Y0000482896D01*
X0001912263Y0000482896D01*
X0001947517Y0000447534D01*
X0001947517Y0000447534D01*
X0001948552Y0000446841D01*
X0001950095Y0000445806D01*
X0001950095Y0000445806D01*
X0001996198Y0000426628D01*
X0001996198Y0000426628D01*
X0001999238Y0000426018D01*
X0002049173Y0000425942D01*
X0002052217Y0000426543D01*
X0002052217Y0000426543D01*
X0002098379Y0000445581D01*
X0002098379Y0000445581D01*
X0002099929Y0000446614D01*
X0002100962Y0000447302D01*
X0002100962Y0000447302D01*
X0002136323Y0000482556D01*
X0002136326Y0000482562D01*
X0002136332Y0000482565D01*
X0002137194Y0000483856D01*
X0002138051Y0000485134D01*
X0002138052Y0000485140D01*
X0002138056Y0000485145D01*
X0002138353Y0000486641D01*
X0002138661Y0000488176D01*
X0002138660Y0000488183D01*
X0002138661Y0000488188D01*
X0002138661Y0000534684D01*
X0002402714Y0000534684D01*
X0002403315Y0000531640D01*
X0002403315Y0000531639D01*
X0002422353Y0000485479D01*
X0002422354Y0000485478D01*
X0002422583Y0000485134D01*
X0002424074Y0000482896D01*
X0002424074Y0000482896D01*
X0002459328Y0000447534D01*
X0002459328Y0000447534D01*
X0002460363Y0000446841D01*
X0002461906Y0000445806D01*
X0002461906Y0000445806D01*
X0002508009Y0000426628D01*
X0002508009Y0000426628D01*
X0002511051Y0000426018D01*
X0002560985Y0000425942D01*
X0002564029Y0000426543D01*
X0002564029Y0000426543D01*
X0002610190Y0000445581D01*
X0002610190Y0000445581D01*
X0002611740Y0000446614D01*
X0002612773Y0000447302D01*
X0002612773Y0000447302D01*
X0002648134Y0000482556D01*
X0002648137Y0000482562D01*
X0002648143Y0000482565D01*
X0002649005Y0000483856D01*
X0002649862Y0000485134D01*
X0002649863Y0000485140D01*
X0002649867Y0000485145D01*
X0002650164Y0000486641D01*
X0002650472Y0000488176D01*
X0002650471Y0000488183D01*
X0002650472Y0000488188D01*
X0002650472Y0000630707D01*
X0002650472Y0000630707D01*
X0002649867Y0000633752D01*
X0002648143Y0000636332D01*
X0002613103Y0000671371D01*
X0002611809Y0000672236D01*
X0002610534Y0000673090D01*
X0002610523Y0000673095D01*
X0002610523Y0000673095D01*
X0002610523Y0000673095D01*
X0002564431Y0000692268D01*
X0002564431Y0000692268D01*
X0002564431Y0000692268D01*
X0002561999Y0000692756D01*
X0002561388Y0000692878D01*
X0002561388Y0000692878D01*
X0002511455Y0000692954D01*
X0002508411Y0000692354D01*
X0002462250Y0000673314D01*
X0002462250Y0000673314D01*
X0002459667Y0000671595D01*
X0002424306Y0000636340D01*
X0002422578Y0000633763D01*
X0002422578Y0000633762D01*
X0002403400Y0000587659D01*
X0002403400Y0000587659D01*
X0002402790Y0000584617D01*
X0002402714Y0000534684D01*
X0002138661Y0000534684D01*
X0002138661Y0000630707D01*
X0002138661Y0000630707D01*
X0002138056Y0000633752D01*
X0002136332Y0000636332D01*
X0002101292Y0000671371D01*
X0002099998Y0000672236D01*
X0002098723Y0000673090D01*
X0002098712Y0000673095D01*
X0002098712Y0000673095D01*
X0002098712Y0000673095D01*
X0002052620Y0000692268D01*
X0002052620Y0000692268D01*
X0002052620Y0000692268D01*
X0002050188Y0000692756D01*
X0002049578Y0000692878D01*
X0002049578Y0000692878D01*
X0001999644Y0000692954D01*
X0001996600Y0000692354D01*
X0001950438Y0000673314D01*
X0001950438Y0000673314D01*
X0001947855Y0000671595D01*
X0001912495Y0000636340D01*
X0001910766Y0000633763D01*
X0001910766Y0000633762D01*
X0001891589Y0000587659D01*
X0001891589Y0000587659D01*
X0001890979Y0000584617D01*
X0001890903Y0000534684D01*
X0001587479Y0000534684D01*
X0001587479Y0000630707D01*
X0001587479Y0000630707D01*
X0001586874Y0000633752D01*
X0001585151Y0000636332D01*
X0001550111Y0000671371D01*
X0001548817Y0000672236D01*
X0001547542Y0000673090D01*
X0001547531Y0000673095D01*
X0001547531Y0000673095D01*
X0001547531Y0000673095D01*
X0001501439Y0000692268D01*
X0001501439Y0000692268D01*
X0001501439Y0000692268D01*
X0001499006Y0000692756D01*
X0001498396Y0000692878D01*
X0001498396Y0000692878D01*
X0001448463Y0000692954D01*
X0001445419Y0000692354D01*
X0001399258Y0000673314D01*
X0001399258Y0000673314D01*
X0001396675Y0000671595D01*
X0001361314Y0000636340D01*
X0001359586Y0000633763D01*
X0001359586Y0000633762D01*
X0001340407Y0000587659D01*
X0001340407Y0000587659D01*
X0001339796Y0000584617D01*
X0001339722Y0000534684D01*
X0001075669Y0000534684D01*
X0001075669Y0000630707D01*
X0001075669Y0000630707D01*
X0001075063Y0000633752D01*
X0001073340Y0000636332D01*
X0001038300Y0000671371D01*
X0001037006Y0000672236D01*
X0001035731Y0000673090D01*
X0001035720Y0000673095D01*
X0001035720Y0000673095D01*
X0001035720Y0000673095D01*
X0000989628Y0000692268D01*
X0000989628Y0000692268D01*
X0000989628Y0000692268D01*
X0000987195Y0000692756D01*
X0000986585Y0000692878D01*
X0000986585Y0000692878D01*
X0000936652Y0000692954D01*
X0000933608Y0000692354D01*
X0000887447Y0000673314D01*
X0000887447Y0000673314D01*
X0000884863Y0000671595D01*
X0000849503Y0000636340D01*
X0000847775Y0000633763D01*
X0000847775Y0000633762D01*
X0000828596Y0000587659D01*
X0000828596Y0000587659D01*
X0000827986Y0000584617D01*
X0000827911Y0000534684D01*
X0000563858Y0000534684D01*
X0000563858Y0000630707D01*
X0000563858Y0000630707D01*
X0000563252Y0000633752D01*
X0000561528Y0000636332D01*
X0000526489Y0000671371D01*
X0000525195Y0000672236D01*
X0000523920Y0000673090D01*
X0000523908Y0000673095D01*
X0000523908Y0000673095D01*
X0000523908Y0000673095D01*
X0000477817Y0000692268D01*
X0000477817Y0000692268D01*
X0000477817Y0000692268D01*
X0000475384Y0000692756D01*
X0000474774Y0000692878D01*
X0000474774Y0000692878D01*
X0000424841Y0000692954D01*
X0000421796Y0000692354D01*
X0000375636Y0000673314D01*
X0000375636Y0000673314D01*
X0000373053Y0000671595D01*
X0000337692Y0000636340D01*
X0000335964Y0000633763D01*
X0000335964Y0000633762D01*
X0000316785Y0000587659D01*
X0000316785Y0000587659D01*
X0000316175Y0000584617D01*
X0000316099Y0000534684D01*
X0000005393Y0000534684D01*
X0000005393Y0001085865D01*
X0000316099Y0001085865D01*
X0000316701Y0001082821D01*
X0000316701Y0001082821D01*
X0000335739Y0001036659D01*
X0000335739Y0001036659D01*
X0000335969Y0001036315D01*
X0000337459Y0001034076D01*
X0000337460Y0001034076D01*
X0000372714Y0000998715D01*
X0000372714Y0000998715D01*
X0000373748Y0000998022D01*
X0000375291Y0000996987D01*
X0000375292Y0000996987D01*
X0000421395Y0000977809D01*
X0000421395Y0000977809D01*
X0000424437Y0000977199D01*
X0000474370Y0000977123D01*
X0000477415Y0000977724D01*
X0000477415Y0000977724D01*
X0000523576Y0000996763D01*
X0000523576Y0000996763D01*
X0000525126Y0000997795D01*
X0000526158Y0000998482D01*
X0000526159Y0000998482D01*
X0000561520Y0001033738D01*
X0000561523Y0001033743D01*
X0000561528Y0001033746D01*
X0000562391Y0001035037D01*
X0000563248Y0001036315D01*
X0000563249Y0001036321D01*
X0000563252Y0001036326D01*
X0000563550Y0001037822D01*
X0000563858Y0001039358D01*
X0000563857Y0001039364D01*
X0000563858Y0001039369D01*
X0000563858Y0001085865D01*
X0000827911Y0001085865D01*
X0000828512Y0001082821D01*
X0000828512Y0001082821D01*
X0000847550Y0001036659D01*
X0000847550Y0001036659D01*
X0000847780Y0001036315D01*
X0000849269Y0001034076D01*
X0000849271Y0001034076D01*
X0000884525Y0000998715D01*
X0000884525Y0000998715D01*
X0000885559Y0000998022D01*
X0000887102Y0000996987D01*
X0000887102Y0000996987D01*
X0000933206Y0000977809D01*
X0000933206Y0000977809D01*
X0000936248Y0000977199D01*
X0000986181Y0000977123D01*
X0000989226Y0000977724D01*
X0000989226Y0000977724D01*
X0001035387Y0000996763D01*
X0001035387Y0000996763D01*
X0001036937Y0000997795D01*
X0001037970Y0000998482D01*
X0001037970Y0000998482D01*
X0001073331Y0001033738D01*
X0001073334Y0001033743D01*
X0001073340Y0001033746D01*
X0001074202Y0001035037D01*
X0001075059Y0001036315D01*
X0001075060Y0001036321D01*
X0001075063Y0001036326D01*
X0001075361Y0001037822D01*
X0001075669Y0001039358D01*
X0001075668Y0001039364D01*
X0001075669Y0001039369D01*
X0001075669Y0001085865D01*
X0001339722Y0001085865D01*
X0001340323Y0001082821D01*
X0001340323Y0001082821D01*
X0001359361Y0001036659D01*
X0001359361Y0001036659D01*
X0001359591Y0001036315D01*
X0001361081Y0001034076D01*
X0001361082Y0001034076D01*
X0001396336Y0000998715D01*
X0001396336Y0000998715D01*
X0001397370Y0000998022D01*
X0001398913Y0000996987D01*
X0001398914Y0000996987D01*
X0001445017Y0000977809D01*
X0001445017Y0000977809D01*
X0001448059Y0000977199D01*
X0001497992Y0000977123D01*
X0001501037Y0000977724D01*
X0001501037Y0000977724D01*
X0001547198Y0000996763D01*
X0001547198Y0000996763D01*
X0001548748Y0000997795D01*
X0001549781Y0000998482D01*
X0001549781Y0000998482D01*
X0001585142Y0001033738D01*
X0001585144Y0001033743D01*
X0001585151Y0001033746D01*
X0001586013Y0001035037D01*
X0001586870Y0001036315D01*
X0001586871Y0001036321D01*
X0001586874Y0001036326D01*
X0001587172Y0001037822D01*
X0001587479Y0001039358D01*
X0001587479Y0001039364D01*
X0001587479Y0001039369D01*
X0001587479Y0001085865D01*
X0001890903Y0001085865D01*
X0001891504Y0001082821D01*
X0001891504Y0001082821D01*
X0001910542Y0001036659D01*
X0001910542Y0001036659D01*
X0001910772Y0001036315D01*
X0001912263Y0001034076D01*
X0001912263Y0001034076D01*
X0001947517Y0000998715D01*
X0001947517Y0000998715D01*
X0001948552Y0000998022D01*
X0001950095Y0000996987D01*
X0001950095Y0000996987D01*
X0001996198Y0000977809D01*
X0001996198Y0000977809D01*
X0001999238Y0000977199D01*
X0002049173Y0000977123D01*
X0002052217Y0000977724D01*
X0002052217Y0000977724D01*
X0002098379Y0000996763D01*
X0002098379Y0000996763D01*
X0002099929Y0000997795D01*
X0002100962Y0000998482D01*
X0002100962Y0000998482D01*
X0002136323Y0001033738D01*
X0002136326Y0001033743D01*
X0002136332Y0001033746D01*
X0002137194Y0001035037D01*
X0002138051Y0001036315D01*
X0002138052Y0001036321D01*
X0002138056Y0001036326D01*
X0002138353Y0001037822D01*
X0002138661Y0001039358D01*
X0002138660Y0001039364D01*
X0002138661Y0001039369D01*
X0002138661Y0001085865D01*
X0002402714Y0001085865D01*
X0002403315Y0001082821D01*
X0002403315Y0001082821D01*
X0002422353Y0001036659D01*
X0002422354Y0001036659D01*
X0002422583Y0001036315D01*
X0002424074Y0001034076D01*
X0002424074Y0001034076D01*
X0002459328Y0000998715D01*
X0002459328Y0000998715D01*
X0002460363Y0000998022D01*
X0002461906Y0000996987D01*
X0002461906Y0000996987D01*
X0002508009Y0000977809D01*
X0002508009Y0000977809D01*
X0002511051Y0000977199D01*
X0002560985Y0000977123D01*
X0002564029Y0000977724D01*
X0002564029Y0000977724D01*
X0002610190Y0000996763D01*
X0002610190Y0000996763D01*
X0002611740Y0000997795D01*
X0002612773Y0000998482D01*
X0002612773Y0000998482D01*
X0002648134Y0001033738D01*
X0002648137Y0001033743D01*
X0002648143Y0001033746D01*
X0002649005Y0001035037D01*
X0002649862Y0001036315D01*
X0002649863Y0001036321D01*
X0002649867Y0001036326D01*
X0002650164Y0001037822D01*
X0002650472Y0001039358D01*
X0002650471Y0001039364D01*
X0002650472Y0001039369D01*
X0002650472Y0001181889D01*
X0002650472Y0001181889D01*
X0002649867Y0001184933D01*
X0002648143Y0001187513D01*
X0002613103Y0001222552D01*
X0002611809Y0001223417D01*
X0002610534Y0001224271D01*
X0002610523Y0001224276D01*
X0002610523Y0001224276D01*
X0002610523Y0001224276D01*
X0002593167Y0001231496D01*
X0002773543Y0001231496D01*
X0002778044Y0001208866D01*
X0002790863Y0001189682D01*
X0002810047Y0001176863D01*
X0002832677Y0001172362D01*
X0002855306Y0001176863D01*
X0002874491Y0001189682D01*
X0002887309Y0001208866D01*
X0002891811Y0001231496D01*
X0002887309Y0001254125D01*
X0002874491Y0001273310D01*
X0002855306Y0001286128D01*
X0002832677Y0001290629D01*
X0002810047Y0001286128D01*
X0002790863Y0001273310D01*
X0002778044Y0001254125D01*
X0002773543Y0001231496D01*
X0002593167Y0001231496D01*
X0002564431Y0001243450D01*
X0002564431Y0001243450D01*
X0002564431Y0001243450D01*
X0002561999Y0001243938D01*
X0002561388Y0001244060D01*
X0002561388Y0001244060D01*
X0002511455Y0001244135D01*
X0002508411Y0001243535D01*
X0002462250Y0001224496D01*
X0002462250Y0001224496D01*
X0002459667Y0001222776D01*
X0002424306Y0001187521D01*
X0002422578Y0001184944D01*
X0002422578Y0001184944D01*
X0002403400Y0001138841D01*
X0002403400Y0001138840D01*
X0002402790Y0001135798D01*
X0002402714Y0001085865D01*
X0002138661Y0001085865D01*
X0002138661Y0001181889D01*
X0002138661Y0001181889D01*
X0002138056Y0001184933D01*
X0002136332Y0001187513D01*
X0002101292Y0001222552D01*
X0002099998Y0001223417D01*
X0002098723Y0001224271D01*
X0002098712Y0001224276D01*
X0002098712Y0001224276D01*
X0002098712Y0001224276D01*
X0002052620Y0001243450D01*
X0002052620Y0001243450D01*
X0002052620Y0001243450D01*
X0002050188Y0001243938D01*
X0002049578Y0001244060D01*
X0002049578Y0001244060D01*
X0001999644Y0001244135D01*
X0001996600Y0001243535D01*
X0001950438Y0001224496D01*
X0001950438Y0001224496D01*
X0001947855Y0001222776D01*
X0001912495Y0001187521D01*
X0001910766Y0001184944D01*
X0001910766Y0001184944D01*
X0001891589Y0001138841D01*
X0001891589Y0001138840D01*
X0001890979Y0001135798D01*
X0001890903Y0001085865D01*
X0001587479Y0001085865D01*
X0001587479Y0001181889D01*
X0001587479Y0001181889D01*
X0001586874Y0001184933D01*
X0001585151Y0001187513D01*
X0001550111Y0001222552D01*
X0001548817Y0001223417D01*
X0001547542Y0001224271D01*
X0001547531Y0001224276D01*
X0001547531Y0001224276D01*
X0001547531Y0001224276D01*
X0001501439Y0001243450D01*
X0001501439Y0001243450D01*
X0001501439Y0001243450D01*
X0001499006Y0001243938D01*
X0001498396Y0001244060D01*
X0001498396Y0001244060D01*
X0001448463Y0001244135D01*
X0001445419Y0001243535D01*
X0001399258Y0001224496D01*
X0001399258Y0001224496D01*
X0001396675Y0001222776D01*
X0001361314Y0001187521D01*
X0001359586Y0001184944D01*
X0001359586Y0001184944D01*
X0001340407Y0001138841D01*
X0001340407Y0001138840D01*
X0001339796Y0001135798D01*
X0001339722Y0001085865D01*
X0001075669Y0001085865D01*
X0001075669Y0001181889D01*
X0001075669Y0001181889D01*
X0001075063Y0001184933D01*
X0001073340Y0001187513D01*
X0001038300Y0001222552D01*
X0001037006Y0001223417D01*
X0001035731Y0001224271D01*
X0001035720Y0001224276D01*
X0001035720Y0001224276D01*
X0001035720Y0001224276D01*
X0000989628Y0001243450D01*
X0000989628Y0001243450D01*
X0000989628Y0001243450D01*
X0000987195Y0001243938D01*
X0000986585Y0001244060D01*
X0000986585Y0001244060D01*
X0000936652Y0001244135D01*
X0000933608Y0001243535D01*
X0000887447Y0001224496D01*
X0000887447Y0001224496D01*
X0000884863Y0001222776D01*
X0000849503Y0001187521D01*
X0000847775Y0001184944D01*
X0000847775Y0001184944D01*
X0000828596Y0001138841D01*
X0000828596Y0001138840D01*
X0000827986Y0001135798D01*
X0000827911Y0001085865D01*
X0000563858Y0001085865D01*
X0000563858Y0001181889D01*
X0000563858Y0001181889D01*
X0000563252Y0001184933D01*
X0000561528Y0001187513D01*
X0000526489Y0001222552D01*
X0000525195Y0001223417D01*
X0000523920Y0001224271D01*
X0000523908Y0001224276D01*
X0000523908Y0001224276D01*
X0000523908Y0001224276D01*
X0000477817Y0001243450D01*
X0000477817Y0001243450D01*
X0000477817Y0001243450D01*
X0000475384Y0001243938D01*
X0000474774Y0001244060D01*
X0000474774Y0001244060D01*
X0000424841Y0001244135D01*
X0000421796Y0001243535D01*
X0000375636Y0001224496D01*
X0000375636Y0001224496D01*
X0000373053Y0001222776D01*
X0000337692Y0001187521D01*
X0000335964Y0001184944D01*
X0000335964Y0001184944D01*
X0000316785Y0001138841D01*
X0000316785Y0001138840D01*
X0000316175Y0001135798D01*
X0000316099Y0001085865D01*
X0000005393Y0001085865D01*
X0000005393Y0001230314D01*
X0000092047Y0001230314D01*
X0000096548Y0001207685D01*
X0000109367Y0001188501D01*
X0000128551Y0001175682D01*
X0000151181Y0001171181D01*
X0000173810Y0001175682D01*
X0000192995Y0001188501D01*
X0000205813Y0001207685D01*
X0000210314Y0001230314D01*
X0000205813Y0001252944D01*
X0000192995Y0001272128D01*
X0000173810Y0001284947D01*
X0000151181Y0001289448D01*
X0000128551Y0001284947D01*
X0000109367Y0001272128D01*
X0000096548Y0001252944D01*
X0000092047Y0001230314D01*
X0000005393Y0001230314D01*
X0000005393Y0001279389D01*
X0000012542Y0001315331D01*
X0000032599Y0001345351D01*
X0000062618Y0001365409D01*
X0000098562Y0001372559D01*
X0002893169Y0001372559D01*
X0002929111Y0001365409D01*
X0002929111Y0001365409D01*
G37*
X0002929111Y0001365409D02*
X0002959130Y0001345351D01*
X0002979189Y0001315331D01*
X0002986338Y0001279389D01*
X0002986338Y0000098956D01*
X0002979189Y0000063014D01*
X0002959130Y0000032995D01*
X0002929111Y0000012936D01*
X0002893169Y0000005787D01*
X0000098562Y0000005393D01*
X0000062618Y0000012542D01*
X0000032599Y0000032599D01*
X0000012542Y0000062618D01*
X0000005393Y0000098562D01*
X0000005393Y0000145669D01*
X0000091653Y0000145669D01*
X0000096154Y0000123039D01*
X0000108973Y0000103855D01*
X0000128157Y0000091036D01*
X0000150787Y0000086535D01*
X0000173416Y0000091036D01*
X0000192601Y0000103855D01*
X0000205419Y0000123039D01*
X0000209921Y0000145669D01*
X0000209608Y0000147244D01*
X0002771968Y0000147244D01*
X0002776468Y0000124614D01*
X0002789288Y0000105430D01*
X0002808472Y0000092611D01*
X0002831102Y0000088110D01*
X0002853731Y0000092611D01*
X0002872916Y0000105430D01*
X0002885734Y0000124614D01*
X0002890236Y0000147244D01*
X0002885734Y0000169873D01*
X0002872916Y0000189058D01*
X0002853731Y0000201876D01*
X0002831102Y0000206377D01*
X0002808472Y0000201876D01*
X0002789288Y0000189058D01*
X0002776468Y0000169873D01*
X0002771968Y0000147244D01*
X0000209608Y0000147244D01*
X0000205419Y0000168298D01*
X0000192601Y0000187483D01*
X0000173416Y0000200301D01*
X0000150787Y0000204803D01*
X0000128157Y0000200301D01*
X0000108973Y0000187483D01*
X0000096154Y0000168298D01*
X0000091653Y0000145669D01*
X0000005393Y0000145669D01*
X0000005393Y0000534684D01*
X0000316099Y0000534684D01*
X0000316701Y0000531640D01*
X0000316701Y0000531639D01*
X0000335739Y0000485479D01*
X0000335739Y0000485478D01*
X0000335969Y0000485134D01*
X0000337459Y0000482896D01*
X0000337460Y0000482896D01*
X0000372714Y0000447534D01*
X0000372714Y0000447534D01*
X0000373748Y0000446841D01*
X0000375291Y0000445806D01*
X0000375292Y0000445806D01*
X0000421395Y0000426628D01*
X0000421395Y0000426628D01*
X0000424437Y0000426018D01*
X0000474370Y0000425942D01*
X0000477415Y0000426543D01*
X0000477415Y0000426543D01*
X0000523576Y0000445581D01*
X0000523576Y0000445581D01*
X0000525126Y0000446614D01*
X0000526158Y0000447302D01*
X0000526159Y0000447302D01*
X0000561520Y0000482556D01*
X0000561523Y0000482562D01*
X0000561528Y0000482565D01*
X0000562391Y0000483856D01*
X0000563248Y0000485134D01*
X0000563249Y0000485140D01*
X0000563252Y0000485145D01*
X0000563550Y0000486641D01*
X0000563858Y0000488176D01*
X0000563857Y0000488183D01*
X0000563858Y0000488188D01*
X0000563858Y0000534684D01*
X0000827911Y0000534684D01*
X0000828512Y0000531640D01*
X0000828512Y0000531639D01*
X0000847550Y0000485479D01*
X0000847550Y0000485478D01*
X0000847780Y0000485134D01*
X0000849269Y0000482896D01*
X0000849271Y0000482896D01*
X0000884525Y0000447534D01*
X0000884525Y0000447534D01*
X0000885559Y0000446841D01*
X0000887102Y0000445806D01*
X0000887102Y0000445806D01*
X0000933206Y0000426628D01*
X0000933206Y0000426628D01*
X0000936248Y0000426018D01*
X0000986181Y0000425942D01*
X0000989226Y0000426543D01*
X0000989226Y0000426543D01*
X0001035387Y0000445581D01*
X0001035387Y0000445581D01*
X0001036937Y0000446614D01*
X0001037970Y0000447302D01*
X0001037970Y0000447302D01*
X0001073331Y0000482556D01*
X0001073334Y0000482562D01*
X0001073340Y0000482565D01*
X0001074202Y0000483856D01*
X0001075059Y0000485134D01*
X0001075060Y0000485140D01*
X0001075063Y0000485145D01*
X0001075361Y0000486641D01*
X0001075669Y0000488176D01*
X0001075668Y0000488183D01*
X0001075669Y0000488188D01*
X0001075669Y0000534684D01*
X0001339722Y0000534684D01*
X0001340323Y0000531640D01*
X0001340323Y0000531639D01*
X0001359361Y0000485479D01*
X0001359361Y0000485478D01*
X0001359591Y0000485134D01*
X0001361081Y0000482896D01*
X0001361082Y0000482896D01*
X0001396336Y0000447534D01*
X0001396336Y0000447534D01*
X0001397370Y0000446841D01*
X0001398913Y0000445806D01*
X0001398914Y0000445806D01*
X0001445017Y0000426628D01*
X0001445017Y0000426628D01*
X0001448059Y0000426018D01*
X0001497992Y0000425942D01*
X0001501037Y0000426543D01*
X0001501037Y0000426543D01*
X0001547198Y0000445581D01*
X0001547198Y0000445581D01*
X0001548748Y0000446614D01*
X0001549781Y0000447302D01*
X0001549781Y0000447302D01*
X0001585142Y0000482556D01*
X0001585144Y0000482562D01*
X0001585151Y0000482565D01*
X0001586013Y0000483856D01*
X0001586870Y0000485134D01*
X0001586871Y0000485140D01*
X0001586874Y0000485145D01*
X0001587172Y0000486641D01*
X0001587479Y0000488176D01*
X0001587479Y0000488183D01*
X0001587479Y0000488188D01*
X0001587479Y0000534684D01*
X0001890903Y0000534684D01*
X0001891504Y0000531640D01*
X0001891504Y0000531639D01*
X0001910542Y0000485479D01*
X0001910542Y0000485478D01*
X0001910772Y0000485134D01*
X0001912263Y0000482896D01*
X0001912263Y0000482896D01*
X0001947517Y0000447534D01*
X0001947517Y0000447534D01*
X0001948552Y0000446841D01*
X0001950095Y0000445806D01*
X0001950095Y0000445806D01*
X0001996198Y0000426628D01*
X0001996198Y0000426628D01*
X0001999238Y0000426018D01*
X0002049173Y0000425942D01*
X0002052217Y0000426543D01*
X0002052217Y0000426543D01*
X0002098379Y0000445581D01*
X0002098379Y0000445581D01*
X0002099929Y0000446614D01*
X0002100962Y0000447302D01*
X0002100962Y0000447302D01*
X0002136323Y0000482556D01*
X0002136326Y0000482562D01*
X0002136332Y0000482565D01*
X0002137194Y0000483856D01*
X0002138051Y0000485134D01*
X0002138052Y0000485140D01*
X0002138056Y0000485145D01*
X0002138353Y0000486641D01*
X0002138661Y0000488176D01*
X0002138660Y0000488183D01*
X0002138661Y0000488188D01*
X0002138661Y0000534684D01*
X0002402714Y0000534684D01*
X0002403315Y0000531640D01*
X0002403315Y0000531639D01*
X0002422353Y0000485479D01*
X0002422354Y0000485478D01*
X0002422583Y0000485134D01*
X0002424074Y0000482896D01*
X0002424074Y0000482896D01*
X0002459328Y0000447534D01*
X0002459328Y0000447534D01*
X0002460363Y0000446841D01*
X0002461906Y0000445806D01*
X0002461906Y0000445806D01*
X0002508009Y0000426628D01*
X0002508009Y0000426628D01*
X0002511051Y0000426018D01*
X0002560985Y0000425942D01*
X0002564029Y0000426543D01*
X0002564029Y0000426543D01*
X0002610190Y0000445581D01*
X0002610190Y0000445581D01*
X0002611740Y0000446614D01*
X0002612773Y0000447302D01*
X0002612773Y0000447302D01*
X0002648134Y0000482556D01*
X0002648137Y0000482562D01*
X0002648143Y0000482565D01*
X0002649005Y0000483856D01*
X0002649862Y0000485134D01*
X0002649863Y0000485140D01*
X0002649867Y0000485145D01*
X0002650164Y0000486641D01*
X0002650472Y0000488176D01*
X0002650471Y0000488183D01*
X0002650472Y0000488188D01*
X0002650472Y0000630707D01*
X0002650472Y0000630707D01*
X0002649867Y0000633752D01*
X0002648143Y0000636332D01*
X0002613103Y0000671371D01*
X0002611809Y0000672236D01*
X0002610534Y0000673090D01*
X0002610523Y0000673095D01*
X0002610523Y0000673095D01*
X0002610523Y0000673095D01*
X0002564431Y0000692268D01*
X0002564431Y0000692268D01*
X0002564431Y0000692268D01*
X0002561999Y0000692756D01*
X0002561388Y0000692878D01*
X0002561388Y0000692878D01*
X0002511455Y0000692954D01*
X0002508411Y0000692354D01*
X0002462250Y0000673314D01*
X0002462250Y0000673314D01*
X0002459667Y0000671595D01*
X0002424306Y0000636340D01*
X0002422578Y0000633763D01*
X0002422578Y0000633762D01*
X0002403400Y0000587659D01*
X0002403400Y0000587659D01*
X0002402790Y0000584617D01*
X0002402714Y0000534684D01*
X0002138661Y0000534684D01*
X0002138661Y0000630707D01*
X0002138661Y0000630707D01*
X0002138056Y0000633752D01*
X0002136332Y0000636332D01*
X0002101292Y0000671371D01*
X0002099998Y0000672236D01*
X0002098723Y0000673090D01*
X0002098712Y0000673095D01*
X0002098712Y0000673095D01*
X0002098712Y0000673095D01*
X0002052620Y0000692268D01*
X0002052620Y0000692268D01*
X0002052620Y0000692268D01*
X0002050188Y0000692756D01*
X0002049578Y0000692878D01*
X0002049578Y0000692878D01*
X0001999644Y0000692954D01*
X0001996600Y0000692354D01*
X0001950438Y0000673314D01*
X0001950438Y0000673314D01*
X0001947855Y0000671595D01*
X0001912495Y0000636340D01*
X0001910766Y0000633763D01*
X0001910766Y0000633762D01*
X0001891589Y0000587659D01*
X0001891589Y0000587659D01*
X0001890979Y0000584617D01*
X0001890903Y0000534684D01*
X0001587479Y0000534684D01*
X0001587479Y0000630707D01*
X0001587479Y0000630707D01*
X0001586874Y0000633752D01*
X0001585151Y0000636332D01*
X0001550111Y0000671371D01*
X0001548817Y0000672236D01*
X0001547542Y0000673090D01*
X0001547531Y0000673095D01*
X0001547531Y0000673095D01*
X0001547531Y0000673095D01*
X0001501439Y0000692268D01*
X0001501439Y0000692268D01*
X0001501439Y0000692268D01*
X0001499006Y0000692756D01*
X0001498396Y0000692878D01*
X0001498396Y0000692878D01*
X0001448463Y0000692954D01*
X0001445419Y0000692354D01*
X0001399258Y0000673314D01*
X0001399258Y0000673314D01*
X0001396675Y0000671595D01*
X0001361314Y0000636340D01*
X0001359586Y0000633763D01*
X0001359586Y0000633762D01*
X0001340407Y0000587659D01*
X0001340407Y0000587659D01*
X0001339796Y0000584617D01*
X0001339722Y0000534684D01*
X0001075669Y0000534684D01*
X0001075669Y0000630707D01*
X0001075669Y0000630707D01*
X0001075063Y0000633752D01*
X0001073340Y0000636332D01*
X0001038300Y0000671371D01*
X0001037006Y0000672236D01*
X0001035731Y0000673090D01*
X0001035720Y0000673095D01*
X0001035720Y0000673095D01*
X0001035720Y0000673095D01*
X0000989628Y0000692268D01*
X0000989628Y0000692268D01*
X0000989628Y0000692268D01*
X0000987195Y0000692756D01*
X0000986585Y0000692878D01*
X0000986585Y0000692878D01*
X0000936652Y0000692954D01*
X0000933608Y0000692354D01*
X0000887447Y0000673314D01*
X0000887447Y0000673314D01*
X0000884863Y0000671595D01*
X0000849503Y0000636340D01*
X0000847775Y0000633763D01*
X0000847775Y0000633762D01*
X0000828596Y0000587659D01*
X0000828596Y0000587659D01*
X0000827986Y0000584617D01*
X0000827911Y0000534684D01*
X0000563858Y0000534684D01*
X0000563858Y0000630707D01*
X0000563858Y0000630707D01*
X0000563252Y0000633752D01*
X0000561528Y0000636332D01*
X0000526489Y0000671371D01*
X0000525195Y0000672236D01*
X0000523920Y0000673090D01*
X0000523908Y0000673095D01*
X0000523908Y0000673095D01*
X0000523908Y0000673095D01*
X0000477817Y0000692268D01*
X0000477817Y0000692268D01*
X0000477817Y0000692268D01*
X0000475384Y0000692756D01*
X0000474774Y0000692878D01*
X0000474774Y0000692878D01*
X0000424841Y0000692954D01*
X0000421796Y0000692354D01*
X0000375636Y0000673314D01*
X0000375636Y0000673314D01*
X0000373053Y0000671595D01*
X0000337692Y0000636340D01*
X0000335964Y0000633763D01*
X0000335964Y0000633762D01*
X0000316785Y0000587659D01*
X0000316785Y0000587659D01*
X0000316175Y0000584617D01*
X0000316099Y0000534684D01*
X0000005393Y0000534684D01*
X0000005393Y0001085865D01*
X0000316099Y0001085865D01*
X0000316701Y0001082821D01*
X0000316701Y0001082821D01*
X0000335739Y0001036659D01*
X0000335739Y0001036659D01*
X0000335969Y0001036315D01*
X0000337459Y0001034076D01*
X0000337460Y0001034076D01*
X0000372714Y0000998715D01*
X0000372714Y0000998715D01*
X0000373748Y0000998022D01*
X0000375291Y0000996987D01*
X0000375292Y0000996987D01*
X0000421395Y0000977809D01*
X0000421395Y0000977809D01*
X0000424437Y0000977199D01*
X0000474370Y0000977123D01*
X0000477415Y0000977724D01*
X0000477415Y0000977724D01*
X0000523576Y0000996763D01*
X0000523576Y0000996763D01*
X0000525126Y0000997795D01*
X0000526158Y0000998482D01*
X0000526159Y0000998482D01*
X0000561520Y0001033738D01*
X0000561523Y0001033743D01*
X0000561528Y0001033746D01*
X0000562391Y0001035037D01*
X0000563248Y0001036315D01*
X0000563249Y0001036321D01*
X0000563252Y0001036326D01*
X0000563550Y0001037822D01*
X0000563858Y0001039358D01*
X0000563857Y0001039364D01*
X0000563858Y0001039369D01*
X0000563858Y0001085865D01*
X0000827911Y0001085865D01*
X0000828512Y0001082821D01*
X0000828512Y0001082821D01*
X0000847550Y0001036659D01*
X0000847550Y0001036659D01*
X0000847780Y0001036315D01*
X0000849269Y0001034076D01*
X0000849271Y0001034076D01*
X0000884525Y0000998715D01*
X0000884525Y0000998715D01*
X0000885559Y0000998022D01*
X0000887102Y0000996987D01*
X0000887102Y0000996987D01*
X0000933206Y0000977809D01*
X0000933206Y0000977809D01*
X0000936248Y0000977199D01*
X0000986181Y0000977123D01*
X0000989226Y0000977724D01*
X0000989226Y0000977724D01*
X0001035387Y0000996763D01*
X0001035387Y0000996763D01*
X0001036937Y0000997795D01*
X0001037970Y0000998482D01*
X0001037970Y0000998482D01*
X0001073331Y0001033738D01*
X0001073334Y0001033743D01*
X0001073340Y0001033746D01*
X0001074202Y0001035037D01*
X0001075059Y0001036315D01*
X0001075060Y0001036321D01*
X0001075063Y0001036326D01*
X0001075361Y0001037822D01*
X0001075669Y0001039358D01*
X0001075668Y0001039364D01*
X0001075669Y0001039369D01*
X0001075669Y0001085865D01*
X0001339722Y0001085865D01*
X0001340323Y0001082821D01*
X0001340323Y0001082821D01*
X0001359361Y0001036659D01*
X0001359361Y0001036659D01*
X0001359591Y0001036315D01*
X0001361081Y0001034076D01*
X0001361082Y0001034076D01*
X0001396336Y0000998715D01*
X0001396336Y0000998715D01*
X0001397370Y0000998022D01*
X0001398913Y0000996987D01*
X0001398914Y0000996987D01*
X0001445017Y0000977809D01*
X0001445017Y0000977809D01*
X0001448059Y0000977199D01*
X0001497992Y0000977123D01*
X0001501037Y0000977724D01*
X0001501037Y0000977724D01*
X0001547198Y0000996763D01*
X0001547198Y0000996763D01*
X0001548748Y0000997795D01*
X0001549781Y0000998482D01*
X0001549781Y0000998482D01*
X0001585142Y0001033738D01*
X0001585144Y0001033743D01*
X0001585151Y0001033746D01*
X0001586013Y0001035037D01*
X0001586870Y0001036315D01*
X0001586871Y0001036321D01*
X0001586874Y0001036326D01*
X0001587172Y0001037822D01*
X0001587479Y0001039358D01*
X0001587479Y0001039364D01*
X0001587479Y0001039369D01*
X0001587479Y0001085865D01*
X0001890903Y0001085865D01*
X0001891504Y0001082821D01*
X0001891504Y0001082821D01*
X0001910542Y0001036659D01*
X0001910542Y0001036659D01*
X0001910772Y0001036315D01*
X0001912263Y0001034076D01*
X0001912263Y0001034076D01*
X0001947517Y0000998715D01*
X0001947517Y0000998715D01*
X0001948552Y0000998022D01*
X0001950095Y0000996987D01*
X0001950095Y0000996987D01*
X0001996198Y0000977809D01*
X0001996198Y0000977809D01*
X0001999238Y0000977199D01*
X0002049173Y0000977123D01*
X0002052217Y0000977724D01*
X0002052217Y0000977724D01*
X0002098379Y0000996763D01*
X0002098379Y0000996763D01*
X0002099929Y0000997795D01*
X0002100962Y0000998482D01*
X0002100962Y0000998482D01*
X0002136323Y0001033738D01*
X0002136326Y0001033743D01*
X0002136332Y0001033746D01*
X0002137194Y0001035037D01*
X0002138051Y0001036315D01*
X0002138052Y0001036321D01*
X0002138056Y0001036326D01*
X0002138353Y0001037822D01*
X0002138661Y0001039358D01*
X0002138660Y0001039364D01*
X0002138661Y0001039369D01*
X0002138661Y0001085865D01*
X0002402714Y0001085865D01*
X0002403315Y0001082821D01*
X0002403315Y0001082821D01*
X0002422353Y0001036659D01*
X0002422354Y0001036659D01*
X0002422583Y0001036315D01*
X0002424074Y0001034076D01*
X0002424074Y0001034076D01*
X0002459328Y0000998715D01*
X0002459328Y0000998715D01*
X0002460363Y0000998022D01*
X0002461906Y0000996987D01*
X0002461906Y0000996987D01*
X0002508009Y0000977809D01*
X0002508009Y0000977809D01*
X0002511051Y0000977199D01*
X0002560985Y0000977123D01*
X0002564029Y0000977724D01*
X0002564029Y0000977724D01*
X0002610190Y0000996763D01*
X0002610190Y0000996763D01*
X0002611740Y0000997795D01*
X0002612773Y0000998482D01*
X0002612773Y0000998482D01*
X0002648134Y0001033738D01*
X0002648137Y0001033743D01*
X0002648143Y0001033746D01*
X0002649005Y0001035037D01*
X0002649862Y0001036315D01*
X0002649863Y0001036321D01*
X0002649867Y0001036326D01*
X0002650164Y0001037822D01*
X0002650472Y0001039358D01*
X0002650471Y0001039364D01*
X0002650472Y0001039369D01*
X0002650472Y0001181889D01*
X0002650472Y0001181889D01*
X0002649867Y0001184933D01*
X0002648143Y0001187513D01*
X0002613103Y0001222552D01*
X0002611809Y0001223417D01*
X0002610534Y0001224271D01*
X0002610523Y0001224276D01*
X0002610523Y0001224276D01*
X0002610523Y0001224276D01*
X0002593167Y0001231496D01*
X0002773543Y0001231496D01*
X0002778044Y0001208866D01*
X0002790863Y0001189682D01*
X0002810047Y0001176863D01*
X0002832677Y0001172362D01*
X0002855306Y0001176863D01*
X0002874491Y0001189682D01*
X0002887309Y0001208866D01*
X0002891811Y0001231496D01*
X0002887309Y0001254125D01*
X0002874491Y0001273310D01*
X0002855306Y0001286128D01*
X0002832677Y0001290629D01*
X0002810047Y0001286128D01*
X0002790863Y0001273310D01*
X0002778044Y0001254125D01*
X0002773543Y0001231496D01*
X0002593167Y0001231496D01*
X0002564431Y0001243450D01*
X0002564431Y0001243450D01*
X0002564431Y0001243450D01*
X0002561999Y0001243938D01*
X0002561388Y0001244060D01*
X0002561388Y0001244060D01*
X0002511455Y0001244135D01*
X0002508411Y0001243535D01*
X0002462250Y0001224496D01*
X0002462250Y0001224496D01*
X0002459667Y0001222776D01*
X0002424306Y0001187521D01*
X0002422578Y0001184944D01*
X0002422578Y0001184944D01*
X0002403400Y0001138841D01*
X0002403400Y0001138840D01*
X0002402790Y0001135798D01*
X0002402714Y0001085865D01*
X0002138661Y0001085865D01*
X0002138661Y0001181889D01*
X0002138661Y0001181889D01*
X0002138056Y0001184933D01*
X0002136332Y0001187513D01*
X0002101292Y0001222552D01*
X0002099998Y0001223417D01*
X0002098723Y0001224271D01*
X0002098712Y0001224276D01*
X0002098712Y0001224276D01*
X0002098712Y0001224276D01*
X0002052620Y0001243450D01*
X0002052620Y0001243450D01*
X0002052620Y0001243450D01*
X0002050188Y0001243938D01*
X0002049578Y0001244060D01*
X0002049578Y0001244060D01*
X0001999644Y0001244135D01*
X0001996600Y0001243535D01*
X0001950438Y0001224496D01*
X0001950438Y0001224496D01*
X0001947855Y0001222776D01*
X0001912495Y0001187521D01*
X0001910766Y0001184944D01*
X0001910766Y0001184944D01*
X0001891589Y0001138841D01*
X0001891589Y0001138840D01*
X0001890979Y0001135798D01*
X0001890903Y0001085865D01*
X0001587479Y0001085865D01*
X0001587479Y0001181889D01*
X0001587479Y0001181889D01*
X0001586874Y0001184933D01*
X0001585151Y0001187513D01*
X0001550111Y0001222552D01*
X0001548817Y0001223417D01*
X0001547542Y0001224271D01*
X0001547531Y0001224276D01*
X0001547531Y0001224276D01*
X0001547531Y0001224276D01*
X0001501439Y0001243450D01*
X0001501439Y0001243450D01*
X0001501439Y0001243450D01*
X0001499006Y0001243938D01*
X0001498396Y0001244060D01*
X0001498396Y0001244060D01*
X0001448463Y0001244135D01*
X0001445419Y0001243535D01*
X0001399258Y0001224496D01*
X0001399258Y0001224496D01*
X0001396675Y0001222776D01*
X0001361314Y0001187521D01*
X0001359586Y0001184944D01*
X0001359586Y0001184944D01*
X0001340407Y0001138841D01*
X0001340407Y0001138840D01*
X0001339796Y0001135798D01*
X0001339722Y0001085865D01*
X0001075669Y0001085865D01*
X0001075669Y0001181889D01*
X0001075669Y0001181889D01*
X0001075063Y0001184933D01*
X0001073340Y0001187513D01*
X0001038300Y0001222552D01*
X0001037006Y0001223417D01*
X0001035731Y0001224271D01*
X0001035720Y0001224276D01*
X0001035720Y0001224276D01*
X0001035720Y0001224276D01*
X0000989628Y0001243450D01*
X0000989628Y0001243450D01*
X0000989628Y0001243450D01*
X0000987195Y0001243938D01*
X0000986585Y0001244060D01*
X0000986585Y0001244060D01*
X0000936652Y0001244135D01*
X0000933608Y0001243535D01*
X0000887447Y0001224496D01*
X0000887447Y0001224496D01*
X0000884863Y0001222776D01*
X0000849503Y0001187521D01*
X0000847775Y0001184944D01*
X0000847775Y0001184944D01*
X0000828596Y0001138841D01*
X0000828596Y0001138840D01*
X0000827986Y0001135798D01*
X0000827911Y0001085865D01*
X0000563858Y0001085865D01*
X0000563858Y0001181889D01*
X0000563858Y0001181889D01*
X0000563252Y0001184933D01*
X0000561528Y0001187513D01*
X0000526489Y0001222552D01*
X0000525195Y0001223417D01*
X0000523920Y0001224271D01*
X0000523908Y0001224276D01*
X0000523908Y0001224276D01*
X0000523908Y0001224276D01*
X0000477817Y0001243450D01*
X0000477817Y0001243450D01*
X0000477817Y0001243450D01*
X0000475384Y0001243938D01*
X0000474774Y0001244060D01*
X0000474774Y0001244060D01*
X0000424841Y0001244135D01*
X0000421796Y0001243535D01*
X0000375636Y0001224496D01*
X0000375636Y0001224496D01*
X0000373053Y0001222776D01*
X0000337692Y0001187521D01*
X0000335964Y0001184944D01*
X0000335964Y0001184944D01*
X0000316785Y0001138841D01*
X0000316785Y0001138840D01*
X0000316175Y0001135798D01*
X0000316099Y0001085865D01*
X0000005393Y0001085865D01*
X0000005393Y0001230314D01*
X0000092047Y0001230314D01*
X0000096548Y0001207685D01*
X0000109367Y0001188501D01*
X0000128551Y0001175682D01*
X0000151181Y0001171181D01*
X0000173810Y0001175682D01*
X0000192995Y0001188501D01*
X0000205813Y0001207685D01*
X0000210314Y0001230314D01*
X0000205813Y0001252944D01*
X0000192995Y0001272128D01*
X0000173810Y0001284947D01*
X0000151181Y0001289448D01*
X0000128551Y0001284947D01*
X0000109367Y0001272128D01*
X0000096548Y0001252944D01*
X0000092047Y0001230314D01*
X0000005393Y0001230314D01*
X0000005393Y0001279389D01*
X0000012542Y0001315331D01*
X0000032599Y0001345351D01*
X0000062618Y0001365409D01*
X0000098562Y0001372559D01*
X0002893169Y0001372559D01*
X0002929111Y0001365409D01*
G01G01G01G01G01G01G01G01*
D23*
D24*
X-0000078740Y0002874015D02*
X0002361614Y0002387960D03*
X0002381921Y0002463747D03*
X0002437401Y0002519228D03*
X0002513188Y0002539535D03*
X0002588976Y0002519228D03*
X0002644456Y0002463747D03*
X0002664763Y0002387960D03*
X0002644456Y0002312173D03*
X0002588976Y0002256692D03*
X0002513188Y0002236385D03*
X0002437401Y0002256692D03*
X0002381921Y0002312173D03*
D25*
G36*
X0002904701Y0002828401D02*
X0002934721Y0002808343D01*
X0002954779Y0002778323D01*
X0002961929Y0002742382D01*
X0002961929Y0001561948D01*
X0002954779Y0001526006D01*
X0002934721Y0001495987D01*
X0002904701Y0001475928D01*
X0002868759Y0001468779D01*
X0000074152Y0001468385D01*
X0000038211Y0001475535D01*
X0000008191Y0001495593D01*
X-0000011865Y0001525613D01*
X-0000019015Y0001561554D01*
X-0000019015Y0001608661D01*
X0000067244Y0001608661D01*
X0000071745Y0001586031D01*
X0000084564Y0001566847D01*
X0000103748Y0001554028D01*
X0000126375Y0001549527D01*
X0000149007Y0001554028D01*
X0000168191Y0001566847D01*
X0000181009Y0001586031D01*
X0000185511Y0001608661D01*
X0000181009Y0001631290D01*
X0000168191Y0001650475D01*
X0000149007Y0001663293D01*
X0000126375Y0001667795D01*
X0000103748Y0001663293D01*
X0000084564Y0001650475D01*
X0000071745Y0001631290D01*
X0000067244Y0001608661D01*
X-0000019015Y0001608661D01*
X-0000019015Y0002011810D01*
X0000634763Y0002011810D01*
X0000634763Y0001742124D01*
X0000634897Y0001741452D01*
X0000634897Y0001740766D01*
X0000636396Y0001733233D01*
X0000636396Y0001733233D01*
X0000637436Y0001730721D01*
X0000641703Y0001724335D01*
X0000643626Y0001722412D01*
X0000650012Y0001718144D01*
X0000650012Y0001718144D01*
X0000651484Y0001717535D01*
X0000652524Y0001717104D01*
X0000652524Y0001717104D01*
X0000660057Y0001715606D01*
X0000660744Y0001715606D01*
X0000661417Y0001715472D01*
X0000840551Y0001715472D01*
X0000841223Y0001715606D01*
X0000841910Y0001715606D01*
X0000849443Y0001717104D01*
X0000849443Y0001717104D01*
X0000851955Y0001718144D01*
X0000858341Y0001722412D01*
X0000860263Y0001724335D01*
X0000864531Y0001730721D01*
X0000864531Y0001730721D01*
X0000865571Y0001733233D01*
X0000867070Y0001740766D01*
X0000867070Y0001741452D01*
X0000867204Y0001742124D01*
X0000867204Y0001935039D01*
X0001182007Y0001935039D01*
X0001182007Y0001809054D01*
X0001182141Y0001808381D01*
X0001182141Y0001807695D01*
X0001183640Y0001800161D01*
X0001183640Y0001800161D01*
X0001184680Y0001797650D01*
X0001188947Y0001791264D01*
X0001190870Y0001789341D01*
X0001197256Y0001785074D01*
X0001197256Y0001785074D01*
X0001198728Y0001784464D01*
X0001199768Y0001784033D01*
X0001199768Y0001784033D01*
X0001207301Y0001782535D01*
X0001207988Y0001782535D01*
X0001208661Y0001782401D01*
X0001219409Y0001782401D01*
X0001219409Y0001624015D01*
X0001219543Y0001623342D01*
X0001219543Y0001622656D01*
X0001221041Y0001615123D01*
X0001221041Y0001615123D01*
X0001222082Y0001612611D01*
X0001226349Y0001606223D01*
X0001228272Y0001604302D01*
X0001234658Y0001600035D01*
X0001234658Y0001600035D01*
X0001236129Y0001599425D01*
X0001237170Y0001598994D01*
X0001237170Y0001598994D01*
X0001244703Y0001597495D01*
X0001245389Y0001597495D01*
X0001246062Y0001597362D01*
X0001700787Y0001597362D01*
X0001701460Y0001597495D01*
X0001702146Y0001597495D01*
X0001709680Y0001598994D01*
X0001709680Y0001598994D01*
X0001712192Y0001600035D01*
X0001718578Y0001604302D01*
X0001720500Y0001606223D01*
X0001723181Y0001610236D01*
X0002747559Y0001610236D01*
X0002752060Y0001587606D01*
X0002764878Y0001568422D01*
X0002784063Y0001555603D01*
X0002806692Y0001551102D01*
X0002829322Y0001555603D01*
X0002848506Y0001568422D01*
X0002861324Y0001587606D01*
X0002865826Y0001610236D01*
X0002861324Y0001632865D01*
X0002848506Y0001652050D01*
X0002829322Y0001664866D01*
X0002806692Y0001669370D01*
X0002784063Y0001664866D01*
X0002764878Y0001652050D01*
X0002752060Y0001632865D01*
X0002747559Y0001610236D01*
X0001723181Y0001610236D01*
X0001724768Y0001612611D01*
X0001724768Y0001612611D01*
X0001725808Y0001615123D01*
X0001727307Y0001622656D01*
X0001727307Y0001623342D01*
X0001727440Y0001624015D01*
X0001727440Y0001782401D01*
X0001732283Y0001782401D01*
X0001732955Y0001782535D01*
X0001733642Y0001782535D01*
X0001741176Y0001784033D01*
X0001741176Y0001784033D01*
X0001743688Y0001785074D01*
X0001750074Y0001789341D01*
X0001751997Y0001791264D01*
X0001756264Y0001797650D01*
X0001756264Y0001797650D01*
X0001757304Y0001800161D01*
X0001758802Y0001807695D01*
X0001758802Y0001808381D01*
X0001758937Y0001809054D01*
X0001758937Y0001935039D01*
X0001758802Y0001935712D01*
X0001758802Y0001936398D01*
X0001757304Y0001943932D01*
X0001756264Y0001946443D01*
X0001756264Y0001946443D01*
X0001751996Y0001952830D01*
X0001750074Y0001954752D01*
X0001743688Y0001959020D01*
X0001741176Y0001960060D01*
X0001741176Y0001960060D01*
X0001733642Y0001961559D01*
X0001732955Y0001961559D01*
X0001732283Y0001961692D01*
X0001208661Y0001961692D01*
X0001207988Y0001961559D01*
X0001207301Y0001961559D01*
X0001199768Y0001960060D01*
X0001199768Y0001960060D01*
X0001198782Y0001959651D01*
X0001197256Y0001959020D01*
X0001197256Y0001959020D01*
X0001190870Y0001954752D01*
X0001188947Y0001952830D01*
X0001184680Y0001946443D01*
X0001184680Y0001946443D01*
X0001183640Y0001943932D01*
X0001182141Y0001936398D01*
X0001182141Y0001935712D01*
X0001182007Y0001935039D01*
X0000867204Y0001935039D01*
X0000867204Y0002011810D01*
X0000867070Y0002012484D01*
X0000867070Y0002013170D01*
X0000865571Y0002020703D01*
X0000864531Y0002023215D01*
X0000864531Y0002023215D01*
X0000860263Y0002029601D01*
X0000858341Y0002031524D01*
X0000851955Y0002035791D01*
X0000849443Y0002036832D01*
X0000849443Y0002036832D01*
X0000841910Y0002038330D01*
X0000841223Y0002038330D01*
X0000840551Y0002038463D01*
X0000661417Y0002038463D01*
X0000660744Y0002038330D01*
X0000660057Y0002038330D01*
X0000652524Y0002036832D01*
X0000652524Y0002036832D01*
X0000651537Y0002036423D01*
X0000650012Y0002035791D01*
X0000650012Y0002035791D01*
X0000643626Y0002031524D01*
X0000641703Y0002029601D01*
X0000637436Y0002023215D01*
X0000637436Y0002023215D01*
X0000636396Y0002020703D01*
X0000634897Y0002013170D01*
X0000634897Y0002012484D01*
X0000634763Y0002011810D01*
X-0000019015Y0002011810D01*
X-0000019015Y0002363196D01*
X0002379682Y0002363196D01*
X0002380283Y0002360151D01*
X0002380283Y0002360151D01*
X0002399322Y0002313990D01*
X0002399322Y0002313990D01*
X0002399551Y0002313646D01*
X0002401042Y0002311407D01*
X0002401042Y0002311407D01*
X0002436297Y0002276046D01*
X0002436297Y0002276046D01*
X0002437331Y0002275352D01*
X0002438874Y0002274318D01*
X0002438874Y0002274318D01*
X0002484977Y0002255140D01*
X0002484977Y0002255140D01*
X0002488020Y0002254530D01*
X0002537953Y0002254454D01*
X0002540997Y0002255055D01*
X0002540997Y0002255055D01*
X0002587158Y0002274094D01*
X0002587158Y0002274094D01*
X0002588708Y0002275126D01*
X0002589741Y0002275814D01*
X0002589741Y0002275814D01*
X0002625103Y0002311068D01*
X0002625106Y0002311073D01*
X0002625111Y0002311077D01*
X0002625974Y0002312368D01*
X0002626830Y0002313646D01*
X0002626832Y0002313652D01*
X0002626835Y0002313657D01*
X0002627133Y0002315153D01*
X0002627440Y0002316688D01*
X0002627438Y0002316694D01*
X0002627440Y0002316700D01*
X0002627440Y0002459220D01*
X0002627440Y0002459220D01*
X0002626835Y0002462263D01*
X0002625111Y0002464843D01*
X0002590072Y0002499883D01*
X0002588777Y0002500748D01*
X0002587503Y0002501602D01*
X0002587492Y0002501607D01*
X0002587492Y0002501607D01*
X0002587492Y0002501607D01*
X0002541400Y0002520780D01*
X0002541400Y0002520780D01*
X0002541400Y0002520780D01*
X0002538967Y0002521268D01*
X0002538357Y0002521390D01*
X0002538357Y0002521390D01*
X0002488424Y0002521466D01*
X0002485380Y0002520865D01*
X0002439219Y0002501827D01*
X0002439218Y0002501827D01*
X0002436636Y0002500106D01*
X0002401274Y0002464852D01*
X0002399546Y0002462274D01*
X0002399546Y0002462274D01*
X0002380368Y0002416171D01*
X0002380368Y0002416171D01*
X0002379758Y0002413129D01*
X0002379682Y0002363196D01*
X-0000019015Y0002363196D01*
X-0000019015Y0002693307D01*
X0000067637Y0002693307D01*
X0000072139Y0002670677D01*
X0000084956Y0002651493D01*
X0000104142Y0002638673D01*
X0000126771Y0002634173D01*
X0000149401Y0002638673D01*
X0000168585Y0002651493D01*
X0000181404Y0002670677D01*
X0000185905Y0002693307D01*
X0000185670Y0002694488D01*
X0002749133Y0002694488D01*
X0002753635Y0002671858D01*
X0002766453Y0002652674D01*
X0002785637Y0002639855D01*
X0002808267Y0002635353D01*
X0002830897Y0002639855D01*
X0002850081Y0002652674D01*
X0002862900Y0002671858D01*
X0002867401Y0002694488D01*
X0002862900Y0002717117D01*
X0002850081Y0002736301D01*
X0002830897Y0002749120D01*
X0002808267Y0002753622D01*
X0002785637Y0002749120D01*
X0002766453Y0002736301D01*
X0002753635Y0002717117D01*
X0002749133Y0002694488D01*
X0000185670Y0002694488D01*
X0000181404Y0002715936D01*
X0000168585Y0002735121D01*
X0000149401Y0002747939D01*
X0000126771Y0002752440D01*
X0000104142Y0002747939D01*
X0000084956Y0002735121D01*
X0000072139Y0002715936D01*
X0000067637Y0002693307D01*
X-0000019015Y0002693307D01*
X-0000019015Y0002742382D01*
X-0000011865Y0002778323D01*
X0000008191Y0002808343D01*
X0000038211Y0002828401D01*
X0000074153Y0002835551D01*
X0002868760Y0002835551D01*
X0002904701Y0002828401D01*
X0002904701Y0002828401D01*
G37*
X0002904701Y0002828401D02*
X0002934721Y0002808343D01*
X0002954779Y0002778323D01*
X0002961929Y0002742382D01*
X0002961929Y0001561948D01*
X0002954779Y0001526006D01*
X0002934721Y0001495987D01*
X0002904701Y0001475928D01*
X0002868759Y0001468779D01*
X0000074152Y0001468385D01*
X0000038211Y0001475535D01*
X0000008191Y0001495593D01*
X-0000011865Y0001525613D01*
X-0000019015Y0001561554D01*
X-0000019015Y0001608661D01*
X0000067244Y0001608661D01*
X0000071745Y0001586031D01*
X0000084564Y0001566847D01*
X0000103748Y0001554028D01*
X0000126375Y0001549527D01*
X0000149007Y0001554028D01*
X0000168191Y0001566847D01*
X0000181009Y0001586031D01*
X0000185511Y0001608661D01*
X0000181009Y0001631290D01*
X0000168191Y0001650475D01*
X0000149007Y0001663293D01*
X0000126375Y0001667795D01*
X0000103748Y0001663293D01*
X0000084564Y0001650475D01*
X0000071745Y0001631290D01*
X0000067244Y0001608661D01*
X-0000019015Y0001608661D01*
X-0000019015Y0002011810D01*
X0000634763Y0002011810D01*
X0000634763Y0001742124D01*
X0000634897Y0001741452D01*
X0000634897Y0001740766D01*
X0000636396Y0001733233D01*
X0000636396Y0001733233D01*
X0000637436Y0001730721D01*
X0000641703Y0001724335D01*
X0000643626Y0001722412D01*
X0000650012Y0001718144D01*
X0000650012Y0001718144D01*
X0000651484Y0001717535D01*
X0000652524Y0001717104D01*
X0000652524Y0001717104D01*
X0000660057Y0001715606D01*
X0000660744Y0001715606D01*
X0000661417Y0001715472D01*
X0000840551Y0001715472D01*
X0000841223Y0001715606D01*
X0000841910Y0001715606D01*
X0000849443Y0001717104D01*
X0000849443Y0001717104D01*
X0000851955Y0001718144D01*
X0000858341Y0001722412D01*
X0000860263Y0001724335D01*
X0000864531Y0001730721D01*
X0000864531Y0001730721D01*
X0000865571Y0001733233D01*
X0000867070Y0001740766D01*
X0000867070Y0001741452D01*
X0000867204Y0001742124D01*
X0000867204Y0001935039D01*
X0001182007Y0001935039D01*
X0001182007Y0001809054D01*
X0001182141Y0001808381D01*
X0001182141Y0001807695D01*
X0001183640Y0001800161D01*
X0001183640Y0001800161D01*
X0001184680Y0001797650D01*
X0001188947Y0001791264D01*
X0001190870Y0001789341D01*
X0001197256Y0001785074D01*
X0001197256Y0001785074D01*
X0001198728Y0001784464D01*
X0001199768Y0001784033D01*
X0001199768Y0001784033D01*
X0001207301Y0001782535D01*
X0001207988Y0001782535D01*
X0001208661Y0001782401D01*
X0001219409Y0001782401D01*
X0001219409Y0001624015D01*
X0001219543Y0001623342D01*
X0001219543Y0001622656D01*
X0001221041Y0001615123D01*
X0001221041Y0001615123D01*
X0001222082Y0001612611D01*
X0001226349Y0001606223D01*
X0001228272Y0001604302D01*
X0001234658Y0001600035D01*
X0001234658Y0001600035D01*
X0001236129Y0001599425D01*
X0001237170Y0001598994D01*
X0001237170Y0001598994D01*
X0001244703Y0001597495D01*
X0001245389Y0001597495D01*
X0001246062Y0001597362D01*
X0001700787Y0001597362D01*
X0001701460Y0001597495D01*
X0001702146Y0001597495D01*
X0001709680Y0001598994D01*
X0001709680Y0001598994D01*
X0001712192Y0001600035D01*
X0001718578Y0001604302D01*
X0001720500Y0001606223D01*
X0001723181Y0001610236D01*
X0002747559Y0001610236D01*
X0002752060Y0001587606D01*
X0002764878Y0001568422D01*
X0002784063Y0001555603D01*
X0002806692Y0001551102D01*
X0002829322Y0001555603D01*
X0002848506Y0001568422D01*
X0002861324Y0001587606D01*
X0002865826Y0001610236D01*
X0002861324Y0001632865D01*
X0002848506Y0001652050D01*
X0002829322Y0001664866D01*
X0002806692Y0001669370D01*
X0002784063Y0001664866D01*
X0002764878Y0001652050D01*
X0002752060Y0001632865D01*
X0002747559Y0001610236D01*
X0001723181Y0001610236D01*
X0001724768Y0001612611D01*
X0001724768Y0001612611D01*
X0001725808Y0001615123D01*
X0001727307Y0001622656D01*
X0001727307Y0001623342D01*
X0001727440Y0001624015D01*
X0001727440Y0001782401D01*
X0001732283Y0001782401D01*
X0001732955Y0001782535D01*
X0001733642Y0001782535D01*
X0001741176Y0001784033D01*
X0001741176Y0001784033D01*
X0001743688Y0001785074D01*
X0001750074Y0001789341D01*
X0001751997Y0001791264D01*
X0001756264Y0001797650D01*
X0001756264Y0001797650D01*
X0001757304Y0001800161D01*
X0001758802Y0001807695D01*
X0001758802Y0001808381D01*
X0001758937Y0001809054D01*
X0001758937Y0001935039D01*
X0001758802Y0001935712D01*
X0001758802Y0001936398D01*
X0001757304Y0001943932D01*
X0001756264Y0001946443D01*
X0001756264Y0001946443D01*
X0001751996Y0001952830D01*
X0001750074Y0001954752D01*
X0001743688Y0001959020D01*
X0001741176Y0001960060D01*
X0001741176Y0001960060D01*
X0001733642Y0001961559D01*
X0001732955Y0001961559D01*
X0001732283Y0001961692D01*
X0001208661Y0001961692D01*
X0001207988Y0001961559D01*
X0001207301Y0001961559D01*
X0001199768Y0001960060D01*
X0001199768Y0001960060D01*
X0001198782Y0001959651D01*
X0001197256Y0001959020D01*
X0001197256Y0001959020D01*
X0001190870Y0001954752D01*
X0001188947Y0001952830D01*
X0001184680Y0001946443D01*
X0001184680Y0001946443D01*
X0001183640Y0001943932D01*
X0001182141Y0001936398D01*
X0001182141Y0001935712D01*
X0001182007Y0001935039D01*
X0000867204Y0001935039D01*
X0000867204Y0002011810D01*
X0000867070Y0002012484D01*
X0000867070Y0002013170D01*
X0000865571Y0002020703D01*
X0000864531Y0002023215D01*
X0000864531Y0002023215D01*
X0000860263Y0002029601D01*
X0000858341Y0002031524D01*
X0000851955Y0002035791D01*
X0000849443Y0002036832D01*
X0000849443Y0002036832D01*
X0000841910Y0002038330D01*
X0000841223Y0002038330D01*
X0000840551Y0002038463D01*
X0000661417Y0002038463D01*
X0000660744Y0002038330D01*
X0000660057Y0002038330D01*
X0000652524Y0002036832D01*
X0000652524Y0002036832D01*
X0000651537Y0002036423D01*
X0000650012Y0002035791D01*
X0000650012Y0002035791D01*
X0000643626Y0002031524D01*
X0000641703Y0002029601D01*
X0000637436Y0002023215D01*
X0000637436Y0002023215D01*
X0000636396Y0002020703D01*
X0000634897Y0002013170D01*
X0000634897Y0002012484D01*
X0000634763Y0002011810D01*
X-0000019015Y0002011810D01*
X-0000019015Y0002363196D01*
X0002379682Y0002363196D01*
X0002380283Y0002360151D01*
X0002380283Y0002360151D01*
X0002399322Y0002313990D01*
X0002399322Y0002313990D01*
X0002399551Y0002313646D01*
X0002401042Y0002311407D01*
X0002401042Y0002311407D01*
X0002436297Y0002276046D01*
X0002436297Y0002276046D01*
X0002437331Y0002275352D01*
X0002438874Y0002274318D01*
X0002438874Y0002274318D01*
X0002484977Y0002255140D01*
X0002484977Y0002255140D01*
X0002488020Y0002254530D01*
X0002537953Y0002254454D01*
X0002540997Y0002255055D01*
X0002540997Y0002255055D01*
X0002587158Y0002274094D01*
X0002587158Y0002274094D01*
X0002588708Y0002275126D01*
X0002589741Y0002275814D01*
X0002589741Y0002275814D01*
X0002625103Y0002311068D01*
X0002625106Y0002311073D01*
X0002625111Y0002311077D01*
X0002625974Y0002312368D01*
X0002626830Y0002313646D01*
X0002626832Y0002313652D01*
X0002626835Y0002313657D01*
X0002627133Y0002315153D01*
X0002627440Y0002316688D01*
X0002627438Y0002316694D01*
X0002627440Y0002316700D01*
X0002627440Y0002459220D01*
X0002627440Y0002459220D01*
X0002626835Y0002462263D01*
X0002625111Y0002464843D01*
X0002590072Y0002499883D01*
X0002588777Y0002500748D01*
X0002587503Y0002501602D01*
X0002587492Y0002501607D01*
X0002587492Y0002501607D01*
X0002587492Y0002501607D01*
X0002541400Y0002520780D01*
X0002541400Y0002520780D01*
X0002541400Y0002520780D01*
X0002538967Y0002521268D01*
X0002538357Y0002521390D01*
X0002538357Y0002521390D01*
X0002488424Y0002521466D01*
X0002485380Y0002520865D01*
X0002439219Y0002501827D01*
X0002439218Y0002501827D01*
X0002436636Y0002500106D01*
X0002401274Y0002464852D01*
X0002399546Y0002462274D01*
X0002399546Y0002462274D01*
X0002380368Y0002416171D01*
X0002380368Y0002416171D01*
X0002379758Y0002413129D01*
X0002379682Y0002363196D01*
X-0000019015Y0002363196D01*
X-0000019015Y0002693307D01*
X0000067637Y0002693307D01*
X0000072139Y0002670677D01*
X0000084956Y0002651493D01*
X0000104142Y0002638673D01*
X0000126771Y0002634173D01*
X0000149401Y0002638673D01*
X0000168585Y0002651493D01*
X0000181404Y0002670677D01*
X0000185905Y0002693307D01*
X0000185670Y0002694488D01*
X0002749133Y0002694488D01*
X0002753635Y0002671858D01*
X0002766453Y0002652674D01*
X0002785637Y0002639855D01*
X0002808267Y0002635353D01*
X0002830897Y0002639855D01*
X0002850081Y0002652674D01*
X0002862900Y0002671858D01*
X0002867401Y0002694488D01*
X0002862900Y0002717117D01*
X0002850081Y0002736301D01*
X0002830897Y0002749120D01*
X0002808267Y0002753622D01*
X0002785637Y0002749120D01*
X0002766453Y0002736301D01*
X0002753635Y0002717117D01*
X0002749133Y0002694488D01*
X0000185670Y0002694488D01*
X0000181404Y0002715936D01*
X0000168585Y0002735121D01*
X0000149401Y0002747939D01*
X0000126771Y0002752440D01*
X0000104142Y0002747939D01*
X0000084956Y0002735121D01*
X0000072139Y0002715936D01*
X0000067637Y0002693307D01*
X-0000019015Y0002693307D01*
X-0000019015Y0002742382D01*
X-0000011865Y0002778323D01*
X0000008191Y0002808343D01*
X0000038211Y0002828401D01*
X0000074153Y0002835551D01*
X0002868760Y0002835551D01*
X0002904701Y0002828401D01*
G01G01G01G01G01G01G01G01*
D36*
D37*
X0000118110Y0003228346D02*
X0000480708Y0003083464D03*
D38*
G36*
X0000323943Y0003207712D02*
X0000337441Y0003199845D01*
X0000337463Y0003199838D01*
X0000337481Y0003199822D01*
X0000351521Y0003191799D01*
X0000352349Y0003191523D01*
X0000353156Y0003191190D01*
X0000377305Y0003186440D01*
X0000377831Y0003186441D01*
X0000378346Y0003186338D01*
X0000480177Y0003186338D01*
X0000520016Y0003178413D01*
X0000553342Y0003156146D01*
X0000575609Y0003122822D01*
X0000583428Y0003083512D01*
X0000575609Y0003044203D01*
X0000553342Y0003010878D01*
X0000520016Y0002988611D01*
X0000480420Y0002980735D01*
X0000378346Y0002980735D01*
X0000378024Y0002980671D01*
X0000377696Y0002980696D01*
X0000362602Y0002978864D01*
X0000361792Y0002978599D01*
X0000360965Y0002978395D01*
X0000338658Y0002967953D01*
X0000338614Y0002967920D01*
X0000338561Y0002967906D01*
X0000313282Y0002955453D01*
X0000297191Y0002953128D01*
X0000127834Y0002953291D01*
X0000127834Y0003213768D01*
X0000296956Y0003213768D01*
X0000323943Y0003207712D01*
X0000323943Y0003207712D01*
G37*
X0000323943Y0003207712D02*
X0000337441Y0003199845D01*
X0000337463Y0003199838D01*
X0000337481Y0003199822D01*
X0000351521Y0003191799D01*
X0000352349Y0003191523D01*
X0000353156Y0003191190D01*
X0000377305Y0003186440D01*
X0000377831Y0003186441D01*
X0000378346Y0003186338D01*
X0000480177Y0003186338D01*
X0000520016Y0003178413D01*
X0000553342Y0003156146D01*
X0000575609Y0003122822D01*
X0000583428Y0003083512D01*
X0000575609Y0003044203D01*
X0000553342Y0003010878D01*
X0000520016Y0002988611D01*
X0000480420Y0002980735D01*
X0000378346Y0002980735D01*
X0000378024Y0002980671D01*
X0000377696Y0002980696D01*
X0000362602Y0002978864D01*
X0000361792Y0002978599D01*
X0000360965Y0002978395D01*
X0000338658Y0002967953D01*
X0000338614Y0002967920D01*
X0000338561Y0002967906D01*
X0000313282Y0002955453D01*
X0000297191Y0002953128D01*
X0000127834Y0002953291D01*
X0000127834Y0003213768D01*
X0000296956Y0003213768D01*
X0000323943Y0003207712D01*
G01G01G01G01G01G01G01G01*
D49*
D50*
X0000118110Y0003582677D02*
X0000480708Y0003437795D03*
D51*
G36*
X0000323943Y0003562042D02*
X0000337441Y0003554176D01*
X0000337463Y0003554168D01*
X0000337481Y0003554153D01*
X0000351521Y0003546130D01*
X0000352349Y0003545853D01*
X0000353156Y0003545521D01*
X0000377305Y0003540770D01*
X0000377831Y0003540771D01*
X0000378346Y0003540669D01*
X0000480177Y0003540669D01*
X0000520016Y0003532744D01*
X0000553342Y0003510477D01*
X0000575609Y0003477152D01*
X0000583428Y0003437843D01*
X0000575609Y0003398534D01*
X0000553342Y0003365209D01*
X0000520016Y0003342942D01*
X0000480420Y0003335066D01*
X0000378346Y0003335066D01*
X0000378024Y0003335002D01*
X0000377696Y0003335025D01*
X0000362602Y0003333195D01*
X0000361792Y0003332929D01*
X0000360965Y0003332726D01*
X0000338658Y0003322283D01*
X0000338614Y0003322251D01*
X0000338561Y0003322237D01*
X0000313282Y0003309784D01*
X0000297191Y0003307459D01*
X0000127834Y0003307621D01*
X0000127834Y0003568099D01*
X0000296956Y0003568099D01*
X0000323943Y0003562042D01*
X0000323943Y0003562042D01*
G37*
X0000323943Y0003562042D02*
X0000337441Y0003554176D01*
X0000337463Y0003554168D01*
X0000337481Y0003554153D01*
X0000351521Y0003546130D01*
X0000352349Y0003545853D01*
X0000353156Y0003545521D01*
X0000377305Y0003540770D01*
X0000377831Y0003540771D01*
X0000378346Y0003540669D01*
X0000480177Y0003540669D01*
X0000520016Y0003532744D01*
X0000553342Y0003510477D01*
X0000575609Y0003477152D01*
X0000583428Y0003437843D01*
X0000575609Y0003398534D01*
X0000553342Y0003365209D01*
X0000520016Y0003342942D01*
X0000480420Y0003335066D01*
X0000378346Y0003335066D01*
X0000378024Y0003335002D01*
X0000377696Y0003335025D01*
X0000362602Y0003333195D01*
X0000361792Y0003332929D01*
X0000360965Y0003332726D01*
X0000338658Y0003322283D01*
X0000338614Y0003322251D01*
X0000338561Y0003322237D01*
X0000313282Y0003309784D01*
X0000297191Y0003307459D01*
X0000127834Y0003307621D01*
X0000127834Y0003568099D01*
X0000296956Y0003568099D01*
X0000323943Y0003562042D01*
G04 next file*
G01G01G01G01G01G01G01G01*
D62*
D63*
X0000669291Y0003228346D02*
X0001031889Y0003083464D03*
D64*
G36*
X0000875124Y0003207712D02*
X0000888622Y0003199845D01*
X0000888644Y0003199838D01*
X0000888662Y0003199822D01*
X0000902702Y0003191799D01*
X0000903530Y0003191523D01*
X0000904337Y0003191190D01*
X0000928486Y0003186440D01*
X0000929012Y0003186441D01*
X0000929526Y0003186338D01*
X0001031358Y0003186338D01*
X0001071199Y0003178413D01*
X0001104523Y0003156146D01*
X0001126790Y0003122822D01*
X0001134609Y0003083512D01*
X0001126790Y0003044203D01*
X0001104523Y0003010878D01*
X0001071199Y0002988611D01*
X0001031601Y0002980735D01*
X0000929526Y0002980735D01*
X0000929205Y0002980671D01*
X0000928877Y0002980696D01*
X0000913783Y0002978864D01*
X0000912972Y0002978599D01*
X0000912146Y0002978395D01*
X0000889839Y0002967953D01*
X0000889795Y0002967920D01*
X0000889742Y0002967906D01*
X0000864462Y0002955453D01*
X0000848372Y0002953128D01*
X0000679015Y0002953291D01*
X0000679015Y0003213768D01*
X0000848137Y0003213768D01*
X0000875124Y0003207712D01*
X0000875124Y0003207712D01*
G37*
X0000875124Y0003207712D02*
X0000888622Y0003199845D01*
X0000888644Y0003199838D01*
X0000888662Y0003199822D01*
X0000902702Y0003191799D01*
X0000903530Y0003191523D01*
X0000904337Y0003191190D01*
X0000928486Y0003186440D01*
X0000929012Y0003186441D01*
X0000929526Y0003186338D01*
X0001031358Y0003186338D01*
X0001071199Y0003178413D01*
X0001104523Y0003156146D01*
X0001126790Y0003122822D01*
X0001134609Y0003083512D01*
X0001126790Y0003044203D01*
X0001104523Y0003010878D01*
X0001071199Y0002988611D01*
X0001031601Y0002980735D01*
X0000929526Y0002980735D01*
X0000929205Y0002980671D01*
X0000928877Y0002980696D01*
X0000913783Y0002978864D01*
X0000912972Y0002978599D01*
X0000912146Y0002978395D01*
X0000889839Y0002967953D01*
X0000889795Y0002967920D01*
X0000889742Y0002967906D01*
X0000864462Y0002955453D01*
X0000848372Y0002953128D01*
X0000679015Y0002953291D01*
X0000679015Y0003213768D01*
X0000848137Y0003213768D01*
X0000875124Y0003207712D01*
G01G01G01G01G01G01G01G01*
D75*
D76*
X0000669291Y0003582677D02*
X0001031889Y0003437795D03*
D77*
G36*
X0000875124Y0003562042D02*
X0000888622Y0003554176D01*
X0000888644Y0003554168D01*
X0000888662Y0003554153D01*
X0000902702Y0003546130D01*
X0000903530Y0003545853D01*
X0000904337Y0003545521D01*
X0000928486Y0003540770D01*
X0000929012Y0003540771D01*
X0000929526Y0003540669D01*
X0001031358Y0003540669D01*
X0001071199Y0003532744D01*
X0001104523Y0003510477D01*
X0001126790Y0003477152D01*
X0001134609Y0003437843D01*
X0001126790Y0003398534D01*
X0001104523Y0003365209D01*
X0001071199Y0003342942D01*
X0001031601Y0003335066D01*
X0000929526Y0003335066D01*
X0000929205Y0003335002D01*
X0000928877Y0003335025D01*
X0000913783Y0003333195D01*
X0000912972Y0003332929D01*
X0000912146Y0003332726D01*
X0000889839Y0003322283D01*
X0000889795Y0003322251D01*
X0000889742Y0003322237D01*
X0000864462Y0003309784D01*
X0000848372Y0003307459D01*
X0000679015Y0003307621D01*
X0000679015Y0003568099D01*
X0000848137Y0003568099D01*
X0000875124Y0003562042D01*
X0000875124Y0003562042D01*
G37*
X0000875124Y0003562042D02*
X0000888622Y0003554176D01*
X0000888644Y0003554168D01*
X0000888662Y0003554153D01*
X0000902702Y0003546130D01*
X0000903530Y0003545853D01*
X0000904337Y0003545521D01*
X0000928486Y0003540770D01*
X0000929012Y0003540771D01*
X0000929526Y0003540669D01*
X0001031358Y0003540669D01*
X0001071199Y0003532744D01*
X0001104523Y0003510477D01*
X0001126790Y0003477152D01*
X0001134609Y0003437843D01*
X0001126790Y0003398534D01*
X0001104523Y0003365209D01*
X0001071199Y0003342942D01*
X0001031601Y0003335066D01*
X0000929526Y0003335066D01*
X0000929205Y0003335002D01*
X0000928877Y0003335025D01*
X0000913783Y0003333195D01*
X0000912972Y0003332929D01*
X0000912146Y0003332726D01*
X0000889839Y0003322283D01*
X0000889795Y0003322251D01*
X0000889742Y0003322237D01*
X0000864462Y0003309784D01*
X0000848372Y0003307459D01*
X0000679015Y0003307621D01*
X0000679015Y0003568099D01*
X0000848137Y0003568099D01*
X0000875124Y0003562042D01*
G04 next file*
G01G01G01G01G01G01G01G01*
D88*
D89*
G36*
X0001789583Y0003073857D02*
X0001788800Y0003077789D01*
X0001787760Y0003080302D01*
X0001787760Y0003080302D01*
X0001783493Y0003086687D01*
X0001781570Y0003088611D01*
X0001775184Y0003092878D01*
X0001772672Y0003093918D01*
X0001772672Y0003093918D01*
X0001765139Y0003095416D01*
X0001764450Y0003095416D01*
X0001763779Y0003095551D01*
X0001255905Y0003095551D01*
X0001255232Y0003095416D01*
X0001254546Y0003095416D01*
X0001247012Y0003093918D01*
X0001247012Y0003093918D01*
X0001246026Y0003093510D01*
X0001244500Y0003092878D01*
X0001244500Y0003092878D01*
X0001238114Y0003088611D01*
X0001236192Y0003086687D01*
X0001231924Y0003080302D01*
X0001231924Y0003080302D01*
X0001230884Y0003077789D01*
X0001229385Y0003070257D01*
X0001229385Y0003069570D01*
X0001229251Y0003068897D01*
X0001229251Y0002958661D01*
X0001229385Y0002957988D01*
X0001229385Y0002957301D01*
X0001230884Y0002949768D01*
X0001230884Y0002949768D01*
X0001231924Y0002947256D01*
X0001236191Y0002940870D01*
X0001238114Y0002938947D01*
X0001244500Y0002934680D01*
X0001244500Y0002934680D01*
X0001245972Y0002934071D01*
X0001247012Y0002933640D01*
X0001247012Y0002933640D01*
X0001254546Y0002932141D01*
X0001255232Y0002932141D01*
X0001255905Y0002932007D01*
X0001763779Y0002932007D01*
X0001764450Y0002932141D01*
X0001765139Y0002932141D01*
X0001772672Y0002933640D01*
X0001772672Y0002933640D01*
X0001775184Y0002934680D01*
X0001781570Y0002938947D01*
X0001783493Y0002940870D01*
X0001787760Y0002947256D01*
X0001787760Y0002947256D01*
X0001788498Y0002949042D01*
X0001788350Y0002931771D01*
X0001227484Y0002931771D01*
X0001228972Y0003103267D01*
X0001789838Y0003103267D01*
X0001789583Y0003073857D01*
X0001789583Y0003073857D01*
G37*
X0001789583Y0003073857D02*
X0001788800Y0003077789D01*
X0001787760Y0003080302D01*
X0001787760Y0003080302D01*
X0001783493Y0003086687D01*
X0001781570Y0003088611D01*
X0001775184Y0003092878D01*
X0001772672Y0003093918D01*
X0001772672Y0003093918D01*
X0001765139Y0003095416D01*
X0001764450Y0003095416D01*
X0001763779Y0003095551D01*
X0001255905Y0003095551D01*
X0001255232Y0003095416D01*
X0001254546Y0003095416D01*
X0001247012Y0003093918D01*
X0001247012Y0003093918D01*
X0001246026Y0003093510D01*
X0001244500Y0003092878D01*
X0001244500Y0003092878D01*
X0001238114Y0003088611D01*
X0001236192Y0003086687D01*
X0001231924Y0003080302D01*
X0001231924Y0003080302D01*
X0001230884Y0003077789D01*
X0001229385Y0003070257D01*
X0001229385Y0003069570D01*
X0001229251Y0003068897D01*
X0001229251Y0002958661D01*
X0001229385Y0002957988D01*
X0001229385Y0002957301D01*
X0001230884Y0002949768D01*
X0001230884Y0002949768D01*
X0001231924Y0002947256D01*
X0001236191Y0002940870D01*
X0001238114Y0002938947D01*
X0001244500Y0002934680D01*
X0001244500Y0002934680D01*
X0001245972Y0002934071D01*
X0001247012Y0002933640D01*
X0001247012Y0002933640D01*
X0001254546Y0002932141D01*
X0001255232Y0002932141D01*
X0001255905Y0002932007D01*
X0001763779Y0002932007D01*
X0001764450Y0002932141D01*
X0001765139Y0002932141D01*
X0001772672Y0002933640D01*
X0001772672Y0002933640D01*
X0001775184Y0002934680D01*
X0001781570Y0002938947D01*
X0001783493Y0002940870D01*
X0001787760Y0002947256D01*
X0001787760Y0002947256D01*
X0001788498Y0002949042D01*
X0001788350Y0002931771D01*
X0001227484Y0002931771D01*
X0001228972Y0003103267D01*
X0001789838Y0003103267D01*
X0001789583Y0003073857D01*
G36*
X0001768593Y0003080520D02*
X0001772674Y0003077793D01*
X0001775401Y0003073711D01*
X0001776496Y0003068211D01*
X0001776496Y0002959347D01*
X0001775401Y0002953847D01*
X0001772674Y0002949766D01*
X0001768593Y0002947038D01*
X0001763093Y0002945944D01*
X0001256591Y0002945944D01*
X0001251091Y0002947038D01*
X0001247010Y0002949766D01*
X0001244283Y0002953847D01*
X0001243188Y0002959347D01*
X0001243188Y0003068211D01*
X0001244283Y0003073711D01*
X0001247010Y0003077793D01*
X0001251091Y0003080520D01*
X0001256591Y0003081614D01*
X0001763093Y0003081614D01*
X0001768593Y0003080520D01*
X0001768593Y0003080520D01*
G37*
X0001768593Y0003080520D02*
X0001772674Y0003077793D01*
X0001775401Y0003073711D01*
X0001776496Y0003068211D01*
X0001776496Y0002959347D01*
X0001775401Y0002953847D01*
X0001772674Y0002949766D01*
X0001768593Y0002947038D01*
X0001763093Y0002945944D01*
X0001256591Y0002945944D01*
X0001251091Y0002947038D01*
X0001247010Y0002949766D01*
X0001244283Y0002953847D01*
X0001243188Y0002959347D01*
X0001243188Y0003068211D01*
X0001244283Y0003073711D01*
X0001247010Y0003077793D01*
X0001251091Y0003080520D01*
X0001256591Y0003081614D01*
X0001763093Y0003081614D01*
X0001768593Y0003080520D01*
G04 next file*
G04 #@! TF.FileFunction,Copper,L2,Bot,Signal*
G04 Gerber Fmt 4.6, Leading zero omitted, Abs format (unit mm)*
G04 Created by KiCad (PCBNEW (2016-07-22 BZR 6991, Git 146a78a)-product) date 08/19/16 17:37:13*
G01G01G01G01G01G01G01G01*
G04 APERTURE LIST*
G04 APERTURE END LIST*
D100*
D101*
G36*
X0001227618Y0003361141D02*
X0001727283Y0003361141D01*
X0001727283Y0003336856D01*
X0001726736Y0003338176D01*
X0001722469Y0003344561D01*
X0001720546Y0003346485D01*
X0001714160Y0003350752D01*
X0001714160Y0003350752D01*
X0001712689Y0003351360D01*
X0001711648Y0003351792D01*
X0001711648Y0003351792D01*
X0001704115Y0003353291D01*
X0001703429Y0003353291D01*
X0001702755Y0003353424D01*
X0001263779Y0003353424D01*
X0001263106Y0003353291D01*
X0001262420Y0003353291D01*
X0001254886Y0003351792D01*
X0001254886Y0003351792D01*
X0001252374Y0003350752D01*
X0001245988Y0003346485D01*
X0001244065Y0003344561D01*
X0001239798Y0003338176D01*
X0001239798Y0003338176D01*
X0001238758Y0003335664D01*
X0001237259Y0003328130D01*
X0001237259Y0003327444D01*
X0001237125Y0003326771D01*
X0001237125Y0003169291D01*
X0001237656Y0003166623D01*
X0001239167Y0003164363D01*
X0001241427Y0003162853D01*
X0001244094Y0003162322D01*
X0001722440Y0003162322D01*
X0001725107Y0003162853D01*
X0001727283Y0003164307D01*
X0001727283Y0003154606D01*
X0001225523Y0003154606D01*
X0001227618Y0003361141D01*
X0001227618Y0003361141D01*
G37*
X0001227618Y0003361141D02*
X0001727283Y0003361141D01*
X0001727283Y0003336856D01*
X0001726736Y0003338176D01*
X0001722469Y0003344561D01*
X0001720546Y0003346485D01*
X0001714160Y0003350752D01*
X0001714160Y0003350752D01*
X0001712689Y0003351360D01*
X0001711648Y0003351792D01*
X0001711648Y0003351792D01*
X0001704115Y0003353291D01*
X0001703429Y0003353291D01*
X0001702755Y0003353424D01*
X0001263779Y0003353424D01*
X0001263106Y0003353291D01*
X0001262420Y0003353291D01*
X0001254886Y0003351792D01*
X0001254886Y0003351792D01*
X0001252374Y0003350752D01*
X0001245988Y0003346485D01*
X0001244065Y0003344561D01*
X0001239798Y0003338176D01*
X0001239798Y0003338176D01*
X0001238758Y0003335664D01*
X0001237259Y0003328130D01*
X0001237259Y0003327444D01*
X0001237125Y0003326771D01*
X0001237125Y0003169291D01*
X0001237656Y0003166623D01*
X0001239167Y0003164363D01*
X0001241427Y0003162853D01*
X0001244094Y0003162322D01*
X0001722440Y0003162322D01*
X0001725107Y0003162853D01*
X0001727283Y0003164307D01*
X0001727283Y0003154606D01*
X0001225523Y0003154606D01*
X0001227618Y0003361141D01*
G36*
X0001251062Y0003326085D02*
X0001252157Y0003331585D01*
X0001254884Y0003335666D01*
X0001258965Y0003338394D01*
X0001264465Y0003339488D01*
X0001702069Y0003339488D01*
X0001707570Y0003338394D01*
X0001711651Y0003335666D01*
X0001714378Y0003331585D01*
X0001715472Y0003326085D01*
X0001715472Y0003176259D01*
X0001251062Y0003176259D01*
X0001251062Y0003326085D01*
X0001251062Y0003326085D01*
G37*
X0001251062Y0003326085D02*
X0001252157Y0003331585D01*
X0001254884Y0003335666D01*
X0001258965Y0003338394D01*
X0001264465Y0003339488D01*
X0001702069Y0003339488D01*
X0001707570Y0003338394D01*
X0001711651Y0003335666D01*
X0001714378Y0003331585D01*
X0001715472Y0003326085D01*
X0001715472Y0003176259D01*
X0001251062Y0003176259D01*
X0001251062Y0003326085D01*
M02*