%MOIN*%
%OFA0B0*%
%FSLAX44Y44*%
%IPPOS*%
%LPD*%
%ADD10C,0*%
D10*
X00001685Y00015575D02*
X00001685Y00015575D01*
X00001574Y00015581D01*
X00001468Y00015611D01*
X00001370Y00015662D01*
X00001285Y00015734D01*
X00001218Y00015822D01*
X00001172Y00015923D01*
X00001148Y00016031D01*
X00001148Y00016141D01*
X00001172Y00016250D01*
X00001218Y00016350D01*
X00001285Y00016438D01*
X00001370Y00016510D01*
X00001468Y00016562D01*
X00001574Y00016591D01*
X00001685Y00016597D01*
X00001794Y00016579D01*
X00001897Y00016538D01*
X00001988Y00016476D01*
X00002064Y00016396D01*
X00002121Y00016301D01*
X00002157Y00016196D01*
X00002169Y00016086D01*
X00002157Y00015976D01*
X00002121Y00015871D01*
X00002064Y00015776D01*
X00001988Y00015696D01*
X00001897Y00015634D01*
X00001794Y00015593D01*
X00001685Y00015575D01*
X00028488Y00015591D02*
X00028488Y00015591D01*
X00028377Y00015597D01*
X00028271Y00015626D01*
X00028173Y00015678D01*
X00028089Y00015750D01*
X00028022Y00015838D01*
X00027975Y00015938D01*
X00027951Y00016047D01*
X00027951Y00016157D01*
X00027975Y00016265D01*
X00028022Y00016366D01*
X00028089Y00016454D01*
X00028173Y00016525D01*
X00028271Y00016577D01*
X00028377Y00016607D01*
X00028488Y00016613D01*
X00028597Y00016595D01*
X00028700Y00016554D01*
X00028791Y00016492D01*
X00028868Y00016412D01*
X00028925Y00016317D01*
X00028960Y00016212D01*
X00028972Y00016102D01*
X00028960Y00015992D01*
X00028925Y00015887D01*
X00028868Y00015792D01*
X00028791Y00015712D01*
X00028700Y00015650D01*
X00028597Y00015609D01*
X00028488Y00015591D01*
X00012854Y00016043D02*
X00012854Y00016043D01*
X00012823Y00016045D01*
X00012793Y00016052D01*
X00012764Y00016064D01*
X00012738Y00016080D01*
X00012715Y00016100D01*
X00012695Y00016124D01*
X00012678Y00016150D01*
X00012667Y00016179D01*
X00012659Y00016209D01*
X00012657Y00016240D01*
X00012657Y00017893D01*
X00012480Y00017893D01*
X00012449Y00017896D01*
X00012419Y00017903D01*
X00012390Y00017915D01*
X00012364Y00017931D01*
X00012341Y00017951D01*
X00012321Y00017974D01*
X00012304Y00018001D01*
X00012293Y00018029D01*
X00012285Y00018059D01*
X00012283Y00018090D01*
X00012283Y00019350D01*
X00012285Y00019381D01*
X00012293Y00019411D01*
X00012304Y00019439D01*
X00012321Y00019466D01*
X00012341Y00019489D01*
X00012364Y00019509D01*
X00012390Y00019525D01*
X00012419Y00019537D01*
X00012449Y00019544D01*
X00012480Y00019547D01*
X00017716Y00019547D01*
X00017747Y00019544D01*
X00017777Y00019537D01*
X00017805Y00019525D01*
X00017832Y00019509D01*
X00017855Y00019489D01*
X00017875Y00019466D01*
X00017891Y00019439D01*
X00017903Y00019411D01*
X00017910Y00019381D01*
X00017913Y00019350D01*
X00017913Y00018090D01*
X00017910Y00018059D01*
X00017903Y00018029D01*
X00017891Y00018001D01*
X00017875Y00017974D01*
X00017855Y00017951D01*
X00017832Y00017931D01*
X00017805Y00017915D01*
X00017777Y00017903D01*
X00017747Y00017896D01*
X00017716Y00017893D01*
X00017598Y00017893D01*
X00017598Y00016240D01*
X00017596Y00016209D01*
X00017588Y00016179D01*
X00017576Y00016150D01*
X00017560Y00016124D01*
X00017540Y00016100D01*
X00017517Y00016080D01*
X00017490Y00016064D01*
X00017462Y00016052D01*
X00017432Y00016045D01*
X00017401Y00016043D01*
X00012854Y00016043D01*
X00008799Y00017224D02*
X00008799Y00017224D01*
X00007007Y00017224D01*
X00006977Y00017226D01*
X00006947Y00017234D01*
X00006918Y00017245D01*
X00006892Y00017262D01*
X00006868Y00017282D01*
X00006848Y00017305D01*
X00006832Y00017331D01*
X00006820Y00017360D01*
X00006813Y00017390D01*
X00006811Y00017421D01*
X00006811Y00020118D01*
X00006813Y00020148D01*
X00006820Y00020178D01*
X00006832Y00020207D01*
X00006848Y00020233D01*
X00006868Y00020257D01*
X00006892Y00020277D01*
X00006918Y00020293D01*
X00006947Y00020305D01*
X00006977Y00020312D01*
X00007007Y00020314D01*
X00008799Y00020314D01*
X00008830Y00020312D01*
X00008860Y00020305D01*
X00008888Y00020293D01*
X00008914Y00020277D01*
X00008938Y00020257D01*
X00008958Y00020233D01*
X00008974Y00020207D01*
X00008986Y00020178D01*
X00008993Y00020148D01*
X00008996Y00020118D01*
X00008996Y00017421D01*
X00008993Y00017390D01*
X00008986Y00017360D01*
X00008974Y00017331D01*
X00008958Y00017305D01*
X00008938Y00017282D01*
X00008914Y00017262D01*
X00008888Y00017245D01*
X00008860Y00017234D01*
X00008830Y00017226D01*
X00008799Y00017224D01*
X00025608Y00022602D02*
X00025608Y00022602D01*
X00025440Y00022602D01*
X00025274Y00022624D01*
X00025113Y00022668D01*
X00024958Y00022732D01*
X00024813Y00022815D01*
X00024681Y00022917D01*
X00024563Y00023036D01*
X00024461Y00023168D01*
X00024377Y00023313D01*
X00024313Y00023468D01*
X00024270Y00023630D01*
X00024248Y00023795D01*
X00024248Y00023963D01*
X00024270Y00024129D01*
X00024313Y00024290D01*
X00024377Y00024445D01*
X00024461Y00024590D01*
X00024563Y00024722D01*
X00024681Y00024841D01*
X00024813Y00024943D01*
X00024958Y00025027D01*
X00025113Y00025091D01*
X00025274Y00025134D01*
X00025440Y00025156D01*
X00025608Y00025156D01*
X00025773Y00025135D01*
X00025935Y00025091D01*
X00026090Y00025028D01*
X00026235Y00024944D01*
X00026368Y00024842D01*
X00026486Y00024724D01*
X00026588Y00024592D01*
X00026588Y00023167D01*
X00026486Y00023034D01*
X00026368Y00022916D01*
X00026235Y00022814D01*
X00026090Y00022731D01*
X00025935Y00022667D01*
X00025773Y00022624D01*
X00025608Y00022602D01*
X00001689Y00026422D02*
X00001689Y00026422D01*
X00001578Y00026428D01*
X00001471Y00026457D01*
X00001374Y00026509D01*
X00001289Y00026581D01*
X00001222Y00026669D01*
X00001176Y00026769D01*
X00001152Y00026877D01*
X00001152Y00026988D01*
X00001176Y00027096D01*
X00001222Y00027196D01*
X00001289Y00027285D01*
X00001374Y00027356D01*
X00001471Y00027408D01*
X00001578Y00027438D01*
X00001689Y00027444D01*
X00001798Y00027426D01*
X00001901Y00027385D01*
X00001992Y00027323D01*
X00002068Y00027242D01*
X00002125Y00027147D01*
X00002161Y00027043D01*
X00002173Y00026933D01*
X00002161Y00026823D01*
X00002125Y00026718D01*
X00002068Y00026623D01*
X00001992Y00026542D01*
X00001901Y00026480D01*
X00001798Y00026439D01*
X00001689Y00026422D01*
X00028504Y00026433D02*
X00028504Y00026433D01*
X00028393Y00026439D01*
X00028286Y00026469D01*
X00028189Y00026521D01*
X00028104Y00026592D01*
X00028037Y00026681D01*
X00027991Y00026781D01*
X00027967Y00026889D01*
X00027967Y00027000D01*
X00027991Y00027108D01*
X00028037Y00027208D01*
X00028104Y00027296D01*
X00028189Y00027368D01*
X00028286Y00027420D01*
X00028393Y00027449D01*
X00028504Y00027455D01*
X00028613Y00027438D01*
X00028716Y00027397D01*
X00028807Y00027334D01*
X00028883Y00027254D01*
X00028940Y00027159D01*
X00028976Y00027054D01*
X00028988Y00026944D01*
X00028976Y00026834D01*
X00028940Y00026729D01*
X00028883Y00026635D01*
X00028807Y00026554D01*
X00028716Y00026492D01*
X00028613Y00026451D01*
X00028504Y00026433D01*
X00003496Y00028409D02*
X00003496Y00028409D01*
X00006740Y00028409D01*
X00006758Y00028409D01*
X00006776Y00028411D01*
X00006794Y00028413D01*
X00006812Y00028416D01*
X00006830Y00028419D01*
X00006848Y00028424D01*
X00006865Y00028429D01*
X00006882Y00028436D01*
X00006899Y00028443D01*
X00006916Y00028450D01*
X00006932Y00028459D01*
X00006947Y00028468D01*
X00006963Y00028478D01*
X00006977Y00028489D01*
X00006992Y00028500D01*
X00007005Y00028512D01*
X00007019Y00028525D01*
X00007031Y00028538D01*
X00007043Y00028552D01*
X00007054Y00028566D01*
X00007266Y00028848D01*
X00007290Y00028884D01*
X00007311Y00028923D01*
X00007326Y00028964D01*
X00007337Y00029006D01*
X00007344Y00029049D01*
X00007345Y00029092D01*
X00007342Y00029136D01*
X00007334Y00029179D01*
X00007321Y00029220D01*
X00007304Y00029260D01*
X00007282Y00029298D01*
X00007257Y00029333D01*
X00007227Y00029366D01*
X00007195Y00029394D01*
X00007159Y00029419D01*
X00007121Y00029440D01*
X00007080Y00029457D01*
X00007038Y00029469D01*
X00006995Y00029476D01*
X00006952Y00029478D01*
X00006736Y00029479D01*
X00006736Y00032191D01*
X00006797Y00032191D01*
X00006845Y00032194D01*
X00006893Y00032203D01*
X00006939Y00032218D01*
X00006983Y00032238D01*
X00007024Y00032263D01*
X00007062Y00032293D01*
X00007095Y00032328D01*
X00007125Y00032367D01*
X00007149Y00032409D01*
X00007168Y00032453D01*
X00007181Y00032499D01*
X00007189Y00032547D01*
X00007190Y00032596D01*
X00007186Y00032644D01*
X00007176Y00032691D01*
X00007160Y00032737D01*
X00007139Y00032780D01*
X00007112Y00032821D01*
X00007081Y00032857D01*
X00007045Y00032890D01*
X00006992Y00032934D01*
X00006981Y00032942D01*
X00006971Y00032950D01*
X00006960Y00032957D01*
X00006948Y00032964D01*
X00006937Y00032971D01*
X00006925Y00032978D01*
X00006913Y00032984D01*
X00006901Y00032989D01*
X00006888Y00032994D01*
X00006876Y00032999D01*
X00006863Y00033003D01*
X00006850Y00033007D01*
X00006837Y00033011D01*
X00006824Y00033014D01*
X00006811Y00033016D01*
X00006797Y00033018D01*
X00006784Y00033020D01*
X00006771Y00033021D01*
X00006757Y00033022D01*
X00006744Y00033022D01*
X00006736Y00033022D01*
X00006736Y00035734D01*
X00008487Y00035734D01*
X00008533Y00035732D01*
X00008578Y00035727D01*
X00008623Y00035719D01*
X00008667Y00035708D01*
X00008711Y00035694D01*
X00008754Y00035678D01*
X00008796Y00035659D01*
X00008836Y00035638D01*
X00008875Y00035614D01*
X00008913Y00035588D01*
X00008946Y00035564D01*
X00008981Y00035543D01*
X00009018Y00035524D01*
X00009055Y00035507D01*
X00009093Y00035493D01*
X00009133Y00035481D01*
X00009173Y00035472D01*
X00009213Y00035465D01*
X00009254Y00035461D01*
X00009295Y00035460D01*
X00010318Y00035460D01*
X00010488Y00035447D01*
X00010653Y00035407D01*
X00010810Y00035342D01*
X00010954Y00035253D01*
X00011084Y00035143D01*
X00011194Y00035014D01*
X00011283Y00034869D01*
X00011348Y00034712D01*
X00011387Y00034547D01*
X00011401Y00034378D01*
X00011387Y00034209D01*
X00011348Y00034044D01*
X00011283Y00033887D01*
X00011194Y00033742D01*
X00011084Y00033613D01*
X00010954Y00033502D01*
X00010810Y00033414D01*
X00010653Y00033349D01*
X00010488Y00033309D01*
X00010318Y00033296D01*
X00010318Y00033296D01*
X00009295Y00033296D01*
X00009255Y00033295D01*
X00009215Y00033291D01*
X00009175Y00033285D01*
X00009136Y00033276D01*
X00009098Y00033265D01*
X00009060Y00033251D01*
X00009024Y00033235D01*
X00008988Y00033217D01*
X00008954Y00033196D01*
X00008939Y00033186D01*
X00008939Y00033186D01*
X00008925Y00033176D01*
X00008912Y00033166D01*
X00008899Y00033155D01*
X00008887Y00033143D01*
X00008875Y00033131D01*
X00008864Y00033119D01*
X00008853Y00033106D01*
X00008843Y00033092D01*
X00008834Y00033079D01*
X00008825Y00033064D01*
X00008816Y00033050D01*
X00008809Y00033035D01*
X00008801Y00033019D01*
X00008795Y00033004D01*
X00008789Y00032988D01*
X00008784Y00032972D01*
X00008780Y00032956D01*
X00008776Y00032939D01*
X00008773Y00032923D01*
X00008771Y00032906D01*
X00008717Y00032432D01*
X00008716Y00032411D01*
X00008715Y00032390D01*
X00008715Y00032369D01*
X00008717Y00032348D01*
X00008720Y00032327D01*
X00008723Y00032306D01*
X00008728Y00032285D01*
X00008735Y00032265D01*
X00008742Y00032245D01*
X00008750Y00032226D01*
X00008759Y00032207D01*
X00008769Y00032188D01*
X00008781Y00032170D01*
X00008793Y00032153D01*
X00008806Y00032136D01*
X00008820Y00032120D01*
X00008835Y00032105D01*
X00008850Y00032091D01*
X00008867Y00032077D01*
X00008884Y00032065D01*
X00008884Y00032065D01*
X00008913Y00032045D01*
X00008946Y00032021D01*
X00008981Y00031999D01*
X00009018Y00031980D01*
X00009055Y00031964D01*
X00009093Y00031949D01*
X00009133Y00031938D01*
X00009173Y00031929D01*
X00009213Y00031922D01*
X00009254Y00031918D01*
X00009295Y00031917D01*
X00010318Y00031917D01*
X00010488Y00031904D01*
X00010653Y00031864D01*
X00010810Y00031799D01*
X00010954Y00031710D01*
X00011084Y00031600D01*
X00011194Y00031471D01*
X00011283Y00031326D01*
X00011348Y00031169D01*
X00011387Y00031004D01*
X00011401Y00030835D01*
X00011387Y00030665D01*
X00011348Y00030500D01*
X00011283Y00030343D01*
X00011194Y00030199D01*
X00011084Y00030069D01*
X00010954Y00029959D01*
X00010810Y00029870D01*
X00010653Y00029805D01*
X00010488Y00029766D01*
X00010318Y00029752D01*
X00010318Y00029753D01*
X00009295Y00029753D01*
X00009255Y00029752D01*
X00009215Y00029748D01*
X00009175Y00029742D01*
X00009136Y00029733D01*
X00009098Y00029721D01*
X00009060Y00029708D01*
X00009024Y00029692D01*
X00008988Y00029673D01*
X00008954Y00029653D01*
X00008921Y00029630D01*
X00008883Y00029603D01*
X00008843Y00029578D01*
X00008802Y00029556D01*
X00008760Y00029536D01*
X00008749Y00029532D01*
X00008722Y00029520D01*
X00008696Y00029507D01*
X00008671Y00029491D01*
X00008647Y00029473D01*
X00008624Y00029454D01*
X00008603Y00029433D01*
X00008584Y00029410D01*
X00008566Y00029386D01*
X00008551Y00029361D01*
X00008537Y00029335D01*
X00008525Y00029308D01*
X00008515Y00029280D01*
X00008508Y00029251D01*
X00008503Y00029222D01*
X00008499Y00029192D01*
X00008498Y00029163D01*
X00008500Y00029133D01*
X00008503Y00029104D01*
X00008509Y00029075D01*
X00008517Y00029046D01*
X00008632Y00028683D01*
X00008640Y00028660D01*
X00008650Y00028637D01*
X00008661Y00028615D01*
X00008674Y00028593D01*
X00008688Y00028573D01*
X00008703Y00028553D01*
X00008719Y00028534D01*
X00008737Y00028517D01*
X00008755Y00028500D01*
X00008775Y00028485D01*
X00008795Y00028471D01*
X00008817Y00028458D01*
X00008839Y00028447D01*
X00008862Y00028437D01*
X00008885Y00028428D01*
X00008909Y00028421D01*
X00008933Y00028416D01*
X00008958Y00028412D01*
X00008983Y00028410D01*
X00009007Y00028409D01*
X00013826Y00028409D01*
X00013826Y00028409D01*
X00013844Y00028409D01*
X00013862Y00028411D01*
X00013880Y00028413D01*
X00013898Y00028416D01*
X00013916Y00028419D01*
X00013933Y00028424D01*
X00013951Y00028429D01*
X00013968Y00028435D01*
X00013984Y00028442D01*
X00014001Y00028450D01*
X00014017Y00028458D01*
X00014032Y00028467D01*
X00014048Y00028477D01*
X00014062Y00028488D01*
X00014076Y00028499D01*
X00014090Y00028510D01*
X00014103Y00028523D01*
X00014116Y00028536D01*
X00014128Y00028549D01*
X00014139Y00028564D01*
X00014287Y00028756D01*
X00014311Y00028793D01*
X00014332Y00028831D01*
X00014348Y00028872D01*
X00014359Y00028914D01*
X00014366Y00028958D01*
X00014367Y00029001D01*
X00014364Y00029045D01*
X00014356Y00029088D01*
X00014344Y00029130D01*
X00014327Y00029170D01*
X00014305Y00029208D01*
X00014279Y00029244D01*
X00014250Y00029276D01*
X00014217Y00029305D01*
X00014181Y00029330D01*
X00014143Y00029351D01*
X00014103Y00029368D01*
X00014061Y00029380D01*
X00014017Y00029387D01*
X00013974Y00029389D01*
X00012559Y00029389D01*
X00012528Y00029392D01*
X00012498Y00029399D01*
X00012469Y00029411D01*
X00012443Y00029427D01*
X00012419Y00029447D01*
X00012399Y00029470D01*
X00012383Y00029497D01*
X00012371Y00029525D01*
X00012364Y00029555D01*
X00012362Y00029586D01*
X00012362Y00030688D01*
X00012364Y00030719D01*
X00012371Y00030749D01*
X00012383Y00030778D01*
X00012399Y00030804D01*
X00012419Y00030828D01*
X00012443Y00030848D01*
X00012469Y00030864D01*
X00012498Y00030876D01*
X00012528Y00030883D01*
X00012559Y00030885D01*
X00013949Y00030885D01*
X00014008Y00030890D01*
X00014066Y00030903D01*
X00014121Y00030925D01*
X00014172Y00030955D01*
X00014218Y00030992D01*
X00014258Y00031036D01*
X00014291Y00031085D01*
X00014317Y00031138D01*
X00014334Y00031195D01*
X00014342Y00031254D01*
X00014341Y00031313D01*
X00014332Y00031372D01*
X00014313Y00031428D01*
X00014287Y00031481D01*
X00014253Y00031530D01*
X00014212Y00031572D01*
X00014165Y00031608D01*
X00014113Y00031637D01*
X00014057Y00031658D01*
X00013999Y00031670D01*
X00013846Y00031689D01*
X00013843Y00031690D01*
X00013841Y00031690D01*
X00013838Y00031690D01*
X00013836Y00031690D01*
X00013833Y00031691D01*
X00013831Y00031691D01*
X00013828Y00031691D01*
X00013826Y00031691D01*
X00013823Y00031691D01*
X00013821Y00031692D01*
X00013818Y00031692D01*
X00013816Y00031692D01*
X00013813Y00031692D01*
X00013811Y00031692D01*
X00013808Y00031692D01*
X00013806Y00031692D01*
X00013803Y00031692D01*
X00013801Y00031692D01*
X00013798Y00031692D01*
X00013796Y00031692D01*
X00012440Y00031692D01*
X00012440Y00033267D01*
X00012443Y00033298D01*
X00012450Y00033328D01*
X00012462Y00033357D01*
X00012478Y00033383D01*
X00012498Y00033406D01*
X00012522Y00033426D01*
X00012548Y00033443D01*
X00012576Y00033454D01*
X00012607Y00033462D01*
X00012637Y00033464D01*
X00017027Y00033464D01*
X00017058Y00033462D01*
X00017088Y00033454D01*
X00017116Y00033443D01*
X00017143Y00033426D01*
X00017166Y00033406D01*
X00017186Y00033383D01*
X00017202Y00033357D01*
X00017214Y00033328D01*
X00017221Y00033298D01*
X00017224Y00033267D01*
X00017224Y00031692D01*
X00016125Y00031692D01*
X00016122Y00031692D01*
X00016120Y00031692D01*
X00016117Y00031692D01*
X00016115Y00031692D01*
X00016112Y00031692D01*
X00016110Y00031692D01*
X00016107Y00031692D01*
X00016105Y00031692D01*
X00016102Y00031692D01*
X00016100Y00031692D01*
X00016097Y00031691D01*
X00016095Y00031691D01*
X00016092Y00031691D01*
X00016090Y00031691D01*
X00016087Y00031691D01*
X00016085Y00031690D01*
X00016082Y00031690D01*
X00016080Y00031690D01*
X00016077Y00031690D01*
X00016075Y00031689D01*
X00015921Y00031670D01*
X00015863Y00031658D01*
X00015808Y00031637D01*
X00015756Y00031608D01*
X00015709Y00031572D01*
X00015668Y00031530D01*
X00015633Y00031481D01*
X00015607Y00031428D01*
X00015589Y00031372D01*
X00015579Y00031313D01*
X00015578Y00031254D01*
X00015587Y00031195D01*
X00015604Y00031138D01*
X00015629Y00031085D01*
X00015662Y00031036D01*
X00015702Y00030992D01*
X00015748Y00030955D01*
X00015799Y00030925D01*
X00015855Y00030903D01*
X00015912Y00030890D01*
X00015971Y00030885D01*
X00017637Y00030885D01*
X00017668Y00030883D01*
X00017698Y00030876D01*
X00017727Y00030864D01*
X00017753Y00030848D01*
X00017776Y00030828D01*
X00017797Y00030804D01*
X00017813Y00030778D01*
X00017825Y00030749D01*
X00017832Y00030719D01*
X00017834Y00030688D01*
X00017834Y00029586D01*
X00017832Y00029555D01*
X00017825Y00029525D01*
X00017813Y00029497D01*
X00017797Y00029470D01*
X00017776Y00029447D01*
X00017753Y00029427D01*
X00017727Y00029411D01*
X00017698Y00029399D01*
X00017668Y00029392D01*
X00017637Y00029389D01*
X00015947Y00029389D01*
X00015903Y00029387D01*
X00015860Y00029380D01*
X00015818Y00029368D01*
X00015777Y00029351D01*
X00015739Y00029330D01*
X00015703Y00029305D01*
X00015670Y00029276D01*
X00015641Y00029244D01*
X00015615Y00029208D01*
X00015594Y00029170D01*
X00015576Y00029130D01*
X00015564Y00029088D01*
X00015556Y00029045D01*
X00015553Y00029001D01*
X00015555Y00028958D01*
X00015561Y00028914D01*
X00015573Y00028872D01*
X00015589Y00028831D01*
X00015609Y00028793D01*
X00015634Y00028756D01*
X00015781Y00028564D01*
X00015792Y00028549D01*
X00015804Y00028536D01*
X00015817Y00028523D01*
X00015830Y00028510D01*
X00015844Y00028499D01*
X00015858Y00028488D01*
X00015873Y00028477D01*
X00015888Y00028467D01*
X00015904Y00028458D01*
X00015920Y00028450D01*
X00015936Y00028442D01*
X00015953Y00028435D01*
X00015970Y00028429D01*
X00015987Y00028424D01*
X00016004Y00028419D01*
X00016022Y00028416D01*
X00016040Y00028413D01*
X00016058Y00028411D01*
X00016076Y00028409D01*
X00016094Y00028409D01*
X00029086Y00028409D01*
X00029086Y00028409D01*
X00029239Y00028397D01*
X00029389Y00028361D01*
X00029531Y00028302D01*
X00029662Y00028222D01*
X00029779Y00028122D01*
X00029879Y00028005D01*
X00029960Y00027874D01*
X00030018Y00027732D01*
X00030054Y00027582D01*
X00030066Y00027429D01*
X00030066Y00015614D01*
X00030054Y00015460D01*
X00030018Y00015311D01*
X00029960Y00015169D01*
X00029879Y00015037D01*
X00029779Y00014920D01*
X00029662Y00014821D01*
X00029531Y00014740D01*
X00029389Y00014681D01*
X00029239Y00014645D01*
X00029086Y00014633D01*
X00024492Y00014633D01*
X00024431Y00014628D01*
X00024372Y00014614D01*
X00024316Y00014591D01*
X00024264Y00014560D01*
X00024217Y00014521D01*
X00024177Y00014476D01*
X00024145Y00014425D01*
X00024120Y00014369D01*
X00024105Y00014311D01*
X00024098Y00014250D01*
X00024101Y00014190D01*
X00024113Y00014130D01*
X00024135Y00014074D01*
X00024164Y00014021D01*
X00024202Y00013973D01*
X00024246Y00013932D01*
X00024296Y00013897D01*
X00024351Y00013871D01*
X00024409Y00013854D01*
X00024469Y00013846D01*
X00024526Y00013843D01*
X00024527Y00013843D01*
X00024528Y00013843D01*
X00024529Y00013842D01*
X00024530Y00013842D01*
X00024532Y00013842D01*
X00024533Y00013842D01*
X00024534Y00013842D01*
X00024535Y00013842D01*
X00024536Y00013842D01*
X00024537Y00013842D01*
X00024538Y00013842D01*
X00024539Y00013842D01*
X00024541Y00013842D01*
X00024542Y00013842D01*
X00024543Y00013842D01*
X00024544Y00013842D01*
X00024545Y00013842D01*
X00024546Y00013842D01*
X00024547Y00013842D01*
X00024549Y00013842D01*
X00029086Y00013842D01*
X00029086Y00013842D01*
X00029239Y00013830D01*
X00029389Y00013794D01*
X00029531Y00013735D01*
X00029662Y00013655D01*
X00029779Y00013555D01*
X00029879Y00013438D01*
X00029960Y00013307D01*
X00030018Y00013165D01*
X00030054Y00013015D01*
X00030066Y00012862D01*
X00030066Y00001047D01*
X00030054Y00000893D01*
X00030018Y00000744D01*
X00029960Y00000602D01*
X00029879Y00000471D01*
X00029779Y00000354D01*
X00029662Y00000254D01*
X00029531Y00000173D01*
X00029389Y00000114D01*
X00029239Y00000078D01*
X00029086Y00000066D01*
X00001129Y00000062D01*
X00001129Y00000062D01*
X00000976Y00000075D01*
X00000826Y00000110D01*
X00000684Y00000169D01*
X00000553Y00000250D01*
X00000436Y00000350D01*
X00000336Y00000467D01*
X00000256Y00000598D01*
X00000197Y00000740D01*
X00000161Y00000889D01*
X00000149Y00001043D01*
X00000149Y00012862D01*
X00000161Y00013015D01*
X00000197Y00013165D01*
X00000256Y00013307D01*
X00000336Y00013438D01*
X00000436Y00013555D01*
X00000553Y00013655D01*
X00000684Y00013735D01*
X00000826Y00013794D01*
X00000976Y00013830D01*
X00001129Y00013842D01*
X00005559Y00013842D01*
X00005559Y00013842D01*
X00005559Y00013842D01*
X00005559Y00013842D01*
X00005559Y00013842D01*
X00005560Y00013842D01*
X00005560Y00013842D01*
X00005560Y00013842D01*
X00005560Y00013842D01*
X00005561Y00013842D01*
X00005561Y00013842D01*
X00005561Y00013842D01*
X00005562Y00013842D01*
X00005562Y00013842D01*
X00005562Y00013842D01*
X00005562Y00013842D01*
X00005563Y00013842D01*
X00005563Y00013842D01*
X00005563Y00013842D01*
X00005564Y00013842D01*
X00005564Y00013842D01*
X00005564Y00013842D01*
X00005609Y00013843D01*
X00005670Y00013848D01*
X00005730Y00013863D01*
X00005786Y00013888D01*
X00005838Y00013920D01*
X00005885Y00013961D01*
X00005924Y00014008D01*
X00005956Y00014061D01*
X00005979Y00014118D01*
X00005993Y00014178D01*
X00005997Y00014239D01*
X00005992Y00014300D01*
X00005977Y00014360D01*
X00005953Y00014417D01*
X00005921Y00014469D01*
X00005881Y00014516D01*
X00005834Y00014556D01*
X00005781Y00014588D01*
X00005725Y00014611D01*
X00005665Y00014625D01*
X00005603Y00014630D01*
X00005603Y00014630D01*
X00001129Y00014629D01*
X00001129Y00014629D01*
X00000976Y00014641D01*
X00000826Y00014677D01*
X00000684Y00014736D01*
X00000553Y00014817D01*
X00000436Y00014917D01*
X00000336Y00015034D01*
X00000256Y00015165D01*
X00000197Y00015307D01*
X00000161Y00015456D01*
X00000149Y00015610D01*
X00000149Y00027429D01*
X00000161Y00027582D01*
X00000197Y00027732D01*
X00000256Y00027874D01*
X00000336Y00028005D01*
X00000436Y00028122D01*
X00000553Y00028222D01*
X00000684Y00028302D01*
X00000826Y00028361D01*
X00000976Y00028397D01*
X00001129Y00028409D01*
X00001228Y00028409D01*
X00001228Y00028409D01*
X00001246Y00028409D01*
X00001264Y00028411D01*
X00001282Y00028413D01*
X00001300Y00028416D01*
X00001318Y00028419D01*
X00001336Y00028424D01*
X00001353Y00028429D01*
X00001370Y00028436D01*
X00001387Y00028443D01*
X00001404Y00028450D01*
X00001420Y00028459D01*
X00001436Y00028468D01*
X00001451Y00028478D01*
X00001466Y00028489D01*
X00001480Y00028500D01*
X00001494Y00028512D01*
X00001507Y00028525D01*
X00001519Y00028538D01*
X00001531Y00028552D01*
X00001543Y00028566D01*
X00001754Y00028848D01*
X00001779Y00028884D01*
X00001799Y00028923D01*
X00001814Y00028964D01*
X00001825Y00029006D01*
X00001832Y00029049D01*
X00001833Y00029092D01*
X00001830Y00029136D01*
X00001822Y00029179D01*
X00001809Y00029220D01*
X00001792Y00029260D01*
X00001770Y00029298D01*
X00001745Y00029333D01*
X00001715Y00029366D01*
X00001683Y00029394D01*
X00001647Y00029419D01*
X00001609Y00029440D01*
X00001568Y00029457D01*
X00001527Y00029469D01*
X00001484Y00029476D01*
X00001440Y00029478D01*
X00001224Y00029479D01*
X00001224Y00032191D01*
X00001285Y00032191D01*
X00001333Y00032194D01*
X00001381Y00032203D01*
X00001427Y00032218D01*
X00001471Y00032238D01*
X00001512Y00032263D01*
X00001550Y00032293D01*
X00001584Y00032328D01*
X00001613Y00032367D01*
X00001637Y00032409D01*
X00001656Y00032453D01*
X00001669Y00032499D01*
X00001677Y00032547D01*
X00001679Y00032596D01*
X00001674Y00032644D01*
X00001664Y00032691D01*
X00001648Y00032737D01*
X00001627Y00032780D01*
X00001600Y00032821D01*
X00001569Y00032857D01*
X00001533Y00032890D01*
X00001480Y00032934D01*
X00001470Y00032942D01*
X00001459Y00032950D01*
X00001448Y00032957D01*
X00001436Y00032964D01*
X00001425Y00032971D01*
X00001413Y00032978D01*
X00001401Y00032984D01*
X00001389Y00032989D01*
X00001376Y00032994D01*
X00001364Y00032999D01*
X00001351Y00033003D01*
X00001338Y00033007D01*
X00001325Y00033011D01*
X00001312Y00033014D01*
X00001299Y00033016D01*
X00001286Y00033018D01*
X00001272Y00033020D01*
X00001259Y00033021D01*
X00001246Y00033022D01*
X00001232Y00033022D01*
X00001224Y00033022D01*
X00001224Y00035734D01*
X00002975Y00035734D01*
X00003021Y00035732D01*
X00003066Y00035727D01*
X00003111Y00035719D01*
X00003156Y00035708D01*
X00003199Y00035694D01*
X00003242Y00035678D01*
X00003284Y00035659D01*
X00003324Y00035638D01*
X00003364Y00035614D01*
X00003401Y00035588D01*
X00003435Y00035564D01*
X00003469Y00035543D01*
X00003506Y00035524D01*
X00003543Y00035507D01*
X00003582Y00035493D01*
X00003621Y00035481D01*
X00003661Y00035472D01*
X00003701Y00035465D01*
X00003742Y00035461D01*
X00003783Y00035460D01*
X00004807Y00035460D01*
X00004976Y00035447D01*
X00005141Y00035407D01*
X00005298Y00035342D01*
X00005443Y00035253D01*
X00005572Y00035143D01*
X00005682Y00035014D01*
X00005771Y00034869D01*
X00005836Y00034712D01*
X00005875Y00034547D01*
X00005889Y00034378D01*
X00005875Y00034209D01*
X00005836Y00034044D01*
X00005771Y00033887D01*
X00005682Y00033742D01*
X00005572Y00033613D01*
X00005443Y00033502D01*
X00005298Y00033414D01*
X00005141Y00033349D01*
X00004976Y00033309D01*
X00004807Y00033296D01*
X00004807Y00033296D01*
X00003783Y00033296D01*
X00003743Y00033295D01*
X00003703Y00033291D01*
X00003664Y00033285D01*
X00003625Y00033276D01*
X00003586Y00033265D01*
X00003549Y00033251D01*
X00003512Y00033235D01*
X00003476Y00033217D01*
X00003442Y00033196D01*
X00003427Y00033186D01*
X00003427Y00033186D01*
X00003414Y00033176D01*
X00003400Y00033166D01*
X00003388Y00033155D01*
X00003375Y00033143D01*
X00003364Y00033131D01*
X00003352Y00033119D01*
X00003342Y00033106D01*
X00003331Y00033092D01*
X00003322Y00033079D01*
X00003313Y00033064D01*
X00003304Y00033050D01*
X00003297Y00033035D01*
X00003290Y00033019D01*
X00003283Y00033004D01*
X00003278Y00032988D01*
X00003272Y00032972D01*
X00003268Y00032956D01*
X00003264Y00032939D01*
X00003261Y00032923D01*
X00003259Y00032906D01*
X00003206Y00032432D01*
X00003204Y00032411D01*
X00003203Y00032390D01*
X00003203Y00032369D01*
X00003205Y00032348D01*
X00003208Y00032327D01*
X00003212Y00032306D01*
X00003217Y00032285D01*
X00003223Y00032265D01*
X00003230Y00032245D01*
X00003238Y00032226D01*
X00003247Y00032207D01*
X00003258Y00032188D01*
X00003269Y00032170D01*
X00003281Y00032153D01*
X00003294Y00032136D01*
X00003308Y00032120D01*
X00003323Y00032105D01*
X00003339Y00032091D01*
X00003355Y00032077D01*
X00003372Y00032065D01*
X00003372Y00032065D01*
X00003401Y00032045D01*
X00003435Y00032021D01*
X00003469Y00031999D01*
X00003506Y00031980D01*
X00003543Y00031964D01*
X00003582Y00031949D01*
X00003621Y00031938D01*
X00003661Y00031929D01*
X00003701Y00031922D01*
X00003742Y00031918D01*
X00003783Y00031917D01*
X00004807Y00031917D01*
X00004976Y00031904D01*
X00005141Y00031864D01*
X00005298Y00031799D01*
X00005443Y00031710D01*
X00005572Y00031600D01*
X00005682Y00031471D01*
X00005771Y00031326D01*
X00005836Y00031169D01*
X00005875Y00031004D01*
X00005889Y00030835D01*
X00005875Y00030665D01*
X00005836Y00030500D01*
X00005771Y00030343D01*
X00005682Y00030199D01*
X00005572Y00030069D01*
X00005443Y00029959D01*
X00005298Y00029870D01*
X00005141Y00029805D01*
X00004976Y00029766D01*
X00004807Y00029752D01*
X00004807Y00029753D01*
X00003783Y00029753D01*
X00003743Y00029752D01*
X00003703Y00029748D01*
X00003664Y00029742D01*
X00003625Y00029733D01*
X00003586Y00029721D01*
X00003549Y00029708D01*
X00003512Y00029692D01*
X00003476Y00029673D01*
X00003442Y00029653D01*
X00003409Y00029630D01*
X00003371Y00029603D01*
X00003331Y00029578D01*
X00003290Y00029556D01*
X00003248Y00029536D01*
X00003238Y00029532D01*
X00003238Y00029532D01*
X00003210Y00029520D01*
X00003184Y00029507D01*
X00003159Y00029491D01*
X00003135Y00029473D01*
X00003113Y00029454D01*
X00003092Y00029433D01*
X00003072Y00029410D01*
X00003055Y00029386D01*
X00003039Y00029361D01*
X00003025Y00029335D01*
X00003013Y00029308D01*
X00003004Y00029280D01*
X00002996Y00029251D01*
X00002991Y00029222D01*
X00002988Y00029192D01*
X00002987Y00029163D01*
X00002988Y00029133D01*
X00002991Y00029104D01*
X00002997Y00029075D01*
X00003005Y00029046D01*
X00003120Y00028683D01*
X00003129Y00028660D01*
X00003138Y00028637D01*
X00003150Y00028615D01*
X00003162Y00028593D01*
X00003176Y00028573D01*
X00003191Y00028553D01*
X00003207Y00028534D01*
X00003225Y00028517D01*
X00003244Y00028500D01*
X00003263Y00028485D01*
X00003284Y00028471D01*
X00003305Y00028458D01*
X00003327Y00028447D01*
X00003350Y00028437D01*
X00003373Y00028428D01*
X00003397Y00028421D01*
X00003421Y00028416D01*
X00003446Y00028412D01*
X00003471Y00028410D01*
X00003496Y00028409D01*
X00007781Y00014630D02*
X00007781Y00014630D01*
X00013926Y00014631D01*
X00013926Y00014631D01*
X00013987Y00014626D01*
X00014047Y00014612D01*
X00014104Y00014589D01*
X00014156Y00014557D01*
X00014203Y00014518D01*
X00014243Y00014471D01*
X00014276Y00014419D01*
X00014300Y00014363D01*
X00014314Y00014303D01*
X00014320Y00014242D01*
X00014316Y00014181D01*
X00014303Y00014121D01*
X00014280Y00014064D01*
X00014249Y00014012D01*
X00014210Y00013964D01*
X00014164Y00013924D01*
X00014112Y00013890D01*
X00014056Y00013866D01*
X00013997Y00013850D01*
X00013936Y00013844D01*
X00013861Y00013842D01*
X00013861Y00013842D01*
X00013860Y00013842D01*
X00013860Y00013842D01*
X00013859Y00013842D01*
X00013859Y00013842D01*
X00013859Y00013842D01*
X00013858Y00013842D01*
X00013858Y00013842D01*
X00013857Y00013842D01*
X00013857Y00013842D01*
X00013856Y00013842D01*
X00013856Y00013842D01*
X00013855Y00013842D01*
X00013855Y00013842D01*
X00013854Y00013842D01*
X00013854Y00013842D01*
X00013853Y00013842D01*
X00013853Y00013842D01*
X00013852Y00013842D01*
X00013852Y00013842D01*
X00013852Y00013842D01*
X00007826Y00013842D01*
X00007826Y00013842D01*
X00007826Y00013842D01*
X00007825Y00013842D01*
X00007825Y00013842D01*
X00007825Y00013842D01*
X00007824Y00013842D01*
X00007824Y00013842D01*
X00007823Y00013842D01*
X00007823Y00013842D01*
X00007823Y00013842D01*
X00007822Y00013842D01*
X00007822Y00013842D01*
X00007821Y00013842D01*
X00007821Y00013842D01*
X00007821Y00013842D01*
X00007820Y00013842D01*
X00007820Y00013842D01*
X00007819Y00013842D01*
X00007819Y00013842D01*
X00007818Y00013842D01*
X00007818Y00013842D01*
X00007773Y00013843D01*
X00007712Y00013849D01*
X00007653Y00013865D01*
X00007596Y00013889D01*
X00007545Y00013922D01*
X00007499Y00013963D01*
X00007459Y00014010D01*
X00007428Y00014063D01*
X00007405Y00014120D01*
X00007392Y00014180D01*
X00007388Y00014241D01*
X00007393Y00014302D01*
X00007408Y00014361D01*
X00007432Y00014418D01*
X00007464Y00014470D01*
X00007504Y00014516D01*
X00007551Y00014556D01*
X00007604Y00014588D01*
X00007660Y00014611D01*
X00007720Y00014626D01*
X00007781Y00014630D01*
X00001685Y00001008D02*
X00001685Y00001008D01*
X00001574Y00001014D01*
X00001468Y00001044D01*
X00001370Y00001096D01*
X00001285Y00001167D01*
X00001218Y00001255D01*
X00001172Y00001356D01*
X00001148Y00001464D01*
X00001148Y00001575D01*
X00001172Y00001683D01*
X00001218Y00001783D01*
X00001285Y00001871D01*
X00001370Y00001943D01*
X00001468Y00001995D01*
X00001574Y00002024D01*
X00001685Y00002030D01*
X00001794Y00002012D01*
X00001897Y00001971D01*
X00001988Y00001909D01*
X00002064Y00001829D01*
X00002121Y00001734D01*
X00002157Y00001629D01*
X00002169Y00001519D01*
X00002157Y00001409D01*
X00002121Y00001304D01*
X00002064Y00001209D01*
X00001988Y00001129D01*
X00001897Y00001067D01*
X00001794Y00001026D01*
X00001685Y00001008D01*
X00028488Y00001024D02*
X00028488Y00001024D01*
X00028377Y00001030D01*
X00028271Y00001059D01*
X00028173Y00001111D01*
X00028089Y00001183D01*
X00028022Y00001271D01*
X00027975Y00001372D01*
X00027951Y00001480D01*
X00027951Y00001590D01*
X00027975Y00001698D01*
X00028022Y00001799D01*
X00028089Y00001887D01*
X00028173Y00001959D01*
X00028271Y00002010D01*
X00028377Y00002040D01*
X00028488Y00002046D01*
X00028597Y00002028D01*
X00028700Y00001987D01*
X00028791Y00001925D01*
X00028868Y00001845D01*
X00028925Y00001750D01*
X00028960Y00001645D01*
X00028972Y00001535D01*
X00028960Y00001425D01*
X00028925Y00001320D01*
X00028868Y00001225D01*
X00028791Y00001145D01*
X00028700Y00001083D01*
X00028597Y00001042D01*
X00028488Y00001024D01*
X00004728Y00004380D02*
X00004728Y00004380D01*
X00004560Y00004380D01*
X00004394Y00004402D01*
X00004233Y00004445D01*
X00004078Y00004510D01*
X00003934Y00004593D01*
X00003801Y00004695D01*
X00003683Y00004814D01*
X00003581Y00004946D01*
X00003497Y00005091D01*
X00003433Y00005246D01*
X00003390Y00005407D01*
X00003368Y00005573D01*
X00003368Y00005741D01*
X00003390Y00005907D01*
X00003433Y00006068D01*
X00003497Y00006223D01*
X00003581Y00006368D01*
X00003683Y00006500D01*
X00003801Y00006619D01*
X00003934Y00006721D01*
X00004078Y00006804D01*
X00004233Y00006869D01*
X00004394Y00006912D01*
X00004560Y00006934D01*
X00004728Y00006934D01*
X00004894Y00006912D01*
X00005055Y00006869D01*
X00005210Y00006805D01*
X00005355Y00006722D01*
X00005488Y00006620D01*
X00005606Y00006502D01*
X00005708Y00006370D01*
X00005708Y00004944D01*
X00005606Y00004812D01*
X00005488Y00004694D01*
X00005355Y00004592D01*
X00005210Y00004509D01*
X00005055Y00004445D01*
X00004894Y00004402D01*
X00004728Y00004380D01*
X00009846Y00004380D02*
X00009846Y00004380D01*
X00009678Y00004380D01*
X00009513Y00004402D01*
X00009351Y00004445D01*
X00009197Y00004510D01*
X00009052Y00004593D01*
X00008919Y00004695D01*
X00008801Y00004814D01*
X00008699Y00004946D01*
X00008615Y00005091D01*
X00008551Y00005246D01*
X00008508Y00005407D01*
X00008486Y00005573D01*
X00008486Y00005741D01*
X00008508Y00005907D01*
X00008551Y00006068D01*
X00008615Y00006223D01*
X00008699Y00006368D01*
X00008801Y00006500D01*
X00008919Y00006619D01*
X00009052Y00006721D01*
X00009197Y00006804D01*
X00009351Y00006869D01*
X00009513Y00006912D01*
X00009678Y00006934D01*
X00009846Y00006934D01*
X00010012Y00006912D01*
X00010173Y00006869D01*
X00010328Y00006805D01*
X00010473Y00006722D01*
X00010606Y00006620D01*
X00010724Y00006502D01*
X00010826Y00006370D01*
X00010826Y00004944D01*
X00010724Y00004812D01*
X00010606Y00004694D01*
X00010473Y00004592D01*
X00010328Y00004509D01*
X00010173Y00004445D01*
X00010012Y00004402D01*
X00009846Y00004380D01*
X00014964Y00004380D02*
X00014964Y00004380D01*
X00014797Y00004380D01*
X00014631Y00004402D01*
X00014469Y00004445D01*
X00014315Y00004510D01*
X00014170Y00004593D01*
X00014037Y00004695D01*
X00013919Y00004814D01*
X00013817Y00004946D01*
X00013733Y00005091D01*
X00013669Y00005246D01*
X00013626Y00005407D01*
X00013604Y00005573D01*
X00013604Y00005741D01*
X00013626Y00005907D01*
X00013669Y00006068D01*
X00013733Y00006223D01*
X00013817Y00006368D01*
X00013919Y00006500D01*
X00014037Y00006619D01*
X00014170Y00006721D01*
X00014315Y00006804D01*
X00014469Y00006869D01*
X00014631Y00006912D01*
X00014797Y00006934D01*
X00014964Y00006934D01*
X00015130Y00006912D01*
X00015291Y00006869D01*
X00015446Y00006805D01*
X00015591Y00006722D01*
X00015724Y00006620D01*
X00015842Y00006502D01*
X00015944Y00006370D01*
X00015944Y00004944D01*
X00015842Y00004812D01*
X00015724Y00004694D01*
X00015591Y00004592D01*
X00015446Y00004509D01*
X00015291Y00004445D01*
X00015130Y00004402D01*
X00014964Y00004380D01*
X00020476Y00004380D02*
X00020476Y00004380D01*
X00020308Y00004380D01*
X00020143Y00004402D01*
X00019981Y00004445D01*
X00019826Y00004510D01*
X00019682Y00004593D01*
X00019549Y00004695D01*
X00019431Y00004814D01*
X00019329Y00004946D01*
X00019245Y00005091D01*
X00019181Y00005246D01*
X00019138Y00005407D01*
X00019116Y00005573D01*
X00019116Y00005741D01*
X00019138Y00005907D01*
X00019181Y00006068D01*
X00019245Y00006223D01*
X00019329Y00006368D01*
X00019431Y00006500D01*
X00019549Y00006619D01*
X00019682Y00006721D01*
X00019826Y00006804D01*
X00019981Y00006869D01*
X00020143Y00006912D01*
X00020308Y00006934D01*
X00020476Y00006934D01*
X00020642Y00006912D01*
X00020803Y00006869D01*
X00020958Y00006805D01*
X00021103Y00006722D01*
X00021236Y00006620D01*
X00021354Y00006502D01*
X00021456Y00006370D01*
X00021456Y00004944D01*
X00021354Y00004812D01*
X00021236Y00004694D01*
X00021103Y00004592D01*
X00020958Y00004509D01*
X00020803Y00004445D01*
X00020642Y00004402D01*
X00020476Y00004380D01*
X00025594Y00004380D02*
X00025594Y00004380D01*
X00025426Y00004380D01*
X00025261Y00004402D01*
X00025099Y00004445D01*
X00024945Y00004510D01*
X00024800Y00004593D01*
X00024667Y00004695D01*
X00024549Y00004814D01*
X00024447Y00004946D01*
X00024363Y00005091D01*
X00024299Y00005246D01*
X00024256Y00005407D01*
X00024234Y00005573D01*
X00024234Y00005741D01*
X00024256Y00005907D01*
X00024299Y00006068D01*
X00024363Y00006223D01*
X00024447Y00006368D01*
X00024549Y00006500D01*
X00024667Y00006619D01*
X00024800Y00006721D01*
X00024945Y00006804D01*
X00025099Y00006869D01*
X00025261Y00006912D01*
X00025426Y00006934D01*
X00025594Y00006934D01*
X00025760Y00006912D01*
X00025921Y00006869D01*
X00026076Y00006805D01*
X00026221Y00006722D01*
X00026354Y00006620D01*
X00026472Y00006502D01*
X00026574Y00006370D01*
X00026574Y00004944D01*
X00026472Y00004812D01*
X00026354Y00004694D01*
X00026221Y00004592D01*
X00026076Y00004509D01*
X00025921Y00004445D01*
X00025760Y00004402D01*
X00025594Y00004380D01*
X00004728Y00009892D02*
X00004728Y00009892D01*
X00004560Y00009892D01*
X00004394Y00009914D01*
X00004233Y00009957D01*
X00004078Y00010021D01*
X00003934Y00010105D01*
X00003801Y00010207D01*
X00003683Y00010325D01*
X00003581Y00010458D01*
X00003497Y00010603D01*
X00003433Y00010758D01*
X00003390Y00010919D01*
X00003368Y00011085D01*
X00003368Y00011252D01*
X00003390Y00011418D01*
X00003433Y00011580D01*
X00003497Y00011735D01*
X00003581Y00011879D01*
X00003683Y00012012D01*
X00003801Y00012131D01*
X00003934Y00012232D01*
X00004078Y00012316D01*
X00004233Y00012380D01*
X00004394Y00012424D01*
X00004560Y00012446D01*
X00004728Y00012446D01*
X00004894Y00012424D01*
X00005055Y00012381D01*
X00005210Y00012317D01*
X00005355Y00012234D01*
X00005488Y00012132D01*
X00005606Y00012014D01*
X00005708Y00011881D01*
X00005708Y00010456D01*
X00005606Y00010324D01*
X00005488Y00010205D01*
X00005355Y00010104D01*
X00005210Y00010020D01*
X00005055Y00009957D01*
X00004894Y00009913D01*
X00004728Y00009892D01*
X00009846Y00009892D02*
X00009846Y00009892D01*
X00009678Y00009892D01*
X00009513Y00009914D01*
X00009351Y00009957D01*
X00009197Y00010021D01*
X00009052Y00010105D01*
X00008919Y00010207D01*
X00008801Y00010325D01*
X00008699Y00010458D01*
X00008615Y00010603D01*
X00008551Y00010758D01*
X00008508Y00010919D01*
X00008486Y00011085D01*
X00008486Y00011252D01*
X00008508Y00011418D01*
X00008551Y00011580D01*
X00008615Y00011735D01*
X00008699Y00011879D01*
X00008801Y00012012D01*
X00008919Y00012131D01*
X00009052Y00012232D01*
X00009197Y00012316D01*
X00009351Y00012380D01*
X00009513Y00012424D01*
X00009678Y00012446D01*
X00009846Y00012446D01*
X00010012Y00012424D01*
X00010173Y00012381D01*
X00010328Y00012317D01*
X00010473Y00012234D01*
X00010606Y00012132D01*
X00010724Y00012014D01*
X00010826Y00011881D01*
X00010826Y00010456D01*
X00010724Y00010324D01*
X00010606Y00010205D01*
X00010473Y00010104D01*
X00010328Y00010020D01*
X00010173Y00009957D01*
X00010012Y00009913D01*
X00009846Y00009892D01*
X00014964Y00009892D02*
X00014964Y00009892D01*
X00014797Y00009892D01*
X00014631Y00009914D01*
X00014469Y00009957D01*
X00014315Y00010021D01*
X00014170Y00010105D01*
X00014037Y00010207D01*
X00013919Y00010325D01*
X00013817Y00010458D01*
X00013733Y00010603D01*
X00013669Y00010758D01*
X00013626Y00010919D01*
X00013604Y00011085D01*
X00013604Y00011252D01*
X00013626Y00011418D01*
X00013669Y00011580D01*
X00013733Y00011735D01*
X00013817Y00011879D01*
X00013919Y00012012D01*
X00014037Y00012131D01*
X00014170Y00012232D01*
X00014315Y00012316D01*
X00014469Y00012380D01*
X00014631Y00012424D01*
X00014797Y00012446D01*
X00014964Y00012446D01*
X00015130Y00012424D01*
X00015291Y00012381D01*
X00015446Y00012317D01*
X00015591Y00012234D01*
X00015724Y00012132D01*
X00015842Y00012014D01*
X00015944Y00011881D01*
X00015944Y00010456D01*
X00015842Y00010324D01*
X00015724Y00010205D01*
X00015591Y00010104D01*
X00015446Y00010020D01*
X00015291Y00009957D01*
X00015130Y00009913D01*
X00014964Y00009892D01*
X00020476Y00009892D02*
X00020476Y00009892D01*
X00020308Y00009892D01*
X00020143Y00009914D01*
X00019981Y00009957D01*
X00019826Y00010021D01*
X00019682Y00010105D01*
X00019549Y00010207D01*
X00019431Y00010325D01*
X00019329Y00010458D01*
X00019245Y00010603D01*
X00019181Y00010758D01*
X00019138Y00010919D01*
X00019116Y00011085D01*
X00019116Y00011252D01*
X00019138Y00011418D01*
X00019181Y00011580D01*
X00019245Y00011735D01*
X00019329Y00011879D01*
X00019431Y00012012D01*
X00019549Y00012131D01*
X00019682Y00012232D01*
X00019826Y00012316D01*
X00019981Y00012380D01*
X00020143Y00012424D01*
X00020308Y00012446D01*
X00020476Y00012446D01*
X00020642Y00012424D01*
X00020803Y00012381D01*
X00020958Y00012317D01*
X00021103Y00012234D01*
X00021236Y00012132D01*
X00021354Y00012014D01*
X00021456Y00011881D01*
X00021456Y00010456D01*
X00021354Y00010324D01*
X00021236Y00010205D01*
X00021103Y00010104D01*
X00020958Y00010020D01*
X00020803Y00009957D01*
X00020642Y00009913D01*
X00020476Y00009892D01*
X00025594Y00009892D02*
X00025594Y00009892D01*
X00025426Y00009892D01*
X00025261Y00009914D01*
X00025099Y00009957D01*
X00024945Y00010021D01*
X00024800Y00010105D01*
X00024667Y00010207D01*
X00024549Y00010325D01*
X00024447Y00010458D01*
X00024363Y00010603D01*
X00024299Y00010758D01*
X00024256Y00010919D01*
X00024234Y00011085D01*
X00024234Y00011252D01*
X00024256Y00011418D01*
X00024299Y00011580D01*
X00024363Y00011735D01*
X00024447Y00011879D01*
X00024549Y00012012D01*
X00024667Y00012131D01*
X00024800Y00012232D01*
X00024945Y00012316D01*
X00025099Y00012380D01*
X00025261Y00012424D01*
X00025426Y00012446D01*
X00025594Y00012446D01*
X00025760Y00012424D01*
X00025921Y00012381D01*
X00026076Y00012317D01*
X00026221Y00012234D01*
X00026354Y00012132D01*
X00026472Y00012014D01*
X00026574Y00011881D01*
X00026574Y00010456D01*
X00026472Y00010324D01*
X00026354Y00010205D01*
X00026221Y00010104D01*
X00026076Y00010020D01*
X00025921Y00009957D01*
X00025760Y00009913D01*
X00025594Y00009892D01*
X00001689Y00011855D02*
X00001689Y00011855D01*
X00001578Y00011861D01*
X00001471Y00011890D01*
X00001374Y00011942D01*
X00001289Y00012014D01*
X00001222Y00012102D01*
X00001176Y00012202D01*
X00001152Y00012310D01*
X00001152Y00012421D01*
X00001176Y00012529D01*
X00001222Y00012630D01*
X00001289Y00012718D01*
X00001374Y00012789D01*
X00001471Y00012841D01*
X00001578Y00012871D01*
X00001689Y00012877D01*
X00001798Y00012859D01*
X00001901Y00012818D01*
X00001992Y00012756D01*
X00002068Y00012675D01*
X00002125Y00012581D01*
X00002161Y00012476D01*
X00002173Y00012366D01*
X00002161Y00012256D01*
X00002125Y00012151D01*
X00002068Y00012056D01*
X00001992Y00011976D01*
X00001901Y00011913D01*
X00001798Y00011872D01*
X00001689Y00011855D01*
X00028504Y00011866D02*
X00028504Y00011866D01*
X00028393Y00011872D01*
X00028286Y00011902D01*
X00028189Y00011954D01*
X00028104Y00012025D01*
X00028037Y00012114D01*
X00027991Y00012214D01*
X00027967Y00012322D01*
X00027967Y00012433D01*
X00027991Y00012541D01*
X00028037Y00012641D01*
X00028104Y00012729D01*
X00028189Y00012801D01*
X00028286Y00012853D01*
X00028393Y00012883D01*
X00028504Y00012889D01*
X00028613Y00012871D01*
X00028716Y00012830D01*
X00028807Y00012768D01*
X00028883Y00012687D01*
X00028940Y00012592D01*
X00028976Y00012487D01*
X00028988Y00012377D01*
X00028976Y00012267D01*
X00028940Y00012163D01*
X00028883Y00012068D01*
X00028807Y00011987D01*
X00028716Y00011925D01*
X00028613Y00011884D01*
X00028504Y00011866D01*
X00015281Y00013842D02*
X00015281Y00013842D01*
X00022695Y00013842D01*
X00022696Y00013842D01*
X00022697Y00013842D01*
X00022698Y00013842D01*
X00022699Y00013842D01*
X00022700Y00013842D01*
X00022701Y00013842D01*
X00022702Y00013842D01*
X00022703Y00013842D01*
X00022704Y00013842D01*
X00022705Y00013842D01*
X00022706Y00013842D01*
X00022707Y00013842D01*
X00022708Y00013842D01*
X00022709Y00013842D01*
X00022710Y00013842D01*
X00022711Y00013842D01*
X00022712Y00013842D01*
X00022713Y00013842D01*
X00022715Y00013843D01*
X00022716Y00013843D01*
X00022772Y00013846D01*
X00022833Y00013854D01*
X00022891Y00013871D01*
X00022946Y00013896D01*
X00022996Y00013930D01*
X00023041Y00013972D01*
X00023078Y00014019D01*
X00023108Y00014072D01*
X00023129Y00014129D01*
X00023142Y00014189D01*
X00023145Y00014249D01*
X00023139Y00014310D01*
X00023123Y00014368D01*
X00023099Y00014424D01*
X00023066Y00014475D01*
X00023026Y00014521D01*
X00022979Y00014560D01*
X00022927Y00014591D01*
X00022871Y00014614D01*
X00022812Y00014628D01*
X00022751Y00014632D01*
X00015206Y00014631D01*
X00015206Y00014631D01*
X00015145Y00014627D01*
X00015086Y00014612D01*
X00015029Y00014589D01*
X00014977Y00014557D01*
X00014930Y00014518D01*
X00014890Y00014472D01*
X00014857Y00014420D01*
X00014833Y00014363D01*
X00014818Y00014304D01*
X00014813Y00014243D01*
X00014817Y00014182D01*
X00014830Y00014122D01*
X00014853Y00014065D01*
X00014884Y00014012D01*
X00014923Y00013965D01*
X00014968Y00013924D01*
X00015020Y00013891D01*
X00015076Y00013866D01*
X00015135Y00013851D01*
X00015196Y00013844D01*
X00015271Y00013842D01*
X00015271Y00013842D01*
X00015272Y00013842D01*
X00015272Y00013842D01*
X00015273Y00013842D01*
X00015273Y00013842D01*
X00015274Y00013842D01*
X00015274Y00013842D01*
X00015275Y00013842D01*
X00015275Y00013842D01*
X00015276Y00013842D01*
X00015276Y00013842D01*
X00015277Y00013842D01*
X00015277Y00013842D01*
X00015278Y00013842D01*
X00015278Y00013842D01*
X00015279Y00013842D01*
X00015279Y00013842D01*
X00015280Y00013842D01*
X00015280Y00013842D01*
X00015281Y00013842D01*
M02*