%MOIN*%
%OFA0B0*%
%FSLAX46Y46*%
%IPPOS*%
%LPD*%
%ADD10C,0.005905511811023622*%
%ADD11C,0.01968503937007874*%
%ADD22C,0.005905511811023622*%
%ADD23C,0.01968503937007874*%
%ADD34C,0.005905511811023622*%
%ADD35C,0.011811023622047244*%
%ADD36C,0.015748031496062995*%
%ADD47C,0.005905511811023622*%
%ADD48C,0.011811023622047244*%
%ADD59C,0.005905511811023622*%
%ADD60C,0.01968503937007874*%
%ADD71C,0.005905511811023622*%
%ADD72C,0.01968503937007874*%
%LPD*%
G01G01G01G01*
D10*
D11*
X0002184570Y0003511623D02*
X0002199568Y0003511623D01*
X0002207067Y0003515371D01*
X0002210817Y0003519122D01*
X0002218316Y0003530371D01*
X0002222065Y0003545369D01*
X0002222065Y0003575365D01*
X0002218316Y0003582864D01*
X0002214566Y0003586614D01*
X0002207067Y0003590363D01*
X0002192069Y0003590363D01*
X0002184570Y0003586614D01*
X0002180821Y0003582864D01*
X0002177071Y0003575365D01*
X0002177071Y0003556617D01*
X0002180821Y0003549118D01*
X0002184570Y0003545369D01*
X0002192069Y0003541619D01*
X0002207067Y0003541619D01*
X0002214566Y0003545369D01*
X0002218316Y0003549118D01*
X0002222065Y0003556617D01*
X0002248312Y0003590363D02*
X0002300806Y0003590363D01*
X0002267060Y0003511623D01*
X0002390794Y0003511623D02*
X0002390794Y0003564116D01*
X0002390794Y0003556617D02*
X0002394544Y0003560367D01*
X0002402043Y0003564116D01*
X0002413292Y0003564116D01*
X0002420791Y0003560367D01*
X0002424540Y0003552868D01*
X0002424540Y0003511623D01*
X0002424540Y0003552868D02*
X0002428290Y0003560367D01*
X0002435789Y0003564116D01*
X0002447037Y0003564116D01*
X0002454536Y0003560367D01*
X0002458286Y0003552868D01*
X0002458286Y0003511623D01*
X0002495781Y0003511623D02*
X0002495781Y0003564116D01*
X0002495781Y0003556617D02*
X0002499531Y0003560367D01*
X0002507030Y0003564116D01*
X0002518278Y0003564116D01*
X0002525777Y0003560367D01*
X0002529527Y0003552868D01*
X0002529527Y0003511623D01*
X0002529527Y0003552868D02*
X0002533277Y0003560367D01*
X0002540776Y0003564116D01*
X0002552024Y0003564116D01*
X0002559523Y0003560367D01*
X0002563273Y0003552868D01*
X0002563273Y0003511623D01*
X0002219253Y0003403168D02*
X0002211754Y0003399418D01*
X0002196756Y0003399418D01*
X0002189257Y0003403168D01*
X0002185508Y0003410667D01*
X0002185508Y0003440663D01*
X0002189257Y0003448162D01*
X0002196756Y0003451912D01*
X0002211754Y0003451912D01*
X0002219253Y0003448162D01*
X0002223003Y0003440663D01*
X0002223003Y0003433164D01*
X0002185508Y0003425665D01*
X0002256749Y0003451912D02*
X0002256749Y0003399418D01*
X0002256749Y0003444412D02*
X0002260498Y0003448162D01*
X0002267997Y0003451912D01*
X0002279246Y0003451912D01*
X0002286745Y0003448162D01*
X0002290494Y0003440663D01*
X0002290494Y0003399418D01*
X0002361736Y0003403168D02*
X0002354236Y0003399418D01*
X0002339238Y0003399418D01*
X0002331739Y0003403168D01*
X0002327990Y0003406917D01*
X0002324240Y0003414416D01*
X0002324240Y0003436914D01*
X0002327990Y0003444412D01*
X0002331739Y0003448162D01*
X0002339238Y0003451912D01*
X0002354236Y0003451912D01*
X0002361736Y0003448162D01*
X0002406730Y0003399418D02*
X0002399231Y0003403168D01*
X0002395481Y0003410667D01*
X0002395481Y0003478158D01*
X0002436726Y0003406917D02*
X0002440476Y0003403168D01*
X0002436726Y0003399418D01*
X0002432977Y0003403168D01*
X0002436726Y0003406917D01*
X0002436726Y0003399418D01*
G01G01G01G01*
D22*
D23*
X0003168822Y0003515560D02*
X0003183819Y0003515560D01*
X0003191319Y0003519310D01*
X0003195069Y0003523059D01*
X0003202568Y0003534308D01*
X0003206317Y0003549305D01*
X0003206317Y0003579302D01*
X0003202568Y0003586801D01*
X0003198818Y0003590551D01*
X0003191319Y0003594300D01*
X0003176321Y0003594300D01*
X0003168822Y0003590551D01*
X0003165073Y0003586801D01*
X0003161323Y0003579302D01*
X0003161323Y0003560555D01*
X0003165073Y0003553056D01*
X0003168822Y0003549305D01*
X0003176321Y0003545556D01*
X0003191319Y0003545556D01*
X0003198818Y0003549305D01*
X0003202568Y0003553056D01*
X0003206317Y0003560555D01*
X0003232563Y0003594300D02*
X0003285058Y0003594300D01*
X0003251312Y0003515560D01*
X0003375046Y0003515560D02*
X0003375046Y0003568054D01*
X0003375046Y0003560555D02*
X0003378796Y0003564304D01*
X0003386295Y0003568054D01*
X0003397544Y0003568054D01*
X0003405043Y0003564304D01*
X0003408792Y0003556805D01*
X0003408792Y0003515560D01*
X0003408792Y0003556805D02*
X0003412542Y0003564304D01*
X0003420040Y0003568054D01*
X0003431289Y0003568054D01*
X0003438788Y0003564304D01*
X0003442538Y0003556805D01*
X0003442538Y0003515560D01*
X0003480033Y0003515560D02*
X0003480033Y0003568054D01*
X0003480033Y0003560555D02*
X0003483783Y0003564304D01*
X0003491282Y0003568054D01*
X0003502530Y0003568054D01*
X0003510029Y0003564304D01*
X0003513779Y0003556805D01*
X0003513779Y0003515560D01*
X0003513779Y0003556805D02*
X0003517529Y0003564304D01*
X0003525028Y0003568054D01*
X0003536276Y0003568054D01*
X0003543775Y0003564304D01*
X0003547525Y0003556805D01*
X0003547525Y0003515560D01*
X0003203505Y0003407105D02*
X0003196006Y0003403355D01*
X0003181008Y0003403355D01*
X0003173509Y0003407105D01*
X0003169760Y0003414603D01*
X0003169760Y0003444600D01*
X0003173509Y0003452099D01*
X0003181008Y0003455849D01*
X0003196006Y0003455849D01*
X0003203505Y0003452099D01*
X0003207255Y0003444600D01*
X0003207255Y0003437101D01*
X0003169760Y0003429602D01*
X0003241001Y0003455849D02*
X0003241001Y0003403355D01*
X0003241001Y0003448350D02*
X0003244750Y0003452099D01*
X0003252249Y0003455849D01*
X0003263498Y0003455849D01*
X0003270997Y0003452099D01*
X0003274746Y0003444600D01*
X0003274746Y0003403355D01*
X0003345987Y0003407105D02*
X0003338488Y0003403355D01*
X0003323490Y0003403355D01*
X0003315991Y0003407105D01*
X0003312242Y0003410855D01*
X0003308492Y0003418354D01*
X0003308492Y0003440851D01*
X0003312242Y0003448350D01*
X0003315991Y0003452099D01*
X0003323490Y0003455849D01*
X0003338488Y0003455849D01*
X0003345987Y0003452099D01*
X0003390982Y0003403355D02*
X0003383483Y0003407105D01*
X0003379733Y0003414603D01*
X0003379733Y0003482096D01*
X0003420978Y0003410855D02*
X0003424728Y0003407105D01*
X0003420978Y0003403355D01*
X0003417229Y0003407105D01*
X0003420978Y0003410855D01*
X0003420978Y0003403355D01*
G04 next file*
G01G01G01G01G01G01G01G01*
D34*
D35*
X0002007829Y0000146714D02*
X0002019078Y0000146714D01*
X0002024703Y0000149526D01*
X0002027515Y0000152338D01*
X0002033138Y0000160774D01*
X0002035950Y0000172023D01*
X0002035950Y0000194520D01*
X0002033138Y0000200144D01*
X0002030327Y0000202957D01*
X0002024703Y0000205769D01*
X0002013453Y0000205769D01*
X0002007829Y0000202957D01*
X0002005018Y0000200144D01*
X0002002206Y0000194520D01*
X0002002206Y0000180459D01*
X0002005018Y0000174835D01*
X0002007829Y0000172023D01*
X0002013453Y0000169211D01*
X0002024703Y0000169211D01*
X0002030327Y0000172023D01*
X0002033138Y0000174835D01*
X0002035950Y0000180459D01*
X0002055635Y0000205769D02*
X0002095006Y0000205769D01*
X0002069697Y0000146714D01*
X0002111879Y0000146714D02*
X0002142813Y0000186084D01*
X0002111879Y0000186084D02*
X0002142813Y0000146714D01*
X0002190620Y0000186084D02*
X0002190620Y0000146714D01*
X0002176559Y0000208581D02*
X0002162498Y0000166399D01*
X0002199056Y0000166399D01*
X0002232802Y0000205769D02*
X0002238426Y0000205769D01*
X0002244050Y0000202957D01*
X0002246862Y0000200144D01*
X0002249675Y0000194520D01*
X0002252487Y0000183272D01*
X0002252487Y0000169211D01*
X0002249675Y0000157962D01*
X0002246862Y0000152338D01*
X0002244050Y0000149526D01*
X0002238426Y0000146714D01*
X0002232802Y0000146714D01*
X0002227177Y0000149526D01*
X0002224365Y0000152338D01*
X0002221553Y0000157962D01*
X0002218741Y0000169211D01*
X0002218741Y0000183272D01*
X0002221553Y0000194520D01*
X0002224365Y0000200144D01*
X0002227177Y0000202957D01*
X0002232802Y0000205769D01*
X0002272172Y0000146714D02*
X0002303105Y0000186084D01*
X0002272172Y0000186084D02*
X0002303105Y0000146714D01*
X0002356536Y0000146714D02*
X0002322790Y0000146714D01*
X0002339663Y0000146714D02*
X0002339663Y0000205769D01*
X0002334039Y0000197332D01*
X0002328415Y0000191708D01*
X0002322790Y0000188896D01*
X0002393094Y0000205769D02*
X0002398718Y0000205769D01*
X0002404343Y0000202957D01*
X0002407155Y0000200144D01*
X0002409967Y0000194520D01*
X0002412779Y0000183272D01*
X0002412779Y0000169211D01*
X0002409967Y0000157962D01*
X0002407155Y0000152338D01*
X0002404343Y0000149526D01*
X0002398718Y0000146714D01*
X0002393094Y0000146714D01*
X0002387470Y0000149526D01*
X0002384658Y0000152338D01*
X0002381846Y0000157962D01*
X0002379033Y0000169211D01*
X0002379033Y0000183272D01*
X0002381846Y0000194520D01*
X0002384658Y0000200144D01*
X0002387470Y0000202957D01*
X0002393094Y0000205769D01*
X0002449337Y0000205769D02*
X0002454961Y0000205769D01*
X0002460586Y0000202957D01*
X0002463398Y0000200144D01*
X0002466210Y0000194520D01*
X0002469022Y0000183272D01*
X0002469022Y0000169211D01*
X0002466210Y0000157962D01*
X0002463398Y0000152338D01*
X0002460586Y0000149526D01*
X0002454961Y0000146714D01*
X0002449337Y0000146714D01*
X0002443713Y0000149526D01*
X0002440901Y0000152338D01*
X0002438089Y0000157962D01*
X0002435276Y0000169211D01*
X0002435276Y0000183272D01*
X0002438089Y0000194520D01*
X0002440901Y0000200144D01*
X0002443713Y0000202957D01*
X0002449337Y0000205769D01*
X0002561823Y0000149526D02*
X0002556199Y0000146714D01*
X0002544950Y0000146714D01*
X0002539326Y0000149526D01*
X0002536514Y0000155150D01*
X0002536514Y0000177647D01*
X0002539326Y0000183272D01*
X0002544950Y0000186084D01*
X0002556199Y0000186084D01*
X0002561823Y0000183272D01*
X0002564635Y0000177647D01*
X0002564635Y0000172023D01*
X0002536514Y0000166399D01*
X0002589945Y0000186084D02*
X0002589945Y0000146714D01*
X0002589945Y0000180459D02*
X0002592757Y0000183272D01*
X0002598381Y0000186084D01*
X0002606817Y0000186084D01*
X0002612442Y0000183272D01*
X0002615254Y0000177647D01*
X0002615254Y0000146714D01*
X0002668685Y0000149526D02*
X0002663060Y0000146714D01*
X0002651812Y0000146714D01*
X0002646188Y0000149526D01*
X0002643375Y0000152338D01*
X0002640563Y0000157962D01*
X0002640563Y0000174835D01*
X0002643375Y0000180459D01*
X0002646188Y0000183272D01*
X0002651812Y0000186084D01*
X0002663060Y0000186084D01*
X0002668685Y0000183272D01*
X0002702431Y0000146714D02*
X0002696806Y0000149526D01*
X0002693994Y0000155150D01*
X0002693994Y0000205769D01*
X0002733364Y0000146714D02*
X0002727740Y0000149526D01*
X0002724928Y0000152338D01*
X0002722116Y0000157962D01*
X0002722116Y0000174835D01*
X0002724928Y0000180459D01*
X0002727740Y0000183272D01*
X0002733364Y0000186084D01*
X0002741801Y0000186084D01*
X0002747425Y0000183272D01*
X0002750237Y0000180459D01*
X0002753049Y0000174835D01*
X0002753049Y0000157962D01*
X0002750237Y0000152338D01*
X0002747425Y0000149526D01*
X0002741801Y0000146714D01*
X0002733364Y0000146714D01*
X0002775546Y0000149526D02*
X0002781171Y0000146714D01*
X0002792419Y0000146714D01*
X0002798044Y0000149526D01*
X0002800856Y0000155150D01*
X0002800856Y0000157962D01*
X0002798044Y0000163586D01*
X0002792419Y0000166399D01*
X0002783983Y0000166399D01*
X0002778359Y0000169211D01*
X0002775546Y0000174835D01*
X0002775546Y0000177647D01*
X0002778359Y0000183272D01*
X0002783983Y0000186084D01*
X0002792419Y0000186084D01*
X0002798044Y0000183272D01*
X0002851474Y0000186084D02*
X0002851474Y0000146714D01*
X0002826165Y0000186084D02*
X0002826165Y0000155150D01*
X0002828977Y0000149526D01*
X0002834602Y0000146714D01*
X0002843038Y0000146714D01*
X0002848662Y0000149526D01*
X0002851474Y0000152338D01*
X0002879596Y0000146714D02*
X0002879596Y0000186084D01*
X0002879596Y0000174835D02*
X0002882408Y0000180459D01*
X0002885220Y0000183272D01*
X0002890844Y0000186084D01*
X0002896468Y0000186084D01*
X0002938651Y0000149526D02*
X0002933027Y0000146714D01*
X0002921778Y0000146714D01*
X0002916154Y0000149526D01*
X0002913342Y0000155150D01*
X0002913342Y0000177647D01*
X0002916154Y0000183272D01*
X0002921778Y0000186084D01*
X0002933027Y0000186084D01*
X0002938651Y0000183272D01*
X0002941463Y0000177647D01*
X0002941463Y0000172023D01*
X0002913342Y0000166399D01*
X0003008955Y0000149526D02*
X0003014579Y0000146714D01*
X0003025828Y0000146714D01*
X0003031452Y0000149526D01*
X0003034264Y0000155150D01*
X0003034264Y0000157962D01*
X0003031452Y0000163586D01*
X0003025828Y0000166399D01*
X0003017391Y0000166399D01*
X0003011767Y0000169211D01*
X0003008955Y0000174835D01*
X0003008955Y0000177647D01*
X0003011767Y0000183272D01*
X0003017391Y0000186084D01*
X0003025828Y0000186084D01*
X0003031452Y0000183272D01*
X0003059573Y0000186084D02*
X0003059573Y0000127029D01*
X0003059573Y0000183272D02*
X0003065198Y0000186084D01*
X0003076446Y0000186084D01*
X0003082071Y0000183272D01*
X0003084883Y0000180459D01*
X0003087695Y0000174835D01*
X0003087695Y0000157962D01*
X0003084883Y0000152338D01*
X0003082071Y0000149526D01*
X0003076446Y0000146714D01*
X0003065198Y0000146714D01*
X0003059573Y0000149526D01*
X0003121441Y0000146714D02*
X0003115816Y0000149526D01*
X0003113004Y0000155150D01*
X0003113004Y0000205769D01*
X0003143938Y0000146714D02*
X0003143938Y0000186084D01*
X0003143938Y0000205769D02*
X0003141126Y0000202957D01*
X0003143938Y0000200144D01*
X0003146750Y0000202957D01*
X0003143938Y0000205769D01*
X0003143938Y0000200144D01*
X0003163623Y0000186084D02*
X0003186120Y0000186084D01*
X0003172059Y0000205769D02*
X0003172059Y0000155150D01*
X0003174870Y0000149526D01*
X0003180496Y0000146714D01*
X0003186120Y0000146714D01*
X0003247986Y0000149526D02*
X0003253612Y0000146714D01*
X0003264860Y0000146714D01*
X0003270485Y0000149526D01*
X0003273296Y0000155150D01*
X0003273296Y0000157962D01*
X0003270485Y0000163586D01*
X0003264860Y0000166399D01*
X0003256424Y0000166399D01*
X0003250799Y0000169211D01*
X0003247986Y0000174835D01*
X0003247986Y0000177647D01*
X0003250799Y0000183272D01*
X0003256424Y0000186084D01*
X0003264860Y0000186084D01*
X0003270485Y0000183272D01*
X0003298606Y0000146714D02*
X0003298606Y0000205769D01*
X0003323914Y0000146714D02*
X0003323914Y0000177647D01*
X0003321103Y0000183272D01*
X0003315479Y0000186084D01*
X0003307042Y0000186084D01*
X0003301418Y0000183272D01*
X0003298606Y0000180459D01*
X0003374534Y0000149526D02*
X0003368910Y0000146714D01*
X0003357661Y0000146714D01*
X0003352037Y0000149526D01*
X0003349225Y0000155150D01*
X0003349225Y0000177647D01*
X0003352037Y0000183272D01*
X0003357661Y0000186084D01*
X0003368910Y0000186084D01*
X0003374534Y0000183272D01*
X0003377346Y0000177647D01*
X0003377346Y0000172023D01*
X0003349225Y0000166399D01*
X0003411091Y0000146714D02*
X0003405468Y0000149526D01*
X0003402655Y0000155150D01*
X0003402655Y0000205769D01*
X0003442026Y0000146714D02*
X0003436401Y0000149526D01*
X0003433589Y0000155150D01*
X0003433589Y0000205769D01*
D36*
X0002930871Y0000525510D02*
X0002954868Y0000525510D01*
X0002939870Y0000546507D02*
X0002939870Y0000492514D01*
X0002942869Y0000486515D01*
X0002948868Y0000483515D01*
X0002954868Y0000483515D01*
X0002969866Y0000483515D02*
X0003002862Y0000525510D01*
X0002969866Y0000525510D02*
X0003002862Y0000483515D01*
X0003023859Y0000540508D02*
X0003026859Y0000543508D01*
X0003032858Y0000546507D01*
X0003047856Y0000546507D01*
X0003053855Y0000543508D01*
X0003056855Y0000540508D01*
X0003059855Y0000534509D01*
X0003059855Y0000528510D01*
X0003056855Y0000519510D01*
X0003020859Y0000483515D01*
X0003059855Y0000483515D01*
X0003116847Y0000483515D02*
X0003086851Y0000483515D01*
X0003086851Y0000546507D01*
X0002293450Y0000525510D02*
X0002317447Y0000525510D01*
X0002302449Y0000546507D02*
X0002302449Y0000492514D01*
X0002305449Y0000486515D01*
X0002311448Y0000483515D01*
X0002317447Y0000483515D01*
X0002332446Y0000483515D02*
X0002365441Y0000525510D01*
X0002332446Y0000525510D02*
X0002365441Y0000483515D01*
X0002386439Y0000540508D02*
X0002389438Y0000543508D01*
X0002395438Y0000546507D01*
X0002410436Y0000546507D01*
X0002416435Y0000543508D01*
X0002419435Y0000540508D01*
X0002422434Y0000534509D01*
X0002422434Y0000528510D01*
X0002419435Y0000519510D01*
X0002383439Y0000483515D01*
X0002422434Y0000483515D01*
X0002449431Y0000483515D02*
X0002449431Y0000546507D01*
X0002449431Y0000516511D02*
X0002485426Y0000516511D01*
X0002485426Y0000483515D02*
X0002485426Y0000546507D01*
X0001521047Y0000483515D02*
X0001521047Y0000525510D01*
X0001521047Y0000513511D02*
X0001524047Y0000519510D01*
X0001527045Y0000522510D01*
X0001533045Y0000525510D01*
X0001539045Y0000525510D01*
X0001554043Y0000483515D02*
X0001587038Y0000525510D01*
X0001554043Y0000525510D02*
X0001587038Y0000483515D01*
X0001608035Y0000540508D02*
X0001611036Y0000543508D01*
X0001617035Y0000546507D01*
X0001632033Y0000546507D01*
X0001638032Y0000543508D01*
X0001641032Y0000540508D01*
X0001644032Y0000534509D01*
X0001644032Y0000528510D01*
X0001641032Y0000519510D01*
X0001605036Y0000483515D01*
X0001644032Y0000483515D01*
X0001701024Y0000483515D02*
X0001671028Y0000483515D01*
X0001671028Y0000546507D01*
X0000880626Y0000483515D02*
X0000880626Y0000525510D01*
X0000880626Y0000513511D02*
X0000883626Y0000519510D01*
X0000886626Y0000522510D01*
X0000892625Y0000525510D01*
X0000898625Y0000525510D01*
X0000913623Y0000483515D02*
X0000946619Y0000525510D01*
X0000913623Y0000525510D02*
X0000946619Y0000483515D01*
X0000967616Y0000540508D02*
X0000970616Y0000543508D01*
X0000976615Y0000546507D01*
X0000991613Y0000546507D01*
X0000997612Y0000543508D01*
X0001000612Y0000540508D01*
X0001003612Y0000534509D01*
X0001003612Y0000528510D01*
X0001000612Y0000519510D01*
X0000964617Y0000483515D01*
X0001003612Y0000483515D01*
X0001024609Y0000546507D02*
X0001039607Y0000483515D01*
X0001051606Y0000528510D01*
X0001063604Y0000483515D01*
X0001078602Y0000546507D01*
X0000253705Y0000483515D02*
X0000253705Y0000525510D01*
X0000253705Y0000513511D02*
X0000256705Y0000519510D01*
X0000259705Y0000522510D01*
X0000265704Y0000525510D01*
X0000271703Y0000525510D01*
X0000286701Y0000483515D02*
X0000319697Y0000525510D01*
X0000286701Y0000525510D02*
X0000319697Y0000483515D01*
X0000340694Y0000540508D02*
X0000343694Y0000543508D01*
X0000349693Y0000546507D01*
X0000364691Y0000546507D01*
X0000370691Y0000543508D01*
X0000373690Y0000540508D01*
X0000376690Y0000534509D01*
X0000376690Y0000528510D01*
X0000373690Y0000519510D01*
X0000337695Y0000483515D01*
X0000376690Y0000483515D01*
X0000403687Y0000483515D02*
X0000403687Y0000546507D01*
X0000403687Y0000516511D02*
X0000439682Y0000516511D01*
X0000439682Y0000483515D02*
X0000439682Y0000546507D01*
X0000253705Y0001113437D02*
X0000253705Y0001155431D01*
X0000253705Y0001143433D02*
X0000256705Y0001149432D01*
X0000259705Y0001152432D01*
X0000265704Y0001155431D01*
X0000271703Y0001155431D01*
X0000286701Y0001113437D02*
X0000319697Y0001155431D01*
X0000286701Y0001155431D02*
X0000319697Y0001113437D01*
X0000376690Y0001113437D02*
X0000340694Y0001113437D01*
X0000358692Y0001113437D02*
X0000358692Y0001176429D01*
X0000352693Y0001167430D01*
X0000346694Y0001161431D01*
X0000340694Y0001158431D01*
X0000403687Y0001113437D02*
X0000403687Y0001176429D01*
X0000403687Y0001146432D02*
X0000439682Y0001146432D01*
X0000439682Y0001113437D02*
X0000439682Y0001176429D01*
X0000880626Y0001113437D02*
X0000880626Y0001155431D01*
X0000880626Y0001143433D02*
X0000883626Y0001149432D01*
X0000886626Y0001152432D01*
X0000892625Y0001155431D01*
X0000898625Y0001155431D01*
X0000913623Y0001113437D02*
X0000946619Y0001155431D01*
X0000913623Y0001155431D02*
X0000946619Y0001113437D01*
X0001003612Y0001113437D02*
X0000967616Y0001113437D01*
X0000985614Y0001113437D02*
X0000985614Y0001176429D01*
X0000979615Y0001167430D01*
X0000973615Y0001161431D01*
X0000967616Y0001158431D01*
X0001024609Y0001176429D02*
X0001039607Y0001113437D01*
X0001051606Y0001158431D01*
X0001063604Y0001113437D01*
X0001078602Y0001176429D01*
X0001521047Y0001113437D02*
X0001521047Y0001155431D01*
X0001521047Y0001143433D02*
X0001524047Y0001149432D01*
X0001527045Y0001152432D01*
X0001533045Y0001155431D01*
X0001539045Y0001155431D01*
X0001554043Y0001113437D02*
X0001587038Y0001155431D01*
X0001554043Y0001155431D02*
X0001587038Y0001113437D01*
X0001644032Y0001113437D02*
X0001608035Y0001113437D01*
X0001626034Y0001113437D02*
X0001626034Y0001176429D01*
X0001620035Y0001167430D01*
X0001614035Y0001161431D01*
X0001608035Y0001158431D01*
X0001701024Y0001113437D02*
X0001671028Y0001113437D01*
X0001671028Y0001176429D01*
X0002293450Y0001155431D02*
X0002317447Y0001155431D01*
X0002302449Y0001176429D02*
X0002302449Y0001122435D01*
X0002305449Y0001116436D01*
X0002311448Y0001113437D01*
X0002317447Y0001113437D01*
X0002332446Y0001113437D02*
X0002365441Y0001155431D01*
X0002332446Y0001155431D02*
X0002365441Y0001113437D01*
X0002422434Y0001113437D02*
X0002386439Y0001113437D01*
X0002404437Y0001113437D02*
X0002404437Y0001176429D01*
X0002398437Y0001167430D01*
X0002392438Y0001161431D01*
X0002386439Y0001158431D01*
X0002449431Y0001113437D02*
X0002449431Y0001176429D01*
X0002449431Y0001146432D02*
X0002485426Y0001146432D01*
X0002485426Y0001113437D02*
X0002485426Y0001176429D01*
X0002930871Y0001155431D02*
X0002954868Y0001155431D01*
X0002939870Y0001176429D02*
X0002939870Y0001122435D01*
X0002942869Y0001116436D01*
X0002948868Y0001113437D01*
X0002954868Y0001113437D01*
X0002969866Y0001113437D02*
X0003002862Y0001155431D01*
X0002969866Y0001155431D02*
X0003002862Y0001113437D01*
X0003059855Y0001113437D02*
X0003023859Y0001113437D01*
X0003041857Y0001113437D02*
X0003041857Y0001176429D01*
X0003035858Y0001167430D01*
X0003029858Y0001161431D01*
X0003023859Y0001158431D01*
X0003116847Y0001113437D02*
X0003086851Y0001113437D01*
X0003086851Y0001176429D01*
G01G01G01G01G01G01G01G01*
D47*
D48*
X0002005952Y0001814632D02*
X0002017201Y0001814632D01*
X0002022825Y0001817444D01*
X0002025637Y0001820255D01*
X0002031262Y0001828693D01*
X0002034074Y0001839941D01*
X0002034074Y0001862439D01*
X0002031262Y0001868063D01*
X0002028449Y0001870875D01*
X0002022825Y0001873687D01*
X0002011577Y0001873687D01*
X0002005952Y0001870875D01*
X0002003140Y0001868063D01*
X0002000328Y0001862439D01*
X0002000328Y0001848378D01*
X0002003140Y0001842754D01*
X0002005952Y0001839941D01*
X0002011577Y0001837129D01*
X0002022825Y0001837129D01*
X0002028449Y0001839941D01*
X0002031262Y0001842754D01*
X0002034074Y0001848378D01*
X0002053759Y0001873687D02*
X0002093128Y0001873687D01*
X0002067820Y0001814632D01*
X0002110002Y0001814632D02*
X0002140936Y0001854002D01*
X0002110002Y0001854002D02*
X0002140936Y0001814632D01*
X0002188742Y0001854002D02*
X0002188742Y0001814632D01*
X0002174681Y0001876499D02*
X0002160621Y0001834317D01*
X0002197179Y0001834317D01*
X0002230924Y0001873687D02*
X0002236549Y0001873687D01*
X0002242173Y0001870875D01*
X0002244985Y0001868063D01*
X0002247797Y0001862439D01*
X0002250609Y0001851190D01*
X0002250609Y0001837129D01*
X0002247797Y0001825881D01*
X0002244985Y0001820255D01*
X0002242173Y0001817444D01*
X0002236549Y0001814632D01*
X0002230924Y0001814632D01*
X0002225300Y0001817444D01*
X0002222488Y0001820255D01*
X0002219676Y0001825881D01*
X0002216864Y0001837129D01*
X0002216864Y0001851190D01*
X0002219676Y0001862439D01*
X0002222488Y0001868063D01*
X0002225300Y0001870875D01*
X0002230924Y0001873687D01*
X0002270294Y0001814632D02*
X0002301228Y0001854002D01*
X0002270294Y0001854002D02*
X0002301228Y0001814632D01*
X0002354659Y0001814632D02*
X0002320913Y0001814632D01*
X0002337786Y0001814632D02*
X0002337786Y0001873687D01*
X0002332162Y0001865251D01*
X0002326537Y0001859626D01*
X0002320913Y0001856814D01*
X0002391217Y0001873687D02*
X0002396841Y0001873687D01*
X0002402465Y0001870875D01*
X0002405278Y0001868063D01*
X0002408090Y0001862439D01*
X0002410902Y0001851190D01*
X0002410902Y0001837129D01*
X0002408090Y0001825881D01*
X0002405278Y0001820255D01*
X0002402465Y0001817444D01*
X0002396841Y0001814632D01*
X0002391217Y0001814632D01*
X0002385592Y0001817444D01*
X0002382780Y0001820255D01*
X0002379968Y0001825881D01*
X0002377156Y0001837129D01*
X0002377156Y0001851190D01*
X0002379968Y0001862439D01*
X0002382780Y0001868063D01*
X0002385592Y0001870875D01*
X0002391217Y0001873687D01*
X0002447460Y0001873687D02*
X0002453084Y0001873687D01*
X0002458708Y0001870875D01*
X0002461520Y0001868063D01*
X0002464333Y0001862439D01*
X0002467145Y0001851190D01*
X0002467145Y0001837129D01*
X0002464333Y0001825881D01*
X0002461520Y0001820255D01*
X0002458708Y0001817444D01*
X0002453084Y0001814632D01*
X0002447460Y0001814632D01*
X0002441835Y0001817444D01*
X0002439023Y0001820255D01*
X0002436211Y0001825881D01*
X0002433399Y0001837129D01*
X0002433399Y0001851190D01*
X0002436211Y0001862439D01*
X0002439023Y0001868063D01*
X0002441835Y0001870875D01*
X0002447460Y0001873687D01*
X0002559946Y0001817444D02*
X0002554321Y0001814632D01*
X0002543073Y0001814632D01*
X0002537448Y0001817444D01*
X0002534636Y0001823069D01*
X0002534636Y0001845566D01*
X0002537448Y0001851190D01*
X0002543073Y0001854002D01*
X0002554321Y0001854002D01*
X0002559946Y0001851190D01*
X0002562758Y0001845566D01*
X0002562758Y0001839941D01*
X0002534636Y0001834317D01*
X0002588067Y0001854002D02*
X0002588067Y0001814632D01*
X0002588067Y0001848378D02*
X0002590879Y0001851190D01*
X0002596504Y0001854002D01*
X0002604940Y0001854002D01*
X0002610564Y0001851190D01*
X0002613376Y0001845566D01*
X0002613376Y0001814632D01*
X0002666807Y0001817444D02*
X0002661183Y0001814632D01*
X0002649934Y0001814632D01*
X0002644309Y0001817444D01*
X0002641498Y0001820255D01*
X0002638686Y0001825881D01*
X0002638686Y0001842754D01*
X0002641498Y0001848378D01*
X0002644309Y0001851190D01*
X0002649934Y0001854002D01*
X0002661183Y0001854002D01*
X0002666807Y0001851190D01*
X0002700553Y0001814632D02*
X0002694929Y0001817444D01*
X0002692117Y0001823069D01*
X0002692117Y0001873687D01*
X0002731487Y0001814632D02*
X0002725862Y0001817444D01*
X0002723050Y0001820255D01*
X0002720238Y0001825881D01*
X0002720238Y0001842754D01*
X0002723050Y0001848378D01*
X0002725862Y0001851190D01*
X0002731487Y0001854002D01*
X0002739923Y0001854002D01*
X0002745547Y0001851190D01*
X0002748360Y0001848378D01*
X0002751172Y0001842754D01*
X0002751172Y0001825881D01*
X0002748360Y0001820255D01*
X0002745547Y0001817444D01*
X0002739923Y0001814632D01*
X0002731487Y0001814632D01*
X0002773669Y0001817444D02*
X0002779292Y0001814632D01*
X0002790542Y0001814632D01*
X0002796166Y0001817444D01*
X0002798978Y0001823069D01*
X0002798978Y0001825881D01*
X0002796166Y0001831505D01*
X0002790542Y0001834317D01*
X0002782105Y0001834317D01*
X0002776481Y0001837129D01*
X0002773669Y0001842754D01*
X0002773669Y0001845566D01*
X0002776481Y0001851190D01*
X0002782105Y0001854002D01*
X0002790542Y0001854002D01*
X0002796166Y0001851190D01*
X0002849597Y0001854002D02*
X0002849597Y0001814632D01*
X0002824288Y0001854002D02*
X0002824288Y0001823069D01*
X0002827100Y0001817444D01*
X0002832724Y0001814632D01*
X0002841161Y0001814632D01*
X0002846785Y0001817444D01*
X0002849597Y0001820255D01*
X0002877718Y0001814632D02*
X0002877718Y0001854002D01*
X0002877718Y0001842754D02*
X0002880531Y0001848378D01*
X0002883343Y0001851190D01*
X0002888967Y0001854002D01*
X0002894591Y0001854002D01*
X0002936774Y0001817444D02*
X0002931149Y0001814632D01*
X0002919901Y0001814632D01*
X0002914276Y0001817444D01*
X0002911464Y0001823069D01*
X0002911464Y0001845566D01*
X0002914276Y0001851190D01*
X0002919901Y0001854002D01*
X0002931149Y0001854002D01*
X0002936774Y0001851190D01*
X0002939586Y0001845566D01*
X0002939586Y0001839941D01*
X0002911464Y0001834317D01*
X0003007077Y0001817444D02*
X0003012702Y0001814632D01*
X0003023950Y0001814632D01*
X0003029574Y0001817444D01*
X0003032387Y0001823069D01*
X0003032387Y0001825881D01*
X0003029574Y0001831505D01*
X0003023950Y0001834317D01*
X0003015513Y0001834317D01*
X0003009889Y0001837129D01*
X0003007077Y0001842754D01*
X0003007077Y0001845566D01*
X0003009889Y0001851190D01*
X0003015513Y0001854002D01*
X0003023950Y0001854002D01*
X0003029574Y0001851190D01*
X0003057696Y0001854002D02*
X0003057696Y0001794946D01*
X0003057696Y0001851190D02*
X0003063320Y0001854002D01*
X0003074569Y0001854002D01*
X0003080192Y0001851190D01*
X0003083005Y0001848378D01*
X0003085817Y0001842754D01*
X0003085817Y0001825881D01*
X0003083005Y0001820255D01*
X0003080192Y0001817444D01*
X0003074569Y0001814632D01*
X0003063320Y0001814632D01*
X0003057696Y0001817444D01*
X0003119563Y0001814632D02*
X0003113939Y0001817444D01*
X0003111127Y0001823069D01*
X0003111127Y0001873687D01*
X0003142059Y0001814632D02*
X0003142059Y0001854002D01*
X0003142059Y0001873687D02*
X0003139248Y0001870875D01*
X0003142059Y0001868063D01*
X0003144873Y0001870875D01*
X0003142059Y0001873687D01*
X0003142059Y0001868063D01*
X0003161745Y0001854002D02*
X0003184243Y0001854002D01*
X0003170182Y0001873687D02*
X0003170182Y0001823069D01*
X0003172994Y0001817444D01*
X0003178618Y0001814632D01*
X0003184243Y0001814632D01*
X0003246110Y0001817444D02*
X0003251734Y0001814632D01*
X0003262983Y0001814632D01*
X0003268607Y0001817444D01*
X0003271419Y0001823069D01*
X0003271419Y0001825881D01*
X0003268607Y0001831505D01*
X0003262983Y0001834317D01*
X0003254546Y0001834317D01*
X0003248922Y0001837129D01*
X0003246110Y0001842754D01*
X0003246110Y0001845566D01*
X0003248922Y0001851190D01*
X0003254546Y0001854002D01*
X0003262983Y0001854002D01*
X0003268607Y0001851190D01*
X0003296729Y0001814632D02*
X0003296729Y0001873687D01*
X0003322038Y0001814632D02*
X0003322038Y0001845566D01*
X0003319226Y0001851190D01*
X0003313601Y0001854002D01*
X0003305165Y0001854002D01*
X0003299541Y0001851190D01*
X0003296729Y0001848378D01*
X0003372657Y0001817444D02*
X0003367032Y0001814632D01*
X0003355784Y0001814632D01*
X0003350159Y0001817444D01*
X0003347347Y0001823069D01*
X0003347347Y0001845566D01*
X0003350159Y0001851190D01*
X0003355784Y0001854002D01*
X0003367032Y0001854002D01*
X0003372657Y0001851190D01*
X0003375469Y0001845566D01*
X0003375469Y0001839941D01*
X0003347347Y0001834317D01*
X0003409215Y0001814632D02*
X0003403590Y0001817444D01*
X0003400778Y0001823069D01*
X0003400778Y0001873687D01*
X0003440148Y0001814632D02*
X0003434524Y0001817444D01*
X0003431712Y0001823069D01*
X0003431712Y0001873687D01*
G04 next file*
G01G01G01G01G01G01G01G01*
D59*
D60*
X0000216066Y0003511623D02*
X0000231064Y0003511623D01*
X0000238563Y0003515371D01*
X0000242313Y0003519122D01*
X0000249812Y0003530371D01*
X0000253562Y0003545369D01*
X0000253562Y0003575365D01*
X0000249812Y0003582864D01*
X0000246062Y0003586614D01*
X0000238563Y0003590363D01*
X0000223565Y0003590363D01*
X0000216066Y0003586614D01*
X0000212317Y0003582864D01*
X0000208567Y0003575365D01*
X0000208567Y0003556617D01*
X0000212317Y0003549118D01*
X0000216066Y0003545369D01*
X0000223565Y0003541619D01*
X0000238563Y0003541619D01*
X0000246062Y0003545369D01*
X0000249812Y0003549118D01*
X0000253562Y0003556617D01*
X0000279808Y0003590363D02*
X0000332302Y0003590363D01*
X0000298556Y0003511623D01*
X0000422290Y0003511623D02*
X0000422290Y0003564116D01*
X0000422290Y0003556617D02*
X0000426040Y0003560367D01*
X0000433539Y0003564116D01*
X0000444788Y0003564116D01*
X0000452287Y0003560367D01*
X0000456036Y0003552868D01*
X0000456036Y0003511623D01*
X0000456036Y0003552868D02*
X0000459786Y0003560367D01*
X0000467285Y0003564116D01*
X0000478533Y0003564116D01*
X0000486032Y0003560367D01*
X0000489782Y0003552868D01*
X0000489782Y0003511623D01*
X0000527277Y0003511623D02*
X0000527277Y0003564116D01*
X0000527277Y0003556617D02*
X0000531027Y0003560367D01*
X0000538526Y0003564116D01*
X0000549775Y0003564116D01*
X0000557274Y0003560367D01*
X0000561023Y0003552868D01*
X0000561023Y0003511623D01*
X0000561023Y0003552868D02*
X0000564773Y0003560367D01*
X0000572272Y0003564116D01*
X0000583520Y0003564116D01*
X0000591019Y0003560367D01*
X0000594769Y0003552868D01*
X0000594769Y0003511623D01*
X0000250749Y0003403168D02*
X0000243250Y0003399418D01*
X0000228252Y0003399418D01*
X0000220753Y0003403168D01*
X0000217004Y0003410667D01*
X0000217004Y0003440663D01*
X0000220753Y0003448162D01*
X0000228252Y0003451912D01*
X0000243250Y0003451912D01*
X0000250749Y0003448162D01*
X0000254498Y0003440663D01*
X0000254498Y0003433164D01*
X0000217004Y0003425665D01*
X0000288245Y0003451912D02*
X0000288245Y0003399418D01*
X0000288245Y0003444412D02*
X0000291994Y0003448162D01*
X0000299493Y0003451912D01*
X0000310742Y0003451912D01*
X0000318241Y0003448162D01*
X0000321990Y0003440663D01*
X0000321990Y0003399418D01*
X0000393232Y0003403168D02*
X0000385732Y0003399418D01*
X0000370734Y0003399418D01*
X0000363235Y0003403168D01*
X0000359486Y0003406917D01*
X0000355736Y0003414416D01*
X0000355736Y0003436914D01*
X0000359486Y0003444412D01*
X0000363235Y0003448162D01*
X0000370734Y0003451912D01*
X0000385732Y0003451912D01*
X0000393232Y0003448162D01*
X0000438226Y0003399418D02*
X0000430727Y0003403168D01*
X0000426977Y0003410667D01*
X0000426977Y0003478158D01*
X0000468222Y0003406917D02*
X0000471972Y0003403168D01*
X0000468222Y0003399418D01*
X0000464473Y0003403168D01*
X0000468222Y0003406917D01*
X0000468222Y0003399418D01*
G04 next file*
G04 #@! TF.FileFunction,Legend,Top*
G04 Gerber Fmt 4.6, Leading zero omitted, Abs format (unit mm)*
G04 Created by KiCad (PCBNEW no-bzr-kicad_new3d-viewer) date 07/10/16 17:41:36*
G01G01G01G01G01G01G01G01*
G04 APERTURE LIST*
G04 APERTURE END LIST*
D71*
D72*
X0001200318Y0003511623D02*
X0001215316Y0003511623D01*
X0001222815Y0003515371D01*
X0001226565Y0003519122D01*
X0001234064Y0003530371D01*
X0001237814Y0003545369D01*
X0001237814Y0003575365D01*
X0001234064Y0003582864D01*
X0001230314Y0003586614D01*
X0001222815Y0003590363D01*
X0001207817Y0003590363D01*
X0001200318Y0003586614D01*
X0001196569Y0003582864D01*
X0001192819Y0003575365D01*
X0001192819Y0003556617D01*
X0001196569Y0003549118D01*
X0001200318Y0003545369D01*
X0001207817Y0003541619D01*
X0001222815Y0003541619D01*
X0001230314Y0003545369D01*
X0001234064Y0003549118D01*
X0001237814Y0003556617D01*
X0001264060Y0003590363D02*
X0001316553Y0003590363D01*
X0001282808Y0003511623D01*
X0001406542Y0003511623D02*
X0001406542Y0003564116D01*
X0001406542Y0003556617D02*
X0001410292Y0003560367D01*
X0001417791Y0003564116D01*
X0001429040Y0003564116D01*
X0001436539Y0003560367D01*
X0001440288Y0003552868D01*
X0001440288Y0003511623D01*
X0001440288Y0003552868D02*
X0001444038Y0003560367D01*
X0001451537Y0003564116D01*
X0001462785Y0003564116D01*
X0001470284Y0003560367D01*
X0001474034Y0003552868D01*
X0001474034Y0003511623D01*
X0001511529Y0003511623D02*
X0001511529Y0003564116D01*
X0001511529Y0003556617D02*
X0001515278Y0003560367D01*
X0001522778Y0003564116D01*
X0001534026Y0003564116D01*
X0001541524Y0003560367D01*
X0001545275Y0003552868D01*
X0001545275Y0003511623D01*
X0001545275Y0003552868D02*
X0001549025Y0003560367D01*
X0001556524Y0003564116D01*
X0001567770Y0003564116D01*
X0001575271Y0003560367D01*
X0001579019Y0003552868D01*
X0001579019Y0003511623D01*
X0001235001Y0003403168D02*
X0001227502Y0003399418D01*
X0001212504Y0003399418D01*
X0001205005Y0003403168D01*
X0001201256Y0003410667D01*
X0001201256Y0003440663D01*
X0001205005Y0003448162D01*
X0001212504Y0003451912D01*
X0001227502Y0003451912D01*
X0001235001Y0003448162D01*
X0001238751Y0003440663D01*
X0001238751Y0003433164D01*
X0001201256Y0003425665D01*
X0001272497Y0003451912D02*
X0001272497Y0003399418D01*
X0001272497Y0003444412D02*
X0001276246Y0003448162D01*
X0001283745Y0003451912D01*
X0001294994Y0003451912D01*
X0001302493Y0003448162D01*
X0001306241Y0003440663D01*
X0001306241Y0003399418D01*
X0001377484Y0003403168D02*
X0001369985Y0003399418D01*
X0001354985Y0003399418D01*
X0001347487Y0003403168D01*
X0001343738Y0003406917D01*
X0001339988Y0003414416D01*
X0001339988Y0003436914D01*
X0001343738Y0003444412D01*
X0001347487Y0003448162D01*
X0001354985Y0003451912D01*
X0001369985Y0003451912D01*
X0001377484Y0003448162D01*
X0001422478Y0003399418D02*
X0001414979Y0003403168D01*
X0001411229Y0003410667D01*
X0001411229Y0003478158D01*
X0001452474Y0003406917D02*
X0001456224Y0003403168D01*
X0001452474Y0003399418D01*
X0001448725Y0003403168D01*
X0001452474Y0003406917D01*
X0001452474Y0003399418D01*
M02*