%MOIN*%
%OFA0B0*%
%FSLAX46Y46*%
%IPPOS*%
%LPD*%
%ADD10C,0.005905511811023622*%
%ADD11C,0.21653543307086615*%
%ADD12C,0.01*%
%ADD23C,0.005905511811023622*%
%ADD24C,0.21653543307086615*%
%ADD25C,0.01*%
%ADD36C,0.005905511811023622*%
%ADD37C,0.027559055118110236*%
%ADD38C,0.053149606299212608*%
%ADD39C,0.01*%
%ADD50C,0.005905511811023622*%
%ADD51C,0.027559055118110236*%
%ADD52C,0.053149606299212608*%
%ADD53C,0.01*%
%ADD64C,0.005905511811023622*%
%ADD65C,0.21653543307086615*%
%ADD66C,0.01*%
%ADD77C,0.005905511811023622*%
%ADD78C,0.21653543307086615*%
%ADD79C,0.01*%
%LPD*%
G01G01G01G01*
D10*
D11*
X-0000314960Y0004496062D02*
X0002807086Y0003492125D03*
D12*
G36*
X0002073740Y0003361299D02*
X0002005000Y0003361299D01*
X0002005000Y0003622952D01*
X0002073740Y0003622952D01*
X0002073740Y0003361299D01*
X0002073740Y0003361299D01*
G37*
X0002073740Y0003361299D02*
X0002005000Y0003361299D01*
X0002005000Y0003622952D01*
X0002073740Y0003622952D01*
X0002073740Y0003361299D01*
G01G01G01G01*
D23*
D24*
X0000669291Y0004500000D02*
X0003791338Y0003496063D03*
D25*
G36*
X0003057992Y0003365236D02*
X0002989251Y0003365236D01*
X0002989251Y0003626889D01*
X0003057992Y0003626889D01*
X0003057992Y0003365236D01*
X0003057992Y0003365236D01*
G37*
X0003057992Y0003365236D02*
X0002989251Y0003365236D01*
X0002989251Y0003626889D01*
X0003057992Y0003626889D01*
X0003057992Y0003365236D01*
G04 next file*
G01G01G01G01G01G01G01G01*
D36*
D37*
X0003378740Y0000738188D02*
X0003378740Y0000612204D01*
D38*
X0003414566Y0000675196D02*
G75*
G03G03G03G03X0003414566Y0000675196I-0000150787D01X0003414566Y0000675196I-0000150787D01X0003414566Y0000675196I-0000150787D01G03G03X0003414566Y0000675196I-0000150787D01G03G03X0003414566Y0000675196I-0000150787D01X0003414566Y0000675196I-0000150787D01X0003414566Y0000675196I-0000150787D01X0003414566Y0000675196I-0000150787D01*
G01G01G01G01G01G01G01G01*
D37*
X0002748818Y0000738188D02*
X0002748818Y0000612204D01*
D38*
X0002784645Y0000675196D02*
G75*
G03G03G03G03X0002784645Y0000675196I-0000150787D01X0002784645Y0000675196I-0000150787D01X0002784645Y0000675196I-0000150787D01G03G03X0002784645Y0000675196I-0000150787D01G03G03X0002784645Y0000675196I-0000150787D01X0002784645Y0000675196I-0000150787D01X0002784645Y0000675196I-0000150787D01X0002784645Y0000675196I-0000150787D01*
G01G01G01G01G01G01G01G01*
D37*
X0003378740Y0001368110D02*
X0003378740Y0001242125D01*
D38*
X0003414566Y0001305118D02*
G75*
G03G03G03G03X0003414566Y0001305118I-0000150787D01X0003414566Y0001305118I-0000150787D01X0003414566Y0001305118I-0000150787D01G03G03X0003414566Y0001305118I-0000150787D01G03G03X0003414566Y0001305118I-0000150787D01X0003414566Y0001305118I-0000150787D01X0003414566Y0001305118I-0000150787D01X0003414566Y0001305118I-0000150787D01*
G01G01G01G01G01G01G01G01*
D37*
X0002748818Y0001368110D02*
X0002748818Y0001242125D01*
D38*
X0002784645Y0001305118D02*
G75*
G03G03G03G03X0002784645Y0001305118I-0000150787D01X0002784645Y0001305118I-0000150787D01X0002784645Y0001305118I-0000150787D01G03G03X0002784645Y0001305118I-0000150787D01G03G03X0002784645Y0001305118I-0000150787D01X0002784645Y0001305118I-0000150787D01X0002784645Y0001305118I-0000150787D01X0002784645Y0001305118I-0000150787D01*
G01G01G01G01G01G01G01G01*
D37*
X0001961417Y0000738188D02*
X0001961417Y0000612204D01*
D38*
X0001997244Y0000675196D02*
G75*
G03G03G03G03X0001997244Y0000675196I-0000150787D01X0001997244Y0000675196I-0000150787D01X0001997244Y0000675196I-0000150787D01G03G03X0001997244Y0000675196I-0000150787D01G03G03X0001997244Y0000675196I-0000150787D01X0001997244Y0000675196I-0000150787D01X0001997244Y0000675196I-0000150787D01X0001997244Y0000675196I-0000150787D01*
G01G01G01G01G01G01G01G01*
D37*
X0001331496Y0000738188D02*
X0001331496Y0000612204D01*
D38*
X0001367322Y0000675196D02*
G75*
G03G03G03G03X0001367322Y0000675196I-0000150787D01X0001367322Y0000675196I-0000150787D01X0001367322Y0000675196I-0000150787D01G03G03X0001367322Y0000675196I-0000150787D01G03G03X0001367322Y0000675196I-0000150787D01X0001367322Y0000675196I-0000150787D01X0001367322Y0000675196I-0000150787D01X0001367322Y0000675196I-0000150787D01*
G01G01G01G01G01G01G01G01*
D37*
X0000701574Y0000738188D02*
X0000701574Y0000612204D01*
D38*
X0000737400Y0000675196D02*
G75*
G03G03G03G03X0000737400Y0000675196I-0000150787D01X0000737400Y0000675196I-0000150787D01X0000737400Y0000675196I-0000150787D01G03G03X0000737400Y0000675196I-0000150787D01G03G03X0000737400Y0000675196I-0000150787D01X0000737400Y0000675196I-0000150787D01X0000737400Y0000675196I-0000150787D01X0000737400Y0000675196I-0000150787D01*
G01G01G01G01G01G01G01G01*
D37*
X0001961417Y0001368110D02*
X0001961417Y0001242125D01*
D38*
X0001997244Y0001305118D02*
G75*
G03G03G03G03X0001997244Y0001305118I-0000150787D01X0001997244Y0001305118I-0000150787D01X0001997244Y0001305118I-0000150787D01G03G03X0001997244Y0001305118I-0000150787D01G03G03X0001997244Y0001305118I-0000150787D01X0001997244Y0001305118I-0000150787D01X0001997244Y0001305118I-0000150787D01X0001997244Y0001305118I-0000150787D01*
G01G01G01G01G01G01G01G01*
D37*
X0001331496Y0001368110D02*
X0001331496Y0001242125D01*
D38*
X0001367322Y0001305118D02*
G75*
G03G03G03G03X0001367322Y0001305118I-0000150787D01X0001367322Y0001305118I-0000150787D01X0001367322Y0001305118I-0000150787D01G03G03X0001367322Y0001305118I-0000150787D01G03G03X0001367322Y0001305118I-0000150787D01X0001367322Y0001305118I-0000150787D01X0001367322Y0001305118I-0000150787D01X0001367322Y0001305118I-0000150787D01*
G01G01G01G01G01G01G01G01*
D37*
X0000701574Y0001368110D02*
X0000701574Y0001242125D01*
D38*
X0000737400Y0001305118D02*
G75*
G03G03G03G03X0000737400Y0001305118I-0000150787D01X0000737400Y0001305118I-0000150787D01X0000737400Y0001305118I-0000150787D01G03G03X0000737400Y0001305118I-0000150787D01G03G03X0000737400Y0001305118I-0000150787D01X0000737400Y0001305118I-0000150787D01X0000737400Y0001305118I-0000150787D01X0000737400Y0001305118I-0000150787D01*
G01G01G01G01G01G01G01G01*
D39*
G36*
X0003640906Y0001528823D02*
X0000213898Y0001528823D01*
X0000213898Y0001597563D01*
X0003640906Y0001597563D01*
X0003640906Y0001528823D01*
X0003640906Y0001528823D01*
G37*
X0003640906Y0001528823D02*
X0000213898Y0001528823D01*
X0000213898Y0001597563D01*
X0003640906Y0001597563D01*
X0003640906Y0001528823D01*
G36*
X0000213898Y0000032759D02*
X0003640906Y0000032759D01*
X0003640906Y0000101500D01*
X0000213898Y0000101500D01*
X0000213898Y0000032759D01*
X0000213898Y0000032759D01*
G37*
X0000213898Y0000032759D02*
X0003640906Y0000032759D01*
X0003640906Y0000101500D01*
X0000213898Y0000101500D01*
X0000213898Y0000032759D01*
G36*
X0000748577Y0000347720D02*
X0003102751Y0000347720D01*
X0003102751Y0000455831D01*
X0000748577Y0000455831D01*
X0000748577Y0000347720D01*
X0000748577Y0000347720D01*
G37*
X0000748577Y0000347720D02*
X0003102751Y0000347720D01*
X0003102751Y0000455831D01*
X0000748577Y0000455831D01*
X0000748577Y0000347720D01*
G36*
X0000207609Y0000032557D02*
X0000110882Y0000032557D01*
X0000075109Y0000041973D01*
X0000048881Y0000062580D01*
X0000032138Y0000084904D01*
X0000024009Y0000115235D01*
X0000022042Y0001505767D01*
X0000030253Y0001543203D01*
X0000048940Y0001569363D01*
X0000067387Y0001584121D01*
X0000107153Y0001597376D01*
X0000211522Y0001599240D01*
X0000207609Y0000032557D01*
X0000207609Y0000032557D01*
G37*
X0000207609Y0000032557D02*
X0000110882Y0000032557D01*
X0000075109Y0000041973D01*
X0000048881Y0000062580D01*
X0000032138Y0000084904D01*
X0000024009Y0000115235D01*
X0000022042Y0001505767D01*
X0000030253Y0001543203D01*
X0000048940Y0001569363D01*
X0000067387Y0001584121D01*
X0000107153Y0001597376D01*
X0000211522Y0001599240D01*
X0000207609Y0000032557D01*
G36*
X0003781451Y0001587947D02*
X0003807679Y0001567340D01*
X0003824422Y0001545016D01*
X0003832551Y0001514685D01*
X0003834517Y0000124153D01*
X0003826305Y0000086717D01*
X0003807619Y0000060557D01*
X0003789173Y0000045800D01*
X0003749406Y0000032543D01*
X0003645038Y0000030680D01*
X0003648949Y0001597362D01*
X0003745677Y0001597362D01*
X0003781451Y0001587947D01*
X0003781451Y0001587947D01*
G37*
X0003781451Y0001587947D02*
X0003807679Y0001567340D01*
X0003824422Y0001545016D01*
X0003832551Y0001514685D01*
X0003834517Y0000124153D01*
X0003826305Y0000086717D01*
X0003807619Y0000060557D01*
X0003789173Y0000045800D01*
X0003749406Y0000032543D01*
X0003645038Y0000030680D01*
X0003648949Y0001597362D01*
X0003745677Y0001597362D01*
X0003781451Y0001587947D01*
G01G01G01G01G01G01G01G01*
D50*
D51*
X0003376771Y0002405511D02*
X0003376771Y0002279527D01*
D52*
X0003412598Y0002342519D02*
G75*
G03G03G03G03X0003412598Y0002342519I-0000150787D01X0003412598Y0002342519I-0000150787D01X0003412598Y0002342519I-0000150787D01G03G03X0003412598Y0002342519I-0000150787D01G03G03X0003412598Y0002342519I-0000150787D01X0003412598Y0002342519I-0000150787D01X0003412598Y0002342519I-0000150787D01X0003412598Y0002342519I-0000150787D01*
G01G01G01G01G01G01G01G01*
D53*
G36*
X0003638938Y0003196146D02*
X0000211929Y0003196146D01*
X0000211929Y0003264886D01*
X0003638938Y0003264886D01*
X0003638938Y0003196146D01*
X0003638938Y0003196146D01*
G37*
X0003638938Y0003196146D02*
X0000211929Y0003196146D01*
X0000211929Y0003264886D01*
X0003638938Y0003264886D01*
X0003638938Y0003196146D01*
G36*
X0003638938Y0001700082D02*
X0000211929Y0001700082D01*
X0000211929Y0001768823D01*
X0003638938Y0001768823D01*
X0003638938Y0001700082D01*
X0003638938Y0001700082D01*
G37*
X0003638938Y0001700082D02*
X0000211929Y0001700082D01*
X0000211929Y0001768823D01*
X0003638938Y0001768823D01*
X0003638938Y0001700082D01*
G36*
X0003779483Y0003255269D02*
X0003805710Y0003234663D01*
X0003822453Y0003212339D01*
X0003830582Y0003182008D01*
X0003832548Y0001791476D01*
X0003824337Y0001754040D01*
X0003805651Y0001727880D01*
X0003787204Y0001713122D01*
X0003747438Y0001699867D01*
X0003643069Y0001698002D01*
X0003646981Y0003264684D01*
X0003743709Y0003264684D01*
X0003779483Y0003255269D01*
X0003779483Y0003255269D01*
G37*
X0003779483Y0003255269D02*
X0003805710Y0003234663D01*
X0003822453Y0003212339D01*
X0003830582Y0003182008D01*
X0003832548Y0001791476D01*
X0003824337Y0001754040D01*
X0003805651Y0001727880D01*
X0003787204Y0001713122D01*
X0003747438Y0001699867D01*
X0003643069Y0001698002D01*
X0003646981Y0003264684D01*
X0003743709Y0003264684D01*
X0003779483Y0003255269D01*
G36*
X0000205642Y0001699882D02*
X0000108914Y0001699882D01*
X0000073140Y0001709296D01*
X0000046912Y0001729903D01*
X0000030170Y0001752227D01*
X0000022041Y0001782558D01*
X0000020074Y0003173090D01*
X0000028286Y0003210526D01*
X0000046972Y0003236686D01*
X0000065419Y0003251444D01*
X0000105185Y0003264699D01*
X0000209554Y0003266563D01*
X0000205642Y0001699882D01*
X0000205642Y0001699882D01*
G37*
X0000205642Y0001699882D02*
X0000108914Y0001699882D01*
X0000073140Y0001709296D01*
X0000046912Y0001729903D01*
X0000030170Y0001752227D01*
X0000022041Y0001782558D01*
X0000020074Y0003173090D01*
X0000028286Y0003210526D01*
X0000046972Y0003236686D01*
X0000065419Y0003251444D01*
X0000105185Y0003264699D01*
X0000209554Y0003266563D01*
X0000205642Y0001699882D01*
G04 next file*
G01G01G01G01G01G01G01G01*
D64*
D65*
X-0002283464Y0004496062D02*
X0000838582Y0003492125D03*
D66*
G36*
X0000105236Y0003361299D02*
X0000036496Y0003361299D01*
X0000036496Y0003622952D01*
X0000105236Y0003622952D01*
X0000105236Y0003361299D01*
X0000105236Y0003361299D01*
G37*
X0000105236Y0003361299D02*
X0000036496Y0003361299D01*
X0000036496Y0003622952D01*
X0000105236Y0003622952D01*
X0000105236Y0003361299D01*
G04 next file*
G04 #@! TF.FileFunction,Soldermask,Top*
G04 Gerber Fmt 4.6, Leading zero omitted, Abs format (unit mm)*
G04 Created by KiCad (PCBNEW no-bzr-kicad_new3d-viewer) date 07/10/16 17:41:36*
G01G01G01G01G01G01G01G01*
G04 APERTURE LIST*
G04 APERTURE END LIST*
D77*
D78*
X-0001299212Y0004496062D02*
X0001822834Y0003492125D03*
D79*
G36*
X0001089488Y0003361299D02*
X0001020748Y0003361299D01*
X0001020748Y0003622952D01*
X0001089488Y0003622952D01*
X0001089488Y0003361299D01*
X0001089488Y0003361299D01*
G37*
X0001089488Y0003361299D02*
X0001020748Y0003361299D01*
X0001020748Y0003622952D01*
X0001089488Y0003622952D01*
X0001089488Y0003361299D01*
M02*