%MOIN*%
%OFA0B0*%
%FSLAX44Y44*%
%IPPOS*%
%LPD*%
%ADD10C,0*%
D10*
X00036883Y00017902D02*
X00036883Y00017902D01*
X00036764Y00017908D01*
X00036649Y00017940D01*
X00036544Y00017996D01*
X00036453Y00018073D01*
X00036381Y00018168D01*
X00036331Y00018276D01*
X00036305Y00018393D01*
X00036305Y00018512D01*
X00036331Y00018628D01*
X00036381Y00018737D01*
X00036453Y00018831D01*
X00036544Y00018909D01*
X00036649Y00018964D01*
X00036764Y00018996D01*
X00036883Y00019003D01*
X00037001Y00018983D01*
X00037111Y00018939D01*
X00037210Y00018872D01*
X00037292Y00018786D01*
X00037353Y00018684D01*
X00037391Y00018571D01*
X00037404Y00018452D01*
X00037391Y00018334D01*
X00037353Y00018221D01*
X00037292Y00018119D01*
X00037210Y00018032D01*
X00037111Y00017965D01*
X00037001Y00017921D01*
X00036883Y00017902D01*
X00001690Y00017817D02*
X00001690Y00017817D01*
X00001554Y00017825D01*
X00001422Y00017861D01*
X00001302Y00017925D01*
X00001198Y00018013D01*
X00001116Y00018122D01*
X00001058Y00018245D01*
X00001029Y00018378D01*
X00001029Y00018515D01*
X00001058Y00018648D01*
X00001116Y00018771D01*
X00001198Y00018880D01*
X00001302Y00018968D01*
X00001422Y00019032D01*
X00001554Y00019068D01*
X00001690Y00019075D01*
X00001824Y00019053D01*
X00001950Y00019003D01*
X00002063Y00018926D01*
X00002157Y00018828D01*
X00002227Y00018711D01*
X00002271Y00018582D01*
X00002285Y00018446D01*
X00002271Y00018311D01*
X00002227Y00018182D01*
X00002157Y00018065D01*
X00002063Y00017966D01*
X00001950Y00017890D01*
X00001824Y00017839D01*
X00001690Y00017817D01*
X00016894Y00019543D02*
X00016894Y00019543D01*
X00016894Y00021275D01*
X00016500Y00021275D01*
X00016500Y00022732D01*
X00022406Y00022732D01*
X00022406Y00021275D01*
X00021815Y00021275D01*
X00021815Y00019543D01*
X00016894Y00019543D01*
X00011303Y00020488D02*
X00011303Y00020488D01*
X00011303Y00023480D01*
X00013351Y00023480D01*
X00013351Y00020488D01*
X00011303Y00020488D01*
X00032583Y00022190D02*
X00032583Y00022190D01*
X00032419Y00022205D01*
X00032258Y00022243D01*
X00032103Y00022301D01*
X00031958Y00022380D01*
X00031824Y00022477D01*
X00031705Y00022592D01*
X00031602Y00022721D01*
X00031517Y00022863D01*
X00031452Y00023015D01*
X00031408Y00023174D01*
X00031385Y00023338D01*
X00031384Y00023503D01*
X00031406Y00023667D01*
X00031449Y00023826D01*
X00031513Y00023979D01*
X00031597Y00024121D01*
X00031699Y00024251D01*
X00031818Y00024366D01*
X00031950Y00024465D01*
X00032095Y00024544D01*
X00032249Y00024604D01*
X00032410Y00024643D01*
X00032574Y00024660D01*
X00032740Y00024654D01*
X00032903Y00024627D01*
X00033060Y00024578D01*
X00033210Y00024509D01*
X00033350Y00024420D01*
X00033476Y00024313D01*
X00033587Y00024191D01*
X00033681Y00024055D01*
X00033685Y00022803D01*
X00033685Y00022802D01*
X00033592Y00022665D01*
X00033482Y00022542D01*
X00033357Y00022435D01*
X00033218Y00022345D01*
X00033069Y00022274D01*
X00032911Y00022224D01*
X00032748Y00022196D01*
X00032583Y00022190D01*
X00001686Y00030658D02*
X00001686Y00030658D01*
X00001567Y00030664D01*
X00001452Y00030696D01*
X00001347Y00030752D01*
X00001256Y00030829D01*
X00001184Y00030924D01*
X00001134Y00031032D01*
X00001108Y00031149D01*
X00001108Y00031268D01*
X00001134Y00031384D01*
X00001184Y00031492D01*
X00001256Y00031587D01*
X00001347Y00031664D01*
X00001452Y00031720D01*
X00001567Y00031752D01*
X00001686Y00031759D01*
X00001804Y00031739D01*
X00001915Y00031695D01*
X00002013Y00031628D01*
X00002095Y00031542D01*
X00002157Y00031440D01*
X00002195Y00031327D01*
X00002208Y00031208D01*
X00002195Y00031090D01*
X00002157Y00030977D01*
X00002095Y00030875D01*
X00002013Y00030788D01*
X00001915Y00030721D01*
X00001804Y00030677D01*
X00001686Y00030658D01*
X00036887Y00030579D02*
X00036887Y00030579D01*
X00036751Y00030587D01*
X00036620Y00030623D01*
X00036500Y00030687D01*
X00036396Y00030775D01*
X00036313Y00030883D01*
X00036256Y00031007D01*
X00036227Y00031140D01*
X00036227Y00031276D01*
X00036256Y00031409D01*
X00036313Y00031533D01*
X00036396Y00031641D01*
X00036500Y00031730D01*
X00036620Y00031793D01*
X00036751Y00031830D01*
X00036887Y00031837D01*
X00037022Y00031815D01*
X00037148Y00031765D01*
X00037261Y00031688D01*
X00037355Y00031589D01*
X00037425Y00031473D01*
X00037468Y00031344D01*
X00037483Y00031208D01*
X00037468Y00031073D01*
X00037425Y00030944D01*
X00037355Y00030827D01*
X00037261Y00030728D01*
X00037148Y00030652D01*
X00037022Y00030601D01*
X00036887Y00030579D01*
X00032341Y00032704D02*
X00032341Y00032704D01*
X00024744Y00032704D01*
X00024744Y00032704D01*
X00024726Y00032705D01*
X00024707Y00032706D01*
X00024688Y00032708D01*
X00024669Y00032712D01*
X00024650Y00032716D01*
X00024632Y00032721D01*
X00024614Y00032727D01*
X00024596Y00032733D01*
X00024579Y00032741D01*
X00024562Y00032749D01*
X00024545Y00032758D01*
X00024529Y00032768D01*
X00024513Y00032779D01*
X00024498Y00032791D01*
X00024484Y00032803D01*
X00024470Y00032816D01*
X00024457Y00032829D01*
X00024444Y00032844D01*
X00024432Y00032858D01*
X00024421Y00032874D01*
X00024371Y00032946D01*
X00024349Y00032982D01*
X00024330Y00033021D01*
X00024316Y00033061D01*
X00024307Y00033103D01*
X00024302Y00033145D01*
X00024302Y00033188D01*
X00024306Y00033231D01*
X00024315Y00033273D01*
X00024328Y00033313D01*
X00024346Y00033352D01*
X00024368Y00033389D01*
X00024394Y00033423D01*
X00024423Y00033455D01*
X00024456Y00033482D01*
X00024491Y00033507D01*
X00024529Y00033527D01*
X00024569Y00033543D01*
X00024610Y00033554D01*
X00024652Y00033561D01*
X00024695Y00033563D01*
X00026239Y00033563D01*
X00026286Y00033566D01*
X00026332Y00033572D01*
X00026378Y00033580D01*
X00026423Y00033592D01*
X00026468Y00033606D01*
X00026512Y00033623D01*
X00026554Y00033642D01*
X00026595Y00033665D01*
X00026635Y00033690D01*
X00026673Y00033717D01*
X00026706Y00033739D01*
X00026740Y00033760D01*
X00026776Y00033778D01*
X00026812Y00033794D01*
X00026850Y00033808D01*
X00026888Y00033819D01*
X00026927Y00033828D01*
X00026967Y00033834D01*
X00027007Y00033838D01*
X00027047Y00033840D01*
X00028070Y00033840D01*
X00028070Y00033839D01*
X00028240Y00033852D01*
X00028405Y00033892D01*
X00028562Y00033957D01*
X00028706Y00034046D01*
X00028836Y00034156D01*
X00028946Y00034285D01*
X00029035Y00034430D01*
X00029100Y00034587D01*
X00029139Y00034752D01*
X00029153Y00034921D01*
X00029139Y00035091D01*
X00029100Y00035256D01*
X00029035Y00035413D01*
X00028946Y00035557D01*
X00028836Y00035686D01*
X00028706Y00035797D01*
X00028562Y00035885D01*
X00028405Y00035950D01*
X00028240Y00035990D01*
X00028070Y00036003D01*
X00027047Y00036003D01*
X00027006Y00036005D01*
X00026965Y00036009D01*
X00026925Y00036015D01*
X00026885Y00036024D01*
X00026845Y00036036D01*
X00026807Y00036050D01*
X00026769Y00036067D01*
X00026733Y00036086D01*
X00026698Y00036108D01*
X00026665Y00036131D01*
X00026627Y00036157D01*
X00026588Y00036181D01*
X00026548Y00036202D01*
X00026506Y00036221D01*
X00026463Y00036237D01*
X00026419Y00036251D01*
X00026375Y00036262D01*
X00026330Y00036270D01*
X00026285Y00036275D01*
X00026239Y00036278D01*
X00019999Y00036278D01*
X00020000Y00033562D01*
X00020000Y00033563D01*
X00022548Y00033563D01*
X00022591Y00033561D01*
X00022633Y00033554D01*
X00022675Y00033543D01*
X00022714Y00033527D01*
X00022752Y00033507D01*
X00022788Y00033482D01*
X00022820Y00033455D01*
X00022849Y00033423D01*
X00022875Y00033389D01*
X00022897Y00033352D01*
X00022915Y00033313D01*
X00022928Y00033273D01*
X00022937Y00033231D01*
X00022942Y00033188D01*
X00022941Y00033145D01*
X00022936Y00033103D01*
X00022927Y00033061D01*
X00022913Y00033021D01*
X00022894Y00032982D01*
X00022872Y00032946D01*
X00022822Y00032874D01*
X00022811Y00032858D01*
X00022799Y00032844D01*
X00022786Y00032829D01*
X00022773Y00032816D01*
X00022759Y00032803D01*
X00022745Y00032791D01*
X00022730Y00032779D01*
X00022714Y00032768D01*
X00022698Y00032758D01*
X00022681Y00032749D01*
X00022664Y00032741D01*
X00022647Y00032733D01*
X00022629Y00032727D01*
X00022611Y00032721D01*
X00022593Y00032716D01*
X00022574Y00032712D01*
X00022555Y00032708D01*
X00022537Y00032706D01*
X00022518Y00032705D01*
X00022499Y00032704D01*
X00022499Y00032704D01*
X00014902Y00032704D01*
X00014902Y00032704D01*
X00014883Y00032705D01*
X00014864Y00032706D01*
X00014845Y00032708D01*
X00014826Y00032712D01*
X00014808Y00032716D01*
X00014790Y00032721D01*
X00014772Y00032727D01*
X00014754Y00032733D01*
X00014736Y00032741D01*
X00014719Y00032749D01*
X00014703Y00032758D01*
X00014687Y00032768D01*
X00014671Y00032779D01*
X00014656Y00032791D01*
X00014641Y00032803D01*
X00014627Y00032816D01*
X00014614Y00032829D01*
X00014601Y00032844D01*
X00014590Y00032858D01*
X00014578Y00032874D01*
X00014529Y00032946D01*
X00014506Y00032982D01*
X00014488Y00033021D01*
X00014474Y00033061D01*
X00014464Y00033103D01*
X00014459Y00033145D01*
X00014459Y00033188D01*
X00014463Y00033231D01*
X00014472Y00033273D01*
X00014486Y00033313D01*
X00014504Y00033352D01*
X00014525Y00033389D01*
X00014551Y00033423D01*
X00014581Y00033455D01*
X00014613Y00033482D01*
X00014648Y00033507D01*
X00014686Y00033527D01*
X00014726Y00033543D01*
X00014767Y00033554D01*
X00014810Y00033561D01*
X00014852Y00033563D01*
X00016397Y00033563D01*
X00016443Y00033566D01*
X00016490Y00033572D01*
X00016536Y00033580D01*
X00016581Y00033592D01*
X00016626Y00033606D01*
X00016669Y00033623D01*
X00016712Y00033642D01*
X00016753Y00033665D01*
X00016792Y00033690D01*
X00016830Y00033717D01*
X00016863Y00033739D01*
X00016898Y00033760D01*
X00016933Y00033778D01*
X00016970Y00033794D01*
X00017007Y00033808D01*
X00017046Y00033819D01*
X00017085Y00033828D01*
X00017124Y00033834D01*
X00017164Y00033838D01*
X00017204Y00033840D01*
X00018228Y00033840D01*
X00018228Y00033839D01*
X00018397Y00033852D01*
X00018562Y00033892D01*
X00018719Y00033957D01*
X00018864Y00034046D01*
X00018993Y00034156D01*
X00019103Y00034285D01*
X00019192Y00034430D01*
X00019257Y00034587D01*
X00019297Y00034752D01*
X00019310Y00034921D01*
X00019297Y00035091D01*
X00019257Y00035256D01*
X00019192Y00035413D01*
X00019103Y00035557D01*
X00018993Y00035686D01*
X00018864Y00035797D01*
X00018719Y00035885D01*
X00018562Y00035950D01*
X00018397Y00035990D01*
X00018228Y00036003D01*
X00017204Y00036003D01*
X00017163Y00036005D01*
X00017122Y00036009D01*
X00017082Y00036015D01*
X00017042Y00036024D01*
X00017003Y00036036D01*
X00016964Y00036050D01*
X00016927Y00036067D01*
X00016891Y00036086D01*
X00016856Y00036108D01*
X00016822Y00036131D01*
X00016785Y00036157D01*
X00016746Y00036181D01*
X00016705Y00036202D01*
X00016663Y00036221D01*
X00016621Y00036237D01*
X00016577Y00036251D01*
X00016532Y00036262D01*
X00016487Y00036270D01*
X00016442Y00036275D01*
X00016396Y00036278D01*
X00010156Y00036278D01*
X00010157Y00033562D01*
X00010157Y00033563D01*
X00012706Y00033563D01*
X00012749Y00033561D01*
X00012791Y00033554D01*
X00012832Y00033543D01*
X00012872Y00033527D01*
X00012910Y00033507D01*
X00012945Y00033482D01*
X00012978Y00033455D01*
X00013007Y00033423D01*
X00013033Y00033389D01*
X00013055Y00033352D01*
X00013072Y00033313D01*
X00013086Y00033273D01*
X00013095Y00033231D01*
X00013099Y00033188D01*
X00013099Y00033145D01*
X00013094Y00033103D01*
X00013084Y00033061D01*
X00013070Y00033021D01*
X00013052Y00032982D01*
X00013029Y00032946D01*
X00012980Y00032874D01*
X00012969Y00032858D01*
X00012957Y00032844D01*
X00012944Y00032829D01*
X00012931Y00032816D01*
X00012917Y00032803D01*
X00012902Y00032791D01*
X00012887Y00032779D01*
X00012871Y00032768D01*
X00012855Y00032758D01*
X00012839Y00032749D01*
X00012822Y00032741D01*
X00012804Y00032733D01*
X00012787Y00032727D01*
X00012768Y00032721D01*
X00012750Y00032716D01*
X00012732Y00032712D01*
X00012713Y00032708D01*
X00012694Y00032706D01*
X00012675Y00032705D01*
X00012656Y00032704D01*
X00012656Y00032704D01*
X00005059Y00032704D01*
X00005040Y00032705D01*
X00005022Y00032706D01*
X00005003Y00032708D01*
X00004984Y00032712D01*
X00004965Y00032716D01*
X00004947Y00032721D01*
X00004929Y00032727D01*
X00004911Y00032733D01*
X00004894Y00032741D01*
X00004877Y00032749D01*
X00004860Y00032758D01*
X00004844Y00032768D01*
X00004828Y00032779D01*
X00004813Y00032791D01*
X00004799Y00032803D01*
X00004785Y00032816D01*
X00004772Y00032829D01*
X00004759Y00032844D01*
X00004747Y00032858D01*
X00004736Y00032874D01*
X00004686Y00032946D01*
X00004664Y00032982D01*
X00004645Y00033021D01*
X00004631Y00033061D01*
X00004622Y00033103D01*
X00004617Y00033145D01*
X00004616Y00033188D01*
X00004621Y00033231D01*
X00004630Y00033273D01*
X00004643Y00033313D01*
X00004661Y00033352D01*
X00004683Y00033389D01*
X00004709Y00033423D01*
X00004738Y00033455D01*
X00004771Y00033482D01*
X00004806Y00033507D01*
X00004844Y00033527D01*
X00004883Y00033543D01*
X00004925Y00033554D01*
X00004967Y00033561D01*
X00005010Y00033563D01*
X00006554Y00033563D01*
X00006601Y00033566D01*
X00006647Y00033572D01*
X00006693Y00033580D01*
X00006738Y00033592D01*
X00006783Y00033606D01*
X00006827Y00033623D01*
X00006869Y00033642D01*
X00006910Y00033665D01*
X00006950Y00033690D01*
X00006988Y00033717D01*
X00007021Y00033739D01*
X00007055Y00033760D01*
X00007091Y00033778D01*
X00007127Y00033794D01*
X00007165Y00033808D01*
X00007203Y00033819D01*
X00007242Y00033828D01*
X00007282Y00033834D01*
X00007322Y00033838D01*
X00007362Y00033840D01*
X00008385Y00033840D01*
X00008385Y00033839D01*
X00008555Y00033852D01*
X00008720Y00033892D01*
X00008877Y00033957D01*
X00009021Y00034046D01*
X00009151Y00034156D01*
X00009261Y00034285D01*
X00009350Y00034430D01*
X00009415Y00034587D01*
X00009454Y00034752D01*
X00009468Y00034921D01*
X00009454Y00035091D01*
X00009415Y00035256D01*
X00009350Y00035413D01*
X00009261Y00035557D01*
X00009151Y00035686D01*
X00009021Y00035797D01*
X00008877Y00035885D01*
X00008720Y00035950D01*
X00008555Y00035990D01*
X00008385Y00036003D01*
X00007362Y00036003D01*
X00007321Y00036005D01*
X00007280Y00036009D01*
X00007239Y00036015D01*
X00007200Y00036024D01*
X00007160Y00036036D01*
X00007122Y00036050D01*
X00007084Y00036067D01*
X00007048Y00036086D01*
X00007013Y00036108D01*
X00006980Y00036131D01*
X00006942Y00036157D01*
X00006903Y00036181D01*
X00006863Y00036202D01*
X00006821Y00036221D01*
X00006778Y00036237D01*
X00006734Y00036251D01*
X00006690Y00036262D01*
X00006645Y00036270D01*
X00006599Y00036275D01*
X00006554Y00036278D01*
X00000314Y00036278D01*
X00000314Y00033562D01*
X00000314Y00033563D01*
X00002863Y00033563D01*
X00002906Y00033561D01*
X00002948Y00033554D01*
X00002990Y00033543D01*
X00003029Y00033527D01*
X00003067Y00033507D01*
X00003102Y00033482D01*
X00003135Y00033455D01*
X00003164Y00033423D01*
X00003190Y00033389D01*
X00003212Y00033352D01*
X00003230Y00033313D01*
X00003243Y00033273D01*
X00003252Y00033231D01*
X00003257Y00033188D01*
X00003256Y00033145D01*
X00003251Y00033103D01*
X00003242Y00033061D01*
X00003228Y00033021D01*
X00003209Y00032982D01*
X00003187Y00032946D01*
X00003137Y00032874D01*
X00003126Y00032858D01*
X00003114Y00032844D01*
X00003101Y00032829D01*
X00003088Y00032816D01*
X00003074Y00032803D01*
X00003060Y00032791D01*
X00003045Y00032779D01*
X00003029Y00032768D01*
X00003013Y00032758D01*
X00002996Y00032749D01*
X00002979Y00032741D01*
X00002962Y00032733D01*
X00002944Y00032727D01*
X00002926Y00032721D01*
X00002908Y00032716D01*
X00002889Y00032712D01*
X00002870Y00032708D01*
X00002851Y00032706D01*
X00002833Y00032705D01*
X00002814Y00032704D01*
X00001145Y00032704D01*
X00000991Y00032692D01*
X00000840Y00032656D01*
X00000698Y00032597D01*
X00000566Y00032516D01*
X00000449Y00032416D01*
X00000348Y00032299D01*
X00000268Y00032167D01*
X00000208Y00032024D01*
X00000172Y00031874D01*
X00000160Y00031720D01*
X00000160Y00017941D01*
X00000172Y00017787D01*
X00000208Y00017636D01*
X00000268Y00017494D01*
X00000348Y00017362D01*
X00000449Y00017245D01*
X00000566Y00017144D01*
X00000698Y00017064D01*
X00000840Y00017004D01*
X00000991Y00016968D01*
X00001145Y00016956D01*
X00004408Y00016956D01*
X00004408Y00016956D01*
X00004434Y00016955D01*
X00004459Y00016953D01*
X00004485Y00016949D01*
X00004510Y00016943D01*
X00004535Y00016935D01*
X00004559Y00016926D01*
X00004582Y00016915D01*
X00004605Y00016903D01*
X00004627Y00016890D01*
X00004648Y00016875D01*
X00004668Y00016858D01*
X00004687Y00016840D01*
X00004705Y00016821D01*
X00004721Y00016801D01*
X00004736Y00016780D01*
X00004749Y00016758D01*
X00004762Y00016736D01*
X00004772Y00016712D01*
X00004781Y00016688D01*
X00004789Y00016663D01*
X00004827Y00016519D01*
X00004834Y00016484D01*
X00004838Y00016448D01*
X00004840Y00016412D01*
X00004837Y00016377D01*
X00004832Y00016341D01*
X00004823Y00016306D01*
X00004811Y00016272D01*
X00004796Y00016239D01*
X00004778Y00016208D01*
X00004758Y00016179D01*
X00004735Y00016151D01*
X00004709Y00016126D01*
X00004681Y00016103D01*
X00004651Y00016083D01*
X00004620Y00016066D01*
X00004587Y00016051D01*
X00004553Y00016040D01*
X00004518Y00016032D01*
X00004482Y00016027D01*
X00004446Y00016025D01*
X00004446Y00016025D01*
X00001163Y00016025D01*
X00001009Y00016013D01*
X00000859Y00015977D01*
X00000716Y00015918D01*
X00000585Y00015837D01*
X00000467Y00015737D01*
X00000367Y00015619D01*
X00000286Y00015488D01*
X00000227Y00015345D01*
X00000191Y00015195D01*
X00000179Y00015041D01*
X00000179Y00001261D01*
X00000191Y00001107D01*
X00000227Y00000957D01*
X00000286Y00000815D01*
X00000367Y00000683D01*
X00000467Y00000565D01*
X00000585Y00000465D01*
X00000716Y00000384D01*
X00000859Y00000325D01*
X00001009Y00000289D01*
X00001163Y00000277D01*
X00037384Y00000277D01*
X00037538Y00000289D01*
X00037688Y00000325D01*
X00037831Y00000384D01*
X00037962Y00000465D01*
X00038080Y00000565D01*
X00038180Y00000683D01*
X00038261Y00000815D01*
X00038320Y00000957D01*
X00038356Y00001107D01*
X00038368Y00001261D01*
X00038368Y00015041D01*
X00038356Y00015195D01*
X00038320Y00015345D01*
X00038261Y00015488D01*
X00038180Y00015619D01*
X00038080Y00015737D01*
X00037962Y00015837D01*
X00037831Y00015918D01*
X00037688Y00015977D01*
X00037538Y00016013D01*
X00037384Y00016025D01*
X00033742Y00016025D01*
X00033706Y00016027D01*
X00033670Y00016032D01*
X00033635Y00016040D01*
X00033601Y00016051D01*
X00033568Y00016066D01*
X00033537Y00016083D01*
X00033507Y00016103D01*
X00033479Y00016126D01*
X00033453Y00016151D01*
X00033430Y00016179D01*
X00033410Y00016208D01*
X00033392Y00016239D01*
X00033377Y00016272D01*
X00033365Y00016306D01*
X00033356Y00016341D01*
X00033351Y00016377D01*
X00033348Y00016412D01*
X00033349Y00016448D01*
X00033354Y00016484D01*
X00033361Y00016519D01*
X00033399Y00016663D01*
X00033407Y00016688D01*
X00033416Y00016712D01*
X00033426Y00016736D01*
X00033439Y00016758D01*
X00033452Y00016780D01*
X00033467Y00016801D01*
X00033483Y00016821D01*
X00033501Y00016840D01*
X00033520Y00016858D01*
X00033540Y00016875D01*
X00033561Y00016890D01*
X00033583Y00016903D01*
X00033605Y00016915D01*
X00033629Y00016926D01*
X00033653Y00016935D01*
X00033678Y00016943D01*
X00033703Y00016949D01*
X00033729Y00016953D01*
X00033754Y00016955D01*
X00033780Y00016956D01*
X00037365Y00016956D01*
X00037519Y00016968D01*
X00037669Y00017004D01*
X00037812Y00017064D01*
X00037944Y00017144D01*
X00038061Y00017245D01*
X00038161Y00017362D01*
X00038242Y00017494D01*
X00038301Y00017636D01*
X00038337Y00017787D01*
X00038349Y00017941D01*
X00038349Y00031720D01*
X00038337Y00031874D01*
X00038301Y00032024D01*
X00038242Y00032167D01*
X00038161Y00032299D01*
X00038061Y00032416D01*
X00037944Y00032516D01*
X00037812Y00032597D01*
X00037669Y00032656D01*
X00037519Y00032692D01*
X00037365Y00032704D01*
X00034587Y00032704D01*
X00034587Y00032704D01*
X00034567Y00032705D01*
X00034547Y00032706D01*
X00034527Y00032709D01*
X00034507Y00032712D01*
X00034488Y00032717D01*
X00034469Y00032723D01*
X00034450Y00032729D01*
X00034431Y00032736D01*
X00034413Y00032745D01*
X00034395Y00032754D01*
X00034378Y00032764D01*
X00034361Y00032775D01*
X00034345Y00032787D01*
X00034330Y00032800D01*
X00034315Y00032813D01*
X00034301Y00032828D01*
X00034287Y00032843D01*
X00034275Y00032858D01*
X00034263Y00032874D01*
X00034252Y00032891D01*
X00034183Y00033002D01*
X00034163Y00033039D01*
X00034147Y00033077D01*
X00034135Y00033117D01*
X00034128Y00033159D01*
X00034125Y00033200D01*
X00034126Y00033242D01*
X00034132Y00033283D01*
X00034142Y00033324D01*
X00034156Y00033363D01*
X00034174Y00033401D01*
X00034197Y00033436D01*
X00034223Y00033469D01*
X00034252Y00033499D01*
X00034284Y00033526D01*
X00034319Y00033549D01*
X00034356Y00033568D01*
X00034395Y00033583D01*
X00034435Y00033594D01*
X00034477Y00033601D01*
X00034518Y00033603D01*
X00036082Y00033603D01*
X00036128Y00033605D01*
X00036175Y00033611D01*
X00036221Y00033620D01*
X00036266Y00033631D01*
X00036311Y00033645D01*
X00036354Y00033662D01*
X00036397Y00033682D01*
X00036438Y00033704D01*
X00036477Y00033729D01*
X00036515Y00033756D01*
X00036548Y00033779D01*
X00036583Y00033799D01*
X00036618Y00033818D01*
X00036655Y00033834D01*
X00036692Y00033847D01*
X00036731Y00033859D01*
X00036770Y00033868D01*
X00036809Y00033874D01*
X00036849Y00033878D01*
X00036889Y00033879D01*
X00037913Y00033879D01*
X00037913Y00033878D01*
X00038082Y00033892D01*
X00038247Y00033931D01*
X00038404Y00033996D01*
X00038549Y00034085D01*
X00038678Y00034195D01*
X00038788Y00034325D01*
X00038877Y00034469D01*
X00038942Y00034626D01*
X00038982Y00034791D01*
X00038995Y00034961D01*
X00038982Y00035130D01*
X00038942Y00035295D01*
X00038877Y00035452D01*
X00038788Y00035597D01*
X00038678Y00035726D01*
X00038549Y00035836D01*
X00038404Y00035925D01*
X00038247Y00035990D01*
X00038082Y00036029D01*
X00037913Y00036043D01*
X00036889Y00036043D01*
X00036848Y00036044D01*
X00036808Y00036048D01*
X00036767Y00036055D01*
X00036727Y00036064D01*
X00036688Y00036075D01*
X00036649Y00036090D01*
X00036612Y00036106D01*
X00036576Y00036125D01*
X00036541Y00036147D01*
X00036507Y00036171D01*
X00036470Y00036197D01*
X00036431Y00036220D01*
X00036390Y00036242D01*
X00036348Y00036261D01*
X00036306Y00036277D01*
X00036262Y00036290D01*
X00036218Y00036301D01*
X00036172Y00036309D01*
X00036127Y00036315D01*
X00036081Y00036317D01*
X00029841Y00036317D01*
X00029842Y00033602D01*
X00029842Y00033603D01*
X00032410Y00033603D01*
X00032452Y00033601D01*
X00032493Y00033594D01*
X00032533Y00033583D01*
X00032572Y00033568D01*
X00032609Y00033549D01*
X00032644Y00033526D01*
X00032676Y00033499D01*
X00032706Y00033469D01*
X00032731Y00033436D01*
X00032754Y00033401D01*
X00032772Y00033363D01*
X00032786Y00033324D01*
X00032796Y00033283D01*
X00032802Y00033242D01*
X00032803Y00033200D01*
X00032800Y00033159D01*
X00032793Y00033117D01*
X00032781Y00033077D01*
X00032765Y00033039D01*
X00032745Y00033002D01*
X00032676Y00032891D01*
X00032665Y00032874D01*
X00032653Y00032858D01*
X00032641Y00032843D01*
X00032627Y00032828D01*
X00032613Y00032813D01*
X00032598Y00032800D01*
X00032583Y00032787D01*
X00032567Y00032775D01*
X00032550Y00032764D01*
X00032533Y00032754D01*
X00032515Y00032745D01*
X00032497Y00032736D01*
X00032478Y00032729D01*
X00032459Y00032723D01*
X00032440Y00032717D01*
X00032421Y00032712D01*
X00032401Y00032709D01*
X00032381Y00032706D01*
X00032361Y00032705D01*
X00032341Y00032704D01*
X00006615Y00016956D02*
X00006615Y00016956D01*
X00018187Y00016956D01*
X00018187Y00016956D01*
X00018213Y00016955D01*
X00018239Y00016953D01*
X00018264Y00016949D01*
X00018290Y00016943D01*
X00018314Y00016935D01*
X00018339Y00016926D01*
X00018362Y00016915D01*
X00018385Y00016903D01*
X00018407Y00016890D01*
X00018428Y00016875D01*
X00018448Y00016858D01*
X00018466Y00016840D01*
X00018484Y00016821D01*
X00018500Y00016801D01*
X00018515Y00016780D01*
X00018529Y00016758D01*
X00018541Y00016736D01*
X00018552Y00016712D01*
X00018561Y00016688D01*
X00018568Y00016663D01*
X00018606Y00016519D01*
X00018614Y00016484D01*
X00018618Y00016448D01*
X00018619Y00016412D01*
X00018617Y00016377D01*
X00018611Y00016341D01*
X00018603Y00016306D01*
X00018591Y00016272D01*
X00018576Y00016239D01*
X00018558Y00016208D01*
X00018537Y00016179D01*
X00018514Y00016151D01*
X00018488Y00016126D01*
X00018461Y00016103D01*
X00018431Y00016083D01*
X00018399Y00016066D01*
X00018366Y00016051D01*
X00018332Y00016040D01*
X00018297Y00016032D01*
X00018261Y00016027D01*
X00018225Y00016025D01*
X00018225Y00016025D01*
X00006577Y00016025D01*
X00006577Y00016025D01*
X00006541Y00016027D01*
X00006505Y00016032D01*
X00006470Y00016040D01*
X00006436Y00016051D01*
X00006403Y00016066D01*
X00006371Y00016083D01*
X00006342Y00016103D01*
X00006314Y00016126D01*
X00006288Y00016151D01*
X00006265Y00016179D01*
X00006244Y00016208D01*
X00006226Y00016239D01*
X00006211Y00016272D01*
X00006200Y00016306D01*
X00006191Y00016341D01*
X00006185Y00016377D01*
X00006183Y00016412D01*
X00006184Y00016448D01*
X00006188Y00016484D01*
X00006196Y00016519D01*
X00006234Y00016663D01*
X00006241Y00016688D01*
X00006250Y00016712D01*
X00006261Y00016736D01*
X00006273Y00016758D01*
X00006287Y00016780D01*
X00006302Y00016801D01*
X00006318Y00016821D01*
X00006336Y00016840D01*
X00006355Y00016858D01*
X00006374Y00016875D01*
X00006395Y00016890D01*
X00006417Y00016903D01*
X00006440Y00016915D01*
X00006464Y00016926D01*
X00006488Y00016935D01*
X00006513Y00016943D01*
X00006538Y00016949D01*
X00006563Y00016953D01*
X00006589Y00016955D01*
X00006615Y00016956D01*
X00036902Y00001223D02*
X00036902Y00001223D01*
X00036783Y00001229D01*
X00036668Y00001261D01*
X00036563Y00001317D01*
X00036472Y00001394D01*
X00036400Y00001489D01*
X00036350Y00001597D01*
X00036324Y00001714D01*
X00036324Y00001833D01*
X00036350Y00001949D01*
X00036400Y00002057D01*
X00036472Y00002152D01*
X00036563Y00002229D01*
X00036668Y00002285D01*
X00036783Y00002317D01*
X00036902Y00002324D01*
X00037019Y00002304D01*
X00037130Y00002260D01*
X00037229Y00002193D01*
X00037311Y00002107D01*
X00037372Y00002005D01*
X00037410Y00001892D01*
X00037423Y00001773D01*
X00037410Y00001655D01*
X00037372Y00001542D01*
X00037311Y00001440D01*
X00037229Y00001353D01*
X00037130Y00001286D01*
X00037019Y00001242D01*
X00036902Y00001223D01*
X00001709Y00001144D02*
X00001709Y00001144D01*
X00001573Y00001152D01*
X00001442Y00001188D01*
X00001322Y00001252D01*
X00001218Y00001340D01*
X00001135Y00001448D01*
X00001078Y00001572D01*
X00001049Y00001705D01*
X00001049Y00001841D01*
X00001078Y00001974D01*
X00001135Y00002098D01*
X00001218Y00002206D01*
X00001322Y00002295D01*
X00001442Y00002358D01*
X00001573Y00002395D01*
X00001709Y00002402D01*
X00001844Y00002380D01*
X00001970Y00002330D01*
X00002083Y00002253D01*
X00002177Y00002154D01*
X00002247Y00002038D01*
X00002290Y00001909D01*
X00002305Y00001773D01*
X00002290Y00001638D01*
X00002247Y00001509D01*
X00002177Y00001392D01*
X00002083Y00001293D01*
X00001970Y00001217D01*
X00001844Y00001166D01*
X00001709Y00001144D01*
X00005831Y00005516D02*
X00005831Y00005516D01*
X00005667Y00005532D01*
X00005506Y00005569D01*
X00005351Y00005628D01*
X00005206Y00005707D01*
X00005072Y00005804D01*
X00004953Y00005919D01*
X00004850Y00006048D01*
X00004765Y00006190D01*
X00004700Y00006342D01*
X00004656Y00006501D01*
X00004633Y00006664D01*
X00004633Y00006830D01*
X00004654Y00006994D01*
X00004697Y00007153D01*
X00004761Y00007305D01*
X00004845Y00007448D01*
X00004947Y00007578D01*
X00005066Y00007693D01*
X00005198Y00007791D01*
X00005343Y00007871D01*
X00005497Y00007931D01*
X00005658Y00007970D01*
X00005822Y00007986D01*
X00005988Y00007981D01*
X00006151Y00007954D01*
X00006308Y00007905D01*
X00006458Y00007836D01*
X00006598Y00007747D01*
X00006724Y00007640D01*
X00006835Y00007518D01*
X00006929Y00007381D01*
X00006933Y00006129D01*
X00006933Y00006129D01*
X00006840Y00005992D01*
X00006730Y00005869D01*
X00006605Y00005761D01*
X00006466Y00005672D01*
X00006317Y00005601D01*
X00006159Y00005551D01*
X00005996Y00005523D01*
X00005831Y00005516D01*
X00012130Y00005516D02*
X00012130Y00005516D01*
X00011966Y00005532D01*
X00011805Y00005569D01*
X00011650Y00005628D01*
X00011505Y00005707D01*
X00011372Y00005804D01*
X00011252Y00005919D01*
X00011149Y00006048D01*
X00011064Y00006190D01*
X00010999Y00006342D01*
X00010955Y00006501D01*
X00010932Y00006664D01*
X00010932Y00006830D01*
X00010953Y00006994D01*
X00010996Y00007153D01*
X00011060Y00007305D01*
X00011144Y00007448D01*
X00011246Y00007578D01*
X00011365Y00007693D01*
X00011498Y00007791D01*
X00011642Y00007871D01*
X00011796Y00007931D01*
X00011957Y00007970D01*
X00012122Y00007986D01*
X00012287Y00007981D01*
X00012450Y00007954D01*
X00012608Y00007905D01*
X00012758Y00007836D01*
X00012897Y00007747D01*
X00013023Y00007640D01*
X00013134Y00007518D01*
X00013228Y00007381D01*
X00013232Y00006129D01*
X00013232Y00006129D01*
X00013140Y00005992D01*
X00013030Y00005869D01*
X00012904Y00005761D01*
X00012765Y00005672D01*
X00012616Y00005601D01*
X00012458Y00005551D01*
X00012296Y00005523D01*
X00012130Y00005516D01*
X00018430Y00005516D02*
X00018430Y00005516D01*
X00018265Y00005532D01*
X00018104Y00005569D01*
X00017950Y00005628D01*
X00017804Y00005707D01*
X00017671Y00005804D01*
X00017551Y00005919D01*
X00017448Y00006048D01*
X00017364Y00006190D01*
X00017298Y00006342D01*
X00017254Y00006501D01*
X00017232Y00006664D01*
X00017231Y00006830D01*
X00017252Y00006994D01*
X00017296Y00007153D01*
X00017360Y00007305D01*
X00017443Y00007448D01*
X00017546Y00007578D01*
X00017664Y00007693D01*
X00017797Y00007791D01*
X00017942Y00007871D01*
X00018096Y00007931D01*
X00018256Y00007970D01*
X00018421Y00007986D01*
X00018586Y00007981D01*
X00018749Y00007954D01*
X00018907Y00007905D01*
X00019057Y00007836D01*
X00019196Y00007747D01*
X00019323Y00007640D01*
X00019433Y00007518D01*
X00019527Y00007381D01*
X00019531Y00006129D01*
X00019532Y00006129D01*
X00019439Y00005992D01*
X00019329Y00005869D01*
X00019203Y00005761D01*
X00019065Y00005672D01*
X00018915Y00005601D01*
X00018758Y00005551D01*
X00018595Y00005523D01*
X00018430Y00005516D01*
X00026304Y00005516D02*
X00026304Y00005516D01*
X00026139Y00005532D01*
X00025978Y00005569D01*
X00025824Y00005628D01*
X00025678Y00005707D01*
X00025545Y00005804D01*
X00025425Y00005919D01*
X00025322Y00006048D01*
X00025238Y00006190D01*
X00025172Y00006342D01*
X00025128Y00006501D01*
X00025106Y00006664D01*
X00025105Y00006830D01*
X00025126Y00006994D01*
X00025170Y00007153D01*
X00025234Y00007305D01*
X00025317Y00007448D01*
X00025420Y00007578D01*
X00025538Y00007693D01*
X00025671Y00007791D01*
X00025816Y00007871D01*
X00025970Y00007931D01*
X00026130Y00007970D01*
X00026295Y00007986D01*
X00026460Y00007981D01*
X00026623Y00007954D01*
X00026781Y00007905D01*
X00026931Y00007836D01*
X00027070Y00007747D01*
X00027197Y00007640D01*
X00027307Y00007518D01*
X00027401Y00007381D01*
X00027405Y00006129D01*
X00027406Y00006129D01*
X00027313Y00005992D01*
X00027203Y00005869D01*
X00027077Y00005761D01*
X00026939Y00005672D01*
X00026789Y00005601D01*
X00026632Y00005551D01*
X00026469Y00005523D01*
X00026304Y00005516D01*
X00032603Y00005516D02*
X00032603Y00005516D01*
X00032438Y00005532D01*
X00032277Y00005569D01*
X00032123Y00005628D01*
X00031977Y00005707D01*
X00031844Y00005804D01*
X00031725Y00005919D01*
X00031622Y00006048D01*
X00031537Y00006190D01*
X00031472Y00006342D01*
X00031427Y00006501D01*
X00031405Y00006664D01*
X00031404Y00006830D01*
X00031426Y00006994D01*
X00031469Y00007153D01*
X00031533Y00007305D01*
X00031617Y00007448D01*
X00031719Y00007578D01*
X00031837Y00007693D01*
X00031970Y00007791D01*
X00032115Y00007871D01*
X00032269Y00007931D01*
X00032430Y00007970D01*
X00032594Y00007986D01*
X00032759Y00007981D01*
X00032922Y00007954D01*
X00033080Y00007905D01*
X00033230Y00007836D01*
X00033370Y00007747D01*
X00033496Y00007640D01*
X00033607Y00007518D01*
X00033700Y00007381D01*
X00033704Y00006129D01*
X00033705Y00006129D01*
X00033612Y00005992D01*
X00033502Y00005869D01*
X00033377Y00005761D01*
X00033238Y00005672D01*
X00033088Y00005601D01*
X00032931Y00005551D01*
X00032768Y00005523D01*
X00032603Y00005516D01*
X00005831Y00011816D02*
X00005831Y00011816D01*
X00005667Y00011831D01*
X00005506Y00011869D01*
X00005351Y00011927D01*
X00005206Y00012006D01*
X00005072Y00012103D01*
X00004953Y00012218D01*
X00004850Y00012347D01*
X00004765Y00012489D01*
X00004700Y00012641D01*
X00004656Y00012800D01*
X00004633Y00012964D01*
X00004633Y00013129D01*
X00004654Y00013293D01*
X00004697Y00013452D01*
X00004761Y00013605D01*
X00004845Y00013747D01*
X00004947Y00013877D01*
X00005066Y00013992D01*
X00005198Y00014091D01*
X00005343Y00014170D01*
X00005497Y00014230D01*
X00005658Y00014269D01*
X00005822Y00014286D01*
X00005988Y00014280D01*
X00006151Y00014253D01*
X00006308Y00014204D01*
X00006458Y00014135D01*
X00006598Y00014046D01*
X00006724Y00013939D01*
X00006835Y00013817D01*
X00006929Y00013681D01*
X00006933Y00012429D01*
X00006933Y00012428D01*
X00006840Y00012291D01*
X00006730Y00012168D01*
X00006605Y00012061D01*
X00006466Y00011971D01*
X00006317Y00011900D01*
X00006159Y00011850D01*
X00005996Y00011822D01*
X00005831Y00011816D01*
X00012130Y00011816D02*
X00012130Y00011816D01*
X00011966Y00011831D01*
X00011805Y00011869D01*
X00011650Y00011927D01*
X00011505Y00012006D01*
X00011372Y00012103D01*
X00011252Y00012218D01*
X00011149Y00012347D01*
X00011064Y00012489D01*
X00010999Y00012641D01*
X00010955Y00012800D01*
X00010932Y00012964D01*
X00010932Y00013129D01*
X00010953Y00013293D01*
X00010996Y00013452D01*
X00011060Y00013605D01*
X00011144Y00013747D01*
X00011246Y00013877D01*
X00011365Y00013992D01*
X00011498Y00014091D01*
X00011642Y00014170D01*
X00011796Y00014230D01*
X00011957Y00014269D01*
X00012122Y00014286D01*
X00012287Y00014280D01*
X00012450Y00014253D01*
X00012608Y00014204D01*
X00012758Y00014135D01*
X00012897Y00014046D01*
X00013023Y00013939D01*
X00013134Y00013817D01*
X00013228Y00013681D01*
X00013232Y00012429D01*
X00013232Y00012428D01*
X00013140Y00012291D01*
X00013030Y00012168D01*
X00012904Y00012061D01*
X00012765Y00011971D01*
X00012616Y00011900D01*
X00012458Y00011850D01*
X00012296Y00011822D01*
X00012130Y00011816D01*
X00018430Y00011816D02*
X00018430Y00011816D01*
X00018265Y00011831D01*
X00018104Y00011869D01*
X00017950Y00011927D01*
X00017804Y00012006D01*
X00017671Y00012103D01*
X00017551Y00012218D01*
X00017448Y00012347D01*
X00017364Y00012489D01*
X00017298Y00012641D01*
X00017254Y00012800D01*
X00017232Y00012964D01*
X00017231Y00013129D01*
X00017252Y00013293D01*
X00017296Y00013452D01*
X00017360Y00013605D01*
X00017443Y00013747D01*
X00017546Y00013877D01*
X00017664Y00013992D01*
X00017797Y00014091D01*
X00017942Y00014170D01*
X00018096Y00014230D01*
X00018256Y00014269D01*
X00018421Y00014286D01*
X00018586Y00014280D01*
X00018749Y00014253D01*
X00018907Y00014204D01*
X00019057Y00014135D01*
X00019196Y00014046D01*
X00019323Y00013939D01*
X00019433Y00013817D01*
X00019527Y00013681D01*
X00019531Y00012429D01*
X00019532Y00012428D01*
X00019439Y00012291D01*
X00019329Y00012168D01*
X00019203Y00012061D01*
X00019065Y00011971D01*
X00018915Y00011900D01*
X00018758Y00011850D01*
X00018595Y00011822D01*
X00018430Y00011816D01*
X00026304Y00011816D02*
X00026304Y00011816D01*
X00026139Y00011831D01*
X00025978Y00011869D01*
X00025824Y00011927D01*
X00025678Y00012006D01*
X00025545Y00012103D01*
X00025425Y00012218D01*
X00025322Y00012347D01*
X00025238Y00012489D01*
X00025172Y00012641D01*
X00025128Y00012800D01*
X00025106Y00012964D01*
X00025105Y00013129D01*
X00025126Y00013293D01*
X00025170Y00013452D01*
X00025234Y00013605D01*
X00025317Y00013747D01*
X00025420Y00013877D01*
X00025538Y00013992D01*
X00025671Y00014091D01*
X00025816Y00014170D01*
X00025970Y00014230D01*
X00026130Y00014269D01*
X00026295Y00014286D01*
X00026460Y00014280D01*
X00026623Y00014253D01*
X00026781Y00014204D01*
X00026931Y00014135D01*
X00027070Y00014046D01*
X00027197Y00013939D01*
X00027307Y00013817D01*
X00027401Y00013681D01*
X00027405Y00012429D01*
X00027406Y00012428D01*
X00027313Y00012291D01*
X00027203Y00012168D01*
X00027077Y00012061D01*
X00026939Y00011971D01*
X00026789Y00011900D01*
X00026632Y00011850D01*
X00026469Y00011822D01*
X00026304Y00011816D01*
X00032603Y00011816D02*
X00032603Y00011816D01*
X00032438Y00011831D01*
X00032277Y00011869D01*
X00032123Y00011927D01*
X00031977Y00012006D01*
X00031844Y00012103D01*
X00031725Y00012218D01*
X00031622Y00012347D01*
X00031537Y00012489D01*
X00031472Y00012641D01*
X00031427Y00012800D01*
X00031405Y00012964D01*
X00031404Y00013129D01*
X00031426Y00013293D01*
X00031469Y00013452D01*
X00031533Y00013605D01*
X00031617Y00013747D01*
X00031719Y00013877D01*
X00031837Y00013992D01*
X00031970Y00014091D01*
X00032115Y00014170D01*
X00032269Y00014230D01*
X00032430Y00014269D01*
X00032594Y00014286D01*
X00032759Y00014280D01*
X00032922Y00014253D01*
X00033080Y00014204D01*
X00033230Y00014135D01*
X00033370Y00014046D01*
X00033496Y00013939D01*
X00033607Y00013817D01*
X00033700Y00013681D01*
X00033704Y00012429D01*
X00033705Y00012428D01*
X00033612Y00012291D01*
X00033502Y00012168D01*
X00033377Y00012061D01*
X00033238Y00011971D01*
X00033088Y00011900D01*
X00032931Y00011850D01*
X00032768Y00011822D01*
X00032603Y00011816D01*
X00001705Y00013979D02*
X00001705Y00013979D01*
X00001586Y00013985D01*
X00001471Y00014017D01*
X00001366Y00014073D01*
X00001275Y00014150D01*
X00001203Y00014245D01*
X00001153Y00014353D01*
X00001127Y00014469D01*
X00001127Y00014589D01*
X00001153Y00014705D01*
X00001203Y00014813D01*
X00001275Y00014908D01*
X00001366Y00014985D01*
X00001471Y00015041D01*
X00001586Y00015073D01*
X00001705Y00015079D01*
X00001823Y00015060D01*
X00001933Y00015016D01*
X00002032Y00014949D01*
X00002114Y00014863D01*
X00002175Y00014761D01*
X00002213Y00014648D01*
X00002226Y00014529D01*
X00002213Y00014411D01*
X00002175Y00014298D01*
X00002114Y00014196D01*
X00002032Y00014109D01*
X00001933Y00014042D01*
X00001823Y00013998D01*
X00001705Y00013979D01*
X00036906Y00013900D02*
X00036906Y00013900D01*
X00036770Y00013907D01*
X00036639Y00013944D01*
X00036518Y00014008D01*
X00036415Y00014096D01*
X00036332Y00014204D01*
X00036275Y00014328D01*
X00036246Y00014461D01*
X00036246Y00014597D01*
X00036275Y00014730D01*
X00036332Y00014854D01*
X00036415Y00014962D01*
X00036518Y00015050D01*
X00036639Y00015114D01*
X00036770Y00015151D01*
X00036906Y00015158D01*
X00037040Y00015136D01*
X00037167Y00015086D01*
X00037280Y00015009D01*
X00037373Y00014910D01*
X00037444Y00014794D01*
X00037487Y00014664D01*
X00037502Y00014529D01*
X00037487Y00014394D01*
X00037444Y00014265D01*
X00037373Y00014148D01*
X00037280Y00014049D01*
X00037167Y00013973D01*
X00037040Y00013922D01*
X00036906Y00013900D01*
X00020356Y00016025D02*
X00020356Y00016025D01*
X00031611Y00016025D01*
X00031647Y00016027D01*
X00031683Y00016032D01*
X00031718Y00016040D01*
X00031752Y00016051D01*
X00031785Y00016066D01*
X00031817Y00016083D01*
X00031846Y00016103D01*
X00031874Y00016126D01*
X00031900Y00016151D01*
X00031923Y00016179D01*
X00031944Y00016208D01*
X00031962Y00016239D01*
X00031977Y00016272D01*
X00031988Y00016306D01*
X00031997Y00016341D01*
X00032003Y00016377D01*
X00032005Y00016412D01*
X00032004Y00016448D01*
X00031999Y00016484D01*
X00031992Y00016519D01*
X00031954Y00016663D01*
X00031947Y00016688D01*
X00031937Y00016712D01*
X00031927Y00016736D01*
X00031915Y00016758D01*
X00031901Y00016780D01*
X00031886Y00016801D01*
X00031870Y00016821D01*
X00031852Y00016840D01*
X00031833Y00016858D01*
X00031814Y00016875D01*
X00031793Y00016890D01*
X00031771Y00016903D01*
X00031748Y00016915D01*
X00031724Y00016926D01*
X00031700Y00016935D01*
X00031675Y00016943D01*
X00031650Y00016949D01*
X00031625Y00016953D01*
X00031599Y00016955D01*
X00031573Y00016956D01*
X00020394Y00016956D01*
X00020394Y00016956D01*
X00020368Y00016955D01*
X00020343Y00016953D01*
X00020317Y00016949D01*
X00020292Y00016943D01*
X00020267Y00016935D01*
X00020243Y00016926D01*
X00020220Y00016915D01*
X00020197Y00016903D01*
X00020175Y00016890D01*
X00020154Y00016875D01*
X00020134Y00016858D01*
X00020115Y00016840D01*
X00020098Y00016821D01*
X00020081Y00016801D01*
X00020066Y00016780D01*
X00020053Y00016758D01*
X00020041Y00016736D01*
X00020030Y00016712D01*
X00020021Y00016688D01*
X00020014Y00016663D01*
X00019976Y00016519D01*
X00019968Y00016484D01*
X00019964Y00016448D01*
X00019963Y00016412D01*
X00019965Y00016377D01*
X00019970Y00016341D01*
X00019979Y00016306D01*
X00019991Y00016272D01*
X00020006Y00016239D01*
X00020024Y00016208D01*
X00020044Y00016179D01*
X00020068Y00016151D01*
X00020093Y00016126D01*
X00020121Y00016103D01*
X00020151Y00016083D01*
X00020182Y00016066D01*
X00020215Y00016051D01*
X00020250Y00016040D01*
X00020285Y00016032D01*
X00020320Y00016027D01*
X00020356Y00016025D01*
M02*