G04 #@! TF.FileFunction,Copper,L1,Top,Signal*
%FSLAX46Y46*%
G04 Gerber Fmt 4.6, Leading zero omitted, Abs format (unit mm)*
G04 Created by KiCad (PCBNEW no-bzr-kicad_new3d-viewer) date 06/27/16 23:25:45*
%MOMM*%
%LPD*%
G01*
G04 APERTURE LIST*
%ADD10C,0.100000*%
%ADD11C,0.150000*%
G04 APERTURE END LIST*
D10*
D11*
X114911900Y-82160340D02*
X114911900Y-89760340D01*
X109711900Y-82160340D02*
X114911900Y-82160340D01*
X109711900Y-89760340D02*
X109711900Y-82160340D01*
X114911900Y-89760340D02*
X109711900Y-89760340D01*
X136411900Y-87760340D02*
X136411900Y-92160340D01*
X137911900Y-87760340D02*
X136411900Y-87760340D01*
X137911900Y-84060340D02*
X137911900Y-87760340D01*
X122911900Y-84060340D02*
X137911900Y-84060340D01*
X122911900Y-87760340D02*
X122911900Y-84060340D01*
X123911900Y-87760340D02*
X122911900Y-87760340D01*
X123911900Y-92160340D02*
X123911900Y-87760340D01*
X136411900Y-92160340D02*
X123911900Y-92160340D01*
X86808348Y-94929764D02*
G75*
G03X86808348Y-94929764I-1600000J0D01*
G01*
X83908348Y-98729764D02*
G75*
G02X81408348Y-96229764I0J2500000D01*
G01*
X176008348Y-94929764D02*
G75*
G03X176008348Y-94929764I-1400000J0D01*
G01*
X178408348Y-96229764D02*
G75*
G02X175908348Y-98729764I-2500000J0D01*
G01*
X176208348Y-62529764D02*
G75*
G03X176208348Y-62529764I-1600000J0D01*
G01*
X175908348Y-58729764D02*
G75*
G02X178408348Y-61229764I0J-2500000D01*
G01*
X81408348Y-61229764D02*
G75*
G02X83908348Y-58729764I2500000J0D01*
G01*
X86608348Y-62529764D02*
G75*
G03X86608348Y-62529764I-1400000J0D01*
G01*
X81408348Y-61229764D02*
X81408348Y-96229764D01*
X178408348Y-96229764D02*
X178408348Y-61229764D01*
X175908348Y-98729764D02*
X83908348Y-98729764D01*
X175908348Y-58729764D02*
X83908348Y-58729764D01*
X166567437Y-83864326D02*
G75*
G02X166558348Y-80679764I-2709089J1584562D01*
G01*
X166558348Y-80679764D02*
X166558348Y-83879764D01*
D10*
G36*
X81208348Y-98929764D02*
X178608348Y-98929764D01*
X178608348Y-61229764D01*
X178533348Y-61229764D01*
X178533348Y-96229764D01*
X178530946Y-96241840D01*
X178530946Y-96254150D01*
X178340645Y-97210859D01*
X178340645Y-97210860D01*
X178321981Y-97255919D01*
X177780049Y-98066977D01*
X177745561Y-98101465D01*
X176934504Y-98643396D01*
X176934503Y-98643397D01*
X176908108Y-98654330D01*
X176889444Y-98662061D01*
X176889443Y-98662061D01*
X175932734Y-98852362D01*
X175920424Y-98852362D01*
X175908348Y-98854764D01*
X83908348Y-98854764D01*
X83896272Y-98852362D01*
X83883962Y-98852362D01*
X82927253Y-98662061D01*
X82927252Y-98662061D01*
X82882193Y-98643397D01*
X82071135Y-98101465D01*
X82036647Y-98066977D01*
X81494716Y-97255920D01*
X81494715Y-97255919D01*
X81476051Y-97210859D01*
X81285750Y-96254150D01*
X81285750Y-96241840D01*
X81283348Y-96229764D01*
X81283348Y-61229764D01*
X81285750Y-61217688D01*
X81285750Y-61205378D01*
X81476051Y-60248669D01*
X81494715Y-60203609D01*
X81494716Y-60203608D01*
X82036647Y-59392551D01*
X82071135Y-59358063D01*
X82882193Y-58816131D01*
X82927252Y-58797467D01*
X82927253Y-58797467D01*
X83883962Y-58607166D01*
X83896272Y-58607166D01*
X83908348Y-58604764D01*
X175908348Y-58604764D01*
X175920424Y-58607166D01*
X175932734Y-58607166D01*
X176889443Y-58797467D01*
X176908108Y-58805198D01*
X176934503Y-58816131D01*
X176934504Y-58816132D01*
X177745561Y-59358063D01*
X177780049Y-59392551D01*
X178321980Y-60203608D01*
X178321981Y-60203609D01*
X178340645Y-60248669D01*
X178530946Y-61205378D01*
X178530946Y-61217688D01*
X178533348Y-61229764D01*
X178608348Y-61229764D01*
X178608348Y-58529764D01*
X81208348Y-58529764D01*
X81208348Y-98929764D01*
X81208348Y-98929764D01*
G37*
X81208348Y-98929764D02*
X178608348Y-98929764D01*
X178608348Y-61229764D01*
X178533348Y-61229764D01*
X178533348Y-96229764D01*
X178530946Y-96241840D01*
X178530946Y-96254150D01*
X178340645Y-97210859D01*
X178340645Y-97210860D01*
X178321981Y-97255919D01*
X177780049Y-98066977D01*
X177745561Y-98101465D01*
X176934504Y-98643396D01*
X176934503Y-98643397D01*
X176908108Y-98654330D01*
X176889444Y-98662061D01*
X176889443Y-98662061D01*
X175932734Y-98852362D01*
X175920424Y-98852362D01*
X175908348Y-98854764D01*
X83908348Y-98854764D01*
X83896272Y-98852362D01*
X83883962Y-98852362D01*
X82927253Y-98662061D01*
X82927252Y-98662061D01*
X82882193Y-98643397D01*
X82071135Y-98101465D01*
X82036647Y-98066977D01*
X81494716Y-97255920D01*
X81494715Y-97255919D01*
X81476051Y-97210859D01*
X81285750Y-96254150D01*
X81285750Y-96241840D01*
X81283348Y-96229764D01*
X81283348Y-61229764D01*
X81285750Y-61217688D01*
X81285750Y-61205378D01*
X81476051Y-60248669D01*
X81494715Y-60203609D01*
X81494716Y-60203608D01*
X82036647Y-59392551D01*
X82071135Y-59358063D01*
X82882193Y-58816131D01*
X82927252Y-58797467D01*
X82927253Y-58797467D01*
X83883962Y-58607166D01*
X83896272Y-58607166D01*
X83908348Y-58604764D01*
X175908348Y-58604764D01*
X175920424Y-58607166D01*
X175932734Y-58607166D01*
X176889443Y-58797467D01*
X176908108Y-58805198D01*
X176934503Y-58816131D01*
X176934504Y-58816132D01*
X177745561Y-59358063D01*
X177780049Y-59392551D01*
X178321980Y-60203608D01*
X178321981Y-60203609D01*
X178340645Y-60248669D01*
X178530946Y-61205378D01*
X178530946Y-61217688D01*
X178533348Y-61229764D01*
X178608348Y-61229764D01*
X178608348Y-58529764D01*
X81208348Y-58529764D01*
X81208348Y-98929764D01*
G36*
X83000412Y-59037812D02*
X82230701Y-59552116D01*
X81716396Y-60321828D01*
X81533348Y-61242074D01*
X81533348Y-96217454D01*
X81716396Y-97137700D01*
X82230701Y-97907412D01*
X83000412Y-98421716D01*
X83920658Y-98604764D01*
X175896038Y-98604764D01*
X176816284Y-98421716D01*
X177585996Y-97907411D01*
X178100300Y-97137700D01*
X178283348Y-96217454D01*
X178283348Y-94929764D01*
X176133348Y-94929764D01*
X176017264Y-95513356D01*
X175686686Y-96008102D01*
X175191940Y-96338680D01*
X174608348Y-96454764D01*
X174024756Y-96338680D01*
X173829086Y-96207938D01*
X173531848Y-96022164D01*
X173514453Y-96003707D01*
X173458360Y-95900871D01*
X173199432Y-95513356D01*
X173083348Y-94929764D01*
X86933348Y-94929764D01*
X86802040Y-95589893D01*
X86428107Y-96149523D01*
X85868477Y-96523456D01*
X85208348Y-96654764D01*
X84548219Y-96523456D01*
X83988589Y-96149523D01*
X83614656Y-95589893D01*
X83483348Y-94929764D01*
X83614656Y-94269635D01*
X83988589Y-93710005D01*
X84548219Y-93336072D01*
X85208348Y-93204764D01*
X85868477Y-93336072D01*
X86428107Y-93710005D01*
X86802040Y-94269635D01*
X86933348Y-94929764D01*
X173083348Y-94929764D01*
X173199432Y-94346172D01*
X173452190Y-93967893D01*
X173514640Y-93855482D01*
X173534405Y-93835869D01*
X173637241Y-93779776D01*
X174024756Y-93520848D01*
X174608348Y-93404764D01*
X175191940Y-93520848D01*
X175686686Y-93851426D01*
X175912470Y-94189337D01*
X175997816Y-94299067D01*
X176007541Y-94320820D01*
X176010239Y-94335658D01*
X176017264Y-94346172D01*
X176133348Y-94929764D01*
X178283348Y-94929764D01*
X178283348Y-83888363D01*
X166690104Y-83888363D01*
X166671569Y-83933475D01*
X166473933Y-84231094D01*
X166462773Y-84242318D01*
X166453281Y-84254983D01*
X165541828Y-85072802D01*
X165499870Y-85097666D01*
X165499868Y-85097666D01*
X164344831Y-85504435D01*
X164296552Y-85511349D01*
X163647878Y-85476226D01*
X163613088Y-85479539D01*
X163598047Y-85478691D01*
X163565028Y-85471740D01*
X163073773Y-85445140D01*
X163073772Y-85445140D01*
X163026522Y-85433053D01*
X162748454Y-85299829D01*
X162648047Y-85278691D01*
X162631185Y-85271743D01*
X162463892Y-85163494D01*
X161922157Y-84903947D01*
X161883129Y-84874697D01*
X161152432Y-84060340D01*
X138036900Y-84060340D01*
X138036900Y-87760340D01*
X138027385Y-87808175D01*
X138000288Y-87848728D01*
X137959735Y-87875825D01*
X137911900Y-87885340D01*
X136536900Y-87885340D01*
X136536900Y-92160340D01*
X136527385Y-92208175D01*
X136500288Y-92248728D01*
X136459735Y-92275825D01*
X136411900Y-92285340D01*
X123911900Y-92285340D01*
X123864065Y-92275825D01*
X123823512Y-92248728D01*
X123796415Y-92208175D01*
X123786900Y-92160340D01*
X123786900Y-87885340D01*
X122911900Y-87885340D01*
X122864065Y-87875825D01*
X122823512Y-87848728D01*
X122796415Y-87808175D01*
X122786900Y-87760340D01*
X122786900Y-84060340D01*
X122796415Y-84012505D01*
X122823512Y-83971952D01*
X122864065Y-83944855D01*
X122911900Y-83935340D01*
X137911900Y-83935340D01*
X137959735Y-83944855D01*
X138000288Y-83971952D01*
X138027385Y-84012505D01*
X138036900Y-84060340D01*
X161152432Y-84060340D01*
X161065310Y-83963244D01*
X161040446Y-83921286D01*
X161040446Y-83921284D01*
X160843289Y-83361448D01*
X160813627Y-83302125D01*
X160809028Y-83287984D01*
X160801491Y-83242762D01*
X160633677Y-82766247D01*
X160626763Y-82717968D01*
X160626763Y-82717967D01*
X160656956Y-82160340D01*
X115036900Y-82160340D01*
X115036900Y-89760340D01*
X115027385Y-89808175D01*
X115000288Y-89848728D01*
X114959735Y-89875825D01*
X114911900Y-89885340D01*
X109711900Y-89885340D01*
X109664065Y-89875825D01*
X109623512Y-89848728D01*
X109596415Y-89808175D01*
X109586900Y-89760340D01*
X109586900Y-82160340D01*
X109596415Y-82112505D01*
X109623512Y-82071952D01*
X109664065Y-82044855D01*
X109711900Y-82035340D01*
X114911900Y-82035340D01*
X114959735Y-82044855D01*
X115000288Y-82071952D01*
X115027385Y-82112505D01*
X115036900Y-82160340D01*
X160656956Y-82160340D01*
X160692972Y-81495189D01*
X160705059Y-81447938D01*
X161234165Y-80343574D01*
X161263415Y-80304545D01*
X162174868Y-79486726D01*
X162216826Y-79461862D01*
X163371865Y-79055094D01*
X163420144Y-79048179D01*
X164642923Y-79114388D01*
X164690174Y-79126475D01*
X165295434Y-79416458D01*
X165475633Y-79482847D01*
X165492371Y-79493124D01*
X165531723Y-79529665D01*
X165794538Y-79655581D01*
X165833567Y-79684831D01*
X166651386Y-80596284D01*
X166662130Y-80614414D01*
X166673833Y-80631929D01*
X166674502Y-80635292D01*
X166676250Y-80638242D01*
X166679237Y-80659096D01*
X166683348Y-80679764D01*
X166683348Y-83823743D01*
X166689965Y-83839590D01*
X166690104Y-83888363D01*
X178283348Y-83888363D01*
X178283348Y-62529764D01*
X176333348Y-62529764D01*
X176202040Y-63189893D01*
X175828107Y-63749523D01*
X175268477Y-64123456D01*
X174608348Y-64254764D01*
X173948219Y-64123456D01*
X173388589Y-63749523D01*
X173014656Y-63189893D01*
X172883348Y-62529764D01*
X86733348Y-62529764D01*
X86617264Y-63113356D01*
X86286686Y-63608102D01*
X85791940Y-63938680D01*
X85208348Y-64054764D01*
X84624756Y-63938680D01*
X84429086Y-63807938D01*
X84131848Y-63622164D01*
X84114453Y-63603707D01*
X84058360Y-63500871D01*
X83799432Y-63113356D01*
X83683348Y-62529764D01*
X83799432Y-61946172D01*
X84052190Y-61567893D01*
X84114640Y-61455482D01*
X84134405Y-61435869D01*
X84237241Y-61379776D01*
X84624756Y-61120848D01*
X85208348Y-61004764D01*
X85791940Y-61120848D01*
X86286686Y-61451426D01*
X86512470Y-61789337D01*
X86597816Y-61899067D01*
X86607541Y-61920820D01*
X86610239Y-61935658D01*
X86617264Y-61946172D01*
X86733348Y-62529764D01*
X172883348Y-62529764D01*
X173014656Y-61869635D01*
X173388589Y-61310005D01*
X173948219Y-60936072D01*
X174608348Y-60804764D01*
X175268477Y-60936072D01*
X175828107Y-61310005D01*
X176202040Y-61869635D01*
X176333348Y-62529764D01*
X178283348Y-62529764D01*
X178283348Y-61242074D01*
X178100300Y-60321828D01*
X177585996Y-59552117D01*
X176816284Y-59037812D01*
X175896038Y-58854764D01*
X83920658Y-58854764D01*
X83000412Y-59037812D01*
X83000412Y-59037812D01*
G37*
X83000412Y-59037812D02*
X82230701Y-59552116D01*
X81716396Y-60321828D01*
X81533348Y-61242074D01*
X81533348Y-96217454D01*
X81716396Y-97137700D01*
X82230701Y-97907412D01*
X83000412Y-98421716D01*
X83920658Y-98604764D01*
X175896038Y-98604764D01*
X176816284Y-98421716D01*
X177585996Y-97907411D01*
X178100300Y-97137700D01*
X178283348Y-96217454D01*
X178283348Y-94929764D01*
X176133348Y-94929764D01*
X176017264Y-95513356D01*
X175686686Y-96008102D01*
X175191940Y-96338680D01*
X174608348Y-96454764D01*
X174024756Y-96338680D01*
X173829086Y-96207938D01*
X173531848Y-96022164D01*
X173514453Y-96003707D01*
X173458360Y-95900871D01*
X173199432Y-95513356D01*
X173083348Y-94929764D01*
X86933348Y-94929764D01*
X86802040Y-95589893D01*
X86428107Y-96149523D01*
X85868477Y-96523456D01*
X85208348Y-96654764D01*
X84548219Y-96523456D01*
X83988589Y-96149523D01*
X83614656Y-95589893D01*
X83483348Y-94929764D01*
X83614656Y-94269635D01*
X83988589Y-93710005D01*
X84548219Y-93336072D01*
X85208348Y-93204764D01*
X85868477Y-93336072D01*
X86428107Y-93710005D01*
X86802040Y-94269635D01*
X86933348Y-94929764D01*
X173083348Y-94929764D01*
X173199432Y-94346172D01*
X173452190Y-93967893D01*
X173514640Y-93855482D01*
X173534405Y-93835869D01*
X173637241Y-93779776D01*
X174024756Y-93520848D01*
X174608348Y-93404764D01*
X175191940Y-93520848D01*
X175686686Y-93851426D01*
X175912470Y-94189337D01*
X175997816Y-94299067D01*
X176007541Y-94320820D01*
X176010239Y-94335658D01*
X176017264Y-94346172D01*
X176133348Y-94929764D01*
X178283348Y-94929764D01*
X178283348Y-83888363D01*
X166690104Y-83888363D01*
X166671569Y-83933475D01*
X166473933Y-84231094D01*
X166462773Y-84242318D01*
X166453281Y-84254983D01*
X165541828Y-85072802D01*
X165499870Y-85097666D01*
X165499868Y-85097666D01*
X164344831Y-85504435D01*
X164296552Y-85511349D01*
X163647878Y-85476226D01*
X163613088Y-85479539D01*
X163598047Y-85478691D01*
X163565028Y-85471740D01*
X163073773Y-85445140D01*
X163073772Y-85445140D01*
X163026522Y-85433053D01*
X162748454Y-85299829D01*
X162648047Y-85278691D01*
X162631185Y-85271743D01*
X162463892Y-85163494D01*
X161922157Y-84903947D01*
X161883129Y-84874697D01*
X161152432Y-84060340D01*
X138036900Y-84060340D01*
X138036900Y-87760340D01*
X138027385Y-87808175D01*
X138000288Y-87848728D01*
X137959735Y-87875825D01*
X137911900Y-87885340D01*
X136536900Y-87885340D01*
X136536900Y-92160340D01*
X136527385Y-92208175D01*
X136500288Y-92248728D01*
X136459735Y-92275825D01*
X136411900Y-92285340D01*
X123911900Y-92285340D01*
X123864065Y-92275825D01*
X123823512Y-92248728D01*
X123796415Y-92208175D01*
X123786900Y-92160340D01*
X123786900Y-87885340D01*
X122911900Y-87885340D01*
X122864065Y-87875825D01*
X122823512Y-87848728D01*
X122796415Y-87808175D01*
X122786900Y-87760340D01*
X122786900Y-84060340D01*
X122796415Y-84012505D01*
X122823512Y-83971952D01*
X122864065Y-83944855D01*
X122911900Y-83935340D01*
X137911900Y-83935340D01*
X137959735Y-83944855D01*
X138000288Y-83971952D01*
X138027385Y-84012505D01*
X138036900Y-84060340D01*
X161152432Y-84060340D01*
X161065310Y-83963244D01*
X161040446Y-83921286D01*
X161040446Y-83921284D01*
X160843289Y-83361448D01*
X160813627Y-83302125D01*
X160809028Y-83287984D01*
X160801491Y-83242762D01*
X160633677Y-82766247D01*
X160626763Y-82717968D01*
X160626763Y-82717967D01*
X160656956Y-82160340D01*
X115036900Y-82160340D01*
X115036900Y-89760340D01*
X115027385Y-89808175D01*
X115000288Y-89848728D01*
X114959735Y-89875825D01*
X114911900Y-89885340D01*
X109711900Y-89885340D01*
X109664065Y-89875825D01*
X109623512Y-89848728D01*
X109596415Y-89808175D01*
X109586900Y-89760340D01*
X109586900Y-82160340D01*
X109596415Y-82112505D01*
X109623512Y-82071952D01*
X109664065Y-82044855D01*
X109711900Y-82035340D01*
X114911900Y-82035340D01*
X114959735Y-82044855D01*
X115000288Y-82071952D01*
X115027385Y-82112505D01*
X115036900Y-82160340D01*
X160656956Y-82160340D01*
X160692972Y-81495189D01*
X160705059Y-81447938D01*
X161234165Y-80343574D01*
X161263415Y-80304545D01*
X162174868Y-79486726D01*
X162216826Y-79461862D01*
X163371865Y-79055094D01*
X163420144Y-79048179D01*
X164642923Y-79114388D01*
X164690174Y-79126475D01*
X165295434Y-79416458D01*
X165475633Y-79482847D01*
X165492371Y-79493124D01*
X165531723Y-79529665D01*
X165794538Y-79655581D01*
X165833567Y-79684831D01*
X166651386Y-80596284D01*
X166662130Y-80614414D01*
X166673833Y-80631929D01*
X166674502Y-80635292D01*
X166676250Y-80638242D01*
X166679237Y-80659096D01*
X166683348Y-80679764D01*
X166683348Y-83823743D01*
X166689965Y-83839590D01*
X166690104Y-83888363D01*
X178283348Y-83888363D01*
X178283348Y-62529764D01*
X176333348Y-62529764D01*
X176202040Y-63189893D01*
X175828107Y-63749523D01*
X175268477Y-64123456D01*
X174608348Y-64254764D01*
X173948219Y-64123456D01*
X173388589Y-63749523D01*
X173014656Y-63189893D01*
X172883348Y-62529764D01*
X86733348Y-62529764D01*
X86617264Y-63113356D01*
X86286686Y-63608102D01*
X85791940Y-63938680D01*
X85208348Y-64054764D01*
X84624756Y-63938680D01*
X84429086Y-63807938D01*
X84131848Y-63622164D01*
X84114453Y-63603707D01*
X84058360Y-63500871D01*
X83799432Y-63113356D01*
X83683348Y-62529764D01*
X83799432Y-61946172D01*
X84052190Y-61567893D01*
X84114640Y-61455482D01*
X84134405Y-61435869D01*
X84237241Y-61379776D01*
X84624756Y-61120848D01*
X85208348Y-61004764D01*
X85791940Y-61120848D01*
X86286686Y-61451426D01*
X86512470Y-61789337D01*
X86597816Y-61899067D01*
X86607541Y-61920820D01*
X86610239Y-61935658D01*
X86617264Y-61946172D01*
X86733348Y-62529764D01*
X172883348Y-62529764D01*
X173014656Y-61869635D01*
X173388589Y-61310005D01*
X173948219Y-60936072D01*
X174608348Y-60804764D01*
X175268477Y-60936072D01*
X175828107Y-61310005D01*
X176202040Y-61869635D01*
X176333348Y-62529764D01*
X178283348Y-62529764D01*
X178283348Y-61242074D01*
X178100300Y-60321828D01*
X177585996Y-59552117D01*
X176816284Y-59037812D01*
X175896038Y-58854764D01*
X83920658Y-58854764D01*
X83000412Y-59037812D01*
G36*
X86152673Y-96038668D02*
X86251331Y-95972747D01*
X86284157Y-95923620D01*
X86152673Y-96038668D01*
X86152673Y-96038668D01*
G37*
X86152673Y-96038668D02*
X86251331Y-95972747D01*
X86284157Y-95923620D01*
X86152673Y-96038668D01*
G36*
X83845626Y-94365306D02*
X83842385Y-94381600D01*
X83847658Y-94362265D01*
X83845626Y-94365306D01*
X83845626Y-94365306D01*
G37*
X83845626Y-94365306D02*
X83842385Y-94381600D01*
X83847658Y-94362265D01*
X83845626Y-94365306D01*
G36*
X175552673Y-63638668D02*
X175651331Y-63572747D01*
X175684157Y-63523620D01*
X175552673Y-63638668D01*
X175552673Y-63638668D01*
G37*
X175552673Y-63638668D02*
X175651331Y-63572747D01*
X175684157Y-63523620D01*
X175552673Y-63638668D01*
G36*
X173245626Y-61965306D02*
X173242385Y-61981600D01*
X173247658Y-61962265D01*
X173245626Y-61965306D01*
X173245626Y-61965306D01*
G37*
X173245626Y-61965306D02*
X173242385Y-61981600D01*
X173247658Y-61962265D01*
X173245626Y-61965306D01*
M02*
