G04 #@! TF.FileFunction,Copper,L2,Bot,Signal*
%FSLAX46Y46*%
G04 Gerber Fmt 4.6, Leading zero omitted, Abs format (unit mm)*
G04 Created by KiCad (PCBNEW (2016-09-17 revision 679eef1)-makepkg) date 09/25/16 17:06:48*
%MOMM*%
%LPD*%
G01*
G04 APERTURE LIST*
%ADD10C,0.150000*%
%ADD11C,0.254000*%
G04 APERTURE END LIST*
D10*
G36*
X7377841Y-500385D02*
X7385607Y-501537D01*
X7393223Y-503445D01*
X7400615Y-506090D01*
X7407712Y-509446D01*
X7414446Y-513482D01*
X7420751Y-518159D01*
X7426569Y-523431D01*
X7431841Y-529249D01*
X7436518Y-535554D01*
X7440554Y-542288D01*
X7443910Y-549385D01*
X7446555Y-556777D01*
X7448463Y-564393D01*
X7449615Y-572159D01*
X7450000Y-580000D01*
X7450000Y-1220000D01*
X7449615Y-1227841D01*
X7448463Y-1235607D01*
X7446555Y-1243223D01*
X7443910Y-1250615D01*
X7440554Y-1257712D01*
X7436518Y-1264446D01*
X7431841Y-1270751D01*
X7426569Y-1276569D01*
X7420751Y-1281841D01*
X7414446Y-1286518D01*
X7407712Y-1290554D01*
X7400615Y-1293910D01*
X7393223Y-1296555D01*
X7385607Y-1298463D01*
X7377841Y-1299615D01*
X7370000Y-1300000D01*
X5330000Y-1300000D01*
X5322159Y-1299615D01*
X5314393Y-1298463D01*
X5306777Y-1296555D01*
X5299385Y-1293910D01*
X5292288Y-1290554D01*
X5285554Y-1286518D01*
X5279249Y-1281841D01*
X5273431Y-1276569D01*
X5268159Y-1270751D01*
X5263482Y-1264446D01*
X5259446Y-1257712D01*
X5256090Y-1250615D01*
X5253445Y-1243223D01*
X5251537Y-1235607D01*
X5250385Y-1227841D01*
X5250000Y-1220000D01*
X5250000Y-580000D01*
X5250385Y-572159D01*
X5251537Y-564393D01*
X5253445Y-556777D01*
X5256090Y-549385D01*
X5259446Y-542288D01*
X5263482Y-535554D01*
X5268159Y-529249D01*
X5273431Y-523431D01*
X5279249Y-518159D01*
X5285554Y-513482D01*
X5292288Y-509446D01*
X5299385Y-506090D01*
X5306777Y-503445D01*
X5314393Y-501537D01*
X5322159Y-500385D01*
X5330000Y-500000D01*
X7370000Y-500000D01*
X7377841Y-500385D01*
X7377841Y-500385D01*
G37*
D11*
G36*
X12133000Y-4332567D02*
X12105210Y-4472278D01*
X12035943Y-4575943D01*
X11932278Y-4645210D01*
X11792567Y-4673000D01*
X777433Y-4673000D01*
X637722Y-4645210D01*
X534057Y-4575943D01*
X464790Y-4472278D01*
X437000Y-4332567D01*
X437000Y-507000D01*
X12133000Y-507000D01*
X12133000Y-4332567D01*
X12133000Y-4332567D01*
G37*
X12133000Y-4332567D02*
X12105210Y-4472278D01*
X12035943Y-4575943D01*
X11932278Y-4645210D01*
X11792567Y-4673000D01*
X777433Y-4673000D01*
X637722Y-4645210D01*
X534057Y-4575943D01*
X464790Y-4472278D01*
X437000Y-4332567D01*
X437000Y-507000D01*
X12133000Y-507000D01*
X12133000Y-4332567D01*
M02*
