G04 #@! TF.FileFunction,Soldermask,Top*
%FSLAX46Y46*%
G04 Gerber Fmt 4.6, Leading zero omitted, Abs format (unit mm)*
G04 Created by KiCad (PCBNEW (2016-09-17 revision 679eef1)-makepkg) date 09/25/16 17:06:48*
%MOMM*%
%LPD*%
G01*
G04 APERTURE LIST*
%ADD10C,0.150000*%
G04 APERTURE END LIST*
D10*
G36*
X1311762Y-280578D02*
X1323411Y-282306D01*
X1334834Y-285167D01*
X1345922Y-289134D01*
X1356568Y-294169D01*
X1366668Y-300224D01*
X1376127Y-307239D01*
X1384853Y-315147D01*
X1392761Y-323873D01*
X1399776Y-333332D01*
X1405831Y-343432D01*
X1410866Y-354078D01*
X1414833Y-365166D01*
X1417694Y-376589D01*
X1419422Y-388238D01*
X1420000Y-400000D01*
X1420000Y-1360000D01*
X1419422Y-1371762D01*
X1417694Y-1383411D01*
X1414833Y-1394834D01*
X1410866Y-1405922D01*
X1405831Y-1416568D01*
X1399776Y-1426668D01*
X1392761Y-1436127D01*
X1384853Y-1444853D01*
X1376127Y-1452761D01*
X1366668Y-1459776D01*
X1356568Y-1465831D01*
X1345922Y-1470866D01*
X1334834Y-1474833D01*
X1323411Y-1477694D01*
X1311762Y-1479422D01*
X1300000Y-1480000D01*
X340000Y-1480000D01*
X328238Y-1479422D01*
X316589Y-1477694D01*
X305166Y-1474833D01*
X294078Y-1470866D01*
X283432Y-1465831D01*
X273332Y-1459776D01*
X263873Y-1452761D01*
X255147Y-1444853D01*
X247239Y-1436127D01*
X240224Y-1426668D01*
X234169Y-1416568D01*
X229134Y-1405922D01*
X225167Y-1394834D01*
X222306Y-1383411D01*
X220578Y-1371762D01*
X220000Y-1360000D01*
X220000Y-400000D01*
X220578Y-388238D01*
X222306Y-376589D01*
X225167Y-365166D01*
X229134Y-354078D01*
X234169Y-343432D01*
X240224Y-333332D01*
X247239Y-323873D01*
X255147Y-315147D01*
X263873Y-307239D01*
X273332Y-300224D01*
X283432Y-294169D01*
X294078Y-289134D01*
X305166Y-285167D01*
X316589Y-282306D01*
X328238Y-280578D01*
X340000Y-280000D01*
X1300000Y-280000D01*
X1311762Y-280578D01*
X1311762Y-280578D01*
G37*
G36*
X12231762Y-300578D02*
X12243411Y-302306D01*
X12254834Y-305167D01*
X12265922Y-309134D01*
X12276568Y-314169D01*
X12286668Y-320224D01*
X12296127Y-327239D01*
X12304853Y-335147D01*
X12312761Y-343873D01*
X12319776Y-353332D01*
X12325831Y-363432D01*
X12330866Y-374078D01*
X12334833Y-385166D01*
X12337694Y-396589D01*
X12339422Y-408238D01*
X12340000Y-420000D01*
X12340000Y-1380000D01*
X12339422Y-1391762D01*
X12337694Y-1403411D01*
X12334833Y-1414834D01*
X12330866Y-1425922D01*
X12325831Y-1436568D01*
X12319776Y-1446668D01*
X12312761Y-1456127D01*
X12304853Y-1464853D01*
X12296127Y-1472761D01*
X12286668Y-1479776D01*
X12276568Y-1485831D01*
X12265922Y-1490866D01*
X12254834Y-1494833D01*
X12243411Y-1497694D01*
X12231762Y-1499422D01*
X12220000Y-1500000D01*
X11260000Y-1500000D01*
X11248238Y-1499422D01*
X11236589Y-1497694D01*
X11225166Y-1494833D01*
X11214078Y-1490866D01*
X11203432Y-1485831D01*
X11193332Y-1479776D01*
X11183873Y-1472761D01*
X11175147Y-1464853D01*
X11167239Y-1456127D01*
X11160224Y-1446668D01*
X11154169Y-1436568D01*
X11149134Y-1425922D01*
X11145167Y-1414834D01*
X11142306Y-1403411D01*
X11140578Y-1391762D01*
X11140000Y-1380000D01*
X11140000Y-420000D01*
X11140578Y-408238D01*
X11142306Y-396589D01*
X11145167Y-385166D01*
X11149134Y-374078D01*
X11154169Y-363432D01*
X11160224Y-353332D01*
X11167239Y-343873D01*
X11175147Y-335147D01*
X11183873Y-327239D01*
X11193332Y-320224D01*
X11203432Y-314169D01*
X11214078Y-309134D01*
X11225166Y-305167D01*
X11236589Y-302306D01*
X11248238Y-300578D01*
X11260000Y-300000D01*
X12220000Y-300000D01*
X12231762Y-300578D01*
X12231762Y-300578D01*
G37*
G36*
X7367841Y-4100385D02*
X7375607Y-4101537D01*
X7383223Y-4103445D01*
X7390615Y-4106090D01*
X7397712Y-4109446D01*
X7404446Y-4113482D01*
X7410751Y-4118159D01*
X7416569Y-4123431D01*
X7421841Y-4129249D01*
X7426518Y-4135554D01*
X7430554Y-4142288D01*
X7433910Y-4149385D01*
X7436555Y-4156777D01*
X7438463Y-4164393D01*
X7439615Y-4172159D01*
X7440000Y-4180000D01*
X7440000Y-4820000D01*
X7439615Y-4827841D01*
X7438463Y-4835607D01*
X7436555Y-4843223D01*
X7433910Y-4850615D01*
X7430554Y-4857712D01*
X7426518Y-4864446D01*
X7421841Y-4870751D01*
X7416569Y-4876569D01*
X7410751Y-4881841D01*
X7404446Y-4886518D01*
X7397712Y-4890554D01*
X7390615Y-4893910D01*
X7383223Y-4896555D01*
X7375607Y-4898463D01*
X7367841Y-4899615D01*
X7360000Y-4900000D01*
X5320000Y-4900000D01*
X5312159Y-4899615D01*
X5304393Y-4898463D01*
X5296777Y-4896555D01*
X5289385Y-4893910D01*
X5282288Y-4890554D01*
X5275554Y-4886518D01*
X5269249Y-4881841D01*
X5263431Y-4876569D01*
X5258159Y-4870751D01*
X5253482Y-4864446D01*
X5249446Y-4857712D01*
X5246090Y-4850615D01*
X5243445Y-4843223D01*
X5241537Y-4835607D01*
X5240385Y-4827841D01*
X5240000Y-4820000D01*
X5240000Y-4180000D01*
X5240385Y-4172159D01*
X5241537Y-4164393D01*
X5243445Y-4156777D01*
X5246090Y-4149385D01*
X5249446Y-4142288D01*
X5253482Y-4135554D01*
X5258159Y-4129249D01*
X5263431Y-4123431D01*
X5269249Y-4118159D01*
X5275554Y-4113482D01*
X5282288Y-4109446D01*
X5289385Y-4106090D01*
X5296777Y-4103445D01*
X5304393Y-4101537D01*
X5312159Y-4100385D01*
X5320000Y-4100000D01*
X7360000Y-4100000D01*
X7367841Y-4100385D01*
X7367841Y-4100385D01*
G37*
M02*
