%MOIN*%
%OFA0B0*%
%FSLAX46Y46*%
%IPPOS*%
%LPD*%
%ADD10C,0.0039370078740157488*%
%ADD11C,0.00984251968503937*%
%ADD12O,0.088X0.076*%
%ADD13R,0.088X0.076*%
%ADD14R,0.049338582677165357X0.049338582677165357*%
%ADD15C,0.049338582677165357*%
%ADD26C,0.0039370078740157488*%
%ADD27C,0.005905511811023622*%
%ADD28C,0.11811023622047245*%
%ADD29C,0.01*%
%ADD40C,0.0039370078740157488*%
%ADD41C,0.11811023622047245*%
%ADD42C,0.01*%
%ADD53C,0.0039370078740157488*%
%ADD54C,0.07874015748031496*%
%ADD55C,0.23228346456692917*%
%ADD66C,0.0039370078740157488*%
%ADD67C,0.07874015748031496*%
%ADD68C,0.23228346456692917*%
%ADD79C,0.0039370078740157488*%
%ADD80C,0.07874015748031496*%
%ADD81C,0.23228346456692917*%
%ADD92C,0.0039370078740157488*%
%ADD93C,0.07874015748031496*%
%ADD94C,0.23228346456692917*%
%LPD*%
G04 #@! TF.FileFunction,Soldermask,Top*
G04 Gerber Fmt 4.6, Leading zero omitted, Abs format (unit mm)*
G04 Created by KiCad (PCBNEW no-bzr-kicad_new3d-viewer) date 13/05/2016 23:43:42*
G01*
G04 APERTURE LIST*
G04 APERTURE END LIST*
D10*
D11*
X0002319500Y0003364266D02*
X0002341998Y0003364266D01*
X0002330749Y0003364266D02*
X0002330749Y0003324896D01*
X0002334499Y0003330520D01*
X0002338248Y0003334270D01*
X0002341998Y0003336145D01*
D12*
X0002105552Y0003375590D03*
X0002105552Y0003475590D03*
X0002105552Y0003575590D03*
X0002105552Y0003675589D03*
X0002105552Y0003775590D03*
D13*
X0002405552Y0003375590D03*
D12*
X0002405552Y0003475590D03*
X0002405552Y0003575590D03*
X0002405552Y0003675589D03*
X0002405552Y0003775590D03*
D14*
X0002278072Y0003334251D03*
D15*
X0002278072Y0003384251D03*
X0002278072Y0003434251D03*
X0002278072Y0003484251D03*
X0002278072Y0003534251D03*
X0002228072Y0003384251D03*
X0002228072Y0003434251D03*
X0002228072Y0003484251D03*
X0002228072Y0003534251D03*
X0002228072Y0003334251D03*
G04 split*
G04 #@! TF.FileFunction,Soldermask,Top*
G04 Gerber Fmt 4.6, Leading zero omitted, Abs format (unit mm)*
G04 Created by KiCad (PCBNEW no-bzr-kicad_new3d-viewer) date 06/27/16 23:25:45*
G01G01*
G04 APERTURE LIST*
G04 APERTURE END LIST*
D26*
D27*
X0001319037Y0000652338D02*
X0001319037Y0000353127D01*
X0001114313Y0000652338D02*
X0001319037Y0000652338D01*
X0001114313Y0000353127D02*
X0001114313Y0000652338D01*
X0001319037Y0000353127D02*
X0001114313Y0000353127D01*
X0002165494Y0000431867D02*
X0002165494Y0000258637D01*
X0002224549Y0000431867D02*
X0002165494Y0000431867D01*
X0002224549Y0000577536D02*
X0002224549Y0000431867D01*
X0001633998Y0000577536D02*
X0002224549Y0000577536D01*
X0001633998Y0000431867D02*
X0001633998Y0000577536D01*
X0001673368Y0000431867D02*
X0001633998Y0000431867D01*
X0001673368Y0000258637D02*
X0001673368Y0000431867D01*
X0002165494Y0000258637D02*
X0001673368Y0000258637D01*
D28*
X0003369953Y0000647637D02*
G75*
G03G03X0085596823Y0016450002I-0003146824J0000000000D01X0085596823Y0016450002I-0003146824J0000000000D01*
G01G01*
D27*
X0000212598Y0000149606D02*
G75*
G03G03X0005399999Y0003800002I-0001600000J0000000000D01X0005399999Y0003800002I-0001600000J0000000000D01*
G01G01*
X0000098425Y0000000000D02*
G75*
G02G02X0000000000Y0002500002I0000000000J0002500000D01X0000000000Y0002500002I0000000000J0002500000D01*
G01G01*
X0003724409Y0000149606D02*
G75*
G03G03X0094599999Y0003800002I-0001400000J0000000000D01X0094599999Y0003800002I-0001400000J0000000000D01*
G01G01*
X0003818897Y0000098425D02*
G75*
G02G02X0094499999Y0000000002I-0002500000J0000000000D01X0094499999Y0000000002I-0002500000J0000000000D01*
G01G01*
X0003732283Y0001425196D02*
G75*
G03G03X0094799999Y0036200002I-0001600000J0000000000D01X0094799999Y0036200002I-0001600000J0000000000D01*
G01G01*
X0003720472Y0001574803D02*
G75*
G02G02X0096999999Y0037500002I0000000000J-0002500000D01X0096999999Y0037500002I0000000000J-0002500000D01*
G01G01*
X0000000000Y0001476378D02*
G75*
G02G02X0002499999Y0040000002I0002500000J0000000000D01X0002499999Y0040000002I0002500000J0000000000D01*
G01G01*
X0000204724Y0001425196D02*
G75*
G03G03X0005199999Y0036200002I-0001400000J0000000000D01X0005199999Y0036200002I-0001400000J0000000000D01*
G01G01*
X0000000000Y0001476378D02*
X0000000000Y0000098425D01*
X0003818897Y0000098425D02*
X0003818897Y0001476378D01*
X0003720472Y0000000000D02*
X0000098425Y0000000000D01*
X0003720472Y0001574803D02*
X0000098425Y0001574803D01*
X0003352720Y0000585253D02*
G75*
G02G02X0085149999Y0018050002I-0002709089J0001584562D01X0085149999Y0018050002I-0002709089J0001584562D01*
G01G01*
X0003352362Y0000710630D02*
X0003352362Y0000584645D01*
D29*
G36*
X0000004999Y0000005000D02*
X0000191850Y0000005000D01*
X0000191850Y0001569802D01*
X0000004999Y0001569802D01*
X0000004999Y0000005000D01*
X0000004999Y0000005000D01*
G37*
X0000004999Y0000005000D02*
X0000191850Y0000005000D01*
X0000191850Y0001569802D01*
X0000004999Y0001569802D01*
X0000004999Y0000005000D01*
G36*
X0003627047Y0000005000D02*
X0003813897Y0000005000D01*
X0003813897Y0001569802D01*
X0003627047Y0001569802D01*
X0003627047Y0000005000D01*
X0003627047Y0000005000D01*
G37*
X0003627047Y0000005000D02*
X0003813897Y0000005000D01*
X0003813897Y0001569802D01*
X0003627047Y0001569802D01*
X0003627047Y0000005000D01*
G36*
X0000195944Y0001501063D02*
X0003622952Y0001501063D01*
X0003622952Y0001569802D01*
X0000195944Y0001569802D01*
X0000195944Y0001501063D01*
X0000195944Y0001501063D01*
G37*
X0000195944Y0001501063D02*
X0003622952Y0001501063D01*
X0003622952Y0001569802D01*
X0000195944Y0001569802D01*
X0000195944Y0001501063D01*
G36*
X0000195944Y0000005000D02*
X0003622952Y0000005000D01*
X0003622952Y0000073740D01*
X0000195944Y0000073740D01*
X0000195944Y0000005000D01*
X0000195944Y0000005000D01*
G37*
X0000195944Y0000005000D02*
X0003622952Y0000005000D01*
X0003622952Y0000073740D01*
X0000195944Y0000073740D01*
X0000195944Y0000005000D01*
G36*
X0003084796Y0000319960D02*
X0000730623Y0000319960D01*
X0000730623Y0000428070D01*
X0003084796Y0000428070D01*
X0003084796Y0000319960D01*
X0003084796Y0000319960D01*
G37*
X0003084796Y0000319960D02*
X0000730623Y0000319960D01*
X0000730623Y0000428070D01*
X0003084796Y0000428070D01*
X0003084796Y0000319960D01*
G04 split*
G04 #@! TF.FileFunction,Soldermask,Top*
G04 Gerber Fmt 4.6, Leading zero omitted, Abs format (unit mm)*
G04 Created by KiCad (PCBNEW no-bzr-kicad_new3d-viewer) date 06/27/16 23:32:51*
G01G01G01G01*
G04 APERTURE LIST*
G04 APERTURE END LIST*
D40*
D41*
X0000692788Y0002931102D02*
G75*
G03G03G03G03X0000692788Y0002931102I-0000123890J0000000000D01X0000692788Y0002931102I-0000123890J0000000000D01X0000692788Y0002931102I-0000123890J0000000000D01X0000692788Y0002931102I-0000123890J0000000000D01*
G01G01G01G01*
X0001322709Y0002931102D02*
G75*
G03G03G03G03X0001322709Y0002931102I-0000123890J0000000000D01X0001322709Y0002931102I-0000123890J0000000000D01X0001322709Y0002931102I-0000123890J0000000000D01X0001322709Y0002931102I-0000123890J0000000000D01*
G01G01G01G01*
X0001952630Y0002931102D02*
G75*
G03G03G03G03X0001952630Y0002931102I-0000123890J0000000000D01X0001952630Y0002931102I-0000123890J0000000000D01X0001952630Y0002931102I-0000123890J0000000000D01X0001952630Y0002931102I-0000123890J0000000000D01*
G01G01G01G01*
X0002740032Y0002931102D02*
G75*
G03G03G03G03X0002740032Y0002931102I-0000123890J0000000000D01X0002740032Y0002931102I-0000123890J0000000000D01X0002740032Y0002931102I-0000123890J0000000000D01X0002740032Y0002931102I-0000123890J0000000000D01*
G01G01G01G01*
X0003369953Y0002931102D02*
G75*
G03G03G03G03X0003369953Y0002931102I-0000123890J0000000000D01X0003369953Y0002931102I-0000123890J0000000000D01X0003369953Y0002931102I-0000123890J0000000000D01X0003369953Y0002931102I-0000123890J0000000000D01*
G01G01G01G01*
X0003369953Y0002301181D02*
G75*
G03G03G03G03X0003369953Y0002301181I-0000123890J0000000000D01X0003369953Y0002301181I-0000123890J0000000000D01X0003369953Y0002301181I-0000123890J0000000000D01X0003369953Y0002301181I-0000123890J0000000000D01*
G01G01G01G01*
X0002740032Y0002301181D02*
G75*
G03G03G03G03X0002740032Y0002301181I-0000123890J0000000000D01X0002740032Y0002301181I-0000123890J0000000000D01X0002740032Y0002301181I-0000123890J0000000000D01X0002740032Y0002301181I-0000123890J0000000000D01*
G01G01G01G01*
X0001952630Y0002301181D02*
G75*
G03G03G03G03X0001952630Y0002301181I-0000123890J0000000000D01X0001952630Y0002301181I-0000123890J0000000000D01X0001952630Y0002301181I-0000123890J0000000000D01X0001952630Y0002301181I-0000123890J0000000000D01*
G01G01G01G01*
X0001322709Y0002301181D02*
G75*
G03G03G03G03X0001322709Y0002301181I-0000123890J0000000000D01X0001322709Y0002301181I-0000123890J0000000000D01X0001322709Y0002301181I-0000123890J0000000000D01X0001322709Y0002301181I-0000123890J0000000000D01*
G01G01G01G01*
X0000692788Y0002301181D02*
G75*
G03G03G03G03X0000692788Y0002301181I-0000123890J0000000000D01X0000692788Y0002301181I-0000123890J0000000000D01X0000692788Y0002301181I-0000123890J0000000000D01X0000692788Y0002301181I-0000123890J0000000000D01*
G01G01G01G01*
D42*
G36*
X0000004999Y0001658543D02*
X0000191850Y0001658543D01*
X0000191850Y0003223346D01*
X0000004999Y0003223346D01*
X0000004999Y0001658543D01*
X0000004999Y0001658543D01*
G37*
X0000004999Y0001658543D02*
X0000191850Y0001658543D01*
X0000191850Y0003223346D01*
X0000004999Y0003223346D01*
X0000004999Y0001658543D01*
G36*
X0003627047Y0001658543D02*
X0003813897Y0001658543D01*
X0003813897Y0003223346D01*
X0003627047Y0003223346D01*
X0003627047Y0001658543D01*
X0003627047Y0001658543D01*
G37*
X0003627047Y0001658543D02*
X0003813897Y0001658543D01*
X0003813897Y0003223346D01*
X0003627047Y0003223346D01*
X0003627047Y0001658543D01*
G36*
X0000195944Y0003154606D02*
X0003622952Y0003154606D01*
X0003622952Y0003223346D01*
X0000195944Y0003223346D01*
X0000195944Y0003154606D01*
X0000195944Y0003154606D01*
G37*
X0000195944Y0003154606D02*
X0003622952Y0003154606D01*
X0003622952Y0003223346D01*
X0000195944Y0003223346D01*
X0000195944Y0003154606D01*
G36*
X0000195944Y0001658543D02*
X0003622952Y0001658543D01*
X0003622952Y0001727283D01*
X0000195944Y0001727283D01*
X0000195944Y0001658543D01*
X0000195944Y0001658543D01*
G37*
X0000195944Y0001658543D02*
X0003622952Y0001658543D01*
X0003622952Y0001727283D01*
X0000195944Y0001727283D01*
X0000195944Y0001658543D01*
G36*
X0000730623Y0001973501D02*
X0003084796Y0001973501D01*
X0003084796Y0002081614D01*
X0000730623Y0002081614D01*
X0000730623Y0001973501D01*
X0000730623Y0001973501D01*
G37*
X0000730623Y0001973501D02*
X0003084796Y0001973501D01*
X0003084796Y0002081614D01*
X0000730623Y0002081614D01*
X0000730623Y0001973501D01*
G04 split*
G04 #@! TF.FileFunction,Soldermask,Top*
G04 Gerber Fmt 4.6, Leading zero omitted, Abs format (unit mm)*
G04 Created by KiCad (PCBNEW no-bzr-kicad_new3d-viewer) date 06/27/16 23:34:47*
G01G01*
G04 APERTURE LIST*
G04 APERTURE END LIST*
D53*
D54*
X0000037484Y0003578740D02*
X0000037484Y0003307085D01*
D55*
X0000807169Y0003442913D03*
G04 split*
G04 #@! TF.FileFunction,Soldermask,Top*
G04 Gerber Fmt 4.6, Leading zero omitted, Abs format (unit mm)*
G04 Created by KiCad (PCBNEW no-bzr-kicad_new3d-viewer) date 06/27/16 23:34:47*
G01G01G01G01*
G04 APERTURE LIST*
G04 APERTURE END LIST*
D66*
D67*
X0000037484Y0003933070D02*
X0000037484Y0003661417D01*
D68*
X0000807169Y0003797243D03*
G04 split*
G04 #@! TF.FileFunction,Soldermask,Top*
G04 Gerber Fmt 4.6, Leading zero omitted, Abs format (unit mm)*
G04 Created by KiCad (PCBNEW no-bzr-kicad_new3d-viewer) date 06/27/16 23:34:47*
G01G01G01G01*
G04 APERTURE LIST*
G04 APERTURE END LIST*
D79*
D80*
X0001061106Y0003578740D02*
X0001061106Y0003307085D01*
D81*
X0001830792Y0003442913D03*
G04 split*
G04 #@! TF.FileFunction,Soldermask,Top*
G04 Gerber Fmt 4.6, Leading zero omitted, Abs format (unit mm)*
G04 Created by KiCad (PCBNEW no-bzr-kicad_new3d-viewer) date 06/27/16 23:34:47*
G01G01G01G01G01G01G01G01*
G04 APERTURE LIST*
G04 APERTURE END LIST*
D92*
D93*
X0001061106Y0003933070D02*
X0001061106Y0003661417D01*
D94*
X0001830792Y0003797243D03*
M02*
