%MOIN*%
%OFA0B0*%
%FSLAX44Y44*%
%IPPOS*%
%LPD*%
%ADD10C,0*%
D10*
X00036722Y00017481D02*
X00036722Y00017481D01*
X00036603Y00017487D01*
X00036488Y00017519D01*
X00036383Y00017575D01*
X00036292Y00017652D01*
X00036220Y00017747D01*
X00036170Y00017855D01*
X00036144Y00017971D01*
X00036144Y00018091D01*
X00036170Y00018207D01*
X00036220Y00018315D01*
X00036292Y00018410D01*
X00036383Y00018487D01*
X00036488Y00018543D01*
X00036603Y00018575D01*
X00036722Y00018581D01*
X00036840Y00018562D01*
X00036951Y00018518D01*
X00037049Y00018451D01*
X00037131Y00018365D01*
X00037193Y00018262D01*
X00037231Y00018149D01*
X00037244Y00018031D01*
X00037231Y00017913D01*
X00037193Y00017800D01*
X00037131Y00017697D01*
X00037049Y00017611D01*
X00036951Y00017544D01*
X00036840Y00017500D01*
X00036722Y00017481D01*
X00001530Y00017402D02*
X00001530Y00017402D01*
X00001394Y00017409D01*
X00001262Y00017446D01*
X00001142Y00017510D01*
X00001038Y00017598D01*
X00000956Y00017706D01*
X00000899Y00017830D01*
X00000869Y00017963D01*
X00000869Y00018099D01*
X00000899Y00018232D01*
X00000956Y00018356D01*
X00001038Y00018464D01*
X00001142Y00018552D01*
X00001262Y00018616D01*
X00001394Y00018653D01*
X00001530Y00018660D01*
X00001664Y00018638D01*
X00001791Y00018588D01*
X00001903Y00018511D01*
X00001997Y00018412D01*
X00002067Y00018295D01*
X00002111Y00018166D01*
X00002125Y00018031D01*
X00002111Y00017896D01*
X00002067Y00017767D01*
X00001997Y00017650D01*
X00001903Y00017551D01*
X00001791Y00017474D01*
X00001664Y00017424D01*
X00001530Y00017402D01*
X00033523Y00022381D02*
X00033523Y00022381D01*
X00033523Y00022382D01*
X00033527Y00022387D01*
X00033523Y00022381D01*
X00027224Y00022381D02*
X00027224Y00022381D01*
X00027224Y00022382D01*
X00027227Y00022387D01*
X00027224Y00022381D01*
X00019350Y00022381D02*
X00019350Y00022381D01*
X00019350Y00022382D01*
X00019353Y00022387D01*
X00019350Y00022381D01*
X00013051Y00022381D02*
X00013051Y00022381D01*
X00013051Y00022382D01*
X00013054Y00022387D01*
X00013051Y00022381D01*
X00006751Y00022381D02*
X00006751Y00022381D01*
X00006751Y00022382D01*
X00006755Y00022387D01*
X00006751Y00022381D01*
X00032424Y00021776D02*
X00032424Y00021776D01*
X00032260Y00021792D01*
X00032099Y00021830D01*
X00031945Y00021888D01*
X00031799Y00021967D01*
X00031666Y00022065D01*
X00031547Y00022179D01*
X00031444Y00022308D01*
X00031359Y00022450D01*
X00031294Y00022602D01*
X00031250Y00022761D01*
X00031228Y00022925D01*
X00031227Y00023090D01*
X00031249Y00023254D01*
X00031292Y00023414D01*
X00031356Y00023566D01*
X00031440Y00023708D01*
X00031542Y00023838D01*
X00031661Y00023953D01*
X00031793Y00024052D01*
X00031938Y00024131D01*
X00032092Y00024191D01*
X00032253Y00024229D01*
X00032417Y00024246D01*
X00032582Y00024241D01*
X00032745Y00024214D01*
X00032903Y00024165D01*
X00033053Y00024095D01*
X00033192Y00024007D01*
X00033319Y00023900D01*
X00033430Y00023777D01*
X00033523Y00023641D01*
X00033523Y00022382D01*
X00033434Y00022251D01*
X00033324Y00022128D01*
X00033198Y00022020D01*
X00033059Y00021931D01*
X00032910Y00021860D01*
X00032752Y00021811D01*
X00032589Y00021782D01*
X00032424Y00021776D01*
X00026125Y00021776D02*
X00026125Y00021776D01*
X00025961Y00021792D01*
X00025800Y00021830D01*
X00025645Y00021888D01*
X00025500Y00021967D01*
X00025367Y00022065D01*
X00025248Y00022179D01*
X00025145Y00022308D01*
X00025060Y00022450D01*
X00024995Y00022602D01*
X00024951Y00022761D01*
X00024928Y00022925D01*
X00024928Y00023090D01*
X00024949Y00023254D01*
X00024993Y00023414D01*
X00025057Y00023566D01*
X00025141Y00023708D01*
X00025243Y00023838D01*
X00025361Y00023953D01*
X00025494Y00024052D01*
X00025639Y00024131D01*
X00025793Y00024191D01*
X00025954Y00024229D01*
X00026118Y00024246D01*
X00026283Y00024241D01*
X00026446Y00024214D01*
X00026604Y00024165D01*
X00026754Y00024095D01*
X00026893Y00024007D01*
X00027019Y00023900D01*
X00027130Y00023777D01*
X00027224Y00023641D01*
X00027224Y00022382D01*
X00027135Y00022251D01*
X00027025Y00022128D01*
X00026899Y00022020D01*
X00026760Y00021931D01*
X00026611Y00021860D01*
X00026453Y00021811D01*
X00026290Y00021782D01*
X00026125Y00021776D01*
X00018251Y00021776D02*
X00018251Y00021776D01*
X00018087Y00021792D01*
X00017926Y00021830D01*
X00017771Y00021888D01*
X00017626Y00021967D01*
X00017493Y00022065D01*
X00017373Y00022179D01*
X00017271Y00022308D01*
X00017186Y00022450D01*
X00017121Y00022602D01*
X00017077Y00022761D01*
X00017054Y00022925D01*
X00017054Y00023090D01*
X00017075Y00023254D01*
X00017119Y00023414D01*
X00017183Y00023566D01*
X00017267Y00023708D01*
X00017369Y00023838D01*
X00017487Y00023953D01*
X00017620Y00024052D01*
X00017765Y00024131D01*
X00017919Y00024191D01*
X00018080Y00024229D01*
X00018244Y00024246D01*
X00018409Y00024241D01*
X00018572Y00024214D01*
X00018730Y00024165D01*
X00018880Y00024095D01*
X00019019Y00024007D01*
X00019145Y00023900D01*
X00019256Y00023777D01*
X00019350Y00023641D01*
X00019350Y00022382D01*
X00019261Y00022251D01*
X00019151Y00022128D01*
X00019025Y00022020D01*
X00018886Y00021931D01*
X00018737Y00021860D01*
X00018579Y00021811D01*
X00018416Y00021782D01*
X00018251Y00021776D01*
X00011952Y00021776D02*
X00011952Y00021776D01*
X00011787Y00021792D01*
X00011626Y00021830D01*
X00011472Y00021888D01*
X00011327Y00021967D01*
X00011193Y00022065D01*
X00011074Y00022179D01*
X00010971Y00022308D01*
X00010887Y00022450D01*
X00010822Y00022602D01*
X00010778Y00022761D01*
X00010755Y00022925D01*
X00010755Y00023090D01*
X00010776Y00023254D01*
X00010819Y00023414D01*
X00010884Y00023566D01*
X00010967Y00023708D01*
X00011070Y00023838D01*
X00011188Y00023953D01*
X00011321Y00024052D01*
X00011466Y00024131D01*
X00011620Y00024191D01*
X00011780Y00024229D01*
X00011945Y00024246D01*
X00012110Y00024241D01*
X00012273Y00024214D01*
X00012431Y00024165D01*
X00012581Y00024095D01*
X00012720Y00024007D01*
X00012846Y00023900D01*
X00012957Y00023777D01*
X00013051Y00023641D01*
X00013051Y00022382D01*
X00012961Y00022251D01*
X00012851Y00022128D01*
X00012726Y00022020D01*
X00012587Y00021931D01*
X00012437Y00021860D01*
X00012280Y00021811D01*
X00012117Y00021782D01*
X00011952Y00021776D01*
X00005653Y00021776D02*
X00005653Y00021776D01*
X00005488Y00021792D01*
X00005327Y00021830D01*
X00005173Y00021888D01*
X00005028Y00021967D01*
X00004894Y00022065D01*
X00004775Y00022179D01*
X00004672Y00022308D01*
X00004588Y00022450D01*
X00004523Y00022602D01*
X00004478Y00022761D01*
X00004456Y00022925D01*
X00004455Y00023090D01*
X00004477Y00023254D01*
X00004520Y00023414D01*
X00004584Y00023566D01*
X00004668Y00023708D01*
X00004770Y00023838D01*
X00004889Y00023953D01*
X00005022Y00024052D01*
X00005166Y00024131D01*
X00005321Y00024191D01*
X00005481Y00024229D01*
X00005646Y00024246D01*
X00005811Y00024241D01*
X00005974Y00024214D01*
X00006132Y00024165D01*
X00006281Y00024095D01*
X00006421Y00024007D01*
X00006547Y00023900D01*
X00006658Y00023777D01*
X00006751Y00023641D01*
X00006751Y00022382D01*
X00006662Y00022251D01*
X00006552Y00022128D01*
X00006426Y00022020D01*
X00006288Y00021931D01*
X00006138Y00021860D01*
X00005981Y00021811D01*
X00005818Y00021782D01*
X00005653Y00021776D01*
X00033523Y00028681D02*
X00033523Y00028681D01*
X00033523Y00028681D01*
X00033527Y00028687D01*
X00033523Y00028681D01*
X00027224Y00028681D02*
X00027224Y00028681D01*
X00027224Y00028681D01*
X00027227Y00028687D01*
X00027224Y00028681D01*
X00019350Y00028681D02*
X00019350Y00028681D01*
X00019350Y00028681D01*
X00019353Y00028687D01*
X00019350Y00028681D01*
X00013051Y00028681D02*
X00013051Y00028681D01*
X00013051Y00028681D01*
X00013054Y00028687D01*
X00013051Y00028681D01*
X00006751Y00028681D02*
X00006751Y00028681D01*
X00006751Y00028681D01*
X00006755Y00028687D01*
X00006751Y00028681D01*
X00032424Y00028075D02*
X00032424Y00028075D01*
X00032260Y00028091D01*
X00032099Y00028129D01*
X00031945Y00028188D01*
X00031799Y00028266D01*
X00031666Y00028364D01*
X00031547Y00028478D01*
X00031444Y00028608D01*
X00031359Y00028750D01*
X00031294Y00028901D01*
X00031250Y00029061D01*
X00031228Y00029224D01*
X00031227Y00029390D01*
X00031249Y00029553D01*
X00031292Y00029713D01*
X00031356Y00029865D01*
X00031440Y00030008D01*
X00031542Y00030137D01*
X00031661Y00030253D01*
X00031793Y00030351D01*
X00031938Y00030430D01*
X00032092Y00030490D01*
X00032253Y00030529D01*
X00032417Y00030545D01*
X00032582Y00030540D01*
X00032745Y00030513D01*
X00032903Y00030464D01*
X00033053Y00030395D01*
X00033192Y00030306D01*
X00033319Y00030199D01*
X00033430Y00030077D01*
X00033523Y00029940D01*
X00033523Y00028681D01*
X00033434Y00028550D01*
X00033324Y00028427D01*
X00033198Y00028320D01*
X00033059Y00028230D01*
X00032910Y00028160D01*
X00032752Y00028110D01*
X00032589Y00028082D01*
X00032424Y00028075D01*
X00026125Y00028075D02*
X00026125Y00028075D01*
X00025961Y00028091D01*
X00025800Y00028129D01*
X00025645Y00028188D01*
X00025500Y00028266D01*
X00025367Y00028364D01*
X00025248Y00028478D01*
X00025145Y00028608D01*
X00025060Y00028750D01*
X00024995Y00028901D01*
X00024951Y00029061D01*
X00024928Y00029224D01*
X00024928Y00029390D01*
X00024949Y00029553D01*
X00024993Y00029713D01*
X00025057Y00029865D01*
X00025141Y00030008D01*
X00025243Y00030137D01*
X00025361Y00030253D01*
X00025494Y00030351D01*
X00025639Y00030430D01*
X00025793Y00030490D01*
X00025954Y00030529D01*
X00026118Y00030545D01*
X00026283Y00030540D01*
X00026446Y00030513D01*
X00026604Y00030464D01*
X00026754Y00030395D01*
X00026893Y00030306D01*
X00027019Y00030199D01*
X00027130Y00030077D01*
X00027224Y00029940D01*
X00027224Y00028681D01*
X00027135Y00028550D01*
X00027025Y00028427D01*
X00026899Y00028320D01*
X00026760Y00028230D01*
X00026611Y00028160D01*
X00026453Y00028110D01*
X00026290Y00028082D01*
X00026125Y00028075D01*
X00018251Y00028075D02*
X00018251Y00028075D01*
X00018087Y00028091D01*
X00017926Y00028129D01*
X00017771Y00028188D01*
X00017626Y00028266D01*
X00017493Y00028364D01*
X00017373Y00028478D01*
X00017271Y00028608D01*
X00017186Y00028750D01*
X00017121Y00028901D01*
X00017077Y00029061D01*
X00017054Y00029224D01*
X00017054Y00029390D01*
X00017075Y00029553D01*
X00017119Y00029713D01*
X00017183Y00029865D01*
X00017267Y00030008D01*
X00017369Y00030137D01*
X00017487Y00030253D01*
X00017620Y00030351D01*
X00017765Y00030430D01*
X00017919Y00030490D01*
X00018080Y00030529D01*
X00018244Y00030545D01*
X00018409Y00030540D01*
X00018572Y00030513D01*
X00018730Y00030464D01*
X00018880Y00030395D01*
X00019019Y00030306D01*
X00019145Y00030199D01*
X00019256Y00030077D01*
X00019350Y00029940D01*
X00019350Y00028681D01*
X00019261Y00028550D01*
X00019151Y00028427D01*
X00019025Y00028320D01*
X00018886Y00028230D01*
X00018737Y00028160D01*
X00018579Y00028110D01*
X00018416Y00028082D01*
X00018251Y00028075D01*
X00011952Y00028075D02*
X00011952Y00028075D01*
X00011787Y00028091D01*
X00011626Y00028129D01*
X00011472Y00028188D01*
X00011327Y00028266D01*
X00011193Y00028364D01*
X00011074Y00028478D01*
X00010971Y00028608D01*
X00010887Y00028750D01*
X00010822Y00028901D01*
X00010778Y00029061D01*
X00010755Y00029224D01*
X00010755Y00029390D01*
X00010776Y00029553D01*
X00010819Y00029713D01*
X00010884Y00029865D01*
X00010967Y00030008D01*
X00011070Y00030137D01*
X00011188Y00030253D01*
X00011321Y00030351D01*
X00011466Y00030430D01*
X00011620Y00030490D01*
X00011780Y00030529D01*
X00011945Y00030545D01*
X00012110Y00030540D01*
X00012273Y00030513D01*
X00012431Y00030464D01*
X00012581Y00030395D01*
X00012720Y00030306D01*
X00012846Y00030199D01*
X00012957Y00030077D01*
X00013051Y00029940D01*
X00013051Y00028681D01*
X00012961Y00028550D01*
X00012851Y00028427D01*
X00012726Y00028320D01*
X00012587Y00028230D01*
X00012437Y00028160D01*
X00012280Y00028110D01*
X00012117Y00028082D01*
X00011952Y00028075D01*
X00005653Y00028075D02*
X00005653Y00028075D01*
X00005488Y00028091D01*
X00005327Y00028129D01*
X00005173Y00028188D01*
X00005028Y00028266D01*
X00004894Y00028364D01*
X00004775Y00028478D01*
X00004672Y00028608D01*
X00004588Y00028750D01*
X00004523Y00028901D01*
X00004478Y00029061D01*
X00004456Y00029224D01*
X00004455Y00029390D01*
X00004477Y00029553D01*
X00004520Y00029713D01*
X00004584Y00029865D01*
X00004668Y00030008D01*
X00004770Y00030137D01*
X00004889Y00030253D01*
X00005022Y00030351D01*
X00005166Y00030430D01*
X00005321Y00030490D01*
X00005481Y00030529D01*
X00005646Y00030545D01*
X00005811Y00030540D01*
X00005974Y00030513D01*
X00006132Y00030464D01*
X00006281Y00030395D01*
X00006421Y00030306D01*
X00006547Y00030199D01*
X00006658Y00030077D01*
X00006751Y00029940D01*
X00006751Y00028681D01*
X00006662Y00028550D01*
X00006552Y00028427D01*
X00006426Y00028320D01*
X00006288Y00028230D01*
X00006138Y00028160D01*
X00005981Y00028110D01*
X00005818Y00028082D01*
X00005653Y00028075D01*
X00001525Y00030237D02*
X00001525Y00030237D01*
X00001406Y00030243D01*
X00001292Y00030275D01*
X00001186Y00030331D01*
X00001095Y00030408D01*
X00001023Y00030503D01*
X00000973Y00030611D01*
X00000948Y00030727D01*
X00000948Y00030846D01*
X00000973Y00030963D01*
X00001023Y00031071D01*
X00001095Y00031166D01*
X00001186Y00031243D01*
X00001292Y00031299D01*
X00001406Y00031331D01*
X00001525Y00031337D01*
X00001643Y00031318D01*
X00001754Y00031274D01*
X00001852Y00031207D01*
X00001934Y00031120D01*
X00001996Y00031018D01*
X00002034Y00030905D01*
X00002047Y00030787D01*
X00002034Y00030668D01*
X00001996Y00030555D01*
X00001934Y00030453D01*
X00001852Y00030367D01*
X00001754Y00030300D01*
X00001643Y00030256D01*
X00001525Y00030237D01*
X00036727Y00030158D02*
X00036727Y00030158D01*
X00036591Y00030165D01*
X00036459Y00030202D01*
X00036339Y00030266D01*
X00036235Y00030354D01*
X00036153Y00030462D01*
X00036095Y00030586D01*
X00036066Y00030719D01*
X00036066Y00030855D01*
X00036095Y00030988D01*
X00036153Y00031112D01*
X00036235Y00031220D01*
X00036339Y00031308D01*
X00036459Y00031372D01*
X00036591Y00031409D01*
X00036727Y00031416D01*
X00036861Y00031394D01*
X00036987Y00031343D01*
X00037100Y00031267D01*
X00037194Y00031168D01*
X00037264Y00031051D01*
X00037308Y00030922D01*
X00037322Y00030787D01*
X00037308Y00030651D01*
X00037264Y00030522D01*
X00037194Y00030406D01*
X00037100Y00030307D01*
X00036987Y00030230D01*
X00036861Y00030180D01*
X00036727Y00030158D01*
X00021327Y00032283D02*
X00021327Y00032283D01*
X00015680Y00032283D01*
X00015680Y00032283D01*
X00015656Y00032284D01*
X00015632Y00032286D01*
X00015608Y00032290D01*
X00015584Y00032295D01*
X00015561Y00032301D01*
X00015538Y00032309D01*
X00015516Y00032319D01*
X00015494Y00032330D01*
X00015473Y00032342D01*
X00015453Y00032355D01*
X00015433Y00032370D01*
X00015415Y00032385D01*
X00015398Y00032402D01*
X00015381Y00032420D01*
X00015366Y00032439D01*
X00015352Y00032459D01*
X00015339Y00032479D01*
X00015328Y00032501D01*
X00015318Y00032523D01*
X00015309Y00032545D01*
X00015309Y00032546D01*
X00015298Y00032582D01*
X00015290Y00032619D01*
X00015287Y00032656D01*
X00015286Y00032694D01*
X00015290Y00032731D01*
X00015297Y00032768D01*
X00015307Y00032805D01*
X00015321Y00032840D01*
X00015338Y00032873D01*
X00015358Y00032905D01*
X00015381Y00032934D01*
X00015407Y00032962D01*
X00015435Y00032986D01*
X00015466Y00033008D01*
X00015499Y00033027D01*
X00015533Y00033043D01*
X00015568Y00033055D01*
X00015605Y00033064D01*
X00015642Y00033070D01*
X00015680Y00033071D01*
X00016476Y00033071D01*
X00016523Y00033074D01*
X00016569Y00033080D01*
X00016615Y00033088D01*
X00016661Y00033099D01*
X00016705Y00033114D01*
X00016749Y00033131D01*
X00016791Y00033150D01*
X00016832Y00033173D01*
X00016872Y00033197D01*
X00016910Y00033225D01*
X00016943Y00033247D01*
X00016977Y00033268D01*
X00017013Y00033286D01*
X00017049Y00033302D01*
X00017087Y00033316D01*
X00017125Y00033327D01*
X00017164Y00033336D01*
X00017204Y00033342D01*
X00017244Y00033346D01*
X00017284Y00033347D01*
X00018307Y00033347D01*
X00018307Y00033347D01*
X00018477Y00033360D01*
X00018642Y00033400D01*
X00018799Y00033465D01*
X00018944Y00033554D01*
X00019073Y00033664D01*
X00019183Y00033793D01*
X00019272Y00033938D01*
X00019337Y00034095D01*
X00019376Y00034260D01*
X00019390Y00034429D01*
X00019376Y00034598D01*
X00019337Y00034764D01*
X00019272Y00034920D01*
X00019183Y00035065D01*
X00019073Y00035194D01*
X00018944Y00035305D01*
X00018799Y00035393D01*
X00018642Y00035458D01*
X00018477Y00035498D01*
X00018307Y00035511D01*
X00017284Y00035511D01*
X00017243Y00035513D01*
X00017202Y00035516D01*
X00017162Y00035523D01*
X00017122Y00035532D01*
X00017082Y00035544D01*
X00017044Y00035558D01*
X00017007Y00035575D01*
X00016970Y00035594D01*
X00016935Y00035615D01*
X00016902Y00035639D01*
X00016864Y00035665D01*
X00016825Y00035689D01*
X00016785Y00035710D01*
X00016743Y00035729D01*
X00016700Y00035745D01*
X00016657Y00035759D01*
X00016612Y00035770D01*
X00016567Y00035778D01*
X00016522Y00035783D01*
X00016476Y00035786D01*
X00015747Y00035786D01*
X00015744Y00035786D01*
X00015741Y00035786D01*
X00015739Y00035786D01*
X00015736Y00035786D01*
X00015733Y00035786D01*
X00015731Y00035786D01*
X00015728Y00035786D01*
X00015725Y00035786D01*
X00015722Y00035786D01*
X00015720Y00035787D01*
X00015717Y00035787D01*
X00015714Y00035787D01*
X00015712Y00035787D01*
X00015709Y00035787D01*
X00015706Y00035788D01*
X00015704Y00035788D01*
X00015701Y00035788D01*
X00015698Y00035789D01*
X00015696Y00035789D01*
X00015693Y00035789D01*
X00015392Y00035831D01*
X00015334Y00035843D01*
X00015279Y00035864D01*
X00015227Y00035893D01*
X00015181Y00035930D01*
X00015140Y00035973D01*
X00015107Y00036021D01*
X00015081Y00036074D01*
X00015063Y00036131D01*
X00015054Y00036189D01*
X00015053Y00036248D01*
X00015062Y00036306D01*
X00015079Y00036363D01*
X00015104Y00036416D01*
X00015137Y00036465D01*
X00015177Y00036509D01*
X00015223Y00036546D01*
X00015274Y00036575D01*
X00015329Y00036597D01*
X00015387Y00036610D01*
X00015446Y00036615D01*
X00016476Y00036615D01*
X00016523Y00036617D01*
X00016569Y00036623D01*
X00016615Y00036631D01*
X00016661Y00036643D01*
X00016705Y00036657D01*
X00016749Y00036674D01*
X00016791Y00036694D01*
X00016832Y00036716D01*
X00016872Y00036741D01*
X00016910Y00036768D01*
X00016943Y00036791D01*
X00016977Y00036811D01*
X00017013Y00036830D01*
X00017049Y00036846D01*
X00017087Y00036859D01*
X00017125Y00036871D01*
X00017164Y00036879D01*
X00017204Y00036886D01*
X00017244Y00036889D01*
X00017284Y00036891D01*
X00018307Y00036891D01*
X00018307Y00036890D01*
X00018477Y00036904D01*
X00018642Y00036943D01*
X00018799Y00037008D01*
X00018944Y00037097D01*
X00019073Y00037207D01*
X00019183Y00037336D01*
X00019272Y00037481D01*
X00019337Y00037638D01*
X00019376Y00037803D01*
X00019390Y00037972D01*
X00019376Y00038142D01*
X00019337Y00038307D01*
X00019272Y00038464D01*
X00019183Y00038609D01*
X00019073Y00038738D01*
X00018944Y00038848D01*
X00018799Y00038937D01*
X00018642Y00039002D01*
X00018477Y00039041D01*
X00018307Y00039055D01*
X00017284Y00039055D01*
X00017243Y00039056D01*
X00017202Y00039060D01*
X00017162Y00039066D01*
X00017122Y00039075D01*
X00017082Y00039087D01*
X00017044Y00039101D01*
X00017007Y00039118D01*
X00016970Y00039137D01*
X00016935Y00039159D01*
X00016902Y00039182D01*
X00016864Y00039208D01*
X00016825Y00039232D01*
X00016785Y00039254D01*
X00016743Y00039272D01*
X00016700Y00039289D01*
X00016657Y00039302D01*
X00016612Y00039313D01*
X00016567Y00039321D01*
X00016522Y00039326D01*
X00016476Y00039329D01*
X00010236Y00039329D01*
X00010237Y00036614D01*
X00010237Y00036615D01*
X00013687Y00036615D01*
X00013746Y00036610D01*
X00013803Y00036597D01*
X00013858Y00036575D01*
X00013910Y00036546D01*
X00013956Y00036509D01*
X00013996Y00036465D01*
X00014029Y00036416D01*
X00014054Y00036363D01*
X00014071Y00036306D01*
X00014080Y00036248D01*
X00014079Y00036189D01*
X00014070Y00036131D01*
X00014052Y00036074D01*
X00014026Y00036021D01*
X00013993Y00035973D01*
X00013952Y00035930D01*
X00013905Y00035893D01*
X00013854Y00035864D01*
X00013799Y00035843D01*
X00013741Y00035831D01*
X00013440Y00035789D01*
X00013437Y00035789D01*
X00013435Y00035789D01*
X00013432Y00035788D01*
X00013429Y00035788D01*
X00013427Y00035788D01*
X00013424Y00035787D01*
X00013421Y00035787D01*
X00013418Y00035787D01*
X00013416Y00035787D01*
X00013413Y00035787D01*
X00013410Y00035786D01*
X00013408Y00035786D01*
X00013405Y00035786D01*
X00013402Y00035786D01*
X00013400Y00035786D01*
X00013397Y00035786D01*
X00013394Y00035786D01*
X00013391Y00035786D01*
X00013389Y00035786D01*
X00013386Y00035786D01*
X00010236Y00035786D01*
X00010237Y00033070D01*
X00010237Y00033071D01*
X00013453Y00033071D01*
X00013491Y00033070D01*
X00013528Y00033064D01*
X00013565Y00033055D01*
X00013600Y00033043D01*
X00013634Y00033027D01*
X00013667Y00033008D01*
X00013697Y00032986D01*
X00013726Y00032962D01*
X00013752Y00032934D01*
X00013775Y00032905D01*
X00013795Y00032873D01*
X00013812Y00032840D01*
X00013826Y00032805D01*
X00013836Y00032768D01*
X00013843Y00032731D01*
X00013847Y00032694D01*
X00013846Y00032656D01*
X00013843Y00032619D01*
X00013835Y00032582D01*
X00013824Y00032546D01*
X00013824Y00032545D01*
X00013815Y00032523D01*
X00013805Y00032501D01*
X00013794Y00032479D01*
X00013781Y00032459D01*
X00013767Y00032439D01*
X00013752Y00032420D01*
X00013735Y00032402D01*
X00013718Y00032385D01*
X00013699Y00032370D01*
X00013680Y00032355D01*
X00013660Y00032342D01*
X00013639Y00032330D01*
X00013617Y00032319D01*
X00013595Y00032309D01*
X00013572Y00032301D01*
X00013549Y00032295D01*
X00013525Y00032290D01*
X00013501Y00032286D01*
X00013477Y00032284D01*
X00013453Y00032283D01*
X00013453Y00032283D01*
X00004263Y00032283D01*
X00004238Y00032284D01*
X00004214Y00032286D01*
X00004190Y00032290D01*
X00004167Y00032295D01*
X00004143Y00032301D01*
X00004121Y00032309D01*
X00004098Y00032319D01*
X00004077Y00032330D01*
X00004056Y00032342D01*
X00004035Y00032355D01*
X00004016Y00032370D01*
X00003998Y00032385D01*
X00003980Y00032402D01*
X00003964Y00032420D01*
X00003949Y00032439D01*
X00003935Y00032459D01*
X00003922Y00032479D01*
X00003911Y00032501D01*
X00003900Y00032523D01*
X00003892Y00032545D01*
X00003891Y00032546D01*
X00003880Y00032582D01*
X00003873Y00032619D01*
X00003869Y00032656D01*
X00003869Y00032694D01*
X00003872Y00032731D01*
X00003879Y00032768D01*
X00003890Y00032805D01*
X00003903Y00032840D01*
X00003921Y00032873D01*
X00003941Y00032905D01*
X00003964Y00032934D01*
X00003990Y00032962D01*
X00004018Y00032986D01*
X00004049Y00033008D01*
X00004081Y00033027D01*
X00004115Y00033043D01*
X00004151Y00033055D01*
X00004188Y00033064D01*
X00004225Y00033070D01*
X00004262Y00033071D01*
X00006240Y00033071D01*
X00006287Y00033074D01*
X00006333Y00033080D01*
X00006379Y00033088D01*
X00006424Y00033099D01*
X00006469Y00033114D01*
X00006512Y00033131D01*
X00006555Y00033150D01*
X00006596Y00033173D01*
X00006636Y00033197D01*
X00006674Y00033225D01*
X00006707Y00033247D01*
X00006741Y00033268D01*
X00006776Y00033286D01*
X00006813Y00033302D01*
X00006851Y00033316D01*
X00006889Y00033327D01*
X00006928Y00033336D01*
X00006968Y00033342D01*
X00007008Y00033346D01*
X00007048Y00033347D01*
X00008071Y00033347D01*
X00008071Y00033347D01*
X00008240Y00033360D01*
X00008406Y00033400D01*
X00008563Y00033465D01*
X00008707Y00033554D01*
X00008836Y00033664D01*
X00008947Y00033793D01*
X00009035Y00033938D01*
X00009100Y00034095D01*
X00009140Y00034260D01*
X00009153Y00034429D01*
X00009140Y00034598D01*
X00009100Y00034764D01*
X00009035Y00034920D01*
X00008947Y00035065D01*
X00008836Y00035194D01*
X00008707Y00035305D01*
X00008563Y00035393D01*
X00008406Y00035458D01*
X00008240Y00035498D01*
X00008071Y00035511D01*
X00007048Y00035511D01*
X00007007Y00035513D01*
X00006966Y00035516D01*
X00006925Y00035523D01*
X00006885Y00035532D01*
X00006846Y00035544D01*
X00006808Y00035558D01*
X00006770Y00035575D01*
X00006734Y00035594D01*
X00006699Y00035615D01*
X00006666Y00035639D01*
X00006628Y00035665D01*
X00006589Y00035689D01*
X00006549Y00035710D01*
X00006507Y00035729D01*
X00006464Y00035745D01*
X00006420Y00035759D01*
X00006376Y00035770D01*
X00006331Y00035778D01*
X00006285Y00035783D01*
X00006240Y00035786D01*
X00004247Y00035786D01*
X00004210Y00035787D01*
X00004173Y00035793D01*
X00004136Y00035802D01*
X00004100Y00035814D01*
X00004066Y00035830D01*
X00004034Y00035849D01*
X00004003Y00035871D01*
X00003975Y00035895D01*
X00003949Y00035923D01*
X00003926Y00035953D01*
X00003905Y00035984D01*
X00003888Y00036018D01*
X00003875Y00036053D01*
X00003864Y00036089D01*
X00003857Y00036126D01*
X00003854Y00036164D01*
X00003854Y00036201D01*
X00003858Y00036239D01*
X00003866Y00036276D01*
X00003877Y00036312D01*
X00003892Y00036353D01*
X00003900Y00036376D01*
X00003911Y00036398D01*
X00003922Y00036419D01*
X00003935Y00036440D01*
X00003949Y00036459D01*
X00003964Y00036478D01*
X00003980Y00036496D01*
X00003998Y00036513D01*
X00004016Y00036528D01*
X00004036Y00036543D01*
X00004056Y00036556D01*
X00004077Y00036568D01*
X00004098Y00036579D01*
X00004121Y00036588D01*
X00004143Y00036596D01*
X00004167Y00036603D01*
X00004190Y00036608D01*
X00004214Y00036612D01*
X00004238Y00036614D01*
X00004262Y00036615D01*
X00006240Y00036615D01*
X00006287Y00036617D01*
X00006333Y00036623D01*
X00006379Y00036631D01*
X00006424Y00036643D01*
X00006469Y00036657D01*
X00006512Y00036674D01*
X00006555Y00036694D01*
X00006596Y00036716D01*
X00006636Y00036741D01*
X00006674Y00036768D01*
X00006707Y00036791D01*
X00006741Y00036811D01*
X00006776Y00036830D01*
X00006813Y00036846D01*
X00006851Y00036859D01*
X00006889Y00036871D01*
X00006928Y00036879D01*
X00006968Y00036886D01*
X00007008Y00036889D01*
X00007048Y00036891D01*
X00008071Y00036891D01*
X00008071Y00036890D01*
X00008240Y00036904D01*
X00008406Y00036943D01*
X00008563Y00037008D01*
X00008707Y00037097D01*
X00008836Y00037207D01*
X00008947Y00037336D01*
X00009035Y00037481D01*
X00009100Y00037638D01*
X00009140Y00037803D01*
X00009153Y00037972D01*
X00009140Y00038142D01*
X00009100Y00038307D01*
X00009035Y00038464D01*
X00008947Y00038609D01*
X00008836Y00038738D01*
X00008707Y00038848D01*
X00008563Y00038937D01*
X00008406Y00039002D01*
X00008240Y00039041D01*
X00008071Y00039055D01*
X00007048Y00039055D01*
X00007007Y00039056D01*
X00006966Y00039060D01*
X00006925Y00039066D01*
X00006885Y00039075D01*
X00006846Y00039087D01*
X00006808Y00039101D01*
X00006770Y00039118D01*
X00006734Y00039137D01*
X00006699Y00039159D01*
X00006666Y00039182D01*
X00006628Y00039208D01*
X00006589Y00039232D01*
X00006549Y00039254D01*
X00006507Y00039272D01*
X00006464Y00039289D01*
X00006420Y00039302D01*
X00006376Y00039313D01*
X00006331Y00039321D01*
X00006285Y00039326D01*
X00006240Y00039329D01*
X00000000Y00039329D01*
X00000000Y00036614D01*
X00000000Y00036615D01*
X00002036Y00036615D01*
X00002060Y00036614D01*
X00002084Y00036612D01*
X00002108Y00036608D01*
X00002132Y00036603D01*
X00002155Y00036596D01*
X00002178Y00036588D01*
X00002200Y00036579D01*
X00002222Y00036568D01*
X00002242Y00036556D01*
X00002263Y00036543D01*
X00002282Y00036528D01*
X00002300Y00036513D01*
X00002318Y00036496D01*
X00002334Y00036478D01*
X00002349Y00036459D01*
X00002363Y00036440D01*
X00002376Y00036419D01*
X00002388Y00036398D01*
X00002398Y00036376D01*
X00002407Y00036353D01*
X00002422Y00036312D01*
X00002432Y00036276D01*
X00002440Y00036239D01*
X00002444Y00036201D01*
X00002444Y00036164D01*
X00002441Y00036126D01*
X00002434Y00036089D01*
X00002424Y00036053D01*
X00002410Y00036018D01*
X00002393Y00035984D01*
X00002373Y00035953D01*
X00002349Y00035923D01*
X00002324Y00035895D01*
X00002295Y00035871D01*
X00002265Y00035849D01*
X00002232Y00035830D01*
X00002198Y00035814D01*
X00002162Y00035802D01*
X00002126Y00035793D01*
X00002088Y00035787D01*
X00002051Y00035786D01*
X00000000Y00035786D01*
X00000000Y00033070D01*
X00000000Y00033071D01*
X00002036Y00033071D01*
X00002073Y00033070D01*
X00002111Y00033064D01*
X00002147Y00033055D01*
X00002183Y00033043D01*
X00002217Y00033027D01*
X00002249Y00033008D01*
X00002280Y00032986D01*
X00002308Y00032962D01*
X00002334Y00032934D01*
X00002357Y00032905D01*
X00002378Y00032873D01*
X00002395Y00032840D01*
X00002409Y00032805D01*
X00002419Y00032768D01*
X00002426Y00032731D01*
X00002429Y00032694D01*
X00002429Y00032656D01*
X00002425Y00032619D01*
X00002418Y00032582D01*
X00002407Y00032546D01*
X00002407Y00032545D01*
X00002398Y00032523D01*
X00002388Y00032501D01*
X00002376Y00032479D01*
X00002363Y00032459D01*
X00002349Y00032439D01*
X00002334Y00032420D01*
X00002318Y00032402D01*
X00002300Y00032385D01*
X00002282Y00032370D01*
X00002263Y00032355D01*
X00002243Y00032342D01*
X00002222Y00032330D01*
X00002200Y00032319D01*
X00002178Y00032309D01*
X00002155Y00032301D01*
X00002131Y00032295D01*
X00002108Y00032290D01*
X00002084Y00032286D01*
X00002060Y00032284D01*
X00002036Y00032283D01*
X00000984Y00032283D01*
X00000830Y00032271D01*
X00000680Y00032235D01*
X00000537Y00032176D01*
X00000405Y00032095D01*
X00000288Y00031995D01*
X00000187Y00031877D01*
X00000107Y00031746D01*
X00000048Y00031603D01*
X00000012Y00031453D01*
X00000000Y00031299D01*
X00000000Y00017519D01*
X00000012Y00017365D01*
X00000048Y00017215D01*
X00000107Y00017072D01*
X00000187Y00016941D01*
X00000288Y00016823D01*
X00000405Y00016723D01*
X00000537Y00016642D01*
X00000680Y00016583D01*
X00000830Y00016547D01*
X00000984Y00016535D01*
X00006760Y00016535D01*
X00006810Y00016532D01*
X00006859Y00016522D01*
X00006906Y00016507D01*
X00006951Y00016486D01*
X00006993Y00016459D01*
X00007031Y00016427D01*
X00007065Y00016390D01*
X00007094Y00016350D01*
X00007117Y00016306D01*
X00007135Y00016260D01*
X00007147Y00016211D01*
X00007153Y00016162D01*
X00007153Y00016112D01*
X00007146Y00016063D01*
X00007133Y00016015D01*
X00007114Y00015969D01*
X00007089Y00015926D01*
X00007059Y00015886D01*
X00007025Y00015850D01*
X00006986Y00015819D01*
X00006986Y00015819D01*
X00006976Y00015812D01*
X00006966Y00015806D01*
X00006955Y00015800D01*
X00006945Y00015794D01*
X00006934Y00015788D01*
X00006923Y00015783D01*
X00006912Y00015778D01*
X00006901Y00015774D01*
X00006890Y00015770D01*
X00006878Y00015766D01*
X00006867Y00015762D01*
X00006855Y00015759D01*
X00006844Y00015757D01*
X00006832Y00015754D01*
X00006820Y00015752D01*
X00006808Y00015750D01*
X00006796Y00015749D01*
X00006784Y00015748D01*
X00006772Y00015748D01*
X00006760Y00015748D01*
X00006760Y00015748D01*
X00000984Y00015748D01*
X00000830Y00015735D01*
X00000680Y00015699D01*
X00000537Y00015640D01*
X00000405Y00015560D01*
X00000288Y00015459D01*
X00000187Y00015342D01*
X00000107Y00015210D01*
X00000048Y00015067D01*
X00000012Y00014917D01*
X00000000Y00014763D01*
X00000000Y00000984D01*
X00000012Y00000830D01*
X00000048Y00000680D01*
X00000107Y00000537D01*
X00000187Y00000405D01*
X00000288Y00000288D01*
X00000405Y00000187D01*
X00000537Y00000107D01*
X00000680Y00000048D01*
X00000830Y00000012D01*
X00000984Y00000000D01*
X00037204Y00000000D01*
X00037358Y00000012D01*
X00037508Y00000048D01*
X00037651Y00000107D01*
X00037783Y00000187D01*
X00037900Y00000288D01*
X00038000Y00000405D01*
X00038081Y00000537D01*
X00038140Y00000680D01*
X00038176Y00000830D01*
X00038188Y00000984D01*
X00038188Y00014763D01*
X00038176Y00014917D01*
X00038140Y00015067D01*
X00038081Y00015210D01*
X00038000Y00015342D01*
X00037900Y00015459D01*
X00037783Y00015560D01*
X00037651Y00015640D01*
X00037508Y00015699D01*
X00037358Y00015735D01*
X00037204Y00015748D01*
X00031428Y00015748D01*
X00031416Y00015748D01*
X00031404Y00015748D01*
X00031392Y00015749D01*
X00031380Y00015750D01*
X00031368Y00015752D01*
X00031356Y00015754D01*
X00031344Y00015757D01*
X00031333Y00015759D01*
X00031321Y00015762D01*
X00031310Y00015766D01*
X00031298Y00015770D01*
X00031287Y00015774D01*
X00031276Y00015778D01*
X00031265Y00015783D01*
X00031254Y00015788D01*
X00031243Y00015794D01*
X00031232Y00015800D01*
X00031222Y00015806D01*
X00031212Y00015812D01*
X00031202Y00015819D01*
X00031202Y00015819D01*
X00031163Y00015850D01*
X00031129Y00015886D01*
X00031099Y00015926D01*
X00031074Y00015969D01*
X00031055Y00016015D01*
X00031042Y00016063D01*
X00031035Y00016112D01*
X00031035Y00016162D01*
X00031041Y00016211D01*
X00031053Y00016260D01*
X00031071Y00016306D01*
X00031094Y00016350D01*
X00031123Y00016390D01*
X00031157Y00016427D01*
X00031195Y00016459D01*
X00031237Y00016486D01*
X00031282Y00016507D01*
X00031329Y00016522D01*
X00031378Y00016532D01*
X00031428Y00016535D01*
X00037204Y00016535D01*
X00037358Y00016547D01*
X00037508Y00016583D01*
X00037651Y00016642D01*
X00037783Y00016723D01*
X00037900Y00016823D01*
X00038000Y00016941D01*
X00038081Y00017072D01*
X00038140Y00017215D01*
X00038176Y00017365D01*
X00038188Y00017519D01*
X00038188Y00031299D01*
X00038176Y00031453D01*
X00038140Y00031603D01*
X00038081Y00031746D01*
X00038000Y00031877D01*
X00037900Y00031995D01*
X00037783Y00032095D01*
X00037651Y00032176D01*
X00037508Y00032235D01*
X00037358Y00032271D01*
X00037204Y00032283D01*
X00023554Y00032283D01*
X00023506Y00032286D01*
X00023459Y00032294D01*
X00023414Y00032309D01*
X00023370Y00032328D01*
X00023330Y00032353D01*
X00023292Y00032383D01*
X00023259Y00032416D01*
X00023229Y00032454D01*
X00023205Y00032495D01*
X00023185Y00032539D01*
X00023171Y00032584D01*
X00023163Y00032631D01*
X00023160Y00032679D01*
X00023163Y00032726D01*
X00023172Y00032773D01*
X00023187Y00032819D01*
X00023207Y00032862D01*
X00023232Y00032903D01*
X00023261Y00032940D01*
X00023295Y00032973D01*
X00023342Y00033014D01*
X00023350Y00033021D01*
X00023359Y00033028D01*
X00023368Y00033035D01*
X00023377Y00033041D01*
X00023386Y00033047D01*
X00023396Y00033053D01*
X00023405Y00033059D01*
X00023415Y00033064D01*
X00023425Y00033069D01*
X00023435Y00033074D01*
X00023445Y00033079D01*
X00023455Y00033083D01*
X00023465Y00033087D01*
X00023476Y00033091D01*
X00023487Y00033094D01*
X00023497Y00033097D01*
X00023508Y00033100D01*
X00023519Y00033102D01*
X00023530Y00033104D01*
X00023541Y00033106D01*
X00024331Y00033228D01*
X00024369Y00033236D01*
X00024407Y00033250D01*
X00024442Y00033269D01*
X00024473Y00033293D01*
X00024502Y00033321D01*
X00024525Y00033353D01*
X00024544Y00033388D01*
X00024558Y00033425D01*
X00024567Y00033464D01*
X00024570Y00033503D01*
X00024567Y00033503D01*
X00024567Y00038188D01*
X00024564Y00038219D01*
X00024557Y00038249D01*
X00024545Y00038278D01*
X00024529Y00038304D01*
X00024509Y00038328D01*
X00024486Y00038348D01*
X00024459Y00038364D01*
X00024431Y00038376D01*
X00024401Y00038383D01*
X00024370Y00038385D01*
X00023425Y00038385D01*
X00023394Y00038383D01*
X00023364Y00038376D01*
X00023336Y00038364D01*
X00023309Y00038348D01*
X00023286Y00038328D01*
X00023266Y00038304D01*
X00023250Y00038278D01*
X00023238Y00038249D01*
X00023231Y00038219D01*
X00023228Y00038188D01*
X00023228Y00036417D01*
X00023186Y00036268D01*
X00023113Y00036131D01*
X00023013Y00036013D01*
X00022889Y00035919D01*
X00022749Y00035854D01*
X00022597Y00035821D01*
X00022442Y00035821D01*
X00022291Y00035854D01*
X00022150Y00035919D01*
X00022026Y00036013D01*
X00021926Y00036131D01*
X00021853Y00036268D01*
X00021811Y00036417D01*
X00021811Y00038188D01*
X00021809Y00038219D01*
X00021801Y00038249D01*
X00021789Y00038278D01*
X00021773Y00038304D01*
X00021753Y00038328D01*
X00021730Y00038348D01*
X00021703Y00038364D01*
X00021675Y00038376D01*
X00021645Y00038383D01*
X00021614Y00038385D01*
X00020669Y00038385D01*
X00020669Y00038385D01*
X00020638Y00038384D01*
X00020607Y00038377D01*
X00020578Y00038366D01*
X00020552Y00038350D01*
X00020528Y00038330D01*
X00020508Y00038306D01*
X00020492Y00038279D01*
X00020480Y00038250D01*
X00020474Y00038220D01*
X00020472Y00038188D01*
X00020472Y00033503D01*
X00020472Y00033503D01*
X00020475Y00033464D01*
X00020483Y00033425D01*
X00020497Y00033388D01*
X00020516Y00033354D01*
X00020539Y00033322D01*
X00020567Y00033294D01*
X00020599Y00033270D01*
X00020633Y00033251D01*
X00020670Y00033237D01*
X00020709Y00033228D01*
X00021349Y00033129D01*
X00021367Y00033126D01*
X00021384Y00033122D01*
X00021401Y00033118D01*
X00021417Y00033113D01*
X00021434Y00033107D01*
X00021450Y00033100D01*
X00021466Y00033092D01*
X00021481Y00033084D01*
X00021496Y00033075D01*
X00021511Y00033066D01*
X00021525Y00033056D01*
X00021539Y00033045D01*
X00021552Y00033034D01*
X00021565Y00033022D01*
X00021577Y00033009D01*
X00021589Y00032996D01*
X00021600Y00032983D01*
X00021610Y00032969D01*
X00021620Y00032954D01*
X00021629Y00032939D01*
X00021666Y00032876D01*
X00021685Y00032839D01*
X00021701Y00032801D01*
X00021711Y00032761D01*
X00021718Y00032720D01*
X00021721Y00032679D01*
X00021719Y00032638D01*
X00021712Y00032597D01*
X00021702Y00032557D01*
X00021687Y00032518D01*
X00021669Y00032481D01*
X00021646Y00032446D01*
X00021620Y00032414D01*
X00021591Y00032385D01*
X00021559Y00032359D01*
X00021524Y00032336D01*
X00021488Y00032317D01*
X00021449Y00032302D01*
X00021409Y00032292D01*
X00021368Y00032285D01*
X00021327Y00032283D01*
X00018177Y00016535D02*
X00018177Y00016535D01*
X00008987Y00016535D01*
X00008987Y00016535D01*
X00008937Y00016532D01*
X00008889Y00016522D01*
X00008841Y00016507D01*
X00008796Y00016486D01*
X00008754Y00016459D01*
X00008716Y00016427D01*
X00008682Y00016390D01*
X00008653Y00016350D01*
X00008630Y00016306D01*
X00008612Y00016260D01*
X00008600Y00016211D01*
X00008594Y00016162D01*
X00008594Y00016112D01*
X00008601Y00016063D01*
X00008614Y00016015D01*
X00008633Y00015969D01*
X00008658Y00015926D01*
X00008688Y00015886D01*
X00008722Y00015850D01*
X00008761Y00015819D01*
X00008761Y00015819D01*
X00008771Y00015812D01*
X00008781Y00015806D01*
X00008792Y00015800D01*
X00008802Y00015794D01*
X00008813Y00015788D01*
X00008824Y00015783D01*
X00008835Y00015778D01*
X00008846Y00015774D01*
X00008857Y00015770D01*
X00008869Y00015766D01*
X00008880Y00015762D01*
X00008892Y00015759D01*
X00008903Y00015757D01*
X00008915Y00015754D01*
X00008927Y00015752D01*
X00008939Y00015750D01*
X00008951Y00015749D01*
X00008963Y00015748D01*
X00008975Y00015748D01*
X00008987Y00015748D01*
X00008987Y00015748D01*
X00018177Y00015748D01*
X00018177Y00015748D01*
X00018189Y00015748D01*
X00018201Y00015748D01*
X00018213Y00015749D01*
X00018225Y00015750D01*
X00018237Y00015752D01*
X00018249Y00015754D01*
X00018261Y00015757D01*
X00018273Y00015759D01*
X00018284Y00015762D01*
X00018296Y00015766D01*
X00018307Y00015770D01*
X00018318Y00015774D01*
X00018330Y00015778D01*
X00018341Y00015783D01*
X00018352Y00015788D01*
X00018362Y00015794D01*
X00018373Y00015800D01*
X00018383Y00015806D01*
X00018393Y00015812D01*
X00018403Y00015819D01*
X00018403Y00015819D01*
X00018442Y00015850D01*
X00018477Y00015886D01*
X00018507Y00015926D01*
X00018531Y00015969D01*
X00018550Y00016015D01*
X00018563Y00016063D01*
X00018570Y00016112D01*
X00018570Y00016162D01*
X00018565Y00016211D01*
X00018553Y00016260D01*
X00018535Y00016306D01*
X00018511Y00016350D01*
X00018482Y00016390D01*
X00018448Y00016427D01*
X00018410Y00016459D01*
X00018368Y00016486D01*
X00018323Y00016507D01*
X00018276Y00016522D01*
X00018227Y00016532D01*
X00018177Y00016535D01*
X00036722Y00000945D02*
X00036722Y00000945D01*
X00036603Y00000952D01*
X00036488Y00000984D01*
X00036383Y00001039D01*
X00036292Y00001117D01*
X00036220Y00001211D01*
X00036170Y00001320D01*
X00036144Y00001436D01*
X00036144Y00001555D01*
X00036170Y00001672D01*
X00036220Y00001780D01*
X00036292Y00001875D01*
X00036383Y00001952D01*
X00036488Y00002008D01*
X00036603Y00002039D01*
X00036722Y00002046D01*
X00036840Y00002027D01*
X00036951Y00001983D01*
X00037049Y00001916D01*
X00037131Y00001829D01*
X00037193Y00001727D01*
X00037231Y00001614D01*
X00037244Y00001496D01*
X00037231Y00001377D01*
X00037193Y00001264D01*
X00037131Y00001162D01*
X00037049Y00001075D01*
X00036951Y00001009D01*
X00036840Y00000964D01*
X00036722Y00000945D01*
X00001530Y00000867D02*
X00001530Y00000867D01*
X00001394Y00000874D01*
X00001262Y00000910D01*
X00001142Y00000974D01*
X00001038Y00001062D01*
X00000956Y00001171D01*
X00000899Y00001294D01*
X00000869Y00001427D01*
X00000869Y00001564D01*
X00000899Y00001697D01*
X00000956Y00001820D01*
X00001038Y00001929D01*
X00001142Y00002017D01*
X00001262Y00002081D01*
X00001394Y00002117D01*
X00001530Y00002125D01*
X00001664Y00002103D01*
X00001791Y00002052D01*
X00001903Y00001976D01*
X00001997Y00001877D01*
X00002067Y00001760D01*
X00002111Y00001631D01*
X00002125Y00001496D01*
X00002111Y00001360D01*
X00002067Y00001231D01*
X00001997Y00001114D01*
X00001903Y00001015D01*
X00001791Y00000939D01*
X00001664Y00000889D01*
X00001530Y00000867D01*
X00016733Y00002586D02*
X00016733Y00002586D01*
X00016733Y00004318D01*
X00016339Y00004318D01*
X00016339Y00005775D01*
X00022245Y00005775D01*
X00022245Y00004318D01*
X00021654Y00004318D01*
X00021654Y00002586D01*
X00016733Y00002586D01*
X00033523Y00005846D02*
X00033523Y00005846D01*
X00033523Y00005847D01*
X00033527Y00005852D01*
X00033523Y00005846D01*
X00011143Y00003531D02*
X00011143Y00003531D01*
X00011143Y00006523D01*
X00013190Y00006523D01*
X00013190Y00003531D01*
X00011143Y00003531D01*
X00032424Y00005241D02*
X00032424Y00005241D01*
X00032260Y00005257D01*
X00032099Y00005294D01*
X00031945Y00005353D01*
X00031799Y00005432D01*
X00031666Y00005529D01*
X00031547Y00005644D01*
X00031444Y00005773D01*
X00031359Y00005915D01*
X00031294Y00006067D01*
X00031250Y00006226D01*
X00031228Y00006390D01*
X00031227Y00006555D01*
X00031249Y00006719D01*
X00031292Y00006878D01*
X00031356Y00007031D01*
X00031440Y00007173D01*
X00031542Y00007303D01*
X00031661Y00007418D01*
X00031793Y00007516D01*
X00031938Y00007596D01*
X00032092Y00007655D01*
X00032253Y00007694D01*
X00032417Y00007711D01*
X00032582Y00007705D01*
X00032745Y00007678D01*
X00032903Y00007629D01*
X00033053Y00007560D01*
X00033192Y00007471D01*
X00033319Y00007364D01*
X00033430Y00007242D01*
X00033523Y00007106D01*
X00033523Y00005847D01*
X00033434Y00005715D01*
X00033324Y00005592D01*
X00033198Y00005485D01*
X00033059Y00005395D01*
X00032910Y00005325D01*
X00032752Y00005275D01*
X00032589Y00005247D01*
X00032424Y00005241D01*
X00001525Y00013701D02*
X00001525Y00013701D01*
X00001406Y00013708D01*
X00001292Y00013739D01*
X00001186Y00013795D01*
X00001095Y00013872D01*
X00001023Y00013967D01*
X00000973Y00014075D01*
X00000948Y00014192D01*
X00000948Y00014311D01*
X00000973Y00014427D01*
X00001023Y00014536D01*
X00001095Y00014631D01*
X00001186Y00014708D01*
X00001292Y00014764D01*
X00001406Y00014795D01*
X00001525Y00014802D01*
X00001643Y00014783D01*
X00001754Y00014738D01*
X00001852Y00014672D01*
X00001934Y00014585D01*
X00001996Y00014483D01*
X00002034Y00014370D01*
X00002047Y00014251D01*
X00002034Y00014133D01*
X00001996Y00014020D01*
X00001934Y00013918D01*
X00001852Y00013831D01*
X00001754Y00013764D01*
X00001643Y00013720D01*
X00001525Y00013701D01*
X00036727Y00013622D02*
X00036727Y00013622D01*
X00036590Y00013630D01*
X00036459Y00013666D01*
X00036339Y00013730D01*
X00036235Y00013818D01*
X00036153Y00013927D01*
X00036095Y00014050D01*
X00036066Y00014183D01*
X00036066Y00014320D01*
X00036095Y00014453D01*
X00036153Y00014576D01*
X00036235Y00014685D01*
X00036339Y00014773D01*
X00036459Y00014837D01*
X00036590Y00014873D01*
X00036727Y00014880D01*
X00036861Y00014858D01*
X00036987Y00014808D01*
X00037100Y00014732D01*
X00037194Y00014633D01*
X00037264Y00014516D01*
X00037308Y00014387D01*
X00037322Y00014251D01*
X00037308Y00014116D01*
X00037264Y00013987D01*
X00037194Y00013870D01*
X00037100Y00013771D01*
X00036987Y00013695D01*
X00036861Y00013645D01*
X00036727Y00013622D01*
X00020404Y00015748D02*
X00020404Y00015748D01*
X00029201Y00015748D01*
X00029213Y00015748D01*
X00029225Y00015748D01*
X00029237Y00015749D01*
X00029249Y00015750D01*
X00029261Y00015752D01*
X00029273Y00015754D01*
X00029285Y00015757D01*
X00029296Y00015759D01*
X00029308Y00015762D01*
X00029319Y00015766D01*
X00029331Y00015770D01*
X00029342Y00015774D01*
X00029353Y00015778D01*
X00029364Y00015783D01*
X00029375Y00015788D01*
X00029386Y00015794D01*
X00029396Y00015800D01*
X00029407Y00015806D01*
X00029417Y00015812D01*
X00029427Y00015819D01*
X00029427Y00015819D01*
X00029466Y00015850D01*
X00029500Y00015886D01*
X00029530Y00015926D01*
X00029555Y00015969D01*
X00029574Y00016015D01*
X00029587Y00016063D01*
X00029594Y00016112D01*
X00029594Y00016162D01*
X00029588Y00016211D01*
X00029576Y00016260D01*
X00029558Y00016306D01*
X00029535Y00016350D01*
X00029506Y00016390D01*
X00029472Y00016427D01*
X00029434Y00016459D01*
X00029392Y00016486D01*
X00029347Y00016507D01*
X00029299Y00016522D01*
X00029251Y00016532D01*
X00029201Y00016535D01*
X00020404Y00016535D01*
X00020404Y00016535D01*
X00020355Y00016532D01*
X00020306Y00016522D01*
X00020259Y00016507D01*
X00020214Y00016486D01*
X00020172Y00016459D01*
X00020133Y00016427D01*
X00020100Y00016390D01*
X00020071Y00016350D01*
X00020047Y00016306D01*
X00020029Y00016260D01*
X00020017Y00016211D01*
X00020011Y00016162D01*
X00020012Y00016112D01*
X00020019Y00016063D01*
X00020032Y00016015D01*
X00020050Y00015969D01*
X00020075Y00015926D01*
X00020105Y00015886D01*
X00020140Y00015850D01*
X00020178Y00015819D01*
X00020178Y00015819D01*
X00020188Y00015812D01*
X00020199Y00015806D01*
X00020209Y00015800D01*
X00020219Y00015794D01*
X00020230Y00015788D01*
X00020241Y00015783D01*
X00020252Y00015778D01*
X00020263Y00015774D01*
X00020274Y00015770D01*
X00020286Y00015766D01*
X00020297Y00015762D01*
X00020309Y00015759D01*
X00020321Y00015757D01*
X00020333Y00015754D01*
X00020344Y00015752D01*
X00020356Y00015750D01*
X00020368Y00015749D01*
X00020380Y00015748D01*
X00020392Y00015748D01*
X00020404Y00015748D01*
M02*
