%MOIN*%
%OFA0B0*%
%FSLAX44Y44*%
%IPPOS*%
%LPD*%
%ADD10C,0*%
D10*
X00030732Y00040447D02*
X00030732Y00040447D01*
X00030732Y00040165D01*
X00030991Y00040165D01*
X00031013Y00040164D01*
X00031034Y00040163D01*
X00031056Y00040160D01*
X00031078Y00040155D01*
X00031099Y00040150D01*
X00031120Y00040143D01*
X00031140Y00040136D01*
X00031160Y00040127D01*
X00031180Y00040117D01*
X00031199Y00040106D01*
X00031217Y00040094D01*
X00031234Y00040081D01*
X00031251Y00040067D01*
X00031267Y00040052D01*
X00031282Y00040036D01*
X00031297Y00040019D01*
X00031310Y00040002D01*
X00031322Y00039984D01*
X00031334Y00039965D01*
X00031344Y00039946D01*
X00031422Y00039788D01*
X00031438Y00039751D01*
X00031450Y00039713D01*
X00031458Y00039674D01*
X00031462Y00039634D01*
X00031462Y00039594D01*
X00031458Y00039555D01*
X00031450Y00039515D01*
X00031438Y00039477D01*
X00031423Y00039441D01*
X00031403Y00039406D01*
X00031381Y00039373D01*
X00031355Y00039342D01*
X00031326Y00039315D01*
X00031294Y00039290D01*
X00031260Y00039269D01*
X00031224Y00039252D01*
X00031187Y00039238D01*
X00031148Y00039228D01*
X00031109Y00039222D01*
X00031069Y00039220D01*
X00030732Y00039220D01*
X00030732Y00036622D01*
X00030991Y00036622D01*
X00031013Y00036621D01*
X00031034Y00036619D01*
X00031056Y00036616D01*
X00031078Y00036612D01*
X00031099Y00036607D01*
X00031120Y00036600D01*
X00031140Y00036592D01*
X00031160Y00036583D01*
X00031180Y00036574D01*
X00031199Y00036562D01*
X00031217Y00036550D01*
X00031234Y00036537D01*
X00031251Y00036523D01*
X00031267Y00036508D01*
X00031282Y00036493D01*
X00031297Y00036476D01*
X00031310Y00036459D01*
X00031322Y00036441D01*
X00031334Y00036422D01*
X00031344Y00036402D01*
X00031422Y00036245D01*
X00031438Y00036208D01*
X00031450Y00036170D01*
X00031458Y00036131D01*
X00031462Y00036091D01*
X00031462Y00036051D01*
X00031458Y00036011D01*
X00031450Y00035972D01*
X00031438Y00035934D01*
X00031423Y00035897D01*
X00031403Y00035862D01*
X00031381Y00035829D01*
X00031355Y00035799D01*
X00031326Y00035772D01*
X00031294Y00035747D01*
X00031260Y00035726D01*
X00031224Y00035708D01*
X00031187Y00035694D01*
X00031148Y00035684D01*
X00031109Y00035678D01*
X00031069Y00035676D01*
X00030732Y00035677D01*
X00030732Y00033078D01*
X00030991Y00033078D01*
X00031013Y00033078D01*
X00031034Y00033076D01*
X00031056Y00033073D01*
X00031078Y00033069D01*
X00031099Y00033063D01*
X00031120Y00033057D01*
X00031140Y00033049D01*
X00031160Y00033040D01*
X00031180Y00033030D01*
X00031199Y00033019D01*
X00031217Y00033007D01*
X00031234Y00032994D01*
X00031251Y00032980D01*
X00031267Y00032965D01*
X00031282Y00032949D01*
X00031297Y00032933D01*
X00031310Y00032915D01*
X00031322Y00032897D01*
X00031334Y00032879D01*
X00031344Y00032859D01*
X00031422Y00032701D01*
X00031438Y00032665D01*
X00031450Y00032627D01*
X00031458Y00032587D01*
X00031462Y00032548D01*
X00031462Y00032508D01*
X00031458Y00032468D01*
X00031450Y00032429D01*
X00031438Y00032391D01*
X00031423Y00032354D01*
X00031403Y00032319D01*
X00031381Y00032286D01*
X00031355Y00032256D01*
X00031326Y00032228D01*
X00031294Y00032204D01*
X00031260Y00032183D01*
X00031224Y00032165D01*
X00031187Y00032151D01*
X00031148Y00032141D01*
X00031109Y00032135D01*
X00031069Y00032133D01*
X00030732Y00032133D01*
X00030732Y00031600D01*
X00030730Y00031559D01*
X00030723Y00031519D01*
X00030713Y00031480D01*
X00030699Y00031442D01*
X00030681Y00031406D01*
X00030659Y00031372D01*
X00030634Y00031340D01*
X00030606Y00031311D01*
X00030575Y00031285D01*
X00030542Y00031263D01*
X00030506Y00031243D01*
X00030469Y00031228D01*
X00030430Y00031217D01*
X00030390Y00031209D01*
X00030350Y00031206D01*
X00030309Y00031207D01*
X00030269Y00031212D01*
X00030230Y00031221D01*
X00030191Y00031234D01*
X00030155Y00031251D01*
X00030133Y00031263D01*
X00030114Y00031273D01*
X00030096Y00031285D01*
X00030079Y00031297D01*
X00030062Y00031310D01*
X00030046Y00031325D01*
X00030031Y00031340D01*
X00030017Y00031356D01*
X00030003Y00031372D01*
X00029991Y00031390D01*
X00029979Y00031408D01*
X00029969Y00031426D01*
X00029959Y00031445D01*
X00029951Y00031465D01*
X00029943Y00031485D01*
X00029937Y00031505D01*
X00029932Y00031526D01*
X00029928Y00031547D01*
X00029925Y00031568D01*
X00029923Y00031590D01*
X00029923Y00031611D01*
X00029923Y00033080D01*
X00029921Y00033098D01*
X00029917Y00033116D01*
X00029910Y00033134D01*
X00029900Y00033149D01*
X00029888Y00033163D01*
X00029874Y00033175D01*
X00029858Y00033185D01*
X00029841Y00033192D01*
X00029823Y00033197D01*
X00029804Y00033198D01*
X00029533Y00033198D01*
X00029533Y00039041D01*
X00029804Y00039041D01*
X00029823Y00039042D01*
X00029841Y00039046D01*
X00029858Y00039053D01*
X00029874Y00039063D01*
X00029888Y00039075D01*
X00029900Y00039089D01*
X00029910Y00039105D01*
X00029917Y00039122D01*
X00029921Y00039140D01*
X00029923Y00039159D01*
X00029923Y00040435D01*
X00029923Y00040457D01*
X00029925Y00040478D01*
X00029928Y00040499D01*
X00029932Y00040520D01*
X00029937Y00040541D01*
X00029943Y00040561D01*
X00029951Y00040581D01*
X00029959Y00040601D01*
X00029969Y00040620D01*
X00029979Y00040639D01*
X00029991Y00040657D01*
X00030003Y00040674D01*
X00030017Y00040691D01*
X00030031Y00040707D01*
X00030046Y00040722D01*
X00030062Y00040736D01*
X00030079Y00040749D01*
X00030096Y00040762D01*
X00030114Y00040773D01*
X00030133Y00040784D01*
X00030155Y00040795D01*
X00030191Y00040812D01*
X00030230Y00040825D01*
X00030269Y00040834D01*
X00030309Y00040839D01*
X00030350Y00040840D01*
X00030390Y00040837D01*
X00030430Y00040830D01*
X00030469Y00040818D01*
X00030506Y00040803D01*
X00030542Y00040784D01*
X00030575Y00040761D01*
X00030606Y00040735D01*
X00030634Y00040706D01*
X00030659Y00040674D01*
X00030681Y00040640D01*
X00030699Y00040604D01*
X00030713Y00040566D01*
X00030723Y00040527D01*
X00030730Y00040487D01*
X00030732Y00040447D01*
X00028350Y00030207D02*
X00028350Y00030207D01*
X00028231Y00030213D01*
X00028116Y00030245D01*
X00028011Y00030301D01*
X00027920Y00030378D01*
X00027848Y00030473D01*
X00027798Y00030581D01*
X00027772Y00030698D01*
X00027772Y00030817D01*
X00027798Y00030933D01*
X00027848Y00031041D01*
X00027920Y00031136D01*
X00028011Y00031213D01*
X00028116Y00031269D01*
X00028231Y00031301D01*
X00028350Y00031307D01*
X00028468Y00031288D01*
X00028578Y00031244D01*
X00028677Y00031177D01*
X00028759Y00031091D01*
X00028820Y00030989D01*
X00028859Y00030876D01*
X00028871Y00030757D01*
X00028859Y00030639D01*
X00028820Y00030526D01*
X00028759Y00030424D01*
X00028677Y00030337D01*
X00028578Y00030270D01*
X00028468Y00030226D01*
X00028350Y00030207D01*
X00001588Y00030217D02*
X00001588Y00030217D01*
X00001469Y00030223D01*
X00001354Y00030255D01*
X00001249Y00030311D01*
X00001158Y00030388D01*
X00001086Y00030483D01*
X00001036Y00030591D01*
X00001010Y00030707D01*
X00001010Y00030827D01*
X00001036Y00030943D01*
X00001086Y00031051D01*
X00001158Y00031146D01*
X00001249Y00031223D01*
X00001354Y00031279D01*
X00001469Y00031311D01*
X00001588Y00031317D01*
X00001706Y00031298D01*
X00001817Y00031254D01*
X00001915Y00031187D01*
X00001997Y00031101D01*
X00002059Y00030998D01*
X00002097Y00030885D01*
X00002110Y00030767D01*
X00002097Y00030648D01*
X00002059Y00030536D01*
X00001997Y00030433D01*
X00001915Y00030347D01*
X00001817Y00030280D01*
X00001706Y00030236D01*
X00001588Y00030217D01*
X00012775Y00030652D02*
X00012775Y00030652D01*
X00012744Y00030654D01*
X00012714Y00030661D01*
X00012686Y00030673D01*
X00012659Y00030689D01*
X00012636Y00030709D01*
X00012616Y00030733D01*
X00012600Y00030759D01*
X00012588Y00030788D01*
X00012581Y00030818D01*
X00012578Y00030848D01*
X00012578Y00032471D01*
X00012381Y00032471D01*
X00012351Y00032473D01*
X00012321Y00032480D01*
X00012292Y00032492D01*
X00012266Y00032508D01*
X00012242Y00032528D01*
X00012222Y00032552D01*
X00012206Y00032578D01*
X00012194Y00032607D01*
X00012187Y00032637D01*
X00012184Y00032667D01*
X00012184Y00033762D01*
X00012187Y00033793D01*
X00012194Y00033823D01*
X00012206Y00033851D01*
X00012222Y00033878D01*
X00012242Y00033901D01*
X00012266Y00033921D01*
X00012292Y00033937D01*
X00012321Y00033949D01*
X00012351Y00033956D01*
X00012381Y00033959D01*
X00017519Y00033959D01*
X00017550Y00033956D01*
X00017580Y00033949D01*
X00017608Y00033937D01*
X00017635Y00033921D01*
X00017658Y00033901D01*
X00017678Y00033878D01*
X00017695Y00033851D01*
X00017706Y00033823D01*
X00017714Y00033793D01*
X00017716Y00033762D01*
X00017716Y00032667D01*
X00017714Y00032637D01*
X00017706Y00032607D01*
X00017695Y00032578D01*
X00017678Y00032552D01*
X00017658Y00032528D01*
X00017635Y00032508D01*
X00017608Y00032492D01*
X00017580Y00032480D01*
X00017550Y00032473D01*
X00017519Y00032471D01*
X00017381Y00032471D01*
X00017381Y00030848D01*
X00017379Y00030818D01*
X00017372Y00030788D01*
X00017360Y00030759D01*
X00017344Y00030733D01*
X00017324Y00030709D01*
X00017300Y00030689D01*
X00017274Y00030673D01*
X00017245Y00030661D01*
X00017215Y00030654D01*
X00017184Y00030652D01*
X00012775Y00030652D01*
X00008641Y00031715D02*
X00008641Y00031715D01*
X00006929Y00031715D01*
X00006898Y00031717D01*
X00006868Y00031724D01*
X00006839Y00031736D01*
X00006813Y00031752D01*
X00006789Y00031772D01*
X00006769Y00031796D01*
X00006753Y00031822D01*
X00006741Y00031851D01*
X00006734Y00031881D01*
X00006732Y00031911D01*
X00006732Y00034549D01*
X00006734Y00034580D01*
X00006741Y00034610D01*
X00006753Y00034639D01*
X00006769Y00034665D01*
X00006789Y00034688D01*
X00006813Y00034709D01*
X00006839Y00034725D01*
X00006868Y00034736D01*
X00006898Y00034744D01*
X00006929Y00034746D01*
X00008641Y00034746D01*
X00008672Y00034744D01*
X00008702Y00034736D01*
X00008731Y00034725D01*
X00008757Y00034709D01*
X00008780Y00034688D01*
X00008800Y00034665D01*
X00008817Y00034639D01*
X00008828Y00034610D01*
X00008836Y00034580D01*
X00008838Y00034549D01*
X00008838Y00031911D01*
X00008836Y00031881D01*
X00008828Y00031851D01*
X00008817Y00031822D01*
X00008800Y00031796D01*
X00008780Y00031772D01*
X00008757Y00031752D01*
X00008731Y00031736D01*
X00008702Y00031724D01*
X00008672Y00031717D01*
X00008641Y00031715D01*
X00026017Y00037231D02*
X00026017Y00037231D01*
X00025850Y00037231D01*
X00025684Y00037253D01*
X00025522Y00037296D01*
X00025368Y00037360D01*
X00025223Y00037444D01*
X00025090Y00037546D01*
X00024972Y00037664D01*
X00024870Y00037797D01*
X00024787Y00037942D01*
X00024723Y00038096D01*
X00024679Y00038258D01*
X00024657Y00038424D01*
X00024657Y00038591D01*
X00024679Y00038757D01*
X00024723Y00038919D01*
X00024787Y00039073D01*
X00024870Y00039218D01*
X00024972Y00039351D01*
X00025090Y00039469D01*
X00025223Y00039571D01*
X00025368Y00039655D01*
X00025522Y00039719D01*
X00025684Y00039763D01*
X00025850Y00039785D01*
X00026017Y00039785D01*
X00026183Y00039763D01*
X00026344Y00039720D01*
X00026499Y00039656D01*
X00026644Y00039573D01*
X00026777Y00039471D01*
X00026895Y00039353D01*
X00026997Y00039220D01*
X00026997Y00037795D01*
X00026895Y00037662D01*
X00026777Y00037544D01*
X00026644Y00037443D01*
X00026499Y00037359D01*
X00026344Y00037295D01*
X00026183Y00037252D01*
X00026017Y00037231D01*
X00021686Y00037231D02*
X00021686Y00037231D01*
X00021519Y00037231D01*
X00021353Y00037253D01*
X00021192Y00037296D01*
X00021037Y00037360D01*
X00020892Y00037444D01*
X00020759Y00037546D01*
X00020641Y00037664D01*
X00020539Y00037797D01*
X00020456Y00037942D01*
X00020392Y00038096D01*
X00020349Y00038258D01*
X00020327Y00038424D01*
X00020327Y00038591D01*
X00020349Y00038757D01*
X00020392Y00038919D01*
X00020456Y00039073D01*
X00020539Y00039218D01*
X00020641Y00039351D01*
X00020759Y00039469D01*
X00020892Y00039571D01*
X00021037Y00039655D01*
X00021192Y00039719D01*
X00021353Y00039763D01*
X00021519Y00039785D01*
X00021686Y00039785D01*
X00021852Y00039763D01*
X00022014Y00039720D01*
X00022168Y00039656D01*
X00022313Y00039573D01*
X00022446Y00039471D01*
X00022565Y00039353D01*
X00022667Y00039220D01*
X00022667Y00037795D01*
X00022565Y00037662D01*
X00022446Y00037544D01*
X00022313Y00037443D01*
X00022168Y00037359D01*
X00022014Y00037295D01*
X00021852Y00037252D01*
X00021686Y00037231D01*
X00028360Y00040866D02*
X00028360Y00040866D01*
X00028241Y00040873D01*
X00028126Y00040905D01*
X00028021Y00040960D01*
X00027930Y00041038D01*
X00027858Y00041132D01*
X00027808Y00041241D01*
X00027782Y00041357D01*
X00027782Y00041476D01*
X00027808Y00041593D01*
X00027858Y00041701D01*
X00027930Y00041796D01*
X00028021Y00041873D01*
X00028126Y00041929D01*
X00028241Y00041960D01*
X00028360Y00041967D01*
X00028478Y00041948D01*
X00028588Y00041904D01*
X00028687Y00041837D01*
X00028769Y00041750D01*
X00028830Y00041648D01*
X00028868Y00041535D01*
X00028881Y00041417D01*
X00028868Y00041298D01*
X00028830Y00041185D01*
X00028769Y00041083D01*
X00028687Y00040996D01*
X00028588Y00040930D01*
X00028478Y00040885D01*
X00028360Y00040866D01*
X00001588Y00040866D02*
X00001588Y00040866D01*
X00001469Y00040873D01*
X00001354Y00040905D01*
X00001249Y00040960D01*
X00001158Y00041038D01*
X00001086Y00041132D01*
X00001036Y00041241D01*
X00001010Y00041357D01*
X00001010Y00041476D01*
X00001036Y00041593D01*
X00001086Y00041701D01*
X00001158Y00041796D01*
X00001249Y00041873D01*
X00001354Y00041929D01*
X00001469Y00041960D01*
X00001588Y00041967D01*
X00001706Y00041948D01*
X00001817Y00041904D01*
X00001915Y00041837D01*
X00001997Y00041750D01*
X00002059Y00041648D01*
X00002097Y00041535D01*
X00002110Y00041417D01*
X00002097Y00041298D01*
X00002059Y00041185D01*
X00001997Y00041083D01*
X00001915Y00040996D01*
X00001817Y00040930D01*
X00001706Y00040885D01*
X00001588Y00040866D01*
X00026061Y00029209D02*
X00026061Y00029209D01*
X00028942Y00029210D01*
X00029096Y00029222D01*
X00029245Y00029258D01*
X00029387Y00029317D01*
X00029518Y00029397D01*
X00029635Y00029497D01*
X00029735Y00029614D01*
X00029816Y00029745D01*
X00029854Y00029838D01*
X00029857Y00029845D01*
X00029860Y00029851D01*
X00029863Y00029857D01*
X00029866Y00029864D01*
X00029869Y00029870D01*
X00029872Y00029876D01*
X00029876Y00029882D01*
X00029879Y00029888D01*
X00029883Y00029894D01*
X00029887Y00029900D01*
X00029890Y00029906D01*
X00029894Y00029912D01*
X00029898Y00029917D01*
X00029903Y00029923D01*
X00029907Y00029929D01*
X00029911Y00029934D01*
X00029916Y00029940D01*
X00029920Y00029945D01*
X00029925Y00029950D01*
X00029930Y00029955D01*
X00030050Y00030085D01*
X00030084Y00030117D01*
X00030121Y00030145D01*
X00030162Y00030169D01*
X00030205Y00030187D01*
X00030251Y00030201D01*
X00030297Y00030208D01*
X00030344Y00030210D01*
X00030391Y00030207D01*
X00030437Y00030198D01*
X00030482Y00030183D01*
X00030525Y00030163D01*
X00030565Y00030139D01*
X00030602Y00030109D01*
X00030635Y00030076D01*
X00030663Y00030038D01*
X00030688Y00029998D01*
X00030707Y00029955D01*
X00030721Y00029910D01*
X00030729Y00029864D01*
X00030732Y00029817D01*
X00030732Y00029535D01*
X00032523Y00029536D01*
X00032569Y00029539D01*
X00032616Y00029544D01*
X00032662Y00029553D01*
X00032707Y00029564D01*
X00032751Y00029578D01*
X00032795Y00029595D01*
X00032837Y00029615D01*
X00032879Y00029637D01*
X00032918Y00029662D01*
X00032956Y00029689D01*
X00032989Y00029712D01*
X00033024Y00029732D01*
X00033059Y00029751D01*
X00033096Y00029767D01*
X00033133Y00029781D01*
X00033172Y00029792D01*
X00033211Y00029801D01*
X00033250Y00029807D01*
X00033290Y00029811D01*
X00033330Y00029812D01*
X00034354Y00029812D01*
X00034354Y00029811D01*
X00034522Y00029825D01*
X00034686Y00029867D01*
X00034841Y00029935D01*
X00034982Y00030027D01*
X00035107Y00030142D01*
X00035210Y00030275D01*
X00035291Y00030424D01*
X00035346Y00030583D01*
X00035373Y00030750D01*
X00035373Y00030919D01*
X00035346Y00031086D01*
X00035291Y00031246D01*
X00035210Y00031394D01*
X00035107Y00031528D01*
X00034982Y00031642D01*
X00034841Y00031734D01*
X00034686Y00031802D01*
X00034522Y00031844D01*
X00034354Y00031858D01*
X00033330Y00031858D01*
X00033289Y00031859D01*
X00033248Y00031863D01*
X00033208Y00031869D01*
X00033168Y00031879D01*
X00033129Y00031890D01*
X00033090Y00031905D01*
X00033053Y00031921D01*
X00033017Y00031940D01*
X00032982Y00031962D01*
X00032948Y00031986D01*
X00032911Y00032012D01*
X00032872Y00032035D01*
X00032831Y00032057D01*
X00032789Y00032076D01*
X00032747Y00032092D01*
X00032703Y00032105D01*
X00032692Y00032108D01*
X00032659Y00032117D01*
X00032627Y00032130D01*
X00032596Y00032145D01*
X00032567Y00032163D01*
X00032539Y00032184D01*
X00032513Y00032207D01*
X00032489Y00032232D01*
X00032468Y00032259D01*
X00032448Y00032287D01*
X00032432Y00032318D01*
X00032418Y00032349D01*
X00032407Y00032382D01*
X00032399Y00032416D01*
X00032394Y00032450D01*
X00032392Y00032485D01*
X00032393Y00032519D01*
X00032397Y00032553D01*
X00032404Y00032587D01*
X00032414Y00032620D01*
X00032427Y00032652D01*
X00032549Y00032922D01*
X00032555Y00032936D01*
X00032562Y00032949D01*
X00032570Y00032962D01*
X00032578Y00032975D01*
X00032587Y00032988D01*
X00032596Y00033000D01*
X00032605Y00033012D01*
X00032615Y00033024D01*
X00032626Y00033035D01*
X00032637Y00033045D01*
X00032648Y00033056D01*
X00032659Y00033066D01*
X00032672Y00033075D01*
X00032684Y00033084D01*
X00032697Y00033092D01*
X00032710Y00033100D01*
X00032723Y00033108D01*
X00032737Y00033114D01*
X00032751Y00033121D01*
X00032765Y00033127D01*
X00032795Y00033138D01*
X00032837Y00033158D01*
X00032879Y00033180D01*
X00032918Y00033205D01*
X00032956Y00033233D01*
X00032989Y00033255D01*
X00033024Y00033276D01*
X00033059Y00033294D01*
X00033096Y00033310D01*
X00033133Y00033324D01*
X00033172Y00033335D01*
X00033211Y00033344D01*
X00033250Y00033350D01*
X00033290Y00033354D01*
X00033330Y00033355D01*
X00034354Y00033355D01*
X00034354Y00033355D01*
X00034522Y00033369D01*
X00034686Y00033410D01*
X00034841Y00033478D01*
X00034982Y00033571D01*
X00035107Y00033685D01*
X00035210Y00033818D01*
X00035291Y00033967D01*
X00035346Y00034127D01*
X00035373Y00034293D01*
X00035373Y00034462D01*
X00035346Y00034629D01*
X00035291Y00034789D01*
X00035210Y00034938D01*
X00035107Y00035071D01*
X00034982Y00035185D01*
X00034841Y00035278D01*
X00034686Y00035346D01*
X00034522Y00035387D01*
X00034354Y00035401D01*
X00033330Y00035401D01*
X00033289Y00035402D01*
X00033248Y00035406D01*
X00033208Y00035413D01*
X00033168Y00035422D01*
X00033129Y00035434D01*
X00033090Y00035448D01*
X00033053Y00035465D01*
X00033017Y00035484D01*
X00032982Y00035505D01*
X00032948Y00035529D01*
X00032911Y00035555D01*
X00032872Y00035579D01*
X00032831Y00035600D01*
X00032789Y00035619D01*
X00032747Y00035635D01*
X00032703Y00035649D01*
X00032692Y00035651D01*
X00032659Y00035661D01*
X00032627Y00035673D01*
X00032596Y00035689D01*
X00032567Y00035707D01*
X00032539Y00035727D01*
X00032513Y00035750D01*
X00032489Y00035775D01*
X00032468Y00035802D01*
X00032448Y00035831D01*
X00032432Y00035861D01*
X00032418Y00035893D01*
X00032407Y00035926D01*
X00032399Y00035959D01*
X00032394Y00035993D01*
X00032392Y00036028D01*
X00032393Y00036062D01*
X00032397Y00036097D01*
X00032404Y00036130D01*
X00032414Y00036164D01*
X00032427Y00036196D01*
X00032549Y00036465D01*
X00032555Y00036479D01*
X00032562Y00036492D01*
X00032570Y00036506D01*
X00032578Y00036519D01*
X00032587Y00036531D01*
X00032596Y00036543D01*
X00032605Y00036555D01*
X00032615Y00036567D01*
X00032626Y00036578D01*
X00032637Y00036589D01*
X00032648Y00036599D01*
X00032659Y00036609D01*
X00032672Y00036618D01*
X00032684Y00036627D01*
X00032697Y00036636D01*
X00032710Y00036643D01*
X00032723Y00036651D01*
X00032737Y00036658D01*
X00032751Y00036664D01*
X00032765Y00036670D01*
X00032795Y00036682D01*
X00032837Y00036701D01*
X00032879Y00036724D01*
X00032918Y00036749D01*
X00032956Y00036776D01*
X00032989Y00036799D01*
X00033024Y00036819D01*
X00033059Y00036837D01*
X00033096Y00036853D01*
X00033133Y00036867D01*
X00033172Y00036878D01*
X00033211Y00036887D01*
X00033250Y00036894D01*
X00033290Y00036897D01*
X00033330Y00036899D01*
X00034354Y00036899D01*
X00034354Y00036898D01*
X00034522Y00036912D01*
X00034686Y00036954D01*
X00034841Y00037021D01*
X00034982Y00037114D01*
X00035107Y00037228D01*
X00035210Y00037362D01*
X00035291Y00037510D01*
X00035346Y00037670D01*
X00035373Y00037837D01*
X00035373Y00038006D01*
X00035346Y00038172D01*
X00035291Y00038332D01*
X00035210Y00038481D01*
X00035107Y00038614D01*
X00034982Y00038729D01*
X00034841Y00038821D01*
X00034686Y00038889D01*
X00034522Y00038930D01*
X00034354Y00038944D01*
X00033330Y00038944D01*
X00033289Y00038946D01*
X00033248Y00038950D01*
X00033208Y00038956D01*
X00033168Y00038965D01*
X00033129Y00038977D01*
X00033090Y00038991D01*
X00033053Y00039008D01*
X00033017Y00039027D01*
X00032982Y00039048D01*
X00032948Y00039072D01*
X00032911Y00039098D01*
X00032872Y00039122D01*
X00032831Y00039143D01*
X00032789Y00039162D01*
X00032747Y00039178D01*
X00032703Y00039192D01*
X00032692Y00039194D01*
X00032659Y00039204D01*
X00032627Y00039217D01*
X00032596Y00039232D01*
X00032567Y00039250D01*
X00032539Y00039270D01*
X00032513Y00039293D01*
X00032489Y00039318D01*
X00032468Y00039345D01*
X00032448Y00039374D01*
X00032432Y00039404D01*
X00032418Y00039436D01*
X00032407Y00039469D01*
X00032399Y00039502D01*
X00032394Y00039537D01*
X00032392Y00039571D01*
X00032393Y00039606D01*
X00032397Y00039640D01*
X00032404Y00039674D01*
X00032414Y00039707D01*
X00032427Y00039739D01*
X00032549Y00040008D01*
X00032555Y00040022D01*
X00032562Y00040036D01*
X00032570Y00040049D01*
X00032578Y00040062D01*
X00032587Y00040074D01*
X00032596Y00040087D01*
X00032605Y00040099D01*
X00032615Y00040110D01*
X00032626Y00040121D01*
X00032637Y00040132D01*
X00032648Y00040142D01*
X00032659Y00040152D01*
X00032672Y00040162D01*
X00032684Y00040170D01*
X00032697Y00040179D01*
X00032710Y00040187D01*
X00032723Y00040194D01*
X00032737Y00040201D01*
X00032751Y00040207D01*
X00032765Y00040213D01*
X00032795Y00040225D01*
X00032837Y00040245D01*
X00032879Y00040267D01*
X00032918Y00040292D01*
X00032956Y00040319D01*
X00032989Y00040342D01*
X00033024Y00040362D01*
X00033059Y00040381D01*
X00033096Y00040397D01*
X00033133Y00040410D01*
X00033172Y00040422D01*
X00033211Y00040431D01*
X00033250Y00040437D01*
X00033290Y00040441D01*
X00033330Y00040442D01*
X00034354Y00040442D01*
X00034354Y00040441D01*
X00034522Y00040455D01*
X00034686Y00040497D01*
X00034841Y00040565D01*
X00034982Y00040657D01*
X00035107Y00040772D01*
X00035210Y00040905D01*
X00035291Y00041054D01*
X00035346Y00041213D01*
X00035373Y00041380D01*
X00035373Y00041549D01*
X00035346Y00041716D01*
X00035291Y00041876D01*
X00035210Y00042024D01*
X00035107Y00042158D01*
X00034982Y00042272D01*
X00034841Y00042364D01*
X00034686Y00042432D01*
X00034522Y00042474D01*
X00034354Y00042488D01*
X00033330Y00042488D01*
X00033289Y00042489D01*
X00033248Y00042493D01*
X00033208Y00042499D01*
X00033168Y00042509D01*
X00033129Y00042520D01*
X00033090Y00042535D01*
X00033053Y00042551D01*
X00033017Y00042570D01*
X00032982Y00042592D01*
X00032948Y00042615D01*
X00032911Y00042642D01*
X00032872Y00042665D01*
X00032831Y00042687D01*
X00032789Y00042705D01*
X00032747Y00042722D01*
X00032703Y00042735D01*
X00032658Y00042746D01*
X00032613Y00042754D01*
X00032568Y00042759D01*
X00032522Y00042762D01*
X00030732Y00042763D01*
X00030732Y00042229D01*
X00030729Y00042179D01*
X00030719Y00042129D01*
X00030703Y00042081D01*
X00030681Y00042036D01*
X00030653Y00041994D01*
X00030620Y00041955D01*
X00030583Y00041921D01*
X00030541Y00041892D01*
X00030496Y00041869D01*
X00030449Y00041852D01*
X00030400Y00041841D01*
X00030349Y00041836D01*
X00030299Y00041838D01*
X00030249Y00041846D01*
X00030200Y00041861D01*
X00030154Y00041881D01*
X00030111Y00041908D01*
X00030072Y00041940D01*
X00030037Y00041976D01*
X00030007Y00042017D01*
X00029981Y00042058D01*
X00029975Y00042066D01*
X00029970Y00042074D01*
X00029966Y00042083D01*
X00029961Y00042091D01*
X00029957Y00042100D01*
X00029953Y00042109D01*
X00029949Y00042118D01*
X00029945Y00042127D01*
X00029942Y00042136D01*
X00029939Y00042145D01*
X00029936Y00042154D01*
X00029933Y00042163D01*
X00029930Y00042173D01*
X00029928Y00042182D01*
X00029926Y00042192D01*
X00029924Y00042201D01*
X00029923Y00042211D01*
X00029921Y00042220D01*
X00029920Y00042230D01*
X00029919Y00042240D01*
X00029913Y00042321D01*
X00029884Y00042441D01*
X00029837Y00042556D01*
X00029772Y00042661D01*
X00029692Y00042755D01*
X00029598Y00042835D01*
X00029493Y00042900D01*
X00029379Y00042947D01*
X00029258Y00042976D01*
X00029135Y00042985D01*
X00000793Y00042985D01*
X00000669Y00042976D01*
X00000549Y00042947D01*
X00000435Y00042900D01*
X00000330Y00042835D01*
X00000236Y00042755D01*
X00000156Y00042661D01*
X00000091Y00042556D01*
X00000044Y00042441D01*
X00000015Y00042321D01*
X00000005Y00042198D01*
X00000005Y00039119D01*
X00000007Y00039101D01*
X00000011Y00039083D01*
X00000018Y00039066D01*
X00000028Y00039050D01*
X00000040Y00039036D01*
X00000054Y00039024D01*
X00000070Y00039014D01*
X00000087Y00039007D01*
X00000105Y00039003D01*
X00000123Y00039001D01*
X00000395Y00039001D01*
X00000395Y00033159D01*
X00000123Y00033159D01*
X00000105Y00033157D01*
X00000087Y00033153D01*
X00000070Y00033146D01*
X00000054Y00033136D01*
X00000040Y00033124D01*
X00000028Y00033110D01*
X00000018Y00033094D01*
X00000011Y00033077D01*
X00000007Y00033059D01*
X00000005Y00033041D01*
X00000005Y00029993D01*
X00000015Y00029870D01*
X00000044Y00029750D01*
X00000091Y00029636D01*
X00000156Y00029530D01*
X00000236Y00029437D01*
X00000330Y00029356D01*
X00000435Y00029292D01*
X00000549Y00029244D01*
X00000669Y00029216D01*
X00000793Y00029206D01*
X00003857Y00029206D01*
X00003857Y00029206D01*
X00003897Y00029204D01*
X00003936Y00029198D01*
X00003975Y00029188D01*
X00004012Y00029175D01*
X00004048Y00029157D01*
X00004082Y00029136D01*
X00004114Y00029112D01*
X00004142Y00029084D01*
X00004168Y00029054D01*
X00004191Y00029021D01*
X00004211Y00028987D01*
X00004226Y00028950D01*
X00004238Y00028912D01*
X00004246Y00028873D01*
X00004251Y00028833D01*
X00004251Y00028794D01*
X00004247Y00028754D01*
X00004239Y00028715D01*
X00004227Y00028677D01*
X00004211Y00028640D01*
X00004176Y00028567D01*
X00004166Y00028548D01*
X00004154Y00028529D01*
X00004142Y00028511D01*
X00004129Y00028493D01*
X00004114Y00028476D01*
X00004099Y00028460D01*
X00004083Y00028445D01*
X00004066Y00028431D01*
X00004049Y00028418D01*
X00004031Y00028406D01*
X00004012Y00028395D01*
X00003992Y00028385D01*
X00003972Y00028376D01*
X00003951Y00028368D01*
X00003930Y00028361D01*
X00003909Y00028356D01*
X00003888Y00028351D01*
X00003866Y00028348D01*
X00003844Y00028347D01*
X00003822Y00028346D01*
X00003822Y00028346D01*
X00000787Y00028346D01*
X00000664Y00028336D01*
X00000544Y00028307D01*
X00000429Y00028260D01*
X00000324Y00028196D01*
X00000230Y00028115D01*
X00000150Y00028021D01*
X00000085Y00027916D01*
X00000038Y00027802D01*
X00000009Y00027682D01*
X00000000Y00027559D01*
X00000000Y00024480D01*
X00000001Y00024461D01*
X00000005Y00024443D01*
X00000012Y00024426D01*
X00000022Y00024410D01*
X00000034Y00024396D01*
X00000048Y00024384D01*
X00000064Y00024375D01*
X00000081Y00024367D01*
X00000099Y00024363D01*
X00000118Y00024362D01*
X00000389Y00024362D01*
X00000389Y00018519D01*
X00000118Y00018519D01*
X00000099Y00018518D01*
X00000081Y00018513D01*
X00000064Y00018506D01*
X00000048Y00018497D01*
X00000034Y00018485D01*
X00000022Y00018471D01*
X00000012Y00018455D01*
X00000005Y00018438D01*
X00000001Y00018420D01*
X00000000Y00018401D01*
X00000000Y00015354D01*
X00000009Y00015231D01*
X00000038Y00015111D01*
X00000085Y00014996D01*
X00000150Y00014891D01*
X00000230Y00014797D01*
X00000324Y00014717D01*
X00000429Y00014652D01*
X00000544Y00014605D01*
X00000664Y00014576D01*
X00000787Y00014566D01*
X00003428Y00014567D01*
X00003470Y00014565D01*
X00003510Y00014558D01*
X00003550Y00014547D01*
X00003589Y00014533D01*
X00003626Y00014514D01*
X00003660Y00014491D01*
X00003692Y00014465D01*
X00003722Y00014436D01*
X00003747Y00014404D01*
X00003770Y00014369D01*
X00003789Y00014332D01*
X00003803Y00014293D01*
X00003814Y00014253D01*
X00003820Y00014213D01*
X00003822Y00014171D01*
X00003820Y00014130D01*
X00003813Y00014089D01*
X00003802Y00014049D01*
X00003787Y00014011D01*
X00003768Y00013974D01*
X00003768Y00013974D01*
X00003757Y00013956D01*
X00003745Y00013940D01*
X00003733Y00013923D01*
X00003719Y00013908D01*
X00003705Y00013893D01*
X00003690Y00013879D01*
X00003675Y00013866D01*
X00003658Y00013853D01*
X00003641Y00013842D01*
X00003624Y00013831D01*
X00003606Y00013821D01*
X00003587Y00013813D01*
X00003568Y00013805D01*
X00003549Y00013798D01*
X00003529Y00013792D01*
X00003509Y00013788D01*
X00003489Y00013784D01*
X00003469Y00013781D01*
X00003449Y00013780D01*
X00003428Y00013779D01*
X00000787Y00013779D01*
X00000664Y00013769D01*
X00000544Y00013740D01*
X00000429Y00013693D01*
X00000324Y00013629D01*
X00000230Y00013548D01*
X00000150Y00013454D01*
X00000085Y00013349D01*
X00000038Y00013235D01*
X00000009Y00013115D01*
X00000000Y00012992D01*
X00000000Y00009913D01*
X00000001Y00009894D01*
X00000005Y00009876D01*
X00000012Y00009859D01*
X00000022Y00009843D01*
X00000034Y00009829D01*
X00000048Y00009817D01*
X00000064Y00009808D01*
X00000081Y00009801D01*
X00000099Y00009796D01*
X00000118Y00009795D01*
X00000389Y00009795D01*
X00000389Y00003952D01*
X00000118Y00003952D01*
X00000099Y00003951D01*
X00000081Y00003946D01*
X00000064Y00003939D01*
X00000048Y00003930D01*
X00000034Y00003918D01*
X00000022Y00003904D01*
X00000012Y00003888D01*
X00000005Y00003871D01*
X00000001Y00003853D01*
X00000000Y00003834D01*
X00000000Y00000787D01*
X00000009Y00000664D01*
X00000038Y00000544D01*
X00000085Y00000429D01*
X00000150Y00000324D01*
X00000230Y00000230D01*
X00000324Y00000150D01*
X00000429Y00000085D01*
X00000544Y00000038D01*
X00000664Y00000009D01*
X00000787Y00000000D01*
X00028937Y00000003D01*
X00029090Y00000016D01*
X00029239Y00000051D01*
X00029382Y00000110D01*
X00029513Y00000191D01*
X00029630Y00000291D01*
X00029730Y00000408D01*
X00029810Y00000539D01*
X00029869Y00000681D01*
X00029905Y00000830D01*
X00029917Y00000984D01*
X00029917Y00003874D01*
X00029915Y00003892D01*
X00029911Y00003910D01*
X00029904Y00003927D01*
X00029894Y00003943D01*
X00029882Y00003957D01*
X00029868Y00003969D01*
X00029852Y00003979D01*
X00029835Y00003986D01*
X00029817Y00003990D01*
X00029799Y00003992D01*
X00029527Y00003992D01*
X00029527Y00009834D01*
X00029799Y00009834D01*
X00029817Y00009836D01*
X00029835Y00009840D01*
X00029852Y00009847D01*
X00029868Y00009857D01*
X00029882Y00009869D01*
X00029894Y00009883D01*
X00029904Y00009899D01*
X00029911Y00009916D01*
X00029915Y00009934D01*
X00029917Y00009952D01*
X00029917Y00012992D01*
X00029907Y00013115D01*
X00029878Y00013235D01*
X00029831Y00013349D01*
X00029766Y00013454D01*
X00029686Y00013548D01*
X00029592Y00013629D01*
X00029487Y00013693D01*
X00029373Y00013740D01*
X00029253Y00013769D01*
X00029129Y00013779D01*
X00026098Y00013779D01*
X00026098Y00013779D01*
X00026075Y00013780D01*
X00026052Y00013782D01*
X00026030Y00013785D01*
X00026007Y00013790D01*
X00025985Y00013796D01*
X00025963Y00013803D01*
X00025942Y00013812D01*
X00025921Y00013821D01*
X00025901Y00013832D01*
X00025881Y00013845D01*
X00025862Y00013858D01*
X00025844Y00013872D01*
X00025827Y00013888D01*
X00025811Y00013904D01*
X00025796Y00013921D01*
X00025781Y00013939D01*
X00025768Y00013958D01*
X00025756Y00013978D01*
X00025745Y00013998D01*
X00025736Y00014019D01*
X00025734Y00014023D01*
X00025721Y00014059D01*
X00025711Y00014097D01*
X00025705Y00014135D01*
X00025703Y00014174D01*
X00025705Y00014213D01*
X00025710Y00014251D01*
X00025720Y00014289D01*
X00025733Y00014325D01*
X00025749Y00014360D01*
X00025769Y00014394D01*
X00025792Y00014425D01*
X00025818Y00014454D01*
X00025846Y00014480D01*
X00025877Y00014503D01*
X00025911Y00014523D01*
X00025946Y00014540D01*
X00025982Y00014553D01*
X00026020Y00014562D01*
X00026058Y00014568D01*
X00026097Y00014570D01*
X00026097Y00014570D01*
X00028937Y00014570D01*
X00029090Y00014582D01*
X00029239Y00014618D01*
X00029382Y00014677D01*
X00029513Y00014758D01*
X00029630Y00014857D01*
X00029730Y00014974D01*
X00029810Y00015106D01*
X00029869Y00015248D01*
X00029905Y00015397D01*
X00029917Y00015551D01*
X00029917Y00015635D01*
X00029917Y00015656D01*
X00029919Y00015678D01*
X00029922Y00015700D01*
X00029926Y00015721D01*
X00029932Y00015742D01*
X00029938Y00015763D01*
X00029946Y00015783D01*
X00029955Y00015803D01*
X00029965Y00015823D01*
X00029976Y00015842D01*
X00029988Y00015860D01*
X00030001Y00015877D01*
X00030014Y00015894D01*
X00030029Y00015910D01*
X00030045Y00015925D01*
X00030061Y00015939D01*
X00030079Y00015953D01*
X00030097Y00015965D01*
X00030115Y00015976D01*
X00030134Y00015987D01*
X00030268Y00016054D01*
X00030305Y00016070D01*
X00030343Y00016082D01*
X00030382Y00016090D01*
X00030422Y00016095D01*
X00030462Y00016095D01*
X00030502Y00016091D01*
X00030541Y00016083D01*
X00030579Y00016071D01*
X00030616Y00016056D01*
X00030651Y00016036D01*
X00030684Y00016014D01*
X00030715Y00015988D01*
X00030742Y00015959D01*
X00030767Y00015927D01*
X00030788Y00015893D01*
X00030806Y00015857D01*
X00030820Y00015820D01*
X00030830Y00015781D01*
X00030836Y00015742D01*
X00030838Y00015702D01*
X00030838Y00014669D01*
X00032421Y00014669D01*
X00032452Y00014671D01*
X00032482Y00014678D01*
X00032510Y00014690D01*
X00032536Y00014706D01*
X00032560Y00014726D01*
X00032580Y00014750D01*
X00032596Y00014776D01*
X00032608Y00014805D01*
X00032615Y00014835D01*
X00032618Y00014866D01*
X00032618Y00019216D01*
X00032615Y00019247D01*
X00032608Y00019277D01*
X00032596Y00019305D01*
X00032580Y00019332D01*
X00032560Y00019355D01*
X00032536Y00019375D01*
X00032510Y00019391D01*
X00032482Y00019403D01*
X00032452Y00019410D01*
X00032421Y00019413D01*
X00030838Y00019413D01*
X00030838Y00017368D01*
X00030836Y00017328D01*
X00030830Y00017289D01*
X00030820Y00017250D01*
X00030806Y00017213D01*
X00030788Y00017177D01*
X00030767Y00017143D01*
X00030742Y00017111D01*
X00030715Y00017082D01*
X00030684Y00017056D01*
X00030651Y00017033D01*
X00030616Y00017014D01*
X00030579Y00016999D01*
X00030541Y00016987D01*
X00030502Y00016979D01*
X00030462Y00016975D01*
X00030422Y00016975D01*
X00030382Y00016980D01*
X00030343Y00016988D01*
X00030305Y00017000D01*
X00030268Y00017016D01*
X00030134Y00017083D01*
X00030115Y00017093D01*
X00030097Y00017105D01*
X00030079Y00017117D01*
X00030061Y00017130D01*
X00030045Y00017145D01*
X00030029Y00017160D01*
X00030014Y00017176D01*
X00030001Y00017193D01*
X00029988Y00017210D01*
X00029976Y00017228D01*
X00029965Y00017247D01*
X00029955Y00017267D01*
X00029946Y00017287D01*
X00029938Y00017307D01*
X00029932Y00017328D01*
X00029926Y00017349D01*
X00029922Y00017370D01*
X00029919Y00017392D01*
X00029917Y00017414D01*
X00029917Y00017435D01*
X00029917Y00018440D01*
X00029915Y00018459D01*
X00029911Y00018477D01*
X00029904Y00018494D01*
X00029894Y00018510D01*
X00029882Y00018524D01*
X00029868Y00018536D01*
X00029852Y00018546D01*
X00029835Y00018553D01*
X00029817Y00018557D01*
X00029799Y00018559D01*
X00029527Y00018559D01*
X00029527Y00024401D01*
X00029799Y00024401D01*
X00029817Y00024403D01*
X00029835Y00024407D01*
X00029852Y00024414D01*
X00029868Y00024424D01*
X00029882Y00024436D01*
X00029894Y00024450D01*
X00029904Y00024466D01*
X00029911Y00024483D01*
X00029915Y00024501D01*
X00029917Y00024519D01*
X00029917Y00025477D01*
X00029917Y00025500D01*
X00029919Y00025522D01*
X00029923Y00025545D01*
X00029927Y00025567D01*
X00029933Y00025589D01*
X00029940Y00025611D01*
X00029949Y00025632D01*
X00029958Y00025653D01*
X00029969Y00025673D01*
X00029981Y00025692D01*
X00029994Y00025711D01*
X00030008Y00025729D01*
X00030023Y00025746D01*
X00030039Y00025762D01*
X00030056Y00025777D01*
X00030073Y00025791D01*
X00030092Y00025804D01*
X00030111Y00025817D01*
X00030131Y00025828D01*
X00030152Y00025837D01*
X00030230Y00025872D01*
X00030267Y00025886D01*
X00030304Y00025896D01*
X00030343Y00025903D01*
X00030382Y00025905D01*
X00030421Y00025904D01*
X00030460Y00025899D01*
X00030498Y00025890D01*
X00030535Y00025878D01*
X00030570Y00025861D01*
X00030604Y00025842D01*
X00030636Y00025819D01*
X00030665Y00025793D01*
X00030692Y00025764D01*
X00030715Y00025733D01*
X00030735Y00025699D01*
X00030752Y00025664D01*
X00030766Y00025627D01*
X00030775Y00025590D01*
X00030781Y00025551D01*
X00030783Y00025512D01*
X00030783Y00022679D01*
X00030783Y00022679D01*
X00030785Y00022648D01*
X00030793Y00022618D01*
X00030804Y00022589D01*
X00030821Y00022563D01*
X00030841Y00022539D01*
X00030864Y00022519D01*
X00030890Y00022503D01*
X00030919Y00022491D01*
X00030949Y00022484D01*
X00030980Y00022482D01*
X00032015Y00022482D01*
X00032015Y00022482D01*
X00032046Y00022484D01*
X00032076Y00022491D01*
X00032105Y00022503D01*
X00032131Y00022519D01*
X00032154Y00022539D01*
X00032175Y00022563D01*
X00032191Y00022589D01*
X00032202Y00022618D01*
X00032210Y00022648D01*
X00032212Y00022679D01*
X00032212Y00027757D01*
X00032210Y00027788D01*
X00032202Y00027818D01*
X00032191Y00027847D01*
X00032175Y00027873D01*
X00032154Y00027897D01*
X00032131Y00027917D01*
X00032105Y00027933D01*
X00032076Y00027945D01*
X00032046Y00027952D01*
X00032015Y00027954D01*
X00030980Y00027954D01*
X00030949Y00027952D01*
X00030919Y00027945D01*
X00030890Y00027933D01*
X00030864Y00027917D01*
X00030841Y00027897D01*
X00030821Y00027873D01*
X00030804Y00027847D01*
X00030793Y00027818D01*
X00030785Y00027788D01*
X00030783Y00027757D01*
X00030783Y00027243D01*
X00030781Y00027204D01*
X00030775Y00027165D01*
X00030766Y00027127D01*
X00030752Y00027091D01*
X00030735Y00027055D01*
X00030715Y00027022D01*
X00030692Y00026991D01*
X00030665Y00026962D01*
X00030636Y00026936D01*
X00030604Y00026913D01*
X00030570Y00026894D01*
X00030535Y00026877D01*
X00030498Y00026865D01*
X00030460Y00026856D01*
X00030421Y00026851D01*
X00030382Y00026849D01*
X00030343Y00026852D01*
X00030304Y00026859D01*
X00030267Y00026869D01*
X00030230Y00026883D01*
X00030152Y00026918D01*
X00030131Y00026927D01*
X00030111Y00026938D01*
X00030092Y00026950D01*
X00030073Y00026964D01*
X00030056Y00026978D01*
X00030039Y00026993D01*
X00030023Y00027009D01*
X00030008Y00027026D01*
X00029994Y00027044D01*
X00029981Y00027063D01*
X00029969Y00027082D01*
X00029958Y00027102D01*
X00029949Y00027123D01*
X00029940Y00027144D01*
X00029933Y00027166D01*
X00029927Y00027188D01*
X00029923Y00027210D01*
X00029919Y00027232D01*
X00029917Y00027255D01*
X00029917Y00027278D01*
X00029917Y00027559D01*
X00029907Y00027682D01*
X00029878Y00027802D01*
X00029831Y00027916D01*
X00029766Y00028021D01*
X00029686Y00028115D01*
X00029592Y00028196D01*
X00029487Y00028260D01*
X00029373Y00028307D01*
X00029253Y00028336D01*
X00029129Y00028346D01*
X00026098Y00028346D01*
X00026076Y00028347D01*
X00026055Y00028348D01*
X00026033Y00028351D01*
X00026011Y00028356D01*
X00025990Y00028361D01*
X00025969Y00028368D01*
X00025948Y00028376D01*
X00025928Y00028385D01*
X00025909Y00028395D01*
X00025890Y00028406D01*
X00025872Y00028418D01*
X00025854Y00028431D01*
X00025837Y00028445D01*
X00025821Y00028460D01*
X00025806Y00028476D01*
X00025792Y00028493D01*
X00025778Y00028510D01*
X00025766Y00028529D01*
X00025755Y00028548D01*
X00025745Y00028567D01*
X00025707Y00028643D01*
X00025692Y00028680D01*
X00025680Y00028718D01*
X00025672Y00028757D01*
X00025668Y00028796D01*
X00025668Y00028836D01*
X00025672Y00028876D01*
X00025680Y00028915D01*
X00025692Y00028953D01*
X00025708Y00028990D01*
X00025727Y00029024D01*
X00025750Y00029057D01*
X00025776Y00029087D01*
X00025805Y00029115D01*
X00025837Y00029139D01*
X00025870Y00029160D01*
X00025906Y00029178D01*
X00025944Y00029191D01*
X00025982Y00029201D01*
X00026021Y00029207D01*
X00026061Y00029209D01*
X00028344Y00015567D02*
X00028344Y00015567D01*
X00028225Y00015574D01*
X00028110Y00015606D01*
X00028005Y00015661D01*
X00027914Y00015739D01*
X00027842Y00015833D01*
X00027792Y00015942D01*
X00027767Y00016058D01*
X00027767Y00016177D01*
X00027792Y00016294D01*
X00027842Y00016402D01*
X00027914Y00016497D01*
X00028005Y00016574D01*
X00028110Y00016630D01*
X00028225Y00016662D01*
X00028344Y00016668D01*
X00028462Y00016649D01*
X00028573Y00016605D01*
X00028671Y00016538D01*
X00028753Y00016451D01*
X00028815Y00016349D01*
X00028853Y00016236D01*
X00028866Y00016118D01*
X00028853Y00015999D01*
X00028815Y00015886D01*
X00028753Y00015784D01*
X00028671Y00015698D01*
X00028573Y00015631D01*
X00028462Y00015587D01*
X00028344Y00015567D01*
X00001582Y00015577D02*
X00001582Y00015577D01*
X00001463Y00015584D01*
X00001349Y00015615D01*
X00001243Y00015671D01*
X00001152Y00015748D01*
X00001080Y00015843D01*
X00001030Y00015951D01*
X00001005Y00016068D01*
X00001005Y00016187D01*
X00001030Y00016303D01*
X00001080Y00016412D01*
X00001152Y00016507D01*
X00001243Y00016584D01*
X00001349Y00016639D01*
X00001463Y00016671D01*
X00001582Y00016678D01*
X00001700Y00016659D01*
X00001811Y00016614D01*
X00001909Y00016548D01*
X00001991Y00016461D01*
X00002053Y00016359D01*
X00002091Y00016246D01*
X00002104Y00016127D01*
X00002091Y00016009D01*
X00002053Y00015896D01*
X00001991Y00015794D01*
X00001909Y00015707D01*
X00001811Y00015640D01*
X00001700Y00015596D01*
X00001582Y00015577D01*
X00019011Y00020955D02*
X00019011Y00020955D01*
X00018844Y00020955D01*
X00018678Y00020977D01*
X00018516Y00021020D01*
X00018362Y00021084D01*
X00018217Y00021168D01*
X00018084Y00021270D01*
X00017966Y00021388D01*
X00017864Y00021521D01*
X00017781Y00021666D01*
X00017717Y00021821D01*
X00017673Y00021982D01*
X00017652Y00022148D01*
X00017652Y00022315D01*
X00017673Y00022481D01*
X00017717Y00022643D01*
X00017781Y00022797D01*
X00017864Y00022942D01*
X00017966Y00023075D01*
X00018084Y00023194D01*
X00018217Y00023295D01*
X00018362Y00023379D01*
X00018516Y00023443D01*
X00018678Y00023487D01*
X00018844Y00023509D01*
X00019011Y00023509D01*
X00019177Y00023487D01*
X00019339Y00023444D01*
X00019493Y00023380D01*
X00019638Y00023297D01*
X00019771Y00023195D01*
X00019890Y00023077D01*
X00019992Y00022944D01*
X00019992Y00021519D01*
X00019890Y00021387D01*
X00019771Y00021268D01*
X00019638Y00021167D01*
X00019493Y00021083D01*
X00019339Y00021019D01*
X00019177Y00020976D01*
X00019011Y00020955D01*
X00024129Y00020955D02*
X00024129Y00020955D01*
X00023962Y00020955D01*
X00023796Y00020977D01*
X00023634Y00021020D01*
X00023480Y00021084D01*
X00023335Y00021168D01*
X00023202Y00021270D01*
X00023084Y00021388D01*
X00022982Y00021521D01*
X00022899Y00021666D01*
X00022835Y00021821D01*
X00022792Y00021982D01*
X00022770Y00022148D01*
X00022770Y00022315D01*
X00022792Y00022481D01*
X00022835Y00022643D01*
X00022899Y00022797D01*
X00022982Y00022942D01*
X00023084Y00023075D01*
X00023202Y00023194D01*
X00023335Y00023295D01*
X00023480Y00023379D01*
X00023634Y00023443D01*
X00023796Y00023487D01*
X00023962Y00023509D01*
X00024129Y00023509D01*
X00024295Y00023487D01*
X00024457Y00023444D01*
X00024611Y00023380D01*
X00024756Y00023297D01*
X00024889Y00023195D01*
X00025008Y00023077D01*
X00025110Y00022944D01*
X00025110Y00021519D01*
X00025008Y00021387D01*
X00024889Y00021268D01*
X00024756Y00021167D01*
X00024611Y00021083D01*
X00024457Y00021019D01*
X00024295Y00020976D01*
X00024129Y00020955D01*
X00006019Y00020955D02*
X00006019Y00020955D01*
X00005852Y00020955D01*
X00005686Y00020977D01*
X00005524Y00021020D01*
X00005370Y00021084D01*
X00005225Y00021168D01*
X00005092Y00021270D01*
X00004974Y00021388D01*
X00004872Y00021521D01*
X00004789Y00021666D01*
X00004725Y00021821D01*
X00004681Y00021982D01*
X00004659Y00022148D01*
X00004659Y00022315D01*
X00004681Y00022481D01*
X00004725Y00022643D01*
X00004789Y00022797D01*
X00004872Y00022942D01*
X00004974Y00023075D01*
X00005092Y00023194D01*
X00005225Y00023295D01*
X00005370Y00023379D01*
X00005524Y00023443D01*
X00005686Y00023487D01*
X00005852Y00023509D01*
X00006019Y00023509D01*
X00006185Y00023487D01*
X00006347Y00023444D01*
X00006501Y00023380D01*
X00006646Y00023297D01*
X00006779Y00023195D01*
X00006897Y00023077D01*
X00007000Y00022944D01*
X00007000Y00021519D01*
X00006897Y00021387D01*
X00006779Y00021268D01*
X00006646Y00021167D01*
X00006501Y00021083D01*
X00006347Y00021019D01*
X00006185Y00020976D01*
X00006019Y00020955D01*
X00011137Y00020955D02*
X00011137Y00020955D01*
X00010970Y00020955D01*
X00010804Y00020977D01*
X00010642Y00021020D01*
X00010488Y00021084D01*
X00010343Y00021168D01*
X00010210Y00021270D01*
X00010092Y00021388D01*
X00009990Y00021521D01*
X00009907Y00021666D01*
X00009843Y00021821D01*
X00009799Y00021982D01*
X00009778Y00022148D01*
X00009778Y00022315D01*
X00009799Y00022481D01*
X00009843Y00022643D01*
X00009907Y00022797D01*
X00009990Y00022942D01*
X00010092Y00023075D01*
X00010210Y00023194D01*
X00010343Y00023295D01*
X00010488Y00023379D01*
X00010642Y00023443D01*
X00010804Y00023487D01*
X00010970Y00023509D01*
X00011137Y00023509D01*
X00011303Y00023487D01*
X00011465Y00023444D01*
X00011619Y00023380D01*
X00011764Y00023297D01*
X00011897Y00023195D01*
X00012016Y00023077D01*
X00012118Y00022944D01*
X00012118Y00021519D01*
X00012016Y00021387D01*
X00011897Y00021268D01*
X00011764Y00021167D01*
X00011619Y00021083D01*
X00011465Y00021019D01*
X00011303Y00020976D01*
X00011137Y00020955D01*
X00028354Y00026227D02*
X00028354Y00026227D01*
X00028235Y00026233D01*
X00028120Y00026265D01*
X00028015Y00026321D01*
X00027924Y00026398D01*
X00027852Y00026493D01*
X00027802Y00026601D01*
X00027776Y00026717D01*
X00027776Y00026837D01*
X00027802Y00026953D01*
X00027852Y00027061D01*
X00027924Y00027156D01*
X00028015Y00027233D01*
X00028120Y00027289D01*
X00028235Y00027321D01*
X00028354Y00027327D01*
X00028472Y00027308D01*
X00028582Y00027264D01*
X00028681Y00027197D01*
X00028763Y00027111D01*
X00028825Y00027008D01*
X00028863Y00026896D01*
X00028875Y00026777D01*
X00028875Y00026777D01*
X00028863Y00026659D01*
X00028825Y00026546D01*
X00028763Y00026444D01*
X00028681Y00026357D01*
X00028582Y00026290D01*
X00028472Y00026246D01*
X00028354Y00026227D01*
X00001582Y00026227D02*
X00001582Y00026227D01*
X00001463Y00026233D01*
X00001349Y00026265D01*
X00001243Y00026321D01*
X00001152Y00026398D01*
X00001080Y00026493D01*
X00001030Y00026601D01*
X00001005Y00026717D01*
X00001005Y00026837D01*
X00001030Y00026953D01*
X00001080Y00027061D01*
X00001152Y00027156D01*
X00001243Y00027233D01*
X00001349Y00027289D01*
X00001463Y00027321D01*
X00001582Y00027327D01*
X00001700Y00027308D01*
X00001811Y00027264D01*
X00001909Y00027197D01*
X00001991Y00027111D01*
X00002053Y00027008D01*
X00002091Y00026896D01*
X00002104Y00026777D01*
X00002104Y00026777D01*
X00002091Y00026659D01*
X00002053Y00026546D01*
X00001991Y00026444D01*
X00001909Y00026357D01*
X00001811Y00026290D01*
X00001700Y00026246D01*
X00001582Y00026227D01*
X00005626Y00028346D02*
X00005626Y00028346D01*
X00013664Y00028346D01*
X00013686Y00028347D01*
X00013708Y00028348D01*
X00013730Y00028351D01*
X00013752Y00028356D01*
X00013773Y00028361D01*
X00013794Y00028368D01*
X00013814Y00028376D01*
X00013834Y00028385D01*
X00013854Y00028395D01*
X00013873Y00028406D01*
X00013891Y00028418D01*
X00013909Y00028431D01*
X00013926Y00028445D01*
X00013942Y00028460D01*
X00013957Y00028476D01*
X00013971Y00028493D01*
X00013984Y00028510D01*
X00013997Y00028529D01*
X00014008Y00028547D01*
X00014018Y00028567D01*
X00014054Y00028641D01*
X00014070Y00028678D01*
X00014082Y00028716D01*
X00014090Y00028755D01*
X00014094Y00028795D01*
X00014094Y00028835D01*
X00014090Y00028874D01*
X00014082Y00028913D01*
X00014070Y00028951D01*
X00014054Y00028988D01*
X00014035Y00029023D01*
X00014012Y00029055D01*
X00013986Y00029086D01*
X00013957Y00029113D01*
X00013925Y00029137D01*
X00013892Y00029158D01*
X00013856Y00029176D01*
X00013818Y00029190D01*
X00013780Y00029200D01*
X00013740Y00029206D01*
X00013701Y00029208D01*
X00005590Y00029207D01*
X00005590Y00029207D01*
X00005551Y00029205D01*
X00005511Y00029199D01*
X00005473Y00029189D01*
X00005435Y00029175D01*
X00005400Y00029157D01*
X00005366Y00029136D01*
X00005334Y00029112D01*
X00005305Y00029085D01*
X00005279Y00029054D01*
X00005257Y00029022D01*
X00005237Y00028987D01*
X00005222Y00028950D01*
X00005210Y00028912D01*
X00005201Y00028874D01*
X00005197Y00028834D01*
X00005197Y00028794D01*
X00005201Y00028755D01*
X00005209Y00028715D01*
X00005221Y00028677D01*
X00005236Y00028641D01*
X00005272Y00028568D01*
X00005282Y00028548D01*
X00005293Y00028529D01*
X00005306Y00028511D01*
X00005319Y00028493D01*
X00005333Y00028477D01*
X00005348Y00028461D01*
X00005364Y00028446D01*
X00005381Y00028431D01*
X00005399Y00028418D01*
X00005417Y00028406D01*
X00005436Y00028395D01*
X00005456Y00028385D01*
X00005476Y00028376D01*
X00005496Y00028368D01*
X00005517Y00028361D01*
X00005539Y00028356D01*
X00005560Y00028351D01*
X00005582Y00028348D01*
X00005604Y00028347D01*
X00005626Y00028346D01*
X00024296Y00014570D02*
X00024296Y00014570D01*
X00015468Y00014568D01*
X00015468Y00014568D01*
X00015429Y00014567D01*
X00015391Y00014561D01*
X00015353Y00014552D01*
X00015317Y00014539D01*
X00015282Y00014522D01*
X00015249Y00014502D01*
X00015218Y00014479D01*
X00015190Y00014453D01*
X00015164Y00014425D01*
X00015141Y00014394D01*
X00015121Y00014361D01*
X00015104Y00014326D01*
X00015091Y00014290D01*
X00015082Y00014252D01*
X00015076Y00014214D01*
X00015074Y00014176D01*
X00015076Y00014137D01*
X00015081Y00014099D01*
X00015091Y00014061D01*
X00015104Y00014025D01*
X00015104Y00014023D01*
X00015114Y00014002D01*
X00015125Y00013981D01*
X00015136Y00013961D01*
X00015149Y00013942D01*
X00015164Y00013924D01*
X00015179Y00013906D01*
X00015195Y00013889D01*
X00015212Y00013874D01*
X00015230Y00013859D01*
X00015249Y00013846D01*
X00015269Y00013833D01*
X00015289Y00013822D01*
X00015310Y00013812D01*
X00015332Y00013803D01*
X00015354Y00013796D01*
X00015376Y00013790D01*
X00015399Y00013785D01*
X00015422Y00013782D01*
X00015445Y00013780D01*
X00015469Y00013779D01*
X00015469Y00013779D01*
X00024294Y00013779D01*
X00024294Y00013779D01*
X00024317Y00013780D01*
X00024339Y00013782D01*
X00024361Y00013785D01*
X00024384Y00013789D01*
X00024405Y00013795D01*
X00024427Y00013802D01*
X00024448Y00013810D01*
X00024468Y00013819D01*
X00024488Y00013830D01*
X00024507Y00013842D01*
X00024526Y00013854D01*
X00024544Y00013868D01*
X00024561Y00013883D01*
X00024577Y00013899D01*
X00024592Y00013915D01*
X00024606Y00013933D01*
X00024619Y00013951D01*
X00024632Y00013970D01*
X00024643Y00013989D01*
X00024653Y00014010D01*
X00024654Y00014013D01*
X00024669Y00014049D01*
X00024679Y00014087D01*
X00024686Y00014126D01*
X00024689Y00014165D01*
X00024688Y00014204D01*
X00024684Y00014243D01*
X00024675Y00014282D01*
X00024663Y00014319D01*
X00024646Y00014355D01*
X00024627Y00014389D01*
X00024604Y00014421D01*
X00024578Y00014451D01*
X00024549Y00014477D01*
X00024518Y00014501D01*
X00024484Y00014522D01*
X00024449Y00014539D01*
X00024412Y00014552D01*
X00024374Y00014562D01*
X00024335Y00014568D01*
X00024296Y00014570D01*
X00028344Y00001000D02*
X00028344Y00001000D01*
X00028225Y00001007D01*
X00028110Y00001039D01*
X00028005Y00001094D01*
X00027914Y00001172D01*
X00027842Y00001267D01*
X00027792Y00001375D01*
X00027767Y00001491D01*
X00027767Y00001610D01*
X00027792Y00001727D01*
X00027842Y00001835D01*
X00027914Y00001930D01*
X00028005Y00002007D01*
X00028110Y00002063D01*
X00028225Y00002095D01*
X00028344Y00002101D01*
X00028462Y00002082D01*
X00028573Y00002038D01*
X00028671Y00001971D01*
X00028753Y00001884D01*
X00028815Y00001782D01*
X00028853Y00001669D01*
X00028866Y00001551D01*
X00028853Y00001432D01*
X00028815Y00001319D01*
X00028753Y00001217D01*
X00028671Y00001131D01*
X00028573Y00001064D01*
X00028462Y00001020D01*
X00028344Y00001000D01*
X00001582Y00001010D02*
X00001582Y00001010D01*
X00001463Y00001017D01*
X00001349Y00001048D01*
X00001243Y00001104D01*
X00001152Y00001181D01*
X00001080Y00001276D01*
X00001030Y00001385D01*
X00001005Y00001501D01*
X00001005Y00001620D01*
X00001030Y00001737D01*
X00001080Y00001845D01*
X00001152Y00001940D01*
X00001243Y00002017D01*
X00001349Y00002073D01*
X00001463Y00002104D01*
X00001582Y00002111D01*
X00001700Y00002092D01*
X00001811Y00002048D01*
X00001909Y00001981D01*
X00001991Y00001894D01*
X00002053Y00001792D01*
X00002091Y00001679D01*
X00002104Y00001561D01*
X00002091Y00001442D01*
X00002053Y00001329D01*
X00001991Y00001227D01*
X00001909Y00001140D01*
X00001811Y00001074D01*
X00001700Y00001029D01*
X00001582Y00001010D01*
X00004578Y00004317D02*
X00004578Y00004317D01*
X00004411Y00004317D01*
X00004245Y00004339D01*
X00004083Y00004382D01*
X00003929Y00004447D01*
X00003784Y00004530D01*
X00003651Y00004632D01*
X00003533Y00004751D01*
X00003431Y00004883D01*
X00003348Y00005028D01*
X00003284Y00005183D01*
X00003240Y00005344D01*
X00003219Y00005510D01*
X00003219Y00005678D01*
X00003240Y00005844D01*
X00003284Y00006005D01*
X00003348Y00006160D01*
X00003431Y00006305D01*
X00003533Y00006437D01*
X00003651Y00006556D01*
X00003784Y00006658D01*
X00003929Y00006741D01*
X00004083Y00006806D01*
X00004245Y00006849D01*
X00004411Y00006871D01*
X00004578Y00006871D01*
X00004744Y00006849D01*
X00004906Y00006806D01*
X00005060Y00006742D01*
X00005205Y00006659D01*
X00005338Y00006557D01*
X00005457Y00006439D01*
X00005559Y00006307D01*
X00005559Y00004881D01*
X00005559Y00004881D01*
X00005457Y00004749D01*
X00005338Y00004631D01*
X00005205Y00004529D01*
X00005060Y00004446D01*
X00004906Y00004382D01*
X00004744Y00004339D01*
X00004578Y00004317D01*
X00009696Y00004317D02*
X00009696Y00004317D01*
X00009529Y00004317D01*
X00009363Y00004339D01*
X00009201Y00004382D01*
X00009047Y00004447D01*
X00008902Y00004530D01*
X00008769Y00004632D01*
X00008651Y00004751D01*
X00008549Y00004883D01*
X00008466Y00005028D01*
X00008402Y00005183D01*
X00008358Y00005344D01*
X00008337Y00005510D01*
X00008337Y00005678D01*
X00008358Y00005844D01*
X00008402Y00006005D01*
X00008466Y00006160D01*
X00008549Y00006305D01*
X00008651Y00006437D01*
X00008769Y00006556D01*
X00008902Y00006658D01*
X00009047Y00006741D01*
X00009201Y00006806D01*
X00009363Y00006849D01*
X00009529Y00006871D01*
X00009696Y00006871D01*
X00009862Y00006849D01*
X00010024Y00006806D01*
X00010178Y00006742D01*
X00010323Y00006659D01*
X00010456Y00006557D01*
X00010575Y00006439D01*
X00010677Y00006307D01*
X00010677Y00004881D01*
X00010575Y00004749D01*
X00010456Y00004631D01*
X00010323Y00004529D01*
X00010178Y00004446D01*
X00010024Y00004382D01*
X00009862Y00004339D01*
X00009696Y00004317D01*
X00014814Y00004317D02*
X00014814Y00004317D01*
X00014647Y00004317D01*
X00014481Y00004339D01*
X00014320Y00004382D01*
X00014165Y00004447D01*
X00014020Y00004530D01*
X00013888Y00004632D01*
X00013769Y00004751D01*
X00013667Y00004883D01*
X00013584Y00005028D01*
X00013520Y00005183D01*
X00013477Y00005344D01*
X00013455Y00005510D01*
X00013455Y00005678D01*
X00013477Y00005844D01*
X00013520Y00006005D01*
X00013584Y00006160D01*
X00013667Y00006305D01*
X00013769Y00006437D01*
X00013888Y00006556D01*
X00014020Y00006658D01*
X00014165Y00006741D01*
X00014320Y00006806D01*
X00014481Y00006849D01*
X00014647Y00006871D01*
X00014814Y00006871D01*
X00014980Y00006849D01*
X00015142Y00006806D01*
X00015296Y00006742D01*
X00015441Y00006659D01*
X00015574Y00006557D01*
X00015693Y00006439D01*
X00015795Y00006307D01*
X00015795Y00004881D01*
X00015693Y00004749D01*
X00015574Y00004631D01*
X00015441Y00004529D01*
X00015296Y00004446D01*
X00015142Y00004382D01*
X00014980Y00004339D01*
X00014814Y00004317D01*
X00020326Y00004317D02*
X00020326Y00004317D01*
X00020159Y00004317D01*
X00019993Y00004339D01*
X00019831Y00004382D01*
X00019677Y00004447D01*
X00019532Y00004530D01*
X00019399Y00004632D01*
X00019281Y00004751D01*
X00019179Y00004883D01*
X00019096Y00005028D01*
X00019032Y00005183D01*
X00018988Y00005344D01*
X00018967Y00005510D01*
X00018967Y00005678D01*
X00018988Y00005844D01*
X00019032Y00006005D01*
X00019096Y00006160D01*
X00019179Y00006305D01*
X00019281Y00006437D01*
X00019399Y00006556D01*
X00019532Y00006658D01*
X00019677Y00006741D01*
X00019831Y00006806D01*
X00019993Y00006849D01*
X00020159Y00006871D01*
X00020326Y00006871D01*
X00020492Y00006849D01*
X00020654Y00006806D01*
X00020808Y00006742D01*
X00020953Y00006659D01*
X00021086Y00006557D01*
X00021205Y00006439D01*
X00021307Y00006307D01*
X00021307Y00004881D01*
X00021205Y00004749D01*
X00021086Y00004631D01*
X00020953Y00004529D01*
X00020808Y00004446D01*
X00020654Y00004382D01*
X00020492Y00004339D01*
X00020326Y00004317D01*
X00025444Y00004317D02*
X00025444Y00004317D01*
X00025277Y00004317D01*
X00025111Y00004339D01*
X00024949Y00004382D01*
X00024795Y00004447D01*
X00024650Y00004530D01*
X00024517Y00004632D01*
X00024399Y00004751D01*
X00024297Y00004883D01*
X00024214Y00005028D01*
X00024150Y00005183D01*
X00024107Y00005344D01*
X00024085Y00005510D01*
X00024085Y00005678D01*
X00024107Y00005844D01*
X00024150Y00006005D01*
X00024214Y00006160D01*
X00024297Y00006305D01*
X00024399Y00006437D01*
X00024517Y00006556D01*
X00024650Y00006658D01*
X00024795Y00006741D01*
X00024949Y00006806D01*
X00025111Y00006849D01*
X00025277Y00006871D01*
X00025444Y00006871D01*
X00025610Y00006849D01*
X00025772Y00006806D01*
X00025926Y00006742D01*
X00026071Y00006659D01*
X00026204Y00006557D01*
X00026323Y00006439D01*
X00026425Y00006307D01*
X00026425Y00004881D01*
X00026323Y00004749D01*
X00026204Y00004631D01*
X00026071Y00004529D01*
X00025926Y00004446D01*
X00025772Y00004382D01*
X00025610Y00004339D01*
X00025444Y00004317D01*
X00004578Y00009829D02*
X00004578Y00009829D01*
X00004411Y00009829D01*
X00004245Y00009851D01*
X00004083Y00009894D01*
X00003929Y00009958D01*
X00003784Y00010042D01*
X00003651Y00010144D01*
X00003533Y00010262D01*
X00003431Y00010395D01*
X00003348Y00010540D01*
X00003284Y00010695D01*
X00003240Y00010856D01*
X00003219Y00011022D01*
X00003219Y00011189D01*
X00003240Y00011355D01*
X00003284Y00011517D01*
X00003348Y00011672D01*
X00003431Y00011816D01*
X00003533Y00011949D01*
X00003651Y00012068D01*
X00003784Y00012169D01*
X00003929Y00012253D01*
X00004083Y00012317D01*
X00004245Y00012361D01*
X00004411Y00012383D01*
X00004578Y00012383D01*
X00004744Y00012361D01*
X00004906Y00012318D01*
X00005060Y00012254D01*
X00005205Y00012171D01*
X00005338Y00012069D01*
X00005457Y00011951D01*
X00005559Y00011818D01*
X00005559Y00010393D01*
X00005559Y00010393D01*
X00005457Y00010261D01*
X00005338Y00010142D01*
X00005205Y00010041D01*
X00005060Y00009957D01*
X00004906Y00009894D01*
X00004744Y00009850D01*
X00004578Y00009829D01*
X00009696Y00009829D02*
X00009696Y00009829D01*
X00009529Y00009829D01*
X00009363Y00009851D01*
X00009201Y00009894D01*
X00009047Y00009958D01*
X00008902Y00010042D01*
X00008769Y00010144D01*
X00008651Y00010262D01*
X00008549Y00010395D01*
X00008466Y00010540D01*
X00008402Y00010695D01*
X00008358Y00010856D01*
X00008337Y00011022D01*
X00008337Y00011189D01*
X00008358Y00011355D01*
X00008402Y00011517D01*
X00008466Y00011672D01*
X00008549Y00011816D01*
X00008651Y00011949D01*
X00008769Y00012068D01*
X00008902Y00012169D01*
X00009047Y00012253D01*
X00009201Y00012317D01*
X00009363Y00012361D01*
X00009529Y00012383D01*
X00009696Y00012383D01*
X00009862Y00012361D01*
X00010024Y00012318D01*
X00010178Y00012254D01*
X00010323Y00012171D01*
X00010456Y00012069D01*
X00010575Y00011951D01*
X00010677Y00011818D01*
X00010677Y00010393D01*
X00010575Y00010261D01*
X00010456Y00010142D01*
X00010323Y00010041D01*
X00010178Y00009957D01*
X00010024Y00009894D01*
X00009862Y00009850D01*
X00009696Y00009829D01*
X00014814Y00009829D02*
X00014814Y00009829D01*
X00014647Y00009829D01*
X00014481Y00009851D01*
X00014320Y00009894D01*
X00014165Y00009958D01*
X00014020Y00010042D01*
X00013888Y00010144D01*
X00013769Y00010262D01*
X00013667Y00010395D01*
X00013584Y00010540D01*
X00013520Y00010695D01*
X00013477Y00010856D01*
X00013455Y00011022D01*
X00013455Y00011189D01*
X00013477Y00011355D01*
X00013520Y00011517D01*
X00013584Y00011672D01*
X00013667Y00011816D01*
X00013769Y00011949D01*
X00013888Y00012068D01*
X00014020Y00012169D01*
X00014165Y00012253D01*
X00014320Y00012317D01*
X00014481Y00012361D01*
X00014647Y00012383D01*
X00014814Y00012383D01*
X00014980Y00012361D01*
X00015142Y00012318D01*
X00015296Y00012254D01*
X00015441Y00012171D01*
X00015574Y00012069D01*
X00015693Y00011951D01*
X00015795Y00011818D01*
X00015795Y00010393D01*
X00015693Y00010261D01*
X00015574Y00010142D01*
X00015441Y00010041D01*
X00015296Y00009957D01*
X00015142Y00009894D01*
X00014980Y00009850D01*
X00014814Y00009829D01*
X00020326Y00009829D02*
X00020326Y00009829D01*
X00020159Y00009829D01*
X00019993Y00009851D01*
X00019831Y00009894D01*
X00019677Y00009958D01*
X00019532Y00010042D01*
X00019399Y00010144D01*
X00019281Y00010262D01*
X00019179Y00010395D01*
X00019096Y00010540D01*
X00019032Y00010695D01*
X00018988Y00010856D01*
X00018967Y00011022D01*
X00018967Y00011189D01*
X00018988Y00011355D01*
X00019032Y00011517D01*
X00019096Y00011672D01*
X00019179Y00011816D01*
X00019281Y00011949D01*
X00019399Y00012068D01*
X00019532Y00012169D01*
X00019677Y00012253D01*
X00019831Y00012317D01*
X00019993Y00012361D01*
X00020159Y00012383D01*
X00020326Y00012383D01*
X00020492Y00012361D01*
X00020654Y00012318D01*
X00020808Y00012254D01*
X00020953Y00012171D01*
X00021086Y00012069D01*
X00021205Y00011951D01*
X00021307Y00011818D01*
X00021307Y00010393D01*
X00021205Y00010261D01*
X00021086Y00010142D01*
X00020953Y00010041D01*
X00020808Y00009957D01*
X00020654Y00009894D01*
X00020492Y00009850D01*
X00020326Y00009829D01*
X00025444Y00009829D02*
X00025444Y00009829D01*
X00025277Y00009829D01*
X00025111Y00009851D01*
X00024949Y00009894D01*
X00024795Y00009958D01*
X00024650Y00010042D01*
X00024517Y00010144D01*
X00024399Y00010262D01*
X00024297Y00010395D01*
X00024214Y00010540D01*
X00024150Y00010695D01*
X00024107Y00010856D01*
X00024085Y00011022D01*
X00024085Y00011189D01*
X00024107Y00011355D01*
X00024150Y00011517D01*
X00024214Y00011672D01*
X00024297Y00011816D01*
X00024399Y00011949D01*
X00024517Y00012068D01*
X00024650Y00012169D01*
X00024795Y00012253D01*
X00024949Y00012317D01*
X00025111Y00012361D01*
X00025277Y00012383D01*
X00025444Y00012383D01*
X00025610Y00012361D01*
X00025772Y00012318D01*
X00025926Y00012254D01*
X00026071Y00012171D01*
X00026204Y00012069D01*
X00026323Y00011951D01*
X00026425Y00011818D01*
X00026425Y00010393D01*
X00026323Y00010261D01*
X00026204Y00010142D01*
X00026071Y00010041D01*
X00025926Y00009957D01*
X00025772Y00009894D01*
X00025610Y00009850D01*
X00025444Y00009829D01*
X00028354Y00011660D02*
X00028354Y00011660D01*
X00028235Y00011666D01*
X00028120Y00011698D01*
X00028015Y00011754D01*
X00027924Y00011831D01*
X00027852Y00011926D01*
X00027802Y00012034D01*
X00027776Y00012151D01*
X00027776Y00012270D01*
X00027802Y00012386D01*
X00027852Y00012494D01*
X00027924Y00012589D01*
X00028015Y00012666D01*
X00028120Y00012722D01*
X00028235Y00012754D01*
X00028354Y00012761D01*
X00028472Y00012741D01*
X00028582Y00012697D01*
X00028681Y00012630D01*
X00028763Y00012544D01*
X00028825Y00012442D01*
X00028863Y00012329D01*
X00028875Y00012210D01*
X00028875Y00012210D01*
X00028863Y00012092D01*
X00028825Y00011979D01*
X00028763Y00011877D01*
X00028681Y00011790D01*
X00028582Y00011723D01*
X00028472Y00011679D01*
X00028354Y00011660D01*
X00001582Y00011660D02*
X00001582Y00011660D01*
X00001463Y00011666D01*
X00001349Y00011698D01*
X00001243Y00011754D01*
X00001152Y00011831D01*
X00001080Y00011926D01*
X00001030Y00012034D01*
X00001005Y00012151D01*
X00001005Y00012270D01*
X00001030Y00012386D01*
X00001080Y00012494D01*
X00001152Y00012589D01*
X00001243Y00012666D01*
X00001349Y00012722D01*
X00001463Y00012754D01*
X00001582Y00012761D01*
X00001700Y00012741D01*
X00001811Y00012697D01*
X00001909Y00012630D01*
X00001991Y00012544D01*
X00002053Y00012442D01*
X00002091Y00012329D01*
X00002104Y00012210D01*
X00002104Y00012210D01*
X00002091Y00012092D01*
X00002053Y00011979D01*
X00001991Y00011877D01*
X00001909Y00011790D01*
X00001811Y00011723D01*
X00001700Y00011679D01*
X00001582Y00011660D01*
X00013664Y00013779D02*
X00013664Y00013779D01*
X00005232Y00013779D01*
X00005208Y00013780D01*
X00005184Y00013782D01*
X00005160Y00013786D01*
X00005136Y00013791D01*
X00005113Y00013798D01*
X00005090Y00013806D01*
X00005067Y00013815D01*
X00005046Y00013826D01*
X00005024Y00013838D01*
X00005004Y00013852D01*
X00004985Y00013867D01*
X00004966Y00013882D01*
X00004949Y00013899D01*
X00004933Y00013917D01*
X00004917Y00013936D01*
X00004903Y00013956D01*
X00004891Y00013977D01*
X00004879Y00013998D01*
X00004869Y00014021D01*
X00004860Y00014043D01*
X00004860Y00014044D01*
X00004850Y00014080D01*
X00004842Y00014117D01*
X00004839Y00014154D01*
X00004839Y00014191D01*
X00004842Y00014229D01*
X00004849Y00014266D01*
X00004860Y00014302D01*
X00004874Y00014336D01*
X00004891Y00014370D01*
X00004911Y00014401D01*
X00004934Y00014431D01*
X00004960Y00014458D01*
X00004988Y00014483D01*
X00005019Y00014504D01*
X00005051Y00014523D01*
X00005086Y00014539D01*
X00005121Y00014551D01*
X00005157Y00014560D01*
X00005195Y00014565D01*
X00005232Y00014567D01*
X00013665Y00014568D01*
X00013665Y00014568D01*
X00013705Y00014566D01*
X00013744Y00014560D01*
X00013782Y00014551D01*
X00013819Y00014537D01*
X00013855Y00014520D01*
X00013888Y00014499D01*
X00013920Y00014475D01*
X00013949Y00014448D01*
X00013975Y00014418D01*
X00013997Y00014386D01*
X00014017Y00014351D01*
X00014033Y00014315D01*
X00014045Y00014278D01*
X00014054Y00014239D01*
X00014058Y00014200D01*
X00014059Y00014160D01*
X00014055Y00014121D01*
X00014048Y00014082D01*
X00014037Y00014044D01*
X00014022Y00014008D01*
X00014021Y00014006D01*
X00014011Y00013986D01*
X00014000Y00013967D01*
X00013988Y00013948D01*
X00013974Y00013930D01*
X00013960Y00013913D01*
X00013945Y00013896D01*
X00013929Y00013881D01*
X00013912Y00013867D01*
X00013894Y00013853D01*
X00013876Y00013841D01*
X00013856Y00013829D01*
X00013837Y00013819D01*
X00013816Y00013810D01*
X00013796Y00013802D01*
X00013774Y00013795D01*
X00013753Y00013789D01*
X00013731Y00013785D01*
X00013709Y00013782D01*
X00013687Y00013780D01*
X00013664Y00013779D01*
X00024331Y00029209D02*
X00024331Y00029209D01*
X00024371Y00029207D01*
X00024411Y00029201D01*
X00024449Y00029191D01*
X00024487Y00029177D01*
X00024522Y00029160D01*
X00024556Y00029139D01*
X00024588Y00029114D01*
X00024617Y00029087D01*
X00024643Y00029057D01*
X00024665Y00029024D01*
X00024685Y00028989D01*
X00024700Y00028952D01*
X00024712Y00028914D01*
X00024720Y00028875D01*
X00024725Y00028836D01*
X00024725Y00028796D01*
X00024721Y00028756D01*
X00024713Y00028717D01*
X00024701Y00028679D01*
X00024685Y00028642D01*
X00024648Y00028567D01*
X00024638Y00028547D01*
X00024626Y00028528D01*
X00024614Y00028510D01*
X00024601Y00028493D01*
X00024587Y00028476D01*
X00024571Y00028460D01*
X00024555Y00028445D01*
X00024539Y00028431D01*
X00024521Y00028418D01*
X00024503Y00028406D01*
X00024484Y00028395D01*
X00024464Y00028385D01*
X00024444Y00028376D01*
X00024424Y00028368D01*
X00024403Y00028361D01*
X00024381Y00028356D01*
X00024360Y00028351D01*
X00024338Y00028348D01*
X00024316Y00028347D01*
X00024294Y00028346D01*
X00015469Y00028346D01*
X00015447Y00028347D01*
X00015425Y00028348D01*
X00015403Y00028351D01*
X00015381Y00028356D01*
X00015360Y00028361D01*
X00015339Y00028368D01*
X00015318Y00028376D01*
X00015298Y00028385D01*
X00015279Y00028395D01*
X00015260Y00028406D01*
X00015241Y00028418D01*
X00015224Y00028431D01*
X00015207Y00028445D01*
X00015191Y00028460D01*
X00015176Y00028476D01*
X00015162Y00028493D01*
X00015148Y00028511D01*
X00015136Y00028529D01*
X00015125Y00028548D01*
X00015115Y00028567D01*
X00015078Y00028642D01*
X00015063Y00028679D01*
X00015051Y00028717D01*
X00015043Y00028756D01*
X00015039Y00028795D01*
X00015039Y00028835D01*
X00015043Y00028875D01*
X00015051Y00028914D01*
X00015063Y00028952D01*
X00015079Y00028988D01*
X00015098Y00029023D01*
X00015121Y00029056D01*
X00015147Y00029086D01*
X00015176Y00029113D01*
X00015208Y00029138D01*
X00015241Y00029159D01*
X00015277Y00029176D01*
X00015314Y00029190D01*
X00015353Y00029200D01*
X00015392Y00029206D01*
X00015432Y00029208D01*
X00024331Y00029209D01*
M02*