G04 #@! TF.FileFunction,Copper,L2,Bot,Signal*
%FSLAX46Y46*%
G04 Gerber Fmt 4.6, Leading zero omitted, Abs format (unit mm)*
G04 Created by KiCad (PCBNEW (2016-07-22 BZR 6991, Git 146a78a)-product) date 08/19/16 17:42:04*
%MOMM*%
%LPD*%
G01*
G04 APERTURE LIST*
%ADD10C,0.150000*%
%ADD11C,0.800000*%
%ADD12C,0.254000*%
G04 APERTURE END LIST*
D10*
D11*
X61985000Y-12345802D03*
X62500802Y-10420802D03*
X63910000Y-9011604D03*
X65835000Y-8495802D03*
X67760000Y-9011604D03*
X69169198Y-10420802D03*
X69685000Y-12345802D03*
X69169198Y-14270802D03*
X67760000Y-15680000D03*
X65835000Y-16195802D03*
X63910000Y-15680000D03*
X62500802Y-14270802D03*
D12*
G36*
X75779429Y-1158592D02*
X76541926Y-1668077D01*
X77051408Y-2430571D01*
X77233000Y-3343495D01*
X77233000Y-33326505D01*
X77051408Y-34239429D01*
X76541926Y-35001923D01*
X75779429Y-35511408D01*
X74866495Y-35693002D01*
X3883485Y-35702998D01*
X2970571Y-35521408D01*
X2208077Y-35011926D01*
X1698592Y-34249429D01*
X1517000Y-33336505D01*
X1517000Y-32140000D01*
X3708000Y-32140000D01*
X3822333Y-32714791D01*
X4147926Y-33202074D01*
X4635209Y-33527667D01*
X5210000Y-33642000D01*
X5784791Y-33527667D01*
X6272074Y-33202074D01*
X6597667Y-32714791D01*
X6712000Y-32140000D01*
X6597667Y-31565209D01*
X6272074Y-31077926D01*
X5784791Y-30752333D01*
X5210000Y-30638000D01*
X4635209Y-30752333D01*
X4147926Y-31077926D01*
X3822333Y-31565209D01*
X3708000Y-32140000D01*
X1517000Y-32140000D01*
X1517000Y-21900000D01*
X18123000Y-21900000D01*
X18123000Y-28750000D01*
X18126401Y-28767098D01*
X18126401Y-28784531D01*
X18164461Y-28975873D01*
X18164461Y-28975874D01*
X18190890Y-29039679D01*
X18299275Y-29201888D01*
X18348110Y-29250723D01*
X18510321Y-29359110D01*
X18510322Y-29359111D01*
X18547698Y-29374592D01*
X18574126Y-29385539D01*
X18574127Y-29385539D01*
X18765470Y-29423599D01*
X18782902Y-29423599D01*
X18800000Y-29427000D01*
X23350000Y-29427000D01*
X23367098Y-29423599D01*
X23384531Y-29423599D01*
X23575873Y-29385539D01*
X23575874Y-29385539D01*
X23639679Y-29359110D01*
X23801890Y-29250723D01*
X23850725Y-29201888D01*
X23959110Y-29039679D01*
X23959111Y-29039678D01*
X23985539Y-28975873D01*
X24023599Y-28784530D01*
X24023599Y-28767098D01*
X24027000Y-28750000D01*
X24027000Y-23850000D01*
X32023000Y-23850000D01*
X32023000Y-27050000D01*
X32026401Y-27067098D01*
X32026401Y-27084531D01*
X32064461Y-27275873D01*
X32064461Y-27275874D01*
X32090890Y-27339679D01*
X32199275Y-27501888D01*
X32248110Y-27550723D01*
X32410321Y-27659110D01*
X32410322Y-27659111D01*
X32447698Y-27674592D01*
X32474126Y-27685539D01*
X32474127Y-27685539D01*
X32665470Y-27723599D01*
X32682902Y-27723599D01*
X32700000Y-27727000D01*
X32973000Y-27727000D01*
X32973000Y-31750000D01*
X32976401Y-31767098D01*
X32976401Y-31784531D01*
X33014461Y-31975873D01*
X33014461Y-31975874D01*
X33040890Y-32039679D01*
X33149275Y-32201888D01*
X33198110Y-32250723D01*
X33360321Y-32359110D01*
X33360322Y-32359111D01*
X33397698Y-32374592D01*
X33424126Y-32385539D01*
X33424127Y-32385539D01*
X33615470Y-32423599D01*
X33632902Y-32423599D01*
X33650000Y-32427000D01*
X45200000Y-32427000D01*
X45217098Y-32423599D01*
X45234531Y-32423599D01*
X45425873Y-32385539D01*
X45425874Y-32385539D01*
X45489679Y-32359110D01*
X45651890Y-32250723D01*
X45700725Y-32201888D01*
X45768804Y-32100000D01*
X71788000Y-32100000D01*
X71902333Y-32674791D01*
X72227926Y-33162074D01*
X72715209Y-33487667D01*
X73290000Y-33602000D01*
X73864791Y-33487667D01*
X74352074Y-33162074D01*
X74677667Y-32674791D01*
X74792000Y-32100000D01*
X74677667Y-31525209D01*
X74352074Y-31037926D01*
X73864791Y-30712333D01*
X73290000Y-30598000D01*
X72715209Y-30712333D01*
X72227926Y-31037926D01*
X71902333Y-31525209D01*
X71788000Y-32100000D01*
X45768804Y-32100000D01*
X45809110Y-32039679D01*
X45809111Y-32039678D01*
X45835539Y-31975873D01*
X45873599Y-31784530D01*
X45873599Y-31767098D01*
X45877000Y-31750000D01*
X45877000Y-27727000D01*
X46000000Y-27727000D01*
X46017098Y-27723599D01*
X46034531Y-27723599D01*
X46225873Y-27685539D01*
X46225874Y-27685539D01*
X46289679Y-27659110D01*
X46451890Y-27550723D01*
X46500725Y-27501888D01*
X46609110Y-27339679D01*
X46609111Y-27339678D01*
X46635539Y-27275873D01*
X46673599Y-27084530D01*
X46673599Y-27067098D01*
X46677000Y-27050000D01*
X46677000Y-23850000D01*
X46673599Y-23832902D01*
X46673599Y-23815470D01*
X46635539Y-23624127D01*
X46609111Y-23560322D01*
X46609110Y-23560321D01*
X46500723Y-23398110D01*
X46451888Y-23349275D01*
X46289679Y-23240890D01*
X46225874Y-23214461D01*
X46225873Y-23214461D01*
X46034531Y-23176401D01*
X46017098Y-23176401D01*
X46000000Y-23173000D01*
X32700000Y-23173000D01*
X32682902Y-23176401D01*
X32665470Y-23176401D01*
X32474127Y-23214461D01*
X32474126Y-23214461D01*
X32449064Y-23224842D01*
X32410322Y-23240889D01*
X32410321Y-23240890D01*
X32248112Y-23349275D01*
X32199277Y-23398110D01*
X32090890Y-23560321D01*
X32090890Y-23560322D01*
X32064461Y-23624127D01*
X32026401Y-23815469D01*
X32026401Y-23832902D01*
X32023000Y-23850000D01*
X24027000Y-23850000D01*
X24027000Y-21900000D01*
X24023599Y-21882902D01*
X24023599Y-21865470D01*
X23985539Y-21674127D01*
X23959111Y-21610322D01*
X23959110Y-21610321D01*
X23850723Y-21448110D01*
X23801888Y-21399275D01*
X23639679Y-21290890D01*
X23575874Y-21264461D01*
X23575873Y-21264461D01*
X23384531Y-21226401D01*
X23367098Y-21226401D01*
X23350000Y-21223000D01*
X18800000Y-21223000D01*
X18782902Y-21226401D01*
X18765470Y-21226401D01*
X18574127Y-21264461D01*
X18574126Y-21264461D01*
X18549064Y-21274842D01*
X18510322Y-21290889D01*
X18510321Y-21290890D01*
X18348112Y-21399275D01*
X18299277Y-21448110D01*
X18190890Y-21610321D01*
X18190890Y-21610322D01*
X18164461Y-21674127D01*
X18126401Y-21865469D01*
X18126401Y-21882902D01*
X18123000Y-21900000D01*
X1517000Y-21900000D01*
X1517000Y-12974821D01*
X62443948Y-12974821D01*
X62459207Y-13052146D01*
X62459208Y-13052147D01*
X62942791Y-14224635D01*
X62942792Y-14224640D01*
X62948618Y-14233387D01*
X62986481Y-14290240D01*
X62986484Y-14290242D01*
X63881946Y-15188418D01*
X63881948Y-15188421D01*
X63908222Y-15206035D01*
X63947415Y-15232309D01*
X63947420Y-15232310D01*
X65118435Y-15719438D01*
X65118439Y-15719441D01*
X65195717Y-15734934D01*
X66464019Y-15736854D01*
X66541344Y-15721595D01*
X66541346Y-15721593D01*
X67713833Y-15238011D01*
X67713838Y-15238010D01*
X67753214Y-15211786D01*
X67779438Y-15194321D01*
X67779440Y-15194318D01*
X68677619Y-14298853D01*
X68677704Y-14298726D01*
X68677836Y-14298638D01*
X68699752Y-14265839D01*
X68721507Y-14233387D01*
X68721538Y-14233233D01*
X68721624Y-14233104D01*
X68729181Y-14195112D01*
X68737001Y-14156108D01*
X68736970Y-14155952D01*
X68737000Y-14155802D01*
X68737000Y-10535807D01*
X68737001Y-10535802D01*
X68721624Y-10458500D01*
X68677836Y-10392966D01*
X67787836Y-9502966D01*
X67754958Y-9480998D01*
X67722585Y-9459296D01*
X67722303Y-9459179D01*
X67722302Y-9459178D01*
X67722301Y-9459178D01*
X66551562Y-8972164D01*
X66551563Y-8972164D01*
X66551561Y-8972163D01*
X66489776Y-8959776D01*
X66474283Y-8956670D01*
X66474282Y-8956670D01*
X65205981Y-8954750D01*
X65128656Y-8970009D01*
X63956167Y-9453593D01*
X63956162Y-9453594D01*
X63890563Y-9497283D01*
X62992381Y-10392750D01*
X62948493Y-10458217D01*
X62948492Y-10458222D01*
X62461363Y-11629239D01*
X62461361Y-11629241D01*
X62445868Y-11706520D01*
X62443948Y-12974821D01*
X1517000Y-12974821D01*
X1517000Y-4590000D01*
X3718000Y-4590000D01*
X3832333Y-5164791D01*
X4157926Y-5652074D01*
X4645209Y-5977667D01*
X5220000Y-6092000D01*
X5794791Y-5977667D01*
X6282074Y-5652074D01*
X6607667Y-5164791D01*
X6722000Y-4590000D01*
X6716033Y-4560000D01*
X71828000Y-4560000D01*
X71942333Y-5134791D01*
X72267926Y-5622074D01*
X72755209Y-5947667D01*
X73330000Y-6062000D01*
X73904791Y-5947667D01*
X74392074Y-5622074D01*
X74717667Y-5134791D01*
X74832000Y-4560000D01*
X74717667Y-3985209D01*
X74392074Y-3497926D01*
X73904791Y-3172333D01*
X73330000Y-3058000D01*
X72755209Y-3172333D01*
X72267926Y-3497926D01*
X71942333Y-3985209D01*
X71828000Y-4560000D01*
X6716033Y-4560000D01*
X6607667Y-4015209D01*
X6282074Y-3527926D01*
X5794791Y-3202333D01*
X5220000Y-3088000D01*
X4645209Y-3202333D01*
X4157926Y-3527926D01*
X3832333Y-4015209D01*
X3718000Y-4590000D01*
X1517000Y-4590000D01*
X1517000Y-3343495D01*
X1698592Y-2430571D01*
X2208077Y-1668074D01*
X2970571Y-1158592D01*
X3883495Y-977000D01*
X74866505Y-977000D01*
X75779429Y-1158592D01*
X75779429Y-1158592D01*
G37*
X75779429Y-1158592D02*
X76541926Y-1668077D01*
X77051408Y-2430571D01*
X77233000Y-3343495D01*
X77233000Y-33326505D01*
X77051408Y-34239429D01*
X76541926Y-35001923D01*
X75779429Y-35511408D01*
X74866495Y-35693002D01*
X3883485Y-35702998D01*
X2970571Y-35521408D01*
X2208077Y-35011926D01*
X1698592Y-34249429D01*
X1517000Y-33336505D01*
X1517000Y-32140000D01*
X3708000Y-32140000D01*
X3822333Y-32714791D01*
X4147926Y-33202074D01*
X4635209Y-33527667D01*
X5210000Y-33642000D01*
X5784791Y-33527667D01*
X6272074Y-33202074D01*
X6597667Y-32714791D01*
X6712000Y-32140000D01*
X6597667Y-31565209D01*
X6272074Y-31077926D01*
X5784791Y-30752333D01*
X5210000Y-30638000D01*
X4635209Y-30752333D01*
X4147926Y-31077926D01*
X3822333Y-31565209D01*
X3708000Y-32140000D01*
X1517000Y-32140000D01*
X1517000Y-21900000D01*
X18123000Y-21900000D01*
X18123000Y-28750000D01*
X18126401Y-28767098D01*
X18126401Y-28784531D01*
X18164461Y-28975873D01*
X18164461Y-28975874D01*
X18190890Y-29039679D01*
X18299275Y-29201888D01*
X18348110Y-29250723D01*
X18510321Y-29359110D01*
X18510322Y-29359111D01*
X18547698Y-29374592D01*
X18574126Y-29385539D01*
X18574127Y-29385539D01*
X18765470Y-29423599D01*
X18782902Y-29423599D01*
X18800000Y-29427000D01*
X23350000Y-29427000D01*
X23367098Y-29423599D01*
X23384531Y-29423599D01*
X23575873Y-29385539D01*
X23575874Y-29385539D01*
X23639679Y-29359110D01*
X23801890Y-29250723D01*
X23850725Y-29201888D01*
X23959110Y-29039679D01*
X23959111Y-29039678D01*
X23985539Y-28975873D01*
X24023599Y-28784530D01*
X24023599Y-28767098D01*
X24027000Y-28750000D01*
X24027000Y-23850000D01*
X32023000Y-23850000D01*
X32023000Y-27050000D01*
X32026401Y-27067098D01*
X32026401Y-27084531D01*
X32064461Y-27275873D01*
X32064461Y-27275874D01*
X32090890Y-27339679D01*
X32199275Y-27501888D01*
X32248110Y-27550723D01*
X32410321Y-27659110D01*
X32410322Y-27659111D01*
X32447698Y-27674592D01*
X32474126Y-27685539D01*
X32474127Y-27685539D01*
X32665470Y-27723599D01*
X32682902Y-27723599D01*
X32700000Y-27727000D01*
X32973000Y-27727000D01*
X32973000Y-31750000D01*
X32976401Y-31767098D01*
X32976401Y-31784531D01*
X33014461Y-31975873D01*
X33014461Y-31975874D01*
X33040890Y-32039679D01*
X33149275Y-32201888D01*
X33198110Y-32250723D01*
X33360321Y-32359110D01*
X33360322Y-32359111D01*
X33397698Y-32374592D01*
X33424126Y-32385539D01*
X33424127Y-32385539D01*
X33615470Y-32423599D01*
X33632902Y-32423599D01*
X33650000Y-32427000D01*
X45200000Y-32427000D01*
X45217098Y-32423599D01*
X45234531Y-32423599D01*
X45425873Y-32385539D01*
X45425874Y-32385539D01*
X45489679Y-32359110D01*
X45651890Y-32250723D01*
X45700725Y-32201888D01*
X45768804Y-32100000D01*
X71788000Y-32100000D01*
X71902333Y-32674791D01*
X72227926Y-33162074D01*
X72715209Y-33487667D01*
X73290000Y-33602000D01*
X73864791Y-33487667D01*
X74352074Y-33162074D01*
X74677667Y-32674791D01*
X74792000Y-32100000D01*
X74677667Y-31525209D01*
X74352074Y-31037926D01*
X73864791Y-30712333D01*
X73290000Y-30598000D01*
X72715209Y-30712333D01*
X72227926Y-31037926D01*
X71902333Y-31525209D01*
X71788000Y-32100000D01*
X45768804Y-32100000D01*
X45809110Y-32039679D01*
X45809111Y-32039678D01*
X45835539Y-31975873D01*
X45873599Y-31784530D01*
X45873599Y-31767098D01*
X45877000Y-31750000D01*
X45877000Y-27727000D01*
X46000000Y-27727000D01*
X46017098Y-27723599D01*
X46034531Y-27723599D01*
X46225873Y-27685539D01*
X46225874Y-27685539D01*
X46289679Y-27659110D01*
X46451890Y-27550723D01*
X46500725Y-27501888D01*
X46609110Y-27339679D01*
X46609111Y-27339678D01*
X46635539Y-27275873D01*
X46673599Y-27084530D01*
X46673599Y-27067098D01*
X46677000Y-27050000D01*
X46677000Y-23850000D01*
X46673599Y-23832902D01*
X46673599Y-23815470D01*
X46635539Y-23624127D01*
X46609111Y-23560322D01*
X46609110Y-23560321D01*
X46500723Y-23398110D01*
X46451888Y-23349275D01*
X46289679Y-23240890D01*
X46225874Y-23214461D01*
X46225873Y-23214461D01*
X46034531Y-23176401D01*
X46017098Y-23176401D01*
X46000000Y-23173000D01*
X32700000Y-23173000D01*
X32682902Y-23176401D01*
X32665470Y-23176401D01*
X32474127Y-23214461D01*
X32474126Y-23214461D01*
X32449064Y-23224842D01*
X32410322Y-23240889D01*
X32410321Y-23240890D01*
X32248112Y-23349275D01*
X32199277Y-23398110D01*
X32090890Y-23560321D01*
X32090890Y-23560322D01*
X32064461Y-23624127D01*
X32026401Y-23815469D01*
X32026401Y-23832902D01*
X32023000Y-23850000D01*
X24027000Y-23850000D01*
X24027000Y-21900000D01*
X24023599Y-21882902D01*
X24023599Y-21865470D01*
X23985539Y-21674127D01*
X23959111Y-21610322D01*
X23959110Y-21610321D01*
X23850723Y-21448110D01*
X23801888Y-21399275D01*
X23639679Y-21290890D01*
X23575874Y-21264461D01*
X23575873Y-21264461D01*
X23384531Y-21226401D01*
X23367098Y-21226401D01*
X23350000Y-21223000D01*
X18800000Y-21223000D01*
X18782902Y-21226401D01*
X18765470Y-21226401D01*
X18574127Y-21264461D01*
X18574126Y-21264461D01*
X18549064Y-21274842D01*
X18510322Y-21290889D01*
X18510321Y-21290890D01*
X18348112Y-21399275D01*
X18299277Y-21448110D01*
X18190890Y-21610321D01*
X18190890Y-21610322D01*
X18164461Y-21674127D01*
X18126401Y-21865469D01*
X18126401Y-21882902D01*
X18123000Y-21900000D01*
X1517000Y-21900000D01*
X1517000Y-12974821D01*
X62443948Y-12974821D01*
X62459207Y-13052146D01*
X62459208Y-13052147D01*
X62942791Y-14224635D01*
X62942792Y-14224640D01*
X62948618Y-14233387D01*
X62986481Y-14290240D01*
X62986484Y-14290242D01*
X63881946Y-15188418D01*
X63881948Y-15188421D01*
X63908222Y-15206035D01*
X63947415Y-15232309D01*
X63947420Y-15232310D01*
X65118435Y-15719438D01*
X65118439Y-15719441D01*
X65195717Y-15734934D01*
X66464019Y-15736854D01*
X66541344Y-15721595D01*
X66541346Y-15721593D01*
X67713833Y-15238011D01*
X67713838Y-15238010D01*
X67753214Y-15211786D01*
X67779438Y-15194321D01*
X67779440Y-15194318D01*
X68677619Y-14298853D01*
X68677704Y-14298726D01*
X68677836Y-14298638D01*
X68699752Y-14265839D01*
X68721507Y-14233387D01*
X68721538Y-14233233D01*
X68721624Y-14233104D01*
X68729181Y-14195112D01*
X68737001Y-14156108D01*
X68736970Y-14155952D01*
X68737000Y-14155802D01*
X68737000Y-10535807D01*
X68737001Y-10535802D01*
X68721624Y-10458500D01*
X68677836Y-10392966D01*
X67787836Y-9502966D01*
X67754958Y-9480998D01*
X67722585Y-9459296D01*
X67722303Y-9459179D01*
X67722302Y-9459178D01*
X67722301Y-9459178D01*
X66551562Y-8972164D01*
X66551563Y-8972164D01*
X66551561Y-8972163D01*
X66489776Y-8959776D01*
X66474283Y-8956670D01*
X66474282Y-8956670D01*
X65205981Y-8954750D01*
X65128656Y-8970009D01*
X63956167Y-9453593D01*
X63956162Y-9453594D01*
X63890563Y-9497283D01*
X62992381Y-10392750D01*
X62948493Y-10458217D01*
X62948492Y-10458222D01*
X62461363Y-11629239D01*
X62461361Y-11629241D01*
X62445868Y-11706520D01*
X62443948Y-12974821D01*
X1517000Y-12974821D01*
X1517000Y-4590000D01*
X3718000Y-4590000D01*
X3832333Y-5164791D01*
X4157926Y-5652074D01*
X4645209Y-5977667D01*
X5220000Y-6092000D01*
X5794791Y-5977667D01*
X6282074Y-5652074D01*
X6607667Y-5164791D01*
X6722000Y-4590000D01*
X6716033Y-4560000D01*
X71828000Y-4560000D01*
X71942333Y-5134791D01*
X72267926Y-5622074D01*
X72755209Y-5947667D01*
X73330000Y-6062000D01*
X73904791Y-5947667D01*
X74392074Y-5622074D01*
X74717667Y-5134791D01*
X74832000Y-4560000D01*
X74717667Y-3985209D01*
X74392074Y-3497926D01*
X73904791Y-3172333D01*
X73330000Y-3058000D01*
X72755209Y-3172333D01*
X72267926Y-3497926D01*
X71942333Y-3985209D01*
X71828000Y-4560000D01*
X6716033Y-4560000D01*
X6607667Y-4015209D01*
X6282074Y-3527926D01*
X5794791Y-3202333D01*
X5220000Y-3088000D01*
X4645209Y-3202333D01*
X4157926Y-3527926D01*
X3832333Y-4015209D01*
X3718000Y-4590000D01*
X1517000Y-4590000D01*
X1517000Y-3343495D01*
X1698592Y-2430571D01*
X2208077Y-1668074D01*
X2970571Y-1158592D01*
X3883495Y-977000D01*
X74866505Y-977000D01*
X75779429Y-1158592D01*
M02*
