%MOIN*%
%OFA0B0*%
%FSLAX46Y46*%
%IPPOS*%
%LPD*%
%ADD10C,0.005905511811023622*%
%ADD11C,0.031496062992125991*%
%ADD12C,0.047244094488188976*%
%ADD13C,0.023622047244094488*%
%ADD14C,0.01*%
%ADD25C,0.005905511811023622*%
%ADD26C,0.20472440944881892*%
%ADD27C,0.01*%
%ADD38C,0.005905511811023622*%
%ADD39C,0.20472440944881892*%
%ADD40C,0.01*%
%ADD51C,0.005905511811023622*%
%ADD52C,0.20472440944881892*%
%ADD53C,0.01*%
%ADD64C,0.005905511811023622*%
%ADD65C,0.20472440944881892*%
%ADD66C,0.01*%
%ADD77C,0.005905511811023622*%
%ADD78C,0.01*%
%ADD89C,0.005905511811023622*%
%ADD90C,0.01*%
%ADD101C,0.005905511811023622*%
%ADD102C,0.031496062992125991*%
%ADD103C,0.01*%
%ADD114C,0.005905511811023622*%
%ADD115C,0.031496062992125991*%
%ADD116C,0.01*%
%LPD*%
G01G01G01G01G01G01G01G01*
D10*
D11*
X0000000000Y0004330708D02*
X0002008852Y0003850810D03*
X0002029159Y0003926597D03*
X0002084639Y0003982076D03*
X0002160427Y0004002384D03*
X0002236214Y0003982076D03*
X0002291694Y0003926597D03*
X0002292317Y0003850810D03*
X0002291694Y0003775022D03*
X0002236214Y0003719542D03*
X0002160427Y0003699235D03*
X0002084639Y0003719542D03*
X0002029159Y0003775022D03*
X0002462230Y0003775022D03*
X0002517710Y0003719542D03*
X0002593497Y0003699235D03*
X0002669285Y0003719542D03*
X0002724765Y0003775022D03*
X0002725387Y0003850810D03*
X0002724765Y0003926597D03*
X0002669285Y0003982076D03*
X0002593497Y0004002384D03*
X0002517710Y0003982076D03*
X0002462230Y0003926597D03*
X0002441923Y0003850810D03*
D10*
G36*
X0001255575Y0003248653D02*
X0001256034Y0003248585D01*
X0001256483Y0003248472D01*
X0001256920Y0003248316D01*
X0001257339Y0003248118D01*
X0001257737Y0003247880D01*
X0001258109Y0003247602D01*
X0001258453Y0003247292D01*
X0001258764Y0003246949D01*
X0001259040Y0003246576D01*
X0001259278Y0003246179D01*
X0001259477Y0003245759D01*
X0001259633Y0003245323D01*
X0001259745Y0003244872D01*
X0001259814Y0003244415D01*
X0001259836Y0003243950D01*
X0001259836Y0003206156D01*
X0001259814Y0003205693D01*
X0001259745Y0003205235D01*
X0001259633Y0003204785D01*
X0001259477Y0003204347D01*
X0001259278Y0003203929D01*
X0001259040Y0003203531D01*
X0001258764Y0003203159D01*
X0001258453Y0003202816D01*
X0001258109Y0003202504D01*
X0001257737Y0003202228D01*
X0001257339Y0003201990D01*
X0001256920Y0003201790D01*
X0001256483Y0003201635D01*
X0001256034Y0003201523D01*
X0001255575Y0003201455D01*
X0001255112Y0003201432D01*
X0001217317Y0003201432D01*
X0001216854Y0003201455D01*
X0001216395Y0003201523D01*
X0001215945Y0003201635D01*
X0001215509Y0003201790D01*
X0001215090Y0003201990D01*
X0001214692Y0003202228D01*
X0001214319Y0003202504D01*
X0001213976Y0003202816D01*
X0001213665Y0003203159D01*
X0001213388Y0003203531D01*
X0001213150Y0003203929D01*
X0001212952Y0003204347D01*
X0001212796Y0003204785D01*
X0001212683Y0003205235D01*
X0001212615Y0003205693D01*
X0001212592Y0003206156D01*
X0001212592Y0003243950D01*
X0001212615Y0003244415D01*
X0001212683Y0003244872D01*
X0001212796Y0003245323D01*
X0001212952Y0003245759D01*
X0001213150Y0003246179D01*
X0001213388Y0003246576D01*
X0001213665Y0003246949D01*
X0001213976Y0003247292D01*
X0001214319Y0003247602D01*
X0001214692Y0003247880D01*
X0001215090Y0003248118D01*
X0001215509Y0003248316D01*
X0001215945Y0003248472D01*
X0001216395Y0003248585D01*
X0001216854Y0003248653D01*
X0001217317Y0003248676D01*
X0001255112Y0003248676D01*
X0001255575Y0003248653D01*
X0001255575Y0003248653D01*
G37*
D12*
X0001236214Y0003225053D03*
D10*
G36*
X0001779591Y0003249047D02*
X0001780049Y0003248979D01*
X0001780499Y0003248866D01*
X0001780936Y0003248710D01*
X0001781355Y0003248512D01*
X0001781752Y0003248273D01*
X0001782125Y0003247997D01*
X0001782468Y0003247686D01*
X0001782780Y0003247342D01*
X0001783056Y0003246970D01*
X0001783294Y0003246572D01*
X0001783492Y0003246153D01*
X0001783649Y0003245717D01*
X0001783759Y0003245267D01*
X0001783829Y0003244808D01*
X0001783852Y0003244345D01*
X0001783852Y0003206550D01*
X0001783829Y0003206087D01*
X0001783759Y0003205628D01*
X0001783649Y0003205178D01*
X0001783492Y0003204742D01*
X0001783294Y0003204323D01*
X0001783056Y0003203925D01*
X0001782780Y0003203553D01*
X0001782468Y0003203208D01*
X0001782125Y0003202898D01*
X0001781752Y0003202622D01*
X0001781355Y0003202382D01*
X0001780936Y0003202185D01*
X0001780499Y0003202029D01*
X0001780049Y0003201916D01*
X0001779591Y0003201848D01*
X0001779128Y0003201825D01*
X0001741331Y0003201825D01*
X0001740869Y0003201848D01*
X0001740411Y0003201916D01*
X0001739960Y0003202029D01*
X0001739524Y0003202185D01*
X0001739105Y0003202382D01*
X0001738708Y0003202622D01*
X0001738335Y0003202898D01*
X0001737990Y0003203208D01*
X0001737680Y0003203553D01*
X0001737404Y0003203925D01*
X0001737166Y0003204323D01*
X0001736968Y0003204742D01*
X0001736811Y0003205178D01*
X0001736699Y0003205628D01*
X0001736631Y0003206087D01*
X0001736608Y0003206550D01*
X0001736608Y0003244345D01*
X0001736631Y0003244808D01*
X0001736699Y0003245267D01*
X0001736811Y0003245717D01*
X0001736968Y0003246153D01*
X0001737166Y0003246572D01*
X0001737404Y0003246970D01*
X0001737680Y0003247342D01*
X0001737990Y0003247686D01*
X0001738335Y0003247997D01*
X0001738708Y0003248273D01*
X0001739105Y0003248512D01*
X0001739524Y0003248710D01*
X0001739960Y0003248866D01*
X0001740411Y0003248979D01*
X0001740869Y0003249047D01*
X0001741331Y0003249070D01*
X0001779128Y0003249070D01*
X0001779591Y0003249047D01*
X0001779591Y0003249047D01*
G37*
D12*
X0001760230Y0003225448D03*
D10*
G36*
X0001540383Y0003066775D02*
X0001540612Y0003066741D01*
X0001540837Y0003066683D01*
X0001541055Y0003066606D01*
X0001541265Y0003066507D01*
X0001541462Y0003066388D01*
X0001541648Y0003066250D01*
X0001541822Y0003066094D01*
X0001541977Y0003065922D01*
X0001542115Y0003065736D01*
X0001542234Y0003065537D01*
X0001542334Y0003065328D01*
X0001542412Y0003065110D01*
X0001542468Y0003064885D01*
X0001542502Y0003064655D01*
X0001542513Y0003064424D01*
X0001542513Y0003045526D01*
X0001542502Y0003045294D01*
X0001542468Y0003045065D01*
X0001542412Y0003044841D01*
X0001542334Y0003044622D01*
X0001542234Y0003044413D01*
X0001542115Y0003044214D01*
X0001541977Y0003044028D01*
X0001541822Y0003043856D01*
X0001541648Y0003043700D01*
X0001541462Y0003043562D01*
X0001541265Y0003043443D01*
X0001541055Y0003043344D01*
X0001540837Y0003043266D01*
X0001540612Y0003043209D01*
X0001540383Y0003043175D01*
X0001540151Y0003043164D01*
X0001458261Y0003043164D01*
X0001458030Y0003043175D01*
X0001457799Y0003043209D01*
X0001457576Y0003043266D01*
X0001457357Y0003043344D01*
X0001457148Y0003043443D01*
X0001456949Y0003043562D01*
X0001456763Y0003043700D01*
X0001456591Y0003043856D01*
X0001456435Y0003044028D01*
X0001456297Y0003044214D01*
X0001456178Y0003044413D01*
X0001456079Y0003044622D01*
X0001456001Y0003044841D01*
X0001455945Y0003045065D01*
X0001455911Y0003045294D01*
X0001455899Y0003045526D01*
X0001455899Y0003064424D01*
X0001455911Y0003064655D01*
X0001455945Y0003064885D01*
X0001456001Y0003065110D01*
X0001456079Y0003065328D01*
X0001456178Y0003065537D01*
X0001456297Y0003065736D01*
X0001456435Y0003065922D01*
X0001456591Y0003066094D01*
X0001456763Y0003066250D01*
X0001456949Y0003066388D01*
X0001457148Y0003066507D01*
X0001457357Y0003066606D01*
X0001457576Y0003066683D01*
X0001457799Y0003066741D01*
X0001458030Y0003066775D01*
X0001458261Y0003066786D01*
X0001540151Y0003066786D01*
X0001540383Y0003066775D01*
X0001540383Y0003066775D01*
G37*
D13*
X0001499206Y0003054975D03*
D10*
G36*
X0001216205Y0003362351D02*
X0001216663Y0003362283D01*
X0001217113Y0003362170D01*
X0001217550Y0003362014D01*
X0001217969Y0003361816D01*
X0001218367Y0003361577D01*
X0001218739Y0003361301D01*
X0001219082Y0003360990D01*
X0001219394Y0003360646D01*
X0001219670Y0003360274D01*
X0001219908Y0003359876D01*
X0001220107Y0003359457D01*
X0001220263Y0003359020D01*
X0001220375Y0003358571D01*
X0001220443Y0003358112D01*
X0001220466Y0003357649D01*
X0001220466Y0003280484D01*
X0001220443Y0003280021D01*
X0001220375Y0003279562D01*
X0001220263Y0003279112D01*
X0001220107Y0003278676D01*
X0001219908Y0003278256D01*
X0001219670Y0003277859D01*
X0001219394Y0003277486D01*
X0001219082Y0003277143D01*
X0001218739Y0003276832D01*
X0001218367Y0003276555D01*
X0001217969Y0003276317D01*
X0001217550Y0003276119D01*
X0001217113Y0003275963D01*
X0001216663Y0003275850D01*
X0001216205Y0003275782D01*
X0001215742Y0003275759D01*
X0001177947Y0003275759D01*
X0001177483Y0003275782D01*
X0001177025Y0003275850D01*
X0001176575Y0003275963D01*
X0001176139Y0003276119D01*
X0001175719Y0003276317D01*
X0001175322Y0003276555D01*
X0001174949Y0003276832D01*
X0001174606Y0003277143D01*
X0001174295Y0003277486D01*
X0001174018Y0003277859D01*
X0001173780Y0003278256D01*
X0001173582Y0003278676D01*
X0001173426Y0003279112D01*
X0001173313Y0003279562D01*
X0001173245Y0003280021D01*
X0001173222Y0003280484D01*
X0001173222Y0003357649D01*
X0001173245Y0003358112D01*
X0001173313Y0003358571D01*
X0001173426Y0003359020D01*
X0001173582Y0003359457D01*
X0001173780Y0003359876D01*
X0001174018Y0003360274D01*
X0001174295Y0003360646D01*
X0001174606Y0003360990D01*
X0001174949Y0003361301D01*
X0001175322Y0003361577D01*
X0001175719Y0003361816D01*
X0001176139Y0003362014D01*
X0001176575Y0003362170D01*
X0001177025Y0003362283D01*
X0001177483Y0003362351D01*
X0001177947Y0003362373D01*
X0001215742Y0003362373D01*
X0001216205Y0003362351D01*
X0001216205Y0003362351D01*
G37*
D12*
X0001196844Y0003319066D03*
D10*
G36*
X0001804788Y0003362547D02*
X0001805246Y0003362479D01*
X0001805696Y0003362367D01*
X0001806132Y0003362211D01*
X0001806552Y0003362012D01*
X0001806949Y0003361774D01*
X0001807322Y0003361498D01*
X0001807665Y0003361186D01*
X0001807976Y0003360843D01*
X0001808253Y0003360470D01*
X0001808491Y0003360073D01*
X0001808689Y0003359654D01*
X0001808845Y0003359217D01*
X0001808958Y0003358767D01*
X0001809026Y0003358309D01*
X0001809048Y0003357846D01*
X0001809048Y0003280680D01*
X0001809026Y0003280217D01*
X0001808958Y0003279758D01*
X0001808845Y0003279309D01*
X0001808689Y0003278872D01*
X0001808491Y0003278453D01*
X0001808253Y0003278056D01*
X0001807976Y0003277683D01*
X0001807665Y0003277339D01*
X0001807322Y0003277028D01*
X0001806949Y0003276752D01*
X0001806552Y0003276514D01*
X0001806132Y0003276316D01*
X0001805696Y0003276159D01*
X0001805246Y0003276047D01*
X0001804788Y0003275979D01*
X0001804324Y0003275956D01*
X0001766529Y0003275956D01*
X0001766066Y0003275979D01*
X0001765607Y0003276047D01*
X0001765158Y0003276159D01*
X0001764721Y0003276316D01*
X0001764302Y0003276514D01*
X0001763904Y0003276752D01*
X0001763532Y0003277028D01*
X0001763189Y0003277339D01*
X0001762877Y0003277683D01*
X0001762601Y0003278056D01*
X0001762363Y0003278453D01*
X0001762163Y0003278872D01*
X0001762008Y0003279309D01*
X0001761895Y0003279758D01*
X0001761828Y0003280217D01*
X0001761805Y0003280680D01*
X0001761805Y0003357846D01*
X0001761828Y0003358309D01*
X0001761895Y0003358767D01*
X0001762008Y0003359217D01*
X0001762163Y0003359654D01*
X0001762363Y0003360073D01*
X0001762601Y0003360470D01*
X0001762877Y0003360843D01*
X0001763189Y0003361186D01*
X0001763532Y0003361498D01*
X0001763904Y0003361774D01*
X0001764302Y0003362012D01*
X0001764721Y0003362211D01*
X0001765158Y0003362367D01*
X0001765607Y0003362479D01*
X0001766066Y0003362547D01*
X0001766529Y0003362570D01*
X0001804324Y0003362570D01*
X0001804788Y0003362547D01*
X0001804788Y0003362547D01*
G37*
D12*
X0001785426Y0003319263D03*
D14*
G36*
X0002941596Y0004287519D02*
X0002965356Y0004271643D01*
X0002981233Y0004247882D01*
X0002986914Y0004219322D01*
X0002986914Y0003916447D01*
X0002986328Y0003913501D01*
X0002984960Y0003911454D01*
X0002982912Y0003910085D01*
X0002979965Y0003909499D01*
X0002953331Y0003909499D01*
X0002951267Y0003909089D01*
X0002949517Y0003907919D01*
X0002948347Y0003906169D01*
X0002947938Y0003904106D01*
X0002947938Y0003319854D01*
X0002948347Y0003317789D01*
X0002949517Y0003316039D01*
X0002951267Y0003314871D01*
X0002953331Y0003314460D01*
X0002979965Y0003314460D01*
X0002982912Y0003313874D01*
X0002984960Y0003312506D01*
X0002986328Y0003310458D01*
X0002986914Y0003307511D01*
X0002986914Y0003019598D01*
X0002979765Y0002983656D01*
X0002959706Y0002953636D01*
X0002929687Y0002933578D01*
X0002893744Y0002926428D01*
X0000079845Y0002926034D01*
X0000051287Y0002931716D01*
X0000027526Y0002947592D01*
X0000011650Y0002971353D01*
X0000005969Y0002999913D01*
X0000005969Y0003076743D01*
X0000095379Y0003076743D01*
X0000099985Y0003053587D01*
X0000113102Y0003033955D01*
X0000132733Y0003020838D01*
X0000155890Y0003016232D01*
X0000179047Y0003020838D01*
X0000198679Y0003033955D01*
X0000207995Y0003047898D01*
X0001431214Y0003047898D01*
X0001431214Y0003038254D01*
X0001434972Y0003029181D01*
X0001441916Y0003022237D01*
X0001450989Y0003018479D01*
X0001492130Y0003018479D01*
X0001498301Y0003024649D01*
X0001498301Y0003054070D01*
X0001500112Y0003054070D01*
X0001500112Y0003024649D01*
X0001506283Y0003018479D01*
X0001547424Y0003018479D01*
X0001556496Y0003022237D01*
X0001563440Y0003029181D01*
X0001567198Y0003038254D01*
X0001567198Y0003047898D01*
X0001561027Y0003054070D01*
X0001500112Y0003054070D01*
X0001498301Y0003054070D01*
X0001437385Y0003054070D01*
X0001431214Y0003047898D01*
X0000207995Y0003047898D01*
X0000211796Y0003053587D01*
X0000216402Y0003076743D01*
X0000211796Y0003099900D01*
X0000198679Y0003119532D01*
X0000179047Y0003132649D01*
X0000155890Y0003137255D01*
X0000132733Y0003132649D01*
X0000113102Y0003119532D01*
X0000099985Y0003099900D01*
X0000095379Y0003076743D01*
X0000005969Y0003076743D01*
X0000005969Y0003303573D01*
X0000006555Y0003306521D01*
X0000007922Y0003308569D01*
X0000009971Y0003309937D01*
X0000012918Y0003310523D01*
X0000039552Y0003310523D01*
X0000041616Y0003310934D01*
X0000043366Y0003312103D01*
X0000044535Y0003313853D01*
X0000044945Y0003315917D01*
X0000044945Y0003454975D01*
X0000666253Y0003454975D01*
X0000666253Y0003191196D01*
X0000666387Y0003190522D01*
X0000666387Y0003189836D01*
X0000667886Y0003182303D01*
X0000667886Y0003182303D01*
X0000668926Y0003179790D01*
X0000673194Y0003173405D01*
X0000675115Y0003171482D01*
X0000681501Y0003167215D01*
X0000681501Y0003167215D01*
X0000682974Y0003166605D01*
X0000684014Y0003166174D01*
X0000684015Y0003166174D01*
X0000691548Y0003164676D01*
X0000692234Y0003164676D01*
X0000692907Y0003164542D01*
X0000864167Y0003164542D01*
X0000864840Y0003164676D01*
X0000865526Y0003164676D01*
X0000873060Y0003166174D01*
X0000873060Y0003166174D01*
X0000875572Y0003167215D01*
X0000881958Y0003171482D01*
X0000883881Y0003173405D01*
X0000888148Y0003179790D01*
X0000888148Y0003179790D01*
X0000889188Y0003182303D01*
X0000890687Y0003189836D01*
X0000890687Y0003190522D01*
X0000890821Y0003191196D01*
X0000890821Y0003216008D01*
X0001195781Y0003216008D01*
X0001195781Y0003198088D01*
X0001198340Y0003191909D01*
X0001203070Y0003187179D01*
X0001209248Y0003184621D01*
X0001227169Y0003184621D01*
X0001231372Y0003188824D01*
X0001231372Y0003220211D01*
X0001199984Y0003220211D01*
X0001195781Y0003216008D01*
X0000890821Y0003216008D01*
X0000890821Y0003308052D01*
X0001148537Y0003308052D01*
X0001148537Y0003270849D01*
X0001152295Y0003261776D01*
X0001159239Y0003254832D01*
X0001168312Y0003251074D01*
X0001185830Y0003251074D01*
X0001192002Y0003257244D01*
X0001192002Y0003251074D01*
X0001195781Y0003251074D01*
X0001195781Y0003234098D01*
X0001199984Y0003229896D01*
X0001231372Y0003229896D01*
X0001231372Y0003230684D01*
X0001241057Y0003230684D01*
X0001241057Y0003229896D01*
X0001241844Y0003229896D01*
X0001241844Y0003220211D01*
X0001241057Y0003220211D01*
X0001241057Y0003188824D01*
X0001245260Y0003184621D01*
X0001250899Y0003184621D01*
X0001250899Y0003084895D01*
X0001251033Y0003084223D01*
X0001251033Y0003083537D01*
X0001252532Y0003076004D01*
X0001252532Y0003076004D01*
X0001253572Y0003073492D01*
X0001257839Y0003067105D01*
X0001259762Y0003065183D01*
X0001266148Y0003060916D01*
X0001266148Y0003060916D01*
X0001267620Y0003060306D01*
X0001268660Y0003059875D01*
X0001268660Y0003059875D01*
X0001276193Y0003058377D01*
X0001276880Y0003058377D01*
X0001277553Y0003058243D01*
X0001435023Y0003058243D01*
X0001437385Y0003055881D01*
X0001498301Y0003055881D01*
X0001498301Y0003056668D01*
X0001500112Y0003056668D01*
X0001500112Y0003055881D01*
X0001561027Y0003055881D01*
X0001563389Y0003058243D01*
X0001718498Y0003058243D01*
X0001719171Y0003058377D01*
X0001719857Y0003058377D01*
X0001727389Y0003059875D01*
X0001727389Y0003059875D01*
X0001729902Y0003060916D01*
X0001736289Y0003065183D01*
X0001738211Y0003067105D01*
X0001742478Y0003073492D01*
X0001742478Y0003073492D01*
X0001743088Y0003074963D01*
X0001743418Y0003075759D01*
X0002771560Y0003075759D01*
X0002776166Y0003052602D01*
X0002789283Y0003032971D01*
X0002808915Y0003019853D01*
X0002832071Y0003015247D01*
X0002855227Y0003019853D01*
X0002874859Y0003032971D01*
X0002887977Y0003052602D01*
X0002892583Y0003075759D01*
X0002887977Y0003098916D01*
X0002874859Y0003118547D01*
X0002855227Y0003131664D01*
X0002832071Y0003136271D01*
X0002808915Y0003131664D01*
X0002789283Y0003118547D01*
X0002776166Y0003098916D01*
X0002771560Y0003075759D01*
X0001743418Y0003075759D01*
X0001743519Y0003076004D01*
X0001743519Y0003076004D01*
X0001745017Y0003083537D01*
X0001745017Y0003084223D01*
X0001745151Y0003084895D01*
X0001745151Y0003185014D01*
X0001751185Y0003185014D01*
X0001755387Y0003189217D01*
X0001755387Y0003220605D01*
X0001765072Y0003220605D01*
X0001765072Y0003189217D01*
X0001769275Y0003185014D01*
X0001787196Y0003185014D01*
X0001793375Y0003187574D01*
X0001798104Y0003192303D01*
X0001800663Y0003198482D01*
X0001800663Y0003216402D01*
X0001796460Y0003220605D01*
X0001765072Y0003220605D01*
X0001755387Y0003220605D01*
X0001754600Y0003220605D01*
X0001754600Y0003230289D01*
X0001755387Y0003230289D01*
X0001755387Y0003231077D01*
X0001765072Y0003231077D01*
X0001765072Y0003230289D01*
X0001796460Y0003230289D01*
X0001800663Y0003234493D01*
X0001800663Y0003251271D01*
X0001813959Y0003251271D01*
X0001823032Y0003255029D01*
X0001829975Y0003261972D01*
X0001833734Y0003271046D01*
X0001833734Y0003293558D01*
X0001977687Y0003293558D01*
X0001977687Y0003262061D01*
X0001978067Y0003260148D01*
X0001979150Y0003258526D01*
X0001980773Y0003257442D01*
X0001982687Y0003257062D01*
X0002014183Y0003257062D01*
X0002016096Y0003257442D01*
X0002017718Y0003258526D01*
X0002018802Y0003260148D01*
X0002019183Y0003262061D01*
X0002019183Y0003293558D01*
X0002160324Y0003293558D01*
X0002160324Y0003262061D01*
X0002160705Y0003260148D01*
X0002161789Y0003258526D01*
X0002163411Y0003257442D01*
X0002165324Y0003257062D01*
X0002196820Y0003257062D01*
X0002198734Y0003257442D01*
X0002200356Y0003258526D01*
X0002201440Y0003260148D01*
X0002201820Y0003262061D01*
X0002201820Y0003293558D01*
X0002201440Y0003295471D01*
X0002200356Y0003297093D01*
X0002198734Y0003298177D01*
X0002196820Y0003298557D01*
X0002165324Y0003298557D01*
X0002163411Y0003298177D01*
X0002161789Y0003297093D01*
X0002160705Y0003295471D01*
X0002160324Y0003293558D01*
X0002019183Y0003293558D01*
X0002018802Y0003295471D01*
X0002017718Y0003297093D01*
X0002016096Y0003298177D01*
X0002014183Y0003298557D01*
X0001982687Y0003298557D01*
X0001980773Y0003298177D01*
X0001979150Y0003297093D01*
X0001978067Y0003295471D01*
X0001977687Y0003293558D01*
X0001833734Y0003293558D01*
X0001833734Y0003308249D01*
X0001827563Y0003314421D01*
X0001790269Y0003314421D01*
X0001790269Y0003313633D01*
X0001780584Y0003313633D01*
X0001780584Y0003314421D01*
X0001779797Y0003314421D01*
X0001779797Y0003324106D01*
X0001780584Y0003324106D01*
X0001780584Y0003381083D01*
X0001790269Y0003381083D01*
X0001790269Y0003324106D01*
X0001827563Y0003324106D01*
X0001833734Y0003330277D01*
X0001833734Y0003367480D01*
X0001829975Y0003376553D01*
X0001823032Y0003383497D01*
X0001813959Y0003387255D01*
X0001796441Y0003387255D01*
X0001790269Y0003381083D01*
X0001780584Y0003381083D01*
X0001777093Y0003384575D01*
X0001776983Y0003385128D01*
X0001775943Y0003387640D01*
X0001775943Y0003387640D01*
X0001771676Y0003394026D01*
X0001769753Y0003395949D01*
X0001763367Y0003400216D01*
X0001760854Y0003401256D01*
X0001760854Y0003401256D01*
X0001753322Y0003402755D01*
X0001752635Y0003402755D01*
X0001751960Y0003402888D01*
X0001238183Y0003402888D01*
X0001237510Y0003402755D01*
X0001236823Y0003402755D01*
X0001229290Y0003401256D01*
X0001229290Y0003401256D01*
X0001228303Y0003400846D01*
X0001226778Y0003400216D01*
X0001226778Y0003400216D01*
X0001220392Y0003395949D01*
X0001218469Y0003394026D01*
X0001214202Y0003387640D01*
X0001214202Y0003387640D01*
X0001213961Y0003387058D01*
X0001207858Y0003387058D01*
X0001201687Y0003380887D01*
X0001201687Y0003323909D01*
X0001202474Y0003323909D01*
X0001202474Y0003314223D01*
X0001201687Y0003314223D01*
X0001201687Y0003313436D01*
X0001192002Y0003313436D01*
X0001192002Y0003314223D01*
X0001154708Y0003314223D01*
X0001148537Y0003308052D01*
X0000890821Y0003308052D01*
X0000890821Y0003367284D01*
X0001148537Y0003367284D01*
X0001148537Y0003330079D01*
X0001154708Y0003323909D01*
X0001192002Y0003323909D01*
X0001192002Y0003380887D01*
X0001185830Y0003387058D01*
X0001168312Y0003387058D01*
X0001159239Y0003383300D01*
X0001152295Y0003376356D01*
X0001148537Y0003367284D01*
X0000890821Y0003367284D01*
X0000890821Y0003454975D01*
X0000890687Y0003455647D01*
X0000890687Y0003456335D01*
X0000889188Y0003463868D01*
X0000888148Y0003466379D01*
X0000888148Y0003466379D01*
X0000883880Y0003472766D01*
X0000881958Y0003474689D01*
X0000875572Y0003478956D01*
X0000873060Y0003479996D01*
X0000873060Y0003479996D01*
X0000865526Y0003481495D01*
X0000864840Y0003481495D01*
X0000864167Y0003481629D01*
X0000692907Y0003481629D01*
X0000692234Y0003481495D01*
X0000691548Y0003481495D01*
X0000684015Y0003479996D01*
X0000684014Y0003479996D01*
X0000683028Y0003479588D01*
X0000681501Y0003478956D01*
X0000681501Y0003478956D01*
X0000675115Y0003474689D01*
X0000673194Y0003472766D01*
X0000668926Y0003466379D01*
X0000668926Y0003466379D01*
X0000667886Y0003463868D01*
X0000666387Y0003456335D01*
X0000666387Y0003455647D01*
X0000666253Y0003454975D01*
X0000044945Y0003454975D01*
X0000044945Y0003494345D01*
X0001977253Y0003494345D01*
X0001977253Y0003462849D01*
X0001977634Y0003460936D01*
X0001978716Y0003459314D01*
X0001980340Y0003458230D01*
X0001982253Y0003457849D01*
X0002013748Y0003457849D01*
X0002015663Y0003458230D01*
X0002017285Y0003459314D01*
X0002018368Y0003460936D01*
X0002018749Y0003462849D01*
X0002018749Y0003494345D01*
X0002160324Y0003494345D01*
X0002160324Y0003462849D01*
X0002160705Y0003460936D01*
X0002161789Y0003459314D01*
X0002163411Y0003458230D01*
X0002165324Y0003457849D01*
X0002196820Y0003457849D01*
X0002198734Y0003458230D01*
X0002200356Y0003459314D01*
X0002201440Y0003460936D01*
X0002201820Y0003462849D01*
X0002201820Y0003494345D01*
X0002201440Y0003496259D01*
X0002200356Y0003497881D01*
X0002198734Y0003498965D01*
X0002196820Y0003499345D01*
X0002165324Y0003499345D01*
X0002163411Y0003498965D01*
X0002161789Y0003497881D01*
X0002160705Y0003496259D01*
X0002160324Y0003494345D01*
X0002018749Y0003494345D01*
X0002018368Y0003496259D01*
X0002017285Y0003497881D01*
X0002015663Y0003498965D01*
X0002013748Y0003499345D01*
X0001982253Y0003499345D01*
X0001980340Y0003498965D01*
X0001978716Y0003497881D01*
X0001977634Y0003496259D01*
X0001977253Y0003494345D01*
X0000044945Y0003494345D01*
X0000044945Y0003826045D01*
X0002026921Y0003826045D01*
X0002027521Y0003823000D01*
X0002027521Y0003823000D01*
X0002046560Y0003776840D01*
X0002046560Y0003776840D01*
X0002046790Y0003776495D01*
X0002048280Y0003774257D01*
X0002048280Y0003774257D01*
X0002083535Y0003738896D01*
X0002083535Y0003738896D01*
X0002084569Y0003738202D01*
X0002086112Y0003737168D01*
X0002086113Y0003737168D01*
X0002132216Y0003717988D01*
X0002132216Y0003717988D01*
X0002135258Y0003717379D01*
X0002185191Y0003717304D01*
X0002188236Y0003717904D01*
X0002188236Y0003717905D01*
X0002234397Y0003736943D01*
X0002234397Y0003736943D01*
X0002235947Y0003737976D01*
X0002236980Y0003738663D01*
X0002236980Y0003738663D01*
X0002272341Y0003773918D01*
X0002272344Y0003773923D01*
X0002272350Y0003773926D01*
X0002273212Y0003775218D01*
X0002274069Y0003776495D01*
X0002274070Y0003776501D01*
X0002274073Y0003776506D01*
X0002274371Y0003778002D01*
X0002274679Y0003779538D01*
X0002274678Y0003779544D01*
X0002274679Y0003779550D01*
X0002274679Y0003826045D01*
X0002459992Y0003826045D01*
X0002460592Y0003823000D01*
X0002460592Y0003823000D01*
X0002479631Y0003776840D01*
X0002479631Y0003776840D01*
X0002479861Y0003776495D01*
X0002481351Y0003774257D01*
X0002481351Y0003774257D01*
X0002516606Y0003738896D01*
X0002516606Y0003738896D01*
X0002517640Y0003738202D01*
X0002519183Y0003737168D01*
X0002519184Y0003737168D01*
X0002565286Y0003717988D01*
X0002565287Y0003717988D01*
X0002568329Y0003717379D01*
X0002618262Y0003717304D01*
X0002621307Y0003717904D01*
X0002621307Y0003717905D01*
X0002667467Y0003736943D01*
X0002667468Y0003736943D01*
X0002669018Y0003737976D01*
X0002670050Y0003738663D01*
X0002670050Y0003738663D01*
X0002705411Y0003773918D01*
X0002705415Y0003773923D01*
X0002705420Y0003773926D01*
X0002706283Y0003775218D01*
X0002707140Y0003776495D01*
X0002707140Y0003776501D01*
X0002707144Y0003776506D01*
X0002707442Y0003778002D01*
X0002707750Y0003779538D01*
X0002707748Y0003779544D01*
X0002707750Y0003779550D01*
X0002707750Y0003922069D01*
X0002707750Y0003922070D01*
X0002707144Y0003925113D01*
X0002705420Y0003927693D01*
X0002670381Y0003962732D01*
X0002669087Y0003963597D01*
X0002667812Y0003964452D01*
X0002667801Y0003964456D01*
X0002667801Y0003964456D01*
X0002667801Y0003964456D01*
X0002621709Y0003983630D01*
X0002621709Y0003983630D01*
X0002621709Y0003983630D01*
X0002619276Y0003984118D01*
X0002618666Y0003984240D01*
X0002618666Y0003984240D01*
X0002568732Y0003984316D01*
X0002565688Y0003983714D01*
X0002519528Y0003964676D01*
X0002519528Y0003964676D01*
X0002516945Y0003962956D01*
X0002481584Y0003927701D01*
X0002479856Y0003925124D01*
X0002479856Y0003925124D01*
X0002460677Y0003879021D01*
X0002460677Y0003879021D01*
X0002460067Y0003875978D01*
X0002459992Y0003826045D01*
X0002274679Y0003826045D01*
X0002274679Y0003922069D01*
X0002274679Y0003922070D01*
X0002274073Y0003925113D01*
X0002272350Y0003927693D01*
X0002237310Y0003962732D01*
X0002236016Y0003963597D01*
X0002234741Y0003964452D01*
X0002234730Y0003964456D01*
X0002234730Y0003964456D01*
X0002234730Y0003964456D01*
X0002188638Y0003983630D01*
X0002188638Y0003983630D01*
X0002188638Y0003983630D01*
X0002186205Y0003984118D01*
X0002185595Y0003984240D01*
X0002185595Y0003984240D01*
X0002135662Y0003984316D01*
X0002132618Y0003983714D01*
X0002086456Y0003964676D01*
X0002086456Y0003964676D01*
X0002083873Y0003962956D01*
X0002048512Y0003927701D01*
X0002046784Y0003925124D01*
X0002046784Y0003925124D01*
X0002027606Y0003879021D01*
X0002027606Y0003879021D01*
X0002026996Y0003875978D01*
X0002026921Y0003826045D01*
X0000044945Y0003826045D01*
X0000044945Y0003900168D01*
X0000044535Y0003902233D01*
X0000043366Y0003903983D01*
X0000041616Y0003905152D01*
X0000039552Y0003905561D01*
X0000012918Y0003905561D01*
X0000009971Y0003906148D01*
X0000007922Y0003907517D01*
X0000006555Y0003909564D01*
X0000005969Y0003912511D01*
X0000005969Y0004070099D01*
X0000386731Y0004070099D01*
X0000391678Y0004058127D01*
X0000400829Y0004048960D01*
X0000412791Y0004043993D01*
X0000425743Y0004043980D01*
X0000437715Y0004048928D01*
X0000446881Y0004058079D01*
X0000451849Y0004070042D01*
X0000451849Y0004070099D01*
X0000506633Y0004070099D01*
X0000511579Y0004058127D01*
X0000520730Y0004048960D01*
X0000532693Y0004043993D01*
X0000545645Y0004043980D01*
X0000557617Y0004048928D01*
X0000566784Y0004058079D01*
X0000571751Y0004070042D01*
X0000571751Y0004070099D01*
X0000626534Y0004070099D01*
X0000631481Y0004058127D01*
X0000640632Y0004048960D01*
X0000652594Y0004043993D01*
X0000665547Y0004043980D01*
X0000677518Y0004048928D01*
X0000686685Y0004058079D01*
X0000691652Y0004070042D01*
X0000691652Y0004070099D01*
X0000746436Y0004070099D01*
X0000751382Y0004058127D01*
X0000760532Y0004048960D01*
X0000772496Y0004043993D01*
X0000785449Y0004043980D01*
X0000797420Y0004048928D01*
X0000806587Y0004058079D01*
X0000811554Y0004070042D01*
X0000811554Y0004070099D01*
X0000866337Y0004070099D01*
X0000871284Y0004058127D01*
X0000880435Y0004048960D01*
X0000892397Y0004043993D01*
X0000905350Y0004043980D01*
X0000917321Y0004048928D01*
X0000926488Y0004058079D01*
X0000931455Y0004070042D01*
X0000931455Y0004070099D01*
X0000986239Y0004070099D01*
X0000991185Y0004058127D01*
X0001000335Y0004048960D01*
X0001012299Y0004043993D01*
X0001025252Y0004043980D01*
X0001037223Y0004048928D01*
X0001046389Y0004058079D01*
X0001051357Y0004070042D01*
X0001051357Y0004070099D01*
X0001106141Y0004070099D01*
X0001111087Y0004058127D01*
X0001120238Y0004048960D01*
X0001132200Y0004043993D01*
X0001145153Y0004043980D01*
X0001157124Y0004048928D01*
X0001166291Y0004058079D01*
X0001171259Y0004070042D01*
X0001171259Y0004070099D01*
X0001226042Y0004070099D01*
X0001230989Y0004058127D01*
X0001240140Y0004048960D01*
X0001252102Y0004043993D01*
X0001265055Y0004043980D01*
X0001277026Y0004048928D01*
X0001286193Y0004058079D01*
X0001291160Y0004070042D01*
X0001291160Y0004070099D01*
X0001345944Y0004070099D01*
X0001350890Y0004058127D01*
X0001360041Y0004048960D01*
X0001372004Y0004043993D01*
X0001384956Y0004043980D01*
X0001396928Y0004048928D01*
X0001406095Y0004058079D01*
X0001411062Y0004070042D01*
X0001411062Y0004070099D01*
X0001465845Y0004070099D01*
X0001470792Y0004058127D01*
X0001479943Y0004048960D01*
X0001491905Y0004043993D01*
X0001504858Y0004043980D01*
X0001516829Y0004048928D01*
X0001525996Y0004058079D01*
X0001530963Y0004070042D01*
X0001530963Y0004070099D01*
X0001585747Y0004070099D01*
X0001590693Y0004058127D01*
X0001599844Y0004048960D01*
X0001611807Y0004043993D01*
X0001624760Y0004043980D01*
X0001636731Y0004048928D01*
X0001645898Y0004058079D01*
X0001650865Y0004070042D01*
X0001650865Y0004070099D01*
X0001705648Y0004070099D01*
X0001710595Y0004058127D01*
X0001719746Y0004048960D01*
X0001731708Y0004043993D01*
X0001744661Y0004043980D01*
X0001756632Y0004048928D01*
X0001765799Y0004058079D01*
X0001770767Y0004070042D01*
X0001770767Y0004070099D01*
X0001825550Y0004070099D01*
X0001830496Y0004058127D01*
X0001839647Y0004048960D01*
X0001851610Y0004043993D01*
X0001864563Y0004043980D01*
X0001876534Y0004048928D01*
X0001885701Y0004058079D01*
X0001890668Y0004070042D01*
X0001890679Y0004082995D01*
X0001885732Y0004094966D01*
X0001876582Y0004104133D01*
X0001864619Y0004109098D01*
X0001851667Y0004109111D01*
X0001839696Y0004104165D01*
X0001830529Y0004095014D01*
X0001825560Y0004083051D01*
X0001825550Y0004070099D01*
X0001770767Y0004070099D01*
X0001770778Y0004082995D01*
X0001765831Y0004094966D01*
X0001756680Y0004104133D01*
X0001744718Y0004109098D01*
X0001731765Y0004109111D01*
X0001719794Y0004104165D01*
X0001710627Y0004095014D01*
X0001705660Y0004083051D01*
X0001705648Y0004070099D01*
X0001650865Y0004070099D01*
X0001650876Y0004082995D01*
X0001645930Y0004094966D01*
X0001636779Y0004104133D01*
X0001624816Y0004109098D01*
X0001611864Y0004109111D01*
X0001599892Y0004104165D01*
X0001590724Y0004095014D01*
X0001585757Y0004083051D01*
X0001585747Y0004070099D01*
X0001530963Y0004070099D01*
X0001530975Y0004082995D01*
X0001526028Y0004094966D01*
X0001516877Y0004104133D01*
X0001504915Y0004109098D01*
X0001491962Y0004109111D01*
X0001479991Y0004104165D01*
X0001470824Y0004095014D01*
X0001465857Y0004083051D01*
X0001465845Y0004070099D01*
X0001411062Y0004070099D01*
X0001411073Y0004082995D01*
X0001406127Y0004094966D01*
X0001396976Y0004104133D01*
X0001385013Y0004109098D01*
X0001372060Y0004109111D01*
X0001360089Y0004104165D01*
X0001350921Y0004095014D01*
X0001345953Y0004083051D01*
X0001345944Y0004070099D01*
X0001291160Y0004070099D01*
X0001291172Y0004082995D01*
X0001286225Y0004094966D01*
X0001277074Y0004104133D01*
X0001265112Y0004109098D01*
X0001252159Y0004109111D01*
X0001240188Y0004104165D01*
X0001231021Y0004095014D01*
X0001226053Y0004083051D01*
X0001226042Y0004070099D01*
X0001171259Y0004070099D01*
X0001171270Y0004082995D01*
X0001166324Y0004094966D01*
X0001157173Y0004104133D01*
X0001145210Y0004109098D01*
X0001132257Y0004109111D01*
X0001120286Y0004104165D01*
X0001111119Y0004095014D01*
X0001106152Y0004083051D01*
X0001106141Y0004070099D01*
X0001051357Y0004070099D01*
X0001051368Y0004082995D01*
X0001046422Y0004094966D01*
X0001037271Y0004104133D01*
X0001025309Y0004109098D01*
X0001012356Y0004109111D01*
X0001000385Y0004104165D01*
X0000991218Y0004095014D01*
X0000986250Y0004083051D01*
X0000986239Y0004070099D01*
X0000931455Y0004070099D01*
X0000931467Y0004082995D01*
X0000926519Y0004094966D01*
X0000917369Y0004104133D01*
X0000905407Y0004109098D01*
X0000892454Y0004109111D01*
X0000880483Y0004104165D01*
X0000871316Y0004095014D01*
X0000866349Y0004083051D01*
X0000866337Y0004070099D01*
X0000811554Y0004070099D01*
X0000811565Y0004082995D01*
X0000806619Y0004094966D01*
X0000797468Y0004104133D01*
X0000785505Y0004109098D01*
X0000772553Y0004109111D01*
X0000760581Y0004104165D01*
X0000751414Y0004095014D01*
X0000746447Y0004083051D01*
X0000746436Y0004070099D01*
X0000691652Y0004070099D01*
X0000691664Y0004082995D01*
X0000686716Y0004094966D01*
X0000677566Y0004104133D01*
X0000665604Y0004109098D01*
X0000652651Y0004109111D01*
X0000640680Y0004104165D01*
X0000631513Y0004095014D01*
X0000626546Y0004083051D01*
X0000626534Y0004070099D01*
X0000571751Y0004070099D01*
X0000571762Y0004082995D01*
X0000566816Y0004094966D01*
X0000557665Y0004104133D01*
X0000545702Y0004109098D01*
X0000532749Y0004109111D01*
X0000520777Y0004104165D01*
X0000511611Y0004095014D01*
X0000506644Y0004083051D01*
X0000506633Y0004070099D01*
X0000451849Y0004070099D01*
X0000451861Y0004082995D01*
X0000446914Y0004094966D01*
X0000437762Y0004104133D01*
X0000425800Y0004109098D01*
X0000412848Y0004109111D01*
X0000400877Y0004104165D01*
X0000391710Y0004095014D01*
X0000386741Y0004083051D01*
X0000386731Y0004070099D01*
X0000005969Y0004070099D01*
X0000005969Y0004141704D01*
X0000095379Y0004141704D01*
X0000099985Y0004118547D01*
X0000113102Y0004098916D01*
X0000132733Y0004085797D01*
X0000155890Y0004081190D01*
X0000179047Y0004085797D01*
X0000198679Y0004098916D01*
X0000206782Y0004111042D01*
X0000446574Y0004111042D01*
X0000451519Y0004099071D01*
X0000460671Y0004089905D01*
X0000472634Y0004084938D01*
X0000485586Y0004084927D01*
X0000497557Y0004089873D01*
X0000506725Y0004099024D01*
X0000511692Y0004110985D01*
X0000511692Y0004111042D01*
X0000566475Y0004111042D01*
X0000571422Y0004099071D01*
X0000580573Y0004089905D01*
X0000592535Y0004084938D01*
X0000605488Y0004084927D01*
X0000617459Y0004089873D01*
X0000626626Y0004099024D01*
X0000631593Y0004110985D01*
X0000631593Y0004111042D01*
X0000686377Y0004111042D01*
X0000691323Y0004099071D01*
X0000700474Y0004089905D01*
X0000712437Y0004084938D01*
X0000725390Y0004084927D01*
X0000737361Y0004089873D01*
X0000746528Y0004099024D01*
X0000751494Y0004110985D01*
X0000751494Y0004111042D01*
X0000806278Y0004111042D01*
X0000811225Y0004099071D01*
X0000820376Y0004089905D01*
X0000832338Y0004084938D01*
X0000845291Y0004084927D01*
X0000857262Y0004089873D01*
X0000866429Y0004099024D01*
X0000871396Y0004110985D01*
X0000871397Y0004111042D01*
X0000926180Y0004111042D01*
X0000931126Y0004099071D01*
X0000940277Y0004089905D01*
X0000952240Y0004084938D01*
X0000965193Y0004084927D01*
X0000977164Y0004089873D01*
X0000986331Y0004099024D01*
X0000991297Y0004110985D01*
X0000991297Y0004111042D01*
X0001046082Y0004111042D01*
X0001051028Y0004099071D01*
X0001060179Y0004089905D01*
X0001072141Y0004084938D01*
X0001085094Y0004084927D01*
X0001097065Y0004089873D01*
X0001106232Y0004099024D01*
X0001111200Y0004110985D01*
X0001111200Y0004111042D01*
X0001165983Y0004111042D01*
X0001170930Y0004099071D01*
X0001180080Y0004089905D01*
X0001192043Y0004084938D01*
X0001204996Y0004084927D01*
X0001216967Y0004089873D01*
X0001226134Y0004099024D01*
X0001231101Y0004110985D01*
X0001231101Y0004111042D01*
X0001285885Y0004111042D01*
X0001290830Y0004099071D01*
X0001299982Y0004089905D01*
X0001311945Y0004084938D01*
X0001324897Y0004084927D01*
X0001336869Y0004089873D01*
X0001346036Y0004099024D01*
X0001351003Y0004110985D01*
X0001351003Y0004111042D01*
X0001405786Y0004111042D01*
X0001410733Y0004099071D01*
X0001419884Y0004089905D01*
X0001431846Y0004084938D01*
X0001444799Y0004084927D01*
X0001456770Y0004089873D01*
X0001465937Y0004099024D01*
X0001470904Y0004110985D01*
X0001470904Y0004111042D01*
X0001525688Y0004111042D01*
X0001530633Y0004099071D01*
X0001539785Y0004089905D01*
X0001551748Y0004084938D01*
X0001564701Y0004084927D01*
X0001576672Y0004089873D01*
X0001585839Y0004099024D01*
X0001590806Y0004110985D01*
X0001590806Y0004111042D01*
X0001645589Y0004111042D01*
X0001650536Y0004099071D01*
X0001659687Y0004089905D01*
X0001671649Y0004084938D01*
X0001684602Y0004084927D01*
X0001696573Y0004089873D01*
X0001705740Y0004099024D01*
X0001710707Y0004110985D01*
X0001710708Y0004111042D01*
X0001765491Y0004111042D01*
X0001770436Y0004099071D01*
X0001779588Y0004089905D01*
X0001791551Y0004084938D01*
X0001804504Y0004084927D01*
X0001816475Y0004089873D01*
X0001825642Y0004099024D01*
X0001830609Y0004110985D01*
X0001830609Y0004111042D01*
X0001885393Y0004111042D01*
X0001890339Y0004099071D01*
X0001899490Y0004089905D01*
X0001911452Y0004084938D01*
X0001924405Y0004084927D01*
X0001936376Y0004089873D01*
X0001945543Y0004099024D01*
X0001950511Y0004110985D01*
X0001950511Y0004111042D01*
X0002005294Y0004111042D01*
X0002010241Y0004099071D01*
X0002019391Y0004089905D01*
X0002031353Y0004084938D01*
X0002044306Y0004084927D01*
X0002056277Y0004089873D01*
X0002065445Y0004099024D01*
X0002070412Y0004110985D01*
X0002070412Y0004111042D01*
X0002125196Y0004111042D01*
X0002130142Y0004099071D01*
X0002139293Y0004089905D01*
X0002151256Y0004084938D01*
X0002164208Y0004084927D01*
X0002176180Y0004089873D01*
X0002185347Y0004099024D01*
X0002190314Y0004110985D01*
X0002190314Y0004111042D01*
X0002245097Y0004111042D01*
X0002250044Y0004099071D01*
X0002259195Y0004089905D01*
X0002271157Y0004084938D01*
X0002284110Y0004084927D01*
X0002296081Y0004089873D01*
X0002305248Y0004099024D01*
X0002310215Y0004110985D01*
X0002310215Y0004111042D01*
X0002364999Y0004111042D01*
X0002369945Y0004099071D01*
X0002379096Y0004089905D01*
X0002391059Y0004084938D01*
X0002404012Y0004084927D01*
X0002415983Y0004089873D01*
X0002425150Y0004099024D01*
X0002430117Y0004110985D01*
X0002430117Y0004111042D01*
X0002484900Y0004111042D01*
X0002489847Y0004099071D01*
X0002498998Y0004089905D01*
X0002510960Y0004084938D01*
X0002523913Y0004084927D01*
X0002535884Y0004089873D01*
X0002545051Y0004099024D01*
X0002550019Y0004110985D01*
X0002550029Y0004123939D01*
X0002545083Y0004135911D01*
X0002535932Y0004145078D01*
X0002523970Y0004150045D01*
X0002511017Y0004150056D01*
X0002499046Y0004145110D01*
X0002489879Y0004135957D01*
X0002484912Y0004123996D01*
X0002484900Y0004111042D01*
X0002430117Y0004111042D01*
X0002430128Y0004123939D01*
X0002425182Y0004135911D01*
X0002416031Y0004145078D01*
X0002404068Y0004150045D01*
X0002391116Y0004150056D01*
X0002379144Y0004145110D01*
X0002369977Y0004135957D01*
X0002365010Y0004123996D01*
X0002364999Y0004111042D01*
X0002310215Y0004111042D01*
X0002310227Y0004123939D01*
X0002305280Y0004135911D01*
X0002296129Y0004145078D01*
X0002284167Y0004150045D01*
X0002271214Y0004150056D01*
X0002259243Y0004145110D01*
X0002250076Y0004135957D01*
X0002245109Y0004123996D01*
X0002245097Y0004111042D01*
X0002190314Y0004111042D01*
X0002190325Y0004123939D01*
X0002185379Y0004135911D01*
X0002176228Y0004145078D01*
X0002164265Y0004150045D01*
X0002151312Y0004150056D01*
X0002139341Y0004145110D01*
X0002130174Y0004135957D01*
X0002125207Y0004123996D01*
X0002125196Y0004111042D01*
X0002070412Y0004111042D01*
X0002070424Y0004123939D01*
X0002065477Y0004135911D01*
X0002056325Y0004145078D01*
X0002044363Y0004150045D01*
X0002031410Y0004150056D01*
X0002019440Y0004145110D01*
X0002010273Y0004135957D01*
X0002005305Y0004123996D01*
X0002005294Y0004111042D01*
X0001950511Y0004111042D01*
X0001950522Y0004123939D01*
X0001945575Y0004135911D01*
X0001936425Y0004145078D01*
X0001924462Y0004150045D01*
X0001911509Y0004150056D01*
X0001899538Y0004145110D01*
X0001890371Y0004135957D01*
X0001885404Y0004123996D01*
X0001885393Y0004111042D01*
X0001830609Y0004111042D01*
X0001830620Y0004123939D01*
X0001825674Y0004135911D01*
X0001816523Y0004145078D01*
X0001804560Y0004150045D01*
X0001791608Y0004150056D01*
X0001779637Y0004145110D01*
X0001770470Y0004135957D01*
X0001765502Y0004123996D01*
X0001765491Y0004111042D01*
X0001710708Y0004111042D01*
X0001710719Y0004123939D01*
X0001705772Y0004135911D01*
X0001696621Y0004145078D01*
X0001684659Y0004150045D01*
X0001671706Y0004150056D01*
X0001659735Y0004145110D01*
X0001650568Y0004135957D01*
X0001645601Y0004123996D01*
X0001645589Y0004111042D01*
X0001590806Y0004111042D01*
X0001590817Y0004123939D01*
X0001585871Y0004135911D01*
X0001576720Y0004145078D01*
X0001564757Y0004150045D01*
X0001551805Y0004150056D01*
X0001539833Y0004145110D01*
X0001530666Y0004135957D01*
X0001525699Y0004123996D01*
X0001525688Y0004111042D01*
X0001470904Y0004111042D01*
X0001470916Y0004123939D01*
X0001465969Y0004135911D01*
X0001456818Y0004145078D01*
X0001444856Y0004150045D01*
X0001431903Y0004150056D01*
X0001419932Y0004145110D01*
X0001410765Y0004135957D01*
X0001405798Y0004123996D01*
X0001405786Y0004111042D01*
X0001351003Y0004111042D01*
X0001351014Y0004123939D01*
X0001346068Y0004135911D01*
X0001336917Y0004145078D01*
X0001324954Y0004150045D01*
X0001311999Y0004150056D01*
X0001300030Y0004145110D01*
X0001290863Y0004135957D01*
X0001285896Y0004123996D01*
X0001285885Y0004111042D01*
X0001231101Y0004111042D01*
X0001231112Y0004123939D01*
X0001226166Y0004135911D01*
X0001217015Y0004145078D01*
X0001205053Y0004150045D01*
X0001192100Y0004150056D01*
X0001180129Y0004145110D01*
X0001170962Y0004135957D01*
X0001165994Y0004123996D01*
X0001165983Y0004111042D01*
X0001111200Y0004111042D01*
X0001111211Y0004123939D01*
X0001106265Y0004135911D01*
X0001097114Y0004145078D01*
X0001085151Y0004150045D01*
X0001072198Y0004150056D01*
X0001060227Y0004145110D01*
X0001051060Y0004135957D01*
X0001046092Y0004123996D01*
X0001046082Y0004111042D01*
X0000991297Y0004111042D01*
X0000991309Y0004123939D01*
X0000986363Y0004135911D01*
X0000977212Y0004145078D01*
X0000965249Y0004150045D01*
X0000952297Y0004150056D01*
X0000940326Y0004145110D01*
X0000931159Y0004135957D01*
X0000926191Y0004123996D01*
X0000926180Y0004111042D01*
X0000871397Y0004111042D01*
X0000871408Y0004123939D01*
X0000866461Y0004135911D01*
X0000857310Y0004145078D01*
X0000845348Y0004150045D01*
X0000832395Y0004150056D01*
X0000820424Y0004145110D01*
X0000811257Y0004135957D01*
X0000806290Y0004123996D01*
X0000806278Y0004111042D01*
X0000751494Y0004111042D01*
X0000751506Y0004123939D01*
X0000746560Y0004135911D01*
X0000737409Y0004145078D01*
X0000725446Y0004150045D01*
X0000712494Y0004150056D01*
X0000700521Y0004145110D01*
X0000691355Y0004135957D01*
X0000686388Y0004123996D01*
X0000686377Y0004111042D01*
X0000631593Y0004111042D01*
X0000631605Y0004123939D01*
X0000626658Y0004135911D01*
X0000617507Y0004145078D01*
X0000605545Y0004150045D01*
X0000592592Y0004150056D01*
X0000580621Y0004145110D01*
X0000571454Y0004135957D01*
X0000566487Y0004123996D01*
X0000566475Y0004111042D01*
X0000511692Y0004111042D01*
X0000511703Y0004123939D01*
X0000506757Y0004135911D01*
X0000497606Y0004145078D01*
X0000485643Y0004150045D01*
X0000472690Y0004150056D01*
X0000460719Y0004145110D01*
X0000451552Y0004135957D01*
X0000446585Y0004123996D01*
X0000446574Y0004111042D01*
X0000206782Y0004111042D01*
X0000211796Y0004118547D01*
X0000216402Y0004141704D01*
X0000214200Y0004152776D01*
X0000386731Y0004152776D01*
X0000391678Y0004140805D01*
X0000400829Y0004131636D01*
X0000412791Y0004126670D01*
X0000425743Y0004126659D01*
X0000437715Y0004131605D01*
X0000446881Y0004140755D01*
X0000451849Y0004152719D01*
X0000451849Y0004152776D01*
X0000506633Y0004152776D01*
X0000511579Y0004140805D01*
X0000520730Y0004131636D01*
X0000532693Y0004126670D01*
X0000545645Y0004126659D01*
X0000557617Y0004131605D01*
X0000566784Y0004140755D01*
X0000571751Y0004152719D01*
X0000571751Y0004152776D01*
X0000626534Y0004152776D01*
X0000631481Y0004140805D01*
X0000640632Y0004131636D01*
X0000652594Y0004126670D01*
X0000665547Y0004126659D01*
X0000677518Y0004131605D01*
X0000686685Y0004140755D01*
X0000691652Y0004152719D01*
X0000691652Y0004152776D01*
X0000746436Y0004152776D01*
X0000751382Y0004140805D01*
X0000760532Y0004131636D01*
X0000772496Y0004126670D01*
X0000785449Y0004126659D01*
X0000797420Y0004131605D01*
X0000806587Y0004140755D01*
X0000811554Y0004152719D01*
X0000811554Y0004152776D01*
X0000866337Y0004152776D01*
X0000871284Y0004140805D01*
X0000880435Y0004131636D01*
X0000892397Y0004126670D01*
X0000905350Y0004126659D01*
X0000917321Y0004131605D01*
X0000926488Y0004140755D01*
X0000931455Y0004152719D01*
X0000931455Y0004152776D01*
X0000986239Y0004152776D01*
X0000991185Y0004140805D01*
X0001000335Y0004131636D01*
X0001012299Y0004126670D01*
X0001025252Y0004126659D01*
X0001037223Y0004131605D01*
X0001046389Y0004140755D01*
X0001051357Y0004152719D01*
X0001051357Y0004152776D01*
X0001106141Y0004152776D01*
X0001111087Y0004140805D01*
X0001120238Y0004131636D01*
X0001132200Y0004126670D01*
X0001145153Y0004126659D01*
X0001157124Y0004131605D01*
X0001166291Y0004140755D01*
X0001171259Y0004152719D01*
X0001171259Y0004152776D01*
X0001226042Y0004152776D01*
X0001230989Y0004140805D01*
X0001240140Y0004131636D01*
X0001252102Y0004126670D01*
X0001265055Y0004126659D01*
X0001277026Y0004131605D01*
X0001286193Y0004140755D01*
X0001291160Y0004152719D01*
X0001291160Y0004152776D01*
X0001345944Y0004152776D01*
X0001350890Y0004140805D01*
X0001360041Y0004131636D01*
X0001372004Y0004126670D01*
X0001384956Y0004126659D01*
X0001396928Y0004131605D01*
X0001406095Y0004140755D01*
X0001411062Y0004152719D01*
X0001411062Y0004152776D01*
X0001465845Y0004152776D01*
X0001470792Y0004140805D01*
X0001479943Y0004131636D01*
X0001491905Y0004126670D01*
X0001504858Y0004126659D01*
X0001516829Y0004131605D01*
X0001525996Y0004140755D01*
X0001530963Y0004152719D01*
X0001530963Y0004152776D01*
X0001585747Y0004152776D01*
X0001590693Y0004140805D01*
X0001599844Y0004131636D01*
X0001611807Y0004126670D01*
X0001624760Y0004126659D01*
X0001636731Y0004131605D01*
X0001645898Y0004140755D01*
X0001650865Y0004152719D01*
X0001650865Y0004152776D01*
X0001705648Y0004152776D01*
X0001710595Y0004140805D01*
X0001719746Y0004131636D01*
X0001731708Y0004126670D01*
X0001744661Y0004126659D01*
X0001756632Y0004131605D01*
X0001765799Y0004140755D01*
X0001770767Y0004152719D01*
X0001770767Y0004152776D01*
X0001825550Y0004152776D01*
X0001830496Y0004140805D01*
X0001839647Y0004131636D01*
X0001851610Y0004126670D01*
X0001864563Y0004126659D01*
X0001876534Y0004131605D01*
X0001885701Y0004140755D01*
X0001890668Y0004152719D01*
X0001890668Y0004152776D01*
X0001945451Y0004152776D01*
X0001950397Y0004140805D01*
X0001959549Y0004131636D01*
X0001971512Y0004126670D01*
X0001984464Y0004126659D01*
X0001996435Y0004131605D01*
X0002005602Y0004140755D01*
X0002010570Y0004152719D01*
X0002010570Y0004152776D01*
X0002065353Y0004152776D01*
X0002070300Y0004140805D01*
X0002079451Y0004131636D01*
X0002091413Y0004126670D01*
X0002104366Y0004126659D01*
X0002116337Y0004131605D01*
X0002125504Y0004140755D01*
X0002130471Y0004152719D01*
X0002130471Y0004152776D01*
X0002185255Y0004152776D01*
X0002190201Y0004140805D01*
X0002199352Y0004131636D01*
X0002211315Y0004126670D01*
X0002224267Y0004126659D01*
X0002236239Y0004131605D01*
X0002245406Y0004140755D01*
X0002250373Y0004152719D01*
X0002250373Y0004152776D01*
X0002305156Y0004152776D01*
X0002310103Y0004140805D01*
X0002319254Y0004131636D01*
X0002331216Y0004126670D01*
X0002344169Y0004126659D01*
X0002356140Y0004131605D01*
X0002365307Y0004140755D01*
X0002370274Y0004152719D01*
X0002370274Y0004152776D01*
X0002425058Y0004152776D01*
X0002430004Y0004140805D01*
X0002439155Y0004131636D01*
X0002451118Y0004126670D01*
X0002464071Y0004126659D01*
X0002476042Y0004131605D01*
X0002485209Y0004140755D01*
X0002490176Y0004152719D01*
X0002490176Y0004152776D01*
X0002544959Y0004152776D01*
X0002549905Y0004140805D01*
X0002559057Y0004131636D01*
X0002571018Y0004126670D01*
X0002583972Y0004126659D01*
X0002595942Y0004131605D01*
X0002605110Y0004140755D01*
X0002605504Y0004141704D01*
X0002772544Y0004141704D01*
X0002777150Y0004118547D01*
X0002790267Y0004098916D01*
X0002809899Y0004085797D01*
X0002833056Y0004081190D01*
X0002856212Y0004085797D01*
X0002875844Y0004098916D01*
X0002888960Y0004118547D01*
X0002893567Y0004141704D01*
X0002888960Y0004164861D01*
X0002875844Y0004184491D01*
X0002856212Y0004197610D01*
X0002833056Y0004202216D01*
X0002809899Y0004197610D01*
X0002790267Y0004184491D01*
X0002777150Y0004164861D01*
X0002772544Y0004141704D01*
X0002605504Y0004141704D01*
X0002610078Y0004152719D01*
X0002610089Y0004165672D01*
X0002605142Y0004177643D01*
X0002595991Y0004186810D01*
X0002584029Y0004191777D01*
X0002571076Y0004191788D01*
X0002559105Y0004186842D01*
X0002549938Y0004177691D01*
X0002544971Y0004165729D01*
X0002544959Y0004152776D01*
X0002490176Y0004152776D01*
X0002490187Y0004165672D01*
X0002485241Y0004177643D01*
X0002476090Y0004186810D01*
X0002464127Y0004191777D01*
X0002451175Y0004191788D01*
X0002439203Y0004186842D01*
X0002430036Y0004177691D01*
X0002425069Y0004165729D01*
X0002425058Y0004152776D01*
X0002370274Y0004152776D01*
X0002370286Y0004165672D01*
X0002365339Y0004177643D01*
X0002356188Y0004186810D01*
X0002344226Y0004191777D01*
X0002331273Y0004191788D01*
X0002319302Y0004186842D01*
X0002310135Y0004177691D01*
X0002305168Y0004165729D01*
X0002305156Y0004152776D01*
X0002250373Y0004152776D01*
X0002250384Y0004165672D01*
X0002245438Y0004177643D01*
X0002236287Y0004186810D01*
X0002224324Y0004191777D01*
X0002211371Y0004191788D01*
X0002199400Y0004186842D01*
X0002190233Y0004177691D01*
X0002185266Y0004165729D01*
X0002185255Y0004152776D01*
X0002130471Y0004152776D01*
X0002130483Y0004165672D01*
X0002125536Y0004177643D01*
X0002116385Y0004186810D01*
X0002104423Y0004191777D01*
X0002091470Y0004191788D01*
X0002079499Y0004186842D01*
X0002070332Y0004177691D01*
X0002065365Y0004165729D01*
X0002065353Y0004152776D01*
X0002010570Y0004152776D01*
X0002010581Y0004165672D01*
X0002005634Y0004177643D01*
X0001996483Y0004186810D01*
X0001984521Y0004191777D01*
X0001971568Y0004191788D01*
X0001959597Y0004186842D01*
X0001950430Y0004177691D01*
X0001945463Y0004165729D01*
X0001945451Y0004152776D01*
X0001890668Y0004152776D01*
X0001890679Y0004165672D01*
X0001885732Y0004177643D01*
X0001876582Y0004186810D01*
X0001864619Y0004191777D01*
X0001851667Y0004191788D01*
X0001839696Y0004186842D01*
X0001830529Y0004177691D01*
X0001825560Y0004165729D01*
X0001825550Y0004152776D01*
X0001770767Y0004152776D01*
X0001770778Y0004165672D01*
X0001765831Y0004177643D01*
X0001756680Y0004186810D01*
X0001744718Y0004191777D01*
X0001731765Y0004191788D01*
X0001719794Y0004186842D01*
X0001710627Y0004177691D01*
X0001705660Y0004165729D01*
X0001705648Y0004152776D01*
X0001650865Y0004152776D01*
X0001650876Y0004165672D01*
X0001645930Y0004177643D01*
X0001636779Y0004186810D01*
X0001624816Y0004191777D01*
X0001611864Y0004191788D01*
X0001599892Y0004186842D01*
X0001590724Y0004177691D01*
X0001585757Y0004165729D01*
X0001585747Y0004152776D01*
X0001530963Y0004152776D01*
X0001530975Y0004165672D01*
X0001526028Y0004177643D01*
X0001516877Y0004186810D01*
X0001504915Y0004191777D01*
X0001491962Y0004191788D01*
X0001479991Y0004186842D01*
X0001470824Y0004177691D01*
X0001465857Y0004165729D01*
X0001465845Y0004152776D01*
X0001411062Y0004152776D01*
X0001411073Y0004165672D01*
X0001406127Y0004177643D01*
X0001396976Y0004186810D01*
X0001385013Y0004191777D01*
X0001372060Y0004191788D01*
X0001360089Y0004186842D01*
X0001350921Y0004177691D01*
X0001345953Y0004165729D01*
X0001345944Y0004152776D01*
X0001291160Y0004152776D01*
X0001291172Y0004165672D01*
X0001286225Y0004177643D01*
X0001277074Y0004186810D01*
X0001265112Y0004191777D01*
X0001252159Y0004191788D01*
X0001240188Y0004186842D01*
X0001231021Y0004177691D01*
X0001226053Y0004165729D01*
X0001226042Y0004152776D01*
X0001171259Y0004152776D01*
X0001171270Y0004165672D01*
X0001166324Y0004177643D01*
X0001157173Y0004186810D01*
X0001145210Y0004191777D01*
X0001132257Y0004191788D01*
X0001120286Y0004186842D01*
X0001111119Y0004177691D01*
X0001106152Y0004165729D01*
X0001106141Y0004152776D01*
X0001051357Y0004152776D01*
X0001051368Y0004165672D01*
X0001046422Y0004177643D01*
X0001037271Y0004186810D01*
X0001025309Y0004191777D01*
X0001012356Y0004191788D01*
X0001000385Y0004186842D01*
X0000991218Y0004177691D01*
X0000986250Y0004165729D01*
X0000986239Y0004152776D01*
X0000931455Y0004152776D01*
X0000931467Y0004165672D01*
X0000926519Y0004177643D01*
X0000917369Y0004186810D01*
X0000905407Y0004191777D01*
X0000892454Y0004191788D01*
X0000880483Y0004186842D01*
X0000871316Y0004177691D01*
X0000866349Y0004165729D01*
X0000866337Y0004152776D01*
X0000811554Y0004152776D01*
X0000811565Y0004165672D01*
X0000806619Y0004177643D01*
X0000797468Y0004186810D01*
X0000785505Y0004191777D01*
X0000772553Y0004191788D01*
X0000760581Y0004186842D01*
X0000751414Y0004177691D01*
X0000746447Y0004165729D01*
X0000746436Y0004152776D01*
X0000691652Y0004152776D01*
X0000691664Y0004165672D01*
X0000686716Y0004177643D01*
X0000677566Y0004186810D01*
X0000665604Y0004191777D01*
X0000652651Y0004191788D01*
X0000640680Y0004186842D01*
X0000631513Y0004177691D01*
X0000626546Y0004165729D01*
X0000626534Y0004152776D01*
X0000571751Y0004152776D01*
X0000571762Y0004165672D01*
X0000566816Y0004177643D01*
X0000557665Y0004186810D01*
X0000545702Y0004191777D01*
X0000532749Y0004191788D01*
X0000520777Y0004186842D01*
X0000511611Y0004177691D01*
X0000506644Y0004165729D01*
X0000506633Y0004152776D01*
X0000451849Y0004152776D01*
X0000451861Y0004165672D01*
X0000446914Y0004177643D01*
X0000437762Y0004186810D01*
X0000425800Y0004191777D01*
X0000412848Y0004191788D01*
X0000400877Y0004186842D01*
X0000391710Y0004177691D01*
X0000386741Y0004165729D01*
X0000386731Y0004152776D01*
X0000214200Y0004152776D01*
X0000211796Y0004164861D01*
X0000198679Y0004184491D01*
X0000179047Y0004197610D01*
X0000155890Y0004202216D01*
X0000132733Y0004197610D01*
X0000113102Y0004184491D01*
X0000099985Y0004164861D01*
X0000095379Y0004141704D01*
X0000005969Y0004141704D01*
X0000005969Y0004219322D01*
X0000011650Y0004247882D01*
X0000027526Y0004271643D01*
X0000051287Y0004287519D01*
X0000079847Y0004293200D01*
X0002913036Y0004293200D01*
X0002941596Y0004287519D01*
X0002941596Y0004287519D01*
G37*
X0002941596Y0004287519D02*
X0002965356Y0004271643D01*
X0002981233Y0004247882D01*
X0002986914Y0004219322D01*
X0002986914Y0003916447D01*
X0002986328Y0003913501D01*
X0002984960Y0003911454D01*
X0002982912Y0003910085D01*
X0002979965Y0003909499D01*
X0002953331Y0003909499D01*
X0002951267Y0003909089D01*
X0002949517Y0003907919D01*
X0002948347Y0003906169D01*
X0002947938Y0003904106D01*
X0002947938Y0003319854D01*
X0002948347Y0003317789D01*
X0002949517Y0003316039D01*
X0002951267Y0003314871D01*
X0002953331Y0003314460D01*
X0002979965Y0003314460D01*
X0002982912Y0003313874D01*
X0002984960Y0003312506D01*
X0002986328Y0003310458D01*
X0002986914Y0003307511D01*
X0002986914Y0003019598D01*
X0002979765Y0002983656D01*
X0002959706Y0002953636D01*
X0002929687Y0002933578D01*
X0002893744Y0002926428D01*
X0000079845Y0002926034D01*
X0000051287Y0002931716D01*
X0000027526Y0002947592D01*
X0000011650Y0002971353D01*
X0000005969Y0002999913D01*
X0000005969Y0003076743D01*
X0000095379Y0003076743D01*
X0000099985Y0003053587D01*
X0000113102Y0003033955D01*
X0000132733Y0003020838D01*
X0000155890Y0003016232D01*
X0000179047Y0003020838D01*
X0000198679Y0003033955D01*
X0000207995Y0003047898D01*
X0001431214Y0003047898D01*
X0001431214Y0003038254D01*
X0001434972Y0003029181D01*
X0001441916Y0003022237D01*
X0001450989Y0003018479D01*
X0001492130Y0003018479D01*
X0001498301Y0003024649D01*
X0001498301Y0003054070D01*
X0001500112Y0003054070D01*
X0001500112Y0003024649D01*
X0001506283Y0003018479D01*
X0001547424Y0003018479D01*
X0001556496Y0003022237D01*
X0001563440Y0003029181D01*
X0001567198Y0003038254D01*
X0001567198Y0003047898D01*
X0001561027Y0003054070D01*
X0001500112Y0003054070D01*
X0001498301Y0003054070D01*
X0001437385Y0003054070D01*
X0001431214Y0003047898D01*
X0000207995Y0003047898D01*
X0000211796Y0003053587D01*
X0000216402Y0003076743D01*
X0000211796Y0003099900D01*
X0000198679Y0003119532D01*
X0000179047Y0003132649D01*
X0000155890Y0003137255D01*
X0000132733Y0003132649D01*
X0000113102Y0003119532D01*
X0000099985Y0003099900D01*
X0000095379Y0003076743D01*
X0000005969Y0003076743D01*
X0000005969Y0003303573D01*
X0000006555Y0003306521D01*
X0000007922Y0003308569D01*
X0000009971Y0003309937D01*
X0000012918Y0003310523D01*
X0000039552Y0003310523D01*
X0000041616Y0003310934D01*
X0000043366Y0003312103D01*
X0000044535Y0003313853D01*
X0000044945Y0003315917D01*
X0000044945Y0003454975D01*
X0000666253Y0003454975D01*
X0000666253Y0003191196D01*
X0000666387Y0003190522D01*
X0000666387Y0003189836D01*
X0000667886Y0003182303D01*
X0000667886Y0003182303D01*
X0000668926Y0003179790D01*
X0000673194Y0003173405D01*
X0000675115Y0003171482D01*
X0000681501Y0003167215D01*
X0000681501Y0003167215D01*
X0000682974Y0003166605D01*
X0000684014Y0003166174D01*
X0000684015Y0003166174D01*
X0000691548Y0003164676D01*
X0000692234Y0003164676D01*
X0000692907Y0003164542D01*
X0000864167Y0003164542D01*
X0000864840Y0003164676D01*
X0000865526Y0003164676D01*
X0000873060Y0003166174D01*
X0000873060Y0003166174D01*
X0000875572Y0003167215D01*
X0000881958Y0003171482D01*
X0000883881Y0003173405D01*
X0000888148Y0003179790D01*
X0000888148Y0003179790D01*
X0000889188Y0003182303D01*
X0000890687Y0003189836D01*
X0000890687Y0003190522D01*
X0000890821Y0003191196D01*
X0000890821Y0003216008D01*
X0001195781Y0003216008D01*
X0001195781Y0003198088D01*
X0001198340Y0003191909D01*
X0001203070Y0003187179D01*
X0001209248Y0003184621D01*
X0001227169Y0003184621D01*
X0001231372Y0003188824D01*
X0001231372Y0003220211D01*
X0001199984Y0003220211D01*
X0001195781Y0003216008D01*
X0000890821Y0003216008D01*
X0000890821Y0003308052D01*
X0001148537Y0003308052D01*
X0001148537Y0003270849D01*
X0001152295Y0003261776D01*
X0001159239Y0003254832D01*
X0001168312Y0003251074D01*
X0001185830Y0003251074D01*
X0001192002Y0003257244D01*
X0001192002Y0003251074D01*
X0001195781Y0003251074D01*
X0001195781Y0003234098D01*
X0001199984Y0003229896D01*
X0001231372Y0003229896D01*
X0001231372Y0003230684D01*
X0001241057Y0003230684D01*
X0001241057Y0003229896D01*
X0001241844Y0003229896D01*
X0001241844Y0003220211D01*
X0001241057Y0003220211D01*
X0001241057Y0003188824D01*
X0001245260Y0003184621D01*
X0001250899Y0003184621D01*
X0001250899Y0003084895D01*
X0001251033Y0003084223D01*
X0001251033Y0003083537D01*
X0001252532Y0003076004D01*
X0001252532Y0003076004D01*
X0001253572Y0003073492D01*
X0001257839Y0003067105D01*
X0001259762Y0003065183D01*
X0001266148Y0003060916D01*
X0001266148Y0003060916D01*
X0001267620Y0003060306D01*
X0001268660Y0003059875D01*
X0001268660Y0003059875D01*
X0001276193Y0003058377D01*
X0001276880Y0003058377D01*
X0001277553Y0003058243D01*
X0001435023Y0003058243D01*
X0001437385Y0003055881D01*
X0001498301Y0003055881D01*
X0001498301Y0003056668D01*
X0001500112Y0003056668D01*
X0001500112Y0003055881D01*
X0001561027Y0003055881D01*
X0001563389Y0003058243D01*
X0001718498Y0003058243D01*
X0001719171Y0003058377D01*
X0001719857Y0003058377D01*
X0001727389Y0003059875D01*
X0001727389Y0003059875D01*
X0001729902Y0003060916D01*
X0001736289Y0003065183D01*
X0001738211Y0003067105D01*
X0001742478Y0003073492D01*
X0001742478Y0003073492D01*
X0001743088Y0003074963D01*
X0001743418Y0003075759D01*
X0002771560Y0003075759D01*
X0002776166Y0003052602D01*
X0002789283Y0003032971D01*
X0002808915Y0003019853D01*
X0002832071Y0003015247D01*
X0002855227Y0003019853D01*
X0002874859Y0003032971D01*
X0002887977Y0003052602D01*
X0002892583Y0003075759D01*
X0002887977Y0003098916D01*
X0002874859Y0003118547D01*
X0002855227Y0003131664D01*
X0002832071Y0003136271D01*
X0002808915Y0003131664D01*
X0002789283Y0003118547D01*
X0002776166Y0003098916D01*
X0002771560Y0003075759D01*
X0001743418Y0003075759D01*
X0001743519Y0003076004D01*
X0001743519Y0003076004D01*
X0001745017Y0003083537D01*
X0001745017Y0003084223D01*
X0001745151Y0003084895D01*
X0001745151Y0003185014D01*
X0001751185Y0003185014D01*
X0001755387Y0003189217D01*
X0001755387Y0003220605D01*
X0001765072Y0003220605D01*
X0001765072Y0003189217D01*
X0001769275Y0003185014D01*
X0001787196Y0003185014D01*
X0001793375Y0003187574D01*
X0001798104Y0003192303D01*
X0001800663Y0003198482D01*
X0001800663Y0003216402D01*
X0001796460Y0003220605D01*
X0001765072Y0003220605D01*
X0001755387Y0003220605D01*
X0001754600Y0003220605D01*
X0001754600Y0003230289D01*
X0001755387Y0003230289D01*
X0001755387Y0003231077D01*
X0001765072Y0003231077D01*
X0001765072Y0003230289D01*
X0001796460Y0003230289D01*
X0001800663Y0003234493D01*
X0001800663Y0003251271D01*
X0001813959Y0003251271D01*
X0001823032Y0003255029D01*
X0001829975Y0003261972D01*
X0001833734Y0003271046D01*
X0001833734Y0003293558D01*
X0001977687Y0003293558D01*
X0001977687Y0003262061D01*
X0001978067Y0003260148D01*
X0001979150Y0003258526D01*
X0001980773Y0003257442D01*
X0001982687Y0003257062D01*
X0002014183Y0003257062D01*
X0002016096Y0003257442D01*
X0002017718Y0003258526D01*
X0002018802Y0003260148D01*
X0002019183Y0003262061D01*
X0002019183Y0003293558D01*
X0002160324Y0003293558D01*
X0002160324Y0003262061D01*
X0002160705Y0003260148D01*
X0002161789Y0003258526D01*
X0002163411Y0003257442D01*
X0002165324Y0003257062D01*
X0002196820Y0003257062D01*
X0002198734Y0003257442D01*
X0002200356Y0003258526D01*
X0002201440Y0003260148D01*
X0002201820Y0003262061D01*
X0002201820Y0003293558D01*
X0002201440Y0003295471D01*
X0002200356Y0003297093D01*
X0002198734Y0003298177D01*
X0002196820Y0003298557D01*
X0002165324Y0003298557D01*
X0002163411Y0003298177D01*
X0002161789Y0003297093D01*
X0002160705Y0003295471D01*
X0002160324Y0003293558D01*
X0002019183Y0003293558D01*
X0002018802Y0003295471D01*
X0002017718Y0003297093D01*
X0002016096Y0003298177D01*
X0002014183Y0003298557D01*
X0001982687Y0003298557D01*
X0001980773Y0003298177D01*
X0001979150Y0003297093D01*
X0001978067Y0003295471D01*
X0001977687Y0003293558D01*
X0001833734Y0003293558D01*
X0001833734Y0003308249D01*
X0001827563Y0003314421D01*
X0001790269Y0003314421D01*
X0001790269Y0003313633D01*
X0001780584Y0003313633D01*
X0001780584Y0003314421D01*
X0001779797Y0003314421D01*
X0001779797Y0003324106D01*
X0001780584Y0003324106D01*
X0001780584Y0003381083D01*
X0001790269Y0003381083D01*
X0001790269Y0003324106D01*
X0001827563Y0003324106D01*
X0001833734Y0003330277D01*
X0001833734Y0003367480D01*
X0001829975Y0003376553D01*
X0001823032Y0003383497D01*
X0001813959Y0003387255D01*
X0001796441Y0003387255D01*
X0001790269Y0003381083D01*
X0001780584Y0003381083D01*
X0001777093Y0003384575D01*
X0001776983Y0003385128D01*
X0001775943Y0003387640D01*
X0001775943Y0003387640D01*
X0001771676Y0003394026D01*
X0001769753Y0003395949D01*
X0001763367Y0003400216D01*
X0001760854Y0003401256D01*
X0001760854Y0003401256D01*
X0001753322Y0003402755D01*
X0001752635Y0003402755D01*
X0001751960Y0003402888D01*
X0001238183Y0003402888D01*
X0001237510Y0003402755D01*
X0001236823Y0003402755D01*
X0001229290Y0003401256D01*
X0001229290Y0003401256D01*
X0001228303Y0003400846D01*
X0001226778Y0003400216D01*
X0001226778Y0003400216D01*
X0001220392Y0003395949D01*
X0001218469Y0003394026D01*
X0001214202Y0003387640D01*
X0001214202Y0003387640D01*
X0001213961Y0003387058D01*
X0001207858Y0003387058D01*
X0001201687Y0003380887D01*
X0001201687Y0003323909D01*
X0001202474Y0003323909D01*
X0001202474Y0003314223D01*
X0001201687Y0003314223D01*
X0001201687Y0003313436D01*
X0001192002Y0003313436D01*
X0001192002Y0003314223D01*
X0001154708Y0003314223D01*
X0001148537Y0003308052D01*
X0000890821Y0003308052D01*
X0000890821Y0003367284D01*
X0001148537Y0003367284D01*
X0001148537Y0003330079D01*
X0001154708Y0003323909D01*
X0001192002Y0003323909D01*
X0001192002Y0003380887D01*
X0001185830Y0003387058D01*
X0001168312Y0003387058D01*
X0001159239Y0003383300D01*
X0001152295Y0003376356D01*
X0001148537Y0003367284D01*
X0000890821Y0003367284D01*
X0000890821Y0003454975D01*
X0000890687Y0003455647D01*
X0000890687Y0003456335D01*
X0000889188Y0003463868D01*
X0000888148Y0003466379D01*
X0000888148Y0003466379D01*
X0000883880Y0003472766D01*
X0000881958Y0003474689D01*
X0000875572Y0003478956D01*
X0000873060Y0003479996D01*
X0000873060Y0003479996D01*
X0000865526Y0003481495D01*
X0000864840Y0003481495D01*
X0000864167Y0003481629D01*
X0000692907Y0003481629D01*
X0000692234Y0003481495D01*
X0000691548Y0003481495D01*
X0000684015Y0003479996D01*
X0000684014Y0003479996D01*
X0000683028Y0003479588D01*
X0000681501Y0003478956D01*
X0000681501Y0003478956D01*
X0000675115Y0003474689D01*
X0000673194Y0003472766D01*
X0000668926Y0003466379D01*
X0000668926Y0003466379D01*
X0000667886Y0003463868D01*
X0000666387Y0003456335D01*
X0000666387Y0003455647D01*
X0000666253Y0003454975D01*
X0000044945Y0003454975D01*
X0000044945Y0003494345D01*
X0001977253Y0003494345D01*
X0001977253Y0003462849D01*
X0001977634Y0003460936D01*
X0001978716Y0003459314D01*
X0001980340Y0003458230D01*
X0001982253Y0003457849D01*
X0002013748Y0003457849D01*
X0002015663Y0003458230D01*
X0002017285Y0003459314D01*
X0002018368Y0003460936D01*
X0002018749Y0003462849D01*
X0002018749Y0003494345D01*
X0002160324Y0003494345D01*
X0002160324Y0003462849D01*
X0002160705Y0003460936D01*
X0002161789Y0003459314D01*
X0002163411Y0003458230D01*
X0002165324Y0003457849D01*
X0002196820Y0003457849D01*
X0002198734Y0003458230D01*
X0002200356Y0003459314D01*
X0002201440Y0003460936D01*
X0002201820Y0003462849D01*
X0002201820Y0003494345D01*
X0002201440Y0003496259D01*
X0002200356Y0003497881D01*
X0002198734Y0003498965D01*
X0002196820Y0003499345D01*
X0002165324Y0003499345D01*
X0002163411Y0003498965D01*
X0002161789Y0003497881D01*
X0002160705Y0003496259D01*
X0002160324Y0003494345D01*
X0002018749Y0003494345D01*
X0002018368Y0003496259D01*
X0002017285Y0003497881D01*
X0002015663Y0003498965D01*
X0002013748Y0003499345D01*
X0001982253Y0003499345D01*
X0001980340Y0003498965D01*
X0001978716Y0003497881D01*
X0001977634Y0003496259D01*
X0001977253Y0003494345D01*
X0000044945Y0003494345D01*
X0000044945Y0003826045D01*
X0002026921Y0003826045D01*
X0002027521Y0003823000D01*
X0002027521Y0003823000D01*
X0002046560Y0003776840D01*
X0002046560Y0003776840D01*
X0002046790Y0003776495D01*
X0002048280Y0003774257D01*
X0002048280Y0003774257D01*
X0002083535Y0003738896D01*
X0002083535Y0003738896D01*
X0002084569Y0003738202D01*
X0002086112Y0003737168D01*
X0002086113Y0003737168D01*
X0002132216Y0003717988D01*
X0002132216Y0003717988D01*
X0002135258Y0003717379D01*
X0002185191Y0003717304D01*
X0002188236Y0003717904D01*
X0002188236Y0003717905D01*
X0002234397Y0003736943D01*
X0002234397Y0003736943D01*
X0002235947Y0003737976D01*
X0002236980Y0003738663D01*
X0002236980Y0003738663D01*
X0002272341Y0003773918D01*
X0002272344Y0003773923D01*
X0002272350Y0003773926D01*
X0002273212Y0003775218D01*
X0002274069Y0003776495D01*
X0002274070Y0003776501D01*
X0002274073Y0003776506D01*
X0002274371Y0003778002D01*
X0002274679Y0003779538D01*
X0002274678Y0003779544D01*
X0002274679Y0003779550D01*
X0002274679Y0003826045D01*
X0002459992Y0003826045D01*
X0002460592Y0003823000D01*
X0002460592Y0003823000D01*
X0002479631Y0003776840D01*
X0002479631Y0003776840D01*
X0002479861Y0003776495D01*
X0002481351Y0003774257D01*
X0002481351Y0003774257D01*
X0002516606Y0003738896D01*
X0002516606Y0003738896D01*
X0002517640Y0003738202D01*
X0002519183Y0003737168D01*
X0002519184Y0003737168D01*
X0002565286Y0003717988D01*
X0002565287Y0003717988D01*
X0002568329Y0003717379D01*
X0002618262Y0003717304D01*
X0002621307Y0003717904D01*
X0002621307Y0003717905D01*
X0002667467Y0003736943D01*
X0002667468Y0003736943D01*
X0002669018Y0003737976D01*
X0002670050Y0003738663D01*
X0002670050Y0003738663D01*
X0002705411Y0003773918D01*
X0002705415Y0003773923D01*
X0002705420Y0003773926D01*
X0002706283Y0003775218D01*
X0002707140Y0003776495D01*
X0002707140Y0003776501D01*
X0002707144Y0003776506D01*
X0002707442Y0003778002D01*
X0002707750Y0003779538D01*
X0002707748Y0003779544D01*
X0002707750Y0003779550D01*
X0002707750Y0003922069D01*
X0002707750Y0003922070D01*
X0002707144Y0003925113D01*
X0002705420Y0003927693D01*
X0002670381Y0003962732D01*
X0002669087Y0003963597D01*
X0002667812Y0003964452D01*
X0002667801Y0003964456D01*
X0002667801Y0003964456D01*
X0002667801Y0003964456D01*
X0002621709Y0003983630D01*
X0002621709Y0003983630D01*
X0002621709Y0003983630D01*
X0002619276Y0003984118D01*
X0002618666Y0003984240D01*
X0002618666Y0003984240D01*
X0002568732Y0003984316D01*
X0002565688Y0003983714D01*
X0002519528Y0003964676D01*
X0002519528Y0003964676D01*
X0002516945Y0003962956D01*
X0002481584Y0003927701D01*
X0002479856Y0003925124D01*
X0002479856Y0003925124D01*
X0002460677Y0003879021D01*
X0002460677Y0003879021D01*
X0002460067Y0003875978D01*
X0002459992Y0003826045D01*
X0002274679Y0003826045D01*
X0002274679Y0003922069D01*
X0002274679Y0003922070D01*
X0002274073Y0003925113D01*
X0002272350Y0003927693D01*
X0002237310Y0003962732D01*
X0002236016Y0003963597D01*
X0002234741Y0003964452D01*
X0002234730Y0003964456D01*
X0002234730Y0003964456D01*
X0002234730Y0003964456D01*
X0002188638Y0003983630D01*
X0002188638Y0003983630D01*
X0002188638Y0003983630D01*
X0002186205Y0003984118D01*
X0002185595Y0003984240D01*
X0002185595Y0003984240D01*
X0002135662Y0003984316D01*
X0002132618Y0003983714D01*
X0002086456Y0003964676D01*
X0002086456Y0003964676D01*
X0002083873Y0003962956D01*
X0002048512Y0003927701D01*
X0002046784Y0003925124D01*
X0002046784Y0003925124D01*
X0002027606Y0003879021D01*
X0002027606Y0003879021D01*
X0002026996Y0003875978D01*
X0002026921Y0003826045D01*
X0000044945Y0003826045D01*
X0000044945Y0003900168D01*
X0000044535Y0003902233D01*
X0000043366Y0003903983D01*
X0000041616Y0003905152D01*
X0000039552Y0003905561D01*
X0000012918Y0003905561D01*
X0000009971Y0003906148D01*
X0000007922Y0003907517D01*
X0000006555Y0003909564D01*
X0000005969Y0003912511D01*
X0000005969Y0004070099D01*
X0000386731Y0004070099D01*
X0000391678Y0004058127D01*
X0000400829Y0004048960D01*
X0000412791Y0004043993D01*
X0000425743Y0004043980D01*
X0000437715Y0004048928D01*
X0000446881Y0004058079D01*
X0000451849Y0004070042D01*
X0000451849Y0004070099D01*
X0000506633Y0004070099D01*
X0000511579Y0004058127D01*
X0000520730Y0004048960D01*
X0000532693Y0004043993D01*
X0000545645Y0004043980D01*
X0000557617Y0004048928D01*
X0000566784Y0004058079D01*
X0000571751Y0004070042D01*
X0000571751Y0004070099D01*
X0000626534Y0004070099D01*
X0000631481Y0004058127D01*
X0000640632Y0004048960D01*
X0000652594Y0004043993D01*
X0000665547Y0004043980D01*
X0000677518Y0004048928D01*
X0000686685Y0004058079D01*
X0000691652Y0004070042D01*
X0000691652Y0004070099D01*
X0000746436Y0004070099D01*
X0000751382Y0004058127D01*
X0000760532Y0004048960D01*
X0000772496Y0004043993D01*
X0000785449Y0004043980D01*
X0000797420Y0004048928D01*
X0000806587Y0004058079D01*
X0000811554Y0004070042D01*
X0000811554Y0004070099D01*
X0000866337Y0004070099D01*
X0000871284Y0004058127D01*
X0000880435Y0004048960D01*
X0000892397Y0004043993D01*
X0000905350Y0004043980D01*
X0000917321Y0004048928D01*
X0000926488Y0004058079D01*
X0000931455Y0004070042D01*
X0000931455Y0004070099D01*
X0000986239Y0004070099D01*
X0000991185Y0004058127D01*
X0001000335Y0004048960D01*
X0001012299Y0004043993D01*
X0001025252Y0004043980D01*
X0001037223Y0004048928D01*
X0001046389Y0004058079D01*
X0001051357Y0004070042D01*
X0001051357Y0004070099D01*
X0001106141Y0004070099D01*
X0001111087Y0004058127D01*
X0001120238Y0004048960D01*
X0001132200Y0004043993D01*
X0001145153Y0004043980D01*
X0001157124Y0004048928D01*
X0001166291Y0004058079D01*
X0001171259Y0004070042D01*
X0001171259Y0004070099D01*
X0001226042Y0004070099D01*
X0001230989Y0004058127D01*
X0001240140Y0004048960D01*
X0001252102Y0004043993D01*
X0001265055Y0004043980D01*
X0001277026Y0004048928D01*
X0001286193Y0004058079D01*
X0001291160Y0004070042D01*
X0001291160Y0004070099D01*
X0001345944Y0004070099D01*
X0001350890Y0004058127D01*
X0001360041Y0004048960D01*
X0001372004Y0004043993D01*
X0001384956Y0004043980D01*
X0001396928Y0004048928D01*
X0001406095Y0004058079D01*
X0001411062Y0004070042D01*
X0001411062Y0004070099D01*
X0001465845Y0004070099D01*
X0001470792Y0004058127D01*
X0001479943Y0004048960D01*
X0001491905Y0004043993D01*
X0001504858Y0004043980D01*
X0001516829Y0004048928D01*
X0001525996Y0004058079D01*
X0001530963Y0004070042D01*
X0001530963Y0004070099D01*
X0001585747Y0004070099D01*
X0001590693Y0004058127D01*
X0001599844Y0004048960D01*
X0001611807Y0004043993D01*
X0001624760Y0004043980D01*
X0001636731Y0004048928D01*
X0001645898Y0004058079D01*
X0001650865Y0004070042D01*
X0001650865Y0004070099D01*
X0001705648Y0004070099D01*
X0001710595Y0004058127D01*
X0001719746Y0004048960D01*
X0001731708Y0004043993D01*
X0001744661Y0004043980D01*
X0001756632Y0004048928D01*
X0001765799Y0004058079D01*
X0001770767Y0004070042D01*
X0001770767Y0004070099D01*
X0001825550Y0004070099D01*
X0001830496Y0004058127D01*
X0001839647Y0004048960D01*
X0001851610Y0004043993D01*
X0001864563Y0004043980D01*
X0001876534Y0004048928D01*
X0001885701Y0004058079D01*
X0001890668Y0004070042D01*
X0001890679Y0004082995D01*
X0001885732Y0004094966D01*
X0001876582Y0004104133D01*
X0001864619Y0004109098D01*
X0001851667Y0004109111D01*
X0001839696Y0004104165D01*
X0001830529Y0004095014D01*
X0001825560Y0004083051D01*
X0001825550Y0004070099D01*
X0001770767Y0004070099D01*
X0001770778Y0004082995D01*
X0001765831Y0004094966D01*
X0001756680Y0004104133D01*
X0001744718Y0004109098D01*
X0001731765Y0004109111D01*
X0001719794Y0004104165D01*
X0001710627Y0004095014D01*
X0001705660Y0004083051D01*
X0001705648Y0004070099D01*
X0001650865Y0004070099D01*
X0001650876Y0004082995D01*
X0001645930Y0004094966D01*
X0001636779Y0004104133D01*
X0001624816Y0004109098D01*
X0001611864Y0004109111D01*
X0001599892Y0004104165D01*
X0001590724Y0004095014D01*
X0001585757Y0004083051D01*
X0001585747Y0004070099D01*
X0001530963Y0004070099D01*
X0001530975Y0004082995D01*
X0001526028Y0004094966D01*
X0001516877Y0004104133D01*
X0001504915Y0004109098D01*
X0001491962Y0004109111D01*
X0001479991Y0004104165D01*
X0001470824Y0004095014D01*
X0001465857Y0004083051D01*
X0001465845Y0004070099D01*
X0001411062Y0004070099D01*
X0001411073Y0004082995D01*
X0001406127Y0004094966D01*
X0001396976Y0004104133D01*
X0001385013Y0004109098D01*
X0001372060Y0004109111D01*
X0001360089Y0004104165D01*
X0001350921Y0004095014D01*
X0001345953Y0004083051D01*
X0001345944Y0004070099D01*
X0001291160Y0004070099D01*
X0001291172Y0004082995D01*
X0001286225Y0004094966D01*
X0001277074Y0004104133D01*
X0001265112Y0004109098D01*
X0001252159Y0004109111D01*
X0001240188Y0004104165D01*
X0001231021Y0004095014D01*
X0001226053Y0004083051D01*
X0001226042Y0004070099D01*
X0001171259Y0004070099D01*
X0001171270Y0004082995D01*
X0001166324Y0004094966D01*
X0001157173Y0004104133D01*
X0001145210Y0004109098D01*
X0001132257Y0004109111D01*
X0001120286Y0004104165D01*
X0001111119Y0004095014D01*
X0001106152Y0004083051D01*
X0001106141Y0004070099D01*
X0001051357Y0004070099D01*
X0001051368Y0004082995D01*
X0001046422Y0004094966D01*
X0001037271Y0004104133D01*
X0001025309Y0004109098D01*
X0001012356Y0004109111D01*
X0001000385Y0004104165D01*
X0000991218Y0004095014D01*
X0000986250Y0004083051D01*
X0000986239Y0004070099D01*
X0000931455Y0004070099D01*
X0000931467Y0004082995D01*
X0000926519Y0004094966D01*
X0000917369Y0004104133D01*
X0000905407Y0004109098D01*
X0000892454Y0004109111D01*
X0000880483Y0004104165D01*
X0000871316Y0004095014D01*
X0000866349Y0004083051D01*
X0000866337Y0004070099D01*
X0000811554Y0004070099D01*
X0000811565Y0004082995D01*
X0000806619Y0004094966D01*
X0000797468Y0004104133D01*
X0000785505Y0004109098D01*
X0000772553Y0004109111D01*
X0000760581Y0004104165D01*
X0000751414Y0004095014D01*
X0000746447Y0004083051D01*
X0000746436Y0004070099D01*
X0000691652Y0004070099D01*
X0000691664Y0004082995D01*
X0000686716Y0004094966D01*
X0000677566Y0004104133D01*
X0000665604Y0004109098D01*
X0000652651Y0004109111D01*
X0000640680Y0004104165D01*
X0000631513Y0004095014D01*
X0000626546Y0004083051D01*
X0000626534Y0004070099D01*
X0000571751Y0004070099D01*
X0000571762Y0004082995D01*
X0000566816Y0004094966D01*
X0000557665Y0004104133D01*
X0000545702Y0004109098D01*
X0000532749Y0004109111D01*
X0000520777Y0004104165D01*
X0000511611Y0004095014D01*
X0000506644Y0004083051D01*
X0000506633Y0004070099D01*
X0000451849Y0004070099D01*
X0000451861Y0004082995D01*
X0000446914Y0004094966D01*
X0000437762Y0004104133D01*
X0000425800Y0004109098D01*
X0000412848Y0004109111D01*
X0000400877Y0004104165D01*
X0000391710Y0004095014D01*
X0000386741Y0004083051D01*
X0000386731Y0004070099D01*
X0000005969Y0004070099D01*
X0000005969Y0004141704D01*
X0000095379Y0004141704D01*
X0000099985Y0004118547D01*
X0000113102Y0004098916D01*
X0000132733Y0004085797D01*
X0000155890Y0004081190D01*
X0000179047Y0004085797D01*
X0000198679Y0004098916D01*
X0000206782Y0004111042D01*
X0000446574Y0004111042D01*
X0000451519Y0004099071D01*
X0000460671Y0004089905D01*
X0000472634Y0004084938D01*
X0000485586Y0004084927D01*
X0000497557Y0004089873D01*
X0000506725Y0004099024D01*
X0000511692Y0004110985D01*
X0000511692Y0004111042D01*
X0000566475Y0004111042D01*
X0000571422Y0004099071D01*
X0000580573Y0004089905D01*
X0000592535Y0004084938D01*
X0000605488Y0004084927D01*
X0000617459Y0004089873D01*
X0000626626Y0004099024D01*
X0000631593Y0004110985D01*
X0000631593Y0004111042D01*
X0000686377Y0004111042D01*
X0000691323Y0004099071D01*
X0000700474Y0004089905D01*
X0000712437Y0004084938D01*
X0000725390Y0004084927D01*
X0000737361Y0004089873D01*
X0000746528Y0004099024D01*
X0000751494Y0004110985D01*
X0000751494Y0004111042D01*
X0000806278Y0004111042D01*
X0000811225Y0004099071D01*
X0000820376Y0004089905D01*
X0000832338Y0004084938D01*
X0000845291Y0004084927D01*
X0000857262Y0004089873D01*
X0000866429Y0004099024D01*
X0000871396Y0004110985D01*
X0000871397Y0004111042D01*
X0000926180Y0004111042D01*
X0000931126Y0004099071D01*
X0000940277Y0004089905D01*
X0000952240Y0004084938D01*
X0000965193Y0004084927D01*
X0000977164Y0004089873D01*
X0000986331Y0004099024D01*
X0000991297Y0004110985D01*
X0000991297Y0004111042D01*
X0001046082Y0004111042D01*
X0001051028Y0004099071D01*
X0001060179Y0004089905D01*
X0001072141Y0004084938D01*
X0001085094Y0004084927D01*
X0001097065Y0004089873D01*
X0001106232Y0004099024D01*
X0001111200Y0004110985D01*
X0001111200Y0004111042D01*
X0001165983Y0004111042D01*
X0001170930Y0004099071D01*
X0001180080Y0004089905D01*
X0001192043Y0004084938D01*
X0001204996Y0004084927D01*
X0001216967Y0004089873D01*
X0001226134Y0004099024D01*
X0001231101Y0004110985D01*
X0001231101Y0004111042D01*
X0001285885Y0004111042D01*
X0001290830Y0004099071D01*
X0001299982Y0004089905D01*
X0001311945Y0004084938D01*
X0001324897Y0004084927D01*
X0001336869Y0004089873D01*
X0001346036Y0004099024D01*
X0001351003Y0004110985D01*
X0001351003Y0004111042D01*
X0001405786Y0004111042D01*
X0001410733Y0004099071D01*
X0001419884Y0004089905D01*
X0001431846Y0004084938D01*
X0001444799Y0004084927D01*
X0001456770Y0004089873D01*
X0001465937Y0004099024D01*
X0001470904Y0004110985D01*
X0001470904Y0004111042D01*
X0001525688Y0004111042D01*
X0001530633Y0004099071D01*
X0001539785Y0004089905D01*
X0001551748Y0004084938D01*
X0001564701Y0004084927D01*
X0001576672Y0004089873D01*
X0001585839Y0004099024D01*
X0001590806Y0004110985D01*
X0001590806Y0004111042D01*
X0001645589Y0004111042D01*
X0001650536Y0004099071D01*
X0001659687Y0004089905D01*
X0001671649Y0004084938D01*
X0001684602Y0004084927D01*
X0001696573Y0004089873D01*
X0001705740Y0004099024D01*
X0001710707Y0004110985D01*
X0001710708Y0004111042D01*
X0001765491Y0004111042D01*
X0001770436Y0004099071D01*
X0001779588Y0004089905D01*
X0001791551Y0004084938D01*
X0001804504Y0004084927D01*
X0001816475Y0004089873D01*
X0001825642Y0004099024D01*
X0001830609Y0004110985D01*
X0001830609Y0004111042D01*
X0001885393Y0004111042D01*
X0001890339Y0004099071D01*
X0001899490Y0004089905D01*
X0001911452Y0004084938D01*
X0001924405Y0004084927D01*
X0001936376Y0004089873D01*
X0001945543Y0004099024D01*
X0001950511Y0004110985D01*
X0001950511Y0004111042D01*
X0002005294Y0004111042D01*
X0002010241Y0004099071D01*
X0002019391Y0004089905D01*
X0002031353Y0004084938D01*
X0002044306Y0004084927D01*
X0002056277Y0004089873D01*
X0002065445Y0004099024D01*
X0002070412Y0004110985D01*
X0002070412Y0004111042D01*
X0002125196Y0004111042D01*
X0002130142Y0004099071D01*
X0002139293Y0004089905D01*
X0002151256Y0004084938D01*
X0002164208Y0004084927D01*
X0002176180Y0004089873D01*
X0002185347Y0004099024D01*
X0002190314Y0004110985D01*
X0002190314Y0004111042D01*
X0002245097Y0004111042D01*
X0002250044Y0004099071D01*
X0002259195Y0004089905D01*
X0002271157Y0004084938D01*
X0002284110Y0004084927D01*
X0002296081Y0004089873D01*
X0002305248Y0004099024D01*
X0002310215Y0004110985D01*
X0002310215Y0004111042D01*
X0002364999Y0004111042D01*
X0002369945Y0004099071D01*
X0002379096Y0004089905D01*
X0002391059Y0004084938D01*
X0002404012Y0004084927D01*
X0002415983Y0004089873D01*
X0002425150Y0004099024D01*
X0002430117Y0004110985D01*
X0002430117Y0004111042D01*
X0002484900Y0004111042D01*
X0002489847Y0004099071D01*
X0002498998Y0004089905D01*
X0002510960Y0004084938D01*
X0002523913Y0004084927D01*
X0002535884Y0004089873D01*
X0002545051Y0004099024D01*
X0002550019Y0004110985D01*
X0002550029Y0004123939D01*
X0002545083Y0004135911D01*
X0002535932Y0004145078D01*
X0002523970Y0004150045D01*
X0002511017Y0004150056D01*
X0002499046Y0004145110D01*
X0002489879Y0004135957D01*
X0002484912Y0004123996D01*
X0002484900Y0004111042D01*
X0002430117Y0004111042D01*
X0002430128Y0004123939D01*
X0002425182Y0004135911D01*
X0002416031Y0004145078D01*
X0002404068Y0004150045D01*
X0002391116Y0004150056D01*
X0002379144Y0004145110D01*
X0002369977Y0004135957D01*
X0002365010Y0004123996D01*
X0002364999Y0004111042D01*
X0002310215Y0004111042D01*
X0002310227Y0004123939D01*
X0002305280Y0004135911D01*
X0002296129Y0004145078D01*
X0002284167Y0004150045D01*
X0002271214Y0004150056D01*
X0002259243Y0004145110D01*
X0002250076Y0004135957D01*
X0002245109Y0004123996D01*
X0002245097Y0004111042D01*
X0002190314Y0004111042D01*
X0002190325Y0004123939D01*
X0002185379Y0004135911D01*
X0002176228Y0004145078D01*
X0002164265Y0004150045D01*
X0002151312Y0004150056D01*
X0002139341Y0004145110D01*
X0002130174Y0004135957D01*
X0002125207Y0004123996D01*
X0002125196Y0004111042D01*
X0002070412Y0004111042D01*
X0002070424Y0004123939D01*
X0002065477Y0004135911D01*
X0002056325Y0004145078D01*
X0002044363Y0004150045D01*
X0002031410Y0004150056D01*
X0002019440Y0004145110D01*
X0002010273Y0004135957D01*
X0002005305Y0004123996D01*
X0002005294Y0004111042D01*
X0001950511Y0004111042D01*
X0001950522Y0004123939D01*
X0001945575Y0004135911D01*
X0001936425Y0004145078D01*
X0001924462Y0004150045D01*
X0001911509Y0004150056D01*
X0001899538Y0004145110D01*
X0001890371Y0004135957D01*
X0001885404Y0004123996D01*
X0001885393Y0004111042D01*
X0001830609Y0004111042D01*
X0001830620Y0004123939D01*
X0001825674Y0004135911D01*
X0001816523Y0004145078D01*
X0001804560Y0004150045D01*
X0001791608Y0004150056D01*
X0001779637Y0004145110D01*
X0001770470Y0004135957D01*
X0001765502Y0004123996D01*
X0001765491Y0004111042D01*
X0001710708Y0004111042D01*
X0001710719Y0004123939D01*
X0001705772Y0004135911D01*
X0001696621Y0004145078D01*
X0001684659Y0004150045D01*
X0001671706Y0004150056D01*
X0001659735Y0004145110D01*
X0001650568Y0004135957D01*
X0001645601Y0004123996D01*
X0001645589Y0004111042D01*
X0001590806Y0004111042D01*
X0001590817Y0004123939D01*
X0001585871Y0004135911D01*
X0001576720Y0004145078D01*
X0001564757Y0004150045D01*
X0001551805Y0004150056D01*
X0001539833Y0004145110D01*
X0001530666Y0004135957D01*
X0001525699Y0004123996D01*
X0001525688Y0004111042D01*
X0001470904Y0004111042D01*
X0001470916Y0004123939D01*
X0001465969Y0004135911D01*
X0001456818Y0004145078D01*
X0001444856Y0004150045D01*
X0001431903Y0004150056D01*
X0001419932Y0004145110D01*
X0001410765Y0004135957D01*
X0001405798Y0004123996D01*
X0001405786Y0004111042D01*
X0001351003Y0004111042D01*
X0001351014Y0004123939D01*
X0001346068Y0004135911D01*
X0001336917Y0004145078D01*
X0001324954Y0004150045D01*
X0001311999Y0004150056D01*
X0001300030Y0004145110D01*
X0001290863Y0004135957D01*
X0001285896Y0004123996D01*
X0001285885Y0004111042D01*
X0001231101Y0004111042D01*
X0001231112Y0004123939D01*
X0001226166Y0004135911D01*
X0001217015Y0004145078D01*
X0001205053Y0004150045D01*
X0001192100Y0004150056D01*
X0001180129Y0004145110D01*
X0001170962Y0004135957D01*
X0001165994Y0004123996D01*
X0001165983Y0004111042D01*
X0001111200Y0004111042D01*
X0001111211Y0004123939D01*
X0001106265Y0004135911D01*
X0001097114Y0004145078D01*
X0001085151Y0004150045D01*
X0001072198Y0004150056D01*
X0001060227Y0004145110D01*
X0001051060Y0004135957D01*
X0001046092Y0004123996D01*
X0001046082Y0004111042D01*
X0000991297Y0004111042D01*
X0000991309Y0004123939D01*
X0000986363Y0004135911D01*
X0000977212Y0004145078D01*
X0000965249Y0004150045D01*
X0000952297Y0004150056D01*
X0000940326Y0004145110D01*
X0000931159Y0004135957D01*
X0000926191Y0004123996D01*
X0000926180Y0004111042D01*
X0000871397Y0004111042D01*
X0000871408Y0004123939D01*
X0000866461Y0004135911D01*
X0000857310Y0004145078D01*
X0000845348Y0004150045D01*
X0000832395Y0004150056D01*
X0000820424Y0004145110D01*
X0000811257Y0004135957D01*
X0000806290Y0004123996D01*
X0000806278Y0004111042D01*
X0000751494Y0004111042D01*
X0000751506Y0004123939D01*
X0000746560Y0004135911D01*
X0000737409Y0004145078D01*
X0000725446Y0004150045D01*
X0000712494Y0004150056D01*
X0000700521Y0004145110D01*
X0000691355Y0004135957D01*
X0000686388Y0004123996D01*
X0000686377Y0004111042D01*
X0000631593Y0004111042D01*
X0000631605Y0004123939D01*
X0000626658Y0004135911D01*
X0000617507Y0004145078D01*
X0000605545Y0004150045D01*
X0000592592Y0004150056D01*
X0000580621Y0004145110D01*
X0000571454Y0004135957D01*
X0000566487Y0004123996D01*
X0000566475Y0004111042D01*
X0000511692Y0004111042D01*
X0000511703Y0004123939D01*
X0000506757Y0004135911D01*
X0000497606Y0004145078D01*
X0000485643Y0004150045D01*
X0000472690Y0004150056D01*
X0000460719Y0004145110D01*
X0000451552Y0004135957D01*
X0000446585Y0004123996D01*
X0000446574Y0004111042D01*
X0000206782Y0004111042D01*
X0000211796Y0004118547D01*
X0000216402Y0004141704D01*
X0000214200Y0004152776D01*
X0000386731Y0004152776D01*
X0000391678Y0004140805D01*
X0000400829Y0004131636D01*
X0000412791Y0004126670D01*
X0000425743Y0004126659D01*
X0000437715Y0004131605D01*
X0000446881Y0004140755D01*
X0000451849Y0004152719D01*
X0000451849Y0004152776D01*
X0000506633Y0004152776D01*
X0000511579Y0004140805D01*
X0000520730Y0004131636D01*
X0000532693Y0004126670D01*
X0000545645Y0004126659D01*
X0000557617Y0004131605D01*
X0000566784Y0004140755D01*
X0000571751Y0004152719D01*
X0000571751Y0004152776D01*
X0000626534Y0004152776D01*
X0000631481Y0004140805D01*
X0000640632Y0004131636D01*
X0000652594Y0004126670D01*
X0000665547Y0004126659D01*
X0000677518Y0004131605D01*
X0000686685Y0004140755D01*
X0000691652Y0004152719D01*
X0000691652Y0004152776D01*
X0000746436Y0004152776D01*
X0000751382Y0004140805D01*
X0000760532Y0004131636D01*
X0000772496Y0004126670D01*
X0000785449Y0004126659D01*
X0000797420Y0004131605D01*
X0000806587Y0004140755D01*
X0000811554Y0004152719D01*
X0000811554Y0004152776D01*
X0000866337Y0004152776D01*
X0000871284Y0004140805D01*
X0000880435Y0004131636D01*
X0000892397Y0004126670D01*
X0000905350Y0004126659D01*
X0000917321Y0004131605D01*
X0000926488Y0004140755D01*
X0000931455Y0004152719D01*
X0000931455Y0004152776D01*
X0000986239Y0004152776D01*
X0000991185Y0004140805D01*
X0001000335Y0004131636D01*
X0001012299Y0004126670D01*
X0001025252Y0004126659D01*
X0001037223Y0004131605D01*
X0001046389Y0004140755D01*
X0001051357Y0004152719D01*
X0001051357Y0004152776D01*
X0001106141Y0004152776D01*
X0001111087Y0004140805D01*
X0001120238Y0004131636D01*
X0001132200Y0004126670D01*
X0001145153Y0004126659D01*
X0001157124Y0004131605D01*
X0001166291Y0004140755D01*
X0001171259Y0004152719D01*
X0001171259Y0004152776D01*
X0001226042Y0004152776D01*
X0001230989Y0004140805D01*
X0001240140Y0004131636D01*
X0001252102Y0004126670D01*
X0001265055Y0004126659D01*
X0001277026Y0004131605D01*
X0001286193Y0004140755D01*
X0001291160Y0004152719D01*
X0001291160Y0004152776D01*
X0001345944Y0004152776D01*
X0001350890Y0004140805D01*
X0001360041Y0004131636D01*
X0001372004Y0004126670D01*
X0001384956Y0004126659D01*
X0001396928Y0004131605D01*
X0001406095Y0004140755D01*
X0001411062Y0004152719D01*
X0001411062Y0004152776D01*
X0001465845Y0004152776D01*
X0001470792Y0004140805D01*
X0001479943Y0004131636D01*
X0001491905Y0004126670D01*
X0001504858Y0004126659D01*
X0001516829Y0004131605D01*
X0001525996Y0004140755D01*
X0001530963Y0004152719D01*
X0001530963Y0004152776D01*
X0001585747Y0004152776D01*
X0001590693Y0004140805D01*
X0001599844Y0004131636D01*
X0001611807Y0004126670D01*
X0001624760Y0004126659D01*
X0001636731Y0004131605D01*
X0001645898Y0004140755D01*
X0001650865Y0004152719D01*
X0001650865Y0004152776D01*
X0001705648Y0004152776D01*
X0001710595Y0004140805D01*
X0001719746Y0004131636D01*
X0001731708Y0004126670D01*
X0001744661Y0004126659D01*
X0001756632Y0004131605D01*
X0001765799Y0004140755D01*
X0001770767Y0004152719D01*
X0001770767Y0004152776D01*
X0001825550Y0004152776D01*
X0001830496Y0004140805D01*
X0001839647Y0004131636D01*
X0001851610Y0004126670D01*
X0001864563Y0004126659D01*
X0001876534Y0004131605D01*
X0001885701Y0004140755D01*
X0001890668Y0004152719D01*
X0001890668Y0004152776D01*
X0001945451Y0004152776D01*
X0001950397Y0004140805D01*
X0001959549Y0004131636D01*
X0001971512Y0004126670D01*
X0001984464Y0004126659D01*
X0001996435Y0004131605D01*
X0002005602Y0004140755D01*
X0002010570Y0004152719D01*
X0002010570Y0004152776D01*
X0002065353Y0004152776D01*
X0002070300Y0004140805D01*
X0002079451Y0004131636D01*
X0002091413Y0004126670D01*
X0002104366Y0004126659D01*
X0002116337Y0004131605D01*
X0002125504Y0004140755D01*
X0002130471Y0004152719D01*
X0002130471Y0004152776D01*
X0002185255Y0004152776D01*
X0002190201Y0004140805D01*
X0002199352Y0004131636D01*
X0002211315Y0004126670D01*
X0002224267Y0004126659D01*
X0002236239Y0004131605D01*
X0002245406Y0004140755D01*
X0002250373Y0004152719D01*
X0002250373Y0004152776D01*
X0002305156Y0004152776D01*
X0002310103Y0004140805D01*
X0002319254Y0004131636D01*
X0002331216Y0004126670D01*
X0002344169Y0004126659D01*
X0002356140Y0004131605D01*
X0002365307Y0004140755D01*
X0002370274Y0004152719D01*
X0002370274Y0004152776D01*
X0002425058Y0004152776D01*
X0002430004Y0004140805D01*
X0002439155Y0004131636D01*
X0002451118Y0004126670D01*
X0002464071Y0004126659D01*
X0002476042Y0004131605D01*
X0002485209Y0004140755D01*
X0002490176Y0004152719D01*
X0002490176Y0004152776D01*
X0002544959Y0004152776D01*
X0002549905Y0004140805D01*
X0002559057Y0004131636D01*
X0002571018Y0004126670D01*
X0002583972Y0004126659D01*
X0002595942Y0004131605D01*
X0002605110Y0004140755D01*
X0002605504Y0004141704D01*
X0002772544Y0004141704D01*
X0002777150Y0004118547D01*
X0002790267Y0004098916D01*
X0002809899Y0004085797D01*
X0002833056Y0004081190D01*
X0002856212Y0004085797D01*
X0002875844Y0004098916D01*
X0002888960Y0004118547D01*
X0002893567Y0004141704D01*
X0002888960Y0004164861D01*
X0002875844Y0004184491D01*
X0002856212Y0004197610D01*
X0002833056Y0004202216D01*
X0002809899Y0004197610D01*
X0002790267Y0004184491D01*
X0002777150Y0004164861D01*
X0002772544Y0004141704D01*
X0002605504Y0004141704D01*
X0002610078Y0004152719D01*
X0002610089Y0004165672D01*
X0002605142Y0004177643D01*
X0002595991Y0004186810D01*
X0002584029Y0004191777D01*
X0002571076Y0004191788D01*
X0002559105Y0004186842D01*
X0002549938Y0004177691D01*
X0002544971Y0004165729D01*
X0002544959Y0004152776D01*
X0002490176Y0004152776D01*
X0002490187Y0004165672D01*
X0002485241Y0004177643D01*
X0002476090Y0004186810D01*
X0002464127Y0004191777D01*
X0002451175Y0004191788D01*
X0002439203Y0004186842D01*
X0002430036Y0004177691D01*
X0002425069Y0004165729D01*
X0002425058Y0004152776D01*
X0002370274Y0004152776D01*
X0002370286Y0004165672D01*
X0002365339Y0004177643D01*
X0002356188Y0004186810D01*
X0002344226Y0004191777D01*
X0002331273Y0004191788D01*
X0002319302Y0004186842D01*
X0002310135Y0004177691D01*
X0002305168Y0004165729D01*
X0002305156Y0004152776D01*
X0002250373Y0004152776D01*
X0002250384Y0004165672D01*
X0002245438Y0004177643D01*
X0002236287Y0004186810D01*
X0002224324Y0004191777D01*
X0002211371Y0004191788D01*
X0002199400Y0004186842D01*
X0002190233Y0004177691D01*
X0002185266Y0004165729D01*
X0002185255Y0004152776D01*
X0002130471Y0004152776D01*
X0002130483Y0004165672D01*
X0002125536Y0004177643D01*
X0002116385Y0004186810D01*
X0002104423Y0004191777D01*
X0002091470Y0004191788D01*
X0002079499Y0004186842D01*
X0002070332Y0004177691D01*
X0002065365Y0004165729D01*
X0002065353Y0004152776D01*
X0002010570Y0004152776D01*
X0002010581Y0004165672D01*
X0002005634Y0004177643D01*
X0001996483Y0004186810D01*
X0001984521Y0004191777D01*
X0001971568Y0004191788D01*
X0001959597Y0004186842D01*
X0001950430Y0004177691D01*
X0001945463Y0004165729D01*
X0001945451Y0004152776D01*
X0001890668Y0004152776D01*
X0001890679Y0004165672D01*
X0001885732Y0004177643D01*
X0001876582Y0004186810D01*
X0001864619Y0004191777D01*
X0001851667Y0004191788D01*
X0001839696Y0004186842D01*
X0001830529Y0004177691D01*
X0001825560Y0004165729D01*
X0001825550Y0004152776D01*
X0001770767Y0004152776D01*
X0001770778Y0004165672D01*
X0001765831Y0004177643D01*
X0001756680Y0004186810D01*
X0001744718Y0004191777D01*
X0001731765Y0004191788D01*
X0001719794Y0004186842D01*
X0001710627Y0004177691D01*
X0001705660Y0004165729D01*
X0001705648Y0004152776D01*
X0001650865Y0004152776D01*
X0001650876Y0004165672D01*
X0001645930Y0004177643D01*
X0001636779Y0004186810D01*
X0001624816Y0004191777D01*
X0001611864Y0004191788D01*
X0001599892Y0004186842D01*
X0001590724Y0004177691D01*
X0001585757Y0004165729D01*
X0001585747Y0004152776D01*
X0001530963Y0004152776D01*
X0001530975Y0004165672D01*
X0001526028Y0004177643D01*
X0001516877Y0004186810D01*
X0001504915Y0004191777D01*
X0001491962Y0004191788D01*
X0001479991Y0004186842D01*
X0001470824Y0004177691D01*
X0001465857Y0004165729D01*
X0001465845Y0004152776D01*
X0001411062Y0004152776D01*
X0001411073Y0004165672D01*
X0001406127Y0004177643D01*
X0001396976Y0004186810D01*
X0001385013Y0004191777D01*
X0001372060Y0004191788D01*
X0001360089Y0004186842D01*
X0001350921Y0004177691D01*
X0001345953Y0004165729D01*
X0001345944Y0004152776D01*
X0001291160Y0004152776D01*
X0001291172Y0004165672D01*
X0001286225Y0004177643D01*
X0001277074Y0004186810D01*
X0001265112Y0004191777D01*
X0001252159Y0004191788D01*
X0001240188Y0004186842D01*
X0001231021Y0004177691D01*
X0001226053Y0004165729D01*
X0001226042Y0004152776D01*
X0001171259Y0004152776D01*
X0001171270Y0004165672D01*
X0001166324Y0004177643D01*
X0001157173Y0004186810D01*
X0001145210Y0004191777D01*
X0001132257Y0004191788D01*
X0001120286Y0004186842D01*
X0001111119Y0004177691D01*
X0001106152Y0004165729D01*
X0001106141Y0004152776D01*
X0001051357Y0004152776D01*
X0001051368Y0004165672D01*
X0001046422Y0004177643D01*
X0001037271Y0004186810D01*
X0001025309Y0004191777D01*
X0001012356Y0004191788D01*
X0001000385Y0004186842D01*
X0000991218Y0004177691D01*
X0000986250Y0004165729D01*
X0000986239Y0004152776D01*
X0000931455Y0004152776D01*
X0000931467Y0004165672D01*
X0000926519Y0004177643D01*
X0000917369Y0004186810D01*
X0000905407Y0004191777D01*
X0000892454Y0004191788D01*
X0000880483Y0004186842D01*
X0000871316Y0004177691D01*
X0000866349Y0004165729D01*
X0000866337Y0004152776D01*
X0000811554Y0004152776D01*
X0000811565Y0004165672D01*
X0000806619Y0004177643D01*
X0000797468Y0004186810D01*
X0000785505Y0004191777D01*
X0000772553Y0004191788D01*
X0000760581Y0004186842D01*
X0000751414Y0004177691D01*
X0000746447Y0004165729D01*
X0000746436Y0004152776D01*
X0000691652Y0004152776D01*
X0000691664Y0004165672D01*
X0000686716Y0004177643D01*
X0000677566Y0004186810D01*
X0000665604Y0004191777D01*
X0000652651Y0004191788D01*
X0000640680Y0004186842D01*
X0000631513Y0004177691D01*
X0000626546Y0004165729D01*
X0000626534Y0004152776D01*
X0000571751Y0004152776D01*
X0000571762Y0004165672D01*
X0000566816Y0004177643D01*
X0000557665Y0004186810D01*
X0000545702Y0004191777D01*
X0000532749Y0004191788D01*
X0000520777Y0004186842D01*
X0000511611Y0004177691D01*
X0000506644Y0004165729D01*
X0000506633Y0004152776D01*
X0000451849Y0004152776D01*
X0000451861Y0004165672D01*
X0000446914Y0004177643D01*
X0000437762Y0004186810D01*
X0000425800Y0004191777D01*
X0000412848Y0004191788D01*
X0000400877Y0004186842D01*
X0000391710Y0004177691D01*
X0000386741Y0004165729D01*
X0000386731Y0004152776D01*
X0000214200Y0004152776D01*
X0000211796Y0004164861D01*
X0000198679Y0004184491D01*
X0000179047Y0004197610D01*
X0000155890Y0004202216D01*
X0000132733Y0004197610D01*
X0000113102Y0004184491D01*
X0000099985Y0004164861D01*
X0000095379Y0004141704D01*
X0000005969Y0004141704D01*
X0000005969Y0004219322D01*
X0000011650Y0004247882D01*
X0000027526Y0004271643D01*
X0000051287Y0004287519D01*
X0000079847Y0004293200D01*
X0002913036Y0004293200D01*
X0002941596Y0004287519D01*
G01G01G01G01G01G01G01G01*
D25*
D26*
X0003070866Y0004291338D02*
X0003435433Y0004146454D03*
D27*
G36*
X0003251678Y0004270855D02*
X0003278667Y0004264799D01*
X0003292165Y0004256932D01*
X0003292188Y0004256924D01*
X0003292205Y0004256909D01*
X0003306245Y0004248886D01*
X0003307073Y0004248609D01*
X0003307881Y0004248277D01*
X0003332029Y0004243526D01*
X0003332555Y0004243527D01*
X0003333070Y0004243425D01*
X0003434901Y0004243425D01*
X0003472482Y0004235949D01*
X0003503891Y0004214963D01*
X0003524877Y0004183554D01*
X0003532247Y0004146504D01*
X0003524877Y0004109454D01*
X0003503891Y0004078045D01*
X0003472482Y0004057060D01*
X0003435144Y0004049632D01*
X0003333070Y0004049632D01*
X0003332748Y0004049568D01*
X0003332421Y0004049593D01*
X0003317327Y0004047761D01*
X0003316517Y0004047494D01*
X0003315689Y0004047293D01*
X0003293382Y0004036851D01*
X0003293338Y0004036818D01*
X0003293285Y0004036804D01*
X0003268006Y0004024351D01*
X0003251911Y0004022025D01*
X0003078622Y0004021931D01*
X0003078622Y0004270980D01*
X0003251678Y0004270855D01*
X0003251678Y0004270855D01*
G37*
X0003251678Y0004270855D02*
X0003278667Y0004264799D01*
X0003292165Y0004256932D01*
X0003292188Y0004256924D01*
X0003292205Y0004256909D01*
X0003306245Y0004248886D01*
X0003307073Y0004248609D01*
X0003307881Y0004248277D01*
X0003332029Y0004243526D01*
X0003332555Y0004243527D01*
X0003333070Y0004243425D01*
X0003434901Y0004243425D01*
X0003472482Y0004235949D01*
X0003503891Y0004214963D01*
X0003524877Y0004183554D01*
X0003532247Y0004146504D01*
X0003524877Y0004109454D01*
X0003503891Y0004078045D01*
X0003472482Y0004057060D01*
X0003435144Y0004049632D01*
X0003333070Y0004049632D01*
X0003332748Y0004049568D01*
X0003332421Y0004049593D01*
X0003317327Y0004047761D01*
X0003316517Y0004047494D01*
X0003315689Y0004047293D01*
X0003293382Y0004036851D01*
X0003293338Y0004036818D01*
X0003293285Y0004036804D01*
X0003268006Y0004024351D01*
X0003251911Y0004022025D01*
X0003078622Y0004021931D01*
X0003078622Y0004270980D01*
X0003251678Y0004270855D01*
G01G01G01G01G01G01G01G01*
D38*
D39*
X0003070866Y0003937007D02*
X0003435433Y0003792125D03*
D40*
G36*
X0003251678Y0003916525D02*
X0003278667Y0003910468D01*
X0003292165Y0003902601D01*
X0003292188Y0003902594D01*
X0003292205Y0003902578D01*
X0003306245Y0003894555D01*
X0003307073Y0003894278D01*
X0003307881Y0003893946D01*
X0003332029Y0003889195D01*
X0003332555Y0003889197D01*
X0003333070Y0003889094D01*
X0003434901Y0003889094D01*
X0003472482Y0003881619D01*
X0003503891Y0003860632D01*
X0003524877Y0003829223D01*
X0003532247Y0003792173D01*
X0003524877Y0003755124D01*
X0003503891Y0003723715D01*
X0003472482Y0003702729D01*
X0003435144Y0003695302D01*
X0003333070Y0003695302D01*
X0003332748Y0003695237D01*
X0003332421Y0003695263D01*
X0003317327Y0003693431D01*
X0003316517Y0003693166D01*
X0003315689Y0003692962D01*
X0003293382Y0003682520D01*
X0003293338Y0003682487D01*
X0003293285Y0003682472D01*
X0003268006Y0003670020D01*
X0003251911Y0003667694D01*
X0003078622Y0003667601D01*
X0003078622Y0003916649D01*
X0003251678Y0003916525D01*
X0003251678Y0003916525D01*
G37*
X0003251678Y0003916525D02*
X0003278667Y0003910468D01*
X0003292165Y0003902601D01*
X0003292188Y0003902594D01*
X0003292205Y0003902578D01*
X0003306245Y0003894555D01*
X0003307073Y0003894278D01*
X0003307881Y0003893946D01*
X0003332029Y0003889195D01*
X0003332555Y0003889197D01*
X0003333070Y0003889094D01*
X0003434901Y0003889094D01*
X0003472482Y0003881619D01*
X0003503891Y0003860632D01*
X0003524877Y0003829223D01*
X0003532247Y0003792173D01*
X0003524877Y0003755124D01*
X0003503891Y0003723715D01*
X0003472482Y0003702729D01*
X0003435144Y0003695302D01*
X0003333070Y0003695302D01*
X0003332748Y0003695237D01*
X0003332421Y0003695263D01*
X0003317327Y0003693431D01*
X0003316517Y0003693166D01*
X0003315689Y0003692962D01*
X0003293382Y0003682520D01*
X0003293338Y0003682487D01*
X0003293285Y0003682472D01*
X0003268006Y0003670020D01*
X0003251911Y0003667694D01*
X0003078622Y0003667601D01*
X0003078622Y0003916649D01*
X0003251678Y0003916525D01*
G01G01G01G01G01G01G01G01*
D51*
D52*
X0003070866Y0003582677D02*
X0003435433Y0003437795D03*
D53*
G36*
X0003251678Y0003562194D02*
X0003278667Y0003556137D01*
X0003292165Y0003548271D01*
X0003292188Y0003548263D01*
X0003292205Y0003548247D01*
X0003306245Y0003540225D01*
X0003307073Y0003539948D01*
X0003307881Y0003539614D01*
X0003332029Y0003534865D01*
X0003332555Y0003534866D01*
X0003333070Y0003534763D01*
X0003434901Y0003534763D01*
X0003472482Y0003527288D01*
X0003503891Y0003506301D01*
X0003524877Y0003474892D01*
X0003532247Y0003437843D01*
X0003524877Y0003400794D01*
X0003503891Y0003369385D01*
X0003472482Y0003348398D01*
X0003435144Y0003340970D01*
X0003333070Y0003340970D01*
X0003332748Y0003340907D01*
X0003332421Y0003340932D01*
X0003317327Y0003339101D01*
X0003316517Y0003338835D01*
X0003315689Y0003338631D01*
X0003293382Y0003328189D01*
X0003293338Y0003328157D01*
X0003293285Y0003328143D01*
X0003268006Y0003315689D01*
X0003251911Y0003313364D01*
X0003078622Y0003313270D01*
X0003078622Y0003562318D01*
X0003251678Y0003562194D01*
X0003251678Y0003562194D01*
G37*
X0003251678Y0003562194D02*
X0003278667Y0003556137D01*
X0003292165Y0003548271D01*
X0003292188Y0003548263D01*
X0003292205Y0003548247D01*
X0003306245Y0003540225D01*
X0003307073Y0003539948D01*
X0003307881Y0003539614D01*
X0003332029Y0003534865D01*
X0003332555Y0003534866D01*
X0003333070Y0003534763D01*
X0003434901Y0003534763D01*
X0003472482Y0003527288D01*
X0003503891Y0003506301D01*
X0003524877Y0003474892D01*
X0003532247Y0003437843D01*
X0003524877Y0003400794D01*
X0003503891Y0003369385D01*
X0003472482Y0003348398D01*
X0003435144Y0003340970D01*
X0003333070Y0003340970D01*
X0003332748Y0003340907D01*
X0003332421Y0003340932D01*
X0003317327Y0003339101D01*
X0003316517Y0003338835D01*
X0003315689Y0003338631D01*
X0003293382Y0003328189D01*
X0003293338Y0003328157D01*
X0003293285Y0003328143D01*
X0003268006Y0003315689D01*
X0003251911Y0003313364D01*
X0003078622Y0003313270D01*
X0003078622Y0003562318D01*
X0003251678Y0003562194D01*
G04 next file*
G01G01G01G01G01G01G01G01*
D64*
D65*
X0003070866Y0003228346D02*
X0003435433Y0003083464D03*
D66*
G36*
X0003251678Y0003207863D02*
X0003278667Y0003201807D01*
X0003292165Y0003193940D01*
X0003292188Y0003193932D01*
X0003292205Y0003193917D01*
X0003306245Y0003185894D01*
X0003307073Y0003185617D01*
X0003307881Y0003185285D01*
X0003332029Y0003180534D01*
X0003332555Y0003180535D01*
X0003333070Y0003180433D01*
X0003434901Y0003180433D01*
X0003472482Y0003172956D01*
X0003503891Y0003151971D01*
X0003524877Y0003120562D01*
X0003532247Y0003083512D01*
X0003524877Y0003046463D01*
X0003503891Y0003015054D01*
X0003472482Y0002994067D01*
X0003435144Y0002986640D01*
X0003333070Y0002986640D01*
X0003332748Y0002986576D01*
X0003332421Y0002986601D01*
X0003317327Y0002984770D01*
X0003316517Y0002984504D01*
X0003315689Y0002984300D01*
X0003293382Y0002973858D01*
X0003293338Y0002973826D01*
X0003293285Y0002973812D01*
X0003268006Y0002961359D01*
X0003251911Y0002959033D01*
X0003078622Y0002958939D01*
X0003078622Y0003207988D01*
X0003251678Y0003207863D01*
X0003251678Y0003207863D01*
G37*
X0003251678Y0003207863D02*
X0003278667Y0003201807D01*
X0003292165Y0003193940D01*
X0003292188Y0003193932D01*
X0003292205Y0003193917D01*
X0003306245Y0003185894D01*
X0003307073Y0003185617D01*
X0003307881Y0003185285D01*
X0003332029Y0003180534D01*
X0003332555Y0003180535D01*
X0003333070Y0003180433D01*
X0003434901Y0003180433D01*
X0003472482Y0003172956D01*
X0003503891Y0003151971D01*
X0003524877Y0003120562D01*
X0003532247Y0003083512D01*
X0003524877Y0003046463D01*
X0003503891Y0003015054D01*
X0003472482Y0002994067D01*
X0003435144Y0002986640D01*
X0003333070Y0002986640D01*
X0003332748Y0002986576D01*
X0003332421Y0002986601D01*
X0003317327Y0002984770D01*
X0003316517Y0002984504D01*
X0003315689Y0002984300D01*
X0003293382Y0002973858D01*
X0003293338Y0002973826D01*
X0003293285Y0002973812D01*
X0003268006Y0002961359D01*
X0003251911Y0002959033D01*
X0003078622Y0002958939D01*
X0003078622Y0003207988D01*
X0003251678Y0003207863D01*
G01G01G01G01G01G01G01G01*
D77*
G36*
X0003081912Y0001508337D02*
X0003081980Y0001508795D01*
X0003082092Y0001509244D01*
X0003082249Y0001509681D01*
X0003082447Y0001510101D01*
X0003082684Y0001510498D01*
X0003082962Y0001510871D01*
X0003083273Y0001511214D01*
X0003083617Y0001511524D01*
X0003083989Y0001511802D01*
X0003084387Y0001512040D01*
X0003084806Y0001512238D01*
X0003085241Y0001512395D01*
X0003085692Y0001512507D01*
X0003086151Y0001512575D01*
X0003086614Y0001512598D01*
X0003124409Y0001512598D01*
X0003124872Y0001512575D01*
X0003125331Y0001512507D01*
X0003125780Y0001512395D01*
X0003126217Y0001512238D01*
X0003126636Y0001512040D01*
X0003127034Y0001511802D01*
X0003127406Y0001511524D01*
X0003127750Y0001511214D01*
X0003128061Y0001510871D01*
X0003128337Y0001510498D01*
X0003128576Y0001510101D01*
X0003128774Y0001509681D01*
X0003128929Y0001509244D01*
X0003129043Y0001508795D01*
X0003129111Y0001508337D01*
X0003129133Y0001507874D01*
X0003129133Y0001470078D01*
X0003129111Y0001469614D01*
X0003129043Y0001469157D01*
X0003128929Y0001468707D01*
X0003128774Y0001468270D01*
X0003128576Y0001467851D01*
X0003128337Y0001467454D01*
X0003128061Y0001467081D01*
X0003127750Y0001466738D01*
X0003127406Y0001466426D01*
X0003127034Y0001466150D01*
X0003126636Y0001465912D01*
X0003126217Y0001465713D01*
X0003125780Y0001465555D01*
X0003125331Y0001465445D01*
X0003124872Y0001465377D01*
X0003124409Y0001465354D01*
X0003086614Y0001465354D01*
X0003086151Y0001465377D01*
X0003085692Y0001465445D01*
X0003085241Y0001465555D01*
X0003084806Y0001465713D01*
X0003084387Y0001465912D01*
X0003083989Y0001466150D01*
X0003083617Y0001466426D01*
X0003083273Y0001466738D01*
X0003082962Y0001467081D01*
X0003082684Y0001467454D01*
X0003082447Y0001467851D01*
X0003082249Y0001468270D01*
X0003082092Y0001468707D01*
X0003081980Y0001469157D01*
X0003081912Y0001469614D01*
X0003081889Y0001470078D01*
X0003081889Y0001507874D01*
X0003081912Y0001508337D01*
X0003081912Y0001508337D01*
G37*
G36*
X0003082699Y0001938258D02*
X0003082767Y0001938716D01*
X0003082880Y0001939166D01*
X0003083036Y0001939603D01*
X0003083235Y0001940022D01*
X0003083473Y0001940420D01*
X0003083749Y0001940792D01*
X0003084060Y0001941135D01*
X0003084404Y0001941447D01*
X0003084776Y0001941723D01*
X0003085173Y0001941961D01*
X0003085593Y0001942160D01*
X0003086030Y0001942316D01*
X0003086479Y0001942427D01*
X0003086938Y0001942496D01*
X0003087401Y0001942519D01*
X0003125196Y0001942519D01*
X0003125659Y0001942496D01*
X0003126118Y0001942427D01*
X0003126568Y0001942316D01*
X0003127004Y0001942160D01*
X0003127423Y0001941961D01*
X0003127820Y0001941723D01*
X0003128192Y0001941447D01*
X0003128536Y0001941135D01*
X0003128848Y0001940792D01*
X0003129125Y0001940420D01*
X0003129362Y0001940022D01*
X0003129561Y0001939603D01*
X0003129717Y0001939166D01*
X0003129830Y0001938716D01*
X0003129898Y0001938258D01*
X0003129921Y0001937795D01*
X0003129921Y0001900000D01*
X0003129898Y0001899536D01*
X0003129830Y0001899078D01*
X0003129717Y0001898628D01*
X0003129561Y0001898192D01*
X0003129362Y0001897772D01*
X0003129125Y0001897375D01*
X0003128848Y0001897002D01*
X0003128536Y0001896658D01*
X0003128192Y0001896347D01*
X0003127820Y0001896071D01*
X0003127423Y0001895833D01*
X0003127004Y0001895635D01*
X0003126568Y0001895479D01*
X0003126118Y0001895366D01*
X0003125659Y0001895298D01*
X0003125196Y0001895275D01*
X0003087401Y0001895275D01*
X0003086938Y0001895298D01*
X0003086479Y0001895366D01*
X0003086030Y0001895479D01*
X0003085593Y0001895635D01*
X0003085173Y0001895833D01*
X0003084776Y0001896071D01*
X0003084404Y0001896347D01*
X0003084060Y0001896658D01*
X0003083749Y0001897002D01*
X0003083473Y0001897375D01*
X0003083235Y0001897772D01*
X0003083036Y0001898192D01*
X0003082880Y0001898628D01*
X0003082767Y0001899078D01*
X0003082699Y0001899536D01*
X0003082677Y0001900000D01*
X0003082677Y0001937795D01*
X0003082699Y0001938258D01*
X0003082699Y0001938258D01*
G37*
G36*
X0003232298Y0001746765D02*
X0003232343Y0001747070D01*
X0003232419Y0001747370D01*
X0003232523Y0001747662D01*
X0003232655Y0001747941D01*
X0003232814Y0001748206D01*
X0003232998Y0001748454D01*
X0003233204Y0001748682D01*
X0003233435Y0001748891D01*
X0003233683Y0001749075D01*
X0003233948Y0001749233D01*
X0003234227Y0001749366D01*
X0003234518Y0001749470D01*
X0003234818Y0001749545D01*
X0003235124Y0001749591D01*
X0003235433Y0001749605D01*
X0003260629Y0001749605D01*
X0003260938Y0001749591D01*
X0003261244Y0001749545D01*
X0003261544Y0001749470D01*
X0003261835Y0001749366D01*
X0003262114Y0001749233D01*
X0003262379Y0001749075D01*
X0003262627Y0001748891D01*
X0003262857Y0001748682D01*
X0003263064Y0001748454D01*
X0003263248Y0001748206D01*
X0003263407Y0001747941D01*
X0003263539Y0001747662D01*
X0003263643Y0001747370D01*
X0003263719Y0001747070D01*
X0003263764Y0001746765D01*
X0003263779Y0001746456D01*
X0003263779Y0001666141D01*
X0003263764Y0001665832D01*
X0003263718Y0001665527D01*
X0003263643Y0001665227D01*
X0003263539Y0001664936D01*
X0003263407Y0001664657D01*
X0003263248Y0001664391D01*
X0003263064Y0001664143D01*
X0003262857Y0001663914D01*
X0003262627Y0001663707D01*
X0003262379Y0001663522D01*
X0003262114Y0001663364D01*
X0003261835Y0001663231D01*
X0003261544Y0001663127D01*
X0003261244Y0001663052D01*
X0003260938Y0001663007D01*
X0003260629Y0001662992D01*
X0003235433Y0001662992D01*
X0003235124Y0001663007D01*
X0003234818Y0001663052D01*
X0003234518Y0001663127D01*
X0003234227Y0001663231D01*
X0003233948Y0001663364D01*
X0003233683Y0001663522D01*
X0003233435Y0001663707D01*
X0003233204Y0001663914D01*
X0003232998Y0001664143D01*
X0003232814Y0001664391D01*
X0003232655Y0001664657D01*
X0003232523Y0001664936D01*
X0003232419Y0001665227D01*
X0003232343Y0001665527D01*
X0003232298Y0001665832D01*
X0003232282Y0001666141D01*
X0003232282Y0001746456D01*
X0003232298Y0001746765D01*
X0003232298Y0001746765D01*
G37*
D78*
G36*
X0003097253Y0001878464D02*
X0003101456Y0001882667D01*
X0003101456Y0001914055D01*
X0003100669Y0001914055D01*
X0003100669Y0001923740D01*
X0003101456Y0001923740D01*
X0003101456Y0001924527D01*
X0003111141Y0001924527D01*
X0003111141Y0001923740D01*
X0003142529Y0001923740D01*
X0003146732Y0001927942D01*
X0003146732Y0001934370D01*
X0003241439Y0001934370D01*
X0003246940Y0001933275D01*
X0003251021Y0001930548D01*
X0003253748Y0001926466D01*
X0003254841Y0001920967D01*
X0003254841Y0001774025D01*
X0003248936Y0001768120D01*
X0003248936Y0001707204D01*
X0003249724Y0001707204D01*
X0003249724Y0001705393D01*
X0003248936Y0001705393D01*
X0003248936Y0001644478D01*
X0003254841Y0001638572D01*
X0003254841Y0001487300D01*
X0003253748Y0001481799D01*
X0003251021Y0001477718D01*
X0003246940Y0001474991D01*
X0003241439Y0001473897D01*
X0003227373Y0001473897D01*
X0003227373Y0001638307D01*
X0003240954Y0001638307D01*
X0003247125Y0001644478D01*
X0003247125Y0001705393D01*
X0003213769Y0001705393D01*
X0003213769Y0001707204D01*
X0003247125Y0001707204D01*
X0003247125Y0001768120D01*
X0003240954Y0001774291D01*
X0003227373Y0001774291D01*
X0003218300Y0001770533D01*
X0003211356Y0001763589D01*
X0003207598Y0001754516D01*
X0003207598Y0001713375D01*
X0003213769Y0001707204D01*
X0003213769Y0001705393D01*
X0003207598Y0001699220D01*
X0003207598Y0001658081D01*
X0003211356Y0001649009D01*
X0003218300Y0001642065D01*
X0003227373Y0001638307D01*
X0003227373Y0001473897D01*
X0003145943Y0001473897D01*
X0003145943Y0001479931D01*
X0003141742Y0001484133D01*
X0003110354Y0001484133D01*
X0003110354Y0001493818D01*
X0003141742Y0001493818D01*
X0003145943Y0001498021D01*
X0003145943Y0001515942D01*
X0003143385Y0001522121D01*
X0003138655Y0001526850D01*
X0003132476Y0001529409D01*
X0003115344Y0001529409D01*
X0003115344Y0001878464D01*
X0003133265Y0001878464D01*
X0003139443Y0001881021D01*
X0003144172Y0001885752D01*
X0003146732Y0001891931D01*
X0003146732Y0001909852D01*
X0003142529Y0001914055D01*
X0003111141Y0001914055D01*
X0003111141Y0001882667D01*
X0003115344Y0001878464D01*
X0003115344Y0001529409D01*
X0003114557Y0001529409D01*
X0003110354Y0001525205D01*
X0003110354Y0001493818D01*
X0003110354Y0001484133D01*
X0003110354Y0001483346D01*
X0003100669Y0001483346D01*
X0003100669Y0001484133D01*
X0003099880Y0001484133D01*
X0003099880Y0001493818D01*
X0003100669Y0001493818D01*
X0003100669Y0001525205D01*
X0003096466Y0001529409D01*
X0003090826Y0001529409D01*
X0003090826Y0001878464D01*
X0003097253Y0001878464D01*
X0003097253Y0001878464D01*
G37*
X0003097253Y0001878464D02*
X0003101456Y0001882667D01*
X0003101456Y0001914055D01*
X0003100669Y0001914055D01*
X0003100669Y0001923740D01*
X0003101456Y0001923740D01*
X0003101456Y0001924527D01*
X0003111141Y0001924527D01*
X0003111141Y0001923740D01*
X0003142529Y0001923740D01*
X0003146732Y0001927942D01*
X0003146732Y0001934370D01*
X0003241439Y0001934370D01*
X0003246940Y0001933275D01*
X0003251021Y0001930548D01*
X0003253748Y0001926466D01*
X0003254841Y0001920967D01*
X0003254841Y0001774025D01*
X0003248936Y0001768120D01*
X0003248936Y0001707204D01*
X0003249724Y0001707204D01*
X0003249724Y0001705393D01*
X0003248936Y0001705393D01*
X0003248936Y0001644478D01*
X0003254841Y0001638572D01*
X0003254841Y0001487300D01*
X0003253748Y0001481799D01*
X0003251021Y0001477718D01*
X0003246940Y0001474991D01*
X0003241439Y0001473897D01*
X0003227373Y0001473897D01*
X0003227373Y0001638307D01*
X0003240954Y0001638307D01*
X0003247125Y0001644478D01*
X0003247125Y0001705393D01*
X0003213769Y0001705393D01*
X0003213769Y0001707204D01*
X0003247125Y0001707204D01*
X0003247125Y0001768120D01*
X0003240954Y0001774291D01*
X0003227373Y0001774291D01*
X0003218300Y0001770533D01*
X0003211356Y0001763589D01*
X0003207598Y0001754516D01*
X0003207598Y0001713375D01*
X0003213769Y0001707204D01*
X0003213769Y0001705393D01*
X0003207598Y0001699220D01*
X0003207598Y0001658081D01*
X0003211356Y0001649009D01*
X0003218300Y0001642065D01*
X0003227373Y0001638307D01*
X0003227373Y0001473897D01*
X0003145943Y0001473897D01*
X0003145943Y0001479931D01*
X0003141742Y0001484133D01*
X0003110354Y0001484133D01*
X0003110354Y0001493818D01*
X0003141742Y0001493818D01*
X0003145943Y0001498021D01*
X0003145943Y0001515942D01*
X0003143385Y0001522121D01*
X0003138655Y0001526850D01*
X0003132476Y0001529409D01*
X0003115344Y0001529409D01*
X0003115344Y0001878464D01*
X0003133265Y0001878464D01*
X0003139443Y0001881021D01*
X0003144172Y0001885752D01*
X0003146732Y0001891931D01*
X0003146732Y0001909852D01*
X0003142529Y0001914055D01*
X0003111141Y0001914055D01*
X0003111141Y0001882667D01*
X0003115344Y0001878464D01*
X0003115344Y0001529409D01*
X0003114557Y0001529409D01*
X0003110354Y0001525205D01*
X0003110354Y0001493818D01*
X0003110354Y0001484133D01*
X0003110354Y0001483346D01*
X0003100669Y0001483346D01*
X0003100669Y0001484133D01*
X0003099880Y0001484133D01*
X0003099880Y0001493818D01*
X0003100669Y0001493818D01*
X0003100669Y0001525205D01*
X0003096466Y0001529409D01*
X0003090826Y0001529409D01*
X0003090826Y0001878464D01*
X0003097253Y0001878464D01*
G04 next file*
G01G01G01G01G01G01G01G01*
D89*
G36*
X0003107109Y0002289636D02*
X0003107177Y0002290094D01*
X0003107290Y0002290544D01*
X0003107446Y0002290981D01*
X0003107644Y0002291400D01*
X0003107882Y0002291797D01*
X0003108158Y0002292170D01*
X0003108469Y0002292513D01*
X0003108813Y0002292825D01*
X0003109186Y0002293101D01*
X0003109583Y0002293339D01*
X0003110003Y0002293538D01*
X0003110439Y0002293694D01*
X0003110888Y0002293806D01*
X0003111347Y0002293874D01*
X0003111811Y0002293897D01*
X0003188976Y0002293897D01*
X0003189439Y0002293874D01*
X0003189898Y0002293806D01*
X0003190347Y0002293694D01*
X0003190784Y0002293538D01*
X0003191203Y0002293339D01*
X0003191601Y0002293101D01*
X0003191973Y0002292825D01*
X0003192317Y0002292513D01*
X0003192628Y0002292170D01*
X0003192904Y0002291797D01*
X0003193142Y0002291400D01*
X0003193341Y0002290981D01*
X0003193497Y0002290544D01*
X0003193610Y0002290094D01*
X0003193678Y0002289636D01*
X0003193700Y0002289173D01*
X0003193700Y0002251377D01*
X0003193678Y0002250914D01*
X0003193610Y0002250456D01*
X0003193497Y0002250006D01*
X0003193341Y0002249570D01*
X0003193142Y0002249150D01*
X0003192904Y0002248753D01*
X0003192628Y0002248380D01*
X0003192317Y0002248037D01*
X0003191973Y0002247725D01*
X0003191601Y0002247449D01*
X0003191203Y0002247211D01*
X0003190784Y0002247013D01*
X0003190347Y0002246856D01*
X0003189898Y0002246744D01*
X0003189439Y0002246676D01*
X0003188976Y0002246653D01*
X0003111811Y0002246653D01*
X0003111347Y0002246676D01*
X0003110888Y0002246744D01*
X0003110439Y0002246856D01*
X0003110003Y0002247013D01*
X0003109583Y0002247211D01*
X0003109186Y0002247449D01*
X0003108813Y0002247725D01*
X0003108469Y0002248037D01*
X0003108158Y0002248380D01*
X0003107882Y0002248753D01*
X0003107644Y0002249150D01*
X0003107446Y0002249570D01*
X0003107290Y0002250006D01*
X0003107177Y0002250456D01*
X0003107109Y0002250914D01*
X0003107086Y0002251377D01*
X0003107086Y0002289173D01*
X0003107109Y0002289636D01*
X0003107109Y0002289636D01*
G37*
G36*
X0003110652Y0002793573D02*
X0003110720Y0002794031D01*
X0003110832Y0002794481D01*
X0003110989Y0002794918D01*
X0003111187Y0002795337D01*
X0003111426Y0002795734D01*
X0003111702Y0002796107D01*
X0003112013Y0002796450D01*
X0003112357Y0002796762D01*
X0003112729Y0002797038D01*
X0003113127Y0002797276D01*
X0003113546Y0002797475D01*
X0003113982Y0002797630D01*
X0003114432Y0002797743D01*
X0003114891Y0002797810D01*
X0003115354Y0002797834D01*
X0003192519Y0002797834D01*
X0003192982Y0002797810D01*
X0003193441Y0002797743D01*
X0003193891Y0002797630D01*
X0003194327Y0002797475D01*
X0003194745Y0002797276D01*
X0003195143Y0002797038D01*
X0003195515Y0002796762D01*
X0003195859Y0002796450D01*
X0003196171Y0002796107D01*
X0003196447Y0002795734D01*
X0003196685Y0002795337D01*
X0003196884Y0002794918D01*
X0003197040Y0002794481D01*
X0003197153Y0002794031D01*
X0003197221Y0002793573D01*
X0003197244Y0002793110D01*
X0003197244Y0002755314D01*
X0003197221Y0002754851D01*
X0003197153Y0002754393D01*
X0003197040Y0002753942D01*
X0003196884Y0002753507D01*
X0003196685Y0002753087D01*
X0003196447Y0002752690D01*
X0003196171Y0002752317D01*
X0003195859Y0002751974D01*
X0003195515Y0002751661D01*
X0003195143Y0002751385D01*
X0003194745Y0002751148D01*
X0003194327Y0002750950D01*
X0003193891Y0002750793D01*
X0003193441Y0002750681D01*
X0003192982Y0002750613D01*
X0003192519Y0002750590D01*
X0003115354Y0002750590D01*
X0003114891Y0002750613D01*
X0003114432Y0002750681D01*
X0003113982Y0002750793D01*
X0003113546Y0002750950D01*
X0003113127Y0002751148D01*
X0003112729Y0002751385D01*
X0003112357Y0002751661D01*
X0003112013Y0002751974D01*
X0003111702Y0002752317D01*
X0003111426Y0002752690D01*
X0003111187Y0002753087D01*
X0003110989Y0002753507D01*
X0003110832Y0002753942D01*
X0003110720Y0002754393D01*
X0003110652Y0002754851D01*
X0003110629Y0002755314D01*
X0003110629Y0002793110D01*
X0003110652Y0002793573D01*
X0003110652Y0002793573D01*
G37*
D90*
G36*
X0003086409Y0002780601D02*
X0003089136Y0002784682D01*
X0003093217Y0002787408D01*
X0003093818Y0002787529D01*
X0003093818Y0002783257D01*
X0003098021Y0002779055D01*
X0003149094Y0002779055D01*
X0003149094Y0002779842D01*
X0003158778Y0002779842D01*
X0003158778Y0002779055D01*
X0003209852Y0002779055D01*
X0003212475Y0002781679D01*
X0003213197Y0002780601D01*
X0003214291Y0002775101D01*
X0003214291Y0002268599D01*
X0003213197Y0002263099D01*
X0003210511Y0002259080D01*
X0003210511Y0002261230D01*
X0003206309Y0002265433D01*
X0003155236Y0002265433D01*
X0003155236Y0002275118D01*
X0003206309Y0002275118D01*
X0003210511Y0002279320D01*
X0003210511Y0002297241D01*
X0003207952Y0002303420D01*
X0003203223Y0002308149D01*
X0003197044Y0002310708D01*
X0003162982Y0002310708D01*
X0003162982Y0002733779D01*
X0003200588Y0002733779D01*
X0003206766Y0002736338D01*
X0003211495Y0002741067D01*
X0003214055Y0002747246D01*
X0003214055Y0002765167D01*
X0003209852Y0002769370D01*
X0003158778Y0002769370D01*
X0003158778Y0002737982D01*
X0003162982Y0002733779D01*
X0003162982Y0002310708D01*
X0003159438Y0002310708D01*
X0003155236Y0002306505D01*
X0003155236Y0002275118D01*
X0003155236Y0002265433D01*
X0003155236Y0002264645D01*
X0003145550Y0002264645D01*
X0003145550Y0002265433D01*
X0003094478Y0002265433D01*
X0003094478Y0002275118D01*
X0003145550Y0002275118D01*
X0003145550Y0002306505D01*
X0003141348Y0002310708D01*
X0003107285Y0002310708D01*
X0003107285Y0002733779D01*
X0003144891Y0002733779D01*
X0003149094Y0002737982D01*
X0003149094Y0002769370D01*
X0003098021Y0002769370D01*
X0003093818Y0002765167D01*
X0003093818Y0002747246D01*
X0003096378Y0002741067D01*
X0003101106Y0002736338D01*
X0003107285Y0002733779D01*
X0003107285Y0002310708D01*
X0003103742Y0002310708D01*
X0003097563Y0002308149D01*
X0003092833Y0002303420D01*
X0003090275Y0002297241D01*
X0003090275Y0002279320D01*
X0003094478Y0002275118D01*
X0003094478Y0002265433D01*
X0003090275Y0002261230D01*
X0003090275Y0002258256D01*
X0003089136Y0002259017D01*
X0003086409Y0002263099D01*
X0003085314Y0002268599D01*
X0003085314Y0002775101D01*
X0003086409Y0002780601D01*
X0003086409Y0002780601D01*
G37*
X0003086409Y0002780601D02*
X0003089136Y0002784682D01*
X0003093217Y0002787408D01*
X0003093818Y0002787529D01*
X0003093818Y0002783257D01*
X0003098021Y0002779055D01*
X0003149094Y0002779055D01*
X0003149094Y0002779842D01*
X0003158778Y0002779842D01*
X0003158778Y0002779055D01*
X0003209852Y0002779055D01*
X0003212475Y0002781679D01*
X0003213197Y0002780601D01*
X0003214291Y0002775101D01*
X0003214291Y0002268599D01*
X0003213197Y0002263099D01*
X0003210511Y0002259080D01*
X0003210511Y0002261230D01*
X0003206309Y0002265433D01*
X0003155236Y0002265433D01*
X0003155236Y0002275118D01*
X0003206309Y0002275118D01*
X0003210511Y0002279320D01*
X0003210511Y0002297241D01*
X0003207952Y0002303420D01*
X0003203223Y0002308149D01*
X0003197044Y0002310708D01*
X0003162982Y0002310708D01*
X0003162982Y0002733779D01*
X0003200588Y0002733779D01*
X0003206766Y0002736338D01*
X0003211495Y0002741067D01*
X0003214055Y0002747246D01*
X0003214055Y0002765167D01*
X0003209852Y0002769370D01*
X0003158778Y0002769370D01*
X0003158778Y0002737982D01*
X0003162982Y0002733779D01*
X0003162982Y0002310708D01*
X0003159438Y0002310708D01*
X0003155236Y0002306505D01*
X0003155236Y0002275118D01*
X0003155236Y0002265433D01*
X0003155236Y0002264645D01*
X0003145550Y0002264645D01*
X0003145550Y0002265433D01*
X0003094478Y0002265433D01*
X0003094478Y0002275118D01*
X0003145550Y0002275118D01*
X0003145550Y0002306505D01*
X0003141348Y0002310708D01*
X0003107285Y0002310708D01*
X0003107285Y0002733779D01*
X0003144891Y0002733779D01*
X0003149094Y0002737982D01*
X0003149094Y0002769370D01*
X0003098021Y0002769370D01*
X0003093818Y0002765167D01*
X0003093818Y0002747246D01*
X0003096378Y0002741067D01*
X0003101106Y0002736338D01*
X0003107285Y0002733779D01*
X0003107285Y0002310708D01*
X0003103742Y0002310708D01*
X0003097563Y0002308149D01*
X0003092833Y0002303420D01*
X0003090275Y0002297241D01*
X0003090275Y0002279320D01*
X0003094478Y0002275118D01*
X0003094478Y0002265433D01*
X0003090275Y0002261230D01*
X0003090275Y0002258256D01*
X0003089136Y0002259017D01*
X0003086409Y0002263099D01*
X0003085314Y0002268599D01*
X0003085314Y0002775101D01*
X0003086409Y0002780601D01*
G04 next file*
G01G01G01G01G01G01G01G01G01G01G01G01G01G01G01G01*
D101*
D102*
X0000000000Y0001377952D02*
X0002404952Y0000483661D03*
X0002460433Y0000428181D03*
X0002536220Y0000407874D03*
X0002612006Y0000428181D03*
X0002667488Y0000483661D03*
X0002687795Y0000559448D03*
X0002667488Y0000635236D03*
X0002612006Y0000690715D03*
X0002536220Y0000711023D03*
X0002460433Y0000690715D03*
X0002404952Y0000635236D03*
X0002384645Y0000559448D03*
X0001893141Y0000483661D03*
X0001948622Y0000428181D03*
X0002024409Y0000407874D03*
X0002100196Y0000428181D03*
X0002155677Y0000483661D03*
X0002175984Y0000559448D03*
X0002155677Y0000635236D03*
X0002100196Y0000690715D03*
X0002024409Y0000711023D03*
X0001948622Y0000690715D03*
X0001893141Y0000635236D03*
X0001872834Y0000559448D03*
X0002404952Y0001034842D03*
X0002460433Y0000979362D03*
X0002536220Y0000959055D03*
X0002612006Y0000979362D03*
X0002667488Y0001034842D03*
X0002687795Y0001110629D03*
X0002667488Y0001186417D03*
X0002612006Y0001241897D03*
X0002536220Y0001262204D03*
X0002460433Y0001241897D03*
X0002404952Y0001186417D03*
X0002384645Y0001110629D03*
X0001893141Y0001034842D03*
X0001948622Y0000979362D03*
X0002024409Y0000959055D03*
X0002100196Y0000979362D03*
X0002155677Y0001034842D03*
X0002175984Y0001110629D03*
X0002155677Y0001186417D03*
X0002100196Y0001241897D03*
X0002024409Y0001262204D03*
X0001948622Y0001241897D03*
X0001893141Y0001186417D03*
X0001872834Y0001110629D03*
X0001341960Y0000483661D03*
X0001397440Y0000428181D03*
X0001473228Y0000407874D03*
X0001549015Y0000428181D03*
X0001604494Y0000483661D03*
X0001624802Y0000559448D03*
X0001604494Y0000635236D03*
X0001549015Y0000690715D03*
X0001473228Y0000711023D03*
X0001397440Y0000690715D03*
X0001341960Y0000635236D03*
X0001321653Y0000559448D03*
X0000830149Y0000483661D03*
X0000885629Y0000428181D03*
X0000961417Y0000407874D03*
X0001037204Y0000428181D03*
X0001092684Y0000483661D03*
X0001112992Y0000559448D03*
X0001092684Y0000635236D03*
X0001037204Y0000690715D03*
X0000961417Y0000711023D03*
X0000885629Y0000690715D03*
X0000830149Y0000635236D03*
X0000809842Y0000559448D03*
X0000318338Y0000483661D03*
X0000373818Y0000428181D03*
X0000449606Y0000407874D03*
X0000525393Y0000428181D03*
X0000580873Y0000483661D03*
X0000601181Y0000559448D03*
X0000580873Y0000635236D03*
X0000525393Y0000690715D03*
X0000449606Y0000711023D03*
X0000373818Y0000690715D03*
X0000318338Y0000635236D03*
X0000298031Y0000559448D03*
X0001341960Y0001034842D03*
X0001397440Y0000979362D03*
X0001473228Y0000959055D03*
X0001549015Y0000979362D03*
X0001604494Y0001034842D03*
X0001624802Y0001110629D03*
X0001604494Y0001186417D03*
X0001549015Y0001241897D03*
X0001473228Y0001262204D03*
X0001397440Y0001241897D03*
X0001341960Y0001186417D03*
X0001321653Y0001110629D03*
X0000830149Y0001034842D03*
X0000885629Y0000979362D03*
X0000961417Y0000959055D03*
X0001037204Y0000979362D03*
X0001092684Y0001034842D03*
X0001112992Y0001110629D03*
X0001092684Y0001186417D03*
X0001037204Y0001241897D03*
X0000961417Y0001262204D03*
X0000885629Y0001241897D03*
X0000830149Y0001186417D03*
X0000809842Y0001110629D03*
X0000318338Y0001034842D03*
X0000373818Y0000979362D03*
X0000449606Y0000959055D03*
X0000525393Y0000979362D03*
X0000580873Y0001034842D03*
X0000601181Y0001110629D03*
X0000580873Y0001186417D03*
X0000525393Y0001241897D03*
X0000449606Y0001262204D03*
X0000373818Y0001241897D03*
X0000318338Y0001186417D03*
X0000298031Y0001110629D03*
D103*
G36*
X0002941019Y0001366878D02*
X0002964781Y0001351001D01*
X0002980657Y0001327240D01*
X0002986338Y0001298681D01*
X0002986338Y0000995806D01*
X0002985752Y0000992860D01*
X0002984384Y0000990812D01*
X0002982336Y0000989444D01*
X0002979389Y0000988858D01*
X0002952755Y0000988858D01*
X0002950691Y0000988447D01*
X0002948941Y0000987278D01*
X0002947772Y0000985528D01*
X0002947362Y0000983464D01*
X0002947362Y0000399212D01*
X0002947772Y0000397148D01*
X0002948941Y0000395398D01*
X0002950691Y0000394229D01*
X0002952755Y0000393818D01*
X0002979389Y0000393818D01*
X0002982336Y0000393232D01*
X0002984384Y0000391864D01*
X0002985752Y0000389817D01*
X0002986338Y0000386870D01*
X0002986338Y0000098956D01*
X0002979189Y0000063014D01*
X0002959130Y0000032995D01*
X0002929111Y0000012936D01*
X0002893169Y0000005787D01*
X0000079271Y0000005393D01*
X0000050712Y0000011074D01*
X0000026951Y0000026951D01*
X0000011074Y0000050712D01*
X0000005393Y0000079271D01*
X0000005393Y0000156102D01*
X0000094803Y0000156102D01*
X0000099409Y0000132945D01*
X0000112526Y0000113313D01*
X0000132158Y0000100196D01*
X0000155314Y0000095590D01*
X0000178471Y0000100196D01*
X0000198103Y0000113313D01*
X0000211220Y0000132945D01*
X0000215630Y0000155118D01*
X0002770984Y0000155118D01*
X0002775590Y0000131961D01*
X0002788707Y0000112329D01*
X0002808339Y0000099212D01*
X0002831496Y0000094606D01*
X0002854652Y0000099212D01*
X0002874284Y0000112329D01*
X0002887401Y0000131961D01*
X0002892006Y0000155118D01*
X0002887401Y0000178274D01*
X0002874284Y0000197906D01*
X0002854652Y0000211023D01*
X0002831496Y0000215629D01*
X0002808339Y0000211023D01*
X0002788707Y0000197906D01*
X0002775590Y0000178274D01*
X0002770984Y0000155118D01*
X0000215630Y0000155118D01*
X0000215826Y0000156102D01*
X0000211220Y0000179259D01*
X0000198103Y0000198890D01*
X0000178471Y0000212007D01*
X0000155314Y0000216614D01*
X0000132158Y0000212007D01*
X0000112526Y0000198890D01*
X0000099409Y0000179259D01*
X0000094803Y0000156102D01*
X0000005393Y0000156102D01*
X0000005393Y0000382933D01*
X0000005979Y0000385880D01*
X0000007348Y0000387927D01*
X0000009395Y0000389295D01*
X0000012342Y0000389881D01*
X0000038976Y0000389881D01*
X0000041040Y0000390292D01*
X0000042789Y0000391461D01*
X0000043959Y0000393211D01*
X0000044370Y0000395275D01*
X0000044370Y0000534680D01*
X0000318659Y0000534680D01*
X0000319066Y0000532615D01*
X0000338105Y0000486454D01*
X0000338330Y0000486117D01*
X0000339272Y0000484702D01*
X0000374526Y0000449341D01*
X0000375573Y0000448639D01*
X0000376274Y0000448169D01*
X0000422378Y0000428991D01*
X0000424441Y0000428577D01*
X0000474374Y0000428501D01*
X0000476439Y0000428909D01*
X0000522599Y0000447947D01*
X0000523300Y0000448414D01*
X0000524352Y0000449113D01*
X0000559713Y0000484369D01*
X0000559715Y0000484371D01*
X0000559719Y0000484375D01*
X0000560308Y0000485256D01*
X0000560885Y0000486117D01*
X0000560886Y0000486121D01*
X0000560888Y0000486124D01*
X0000561092Y0000487149D01*
X0000561299Y0000488180D01*
X0000561298Y0000488184D01*
X0000561299Y0000488188D01*
X0000561299Y0000534680D01*
X0000830470Y0000534680D01*
X0000830877Y0000532615D01*
X0000849916Y0000486454D01*
X0000850140Y0000486117D01*
X0000851083Y0000484702D01*
X0000886337Y0000449341D01*
X0000887384Y0000448639D01*
X0000888085Y0000448169D01*
X0000934189Y0000428991D01*
X0000936252Y0000428577D01*
X0000986185Y0000428501D01*
X0000988249Y0000428909D01*
X0001034411Y0000447947D01*
X0001035110Y0000448414D01*
X0001036163Y0000449113D01*
X0001071524Y0000484369D01*
X0001071526Y0000484371D01*
X0001071530Y0000484375D01*
X0001072119Y0000485256D01*
X0001072696Y0000486117D01*
X0001072697Y0000486121D01*
X0001072699Y0000486124D01*
X0001072903Y0000487149D01*
X0001073110Y0000488180D01*
X0001073109Y0000488184D01*
X0001073110Y0000488188D01*
X0001073110Y0000534680D01*
X0001342281Y0000534680D01*
X0001342688Y0000532615D01*
X0001361727Y0000486454D01*
X0001361952Y0000486117D01*
X0001362893Y0000484702D01*
X0001398148Y0000449341D01*
X0001399195Y0000448639D01*
X0001399896Y0000448169D01*
X0001445999Y0000428991D01*
X0001448063Y0000428577D01*
X0001497996Y0000428501D01*
X0001500061Y0000428909D01*
X0001546222Y0000447947D01*
X0001546922Y0000448414D01*
X0001547974Y0000449113D01*
X0001583335Y0000484369D01*
X0001583337Y0000484371D01*
X0001583341Y0000484375D01*
X0001583930Y0000485256D01*
X0001584507Y0000486117D01*
X0001584508Y0000486121D01*
X0001584510Y0000486124D01*
X0001584714Y0000487149D01*
X0001584921Y0000488180D01*
X0001584920Y0000488184D01*
X0001584921Y0000488188D01*
X0001584921Y0000534680D01*
X0001893462Y0000534680D01*
X0001893868Y0000532615D01*
X0001912908Y0000486454D01*
X0001913133Y0000486117D01*
X0001914075Y0000484702D01*
X0001949329Y0000449341D01*
X0001950376Y0000448639D01*
X0001951077Y0000448169D01*
X0001997181Y0000428991D01*
X0001999244Y0000428577D01*
X0002049176Y0000428501D01*
X0002051241Y0000428909D01*
X0002097403Y0000447947D01*
X0002098103Y0000448414D01*
X0002099155Y0000449113D01*
X0002134516Y0000484369D01*
X0002134519Y0000484371D01*
X0002134522Y0000484375D01*
X0002135111Y0000485256D01*
X0002135688Y0000486117D01*
X0002135689Y0000486121D01*
X0002135691Y0000486124D01*
X0002135895Y0000487149D01*
X0002136102Y0000488180D01*
X0002136101Y0000488184D01*
X0002136102Y0000488188D01*
X0002136102Y0000534680D01*
X0002405273Y0000534680D01*
X0002405680Y0000532615D01*
X0002424719Y0000486454D01*
X0002424944Y0000486117D01*
X0002425886Y0000484702D01*
X0002461140Y0000449341D01*
X0002462187Y0000448639D01*
X0002462889Y0000448169D01*
X0002508992Y0000428991D01*
X0002511055Y0000428577D01*
X0002560988Y0000428501D01*
X0002563053Y0000428909D01*
X0002609214Y0000447947D01*
X0002609914Y0000448414D01*
X0002610966Y0000449113D01*
X0002646327Y0000484369D01*
X0002646330Y0000484371D01*
X0002646333Y0000484375D01*
X0002646922Y0000485256D01*
X0002647498Y0000486117D01*
X0002647500Y0000486121D01*
X0002647502Y0000486124D01*
X0002647706Y0000487149D01*
X0002647913Y0000488180D01*
X0002647912Y0000488184D01*
X0002647913Y0000488188D01*
X0002647913Y0000630707D01*
X0002647502Y0000632772D01*
X0002646333Y0000634522D01*
X0002611294Y0000669560D01*
X0002610415Y0000670148D01*
X0002609551Y0000670728D01*
X0002563447Y0000689906D01*
X0002561385Y0000690320D01*
X0002511452Y0000690395D01*
X0002511111Y0000690328D01*
X0002509387Y0000689988D01*
X0002463226Y0000670949D01*
X0002462893Y0000670728D01*
X0002461474Y0000669782D01*
X0002426113Y0000634528D01*
X0002424941Y0000632780D01*
X0002405762Y0000586677D01*
X0002405349Y0000584613D01*
X0002405273Y0000534680D01*
X0002136102Y0000534680D01*
X0002136102Y0000630707D01*
X0002135691Y0000632772D01*
X0002134522Y0000634522D01*
X0002099483Y0000669560D01*
X0002098604Y0000670148D01*
X0002097740Y0000670728D01*
X0002051637Y0000689906D01*
X0002049573Y0000690320D01*
X0001999641Y0000690395D01*
X0001999300Y0000690328D01*
X0001997576Y0000689988D01*
X0001951415Y0000670949D01*
X0001951082Y0000670728D01*
X0001949663Y0000669782D01*
X0001914300Y0000634528D01*
X0001913129Y0000632780D01*
X0001893951Y0000586677D01*
X0001893538Y0000584613D01*
X0001893462Y0000534680D01*
X0001584921Y0000534680D01*
X0001584921Y0000630707D01*
X0001584510Y0000632772D01*
X0001583341Y0000634522D01*
X0001548302Y0000669560D01*
X0001547423Y0000670148D01*
X0001546559Y0000670728D01*
X0001500456Y0000689906D01*
X0001498393Y0000690320D01*
X0001448459Y0000690395D01*
X0001448119Y0000690328D01*
X0001446395Y0000689988D01*
X0001400234Y0000670949D01*
X0001399901Y0000670728D01*
X0001398482Y0000669782D01*
X0001363120Y0000634528D01*
X0001361949Y0000632780D01*
X0001342770Y0000586677D01*
X0001342357Y0000584613D01*
X0001342281Y0000534680D01*
X0001073110Y0000534680D01*
X0001073110Y0000630707D01*
X0001072699Y0000632772D01*
X0001071530Y0000634522D01*
X0001036491Y0000669560D01*
X0001035612Y0000670148D01*
X0001034748Y0000670728D01*
X0000988645Y0000689906D01*
X0000986582Y0000690320D01*
X0000936648Y0000690395D01*
X0000936308Y0000690328D01*
X0000934584Y0000689988D01*
X0000888423Y0000670949D01*
X0000888090Y0000670728D01*
X0000886671Y0000669782D01*
X0000851308Y0000634528D01*
X0000850138Y0000632780D01*
X0000830959Y0000586677D01*
X0000830545Y0000584613D01*
X0000830470Y0000534680D01*
X0000561299Y0000534680D01*
X0000561299Y0000630707D01*
X0000560888Y0000632772D01*
X0000559719Y0000634522D01*
X0000524680Y0000669560D01*
X0000523800Y0000670148D01*
X0000522937Y0000670728D01*
X0000476834Y0000689906D01*
X0000474770Y0000690320D01*
X0000424837Y0000690395D01*
X0000424497Y0000690328D01*
X0000422773Y0000689988D01*
X0000376611Y0000670949D01*
X0000376279Y0000670728D01*
X0000374860Y0000669782D01*
X0000339498Y0000634528D01*
X0000338327Y0000632780D01*
X0000319148Y0000586677D01*
X0000318734Y0000584613D01*
X0000318659Y0000534680D01*
X0000044370Y0000534680D01*
X0000044370Y0000979527D01*
X0000043959Y0000981591D01*
X0000042789Y0000983341D01*
X0000041040Y0000984510D01*
X0000038976Y0000984921D01*
X0000012342Y0000984921D01*
X0000009395Y0000985507D01*
X0000007348Y0000986875D01*
X0000005979Y0000988923D01*
X0000005393Y0000991869D01*
X0000005393Y0001085861D01*
X0000318659Y0001085861D01*
X0000319066Y0001083796D01*
X0000338105Y0001037635D01*
X0000338330Y0001037298D01*
X0000339272Y0001035884D01*
X0000374526Y0001000521D01*
X0000375573Y0000999821D01*
X0000376274Y0000999350D01*
X0000422378Y0000980172D01*
X0000424441Y0000979758D01*
X0000474374Y0000979682D01*
X0000476439Y0000980089D01*
X0000522599Y0000999129D01*
X0000523548Y0000999760D01*
X0000524352Y0001000294D01*
X0000559713Y0001035550D01*
X0000559715Y0001035553D01*
X0000559719Y0001035555D01*
X0000560308Y0001036437D01*
X0000560885Y0001037298D01*
X0000560886Y0001037302D01*
X0000560888Y0001037304D01*
X0000561092Y0001038330D01*
X0000561299Y0001039361D01*
X0000561298Y0001039366D01*
X0000561299Y0001039369D01*
X0000561299Y0001085861D01*
X0000830470Y0001085861D01*
X0000830877Y0001083796D01*
X0000849916Y0001037635D01*
X0000850140Y0001037298D01*
X0000851083Y0001035884D01*
X0000886337Y0001000521D01*
X0000887384Y0000999821D01*
X0000888085Y0000999350D01*
X0000934189Y0000980172D01*
X0000936252Y0000979758D01*
X0000986185Y0000979682D01*
X0000988249Y0000980089D01*
X0001034411Y0000999129D01*
X0001035358Y0000999760D01*
X0001036163Y0001000294D01*
X0001071524Y0001035550D01*
X0001071526Y0001035553D01*
X0001071530Y0001035555D01*
X0001072119Y0001036437D01*
X0001072696Y0001037298D01*
X0001072697Y0001037302D01*
X0001072699Y0001037304D01*
X0001072903Y0001038330D01*
X0001073110Y0001039361D01*
X0001073109Y0001039366D01*
X0001073110Y0001039369D01*
X0001073110Y0001085861D01*
X0001342281Y0001085861D01*
X0001342688Y0001083796D01*
X0001361727Y0001037635D01*
X0001361952Y0001037298D01*
X0001362893Y0001035884D01*
X0001398148Y0001000521D01*
X0001399195Y0000999821D01*
X0001399896Y0000999350D01*
X0001445999Y0000980172D01*
X0001448063Y0000979758D01*
X0001497996Y0000979682D01*
X0001500061Y0000980089D01*
X0001546222Y0000999129D01*
X0001547170Y0000999760D01*
X0001547974Y0001000294D01*
X0001583335Y0001035550D01*
X0001583337Y0001035553D01*
X0001583341Y0001035555D01*
X0001583930Y0001036437D01*
X0001584507Y0001037298D01*
X0001584508Y0001037302D01*
X0001584510Y0001037304D01*
X0001584714Y0001038330D01*
X0001584921Y0001039361D01*
X0001584920Y0001039366D01*
X0001584921Y0001039369D01*
X0001584921Y0001085861D01*
X0001893462Y0001085861D01*
X0001893868Y0001083796D01*
X0001912908Y0001037635D01*
X0001913133Y0001037298D01*
X0001914075Y0001035884D01*
X0001949329Y0001000521D01*
X0001950376Y0000999821D01*
X0001951077Y0000999350D01*
X0001997181Y0000980172D01*
X0001999244Y0000979758D01*
X0002049176Y0000979682D01*
X0002051241Y0000980089D01*
X0002097403Y0000999129D01*
X0002098351Y0000999760D01*
X0002099155Y0001000294D01*
X0002134516Y0001035550D01*
X0002134519Y0001035553D01*
X0002134522Y0001035555D01*
X0002135111Y0001036437D01*
X0002135688Y0001037298D01*
X0002135689Y0001037302D01*
X0002135691Y0001037304D01*
X0002135895Y0001038330D01*
X0002136102Y0001039361D01*
X0002136101Y0001039366D01*
X0002136102Y0001039369D01*
X0002136102Y0001085861D01*
X0002405273Y0001085861D01*
X0002405680Y0001083796D01*
X0002424719Y0001037635D01*
X0002424944Y0001037298D01*
X0002425886Y0001035884D01*
X0002461140Y0001000521D01*
X0002462187Y0000999821D01*
X0002462889Y0000999350D01*
X0002508992Y0000980172D01*
X0002511055Y0000979758D01*
X0002560988Y0000979682D01*
X0002563053Y0000980089D01*
X0002609214Y0000999129D01*
X0002610162Y0000999760D01*
X0002610966Y0001000294D01*
X0002646327Y0001035550D01*
X0002646330Y0001035553D01*
X0002646333Y0001035555D01*
X0002646922Y0001036437D01*
X0002647498Y0001037298D01*
X0002647500Y0001037302D01*
X0002647502Y0001037304D01*
X0002647706Y0001038330D01*
X0002647913Y0001039361D01*
X0002647912Y0001039366D01*
X0002647913Y0001039369D01*
X0002647913Y0001181889D01*
X0002647502Y0001183953D01*
X0002646333Y0001185703D01*
X0002611294Y0001220743D01*
X0002610815Y0001221062D01*
X0002771968Y0001221062D01*
X0002776574Y0001197906D01*
X0002789692Y0001178274D01*
X0002809323Y0001165157D01*
X0002832480Y0001160551D01*
X0002855637Y0001165157D01*
X0002875268Y0001178274D01*
X0002888385Y0001197906D01*
X0002892991Y0001221062D01*
X0002888385Y0001244219D01*
X0002875268Y0001263851D01*
X0002855637Y0001276968D01*
X0002832480Y0001281574D01*
X0002809323Y0001276968D01*
X0002789692Y0001263851D01*
X0002776574Y0001244219D01*
X0002771968Y0001221062D01*
X0002610815Y0001221062D01*
X0002610415Y0001221330D01*
X0002609551Y0001221909D01*
X0002563447Y0001241087D01*
X0002561385Y0001241501D01*
X0002511452Y0001241576D01*
X0002511111Y0001241509D01*
X0002509387Y0001241169D01*
X0002463226Y0001222130D01*
X0002462893Y0001221909D01*
X0002461474Y0001220964D01*
X0002426113Y0001185709D01*
X0002424941Y0001183961D01*
X0002405762Y0001137858D01*
X0002405349Y0001135794D01*
X0002405273Y0001085861D01*
X0002136102Y0001085861D01*
X0002136102Y0001181889D01*
X0002135691Y0001183953D01*
X0002134522Y0001185703D01*
X0002099483Y0001220743D01*
X0002098604Y0001221330D01*
X0002097740Y0001221909D01*
X0002051637Y0001241087D01*
X0002049573Y0001241501D01*
X0001999641Y0001241576D01*
X0001999300Y0001241509D01*
X0001997576Y0001241169D01*
X0001951415Y0001222130D01*
X0001951082Y0001221909D01*
X0001949663Y0001220964D01*
X0001914300Y0001185709D01*
X0001913129Y0001183961D01*
X0001893951Y0001137858D01*
X0001893538Y0001135794D01*
X0001893462Y0001085861D01*
X0001584921Y0001085861D01*
X0001584921Y0001181889D01*
X0001584510Y0001183953D01*
X0001583341Y0001185703D01*
X0001548302Y0001220743D01*
X0001547423Y0001221330D01*
X0001546559Y0001221909D01*
X0001500456Y0001241087D01*
X0001498393Y0001241501D01*
X0001448459Y0001241576D01*
X0001448119Y0001241509D01*
X0001446395Y0001241169D01*
X0001400234Y0001222130D01*
X0001399901Y0001221909D01*
X0001398482Y0001220964D01*
X0001363120Y0001185709D01*
X0001361949Y0001183961D01*
X0001342770Y0001137858D01*
X0001342357Y0001135794D01*
X0001342281Y0001085861D01*
X0001073110Y0001085861D01*
X0001073110Y0001181889D01*
X0001072699Y0001183953D01*
X0001071530Y0001185703D01*
X0001036491Y0001220743D01*
X0001035612Y0001221330D01*
X0001034748Y0001221909D01*
X0000988645Y0001241087D01*
X0000986582Y0001241501D01*
X0000936648Y0001241576D01*
X0000936308Y0001241509D01*
X0000934584Y0001241169D01*
X0000888423Y0001222130D01*
X0000888090Y0001221909D01*
X0000886671Y0001220964D01*
X0000851308Y0001185709D01*
X0000850138Y0001183961D01*
X0000830959Y0001137858D01*
X0000830545Y0001135794D01*
X0000830470Y0001085861D01*
X0000561299Y0001085861D01*
X0000561299Y0001181889D01*
X0000560888Y0001183953D01*
X0000559719Y0001185703D01*
X0000524680Y0001220743D01*
X0000523800Y0001221330D01*
X0000522937Y0001221909D01*
X0000476834Y0001241087D01*
X0000474770Y0001241501D01*
X0000424837Y0001241576D01*
X0000424497Y0001241509D01*
X0000422773Y0001241169D01*
X0000376611Y0001222130D01*
X0000376279Y0001221909D01*
X0000374860Y0001220964D01*
X0000339498Y0001185709D01*
X0000338327Y0001183961D01*
X0000319148Y0001137858D01*
X0000318734Y0001135794D01*
X0000318659Y0001085861D01*
X0000005393Y0001085861D01*
X0000005393Y0001221062D01*
X0000094803Y0001221062D01*
X0000099409Y0001197906D01*
X0000112526Y0001178274D01*
X0000132158Y0001165157D01*
X0000155314Y0001160551D01*
X0000178471Y0001165157D01*
X0000198103Y0001178274D01*
X0000211220Y0001197906D01*
X0000215826Y0001221062D01*
X0000211220Y0001244219D01*
X0000198103Y0001263851D01*
X0000178471Y0001276968D01*
X0000155314Y0001281574D01*
X0000132158Y0001276968D01*
X0000112526Y0001263851D01*
X0000099409Y0001244219D01*
X0000094803Y0001221062D01*
X0000005393Y0001221062D01*
X0000005393Y0001298681D01*
X0000011074Y0001327240D01*
X0000026951Y0001351001D01*
X0000050712Y0001366878D01*
X0000079271Y0001372559D01*
X0002912459Y0001372559D01*
X0002941019Y0001366878D01*
X0002941019Y0001366878D01*
G37*
X0002941019Y0001366878D02*
X0002964781Y0001351001D01*
X0002980657Y0001327240D01*
X0002986338Y0001298681D01*
X0002986338Y0000995806D01*
X0002985752Y0000992860D01*
X0002984384Y0000990812D01*
X0002982336Y0000989444D01*
X0002979389Y0000988858D01*
X0002952755Y0000988858D01*
X0002950691Y0000988447D01*
X0002948941Y0000987278D01*
X0002947772Y0000985528D01*
X0002947362Y0000983464D01*
X0002947362Y0000399212D01*
X0002947772Y0000397148D01*
X0002948941Y0000395398D01*
X0002950691Y0000394229D01*
X0002952755Y0000393818D01*
X0002979389Y0000393818D01*
X0002982336Y0000393232D01*
X0002984384Y0000391864D01*
X0002985752Y0000389817D01*
X0002986338Y0000386870D01*
X0002986338Y0000098956D01*
X0002979189Y0000063014D01*
X0002959130Y0000032995D01*
X0002929111Y0000012936D01*
X0002893169Y0000005787D01*
X0000079271Y0000005393D01*
X0000050712Y0000011074D01*
X0000026951Y0000026951D01*
X0000011074Y0000050712D01*
X0000005393Y0000079271D01*
X0000005393Y0000156102D01*
X0000094803Y0000156102D01*
X0000099409Y0000132945D01*
X0000112526Y0000113313D01*
X0000132158Y0000100196D01*
X0000155314Y0000095590D01*
X0000178471Y0000100196D01*
X0000198103Y0000113313D01*
X0000211220Y0000132945D01*
X0000215630Y0000155118D01*
X0002770984Y0000155118D01*
X0002775590Y0000131961D01*
X0002788707Y0000112329D01*
X0002808339Y0000099212D01*
X0002831496Y0000094606D01*
X0002854652Y0000099212D01*
X0002874284Y0000112329D01*
X0002887401Y0000131961D01*
X0002892006Y0000155118D01*
X0002887401Y0000178274D01*
X0002874284Y0000197906D01*
X0002854652Y0000211023D01*
X0002831496Y0000215629D01*
X0002808339Y0000211023D01*
X0002788707Y0000197906D01*
X0002775590Y0000178274D01*
X0002770984Y0000155118D01*
X0000215630Y0000155118D01*
X0000215826Y0000156102D01*
X0000211220Y0000179259D01*
X0000198103Y0000198890D01*
X0000178471Y0000212007D01*
X0000155314Y0000216614D01*
X0000132158Y0000212007D01*
X0000112526Y0000198890D01*
X0000099409Y0000179259D01*
X0000094803Y0000156102D01*
X0000005393Y0000156102D01*
X0000005393Y0000382933D01*
X0000005979Y0000385880D01*
X0000007348Y0000387927D01*
X0000009395Y0000389295D01*
X0000012342Y0000389881D01*
X0000038976Y0000389881D01*
X0000041040Y0000390292D01*
X0000042789Y0000391461D01*
X0000043959Y0000393211D01*
X0000044370Y0000395275D01*
X0000044370Y0000534680D01*
X0000318659Y0000534680D01*
X0000319066Y0000532615D01*
X0000338105Y0000486454D01*
X0000338330Y0000486117D01*
X0000339272Y0000484702D01*
X0000374526Y0000449341D01*
X0000375573Y0000448639D01*
X0000376274Y0000448169D01*
X0000422378Y0000428991D01*
X0000424441Y0000428577D01*
X0000474374Y0000428501D01*
X0000476439Y0000428909D01*
X0000522599Y0000447947D01*
X0000523300Y0000448414D01*
X0000524352Y0000449113D01*
X0000559713Y0000484369D01*
X0000559715Y0000484371D01*
X0000559719Y0000484375D01*
X0000560308Y0000485256D01*
X0000560885Y0000486117D01*
X0000560886Y0000486121D01*
X0000560888Y0000486124D01*
X0000561092Y0000487149D01*
X0000561299Y0000488180D01*
X0000561298Y0000488184D01*
X0000561299Y0000488188D01*
X0000561299Y0000534680D01*
X0000830470Y0000534680D01*
X0000830877Y0000532615D01*
X0000849916Y0000486454D01*
X0000850140Y0000486117D01*
X0000851083Y0000484702D01*
X0000886337Y0000449341D01*
X0000887384Y0000448639D01*
X0000888085Y0000448169D01*
X0000934189Y0000428991D01*
X0000936252Y0000428577D01*
X0000986185Y0000428501D01*
X0000988249Y0000428909D01*
X0001034411Y0000447947D01*
X0001035110Y0000448414D01*
X0001036163Y0000449113D01*
X0001071524Y0000484369D01*
X0001071526Y0000484371D01*
X0001071530Y0000484375D01*
X0001072119Y0000485256D01*
X0001072696Y0000486117D01*
X0001072697Y0000486121D01*
X0001072699Y0000486124D01*
X0001072903Y0000487149D01*
X0001073110Y0000488180D01*
X0001073109Y0000488184D01*
X0001073110Y0000488188D01*
X0001073110Y0000534680D01*
X0001342281Y0000534680D01*
X0001342688Y0000532615D01*
X0001361727Y0000486454D01*
X0001361952Y0000486117D01*
X0001362893Y0000484702D01*
X0001398148Y0000449341D01*
X0001399195Y0000448639D01*
X0001399896Y0000448169D01*
X0001445999Y0000428991D01*
X0001448063Y0000428577D01*
X0001497996Y0000428501D01*
X0001500061Y0000428909D01*
X0001546222Y0000447947D01*
X0001546922Y0000448414D01*
X0001547974Y0000449113D01*
X0001583335Y0000484369D01*
X0001583337Y0000484371D01*
X0001583341Y0000484375D01*
X0001583930Y0000485256D01*
X0001584507Y0000486117D01*
X0001584508Y0000486121D01*
X0001584510Y0000486124D01*
X0001584714Y0000487149D01*
X0001584921Y0000488180D01*
X0001584920Y0000488184D01*
X0001584921Y0000488188D01*
X0001584921Y0000534680D01*
X0001893462Y0000534680D01*
X0001893868Y0000532615D01*
X0001912908Y0000486454D01*
X0001913133Y0000486117D01*
X0001914075Y0000484702D01*
X0001949329Y0000449341D01*
X0001950376Y0000448639D01*
X0001951077Y0000448169D01*
X0001997181Y0000428991D01*
X0001999244Y0000428577D01*
X0002049176Y0000428501D01*
X0002051241Y0000428909D01*
X0002097403Y0000447947D01*
X0002098103Y0000448414D01*
X0002099155Y0000449113D01*
X0002134516Y0000484369D01*
X0002134519Y0000484371D01*
X0002134522Y0000484375D01*
X0002135111Y0000485256D01*
X0002135688Y0000486117D01*
X0002135689Y0000486121D01*
X0002135691Y0000486124D01*
X0002135895Y0000487149D01*
X0002136102Y0000488180D01*
X0002136101Y0000488184D01*
X0002136102Y0000488188D01*
X0002136102Y0000534680D01*
X0002405273Y0000534680D01*
X0002405680Y0000532615D01*
X0002424719Y0000486454D01*
X0002424944Y0000486117D01*
X0002425886Y0000484702D01*
X0002461140Y0000449341D01*
X0002462187Y0000448639D01*
X0002462889Y0000448169D01*
X0002508992Y0000428991D01*
X0002511055Y0000428577D01*
X0002560988Y0000428501D01*
X0002563053Y0000428909D01*
X0002609214Y0000447947D01*
X0002609914Y0000448414D01*
X0002610966Y0000449113D01*
X0002646327Y0000484369D01*
X0002646330Y0000484371D01*
X0002646333Y0000484375D01*
X0002646922Y0000485256D01*
X0002647498Y0000486117D01*
X0002647500Y0000486121D01*
X0002647502Y0000486124D01*
X0002647706Y0000487149D01*
X0002647913Y0000488180D01*
X0002647912Y0000488184D01*
X0002647913Y0000488188D01*
X0002647913Y0000630707D01*
X0002647502Y0000632772D01*
X0002646333Y0000634522D01*
X0002611294Y0000669560D01*
X0002610415Y0000670148D01*
X0002609551Y0000670728D01*
X0002563447Y0000689906D01*
X0002561385Y0000690320D01*
X0002511452Y0000690395D01*
X0002511111Y0000690328D01*
X0002509387Y0000689988D01*
X0002463226Y0000670949D01*
X0002462893Y0000670728D01*
X0002461474Y0000669782D01*
X0002426113Y0000634528D01*
X0002424941Y0000632780D01*
X0002405762Y0000586677D01*
X0002405349Y0000584613D01*
X0002405273Y0000534680D01*
X0002136102Y0000534680D01*
X0002136102Y0000630707D01*
X0002135691Y0000632772D01*
X0002134522Y0000634522D01*
X0002099483Y0000669560D01*
X0002098604Y0000670148D01*
X0002097740Y0000670728D01*
X0002051637Y0000689906D01*
X0002049573Y0000690320D01*
X0001999641Y0000690395D01*
X0001999300Y0000690328D01*
X0001997576Y0000689988D01*
X0001951415Y0000670949D01*
X0001951082Y0000670728D01*
X0001949663Y0000669782D01*
X0001914300Y0000634528D01*
X0001913129Y0000632780D01*
X0001893951Y0000586677D01*
X0001893538Y0000584613D01*
X0001893462Y0000534680D01*
X0001584921Y0000534680D01*
X0001584921Y0000630707D01*
X0001584510Y0000632772D01*
X0001583341Y0000634522D01*
X0001548302Y0000669560D01*
X0001547423Y0000670148D01*
X0001546559Y0000670728D01*
X0001500456Y0000689906D01*
X0001498393Y0000690320D01*
X0001448459Y0000690395D01*
X0001448119Y0000690328D01*
X0001446395Y0000689988D01*
X0001400234Y0000670949D01*
X0001399901Y0000670728D01*
X0001398482Y0000669782D01*
X0001363120Y0000634528D01*
X0001361949Y0000632780D01*
X0001342770Y0000586677D01*
X0001342357Y0000584613D01*
X0001342281Y0000534680D01*
X0001073110Y0000534680D01*
X0001073110Y0000630707D01*
X0001072699Y0000632772D01*
X0001071530Y0000634522D01*
X0001036491Y0000669560D01*
X0001035612Y0000670148D01*
X0001034748Y0000670728D01*
X0000988645Y0000689906D01*
X0000986582Y0000690320D01*
X0000936648Y0000690395D01*
X0000936308Y0000690328D01*
X0000934584Y0000689988D01*
X0000888423Y0000670949D01*
X0000888090Y0000670728D01*
X0000886671Y0000669782D01*
X0000851308Y0000634528D01*
X0000850138Y0000632780D01*
X0000830959Y0000586677D01*
X0000830545Y0000584613D01*
X0000830470Y0000534680D01*
X0000561299Y0000534680D01*
X0000561299Y0000630707D01*
X0000560888Y0000632772D01*
X0000559719Y0000634522D01*
X0000524680Y0000669560D01*
X0000523800Y0000670148D01*
X0000522937Y0000670728D01*
X0000476834Y0000689906D01*
X0000474770Y0000690320D01*
X0000424837Y0000690395D01*
X0000424497Y0000690328D01*
X0000422773Y0000689988D01*
X0000376611Y0000670949D01*
X0000376279Y0000670728D01*
X0000374860Y0000669782D01*
X0000339498Y0000634528D01*
X0000338327Y0000632780D01*
X0000319148Y0000586677D01*
X0000318734Y0000584613D01*
X0000318659Y0000534680D01*
X0000044370Y0000534680D01*
X0000044370Y0000979527D01*
X0000043959Y0000981591D01*
X0000042789Y0000983341D01*
X0000041040Y0000984510D01*
X0000038976Y0000984921D01*
X0000012342Y0000984921D01*
X0000009395Y0000985507D01*
X0000007348Y0000986875D01*
X0000005979Y0000988923D01*
X0000005393Y0000991869D01*
X0000005393Y0001085861D01*
X0000318659Y0001085861D01*
X0000319066Y0001083796D01*
X0000338105Y0001037635D01*
X0000338330Y0001037298D01*
X0000339272Y0001035884D01*
X0000374526Y0001000521D01*
X0000375573Y0000999821D01*
X0000376274Y0000999350D01*
X0000422378Y0000980172D01*
X0000424441Y0000979758D01*
X0000474374Y0000979682D01*
X0000476439Y0000980089D01*
X0000522599Y0000999129D01*
X0000523548Y0000999760D01*
X0000524352Y0001000294D01*
X0000559713Y0001035550D01*
X0000559715Y0001035553D01*
X0000559719Y0001035555D01*
X0000560308Y0001036437D01*
X0000560885Y0001037298D01*
X0000560886Y0001037302D01*
X0000560888Y0001037304D01*
X0000561092Y0001038330D01*
X0000561299Y0001039361D01*
X0000561298Y0001039366D01*
X0000561299Y0001039369D01*
X0000561299Y0001085861D01*
X0000830470Y0001085861D01*
X0000830877Y0001083796D01*
X0000849916Y0001037635D01*
X0000850140Y0001037298D01*
X0000851083Y0001035884D01*
X0000886337Y0001000521D01*
X0000887384Y0000999821D01*
X0000888085Y0000999350D01*
X0000934189Y0000980172D01*
X0000936252Y0000979758D01*
X0000986185Y0000979682D01*
X0000988249Y0000980089D01*
X0001034411Y0000999129D01*
X0001035358Y0000999760D01*
X0001036163Y0001000294D01*
X0001071524Y0001035550D01*
X0001071526Y0001035553D01*
X0001071530Y0001035555D01*
X0001072119Y0001036437D01*
X0001072696Y0001037298D01*
X0001072697Y0001037302D01*
X0001072699Y0001037304D01*
X0001072903Y0001038330D01*
X0001073110Y0001039361D01*
X0001073109Y0001039366D01*
X0001073110Y0001039369D01*
X0001073110Y0001085861D01*
X0001342281Y0001085861D01*
X0001342688Y0001083796D01*
X0001361727Y0001037635D01*
X0001361952Y0001037298D01*
X0001362893Y0001035884D01*
X0001398148Y0001000521D01*
X0001399195Y0000999821D01*
X0001399896Y0000999350D01*
X0001445999Y0000980172D01*
X0001448063Y0000979758D01*
X0001497996Y0000979682D01*
X0001500061Y0000980089D01*
X0001546222Y0000999129D01*
X0001547170Y0000999760D01*
X0001547974Y0001000294D01*
X0001583335Y0001035550D01*
X0001583337Y0001035553D01*
X0001583341Y0001035555D01*
X0001583930Y0001036437D01*
X0001584507Y0001037298D01*
X0001584508Y0001037302D01*
X0001584510Y0001037304D01*
X0001584714Y0001038330D01*
X0001584921Y0001039361D01*
X0001584920Y0001039366D01*
X0001584921Y0001039369D01*
X0001584921Y0001085861D01*
X0001893462Y0001085861D01*
X0001893868Y0001083796D01*
X0001912908Y0001037635D01*
X0001913133Y0001037298D01*
X0001914075Y0001035884D01*
X0001949329Y0001000521D01*
X0001950376Y0000999821D01*
X0001951077Y0000999350D01*
X0001997181Y0000980172D01*
X0001999244Y0000979758D01*
X0002049176Y0000979682D01*
X0002051241Y0000980089D01*
X0002097403Y0000999129D01*
X0002098351Y0000999760D01*
X0002099155Y0001000294D01*
X0002134516Y0001035550D01*
X0002134519Y0001035553D01*
X0002134522Y0001035555D01*
X0002135111Y0001036437D01*
X0002135688Y0001037298D01*
X0002135689Y0001037302D01*
X0002135691Y0001037304D01*
X0002135895Y0001038330D01*
X0002136102Y0001039361D01*
X0002136101Y0001039366D01*
X0002136102Y0001039369D01*
X0002136102Y0001085861D01*
X0002405273Y0001085861D01*
X0002405680Y0001083796D01*
X0002424719Y0001037635D01*
X0002424944Y0001037298D01*
X0002425886Y0001035884D01*
X0002461140Y0001000521D01*
X0002462187Y0000999821D01*
X0002462889Y0000999350D01*
X0002508992Y0000980172D01*
X0002511055Y0000979758D01*
X0002560988Y0000979682D01*
X0002563053Y0000980089D01*
X0002609214Y0000999129D01*
X0002610162Y0000999760D01*
X0002610966Y0001000294D01*
X0002646327Y0001035550D01*
X0002646330Y0001035553D01*
X0002646333Y0001035555D01*
X0002646922Y0001036437D01*
X0002647498Y0001037298D01*
X0002647500Y0001037302D01*
X0002647502Y0001037304D01*
X0002647706Y0001038330D01*
X0002647913Y0001039361D01*
X0002647912Y0001039366D01*
X0002647913Y0001039369D01*
X0002647913Y0001181889D01*
X0002647502Y0001183953D01*
X0002646333Y0001185703D01*
X0002611294Y0001220743D01*
X0002610815Y0001221062D01*
X0002771968Y0001221062D01*
X0002776574Y0001197906D01*
X0002789692Y0001178274D01*
X0002809323Y0001165157D01*
X0002832480Y0001160551D01*
X0002855637Y0001165157D01*
X0002875268Y0001178274D01*
X0002888385Y0001197906D01*
X0002892991Y0001221062D01*
X0002888385Y0001244219D01*
X0002875268Y0001263851D01*
X0002855637Y0001276968D01*
X0002832480Y0001281574D01*
X0002809323Y0001276968D01*
X0002789692Y0001263851D01*
X0002776574Y0001244219D01*
X0002771968Y0001221062D01*
X0002610815Y0001221062D01*
X0002610415Y0001221330D01*
X0002609551Y0001221909D01*
X0002563447Y0001241087D01*
X0002561385Y0001241501D01*
X0002511452Y0001241576D01*
X0002511111Y0001241509D01*
X0002509387Y0001241169D01*
X0002463226Y0001222130D01*
X0002462893Y0001221909D01*
X0002461474Y0001220964D01*
X0002426113Y0001185709D01*
X0002424941Y0001183961D01*
X0002405762Y0001137858D01*
X0002405349Y0001135794D01*
X0002405273Y0001085861D01*
X0002136102Y0001085861D01*
X0002136102Y0001181889D01*
X0002135691Y0001183953D01*
X0002134522Y0001185703D01*
X0002099483Y0001220743D01*
X0002098604Y0001221330D01*
X0002097740Y0001221909D01*
X0002051637Y0001241087D01*
X0002049573Y0001241501D01*
X0001999641Y0001241576D01*
X0001999300Y0001241509D01*
X0001997576Y0001241169D01*
X0001951415Y0001222130D01*
X0001951082Y0001221909D01*
X0001949663Y0001220964D01*
X0001914300Y0001185709D01*
X0001913129Y0001183961D01*
X0001893951Y0001137858D01*
X0001893538Y0001135794D01*
X0001893462Y0001085861D01*
X0001584921Y0001085861D01*
X0001584921Y0001181889D01*
X0001584510Y0001183953D01*
X0001583341Y0001185703D01*
X0001548302Y0001220743D01*
X0001547423Y0001221330D01*
X0001546559Y0001221909D01*
X0001500456Y0001241087D01*
X0001498393Y0001241501D01*
X0001448459Y0001241576D01*
X0001448119Y0001241509D01*
X0001446395Y0001241169D01*
X0001400234Y0001222130D01*
X0001399901Y0001221909D01*
X0001398482Y0001220964D01*
X0001363120Y0001185709D01*
X0001361949Y0001183961D01*
X0001342770Y0001137858D01*
X0001342357Y0001135794D01*
X0001342281Y0001085861D01*
X0001073110Y0001085861D01*
X0001073110Y0001181889D01*
X0001072699Y0001183953D01*
X0001071530Y0001185703D01*
X0001036491Y0001220743D01*
X0001035612Y0001221330D01*
X0001034748Y0001221909D01*
X0000988645Y0001241087D01*
X0000986582Y0001241501D01*
X0000936648Y0001241576D01*
X0000936308Y0001241509D01*
X0000934584Y0001241169D01*
X0000888423Y0001222130D01*
X0000888090Y0001221909D01*
X0000886671Y0001220964D01*
X0000851308Y0001185709D01*
X0000850138Y0001183961D01*
X0000830959Y0001137858D01*
X0000830545Y0001135794D01*
X0000830470Y0001085861D01*
X0000561299Y0001085861D01*
X0000561299Y0001181889D01*
X0000560888Y0001183953D01*
X0000559719Y0001185703D01*
X0000524680Y0001220743D01*
X0000523800Y0001221330D01*
X0000522937Y0001221909D01*
X0000476834Y0001241087D01*
X0000474770Y0001241501D01*
X0000424837Y0001241576D01*
X0000424497Y0001241509D01*
X0000422773Y0001241169D01*
X0000376611Y0001222130D01*
X0000376279Y0001221909D01*
X0000374860Y0001220964D01*
X0000339498Y0001185709D01*
X0000338327Y0001183961D01*
X0000319148Y0001137858D01*
X0000318734Y0001135794D01*
X0000318659Y0001085861D01*
X0000005393Y0001085861D01*
X0000005393Y0001221062D01*
X0000094803Y0001221062D01*
X0000099409Y0001197906D01*
X0000112526Y0001178274D01*
X0000132158Y0001165157D01*
X0000155314Y0001160551D01*
X0000178471Y0001165157D01*
X0000198103Y0001178274D01*
X0000211220Y0001197906D01*
X0000215826Y0001221062D01*
X0000211220Y0001244219D01*
X0000198103Y0001263851D01*
X0000178471Y0001276968D01*
X0000155314Y0001281574D01*
X0000132158Y0001276968D01*
X0000112526Y0001263851D01*
X0000099409Y0001244219D01*
X0000094803Y0001221062D01*
X0000005393Y0001221062D01*
X0000005393Y0001298681D01*
X0000011074Y0001327240D01*
X0000026951Y0001351001D01*
X0000050712Y0001366878D01*
X0000079271Y0001372559D01*
X0002912459Y0001372559D01*
X0002941019Y0001366878D01*
G04 next file*
G04 #@! TF.FileFunction,Copper,L1,Top,Signal*
G04 Gerber Fmt 4.6, Leading zero omitted, Abs format (unit mm)*
G04 Created by KiCad (PCBNEW (2016-09-17 revision 679eef1)-makepkg) date 09/24/16 16:35:10*
G01G01G01G01G01G01G01G01G01G01G01G01G01G01G01G01*
G04 APERTURE LIST*
G04 APERTURE END LIST*
D114*
D115*
X0000000000Y0002834645D02*
X0000953936Y0002223228D03*
X0000974244Y0002299015D03*
X0001029724Y0002354495D03*
X0001105511Y0002374803D03*
X0001181299Y0002354495D03*
X0001236779Y0002299015D03*
X0001257086Y0002223228D03*
X0001236779Y0002147440D03*
X0001181299Y0002091959D03*
X0001105511Y0002071653D03*
X0001029724Y0002091959D03*
X0000974244Y0002147440D03*
X0000442125Y0002223228D03*
X0000462433Y0002299015D03*
X0000517912Y0002354495D03*
X0000593700Y0002374803D03*
X0000669488Y0002354495D03*
X0000724968Y0002299015D03*
X0000745275Y0002223228D03*
X0000724968Y0002147440D03*
X0000669488Y0002091959D03*
X0000593700Y0002071653D03*
X0000517912Y0002091959D03*
X0000462433Y0002147440D03*
X0002253149Y0002223228D03*
X0002273456Y0002299015D03*
X0002328937Y0002354495D03*
X0002404724Y0002374803D03*
X0002480511Y0002354495D03*
X0002535991Y0002299015D03*
X0002556299Y0002223228D03*
X0002535991Y0002147440D03*
X0002480511Y0002091959D03*
X0002404724Y0002071653D03*
X0002328937Y0002091959D03*
X0002273456Y0002147440D03*
X0001741338Y0002223228D03*
X0001761645Y0002299015D03*
X0001817125Y0002354495D03*
X0001892913Y0002374803D03*
X0001968700Y0002354495D03*
X0002024181Y0002299015D03*
X0002044487Y0002223228D03*
X0002024181Y0002147440D03*
X0001968700Y0002091959D03*
X0001892913Y0002071653D03*
X0001817125Y0002091959D03*
X0001761645Y0002147440D03*
D116*
G36*
X0002941019Y0002823571D02*
X0002964781Y0002807693D01*
X0002980657Y0002783933D01*
X0002986338Y0002755374D01*
X0002986338Y0002452499D01*
X0002985752Y0002449553D01*
X0002984384Y0002447505D01*
X0002982336Y0002446137D01*
X0002979389Y0002445551D01*
X0002952755Y0002445551D01*
X0002950691Y0002445140D01*
X0002948941Y0002443971D01*
X0002947772Y0002442221D01*
X0002947362Y0002440157D01*
X0002947362Y0001855905D01*
X0002947772Y0001853841D01*
X0002948941Y0001852091D01*
X0002950691Y0001850922D01*
X0002952755Y0001850511D01*
X0002979389Y0001850511D01*
X0002982336Y0001849925D01*
X0002984384Y0001848557D01*
X0002985752Y0001846509D01*
X0002986338Y0001843563D01*
X0002986338Y0001555649D01*
X0002979189Y0001519707D01*
X0002959130Y0001489688D01*
X0002929111Y0001469629D01*
X0002893169Y0001462480D01*
X0000079271Y0001462086D01*
X0000050712Y0001467767D01*
X0000026951Y0001483643D01*
X0000011074Y0001507405D01*
X0000005393Y0001535964D01*
X0000005393Y0001612795D01*
X0000094803Y0001612795D01*
X0000099409Y0001589638D01*
X0000112526Y0001570006D01*
X0000132158Y0001556889D01*
X0000155314Y0001552283D01*
X0000178471Y0001556889D01*
X0000198103Y0001570006D01*
X0000211220Y0001589638D01*
X0000215630Y0001611811D01*
X0002770984Y0001611811D01*
X0002775590Y0001588654D01*
X0002788707Y0001569022D01*
X0002808339Y0001555905D01*
X0002831496Y0001551299D01*
X0002854652Y0001555905D01*
X0002874284Y0001569022D01*
X0002887401Y0001588654D01*
X0002892006Y0001611811D01*
X0002887401Y0001634967D01*
X0002874284Y0001654599D01*
X0002854652Y0001667716D01*
X0002831496Y0001672322D01*
X0002808339Y0001667716D01*
X0002788707Y0001654599D01*
X0002775590Y0001634967D01*
X0002770984Y0001611811D01*
X0000215630Y0001611811D01*
X0000215826Y0001612795D01*
X0000211220Y0001635952D01*
X0000198103Y0001655583D01*
X0000178471Y0001668700D01*
X0000155314Y0001673307D01*
X0000132158Y0001668700D01*
X0000112526Y0001655583D01*
X0000099409Y0001635952D01*
X0000094803Y0001612795D01*
X0000005393Y0001612795D01*
X0000005393Y0001839626D01*
X0000005979Y0001842572D01*
X0000007348Y0001844620D01*
X0000009395Y0001845988D01*
X0000012342Y0001846574D01*
X0000038976Y0001846574D01*
X0000041040Y0001846985D01*
X0000042789Y0001848154D01*
X0000043959Y0001849904D01*
X0000044370Y0001851968D01*
X0000044370Y0002198459D01*
X0000462753Y0002198459D01*
X0000463161Y0002196395D01*
X0000482200Y0002150234D01*
X0000482424Y0002149896D01*
X0000483366Y0002148482D01*
X0000518621Y0002113120D01*
X0000519667Y0002112419D01*
X0000520368Y0002111949D01*
X0000566472Y0002092769D01*
X0000568536Y0002092356D01*
X0000618469Y0002092280D01*
X0000620533Y0002092687D01*
X0000666695Y0002111727D01*
X0000667395Y0002112193D01*
X0000668446Y0002112894D01*
X0000703807Y0002148148D01*
X0000703810Y0002148152D01*
X0000703813Y0002148154D01*
X0000704403Y0002149036D01*
X0000704980Y0002149896D01*
X0000704980Y0002149900D01*
X0000704983Y0002149904D01*
X0000705186Y0002150929D01*
X0000705393Y0002151960D01*
X0000705392Y0002151964D01*
X0000705393Y0002151968D01*
X0000705393Y0002198459D01*
X0000974564Y0002198459D01*
X0000974971Y0002196395D01*
X0000994011Y0002150234D01*
X0000994235Y0002149896D01*
X0000995177Y0002148482D01*
X0001030432Y0002113120D01*
X0001031477Y0002112419D01*
X0001032180Y0002111949D01*
X0001078283Y0002092769D01*
X0001080347Y0002092356D01*
X0001130280Y0002092280D01*
X0001132344Y0002092687D01*
X0001178506Y0002111727D01*
X0001179206Y0002112193D01*
X0001180257Y0002112894D01*
X0001215619Y0002148148D01*
X0001215621Y0002148152D01*
X0001215624Y0002148154D01*
X0001216214Y0002149036D01*
X0001216791Y0002149896D01*
X0001216791Y0002149900D01*
X0001216794Y0002149904D01*
X0001216997Y0002150929D01*
X0001217204Y0002151960D01*
X0001217203Y0002151964D01*
X0001217204Y0002151968D01*
X0001217204Y0002198459D01*
X0001761966Y0002198459D01*
X0001762373Y0002196395D01*
X0001781412Y0002150234D01*
X0001781637Y0002149896D01*
X0001782579Y0002148482D01*
X0001817833Y0002113120D01*
X0001818880Y0002112419D01*
X0001819581Y0002111949D01*
X0001865685Y0002092769D01*
X0001867748Y0002092356D01*
X0001917681Y0002092280D01*
X0001919746Y0002092687D01*
X0001965907Y0002111727D01*
X0001966607Y0002112193D01*
X0001967659Y0002112894D01*
X0002003019Y0002148148D01*
X0002003023Y0002148152D01*
X0002003026Y0002148154D01*
X0002003615Y0002149036D01*
X0002004192Y0002149896D01*
X0002004193Y0002149900D01*
X0002004195Y0002149904D01*
X0002004398Y0002150929D01*
X0002004606Y0002151960D01*
X0002004605Y0002151964D01*
X0002004606Y0002151968D01*
X0002004606Y0002198459D01*
X0002273777Y0002198459D01*
X0002274184Y0002196395D01*
X0002293223Y0002150234D01*
X0002293448Y0002149896D01*
X0002294390Y0002148482D01*
X0002329644Y0002113120D01*
X0002330691Y0002112419D01*
X0002331392Y0002111949D01*
X0002377496Y0002092769D01*
X0002379559Y0002092356D01*
X0002429492Y0002092280D01*
X0002431557Y0002092687D01*
X0002477718Y0002111727D01*
X0002478418Y0002112193D01*
X0002479470Y0002112894D01*
X0002514831Y0002148148D01*
X0002514834Y0002148152D01*
X0002514837Y0002148154D01*
X0002515426Y0002149036D01*
X0002516003Y0002149896D01*
X0002516004Y0002149900D01*
X0002516006Y0002149904D01*
X0002516210Y0002150929D01*
X0002516417Y0002151960D01*
X0002516416Y0002151964D01*
X0002516417Y0002151968D01*
X0002516417Y0002294488D01*
X0002516006Y0002296552D01*
X0002514837Y0002298302D01*
X0002479798Y0002333341D01*
X0002478919Y0002333928D01*
X0002478055Y0002334507D01*
X0002431952Y0002353685D01*
X0002429889Y0002354099D01*
X0002379956Y0002354175D01*
X0002379615Y0002354108D01*
X0002377891Y0002353767D01*
X0002331730Y0002334729D01*
X0002331397Y0002334507D01*
X0002329978Y0002333562D01*
X0002294617Y0002298307D01*
X0002293445Y0002296559D01*
X0002274266Y0002250456D01*
X0002273853Y0002248393D01*
X0002273777Y0002198459D01*
X0002004606Y0002198459D01*
X0002004606Y0002294488D01*
X0002004195Y0002296552D01*
X0002003026Y0002298302D01*
X0001967987Y0002333341D01*
X0001967108Y0002333928D01*
X0001966244Y0002334507D01*
X0001920141Y0002353685D01*
X0001918078Y0002354099D01*
X0001868145Y0002354175D01*
X0001867804Y0002354108D01*
X0001866080Y0002353767D01*
X0001819918Y0002334729D01*
X0001819586Y0002334507D01*
X0001818167Y0002333562D01*
X0001782806Y0002298307D01*
X0001781634Y0002296559D01*
X0001762455Y0002250456D01*
X0001762042Y0002248393D01*
X0001761966Y0002198459D01*
X0001217204Y0002198459D01*
X0001217204Y0002294488D01*
X0001216794Y0002296552D01*
X0001215624Y0002298302D01*
X0001180585Y0002333341D01*
X0001179707Y0002333928D01*
X0001178843Y0002334507D01*
X0001132740Y0002353685D01*
X0001130676Y0002354099D01*
X0001080743Y0002354175D01*
X0001080403Y0002354108D01*
X0001078678Y0002353767D01*
X0001032516Y0002334729D01*
X0001032184Y0002334507D01*
X0001030764Y0002333562D01*
X0000995403Y0002298307D01*
X0000994232Y0002296559D01*
X0000975054Y0002250456D01*
X0000974640Y0002248393D01*
X0000974564Y0002198459D01*
X0000705393Y0002198459D01*
X0000705393Y0002294488D01*
X0000704983Y0002296552D01*
X0000703813Y0002298302D01*
X0000668774Y0002333341D01*
X0000667896Y0002333928D01*
X0000667032Y0002334507D01*
X0000620928Y0002353685D01*
X0000618865Y0002354099D01*
X0000568932Y0002354175D01*
X0000568592Y0002354108D01*
X0000566867Y0002353767D01*
X0000520706Y0002334729D01*
X0000520373Y0002334507D01*
X0000518954Y0002333562D01*
X0000483593Y0002298307D01*
X0000482420Y0002296559D01*
X0000463243Y0002250456D01*
X0000462829Y0002248393D01*
X0000462753Y0002198459D01*
X0000044370Y0002198459D01*
X0000044370Y0002436220D01*
X0000043959Y0002438284D01*
X0000042789Y0002440034D01*
X0000041040Y0002441203D01*
X0000038976Y0002441614D01*
X0000012342Y0002441614D01*
X0000009395Y0002442200D01*
X0000007348Y0002443568D01*
X0000005979Y0002445616D01*
X0000005393Y0002448562D01*
X0000005393Y0002677754D01*
X0000094803Y0002677754D01*
X0000099409Y0002654599D01*
X0000112526Y0002634967D01*
X0000132158Y0002621850D01*
X0000155314Y0002617244D01*
X0000178471Y0002621850D01*
X0000198103Y0002634967D01*
X0000211220Y0002654599D01*
X0000215826Y0002677754D01*
X0002771968Y0002677754D01*
X0002776574Y0002654599D01*
X0002789692Y0002634967D01*
X0002809323Y0002621850D01*
X0002832480Y0002617244D01*
X0002855637Y0002621850D01*
X0002875268Y0002634967D01*
X0002888385Y0002654599D01*
X0002892991Y0002677754D01*
X0002888385Y0002700912D01*
X0002875268Y0002720544D01*
X0002855637Y0002733660D01*
X0002832480Y0002738267D01*
X0002809323Y0002733660D01*
X0002789692Y0002720544D01*
X0002776574Y0002700912D01*
X0002771968Y0002677754D01*
X0000215826Y0002677754D01*
X0000211220Y0002700912D01*
X0000198103Y0002720544D01*
X0000178471Y0002733660D01*
X0000155314Y0002738267D01*
X0000132158Y0002733660D01*
X0000112526Y0002720544D01*
X0000099409Y0002700912D01*
X0000094803Y0002677754D01*
X0000005393Y0002677754D01*
X0000005393Y0002755374D01*
X0000011074Y0002783933D01*
X0000026951Y0002807693D01*
X0000050712Y0002823571D01*
X0000079271Y0002829251D01*
X0002912459Y0002829251D01*
X0002941019Y0002823571D01*
X0002941019Y0002823571D01*
G37*
X0002941019Y0002823571D02*
X0002964781Y0002807693D01*
X0002980657Y0002783933D01*
X0002986338Y0002755374D01*
X0002986338Y0002452499D01*
X0002985752Y0002449553D01*
X0002984384Y0002447505D01*
X0002982336Y0002446137D01*
X0002979389Y0002445551D01*
X0002952755Y0002445551D01*
X0002950691Y0002445140D01*
X0002948941Y0002443971D01*
X0002947772Y0002442221D01*
X0002947362Y0002440157D01*
X0002947362Y0001855905D01*
X0002947772Y0001853841D01*
X0002948941Y0001852091D01*
X0002950691Y0001850922D01*
X0002952755Y0001850511D01*
X0002979389Y0001850511D01*
X0002982336Y0001849925D01*
X0002984384Y0001848557D01*
X0002985752Y0001846509D01*
X0002986338Y0001843563D01*
X0002986338Y0001555649D01*
X0002979189Y0001519707D01*
X0002959130Y0001489688D01*
X0002929111Y0001469629D01*
X0002893169Y0001462480D01*
X0000079271Y0001462086D01*
X0000050712Y0001467767D01*
X0000026951Y0001483643D01*
X0000011074Y0001507405D01*
X0000005393Y0001535964D01*
X0000005393Y0001612795D01*
X0000094803Y0001612795D01*
X0000099409Y0001589638D01*
X0000112526Y0001570006D01*
X0000132158Y0001556889D01*
X0000155314Y0001552283D01*
X0000178471Y0001556889D01*
X0000198103Y0001570006D01*
X0000211220Y0001589638D01*
X0000215630Y0001611811D01*
X0002770984Y0001611811D01*
X0002775590Y0001588654D01*
X0002788707Y0001569022D01*
X0002808339Y0001555905D01*
X0002831496Y0001551299D01*
X0002854652Y0001555905D01*
X0002874284Y0001569022D01*
X0002887401Y0001588654D01*
X0002892006Y0001611811D01*
X0002887401Y0001634967D01*
X0002874284Y0001654599D01*
X0002854652Y0001667716D01*
X0002831496Y0001672322D01*
X0002808339Y0001667716D01*
X0002788707Y0001654599D01*
X0002775590Y0001634967D01*
X0002770984Y0001611811D01*
X0000215630Y0001611811D01*
X0000215826Y0001612795D01*
X0000211220Y0001635952D01*
X0000198103Y0001655583D01*
X0000178471Y0001668700D01*
X0000155314Y0001673307D01*
X0000132158Y0001668700D01*
X0000112526Y0001655583D01*
X0000099409Y0001635952D01*
X0000094803Y0001612795D01*
X0000005393Y0001612795D01*
X0000005393Y0001839626D01*
X0000005979Y0001842572D01*
X0000007348Y0001844620D01*
X0000009395Y0001845988D01*
X0000012342Y0001846574D01*
X0000038976Y0001846574D01*
X0000041040Y0001846985D01*
X0000042789Y0001848154D01*
X0000043959Y0001849904D01*
X0000044370Y0001851968D01*
X0000044370Y0002198459D01*
X0000462753Y0002198459D01*
X0000463161Y0002196395D01*
X0000482200Y0002150234D01*
X0000482424Y0002149896D01*
X0000483366Y0002148482D01*
X0000518621Y0002113120D01*
X0000519667Y0002112419D01*
X0000520368Y0002111949D01*
X0000566472Y0002092769D01*
X0000568536Y0002092356D01*
X0000618469Y0002092280D01*
X0000620533Y0002092687D01*
X0000666695Y0002111727D01*
X0000667395Y0002112193D01*
X0000668446Y0002112894D01*
X0000703807Y0002148148D01*
X0000703810Y0002148152D01*
X0000703813Y0002148154D01*
X0000704403Y0002149036D01*
X0000704980Y0002149896D01*
X0000704980Y0002149900D01*
X0000704983Y0002149904D01*
X0000705186Y0002150929D01*
X0000705393Y0002151960D01*
X0000705392Y0002151964D01*
X0000705393Y0002151968D01*
X0000705393Y0002198459D01*
X0000974564Y0002198459D01*
X0000974971Y0002196395D01*
X0000994011Y0002150234D01*
X0000994235Y0002149896D01*
X0000995177Y0002148482D01*
X0001030432Y0002113120D01*
X0001031477Y0002112419D01*
X0001032180Y0002111949D01*
X0001078283Y0002092769D01*
X0001080347Y0002092356D01*
X0001130280Y0002092280D01*
X0001132344Y0002092687D01*
X0001178506Y0002111727D01*
X0001179206Y0002112193D01*
X0001180257Y0002112894D01*
X0001215619Y0002148148D01*
X0001215621Y0002148152D01*
X0001215624Y0002148154D01*
X0001216214Y0002149036D01*
X0001216791Y0002149896D01*
X0001216791Y0002149900D01*
X0001216794Y0002149904D01*
X0001216997Y0002150929D01*
X0001217204Y0002151960D01*
X0001217203Y0002151964D01*
X0001217204Y0002151968D01*
X0001217204Y0002198459D01*
X0001761966Y0002198459D01*
X0001762373Y0002196395D01*
X0001781412Y0002150234D01*
X0001781637Y0002149896D01*
X0001782579Y0002148482D01*
X0001817833Y0002113120D01*
X0001818880Y0002112419D01*
X0001819581Y0002111949D01*
X0001865685Y0002092769D01*
X0001867748Y0002092356D01*
X0001917681Y0002092280D01*
X0001919746Y0002092687D01*
X0001965907Y0002111727D01*
X0001966607Y0002112193D01*
X0001967659Y0002112894D01*
X0002003019Y0002148148D01*
X0002003023Y0002148152D01*
X0002003026Y0002148154D01*
X0002003615Y0002149036D01*
X0002004192Y0002149896D01*
X0002004193Y0002149900D01*
X0002004195Y0002149904D01*
X0002004398Y0002150929D01*
X0002004606Y0002151960D01*
X0002004605Y0002151964D01*
X0002004606Y0002151968D01*
X0002004606Y0002198459D01*
X0002273777Y0002198459D01*
X0002274184Y0002196395D01*
X0002293223Y0002150234D01*
X0002293448Y0002149896D01*
X0002294390Y0002148482D01*
X0002329644Y0002113120D01*
X0002330691Y0002112419D01*
X0002331392Y0002111949D01*
X0002377496Y0002092769D01*
X0002379559Y0002092356D01*
X0002429492Y0002092280D01*
X0002431557Y0002092687D01*
X0002477718Y0002111727D01*
X0002478418Y0002112193D01*
X0002479470Y0002112894D01*
X0002514831Y0002148148D01*
X0002514834Y0002148152D01*
X0002514837Y0002148154D01*
X0002515426Y0002149036D01*
X0002516003Y0002149896D01*
X0002516004Y0002149900D01*
X0002516006Y0002149904D01*
X0002516210Y0002150929D01*
X0002516417Y0002151960D01*
X0002516416Y0002151964D01*
X0002516417Y0002151968D01*
X0002516417Y0002294488D01*
X0002516006Y0002296552D01*
X0002514837Y0002298302D01*
X0002479798Y0002333341D01*
X0002478919Y0002333928D01*
X0002478055Y0002334507D01*
X0002431952Y0002353685D01*
X0002429889Y0002354099D01*
X0002379956Y0002354175D01*
X0002379615Y0002354108D01*
X0002377891Y0002353767D01*
X0002331730Y0002334729D01*
X0002331397Y0002334507D01*
X0002329978Y0002333562D01*
X0002294617Y0002298307D01*
X0002293445Y0002296559D01*
X0002274266Y0002250456D01*
X0002273853Y0002248393D01*
X0002273777Y0002198459D01*
X0002004606Y0002198459D01*
X0002004606Y0002294488D01*
X0002004195Y0002296552D01*
X0002003026Y0002298302D01*
X0001967987Y0002333341D01*
X0001967108Y0002333928D01*
X0001966244Y0002334507D01*
X0001920141Y0002353685D01*
X0001918078Y0002354099D01*
X0001868145Y0002354175D01*
X0001867804Y0002354108D01*
X0001866080Y0002353767D01*
X0001819918Y0002334729D01*
X0001819586Y0002334507D01*
X0001818167Y0002333562D01*
X0001782806Y0002298307D01*
X0001781634Y0002296559D01*
X0001762455Y0002250456D01*
X0001762042Y0002248393D01*
X0001761966Y0002198459D01*
X0001217204Y0002198459D01*
X0001217204Y0002294488D01*
X0001216794Y0002296552D01*
X0001215624Y0002298302D01*
X0001180585Y0002333341D01*
X0001179707Y0002333928D01*
X0001178843Y0002334507D01*
X0001132740Y0002353685D01*
X0001130676Y0002354099D01*
X0001080743Y0002354175D01*
X0001080403Y0002354108D01*
X0001078678Y0002353767D01*
X0001032516Y0002334729D01*
X0001032184Y0002334507D01*
X0001030764Y0002333562D01*
X0000995403Y0002298307D01*
X0000994232Y0002296559D01*
X0000975054Y0002250456D01*
X0000974640Y0002248393D01*
X0000974564Y0002198459D01*
X0000705393Y0002198459D01*
X0000705393Y0002294488D01*
X0000704983Y0002296552D01*
X0000703813Y0002298302D01*
X0000668774Y0002333341D01*
X0000667896Y0002333928D01*
X0000667032Y0002334507D01*
X0000620928Y0002353685D01*
X0000618865Y0002354099D01*
X0000568932Y0002354175D01*
X0000568592Y0002354108D01*
X0000566867Y0002353767D01*
X0000520706Y0002334729D01*
X0000520373Y0002334507D01*
X0000518954Y0002333562D01*
X0000483593Y0002298307D01*
X0000482420Y0002296559D01*
X0000463243Y0002250456D01*
X0000462829Y0002248393D01*
X0000462753Y0002198459D01*
X0000044370Y0002198459D01*
X0000044370Y0002436220D01*
X0000043959Y0002438284D01*
X0000042789Y0002440034D01*
X0000041040Y0002441203D01*
X0000038976Y0002441614D01*
X0000012342Y0002441614D01*
X0000009395Y0002442200D01*
X0000007348Y0002443568D01*
X0000005979Y0002445616D01*
X0000005393Y0002448562D01*
X0000005393Y0002677754D01*
X0000094803Y0002677754D01*
X0000099409Y0002654599D01*
X0000112526Y0002634967D01*
X0000132158Y0002621850D01*
X0000155314Y0002617244D01*
X0000178471Y0002621850D01*
X0000198103Y0002634967D01*
X0000211220Y0002654599D01*
X0000215826Y0002677754D01*
X0002771968Y0002677754D01*
X0002776574Y0002654599D01*
X0002789692Y0002634967D01*
X0002809323Y0002621850D01*
X0002832480Y0002617244D01*
X0002855637Y0002621850D01*
X0002875268Y0002634967D01*
X0002888385Y0002654599D01*
X0002892991Y0002677754D01*
X0002888385Y0002700912D01*
X0002875268Y0002720544D01*
X0002855637Y0002733660D01*
X0002832480Y0002738267D01*
X0002809323Y0002733660D01*
X0002789692Y0002720544D01*
X0002776574Y0002700912D01*
X0002771968Y0002677754D01*
X0000215826Y0002677754D01*
X0000211220Y0002700912D01*
X0000198103Y0002720544D01*
X0000178471Y0002733660D01*
X0000155314Y0002738267D01*
X0000132158Y0002733660D01*
X0000112526Y0002720544D01*
X0000099409Y0002700912D01*
X0000094803Y0002677754D01*
X0000005393Y0002677754D01*
X0000005393Y0002755374D01*
X0000011074Y0002783933D01*
X0000026951Y0002807693D01*
X0000050712Y0002823571D01*
X0000079271Y0002829251D01*
X0002912459Y0002829251D01*
X0002941019Y0002823571D01*
M02*