%MOIN*%
%OFA0B0*%
%FSLAX46Y46*%
%IPPOS*%
%LPD*%
%ADD10C,0.005905511811023622*%
%ADD11C,0.0066929133858267724*%
%ADD12C,0.0039370078740157488*%
%ADD13C,0.027559055118110236*%
%ADD14C,0.053149606299212608*%
%ADD15C,0.11811023622047245*%
%ADD16C,0.03937007874015748*%
%ADD17C,0.047244094488188976*%
%ADD18C,0.023622047244094488*%
%ADD19C,0.01*%
%ADD30C,0.005905511811023622*%
%ADD31C,0.0039370078740157488*%
%ADD32C,0.20472440944881892*%
%ADD33C,0.01*%
%ADD44C,0.005905511811023622*%
%ADD45C,0.0039370078740157488*%
%ADD46C,0.20472440944881892*%
%ADD47C,0.01*%
%ADD58C,0.005905511811023622*%
%ADD59C,0.0039370078740157488*%
%ADD60C,0.20472440944881892*%
%ADD61C,0.01*%
%ADD72C,0.005905511811023622*%
%ADD73C,0.0039370078740157488*%
%ADD74C,0.20472440944881892*%
%ADD75C,0.01*%
%ADD86C,0.005905511811023622*%
%ADD87C,0.0078740157480314977*%
%ADD98C,0.005905511811023622*%
%ADD99C,0.0078740157480314977*%
%ADD110C,0.005905511811023622*%
%ADD111C,0.011811023622047244*%
%ADD112C,0.0039370078740157488*%
%ADD113C,0.027559055118110236*%
%ADD114C,0.053149606299212608*%
%ADD115C,0.11811023622047245*%
%ADD116C,0.01*%
%ADD127C,0.005905511811023622*%
%ADD128C,0.011811023622047244*%
%ADD129C,0.0039370078740157488*%
%ADD130C,0.027559055118110236*%
%ADD131C,0.053149606299212608*%
%ADD132C,0.11811023622047245*%
%ADD133C,0.01*%
%LPD*%
G01G01G01G01G01G01G01G01*
D10*
D11*
X0002246033Y0003277810D02*
G75*
G03G03G03G03X0002246033Y0003277810I-0000064960D01X0002246033Y0003277810I-0000064960D01X0002246033Y0003277810I-0000064960D01G03G03X0002246033Y0003277810I-0000064960D01G03G03X0002246033Y0003277810I-0000064960D01X0002246033Y0003277810I-0000064960D01X0002246033Y0003277810I-0000064960D01X0002246033Y0003277810I-0000064960D01*
G01G01G01G01G01G01G01G01*
D12*
X0002144402Y0003315117D02*
X0002166336Y0003315117D01*
X0002154525Y0003300119D01*
X0002159587Y0003300119D01*
X0002162962Y0003298245D01*
X0002164649Y0003296370D01*
X0002166336Y0003292619D01*
X0002166336Y0003283247D01*
X0002164649Y0003279497D01*
X0002162962Y0003277622D01*
X0002159587Y0003275748D01*
X0002149464Y0003275748D01*
X0002146089Y0003277622D01*
X0002144402Y0003279497D01*
X0002181522Y0003279497D02*
X0002183209Y0003277622D01*
X0002181522Y0003275748D01*
X0002179835Y0003277622D01*
X0002181522Y0003279497D01*
X0002181522Y0003275748D01*
X0002195020Y0003315117D02*
X0002216955Y0003315117D01*
X0002205144Y0003300119D01*
X0002210206Y0003300119D01*
X0002213581Y0003298245D01*
X0002215268Y0003296370D01*
X0002216955Y0003292619D01*
X0002216955Y0003283247D01*
X0002215268Y0003279497D01*
X0002213581Y0003277622D01*
X0002210206Y0003275748D01*
X0002200082Y0003275748D01*
X0002196708Y0003277622D01*
X0002195020Y0003279497D01*
D11*
X0002175167Y0003283715D02*
X0002192883Y0003265999D01*
X0002186978Y0003283715D02*
X0002169261Y0003265999D01*
X0001986190Y0003289621D02*
X0002009812Y0003265999D01*
X0002009812Y0003289621D02*
X0001986190Y0003265999D01*
X0002192883Y0003490407D02*
X0002169261Y0003466786D01*
X0002169261Y0003490407D02*
X0002192883Y0003466786D01*
X0001986190Y0003490407D02*
X0002009812Y0003466786D01*
X0002009812Y0003490407D02*
X0001986190Y0003466786D01*
D12*
X0000283969Y0003933622D02*
X0000272158Y0003952369D01*
X0000263721Y0003933622D02*
X0000263721Y0003972992D01*
X0000277219Y0003972992D01*
X0000280594Y0003971117D01*
X0000282281Y0003969242D01*
X0000283969Y0003965493D01*
X0000283969Y0003959868D01*
X0000282281Y0003956118D01*
X0000280594Y0003954244D01*
X0000277219Y0003952369D01*
X0000263721Y0003952369D01*
X0000310965Y0003954244D02*
X0000299154Y0003954244D01*
X0000299154Y0003933622D02*
X0000299154Y0003972992D01*
X0000316027Y0003972992D01*
X0000351460Y0003972992D02*
X0000371708Y0003972992D01*
X0000361584Y0003933622D02*
X0000361584Y0003972992D01*
X0000383519Y0003933622D02*
X0000383519Y0003959868D01*
X0000383519Y0003952369D02*
X0000385206Y0003956118D01*
X0000386893Y0003957992D01*
X0000390268Y0003959868D01*
X0000393642Y0003959868D01*
X0000420639Y0003933622D02*
X0000420639Y0003954244D01*
X0000418952Y0003957992D01*
X0000415577Y0003959868D01*
X0000408828Y0003959868D01*
X0000405453Y0003957992D01*
X0000420639Y0003935496D02*
X0000417263Y0003933622D01*
X0000408828Y0003933622D01*
X0000405453Y0003935496D01*
X0000403766Y0003939246D01*
X0000403766Y0003942995D01*
X0000405453Y0003946745D01*
X0000408828Y0003948620D01*
X0000417263Y0003948620D01*
X0000420639Y0003950494D01*
X0000437512Y0003959868D02*
X0000437512Y0003933622D01*
X0000437512Y0003956118D02*
X0000439199Y0003957992D01*
X0000442574Y0003959868D01*
X0000447636Y0003959868D01*
X0000451009Y0003957992D01*
X0000452697Y0003954244D01*
X0000452697Y0003933622D01*
X0000467883Y0003935496D02*
X0000471258Y0003933622D01*
X0000478006Y0003933622D01*
X0000481381Y0003935496D01*
X0000483069Y0003939246D01*
X0000483069Y0003941121D01*
X0000481381Y0003944870D01*
X0000478006Y0003946745D01*
X0000472945Y0003946745D01*
X0000469570Y0003948620D01*
X0000467883Y0003952369D01*
X0000467883Y0003954244D01*
X0000469570Y0003957992D01*
X0000472945Y0003959868D01*
X0000478006Y0003959868D01*
X0000481381Y0003957992D01*
X0000513440Y0003935496D02*
X0000510065Y0003933622D01*
X0000503316Y0003933622D01*
X0000499942Y0003935496D01*
X0000498254Y0003937371D01*
X0000496566Y0003941121D01*
X0000496566Y0003952369D01*
X0000498254Y0003956118D01*
X0000499942Y0003957992D01*
X0000503316Y0003959868D01*
X0000510065Y0003959868D01*
X0000513440Y0003957992D01*
X0000542124Y0003935496D02*
X0000538749Y0003933622D01*
X0000532000Y0003933622D01*
X0000528626Y0003935496D01*
X0000526938Y0003939246D01*
X0000526938Y0003954244D01*
X0000528626Y0003957992D01*
X0000532000Y0003959868D01*
X0000538749Y0003959868D01*
X0000542124Y0003957992D01*
X0000543811Y0003954244D01*
X0000543811Y0003950494D01*
X0000526938Y0003946745D01*
X0000558997Y0003933622D02*
X0000558997Y0003959868D01*
X0000558997Y0003972992D02*
X0000557309Y0003971117D01*
X0000558997Y0003969242D01*
X0000560684Y0003971117D01*
X0000558997Y0003972992D01*
X0000558997Y0003969242D01*
X0000572495Y0003959868D02*
X0000580931Y0003933622D01*
X0000589368Y0003959868D01*
X0000616365Y0003935496D02*
X0000612990Y0003933622D01*
X0000606241Y0003933622D01*
X0000602866Y0003935496D01*
X0000601179Y0003939246D01*
X0000601179Y0003954244D01*
X0000602866Y0003957992D01*
X0000606241Y0003959868D01*
X0000612990Y0003959868D01*
X0000616365Y0003957992D01*
X0000618052Y0003954244D01*
X0000618052Y0003950494D01*
X0000601179Y0003946745D01*
X0000633237Y0003933622D02*
X0000633237Y0003959868D01*
X0000633237Y0003952369D02*
X0000634925Y0003956118D01*
X0000636612Y0003957992D01*
X0000639987Y0003959868D01*
X0000643361Y0003959868D01*
X0000655172Y0003937371D02*
X0000656860Y0003935496D01*
X0000655172Y0003933622D01*
X0000653485Y0003935496D01*
X0000655172Y0003937371D01*
X0000655172Y0003933622D01*
X0000655172Y0003957992D02*
X0000656860Y0003956118D01*
X0000655172Y0003954244D01*
X0000653485Y0003956118D01*
X0000655172Y0003957992D01*
X0000655172Y0003954244D01*
X0000715914Y0003933622D02*
X0000699042Y0003933622D01*
X0000699042Y0003972992D01*
X0000727726Y0003933622D02*
X0000727726Y0003959868D01*
X0000727726Y0003972992D02*
X0000726037Y0003971117D01*
X0000727726Y0003969242D01*
X0000729413Y0003971117D01*
X0000727726Y0003972992D01*
X0000727726Y0003969242D01*
X0000744599Y0003933622D02*
X0000744599Y0003959868D01*
X0000744599Y0003956118D02*
X0000746286Y0003957992D01*
X0000749660Y0003959868D01*
X0000754722Y0003959868D01*
X0000758097Y0003957992D01*
X0000759784Y0003954244D01*
X0000759784Y0003933622D01*
X0000759784Y0003954244D02*
X0000761471Y0003957992D01*
X0000764846Y0003959868D01*
X0000769908Y0003959868D01*
X0000773282Y0003957992D01*
X0000774970Y0003954244D01*
X0000774970Y0003933622D01*
X0000805341Y0003935496D02*
X0000801966Y0003933622D01*
X0000795217Y0003933622D01*
X0000791843Y0003935496D01*
X0000790155Y0003939246D01*
X0000790155Y0003954244D01*
X0000791843Y0003957992D01*
X0000795217Y0003959868D01*
X0000801966Y0003959868D01*
X0000805341Y0003957992D01*
X0000807028Y0003954244D01*
X0000807028Y0003950494D01*
X0000790155Y0003946745D01*
X0000849210Y0003933622D02*
X0000849210Y0003972992D01*
X0000861021Y0003944870D01*
X0000872832Y0003972992D01*
X0000872832Y0003933622D01*
X0000889705Y0003933622D02*
X0000889705Y0003959868D01*
X0000889705Y0003972992D02*
X0000888018Y0003971117D01*
X0000889705Y0003969242D01*
X0000891393Y0003971117D01*
X0000889705Y0003972992D01*
X0000889705Y0003969242D01*
X0000921764Y0003935496D02*
X0000918389Y0003933622D01*
X0000911640Y0003933622D01*
X0000908266Y0003935496D01*
X0000906578Y0003937371D01*
X0000904891Y0003941121D01*
X0000904891Y0003952369D01*
X0000906578Y0003956118D01*
X0000908266Y0003957992D01*
X0000911640Y0003959868D01*
X0000918389Y0003959868D01*
X0000921764Y0003957992D01*
X0000936949Y0003933622D02*
X0000936949Y0003959868D01*
X0000936949Y0003952369D02*
X0000938637Y0003956118D01*
X0000940324Y0003957992D01*
X0000943699Y0003959868D01*
X0000947073Y0003959868D01*
X0000963946Y0003933622D02*
X0000960572Y0003935496D01*
X0000958884Y0003937371D01*
X0000957197Y0003941121D01*
X0000957197Y0003952369D01*
X0000958884Y0003956118D01*
X0000960572Y0003957992D01*
X0000963946Y0003959868D01*
X0000969008Y0003959868D01*
X0000972383Y0003957992D01*
X0000974070Y0003956118D01*
X0000975756Y0003952369D01*
X0000975756Y0003941121D01*
X0000974070Y0003937371D01*
X0000972383Y0003935496D01*
X0000969008Y0003933622D01*
X0000963946Y0003933622D01*
X0000989255Y0003935496D02*
X0000992630Y0003933622D01*
X0000999379Y0003933622D01*
X0001002753Y0003935496D01*
X0001004440Y0003939246D01*
X0001004440Y0003941121D01*
X0001002753Y0003944870D01*
X0000999379Y0003946745D01*
X0000994317Y0003946745D01*
X0000990942Y0003948620D01*
X0000989255Y0003952369D01*
X0000989255Y0003954244D01*
X0000990942Y0003957992D01*
X0000994317Y0003959868D01*
X0000999379Y0003959868D01*
X0001002753Y0003957992D01*
X0001016251Y0003959868D02*
X0001024689Y0003933622D01*
X0001033125Y0003959868D02*
X0001024689Y0003933622D01*
X0001021314Y0003924248D01*
X0001019627Y0003922373D01*
X0001016251Y0003920498D01*
X0001044936Y0003935496D02*
X0001048311Y0003933622D01*
X0001055060Y0003933622D01*
X0001058434Y0003935496D01*
X0001060122Y0003939246D01*
X0001060122Y0003941121D01*
X0001058434Y0003944870D01*
X0001055060Y0003946745D01*
X0001049998Y0003946745D01*
X0001046623Y0003948620D01*
X0001044936Y0003952369D01*
X0001044936Y0003954244D01*
X0001046623Y0003957992D01*
X0001049998Y0003959868D01*
X0001055060Y0003959868D01*
X0001058434Y0003957992D01*
X0001070245Y0003959868D02*
X0001083744Y0003959868D01*
X0001075307Y0003972992D02*
X0001075307Y0003939246D01*
X0001076994Y0003935496D01*
X0001080369Y0003933622D01*
X0001083744Y0003933622D01*
X0001109053Y0003935496D02*
X0001105678Y0003933622D01*
X0001098929Y0003933622D01*
X0001095555Y0003935496D01*
X0001093867Y0003939246D01*
X0001093867Y0003954244D01*
X0001095555Y0003957992D01*
X0001098929Y0003959868D01*
X0001105678Y0003959868D01*
X0001109053Y0003957992D01*
X0001110740Y0003954244D01*
X0001110740Y0003950494D01*
X0001093867Y0003946745D01*
X0001125926Y0003933622D02*
X0001125926Y0003959868D01*
X0001125926Y0003956118D02*
X0001127613Y0003957992D01*
X0001130988Y0003959868D01*
X0001136050Y0003959868D01*
X0001139424Y0003957992D01*
X0001141111Y0003954244D01*
X0001141111Y0003933622D01*
X0001141111Y0003954244D02*
X0001142799Y0003957992D01*
X0001146173Y0003959868D01*
X0001151235Y0003959868D01*
X0001154610Y0003957992D01*
X0001156297Y0003954244D01*
X0001156297Y0003933622D01*
X0001171483Y0003935496D02*
X0001174857Y0003933622D01*
X0001181606Y0003933622D01*
X0001184981Y0003935496D01*
X0001186668Y0003939246D01*
X0001186668Y0003941121D01*
X0001184981Y0003944870D01*
X0001181606Y0003946745D01*
X0001176545Y0003946745D01*
X0001173170Y0003948620D01*
X0001171483Y0003952369D01*
X0001171483Y0003954244D01*
X0001173170Y0003957992D01*
X0001176545Y0003959868D01*
X0001181606Y0003959868D01*
X0001184981Y0003957992D01*
X0001245723Y0003933622D02*
X0001228850Y0003933622D01*
X0001228850Y0003972992D01*
X0001257534Y0003933622D02*
X0001257534Y0003972992D01*
X0001269345Y0003944870D01*
X0001281156Y0003972992D01*
X0001281156Y0003933622D01*
X0001296341Y0003935496D02*
X0001301404Y0003933622D01*
X0001309840Y0003933622D01*
X0001313215Y0003935496D01*
X0001314902Y0003937371D01*
X0001316590Y0003941121D01*
X0001316590Y0003944870D01*
X0001314902Y0003948620D01*
X0001313215Y0003950494D01*
X0001309840Y0003952369D01*
X0001303091Y0003954244D01*
X0001299717Y0003956118D01*
X0001298029Y0003957992D01*
X0001296341Y0003961743D01*
X0001296341Y0003965493D01*
X0001298029Y0003969242D01*
X0001299717Y0003971117D01*
X0001303091Y0003972992D01*
X0001311528Y0003972992D01*
X0001316590Y0003971117D01*
X0001328401Y0003972992D02*
X0001352023Y0003972992D01*
X0001336837Y0003933622D01*
X0001372270Y0003972992D02*
X0001375644Y0003972992D01*
X0001379019Y0003971117D01*
X0001380707Y0003969242D01*
X0001382394Y0003965493D01*
X0001384081Y0003957992D01*
X0001384081Y0003948620D01*
X0001382394Y0003941121D01*
X0001380707Y0003937371D01*
X0001379019Y0003935496D01*
X0001375644Y0003933622D01*
X0001372270Y0003933622D01*
X0001368895Y0003935496D01*
X0001367208Y0003937371D01*
X0001365521Y0003941121D01*
X0001363834Y0003948620D01*
X0001363834Y0003957992D01*
X0001365521Y0003965493D01*
X0001367208Y0003969242D01*
X0001368895Y0003971117D01*
X0001372270Y0003972992D01*
X0001406016Y0003972992D02*
X0001409390Y0003972992D01*
X0001412765Y0003971117D01*
X0001414452Y0003969242D01*
X0001416140Y0003965493D01*
X0001417827Y0003957992D01*
X0001417827Y0003948620D01*
X0001416140Y0003941121D01*
X0001414452Y0003937371D01*
X0001412765Y0003935496D01*
X0001409390Y0003933622D01*
X0001406016Y0003933622D01*
X0001402641Y0003935496D01*
X0001400953Y0003937371D01*
X0001399267Y0003941121D01*
X0001397579Y0003948620D01*
X0001397579Y0003957992D01*
X0001399267Y0003965493D01*
X0001400953Y0003969242D01*
X0001402641Y0003971117D01*
X0001406016Y0003972992D01*
X0001431325Y0003969242D02*
X0001433012Y0003971117D01*
X0001436387Y0003972992D01*
X0001444823Y0003972992D01*
X0001448198Y0003971117D01*
X0001449885Y0003969242D01*
X0001451571Y0003965493D01*
X0001451571Y0003961743D01*
X0001449885Y0003956118D01*
X0001429638Y0003933622D01*
X0001451571Y0003933622D01*
X0001466758Y0003933622D02*
X0001466758Y0003972992D01*
X0001478569Y0003944870D01*
X0001490380Y0003972992D01*
X0001490380Y0003933622D01*
X0000275532Y0003891252D02*
X0000263721Y0003891252D01*
X0000263721Y0003870629D02*
X0000263721Y0003910000D01*
X0000280594Y0003910000D01*
X0000294092Y0003870629D02*
X0000294092Y0003910000D01*
X0000307591Y0003910000D01*
X0000310965Y0003908125D01*
X0000312652Y0003906250D01*
X0000314340Y0003902500D01*
X0000314340Y0003896876D01*
X0000312652Y0003893127D01*
X0000310965Y0003891252D01*
X0000307591Y0003889377D01*
X0000294092Y0003889377D01*
X0000348086Y0003908125D02*
X0000344711Y0003910000D01*
X0000339648Y0003910000D01*
X0000334587Y0003908125D01*
X0000331213Y0003904375D01*
X0000329525Y0003900626D01*
X0000327838Y0003893127D01*
X0000327838Y0003887502D01*
X0000329525Y0003880003D01*
X0000331213Y0003876254D01*
X0000334587Y0003872504D01*
X0000339648Y0003870629D01*
X0000343024Y0003870629D01*
X0000348086Y0003872504D01*
X0000349773Y0003874378D01*
X0000349773Y0003887502D01*
X0000343024Y0003887502D01*
X0000363271Y0003881878D02*
X0000380144Y0003881878D01*
X0000359897Y0003870629D02*
X0000371708Y0003910000D01*
X0000383519Y0003870629D01*
X0000395330Y0003874378D02*
X0000397017Y0003872504D01*
X0000395330Y0003870629D01*
X0000393642Y0003872504D01*
X0000395330Y0003874378D01*
X0000395330Y0003870629D01*
X0000395330Y0003895001D02*
X0000397017Y0003893127D01*
X0000395330Y0003891252D01*
X0000393642Y0003893127D01*
X0000395330Y0003895001D01*
X0000395330Y0003891252D01*
X0000437512Y0003881878D02*
X0000454385Y0003881878D01*
X0000434137Y0003870629D02*
X0000445948Y0003910000D01*
X0000457759Y0003870629D01*
X0000474632Y0003870629D02*
X0000471258Y0003872504D01*
X0000469570Y0003876254D01*
X0000469570Y0003910000D01*
X0000483069Y0003896876D02*
X0000496566Y0003896876D01*
X0000488131Y0003910000D02*
X0000488131Y0003876254D01*
X0000489818Y0003872504D01*
X0000493192Y0003870629D01*
X0000496566Y0003870629D01*
X0000521876Y0003872504D02*
X0000518502Y0003870629D01*
X0000511753Y0003870629D01*
X0000508378Y0003872504D01*
X0000506691Y0003876254D01*
X0000506691Y0003891252D01*
X0000508378Y0003895001D01*
X0000511753Y0003896876D01*
X0000518502Y0003896876D01*
X0000521876Y0003895001D01*
X0000523564Y0003891252D01*
X0000523564Y0003887502D01*
X0000506691Y0003883753D01*
X0000538749Y0003870629D02*
X0000538749Y0003896876D01*
X0000538749Y0003889377D02*
X0000540437Y0003893127D01*
X0000542124Y0003895001D01*
X0000545498Y0003896876D01*
X0000548873Y0003896876D01*
X0000575870Y0003870629D02*
X0000575870Y0003891252D01*
X0000574182Y0003895001D01*
X0000570808Y0003896876D01*
X0000564059Y0003896876D01*
X0000560684Y0003895001D01*
X0000575870Y0003872504D02*
X0000572495Y0003870629D01*
X0000564059Y0003870629D01*
X0000560684Y0003872504D01*
X0000558997Y0003876254D01*
X0000558997Y0003880003D01*
X0000560684Y0003883753D01*
X0000564059Y0003885628D01*
X0000572495Y0003885628D01*
X0000575870Y0003887502D01*
X0000639987Y0003874378D02*
X0000638299Y0003872504D01*
X0000633237Y0003870629D01*
X0000629863Y0003870629D01*
X0000624801Y0003872504D01*
X0000621426Y0003876254D01*
X0000619739Y0003880003D01*
X0000618052Y0003887502D01*
X0000618052Y0003893127D01*
X0000619739Y0003900626D01*
X0000621426Y0003904375D01*
X0000624801Y0003908125D01*
X0000629863Y0003910000D01*
X0000633237Y0003910000D01*
X0000638299Y0003908125D01*
X0000639987Y0003906250D01*
X0000651798Y0003896876D02*
X0000660234Y0003870629D01*
X0000668671Y0003896876D02*
X0000660234Y0003870629D01*
X0000656860Y0003861256D01*
X0000655172Y0003859381D01*
X0000651798Y0003857506D01*
X0000697354Y0003872504D02*
X0000693980Y0003870629D01*
X0000687231Y0003870629D01*
X0000683856Y0003872504D01*
X0000682169Y0003874378D01*
X0000680482Y0003878128D01*
X0000680482Y0003889377D01*
X0000682169Y0003893127D01*
X0000683856Y0003895001D01*
X0000687231Y0003896876D01*
X0000693980Y0003896876D01*
X0000697354Y0003895001D01*
X0000717602Y0003870629D02*
X0000714227Y0003872504D01*
X0000712540Y0003876254D01*
X0000712540Y0003910000D01*
X0000736162Y0003870629D02*
X0000732787Y0003872504D01*
X0000731100Y0003874378D01*
X0000729413Y0003878128D01*
X0000729413Y0003889377D01*
X0000731100Y0003893127D01*
X0000732787Y0003895001D01*
X0000736162Y0003896876D01*
X0000741223Y0003896876D01*
X0000744599Y0003895001D01*
X0000746286Y0003893127D01*
X0000747973Y0003889377D01*
X0000747973Y0003878128D01*
X0000746286Y0003874378D01*
X0000744599Y0003872504D01*
X0000741223Y0003870629D01*
X0000736162Y0003870629D01*
X0000763159Y0003896876D02*
X0000763159Y0003870629D01*
X0000763159Y0003893127D02*
X0000764846Y0003895001D01*
X0000768221Y0003896876D01*
X0000773282Y0003896876D01*
X0000776657Y0003895001D01*
X0000778344Y0003891252D01*
X0000778344Y0003870629D01*
X0000808715Y0003872504D02*
X0000805341Y0003870629D01*
X0000798592Y0003870629D01*
X0000795217Y0003872504D01*
X0000793530Y0003876254D01*
X0000793530Y0003891252D01*
X0000795217Y0003895001D01*
X0000798592Y0003896876D01*
X0000805341Y0003896876D01*
X0000808715Y0003895001D01*
X0000810403Y0003891252D01*
X0000810403Y0003887502D01*
X0000793530Y0003883753D01*
X0000852585Y0003870629D02*
X0000852585Y0003910000D01*
X0000864396Y0003910000D02*
X0000876207Y0003870629D01*
X0000888018Y0003910000D01*
X0000926826Y0003891252D02*
X0000938637Y0003891252D01*
X0000943699Y0003870629D02*
X0000926826Y0003870629D01*
X0000926826Y0003910000D01*
X0000943699Y0003910000D01*
X0000958884Y0003870629D02*
X0000958884Y0003910000D01*
X0000972383Y0003910000D01*
X0000975756Y0003908125D01*
X0000977444Y0003906250D01*
X0000979132Y0003902500D01*
X0000979132Y0003896876D01*
X0000977444Y0003893127D01*
X0000975756Y0003891252D01*
X0000972383Y0003889377D01*
X0000958884Y0003889377D01*
X0001009503Y0003896876D02*
X0001009503Y0003870629D01*
X0001001066Y0003911874D02*
X0000992630Y0003883753D01*
X0001014564Y0003883753D01*
X0001048311Y0003874378D02*
X0001046623Y0003872504D01*
X0001041561Y0003870629D01*
X0001038187Y0003870629D01*
X0001033125Y0003872504D01*
X0001029750Y0003876254D01*
X0001028063Y0003880003D01*
X0001026376Y0003887502D01*
X0001026376Y0003893127D01*
X0001028063Y0003900626D01*
X0001029750Y0003904375D01*
X0001033125Y0003908125D01*
X0001038187Y0003910000D01*
X0001041561Y0003910000D01*
X0001046623Y0003908125D01*
X0001048311Y0003906250D01*
X0001063496Y0003891252D02*
X0001075307Y0003891252D01*
X0001080369Y0003870629D02*
X0001063496Y0003870629D01*
X0001063496Y0003910000D01*
X0001080369Y0003910000D01*
X0001110740Y0003896876D02*
X0001110740Y0003870629D01*
X0001102304Y0003911874D02*
X0001093867Y0003883753D01*
X0001115802Y0003883753D01*
X0001136050Y0003910000D02*
X0001139424Y0003910000D01*
X0001142799Y0003908125D01*
X0001144486Y0003906250D01*
X0001146173Y0003902500D01*
X0001147861Y0003895001D01*
X0001147861Y0003885628D01*
X0001146173Y0003878128D01*
X0001144486Y0003874378D01*
X0001142799Y0003872504D01*
X0001139424Y0003870629D01*
X0001136050Y0003870629D01*
X0001132675Y0003872504D01*
X0001130988Y0003874378D01*
X0001129300Y0003878128D01*
X0001127613Y0003885628D01*
X0001127613Y0003895001D01*
X0001129300Y0003902500D01*
X0001130988Y0003906250D01*
X0001132675Y0003908125D01*
X0001136050Y0003910000D01*
X0001174857Y0003891252D02*
X0001163046Y0003891252D01*
X0001163046Y0003870629D02*
X0001163046Y0003910000D01*
X0001179919Y0003910000D01*
X0001191730Y0003906250D02*
X0001193417Y0003908125D01*
X0001196792Y0003910000D01*
X0001205228Y0003910000D01*
X0001208603Y0003908125D01*
X0001210290Y0003906250D01*
X0001211978Y0003902500D01*
X0001211978Y0003898750D01*
X0001210290Y0003893127D01*
X0001190043Y0003870629D01*
X0001211978Y0003870629D01*
X0001223789Y0003910000D02*
X0001245723Y0003910000D01*
X0001233912Y0003895001D01*
X0001238974Y0003895001D01*
X0001242349Y0003893127D01*
X0001244036Y0003891252D01*
X0001245723Y0003887502D01*
X0001245723Y0003878128D01*
X0001244036Y0003874378D01*
X0001242349Y0003872504D01*
X0001238974Y0003870629D01*
X0001228850Y0003870629D01*
X0001225476Y0003872504D01*
X0001223789Y0003874378D01*
X0001292966Y0003870629D02*
X0001289593Y0003872504D01*
X0001287906Y0003874378D01*
X0001286218Y0003878128D01*
X0001286218Y0003889377D01*
X0001287906Y0003893127D01*
X0001289593Y0003895001D01*
X0001292966Y0003896876D01*
X0001298029Y0003896876D01*
X0001301404Y0003895001D01*
X0001303091Y0003893127D01*
X0001304778Y0003889377D01*
X0001304778Y0003878128D01*
X0001303091Y0003874378D01*
X0001301404Y0003872504D01*
X0001298029Y0003870629D01*
X0001292966Y0003870629D01*
X0001319964Y0003870629D02*
X0001319964Y0003896876D01*
X0001319964Y0003889377D02*
X0001321651Y0003893127D01*
X0001323338Y0003895001D01*
X0001326713Y0003896876D01*
X0001330088Y0003896876D01*
X0001368895Y0003891252D02*
X0001380707Y0003891252D01*
X0001385768Y0003870629D02*
X0001368895Y0003870629D01*
X0001368895Y0003910000D01*
X0001385768Y0003910000D01*
X0001400953Y0003870629D02*
X0001400953Y0003910000D01*
X0001414452Y0003910000D01*
X0001417827Y0003908125D01*
X0001419514Y0003906250D01*
X0001421199Y0003902500D01*
X0001421199Y0003896876D01*
X0001419514Y0003893127D01*
X0001417827Y0003891252D01*
X0001414452Y0003889377D01*
X0001400953Y0003889377D01*
X0001451571Y0003896876D02*
X0001451571Y0003870629D01*
X0001443136Y0003911874D02*
X0001434700Y0003883753D01*
X0001456635Y0003883753D01*
X0001490380Y0003874378D02*
X0001488693Y0003872504D01*
X0001483631Y0003870629D01*
X0001480257Y0003870629D01*
X0001475195Y0003872504D01*
X0001471820Y0003876254D01*
X0001470133Y0003880003D01*
X0001468446Y0003887502D01*
X0001468446Y0003893127D01*
X0001470133Y0003900626D01*
X0001471820Y0003904375D01*
X0001475195Y0003908125D01*
X0001480257Y0003910000D01*
X0001483631Y0003910000D01*
X0001488693Y0003908125D01*
X0001490380Y0003906250D01*
X0001505566Y0003891252D02*
X0001517377Y0003891252D01*
X0001522439Y0003870629D02*
X0001505566Y0003870629D01*
X0001505566Y0003910000D01*
X0001522439Y0003910000D01*
X0001534250Y0003910000D02*
X0001556184Y0003910000D01*
X0001544374Y0003895001D01*
X0001549435Y0003895001D01*
X0001552810Y0003893127D01*
X0001554495Y0003891252D01*
X0001556184Y0003887502D01*
X0001556184Y0003878128D01*
X0001554495Y0003874378D01*
X0001552810Y0003872504D01*
X0001549435Y0003870629D01*
X0001539312Y0003870629D01*
X0001535937Y0003872504D01*
X0001534250Y0003874378D01*
X0001578119Y0003910000D02*
X0001581493Y0003910000D01*
X0001584868Y0003908125D01*
X0001586556Y0003906250D01*
X0001588243Y0003902500D01*
X0001589930Y0003895001D01*
X0001589930Y0003885628D01*
X0001588243Y0003878128D01*
X0001586556Y0003874378D01*
X0001584868Y0003872504D01*
X0001581493Y0003870629D01*
X0001578119Y0003870629D01*
X0001574745Y0003872504D01*
X0001573057Y0003874378D01*
X0001571370Y0003878128D01*
X0001569683Y0003885628D01*
X0001569683Y0003895001D01*
X0001571370Y0003902500D01*
X0001573057Y0003906250D01*
X0001574745Y0003908125D01*
X0001578119Y0003910000D01*
X0001616927Y0003891252D02*
X0001605116Y0003891252D01*
X0001605116Y0003870629D02*
X0001605116Y0003910000D01*
X0001621989Y0003910000D01*
X0001633799Y0003906250D02*
X0001635487Y0003908125D01*
X0001638862Y0003910000D01*
X0001647298Y0003910000D01*
X0001650673Y0003908125D01*
X0001652360Y0003906250D01*
X0001654047Y0003902500D01*
X0001654047Y0003898750D01*
X0001652360Y0003893127D01*
X0001632113Y0003870629D01*
X0001654047Y0003870629D01*
X0001665858Y0003910000D02*
X0001687792Y0003910000D01*
X0001675982Y0003895001D01*
X0001681044Y0003895001D01*
X0001684419Y0003893127D01*
X0001686106Y0003891252D01*
X0001687792Y0003887502D01*
X0001687792Y0003878128D01*
X0001686106Y0003874378D01*
X0001684419Y0003872504D01*
X0001681044Y0003870629D01*
X0001670920Y0003870629D01*
X0001667546Y0003872504D01*
X0001665858Y0003874378D01*
X0000263721Y0003807637D02*
X0000263721Y0003847007D01*
X0000275532Y0003818886D01*
X0000287343Y0003847007D01*
X0000287343Y0003807637D01*
X0000317714Y0003809512D02*
X0000314340Y0003807637D01*
X0000307591Y0003807637D01*
X0000304216Y0003809512D01*
X0000302529Y0003813262D01*
X0000302529Y0003828260D01*
X0000304216Y0003832009D01*
X0000307591Y0003833884D01*
X0000314340Y0003833884D01*
X0000317714Y0003832009D01*
X0000319402Y0003828260D01*
X0000319402Y0003824509D01*
X0000302529Y0003820761D01*
X0000334587Y0003807637D02*
X0000334587Y0003833884D01*
X0000334587Y0003830134D02*
X0000336275Y0003832009D01*
X0000339648Y0003833884D01*
X0000344711Y0003833884D01*
X0000348086Y0003832009D01*
X0000349773Y0003828260D01*
X0000349773Y0003807637D01*
X0000349773Y0003828260D02*
X0000351460Y0003832009D01*
X0000354834Y0003833884D01*
X0000359897Y0003833884D01*
X0000363271Y0003832009D01*
X0000364957Y0003828260D01*
X0000364957Y0003807637D01*
X0000386893Y0003807637D02*
X0000383519Y0003809512D01*
X0000381831Y0003811387D01*
X0000380144Y0003815136D01*
X0000380144Y0003826385D01*
X0000381831Y0003830134D01*
X0000383519Y0003832009D01*
X0000386893Y0003833884D01*
X0000391954Y0003833884D01*
X0000395330Y0003832009D01*
X0000397017Y0003830134D01*
X0000398704Y0003826385D01*
X0000398704Y0003815136D01*
X0000397017Y0003811387D01*
X0000395330Y0003809512D01*
X0000391954Y0003807637D01*
X0000386893Y0003807637D01*
X0000413890Y0003807637D02*
X0000413890Y0003833884D01*
X0000413890Y0003826385D02*
X0000415577Y0003830134D01*
X0000417263Y0003832009D01*
X0000420639Y0003833884D01*
X0000424014Y0003833884D01*
X0000432450Y0003833884D02*
X0000440886Y0003807637D01*
X0000449323Y0003833884D02*
X0000440886Y0003807637D01*
X0000437512Y0003798263D01*
X0000435825Y0003796389D01*
X0000432450Y0003794514D01*
X0000462820Y0003811387D02*
X0000464509Y0003809512D01*
X0000462820Y0003807637D01*
X0000461134Y0003809512D01*
X0000462820Y0003811387D01*
X0000462820Y0003807637D01*
X0000462820Y0003832009D02*
X0000464509Y0003830134D01*
X0000462820Y0003828260D01*
X0000461134Y0003830134D01*
X0000462820Y0003832009D01*
X0000462820Y0003828260D01*
X0000505003Y0003843258D02*
X0000506691Y0003845133D01*
X0000510065Y0003847007D01*
X0000518502Y0003847007D01*
X0000521876Y0003845133D01*
X0000523564Y0003843258D01*
X0000525251Y0003839508D01*
X0000525251Y0003835759D01*
X0000523564Y0003830134D01*
X0000503316Y0003807637D01*
X0000525251Y0003807637D01*
X0000557309Y0003847007D02*
X0000540437Y0003847007D01*
X0000538749Y0003828260D01*
X0000540437Y0003830134D01*
X0000543811Y0003832009D01*
X0000552248Y0003832009D01*
X0000555622Y0003830134D01*
X0000557309Y0003828260D01*
X0000558997Y0003824509D01*
X0000558997Y0003815136D01*
X0000557309Y0003811387D01*
X0000555622Y0003809512D01*
X0000552248Y0003807637D01*
X0000543811Y0003807637D01*
X0000540437Y0003809512D01*
X0000538749Y0003811387D01*
X0000589368Y0003847007D02*
X0000582619Y0003847007D01*
X0000579244Y0003845133D01*
X0000577557Y0003843258D01*
X0000574182Y0003837634D01*
X0000572495Y0003830134D01*
X0000572495Y0003815136D01*
X0000574182Y0003811387D01*
X0000575870Y0003809512D01*
X0000579244Y0003807637D01*
X0000585993Y0003807637D01*
X0000589368Y0003809512D01*
X0000591055Y0003811387D01*
X0000592742Y0003815136D01*
X0000592742Y0003824509D01*
X0000591055Y0003828260D01*
X0000589368Y0003830134D01*
X0000585993Y0003832009D01*
X0000579244Y0003832009D01*
X0000575870Y0003830134D01*
X0000574182Y0003828260D01*
X0000572495Y0003824509D01*
X0000634925Y0003807637D02*
X0000634925Y0003847007D01*
X0000646736Y0003818886D01*
X0000658547Y0003847007D01*
X0000658547Y0003807637D01*
X0000687231Y0003828260D02*
X0000692292Y0003826385D01*
X0000693980Y0003824509D01*
X0000695667Y0003820761D01*
X0000695667Y0003815136D01*
X0000693980Y0003811387D01*
X0000692292Y0003809512D01*
X0000688918Y0003807637D01*
X0000675420Y0003807637D01*
X0000675420Y0003847007D01*
X0000687231Y0003847007D01*
X0000690605Y0003845133D01*
X0000692292Y0003843258D01*
X0000693980Y0003839508D01*
X0000693980Y0003835759D01*
X0000692292Y0003832009D01*
X0000690605Y0003830134D01*
X0000687231Y0003828260D01*
X0000675420Y0003828260D01*
X0000707478Y0003833884D02*
X0000715914Y0003807637D01*
X0000724351Y0003833884D02*
X0000715914Y0003807637D01*
X0000712540Y0003798263D01*
X0000710853Y0003796389D01*
X0000707478Y0003794514D01*
X0000732787Y0003833884D02*
X0000746286Y0003833884D01*
X0000737849Y0003847007D02*
X0000737849Y0003813262D01*
X0000739537Y0003809512D01*
X0000742911Y0003807637D01*
X0000746286Y0003807637D01*
X0000771595Y0003809512D02*
X0000768221Y0003807637D01*
X0000761471Y0003807637D01*
X0000758097Y0003809512D01*
X0000756409Y0003813262D01*
X0000756409Y0003828260D01*
X0000758097Y0003832009D01*
X0000761471Y0003833884D01*
X0000768221Y0003833884D01*
X0000771595Y0003832009D01*
X0000773282Y0003828260D01*
X0000773282Y0003824509D01*
X0000756409Y0003820761D01*
X0000786781Y0003809512D02*
X0000790155Y0003807637D01*
X0000796904Y0003807637D01*
X0000800279Y0003809512D01*
X0000801966Y0003813262D01*
X0000801966Y0003815136D01*
X0000800279Y0003818886D01*
X0000796904Y0003820761D01*
X0000791843Y0003820761D01*
X0000788468Y0003822635D01*
X0000786781Y0003826385D01*
X0000786781Y0003828260D01*
X0000788468Y0003832009D01*
X0000791843Y0003833884D01*
X0000796904Y0003833884D01*
X0000800279Y0003832009D01*
X0000844149Y0003807637D02*
X0000844149Y0003847007D01*
X0000852585Y0003847007D01*
X0000857647Y0003845133D01*
X0000861021Y0003841383D01*
X0000862709Y0003837634D01*
X0000864396Y0003830134D01*
X0000864396Y0003824509D01*
X0000862709Y0003817011D01*
X0000861021Y0003813262D01*
X0000857647Y0003809512D01*
X0000852585Y0003807637D01*
X0000844149Y0003807637D01*
X0000879582Y0003807637D02*
X0000879582Y0003847007D01*
X0000888018Y0003847007D01*
X0000893080Y0003845133D01*
X0000896455Y0003841383D01*
X0000898141Y0003837634D01*
X0000899829Y0003830134D01*
X0000899829Y0003824509D01*
X0000898141Y0003817011D01*
X0000896455Y0003813262D01*
X0000893080Y0003809512D01*
X0000888018Y0003807637D01*
X0000879582Y0003807637D01*
X0000935262Y0003807637D02*
X0000923450Y0003826385D01*
X0000915015Y0003807637D02*
X0000915015Y0003847007D01*
X0000928513Y0003847007D01*
X0000931888Y0003845133D01*
X0000933575Y0003843258D01*
X0000935262Y0003839508D01*
X0000935262Y0003833884D01*
X0000933575Y0003830134D01*
X0000931888Y0003828260D01*
X0000928513Y0003826385D01*
X0000915015Y0003826385D01*
X0000948759Y0003843258D02*
X0000950448Y0003845133D01*
X0000953822Y0003847007D01*
X0000962259Y0003847007D01*
X0000965633Y0003845133D01*
X0000967321Y0003843258D01*
X0000969008Y0003839508D01*
X0000969008Y0003835759D01*
X0000967321Y0003830134D01*
X0000947073Y0003807637D01*
X0000969008Y0003807637D01*
X0001009503Y0003809512D02*
X0001014564Y0003807637D01*
X0001023001Y0003807637D01*
X0001026376Y0003809512D01*
X0001028063Y0003811387D01*
X0001029750Y0003815136D01*
X0001029750Y0003818886D01*
X0001028063Y0003822635D01*
X0001026376Y0003824509D01*
X0001023001Y0003826385D01*
X0001016251Y0003828260D01*
X0001012877Y0003830134D01*
X0001011190Y0003832009D01*
X0001009503Y0003835759D01*
X0001009503Y0003839508D01*
X0001011190Y0003843258D01*
X0001012877Y0003845133D01*
X0001016251Y0003847007D01*
X0001024689Y0003847007D01*
X0001029750Y0003845133D01*
X0001044936Y0003807637D02*
X0001044936Y0003847007D01*
X0001053372Y0003847007D01*
X0001058434Y0003845133D01*
X0001061809Y0003841383D01*
X0001063496Y0003837634D01*
X0001065183Y0003830134D01*
X0001065183Y0003824509D01*
X0001063496Y0003817011D01*
X0001061809Y0003813262D01*
X0001058434Y0003809512D01*
X0001053372Y0003807637D01*
X0001044936Y0003807637D01*
X0001100617Y0003807637D02*
X0001088805Y0003826385D01*
X0001080369Y0003807637D02*
X0001080369Y0003847007D01*
X0001093867Y0003847007D01*
X0001097242Y0003845133D01*
X0001098929Y0003843258D01*
X0001100617Y0003839508D01*
X0001100617Y0003833884D01*
X0001098929Y0003830134D01*
X0001097242Y0003828260D01*
X0001093867Y0003826385D01*
X0001080369Y0003826385D01*
X0001114115Y0003818886D02*
X0001130988Y0003818886D01*
X0001110740Y0003807637D02*
X0001122551Y0003847007D01*
X0001134362Y0003807637D01*
X0001146173Y0003807637D02*
X0001146173Y0003847007D01*
X0001157984Y0003818886D01*
X0001169795Y0003847007D01*
X0001169795Y0003807637D01*
X0000283969Y0003748395D02*
X0000282281Y0003746520D01*
X0000277219Y0003744645D01*
X0000273845Y0003744645D01*
X0000268783Y0003746520D01*
X0000265408Y0003750269D01*
X0000263721Y0003754018D01*
X0000262034Y0003761518D01*
X0000262034Y0003767142D01*
X0000263721Y0003774641D01*
X0000265408Y0003778390D01*
X0000268783Y0003782140D01*
X0000273845Y0003784015D01*
X0000277219Y0003784015D01*
X0000282281Y0003782140D01*
X0000283969Y0003780266D01*
X0000304216Y0003744645D02*
X0000300841Y0003746520D01*
X0000299154Y0003748395D01*
X0000297467Y0003752144D01*
X0000297467Y0003763393D01*
X0000299154Y0003767142D01*
X0000300841Y0003769017D01*
X0000304216Y0003770892D01*
X0000309278Y0003770892D01*
X0000312652Y0003769017D01*
X0000314340Y0003767142D01*
X0000316027Y0003763393D01*
X0000316027Y0003752144D01*
X0000314340Y0003748395D01*
X0000312652Y0003746520D01*
X0000309278Y0003744645D01*
X0000304216Y0003744645D01*
X0000331213Y0003770892D02*
X0000331213Y0003744645D01*
X0000331213Y0003767142D02*
X0000332900Y0003769017D01*
X0000336275Y0003770892D01*
X0000341336Y0003770892D01*
X0000344711Y0003769017D01*
X0000346398Y0003765268D01*
X0000346398Y0003744645D01*
X0000358209Y0003770892D02*
X0000371708Y0003770892D01*
X0000363271Y0003784015D02*
X0000363271Y0003750269D01*
X0000364957Y0003746520D01*
X0000368333Y0003744645D01*
X0000371708Y0003744645D01*
X0000383519Y0003744645D02*
X0000383519Y0003770892D01*
X0000383519Y0003784015D02*
X0000381831Y0003782140D01*
X0000383519Y0003780266D01*
X0000385206Y0003782140D01*
X0000383519Y0003784015D01*
X0000383519Y0003780266D01*
X0000400392Y0003770892D02*
X0000400392Y0003744645D01*
X0000400392Y0003767142D02*
X0000402079Y0003769017D01*
X0000405453Y0003770892D01*
X0000410515Y0003770892D01*
X0000413890Y0003769017D01*
X0000415577Y0003765268D01*
X0000415577Y0003744645D01*
X0000447636Y0003770892D02*
X0000447636Y0003744645D01*
X0000432450Y0003770892D02*
X0000432450Y0003750269D01*
X0000434137Y0003746520D01*
X0000437512Y0003744645D01*
X0000442574Y0003744645D01*
X0000445948Y0003746520D01*
X0000447636Y0003748395D01*
X0000469570Y0003744645D02*
X0000466196Y0003746520D01*
X0000464509Y0003748395D01*
X0000462820Y0003752144D01*
X0000462820Y0003763393D01*
X0000464509Y0003767142D01*
X0000466196Y0003769017D01*
X0000469570Y0003770892D01*
X0000474632Y0003770892D01*
X0000478006Y0003769017D01*
X0000479694Y0003767142D01*
X0000481381Y0003763393D01*
X0000481381Y0003752144D01*
X0000479694Y0003748395D01*
X0000478006Y0003746520D01*
X0000474632Y0003744645D01*
X0000469570Y0003744645D01*
X0000511753Y0003770892D02*
X0000511753Y0003744645D01*
X0000496566Y0003770892D02*
X0000496566Y0003750269D01*
X0000498254Y0003746520D01*
X0000501629Y0003744645D01*
X0000506691Y0003744645D01*
X0000510065Y0003746520D01*
X0000511753Y0003748395D01*
X0000526938Y0003746520D02*
X0000530313Y0003744645D01*
X0000537062Y0003744645D01*
X0000540437Y0003746520D01*
X0000542124Y0003750269D01*
X0000542124Y0003752144D01*
X0000540437Y0003755894D01*
X0000537062Y0003757769D01*
X0000532000Y0003757769D01*
X0000528626Y0003759643D01*
X0000526938Y0003763393D01*
X0000526938Y0003765268D01*
X0000528626Y0003769017D01*
X0000532000Y0003770892D01*
X0000537062Y0003770892D01*
X0000540437Y0003769017D01*
X0000579244Y0003770892D02*
X0000592742Y0003770892D01*
X0000584306Y0003744645D02*
X0000584306Y0003778390D01*
X0000585993Y0003782140D01*
X0000589368Y0003784015D01*
X0000592742Y0003784015D01*
X0000604554Y0003744645D02*
X0000604554Y0003770892D01*
X0000604554Y0003763393D02*
X0000606241Y0003767142D01*
X0000607928Y0003769017D01*
X0000611303Y0003770892D01*
X0000614677Y0003770892D01*
X0000639987Y0003746520D02*
X0000636612Y0003744645D01*
X0000629863Y0003744645D01*
X0000626488Y0003746520D01*
X0000624801Y0003750269D01*
X0000624801Y0003765268D01*
X0000626488Y0003769017D01*
X0000629863Y0003770892D01*
X0000636612Y0003770892D01*
X0000639987Y0003769017D01*
X0000641674Y0003765268D01*
X0000641674Y0003761518D01*
X0000624801Y0003757769D01*
X0000672045Y0003770892D02*
X0000672045Y0003731522D01*
X0000672045Y0003746520D02*
X0000668671Y0003744645D01*
X0000661921Y0003744645D01*
X0000658547Y0003746520D01*
X0000656860Y0003748395D01*
X0000655172Y0003752144D01*
X0000655172Y0003763393D01*
X0000656860Y0003767142D01*
X0000658547Y0003769017D01*
X0000661921Y0003770892D01*
X0000668671Y0003770892D01*
X0000672045Y0003769017D01*
X0000704104Y0003770892D02*
X0000704104Y0003744645D01*
X0000688918Y0003770892D02*
X0000688918Y0003750269D01*
X0000690605Y0003746520D01*
X0000693980Y0003744645D01*
X0000699042Y0003744645D01*
X0000702415Y0003746520D01*
X0000704104Y0003748395D01*
X0000734475Y0003746520D02*
X0000731100Y0003744645D01*
X0000724351Y0003744645D01*
X0000720976Y0003746520D01*
X0000719289Y0003750269D01*
X0000719289Y0003765268D01*
X0000720976Y0003769017D01*
X0000724351Y0003770892D01*
X0000731100Y0003770892D01*
X0000734475Y0003769017D01*
X0000736162Y0003765268D01*
X0000736162Y0003761518D01*
X0000719289Y0003757769D01*
X0000751348Y0003770892D02*
X0000751348Y0003744645D01*
X0000751348Y0003767142D02*
X0000753035Y0003769017D01*
X0000756409Y0003770892D01*
X0000761471Y0003770892D01*
X0000764846Y0003769017D01*
X0000766532Y0003765268D01*
X0000766532Y0003744645D01*
X0000798592Y0003746520D02*
X0000795217Y0003744645D01*
X0000788468Y0003744645D01*
X0000785093Y0003746520D01*
X0000783406Y0003748395D01*
X0000781718Y0003752144D01*
X0000781718Y0003763393D01*
X0000783406Y0003767142D01*
X0000785093Y0003769017D01*
X0000788468Y0003770892D01*
X0000795217Y0003770892D01*
X0000798592Y0003769017D01*
X0000810403Y0003770892D02*
X0000818839Y0003744645D01*
X0000827276Y0003770892D02*
X0000818839Y0003744645D01*
X0000815465Y0003735271D01*
X0000813777Y0003733397D01*
X0000810403Y0003731522D01*
X0000867771Y0003744645D02*
X0000867771Y0003770892D01*
X0000867771Y0003763393D02*
X0000869458Y0003767142D01*
X0000871145Y0003769017D01*
X0000874520Y0003770892D01*
X0000877894Y0003770892D01*
X0000904891Y0003744645D02*
X0000904891Y0003765268D01*
X0000903204Y0003769017D01*
X0000899829Y0003770892D01*
X0000893080Y0003770892D01*
X0000889705Y0003769017D01*
X0000904891Y0003746520D02*
X0000901516Y0003744645D01*
X0000893080Y0003744645D01*
X0000889705Y0003746520D01*
X0000888018Y0003750269D01*
X0000888018Y0003754018D01*
X0000889705Y0003757769D01*
X0000893080Y0003759643D01*
X0000901516Y0003759643D01*
X0000904891Y0003761518D01*
X0000921764Y0003770892D02*
X0000921764Y0003744645D01*
X0000921764Y0003767142D02*
X0000923450Y0003769017D01*
X0000926826Y0003770892D01*
X0000931888Y0003770892D01*
X0000935262Y0003769017D01*
X0000936949Y0003765268D01*
X0000936949Y0003744645D01*
X0000969008Y0003770892D02*
X0000969008Y0003739021D01*
X0000967321Y0003735271D01*
X0000965633Y0003733397D01*
X0000962259Y0003731522D01*
X0000957197Y0003731522D01*
X0000953822Y0003733397D01*
X0000969008Y0003746520D02*
X0000965633Y0003744645D01*
X0000958884Y0003744645D01*
X0000955510Y0003746520D01*
X0000953822Y0003748395D01*
X0000952135Y0003752144D01*
X0000952135Y0003763393D01*
X0000953822Y0003767142D01*
X0000955510Y0003769017D01*
X0000958884Y0003770892D01*
X0000965633Y0003770892D01*
X0000969008Y0003769017D01*
X0000999379Y0003746520D02*
X0000996005Y0003744645D01*
X0000989255Y0003744645D01*
X0000985881Y0003746520D01*
X0000984194Y0003750269D01*
X0000984194Y0003765268D01*
X0000985881Y0003769017D01*
X0000989255Y0003770892D01*
X0000996005Y0003770892D01*
X0000999379Y0003769017D01*
X0001001066Y0003765268D01*
X0001001066Y0003761518D01*
X0000984194Y0003757769D01*
X0001016251Y0003748395D02*
X0001017938Y0003746520D01*
X0001016251Y0003744645D01*
X0001014564Y0003746520D01*
X0001016251Y0003748395D01*
X0001016251Y0003744645D01*
X0001016251Y0003769017D02*
X0001017938Y0003767142D01*
X0001016251Y0003765268D01*
X0001014564Y0003767142D01*
X0001016251Y0003769017D01*
X0001016251Y0003765268D01*
X0001078682Y0003744645D02*
X0001058434Y0003744645D01*
X0001068558Y0003744645D02*
X0001068558Y0003784015D01*
X0001065183Y0003778390D01*
X0001061809Y0003774641D01*
X0001058434Y0003772767D01*
X0001100617Y0003784015D02*
X0001103991Y0003784015D01*
X0001107366Y0003782140D01*
X0001109053Y0003780266D01*
X0001110740Y0003776516D01*
X0001112428Y0003769017D01*
X0001112428Y0003759643D01*
X0001110740Y0003752144D01*
X0001109053Y0003748395D01*
X0001107366Y0003746520D01*
X0001103991Y0003744645D01*
X0001100617Y0003744645D01*
X0001097242Y0003746520D01*
X0001095555Y0003748395D01*
X0001093867Y0003752144D01*
X0001092180Y0003759643D01*
X0001092180Y0003769017D01*
X0001093867Y0003776516D01*
X0001095555Y0003780266D01*
X0001097242Y0003782140D01*
X0001100617Y0003784015D01*
X0001134362Y0003784015D02*
X0001137737Y0003784015D01*
X0001141111Y0003782140D01*
X0001142799Y0003780266D01*
X0001144486Y0003776516D01*
X0001146173Y0003769017D01*
X0001146173Y0003759643D01*
X0001144486Y0003752144D01*
X0001142799Y0003748395D01*
X0001141111Y0003746520D01*
X0001137737Y0003744645D01*
X0001134362Y0003744645D01*
X0001130988Y0003746520D01*
X0001129300Y0003748395D01*
X0001127613Y0003752144D01*
X0001125926Y0003759643D01*
X0001125926Y0003769017D01*
X0001127613Y0003776516D01*
X0001129300Y0003780266D01*
X0001130988Y0003782140D01*
X0001134362Y0003784015D01*
X0001188356Y0003744645D02*
X0001188356Y0003784015D01*
X0001191730Y0003759643D02*
X0001201854Y0003744645D01*
X0001201854Y0003770892D02*
X0001188356Y0003755894D01*
X0001217039Y0003744645D02*
X0001217039Y0003784015D01*
X0001217039Y0003765268D02*
X0001237287Y0003765268D01*
X0001237287Y0003744645D02*
X0001237287Y0003784015D01*
X0001250785Y0003770892D02*
X0001269345Y0003770892D01*
X0001250785Y0003744645D01*
X0001269345Y0003744645D01*
X0001318277Y0003757769D02*
X0001304778Y0003757769D01*
X0001353710Y0003784015D02*
X0001375644Y0003784015D01*
X0001363834Y0003769017D01*
X0001368895Y0003769017D01*
X0001372270Y0003767142D01*
X0001373956Y0003765268D01*
X0001375644Y0003761518D01*
X0001375644Y0003752144D01*
X0001373956Y0003748395D01*
X0001372270Y0003746520D01*
X0001368895Y0003744645D01*
X0001358772Y0003744645D01*
X0001355397Y0003746520D01*
X0001353710Y0003748395D01*
X0001390830Y0003748395D02*
X0001392518Y0003746520D01*
X0001390830Y0003744645D01*
X0001389143Y0003746520D01*
X0001390830Y0003748395D01*
X0001390830Y0003744645D01*
X0001412765Y0003767142D02*
X0001409390Y0003769017D01*
X0001407703Y0003770892D01*
X0001406016Y0003774641D01*
X0001406016Y0003776516D01*
X0001407703Y0003780266D01*
X0001409390Y0003782140D01*
X0001412765Y0003784015D01*
X0001419514Y0003784015D01*
X0001422889Y0003782140D01*
X0001424576Y0003780266D01*
X0001426262Y0003776516D01*
X0001426262Y0003774641D01*
X0001424576Y0003770892D01*
X0001422889Y0003769017D01*
X0001419514Y0003767142D01*
X0001412765Y0003767142D01*
X0001409390Y0003765268D01*
X0001407703Y0003763393D01*
X0001406016Y0003759643D01*
X0001406016Y0003752144D01*
X0001407703Y0003748395D01*
X0001409390Y0003746520D01*
X0001412765Y0003744645D01*
X0001419514Y0003744645D01*
X0001422889Y0003746520D01*
X0001424576Y0003748395D01*
X0001426262Y0003752144D01*
X0001426262Y0003759643D01*
X0001424576Y0003763393D01*
X0001422889Y0003765268D01*
X0001419514Y0003767142D01*
X0001487006Y0003782140D02*
X0001483631Y0003784015D01*
X0001478569Y0003784015D01*
X0001473506Y0003782140D01*
X0001470133Y0003778390D01*
X0001468446Y0003774641D01*
X0001466758Y0003767142D01*
X0001466758Y0003761518D01*
X0001468446Y0003754018D01*
X0001470133Y0003750269D01*
X0001473506Y0003746520D01*
X0001478569Y0003744645D01*
X0001481944Y0003744645D01*
X0001487006Y0003746520D01*
X0001488693Y0003748395D01*
X0001488693Y0003761518D01*
X0001481944Y0003761518D01*
X0001503878Y0003744645D02*
X0001503878Y0003784015D01*
X0001503878Y0003765268D02*
X0001524126Y0003765268D01*
X0001524126Y0003744645D02*
X0001524126Y0003784015D01*
X0001537624Y0003770892D02*
X0001556184Y0003770892D01*
X0001537624Y0003744645D01*
X0001556184Y0003744645D01*
X0000275532Y0003702275D02*
X0000280594Y0003700401D01*
X0000282281Y0003698526D01*
X0000283969Y0003694776D01*
X0000283969Y0003689152D01*
X0000282281Y0003685403D01*
X0000280594Y0003683528D01*
X0000277219Y0003681653D01*
X0000263721Y0003681653D01*
X0000263721Y0003721023D01*
X0000275532Y0003721023D01*
X0000278907Y0003719148D01*
X0000280594Y0003717274D01*
X0000282281Y0003713524D01*
X0000282281Y0003709775D01*
X0000280594Y0003706025D01*
X0000278907Y0003704150D01*
X0000275532Y0003702275D01*
X0000263721Y0003702275D01*
X0000314340Y0003681653D02*
X0000314340Y0003702275D01*
X0000312652Y0003706025D01*
X0000309278Y0003707900D01*
X0000302529Y0003707900D01*
X0000299154Y0003706025D01*
X0000314340Y0003683528D02*
X0000310965Y0003681653D01*
X0000302529Y0003681653D01*
X0000299154Y0003683528D01*
X0000297467Y0003687277D01*
X0000297467Y0003691027D01*
X0000299154Y0003694776D01*
X0000302529Y0003696651D01*
X0000310965Y0003696651D01*
X0000314340Y0003698526D01*
X0000331213Y0003707900D02*
X0000331213Y0003681653D01*
X0000331213Y0003704150D02*
X0000332900Y0003706025D01*
X0000336275Y0003707900D01*
X0000341336Y0003707900D01*
X0000344711Y0003706025D01*
X0000346398Y0003702275D01*
X0000346398Y0003681653D01*
X0000378457Y0003681653D02*
X0000378457Y0003721023D01*
X0000378457Y0003683528D02*
X0000375082Y0003681653D01*
X0000368333Y0003681653D01*
X0000364957Y0003683528D01*
X0000363271Y0003685403D01*
X0000361584Y0003689152D01*
X0000361584Y0003700401D01*
X0000363271Y0003704150D01*
X0000364957Y0003706025D01*
X0000368333Y0003707900D01*
X0000375082Y0003707900D01*
X0000378457Y0003706025D01*
X0000391954Y0003707900D02*
X0000398704Y0003681653D01*
X0000405453Y0003700401D01*
X0000412203Y0003681653D01*
X0000418952Y0003707900D01*
X0000432450Y0003681653D02*
X0000432450Y0003707900D01*
X0000432450Y0003721023D02*
X0000430763Y0003719148D01*
X0000432450Y0003717274D01*
X0000434137Y0003719148D01*
X0000432450Y0003721023D01*
X0000432450Y0003717274D01*
X0000464509Y0003681653D02*
X0000464509Y0003721023D01*
X0000464509Y0003683528D02*
X0000461134Y0003681653D01*
X0000454385Y0003681653D01*
X0000451009Y0003683528D01*
X0000449323Y0003685403D01*
X0000447636Y0003689152D01*
X0000447636Y0003700401D01*
X0000449323Y0003704150D01*
X0000451009Y0003706025D01*
X0000454385Y0003707900D01*
X0000461134Y0003707900D01*
X0000464509Y0003706025D01*
X0000476320Y0003707900D02*
X0000489818Y0003707900D01*
X0000481381Y0003721023D02*
X0000481381Y0003687277D01*
X0000483069Y0003683528D01*
X0000486443Y0003681653D01*
X0000489818Y0003681653D01*
X0000501629Y0003681653D02*
X0000501629Y0003721023D01*
X0000516815Y0003681653D02*
X0000516815Y0003702275D01*
X0000515127Y0003706025D01*
X0000511753Y0003707900D01*
X0000506691Y0003707900D01*
X0000503316Y0003706025D01*
X0000501629Y0003704150D01*
X0000533687Y0003685403D02*
X0000535375Y0003683528D01*
X0000533687Y0003681653D01*
X0000532000Y0003683528D01*
X0000533687Y0003685403D01*
X0000533687Y0003681653D01*
X0000533687Y0003706025D02*
X0000535375Y0003704150D01*
X0000533687Y0003702275D01*
X0000532000Y0003704150D01*
X0000533687Y0003706025D01*
X0000533687Y0003702275D01*
X0000592742Y0003721023D02*
X0000585993Y0003721023D01*
X0000582619Y0003719148D01*
X0000580931Y0003717274D01*
X0000577557Y0003711649D01*
X0000575870Y0003704150D01*
X0000575870Y0003689152D01*
X0000577557Y0003685403D01*
X0000579244Y0003683528D01*
X0000582619Y0003681653D01*
X0000589368Y0003681653D01*
X0000592742Y0003683528D01*
X0000594430Y0003685403D01*
X0000596117Y0003689152D01*
X0000596117Y0003698526D01*
X0000594430Y0003702275D01*
X0000592742Y0003704150D01*
X0000589368Y0003706025D01*
X0000582619Y0003706025D01*
X0000579244Y0003704150D01*
X0000577557Y0003702275D01*
X0000575870Y0003698526D01*
X0000629863Y0003681653D02*
X0000609615Y0003681653D01*
X0000619739Y0003681653D02*
X0000619739Y0003721023D01*
X0000616365Y0003715398D01*
X0000612990Y0003711649D01*
X0000609615Y0003709775D01*
X0000645048Y0003685403D02*
X0000646736Y0003683528D01*
X0000645048Y0003681653D01*
X0000643361Y0003683528D01*
X0000645048Y0003685403D01*
X0000645048Y0003681653D01*
X0000677106Y0003707900D02*
X0000677106Y0003681653D01*
X0000668671Y0003722898D02*
X0000660234Y0003694776D01*
X0000682169Y0003694776D01*
X0000710853Y0003707900D02*
X0000710853Y0003681653D01*
X0000702415Y0003722898D02*
X0000693980Y0003694776D01*
X0000715914Y0003694776D01*
X0000756409Y0003681653D02*
X0000756409Y0003721023D01*
X0000768221Y0003692902D01*
X0000780031Y0003721023D01*
X0000780031Y0003681653D01*
X0000796904Y0003681653D02*
X0000796904Y0003721023D01*
X0000796904Y0003702275D02*
X0000817152Y0003702275D01*
X0000817152Y0003681653D02*
X0000817152Y0003721023D01*
X0000830650Y0003707900D02*
X0000849210Y0003707900D01*
X0000830650Y0003681653D01*
X0000849210Y0003681653D01*
X0000263721Y0003618661D02*
X0000263721Y0003658031D01*
X0000277219Y0003658031D01*
X0000280594Y0003656156D01*
X0000282281Y0003654281D01*
X0000283969Y0003650532D01*
X0000283969Y0003644907D01*
X0000282281Y0003641158D01*
X0000280594Y0003639283D01*
X0000277219Y0003637409D01*
X0000263721Y0003637409D01*
X0000304216Y0003618661D02*
X0000300841Y0003620535D01*
X0000299154Y0003622409D01*
X0000297467Y0003626160D01*
X0000297467Y0003637409D01*
X0000299154Y0003641158D01*
X0000300841Y0003643033D01*
X0000304216Y0003644907D01*
X0000309278Y0003644907D01*
X0000312652Y0003643033D01*
X0000314340Y0003641158D01*
X0000316027Y0003637409D01*
X0000316027Y0003626160D01*
X0000314340Y0003622409D01*
X0000312652Y0003620535D01*
X0000309278Y0003618661D01*
X0000304216Y0003618661D01*
X0000327838Y0003644907D02*
X0000334587Y0003618661D01*
X0000341336Y0003637409D01*
X0000348086Y0003618661D01*
X0000354834Y0003644907D01*
X0000381831Y0003620535D02*
X0000378457Y0003618661D01*
X0000371708Y0003618661D01*
X0000368333Y0003620535D01*
X0000366646Y0003624285D01*
X0000366646Y0003639283D01*
X0000368333Y0003643033D01*
X0000371708Y0003644907D01*
X0000378457Y0003644907D01*
X0000381831Y0003643033D01*
X0000383519Y0003639283D01*
X0000383519Y0003635534D01*
X0000366646Y0003631784D01*
X0000398704Y0003618661D02*
X0000398704Y0003644907D01*
X0000398704Y0003637409D02*
X0000400392Y0003641158D01*
X0000402079Y0003643033D01*
X0000405453Y0003644907D01*
X0000408828Y0003644907D01*
X0000454385Y0003658031D02*
X0000461134Y0003658031D01*
X0000464509Y0003656156D01*
X0000467883Y0003652407D01*
X0000469570Y0003644907D01*
X0000469570Y0003631784D01*
X0000467883Y0003624285D01*
X0000464509Y0003620535D01*
X0000461134Y0003618661D01*
X0000454385Y0003618661D01*
X0000451009Y0003620535D01*
X0000447636Y0003624285D01*
X0000445948Y0003631784D01*
X0000445948Y0003644907D01*
X0000447636Y0003652407D01*
X0000451009Y0003656156D01*
X0000454385Y0003658031D01*
X0000499942Y0003644907D02*
X0000499942Y0003618661D01*
X0000484756Y0003644907D02*
X0000484756Y0003624285D01*
X0000486443Y0003620535D01*
X0000489818Y0003618661D01*
X0000494880Y0003618661D01*
X0000498254Y0003620535D01*
X0000499942Y0003622409D01*
X0000511753Y0003644907D02*
X0000525251Y0003644907D01*
X0000516815Y0003658031D02*
X0000516815Y0003624285D01*
X0000518502Y0003620535D01*
X0000521876Y0003618661D01*
X0000525251Y0003618661D01*
X0000537062Y0003644907D02*
X0000537062Y0003605538D01*
X0000537062Y0003643033D02*
X0000540437Y0003644907D01*
X0000547186Y0003644907D01*
X0000550560Y0003643033D01*
X0000552248Y0003641158D01*
X0000553935Y0003637409D01*
X0000553935Y0003626160D01*
X0000552248Y0003622409D01*
X0000550560Y0003620535D01*
X0000547186Y0003618661D01*
X0000540437Y0003618661D01*
X0000537062Y0003620535D01*
X0000584306Y0003644907D02*
X0000584306Y0003618661D01*
X0000569120Y0003644907D02*
X0000569120Y0003624285D01*
X0000570808Y0003620535D01*
X0000574182Y0003618661D01*
X0000579244Y0003618661D01*
X0000582619Y0003620535D01*
X0000584306Y0003622409D01*
X0000596117Y0003644907D02*
X0000609615Y0003644907D01*
X0000601179Y0003658031D02*
X0000601179Y0003624285D01*
X0000602866Y0003620535D01*
X0000606241Y0003618661D01*
X0000609615Y0003618661D01*
X0000658547Y0003603663D02*
X0000656860Y0003605538D01*
X0000653485Y0003611162D01*
X0000651798Y0003614911D01*
X0000650110Y0003620535D01*
X0000648422Y0003629910D01*
X0000648422Y0003637409D01*
X0000650110Y0003646781D01*
X0000651798Y0003652407D01*
X0000653485Y0003656156D01*
X0000656860Y0003661781D01*
X0000658547Y0003663655D01*
X0000692292Y0003622409D02*
X0000690605Y0003620535D01*
X0000685543Y0003618661D01*
X0000682169Y0003618661D01*
X0000677106Y0003620535D01*
X0000673732Y0003624285D01*
X0000672045Y0003628035D01*
X0000670358Y0003635534D01*
X0000670358Y0003641158D01*
X0000672045Y0003648657D01*
X0000673732Y0003652407D01*
X0000677106Y0003656156D01*
X0000682169Y0003658031D01*
X0000685543Y0003658031D01*
X0000690605Y0003656156D01*
X0000692292Y0003654281D01*
X0000704104Y0003658031D02*
X0000712540Y0003618661D01*
X0000719289Y0003646781D01*
X0000726037Y0003618661D01*
X0000734475Y0003658031D01*
X0000744599Y0003603663D02*
X0000746286Y0003605538D01*
X0000749660Y0003611162D01*
X0000751348Y0003614911D01*
X0000753035Y0003620535D01*
X0000754722Y0003629910D01*
X0000754722Y0003637409D01*
X0000753035Y0003646781D01*
X0000751348Y0003652407D01*
X0000749660Y0003656156D01*
X0000746286Y0003661781D01*
X0000744599Y0003663655D01*
X0000771595Y0003622409D02*
X0000773282Y0003620535D01*
X0000771595Y0003618661D01*
X0000769908Y0003620535D01*
X0000771595Y0003622409D01*
X0000771595Y0003618661D01*
X0000771595Y0003643033D02*
X0000773282Y0003641158D01*
X0000771595Y0003639283D01*
X0000769908Y0003641158D01*
X0000771595Y0003643033D01*
X0000771595Y0003639283D01*
X0000830650Y0003644907D02*
X0000830650Y0003618661D01*
X0000815465Y0003644907D02*
X0000815465Y0003624285D01*
X0000817152Y0003620535D01*
X0000820527Y0003618661D01*
X0000825588Y0003618661D01*
X0000828963Y0003620535D01*
X0000830650Y0003622409D01*
X0000847523Y0003644907D02*
X0000847523Y0003605538D01*
X0000847523Y0003643033D02*
X0000850898Y0003644907D01*
X0000857647Y0003644907D01*
X0000861021Y0003643033D01*
X0000862709Y0003641158D01*
X0000864396Y0003637409D01*
X0000864396Y0003626160D01*
X0000862709Y0003622409D01*
X0000861021Y0003620535D01*
X0000857647Y0003618661D01*
X0000850898Y0003618661D01*
X0000847523Y0003620535D01*
X0000901516Y0003644907D02*
X0000915015Y0003644907D01*
X0000906578Y0003658031D02*
X0000906578Y0003624285D01*
X0000908266Y0003620535D01*
X0000911640Y0003618661D01*
X0000915015Y0003618661D01*
X0000931888Y0003618661D02*
X0000928513Y0003620535D01*
X0000926826Y0003622409D01*
X0000925138Y0003626160D01*
X0000925138Y0003637409D01*
X0000926826Y0003641158D01*
X0000928513Y0003643033D01*
X0000931888Y0003644907D01*
X0000936949Y0003644907D01*
X0000940324Y0003643033D01*
X0000942011Y0003641158D01*
X0000943699Y0003637409D01*
X0000943699Y0003626160D01*
X0000942011Y0003622409D01*
X0000940324Y0003620535D01*
X0000936949Y0003618661D01*
X0000931888Y0003618661D01*
X0001004440Y0003618661D02*
X0000984194Y0003618661D01*
X0000994317Y0003618661D02*
X0000994317Y0003658031D01*
X0000990942Y0003652407D01*
X0000987568Y0003648657D01*
X0000984194Y0003646781D01*
X0001026376Y0003658031D02*
X0001029750Y0003658031D01*
X0001033125Y0003656156D01*
X0001034812Y0003654281D01*
X0001036500Y0003650532D01*
X0001038187Y0003643033D01*
X0001038187Y0003633659D01*
X0001036500Y0003626160D01*
X0001034812Y0003622409D01*
X0001033125Y0003620535D01*
X0001029750Y0003618661D01*
X0001026376Y0003618661D01*
X0001023001Y0003620535D01*
X0001021314Y0003622409D01*
X0001019627Y0003626160D01*
X0001017938Y0003633659D01*
X0001017938Y0003643033D01*
X0001019627Y0003650532D01*
X0001021314Y0003654281D01*
X0001023001Y0003656156D01*
X0001026376Y0003658031D01*
X0001095555Y0003618661D02*
X0001095555Y0003658031D01*
X0001095555Y0003620535D02*
X0001092180Y0003618661D01*
X0001085431Y0003618661D01*
X0001082056Y0003620535D01*
X0001080369Y0003622409D01*
X0001078682Y0003626160D01*
X0001078682Y0003637409D01*
X0001080369Y0003641158D01*
X0001082056Y0003643033D01*
X0001085431Y0003644907D01*
X0001092180Y0003644907D01*
X0001095555Y0003643033D01*
X0001124239Y0003639283D02*
X0001129300Y0003637409D01*
X0001130988Y0003635534D01*
X0001132675Y0003631784D01*
X0001132675Y0003626160D01*
X0001130988Y0003622409D01*
X0001129300Y0003620535D01*
X0001125926Y0003618661D01*
X0001112428Y0003618661D01*
X0001112428Y0003658031D01*
X0001124239Y0003658031D01*
X0001127613Y0003656156D01*
X0001129300Y0003654281D01*
X0001130988Y0003650532D01*
X0001130988Y0003646781D01*
X0001129300Y0003643033D01*
X0001127613Y0003641158D01*
X0001124239Y0003639283D01*
X0001112428Y0003639283D01*
X0001147861Y0003618661D02*
X0001147861Y0003644907D01*
X0001147861Y0003641158D02*
X0001149548Y0003643033D01*
X0001152922Y0003644907D01*
X0001157984Y0003644907D01*
X0001161359Y0003643033D01*
X0001163046Y0003639283D01*
X0001163046Y0003618661D01*
X0001163046Y0003639283D02*
X0001164734Y0003643033D01*
X0001168108Y0003644907D01*
X0001173170Y0003644907D01*
X0001176545Y0003643033D01*
X0001178232Y0003639283D01*
X0001178232Y0003618661D01*
X0000263721Y0003555669D02*
X0000263721Y0003595039D01*
X0000275532Y0003566917D01*
X0000287343Y0003595039D01*
X0000287343Y0003555669D01*
X0000319402Y0003581915D02*
X0000319402Y0003555669D01*
X0000304216Y0003581915D02*
X0000304216Y0003561293D01*
X0000305903Y0003557544D01*
X0000309278Y0003555669D01*
X0000314340Y0003555669D01*
X0000317714Y0003557544D01*
X0000319402Y0003559418D01*
X0000341336Y0003555669D02*
X0000337962Y0003557544D01*
X0000336275Y0003561293D01*
X0000336275Y0003595039D01*
X0000349773Y0003581915D02*
X0000363271Y0003581915D01*
X0000354834Y0003595039D02*
X0000354834Y0003561293D01*
X0000356522Y0003557544D01*
X0000359897Y0003555669D01*
X0000363271Y0003555669D01*
X0000375082Y0003555669D02*
X0000375082Y0003581915D01*
X0000375082Y0003595039D02*
X0000373395Y0003593164D01*
X0000375082Y0003591289D01*
X0000376770Y0003593164D01*
X0000375082Y0003595039D01*
X0000375082Y0003591289D01*
X0000391954Y0003581915D02*
X0000391954Y0003542545D01*
X0000391954Y0003580041D02*
X0000395330Y0003581915D01*
X0000402079Y0003581915D01*
X0000405453Y0003580041D01*
X0000407141Y0003578166D01*
X0000408828Y0003574416D01*
X0000408828Y0003563168D01*
X0000407141Y0003559418D01*
X0000405453Y0003557544D01*
X0000402079Y0003555669D01*
X0000395330Y0003555669D01*
X0000391954Y0003557544D01*
X0000429075Y0003555669D02*
X0000425700Y0003557544D01*
X0000424014Y0003561293D01*
X0000424014Y0003595039D01*
X0000456072Y0003557544D02*
X0000452697Y0003555669D01*
X0000445948Y0003555669D01*
X0000442574Y0003557544D01*
X0000440886Y0003561293D01*
X0000440886Y0003576290D01*
X0000442574Y0003580041D01*
X0000445948Y0003581915D01*
X0000452697Y0003581915D01*
X0000456072Y0003580041D01*
X0000457759Y0003576290D01*
X0000457759Y0003572542D01*
X0000440886Y0003568792D01*
X0000469570Y0003555669D02*
X0000488131Y0003581915D01*
X0000469570Y0003581915D02*
X0000488131Y0003555669D01*
X0000501629Y0003555669D02*
X0000501629Y0003581915D01*
X0000501629Y0003595039D02*
X0000499942Y0003593164D01*
X0000501629Y0003591289D01*
X0000503316Y0003593164D01*
X0000501629Y0003595039D01*
X0000501629Y0003591289D01*
X0000518502Y0003581915D02*
X0000518502Y0003555669D01*
X0000518502Y0003578166D02*
X0000520189Y0003580041D01*
X0000523564Y0003581915D01*
X0000528626Y0003581915D01*
X0000532000Y0003580041D01*
X0000533687Y0003576290D01*
X0000533687Y0003555669D01*
X0000565746Y0003581915D02*
X0000565746Y0003550044D01*
X0000564059Y0003546294D01*
X0000562371Y0003544420D01*
X0000558997Y0003542545D01*
X0000553935Y0003542545D01*
X0000550560Y0003544420D01*
X0000565746Y0003557544D02*
X0000562371Y0003555669D01*
X0000555622Y0003555669D01*
X0000552248Y0003557544D01*
X0000550560Y0003559418D01*
X0000548873Y0003563168D01*
X0000548873Y0003574416D01*
X0000550560Y0003578166D01*
X0000552248Y0003580041D01*
X0000555622Y0003581915D01*
X0000562371Y0003581915D01*
X0000565746Y0003580041D01*
X0000582619Y0003559418D02*
X0000584306Y0003557544D01*
X0000582619Y0003555669D01*
X0000580931Y0003557544D01*
X0000582619Y0003559418D01*
X0000582619Y0003555669D01*
X0000582619Y0003580041D02*
X0000584306Y0003578166D01*
X0000582619Y0003576290D01*
X0000580931Y0003578166D01*
X0000582619Y0003580041D01*
X0000582619Y0003576290D01*
X0000624801Y0003591289D02*
X0000626488Y0003593164D01*
X0000629863Y0003595039D01*
X0000638299Y0003595039D01*
X0000641674Y0003593164D01*
X0000643361Y0003591289D01*
X0000645048Y0003587540D01*
X0000645048Y0003583790D01*
X0000643361Y0003578166D01*
X0000623114Y0003555669D01*
X0000645048Y0003555669D01*
X0000656860Y0003555669D02*
X0000675420Y0003581915D01*
X0000656860Y0003581915D02*
X0000675420Y0003555669D01*
X0000687231Y0003591289D02*
X0000688918Y0003593164D01*
X0000692292Y0003595039D01*
X0000700729Y0003595039D01*
X0000704104Y0003593164D01*
X0000705791Y0003591289D01*
X0000707478Y0003587540D01*
X0000707478Y0003583790D01*
X0000705791Y0003578166D01*
X0000685543Y0003555669D01*
X0000707478Y0003555669D01*
X0000749660Y0003555669D02*
X0000749660Y0003595039D01*
X0000761471Y0003566917D01*
X0000773282Y0003595039D01*
X0000773282Y0003555669D01*
X0000790155Y0003555669D02*
X0000790155Y0003595039D01*
X0000807028Y0003555669D02*
X0000807028Y0003595039D01*
X0000818839Y0003566917D01*
X0000830650Y0003595039D01*
X0000830650Y0003555669D01*
X0000854272Y0003595039D02*
X0000861021Y0003595039D01*
X0000864396Y0003593164D01*
X0000867771Y0003589415D01*
X0000869458Y0003581915D01*
X0000869458Y0003568792D01*
X0000867771Y0003561293D01*
X0000864396Y0003557544D01*
X0000861021Y0003555669D01*
X0000854272Y0003555669D01*
X0000850898Y0003557544D01*
X0000847523Y0003561293D01*
X0000845836Y0003568792D01*
X0000845836Y0003581915D01*
X0000847523Y0003589415D01*
X0000850898Y0003593164D01*
X0000854272Y0003595039D01*
%LPC*%
X0002773485Y0003245424D02*
X0002771985Y0003242426D01*
X0002768986Y0003240926D01*
X0002741989Y0003240926D01*
X0002752488Y0003270922D02*
X0002773485Y0003270922D01*
X0002752488Y0003257424D02*
X0002768986Y0003257424D01*
X0002771985Y0003258924D01*
X0002773485Y0003261923D01*
X0002773485Y0003266423D01*
X0002771985Y0003269422D01*
X0002770485Y0003270922D01*
X0002752488Y0003281421D02*
X0002752488Y0003293419D01*
X0002773485Y0003285920D02*
X0002746488Y0003285920D01*
X0002743489Y0003287420D01*
X0002741989Y0003290420D01*
X0002741989Y0003293419D01*
X0002752488Y0003299418D02*
X0002752488Y0003311417D01*
X0002741989Y0003303917D02*
X0002768986Y0003303917D01*
X0002771985Y0003305418D01*
X0002773485Y0003308418D01*
X0002773485Y0003311417D01*
X0002771985Y0003333914D02*
X0002773485Y0003330915D01*
X0002773485Y0003324916D01*
X0002771985Y0003321916D01*
X0002768986Y0003320416D01*
X0002756986Y0003320416D01*
X0002753987Y0003321916D01*
X0002752488Y0003324916D01*
X0002752488Y0003330915D01*
X0002753987Y0003333914D01*
X0002756986Y0003335414D01*
X0002759987Y0003335414D01*
X0002762985Y0003320416D01*
X0002773485Y0003348913D02*
X0002741989Y0003348913D01*
X0002761486Y0003351912D02*
X0002773485Y0003360911D01*
X0002752488Y0003360911D02*
X0002764486Y0003348913D01*
D10*
X0002743414Y0003387566D02*
X0002741914Y0003389065D01*
X0002740414Y0003392065D01*
X0002740414Y0003399564D01*
X0002741914Y0003402563D01*
X0002743414Y0003404063D01*
X0002746413Y0003405563D01*
X0002749413Y0003405563D01*
X0002753912Y0003404063D01*
X0002771910Y0003386066D01*
X0002771910Y0003405563D01*
X0002740414Y0003425061D02*
X0002740414Y0003428060D01*
X0002741914Y0003431060D01*
X0002743414Y0003432560D01*
X0002746413Y0003434060D01*
X0002752413Y0003435560D01*
X0002759912Y0003435560D01*
X0002765911Y0003434060D01*
X0002768911Y0003432560D01*
X0002770410Y0003431060D01*
X0002771910Y0003428060D01*
X0002771910Y0003425061D01*
X0002770410Y0003422061D01*
X0002768911Y0003420561D01*
X0002765911Y0003419062D01*
X0002759912Y0003417562D01*
X0002752413Y0003417562D01*
X0002746413Y0003419062D01*
X0002743414Y0003420561D01*
X0002741914Y0003422061D01*
X0002740414Y0003425061D01*
X0002771910Y0003465556D02*
X0002771910Y0003447558D01*
X0002771910Y0003456557D02*
X0002740414Y0003456557D01*
X0002744914Y0003453557D01*
X0002747913Y0003450558D01*
X0002749413Y0003447558D01*
X0002740414Y0003492552D02*
X0002740414Y0003486553D01*
X0002741914Y0003483554D01*
X0002743414Y0003482054D01*
X0002747913Y0003479054D01*
X0002753912Y0003477553D01*
X0002765911Y0003477553D01*
X0002768911Y0003479054D01*
X0002770410Y0003480554D01*
X0002771910Y0003483554D01*
X0002771910Y0003489553D01*
X0002770410Y0003492552D01*
X0002768911Y0003494052D01*
X0002765911Y0003495552D01*
X0002758412Y0003495552D01*
X0002755412Y0003494052D01*
X0002753912Y0003492552D01*
X0002752413Y0003489553D01*
X0002752413Y0003483554D01*
X0002753912Y0003480554D01*
X0002755412Y0003479054D01*
X0002758412Y0003477553D01*
X0002771910Y0003525548D02*
X0002771910Y0003507551D01*
X0002771910Y0003516549D02*
X0002740414Y0003516549D01*
X0002744914Y0003513550D01*
X0002747913Y0003510550D01*
X0002749413Y0003507551D01*
X0002771910Y0003555545D02*
X0002771910Y0003537546D01*
X0002771910Y0003546546D02*
X0002740414Y0003546546D01*
X0002744914Y0003543546D01*
X0002747913Y0003540546D01*
X0002749413Y0003537546D01*
X0002740414Y0003575042D02*
X0002740414Y0003578042D01*
X0002741914Y0003581041D01*
X0002743414Y0003582541D01*
X0002746413Y0003584041D01*
X0002752413Y0003585541D01*
X0002759912Y0003585541D01*
X0002765911Y0003584041D01*
X0002768911Y0003582541D01*
X0002770410Y0003581041D01*
X0002771910Y0003578042D01*
X0002771910Y0003575042D01*
X0002770410Y0003572042D01*
X0002768911Y0003570543D01*
X0002765911Y0003569043D01*
X0002759912Y0003567543D01*
X0002752413Y0003567543D01*
X0002746413Y0003569043D01*
X0002743414Y0003570543D01*
X0002741914Y0003572042D01*
X0002740414Y0003575042D01*
X0002750913Y0003612536D02*
X0002771910Y0003612536D01*
X0002738914Y0003605038D02*
X0002761412Y0003597539D01*
X0002761412Y0003617037D01*
D12*
X0002206818Y0003053242D02*
X0002227816Y0003053242D01*
X0002214317Y0003021747D01*
X0002253312Y0003053242D02*
X0002247313Y0003053242D01*
X0002244314Y0003051743D01*
X0002242814Y0003050244D01*
X0002239814Y0003045744D01*
X0002238314Y0003039745D01*
X0002238314Y0003027746D01*
X0002239814Y0003024747D01*
X0002241314Y0003023247D01*
X0002244314Y0003021747D01*
X0002250313Y0003021747D01*
X0002253312Y0003023247D01*
X0002254812Y0003024747D01*
X0002256312Y0003027746D01*
X0002256312Y0003035246D01*
X0002254812Y0003038245D01*
X0002253312Y0003039745D01*
X0002250313Y0003041245D01*
X0002244314Y0003041245D01*
X0002241314Y0003039745D01*
X0002239814Y0003038245D01*
X0002238314Y0003035246D01*
X0002266811Y0003021747D02*
X0002283309Y0003042744D01*
X0002266811Y0003042744D02*
X0002283309Y0003021747D01*
X0002292308Y0003053242D02*
X0002311805Y0003053242D01*
X0002301307Y0003041245D01*
X0002305806Y0003041245D01*
X0002308806Y0003039745D01*
X0002310305Y0003038245D01*
X0002311805Y0003035246D01*
X0002311805Y0003027746D01*
X0002310305Y0003024747D01*
X0002308806Y0003023247D01*
X0002305806Y0003021747D01*
X0002296807Y0003021747D01*
X0002293807Y0003023247D01*
X0002292308Y0003024747D01*
X0002340302Y0003053242D02*
X0002325304Y0003053242D01*
X0002323804Y0003038245D01*
X0002325304Y0003039745D01*
X0002328303Y0003041245D01*
X0002335802Y0003041245D01*
X0002338802Y0003039745D01*
X0002340302Y0003038245D01*
X0002341801Y0003035246D01*
X0002341801Y0003027746D01*
X0002340302Y0003024747D01*
X0002338802Y0003023247D01*
X0002335802Y0003021747D01*
X0002328303Y0003021747D01*
X0002325304Y0003023247D01*
X0002323804Y0003024747D01*
X0002352300Y0003021747D02*
X0002368798Y0003042744D01*
X0002352300Y0003042744D02*
X0002368798Y0003021747D01*
X0002397295Y0003021747D02*
X0002379297Y0003021747D01*
X0002388296Y0003021747D02*
X0002388296Y0003053242D01*
X0002385296Y0003048743D01*
X0002382296Y0003045744D01*
X0002379297Y0003044244D01*
X0002416792Y0003053242D02*
X0002419792Y0003053242D01*
X0002422791Y0003051743D01*
X0002424291Y0003050244D01*
X0002425791Y0003047244D01*
X0002427291Y0003041245D01*
X0002427291Y0003033746D01*
X0002425791Y0003027746D01*
X0002424291Y0003024747D01*
X0002422791Y0003023247D01*
X0002419792Y0003021747D01*
X0002416792Y0003021747D01*
X0002413792Y0003023247D01*
X0002412293Y0003024747D01*
X0002410793Y0003027746D01*
X0002409293Y0003033746D01*
X0002409293Y0003041245D01*
X0002410793Y0003047244D01*
X0002412293Y0003050244D01*
X0002413792Y0003051743D01*
X0002416792Y0003053242D01*
X0002446788Y0003053242D02*
X0002449788Y0003053242D01*
X0002452788Y0003051743D01*
X0002454287Y0003050244D01*
X0002455787Y0003047244D01*
X0002457287Y0003041245D01*
X0002457287Y0003033746D01*
X0002455787Y0003027746D01*
X0002454287Y0003024747D01*
X0002452788Y0003023247D01*
X0002449788Y0003021747D01*
X0002446788Y0003021747D01*
X0002443789Y0003023247D01*
X0002442289Y0003024747D01*
X0002440789Y0003027746D01*
X0002439289Y0003033746D01*
X0002439289Y0003041245D01*
X0002440789Y0003047244D01*
X0002442289Y0003050244D01*
X0002443789Y0003051743D01*
X0002446788Y0003053242D01*
X0002493282Y0003023247D02*
X0002496282Y0003021747D01*
X0002502281Y0003021747D01*
X0002505281Y0003023247D01*
X0002506781Y0003026247D01*
X0002506781Y0003027746D01*
X0002505281Y0003030746D01*
X0002502281Y0003032246D01*
X0002497782Y0003032246D01*
X0002494782Y0003033746D01*
X0002493282Y0003036745D01*
X0002493282Y0003038245D01*
X0002494782Y0003041245D01*
X0002497782Y0003042744D01*
X0002502281Y0003042744D01*
X0002505281Y0003041245D01*
X0002520279Y0003042744D02*
X0002520279Y0003011249D01*
X0002520279Y0003041245D02*
X0002523279Y0003042744D01*
X0002529278Y0003042744D01*
X0002532278Y0003041245D01*
X0002533777Y0003039745D01*
X0002535277Y0003036745D01*
X0002535277Y0003027746D01*
X0002533777Y0003024747D01*
X0002532278Y0003023247D01*
X0002529278Y0003021747D01*
X0002523279Y0003021747D01*
X0002520279Y0003023247D01*
X0002553275Y0003021747D02*
X0002550275Y0003023247D01*
X0002548776Y0003026247D01*
X0002548776Y0003053242D01*
X0002565274Y0003021747D02*
X0002565274Y0003042744D01*
X0002565274Y0003053242D02*
X0002563774Y0003051743D01*
X0002565274Y0003050244D01*
X0002566773Y0003051743D01*
X0002565274Y0003053242D01*
X0002565274Y0003050244D01*
X0002575772Y0003042744D02*
X0002587771Y0003042744D01*
X0002580271Y0003053242D02*
X0002580271Y0003026247D01*
X0002581771Y0003023247D01*
X0002584771Y0003021747D01*
X0002587771Y0003021747D01*
X0002620767Y0003023247D02*
X0002623766Y0003021747D01*
X0002629765Y0003021747D01*
X0002632765Y0003023247D01*
X0002634265Y0003026247D01*
X0002634265Y0003027746D01*
X0002632765Y0003030746D01*
X0002629765Y0003032246D01*
X0002625266Y0003032246D01*
X0002622266Y0003033746D01*
X0002620767Y0003036745D01*
X0002620767Y0003038245D01*
X0002622266Y0003041245D01*
X0002625266Y0003042744D01*
X0002629765Y0003042744D01*
X0002632765Y0003041245D01*
X0002647763Y0003021747D02*
X0002647763Y0003053242D01*
X0002661262Y0003021747D02*
X0002661262Y0003038245D01*
X0002659762Y0003041245D01*
X0002656762Y0003042744D01*
X0002652263Y0003042744D01*
X0002649262Y0003041245D01*
X0002647763Y0003039745D01*
X0002688258Y0003023247D02*
X0002685259Y0003021747D01*
X0002679259Y0003021747D01*
X0002676260Y0003023247D01*
X0002674760Y0003026247D01*
X0002674760Y0003038245D01*
X0002676260Y0003041245D01*
X0002679259Y0003042744D01*
X0002685259Y0003042744D01*
X0002688258Y0003041245D01*
X0002689758Y0003038245D01*
X0002689758Y0003035246D01*
X0002674760Y0003032246D01*
X0002707756Y0003021747D02*
X0002704756Y0003023247D01*
X0002703256Y0003026247D01*
X0002703256Y0003053242D01*
X0002724254Y0003021747D02*
X0002721254Y0003023247D01*
X0002719753Y0003026247D01*
X0002719753Y0003053242D01*
D13*
X0002275387Y0003928762D02*
X0002275387Y0003772463D01*
D14*
X0002311214Y0003850810D02*
G75*
G03G03G03G03X0002311214Y0003850810I-0000150787D01X0002311214Y0003850810I-0000150787D01X0002311214Y0003850810I-0000150787D01G03G03X0002311214Y0003850810I-0000150787D01G03G03X0002311214Y0003850810I-0000150787D01X0002311214Y0003850810I-0000150787D01X0002311214Y0003850810I-0000150787D01X0002311214Y0003850810I-0000150787D01*
G01G01G01G01G01G01G01G01*
D15*
X0002265151Y0003850810D02*
G75*
G03G03G03G03X0002265151Y0003850810I-0000104724D01X0002265151Y0003850810I-0000104724D01X0002265151Y0003850810I-0000104724D01G03G03X0002265151Y0003850810I-0000104724D01G03G03X0002265151Y0003850810I-0000104724D01X0002265151Y0003850810I-0000104724D01X0002265151Y0003850810I-0000104724D01X0002265151Y0003850810I-0000104724D01*
G01G01G01G01G01G01G01G01*
X0002698222Y0003850810D02*
G75*
G03G03G03G03X0002698222Y0003850810I-0000104724D01X0002698222Y0003850810I-0000104724D01X0002698222Y0003850810I-0000104724D01G03G03X0002698222Y0003850810I-0000104724D01G03G03X0002698222Y0003850810I-0000104724D01X0002698222Y0003850810I-0000104724D01X0002698222Y0003850810I-0000104724D01X0002698222Y0003850810I-0000104724D01*
G01G01G01G01G01G01G01G01*
D14*
X0002744285Y0003850810D02*
G75*
G03G03G03G03X0002744285Y0003850810I-0000150787D01X0002744285Y0003850810I-0000150787D01X0002744285Y0003850810I-0000150787D01G03G03X0002744285Y0003850810I-0000150787D01G03G03X0002744285Y0003850810I-0000150787D01X0002744285Y0003850810I-0000150787D01X0002744285Y0003850810I-0000150787D01X0002744285Y0003850810I-0000150787D01*
G01G01G01G01G01G01G01G01*
D13*
X0002708457Y0003928762D02*
X0002708457Y0003772463D01*
D16*
X0001858115Y0004076545D03*
X0001738213Y0004076545D03*
X0001618312Y0004076545D03*
X0001498410Y0004076545D03*
X0001378508Y0004076545D03*
X0001258607Y0004076545D03*
X0001138705Y0004076545D03*
X0001018804Y0004076545D03*
X0000898902Y0004076545D03*
X0000779001Y0004076545D03*
X0000659099Y0004076545D03*
X0000539197Y0004076545D03*
X0000419296Y0004076545D03*
X0000718942Y0004117491D03*
X0000838843Y0004117491D03*
X0000479138Y0004117491D03*
X0001078646Y0004117491D03*
X0000599040Y0004117491D03*
X0000958745Y0004117491D03*
X0001917957Y0004117491D03*
X0001318449Y0004117491D03*
X0001438351Y0004117491D03*
X0001678154Y0004117491D03*
X0001798056Y0004117491D03*
X0001558253Y0004117491D03*
X0001198548Y0004117491D03*
X0002517465Y0004117491D03*
X0002157760Y0004117491D03*
X0002277662Y0004117491D03*
X0002397564Y0004117491D03*
X0002037859Y0004117491D03*
X0002577524Y0004159224D03*
X0002457623Y0004159224D03*
X0002337721Y0004159224D03*
X0002217819Y0004159224D03*
X0002097918Y0004159224D03*
X0001978016Y0004159224D03*
X0001858115Y0004159224D03*
X0001738213Y0004159224D03*
X0001618312Y0004159224D03*
X0001498410Y0004159224D03*
X0001378508Y0004159224D03*
X0001258607Y0004159224D03*
X0001138705Y0004159224D03*
X0001018804Y0004159224D03*
X0000898902Y0004159224D03*
X0000779001Y0004159224D03*
X0000659099Y0004159224D03*
X0000539197Y0004159224D03*
X0000419296Y0004159224D03*
D10*
G36*
X0001255575Y0003248653D02*
X0001256034Y0003248585D01*
X0001256483Y0003248472D01*
X0001256920Y0003248316D01*
X0001257339Y0003248118D01*
X0001257737Y0003247880D01*
X0001258109Y0003247602D01*
X0001258453Y0003247292D01*
X0001258764Y0003246949D01*
X0001259040Y0003246576D01*
X0001259278Y0003246179D01*
X0001259477Y0003245759D01*
X0001259633Y0003245323D01*
X0001259745Y0003244872D01*
X0001259814Y0003244415D01*
X0001259836Y0003243950D01*
X0001259836Y0003206156D01*
X0001259814Y0003205693D01*
X0001259745Y0003205235D01*
X0001259633Y0003204785D01*
X0001259477Y0003204347D01*
X0001259278Y0003203929D01*
X0001259040Y0003203531D01*
X0001258764Y0003203159D01*
X0001258453Y0003202816D01*
X0001258109Y0003202504D01*
X0001257737Y0003202228D01*
X0001257339Y0003201990D01*
X0001256920Y0003201790D01*
X0001256483Y0003201635D01*
X0001256034Y0003201523D01*
X0001255575Y0003201455D01*
X0001255112Y0003201432D01*
X0001217317Y0003201432D01*
X0001216854Y0003201455D01*
X0001216395Y0003201523D01*
X0001215945Y0003201635D01*
X0001215509Y0003201790D01*
X0001215090Y0003201990D01*
X0001214692Y0003202228D01*
X0001214319Y0003202504D01*
X0001213976Y0003202816D01*
X0001213665Y0003203159D01*
X0001213388Y0003203531D01*
X0001213150Y0003203929D01*
X0001212952Y0003204347D01*
X0001212796Y0003204785D01*
X0001212683Y0003205235D01*
X0001212615Y0003205693D01*
X0001212592Y0003206156D01*
X0001212592Y0003243950D01*
X0001212615Y0003244415D01*
X0001212683Y0003244872D01*
X0001212796Y0003245323D01*
X0001212952Y0003245759D01*
X0001213150Y0003246179D01*
X0001213388Y0003246576D01*
X0001213665Y0003246949D01*
X0001213976Y0003247292D01*
X0001214319Y0003247602D01*
X0001214692Y0003247880D01*
X0001215090Y0003248118D01*
X0001215509Y0003248316D01*
X0001215945Y0003248472D01*
X0001216395Y0003248585D01*
X0001216854Y0003248653D01*
X0001217317Y0003248676D01*
X0001255112Y0003248676D01*
X0001255575Y0003248653D01*
X0001255575Y0003248653D01*
G37*
D17*
X0001236214Y0003225053D03*
D10*
G36*
X0001779591Y0003249047D02*
X0001780049Y0003248979D01*
X0001780499Y0003248866D01*
X0001780936Y0003248710D01*
X0001781355Y0003248512D01*
X0001781752Y0003248273D01*
X0001782125Y0003247997D01*
X0001782468Y0003247686D01*
X0001782780Y0003247342D01*
X0001783056Y0003246970D01*
X0001783294Y0003246572D01*
X0001783492Y0003246153D01*
X0001783649Y0003245717D01*
X0001783759Y0003245267D01*
X0001783829Y0003244808D01*
X0001783852Y0003244345D01*
X0001783852Y0003206550D01*
X0001783829Y0003206087D01*
X0001783759Y0003205628D01*
X0001783649Y0003205178D01*
X0001783492Y0003204742D01*
X0001783294Y0003204323D01*
X0001783056Y0003203925D01*
X0001782780Y0003203553D01*
X0001782468Y0003203208D01*
X0001782125Y0003202898D01*
X0001781752Y0003202622D01*
X0001781355Y0003202382D01*
X0001780936Y0003202185D01*
X0001780499Y0003202029D01*
X0001780049Y0003201916D01*
X0001779591Y0003201848D01*
X0001779128Y0003201825D01*
X0001741331Y0003201825D01*
X0001740869Y0003201848D01*
X0001740411Y0003201916D01*
X0001739960Y0003202029D01*
X0001739524Y0003202185D01*
X0001739105Y0003202382D01*
X0001738708Y0003202622D01*
X0001738335Y0003202898D01*
X0001737990Y0003203208D01*
X0001737680Y0003203553D01*
X0001737404Y0003203925D01*
X0001737166Y0003204323D01*
X0001736968Y0003204742D01*
X0001736811Y0003205178D01*
X0001736699Y0003205628D01*
X0001736631Y0003206087D01*
X0001736608Y0003206550D01*
X0001736608Y0003244345D01*
X0001736631Y0003244808D01*
X0001736699Y0003245267D01*
X0001736811Y0003245717D01*
X0001736968Y0003246153D01*
X0001737166Y0003246572D01*
X0001737404Y0003246970D01*
X0001737680Y0003247342D01*
X0001737990Y0003247686D01*
X0001738335Y0003247997D01*
X0001738708Y0003248273D01*
X0001739105Y0003248512D01*
X0001739524Y0003248710D01*
X0001739960Y0003248866D01*
X0001740411Y0003248979D01*
X0001740869Y0003249047D01*
X0001741331Y0003249070D01*
X0001779128Y0003249070D01*
X0001779591Y0003249047D01*
X0001779591Y0003249047D01*
G37*
D17*
X0001760230Y0003225448D03*
D10*
G36*
X0001540383Y0003066775D02*
X0001540612Y0003066741D01*
X0001540837Y0003066683D01*
X0001541055Y0003066606D01*
X0001541265Y0003066507D01*
X0001541462Y0003066388D01*
X0001541648Y0003066250D01*
X0001541822Y0003066094D01*
X0001541977Y0003065922D01*
X0001542115Y0003065736D01*
X0001542234Y0003065537D01*
X0001542334Y0003065328D01*
X0001542412Y0003065110D01*
X0001542468Y0003064885D01*
X0001542502Y0003064655D01*
X0001542513Y0003064424D01*
X0001542513Y0003045526D01*
X0001542502Y0003045294D01*
X0001542468Y0003045065D01*
X0001542412Y0003044841D01*
X0001542334Y0003044622D01*
X0001542234Y0003044413D01*
X0001542115Y0003044214D01*
X0001541977Y0003044028D01*
X0001541822Y0003043856D01*
X0001541648Y0003043700D01*
X0001541462Y0003043562D01*
X0001541265Y0003043443D01*
X0001541055Y0003043344D01*
X0001540837Y0003043266D01*
X0001540612Y0003043209D01*
X0001540383Y0003043175D01*
X0001540151Y0003043164D01*
X0001458261Y0003043164D01*
X0001458030Y0003043175D01*
X0001457799Y0003043209D01*
X0001457576Y0003043266D01*
X0001457357Y0003043344D01*
X0001457148Y0003043443D01*
X0001456949Y0003043562D01*
X0001456763Y0003043700D01*
X0001456591Y0003043856D01*
X0001456435Y0003044028D01*
X0001456297Y0003044214D01*
X0001456178Y0003044413D01*
X0001456079Y0003044622D01*
X0001456001Y0003044841D01*
X0001455945Y0003045065D01*
X0001455911Y0003045294D01*
X0001455899Y0003045526D01*
X0001455899Y0003064424D01*
X0001455911Y0003064655D01*
X0001455945Y0003064885D01*
X0001456001Y0003065110D01*
X0001456079Y0003065328D01*
X0001456178Y0003065537D01*
X0001456297Y0003065736D01*
X0001456435Y0003065922D01*
X0001456591Y0003066094D01*
X0001456763Y0003066250D01*
X0001456949Y0003066388D01*
X0001457148Y0003066507D01*
X0001457357Y0003066606D01*
X0001457576Y0003066683D01*
X0001457799Y0003066741D01*
X0001458030Y0003066775D01*
X0001458261Y0003066786D01*
X0001540151Y0003066786D01*
X0001540383Y0003066775D01*
X0001540383Y0003066775D01*
G37*
D18*
X0001499206Y0003054975D03*
D10*
G36*
X0001216205Y0003362351D02*
X0001216663Y0003362283D01*
X0001217113Y0003362170D01*
X0001217550Y0003362014D01*
X0001217969Y0003361816D01*
X0001218367Y0003361577D01*
X0001218739Y0003361301D01*
X0001219082Y0003360990D01*
X0001219394Y0003360646D01*
X0001219670Y0003360274D01*
X0001219908Y0003359876D01*
X0001220107Y0003359457D01*
X0001220263Y0003359020D01*
X0001220375Y0003358571D01*
X0001220443Y0003358112D01*
X0001220466Y0003357649D01*
X0001220466Y0003280484D01*
X0001220443Y0003280021D01*
X0001220375Y0003279562D01*
X0001220263Y0003279112D01*
X0001220107Y0003278676D01*
X0001219908Y0003278256D01*
X0001219670Y0003277859D01*
X0001219394Y0003277486D01*
X0001219082Y0003277143D01*
X0001218739Y0003276832D01*
X0001218367Y0003276555D01*
X0001217969Y0003276317D01*
X0001217550Y0003276119D01*
X0001217113Y0003275963D01*
X0001216663Y0003275850D01*
X0001216205Y0003275782D01*
X0001215742Y0003275759D01*
X0001177947Y0003275759D01*
X0001177483Y0003275782D01*
X0001177025Y0003275850D01*
X0001176575Y0003275963D01*
X0001176139Y0003276119D01*
X0001175719Y0003276317D01*
X0001175322Y0003276555D01*
X0001174949Y0003276832D01*
X0001174606Y0003277143D01*
X0001174295Y0003277486D01*
X0001174018Y0003277859D01*
X0001173780Y0003278256D01*
X0001173582Y0003278676D01*
X0001173426Y0003279112D01*
X0001173313Y0003279562D01*
X0001173245Y0003280021D01*
X0001173222Y0003280484D01*
X0001173222Y0003357649D01*
X0001173245Y0003358112D01*
X0001173313Y0003358571D01*
X0001173426Y0003359020D01*
X0001173582Y0003359457D01*
X0001173780Y0003359876D01*
X0001174018Y0003360274D01*
X0001174295Y0003360646D01*
X0001174606Y0003360990D01*
X0001174949Y0003361301D01*
X0001175322Y0003361577D01*
X0001175719Y0003361816D01*
X0001176139Y0003362014D01*
X0001176575Y0003362170D01*
X0001177025Y0003362283D01*
X0001177483Y0003362351D01*
X0001177947Y0003362373D01*
X0001215742Y0003362373D01*
X0001216205Y0003362351D01*
X0001216205Y0003362351D01*
G37*
D17*
X0001196844Y0003319066D03*
D10*
G36*
X0001804788Y0003362547D02*
X0001805246Y0003362479D01*
X0001805696Y0003362367D01*
X0001806132Y0003362211D01*
X0001806552Y0003362012D01*
X0001806949Y0003361774D01*
X0001807322Y0003361498D01*
X0001807665Y0003361186D01*
X0001807976Y0003360843D01*
X0001808253Y0003360470D01*
X0001808491Y0003360073D01*
X0001808689Y0003359654D01*
X0001808845Y0003359217D01*
X0001808958Y0003358767D01*
X0001809026Y0003358309D01*
X0001809048Y0003357846D01*
X0001809048Y0003280680D01*
X0001809026Y0003280217D01*
X0001808958Y0003279758D01*
X0001808845Y0003279309D01*
X0001808689Y0003278872D01*
X0001808491Y0003278453D01*
X0001808253Y0003278056D01*
X0001807976Y0003277683D01*
X0001807665Y0003277339D01*
X0001807322Y0003277028D01*
X0001806949Y0003276752D01*
X0001806552Y0003276514D01*
X0001806132Y0003276316D01*
X0001805696Y0003276159D01*
X0001805246Y0003276047D01*
X0001804788Y0003275979D01*
X0001804324Y0003275956D01*
X0001766529Y0003275956D01*
X0001766066Y0003275979D01*
X0001765607Y0003276047D01*
X0001765158Y0003276159D01*
X0001764721Y0003276316D01*
X0001764302Y0003276514D01*
X0001763904Y0003276752D01*
X0001763532Y0003277028D01*
X0001763189Y0003277339D01*
X0001762877Y0003277683D01*
X0001762601Y0003278056D01*
X0001762363Y0003278453D01*
X0001762163Y0003278872D01*
X0001762008Y0003279309D01*
X0001761895Y0003279758D01*
X0001761828Y0003280217D01*
X0001761805Y0003280680D01*
X0001761805Y0003357846D01*
X0001761828Y0003358309D01*
X0001761895Y0003358767D01*
X0001762008Y0003359217D01*
X0001762163Y0003359654D01*
X0001762363Y0003360073D01*
X0001762601Y0003360470D01*
X0001762877Y0003360843D01*
X0001763189Y0003361186D01*
X0001763532Y0003361498D01*
X0001763904Y0003361774D01*
X0001764302Y0003362012D01*
X0001764721Y0003362211D01*
X0001765158Y0003362367D01*
X0001765607Y0003362479D01*
X0001766066Y0003362547D01*
X0001766529Y0003362570D01*
X0001804324Y0003362570D01*
X0001804788Y0003362547D01*
X0001804788Y0003362547D01*
G37*
D17*
X0001785426Y0003319263D03*
D19*
G36*
X0002788950Y0004298716D02*
X0002778882Y0004224065D01*
X0000189108Y0004223280D01*
X0000190153Y0004300677D01*
X0002788950Y0004298716D01*
X0002788950Y0004298716D01*
G37*
X0002788950Y0004298716D02*
X0002778882Y0004224065D01*
X0000189108Y0004223280D01*
X0000190153Y0004300677D01*
X0002788950Y0004298716D01*
G36*
X0002761301Y0002919737D02*
X0000233898Y0002920521D01*
X0000233550Y0002995958D01*
X0002760952Y0002996742D01*
X0002761301Y0002919737D01*
X0002761301Y0002919737D01*
G37*
X0002761301Y0002919737D02*
X0000233898Y0002920521D01*
X0000233550Y0002995958D01*
X0002760952Y0002996742D01*
X0002761301Y0002919737D01*
G36*
X0002994396Y0003916011D02*
X0002985083Y0003903594D01*
X0002957661Y0003903594D01*
X0002955749Y0003903213D01*
X0002954126Y0003902129D01*
X0002953043Y0003900507D01*
X0002952662Y0003898603D01*
X0002951481Y0003323801D01*
X0002951858Y0003321887D01*
X0002952938Y0003320262D01*
X0002954558Y0003319174D01*
X0002956481Y0003318791D01*
X0002985512Y0003318791D01*
X0002994394Y0003309909D01*
X0002994394Y0002919342D01*
X0002757915Y0002919342D01*
X0002757544Y0003000970D01*
X0002757544Y0003085904D01*
X0002760510Y0003089859D01*
X0002762683Y0003090862D01*
X0002766852Y0003089472D01*
X0002790203Y0003067581D01*
X0002793380Y0003055582D01*
X0002794790Y0003053217D01*
X0002807782Y0003041013D01*
X0002809307Y0003040030D01*
X0002824662Y0003033732D01*
X0002826560Y0003033358D01*
X0002841520Y0003033358D01*
X0002844015Y0003034025D01*
X0002857007Y0003041505D01*
X0002857825Y0003042093D01*
X0002868060Y0003051148D01*
X0002869367Y0003052978D01*
X0002876059Y0003069120D01*
X0002876439Y0003071182D01*
X0002876046Y0003084568D01*
X0002875699Y0003086252D01*
X0002870582Y0003099245D01*
X0002869594Y0003100815D01*
X0002859357Y0003111839D01*
X0002857691Y0003113020D01*
X0002843186Y0003119343D01*
X0002820832Y0003141329D01*
X0002819260Y0003147618D01*
X0002821255Y0003151607D01*
X0002827032Y0003154633D01*
X0002888827Y0003155405D01*
X0002890735Y0003155810D01*
X0002892343Y0003156914D01*
X0002893407Y0003158549D01*
X0002893764Y0003160404D01*
X0002893764Y0003235207D01*
X0002893384Y0003237121D01*
X0002892300Y0003238744D01*
X0002890677Y0003239827D01*
X0002888825Y0003240208D01*
X0002796917Y0003241328D01*
X0002797305Y0003978715D01*
X0002887666Y0003980209D01*
X0002889573Y0003980621D01*
X0002891177Y0003981731D01*
X0002892234Y0003983370D01*
X0002892583Y0003985182D01*
X0002892977Y0004060773D01*
X0002892606Y0004062687D01*
X0002891531Y0004064316D01*
X0002889914Y0004065407D01*
X0002888006Y0004065798D01*
X0002823024Y0004066181D01*
X0002819498Y0004069454D01*
X0002817704Y0004072593D01*
X0002818508Y0004076005D01*
X0002840767Y0004098631D01*
X0002852331Y0004102966D01*
X0002854017Y0004104021D01*
X0002869371Y0004118589D01*
X0002870683Y0004120666D01*
X0002876588Y0004138776D01*
X0002876669Y0004141603D01*
X0002871158Y0004162467D01*
X0002869906Y0004164678D01*
X0002855339Y0004179641D01*
X0002853731Y0004180746D01*
X0002852620Y0004181078D01*
X0002830179Y0004185015D01*
X0002828103Y0004184941D01*
X0002813930Y0004181396D01*
X0002811941Y0004180388D01*
X0002797768Y0004168577D01*
X0002796364Y0004166684D01*
X0002788157Y0004147284D01*
X0002766444Y0004128515D01*
X0002764503Y0004127739D01*
X0002761445Y0004128147D01*
X0002759207Y0004130181D01*
X0002757145Y0004136069D01*
X0002756757Y0004217795D01*
X0002760096Y0004299037D01*
X0002810741Y0004298319D01*
X0002810843Y0004298318D01*
X0002994783Y0004299468D01*
X0002994396Y0003916011D01*
X0002994396Y0003916011D01*
G37*
X0002994396Y0003916011D02*
X0002985083Y0003903594D01*
X0002957661Y0003903594D01*
X0002955749Y0003903213D01*
X0002954126Y0003902129D01*
X0002953043Y0003900507D01*
X0002952662Y0003898603D01*
X0002951481Y0003323801D01*
X0002951858Y0003321887D01*
X0002952938Y0003320262D01*
X0002954558Y0003319174D01*
X0002956481Y0003318791D01*
X0002985512Y0003318791D01*
X0002994394Y0003309909D01*
X0002994394Y0002919342D01*
X0002757915Y0002919342D01*
X0002757544Y0003000970D01*
X0002757544Y0003085904D01*
X0002760510Y0003089859D01*
X0002762683Y0003090862D01*
X0002766852Y0003089472D01*
X0002790203Y0003067581D01*
X0002793380Y0003055582D01*
X0002794790Y0003053217D01*
X0002807782Y0003041013D01*
X0002809307Y0003040030D01*
X0002824662Y0003033732D01*
X0002826560Y0003033358D01*
X0002841520Y0003033358D01*
X0002844015Y0003034025D01*
X0002857007Y0003041505D01*
X0002857825Y0003042093D01*
X0002868060Y0003051148D01*
X0002869367Y0003052978D01*
X0002876059Y0003069120D01*
X0002876439Y0003071182D01*
X0002876046Y0003084568D01*
X0002875699Y0003086252D01*
X0002870582Y0003099245D01*
X0002869594Y0003100815D01*
X0002859357Y0003111839D01*
X0002857691Y0003113020D01*
X0002843186Y0003119343D01*
X0002820832Y0003141329D01*
X0002819260Y0003147618D01*
X0002821255Y0003151607D01*
X0002827032Y0003154633D01*
X0002888827Y0003155405D01*
X0002890735Y0003155810D01*
X0002892343Y0003156914D01*
X0002893407Y0003158549D01*
X0002893764Y0003160404D01*
X0002893764Y0003235207D01*
X0002893384Y0003237121D01*
X0002892300Y0003238744D01*
X0002890677Y0003239827D01*
X0002888825Y0003240208D01*
X0002796917Y0003241328D01*
X0002797305Y0003978715D01*
X0002887666Y0003980209D01*
X0002889573Y0003980621D01*
X0002891177Y0003981731D01*
X0002892234Y0003983370D01*
X0002892583Y0003985182D01*
X0002892977Y0004060773D01*
X0002892606Y0004062687D01*
X0002891531Y0004064316D01*
X0002889914Y0004065407D01*
X0002888006Y0004065798D01*
X0002823024Y0004066181D01*
X0002819498Y0004069454D01*
X0002817704Y0004072593D01*
X0002818508Y0004076005D01*
X0002840767Y0004098631D01*
X0002852331Y0004102966D01*
X0002854017Y0004104021D01*
X0002869371Y0004118589D01*
X0002870683Y0004120666D01*
X0002876588Y0004138776D01*
X0002876669Y0004141603D01*
X0002871158Y0004162467D01*
X0002869906Y0004164678D01*
X0002855339Y0004179641D01*
X0002853731Y0004180746D01*
X0002852620Y0004181078D01*
X0002830179Y0004185015D01*
X0002828103Y0004184941D01*
X0002813930Y0004181396D01*
X0002811941Y0004180388D01*
X0002797768Y0004168577D01*
X0002796364Y0004166684D01*
X0002788157Y0004147284D01*
X0002766444Y0004128515D01*
X0002764503Y0004127739D01*
X0002761445Y0004128147D01*
X0002759207Y0004130181D01*
X0002757145Y0004136069D01*
X0002756757Y0004217795D01*
X0002760096Y0004299037D01*
X0002810741Y0004298319D01*
X0002810843Y0004298318D01*
X0002994783Y0004299468D01*
X0002994396Y0003916011D01*
G36*
X0000231402Y0004220233D02*
X0000231402Y0004135300D01*
X0000228436Y0004131344D01*
X0000226261Y0004130340D01*
X0000222093Y0004131731D01*
X0000198743Y0004153622D01*
X0000195566Y0004165621D01*
X0000194156Y0004167986D01*
X0000181164Y0004180191D01*
X0000179639Y0004181172D01*
X0000164284Y0004187471D01*
X0000162386Y0004187846D01*
X0000147426Y0004187846D01*
X0000144931Y0004187179D01*
X0000131939Y0004179699D01*
X0000131121Y0004179109D01*
X0000120885Y0004170054D01*
X0000119579Y0004168224D01*
X0000112885Y0004152084D01*
X0000112507Y0004150022D01*
X0000112900Y0004136636D01*
X0000113246Y0004134950D01*
X0000118364Y0004121958D01*
X0000119352Y0004120388D01*
X0000129589Y0004109365D01*
X0000131255Y0004108183D01*
X0000145761Y0004101860D01*
X0000168113Y0004079874D01*
X0000169684Y0004073584D01*
X0000167691Y0004069597D01*
X0000161914Y0004066569D01*
X0000100119Y0004065798D01*
X0000098211Y0004065394D01*
X0000096601Y0004064288D01*
X0000095539Y0004062654D01*
X0000095181Y0004060799D01*
X0000095181Y0003985995D01*
X0000095562Y0003984081D01*
X0000096646Y0003982460D01*
X0000098268Y0003981376D01*
X0000100121Y0003980996D01*
X0000192030Y0003979875D01*
X0000191640Y0003242488D01*
X0000101280Y0003240995D01*
X0000099373Y0003240583D01*
X0000097769Y0003239472D01*
X0000096712Y0003237832D01*
X0000096363Y0003236021D01*
X0000095969Y0003160431D01*
X0000096340Y0003158515D01*
X0000097415Y0003156888D01*
X0000099032Y0003155795D01*
X0000100940Y0003155405D01*
X0000165922Y0003155023D01*
X0000169448Y0003151749D01*
X0000171242Y0003148610D01*
X0000170438Y0003145197D01*
X0000148179Y0003122573D01*
X0000136615Y0003118236D01*
X0000134929Y0003117182D01*
X0000119575Y0003102615D01*
X0000118263Y0003100538D01*
X0000112357Y0003082427D01*
X0000112277Y0003079600D01*
X0000117788Y0003058734D01*
X0000119040Y0003056522D01*
X0000133607Y0003041562D01*
X0000135215Y0003040457D01*
X0000136326Y0003040126D01*
X0000158766Y0003036188D01*
X0000160843Y0003036263D01*
X0000175016Y0003039806D01*
X0000177005Y0003040816D01*
X0000191178Y0003052627D01*
X0000192582Y0003054520D01*
X0000200789Y0003073919D01*
X0000222502Y0003092688D01*
X0000224443Y0003093464D01*
X0000227500Y0003093057D01*
X0000229739Y0003091022D01*
X0000231800Y0003085134D01*
X0000232189Y0003003409D01*
X0000228846Y0002922073D01*
X0000156077Y0002921704D01*
X-0000005836Y0002921704D01*
X-0000005449Y0003305193D01*
X0000003862Y0003317609D01*
X0000031284Y0003317609D01*
X0000033197Y0003317990D01*
X0000034820Y0003319074D01*
X0000035903Y0003320696D01*
X0000036284Y0003322599D01*
X0000037465Y0003897402D01*
X0000037088Y0003899317D01*
X0000036008Y0003900940D01*
X0000034388Y0003902028D01*
X0000032465Y0003902413D01*
X0000003434Y0003902413D01*
X-0000005447Y0003911295D01*
X-0000005447Y0004301862D01*
X0000231031Y0004301862D01*
X0000231402Y0004220233D01*
X0000231402Y0004220233D01*
G37*
X0000231402Y0004220233D02*
X0000231402Y0004135300D01*
X0000228436Y0004131344D01*
X0000226261Y0004130340D01*
X0000222093Y0004131731D01*
X0000198743Y0004153622D01*
X0000195566Y0004165621D01*
X0000194156Y0004167986D01*
X0000181164Y0004180191D01*
X0000179639Y0004181172D01*
X0000164284Y0004187471D01*
X0000162386Y0004187846D01*
X0000147426Y0004187846D01*
X0000144931Y0004187179D01*
X0000131939Y0004179699D01*
X0000131121Y0004179109D01*
X0000120885Y0004170054D01*
X0000119579Y0004168224D01*
X0000112885Y0004152084D01*
X0000112507Y0004150022D01*
X0000112900Y0004136636D01*
X0000113246Y0004134950D01*
X0000118364Y0004121958D01*
X0000119352Y0004120388D01*
X0000129589Y0004109365D01*
X0000131255Y0004108183D01*
X0000145761Y0004101860D01*
X0000168113Y0004079874D01*
X0000169684Y0004073584D01*
X0000167691Y0004069597D01*
X0000161914Y0004066569D01*
X0000100119Y0004065798D01*
X0000098211Y0004065394D01*
X0000096601Y0004064288D01*
X0000095539Y0004062654D01*
X0000095181Y0004060799D01*
X0000095181Y0003985995D01*
X0000095562Y0003984081D01*
X0000096646Y0003982460D01*
X0000098268Y0003981376D01*
X0000100121Y0003980996D01*
X0000192030Y0003979875D01*
X0000191640Y0003242488D01*
X0000101280Y0003240995D01*
X0000099373Y0003240583D01*
X0000097769Y0003239472D01*
X0000096712Y0003237832D01*
X0000096363Y0003236021D01*
X0000095969Y0003160431D01*
X0000096340Y0003158515D01*
X0000097415Y0003156888D01*
X0000099032Y0003155795D01*
X0000100940Y0003155405D01*
X0000165922Y0003155023D01*
X0000169448Y0003151749D01*
X0000171242Y0003148610D01*
X0000170438Y0003145197D01*
X0000148179Y0003122573D01*
X0000136615Y0003118236D01*
X0000134929Y0003117182D01*
X0000119575Y0003102615D01*
X0000118263Y0003100538D01*
X0000112357Y0003082427D01*
X0000112277Y0003079600D01*
X0000117788Y0003058734D01*
X0000119040Y0003056522D01*
X0000133607Y0003041562D01*
X0000135215Y0003040457D01*
X0000136326Y0003040126D01*
X0000158766Y0003036188D01*
X0000160843Y0003036263D01*
X0000175016Y0003039806D01*
X0000177005Y0003040816D01*
X0000191178Y0003052627D01*
X0000192582Y0003054520D01*
X0000200789Y0003073919D01*
X0000222502Y0003092688D01*
X0000224443Y0003093464D01*
X0000227500Y0003093057D01*
X0000229739Y0003091022D01*
X0000231800Y0003085134D01*
X0000232189Y0003003409D01*
X0000228846Y0002922073D01*
X0000156077Y0002921704D01*
X-0000005836Y0002921704D01*
X-0000005449Y0003305193D01*
X0000003862Y0003317609D01*
X0000031284Y0003317609D01*
X0000033197Y0003317990D01*
X0000034820Y0003319074D01*
X0000035903Y0003320696D01*
X0000036284Y0003322599D01*
X0000037465Y0003897402D01*
X0000037088Y0003899317D01*
X0000036008Y0003900940D01*
X0000034388Y0003902028D01*
X0000032465Y0003902413D01*
X0000003434Y0003902413D01*
X-0000005447Y0003911295D01*
X-0000005447Y0004301862D01*
X0000231031Y0004301862D01*
X0000231402Y0004220233D01*
%LPD*%
G01G01G01G01G01G01G01G01*
D30*
D31*
X0003200881Y0004063123D02*
X0003200881Y0004089368D01*
X0003240251Y0004072497D01*
X0003200881Y0004121241D02*
X0003200881Y0004113742D01*
X0003202755Y0004109992D01*
X0003204630Y0004108117D01*
X0003210255Y0004104368D01*
X0003217753Y0004102493D01*
X0003232752Y0004102493D01*
X0003236501Y0004104368D01*
X0003238376Y0004106242D01*
X0003240251Y0004109992D01*
X0003240251Y0004117491D01*
X0003238376Y0004121241D01*
X0003236501Y0004123115D01*
X0003232752Y0004124990D01*
X0003223378Y0004124990D01*
X0003219628Y0004123115D01*
X0003217753Y0004121241D01*
X0003215879Y0004117491D01*
X0003215879Y0004109992D01*
X0003217753Y0004106242D01*
X0003219628Y0004104368D01*
X0003223378Y0004102493D01*
X0003240251Y0004138114D02*
X0003214004Y0004158736D01*
X0003214004Y0004138114D02*
X0003240251Y0004158736D01*
X0003200881Y0004169984D02*
X0003200881Y0004194356D01*
X0003215879Y0004181231D01*
X0003215879Y0004186857D01*
X0003217753Y0004190607D01*
X0003219628Y0004192482D01*
X0003223378Y0004194356D01*
X0003232752Y0004194356D01*
X0003236501Y0004192482D01*
X0003238376Y0004190607D01*
X0003240251Y0004186857D01*
X0003240251Y0004175608D01*
X0003238376Y0004171859D01*
X0003236501Y0004169984D01*
X0003200881Y0004229977D02*
X0003200881Y0004211229D01*
X0003219628Y0004209355D01*
X0003217753Y0004211229D01*
X0003215879Y0004214979D01*
X0003215879Y0004224353D01*
X0003217753Y0004228102D01*
X0003219628Y0004229977D01*
X0003223378Y0004231852D01*
X0003232752Y0004231852D01*
X0003236501Y0004229977D01*
X0003238376Y0004228102D01*
X0003240251Y0004224353D01*
X0003240251Y0004214979D01*
X0003238376Y0004211229D01*
X0003236501Y0004209355D01*
%LPC*%
D32*
X0003435433Y0004146454D03*
D33*
G36*
X0003153907Y0004007124D02*
X0003078867Y0004007124D01*
X0003078107Y0004282951D01*
X0003153147Y0004282951D01*
X0003153907Y0004007124D01*
X0003153907Y0004007124D01*
G37*
X0003153907Y0004007124D02*
X0003078867Y0004007124D01*
X0003078107Y0004282951D01*
X0003153147Y0004282951D01*
X0003153907Y0004007124D01*
%LPD*%
G01G01G01G01G01G01G01G01*
D44*
D45*
X0003200881Y0003708792D02*
X0003200881Y0003735039D01*
X0003240251Y0003718166D01*
X0003200881Y0003766910D02*
X0003200881Y0003759411D01*
X0003202755Y0003755661D01*
X0003204630Y0003753787D01*
X0003210255Y0003750037D01*
X0003217753Y0003748162D01*
X0003232752Y0003748162D01*
X0003236501Y0003750037D01*
X0003238376Y0003751912D01*
X0003240251Y0003755661D01*
X0003240251Y0003763159D01*
X0003238376Y0003766910D01*
X0003236501Y0003768785D01*
X0003232752Y0003770659D01*
X0003223378Y0003770659D01*
X0003219628Y0003768785D01*
X0003217753Y0003766910D01*
X0003215879Y0003763159D01*
X0003215879Y0003755661D01*
X0003217753Y0003751912D01*
X0003219628Y0003750037D01*
X0003223378Y0003748162D01*
X0003240251Y0003783783D02*
X0003214004Y0003804405D01*
X0003214004Y0003783783D02*
X0003240251Y0003804405D01*
X0003200881Y0003815654D02*
X0003200881Y0003840026D01*
X0003215879Y0003826902D01*
X0003215879Y0003832527D01*
X0003217753Y0003836276D01*
X0003219628Y0003838151D01*
X0003223378Y0003840026D01*
X0003232752Y0003840026D01*
X0003236501Y0003838151D01*
X0003238376Y0003836276D01*
X0003240251Y0003832527D01*
X0003240251Y0003821278D01*
X0003238376Y0003817529D01*
X0003236501Y0003815654D01*
X0003200881Y0003875646D02*
X0003200881Y0003856899D01*
X0003219628Y0003855024D01*
X0003217753Y0003856899D01*
X0003215879Y0003860648D01*
X0003215879Y0003870022D01*
X0003217753Y0003873772D01*
X0003219628Y0003875646D01*
X0003223378Y0003877521D01*
X0003232752Y0003877521D01*
X0003236501Y0003875646D01*
X0003238376Y0003873772D01*
X0003240251Y0003870022D01*
X0003240251Y0003860648D01*
X0003238376Y0003856899D01*
X0003236501Y0003855024D01*
%LPC*%
D46*
X0003435433Y0003792125D03*
D47*
G36*
X0003153907Y0003652793D02*
X0003078867Y0003652793D01*
X0003078107Y0003928620D01*
X0003153147Y0003928620D01*
X0003153907Y0003652793D01*
X0003153907Y0003652793D01*
G37*
X0003153907Y0003652793D02*
X0003078867Y0003652793D01*
X0003078107Y0003928620D01*
X0003153147Y0003928620D01*
X0003153907Y0003652793D01*
%LPD*%
G01G01G01G01G01G01G01G01*
D58*
D59*
X0003200881Y0003354461D02*
X0003200881Y0003380708D01*
X0003240251Y0003363835D01*
X0003200881Y0003412579D02*
X0003200881Y0003405080D01*
X0003202755Y0003401330D01*
X0003204630Y0003399456D01*
X0003210255Y0003395706D01*
X0003217753Y0003393832D01*
X0003232752Y0003393832D01*
X0003236501Y0003395706D01*
X0003238376Y0003397580D01*
X0003240251Y0003401330D01*
X0003240251Y0003408830D01*
X0003238376Y0003412579D01*
X0003236501Y0003414454D01*
X0003232752Y0003416329D01*
X0003223378Y0003416329D01*
X0003219628Y0003414454D01*
X0003217753Y0003412579D01*
X0003215879Y0003408830D01*
X0003215879Y0003401330D01*
X0003217753Y0003397580D01*
X0003219628Y0003395706D01*
X0003223378Y0003393832D01*
X0003240251Y0003429452D02*
X0003214004Y0003450074D01*
X0003214004Y0003429452D02*
X0003240251Y0003450074D01*
X0003200881Y0003461323D02*
X0003200881Y0003485695D01*
X0003215879Y0003472572D01*
X0003215879Y0003478196D01*
X0003217753Y0003481945D01*
X0003219628Y0003483820D01*
X0003223378Y0003485695D01*
X0003232752Y0003485695D01*
X0003236501Y0003483820D01*
X0003238376Y0003481945D01*
X0003240251Y0003478196D01*
X0003240251Y0003466947D01*
X0003238376Y0003463198D01*
X0003236501Y0003461323D01*
X0003200881Y0003521316D02*
X0003200881Y0003502568D01*
X0003219628Y0003500692D01*
X0003217753Y0003502568D01*
X0003215879Y0003506317D01*
X0003215879Y0003515691D01*
X0003217753Y0003519441D01*
X0003219628Y0003521316D01*
X0003223378Y0003523190D01*
X0003232752Y0003523190D01*
X0003236501Y0003521316D01*
X0003238376Y0003519441D01*
X0003240251Y0003515691D01*
X0003240251Y0003506317D01*
X0003238376Y0003502568D01*
X0003236501Y0003500692D01*
%LPC*%
D60*
X0003435433Y0003437795D03*
D61*
G36*
X0003153907Y0003298463D02*
X0003078867Y0003298463D01*
X0003078107Y0003574290D01*
X0003153147Y0003574290D01*
X0003153907Y0003298463D01*
X0003153907Y0003298463D01*
G37*
X0003153907Y0003298463D02*
X0003078867Y0003298463D01*
X0003078107Y0003574290D01*
X0003153147Y0003574290D01*
X0003153907Y0003298463D01*
G04 next file*
%LPD*%
G01G01G01G01G01G01G01G01*
D72*
D73*
X0003200881Y0003000130D02*
X0003200881Y0003026376D01*
X0003240251Y0003009505D01*
X0003200881Y0003058248D02*
X0003200881Y0003050748D01*
X0003202755Y0003047000D01*
X0003204630Y0003045125D01*
X0003210255Y0003041376D01*
X0003217753Y0003039501D01*
X0003232752Y0003039501D01*
X0003236501Y0003041376D01*
X0003238376Y0003043250D01*
X0003240251Y0003047000D01*
X0003240251Y0003054499D01*
X0003238376Y0003058248D01*
X0003236501Y0003060123D01*
X0003232752Y0003061998D01*
X0003223378Y0003061998D01*
X0003219628Y0003060123D01*
X0003217753Y0003058248D01*
X0003215879Y0003054499D01*
X0003215879Y0003047000D01*
X0003217753Y0003043250D01*
X0003219628Y0003041376D01*
X0003223378Y0003039501D01*
X0003240251Y0003075121D02*
X0003214004Y0003095744D01*
X0003214004Y0003075121D02*
X0003240251Y0003095744D01*
X0003200881Y0003106992D02*
X0003200881Y0003131364D01*
X0003215879Y0003118241D01*
X0003215879Y0003123865D01*
X0003217753Y0003127615D01*
X0003219628Y0003129490D01*
X0003223378Y0003131364D01*
X0003232752Y0003131364D01*
X0003236501Y0003129490D01*
X0003238376Y0003127615D01*
X0003240251Y0003123865D01*
X0003240251Y0003112617D01*
X0003238376Y0003108867D01*
X0003236501Y0003106992D01*
X0003200881Y0003166985D02*
X0003200881Y0003148237D01*
X0003219628Y0003146362D01*
X0003217753Y0003148237D01*
X0003215879Y0003151987D01*
X0003215879Y0003161361D01*
X0003217753Y0003165109D01*
X0003219628Y0003166985D01*
X0003223378Y0003168860D01*
X0003232752Y0003168860D01*
X0003236501Y0003166985D01*
X0003238376Y0003165109D01*
X0003240251Y0003161361D01*
X0003240251Y0003151987D01*
X0003238376Y0003148237D01*
X0003236501Y0003146362D01*
%LPC*%
D74*
X0003435433Y0003083464D03*
D75*
G36*
X0003153907Y0002944131D02*
X0003078867Y0002944131D01*
X0003078107Y0003219959D01*
X0003153147Y0003219959D01*
X0003153907Y0002944131D01*
X0003153907Y0002944131D01*
G37*
X0003153907Y0002944131D02*
X0003078867Y0002944131D01*
X0003078107Y0003219959D01*
X0003153147Y0003219959D01*
X0003153907Y0002944131D01*
%LPD*%
G01G01G01G01G01G01G01G01*
D86*
D87*
X0003191038Y0001584195D02*
X0003151668Y0001584195D01*
X0003191038Y0001599381D02*
X0003170416Y0001599381D01*
X0003166666Y0001597694D01*
X0003164791Y0001594319D01*
X0003164791Y0001589257D01*
X0003166666Y0001585880D01*
X0003168541Y0001584195D01*
X0003191038Y0001621316D02*
X0003189163Y0001617941D01*
X0003187289Y0001616253D01*
X0003183539Y0001614566D01*
X0003172290Y0001614566D01*
X0003168541Y0001616253D01*
X0003166666Y0001617941D01*
X0003164791Y0001621316D01*
X0003164791Y0001626377D01*
X0003166666Y0001629752D01*
X0003168541Y0001631439D01*
X0003172290Y0001633127D01*
X0003183539Y0001633127D01*
X0003187289Y0001631439D01*
X0003189163Y0001629752D01*
X0003191038Y0001626377D01*
X0003191038Y0001621316D01*
X0003191038Y0001653374D02*
X0003189163Y0001650000D01*
X0003185414Y0001648312D01*
X0003151668Y0001648312D01*
X0003189163Y0001680371D02*
X0003191038Y0001676996D01*
X0003191038Y0001670247D01*
X0003189163Y0001666872D01*
X0003185414Y0001665184D01*
X0003170416Y0001665184D01*
X0003166666Y0001666872D01*
X0003164791Y0001670247D01*
X0003164791Y0001676996D01*
X0003166666Y0001680371D01*
X0003170416Y0001682058D01*
X0003174165Y0001682058D01*
X0003177914Y0001665184D01*
X0003164791Y0001724240D02*
X0003204160Y0001724240D01*
X0003166666Y0001724240D02*
X0003164791Y0001727615D01*
X0003164791Y0001734364D01*
X0003166666Y0001737739D01*
X0003168541Y0001739426D01*
X0003172290Y0001741111D01*
X0003183539Y0001741111D01*
X0003187289Y0001739426D01*
X0003189163Y0001737739D01*
X0003191038Y0001734364D01*
X0003191038Y0001727615D01*
X0003189163Y0001724240D01*
X0003191038Y0001761361D02*
X0003189163Y0001757986D01*
X0003185414Y0001756299D01*
X0003151668Y0001756299D01*
X0003164791Y0001790044D02*
X0003191038Y0001790044D01*
X0003164791Y0001774859D02*
X0003185414Y0001774859D01*
X0003189163Y0001776546D01*
X0003191038Y0001779921D01*
X0003191038Y0001784983D01*
X0003189163Y0001788357D01*
X0003187289Y0001790044D01*
X0003164791Y0001822103D02*
X0003196662Y0001822103D01*
X0003200412Y0001820416D01*
X0003202286Y0001818727D01*
X0003204160Y0001815354D01*
X0003204160Y0001810292D01*
X0003202286Y0001806917D01*
X0003189163Y0001822103D02*
X0003191038Y0001818727D01*
X0003191038Y0001811979D01*
X0003189163Y0001808605D01*
X0003187289Y0001806917D01*
X0003183539Y0001805230D01*
X0003172290Y0001805230D01*
X0003168541Y0001806917D01*
X0003166666Y0001808605D01*
X0003164791Y0001811979D01*
X0003164791Y0001818727D01*
X0003166666Y0001822103D01*
%LPC*%
D86*
G36*
X0003081912Y0001508337D02*
X0003081980Y0001508795D01*
X0003082092Y0001509244D01*
X0003082249Y0001509681D01*
X0003082447Y0001510101D01*
X0003082684Y0001510498D01*
X0003082962Y0001510871D01*
X0003083273Y0001511214D01*
X0003083617Y0001511524D01*
X0003083989Y0001511802D01*
X0003084387Y0001512040D01*
X0003084806Y0001512238D01*
X0003085241Y0001512395D01*
X0003085692Y0001512507D01*
X0003086151Y0001512575D01*
X0003086614Y0001512598D01*
X0003124409Y0001512598D01*
X0003124872Y0001512575D01*
X0003125331Y0001512507D01*
X0003125780Y0001512395D01*
X0003126217Y0001512238D01*
X0003126636Y0001512040D01*
X0003127034Y0001511802D01*
X0003127406Y0001511524D01*
X0003127750Y0001511214D01*
X0003128061Y0001510871D01*
X0003128337Y0001510498D01*
X0003128576Y0001510101D01*
X0003128774Y0001509681D01*
X0003128929Y0001509244D01*
X0003129043Y0001508795D01*
X0003129111Y0001508337D01*
X0003129133Y0001507874D01*
X0003129133Y0001470078D01*
X0003129111Y0001469614D01*
X0003129043Y0001469157D01*
X0003128929Y0001468707D01*
X0003128774Y0001468270D01*
X0003128576Y0001467851D01*
X0003128337Y0001467454D01*
X0003128061Y0001467081D01*
X0003127750Y0001466738D01*
X0003127406Y0001466426D01*
X0003127034Y0001466150D01*
X0003126636Y0001465912D01*
X0003126217Y0001465713D01*
X0003125780Y0001465555D01*
X0003125331Y0001465445D01*
X0003124872Y0001465377D01*
X0003124409Y0001465354D01*
X0003086614Y0001465354D01*
X0003086151Y0001465377D01*
X0003085692Y0001465445D01*
X0003085241Y0001465555D01*
X0003084806Y0001465713D01*
X0003084387Y0001465912D01*
X0003083989Y0001466150D01*
X0003083617Y0001466426D01*
X0003083273Y0001466738D01*
X0003082962Y0001467081D01*
X0003082684Y0001467454D01*
X0003082447Y0001467851D01*
X0003082249Y0001468270D01*
X0003082092Y0001468707D01*
X0003081980Y0001469157D01*
X0003081912Y0001469614D01*
X0003081889Y0001470078D01*
X0003081889Y0001507874D01*
X0003081912Y0001508337D01*
X0003081912Y0001508337D01*
G37*
G36*
X0003082699Y0001938258D02*
X0003082767Y0001938716D01*
X0003082880Y0001939166D01*
X0003083036Y0001939603D01*
X0003083235Y0001940022D01*
X0003083473Y0001940420D01*
X0003083749Y0001940792D01*
X0003084060Y0001941135D01*
X0003084404Y0001941447D01*
X0003084776Y0001941723D01*
X0003085173Y0001941961D01*
X0003085593Y0001942160D01*
X0003086030Y0001942316D01*
X0003086479Y0001942427D01*
X0003086938Y0001942496D01*
X0003087401Y0001942519D01*
X0003125196Y0001942519D01*
X0003125659Y0001942496D01*
X0003126118Y0001942427D01*
X0003126568Y0001942316D01*
X0003127004Y0001942160D01*
X0003127423Y0001941961D01*
X0003127820Y0001941723D01*
X0003128192Y0001941447D01*
X0003128536Y0001941135D01*
X0003128848Y0001940792D01*
X0003129125Y0001940420D01*
X0003129362Y0001940022D01*
X0003129561Y0001939603D01*
X0003129717Y0001939166D01*
X0003129830Y0001938716D01*
X0003129898Y0001938258D01*
X0003129921Y0001937795D01*
X0003129921Y0001900000D01*
X0003129898Y0001899536D01*
X0003129830Y0001899078D01*
X0003129717Y0001898628D01*
X0003129561Y0001898192D01*
X0003129362Y0001897772D01*
X0003129125Y0001897375D01*
X0003128848Y0001897002D01*
X0003128536Y0001896658D01*
X0003128192Y0001896347D01*
X0003127820Y0001896071D01*
X0003127423Y0001895833D01*
X0003127004Y0001895635D01*
X0003126568Y0001895479D01*
X0003126118Y0001895366D01*
X0003125659Y0001895298D01*
X0003125196Y0001895275D01*
X0003087401Y0001895275D01*
X0003086938Y0001895298D01*
X0003086479Y0001895366D01*
X0003086030Y0001895479D01*
X0003085593Y0001895635D01*
X0003085173Y0001895833D01*
X0003084776Y0001896071D01*
X0003084404Y0001896347D01*
X0003084060Y0001896658D01*
X0003083749Y0001897002D01*
X0003083473Y0001897375D01*
X0003083235Y0001897772D01*
X0003083036Y0001898192D01*
X0003082880Y0001898628D01*
X0003082767Y0001899078D01*
X0003082699Y0001899536D01*
X0003082677Y0001900000D01*
X0003082677Y0001937795D01*
X0003082699Y0001938258D01*
X0003082699Y0001938258D01*
G37*
G36*
X0003232298Y0001746765D02*
X0003232343Y0001747070D01*
X0003232419Y0001747370D01*
X0003232523Y0001747662D01*
X0003232655Y0001747941D01*
X0003232814Y0001748206D01*
X0003232998Y0001748454D01*
X0003233204Y0001748682D01*
X0003233435Y0001748891D01*
X0003233683Y0001749075D01*
X0003233948Y0001749233D01*
X0003234227Y0001749366D01*
X0003234518Y0001749470D01*
X0003234818Y0001749545D01*
X0003235124Y0001749591D01*
X0003235433Y0001749605D01*
X0003260629Y0001749605D01*
X0003260938Y0001749591D01*
X0003261244Y0001749545D01*
X0003261544Y0001749470D01*
X0003261835Y0001749366D01*
X0003262114Y0001749233D01*
X0003262379Y0001749075D01*
X0003262627Y0001748891D01*
X0003262857Y0001748682D01*
X0003263064Y0001748454D01*
X0003263248Y0001748206D01*
X0003263407Y0001747941D01*
X0003263539Y0001747662D01*
X0003263643Y0001747370D01*
X0003263719Y0001747070D01*
X0003263764Y0001746765D01*
X0003263779Y0001746456D01*
X0003263779Y0001666141D01*
X0003263764Y0001665832D01*
X0003263718Y0001665527D01*
X0003263643Y0001665227D01*
X0003263539Y0001664936D01*
X0003263407Y0001664657D01*
X0003263248Y0001664391D01*
X0003263064Y0001664143D01*
X0003262857Y0001663914D01*
X0003262627Y0001663707D01*
X0003262379Y0001663522D01*
X0003262114Y0001663364D01*
X0003261835Y0001663231D01*
X0003261544Y0001663127D01*
X0003261244Y0001663052D01*
X0003260938Y0001663007D01*
X0003260629Y0001662992D01*
X0003235433Y0001662992D01*
X0003235124Y0001663007D01*
X0003234818Y0001663052D01*
X0003234518Y0001663127D01*
X0003234227Y0001663231D01*
X0003233948Y0001663364D01*
X0003233683Y0001663522D01*
X0003233435Y0001663707D01*
X0003233204Y0001663914D01*
X0003232998Y0001664143D01*
X0003232814Y0001664391D01*
X0003232655Y0001664657D01*
X0003232523Y0001664936D01*
X0003232419Y0001665227D01*
X0003232343Y0001665527D01*
X0003232298Y0001665832D01*
X0003232282Y0001666141D01*
X0003232282Y0001746456D01*
X0003232298Y0001746765D01*
X0003232298Y0001746765D01*
G37*
G04 next file*
%LPD*%
G01G01G01G01G01G01G01G01*
D98*
D99*
X0003170958Y0002396990D02*
X0003131589Y0002396990D01*
X0003170958Y0002412176D02*
X0003150337Y0002412176D01*
X0003146586Y0002410489D01*
X0003144712Y0002407114D01*
X0003144712Y0002402052D01*
X0003146586Y0002398678D01*
X0003148462Y0002396990D01*
X0003170958Y0002434111D02*
X0003169084Y0002430736D01*
X0003167210Y0002429049D01*
X0003163460Y0002427362D01*
X0003152212Y0002427362D01*
X0003148462Y0002429049D01*
X0003146586Y0002430736D01*
X0003144712Y0002434111D01*
X0003144712Y0002439173D01*
X0003146586Y0002442547D01*
X0003148462Y0002444235D01*
X0003152212Y0002445922D01*
X0003163460Y0002445922D01*
X0003167210Y0002444235D01*
X0003169084Y0002442547D01*
X0003170958Y0002439173D01*
X0003170958Y0002434111D01*
X0003170958Y0002466169D02*
X0003169084Y0002462795D01*
X0003165335Y0002461107D01*
X0003131589Y0002461107D01*
X0003169084Y0002493166D02*
X0003170958Y0002489791D01*
X0003170958Y0002483042D01*
X0003169084Y0002479668D01*
X0003165335Y0002477980D01*
X0003150337Y0002477980D01*
X0003146586Y0002479668D01*
X0003144712Y0002483042D01*
X0003144712Y0002489791D01*
X0003146586Y0002493166D01*
X0003150337Y0002494853D01*
X0003154086Y0002494853D01*
X0003157836Y0002477980D01*
X0003144712Y0002537035D02*
X0003184083Y0002537035D01*
X0003146586Y0002537035D02*
X0003144712Y0002540410D01*
X0003144712Y0002547159D01*
X0003146586Y0002550534D01*
X0003148462Y0002552221D01*
X0003152212Y0002553908D01*
X0003163460Y0002553908D01*
X0003167210Y0002552221D01*
X0003169084Y0002550534D01*
X0003170958Y0002547159D01*
X0003170958Y0002540410D01*
X0003169084Y0002537035D01*
X0003170958Y0002574156D02*
X0003169084Y0002570781D01*
X0003165335Y0002569094D01*
X0003131589Y0002569094D01*
X0003144712Y0002602840D02*
X0003170958Y0002602840D01*
X0003144712Y0002587654D02*
X0003165335Y0002587654D01*
X0003169084Y0002589341D01*
X0003170958Y0002592716D01*
X0003170958Y0002597778D01*
X0003169084Y0002601152D01*
X0003167210Y0002602840D01*
X0003144712Y0002634897D02*
X0003176584Y0002634897D01*
X0003180333Y0002633211D01*
X0003182208Y0002631524D01*
X0003184083Y0002628149D01*
X0003184083Y0002623087D01*
X0003182208Y0002619713D01*
X0003169084Y0002634897D02*
X0003170958Y0002631524D01*
X0003170958Y0002624775D01*
X0003169084Y0002621400D01*
X0003167210Y0002619713D01*
X0003163460Y0002618025D01*
X0003152212Y0002618025D01*
X0003148462Y0002619713D01*
X0003146586Y0002621400D01*
X0003144712Y0002624775D01*
X0003144712Y0002631524D01*
X0003146586Y0002634897D01*
%LPC*%
D98*
G36*
X0003107109Y0002289636D02*
X0003107177Y0002290094D01*
X0003107290Y0002290544D01*
X0003107446Y0002290981D01*
X0003107644Y0002291400D01*
X0003107882Y0002291797D01*
X0003108158Y0002292170D01*
X0003108469Y0002292513D01*
X0003108813Y0002292825D01*
X0003109186Y0002293101D01*
X0003109583Y0002293339D01*
X0003110003Y0002293538D01*
X0003110439Y0002293694D01*
X0003110888Y0002293806D01*
X0003111347Y0002293874D01*
X0003111811Y0002293897D01*
X0003188976Y0002293897D01*
X0003189439Y0002293874D01*
X0003189898Y0002293806D01*
X0003190347Y0002293694D01*
X0003190784Y0002293538D01*
X0003191203Y0002293339D01*
X0003191601Y0002293101D01*
X0003191973Y0002292825D01*
X0003192317Y0002292513D01*
X0003192628Y0002292170D01*
X0003192904Y0002291797D01*
X0003193142Y0002291400D01*
X0003193341Y0002290981D01*
X0003193497Y0002290544D01*
X0003193610Y0002290094D01*
X0003193678Y0002289636D01*
X0003193700Y0002289173D01*
X0003193700Y0002251377D01*
X0003193678Y0002250914D01*
X0003193610Y0002250456D01*
X0003193497Y0002250006D01*
X0003193341Y0002249570D01*
X0003193142Y0002249150D01*
X0003192904Y0002248753D01*
X0003192628Y0002248380D01*
X0003192317Y0002248037D01*
X0003191973Y0002247725D01*
X0003191601Y0002247449D01*
X0003191203Y0002247211D01*
X0003190784Y0002247013D01*
X0003190347Y0002246856D01*
X0003189898Y0002246744D01*
X0003189439Y0002246676D01*
X0003188976Y0002246653D01*
X0003111811Y0002246653D01*
X0003111347Y0002246676D01*
X0003110888Y0002246744D01*
X0003110439Y0002246856D01*
X0003110003Y0002247013D01*
X0003109583Y0002247211D01*
X0003109186Y0002247449D01*
X0003108813Y0002247725D01*
X0003108469Y0002248037D01*
X0003108158Y0002248380D01*
X0003107882Y0002248753D01*
X0003107644Y0002249150D01*
X0003107446Y0002249570D01*
X0003107290Y0002250006D01*
X0003107177Y0002250456D01*
X0003107109Y0002250914D01*
X0003107086Y0002251377D01*
X0003107086Y0002289173D01*
X0003107109Y0002289636D01*
X0003107109Y0002289636D01*
G37*
G36*
X0003110652Y0002793573D02*
X0003110720Y0002794031D01*
X0003110832Y0002794481D01*
X0003110989Y0002794918D01*
X0003111187Y0002795337D01*
X0003111426Y0002795734D01*
X0003111702Y0002796107D01*
X0003112013Y0002796450D01*
X0003112357Y0002796762D01*
X0003112729Y0002797038D01*
X0003113127Y0002797276D01*
X0003113546Y0002797475D01*
X0003113982Y0002797630D01*
X0003114432Y0002797743D01*
X0003114891Y0002797810D01*
X0003115354Y0002797834D01*
X0003192519Y0002797834D01*
X0003192982Y0002797810D01*
X0003193441Y0002797743D01*
X0003193891Y0002797630D01*
X0003194327Y0002797475D01*
X0003194745Y0002797276D01*
X0003195143Y0002797038D01*
X0003195515Y0002796762D01*
X0003195859Y0002796450D01*
X0003196171Y0002796107D01*
X0003196447Y0002795734D01*
X0003196685Y0002795337D01*
X0003196884Y0002794918D01*
X0003197040Y0002794481D01*
X0003197153Y0002794031D01*
X0003197221Y0002793573D01*
X0003197244Y0002793110D01*
X0003197244Y0002755314D01*
X0003197221Y0002754851D01*
X0003197153Y0002754393D01*
X0003197040Y0002753942D01*
X0003196884Y0002753507D01*
X0003196685Y0002753087D01*
X0003196447Y0002752690D01*
X0003196171Y0002752317D01*
X0003195859Y0002751974D01*
X0003195515Y0002751661D01*
X0003195143Y0002751385D01*
X0003194745Y0002751148D01*
X0003194327Y0002750950D01*
X0003193891Y0002750793D01*
X0003193441Y0002750681D01*
X0003192982Y0002750613D01*
X0003192519Y0002750590D01*
X0003115354Y0002750590D01*
X0003114891Y0002750613D01*
X0003114432Y0002750681D01*
X0003113982Y0002750793D01*
X0003113546Y0002750950D01*
X0003113127Y0002751148D01*
X0003112729Y0002751385D01*
X0003112357Y0002751661D01*
X0003112013Y0002751974D01*
X0003111702Y0002752317D01*
X0003111426Y0002752690D01*
X0003111187Y0002753087D01*
X0003110989Y0002753507D01*
X0003110832Y0002753942D01*
X0003110720Y0002754393D01*
X0003110652Y0002754851D01*
X0003110629Y0002755314D01*
X0003110629Y0002793110D01*
X0003110652Y0002793573D01*
X0003110652Y0002793573D01*
G37*
G04 next file*
%LPD*%
G01G01G01G01G01G01G01G01G01G01G01G01G01G01G01G01*
D110*
D111*
X0002458192Y0000798537D02*
X0002482189Y0000798537D01*
X0002467191Y0000819535D02*
X0002467191Y0000765540D01*
X0002470191Y0000759542D01*
X0002476190Y0000756542D01*
X0002482189Y0000756542D01*
X0002497187Y0000756542D02*
X0002530182Y0000798537D01*
X0002497187Y0000798537D02*
X0002530182Y0000756542D01*
X0002551181Y0000813535D02*
X0002554180Y0000816535D01*
X0002560179Y0000819535D01*
X0002575178Y0000819535D01*
X0002581177Y0000816535D01*
X0002584176Y0000813535D01*
X0002587176Y0000807536D01*
X0002587176Y0000801537D01*
X0002584176Y0000792538D01*
X0002548181Y0000756542D01*
X0002587176Y0000756542D01*
X0002644169Y0000756542D02*
X0002614173Y0000756542D01*
X0002614173Y0000819535D01*
X0001934158Y0000800506D02*
X0001958155Y0000800506D01*
X0001943157Y0000821503D02*
X0001943157Y0000767510D01*
X0001946156Y0000761510D01*
X0001952155Y0000758510D01*
X0001958155Y0000758510D01*
X0001973153Y0000758510D02*
X0002006149Y0000800506D01*
X0001973153Y0000800506D02*
X0002006149Y0000758510D01*
X0002027146Y0000815504D02*
X0002030145Y0000818503D01*
X0002036144Y0000821503D01*
X0002051143Y0000821503D01*
X0002057141Y0000818503D01*
X0002060142Y0000815504D01*
X0002063142Y0000809505D01*
X0002063142Y0000803505D01*
X0002060142Y0000794506D01*
X0002024146Y0000758510D01*
X0002063142Y0000758510D01*
X0002090138Y0000758510D02*
X0002090138Y0000821503D01*
X0002090138Y0000791507D02*
X0002126134Y0000791507D01*
X0002126134Y0000758510D02*
X0002126134Y0000821503D01*
X0001360703Y0000756149D02*
X0001360703Y0000798144D01*
X0001360703Y0000786145D02*
X0001363704Y0000792144D01*
X0001366703Y0000795144D01*
X0001372703Y0000798144D01*
X0001378702Y0000798144D01*
X0001393700Y0000756149D02*
X0001426696Y0000798144D01*
X0001393700Y0000798144D02*
X0001426696Y0000756149D01*
X0001447693Y0000813141D02*
X0001450693Y0000816141D01*
X0001456692Y0000819141D01*
X0001471691Y0000819141D01*
X0001477690Y0000816141D01*
X0001480689Y0000813141D01*
X0001483689Y0000807141D01*
X0001483689Y0000801143D01*
X0001480689Y0000792144D01*
X0001444694Y0000756149D01*
X0001483689Y0000756149D01*
X0001504686Y0000819141D02*
X0001519685Y0000756149D01*
X0001531683Y0000801143D01*
X0001543680Y0000756149D01*
X0001558680Y0000819141D01*
X0000870416Y0000756936D02*
X0000870416Y0000798930D01*
X0000870416Y0000786932D02*
X0000873415Y0000792932D01*
X0000876415Y0000795931D01*
X0000882414Y0000798930D01*
X0000888413Y0000798930D01*
X0000903411Y0000756936D02*
X0000936407Y0000798930D01*
X0000903411Y0000798930D02*
X0000936407Y0000756936D01*
X0000957405Y0000813929D02*
X0000960404Y0000816929D01*
X0000966404Y0000819928D01*
X0000981402Y0000819928D01*
X0000987401Y0000816929D01*
X0000990401Y0000813929D01*
X0000993400Y0000807930D01*
X0000993400Y0000801930D01*
X0000990401Y0000792932D01*
X0000954405Y0000756936D01*
X0000993400Y0000756936D01*
X0001050393Y0000756936D02*
X0001020397Y0000756936D01*
X0001020397Y0000819928D01*
X0000347956Y0000754180D02*
X0000347956Y0000796175D01*
X0000347956Y0000784177D02*
X0000350956Y0000790176D01*
X0000353954Y0000793175D01*
X0000359954Y0000796175D01*
X0000365954Y0000796175D01*
X0000380952Y0000754180D02*
X0000413948Y0000796175D01*
X0000380952Y0000796175D02*
X0000413948Y0000754180D01*
X0000434945Y0000811173D02*
X0000437945Y0000814173D01*
X0000443943Y0000817171D01*
X0000458942Y0000817171D01*
X0000464941Y0000814173D01*
X0000467941Y0000811173D01*
X0000470940Y0000805174D01*
X0000470940Y0000799175D01*
X0000467941Y0000790176D01*
X0000431945Y0000754180D01*
X0000470940Y0000754180D01*
X0000497937Y0000754180D02*
X0000497937Y0000817171D01*
X0000497937Y0000787176D02*
X0000533933Y0000787176D01*
X0000533933Y0000754180D02*
X0000533933Y0000817171D01*
X0000345200Y0000852999D02*
X0000345200Y0000894993D01*
X0000345200Y0000882995D02*
X0000348200Y0000888995D01*
X0000351199Y0000891993D01*
X0000357199Y0000894993D01*
X0000363198Y0000894993D01*
X0000378196Y0000852999D02*
X0000411192Y0000894993D01*
X0000378196Y0000894993D02*
X0000411192Y0000852999D01*
X0000468185Y0000852999D02*
X0000432189Y0000852999D01*
X0000450186Y0000852999D02*
X0000450186Y0000915991D01*
X0000444188Y0000906992D01*
X0000438188Y0000900993D01*
X0000432189Y0000897993D01*
X0000495181Y0000852999D02*
X0000495181Y0000915991D01*
X0000495181Y0000885995D02*
X0000531177Y0000885995D01*
X0000531177Y0000852999D02*
X0000531177Y0000915991D01*
X0000869235Y0000852212D02*
X0000869235Y0000894207D01*
X0000869235Y0000882208D02*
X0000872234Y0000888207D01*
X0000875234Y0000891207D01*
X0000881233Y0000894207D01*
X0000887232Y0000894207D01*
X0000902230Y0000852212D02*
X0000935226Y0000894207D01*
X0000902230Y0000894207D02*
X0000935226Y0000852212D01*
X0000992219Y0000852212D02*
X0000956224Y0000852212D01*
X0000974220Y0000852212D02*
X0000974220Y0000915204D01*
X0000968222Y0000906204D01*
X0000962223Y0000900206D01*
X0000956224Y0000897206D01*
X0001049212Y0000852212D02*
X0001019215Y0000852212D01*
X0001019215Y0000915204D01*
X0001358736Y0000857330D02*
X0001358736Y0000899325D01*
X0001358736Y0000887326D02*
X0001361736Y0000893325D01*
X0001364735Y0000896325D01*
X0001370733Y0000899325D01*
X0001376733Y0000899325D01*
X0001391732Y0000857330D02*
X0001424728Y0000899325D01*
X0001391732Y0000899325D02*
X0001424728Y0000857330D01*
X0001481721Y0000857330D02*
X0001445723Y0000857330D01*
X0001463723Y0000857330D02*
X0001463723Y0000920322D01*
X0001457723Y0000911323D01*
X0001451723Y0000905324D01*
X0001445723Y0000902324D01*
X0001502718Y0000920322D02*
X0001517716Y0000857330D01*
X0001529715Y0000902324D01*
X0001541713Y0000857330D01*
X0001556711Y0000920322D01*
X0001935339Y0000894600D02*
X0001959336Y0000894600D01*
X0001944338Y0000915598D02*
X0001944338Y0000861603D01*
X0001947337Y0000855605D01*
X0001953337Y0000852605D01*
X0001959336Y0000852605D01*
X0001974334Y0000852605D02*
X0002007330Y0000894600D01*
X0001974334Y0000894600D02*
X0002007330Y0000852605D01*
X0002064323Y0000852605D02*
X0002028327Y0000852605D01*
X0002046325Y0000852605D02*
X0002046325Y0000915598D01*
X0002040325Y0000906599D01*
X0002034326Y0000900599D01*
X0002028327Y0000897600D01*
X0002091319Y0000852605D02*
X0002091319Y0000915598D01*
X0002091319Y0000885601D02*
X0002127315Y0000885601D01*
X0002127315Y0000852605D02*
X0002127315Y0000915598D01*
X0002455830Y0000894600D02*
X0002479827Y0000894600D01*
X0002464829Y0000915598D02*
X0002464829Y0000861603D01*
X0002467829Y0000855605D01*
X0002473828Y0000852605D01*
X0002479827Y0000852605D01*
X0002494825Y0000852605D02*
X0002527821Y0000894600D01*
X0002494825Y0000894600D02*
X0002527821Y0000852605D01*
X0002584814Y0000852605D02*
X0002548818Y0000852605D01*
X0002566816Y0000852605D02*
X0002566816Y0000915598D01*
X0002560817Y0000906599D01*
X0002554818Y0000900599D01*
X0002548818Y0000897600D01*
X0002641807Y0000852605D02*
X0002611811Y0000852605D01*
X0002611811Y0000915598D01*
%LPC*%
D112*
X0002772909Y0000324784D02*
X0002771409Y0000321784D01*
X0002768410Y0000320284D01*
X0002741413Y0000320284D01*
X0002751912Y0000350281D02*
X0002772909Y0000350281D01*
X0002751912Y0000336782D02*
X0002768410Y0000336782D01*
X0002771409Y0000338282D01*
X0002772909Y0000341282D01*
X0002772909Y0000345781D01*
X0002771409Y0000348781D01*
X0002769910Y0000350281D01*
X0002751912Y0000360779D02*
X0002751912Y0000372778D01*
X0002772909Y0000365279D02*
X0002745912Y0000365279D01*
X0002742913Y0000366779D01*
X0002741413Y0000369778D01*
X0002741413Y0000372778D01*
X0002751912Y0000378776D02*
X0002751912Y0000390776D01*
X0002741413Y0000383276D02*
X0002768410Y0000383276D01*
X0002771409Y0000384776D01*
X0002772909Y0000387776D01*
X0002772909Y0000390776D01*
X0002771409Y0000413273D02*
X0002772909Y0000410273D01*
X0002772909Y0000404274D01*
X0002771409Y0000401274D01*
X0002768410Y0000399775D01*
X0002756411Y0000399775D01*
X0002753411Y0000401274D01*
X0002751912Y0000404274D01*
X0002751912Y0000410273D01*
X0002753411Y0000413273D01*
X0002756411Y0000414773D01*
X0002759411Y0000414773D01*
X0002762410Y0000399775D01*
X0002772909Y0000428271D02*
X0002741413Y0000428271D01*
X0002760911Y0000431271D02*
X0002772909Y0000440270D01*
X0002751912Y0000440270D02*
X0002763909Y0000428271D01*
D110*
X0002742838Y0000466924D02*
X0002741338Y0000468424D01*
X0002739838Y0000471423D01*
X0002739838Y0000478922D01*
X0002741338Y0000481922D01*
X0002742838Y0000483422D01*
X0002745837Y0000484922D01*
X0002748837Y0000484922D01*
X0002753337Y0000483422D01*
X0002771334Y0000465424D01*
X0002771334Y0000484922D01*
X0002739838Y0000504418D02*
X0002739838Y0000507418D01*
X0002741338Y0000510418D01*
X0002742838Y0000511918D01*
X0002745837Y0000513418D01*
X0002751837Y0000514918D01*
X0002759336Y0000514918D01*
X0002765335Y0000513418D01*
X0002768335Y0000511918D01*
X0002769835Y0000510418D01*
X0002771334Y0000507418D01*
X0002771334Y0000504418D01*
X0002769835Y0000501420D01*
X0002768335Y0000499920D01*
X0002765335Y0000498420D01*
X0002759336Y0000496920D01*
X0002751837Y0000496920D01*
X0002745837Y0000498420D01*
X0002742838Y0000499920D01*
X0002741338Y0000501420D01*
X0002739838Y0000504418D01*
X0002771334Y0000544914D02*
X0002771334Y0000526916D01*
X0002771334Y0000535915D02*
X0002739838Y0000535915D01*
X0002744338Y0000532916D01*
X0002747337Y0000529916D01*
X0002748837Y0000526916D01*
X0002739838Y0000571911D02*
X0002739838Y0000565912D01*
X0002741338Y0000562912D01*
X0002742838Y0000561412D01*
X0002747337Y0000558413D01*
X0002753337Y0000556913D01*
X0002765335Y0000556913D01*
X0002768335Y0000558413D01*
X0002769835Y0000559912D01*
X0002771334Y0000562912D01*
X0002771334Y0000568911D01*
X0002769835Y0000571911D01*
X0002768335Y0000573411D01*
X0002765335Y0000574910D01*
X0002757836Y0000574910D01*
X0002754836Y0000573411D01*
X0002753337Y0000571911D01*
X0002751837Y0000568911D01*
X0002751837Y0000562912D01*
X0002753337Y0000559912D01*
X0002754836Y0000558413D01*
X0002757836Y0000556913D01*
X0002739838Y0000594408D02*
X0002739838Y0000597408D01*
X0002741338Y0000600407D01*
X0002742838Y0000601907D01*
X0002745837Y0000603407D01*
X0002751837Y0000604907D01*
X0002759336Y0000604907D01*
X0002765335Y0000603407D01*
X0002768335Y0000601907D01*
X0002769835Y0000600407D01*
X0002771334Y0000597408D01*
X0002771334Y0000594408D01*
X0002769835Y0000591408D01*
X0002768335Y0000589909D01*
X0002765335Y0000588409D01*
X0002759336Y0000586909D01*
X0002751837Y0000586909D01*
X0002745837Y0000588409D01*
X0002742838Y0000589909D01*
X0002741338Y0000591408D01*
X0002739838Y0000594408D01*
X0002771334Y0000619905D02*
X0002771334Y0000625904D01*
X0002769835Y0000628904D01*
X0002768335Y0000630404D01*
X0002763835Y0000633403D01*
X0002757836Y0000634903D01*
X0002745837Y0000634903D01*
X0002742838Y0000633403D01*
X0002741338Y0000631903D01*
X0002739838Y0000628904D01*
X0002739838Y0000622904D01*
X0002741338Y0000619905D01*
X0002742838Y0000618405D01*
X0002745837Y0000616905D01*
X0002753337Y0000616905D01*
X0002756336Y0000618405D01*
X0002757836Y0000619905D01*
X0002759336Y0000622904D01*
X0002759336Y0000628904D01*
X0002757836Y0000631903D01*
X0002756336Y0000633403D01*
X0002753337Y0000634903D01*
X0002742838Y0000646901D02*
X0002741338Y0000648401D01*
X0002739838Y0000651401D01*
X0002739838Y0000658899D01*
X0002741338Y0000661899D01*
X0002742838Y0000663398D01*
X0002745837Y0000664899D01*
X0002748837Y0000664899D01*
X0002753337Y0000663398D01*
X0002771334Y0000645402D01*
X0002771334Y0000664899D01*
X0002750337Y0000691896D02*
X0002771334Y0000691896D01*
X0002738338Y0000684397D02*
X0002760836Y0000676898D01*
X0002760836Y0000696395D01*
D112*
X0002206242Y0000132602D02*
X0002227240Y0000132602D01*
X0002213742Y0000101106D01*
X0002252737Y0000132602D02*
X0002246737Y0000132602D01*
X0002243738Y0000131102D01*
X0002242238Y0000129602D01*
X0002239238Y0000125100D01*
X0002237739Y0000119103D01*
X0002237739Y0000107105D01*
X0002239238Y0000104105D01*
X0002240738Y0000102604D01*
X0002243738Y0000101106D01*
X0002249737Y0000101106D01*
X0002252737Y0000102604D01*
X0002254236Y0000104105D01*
X0002255736Y0000107105D01*
X0002255736Y0000114604D01*
X0002254236Y0000117604D01*
X0002252737Y0000119103D01*
X0002249737Y0000120603D01*
X0002243738Y0000120603D01*
X0002240738Y0000119103D01*
X0002239238Y0000117604D01*
X0002237739Y0000114604D01*
X0002266235Y0000101106D02*
X0002282733Y0000122103D01*
X0002266235Y0000122103D02*
X0002282733Y0000101106D01*
X0002291732Y0000132602D02*
X0002311229Y0000132602D01*
X0002300731Y0000120603D01*
X0002305230Y0000120603D01*
X0002308230Y0000119103D01*
X0002309730Y0000117604D01*
X0002311229Y0000114604D01*
X0002311229Y0000107105D01*
X0002309730Y0000104105D01*
X0002308230Y0000102604D01*
X0002305230Y0000101106D01*
X0002296231Y0000101106D01*
X0002293232Y0000102604D01*
X0002291732Y0000104105D01*
X0002339726Y0000132602D02*
X0002324728Y0000132602D01*
X0002323228Y0000117604D01*
X0002324728Y0000119103D01*
X0002327727Y0000120603D01*
X0002335226Y0000120603D01*
X0002338226Y0000119103D01*
X0002339726Y0000117604D01*
X0002341226Y0000114604D01*
X0002341226Y0000107105D01*
X0002339726Y0000104105D01*
X0002338226Y0000102604D01*
X0002335226Y0000101106D01*
X0002327727Y0000101106D01*
X0002324728Y0000102604D01*
X0002323228Y0000104105D01*
X0002351724Y0000101106D02*
X0002368222Y0000122103D01*
X0002351724Y0000122103D02*
X0002368222Y0000101106D01*
X0002396719Y0000101106D02*
X0002378721Y0000101106D01*
X0002387720Y0000101106D02*
X0002387720Y0000132602D01*
X0002384720Y0000128102D01*
X0002381721Y0000125100D01*
X0002378721Y0000123603D01*
X0002416216Y0000132602D02*
X0002419216Y0000132602D01*
X0002422215Y0000131102D01*
X0002423715Y0000129602D01*
X0002425215Y0000126599D01*
X0002426715Y0000120603D01*
X0002426715Y0000113104D01*
X0002425215Y0000107105D01*
X0002423715Y0000104105D01*
X0002422215Y0000102604D01*
X0002419216Y0000101106D01*
X0002416216Y0000101106D01*
X0002413217Y0000102604D01*
X0002411717Y0000104105D01*
X0002410217Y0000107105D01*
X0002408717Y0000113104D01*
X0002408717Y0000120603D01*
X0002410217Y0000126599D01*
X0002411717Y0000129602D01*
X0002413217Y0000131102D01*
X0002416216Y0000132602D01*
X0002446212Y0000132602D02*
X0002449212Y0000132602D01*
X0002452212Y0000131102D01*
X0002453712Y0000129602D01*
X0002455211Y0000126599D01*
X0002456711Y0000120603D01*
X0002456711Y0000113104D01*
X0002455211Y0000107105D01*
X0002453712Y0000104105D01*
X0002452212Y0000102604D01*
X0002449212Y0000101106D01*
X0002446212Y0000101106D01*
X0002443213Y0000102604D01*
X0002441713Y0000104105D01*
X0002440213Y0000107105D01*
X0002438713Y0000113104D01*
X0002438713Y0000120603D01*
X0002440213Y0000126599D01*
X0002441713Y0000129602D01*
X0002443213Y0000131102D01*
X0002446212Y0000132602D01*
X0002492707Y0000102604D02*
X0002495706Y0000101106D01*
X0002501706Y0000101106D01*
X0002504705Y0000102604D01*
X0002506205Y0000105605D01*
X0002506205Y0000107105D01*
X0002504705Y0000110104D01*
X0002501706Y0000111604D01*
X0002497206Y0000111604D01*
X0002494206Y0000113104D01*
X0002492707Y0000116104D01*
X0002492707Y0000117604D01*
X0002494206Y0000120603D01*
X0002497206Y0000122103D01*
X0002501706Y0000122103D01*
X0002504705Y0000120603D01*
X0002519703Y0000122103D02*
X0002519703Y0000090607D01*
X0002519703Y0000120603D02*
X0002522702Y0000122103D01*
X0002528701Y0000122103D01*
X0002531702Y0000120603D01*
X0002533202Y0000119103D01*
X0002534701Y0000116104D01*
X0002534701Y0000107105D01*
X0002533202Y0000104105D01*
X0002531702Y0000102604D01*
X0002528701Y0000101106D01*
X0002522702Y0000101106D01*
X0002519703Y0000102604D01*
X0002552699Y0000101106D02*
X0002549699Y0000102604D01*
X0002548200Y0000105605D01*
X0002548200Y0000132602D01*
X0002564698Y0000101106D02*
X0002564698Y0000122103D01*
X0002564698Y0000132602D02*
X0002563198Y0000131102D01*
X0002564698Y0000129602D01*
X0002566197Y0000131102D01*
X0002564698Y0000132602D01*
X0002564698Y0000129602D01*
X0002575196Y0000122103D02*
X0002587194Y0000122103D01*
X0002579696Y0000132602D02*
X0002579696Y0000105605D01*
X0002581195Y0000102604D01*
X0002584195Y0000101106D01*
X0002587194Y0000101106D01*
X0002620190Y0000102604D02*
X0002623190Y0000101106D01*
X0002629190Y0000101106D01*
X0002632189Y0000102604D01*
X0002633689Y0000105605D01*
X0002633689Y0000107105D01*
X0002632189Y0000110104D01*
X0002629190Y0000111604D01*
X0002624690Y0000111604D01*
X0002621691Y0000113104D01*
X0002620190Y0000116104D01*
X0002620190Y0000117604D01*
X0002621691Y0000120603D01*
X0002624690Y0000122103D01*
X0002629190Y0000122103D01*
X0002632189Y0000120603D01*
X0002647187Y0000101106D02*
X0002647187Y0000132602D01*
X0002660686Y0000101106D02*
X0002660686Y0000117604D01*
X0002659186Y0000120603D01*
X0002656185Y0000122103D01*
X0002651686Y0000122103D01*
X0002648687Y0000120603D01*
X0002647187Y0000119103D01*
X0002687682Y0000102604D02*
X0002684682Y0000101106D01*
X0002678683Y0000101106D01*
X0002675684Y0000102604D01*
X0002674184Y0000105605D01*
X0002674184Y0000117604D01*
X0002675684Y0000120603D01*
X0002678683Y0000122103D01*
X0002684682Y0000122103D01*
X0002687682Y0000120603D01*
X0002689182Y0000117604D01*
X0002689182Y0000114604D01*
X0002674184Y0000111604D01*
X0002707180Y0000101106D02*
X0002704180Y0000102604D01*
X0002702680Y0000105605D01*
X0002702680Y0000132602D01*
X0002723678Y0000101106D02*
X0002720677Y0000102604D01*
X0002719178Y0000105605D01*
X0002719178Y0000132602D01*
D113*
X0002651181Y0000637401D02*
X0002651181Y0000481101D01*
D114*
X0002687007Y0000559448D02*
G75*
G03G03G03G03X0002687007Y0000559448I-0000150787D01X0002687007Y0000559448I-0000150787D01G03G03X0002687007Y0000559448I-0000150787D01G03G03X0002687007Y0000559448I-0000150787D01X0002687007Y0000559448I-0000150787D01X0002687007Y0000559448I-0000150787D01X0002687007Y0000559448I-0000150787D01G03G03G03G03X0002687007Y0000559448I-0000150787D01X0002687007Y0000559448I-0000150787D01X0002687007Y0000559448I-0000150787D01G03G03X0002687007Y0000559448I-0000150787D01G03G03X0002687007Y0000559448I-0000150787D01X0002687007Y0000559448I-0000150787D01X0002687007Y0000559448I-0000150787D01X0002687007Y0000559448I-0000150787D01X0002687007Y0000559448I-0000150787D01*
G01G01G01G01G01G01G01G01G01G01G01G01G01G01G01G01*
D115*
X0002640944Y0000559448D02*
G75*
G03G03G03G03X0002640944Y0000559448I-0000104724D01X0002640944Y0000559448I-0000104724D01G03G03X0002640944Y0000559448I-0000104724D01G03G03X0002640944Y0000559448I-0000104724D01X0002640944Y0000559448I-0000104724D01X0002640944Y0000559448I-0000104724D01X0002640944Y0000559448I-0000104724D01G03G03G03G03X0002640944Y0000559448I-0000104724D01X0002640944Y0000559448I-0000104724D01X0002640944Y0000559448I-0000104724D01G03G03X0002640944Y0000559448I-0000104724D01G03G03X0002640944Y0000559448I-0000104724D01X0002640944Y0000559448I-0000104724D01X0002640944Y0000559448I-0000104724D01X0002640944Y0000559448I-0000104724D01X0002640944Y0000559448I-0000104724D01*
G01G01G01G01G01G01G01G01G01G01G01G01G01G01G01G01*
D113*
X0002139370Y0000637401D02*
X0002139370Y0000481101D01*
D114*
X0002175196Y0000559448D02*
G75*
G03G03G03G03X0002175196Y0000559448I-0000150787D01X0002175196Y0000559448I-0000150787D01G03G03X0002175196Y0000559448I-0000150787D01G03G03X0002175196Y0000559448I-0000150787D01X0002175196Y0000559448I-0000150787D01X0002175196Y0000559448I-0000150787D01X0002175196Y0000559448I-0000150787D01G03G03G03G03X0002175196Y0000559448I-0000150787D01X0002175196Y0000559448I-0000150787D01X0002175196Y0000559448I-0000150787D01G03G03X0002175196Y0000559448I-0000150787D01G03G03X0002175196Y0000559448I-0000150787D01X0002175196Y0000559448I-0000150787D01X0002175196Y0000559448I-0000150787D01X0002175196Y0000559448I-0000150787D01X0002175196Y0000559448I-0000150787D01*
G01G01G01G01G01G01G01G01G01G01G01G01G01G01G01G01*
D115*
X0002129133Y0000559448D02*
G75*
G03G03G03G03X0002129133Y0000559448I-0000104724D01X0002129133Y0000559448I-0000104724D01G03G03X0002129133Y0000559448I-0000104724D01G03G03X0002129133Y0000559448I-0000104724D01X0002129133Y0000559448I-0000104724D01X0002129133Y0000559448I-0000104724D01X0002129133Y0000559448I-0000104724D01G03G03G03G03X0002129133Y0000559448I-0000104724D01X0002129133Y0000559448I-0000104724D01X0002129133Y0000559448I-0000104724D01G03G03X0002129133Y0000559448I-0000104724D01G03G03X0002129133Y0000559448I-0000104724D01X0002129133Y0000559448I-0000104724D01X0002129133Y0000559448I-0000104724D01X0002129133Y0000559448I-0000104724D01X0002129133Y0000559448I-0000104724D01*
G01G01G01G01G01G01G01G01G01G01G01G01G01G01G01G01*
D113*
X0002651181Y0001188582D02*
X0002651181Y0001032283D01*
D114*
X0002687007Y0001110629D02*
G75*
G03G03G03G03X0002687007Y0001110629I-0000150787D01X0002687007Y0001110629I-0000150787D01G03G03X0002687007Y0001110629I-0000150787D01G03G03X0002687007Y0001110629I-0000150787D01X0002687007Y0001110629I-0000150787D01X0002687007Y0001110629I-0000150787D01X0002687007Y0001110629I-0000150787D01G03G03G03G03X0002687007Y0001110629I-0000150787D01X0002687007Y0001110629I-0000150787D01X0002687007Y0001110629I-0000150787D01G03G03X0002687007Y0001110629I-0000150787D01G03G03X0002687007Y0001110629I-0000150787D01X0002687007Y0001110629I-0000150787D01X0002687007Y0001110629I-0000150787D01X0002687007Y0001110629I-0000150787D01X0002687007Y0001110629I-0000150787D01*
G01G01G01G01G01G01G01G01G01G01G01G01G01G01G01G01*
D115*
X0002640944Y0001110629D02*
G75*
G03G03G03G03X0002640944Y0001110629I-0000104724D01X0002640944Y0001110629I-0000104724D01G03G03X0002640944Y0001110629I-0000104724D01G03G03X0002640944Y0001110629I-0000104724D01X0002640944Y0001110629I-0000104724D01X0002640944Y0001110629I-0000104724D01X0002640944Y0001110629I-0000104724D01G03G03G03G03X0002640944Y0001110629I-0000104724D01X0002640944Y0001110629I-0000104724D01X0002640944Y0001110629I-0000104724D01G03G03X0002640944Y0001110629I-0000104724D01G03G03X0002640944Y0001110629I-0000104724D01X0002640944Y0001110629I-0000104724D01X0002640944Y0001110629I-0000104724D01X0002640944Y0001110629I-0000104724D01X0002640944Y0001110629I-0000104724D01*
G01G01G01G01G01G01G01G01G01G01G01G01G01G01G01G01*
D113*
X0002139370Y0001188582D02*
X0002139370Y0001032283D01*
D114*
X0002175196Y0001110629D02*
G75*
G03G03G03G03X0002175196Y0001110629I-0000150787D01X0002175196Y0001110629I-0000150787D01G03G03X0002175196Y0001110629I-0000150787D01G03G03X0002175196Y0001110629I-0000150787D01X0002175196Y0001110629I-0000150787D01X0002175196Y0001110629I-0000150787D01X0002175196Y0001110629I-0000150787D01G03G03G03G03X0002175196Y0001110629I-0000150787D01X0002175196Y0001110629I-0000150787D01X0002175196Y0001110629I-0000150787D01G03G03X0002175196Y0001110629I-0000150787D01G03G03X0002175196Y0001110629I-0000150787D01X0002175196Y0001110629I-0000150787D01X0002175196Y0001110629I-0000150787D01X0002175196Y0001110629I-0000150787D01X0002175196Y0001110629I-0000150787D01*
G01G01G01G01G01G01G01G01G01G01G01G01G01G01G01G01*
D115*
X0002129133Y0001110629D02*
G75*
G03G03G03G03X0002129133Y0001110629I-0000104724D01X0002129133Y0001110629I-0000104724D01G03G03X0002129133Y0001110629I-0000104724D01G03G03X0002129133Y0001110629I-0000104724D01X0002129133Y0001110629I-0000104724D01X0002129133Y0001110629I-0000104724D01X0002129133Y0001110629I-0000104724D01G03G03G03G03X0002129133Y0001110629I-0000104724D01X0002129133Y0001110629I-0000104724D01X0002129133Y0001110629I-0000104724D01G03G03X0002129133Y0001110629I-0000104724D01G03G03X0002129133Y0001110629I-0000104724D01X0002129133Y0001110629I-0000104724D01X0002129133Y0001110629I-0000104724D01X0002129133Y0001110629I-0000104724D01X0002129133Y0001110629I-0000104724D01*
G01G01G01G01G01G01G01G01G01G01G01G01G01G01G01G01*
D113*
X0001588188Y0000637401D02*
X0001588188Y0000481101D01*
D114*
X0001624015Y0000559448D02*
G75*
G03G03G03G03X0001624015Y0000559448I-0000150787D01X0001624015Y0000559448I-0000150787D01G03G03X0001624015Y0000559448I-0000150787D01G03G03X0001624015Y0000559448I-0000150787D01X0001624015Y0000559448I-0000150787D01X0001624015Y0000559448I-0000150787D01X0001624015Y0000559448I-0000150787D01G03G03G03G03X0001624015Y0000559448I-0000150787D01X0001624015Y0000559448I-0000150787D01X0001624015Y0000559448I-0000150787D01G03G03X0001624015Y0000559448I-0000150787D01G03G03X0001624015Y0000559448I-0000150787D01X0001624015Y0000559448I-0000150787D01X0001624015Y0000559448I-0000150787D01X0001624015Y0000559448I-0000150787D01X0001624015Y0000559448I-0000150787D01*
G01G01G01G01G01G01G01G01G01G01G01G01G01G01G01G01*
D115*
X0001577952Y0000559448D02*
G75*
G03G03G03G03X0001577952Y0000559448I-0000104724D01X0001577952Y0000559448I-0000104724D01G03G03X0001577952Y0000559448I-0000104724D01G03G03X0001577952Y0000559448I-0000104724D01X0001577952Y0000559448I-0000104724D01X0001577952Y0000559448I-0000104724D01X0001577952Y0000559448I-0000104724D01G03G03G03G03X0001577952Y0000559448I-0000104724D01X0001577952Y0000559448I-0000104724D01X0001577952Y0000559448I-0000104724D01G03G03X0001577952Y0000559448I-0000104724D01G03G03X0001577952Y0000559448I-0000104724D01X0001577952Y0000559448I-0000104724D01X0001577952Y0000559448I-0000104724D01X0001577952Y0000559448I-0000104724D01X0001577952Y0000559448I-0000104724D01*
G01G01G01G01G01G01G01G01G01G01G01G01G01G01G01G01*
D113*
X0001076377Y0000637401D02*
X0001076377Y0000481101D01*
D114*
X0001112204Y0000559448D02*
G75*
G03G03G03G03X0001112204Y0000559448I-0000150787D01X0001112204Y0000559448I-0000150787D01G03G03X0001112204Y0000559448I-0000150787D01G03G03X0001112204Y0000559448I-0000150787D01X0001112204Y0000559448I-0000150787D01X0001112204Y0000559448I-0000150787D01X0001112204Y0000559448I-0000150787D01G03G03G03G03X0001112204Y0000559448I-0000150787D01X0001112204Y0000559448I-0000150787D01X0001112204Y0000559448I-0000150787D01G03G03X0001112204Y0000559448I-0000150787D01G03G03X0001112204Y0000559448I-0000150787D01X0001112204Y0000559448I-0000150787D01X0001112204Y0000559448I-0000150787D01X0001112204Y0000559448I-0000150787D01X0001112204Y0000559448I-0000150787D01*
G01G01G01G01G01G01G01G01G01G01G01G01G01G01G01G01*
D115*
X0001066141Y0000559448D02*
G75*
G03G03G03G03X0001066141Y0000559448I-0000104724D01X0001066141Y0000559448I-0000104724D01G03G03X0001066141Y0000559448I-0000104724D01G03G03X0001066141Y0000559448I-0000104724D01X0001066141Y0000559448I-0000104724D01X0001066141Y0000559448I-0000104724D01X0001066141Y0000559448I-0000104724D01G03G03G03G03X0001066141Y0000559448I-0000104724D01X0001066141Y0000559448I-0000104724D01X0001066141Y0000559448I-0000104724D01G03G03X0001066141Y0000559448I-0000104724D01G03G03X0001066141Y0000559448I-0000104724D01X0001066141Y0000559448I-0000104724D01X0001066141Y0000559448I-0000104724D01X0001066141Y0000559448I-0000104724D01X0001066141Y0000559448I-0000104724D01*
G01G01G01G01G01G01G01G01G01G01G01G01G01G01G01G01*
D113*
X0000564566Y0000637401D02*
X0000564566Y0000481101D01*
D114*
X0000600393Y0000559448D02*
G75*
G03G03G03G03X0000600393Y0000559448I-0000150787D01X0000600393Y0000559448I-0000150787D01G03G03X0000600393Y0000559448I-0000150787D01G03G03X0000600393Y0000559448I-0000150787D01X0000600393Y0000559448I-0000150787D01X0000600393Y0000559448I-0000150787D01X0000600393Y0000559448I-0000150787D01G03G03G03G03X0000600393Y0000559448I-0000150787D01X0000600393Y0000559448I-0000150787D01X0000600393Y0000559448I-0000150787D01G03G03X0000600393Y0000559448I-0000150787D01G03G03X0000600393Y0000559448I-0000150787D01X0000600393Y0000559448I-0000150787D01X0000600393Y0000559448I-0000150787D01X0000600393Y0000559448I-0000150787D01X0000600393Y0000559448I-0000150787D01*
G01G01G01G01G01G01G01G01G01G01G01G01G01G01G01G01*
D115*
X0000554330Y0000559448D02*
G75*
G03G03G03G03X0000554330Y0000559448I-0000104724D01X0000554330Y0000559448I-0000104724D01G03G03X0000554330Y0000559448I-0000104724D01G03G03X0000554330Y0000559448I-0000104724D01X0000554330Y0000559448I-0000104724D01X0000554330Y0000559448I-0000104724D01X0000554330Y0000559448I-0000104724D01G03G03G03G03X0000554330Y0000559448I-0000104724D01X0000554330Y0000559448I-0000104724D01X0000554330Y0000559448I-0000104724D01G03G03X0000554330Y0000559448I-0000104724D01G03G03X0000554330Y0000559448I-0000104724D01X0000554330Y0000559448I-0000104724D01X0000554330Y0000559448I-0000104724D01X0000554330Y0000559448I-0000104724D01X0000554330Y0000559448I-0000104724D01*
G01G01G01G01G01G01G01G01G01G01G01G01G01G01G01G01*
D113*
X0001588188Y0001188582D02*
X0001588188Y0001032283D01*
D114*
X0001624015Y0001110629D02*
G75*
G03G03G03G03X0001624015Y0001110629I-0000150787D01X0001624015Y0001110629I-0000150787D01G03G03X0001624015Y0001110629I-0000150787D01G03G03X0001624015Y0001110629I-0000150787D01X0001624015Y0001110629I-0000150787D01X0001624015Y0001110629I-0000150787D01X0001624015Y0001110629I-0000150787D01G03G03G03G03X0001624015Y0001110629I-0000150787D01X0001624015Y0001110629I-0000150787D01X0001624015Y0001110629I-0000150787D01G03G03X0001624015Y0001110629I-0000150787D01G03G03X0001624015Y0001110629I-0000150787D01X0001624015Y0001110629I-0000150787D01X0001624015Y0001110629I-0000150787D01X0001624015Y0001110629I-0000150787D01X0001624015Y0001110629I-0000150787D01*
G01G01G01G01G01G01G01G01G01G01G01G01G01G01G01G01*
D115*
X0001577952Y0001110629D02*
G75*
G03G03G03G03X0001577952Y0001110629I-0000104724D01X0001577952Y0001110629I-0000104724D01G03G03X0001577952Y0001110629I-0000104724D01G03G03X0001577952Y0001110629I-0000104724D01X0001577952Y0001110629I-0000104724D01X0001577952Y0001110629I-0000104724D01X0001577952Y0001110629I-0000104724D01G03G03G03G03X0001577952Y0001110629I-0000104724D01X0001577952Y0001110629I-0000104724D01X0001577952Y0001110629I-0000104724D01G03G03X0001577952Y0001110629I-0000104724D01G03G03X0001577952Y0001110629I-0000104724D01X0001577952Y0001110629I-0000104724D01X0001577952Y0001110629I-0000104724D01X0001577952Y0001110629I-0000104724D01X0001577952Y0001110629I-0000104724D01*
G01G01G01G01G01G01G01G01G01G01G01G01G01G01G01G01*
D113*
X0001076377Y0001188582D02*
X0001076377Y0001032283D01*
D114*
X0001112204Y0001110629D02*
G75*
G03G03G03G03X0001112204Y0001110629I-0000150787D01X0001112204Y0001110629I-0000150787D01G03G03X0001112204Y0001110629I-0000150787D01G03G03X0001112204Y0001110629I-0000150787D01X0001112204Y0001110629I-0000150787D01X0001112204Y0001110629I-0000150787D01X0001112204Y0001110629I-0000150787D01G03G03G03G03X0001112204Y0001110629I-0000150787D01X0001112204Y0001110629I-0000150787D01X0001112204Y0001110629I-0000150787D01G03G03X0001112204Y0001110629I-0000150787D01G03G03X0001112204Y0001110629I-0000150787D01X0001112204Y0001110629I-0000150787D01X0001112204Y0001110629I-0000150787D01X0001112204Y0001110629I-0000150787D01X0001112204Y0001110629I-0000150787D01*
G01G01G01G01G01G01G01G01G01G01G01G01G01G01G01G01*
D115*
X0001066141Y0001110629D02*
G75*
G03G03G03G03X0001066141Y0001110629I-0000104724D01X0001066141Y0001110629I-0000104724D01G03G03X0001066141Y0001110629I-0000104724D01G03G03X0001066141Y0001110629I-0000104724D01X0001066141Y0001110629I-0000104724D01X0001066141Y0001110629I-0000104724D01X0001066141Y0001110629I-0000104724D01G03G03G03G03X0001066141Y0001110629I-0000104724D01X0001066141Y0001110629I-0000104724D01X0001066141Y0001110629I-0000104724D01G03G03X0001066141Y0001110629I-0000104724D01G03G03X0001066141Y0001110629I-0000104724D01X0001066141Y0001110629I-0000104724D01X0001066141Y0001110629I-0000104724D01X0001066141Y0001110629I-0000104724D01X0001066141Y0001110629I-0000104724D01*
G01G01G01G01G01G01G01G01G01G01G01G01G01G01G01G01*
D113*
X0000564566Y0001188582D02*
X0000564566Y0001032283D01*
D114*
X0000600393Y0001110629D02*
G75*
G03G03G03G03X0000600393Y0001110629I-0000150787D01X0000600393Y0001110629I-0000150787D01G03G03X0000600393Y0001110629I-0000150787D01G03G03X0000600393Y0001110629I-0000150787D01X0000600393Y0001110629I-0000150787D01X0000600393Y0001110629I-0000150787D01X0000600393Y0001110629I-0000150787D01G03G03G03G03X0000600393Y0001110629I-0000150787D01X0000600393Y0001110629I-0000150787D01X0000600393Y0001110629I-0000150787D01G03G03X0000600393Y0001110629I-0000150787D01G03G03X0000600393Y0001110629I-0000150787D01X0000600393Y0001110629I-0000150787D01X0000600393Y0001110629I-0000150787D01X0000600393Y0001110629I-0000150787D01X0000600393Y0001110629I-0000150787D01*
G01G01G01G01G01G01G01G01G01G01G01G01G01G01G01G01*
D115*
X0000554330Y0001110629D02*
G75*
G03G03G03G03X0000554330Y0001110629I-0000104724D01X0000554330Y0001110629I-0000104724D01G03G03X0000554330Y0001110629I-0000104724D01G03G03X0000554330Y0001110629I-0000104724D01X0000554330Y0001110629I-0000104724D01X0000554330Y0001110629I-0000104724D01X0000554330Y0001110629I-0000104724D01G03G03G03G03X0000554330Y0001110629I-0000104724D01X0000554330Y0001110629I-0000104724D01X0000554330Y0001110629I-0000104724D01G03G03X0000554330Y0001110629I-0000104724D01G03G03X0000554330Y0001110629I-0000104724D01X0000554330Y0001110629I-0000104724D01X0000554330Y0001110629I-0000104724D01X0000554330Y0001110629I-0000104724D01X0000554330Y0001110629I-0000104724D01*
G01G01G01G01G01G01G01G01G01G01G01G01G01G01G01G01*
D116*
G36*
X0002788375Y0001378075D02*
X0002778306Y0001303423D01*
X0000188532Y0001302639D01*
X0000189578Y0001380035D01*
X0002788375Y0001378075D01*
X0002788375Y0001378075D01*
G37*
X0002788375Y0001378075D02*
X0002778306Y0001303423D01*
X0000188532Y0001302639D01*
X0000189578Y0001380035D01*
X0002788375Y0001378075D01*
G36*
X0002760725Y-0000000903D02*
X0000233323Y-0000000119D01*
X0000232975Y0000075316D01*
X0002760376Y0000076100D01*
X0002760725Y-0000000903D01*
X0002760725Y-0000000903D01*
G37*
X0002760725Y-0000000903D02*
X0000233323Y-0000000119D01*
X0000232975Y0000075316D01*
X0002760376Y0000076100D01*
X0002760725Y-0000000903D01*
G36*
X0002672462Y0000187677D02*
X0000320258Y0000187677D01*
X0000320258Y0000240669D01*
X0002672462Y0000240669D01*
X0002672462Y0000187677D01*
X0002672462Y0000187677D01*
G37*
X0002672462Y0000187677D02*
X0000320258Y0000187677D01*
X0000320258Y0000240669D01*
X0002672462Y0000240669D01*
X0002672462Y0000187677D01*
G36*
X0002993820Y0000995369D02*
X0002984507Y0000982951D01*
X0002957086Y0000982951D01*
X0002955173Y0000982572D01*
X0002953551Y0000981488D01*
X0002952467Y0000979865D01*
X0002952086Y0000977963D01*
X0002950905Y0000403159D01*
X0002951282Y0000401245D01*
X0002952362Y0000399621D01*
X0002953982Y0000398534D01*
X0002955905Y0000398149D01*
X0002984936Y0000398149D01*
X0002993818Y0000389267D01*
X0002993818Y-0000001299D01*
X0002757339Y-0000001299D01*
X0002756968Y0000080329D01*
X0002756968Y0000165262D01*
X0002759935Y0000169217D01*
X0002762108Y0000170220D01*
X0002766277Y0000168831D01*
X0002789628Y0000146939D01*
X0002792804Y0000134941D01*
X0002794214Y0000132576D01*
X0002807206Y0000120370D01*
X0002808732Y0000119388D01*
X0002824086Y0000113090D01*
X0002825984Y0000112716D01*
X0002840944Y0000112716D01*
X0002843439Y0000113383D01*
X0002856431Y0000120863D01*
X0002857249Y0000121451D01*
X0002867486Y0000130506D01*
X0002868791Y0000132336D01*
X0002875484Y0000148478D01*
X0002875863Y0000150540D01*
X0002875470Y0000163926D01*
X0002875124Y0000165611D01*
X0002870006Y0000178604D01*
X0002869017Y0000180172D01*
X0002858782Y0000191197D01*
X0002857116Y0000192378D01*
X0002842610Y0000198701D01*
X0002820257Y0000220688D01*
X0002818685Y0000226977D01*
X0002820678Y0000230965D01*
X0002826456Y0000233991D01*
X0002888251Y0000234764D01*
X0002890160Y0000235168D01*
X0002891768Y0000236272D01*
X0002892831Y0000237908D01*
X0002893188Y0000239762D01*
X0002893188Y0000314566D01*
X0002892808Y0000316480D01*
X0002891723Y0000318102D01*
X0002890102Y0000319186D01*
X0002888249Y0000319566D01*
X0002796341Y0000320687D01*
X0002796729Y0001058074D01*
X0002887090Y0001059567D01*
X0002888997Y0001059979D01*
X0002890601Y0001061090D01*
X0002891658Y0001062730D01*
X0002892006Y0001064540D01*
X0002892401Y0001140131D01*
X0002892030Y0001142046D01*
X0002890955Y0001143674D01*
X0002889339Y0001144766D01*
X0002887430Y0001145157D01*
X0002822448Y0001145539D01*
X0002818922Y0001148813D01*
X0002817129Y0001151952D01*
X0002817932Y0001155365D01*
X0002840191Y0001177989D01*
X0002851755Y0001182326D01*
X0002853441Y0001183380D01*
X0002868795Y0001197947D01*
X0002870107Y0001200024D01*
X0002876013Y0001218134D01*
X0002876094Y0001220962D01*
X0002870582Y0001241828D01*
X0002869330Y0001244039D01*
X0002854763Y0001258999D01*
X0002853155Y0001260105D01*
X0002852045Y0001260436D01*
X0002829604Y0001264373D01*
X0002827527Y0001264299D01*
X0002813354Y0001260756D01*
X0002811366Y0001259746D01*
X0002797192Y0001247935D01*
X0002795788Y0001246042D01*
X0002787581Y0001226642D01*
X0002765868Y0001207874D01*
X0002763927Y0001207097D01*
X0002760869Y0001207505D01*
X0002758631Y0001209540D01*
X0002756570Y0001215428D01*
X0002756181Y0001297153D01*
X0002759520Y0001378396D01*
X0002810165Y0001377676D01*
X0002810267Y0001377676D01*
X0002994207Y0001378826D01*
X0002993820Y0000995369D01*
X0002993820Y0000995369D01*
G37*
X0002993820Y0000995369D02*
X0002984507Y0000982951D01*
X0002957086Y0000982951D01*
X0002955173Y0000982572D01*
X0002953551Y0000981488D01*
X0002952467Y0000979865D01*
X0002952086Y0000977963D01*
X0002950905Y0000403159D01*
X0002951282Y0000401245D01*
X0002952362Y0000399621D01*
X0002953982Y0000398534D01*
X0002955905Y0000398149D01*
X0002984936Y0000398149D01*
X0002993818Y0000389267D01*
X0002993818Y-0000001299D01*
X0002757339Y-0000001299D01*
X0002756968Y0000080329D01*
X0002756968Y0000165262D01*
X0002759935Y0000169217D01*
X0002762108Y0000170220D01*
X0002766277Y0000168831D01*
X0002789628Y0000146939D01*
X0002792804Y0000134941D01*
X0002794214Y0000132576D01*
X0002807206Y0000120370D01*
X0002808732Y0000119388D01*
X0002824086Y0000113090D01*
X0002825984Y0000112716D01*
X0002840944Y0000112716D01*
X0002843439Y0000113383D01*
X0002856431Y0000120863D01*
X0002857249Y0000121451D01*
X0002867486Y0000130506D01*
X0002868791Y0000132336D01*
X0002875484Y0000148478D01*
X0002875863Y0000150540D01*
X0002875470Y0000163926D01*
X0002875124Y0000165611D01*
X0002870006Y0000178604D01*
X0002869017Y0000180172D01*
X0002858782Y0000191197D01*
X0002857116Y0000192378D01*
X0002842610Y0000198701D01*
X0002820257Y0000220688D01*
X0002818685Y0000226977D01*
X0002820678Y0000230965D01*
X0002826456Y0000233991D01*
X0002888251Y0000234764D01*
X0002890160Y0000235168D01*
X0002891768Y0000236272D01*
X0002892831Y0000237908D01*
X0002893188Y0000239762D01*
X0002893188Y0000314566D01*
X0002892808Y0000316480D01*
X0002891723Y0000318102D01*
X0002890102Y0000319186D01*
X0002888249Y0000319566D01*
X0002796341Y0000320687D01*
X0002796729Y0001058074D01*
X0002887090Y0001059567D01*
X0002888997Y0001059979D01*
X0002890601Y0001061090D01*
X0002891658Y0001062730D01*
X0002892006Y0001064540D01*
X0002892401Y0001140131D01*
X0002892030Y0001142046D01*
X0002890955Y0001143674D01*
X0002889339Y0001144766D01*
X0002887430Y0001145157D01*
X0002822448Y0001145539D01*
X0002818922Y0001148813D01*
X0002817129Y0001151952D01*
X0002817932Y0001155365D01*
X0002840191Y0001177989D01*
X0002851755Y0001182326D01*
X0002853441Y0001183380D01*
X0002868795Y0001197947D01*
X0002870107Y0001200024D01*
X0002876013Y0001218134D01*
X0002876094Y0001220962D01*
X0002870582Y0001241828D01*
X0002869330Y0001244039D01*
X0002854763Y0001258999D01*
X0002853155Y0001260105D01*
X0002852045Y0001260436D01*
X0002829604Y0001264373D01*
X0002827527Y0001264299D01*
X0002813354Y0001260756D01*
X0002811366Y0001259746D01*
X0002797192Y0001247935D01*
X0002795788Y0001246042D01*
X0002787581Y0001226642D01*
X0002765868Y0001207874D01*
X0002763927Y0001207097D01*
X0002760869Y0001207505D01*
X0002758631Y0001209540D01*
X0002756570Y0001215428D01*
X0002756181Y0001297153D01*
X0002759520Y0001378396D01*
X0002810165Y0001377676D01*
X0002810267Y0001377676D01*
X0002994207Y0001378826D01*
X0002993820Y0000995369D01*
G36*
X0000230826Y0001299592D02*
X0000230826Y0001214658D01*
X0000227860Y0001210703D01*
X0000225686Y0001209700D01*
X0000221518Y0001211089D01*
X0000198167Y0001232981D01*
X0000194990Y0001244980D01*
X0000193580Y0001247345D01*
X0000180588Y0001259549D01*
X0000179063Y0001260531D01*
X0000163708Y0001266830D01*
X0000161811Y0001267204D01*
X0000146850Y0001267204D01*
X0000144355Y0001266537D01*
X0000131363Y0001259057D01*
X0000130545Y0001258469D01*
X0000120309Y0001249414D01*
X0000119003Y0001247584D01*
X0000112309Y0001231442D01*
X0000111931Y0001229380D01*
X0000112325Y0001215994D01*
X0000112670Y0001214309D01*
X0000117788Y0001201316D01*
X0000118776Y0001199747D01*
X0000129010Y0001188723D01*
X0000130676Y0001187542D01*
X0000145185Y0001181219D01*
X0000167537Y0001159233D01*
X0000169110Y0001152943D01*
X0000167115Y0001148955D01*
X0000161338Y0001145929D01*
X0000099543Y0001145157D01*
X0000097635Y0001144752D01*
X0000096026Y0001143648D01*
X0000094963Y0001142012D01*
X0000094606Y0001140157D01*
X0000094606Y0001065354D01*
X0000094986Y0001063440D01*
X0000096070Y0001061818D01*
X0000097692Y0001060734D01*
X0000099545Y0001060354D01*
X0000191454Y0001059233D01*
X0000191065Y0000321847D01*
X0000100704Y0000320353D01*
X0000098797Y0000319941D01*
X0000097193Y0000318830D01*
X0000096137Y0000317191D01*
X0000095787Y0000315379D01*
X0000095393Y0000239789D01*
X0000095764Y0000237874D01*
X0000096839Y0000236246D01*
X0000098456Y0000235154D01*
X0000100364Y0000234763D01*
X0000165345Y0000234381D01*
X0000168872Y0000231107D01*
X0000170666Y0000227968D01*
X0000169863Y0000224555D01*
X0000147604Y0000201930D01*
X0000136039Y0000197595D01*
X0000134353Y0000196540D01*
X0000118999Y0000181973D01*
X0000117686Y0000179896D01*
X0000111781Y0000161786D01*
X0000111701Y0000158959D01*
X0000117212Y0000138093D01*
X0000118464Y0000135881D01*
X0000133031Y0000120921D01*
X0000134639Y0000119815D01*
X0000135750Y0000119484D01*
X0000158191Y0000115547D01*
X0000160267Y0000115621D01*
X0000174441Y0000119165D01*
X0000176428Y0000120174D01*
X0000190602Y0000131985D01*
X0000192006Y0000133878D01*
X0000200213Y0000153278D01*
X0000221926Y0000172046D01*
X0000223867Y0000172823D01*
X0000226925Y0000172415D01*
X0000229163Y0000170380D01*
X0000231224Y0000164493D01*
X0000231613Y0000082767D01*
X0000228271Y0000001432D01*
X0000155501Y0000001062D01*
X-0000006412Y0000001062D01*
X-0000006025Y0000384551D01*
X0000003286Y0000396968D01*
X0000030708Y0000396968D01*
X0000032622Y0000397349D01*
X0000034244Y0000398431D01*
X0000035328Y0000400055D01*
X0000035708Y0000401958D01*
X0000036889Y0000976761D01*
X0000036513Y0000978675D01*
X0000035432Y0000980299D01*
X0000033812Y0000981387D01*
X0000031889Y0000981771D01*
X0000002858Y0000981771D01*
X-0000006023Y0000990653D01*
X-0000006023Y0001381220D01*
X0000230455Y0001381220D01*
X0000230826Y0001299592D01*
X0000230826Y0001299592D01*
G37*
X0000230826Y0001299592D02*
X0000230826Y0001214658D01*
X0000227860Y0001210703D01*
X0000225686Y0001209700D01*
X0000221518Y0001211089D01*
X0000198167Y0001232981D01*
X0000194990Y0001244980D01*
X0000193580Y0001247345D01*
X0000180588Y0001259549D01*
X0000179063Y0001260531D01*
X0000163708Y0001266830D01*
X0000161811Y0001267204D01*
X0000146850Y0001267204D01*
X0000144355Y0001266537D01*
X0000131363Y0001259057D01*
X0000130545Y0001258469D01*
X0000120309Y0001249414D01*
X0000119003Y0001247584D01*
X0000112309Y0001231442D01*
X0000111931Y0001229380D01*
X0000112325Y0001215994D01*
X0000112670Y0001214309D01*
X0000117788Y0001201316D01*
X0000118776Y0001199747D01*
X0000129010Y0001188723D01*
X0000130676Y0001187542D01*
X0000145185Y0001181219D01*
X0000167537Y0001159233D01*
X0000169110Y0001152943D01*
X0000167115Y0001148955D01*
X0000161338Y0001145929D01*
X0000099543Y0001145157D01*
X0000097635Y0001144752D01*
X0000096026Y0001143648D01*
X0000094963Y0001142012D01*
X0000094606Y0001140157D01*
X0000094606Y0001065354D01*
X0000094986Y0001063440D01*
X0000096070Y0001061818D01*
X0000097692Y0001060734D01*
X0000099545Y0001060354D01*
X0000191454Y0001059233D01*
X0000191065Y0000321847D01*
X0000100704Y0000320353D01*
X0000098797Y0000319941D01*
X0000097193Y0000318830D01*
X0000096137Y0000317191D01*
X0000095787Y0000315379D01*
X0000095393Y0000239789D01*
X0000095764Y0000237874D01*
X0000096839Y0000236246D01*
X0000098456Y0000235154D01*
X0000100364Y0000234763D01*
X0000165345Y0000234381D01*
X0000168872Y0000231107D01*
X0000170666Y0000227968D01*
X0000169863Y0000224555D01*
X0000147604Y0000201930D01*
X0000136039Y0000197595D01*
X0000134353Y0000196540D01*
X0000118999Y0000181973D01*
X0000117686Y0000179896D01*
X0000111781Y0000161786D01*
X0000111701Y0000158959D01*
X0000117212Y0000138093D01*
X0000118464Y0000135881D01*
X0000133031Y0000120921D01*
X0000134639Y0000119815D01*
X0000135750Y0000119484D01*
X0000158191Y0000115547D01*
X0000160267Y0000115621D01*
X0000174441Y0000119165D01*
X0000176428Y0000120174D01*
X0000190602Y0000131985D01*
X0000192006Y0000133878D01*
X0000200213Y0000153278D01*
X0000221926Y0000172046D01*
X0000223867Y0000172823D01*
X0000226925Y0000172415D01*
X0000229163Y0000170380D01*
X0000231224Y0000164493D01*
X0000231613Y0000082767D01*
X0000228271Y0000001432D01*
X0000155501Y0000001062D01*
X-0000006412Y0000001062D01*
X-0000006025Y0000384551D01*
X0000003286Y0000396968D01*
X0000030708Y0000396968D01*
X0000032622Y0000397349D01*
X0000034244Y0000398431D01*
X0000035328Y0000400055D01*
X0000035708Y0000401958D01*
X0000036889Y0000976761D01*
X0000036513Y0000978675D01*
X0000035432Y0000980299D01*
X0000033812Y0000981387D01*
X0000031889Y0000981771D01*
X0000002858Y0000981771D01*
X-0000006023Y0000990653D01*
X-0000006023Y0001381220D01*
X0000230455Y0001381220D01*
X0000230826Y0001299592D01*
G04 next file*
G04 #@! TF.FileFunction,Legend,Top*
G04 Gerber Fmt 4.6, Leading zero omitted, Abs format (unit mm)*
G04 Created by KiCad (PCBNEW (2016-09-17 revision 679eef1)-makepkg) date 09/24/16 16:35:10*
%LPD*%
G01G01G01G01G01G01G01G01G01G01G01G01G01G01G01G01*
G04 APERTURE LIST*
G04 APERTURE END LIST*
D127*
D128*
X0000521503Y0002432133D02*
X0000521503Y0002474128D01*
X0000521503Y0002462129D02*
X0000524503Y0002468129D01*
X0000527502Y0002471128D01*
X0000533502Y0002474128D01*
X0000539501Y0002474128D01*
X0000554499Y0002432133D02*
X0000587495Y0002474128D01*
X0000554499Y0002474128D02*
X0000587495Y0002432133D01*
X0000608492Y0002489126D02*
X0000611492Y0002492125D01*
X0000617491Y0002495125D01*
X0000632489Y0002495125D01*
X0000638488Y0002492125D01*
X0000641488Y0002489126D01*
X0000644488Y0002483127D01*
X0000644488Y0002477127D01*
X0000641488Y0002468129D01*
X0000605493Y0002432133D01*
X0000644488Y0002432133D01*
X0001049456Y0002432133D02*
X0001049456Y0002474128D01*
X0001049456Y0002462129D02*
X0001052455Y0002468129D01*
X0001055455Y0002471128D01*
X0001061454Y0002474128D01*
X0001067454Y0002474128D01*
X0001082452Y0002432133D02*
X0001115448Y0002474128D01*
X0001082452Y0002474128D02*
X0001115448Y0002432133D01*
X0001172440Y0002432133D02*
X0001136445Y0002432133D01*
X0001154443Y0002432133D02*
X0001154443Y0002495125D01*
X0001148443Y0002486126D01*
X0001142444Y0002480127D01*
X0001136445Y0002477127D01*
X0002341169Y0002474128D02*
X0002365166Y0002474128D01*
X0002350168Y0002495125D02*
X0002350168Y0002441132D01*
X0002353168Y0002435133D01*
X0002359167Y0002432133D01*
X0002365166Y0002432133D01*
X0002380164Y0002432133D02*
X0002413160Y0002474128D01*
X0002380164Y0002474128D02*
X0002413160Y0002432133D01*
X0002470153Y0002432133D02*
X0002434158Y0002432133D01*
X0002452155Y0002432133D02*
X0002452155Y0002495125D01*
X0002446156Y0002486126D01*
X0002440157Y0002480127D01*
X0002434158Y0002477127D01*
X0001813217Y0002474128D02*
X0001837214Y0002474128D01*
X0001822215Y0002495125D02*
X0001822215Y0002441132D01*
X0001825215Y0002435133D01*
X0001831214Y0002432133D01*
X0001837214Y0002432133D01*
X0001852212Y0002432133D02*
X0001885208Y0002474128D01*
X0001852212Y0002474128D02*
X0001885208Y0002432133D01*
X0001906205Y0002489126D02*
X0001909205Y0002492125D01*
X0001915203Y0002495125D01*
X0001930202Y0002495125D01*
X0001936201Y0002492125D01*
X0001939201Y0002489126D01*
X0001942200Y0002483127D01*
X0001942200Y0002477127D01*
X0001939201Y0002468129D01*
X0001903205Y0002432133D01*
X0001942200Y0002432133D01*
%LPC*%
D129*
X0002772909Y0001781477D02*
X0002771409Y0001778477D01*
X0002768410Y0001776977D01*
X0002741413Y0001776977D01*
X0002751912Y0001806974D02*
X0002772909Y0001806974D01*
X0002751912Y0001793475D02*
X0002768410Y0001793475D01*
X0002771409Y0001794974D01*
X0002772909Y0001797975D01*
X0002772909Y0001802474D01*
X0002771409Y0001805474D01*
X0002769910Y0001806974D01*
X0002751912Y0001817472D02*
X0002751912Y0001829471D01*
X0002772909Y0001821972D02*
X0002745912Y0001821972D01*
X0002742913Y0001823472D01*
X0002741413Y0001826471D01*
X0002741413Y0001829471D01*
X0002751912Y0001835470D02*
X0002751912Y0001847469D01*
X0002741413Y0001839970D02*
X0002768410Y0001839970D01*
X0002771409Y0001841469D01*
X0002772909Y0001844469D01*
X0002772909Y0001847469D01*
X0002771409Y0001869966D02*
X0002772909Y0001866966D01*
X0002772909Y0001860967D01*
X0002771409Y0001857967D01*
X0002768410Y0001856467D01*
X0002756411Y0001856467D01*
X0002753411Y0001857967D01*
X0002751912Y0001860967D01*
X0002751912Y0001866966D01*
X0002753411Y0001869966D01*
X0002756411Y0001871466D01*
X0002759411Y0001871466D01*
X0002762410Y0001856467D01*
X0002772909Y0001884964D02*
X0002741413Y0001884964D01*
X0002760911Y0001887963D02*
X0002772909Y0001896961D01*
X0002751912Y0001896961D02*
X0002763909Y0001884964D01*
D127*
X0002742838Y0001923617D02*
X0002741338Y0001925115D01*
X0002739838Y0001928116D01*
X0002739838Y0001935615D01*
X0002741338Y0001938615D01*
X0002742838Y0001940115D01*
X0002745837Y0001941615D01*
X0002748837Y0001941615D01*
X0002753337Y0001940115D01*
X0002771334Y0001922117D01*
X0002771334Y0001941615D01*
X0002739838Y0001961112D02*
X0002739838Y0001964112D01*
X0002741338Y0001967111D01*
X0002742838Y0001968611D01*
X0002745837Y0001970111D01*
X0002751837Y0001971611D01*
X0002759336Y0001971611D01*
X0002765335Y0001970111D01*
X0002768335Y0001968611D01*
X0002769835Y0001967111D01*
X0002771334Y0001964112D01*
X0002771334Y0001961112D01*
X0002769835Y0001958113D01*
X0002768335Y0001956613D01*
X0002765335Y0001955113D01*
X0002759336Y0001953613D01*
X0002751837Y0001953613D01*
X0002745837Y0001955113D01*
X0002742838Y0001956613D01*
X0002741338Y0001958113D01*
X0002739838Y0001961112D01*
X0002771334Y0002001607D02*
X0002771334Y0001983608D01*
X0002771334Y0001992608D02*
X0002739838Y0001992608D01*
X0002744338Y0001989608D01*
X0002747337Y0001986609D01*
X0002748837Y0001983608D01*
X0002739838Y0002028604D02*
X0002739838Y0002022605D01*
X0002741338Y0002019604D01*
X0002742838Y0002018104D01*
X0002747337Y0002015105D01*
X0002753337Y0002013605D01*
X0002765335Y0002013605D01*
X0002768335Y0002015105D01*
X0002769835Y0002016605D01*
X0002771334Y0002019604D01*
X0002771334Y0002025604D01*
X0002769835Y0002028604D01*
X0002768335Y0002030104D01*
X0002765335Y0002031603D01*
X0002757836Y0002031603D01*
X0002754836Y0002030104D01*
X0002753337Y0002028604D01*
X0002751837Y0002025604D01*
X0002751837Y0002019604D01*
X0002753337Y0002016605D01*
X0002754836Y0002015105D01*
X0002757836Y0002013605D01*
X0002739838Y0002051101D02*
X0002739838Y0002054101D01*
X0002741338Y0002057100D01*
X0002742838Y0002058600D01*
X0002745837Y0002060099D01*
X0002751837Y0002061599D01*
X0002759336Y0002061599D01*
X0002765335Y0002060099D01*
X0002768335Y0002058600D01*
X0002769835Y0002057100D01*
X0002771334Y0002054101D01*
X0002771334Y0002051101D01*
X0002769835Y0002048101D01*
X0002768335Y0002046602D01*
X0002765335Y0002045102D01*
X0002759336Y0002043602D01*
X0002751837Y0002043602D01*
X0002745837Y0002045102D01*
X0002742838Y0002046602D01*
X0002741338Y0002048101D01*
X0002739838Y0002051101D01*
X0002771334Y0002076598D02*
X0002771334Y0002082596D01*
X0002769835Y0002085597D01*
X0002768335Y0002087095D01*
X0002763835Y0002090096D01*
X0002757836Y0002091596D01*
X0002745837Y0002091596D01*
X0002742838Y0002090096D01*
X0002741338Y0002088596D01*
X0002739838Y0002085597D01*
X0002739838Y0002079597D01*
X0002741338Y0002076598D01*
X0002742838Y0002075098D01*
X0002745837Y0002073598D01*
X0002753337Y0002073598D01*
X0002756336Y0002075098D01*
X0002757836Y0002076598D01*
X0002759336Y0002079597D01*
X0002759336Y0002085597D01*
X0002757836Y0002088596D01*
X0002756336Y0002090096D01*
X0002753337Y0002091596D01*
X0002742838Y0002103594D02*
X0002741338Y0002105094D01*
X0002739838Y0002108094D01*
X0002739838Y0002115593D01*
X0002741338Y0002118592D01*
X0002742838Y0002120092D01*
X0002745837Y0002121592D01*
X0002748837Y0002121592D01*
X0002753337Y0002120092D01*
X0002771334Y0002102095D01*
X0002771334Y0002121592D01*
X0002750337Y0002148589D02*
X0002771334Y0002148589D01*
X0002738338Y0002141090D02*
X0002760836Y0002133591D01*
X0002760836Y0002153088D01*
D129*
X0002206242Y0001589295D02*
X0002227240Y0001589295D01*
X0002213742Y0001557799D01*
X0002252737Y0001589295D02*
X0002246737Y0001589295D01*
X0002243738Y0001587795D01*
X0002242238Y0001586294D01*
X0002239238Y0001581796D01*
X0002237739Y0001575796D01*
X0002237739Y0001563798D01*
X0002239238Y0001560798D01*
X0002240738Y0001559297D01*
X0002243738Y0001557799D01*
X0002249737Y0001557799D01*
X0002252737Y0001559297D01*
X0002254236Y0001560798D01*
X0002255736Y0001563798D01*
X0002255736Y0001571297D01*
X0002254236Y0001574294D01*
X0002252737Y0001575796D01*
X0002249737Y0001577296D01*
X0002243738Y0001577296D01*
X0002240738Y0001575796D01*
X0002239238Y0001574294D01*
X0002237739Y0001571297D01*
X0002266235Y0001557799D02*
X0002282733Y0001578796D01*
X0002266235Y0001578796D02*
X0002282733Y0001557799D01*
X0002291732Y0001589295D02*
X0002311229Y0001589295D01*
X0002300731Y0001577296D01*
X0002305230Y0001577296D01*
X0002308230Y0001575796D01*
X0002309730Y0001574294D01*
X0002311229Y0001571297D01*
X0002311229Y0001563798D01*
X0002309730Y0001560798D01*
X0002308230Y0001559297D01*
X0002305230Y0001557799D01*
X0002296231Y0001557799D01*
X0002293232Y0001559297D01*
X0002291732Y0001560798D01*
X0002339726Y0001589295D02*
X0002324728Y0001589295D01*
X0002323228Y0001574294D01*
X0002324728Y0001575796D01*
X0002327727Y0001577296D01*
X0002335226Y0001577296D01*
X0002338226Y0001575796D01*
X0002339726Y0001574294D01*
X0002341226Y0001571297D01*
X0002341226Y0001563798D01*
X0002339726Y0001560798D01*
X0002338226Y0001559297D01*
X0002335226Y0001557799D01*
X0002327727Y0001557799D01*
X0002324728Y0001559297D01*
X0002323228Y0001560798D01*
X0002351724Y0001557799D02*
X0002368222Y0001578796D01*
X0002351724Y0001578796D02*
X0002368222Y0001557799D01*
X0002396719Y0001557799D02*
X0002378721Y0001557799D01*
X0002387720Y0001557799D02*
X0002387720Y0001589295D01*
X0002384720Y0001584795D01*
X0002381721Y0001581796D01*
X0002378721Y0001580294D01*
X0002416216Y0001589295D02*
X0002419216Y0001589295D01*
X0002422215Y0001587795D01*
X0002423715Y0001586294D01*
X0002425215Y0001583295D01*
X0002426715Y0001577296D01*
X0002426715Y0001569797D01*
X0002425215Y0001563798D01*
X0002423715Y0001560798D01*
X0002422215Y0001559297D01*
X0002419216Y0001557799D01*
X0002416216Y0001557799D01*
X0002413217Y0001559297D01*
X0002411717Y0001560798D01*
X0002410217Y0001563798D01*
X0002408717Y0001569797D01*
X0002408717Y0001577296D01*
X0002410217Y0001583295D01*
X0002411717Y0001586294D01*
X0002413217Y0001587795D01*
X0002416216Y0001589295D01*
X0002446212Y0001589295D02*
X0002449212Y0001589295D01*
X0002452212Y0001587795D01*
X0002453712Y0001586294D01*
X0002455211Y0001583295D01*
X0002456711Y0001577296D01*
X0002456711Y0001569797D01*
X0002455211Y0001563798D01*
X0002453712Y0001560798D01*
X0002452212Y0001559297D01*
X0002449212Y0001557799D01*
X0002446212Y0001557799D01*
X0002443213Y0001559297D01*
X0002441713Y0001560798D01*
X0002440213Y0001563798D01*
X0002438713Y0001569797D01*
X0002438713Y0001577296D01*
X0002440213Y0001583295D01*
X0002441713Y0001586294D01*
X0002443213Y0001587795D01*
X0002446212Y0001589295D01*
X0002492707Y0001559297D02*
X0002495706Y0001557799D01*
X0002501706Y0001557799D01*
X0002504705Y0001559297D01*
X0002506205Y0001562298D01*
X0002506205Y0001563798D01*
X0002504705Y0001566797D01*
X0002501706Y0001568297D01*
X0002497206Y0001568297D01*
X0002494206Y0001569797D01*
X0002492707Y0001572797D01*
X0002492707Y0001574294D01*
X0002494206Y0001577296D01*
X0002497206Y0001578796D01*
X0002501706Y0001578796D01*
X0002504705Y0001577296D01*
X0002519703Y0001578796D02*
X0002519703Y0001547300D01*
X0002519703Y0001577296D02*
X0002522702Y0001578796D01*
X0002528701Y0001578796D01*
X0002531702Y0001577296D01*
X0002533202Y0001575796D01*
X0002534701Y0001572797D01*
X0002534701Y0001563798D01*
X0002533202Y0001560798D01*
X0002531702Y0001559297D01*
X0002528701Y0001557799D01*
X0002522702Y0001557799D01*
X0002519703Y0001559297D01*
X0002552699Y0001557799D02*
X0002549699Y0001559297D01*
X0002548200Y0001562298D01*
X0002548200Y0001589295D01*
X0002564698Y0001557799D02*
X0002564698Y0001578796D01*
X0002564698Y0001589295D02*
X0002563198Y0001587795D01*
X0002564698Y0001586294D01*
X0002566197Y0001587795D01*
X0002564698Y0001589295D01*
X0002564698Y0001586294D01*
X0002575196Y0001578796D02*
X0002587194Y0001578796D01*
X0002579696Y0001589295D02*
X0002579696Y0001562298D01*
X0002581195Y0001559297D01*
X0002584195Y0001557799D01*
X0002587194Y0001557799D01*
X0002620190Y0001559297D02*
X0002623190Y0001557799D01*
X0002629190Y0001557799D01*
X0002632189Y0001559297D01*
X0002633689Y0001562298D01*
X0002633689Y0001563798D01*
X0002632189Y0001566797D01*
X0002629190Y0001568297D01*
X0002624690Y0001568297D01*
X0002621691Y0001569797D01*
X0002620190Y0001572797D01*
X0002620190Y0001574294D01*
X0002621691Y0001577296D01*
X0002624690Y0001578796D01*
X0002629190Y0001578796D01*
X0002632189Y0001577296D01*
X0002647187Y0001557799D02*
X0002647187Y0001589295D01*
X0002660686Y0001557799D02*
X0002660686Y0001574294D01*
X0002659186Y0001577296D01*
X0002656185Y0001578796D01*
X0002651686Y0001578796D01*
X0002648687Y0001577296D01*
X0002647187Y0001575796D01*
X0002687682Y0001559297D02*
X0002684682Y0001557799D01*
X0002678683Y0001557799D01*
X0002675684Y0001559297D01*
X0002674184Y0001562298D01*
X0002674184Y0001574294D01*
X0002675684Y0001577296D01*
X0002678683Y0001578796D01*
X0002684682Y0001578796D01*
X0002687682Y0001577296D01*
X0002689182Y0001574294D01*
X0002689182Y0001571297D01*
X0002674184Y0001568297D01*
X0002707180Y0001557799D02*
X0002704180Y0001559297D01*
X0002702680Y0001562298D01*
X0002702680Y0001589295D01*
X0002723678Y0001557799D02*
X0002720677Y0001559297D01*
X0002719178Y0001562298D01*
X0002719178Y0001589295D01*
D130*
X0001220472Y0002301181D02*
X0001220472Y0002144881D01*
D131*
X0001256299Y0002223228D02*
G75*
G03G03G03G03X0001256299Y0002223228I-0000150787D01X0001256299Y0002223228I-0000150787D01G03G03X0001256299Y0002223228I-0000150787D01G03G03X0001256299Y0002223228I-0000150787D01X0001256299Y0002223228I-0000150787D01X0001256299Y0002223228I-0000150787D01X0001256299Y0002223228I-0000150787D01G03G03G03G03X0001256299Y0002223228I-0000150787D01X0001256299Y0002223228I-0000150787D01X0001256299Y0002223228I-0000150787D01G03G03X0001256299Y0002223228I-0000150787D01G03G03X0001256299Y0002223228I-0000150787D01X0001256299Y0002223228I-0000150787D01X0001256299Y0002223228I-0000150787D01X0001256299Y0002223228I-0000150787D01X0001256299Y0002223228I-0000150787D01*
G01G01G01G01G01G01G01G01G01G01G01G01G01G01G01G01*
D132*
X0001210236Y0002223228D02*
G75*
G03G03G03G03X0001210236Y0002223228I-0000104724D01X0001210236Y0002223228I-0000104724D01G03G03X0001210236Y0002223228I-0000104724D01G03G03X0001210236Y0002223228I-0000104724D01X0001210236Y0002223228I-0000104724D01X0001210236Y0002223228I-0000104724D01X0001210236Y0002223228I-0000104724D01G03G03G03G03X0001210236Y0002223228I-0000104724D01X0001210236Y0002223228I-0000104724D01X0001210236Y0002223228I-0000104724D01G03G03X0001210236Y0002223228I-0000104724D01G03G03X0001210236Y0002223228I-0000104724D01X0001210236Y0002223228I-0000104724D01X0001210236Y0002223228I-0000104724D01X0001210236Y0002223228I-0000104724D01X0001210236Y0002223228I-0000104724D01*
G01G01G01G01G01G01G01G01G01G01G01G01G01G01G01G01*
D130*
X0000708660Y0002301181D02*
X0000708660Y0002144881D01*
D131*
X0000744488Y0002223228D02*
G75*
G03G03G03G03X0000744488Y0002223228I-0000150787D01X0000744488Y0002223228I-0000150787D01G03G03X0000744488Y0002223228I-0000150787D01G03G03X0000744488Y0002223228I-0000150787D01X0000744488Y0002223228I-0000150787D01X0000744488Y0002223228I-0000150787D01X0000744488Y0002223228I-0000150787D01G03G03G03G03X0000744488Y0002223228I-0000150787D01X0000744488Y0002223228I-0000150787D01X0000744488Y0002223228I-0000150787D01G03G03X0000744488Y0002223228I-0000150787D01G03G03X0000744488Y0002223228I-0000150787D01X0000744488Y0002223228I-0000150787D01X0000744488Y0002223228I-0000150787D01X0000744488Y0002223228I-0000150787D01X0000744488Y0002223228I-0000150787D01*
G01G01G01G01G01G01G01G01G01G01G01G01G01G01G01G01*
D132*
X0000698425Y0002223228D02*
G75*
G03G03G03G03X0000698425Y0002223228I-0000104724D01X0000698425Y0002223228I-0000104724D01G03G03X0000698425Y0002223228I-0000104724D01G03G03X0000698425Y0002223228I-0000104724D01X0000698425Y0002223228I-0000104724D01X0000698425Y0002223228I-0000104724D01X0000698425Y0002223228I-0000104724D01G03G03G03G03X0000698425Y0002223228I-0000104724D01X0000698425Y0002223228I-0000104724D01X0000698425Y0002223228I-0000104724D01G03G03X0000698425Y0002223228I-0000104724D01G03G03X0000698425Y0002223228I-0000104724D01X0000698425Y0002223228I-0000104724D01X0000698425Y0002223228I-0000104724D01X0000698425Y0002223228I-0000104724D01X0000698425Y0002223228I-0000104724D01*
G01G01G01G01G01G01G01G01G01G01G01G01G01G01G01G01*
D130*
X0002519685Y0002301181D02*
X0002519685Y0002144881D01*
D131*
X0002555511Y0002223228D02*
G75*
G03G03G03G03X0002555511Y0002223228I-0000150787D01X0002555511Y0002223228I-0000150787D01G03G03X0002555511Y0002223228I-0000150787D01G03G03X0002555511Y0002223228I-0000150787D01X0002555511Y0002223228I-0000150787D01X0002555511Y0002223228I-0000150787D01X0002555511Y0002223228I-0000150787D01G03G03G03G03X0002555511Y0002223228I-0000150787D01X0002555511Y0002223228I-0000150787D01X0002555511Y0002223228I-0000150787D01G03G03X0002555511Y0002223228I-0000150787D01G03G03X0002555511Y0002223228I-0000150787D01X0002555511Y0002223228I-0000150787D01X0002555511Y0002223228I-0000150787D01X0002555511Y0002223228I-0000150787D01X0002555511Y0002223228I-0000150787D01*
G01G01G01G01G01G01G01G01G01G01G01G01G01G01G01G01*
D132*
X0002509448Y0002223228D02*
G75*
G03G03G03G03X0002509448Y0002223228I-0000104724D01X0002509448Y0002223228I-0000104724D01G03G03X0002509448Y0002223228I-0000104724D01G03G03X0002509448Y0002223228I-0000104724D01X0002509448Y0002223228I-0000104724D01X0002509448Y0002223228I-0000104724D01X0002509448Y0002223228I-0000104724D01G03G03G03G03X0002509448Y0002223228I-0000104724D01X0002509448Y0002223228I-0000104724D01X0002509448Y0002223228I-0000104724D01G03G03X0002509448Y0002223228I-0000104724D01G03G03X0002509448Y0002223228I-0000104724D01X0002509448Y0002223228I-0000104724D01X0002509448Y0002223228I-0000104724D01X0002509448Y0002223228I-0000104724D01X0002509448Y0002223228I-0000104724D01*
G01G01G01G01G01G01G01G01G01G01G01G01G01G01G01G01*
D130*
X0002007874Y0002301181D02*
X0002007874Y0002144881D01*
D131*
X0002043699Y0002223228D02*
G75*
G03G03G03G03X0002043699Y0002223228I-0000150787D01X0002043699Y0002223228I-0000150787D01G03G03X0002043699Y0002223228I-0000150787D01G03G03X0002043699Y0002223228I-0000150787D01X0002043699Y0002223228I-0000150787D01X0002043699Y0002223228I-0000150787D01X0002043699Y0002223228I-0000150787D01G03G03G03G03X0002043699Y0002223228I-0000150787D01X0002043699Y0002223228I-0000150787D01X0002043699Y0002223228I-0000150787D01G03G03X0002043699Y0002223228I-0000150787D01G03G03X0002043699Y0002223228I-0000150787D01X0002043699Y0002223228I-0000150787D01X0002043699Y0002223228I-0000150787D01X0002043699Y0002223228I-0000150787D01X0002043699Y0002223228I-0000150787D01*
G01G01G01G01G01G01G01G01G01G01G01G01G01G01G01G01*
D132*
X0001997637Y0002223228D02*
G75*
G03G03G03G03X0001997637Y0002223228I-0000104724D01X0001997637Y0002223228I-0000104724D01G03G03X0001997637Y0002223228I-0000104724D01G03G03X0001997637Y0002223228I-0000104724D01X0001997637Y0002223228I-0000104724D01X0001997637Y0002223228I-0000104724D01X0001997637Y0002223228I-0000104724D01G03G03G03G03X0001997637Y0002223228I-0000104724D01X0001997637Y0002223228I-0000104724D01X0001997637Y0002223228I-0000104724D01G03G03X0001997637Y0002223228I-0000104724D01G03G03X0001997637Y0002223228I-0000104724D01X0001997637Y0002223228I-0000104724D01X0001997637Y0002223228I-0000104724D01X0001997637Y0002223228I-0000104724D01X0001997637Y0002223228I-0000104724D01*
G01G01G01G01G01G01G01G01G01G01G01G01G01G01G01G01*
D133*
G36*
X0002788375Y0002834767D02*
X0002778306Y0002760116D01*
X0000188532Y0002759332D01*
X0000189578Y0002836728D01*
X0002788375Y0002834767D01*
X0002788375Y0002834767D01*
G37*
X0002788375Y0002834767D02*
X0002778306Y0002760116D01*
X0000188532Y0002759332D01*
X0000189578Y0002836728D01*
X0002788375Y0002834767D01*
G36*
X0002760725Y0001455787D02*
X0000233323Y0001456573D01*
X0000232975Y0001532009D01*
X0002760376Y0001532793D01*
X0002760725Y0001455787D01*
X0002760725Y0001455787D01*
G37*
X0002760725Y0001455787D02*
X0000233323Y0001456573D01*
X0000232975Y0001532009D01*
X0002760376Y0001532793D01*
X0002760725Y0001455787D01*
G36*
X0002993820Y0002452062D02*
X0002984507Y0002439645D01*
X0002957086Y0002439645D01*
X0002955173Y0002439265D01*
X0002953551Y0002438181D01*
X0002952467Y0002436559D01*
X0002952086Y0002434655D01*
X0002950905Y0001859852D01*
X0002951282Y0001857938D01*
X0002952362Y0001856314D01*
X0002953982Y0001855227D01*
X0002955905Y0001854842D01*
X0002984936Y0001854842D01*
X0002993818Y0001845960D01*
X0002993818Y0001455393D01*
X0002757339Y0001455393D01*
X0002756968Y0001537021D01*
X0002756968Y0001621955D01*
X0002759935Y0001625910D01*
X0002762108Y0001626913D01*
X0002766277Y0001625524D01*
X0002789628Y0001603632D01*
X0002792804Y0001591633D01*
X0002794214Y0001589269D01*
X0002807206Y0001577063D01*
X0002808732Y0001576082D01*
X0002824086Y0001569783D01*
X0002825984Y0001569409D01*
X0002840944Y0001569409D01*
X0002843439Y0001570076D01*
X0002856431Y0001577556D01*
X0002857249Y0001578144D01*
X0002867486Y0001587199D01*
X0002868791Y0001589029D01*
X0002875484Y0001605170D01*
X0002875863Y0001607233D01*
X0002875470Y0001620619D01*
X0002875124Y0001622305D01*
X0002870006Y0001635297D01*
X0002869017Y0001636864D01*
X0002858782Y0001647890D01*
X0002857116Y0001649071D01*
X0002842610Y0001655394D01*
X0002820257Y0001677381D01*
X0002818685Y0001683670D01*
X0002820678Y0001687658D01*
X0002826456Y0001690684D01*
X0002888251Y0001691457D01*
X0002890160Y0001691861D01*
X0002891768Y0001692965D01*
X0002892831Y0001694601D01*
X0002893188Y0001696456D01*
X0002893188Y0001771259D01*
X0002892808Y0001773173D01*
X0002891723Y0001774795D01*
X0002890102Y0001775879D01*
X0002888249Y0001776259D01*
X0002796341Y0001777380D01*
X0002796729Y0002514766D01*
X0002887090Y0002516260D01*
X0002888997Y0002516672D01*
X0002890601Y0002517783D01*
X0002891658Y0002519423D01*
X0002892006Y0002521233D01*
X0002892401Y0002596824D01*
X0002892030Y0002598738D01*
X0002890955Y0002600366D01*
X0002889339Y0002601459D01*
X0002887430Y0002601850D01*
X0002822448Y0002602232D01*
X0002818922Y0002605506D01*
X0002817129Y0002608644D01*
X0002817932Y0002612058D01*
X0002840191Y0002634682D01*
X0002851755Y0002639019D01*
X0002853441Y0002640073D01*
X0002868795Y0002654640D01*
X0002870107Y0002656717D01*
X0002876013Y0002674827D01*
X0002876094Y0002677654D01*
X0002870582Y0002698521D01*
X0002869330Y0002700732D01*
X0002854763Y0002715692D01*
X0002853155Y0002716798D01*
X0002852045Y0002717129D01*
X0002829604Y0002721066D01*
X0002827527Y0002720992D01*
X0002813354Y0002717449D01*
X0002811366Y0002716439D01*
X0002797192Y0002704628D01*
X0002795788Y0002702735D01*
X0002787581Y0002683335D01*
X0002765868Y0002664567D01*
X0002763927Y0002663789D01*
X0002760869Y0002664198D01*
X0002758631Y0002666233D01*
X0002756570Y0002672121D01*
X0002756181Y0002753846D01*
X0002759520Y0002835088D01*
X0002810165Y0002834369D01*
X0002810267Y0002834369D01*
X0002994207Y0002835519D01*
X0002993820Y0002452062D01*
X0002993820Y0002452062D01*
G37*
X0002993820Y0002452062D02*
X0002984507Y0002439645D01*
X0002957086Y0002439645D01*
X0002955173Y0002439265D01*
X0002953551Y0002438181D01*
X0002952467Y0002436559D01*
X0002952086Y0002434655D01*
X0002950905Y0001859852D01*
X0002951282Y0001857938D01*
X0002952362Y0001856314D01*
X0002953982Y0001855227D01*
X0002955905Y0001854842D01*
X0002984936Y0001854842D01*
X0002993818Y0001845960D01*
X0002993818Y0001455393D01*
X0002757339Y0001455393D01*
X0002756968Y0001537021D01*
X0002756968Y0001621955D01*
X0002759935Y0001625910D01*
X0002762108Y0001626913D01*
X0002766277Y0001625524D01*
X0002789628Y0001603632D01*
X0002792804Y0001591633D01*
X0002794214Y0001589269D01*
X0002807206Y0001577063D01*
X0002808732Y0001576082D01*
X0002824086Y0001569783D01*
X0002825984Y0001569409D01*
X0002840944Y0001569409D01*
X0002843439Y0001570076D01*
X0002856431Y0001577556D01*
X0002857249Y0001578144D01*
X0002867486Y0001587199D01*
X0002868791Y0001589029D01*
X0002875484Y0001605170D01*
X0002875863Y0001607233D01*
X0002875470Y0001620619D01*
X0002875124Y0001622305D01*
X0002870006Y0001635297D01*
X0002869017Y0001636864D01*
X0002858782Y0001647890D01*
X0002857116Y0001649071D01*
X0002842610Y0001655394D01*
X0002820257Y0001677381D01*
X0002818685Y0001683670D01*
X0002820678Y0001687658D01*
X0002826456Y0001690684D01*
X0002888251Y0001691457D01*
X0002890160Y0001691861D01*
X0002891768Y0001692965D01*
X0002892831Y0001694601D01*
X0002893188Y0001696456D01*
X0002893188Y0001771259D01*
X0002892808Y0001773173D01*
X0002891723Y0001774795D01*
X0002890102Y0001775879D01*
X0002888249Y0001776259D01*
X0002796341Y0001777380D01*
X0002796729Y0002514766D01*
X0002887090Y0002516260D01*
X0002888997Y0002516672D01*
X0002890601Y0002517783D01*
X0002891658Y0002519423D01*
X0002892006Y0002521233D01*
X0002892401Y0002596824D01*
X0002892030Y0002598738D01*
X0002890955Y0002600366D01*
X0002889339Y0002601459D01*
X0002887430Y0002601850D01*
X0002822448Y0002602232D01*
X0002818922Y0002605506D01*
X0002817129Y0002608644D01*
X0002817932Y0002612058D01*
X0002840191Y0002634682D01*
X0002851755Y0002639019D01*
X0002853441Y0002640073D01*
X0002868795Y0002654640D01*
X0002870107Y0002656717D01*
X0002876013Y0002674827D01*
X0002876094Y0002677654D01*
X0002870582Y0002698521D01*
X0002869330Y0002700732D01*
X0002854763Y0002715692D01*
X0002853155Y0002716798D01*
X0002852045Y0002717129D01*
X0002829604Y0002721066D01*
X0002827527Y0002720992D01*
X0002813354Y0002717449D01*
X0002811366Y0002716439D01*
X0002797192Y0002704628D01*
X0002795788Y0002702735D01*
X0002787581Y0002683335D01*
X0002765868Y0002664567D01*
X0002763927Y0002663789D01*
X0002760869Y0002664198D01*
X0002758631Y0002666233D01*
X0002756570Y0002672121D01*
X0002756181Y0002753846D01*
X0002759520Y0002835088D01*
X0002810165Y0002834369D01*
X0002810267Y0002834369D01*
X0002994207Y0002835519D01*
X0002993820Y0002452062D01*
G36*
X0000230826Y0002756284D02*
X0000230826Y0002671351D01*
X0000227860Y0002667396D01*
X0000225686Y0002666393D01*
X0000221518Y0002667782D01*
X0000198167Y0002689674D01*
X0000194990Y0002701673D01*
X0000193580Y0002704037D01*
X0000180588Y0002716241D01*
X0000179063Y0002717224D01*
X0000163708Y0002723523D01*
X0000161811Y0002723897D01*
X0000146850Y0002723897D01*
X0000144355Y0002723230D01*
X0000131363Y0002715750D01*
X0000130545Y0002715162D01*
X0000120309Y0002706107D01*
X0000119003Y0002704276D01*
X0000112309Y0002688135D01*
X0000111931Y0002686073D01*
X0000112325Y0002672687D01*
X0000112670Y0002671002D01*
X0000117788Y0002658009D01*
X0000118776Y0002656440D01*
X0000129010Y0002645416D01*
X0000130676Y0002644235D01*
X0000145185Y0002637912D01*
X0000167537Y0002615925D01*
X0000169110Y0002609636D01*
X0000167115Y0002605648D01*
X0000161338Y0002602622D01*
X0000099543Y0002601850D01*
X0000097635Y0002601445D01*
X0000096026Y0002600341D01*
X0000094963Y0002598705D01*
X0000094606Y0002596850D01*
X0000094606Y0002522047D01*
X0000094986Y0002520133D01*
X0000096070Y0002518511D01*
X0000097692Y0002517427D01*
X0000099545Y0002517047D01*
X0000191454Y0002515926D01*
X0000191065Y0001778540D01*
X0000100704Y0001777046D01*
X0000098797Y0001776634D01*
X0000097193Y0001775523D01*
X0000096137Y0001773884D01*
X0000095787Y0001772073D01*
X0000095393Y0001696482D01*
X0000095764Y0001694567D01*
X0000096839Y0001692939D01*
X0000098456Y0001691847D01*
X0000100364Y0001691456D01*
X0000165345Y0001691074D01*
X0000168872Y0001687800D01*
X0000170666Y0001684661D01*
X0000169863Y0001681248D01*
X0000147604Y0001658624D01*
X0000136039Y0001654287D01*
X0000134353Y0001653232D01*
X0000118999Y0001638666D01*
X0000117686Y0001636588D01*
X0000111781Y0001618478D01*
X0000111701Y0001615652D01*
X0000117212Y0001594786D01*
X0000118464Y0001592574D01*
X0000133031Y0001577614D01*
X0000134639Y0001576508D01*
X0000135750Y0001576177D01*
X0000158191Y0001572240D01*
X0000160267Y0001572314D01*
X0000174441Y0001575857D01*
X0000176428Y0001576867D01*
X0000190602Y0001588678D01*
X0000192006Y0001590571D01*
X0000200213Y0001609971D01*
X0000221926Y0001628739D01*
X0000223867Y0001629516D01*
X0000226925Y0001629108D01*
X0000229163Y0001627073D01*
X0000231224Y0001621185D01*
X0000231613Y0001539460D01*
X0000228271Y0001458125D01*
X0000155501Y0001457755D01*
X-0000006412Y0001457755D01*
X-0000006025Y0001841244D01*
X0000003286Y0001853661D01*
X0000030708Y0001853661D01*
X0000032622Y0001854041D01*
X0000034244Y0001855125D01*
X0000035328Y0001856747D01*
X0000035708Y0001858651D01*
X0000036889Y0002433454D01*
X0000036513Y0002435368D01*
X0000035432Y0002436992D01*
X0000033812Y0002438080D01*
X0000031889Y0002438464D01*
X0000002858Y0002438464D01*
X-0000006023Y0002447346D01*
X-0000006023Y0002837913D01*
X0000230455Y0002837913D01*
X0000230826Y0002756284D01*
X0000230826Y0002756284D01*
G37*
X0000230826Y0002756284D02*
X0000230826Y0002671351D01*
X0000227860Y0002667396D01*
X0000225686Y0002666393D01*
X0000221518Y0002667782D01*
X0000198167Y0002689674D01*
X0000194990Y0002701673D01*
X0000193580Y0002704037D01*
X0000180588Y0002716241D01*
X0000179063Y0002717224D01*
X0000163708Y0002723523D01*
X0000161811Y0002723897D01*
X0000146850Y0002723897D01*
X0000144355Y0002723230D01*
X0000131363Y0002715750D01*
X0000130545Y0002715162D01*
X0000120309Y0002706107D01*
X0000119003Y0002704276D01*
X0000112309Y0002688135D01*
X0000111931Y0002686073D01*
X0000112325Y0002672687D01*
X0000112670Y0002671002D01*
X0000117788Y0002658009D01*
X0000118776Y0002656440D01*
X0000129010Y0002645416D01*
X0000130676Y0002644235D01*
X0000145185Y0002637912D01*
X0000167537Y0002615925D01*
X0000169110Y0002609636D01*
X0000167115Y0002605648D01*
X0000161338Y0002602622D01*
X0000099543Y0002601850D01*
X0000097635Y0002601445D01*
X0000096026Y0002600341D01*
X0000094963Y0002598705D01*
X0000094606Y0002596850D01*
X0000094606Y0002522047D01*
X0000094986Y0002520133D01*
X0000096070Y0002518511D01*
X0000097692Y0002517427D01*
X0000099545Y0002517047D01*
X0000191454Y0002515926D01*
X0000191065Y0001778540D01*
X0000100704Y0001777046D01*
X0000098797Y0001776634D01*
X0000097193Y0001775523D01*
X0000096137Y0001773884D01*
X0000095787Y0001772073D01*
X0000095393Y0001696482D01*
X0000095764Y0001694567D01*
X0000096839Y0001692939D01*
X0000098456Y0001691847D01*
X0000100364Y0001691456D01*
X0000165345Y0001691074D01*
X0000168872Y0001687800D01*
X0000170666Y0001684661D01*
X0000169863Y0001681248D01*
X0000147604Y0001658624D01*
X0000136039Y0001654287D01*
X0000134353Y0001653232D01*
X0000118999Y0001638666D01*
X0000117686Y0001636588D01*
X0000111781Y0001618478D01*
X0000111701Y0001615652D01*
X0000117212Y0001594786D01*
X0000118464Y0001592574D01*
X0000133031Y0001577614D01*
X0000134639Y0001576508D01*
X0000135750Y0001576177D01*
X0000158191Y0001572240D01*
X0000160267Y0001572314D01*
X0000174441Y0001575857D01*
X0000176428Y0001576867D01*
X0000190602Y0001588678D01*
X0000192006Y0001590571D01*
X0000200213Y0001609971D01*
X0000221926Y0001628739D01*
X0000223867Y0001629516D01*
X0000226925Y0001629108D01*
X0000229163Y0001627073D01*
X0000231224Y0001621185D01*
X0000231613Y0001539460D01*
X0000228271Y0001458125D01*
X0000155501Y0001457755D01*
X-0000006412Y0001457755D01*
X-0000006025Y0001841244D01*
X0000003286Y0001853661D01*
X0000030708Y0001853661D01*
X0000032622Y0001854041D01*
X0000034244Y0001855125D01*
X0000035328Y0001856747D01*
X0000035708Y0001858651D01*
X0000036889Y0002433454D01*
X0000036513Y0002435368D01*
X0000035432Y0002436992D01*
X0000033812Y0002438080D01*
X0000031889Y0002438464D01*
X0000002858Y0002438464D01*
X-0000006023Y0002447346D01*
X-0000006023Y0002837913D01*
X0000230455Y0002837913D01*
X0000230826Y0002756284D01*
M02*