%
M48
METRIC,000.000
T01C0.46
T03C0.46
T05C0.46
T06C0.99
T07C3.10
T09C3.10
T11C3.10
T13C3.10
T15C0.50
%
T01
X007569Y028210
X007569Y014210
X008084Y030135
X008084Y026285
X008084Y016135
X008084Y012284
X009494Y031543
X009494Y024875
X009494Y017545
X009494Y010875
X011419Y032061
X011419Y024359
X011419Y018060
X011419Y010359
X013345Y031543
X013345Y024875
X013345Y017545
X013345Y010875
X014754Y030135
X014754Y026285
X014754Y016135
X014754Y012284
X015270Y028210
X015270Y014210
X020568Y028210
X020568Y014210
X021084Y030135
X021084Y026285
X021084Y016135
X021084Y012284
X022494Y031543
X022494Y024875
X022494Y017545
X022494Y010875
X024419Y032061
X024419Y024359
X024419Y018060
X024419Y010359
X026344Y031543
X026344Y024875
X026344Y017545
X026344Y010875
X027754Y030135
X027754Y026285
X027754Y016135
X027754Y012284
X028270Y028210
X028270Y014210
X033571Y028210
X033571Y014210
X034086Y030135
X034086Y026285
X034086Y016135
X034086Y012284
X035493Y031543
X035493Y024875
X035493Y017545
X035493Y010875
X037419Y032061
X037419Y024359
X037419Y018060
X037419Y010359
X039344Y031543
X039344Y024875
X039344Y017545
X039344Y010875
X040754Y030135
X040754Y026285
X040754Y016135
X040754Y012284
X041269Y028210
X041269Y014210
X047569Y028210
X047569Y014210
X048084Y030135
X048084Y026285
X048084Y016135
X048084Y012284
X049494Y031543
X049494Y024875
X049494Y017545
X049494Y010875
X051419Y032061
X051419Y024359
X051419Y018060
X051419Y010359
X053345Y031543
X053345Y024875
X053345Y017545
X053345Y010875
X054754Y030135
X054754Y026285
X054754Y016135
X054754Y012284
X055270Y028210
X055270Y014210
X060568Y028210
X060568Y014210
X061086Y030135
X061086Y026285
X061086Y016135
X061086Y012284
X062494Y031543
X062494Y024875
X062494Y017545
X062494Y010875
X064419Y032061
X064419Y024359
X064419Y018060
X064419Y010359
X066344Y031543
X066344Y024875
X066344Y017545
X066344Y010875
X067754Y030135
X067754Y026285
X067754Y016135
X067754Y012284
X068270Y028210
X068270Y014210
T03
X011229Y056470
X011744Y058395
X011744Y054545
X013154Y059805
X013154Y053135
X015079Y060321
X015079Y052619
X017005Y059805
X017005Y053135
X018415Y058395
X018415Y054545
X018930Y056470
X024229Y056470
X024744Y058395
X024744Y054545
X026154Y059805
X026154Y053135
X028079Y060321
X028079Y052619
X030005Y059805
X030005Y053135
X031414Y058395
X031414Y054545
X031930Y056470
X044229Y056470
X044744Y058395
X044744Y054545
X046154Y059805
X046154Y053135
X048079Y060321
X048079Y052619
X050004Y059805
X050004Y053135
X051414Y058395
X051414Y054545
X051930Y056470
X057228Y056470
X057746Y058395
X057746Y054545
X059154Y059805
X059154Y053135
X061079Y060321
X061079Y052619
X063004Y059805
X063004Y053135
X064414Y058395
X064414Y054545
X064930Y056470
T05
X051026Y097810
X051541Y099735
X051541Y095885
X052948Y101145
X052948Y094475
X054874Y101661
X054874Y093959
X056799Y101145
X056799Y094475
X058209Y099735
X058209Y095885
X058224Y097810
X062024Y097810
X062539Y099735
X062539Y095885
X063949Y101145
X063949Y094475
X065874Y101661
X065874Y093959
X067800Y101145
X067800Y094475
X069209Y099735
X069209Y095885
X069225Y097810
T06
X010650Y105643
X010650Y103543
X012169Y104584
X013695Y105643
X013695Y103543
X015214Y104584
X016741Y105643
X016741Y103543
X018260Y104584
X019786Y105643
X019786Y103543
X021305Y104584
X022832Y105643
X022832Y103543
X024350Y104584
X025877Y105643
X025877Y103543
X027396Y104584
X028922Y105643
X028922Y103543
X030441Y104584
X031968Y105643
X031968Y103543
X033487Y104584
X035013Y105643
X035013Y103543
X036535Y104584
X038059Y105643
X038059Y103543
X039580Y104584
X041104Y105643
X041104Y103543
X042626Y104584
X044150Y105643
X044150Y103543
X045671Y104584
X047195Y105643
X047195Y103543
X048717Y104584
X050241Y105643
X051762Y104584
X053286Y105643
X054808Y104584
X056332Y105643
X057853Y104584
X059377Y105643
X060899Y104584
X062423Y105643
X063944Y104584
X065468Y105643
T07
X087260Y105319G85X087260Y105319
T09
X087260Y096319G85X087260Y096319
T11
X087260Y087319G85X087260Y087319
T13
X087260Y078319G85X087260Y078319
T15
X076239Y065194
X076239Y066194
X076239Y067194
X076239Y068194
X076239Y069194
X077940Y068565
X077940Y067565
X077940Y066565
X077940Y065565
X039326Y072250
X038326Y072250
X037326Y072250
X036326Y072250
X035326Y072250
X035014Y073938
X036014Y073939
X037014Y073939
X038014Y073939
X039014Y073939
X013326Y035250
X012326Y035250
X011326Y035250
X010326Y035250
X009326Y035250
X009000Y036750
X010000Y036751
X011000Y036751
X012000Y036751
X013000Y036751
X076239Y039700
X076239Y040700
X076239Y041700
X076239Y042700
X076239Y043700
X078080Y044126
X078080Y043126
X078080Y042126
X078080Y041126
X078080Y040126
X039326Y035250
X038326Y035250
X037326Y035250
X036326Y035250
X035326Y035250
X035000Y036754
X036000Y036754
X037000Y036754
X038000Y036755
X039000Y036755
X066326Y072250
X065325Y072250
X064325Y072250
X063326Y072250
X062326Y072250
X062014Y073942
X063014Y073942
X064013Y073942
X065013Y073943
X066014Y073943
X066326Y035250
X065325Y035250
X064325Y035250
X063326Y035250
X062326Y035250
X062000Y036758
X063000Y036758
X064000Y036758
X065000Y036758
X066000Y036758
X014326Y072250
X013326Y072250
X012326Y072250
X011326Y072250
X010326Y072250
X010014Y073935
X011014Y073935
X012014Y073935
X013014Y073935
X014014Y073935
X076254Y103378
X076254Y104378
X076254Y105378
X076254Y106378
X076240Y107378
X077810Y106655
X077810Y105655
X077810Y104655
X077810Y103655
X077810Y102655
X079060Y101770
X080060Y101771
X081060Y101771
X082060Y101772
X083055Y101830
X082702Y099861
X081703Y099867
X080703Y099868
X079703Y099868
X079060Y092770
X080060Y092771
X081060Y092771
X082060Y092772
X083055Y092830
X082702Y090861
X081703Y090867
X080703Y090868
X079703Y090868
X079060Y083770
X080060Y083771
X081060Y083771
X082060Y083772
X083055Y083830
X082702Y081861
X081703Y081867
X080703Y081868
X079703Y081868
X076135Y075896
X076254Y076884
X076254Y077884
X076254Y078884
X076254Y079884
X077810Y079655
X077810Y078655
X077810Y077655
X077810Y076655
X077810Y075655
M30