G04 #@! TF.FileFunction,Legend,Top*
%FSLAX46Y46*%
G04 Gerber Fmt 4.6, Leading zero omitted, Abs format (unit mm)*
G04 Created by KiCad (PCBNEW no-bzr-kicad_new3d-viewer) date 06/27/16 23:34:47*
%MOMM*%
%LPD*%
G01*
G04 APERTURE LIST*
%ADD10C,0.100000*%
%ADD11C,0.500000*%
G04 APERTURE END LIST*
D10*
D11*
X63488095Y-25004761D02*
X63869047Y-25004761D01*
X64059523Y-24909523D01*
X64154761Y-24814285D01*
X64345238Y-24528571D01*
X64440476Y-24147619D01*
X64440476Y-23385714D01*
X64345238Y-23195238D01*
X64250000Y-23100000D01*
X64059523Y-23004761D01*
X63678571Y-23004761D01*
X63488095Y-23100000D01*
X63392857Y-23195238D01*
X63297619Y-23385714D01*
X63297619Y-23861904D01*
X63392857Y-24052380D01*
X63488095Y-24147619D01*
X63678571Y-24242857D01*
X64059523Y-24242857D01*
X64250000Y-24147619D01*
X64345238Y-24052380D01*
X64440476Y-23861904D01*
X65107142Y-23004761D02*
X66440476Y-23004761D01*
X65583333Y-25004761D01*
X68726190Y-25004761D02*
X68726190Y-23671428D01*
X68726190Y-23861904D02*
X68821428Y-23766666D01*
X69011904Y-23671428D01*
X69297619Y-23671428D01*
X69488095Y-23766666D01*
X69583333Y-23957142D01*
X69583333Y-25004761D01*
X69583333Y-23957142D02*
X69678571Y-23766666D01*
X69869047Y-23671428D01*
X70154761Y-23671428D01*
X70345238Y-23766666D01*
X70440476Y-23957142D01*
X70440476Y-25004761D01*
X71392857Y-25004761D02*
X71392857Y-23671428D01*
X71392857Y-23861904D02*
X71488095Y-23766666D01*
X71678571Y-23671428D01*
X71964285Y-23671428D01*
X72154761Y-23766666D01*
X72250000Y-23957142D01*
X72250000Y-25004761D01*
X72250000Y-23957142D02*
X72345238Y-23766666D01*
X72535714Y-23671428D01*
X72821428Y-23671428D01*
X73011904Y-23766666D01*
X73107142Y-23957142D01*
X73107142Y-25004761D01*
X64369047Y-27759523D02*
X64178571Y-27854761D01*
X63797619Y-27854761D01*
X63607142Y-27759523D01*
X63511904Y-27569047D01*
X63511904Y-26807142D01*
X63607142Y-26616666D01*
X63797619Y-26521428D01*
X64178571Y-26521428D01*
X64369047Y-26616666D01*
X64464285Y-26807142D01*
X64464285Y-26997619D01*
X63511904Y-27188095D01*
X65321428Y-26521428D02*
X65321428Y-27854761D01*
X65321428Y-26711904D02*
X65416666Y-26616666D01*
X65607142Y-26521428D01*
X65892857Y-26521428D01*
X66083333Y-26616666D01*
X66178571Y-26807142D01*
X66178571Y-27854761D01*
X67988095Y-27759523D02*
X67797619Y-27854761D01*
X67416666Y-27854761D01*
X67226190Y-27759523D01*
X67130952Y-27664285D01*
X67035714Y-27473809D01*
X67035714Y-26902380D01*
X67130952Y-26711904D01*
X67226190Y-26616666D01*
X67416666Y-26521428D01*
X67797619Y-26521428D01*
X67988095Y-26616666D01*
X69130952Y-27854761D02*
X68940476Y-27759523D01*
X68845238Y-27569047D01*
X68845238Y-25854761D01*
X69892857Y-27664285D02*
X69988095Y-27759523D01*
X69892857Y-27854761D01*
X69797619Y-27759523D01*
X69892857Y-27664285D01*
X69892857Y-27854761D01*
M02*
