G04 #@! TF.FileFunction,Copper,L2,Bot,Signal*
%FSLAX46Y46*%
G04 Gerber Fmt 4.6, Leading zero omitted, Abs format (unit mm)*
G04 Created by KiCad (PCBNEW no-bzr-kicad_new3d-viewer) date 07/10/16 17:39:31*
%MOMM*%
%LPD*%
G01*
G04 APERTURE LIST*
%ADD10C,0.150000*%
%ADD11C,0.800000*%
%ADD12C,0.100000*%
G04 APERTURE END LIST*
D10*
D11*
X163850000Y-78500000D03*
X165750000Y-79009103D03*
X167140897Y-80400000D03*
X167650000Y-82300000D03*
X167140897Y-84200000D03*
X165750000Y-85590897D03*
X163850000Y-86100000D03*
X161950000Y-85590897D03*
X160559103Y-84200000D03*
X160050000Y-82300000D03*
X160559103Y-80400000D03*
X161950000Y-79009103D03*
D12*
X175896038Y-58854764D02*
X83920658Y-58854764D01*
X176151427Y-58905564D02*
X83665268Y-58905564D01*
X176406816Y-58956364D02*
X83409879Y-58956364D01*
X176662205Y-59007164D02*
X83154490Y-59007164D01*
X176846443Y-59057964D02*
X82970252Y-59057964D01*
X176922471Y-59108764D02*
X82894224Y-59108764D01*
X176998498Y-59159564D02*
X82818197Y-59159564D01*
X177074526Y-59210364D02*
X82742169Y-59210364D01*
X177150554Y-59261164D02*
X82666142Y-59261164D01*
X177226581Y-59311964D02*
X82590114Y-59311964D01*
X177302609Y-59362764D02*
X82514086Y-59362764D01*
X177378637Y-59413564D02*
X82438059Y-59413564D01*
X177454664Y-59464364D02*
X82362031Y-59464364D01*
X177530692Y-59515164D02*
X82286004Y-59515164D01*
X177595247Y-59565964D02*
X82221447Y-59565964D01*
X177629191Y-59616764D02*
X82187504Y-59616764D01*
X177663134Y-59667564D02*
X82153560Y-59667564D01*
X177697078Y-59718364D02*
X82119617Y-59718364D01*
X177731021Y-59769164D02*
X82085673Y-59769164D01*
X177764965Y-59819964D02*
X82051730Y-59819964D01*
X177798908Y-59870764D02*
X82017787Y-59870764D01*
X177832852Y-59921564D02*
X81983843Y-59921564D01*
X177866795Y-59972364D02*
X81949900Y-59972364D01*
X177900739Y-60023164D02*
X81915956Y-60023164D01*
X177934682Y-60073964D02*
X81882013Y-60073964D01*
X177968626Y-60124764D02*
X81848069Y-60124764D01*
X178002569Y-60175564D02*
X81814126Y-60175564D01*
X178036513Y-60226364D02*
X81780182Y-60226364D01*
X178070456Y-60277164D02*
X81746239Y-60277164D01*
X178101520Y-60327964D02*
X81715175Y-60327964D01*
X178111625Y-60378764D02*
X81705070Y-60378764D01*
X178121729Y-60429564D02*
X81694966Y-60429564D01*
X178131834Y-60480364D02*
X81684861Y-60480364D01*
X178141939Y-60531164D02*
X81674756Y-60531164D01*
X178152044Y-60581964D02*
X81664651Y-60581964D01*
X178162148Y-60632764D02*
X81654547Y-60632764D01*
X178172253Y-60683564D02*
X81644442Y-60683564D01*
X178182358Y-60734364D02*
X81634337Y-60734364D01*
X178192463Y-60785164D02*
X81624232Y-60785164D01*
X174451496Y-60835964D02*
X81614128Y-60835964D01*
X178202567Y-60835964D02*
X174765201Y-60835964D01*
X174196107Y-60886764D02*
X81604023Y-60886764D01*
X178212672Y-60886764D02*
X175020590Y-60886764D01*
X173945987Y-60937564D02*
X81593918Y-60937564D01*
X178222777Y-60937564D02*
X175270710Y-60937564D01*
X173869959Y-60988364D02*
X81583813Y-60988364D01*
X178232882Y-60988364D02*
X175346738Y-60988364D01*
X85035409Y-61039164D02*
X81573709Y-61039164D01*
X173793931Y-61039164D02*
X85381288Y-61039164D01*
X178242986Y-61039164D02*
X175422766Y-61039164D01*
X84780020Y-61089964D02*
X81563604Y-61089964D01*
X173717904Y-61089964D02*
X85636677Y-61089964D01*
X178253091Y-61089964D02*
X175498793Y-61089964D01*
X84594950Y-61140764D02*
X81553499Y-61140764D01*
X173641876Y-61140764D02*
X85821747Y-61140764D01*
X178263196Y-61140764D02*
X175574821Y-61140764D01*
X84518922Y-61191564D02*
X81543395Y-61191564D01*
X173565849Y-61191564D02*
X85897775Y-61191564D01*
X178273300Y-61191564D02*
X175650848Y-61191564D01*
X84442894Y-61242364D02*
X81533348Y-61242364D01*
X173489821Y-61242364D02*
X85973802Y-61242364D01*
X178283348Y-61242364D02*
X175726876Y-61242364D01*
X84366866Y-61293164D02*
X81533348Y-61293164D01*
X173413794Y-61293164D02*
X86049830Y-61293164D01*
X178283348Y-61293164D02*
X175802903Y-61293164D01*
X84290838Y-61343964D02*
X81533348Y-61343964D01*
X173365899Y-61343964D02*
X86125858Y-61343964D01*
X178283348Y-61343964D02*
X175850798Y-61343964D01*
X84209764Y-61394764D02*
X81533348Y-61394764D01*
X173331955Y-61394764D02*
X86201886Y-61394764D01*
X178283348Y-61394764D02*
X175884742Y-61394764D01*
X84124635Y-61445564D02*
X81533348Y-61445564D01*
X173298012Y-61445564D02*
X86277913Y-61445564D01*
X178283348Y-61445564D02*
X175918685Y-61445564D01*
X84091928Y-61496364D02*
X81533348Y-61496364D01*
X173264068Y-61496364D02*
X86316713Y-61496364D01*
X178283348Y-61496364D02*
X175952629Y-61496364D01*
X84063707Y-61547164D02*
X81533348Y-61547164D01*
X173230125Y-61547164D02*
X86350656Y-61547164D01*
X178283348Y-61547164D02*
X175986572Y-61547164D01*
X84032098Y-61597964D02*
X81533348Y-61597964D01*
X173196181Y-61597964D02*
X86384600Y-61597964D01*
X178283348Y-61597964D02*
X176020516Y-61597964D01*
X83998154Y-61648764D02*
X81533348Y-61648764D01*
X173162238Y-61648764D02*
X86418543Y-61648764D01*
X178283348Y-61648764D02*
X176054459Y-61648764D01*
X83964211Y-61699564D02*
X81533348Y-61699564D01*
X173128294Y-61699564D02*
X86452486Y-61699564D01*
X178283348Y-61699564D02*
X176088403Y-61699564D01*
X83930267Y-61750364D02*
X81533348Y-61750364D01*
X173094351Y-61750364D02*
X86486430Y-61750364D01*
X178283348Y-61750364D02*
X176122346Y-61750364D01*
X83896324Y-61801164D02*
X81533348Y-61801164D01*
X173060407Y-61801164D02*
X86521669Y-61801164D01*
X178283348Y-61801164D02*
X176156290Y-61801164D01*
X83862380Y-61851964D02*
X81533348Y-61851964D01*
X173026464Y-61851964D02*
X86561181Y-61851964D01*
X178283348Y-61851964D02*
X176190233Y-61851964D01*
X83828437Y-61902764D02*
X81533348Y-61902764D01*
X173008067Y-61902764D02*
X86599469Y-61902764D01*
X178283348Y-61902764D02*
X176208630Y-61902764D01*
X83797962Y-61953564D02*
X81533348Y-61953564D01*
X172997962Y-61953564D02*
X86618735Y-61953564D01*
X178283348Y-61953564D02*
X176218735Y-61953564D01*
X83787857Y-62004364D02*
X81533348Y-62004364D01*
X172987857Y-62004364D02*
X86628840Y-62004364D01*
X178283348Y-62004364D02*
X176228840Y-62004364D01*
X83777753Y-62055164D02*
X81533348Y-62055164D01*
X172977752Y-62055164D02*
X86638944Y-62055164D01*
X178283348Y-62055164D02*
X176238945Y-62055164D01*
X83767648Y-62105964D02*
X81533348Y-62105964D01*
X172967648Y-62105964D02*
X86649049Y-62105964D01*
X178283348Y-62105964D02*
X176249049Y-62105964D01*
X83757543Y-62156764D02*
X81533348Y-62156764D01*
X172957543Y-62156764D02*
X86659154Y-62156764D01*
X178283348Y-62156764D02*
X176259154Y-62156764D01*
X83747438Y-62207564D02*
X81533348Y-62207564D01*
X172947438Y-62207564D02*
X86669259Y-62207564D01*
X178283348Y-62207564D02*
X176269259Y-62207564D01*
X83737333Y-62258364D02*
X81533348Y-62258364D01*
X172937333Y-62258364D02*
X86679364Y-62258364D01*
X178283348Y-62258364D02*
X176279364Y-62258364D01*
X83727229Y-62309164D02*
X81533348Y-62309164D01*
X172927229Y-62309164D02*
X86689468Y-62309164D01*
X178283348Y-62309164D02*
X176289468Y-62309164D01*
X83717124Y-62359964D02*
X81533348Y-62359964D01*
X172917124Y-62359964D02*
X86699573Y-62359964D01*
X178283348Y-62359964D02*
X176299573Y-62359964D01*
X83707019Y-62410764D02*
X81533348Y-62410764D01*
X172907019Y-62410764D02*
X86709678Y-62410764D01*
X178283348Y-62410764D02*
X176309678Y-62410764D01*
X83696914Y-62461564D02*
X81533348Y-62461564D01*
X172896914Y-62461564D02*
X86719783Y-62461564D01*
X178283348Y-62461564D02*
X176319783Y-62461564D01*
X83686810Y-62512364D02*
X81533348Y-62512364D01*
X172886810Y-62512364D02*
X86729887Y-62512364D01*
X178283348Y-62512364D02*
X176329887Y-62512364D01*
X83689991Y-62563164D02*
X81533348Y-62563164D01*
X172889991Y-62563164D02*
X86726704Y-62563164D01*
X178283348Y-62563164D02*
X176326704Y-62563164D01*
X83700096Y-62613964D02*
X81533348Y-62613964D01*
X172900096Y-62613964D02*
X86716599Y-62613964D01*
X178283348Y-62613964D02*
X176316599Y-62613964D01*
X83710201Y-62664764D02*
X81533348Y-62664764D01*
X172910201Y-62664764D02*
X86706494Y-62664764D01*
X178283348Y-62664764D02*
X176306494Y-62664764D01*
X83720306Y-62715564D02*
X81533348Y-62715564D01*
X172920305Y-62715564D02*
X86696389Y-62715564D01*
X178283348Y-62715564D02*
X176296390Y-62715564D01*
X83730410Y-62766364D02*
X81533348Y-62766364D01*
X172930410Y-62766364D02*
X86686285Y-62766364D01*
X178283348Y-62766364D02*
X176286285Y-62766364D01*
X83740515Y-62817164D02*
X81533348Y-62817164D01*
X172940515Y-62817164D02*
X86676180Y-62817164D01*
X178283348Y-62817164D02*
X176276180Y-62817164D01*
X83750620Y-62867964D02*
X81533348Y-62867964D01*
X172950620Y-62867964D02*
X86666075Y-62867964D01*
X178283348Y-62867964D02*
X176266075Y-62867964D01*
X83760725Y-62918764D02*
X81533348Y-62918764D01*
X172960725Y-62918764D02*
X86655970Y-62918764D01*
X178283348Y-62918764D02*
X176255970Y-62918764D01*
X83770829Y-62969564D02*
X81533348Y-62969564D01*
X172970829Y-62969564D02*
X86645866Y-62969564D01*
X178283348Y-62969564D02*
X176245866Y-62969564D01*
X83780934Y-63020364D02*
X81533348Y-63020364D01*
X172980934Y-63020364D02*
X86635761Y-63020364D01*
X178283348Y-63020364D02*
X176235761Y-63020364D01*
X83791039Y-63071164D02*
X81533348Y-63071164D01*
X172991039Y-63071164D02*
X86625656Y-63071164D01*
X178283348Y-63071164D02*
X176225656Y-63071164D01*
X83805183Y-63121964D02*
X81533348Y-63121964D01*
X173001144Y-63121964D02*
X86611512Y-63121964D01*
X178283348Y-63121964D02*
X176215551Y-63121964D01*
X83839127Y-63172764D02*
X81533348Y-63172764D01*
X173011248Y-63172764D02*
X86577568Y-63172764D01*
X178283348Y-63172764D02*
X176205447Y-63172764D01*
X83873070Y-63223564D02*
X81533348Y-63223564D01*
X173037154Y-63223564D02*
X86543625Y-63223564D01*
X178283348Y-63223564D02*
X176179541Y-63223564D01*
X83907014Y-63274364D02*
X81533348Y-63274364D01*
X173071097Y-63274364D02*
X86509682Y-63274364D01*
X178283348Y-63274364D02*
X176145598Y-63274364D01*
X83940957Y-63325164D02*
X81533348Y-63325164D01*
X173105041Y-63325164D02*
X86475738Y-63325164D01*
X178283348Y-63325164D02*
X176111654Y-63325164D01*
X83974900Y-63375964D02*
X81533348Y-63375964D01*
X173138984Y-63375964D02*
X86441795Y-63375964D01*
X178283348Y-63375964D02*
X176077711Y-63375964D01*
X84007374Y-63426764D02*
X81533348Y-63426764D01*
X173172928Y-63426764D02*
X86407851Y-63426764D01*
X178283348Y-63426764D02*
X176043767Y-63426764D01*
X84035083Y-63477564D02*
X81533348Y-63477564D01*
X173206871Y-63477564D02*
X86373908Y-63477564D01*
X178283348Y-63477564D02*
X176009824Y-63477564D01*
X84062792Y-63528364D02*
X81533348Y-63528364D01*
X173240815Y-63528364D02*
X86339965Y-63528364D01*
X178283348Y-63528364D02*
X175975880Y-63528364D01*
X84090501Y-63579164D02*
X81533348Y-63579164D01*
X173274758Y-63579164D02*
X86306021Y-63579164D01*
X178283348Y-63579164D02*
X175941937Y-63579164D01*
X84122629Y-63629964D02*
X81533348Y-63629964D01*
X173308702Y-63629964D02*
X86253967Y-63629964D01*
X178283348Y-63629964D02*
X175907993Y-63629964D01*
X84199092Y-63680764D02*
X81533348Y-63680764D01*
X173342645Y-63680764D02*
X86177939Y-63680764D01*
X178283348Y-63680764D02*
X175874050Y-63680764D01*
X84280372Y-63731564D02*
X81533348Y-63731564D01*
X173376589Y-63731564D02*
X86101911Y-63731564D01*
X178283348Y-63731564D02*
X175840106Y-63731564D01*
X84361652Y-63782364D02*
X81533348Y-63782364D01*
X173437739Y-63782364D02*
X86025884Y-63782364D01*
X178283348Y-63782364D02*
X175778956Y-63782364D01*
X84442932Y-63833164D02*
X81533348Y-63833164D01*
X173513766Y-63833164D02*
X85949856Y-63833164D01*
X178283348Y-63833164D02*
X175702929Y-63833164D01*
X84524212Y-63883964D02*
X81533348Y-63883964D01*
X173589794Y-63883964D02*
X85886134Y-63883964D01*
X178283348Y-63883964D02*
X175626901Y-63883964D01*
X84618895Y-63934764D02*
X81533348Y-63934764D01*
X173665821Y-63934764D02*
X85797800Y-63934764D01*
X178283348Y-63934764D02*
X175550874Y-63934764D01*
X84860457Y-63985564D02*
X81533348Y-63985564D01*
X173741849Y-63985564D02*
X85556238Y-63985564D01*
X178283348Y-63985564D02*
X175474846Y-63985564D01*
X85115845Y-64036364D02*
X81533348Y-64036364D01*
X173817876Y-64036364D02*
X85300850Y-64036364D01*
X178283348Y-64036364D02*
X175398819Y-64036364D01*
X173893904Y-64087164D02*
X81533348Y-64087164D01*
X178283348Y-64087164D02*
X175322791Y-64087164D01*
X174021155Y-64137964D02*
X81533348Y-64137964D01*
X178283348Y-64137964D02*
X175195540Y-64137964D01*
X174276544Y-64188764D02*
X81533348Y-64188764D01*
X178283348Y-64188764D02*
X174940151Y-64188764D01*
X174531932Y-64239564D02*
X81533348Y-64239564D01*
X178283348Y-64239564D02*
X174684763Y-64239564D01*
X178283348Y-64290364D02*
X81533348Y-64290364D01*
X178283348Y-64341164D02*
X81533348Y-64341164D01*
X178283348Y-64391964D02*
X81533348Y-64391964D01*
X178283348Y-64442764D02*
X81533348Y-64442764D01*
X178283348Y-64493564D02*
X81533348Y-64493564D01*
X178283348Y-64544364D02*
X81533348Y-64544364D01*
X178283348Y-64595164D02*
X81533348Y-64595164D01*
X178283348Y-64645964D02*
X81533348Y-64645964D01*
X178283348Y-64696764D02*
X81533348Y-64696764D01*
X178283348Y-64747564D02*
X81533348Y-64747564D01*
X178283348Y-64798364D02*
X81533348Y-64798364D01*
X178283348Y-64849164D02*
X81533348Y-64849164D01*
X178283348Y-64899964D02*
X81533348Y-64899964D01*
X178283348Y-64950764D02*
X81533348Y-64950764D01*
X178283348Y-65001564D02*
X81533348Y-65001564D01*
X178283348Y-65052364D02*
X81533348Y-65052364D01*
X178283348Y-65103164D02*
X81533348Y-65103164D01*
X178283348Y-65153964D02*
X81533348Y-65153964D01*
X178283348Y-65204764D02*
X81533348Y-65204764D01*
X178283348Y-65255564D02*
X81533348Y-65255564D01*
X178283348Y-65306364D02*
X81533348Y-65306364D01*
X178283348Y-65357164D02*
X81533348Y-65357164D01*
X178283348Y-65407964D02*
X81533348Y-65407964D01*
X178283348Y-65458764D02*
X81533348Y-65458764D01*
X178283348Y-65509564D02*
X81533348Y-65509564D01*
X178283348Y-65560364D02*
X81533348Y-65560364D01*
X178283348Y-65611164D02*
X81533348Y-65611164D01*
X178283348Y-65661964D02*
X81533348Y-65661964D01*
X178283348Y-65712764D02*
X81533348Y-65712764D01*
X178283348Y-65763564D02*
X81533348Y-65763564D01*
X178283348Y-65814364D02*
X81533348Y-65814364D01*
X178283348Y-65865164D02*
X81533348Y-65865164D01*
X178283348Y-65915964D02*
X81533348Y-65915964D01*
X178283348Y-65966764D02*
X81533348Y-65966764D01*
X178283348Y-66017564D02*
X81533348Y-66017564D01*
X178283348Y-66068364D02*
X81533348Y-66068364D01*
X178283348Y-66119164D02*
X81533348Y-66119164D01*
X178283348Y-66169964D02*
X81533348Y-66169964D01*
X178283348Y-66220764D02*
X81533348Y-66220764D01*
X178283348Y-66271564D02*
X81533348Y-66271564D01*
X178283348Y-66322364D02*
X81533348Y-66322364D01*
X178283348Y-66373164D02*
X81533348Y-66373164D01*
X178283348Y-66423964D02*
X81533348Y-66423964D01*
X178283348Y-66474764D02*
X81533348Y-66474764D01*
X178283348Y-66525564D02*
X81533348Y-66525564D01*
X178283348Y-66576364D02*
X81533348Y-66576364D01*
X178283348Y-66627164D02*
X81533348Y-66627164D01*
X178283348Y-66677964D02*
X81533348Y-66677964D01*
X178283348Y-66728764D02*
X81533348Y-66728764D01*
X178283348Y-66779564D02*
X81533348Y-66779564D01*
X178283348Y-66830364D02*
X81533348Y-66830364D01*
X178283348Y-66881164D02*
X81533348Y-66881164D01*
X178283348Y-66931964D02*
X81533348Y-66931964D01*
X178283348Y-66982764D02*
X81533348Y-66982764D01*
X178283348Y-67033564D02*
X81533348Y-67033564D01*
X178283348Y-67084364D02*
X81533348Y-67084364D01*
X178283348Y-67135164D02*
X81533348Y-67135164D01*
X178283348Y-67185964D02*
X81533348Y-67185964D01*
X178283348Y-67236764D02*
X81533348Y-67236764D01*
X178283348Y-67287564D02*
X81533348Y-67287564D01*
X178283348Y-67338364D02*
X81533348Y-67338364D01*
X178283348Y-67389164D02*
X81533348Y-67389164D01*
X178283348Y-67439964D02*
X81533348Y-67439964D01*
X178283348Y-67490764D02*
X81533348Y-67490764D01*
X178283348Y-67541564D02*
X81533348Y-67541564D01*
X178283348Y-67592364D02*
X81533348Y-67592364D01*
X178283348Y-67643164D02*
X81533348Y-67643164D01*
X178283348Y-67693964D02*
X81533348Y-67693964D01*
X178283348Y-67744764D02*
X81533348Y-67744764D01*
X178283348Y-67795564D02*
X81533348Y-67795564D01*
X178283348Y-67846364D02*
X81533348Y-67846364D01*
X178283348Y-67897164D02*
X81533348Y-67897164D01*
X178283348Y-67947964D02*
X81533348Y-67947964D01*
X178283348Y-67998764D02*
X81533348Y-67998764D01*
X178283348Y-68049564D02*
X81533348Y-68049564D01*
X178283348Y-68100364D02*
X81533348Y-68100364D01*
X178283348Y-68151164D02*
X81533348Y-68151164D01*
X178283348Y-68201964D02*
X81533348Y-68201964D01*
X178283348Y-68252764D02*
X81533348Y-68252764D01*
X178283348Y-68303564D02*
X81533348Y-68303564D01*
X178283348Y-68354364D02*
X81533348Y-68354364D01*
X178283348Y-68405164D02*
X81533348Y-68405164D01*
X178283348Y-68455964D02*
X81533348Y-68455964D01*
X178283348Y-68506764D02*
X81533348Y-68506764D01*
X178283348Y-68557564D02*
X81533348Y-68557564D01*
X178283348Y-68608364D02*
X81533348Y-68608364D01*
X178283348Y-68659164D02*
X81533348Y-68659164D01*
X178283348Y-68709964D02*
X81533348Y-68709964D01*
X178283348Y-68760764D02*
X81533348Y-68760764D01*
X178283348Y-68811564D02*
X81533348Y-68811564D01*
X178283348Y-68862364D02*
X81533348Y-68862364D01*
X178283348Y-68913164D02*
X81533348Y-68913164D01*
X178283348Y-68963964D02*
X81533348Y-68963964D01*
X178283348Y-69014764D02*
X81533348Y-69014764D01*
X178283348Y-69065564D02*
X81533348Y-69065564D01*
X178283348Y-69116364D02*
X81533348Y-69116364D01*
X178283348Y-69167164D02*
X81533348Y-69167164D01*
X178283348Y-69217964D02*
X81533348Y-69217964D01*
X178283348Y-69268764D02*
X81533348Y-69268764D01*
X178283348Y-69319564D02*
X81533348Y-69319564D01*
X178283348Y-69370364D02*
X81533348Y-69370364D01*
X178283348Y-69421164D02*
X81533348Y-69421164D01*
X178283348Y-69471964D02*
X81533348Y-69471964D01*
X178283348Y-69522764D02*
X81533348Y-69522764D01*
X178283348Y-69573564D02*
X81533348Y-69573564D01*
X178283348Y-69624364D02*
X81533348Y-69624364D01*
X178283348Y-69675164D02*
X81533348Y-69675164D01*
X178283348Y-69725964D02*
X81533348Y-69725964D01*
X178283348Y-69776764D02*
X81533348Y-69776764D01*
X178283348Y-69827564D02*
X81533348Y-69827564D01*
X178283348Y-69878364D02*
X81533348Y-69878364D01*
X178283348Y-69929164D02*
X81533348Y-69929164D01*
X178283348Y-69979964D02*
X81533348Y-69979964D01*
X178283348Y-70030764D02*
X81533348Y-70030764D01*
X178283348Y-70081564D02*
X81533348Y-70081564D01*
X178283348Y-70132364D02*
X81533348Y-70132364D01*
X178283348Y-70183164D02*
X81533348Y-70183164D01*
X178283348Y-70233964D02*
X81533348Y-70233964D01*
X178283348Y-70284764D02*
X81533348Y-70284764D01*
X178283348Y-70335564D02*
X81533348Y-70335564D01*
X178283348Y-70386364D02*
X81533348Y-70386364D01*
X178283348Y-70437164D02*
X81533348Y-70437164D01*
X178283348Y-70487964D02*
X81533348Y-70487964D01*
X178283348Y-70538764D02*
X81533348Y-70538764D01*
X178283348Y-70589564D02*
X81533348Y-70589564D01*
X178283348Y-70640364D02*
X81533348Y-70640364D01*
X178283348Y-70691164D02*
X81533348Y-70691164D01*
X178283348Y-70741964D02*
X81533348Y-70741964D01*
X178283348Y-70792764D02*
X81533348Y-70792764D01*
X178283348Y-70843564D02*
X81533348Y-70843564D01*
X178283348Y-70894364D02*
X81533348Y-70894364D01*
X178283348Y-70945164D02*
X81533348Y-70945164D01*
X178283348Y-70995964D02*
X81533348Y-70995964D01*
X178283348Y-71046764D02*
X81533348Y-71046764D01*
X178283348Y-71097564D02*
X81533348Y-71097564D01*
X178283348Y-71148364D02*
X81533348Y-71148364D01*
X178283348Y-71199164D02*
X81533348Y-71199164D01*
X178283348Y-71249964D02*
X81533348Y-71249964D01*
X178283348Y-71300764D02*
X81533348Y-71300764D01*
X178283348Y-71351564D02*
X81533348Y-71351564D01*
X178283348Y-71402364D02*
X81533348Y-71402364D01*
X178283348Y-71453164D02*
X81533348Y-71453164D01*
X178283348Y-71503964D02*
X81533348Y-71503964D01*
X178283348Y-71554764D02*
X81533348Y-71554764D01*
X178283348Y-71605564D02*
X81533348Y-71605564D01*
X178283348Y-71656364D02*
X81533348Y-71656364D01*
X178283348Y-71707164D02*
X81533348Y-71707164D01*
X178283348Y-71757964D02*
X81533348Y-71757964D01*
X178283348Y-71808764D02*
X81533348Y-71808764D01*
X178283348Y-71859564D02*
X81533348Y-71859564D01*
X178283348Y-71910364D02*
X81533348Y-71910364D01*
X178283348Y-71961164D02*
X81533348Y-71961164D01*
X178283348Y-72011964D02*
X81533348Y-72011964D01*
X178283348Y-72062764D02*
X81533348Y-72062764D01*
X178283348Y-72113564D02*
X81533348Y-72113564D01*
X178283348Y-72164364D02*
X81533348Y-72164364D01*
X178283348Y-72215164D02*
X81533348Y-72215164D01*
X178283348Y-72265964D02*
X81533348Y-72265964D01*
X178283348Y-72316764D02*
X81533348Y-72316764D01*
X178283348Y-72367564D02*
X81533348Y-72367564D01*
X178283348Y-72418364D02*
X81533348Y-72418364D01*
X178283348Y-72469164D02*
X81533348Y-72469164D01*
X178283348Y-72519964D02*
X81533348Y-72519964D01*
X178283348Y-72570764D02*
X81533348Y-72570764D01*
X178283348Y-72621564D02*
X81533348Y-72621564D01*
X178283348Y-72672364D02*
X81533348Y-72672364D01*
X178283348Y-72723164D02*
X81533348Y-72723164D01*
X178283348Y-72773964D02*
X81533348Y-72773964D01*
X178283348Y-72824764D02*
X81533348Y-72824764D01*
X178283348Y-72875564D02*
X81533348Y-72875564D01*
X178283348Y-72926364D02*
X81533348Y-72926364D01*
X178283348Y-72977164D02*
X81533348Y-72977164D01*
X178283348Y-73027964D02*
X81533348Y-73027964D01*
X178283348Y-73078764D02*
X81533348Y-73078764D01*
X178283348Y-73129564D02*
X81533348Y-73129564D01*
X178283348Y-73180364D02*
X81533348Y-73180364D01*
X178283348Y-73231164D02*
X81533348Y-73231164D01*
X178283348Y-73281964D02*
X81533348Y-73281964D01*
X178283348Y-73332764D02*
X81533348Y-73332764D01*
X178283348Y-73383564D02*
X81533348Y-73383564D01*
X178283348Y-73434364D02*
X81533348Y-73434364D01*
X178283348Y-73485164D02*
X81533348Y-73485164D01*
X178283348Y-73535964D02*
X81533348Y-73535964D01*
X178283348Y-73586764D02*
X81533348Y-73586764D01*
X178283348Y-73637564D02*
X81533348Y-73637564D01*
X178283348Y-73688364D02*
X81533348Y-73688364D01*
X178283348Y-73739164D02*
X81533348Y-73739164D01*
X178283348Y-73789964D02*
X81533348Y-73789964D01*
X178283348Y-73840764D02*
X81533348Y-73840764D01*
X178283348Y-73891564D02*
X81533348Y-73891564D01*
X178283348Y-73942364D02*
X81533348Y-73942364D01*
X178283348Y-73993164D02*
X81533348Y-73993164D01*
X178283348Y-74043964D02*
X81533348Y-74043964D01*
X178283348Y-74094764D02*
X81533348Y-74094764D01*
X178283348Y-74145564D02*
X81533348Y-74145564D01*
X178283348Y-74196364D02*
X81533348Y-74196364D01*
X178283348Y-74247164D02*
X81533348Y-74247164D01*
X178283348Y-74297964D02*
X81533348Y-74297964D01*
X178283348Y-74348764D02*
X81533348Y-74348764D01*
X178283348Y-74399564D02*
X81533348Y-74399564D01*
X178283348Y-74450364D02*
X81533348Y-74450364D01*
X178283348Y-74501164D02*
X81533348Y-74501164D01*
X178283348Y-74551964D02*
X81533348Y-74551964D01*
X178283348Y-74602764D02*
X81533348Y-74602764D01*
X178283348Y-74653564D02*
X81533348Y-74653564D01*
X178283348Y-74704364D02*
X81533348Y-74704364D01*
X178283348Y-74755164D02*
X81533348Y-74755164D01*
X178283348Y-74805964D02*
X81533348Y-74805964D01*
X178283348Y-74856764D02*
X81533348Y-74856764D01*
X178283348Y-74907564D02*
X81533348Y-74907564D01*
X178283348Y-74958364D02*
X81533348Y-74958364D01*
X178283348Y-75009164D02*
X81533348Y-75009164D01*
X178283348Y-75059964D02*
X81533348Y-75059964D01*
X178283348Y-75110764D02*
X81533348Y-75110764D01*
X178283348Y-75161564D02*
X81533348Y-75161564D01*
X178283348Y-75212364D02*
X81533348Y-75212364D01*
X178283348Y-75263164D02*
X81533348Y-75263164D01*
X178283348Y-75313964D02*
X81533348Y-75313964D01*
X178283348Y-75364764D02*
X81533348Y-75364764D01*
X178283348Y-75415564D02*
X81533348Y-75415564D01*
X178283348Y-75466364D02*
X81533348Y-75466364D01*
X178283348Y-75517164D02*
X81533348Y-75517164D01*
X178283348Y-75567964D02*
X81533348Y-75567964D01*
X178283348Y-75618764D02*
X81533348Y-75618764D01*
X178283348Y-75669564D02*
X81533348Y-75669564D01*
X178283348Y-75720364D02*
X81533348Y-75720364D01*
X178283348Y-75771164D02*
X81533348Y-75771164D01*
X178283348Y-75821964D02*
X81533348Y-75821964D01*
X178283348Y-75872764D02*
X81533348Y-75872764D01*
X178283348Y-75923564D02*
X81533348Y-75923564D01*
X178283348Y-75974364D02*
X81533348Y-75974364D01*
X178283348Y-76025164D02*
X81533348Y-76025164D01*
X178283348Y-76075964D02*
X81533348Y-76075964D01*
X178283348Y-76126764D02*
X81533348Y-76126764D01*
X178283348Y-76177564D02*
X81533348Y-76177564D01*
X178283348Y-76228364D02*
X81533348Y-76228364D01*
X178283348Y-76279164D02*
X81533348Y-76279164D01*
X178283348Y-76329964D02*
X81533348Y-76329964D01*
X178283348Y-76380764D02*
X81533348Y-76380764D01*
X178283348Y-76431564D02*
X81533348Y-76431564D01*
X178283348Y-76482364D02*
X81533348Y-76482364D01*
X178283348Y-76533164D02*
X81533348Y-76533164D01*
X178283348Y-76583964D02*
X81533348Y-76583964D01*
X178283348Y-76634764D02*
X81533348Y-76634764D01*
X178283348Y-76685564D02*
X81533348Y-76685564D01*
X178283348Y-76736364D02*
X81533348Y-76736364D01*
X178283348Y-76787164D02*
X81533348Y-76787164D01*
X178283348Y-76837964D02*
X81533348Y-76837964D01*
X178283348Y-76888764D02*
X81533348Y-76888764D01*
X178283348Y-76939564D02*
X81533348Y-76939564D01*
X178283348Y-76990364D02*
X81533348Y-76990364D01*
X178283348Y-77041164D02*
X81533348Y-77041164D01*
X178283348Y-77091964D02*
X81533348Y-77091964D01*
X178283348Y-77142764D02*
X81533348Y-77142764D01*
X178283348Y-77193564D02*
X81533348Y-77193564D01*
X178283348Y-77244364D02*
X81533348Y-77244364D01*
X178283348Y-77295164D02*
X81533348Y-77295164D01*
X178283348Y-77345964D02*
X81533348Y-77345964D01*
X178283348Y-77396764D02*
X81533348Y-77396764D01*
X178283348Y-77447564D02*
X81533348Y-77447564D01*
X178283348Y-77498364D02*
X81533348Y-77498364D01*
X178283348Y-77549164D02*
X81533348Y-77549164D01*
X178283348Y-77599964D02*
X81533348Y-77599964D01*
X178283348Y-77650764D02*
X81533348Y-77650764D01*
X178283348Y-77701564D02*
X81533348Y-77701564D01*
X178283348Y-77752364D02*
X81533348Y-77752364D01*
X178283348Y-77803164D02*
X81533348Y-77803164D01*
X178283348Y-77853964D02*
X81533348Y-77853964D01*
X178283348Y-77904764D02*
X81533348Y-77904764D01*
X178283348Y-77955564D02*
X81533348Y-77955564D01*
X178283348Y-78006364D02*
X81533348Y-78006364D01*
X178283348Y-78057164D02*
X81533348Y-78057164D01*
X178283348Y-78107964D02*
X81533348Y-78107964D01*
X178283348Y-78158764D02*
X81533348Y-78158764D01*
X178283348Y-78209564D02*
X81533348Y-78209564D01*
X178283348Y-78260364D02*
X81533348Y-78260364D01*
X178283348Y-78311164D02*
X81533348Y-78311164D01*
X178283348Y-78361964D02*
X81533348Y-78361964D01*
X178283348Y-78412764D02*
X81533348Y-78412764D01*
X178283348Y-78463564D02*
X81533348Y-78463564D01*
X178283348Y-78514364D02*
X81533348Y-78514364D01*
X178283348Y-78565164D02*
X81533348Y-78565164D01*
X178283348Y-78615964D02*
X81533348Y-78615964D01*
X178283348Y-78666764D02*
X81533348Y-78666764D01*
X178283348Y-78717564D02*
X81533348Y-78717564D01*
X178283348Y-78768364D02*
X81533348Y-78768364D01*
X178283348Y-78819164D02*
X81533348Y-78819164D01*
X178283348Y-78869964D02*
X81533348Y-78869964D01*
X178283348Y-78920764D02*
X81533348Y-78920764D01*
X178283348Y-78971564D02*
X81533348Y-78971564D01*
X178283348Y-79022364D02*
X81533348Y-79022364D01*
X164138209Y-79073164D02*
X81533348Y-79073164D01*
X178283348Y-79073164D02*
X164317065Y-79073164D01*
X163309224Y-79123964D02*
X81533348Y-79123964D01*
X178283348Y-79123964D02*
X164464655Y-79123964D01*
X162950559Y-79174764D02*
X81533348Y-79174764D01*
X178283348Y-79174764D02*
X164612245Y-79174764D01*
X162846435Y-79225564D02*
X81533348Y-79225564D01*
X178283348Y-79225564D02*
X164759836Y-79225564D01*
X162742311Y-79276364D02*
X81533348Y-79276364D01*
X178283348Y-79276364D02*
X164907426Y-79276364D01*
X162638186Y-79327164D02*
X81533348Y-79327164D01*
X178283348Y-79327164D02*
X165055016Y-79327164D01*
X162534062Y-79377964D02*
X81533348Y-79377964D01*
X178283348Y-79377964D02*
X165202606Y-79377964D01*
X162429938Y-79428764D02*
X81533348Y-79428764D01*
X178283348Y-79428764D02*
X165350197Y-79428764D01*
X162325813Y-79479564D02*
X81533348Y-79479564D01*
X178283348Y-79479564D02*
X165486996Y-79479564D01*
X162221689Y-79530364D02*
X81533348Y-79530364D01*
X178283348Y-79530364D02*
X165553489Y-79530364D01*
X162117564Y-79581164D02*
X81533348Y-79581164D01*
X178283348Y-79581164D02*
X165610922Y-79581164D01*
X162013440Y-79631964D02*
X81533348Y-79631964D01*
X178283348Y-79631964D02*
X165668354Y-79631964D01*
X161909316Y-79682764D02*
X81533348Y-79682764D01*
X178283348Y-79682764D02*
X165725787Y-79682764D01*
X161843656Y-79733564D02*
X81533348Y-79733564D01*
X178283348Y-79733564D02*
X165783219Y-79733564D01*
X161798722Y-79784364D02*
X81533348Y-79784364D01*
X178283348Y-79784364D02*
X165840652Y-79784364D01*
X161753789Y-79835164D02*
X81533348Y-79835164D01*
X178283348Y-79835164D02*
X165898084Y-79835164D01*
X161708855Y-79885964D02*
X81533348Y-79885964D01*
X178283348Y-79885964D02*
X165955517Y-79885964D01*
X161663922Y-79936764D02*
X81533348Y-79936764D01*
X178283348Y-79936764D02*
X166012949Y-79936764D01*
X161618988Y-79987564D02*
X81533348Y-79987564D01*
X178283348Y-79987564D02*
X166070382Y-79987564D01*
X161574055Y-80038364D02*
X81533348Y-80038364D01*
X178283348Y-80038364D02*
X166127814Y-80038364D01*
X161529121Y-80089164D02*
X81533348Y-80089164D01*
X178283348Y-80089164D02*
X166185247Y-80089164D01*
X161484188Y-80139964D02*
X81533348Y-80139964D01*
X178283348Y-80139964D02*
X166242679Y-80139964D01*
X161439255Y-80190764D02*
X81533348Y-80190764D01*
X178283348Y-80190764D02*
X166300112Y-80190764D01*
X161394321Y-80241564D02*
X81533348Y-80241564D01*
X178283348Y-80241564D02*
X166357544Y-80241564D01*
X161349388Y-80292364D02*
X81533348Y-80292364D01*
X178283348Y-80292364D02*
X166414977Y-80292364D01*
X161304454Y-80343164D02*
X81533348Y-80343164D01*
X178283348Y-80343164D02*
X166460426Y-80343164D01*
X161259521Y-80393964D02*
X81533348Y-80393964D01*
X178283348Y-80393964D02*
X166494631Y-80393964D01*
X161214587Y-80444764D02*
X81533348Y-80444764D01*
X178283348Y-80444764D02*
X166528836Y-80444764D01*
X161169654Y-80495564D02*
X81533348Y-80495564D01*
X178283348Y-80495564D02*
X166563042Y-80495564D01*
X161124720Y-80546364D02*
X81533348Y-80546364D01*
X178283348Y-80546364D02*
X166597247Y-80546364D01*
X161079787Y-80597164D02*
X81533348Y-80597164D01*
X178283348Y-80597164D02*
X166631452Y-80597164D01*
X161038333Y-80647964D02*
X81533348Y-80647964D01*
X178283348Y-80647964D02*
X166662753Y-80647964D01*
X161013542Y-80698764D02*
X81533348Y-80698764D01*
X178283348Y-80698764D02*
X166674829Y-80698764D01*
X160996057Y-80749564D02*
X81533348Y-80749564D01*
X178283348Y-80749564D02*
X166675157Y-80749564D01*
X160978572Y-80800364D02*
X81533348Y-80800364D01*
X178283348Y-80800364D02*
X166675316Y-80800364D01*
X160961087Y-80851164D02*
X81533348Y-80851164D01*
X178283348Y-80851164D02*
X166675476Y-80851164D01*
X160943601Y-80901964D02*
X81533348Y-80901964D01*
X178283348Y-80901964D02*
X166675636Y-80901964D01*
X160926116Y-80952764D02*
X81533348Y-80952764D01*
X178283348Y-80952764D02*
X166675796Y-80952764D01*
X160908631Y-81003564D02*
X81533348Y-81003564D01*
X178283348Y-81003564D02*
X166675955Y-81003564D01*
X160891146Y-81054364D02*
X81533348Y-81054364D01*
X178283348Y-81054364D02*
X166676115Y-81054364D01*
X160873661Y-81105164D02*
X81533348Y-81105164D01*
X178283348Y-81105164D02*
X166676275Y-81105164D01*
X160856176Y-81155964D02*
X81533348Y-81155964D01*
X178283348Y-81155964D02*
X166676435Y-81155964D01*
X160838691Y-81206764D02*
X81533348Y-81206764D01*
X178283348Y-81206764D02*
X166676594Y-81206764D01*
X160821206Y-81257564D02*
X81533348Y-81257564D01*
X178283348Y-81257564D02*
X166676754Y-81257564D01*
X160795072Y-81308364D02*
X81533348Y-81308364D01*
X178283348Y-81308364D02*
X166676914Y-81308364D01*
X160768335Y-81359164D02*
X81533348Y-81359164D01*
X178283348Y-81359164D02*
X166677074Y-81359164D01*
X160754278Y-81409964D02*
X81533348Y-81409964D01*
X178283348Y-81409964D02*
X166677233Y-81409964D01*
X160749198Y-81460764D02*
X81533348Y-81460764D01*
X178283348Y-81460764D02*
X166677393Y-81460764D01*
X160733780Y-81511564D02*
X81533348Y-81511564D01*
X178283348Y-81511564D02*
X166677553Y-81511564D01*
X160716294Y-81562364D02*
X81533348Y-81562364D01*
X178283348Y-81562364D02*
X166677712Y-81562364D01*
X160698809Y-81613164D02*
X81533348Y-81613164D01*
X178283348Y-81613164D02*
X166677872Y-81613164D01*
X160681324Y-81663964D02*
X81533348Y-81663964D01*
X178283348Y-81663964D02*
X166678032Y-81663964D01*
X160663839Y-81714764D02*
X81533348Y-81714764D01*
X178283348Y-81714764D02*
X166678192Y-81714764D01*
X160646354Y-81765564D02*
X81533348Y-81765564D01*
X178283348Y-81765564D02*
X166678351Y-81765564D01*
X160628868Y-81816364D02*
X81533348Y-81816364D01*
X178283348Y-81816364D02*
X166678511Y-81816364D01*
X160617777Y-81867164D02*
X81533348Y-81867164D01*
X178283348Y-81867164D02*
X166678671Y-81867164D01*
X160617414Y-81917964D02*
X81533348Y-81917964D01*
X178283348Y-81917964D02*
X166678831Y-81917964D01*
X160620527Y-81968764D02*
X81533348Y-81968764D01*
X178283348Y-81968764D02*
X166678990Y-81968764D01*
X160623640Y-82019564D02*
X81533348Y-82019564D01*
X178283348Y-82019564D02*
X166679150Y-82019564D01*
X109625889Y-82070364D02*
X81533348Y-82070364D01*
X160626753Y-82070364D02*
X114997912Y-82070364D01*
X178283348Y-82070364D02*
X166679310Y-82070364D01*
X109594693Y-82121164D02*
X81533348Y-82121164D01*
X160629866Y-82121164D02*
X115029108Y-82121164D01*
X178283348Y-82121164D02*
X166679470Y-82121164D01*
X109586900Y-82171964D02*
X81533348Y-82171964D01*
X160632979Y-82171964D02*
X115036900Y-82171964D01*
X178283348Y-82171964D02*
X166679629Y-82171964D01*
X109586900Y-82222764D02*
X81533348Y-82222764D01*
X160636092Y-82222764D02*
X115036900Y-82222764D01*
X178283348Y-82222764D02*
X166679789Y-82222764D01*
X109586900Y-82273564D02*
X81533348Y-82273564D01*
X160639205Y-82273564D02*
X115036900Y-82273564D01*
X178283348Y-82273564D02*
X166679949Y-82273564D01*
X109586900Y-82324364D02*
X81533348Y-82324364D01*
X160642318Y-82324364D02*
X115036900Y-82324364D01*
X178283348Y-82324364D02*
X166680109Y-82324364D01*
X109586900Y-82375164D02*
X81533348Y-82375164D01*
X160645431Y-82375164D02*
X115036900Y-82375164D01*
X178283348Y-82375164D02*
X166680268Y-82375164D01*
X109586900Y-82425964D02*
X81533348Y-82425964D01*
X160648544Y-82425964D02*
X115036900Y-82425964D01*
X178283348Y-82425964D02*
X166680428Y-82425964D01*
X109586900Y-82476764D02*
X81533348Y-82476764D01*
X160651657Y-82476764D02*
X115036900Y-82476764D01*
X178283348Y-82476764D02*
X166680588Y-82476764D01*
X109586900Y-82527564D02*
X81533348Y-82527564D01*
X160654770Y-82527564D02*
X115036900Y-82527564D01*
X178283348Y-82527564D02*
X166680748Y-82527564D01*
X109586900Y-82578364D02*
X81533348Y-82578364D01*
X160657883Y-82578364D02*
X115036900Y-82578364D01*
X178283348Y-82578364D02*
X166680907Y-82578364D01*
X109586900Y-82629164D02*
X81533348Y-82629164D01*
X160660996Y-82629164D02*
X115036900Y-82629164D01*
X178283348Y-82629164D02*
X166681067Y-82629164D01*
X109586900Y-82679964D02*
X81533348Y-82679964D01*
X160664109Y-82679964D02*
X115036900Y-82679964D01*
X178283348Y-82679964D02*
X166681227Y-82679964D01*
X109586900Y-82730764D02*
X81533348Y-82730764D01*
X160667222Y-82730764D02*
X115036900Y-82730764D01*
X178283348Y-82730764D02*
X166681387Y-82730764D01*
X109586900Y-82781564D02*
X81533348Y-82781564D01*
X160670335Y-82781564D02*
X115036900Y-82781564D01*
X178283348Y-82781564D02*
X166681546Y-82781564D01*
X109586900Y-82832364D02*
X81533348Y-82832364D01*
X160673448Y-82832364D02*
X115036900Y-82832364D01*
X178283348Y-82832364D02*
X166681706Y-82832364D01*
X109586900Y-82883164D02*
X81533348Y-82883164D01*
X160676561Y-82883164D02*
X115036900Y-82883164D01*
X178283348Y-82883164D02*
X166681866Y-82883164D01*
X109586900Y-82933964D02*
X81533348Y-82933964D01*
X160679674Y-82933964D02*
X115036900Y-82933964D01*
X178283348Y-82933964D02*
X166682026Y-82933964D01*
X109586900Y-82984764D02*
X81533348Y-82984764D01*
X160682787Y-82984764D02*
X115036900Y-82984764D01*
X178283348Y-82984764D02*
X166682185Y-82984764D01*
X109586900Y-83035564D02*
X81533348Y-83035564D01*
X160685900Y-83035564D02*
X115036900Y-83035564D01*
X178283348Y-83035564D02*
X166682345Y-83035564D01*
X109586900Y-83086364D02*
X81533348Y-83086364D01*
X160689013Y-83086364D02*
X115036900Y-83086364D01*
X178283348Y-83086364D02*
X166682505Y-83086364D01*
X109586900Y-83137164D02*
X81533348Y-83137164D01*
X160698210Y-83137164D02*
X115036900Y-83137164D01*
X178283348Y-83137164D02*
X166682664Y-83137164D01*
X109586900Y-83187964D02*
X81533348Y-83187964D01*
X160719164Y-83187964D02*
X115036900Y-83187964D01*
X178283348Y-83187964D02*
X166682824Y-83187964D01*
X109586900Y-83238764D02*
X81533348Y-83238764D01*
X160743948Y-83238764D02*
X115036900Y-83238764D01*
X178283348Y-83238764D02*
X166682984Y-83238764D01*
X109586900Y-83289564D02*
X81533348Y-83289564D01*
X160768732Y-83289564D02*
X115036900Y-83289564D01*
X178283348Y-83289564D02*
X166683144Y-83289564D01*
X109586900Y-83340364D02*
X81533348Y-83340364D01*
X160793517Y-83340364D02*
X115036900Y-83340364D01*
X178283348Y-83340364D02*
X166683303Y-83340364D01*
X109586900Y-83391164D02*
X81533348Y-83391164D01*
X160818301Y-83391164D02*
X115036900Y-83391164D01*
X178283348Y-83391164D02*
X166683463Y-83391164D01*
X109586900Y-83441964D02*
X81533348Y-83441964D01*
X160843085Y-83441964D02*
X115036900Y-83441964D01*
X178283348Y-83441964D02*
X166683623Y-83441964D01*
X109586900Y-83492764D02*
X81533348Y-83492764D01*
X160867869Y-83492764D02*
X115036900Y-83492764D01*
X178283348Y-83492764D02*
X166683783Y-83492764D01*
X109586900Y-83543564D02*
X81533348Y-83543564D01*
X160892654Y-83543564D02*
X115036900Y-83543564D01*
X178283348Y-83543564D02*
X166683942Y-83543564D01*
X109586900Y-83594364D02*
X81533348Y-83594364D01*
X160917438Y-83594364D02*
X115036900Y-83594364D01*
X178283348Y-83594364D02*
X166684102Y-83594364D01*
X109586900Y-83645164D02*
X81533348Y-83645164D01*
X160942222Y-83645164D02*
X115036900Y-83645164D01*
X178283348Y-83645164D02*
X166684262Y-83645164D01*
X109586900Y-83695964D02*
X81533348Y-83695964D01*
X160967006Y-83695964D02*
X115036900Y-83695964D01*
X178283348Y-83695964D02*
X166684422Y-83695964D01*
X109586900Y-83746764D02*
X81533348Y-83746764D01*
X160991790Y-83746764D02*
X115036900Y-83746764D01*
X178283348Y-83746764D02*
X166684581Y-83746764D01*
X109586900Y-83797564D02*
X81533348Y-83797564D01*
X161016575Y-83797564D02*
X115036900Y-83797564D01*
X178283348Y-83797564D02*
X166684741Y-83797564D01*
X109586900Y-83848364D02*
X81533348Y-83848364D01*
X161041359Y-83848364D02*
X115036900Y-83848364D01*
X178283348Y-83848364D02*
X166684901Y-83848364D01*
X109586900Y-83899164D02*
X81533348Y-83899164D01*
X161066143Y-83899164D02*
X115036900Y-83899164D01*
X178283348Y-83899164D02*
X166682531Y-83899164D01*
X109586900Y-83949964D02*
X81533348Y-83949964D01*
X122856419Y-83949964D02*
X115036900Y-83949964D01*
X161090927Y-83949964D02*
X137967382Y-83949964D01*
X178283348Y-83949964D02*
X166662874Y-83949964D01*
X109586900Y-84000764D02*
X81533348Y-84000764D01*
X122804261Y-84000764D02*
X115036900Y-84000764D01*
X161115711Y-84000764D02*
X138019540Y-84000764D01*
X178283348Y-84000764D02*
X166622046Y-84000764D01*
X109586900Y-84051564D02*
X81533348Y-84051564D01*
X122788646Y-84051564D02*
X115036900Y-84051564D01*
X161140496Y-84051564D02*
X138035155Y-84051564D01*
X178283348Y-84051564D02*
X166577112Y-84051564D01*
X109586900Y-84102364D02*
X81533348Y-84102364D01*
X122786900Y-84102364D02*
X115036900Y-84102364D01*
X161165280Y-84102364D02*
X138036900Y-84102364D01*
X178283348Y-84102364D02*
X166532179Y-84102364D01*
X109586900Y-84153164D02*
X81533348Y-84153164D01*
X122786900Y-84153164D02*
X115036900Y-84153164D01*
X161190064Y-84153164D02*
X138036900Y-84153164D01*
X178283348Y-84153164D02*
X166487246Y-84153164D01*
X109586900Y-84203964D02*
X81533348Y-84203964D01*
X122786900Y-84203964D02*
X115036900Y-84203964D01*
X161214848Y-84203964D02*
X138036900Y-84203964D01*
X178283348Y-84203964D02*
X166442312Y-84203964D01*
X109586900Y-84254764D02*
X81533348Y-84254764D01*
X122786900Y-84254764D02*
X115036900Y-84254764D01*
X161239632Y-84254764D02*
X138036900Y-84254764D01*
X178283348Y-84254764D02*
X166397379Y-84254764D01*
X109586900Y-84305564D02*
X81533348Y-84305564D01*
X122786900Y-84305564D02*
X115036900Y-84305564D01*
X161282680Y-84305564D02*
X138036900Y-84305564D01*
X178283348Y-84305564D02*
X166352445Y-84305564D01*
X109586900Y-84356364D02*
X81533348Y-84356364D01*
X122786900Y-84356364D02*
X115036900Y-84356364D01*
X161340112Y-84356364D02*
X138036900Y-84356364D01*
X178283348Y-84356364D02*
X166307512Y-84356364D01*
X109586900Y-84407164D02*
X81533348Y-84407164D01*
X122786900Y-84407164D02*
X115036900Y-84407164D01*
X161397545Y-84407164D02*
X138036900Y-84407164D01*
X178283348Y-84407164D02*
X166262578Y-84407164D01*
X109586900Y-84457964D02*
X81533348Y-84457964D01*
X122786900Y-84457964D02*
X115036900Y-84457964D01*
X161454978Y-84457964D02*
X138036900Y-84457964D01*
X178283348Y-84457964D02*
X166217645Y-84457964D01*
X109586900Y-84508764D02*
X81533348Y-84508764D01*
X122786900Y-84508764D02*
X115036900Y-84508764D01*
X161512410Y-84508764D02*
X138036900Y-84508764D01*
X178283348Y-84508764D02*
X166172712Y-84508764D01*
X109586900Y-84559564D02*
X81533348Y-84559564D01*
X122786900Y-84559564D02*
X115036900Y-84559564D01*
X161569843Y-84559564D02*
X138036900Y-84559564D01*
X178283348Y-84559564D02*
X166127778Y-84559564D01*
X109586900Y-84610364D02*
X81533348Y-84610364D01*
X122786900Y-84610364D02*
X115036900Y-84610364D01*
X161627275Y-84610364D02*
X138036900Y-84610364D01*
X178283348Y-84610364D02*
X166082845Y-84610364D01*
X109586900Y-84661164D02*
X81533348Y-84661164D01*
X122786900Y-84661164D02*
X115036900Y-84661164D01*
X161684708Y-84661164D02*
X138036900Y-84661164D01*
X178283348Y-84661164D02*
X166037911Y-84661164D01*
X109586900Y-84711964D02*
X81533348Y-84711964D01*
X122786900Y-84711964D02*
X115036900Y-84711964D01*
X161742140Y-84711964D02*
X138036900Y-84711964D01*
X178283348Y-84711964D02*
X165992978Y-84711964D01*
X109586900Y-84762764D02*
X81533348Y-84762764D01*
X122786900Y-84762764D02*
X115036900Y-84762764D01*
X161799573Y-84762764D02*
X138036900Y-84762764D01*
X178283348Y-84762764D02*
X165948045Y-84762764D01*
X109586900Y-84813564D02*
X81533348Y-84813564D01*
X122786900Y-84813564D02*
X115036900Y-84813564D01*
X161857005Y-84813564D02*
X138036900Y-84813564D01*
X178283348Y-84813564D02*
X165903111Y-84813564D01*
X109586900Y-84864364D02*
X81533348Y-84864364D01*
X122786900Y-84864364D02*
X115036900Y-84864364D01*
X161914438Y-84864364D02*
X138036900Y-84864364D01*
X178283348Y-84864364D02*
X165858178Y-84864364D01*
X109586900Y-84915164D02*
X81533348Y-84915164D01*
X122786900Y-84915164D02*
X115036900Y-84915164D01*
X161971870Y-84915164D02*
X138036900Y-84915164D01*
X178283348Y-84915164D02*
X165794931Y-84915164D01*
X109586900Y-84965964D02*
X81533348Y-84965964D01*
X122786900Y-84965964D02*
X115036900Y-84965964D01*
X162029303Y-84965964D02*
X138036900Y-84965964D01*
X178283348Y-84965964D02*
X165690807Y-84965964D01*
X109586900Y-85016764D02*
X81533348Y-85016764D01*
X122786900Y-85016764D02*
X115036900Y-85016764D01*
X162086735Y-85016764D02*
X138036900Y-85016764D01*
X178283348Y-85016764D02*
X165586683Y-85016764D01*
X109586900Y-85067564D02*
X81533348Y-85067564D01*
X122786900Y-85067564D02*
X115036900Y-85067564D01*
X162144168Y-85067564D02*
X138036900Y-85067564D01*
X178283348Y-85067564D02*
X165482558Y-85067564D01*
X109586900Y-85118364D02*
X81533348Y-85118364D01*
X122786900Y-85118364D02*
X115036900Y-85118364D01*
X162209451Y-85118364D02*
X138036900Y-85118364D01*
X178283348Y-85118364D02*
X165378434Y-85118364D01*
X109586900Y-85169164D02*
X81533348Y-85169164D01*
X122786900Y-85169164D02*
X115036900Y-85169164D01*
X162343784Y-85169164D02*
X138036900Y-85169164D01*
X178283348Y-85169164D02*
X165274309Y-85169164D01*
X109586900Y-85219964D02*
X81533348Y-85219964D01*
X122786900Y-85219964D02*
X115036900Y-85219964D01*
X162491374Y-85219964D02*
X138036900Y-85219964D01*
X178283348Y-85219964D02*
X165170185Y-85219964D01*
X109586900Y-85270764D02*
X81533348Y-85270764D01*
X122786900Y-85270764D02*
X115036900Y-85270764D01*
X162603981Y-85270764D02*
X138036900Y-85270764D01*
X178283348Y-85270764D02*
X165066061Y-85270764D01*
X109586900Y-85321564D02*
X81533348Y-85321564D01*
X122786900Y-85321564D02*
X115036900Y-85321564D01*
X162777531Y-85321564D02*
X138036900Y-85321564D01*
X178283348Y-85321564D02*
X164961936Y-85321564D01*
X109586900Y-85372364D02*
X81533348Y-85372364D01*
X122786900Y-85372364D02*
X115036900Y-85372364D01*
X162934146Y-85372364D02*
X138036900Y-85372364D01*
X178283348Y-85372364D02*
X164857812Y-85372364D01*
X109586900Y-85423164D02*
X81533348Y-85423164D01*
X122786900Y-85423164D02*
X115036900Y-85423164D01*
X163081737Y-85423164D02*
X138036900Y-85423164D01*
X178283348Y-85423164D02*
X164753688Y-85423164D01*
X109586900Y-85473964D02*
X81533348Y-85473964D01*
X122786900Y-85473964D02*
X115036900Y-85473964D01*
X163229328Y-85473964D02*
X138036900Y-85473964D01*
X178283348Y-85473964D02*
X164424588Y-85473964D01*
X109586900Y-85524764D02*
X81533348Y-85524764D01*
X122786900Y-85524764D02*
X115036900Y-85524764D01*
X163376918Y-85524764D02*
X138036900Y-85524764D01*
X178283348Y-85524764D02*
X163595604Y-85524764D01*
X109586900Y-85575564D02*
X81533348Y-85575564D01*
X122786900Y-85575564D02*
X115036900Y-85575564D01*
X178283348Y-85575564D02*
X138036900Y-85575564D01*
X109586900Y-85626364D02*
X81533348Y-85626364D01*
X122786900Y-85626364D02*
X115036900Y-85626364D01*
X178283348Y-85626364D02*
X138036900Y-85626364D01*
X109586900Y-85677164D02*
X81533348Y-85677164D01*
X122786900Y-85677164D02*
X115036900Y-85677164D01*
X178283348Y-85677164D02*
X138036900Y-85677164D01*
X109586900Y-85727964D02*
X81533348Y-85727964D01*
X122786900Y-85727964D02*
X115036900Y-85727964D01*
X178283348Y-85727964D02*
X138036900Y-85727964D01*
X109586900Y-85778764D02*
X81533348Y-85778764D01*
X122786900Y-85778764D02*
X115036900Y-85778764D01*
X178283348Y-85778764D02*
X138036900Y-85778764D01*
X109586900Y-85829564D02*
X81533348Y-85829564D01*
X122786900Y-85829564D02*
X115036900Y-85829564D01*
X178283348Y-85829564D02*
X138036900Y-85829564D01*
X109586900Y-85880364D02*
X81533348Y-85880364D01*
X122786900Y-85880364D02*
X115036900Y-85880364D01*
X178283348Y-85880364D02*
X138036900Y-85880364D01*
X109586900Y-85931164D02*
X81533348Y-85931164D01*
X122786900Y-85931164D02*
X115036900Y-85931164D01*
X178283348Y-85931164D02*
X138036900Y-85931164D01*
X109586900Y-85981964D02*
X81533348Y-85981964D01*
X122786900Y-85981964D02*
X115036900Y-85981964D01*
X178283348Y-85981964D02*
X138036900Y-85981964D01*
X109586900Y-86032764D02*
X81533348Y-86032764D01*
X122786900Y-86032764D02*
X115036900Y-86032764D01*
X178283348Y-86032764D02*
X138036900Y-86032764D01*
X109586900Y-86083564D02*
X81533348Y-86083564D01*
X122786900Y-86083564D02*
X115036900Y-86083564D01*
X178283348Y-86083564D02*
X138036900Y-86083564D01*
X109586900Y-86134364D02*
X81533348Y-86134364D01*
X122786900Y-86134364D02*
X115036900Y-86134364D01*
X178283348Y-86134364D02*
X138036900Y-86134364D01*
X109586900Y-86185164D02*
X81533348Y-86185164D01*
X122786900Y-86185164D02*
X115036900Y-86185164D01*
X178283348Y-86185164D02*
X138036900Y-86185164D01*
X109586900Y-86235964D02*
X81533348Y-86235964D01*
X122786900Y-86235964D02*
X115036900Y-86235964D01*
X178283348Y-86235964D02*
X138036900Y-86235964D01*
X109586900Y-86286764D02*
X81533348Y-86286764D01*
X122786900Y-86286764D02*
X115036900Y-86286764D01*
X178283348Y-86286764D02*
X138036900Y-86286764D01*
X109586900Y-86337564D02*
X81533348Y-86337564D01*
X122786900Y-86337564D02*
X115036900Y-86337564D01*
X178283348Y-86337564D02*
X138036900Y-86337564D01*
X109586900Y-86388364D02*
X81533348Y-86388364D01*
X122786900Y-86388364D02*
X115036900Y-86388364D01*
X178283348Y-86388364D02*
X138036900Y-86388364D01*
X109586900Y-86439164D02*
X81533348Y-86439164D01*
X122786900Y-86439164D02*
X115036900Y-86439164D01*
X178283348Y-86439164D02*
X138036900Y-86439164D01*
X109586900Y-86489964D02*
X81533348Y-86489964D01*
X122786900Y-86489964D02*
X115036900Y-86489964D01*
X178283348Y-86489964D02*
X138036900Y-86489964D01*
X109586900Y-86540764D02*
X81533348Y-86540764D01*
X122786900Y-86540764D02*
X115036900Y-86540764D01*
X178283348Y-86540764D02*
X138036900Y-86540764D01*
X109586900Y-86591564D02*
X81533348Y-86591564D01*
X122786900Y-86591564D02*
X115036900Y-86591564D01*
X178283348Y-86591564D02*
X138036900Y-86591564D01*
X109586900Y-86642364D02*
X81533348Y-86642364D01*
X122786900Y-86642364D02*
X115036900Y-86642364D01*
X178283348Y-86642364D02*
X138036900Y-86642364D01*
X109586900Y-86693164D02*
X81533348Y-86693164D01*
X122786900Y-86693164D02*
X115036900Y-86693164D01*
X178283348Y-86693164D02*
X138036900Y-86693164D01*
X109586900Y-86743964D02*
X81533348Y-86743964D01*
X122786900Y-86743964D02*
X115036900Y-86743964D01*
X178283348Y-86743964D02*
X138036900Y-86743964D01*
X109586900Y-86794764D02*
X81533348Y-86794764D01*
X122786900Y-86794764D02*
X115036900Y-86794764D01*
X178283348Y-86794764D02*
X138036900Y-86794764D01*
X109586900Y-86845564D02*
X81533348Y-86845564D01*
X122786900Y-86845564D02*
X115036900Y-86845564D01*
X178283348Y-86845564D02*
X138036900Y-86845564D01*
X109586900Y-86896364D02*
X81533348Y-86896364D01*
X122786900Y-86896364D02*
X115036900Y-86896364D01*
X178283348Y-86896364D02*
X138036900Y-86896364D01*
X109586900Y-86947164D02*
X81533348Y-86947164D01*
X122786900Y-86947164D02*
X115036900Y-86947164D01*
X178283348Y-86947164D02*
X138036900Y-86947164D01*
X109586900Y-86997964D02*
X81533348Y-86997964D01*
X122786900Y-86997964D02*
X115036900Y-86997964D01*
X178283348Y-86997964D02*
X138036900Y-86997964D01*
X109586900Y-87048764D02*
X81533348Y-87048764D01*
X122786900Y-87048764D02*
X115036900Y-87048764D01*
X178283348Y-87048764D02*
X138036900Y-87048764D01*
X109586900Y-87099564D02*
X81533348Y-87099564D01*
X122786900Y-87099564D02*
X115036900Y-87099564D01*
X178283348Y-87099564D02*
X138036900Y-87099564D01*
X109586900Y-87150364D02*
X81533348Y-87150364D01*
X122786900Y-87150364D02*
X115036900Y-87150364D01*
X178283348Y-87150364D02*
X138036900Y-87150364D01*
X109586900Y-87201164D02*
X81533348Y-87201164D01*
X122786900Y-87201164D02*
X115036900Y-87201164D01*
X178283348Y-87201164D02*
X138036900Y-87201164D01*
X109586900Y-87251964D02*
X81533348Y-87251964D01*
X122786900Y-87251964D02*
X115036900Y-87251964D01*
X178283348Y-87251964D02*
X138036900Y-87251964D01*
X109586900Y-87302764D02*
X81533348Y-87302764D01*
X122786900Y-87302764D02*
X115036900Y-87302764D01*
X178283348Y-87302764D02*
X138036900Y-87302764D01*
X109586900Y-87353564D02*
X81533348Y-87353564D01*
X122786900Y-87353564D02*
X115036900Y-87353564D01*
X178283348Y-87353564D02*
X138036900Y-87353564D01*
X109586900Y-87404364D02*
X81533348Y-87404364D01*
X122786900Y-87404364D02*
X115036900Y-87404364D01*
X178283348Y-87404364D02*
X138036900Y-87404364D01*
X109586900Y-87455164D02*
X81533348Y-87455164D01*
X122786900Y-87455164D02*
X115036900Y-87455164D01*
X178283348Y-87455164D02*
X138036900Y-87455164D01*
X109586900Y-87505964D02*
X81533348Y-87505964D01*
X122786900Y-87505964D02*
X115036900Y-87505964D01*
X178283348Y-87505964D02*
X138036900Y-87505964D01*
X109586900Y-87556764D02*
X81533348Y-87556764D01*
X122786900Y-87556764D02*
X115036900Y-87556764D01*
X178283348Y-87556764D02*
X138036900Y-87556764D01*
X109586900Y-87607564D02*
X81533348Y-87607564D01*
X122786900Y-87607564D02*
X115036900Y-87607564D01*
X178283348Y-87607564D02*
X138036900Y-87607564D01*
X109586900Y-87658364D02*
X81533348Y-87658364D01*
X122786900Y-87658364D02*
X115036900Y-87658364D01*
X178283348Y-87658364D02*
X138036900Y-87658364D01*
X109586900Y-87709164D02*
X81533348Y-87709164D01*
X122786900Y-87709164D02*
X115036900Y-87709164D01*
X178283348Y-87709164D02*
X138036900Y-87709164D01*
X109586900Y-87759964D02*
X81533348Y-87759964D01*
X122786900Y-87759964D02*
X115036900Y-87759964D01*
X178283348Y-87759964D02*
X138036900Y-87759964D01*
X109586900Y-87810764D02*
X81533348Y-87810764D01*
X122798144Y-87810764D02*
X115036900Y-87810764D01*
X178283348Y-87810764D02*
X138025655Y-87810764D01*
X109586900Y-87861564D02*
X81533348Y-87861564D01*
X122842722Y-87861564D02*
X115036900Y-87861564D01*
X178283348Y-87861564D02*
X137981077Y-87861564D01*
X109586900Y-87912364D02*
X81533348Y-87912364D01*
X123786900Y-87912364D02*
X115036900Y-87912364D01*
X178283348Y-87912364D02*
X136536900Y-87912364D01*
X109586900Y-87963164D02*
X81533348Y-87963164D01*
X123786900Y-87963164D02*
X115036900Y-87963164D01*
X178283348Y-87963164D02*
X136536900Y-87963164D01*
X109586900Y-88013964D02*
X81533348Y-88013964D01*
X123786900Y-88013964D02*
X115036900Y-88013964D01*
X178283348Y-88013964D02*
X136536900Y-88013964D01*
X109586900Y-88064764D02*
X81533348Y-88064764D01*
X123786900Y-88064764D02*
X115036900Y-88064764D01*
X178283348Y-88064764D02*
X136536900Y-88064764D01*
X109586900Y-88115564D02*
X81533348Y-88115564D01*
X123786900Y-88115564D02*
X115036900Y-88115564D01*
X178283348Y-88115564D02*
X136536900Y-88115564D01*
X109586900Y-88166364D02*
X81533348Y-88166364D01*
X123786900Y-88166364D02*
X115036900Y-88166364D01*
X178283348Y-88166364D02*
X136536900Y-88166364D01*
X109586900Y-88217164D02*
X81533348Y-88217164D01*
X123786900Y-88217164D02*
X115036900Y-88217164D01*
X178283348Y-88217164D02*
X136536900Y-88217164D01*
X109586900Y-88267964D02*
X81533348Y-88267964D01*
X123786900Y-88267964D02*
X115036900Y-88267964D01*
X178283348Y-88267964D02*
X136536900Y-88267964D01*
X109586900Y-88318764D02*
X81533348Y-88318764D01*
X123786900Y-88318764D02*
X115036900Y-88318764D01*
X178283348Y-88318764D02*
X136536900Y-88318764D01*
X109586900Y-88369564D02*
X81533348Y-88369564D01*
X123786900Y-88369564D02*
X115036900Y-88369564D01*
X178283348Y-88369564D02*
X136536900Y-88369564D01*
X109586900Y-88420364D02*
X81533348Y-88420364D01*
X123786900Y-88420364D02*
X115036900Y-88420364D01*
X178283348Y-88420364D02*
X136536900Y-88420364D01*
X109586900Y-88471164D02*
X81533348Y-88471164D01*
X123786900Y-88471164D02*
X115036900Y-88471164D01*
X178283348Y-88471164D02*
X136536900Y-88471164D01*
X109586900Y-88521964D02*
X81533348Y-88521964D01*
X123786900Y-88521964D02*
X115036900Y-88521964D01*
X178283348Y-88521964D02*
X136536900Y-88521964D01*
X109586900Y-88572764D02*
X81533348Y-88572764D01*
X123786900Y-88572764D02*
X115036900Y-88572764D01*
X178283348Y-88572764D02*
X136536900Y-88572764D01*
X109586900Y-88623564D02*
X81533348Y-88623564D01*
X123786900Y-88623564D02*
X115036900Y-88623564D01*
X178283348Y-88623564D02*
X136536900Y-88623564D01*
X109586900Y-88674364D02*
X81533348Y-88674364D01*
X123786900Y-88674364D02*
X115036900Y-88674364D01*
X178283348Y-88674364D02*
X136536900Y-88674364D01*
X109586900Y-88725164D02*
X81533348Y-88725164D01*
X123786900Y-88725164D02*
X115036900Y-88725164D01*
X178283348Y-88725164D02*
X136536900Y-88725164D01*
X109586900Y-88775964D02*
X81533348Y-88775964D01*
X123786900Y-88775964D02*
X115036900Y-88775964D01*
X178283348Y-88775964D02*
X136536900Y-88775964D01*
X109586900Y-88826764D02*
X81533348Y-88826764D01*
X123786900Y-88826764D02*
X115036900Y-88826764D01*
X178283348Y-88826764D02*
X136536900Y-88826764D01*
X109586900Y-88877564D02*
X81533348Y-88877564D01*
X123786900Y-88877564D02*
X115036900Y-88877564D01*
X178283348Y-88877564D02*
X136536900Y-88877564D01*
X109586900Y-88928364D02*
X81533348Y-88928364D01*
X123786900Y-88928364D02*
X115036900Y-88928364D01*
X178283348Y-88928364D02*
X136536900Y-88928364D01*
X109586900Y-88979164D02*
X81533348Y-88979164D01*
X123786900Y-88979164D02*
X115036900Y-88979164D01*
X178283348Y-88979164D02*
X136536900Y-88979164D01*
X109586900Y-89029964D02*
X81533348Y-89029964D01*
X123786900Y-89029964D02*
X115036900Y-89029964D01*
X178283348Y-89029964D02*
X136536900Y-89029964D01*
X109586900Y-89080764D02*
X81533348Y-89080764D01*
X123786900Y-89080764D02*
X115036900Y-89080764D01*
X178283348Y-89080764D02*
X136536900Y-89080764D01*
X109586900Y-89131564D02*
X81533348Y-89131564D01*
X123786900Y-89131564D02*
X115036900Y-89131564D01*
X178283348Y-89131564D02*
X136536900Y-89131564D01*
X109586900Y-89182364D02*
X81533348Y-89182364D01*
X123786900Y-89182364D02*
X115036900Y-89182364D01*
X178283348Y-89182364D02*
X136536900Y-89182364D01*
X109586900Y-89233164D02*
X81533348Y-89233164D01*
X123786900Y-89233164D02*
X115036900Y-89233164D01*
X178283348Y-89233164D02*
X136536900Y-89233164D01*
X109586900Y-89283964D02*
X81533348Y-89283964D01*
X123786900Y-89283964D02*
X115036900Y-89283964D01*
X178283348Y-89283964D02*
X136536900Y-89283964D01*
X109586900Y-89334764D02*
X81533348Y-89334764D01*
X123786900Y-89334764D02*
X115036900Y-89334764D01*
X178283348Y-89334764D02*
X136536900Y-89334764D01*
X109586900Y-89385564D02*
X81533348Y-89385564D01*
X123786900Y-89385564D02*
X115036900Y-89385564D01*
X178283348Y-89385564D02*
X136536900Y-89385564D01*
X109586900Y-89436364D02*
X81533348Y-89436364D01*
X123786900Y-89436364D02*
X115036900Y-89436364D01*
X178283348Y-89436364D02*
X136536900Y-89436364D01*
X109586900Y-89487164D02*
X81533348Y-89487164D01*
X123786900Y-89487164D02*
X115036900Y-89487164D01*
X178283348Y-89487164D02*
X136536900Y-89487164D01*
X109586900Y-89537964D02*
X81533348Y-89537964D01*
X123786900Y-89537964D02*
X115036900Y-89537964D01*
X178283348Y-89537964D02*
X136536900Y-89537964D01*
X109586900Y-89588764D02*
X81533348Y-89588764D01*
X123786900Y-89588764D02*
X115036900Y-89588764D01*
X178283348Y-89588764D02*
X136536900Y-89588764D01*
X109586900Y-89639564D02*
X81533348Y-89639564D01*
X123786900Y-89639564D02*
X115036900Y-89639564D01*
X178283348Y-89639564D02*
X136536900Y-89639564D01*
X109586900Y-89690364D02*
X81533348Y-89690364D01*
X123786900Y-89690364D02*
X115036900Y-89690364D01*
X178283348Y-89690364D02*
X136536900Y-89690364D01*
X109586900Y-89741164D02*
X81533348Y-89741164D01*
X123786900Y-89741164D02*
X115036900Y-89741164D01*
X178283348Y-89741164D02*
X136536900Y-89741164D01*
X109593190Y-89791964D02*
X81533348Y-89791964D01*
X123786900Y-89791964D02*
X115030609Y-89791964D01*
X178283348Y-89791964D02*
X136536900Y-89791964D01*
X109619526Y-89842764D02*
X81533348Y-89842764D01*
X123786900Y-89842764D02*
X115004273Y-89842764D01*
X178283348Y-89842764D02*
X136536900Y-89842764D01*
X123786900Y-89893564D02*
X81533348Y-89893564D01*
X178283348Y-89893564D02*
X136536900Y-89893564D01*
X123786900Y-89944364D02*
X81533348Y-89944364D01*
X178283348Y-89944364D02*
X136536900Y-89944364D01*
X123786900Y-89995164D02*
X81533348Y-89995164D01*
X178283348Y-89995164D02*
X136536900Y-89995164D01*
X123786900Y-90045964D02*
X81533348Y-90045964D01*
X178283348Y-90045964D02*
X136536900Y-90045964D01*
X123786900Y-90096764D02*
X81533348Y-90096764D01*
X178283348Y-90096764D02*
X136536900Y-90096764D01*
X123786900Y-90147564D02*
X81533348Y-90147564D01*
X178283348Y-90147564D02*
X136536900Y-90147564D01*
X123786900Y-90198364D02*
X81533348Y-90198364D01*
X178283348Y-90198364D02*
X136536900Y-90198364D01*
X123786900Y-90249164D02*
X81533348Y-90249164D01*
X178283348Y-90249164D02*
X136536900Y-90249164D01*
X123786900Y-90299964D02*
X81533348Y-90299964D01*
X178283348Y-90299964D02*
X136536900Y-90299964D01*
X123786900Y-90350764D02*
X81533348Y-90350764D01*
X178283348Y-90350764D02*
X136536900Y-90350764D01*
X123786900Y-90401564D02*
X81533348Y-90401564D01*
X178283348Y-90401564D02*
X136536900Y-90401564D01*
X123786900Y-90452364D02*
X81533348Y-90452364D01*
X178283348Y-90452364D02*
X136536900Y-90452364D01*
X123786900Y-90503164D02*
X81533348Y-90503164D01*
X178283348Y-90503164D02*
X136536900Y-90503164D01*
X123786900Y-90553964D02*
X81533348Y-90553964D01*
X178283348Y-90553964D02*
X136536900Y-90553964D01*
X123786900Y-90604764D02*
X81533348Y-90604764D01*
X178283348Y-90604764D02*
X136536900Y-90604764D01*
X123786900Y-90655564D02*
X81533348Y-90655564D01*
X178283348Y-90655564D02*
X136536900Y-90655564D01*
X123786900Y-90706364D02*
X81533348Y-90706364D01*
X178283348Y-90706364D02*
X136536900Y-90706364D01*
X123786900Y-90757164D02*
X81533348Y-90757164D01*
X178283348Y-90757164D02*
X136536900Y-90757164D01*
X123786900Y-90807964D02*
X81533348Y-90807964D01*
X178283348Y-90807964D02*
X136536900Y-90807964D01*
X123786900Y-90858764D02*
X81533348Y-90858764D01*
X178283348Y-90858764D02*
X136536900Y-90858764D01*
X123786900Y-90909564D02*
X81533348Y-90909564D01*
X178283348Y-90909564D02*
X136536900Y-90909564D01*
X123786900Y-90960364D02*
X81533348Y-90960364D01*
X178283348Y-90960364D02*
X136536900Y-90960364D01*
X123786900Y-91011164D02*
X81533348Y-91011164D01*
X178283348Y-91011164D02*
X136536900Y-91011164D01*
X123786900Y-91061964D02*
X81533348Y-91061964D01*
X178283348Y-91061964D02*
X136536900Y-91061964D01*
X123786900Y-91112764D02*
X81533348Y-91112764D01*
X178283348Y-91112764D02*
X136536900Y-91112764D01*
X123786900Y-91163564D02*
X81533348Y-91163564D01*
X178283348Y-91163564D02*
X136536900Y-91163564D01*
X123786900Y-91214364D02*
X81533348Y-91214364D01*
X178283348Y-91214364D02*
X136536900Y-91214364D01*
X123786900Y-91265164D02*
X81533348Y-91265164D01*
X178283348Y-91265164D02*
X136536900Y-91265164D01*
X123786900Y-91315964D02*
X81533348Y-91315964D01*
X178283348Y-91315964D02*
X136536900Y-91315964D01*
X123786900Y-91366764D02*
X81533348Y-91366764D01*
X178283348Y-91366764D02*
X136536900Y-91366764D01*
X123786900Y-91417564D02*
X81533348Y-91417564D01*
X178283348Y-91417564D02*
X136536900Y-91417564D01*
X123786900Y-91468364D02*
X81533348Y-91468364D01*
X178283348Y-91468364D02*
X136536900Y-91468364D01*
X123786900Y-91519164D02*
X81533348Y-91519164D01*
X178283348Y-91519164D02*
X136536900Y-91519164D01*
X123786900Y-91569964D02*
X81533348Y-91569964D01*
X178283348Y-91569964D02*
X136536900Y-91569964D01*
X123786900Y-91620764D02*
X81533348Y-91620764D01*
X178283348Y-91620764D02*
X136536900Y-91620764D01*
X123786900Y-91671564D02*
X81533348Y-91671564D01*
X178283348Y-91671564D02*
X136536900Y-91671564D01*
X123786900Y-91722364D02*
X81533348Y-91722364D01*
X178283348Y-91722364D02*
X136536900Y-91722364D01*
X123786900Y-91773164D02*
X81533348Y-91773164D01*
X178283348Y-91773164D02*
X136536900Y-91773164D01*
X123786900Y-91823964D02*
X81533348Y-91823964D01*
X178283348Y-91823964D02*
X136536900Y-91823964D01*
X123786900Y-91874764D02*
X81533348Y-91874764D01*
X178283348Y-91874764D02*
X136536900Y-91874764D01*
X123786900Y-91925564D02*
X81533348Y-91925564D01*
X178283348Y-91925564D02*
X136536900Y-91925564D01*
X123786900Y-91976364D02*
X81533348Y-91976364D01*
X178283348Y-91976364D02*
X136536900Y-91976364D01*
X123786900Y-92027164D02*
X81533348Y-92027164D01*
X178283348Y-92027164D02*
X136536900Y-92027164D01*
X123786900Y-92077964D02*
X81533348Y-92077964D01*
X178283348Y-92077964D02*
X136536900Y-92077964D01*
X123786900Y-92128764D02*
X81533348Y-92128764D01*
X178283348Y-92128764D02*
X136536900Y-92128764D01*
X123790723Y-92179564D02*
X81533348Y-92179564D01*
X178283348Y-92179564D02*
X136533076Y-92179564D01*
X123811241Y-92230364D02*
X81533348Y-92230364D01*
X178283348Y-92230364D02*
X136512558Y-92230364D01*
X123890905Y-92281164D02*
X81533348Y-92281164D01*
X178283348Y-92281164D02*
X136432894Y-92281164D01*
X178283348Y-92331964D02*
X81533348Y-92331964D01*
X178283348Y-92382764D02*
X81533348Y-92382764D01*
X178283348Y-92433564D02*
X81533348Y-92433564D01*
X178283348Y-92484364D02*
X81533348Y-92484364D01*
X178283348Y-92535164D02*
X81533348Y-92535164D01*
X178283348Y-92585964D02*
X81533348Y-92585964D01*
X178283348Y-92636764D02*
X81533348Y-92636764D01*
X178283348Y-92687564D02*
X81533348Y-92687564D01*
X178283348Y-92738364D02*
X81533348Y-92738364D01*
X178283348Y-92789164D02*
X81533348Y-92789164D01*
X178283348Y-92839964D02*
X81533348Y-92839964D01*
X178283348Y-92890764D02*
X81533348Y-92890764D01*
X178283348Y-92941564D02*
X81533348Y-92941564D01*
X178283348Y-92992364D02*
X81533348Y-92992364D01*
X178283348Y-93043164D02*
X81533348Y-93043164D01*
X178283348Y-93093964D02*
X81533348Y-93093964D01*
X178283348Y-93144764D02*
X81533348Y-93144764D01*
X178283348Y-93195564D02*
X81533348Y-93195564D01*
X85072941Y-93246364D02*
X81533348Y-93246364D01*
X178283348Y-93246364D02*
X85339128Y-93246364D01*
X84817552Y-93297164D02*
X81533348Y-93297164D01*
X178283348Y-93297164D02*
X85594517Y-93297164D01*
X84562164Y-93347964D02*
X81533348Y-93347964D01*
X178283348Y-93347964D02*
X85849905Y-93347964D01*
X84474718Y-93398764D02*
X81533348Y-93398764D01*
X178283348Y-93398764D02*
X85937351Y-93398764D01*
X84398690Y-93449564D02*
X81533348Y-93449564D01*
X174383124Y-93449564D02*
X86013379Y-93449564D01*
X178283348Y-93449564D02*
X174833573Y-93449564D01*
X84322663Y-93500364D02*
X81533348Y-93500364D01*
X174127736Y-93500364D02*
X86089406Y-93500364D01*
X178283348Y-93500364D02*
X175088961Y-93500364D01*
X84246635Y-93551164D02*
X81533348Y-93551164D01*
X173979385Y-93551164D02*
X86165434Y-93551164D01*
X178283348Y-93551164D02*
X175237312Y-93551164D01*
X84170608Y-93601964D02*
X81533348Y-93601964D01*
X173903357Y-93601964D02*
X86241461Y-93601964D01*
X178283348Y-93601964D02*
X175313339Y-93601964D01*
X84094580Y-93652764D02*
X81533348Y-93652764D01*
X173827329Y-93652764D02*
X86317489Y-93652764D01*
X178283348Y-93652764D02*
X175389367Y-93652764D01*
X84018553Y-93703564D02*
X81533348Y-93703564D01*
X173751301Y-93703564D02*
X86393516Y-93703564D01*
X178283348Y-93703564D02*
X175465395Y-93703564D01*
X83966743Y-93754364D02*
X81533348Y-93754364D01*
X173675273Y-93754364D02*
X86445326Y-93754364D01*
X178283348Y-93754364D02*
X175541423Y-93754364D01*
X83932799Y-93805164D02*
X81533348Y-93805164D01*
X173590697Y-93805164D02*
X86479270Y-93805164D01*
X178283348Y-93805164D02*
X175617450Y-93805164D01*
X83898856Y-93855964D02*
X81533348Y-93855964D01*
X173514373Y-93855964D02*
X86513213Y-93855964D01*
X178283348Y-93855964D02*
X175689719Y-93855964D01*
X83864912Y-93906764D02*
X81533348Y-93906764D01*
X173486151Y-93906764D02*
X86547157Y-93906764D01*
X178283348Y-93906764D02*
X175723662Y-93906764D01*
X83830969Y-93957564D02*
X81533348Y-93957564D01*
X173457929Y-93957564D02*
X86581100Y-93957564D01*
X178283348Y-93957564D02*
X175757605Y-93957564D01*
X83797025Y-94008364D02*
X81533348Y-94008364D01*
X173425149Y-94008364D02*
X86615044Y-94008364D01*
X178283348Y-94008364D02*
X175791549Y-94008364D01*
X83763082Y-94059164D02*
X81533348Y-94059164D01*
X173391205Y-94059164D02*
X86648987Y-94059164D01*
X178283348Y-94059164D02*
X175825492Y-94059164D01*
X83729138Y-94109964D02*
X81533348Y-94109964D01*
X173357262Y-94109964D02*
X86682931Y-94109964D01*
X178283348Y-94109964D02*
X175859435Y-94109964D01*
X83695195Y-94160764D02*
X81533348Y-94160764D01*
X173323318Y-94160764D02*
X86716874Y-94160764D01*
X178283348Y-94160764D02*
X175893379Y-94160764D01*
X83661251Y-94211564D02*
X81533348Y-94211564D01*
X173289375Y-94211564D02*
X86750818Y-94211564D01*
X178283348Y-94211564D02*
X175929758Y-94211564D01*
X83627308Y-94262364D02*
X81533348Y-94262364D01*
X173255431Y-94262364D02*
X86784761Y-94262364D01*
X178283348Y-94262364D02*
X175969270Y-94262364D01*
X83606693Y-94313164D02*
X81533348Y-94313164D01*
X173221488Y-94313164D02*
X86805376Y-94313164D01*
X178283348Y-94313164D02*
X176004119Y-94313164D01*
X83596588Y-94363964D02*
X81533348Y-94363964D01*
X173195893Y-94363964D02*
X86815481Y-94363964D01*
X178283348Y-94363964D02*
X176020804Y-94363964D01*
X83586483Y-94414764D02*
X81533348Y-94414764D01*
X173185789Y-94414764D02*
X86825586Y-94414764D01*
X178283348Y-94414764D02*
X176030908Y-94414764D01*
X83576378Y-94465564D02*
X81533348Y-94465564D01*
X173175684Y-94465564D02*
X86835691Y-94465564D01*
X178283348Y-94465564D02*
X176041013Y-94465564D01*
X83566274Y-94516364D02*
X81533348Y-94516364D01*
X173165579Y-94516364D02*
X86845796Y-94516364D01*
X178283348Y-94516364D02*
X176051118Y-94516364D01*
X83556169Y-94567164D02*
X81533348Y-94567164D01*
X173155474Y-94567164D02*
X86855900Y-94567164D01*
X178283348Y-94567164D02*
X176061223Y-94567164D01*
X83546064Y-94617964D02*
X81533348Y-94617964D01*
X173145370Y-94617964D02*
X86866005Y-94617964D01*
X178283348Y-94617964D02*
X176071327Y-94617964D01*
X83535959Y-94668764D02*
X81533348Y-94668764D01*
X173135265Y-94668764D02*
X86876110Y-94668764D01*
X178283348Y-94668764D02*
X176081432Y-94668764D01*
X83525855Y-94719564D02*
X81533348Y-94719564D01*
X173125160Y-94719564D02*
X86886215Y-94719564D01*
X178283348Y-94719564D02*
X176091537Y-94719564D01*
X83515750Y-94770364D02*
X81533348Y-94770364D01*
X173115055Y-94770364D02*
X86896320Y-94770364D01*
X178283348Y-94770364D02*
X176101642Y-94770364D01*
X83505645Y-94821164D02*
X81533348Y-94821164D01*
X173104950Y-94821164D02*
X86906424Y-94821164D01*
X178283348Y-94821164D02*
X176111747Y-94821164D01*
X83495540Y-94871964D02*
X81533348Y-94871964D01*
X173094846Y-94871964D02*
X86916529Y-94871964D01*
X178283348Y-94871964D02*
X176121851Y-94871964D01*
X83485436Y-94922764D02*
X81533348Y-94922764D01*
X173084741Y-94922764D02*
X86926634Y-94922764D01*
X178283348Y-94922764D02*
X176131956Y-94922764D01*
X83486737Y-94973564D02*
X81533348Y-94973564D01*
X173092060Y-94973564D02*
X86925330Y-94973564D01*
X178283348Y-94973564D02*
X176124635Y-94973564D01*
X83496842Y-95024364D02*
X81533348Y-95024364D01*
X173102165Y-95024364D02*
X86915225Y-95024364D01*
X178283348Y-95024364D02*
X176114530Y-95024364D01*
X83506947Y-95075164D02*
X81533348Y-95075164D01*
X173112269Y-95075164D02*
X86905120Y-95075164D01*
X178283348Y-95075164D02*
X176104426Y-95075164D01*
X83517051Y-95125964D02*
X81533348Y-95125964D01*
X173122374Y-95125964D02*
X86895016Y-95125964D01*
X178283348Y-95125964D02*
X176094321Y-95125964D01*
X83527156Y-95176764D02*
X81533348Y-95176764D01*
X173132479Y-95176764D02*
X86884911Y-95176764D01*
X178283348Y-95176764D02*
X176084216Y-95176764D01*
X83537261Y-95227564D02*
X81533348Y-95227564D01*
X173142584Y-95227564D02*
X86874806Y-95227564D01*
X178283348Y-95227564D02*
X176074111Y-95227564D01*
X83547366Y-95278364D02*
X81533348Y-95278364D01*
X173152689Y-95278364D02*
X86864701Y-95278364D01*
X178283348Y-95278364D02*
X176064006Y-95278364D01*
X83557470Y-95329164D02*
X81533348Y-95329164D01*
X173162793Y-95329164D02*
X86854597Y-95329164D01*
X178283348Y-95329164D02*
X176053902Y-95329164D01*
X83567575Y-95379964D02*
X81533348Y-95379964D01*
X173172898Y-95379964D02*
X86844492Y-95379964D01*
X178283348Y-95379964D02*
X176043797Y-95379964D01*
X83577680Y-95430764D02*
X81533348Y-95430764D01*
X173183003Y-95430764D02*
X86834387Y-95430764D01*
X178283348Y-95430764D02*
X176033692Y-95430764D01*
X83587785Y-95481564D02*
X81533348Y-95481564D01*
X173193108Y-95481564D02*
X86824282Y-95481564D01*
X178283348Y-95481564D02*
X176023587Y-95481564D01*
X83597890Y-95532364D02*
X81533348Y-95532364D01*
X173212132Y-95532364D02*
X86814177Y-95532364D01*
X178283348Y-95532364D02*
X176004563Y-95532364D01*
X83607994Y-95583164D02*
X81533348Y-95583164D01*
X173246076Y-95583164D02*
X86804073Y-95583164D01*
X178283348Y-95583164D02*
X175970619Y-95583164D01*
X83631682Y-95633964D02*
X81533348Y-95633964D01*
X173280019Y-95633964D02*
X86780385Y-95633964D01*
X178283348Y-95633964D02*
X175936676Y-95633964D01*
X83665625Y-95684764D02*
X81533348Y-95684764D01*
X173313963Y-95684764D02*
X86746442Y-95684764D01*
X178283348Y-95684764D02*
X175902733Y-95684764D01*
X83699569Y-95735564D02*
X81533348Y-95735564D01*
X173347906Y-95735564D02*
X86712498Y-95735564D01*
X178283348Y-95735564D02*
X175868789Y-95735564D01*
X83733512Y-95786364D02*
X81533348Y-95786364D01*
X173381850Y-95786364D02*
X86678555Y-95786364D01*
X178283348Y-95786364D02*
X175834846Y-95786364D01*
X83767456Y-95837164D02*
X81533348Y-95837164D01*
X173413047Y-95837164D02*
X86644611Y-95837164D01*
X178283348Y-95837164D02*
X175800902Y-95837164D01*
X83801399Y-95887964D02*
X81533348Y-95887964D01*
X173440756Y-95887964D02*
X86610668Y-95887964D01*
X178283348Y-95887964D02*
X175766959Y-95887964D01*
X83835343Y-95938764D02*
X81533348Y-95938764D01*
X173468465Y-95938764D02*
X86576724Y-95938764D01*
X178283348Y-95938764D02*
X175733016Y-95938764D01*
X83869286Y-95989564D02*
X81533348Y-95989564D01*
X173496174Y-95989564D02*
X86542781Y-95989564D01*
X178283348Y-95989564D02*
X175699072Y-95989564D01*
X83903230Y-96040364D02*
X81533348Y-96040364D01*
X173534452Y-96040364D02*
X86508837Y-96040364D01*
X178283348Y-96040364D02*
X175638402Y-96040364D01*
X83937173Y-96091164D02*
X81533348Y-96091164D01*
X173615732Y-96091164D02*
X86474894Y-96091164D01*
X178283348Y-96091164D02*
X175562374Y-96091164D01*
X83971117Y-96141964D02*
X81533348Y-96141964D01*
X173697012Y-96141964D02*
X86440950Y-96141964D01*
X178283348Y-96141964D02*
X175486347Y-96141964D01*
X84028352Y-96192764D02*
X81533348Y-96192764D01*
X173778292Y-96192764D02*
X86383715Y-96192764D01*
X178283348Y-96192764D02*
X175410319Y-96192764D01*
X84104379Y-96243564D02*
X81538542Y-96243564D01*
X173859572Y-96243564D02*
X86307688Y-96243564D01*
X178278155Y-96243564D02*
X175334291Y-96243564D01*
X84180407Y-96294364D02*
X81548647Y-96294364D01*
X173948058Y-96294364D02*
X86231660Y-96294364D01*
X178268050Y-96294364D02*
X175264010Y-96294364D01*
X84256434Y-96345164D02*
X81558752Y-96345164D01*
X174057353Y-96345164D02*
X86155633Y-96345164D01*
X178257945Y-96345164D02*
X175159342Y-96345164D01*
X84332462Y-96395964D02*
X81568856Y-96395964D01*
X174312741Y-96395964D02*
X86079605Y-96395964D01*
X178247841Y-96395964D02*
X174903954Y-96395964D01*
X84408489Y-96446764D02*
X81578961Y-96446764D01*
X174568129Y-96446764D02*
X86003578Y-96446764D01*
X178237736Y-96446764D02*
X174648566Y-96446764D01*
X84484517Y-96497564D02*
X81589066Y-96497564D01*
X178227631Y-96497564D02*
X85927550Y-96497564D01*
X84595082Y-96548364D02*
X81599170Y-96548364D01*
X178217527Y-96548364D02*
X85816985Y-96548364D01*
X84850470Y-96599164D02*
X81609275Y-96599164D01*
X178207422Y-96599164D02*
X85561597Y-96599164D01*
X85105859Y-96649964D02*
X81619380Y-96649964D01*
X178197317Y-96649964D02*
X85306208Y-96649964D01*
X178187212Y-96700764D02*
X81629485Y-96700764D01*
X178177108Y-96751564D02*
X81639589Y-96751564D01*
X178167003Y-96802364D02*
X81649694Y-96802364D01*
X178156898Y-96853164D02*
X81659799Y-96853164D01*
X178146793Y-96903964D02*
X81669904Y-96903964D01*
X178136689Y-96954764D02*
X81680008Y-96954764D01*
X178126584Y-97005564D02*
X81690113Y-97005564D01*
X178116479Y-97056364D02*
X81700218Y-97056364D01*
X178106374Y-97107164D02*
X81710323Y-97107164D01*
X178086761Y-97157964D02*
X81729936Y-97157964D01*
X178052817Y-97208764D02*
X81763880Y-97208764D01*
X178018874Y-97259564D02*
X81797823Y-97259564D01*
X177984930Y-97310364D02*
X81831767Y-97310364D01*
X177950987Y-97361164D02*
X81865710Y-97361164D01*
X177917043Y-97411964D02*
X81899654Y-97411964D01*
X177883100Y-97462764D02*
X81933597Y-97462764D01*
X177849156Y-97513564D02*
X81967541Y-97513564D01*
X177815213Y-97564364D02*
X82001484Y-97564364D01*
X177781269Y-97615164D02*
X82035427Y-97615164D01*
X177747326Y-97665964D02*
X82069371Y-97665964D01*
X177713382Y-97716764D02*
X82103314Y-97716764D01*
X177679439Y-97767564D02*
X82137258Y-97767564D01*
X177645495Y-97818364D02*
X82171201Y-97818364D01*
X177611552Y-97869164D02*
X82205145Y-97869164D01*
X177567210Y-97919964D02*
X82249487Y-97919964D01*
X177491182Y-97970764D02*
X82325515Y-97970764D01*
X177415155Y-98021564D02*
X82401543Y-98021564D01*
X177339127Y-98072364D02*
X82477570Y-98072364D01*
X177263100Y-98123164D02*
X82553598Y-98123164D01*
X177187072Y-98173964D02*
X82629625Y-98173964D01*
X177111044Y-98224764D02*
X82705653Y-98224764D01*
X177035017Y-98275564D02*
X82781681Y-98275564D01*
X176958989Y-98326364D02*
X82857708Y-98326364D01*
X176882961Y-98377164D02*
X82933736Y-98377164D01*
X176784874Y-98427964D02*
X83031823Y-98427964D01*
X176529484Y-98478764D02*
X83287213Y-98478764D01*
X176274095Y-98529564D02*
X83542602Y-98529564D01*
X176018706Y-98580364D02*
X83797991Y-98580364D01*
X176816284Y-59037812D02*
X177585995Y-59552116D01*
X178100300Y-60321828D01*
X178283348Y-61242074D01*
X178283348Y-96217454D01*
X178100300Y-97137700D01*
X177585995Y-97907412D01*
X176816284Y-98421716D01*
X175896038Y-98604764D01*
X83920658Y-98604764D01*
X83000412Y-98421716D01*
X82230700Y-97907411D01*
X81716396Y-97137700D01*
X81533348Y-96217454D01*
X81533348Y-94944890D01*
X83481034Y-94944890D01*
X83612342Y-95605019D01*
X83986275Y-96164649D01*
X84545905Y-96538582D01*
X85206034Y-96669890D01*
X85866163Y-96538582D01*
X86425793Y-96164649D01*
X86799726Y-95605019D01*
X86931034Y-94944890D01*
X86928026Y-94929764D01*
X173083348Y-94929764D01*
X173199432Y-95513356D01*
X173400841Y-95814786D01*
X173512139Y-96018833D01*
X173529534Y-96037290D01*
X173929534Y-96287290D01*
X173944791Y-96293610D01*
X173963905Y-96298021D01*
X174024756Y-96338680D01*
X174608348Y-96454764D01*
X175191940Y-96338680D01*
X175255232Y-96296390D01*
X175267277Y-96293610D01*
X175288959Y-96282519D01*
X175330854Y-96245861D01*
X175686686Y-96008102D01*
X176017264Y-95513356D01*
X176133348Y-94929764D01*
X176017264Y-94346172D01*
X176010239Y-94335658D01*
X176007541Y-94320820D01*
X175997816Y-94299067D01*
X175912470Y-94189337D01*
X175686686Y-93851426D01*
X175191940Y-93520848D01*
X174608348Y-93404764D01*
X174024756Y-93520848D01*
X173637241Y-93779776D01*
X173534405Y-93835869D01*
X173514640Y-93855482D01*
X173452190Y-93967893D01*
X173199432Y-94346172D01*
X173083348Y-94929764D01*
X86928026Y-94929764D01*
X86799726Y-94284761D01*
X86425793Y-93725131D01*
X85866163Y-93351198D01*
X85206034Y-93219890D01*
X84545905Y-93351198D01*
X83986275Y-93725131D01*
X83612342Y-94284761D01*
X83481034Y-94944890D01*
X81533348Y-94944890D01*
X81533348Y-82160340D01*
X109586900Y-82160340D01*
X109586900Y-89760340D01*
X109596415Y-89808175D01*
X109623512Y-89848728D01*
X109664065Y-89875825D01*
X109711900Y-89885340D01*
X114911900Y-89885340D01*
X114959735Y-89875825D01*
X115000288Y-89848728D01*
X115027385Y-89808175D01*
X115036900Y-89760340D01*
X115036900Y-84060340D01*
X122786900Y-84060340D01*
X122786900Y-87760340D01*
X122796415Y-87808175D01*
X122823512Y-87848728D01*
X122864065Y-87875825D01*
X122911900Y-87885340D01*
X123786900Y-87885340D01*
X123786900Y-92160340D01*
X123796415Y-92208175D01*
X123823512Y-92248728D01*
X123864065Y-92275825D01*
X123911900Y-92285340D01*
X136411900Y-92285340D01*
X136459735Y-92275825D01*
X136500288Y-92248728D01*
X136527385Y-92208175D01*
X136536900Y-92160340D01*
X136536900Y-87885340D01*
X137911900Y-87885340D01*
X137959735Y-87875825D01*
X138000288Y-87848728D01*
X138027385Y-87808175D01*
X138036900Y-87760340D01*
X138036900Y-84060340D01*
X138027385Y-84012505D01*
X138000288Y-83971952D01*
X137959735Y-83944855D01*
X137911900Y-83935340D01*
X122911900Y-83935340D01*
X122864065Y-83944855D01*
X122823512Y-83971952D01*
X122796415Y-84012505D01*
X122786900Y-84060340D01*
X115036900Y-84060340D01*
X115036900Y-82160340D01*
X115027385Y-82112505D01*
X115000288Y-82071952D01*
X114959735Y-82044855D01*
X114911900Y-82035340D01*
X109711900Y-82035340D01*
X109664065Y-82044855D01*
X109623512Y-82071952D01*
X109596415Y-82112505D01*
X109586900Y-82160340D01*
X81533348Y-82160340D01*
X81533348Y-81884785D01*
X160615381Y-81884785D01*
X160690282Y-83107063D01*
X160702705Y-83154227D01*
X161239651Y-84254801D01*
X161269177Y-84293620D01*
X162186421Y-85104937D01*
X162210987Y-85119259D01*
X162228556Y-85129503D01*
X162564223Y-85245038D01*
X162628871Y-85286869D01*
X162645733Y-85293817D01*
X162800769Y-85326456D01*
X163386454Y-85528046D01*
X163386457Y-85528048D01*
X163428213Y-85533725D01*
X163434784Y-85534619D01*
X163434785Y-85534619D01*
X164657063Y-85459718D01*
X164704227Y-85447295D01*
X165804801Y-84910349D01*
X165843620Y-84880823D01*
X166654937Y-83963579D01*
X166679502Y-83921445D01*
X166686073Y-83873116D01*
X166684965Y-83868911D01*
X166674999Y-80699607D01*
X166672555Y-80687517D01*
X166672511Y-80675178D01*
X166667768Y-80663843D01*
X166665334Y-80651802D01*
X166658448Y-80641565D01*
X166653686Y-80630185D01*
X166451692Y-80330194D01*
X166440428Y-80319009D01*
X166430822Y-80306380D01*
X165513579Y-79495063D01*
X165513578Y-79495062D01*
X165471444Y-79470497D01*
X164313543Y-79071952D01*
X164265216Y-79065381D01*
X163042937Y-79140282D01*
X162995773Y-79152705D01*
X161895199Y-79689651D01*
X161856380Y-79719177D01*
X161856378Y-79719180D01*
X161045063Y-80636421D01*
X161045062Y-80636422D01*
X161020497Y-80678556D01*
X160820064Y-81260879D01*
X160761788Y-81371603D01*
X160756282Y-81389915D01*
X160748351Y-81469228D01*
X160621952Y-81836457D01*
X160615381Y-81884785D01*
X81533348Y-81884785D01*
X81533348Y-62529764D01*
X83683348Y-62529764D01*
X83799432Y-63113356D01*
X84000841Y-63414786D01*
X84112139Y-63618833D01*
X84129534Y-63637290D01*
X84529534Y-63887290D01*
X84544791Y-63893610D01*
X84563905Y-63898021D01*
X84624756Y-63938680D01*
X85208348Y-64054764D01*
X85791940Y-63938680D01*
X85855232Y-63896390D01*
X85867277Y-63893610D01*
X85888959Y-63882519D01*
X85930854Y-63845861D01*
X86286686Y-63608102D01*
X86617264Y-63113356D01*
X86733348Y-62529764D01*
X172883348Y-62529764D01*
X173014656Y-63189893D01*
X173388589Y-63749523D01*
X173948219Y-64123456D01*
X174608348Y-64254764D01*
X175268477Y-64123456D01*
X175828107Y-63749523D01*
X176202040Y-63189893D01*
X176333348Y-62529764D01*
X176202040Y-61869635D01*
X175828107Y-61310005D01*
X175268477Y-60936072D01*
X174608348Y-60804764D01*
X173948219Y-60936072D01*
X173388589Y-61310005D01*
X173014656Y-61869635D01*
X172883348Y-62529764D01*
X86733348Y-62529764D01*
X86617264Y-61946172D01*
X86610239Y-61935658D01*
X86607541Y-61920820D01*
X86597816Y-61899067D01*
X86512470Y-61789337D01*
X86286686Y-61451426D01*
X85791940Y-61120848D01*
X85208348Y-61004764D01*
X84624756Y-61120848D01*
X84237241Y-61379776D01*
X84134405Y-61435869D01*
X84114640Y-61455482D01*
X84052190Y-61567893D01*
X83799432Y-61946172D01*
X83683348Y-62529764D01*
X81533348Y-62529764D01*
X81533348Y-61242074D01*
X81716396Y-60321828D01*
X82230700Y-59552117D01*
X83000412Y-59037812D01*
X83920658Y-58854764D01*
X175896038Y-58854764D01*
X176816284Y-59037812D01*
M02*
