G04 #@! TF.FileFunction,Legend,Top*
%FSLAX46Y46*%
G04 Gerber Fmt 4.6, Leading zero omitted, Abs format (unit mm)*
G04 Created by KiCad (PCBNEW (2016-07-22 BZR 6991, Git 146a78a)-product) date 08/19/16 17:20:01*
%MOMM*%
%LPD*%
G01*
G04 APERTURE LIST*
%ADD10C,0.150000*%
%ADD11C,0.100000*%
%ADD12C,5.500000*%
%ADD13C,0.254000*%
G04 APERTURE END LIST*
D10*
D11*
X3252381Y-5796666D02*
X3252381Y-5130000D01*
X4252381Y-5558571D01*
X3252381Y-4320476D02*
X3252381Y-4510952D01*
X3300000Y-4606190D01*
X3347620Y-4653809D01*
X3490477Y-4749047D01*
X3680953Y-4796666D01*
X4061905Y-4796666D01*
X4157143Y-4749047D01*
X4204762Y-4701428D01*
X4252381Y-4606190D01*
X4252381Y-4415714D01*
X4204762Y-4320476D01*
X4157143Y-4272857D01*
X4061905Y-4225238D01*
X3823810Y-4225238D01*
X3728572Y-4272857D01*
X3680953Y-4320476D01*
X3633334Y-4415714D01*
X3633334Y-4606190D01*
X3680953Y-4701428D01*
X3728572Y-4749047D01*
X3823810Y-4796666D01*
X4252381Y-3891904D02*
X3585715Y-3368096D01*
X3585715Y-3891904D02*
X4252381Y-3368096D01*
X3252381Y-3082381D02*
X3252381Y-2463334D01*
X3633334Y-2796667D01*
X3633334Y-2653810D01*
X3680953Y-2558572D01*
X3728572Y-2510953D01*
X3823810Y-2463334D01*
X4061905Y-2463334D01*
X4157143Y-2510953D01*
X4204762Y-2558572D01*
X4252381Y-2653810D01*
X4252381Y-2939524D01*
X4204762Y-3034762D01*
X4157143Y-3082381D01*
X3252381Y-1558572D02*
X3252381Y-2034762D01*
X3728572Y-2082381D01*
X3680953Y-2034762D01*
X3633334Y-1939524D01*
X3633334Y-1701429D01*
X3680953Y-1606191D01*
X3728572Y-1558572D01*
X3823810Y-1510953D01*
X4061905Y-1510953D01*
X4157143Y-1558572D01*
X4204762Y-1606191D01*
X4252381Y-1701429D01*
X4252381Y-1939524D01*
X4204762Y-2034762D01*
X4157143Y-2082381D01*
%LPC*%
D12*
X9210000Y-3680000D03*
D13*
G36*
X2159240Y-7219033D02*
X253242Y-7219033D01*
X233942Y-213033D01*
X2139940Y-213033D01*
X2159240Y-7219033D01*
X2159240Y-7219033D01*
G37*
X2159240Y-7219033D02*
X253242Y-7219033D01*
X233942Y-213033D01*
X2139940Y-213033D01*
X2159240Y-7219033D01*
M02*
