%MOIN*%
%OFA0B0*%
%FSLAX46Y46*%
%IPPOS*%
%LPD*%
%ADD10C,0.005905511811023622*%
%ADD11C,0.031496062992125991*%
%ADD12C,0.01*%
%ADD23C,0.005905511811023622*%
%ADD24C,0.031496062992125991*%
%ADD25C,0.01*%
%ADD36C,0.005905511811023622*%
%ADD37C,0.031496062992125991*%
%ADD38C,0.01*%
%LPD*%
G01*
D10*
D11*
X0000000000Y0004330708D02*
X0001929133Y0003861417D03*
X0001949441Y0003937204D03*
X0002004921Y0003992684D03*
X0002080708Y0004012992D03*
X0002156496Y0003992684D03*
X0002211976Y0003937204D03*
X0002212598Y0003861417D03*
X0002211976Y0003785629D03*
X0002156496Y0003730149D03*
X0002080708Y0003709842D03*
X0002004921Y0003730149D03*
X0001949441Y0003785629D03*
X0002382511Y0003785629D03*
X0002437992Y0003730149D03*
X0002513779Y0003709842D03*
X0002589566Y0003730149D03*
X0002645047Y0003785629D03*
X0002645669Y0003861417D03*
X0002645047Y0003937204D03*
X0002589566Y0003992684D03*
X0002513779Y0004012992D03*
X0002437992Y0003992684D03*
X0002382511Y0003937204D03*
X0002362204Y0003861417D03*
D12*
G36*
X0002940441Y0004317926D02*
X0002964202Y0004302050D01*
X0002980079Y0004278289D01*
X0002985759Y0004249729D01*
X0002985759Y0003946855D01*
X0002985173Y0003943908D01*
X0002983805Y0003941860D01*
X0002981757Y0003940492D01*
X0002978811Y0003939906D01*
X0002952177Y0003939906D01*
X0002950112Y0003939496D01*
X0002948363Y0003938326D01*
X0002947193Y0003936577D01*
X0002946783Y0003934512D01*
X0002946783Y0003350260D01*
X0002947194Y0003348196D01*
X0002948363Y0003346447D01*
X0002950113Y0003345277D01*
X0002952177Y0003344867D01*
X0002978811Y0003344867D01*
X0002981757Y0003344281D01*
X0002983805Y0003342912D01*
X0002985173Y0003340865D01*
X0002985759Y0003337918D01*
X0002985759Y0003050004D01*
X0002978610Y0003014062D01*
X0002958552Y0002984043D01*
X0002928532Y0002963985D01*
X0002892590Y0002956835D01*
X0000078692Y0002956442D01*
X0000050133Y0002962122D01*
X0000026372Y0002977999D01*
X0000010495Y0003001760D01*
X0000004814Y0003030319D01*
X0000004814Y0003107150D01*
X0000094224Y0003107150D01*
X0000098830Y0003083993D01*
X0000111947Y0003064362D01*
X0000131579Y0003051245D01*
X0000154736Y0003046638D01*
X0000177893Y0003051245D01*
X0000197524Y0003064362D01*
X0000210641Y0003083993D01*
X0000212062Y0003091134D01*
X0000427691Y0003091134D01*
X0000427691Y0003087878D01*
X0000431437Y0003069045D01*
X0000432684Y0003066036D01*
X0000443352Y0003050071D01*
X0000443949Y0003049473D01*
X0000445654Y0003047768D01*
X0000461620Y0003037100D01*
X0000464629Y0003035854D01*
X0000483462Y0003032107D01*
X0000484284Y0003032107D01*
X0000485090Y0003031947D01*
X0000898476Y0003031947D01*
X0000899282Y0003032107D01*
X0000900104Y0003032107D01*
X0000918937Y0003035854D01*
X0000919818Y0003036219D01*
X0000921946Y0003037100D01*
X0000937911Y0003047768D01*
X0000939617Y0003049473D01*
X0000940214Y0003050071D01*
X0000950882Y0003066036D01*
X0000952128Y0003069045D01*
X0000955875Y0003087878D01*
X0000955875Y0003091134D01*
X0000952128Y0003109967D01*
X0000951941Y0003110420D01*
X0000950882Y0003112976D01*
X0000940214Y0003128942D01*
X0000938623Y0003130533D01*
X0000937911Y0003131245D01*
X0000921946Y0003141912D01*
X0000919818Y0003142794D01*
X0000918937Y0003143159D01*
X0000900104Y0003146905D01*
X0000899282Y0003146905D01*
X0000898476Y0003147065D01*
X0000485090Y0003147065D01*
X0000484284Y0003146905D01*
X0000483462Y0003146905D01*
X0000464629Y0003143159D01*
X0000461620Y0003141912D01*
X0000445654Y0003131245D01*
X0000444943Y0003130533D01*
X0000443352Y0003128942D01*
X0000432684Y0003112976D01*
X0000432149Y0003111686D01*
X0000431437Y0003109967D01*
X0000427691Y0003091134D01*
X0000212062Y0003091134D01*
X0000215247Y0003107150D01*
X0000210641Y0003130307D01*
X0000197524Y0003149939D01*
X0000177893Y0003163056D01*
X0000154736Y0003167662D01*
X0000131579Y0003163056D01*
X0000111947Y0003149939D01*
X0000098830Y0003130307D01*
X0000094224Y0003107150D01*
X0000004814Y0003107150D01*
X0000004814Y0003333981D01*
X0000005401Y0003336928D01*
X0000006769Y0003338975D01*
X0000008816Y0003340344D01*
X0000011763Y0003340930D01*
X0000038397Y0003340930D01*
X0000040461Y0003341340D01*
X0000042211Y0003342510D01*
X0000043380Y0003344259D01*
X0000043791Y0003346323D01*
X0000043791Y0003349009D01*
X0000211156Y0003349009D01*
X0000211156Y0003345752D01*
X0000214902Y0003326919D01*
X0000216148Y0003323910D01*
X0000226816Y0003307945D01*
X0000227527Y0003307234D01*
X0000229119Y0003305642D01*
X0000245085Y0003294974D01*
X0000248093Y0003293728D01*
X0000266926Y0003289981D01*
X0000267748Y0003289981D01*
X0000268555Y0003289821D01*
X0000465405Y0003289821D01*
X0000466211Y0003289982D01*
X0000467033Y0003289982D01*
X0000485866Y0003293728D01*
X0000486747Y0003294093D01*
X0000488875Y0003294974D01*
X0000504841Y0003305642D01*
X0000506433Y0003307234D01*
X0000507143Y0003307945D01*
X0000517811Y0003323910D01*
X0000519058Y0003326919D01*
X0000522804Y0003345752D01*
X0000522804Y0003349008D01*
X0000519058Y0003367841D01*
X0000519058Y0003367841D01*
X0000517811Y0003370850D01*
X0000507143Y0003386816D01*
X0000505552Y0003388407D01*
X0000504841Y0003389119D01*
X0000488875Y0003399787D01*
X0000486747Y0003400668D01*
X0000485866Y0003401033D01*
X0000467033Y0003404779D01*
X0000466211Y0003404779D01*
X0000465405Y0003404939D01*
X0000268555Y0003404939D01*
X0000267748Y0003404779D01*
X0000266926Y0003404779D01*
X0000248093Y0003401033D01*
X0000245085Y0003399787D01*
X0000229119Y0003389119D01*
X0000228407Y0003388407D01*
X0000226816Y0003386816D01*
X0000216148Y0003370850D01*
X0000215562Y0003369434D01*
X0000214902Y0003367841D01*
X0000211156Y0003349009D01*
X0000043791Y0003349009D01*
X0000043791Y0003485427D01*
X0000661187Y0003485427D01*
X0000661187Y0003221647D01*
X0000661326Y0003220948D01*
X0000661325Y0003220294D01*
X0000663105Y0003211299D01*
X0000663624Y0003210044D01*
X0000664140Y0003208791D01*
X0000669244Y0003201120D01*
X0000671163Y0003199193D01*
X0000671164Y0003199193D01*
X0000678815Y0003194059D01*
X0000678815Y0003194059D01*
X0000680280Y0003193449D01*
X0000681325Y0003193014D01*
X0000681325Y0003193014D01*
X0000690359Y0003191199D01*
X0000691068Y0003191198D01*
X0000691777Y0003191057D01*
X0000863037Y0003191057D01*
X0000863940Y0003191236D01*
X0000864404Y0003191236D01*
X0000873426Y0003193033D01*
X0000873426Y0003193033D01*
X0000874898Y0003193643D01*
X0000875938Y0003194074D01*
X0000875938Y0003194074D01*
X0000883585Y0003199187D01*
X0000885508Y0003201110D01*
X0000885508Y0003201110D01*
X0000890616Y0003208760D01*
X0000890616Y0003208760D01*
X0000891656Y0003211272D01*
X0000893449Y0003220295D01*
X0000893449Y0003220747D01*
X0000893628Y0003221647D01*
X0000893628Y0003406686D01*
X0001210399Y0003406686D01*
X0001210399Y0003297238D01*
X0001210533Y0003296564D01*
X0001210533Y0003295878D01*
X0001212032Y0003288345D01*
X0001212032Y0003288345D01*
X0001213072Y0003285833D01*
X0001217339Y0003279447D01*
X0001219262Y0003277524D01*
X0001225648Y0003273257D01*
X0001225648Y0003273257D01*
X0001227120Y0003272647D01*
X0001228160Y0003272216D01*
X0001228160Y0003272216D01*
X0001235693Y0003270718D01*
X0001236380Y0003270718D01*
X0001237053Y0003270584D01*
X0001249769Y0003270584D01*
X0001249769Y0003115348D01*
X0001249903Y0003114675D01*
X0001249903Y0003113988D01*
X0001251402Y0003106455D01*
X0001251402Y0003106455D01*
X0001252442Y0003103943D01*
X0001256709Y0003097557D01*
X0001258632Y0003095634D01*
X0001265018Y0003091367D01*
X0001265018Y0003091367D01*
X0001266490Y0003090758D01*
X0001267530Y0003090327D01*
X0001267530Y0003090327D01*
X0001275063Y0003088828D01*
X0001275750Y0003088828D01*
X0001276423Y0003088694D01*
X0001717368Y0003088694D01*
X0001718041Y0003088828D01*
X0001718727Y0003088828D01*
X0001726260Y0003090327D01*
X0001726260Y0003090327D01*
X0001728211Y0003091134D01*
X0001923754Y0003091134D01*
X0001923754Y0003087878D01*
X0001927500Y0003069045D01*
X0001928747Y0003066036D01*
X0001939415Y0003050071D01*
X0001940012Y0003049473D01*
X0001941717Y0003047768D01*
X0001957683Y0003037100D01*
X0001960692Y0003035854D01*
X0001979525Y0003032107D01*
X0001980347Y0003032107D01*
X0001981153Y0003031947D01*
X0002512649Y0003031947D01*
X0002513455Y0003032107D01*
X0002514277Y0003032107D01*
X0002533110Y0003035854D01*
X0002533992Y0003036219D01*
X0002536119Y0003037100D01*
X0002552085Y0003047768D01*
X0002553790Y0003049473D01*
X0002554387Y0003050071D01*
X0002565055Y0003066036D01*
X0002566302Y0003069045D01*
X0002570048Y0003087878D01*
X0002570048Y0003091134D01*
X0002567049Y0003106211D01*
X0002770430Y0003106211D01*
X0002775036Y0003083054D01*
X0002788153Y0003063422D01*
X0002807785Y0003050305D01*
X0002830942Y0003045699D01*
X0002854098Y0003050305D01*
X0002873730Y0003063422D01*
X0002886847Y0003083054D01*
X0002891453Y0003106211D01*
X0002886847Y0003129368D01*
X0002873730Y0003148999D01*
X0002854098Y0003162116D01*
X0002830942Y0003166723D01*
X0002807785Y0003162116D01*
X0002788153Y0003148999D01*
X0002775036Y0003129368D01*
X0002770430Y0003106211D01*
X0002567049Y0003106211D01*
X0002566302Y0003109967D01*
X0002566114Y0003110420D01*
X0002565055Y0003112976D01*
X0002554387Y0003128942D01*
X0002552797Y0003130533D01*
X0002552085Y0003131245D01*
X0002536119Y0003141912D01*
X0002533992Y0003142794D01*
X0002533110Y0003143159D01*
X0002514277Y0003146905D01*
X0002513455Y0003146905D01*
X0002512649Y0003147065D01*
X0001981153Y0003147065D01*
X0001980347Y0003146905D01*
X0001979525Y0003146905D01*
X0001960692Y0003143159D01*
X0001957683Y0003141912D01*
X0001941717Y0003131245D01*
X0001941006Y0003130533D01*
X0001939415Y0003128942D01*
X0001928747Y0003112976D01*
X0001928212Y0003111686D01*
X0001927500Y0003109967D01*
X0001923754Y0003091134D01*
X0001728211Y0003091134D01*
X0001728772Y0003091367D01*
X0001735159Y0003095634D01*
X0001737081Y0003097557D01*
X0001741348Y0003103943D01*
X0001741349Y0003103943D01*
X0001741958Y0003105415D01*
X0001742389Y0003106455D01*
X0001742389Y0003106455D01*
X0001743887Y0003113988D01*
X0001743887Y0003114675D01*
X0001744021Y0003115348D01*
X0001744021Y0003270584D01*
X0001750832Y0003270584D01*
X0001751505Y0003270718D01*
X0001752192Y0003270718D01*
X0001759725Y0003272216D01*
X0001759725Y0003272216D01*
X0001762237Y0003273257D01*
X0001768623Y0003277524D01*
X0001770546Y0003279447D01*
X0001774813Y0003285833D01*
X0001774813Y0003285833D01*
X0001775818Y0003288260D01*
X0001775854Y0003288345D01*
X0001775854Y0003288345D01*
X0001777352Y0003295878D01*
X0001777352Y0003296564D01*
X0001777486Y0003297238D01*
X0001777486Y0003308261D01*
X0001927531Y0003308261D01*
X0001932811Y0003281715D01*
X0001947849Y0003259209D01*
X0001970354Y0003244172D01*
X0001996901Y0003238891D01*
X0002023448Y0003244172D01*
X0002045953Y0003259209D01*
X0002060991Y0003281715D01*
X0002066271Y0003308261D01*
X0002110572Y0003308261D01*
X0002115853Y0003281715D01*
X0002130890Y0003259209D01*
X0002153395Y0003244172D01*
X0002179942Y0003238891D01*
X0002206489Y0003244172D01*
X0002228994Y0003259209D01*
X0002244032Y0003281715D01*
X0002249312Y0003308261D01*
X0002245123Y0003329323D01*
X0002455250Y0003329323D01*
X0002455250Y0003326067D01*
X0002458997Y0003307234D01*
X0002460243Y0003304225D01*
X0002470911Y0003288260D01*
X0002471981Y0003287190D01*
X0002473214Y0003285957D01*
X0002489179Y0003275289D01*
X0002492188Y0003274043D01*
X0002511021Y0003270296D01*
X0002511843Y0003270296D01*
X0002512649Y0003270136D01*
X0002709500Y0003270136D01*
X0002710306Y0003270296D01*
X0002711128Y0003270296D01*
X0002729961Y0003274043D01*
X0002730842Y0003274408D01*
X0002732969Y0003275289D01*
X0002748935Y0003285957D01*
X0002750168Y0003287190D01*
X0002751238Y0003288260D01*
X0002761906Y0003304225D01*
X0002763152Y0003307234D01*
X0002766898Y0003326067D01*
X0002766898Y0003329323D01*
X0002763152Y0003348156D01*
X0002763089Y0003348309D01*
X0002761906Y0003351165D01*
X0002751238Y0003367131D01*
X0002749647Y0003368722D01*
X0002748935Y0003369433D01*
X0002732969Y0003380101D01*
X0002730842Y0003380983D01*
X0002729961Y0003381348D01*
X0002711128Y0003385094D01*
X0002710306Y0003385094D01*
X0002709500Y0003385254D01*
X0002512649Y0003385254D01*
X0002511843Y0003385094D01*
X0002511021Y0003385094D01*
X0002492188Y0003381348D01*
X0002489179Y0003380101D01*
X0002473214Y0003369434D01*
X0002472502Y0003368722D01*
X0002470911Y0003367131D01*
X0002460243Y0003351165D01*
X0002459479Y0003349320D01*
X0002458997Y0003348156D01*
X0002455250Y0003329323D01*
X0002245123Y0003329323D01*
X0002244032Y0003334808D01*
X0002228994Y0003357313D01*
X0002206489Y0003372351D01*
X0002179942Y0003377631D01*
X0002153395Y0003372351D01*
X0002130890Y0003357313D01*
X0002115853Y0003334808D01*
X0002110572Y0003308261D01*
X0002066271Y0003308261D01*
X0002060991Y0003334808D01*
X0002045953Y0003357313D01*
X0002023448Y0003372351D01*
X0001996901Y0003377631D01*
X0001970354Y0003372351D01*
X0001947849Y0003357313D01*
X0001932811Y0003334808D01*
X0001927531Y0003308261D01*
X0001777486Y0003308261D01*
X0001777486Y0003406686D01*
X0001777352Y0003407360D01*
X0001777352Y0003408046D01*
X0001775854Y0003415579D01*
X0001774813Y0003418091D01*
X0001774813Y0003418091D01*
X0001770546Y0003424477D01*
X0001768623Y0003426400D01*
X0001762237Y0003430667D01*
X0001759725Y0003431708D01*
X0001759725Y0003431708D01*
X0001752192Y0003433206D01*
X0001751505Y0003433206D01*
X0001750832Y0003433340D01*
X0001237053Y0003433340D01*
X0001236380Y0003433206D01*
X0001235693Y0003433206D01*
X0001228160Y0003431708D01*
X0001228160Y0003431708D01*
X0001227173Y0003431299D01*
X0001225648Y0003430667D01*
X0001225648Y0003430667D01*
X0001219262Y0003426400D01*
X0001217339Y0003424477D01*
X0001213072Y0003418091D01*
X0001213072Y0003418091D01*
X0001212032Y0003415579D01*
X0001210533Y0003408046D01*
X0001210533Y0003407360D01*
X0001210399Y0003406686D01*
X0000893628Y0003406686D01*
X0000893628Y0003485427D01*
X0000893507Y0003486034D01*
X0000893512Y0003486736D01*
X0000891844Y0003495456D01*
X0000891343Y0003496691D01*
X0000890850Y0003497933D01*
X0000885841Y0003505674D01*
X0000883947Y0003507624D01*
X0000883947Y0003507624D01*
X0000882246Y0003508797D01*
X0001927531Y0003508797D01*
X0001932811Y0003482251D01*
X0001947849Y0003459745D01*
X0001970354Y0003444708D01*
X0001996901Y0003439427D01*
X0002023448Y0003444708D01*
X0002045953Y0003459745D01*
X0002060991Y0003482251D01*
X0002066271Y0003508797D01*
X0002110602Y0003508797D01*
X0002115882Y0003482251D01*
X0002130920Y0003459745D01*
X0002153425Y0003444708D01*
X0002179972Y0003439427D01*
X0002206519Y0003444708D01*
X0002229024Y0003459745D01*
X0002244062Y0003482251D01*
X0002249342Y0003508797D01*
X0002244062Y0003535344D01*
X0002229024Y0003557850D01*
X0002206519Y0003572887D01*
X0002179972Y0003578168D01*
X0002153425Y0003572887D01*
X0002130920Y0003557850D01*
X0002115882Y0003535344D01*
X0002110602Y0003508797D01*
X0002066271Y0003508797D01*
X0002060991Y0003535344D01*
X0002045953Y0003557850D01*
X0002023448Y0003572887D01*
X0001996901Y0003578168D01*
X0001970354Y0003572887D01*
X0001947849Y0003557850D01*
X0001932811Y0003535344D01*
X0001927531Y0003508797D01*
X0000882246Y0003508797D01*
X0000876357Y0003512859D01*
X0000873861Y0003513937D01*
X0000873861Y0003513937D01*
X0000864845Y0003515868D01*
X0000863700Y0003515885D01*
X0000863037Y0003516017D01*
X0000691777Y0003516017D01*
X0000691333Y0003515929D01*
X0000690419Y0003515929D01*
X0000681368Y0003514130D01*
X0000681368Y0003514130D01*
X0000681368Y0003514130D01*
X0000681367Y0003514130D01*
X0000680175Y0003513636D01*
X0000678856Y0003513090D01*
X0000671176Y0003507961D01*
X0000669253Y0003506039D01*
X0000669253Y0003506039D01*
X0000664121Y0003498362D01*
X0000664120Y0003498362D01*
X0000663511Y0003496891D01*
X0000663079Y0003495850D01*
X0000663079Y0003495850D01*
X0000661275Y0003486794D01*
X0000661275Y0003485872D01*
X0000661187Y0003485427D01*
X0000043791Y0003485427D01*
X0000043791Y0003836652D01*
X0001947202Y0003836652D01*
X0001947803Y0003833608D01*
X0001947803Y0003833608D01*
X0001966842Y0003787447D01*
X0001966842Y0003787447D01*
X0001967071Y0003787102D01*
X0001968562Y0003784864D01*
X0001968562Y0003784864D01*
X0002003816Y0003749503D01*
X0002003816Y0003749503D01*
X0002004851Y0003748809D01*
X0002006394Y0003747775D01*
X0002006394Y0003747775D01*
X0002052497Y0003728597D01*
X0002052497Y0003728596D01*
X0002055540Y0003727986D01*
X0002105473Y0003727911D01*
X0002108517Y0003728512D01*
X0002108517Y0003728512D01*
X0002154678Y0003747550D01*
X0002154678Y0003747550D01*
X0002156228Y0003748583D01*
X0002157261Y0003749270D01*
X0002157261Y0003749271D01*
X0002192622Y0003784525D01*
X0002192626Y0003784530D01*
X0002192631Y0003784534D01*
X0002193494Y0003785825D01*
X0002194350Y0003787102D01*
X0002194351Y0003787109D01*
X0002194355Y0003787114D01*
X0002194652Y0003788609D01*
X0002194960Y0003790145D01*
X0002194959Y0003790151D01*
X0002194960Y0003790157D01*
X0002194960Y0003836652D01*
X0002380273Y0003836652D01*
X0002380874Y0003833608D01*
X0002380874Y0003833608D01*
X0002399913Y0003787447D01*
X0002399913Y0003787447D01*
X0002400142Y0003787102D01*
X0002401633Y0003784864D01*
X0002401633Y0003784864D01*
X0002436887Y0003749503D01*
X0002436887Y0003749503D01*
X0002437922Y0003748809D01*
X0002439465Y0003747775D01*
X0002439465Y0003747775D01*
X0002485568Y0003728597D01*
X0002485568Y0003728596D01*
X0002488610Y0003727986D01*
X0002538544Y0003727911D01*
X0002541588Y0003728512D01*
X0002541588Y0003728512D01*
X0002587749Y0003747550D01*
X0002587749Y0003747550D01*
X0002589299Y0003748583D01*
X0002590332Y0003749270D01*
X0002590332Y0003749271D01*
X0002625693Y0003784525D01*
X0002625697Y0003784530D01*
X0002625702Y0003784534D01*
X0002626565Y0003785825D01*
X0002627421Y0003787102D01*
X0002627422Y0003787109D01*
X0002627426Y0003787114D01*
X0002627723Y0003788609D01*
X0002628031Y0003790145D01*
X0002628030Y0003790151D01*
X0002628031Y0003790157D01*
X0002628031Y0003932676D01*
X0002628031Y0003932677D01*
X0002627426Y0003935720D01*
X0002625702Y0003938300D01*
X0002590662Y0003973340D01*
X0002589368Y0003974204D01*
X0002588093Y0003975059D01*
X0002588082Y0003975063D01*
X0002588082Y0003975063D01*
X0002588082Y0003975063D01*
X0002541990Y0003994237D01*
X0002541990Y0003994237D01*
X0002541990Y0003994237D01*
X0002539558Y0003994725D01*
X0002538948Y0003994847D01*
X0002538948Y0003994847D01*
X0002489015Y0003994923D01*
X0002485970Y0003994322D01*
X0002439809Y0003975283D01*
X0002439809Y0003975283D01*
X0002437226Y0003973563D01*
X0002401865Y0003938309D01*
X0002400137Y0003935731D01*
X0002400137Y0003935731D01*
X0002380959Y0003889628D01*
X0002380959Y0003889628D01*
X0002380349Y0003886585D01*
X0002380273Y0003836652D01*
X0002194960Y0003836652D01*
X0002194960Y0003932676D01*
X0002194960Y0003932677D01*
X0002194355Y0003935720D01*
X0002192631Y0003938300D01*
X0002157591Y0003973340D01*
X0002156297Y0003974204D01*
X0002155023Y0003975059D01*
X0002155011Y0003975063D01*
X0002155011Y0003975063D01*
X0002155011Y0003975063D01*
X0002108919Y0003994237D01*
X0002108919Y0003994237D01*
X0002108919Y0003994237D01*
X0002106487Y0003994725D01*
X0002105877Y0003994847D01*
X0002105877Y0003994847D01*
X0002055944Y0003994923D01*
X0002052899Y0003994322D01*
X0002006738Y0003975283D01*
X0002006738Y0003975283D01*
X0002004156Y0003973563D01*
X0001968794Y0003938309D01*
X0001967066Y0003935731D01*
X0001967066Y0003935731D01*
X0001947888Y0003889628D01*
X0001947888Y0003889628D01*
X0001947278Y0003886585D01*
X0001947202Y0003836652D01*
X0000043791Y0003836652D01*
X0000043791Y0003930575D01*
X0000043380Y0003932640D01*
X0000042211Y0003934389D01*
X0000040461Y0003935559D01*
X0000038397Y0003935969D01*
X0000011763Y0003935969D01*
X0000008816Y0003936555D01*
X0000006769Y0003937923D01*
X0000005401Y0003939971D01*
X0000004814Y0003942918D01*
X0000004814Y0004172111D01*
X0000094224Y0004172111D01*
X0000098830Y0004148954D01*
X0000111947Y0004129323D01*
X0000131579Y0004116205D01*
X0000154736Y0004111599D01*
X0000177893Y0004116205D01*
X0000197524Y0004129323D01*
X0000210641Y0004148954D01*
X0000215247Y0004172111D01*
X0000214518Y0004175780D01*
X0000348951Y0004175780D01*
X0000348951Y0004172524D01*
X0000352697Y0004153691D01*
X0000353944Y0004150682D01*
X0000364612Y0004134716D01*
X0000365763Y0004133565D01*
X0000366914Y0004132413D01*
X0000382880Y0004121745D01*
X0000385889Y0004120499D01*
X0000404722Y0004116753D01*
X0000405544Y0004116753D01*
X0000406350Y0004116593D01*
X0000839421Y0004116593D01*
X0000840227Y0004116753D01*
X0000841049Y0004116753D01*
X0000859882Y0004120499D01*
X0000860763Y0004120864D01*
X0000862891Y0004121745D01*
X0000878856Y0004132413D01*
X0000880008Y0004133565D01*
X0000881159Y0004134716D01*
X0000891827Y0004150682D01*
X0000893073Y0004153691D01*
X0000896819Y0004172524D01*
X0000896819Y0004175780D01*
X0000896819Y0004175780D01*
X0000998558Y0004175780D01*
X0000998558Y0004172524D01*
X0001002304Y0004153691D01*
X0001003550Y0004150682D01*
X0001014218Y0004134716D01*
X0001015369Y0004133565D01*
X0001016521Y0004132413D01*
X0001032486Y0004121745D01*
X0001035495Y0004120499D01*
X0001054328Y0004116753D01*
X0001055150Y0004116753D01*
X0001055956Y0004116593D01*
X0001390602Y0004116593D01*
X0001391408Y0004116753D01*
X0001392230Y0004116753D01*
X0001411063Y0004120499D01*
X0001411944Y0004120864D01*
X0001414072Y0004121745D01*
X0001430037Y0004132413D01*
X0001431189Y0004133565D01*
X0001432340Y0004134716D01*
X0001443008Y0004150682D01*
X0001444254Y0004153691D01*
X0001448001Y0004172524D01*
X0001448001Y0004175780D01*
X0001448001Y0004175780D01*
X0001549739Y0004175780D01*
X0001549739Y0004172524D01*
X0001553485Y0004153691D01*
X0001554731Y0004150682D01*
X0001565399Y0004134716D01*
X0001566550Y0004133565D01*
X0001567702Y0004132413D01*
X0001583667Y0004121745D01*
X0001586676Y0004120499D01*
X0001605509Y0004116753D01*
X0001606331Y0004116753D01*
X0001607137Y0004116593D01*
X0002040208Y0004116593D01*
X0002041014Y0004116753D01*
X0002041836Y0004116753D01*
X0002060669Y0004120499D01*
X0002061551Y0004120864D01*
X0002063678Y0004121745D01*
X0002079644Y0004132413D01*
X0002080795Y0004133565D01*
X0002081947Y0004134716D01*
X0002092615Y0004150682D01*
X0002093861Y0004153691D01*
X0002097607Y0004172524D01*
X0002097607Y0004175780D01*
X0002097607Y0004175780D01*
X0002199345Y0004175780D01*
X0002199345Y0004172524D01*
X0002203091Y0004153691D01*
X0002204337Y0004150682D01*
X0002215005Y0004134716D01*
X0002216157Y0004133565D01*
X0002217308Y0004132413D01*
X0002233274Y0004121745D01*
X0002236282Y0004120499D01*
X0002255115Y0004116753D01*
X0002255937Y0004116753D01*
X0002256744Y0004116593D01*
X0002591389Y0004116593D01*
X0002592196Y0004116753D01*
X0002593018Y0004116753D01*
X0002611850Y0004120499D01*
X0002612732Y0004120864D01*
X0002614859Y0004121745D01*
X0002630825Y0004132413D01*
X0002631976Y0004133565D01*
X0002633128Y0004134716D01*
X0002643796Y0004150682D01*
X0002645042Y0004153691D01*
X0002648706Y0004172111D01*
X0002771389Y0004172111D01*
X0002775995Y0004148954D01*
X0002789113Y0004129323D01*
X0002808744Y0004116205D01*
X0002831901Y0004111599D01*
X0002855058Y0004116205D01*
X0002874689Y0004129323D01*
X0002887807Y0004148954D01*
X0002892413Y0004172111D01*
X0002887807Y0004195268D01*
X0002874689Y0004214899D01*
X0002855058Y0004228017D01*
X0002831901Y0004232623D01*
X0002808744Y0004228017D01*
X0002789113Y0004214899D01*
X0002775995Y0004195268D01*
X0002771389Y0004172111D01*
X0002648706Y0004172111D01*
X0002648788Y0004172524D01*
X0002648788Y0004175780D01*
X0002645042Y0004194613D01*
X0002644771Y0004195268D01*
X0002643796Y0004197622D01*
X0002633128Y0004213587D01*
X0002631537Y0004215178D01*
X0002630825Y0004215890D01*
X0002614859Y0004226558D01*
X0002612732Y0004227439D01*
X0002611850Y0004227804D01*
X0002593018Y0004231550D01*
X0002592196Y0004231550D01*
X0002591389Y0004231711D01*
X0002256744Y0004231711D01*
X0002255937Y0004231551D01*
X0002255115Y0004231551D01*
X0002236282Y0004227804D01*
X0002233274Y0004226558D01*
X0002217308Y0004215890D01*
X0002216596Y0004215178D01*
X0002215005Y0004213587D01*
X0002204337Y0004197622D01*
X0002203456Y0004195494D01*
X0002203091Y0004194613D01*
X0002199345Y0004175780D01*
X0002097607Y0004175780D01*
X0002093861Y0004194613D01*
X0002093590Y0004195268D01*
X0002092615Y0004197622D01*
X0002081947Y0004213587D01*
X0002080356Y0004215178D01*
X0002079644Y0004215890D01*
X0002063678Y0004226558D01*
X0002061551Y0004227439D01*
X0002060669Y0004227804D01*
X0002041836Y0004231550D01*
X0002041014Y0004231550D01*
X0002040208Y0004231711D01*
X0001607137Y0004231711D01*
X0001606331Y0004231551D01*
X0001605509Y0004231551D01*
X0001586676Y0004227804D01*
X0001583667Y0004226558D01*
X0001567702Y0004215890D01*
X0001566990Y0004215178D01*
X0001565399Y0004213587D01*
X0001554731Y0004197622D01*
X0001553850Y0004195494D01*
X0001553485Y0004194613D01*
X0001549739Y0004175780D01*
X0001448001Y0004175780D01*
X0001444254Y0004194613D01*
X0001443983Y0004195268D01*
X0001443008Y0004197622D01*
X0001432340Y0004213587D01*
X0001430749Y0004215178D01*
X0001430037Y0004215890D01*
X0001414072Y0004226558D01*
X0001411944Y0004227439D01*
X0001411063Y0004227804D01*
X0001392230Y0004231550D01*
X0001391408Y0004231550D01*
X0001390602Y0004231711D01*
X0001055956Y0004231711D01*
X0001055150Y0004231551D01*
X0001054328Y0004231551D01*
X0001035495Y0004227804D01*
X0001032486Y0004226558D01*
X0001016521Y0004215890D01*
X0001015809Y0004215178D01*
X0001014218Y0004213587D01*
X0001003550Y0004197622D01*
X0001002669Y0004195494D01*
X0001002304Y0004194613D01*
X0000998558Y0004175780D01*
X0000896819Y0004175780D01*
X0000893073Y0004194613D01*
X0000892802Y0004195268D01*
X0000891827Y0004197622D01*
X0000881159Y0004213587D01*
X0000879568Y0004215178D01*
X0000878856Y0004215890D01*
X0000862891Y0004226558D01*
X0000860763Y0004227439D01*
X0000859882Y0004227804D01*
X0000841049Y0004231550D01*
X0000840227Y0004231550D01*
X0000839421Y0004231711D01*
X0000406350Y0004231711D01*
X0000405544Y0004231551D01*
X0000404722Y0004231551D01*
X0000385889Y0004227804D01*
X0000382880Y0004226558D01*
X0000366914Y0004215890D01*
X0000366202Y0004215178D01*
X0000364612Y0004213587D01*
X0000353944Y0004197622D01*
X0000353062Y0004195494D01*
X0000352697Y0004194613D01*
X0000348951Y0004175780D01*
X0000214518Y0004175780D01*
X0000210641Y0004195268D01*
X0000197524Y0004214899D01*
X0000177893Y0004228017D01*
X0000154736Y0004232623D01*
X0000131579Y0004228017D01*
X0000111947Y0004214899D01*
X0000098830Y0004195268D01*
X0000094224Y0004172111D01*
X0000004814Y0004172111D01*
X0000004814Y0004249729D01*
X0000010495Y0004278288D01*
X0000026372Y0004302050D01*
X0000050133Y0004317926D01*
X0000078692Y0004323607D01*
X0002911882Y0004323607D01*
X0002940441Y0004317926D01*
X0002940441Y0004317926D01*
G37*
X0002940441Y0004317926D02*
X0002964202Y0004302050D01*
X0002980079Y0004278289D01*
X0002985759Y0004249729D01*
X0002985759Y0003946855D01*
X0002985173Y0003943908D01*
X0002983805Y0003941860D01*
X0002981757Y0003940492D01*
X0002978811Y0003939906D01*
X0002952177Y0003939906D01*
X0002950112Y0003939496D01*
X0002948363Y0003938326D01*
X0002947193Y0003936577D01*
X0002946783Y0003934512D01*
X0002946783Y0003350260D01*
X0002947194Y0003348196D01*
X0002948363Y0003346447D01*
X0002950113Y0003345277D01*
X0002952177Y0003344867D01*
X0002978811Y0003344867D01*
X0002981757Y0003344281D01*
X0002983805Y0003342912D01*
X0002985173Y0003340865D01*
X0002985759Y0003337918D01*
X0002985759Y0003050004D01*
X0002978610Y0003014062D01*
X0002958552Y0002984043D01*
X0002928532Y0002963985D01*
X0002892590Y0002956835D01*
X0000078692Y0002956442D01*
X0000050133Y0002962122D01*
X0000026372Y0002977999D01*
X0000010495Y0003001760D01*
X0000004814Y0003030319D01*
X0000004814Y0003107150D01*
X0000094224Y0003107150D01*
X0000098830Y0003083993D01*
X0000111947Y0003064362D01*
X0000131579Y0003051245D01*
X0000154736Y0003046638D01*
X0000177893Y0003051245D01*
X0000197524Y0003064362D01*
X0000210641Y0003083993D01*
X0000212062Y0003091134D01*
X0000427691Y0003091134D01*
X0000427691Y0003087878D01*
X0000431437Y0003069045D01*
X0000432684Y0003066036D01*
X0000443352Y0003050071D01*
X0000443949Y0003049473D01*
X0000445654Y0003047768D01*
X0000461620Y0003037100D01*
X0000464629Y0003035854D01*
X0000483462Y0003032107D01*
X0000484284Y0003032107D01*
X0000485090Y0003031947D01*
X0000898476Y0003031947D01*
X0000899282Y0003032107D01*
X0000900104Y0003032107D01*
X0000918937Y0003035854D01*
X0000919818Y0003036219D01*
X0000921946Y0003037100D01*
X0000937911Y0003047768D01*
X0000939617Y0003049473D01*
X0000940214Y0003050071D01*
X0000950882Y0003066036D01*
X0000952128Y0003069045D01*
X0000955875Y0003087878D01*
X0000955875Y0003091134D01*
X0000952128Y0003109967D01*
X0000951941Y0003110420D01*
X0000950882Y0003112976D01*
X0000940214Y0003128942D01*
X0000938623Y0003130533D01*
X0000937911Y0003131245D01*
X0000921946Y0003141912D01*
X0000919818Y0003142794D01*
X0000918937Y0003143159D01*
X0000900104Y0003146905D01*
X0000899282Y0003146905D01*
X0000898476Y0003147065D01*
X0000485090Y0003147065D01*
X0000484284Y0003146905D01*
X0000483462Y0003146905D01*
X0000464629Y0003143159D01*
X0000461620Y0003141912D01*
X0000445654Y0003131245D01*
X0000444943Y0003130533D01*
X0000443352Y0003128942D01*
X0000432684Y0003112976D01*
X0000432149Y0003111686D01*
X0000431437Y0003109967D01*
X0000427691Y0003091134D01*
X0000212062Y0003091134D01*
X0000215247Y0003107150D01*
X0000210641Y0003130307D01*
X0000197524Y0003149939D01*
X0000177893Y0003163056D01*
X0000154736Y0003167662D01*
X0000131579Y0003163056D01*
X0000111947Y0003149939D01*
X0000098830Y0003130307D01*
X0000094224Y0003107150D01*
X0000004814Y0003107150D01*
X0000004814Y0003333981D01*
X0000005401Y0003336928D01*
X0000006769Y0003338975D01*
X0000008816Y0003340344D01*
X0000011763Y0003340930D01*
X0000038397Y0003340930D01*
X0000040461Y0003341340D01*
X0000042211Y0003342510D01*
X0000043380Y0003344259D01*
X0000043791Y0003346323D01*
X0000043791Y0003349009D01*
X0000211156Y0003349009D01*
X0000211156Y0003345752D01*
X0000214902Y0003326919D01*
X0000216148Y0003323910D01*
X0000226816Y0003307945D01*
X0000227527Y0003307234D01*
X0000229119Y0003305642D01*
X0000245085Y0003294974D01*
X0000248093Y0003293728D01*
X0000266926Y0003289981D01*
X0000267748Y0003289981D01*
X0000268555Y0003289821D01*
X0000465405Y0003289821D01*
X0000466211Y0003289982D01*
X0000467033Y0003289982D01*
X0000485866Y0003293728D01*
X0000486747Y0003294093D01*
X0000488875Y0003294974D01*
X0000504841Y0003305642D01*
X0000506433Y0003307234D01*
X0000507143Y0003307945D01*
X0000517811Y0003323910D01*
X0000519058Y0003326919D01*
X0000522804Y0003345752D01*
X0000522804Y0003349008D01*
X0000519058Y0003367841D01*
X0000519058Y0003367841D01*
X0000517811Y0003370850D01*
X0000507143Y0003386816D01*
X0000505552Y0003388407D01*
X0000504841Y0003389119D01*
X0000488875Y0003399787D01*
X0000486747Y0003400668D01*
X0000485866Y0003401033D01*
X0000467033Y0003404779D01*
X0000466211Y0003404779D01*
X0000465405Y0003404939D01*
X0000268555Y0003404939D01*
X0000267748Y0003404779D01*
X0000266926Y0003404779D01*
X0000248093Y0003401033D01*
X0000245085Y0003399787D01*
X0000229119Y0003389119D01*
X0000228407Y0003388407D01*
X0000226816Y0003386816D01*
X0000216148Y0003370850D01*
X0000215562Y0003369434D01*
X0000214902Y0003367841D01*
X0000211156Y0003349009D01*
X0000043791Y0003349009D01*
X0000043791Y0003485427D01*
X0000661187Y0003485427D01*
X0000661187Y0003221647D01*
X0000661326Y0003220948D01*
X0000661325Y0003220294D01*
X0000663105Y0003211299D01*
X0000663624Y0003210044D01*
X0000664140Y0003208791D01*
X0000669244Y0003201120D01*
X0000671163Y0003199193D01*
X0000671164Y0003199193D01*
X0000678815Y0003194059D01*
X0000678815Y0003194059D01*
X0000680280Y0003193449D01*
X0000681325Y0003193014D01*
X0000681325Y0003193014D01*
X0000690359Y0003191199D01*
X0000691068Y0003191198D01*
X0000691777Y0003191057D01*
X0000863037Y0003191057D01*
X0000863940Y0003191236D01*
X0000864404Y0003191236D01*
X0000873426Y0003193033D01*
X0000873426Y0003193033D01*
X0000874898Y0003193643D01*
X0000875938Y0003194074D01*
X0000875938Y0003194074D01*
X0000883585Y0003199187D01*
X0000885508Y0003201110D01*
X0000885508Y0003201110D01*
X0000890616Y0003208760D01*
X0000890616Y0003208760D01*
X0000891656Y0003211272D01*
X0000893449Y0003220295D01*
X0000893449Y0003220747D01*
X0000893628Y0003221647D01*
X0000893628Y0003406686D01*
X0001210399Y0003406686D01*
X0001210399Y0003297238D01*
X0001210533Y0003296564D01*
X0001210533Y0003295878D01*
X0001212032Y0003288345D01*
X0001212032Y0003288345D01*
X0001213072Y0003285833D01*
X0001217339Y0003279447D01*
X0001219262Y0003277524D01*
X0001225648Y0003273257D01*
X0001225648Y0003273257D01*
X0001227120Y0003272647D01*
X0001228160Y0003272216D01*
X0001228160Y0003272216D01*
X0001235693Y0003270718D01*
X0001236380Y0003270718D01*
X0001237053Y0003270584D01*
X0001249769Y0003270584D01*
X0001249769Y0003115348D01*
X0001249903Y0003114675D01*
X0001249903Y0003113988D01*
X0001251402Y0003106455D01*
X0001251402Y0003106455D01*
X0001252442Y0003103943D01*
X0001256709Y0003097557D01*
X0001258632Y0003095634D01*
X0001265018Y0003091367D01*
X0001265018Y0003091367D01*
X0001266490Y0003090758D01*
X0001267530Y0003090327D01*
X0001267530Y0003090327D01*
X0001275063Y0003088828D01*
X0001275750Y0003088828D01*
X0001276423Y0003088694D01*
X0001717368Y0003088694D01*
X0001718041Y0003088828D01*
X0001718727Y0003088828D01*
X0001726260Y0003090327D01*
X0001726260Y0003090327D01*
X0001728211Y0003091134D01*
X0001923754Y0003091134D01*
X0001923754Y0003087878D01*
X0001927500Y0003069045D01*
X0001928747Y0003066036D01*
X0001939415Y0003050071D01*
X0001940012Y0003049473D01*
X0001941717Y0003047768D01*
X0001957683Y0003037100D01*
X0001960692Y0003035854D01*
X0001979525Y0003032107D01*
X0001980347Y0003032107D01*
X0001981153Y0003031947D01*
X0002512649Y0003031947D01*
X0002513455Y0003032107D01*
X0002514277Y0003032107D01*
X0002533110Y0003035854D01*
X0002533992Y0003036219D01*
X0002536119Y0003037100D01*
X0002552085Y0003047768D01*
X0002553790Y0003049473D01*
X0002554387Y0003050071D01*
X0002565055Y0003066036D01*
X0002566302Y0003069045D01*
X0002570048Y0003087878D01*
X0002570048Y0003091134D01*
X0002567049Y0003106211D01*
X0002770430Y0003106211D01*
X0002775036Y0003083054D01*
X0002788153Y0003063422D01*
X0002807785Y0003050305D01*
X0002830942Y0003045699D01*
X0002854098Y0003050305D01*
X0002873730Y0003063422D01*
X0002886847Y0003083054D01*
X0002891453Y0003106211D01*
X0002886847Y0003129368D01*
X0002873730Y0003148999D01*
X0002854098Y0003162116D01*
X0002830942Y0003166723D01*
X0002807785Y0003162116D01*
X0002788153Y0003148999D01*
X0002775036Y0003129368D01*
X0002770430Y0003106211D01*
X0002567049Y0003106211D01*
X0002566302Y0003109967D01*
X0002566114Y0003110420D01*
X0002565055Y0003112976D01*
X0002554387Y0003128942D01*
X0002552797Y0003130533D01*
X0002552085Y0003131245D01*
X0002536119Y0003141912D01*
X0002533992Y0003142794D01*
X0002533110Y0003143159D01*
X0002514277Y0003146905D01*
X0002513455Y0003146905D01*
X0002512649Y0003147065D01*
X0001981153Y0003147065D01*
X0001980347Y0003146905D01*
X0001979525Y0003146905D01*
X0001960692Y0003143159D01*
X0001957683Y0003141912D01*
X0001941717Y0003131245D01*
X0001941006Y0003130533D01*
X0001939415Y0003128942D01*
X0001928747Y0003112976D01*
X0001928212Y0003111686D01*
X0001927500Y0003109967D01*
X0001923754Y0003091134D01*
X0001728211Y0003091134D01*
X0001728772Y0003091367D01*
X0001735159Y0003095634D01*
X0001737081Y0003097557D01*
X0001741348Y0003103943D01*
X0001741349Y0003103943D01*
X0001741958Y0003105415D01*
X0001742389Y0003106455D01*
X0001742389Y0003106455D01*
X0001743887Y0003113988D01*
X0001743887Y0003114675D01*
X0001744021Y0003115348D01*
X0001744021Y0003270584D01*
X0001750832Y0003270584D01*
X0001751505Y0003270718D01*
X0001752192Y0003270718D01*
X0001759725Y0003272216D01*
X0001759725Y0003272216D01*
X0001762237Y0003273257D01*
X0001768623Y0003277524D01*
X0001770546Y0003279447D01*
X0001774813Y0003285833D01*
X0001774813Y0003285833D01*
X0001775818Y0003288260D01*
X0001775854Y0003288345D01*
X0001775854Y0003288345D01*
X0001777352Y0003295878D01*
X0001777352Y0003296564D01*
X0001777486Y0003297238D01*
X0001777486Y0003308261D01*
X0001927531Y0003308261D01*
X0001932811Y0003281715D01*
X0001947849Y0003259209D01*
X0001970354Y0003244172D01*
X0001996901Y0003238891D01*
X0002023448Y0003244172D01*
X0002045953Y0003259209D01*
X0002060991Y0003281715D01*
X0002066271Y0003308261D01*
X0002110572Y0003308261D01*
X0002115853Y0003281715D01*
X0002130890Y0003259209D01*
X0002153395Y0003244172D01*
X0002179942Y0003238891D01*
X0002206489Y0003244172D01*
X0002228994Y0003259209D01*
X0002244032Y0003281715D01*
X0002249312Y0003308261D01*
X0002245123Y0003329323D01*
X0002455250Y0003329323D01*
X0002455250Y0003326067D01*
X0002458997Y0003307234D01*
X0002460243Y0003304225D01*
X0002470911Y0003288260D01*
X0002471981Y0003287190D01*
X0002473214Y0003285957D01*
X0002489179Y0003275289D01*
X0002492188Y0003274043D01*
X0002511021Y0003270296D01*
X0002511843Y0003270296D01*
X0002512649Y0003270136D01*
X0002709500Y0003270136D01*
X0002710306Y0003270296D01*
X0002711128Y0003270296D01*
X0002729961Y0003274043D01*
X0002730842Y0003274408D01*
X0002732969Y0003275289D01*
X0002748935Y0003285957D01*
X0002750168Y0003287190D01*
X0002751238Y0003288260D01*
X0002761906Y0003304225D01*
X0002763152Y0003307234D01*
X0002766898Y0003326067D01*
X0002766898Y0003329323D01*
X0002763152Y0003348156D01*
X0002763089Y0003348309D01*
X0002761906Y0003351165D01*
X0002751238Y0003367131D01*
X0002749647Y0003368722D01*
X0002748935Y0003369433D01*
X0002732969Y0003380101D01*
X0002730842Y0003380983D01*
X0002729961Y0003381348D01*
X0002711128Y0003385094D01*
X0002710306Y0003385094D01*
X0002709500Y0003385254D01*
X0002512649Y0003385254D01*
X0002511843Y0003385094D01*
X0002511021Y0003385094D01*
X0002492188Y0003381348D01*
X0002489179Y0003380101D01*
X0002473214Y0003369434D01*
X0002472502Y0003368722D01*
X0002470911Y0003367131D01*
X0002460243Y0003351165D01*
X0002459479Y0003349320D01*
X0002458997Y0003348156D01*
X0002455250Y0003329323D01*
X0002245123Y0003329323D01*
X0002244032Y0003334808D01*
X0002228994Y0003357313D01*
X0002206489Y0003372351D01*
X0002179942Y0003377631D01*
X0002153395Y0003372351D01*
X0002130890Y0003357313D01*
X0002115853Y0003334808D01*
X0002110572Y0003308261D01*
X0002066271Y0003308261D01*
X0002060991Y0003334808D01*
X0002045953Y0003357313D01*
X0002023448Y0003372351D01*
X0001996901Y0003377631D01*
X0001970354Y0003372351D01*
X0001947849Y0003357313D01*
X0001932811Y0003334808D01*
X0001927531Y0003308261D01*
X0001777486Y0003308261D01*
X0001777486Y0003406686D01*
X0001777352Y0003407360D01*
X0001777352Y0003408046D01*
X0001775854Y0003415579D01*
X0001774813Y0003418091D01*
X0001774813Y0003418091D01*
X0001770546Y0003424477D01*
X0001768623Y0003426400D01*
X0001762237Y0003430667D01*
X0001759725Y0003431708D01*
X0001759725Y0003431708D01*
X0001752192Y0003433206D01*
X0001751505Y0003433206D01*
X0001750832Y0003433340D01*
X0001237053Y0003433340D01*
X0001236380Y0003433206D01*
X0001235693Y0003433206D01*
X0001228160Y0003431708D01*
X0001228160Y0003431708D01*
X0001227173Y0003431299D01*
X0001225648Y0003430667D01*
X0001225648Y0003430667D01*
X0001219262Y0003426400D01*
X0001217339Y0003424477D01*
X0001213072Y0003418091D01*
X0001213072Y0003418091D01*
X0001212032Y0003415579D01*
X0001210533Y0003408046D01*
X0001210533Y0003407360D01*
X0001210399Y0003406686D01*
X0000893628Y0003406686D01*
X0000893628Y0003485427D01*
X0000893507Y0003486034D01*
X0000893512Y0003486736D01*
X0000891844Y0003495456D01*
X0000891343Y0003496691D01*
X0000890850Y0003497933D01*
X0000885841Y0003505674D01*
X0000883947Y0003507624D01*
X0000883947Y0003507624D01*
X0000882246Y0003508797D01*
X0001927531Y0003508797D01*
X0001932811Y0003482251D01*
X0001947849Y0003459745D01*
X0001970354Y0003444708D01*
X0001996901Y0003439427D01*
X0002023448Y0003444708D01*
X0002045953Y0003459745D01*
X0002060991Y0003482251D01*
X0002066271Y0003508797D01*
X0002110602Y0003508797D01*
X0002115882Y0003482251D01*
X0002130920Y0003459745D01*
X0002153425Y0003444708D01*
X0002179972Y0003439427D01*
X0002206519Y0003444708D01*
X0002229024Y0003459745D01*
X0002244062Y0003482251D01*
X0002249342Y0003508797D01*
X0002244062Y0003535344D01*
X0002229024Y0003557850D01*
X0002206519Y0003572887D01*
X0002179972Y0003578168D01*
X0002153425Y0003572887D01*
X0002130920Y0003557850D01*
X0002115882Y0003535344D01*
X0002110602Y0003508797D01*
X0002066271Y0003508797D01*
X0002060991Y0003535344D01*
X0002045953Y0003557850D01*
X0002023448Y0003572887D01*
X0001996901Y0003578168D01*
X0001970354Y0003572887D01*
X0001947849Y0003557850D01*
X0001932811Y0003535344D01*
X0001927531Y0003508797D01*
X0000882246Y0003508797D01*
X0000876357Y0003512859D01*
X0000873861Y0003513937D01*
X0000873861Y0003513937D01*
X0000864845Y0003515868D01*
X0000863700Y0003515885D01*
X0000863037Y0003516017D01*
X0000691777Y0003516017D01*
X0000691333Y0003515929D01*
X0000690419Y0003515929D01*
X0000681368Y0003514130D01*
X0000681368Y0003514130D01*
X0000681368Y0003514130D01*
X0000681367Y0003514130D01*
X0000680175Y0003513636D01*
X0000678856Y0003513090D01*
X0000671176Y0003507961D01*
X0000669253Y0003506039D01*
X0000669253Y0003506039D01*
X0000664121Y0003498362D01*
X0000664120Y0003498362D01*
X0000663511Y0003496891D01*
X0000663079Y0003495850D01*
X0000663079Y0003495850D01*
X0000661275Y0003486794D01*
X0000661275Y0003485872D01*
X0000661187Y0003485427D01*
X0000043791Y0003485427D01*
X0000043791Y0003836652D01*
X0001947202Y0003836652D01*
X0001947803Y0003833608D01*
X0001947803Y0003833608D01*
X0001966842Y0003787447D01*
X0001966842Y0003787447D01*
X0001967071Y0003787102D01*
X0001968562Y0003784864D01*
X0001968562Y0003784864D01*
X0002003816Y0003749503D01*
X0002003816Y0003749503D01*
X0002004851Y0003748809D01*
X0002006394Y0003747775D01*
X0002006394Y0003747775D01*
X0002052497Y0003728597D01*
X0002052497Y0003728596D01*
X0002055540Y0003727986D01*
X0002105473Y0003727911D01*
X0002108517Y0003728512D01*
X0002108517Y0003728512D01*
X0002154678Y0003747550D01*
X0002154678Y0003747550D01*
X0002156228Y0003748583D01*
X0002157261Y0003749270D01*
X0002157261Y0003749271D01*
X0002192622Y0003784525D01*
X0002192626Y0003784530D01*
X0002192631Y0003784534D01*
X0002193494Y0003785825D01*
X0002194350Y0003787102D01*
X0002194351Y0003787109D01*
X0002194355Y0003787114D01*
X0002194652Y0003788609D01*
X0002194960Y0003790145D01*
X0002194959Y0003790151D01*
X0002194960Y0003790157D01*
X0002194960Y0003836652D01*
X0002380273Y0003836652D01*
X0002380874Y0003833608D01*
X0002380874Y0003833608D01*
X0002399913Y0003787447D01*
X0002399913Y0003787447D01*
X0002400142Y0003787102D01*
X0002401633Y0003784864D01*
X0002401633Y0003784864D01*
X0002436887Y0003749503D01*
X0002436887Y0003749503D01*
X0002437922Y0003748809D01*
X0002439465Y0003747775D01*
X0002439465Y0003747775D01*
X0002485568Y0003728597D01*
X0002485568Y0003728596D01*
X0002488610Y0003727986D01*
X0002538544Y0003727911D01*
X0002541588Y0003728512D01*
X0002541588Y0003728512D01*
X0002587749Y0003747550D01*
X0002587749Y0003747550D01*
X0002589299Y0003748583D01*
X0002590332Y0003749270D01*
X0002590332Y0003749271D01*
X0002625693Y0003784525D01*
X0002625697Y0003784530D01*
X0002625702Y0003784534D01*
X0002626565Y0003785825D01*
X0002627421Y0003787102D01*
X0002627422Y0003787109D01*
X0002627426Y0003787114D01*
X0002627723Y0003788609D01*
X0002628031Y0003790145D01*
X0002628030Y0003790151D01*
X0002628031Y0003790157D01*
X0002628031Y0003932676D01*
X0002628031Y0003932677D01*
X0002627426Y0003935720D01*
X0002625702Y0003938300D01*
X0002590662Y0003973340D01*
X0002589368Y0003974204D01*
X0002588093Y0003975059D01*
X0002588082Y0003975063D01*
X0002588082Y0003975063D01*
X0002588082Y0003975063D01*
X0002541990Y0003994237D01*
X0002541990Y0003994237D01*
X0002541990Y0003994237D01*
X0002539558Y0003994725D01*
X0002538948Y0003994847D01*
X0002538948Y0003994847D01*
X0002489015Y0003994923D01*
X0002485970Y0003994322D01*
X0002439809Y0003975283D01*
X0002439809Y0003975283D01*
X0002437226Y0003973563D01*
X0002401865Y0003938309D01*
X0002400137Y0003935731D01*
X0002400137Y0003935731D01*
X0002380959Y0003889628D01*
X0002380959Y0003889628D01*
X0002380349Y0003886585D01*
X0002380273Y0003836652D01*
X0002194960Y0003836652D01*
X0002194960Y0003932676D01*
X0002194960Y0003932677D01*
X0002194355Y0003935720D01*
X0002192631Y0003938300D01*
X0002157591Y0003973340D01*
X0002156297Y0003974204D01*
X0002155023Y0003975059D01*
X0002155011Y0003975063D01*
X0002155011Y0003975063D01*
X0002155011Y0003975063D01*
X0002108919Y0003994237D01*
X0002108919Y0003994237D01*
X0002108919Y0003994237D01*
X0002106487Y0003994725D01*
X0002105877Y0003994847D01*
X0002105877Y0003994847D01*
X0002055944Y0003994923D01*
X0002052899Y0003994322D01*
X0002006738Y0003975283D01*
X0002006738Y0003975283D01*
X0002004156Y0003973563D01*
X0001968794Y0003938309D01*
X0001967066Y0003935731D01*
X0001967066Y0003935731D01*
X0001947888Y0003889628D01*
X0001947888Y0003889628D01*
X0001947278Y0003886585D01*
X0001947202Y0003836652D01*
X0000043791Y0003836652D01*
X0000043791Y0003930575D01*
X0000043380Y0003932640D01*
X0000042211Y0003934389D01*
X0000040461Y0003935559D01*
X0000038397Y0003935969D01*
X0000011763Y0003935969D01*
X0000008816Y0003936555D01*
X0000006769Y0003937923D01*
X0000005401Y0003939971D01*
X0000004814Y0003942918D01*
X0000004814Y0004172111D01*
X0000094224Y0004172111D01*
X0000098830Y0004148954D01*
X0000111947Y0004129323D01*
X0000131579Y0004116205D01*
X0000154736Y0004111599D01*
X0000177893Y0004116205D01*
X0000197524Y0004129323D01*
X0000210641Y0004148954D01*
X0000215247Y0004172111D01*
X0000214518Y0004175780D01*
X0000348951Y0004175780D01*
X0000348951Y0004172524D01*
X0000352697Y0004153691D01*
X0000353944Y0004150682D01*
X0000364612Y0004134716D01*
X0000365763Y0004133565D01*
X0000366914Y0004132413D01*
X0000382880Y0004121745D01*
X0000385889Y0004120499D01*
X0000404722Y0004116753D01*
X0000405544Y0004116753D01*
X0000406350Y0004116593D01*
X0000839421Y0004116593D01*
X0000840227Y0004116753D01*
X0000841049Y0004116753D01*
X0000859882Y0004120499D01*
X0000860763Y0004120864D01*
X0000862891Y0004121745D01*
X0000878856Y0004132413D01*
X0000880008Y0004133565D01*
X0000881159Y0004134716D01*
X0000891827Y0004150682D01*
X0000893073Y0004153691D01*
X0000896819Y0004172524D01*
X0000896819Y0004175780D01*
X0000896819Y0004175780D01*
X0000998558Y0004175780D01*
X0000998558Y0004172524D01*
X0001002304Y0004153691D01*
X0001003550Y0004150682D01*
X0001014218Y0004134716D01*
X0001015369Y0004133565D01*
X0001016521Y0004132413D01*
X0001032486Y0004121745D01*
X0001035495Y0004120499D01*
X0001054328Y0004116753D01*
X0001055150Y0004116753D01*
X0001055956Y0004116593D01*
X0001390602Y0004116593D01*
X0001391408Y0004116753D01*
X0001392230Y0004116753D01*
X0001411063Y0004120499D01*
X0001411944Y0004120864D01*
X0001414072Y0004121745D01*
X0001430037Y0004132413D01*
X0001431189Y0004133565D01*
X0001432340Y0004134716D01*
X0001443008Y0004150682D01*
X0001444254Y0004153691D01*
X0001448001Y0004172524D01*
X0001448001Y0004175780D01*
X0001448001Y0004175780D01*
X0001549739Y0004175780D01*
X0001549739Y0004172524D01*
X0001553485Y0004153691D01*
X0001554731Y0004150682D01*
X0001565399Y0004134716D01*
X0001566550Y0004133565D01*
X0001567702Y0004132413D01*
X0001583667Y0004121745D01*
X0001586676Y0004120499D01*
X0001605509Y0004116753D01*
X0001606331Y0004116753D01*
X0001607137Y0004116593D01*
X0002040208Y0004116593D01*
X0002041014Y0004116753D01*
X0002041836Y0004116753D01*
X0002060669Y0004120499D01*
X0002061551Y0004120864D01*
X0002063678Y0004121745D01*
X0002079644Y0004132413D01*
X0002080795Y0004133565D01*
X0002081947Y0004134716D01*
X0002092615Y0004150682D01*
X0002093861Y0004153691D01*
X0002097607Y0004172524D01*
X0002097607Y0004175780D01*
X0002097607Y0004175780D01*
X0002199345Y0004175780D01*
X0002199345Y0004172524D01*
X0002203091Y0004153691D01*
X0002204337Y0004150682D01*
X0002215005Y0004134716D01*
X0002216157Y0004133565D01*
X0002217308Y0004132413D01*
X0002233274Y0004121745D01*
X0002236282Y0004120499D01*
X0002255115Y0004116753D01*
X0002255937Y0004116753D01*
X0002256744Y0004116593D01*
X0002591389Y0004116593D01*
X0002592196Y0004116753D01*
X0002593018Y0004116753D01*
X0002611850Y0004120499D01*
X0002612732Y0004120864D01*
X0002614859Y0004121745D01*
X0002630825Y0004132413D01*
X0002631976Y0004133565D01*
X0002633128Y0004134716D01*
X0002643796Y0004150682D01*
X0002645042Y0004153691D01*
X0002648706Y0004172111D01*
X0002771389Y0004172111D01*
X0002775995Y0004148954D01*
X0002789113Y0004129323D01*
X0002808744Y0004116205D01*
X0002831901Y0004111599D01*
X0002855058Y0004116205D01*
X0002874689Y0004129323D01*
X0002887807Y0004148954D01*
X0002892413Y0004172111D01*
X0002887807Y0004195268D01*
X0002874689Y0004214899D01*
X0002855058Y0004228017D01*
X0002831901Y0004232623D01*
X0002808744Y0004228017D01*
X0002789113Y0004214899D01*
X0002775995Y0004195268D01*
X0002771389Y0004172111D01*
X0002648706Y0004172111D01*
X0002648788Y0004172524D01*
X0002648788Y0004175780D01*
X0002645042Y0004194613D01*
X0002644771Y0004195268D01*
X0002643796Y0004197622D01*
X0002633128Y0004213587D01*
X0002631537Y0004215178D01*
X0002630825Y0004215890D01*
X0002614859Y0004226558D01*
X0002612732Y0004227439D01*
X0002611850Y0004227804D01*
X0002593018Y0004231550D01*
X0002592196Y0004231550D01*
X0002591389Y0004231711D01*
X0002256744Y0004231711D01*
X0002255937Y0004231551D01*
X0002255115Y0004231551D01*
X0002236282Y0004227804D01*
X0002233274Y0004226558D01*
X0002217308Y0004215890D01*
X0002216596Y0004215178D01*
X0002215005Y0004213587D01*
X0002204337Y0004197622D01*
X0002203456Y0004195494D01*
X0002203091Y0004194613D01*
X0002199345Y0004175780D01*
X0002097607Y0004175780D01*
X0002093861Y0004194613D01*
X0002093590Y0004195268D01*
X0002092615Y0004197622D01*
X0002081947Y0004213587D01*
X0002080356Y0004215178D01*
X0002079644Y0004215890D01*
X0002063678Y0004226558D01*
X0002061551Y0004227439D01*
X0002060669Y0004227804D01*
X0002041836Y0004231550D01*
X0002041014Y0004231550D01*
X0002040208Y0004231711D01*
X0001607137Y0004231711D01*
X0001606331Y0004231551D01*
X0001605509Y0004231551D01*
X0001586676Y0004227804D01*
X0001583667Y0004226558D01*
X0001567702Y0004215890D01*
X0001566990Y0004215178D01*
X0001565399Y0004213587D01*
X0001554731Y0004197622D01*
X0001553850Y0004195494D01*
X0001553485Y0004194613D01*
X0001549739Y0004175780D01*
X0001448001Y0004175780D01*
X0001444254Y0004194613D01*
X0001443983Y0004195268D01*
X0001443008Y0004197622D01*
X0001432340Y0004213587D01*
X0001430749Y0004215178D01*
X0001430037Y0004215890D01*
X0001414072Y0004226558D01*
X0001411944Y0004227439D01*
X0001411063Y0004227804D01*
X0001392230Y0004231550D01*
X0001391408Y0004231550D01*
X0001390602Y0004231711D01*
X0001055956Y0004231711D01*
X0001055150Y0004231551D01*
X0001054328Y0004231551D01*
X0001035495Y0004227804D01*
X0001032486Y0004226558D01*
X0001016521Y0004215890D01*
X0001015809Y0004215178D01*
X0001014218Y0004213587D01*
X0001003550Y0004197622D01*
X0001002669Y0004195494D01*
X0001002304Y0004194613D01*
X0000998558Y0004175780D01*
X0000896819Y0004175780D01*
X0000893073Y0004194613D01*
X0000892802Y0004195268D01*
X0000891827Y0004197622D01*
X0000881159Y0004213587D01*
X0000879568Y0004215178D01*
X0000878856Y0004215890D01*
X0000862891Y0004226558D01*
X0000860763Y0004227439D01*
X0000859882Y0004227804D01*
X0000841049Y0004231550D01*
X0000840227Y0004231550D01*
X0000839421Y0004231711D01*
X0000406350Y0004231711D01*
X0000405544Y0004231551D01*
X0000404722Y0004231551D01*
X0000385889Y0004227804D01*
X0000382880Y0004226558D01*
X0000366914Y0004215890D01*
X0000366202Y0004215178D01*
X0000364612Y0004213587D01*
X0000353944Y0004197622D01*
X0000353062Y0004195494D01*
X0000352697Y0004194613D01*
X0000348951Y0004175780D01*
X0000214518Y0004175780D01*
X0000210641Y0004195268D01*
X0000197524Y0004214899D01*
X0000177893Y0004228017D01*
X0000154736Y0004232623D01*
X0000131579Y0004228017D01*
X0000111947Y0004214899D01*
X0000098830Y0004195268D01*
X0000094224Y0004172111D01*
X0000004814Y0004172111D01*
X0000004814Y0004249729D01*
X0000010495Y0004278288D01*
X0000026372Y0004302050D01*
X0000050133Y0004317926D01*
X0000078692Y0004323607D01*
X0002911882Y0004323607D01*
X0002940441Y0004317926D01*
G04 next file*
%LPD*%
G01*
D23*
D24*
X0000000000Y0001377952D02*
X0002385826Y0000557874D03*
X0002406133Y0000633661D03*
X0002461614Y0000689141D03*
X0002537401Y0000709448D03*
X0002613188Y0000689141D03*
X0002668669Y0000633661D03*
X0002688975Y0000557874D03*
X0002668669Y0000482086D03*
X0002613188Y0000426606D03*
X0002537401Y0000406299D03*
X0002461614Y0000426606D03*
X0002406133Y0000482086D03*
X0001874015Y0000557874D03*
X0001894322Y0000633661D03*
X0001949803Y0000689141D03*
X0002025589Y0000709448D03*
X0002101377Y0000689141D03*
X0002156858Y0000633661D03*
X0002177165Y0000557874D03*
X0002156858Y0000482086D03*
X0002101377Y0000426606D03*
X0002025589Y0000406299D03*
X0001949803Y0000426606D03*
X0001894322Y0000482086D03*
X0002385826Y0001109055D03*
X0002406133Y0001184842D03*
X0002461614Y0001240322D03*
X0002537401Y0001260629D03*
X0002613188Y0001240322D03*
X0002668669Y0001184842D03*
X0002688975Y0001109055D03*
X0002668669Y0001033266D03*
X0002613188Y0000977787D03*
X0002537401Y0000957480D03*
X0002461614Y0000977787D03*
X0002406133Y0001033266D03*
X0001874015Y0001109055D03*
X0001894322Y0001184842D03*
X0001949803Y0001240322D03*
X0002025589Y0001260629D03*
X0002101377Y0001240322D03*
X0002156858Y0001184842D03*
X0002177165Y0001109055D03*
X0002156858Y0001033266D03*
X0002101377Y0000977787D03*
X0002025589Y0000957480D03*
X0001949803Y0000977787D03*
X0001894322Y0001033266D03*
X0001322834Y0000557874D03*
X0001343141Y0000633661D03*
X0001398622Y0000689141D03*
X0001474409Y0000709448D03*
X0001550196Y0000689141D03*
X0001605677Y0000633661D03*
X0001625984Y0000557874D03*
X0001605677Y0000482086D03*
X0001550196Y0000426606D03*
X0001474409Y0000406299D03*
X0001398622Y0000426606D03*
X0001343141Y0000482086D03*
X0000811023Y0000557874D03*
X0000831330Y0000633661D03*
X0000886811Y0000689141D03*
X0000962598Y0000709448D03*
X0001038384Y0000689141D03*
X0001093866Y0000633661D03*
X0001114173Y0000557874D03*
X0001093866Y0000482086D03*
X0001038384Y0000426606D03*
X0000962598Y0000406299D03*
X0000886811Y0000426606D03*
X0000831330Y0000482086D03*
X0000299212Y0000557874D03*
X0000319519Y0000633661D03*
X0000374999Y0000689141D03*
X0000450787Y0000709448D03*
X0000526574Y0000689141D03*
X0000582055Y0000633661D03*
X0000602362Y0000557874D03*
X0000582055Y0000482086D03*
X0000526574Y0000426606D03*
X0000450787Y0000406299D03*
X0000374999Y0000426606D03*
X0000319519Y0000482086D03*
X0001322834Y0001109055D03*
X0001343141Y0001184842D03*
X0001398622Y0001240322D03*
X0001474409Y0001260629D03*
X0001550196Y0001240322D03*
X0001605677Y0001184842D03*
X0001625984Y0001109055D03*
X0001605677Y0001033266D03*
X0001550196Y0000977787D03*
X0001474409Y0000957480D03*
X0001398622Y0000977787D03*
X0001343141Y0001033266D03*
X0000811023Y0001109055D03*
X0000831330Y0001184842D03*
X0000886811Y0001240322D03*
X0000962598Y0001260629D03*
X0001038384Y0001240322D03*
X0001093866Y0001184842D03*
X0001114173Y0001109055D03*
X0001093866Y0001033266D03*
X0001038384Y0000977787D03*
X0000962598Y0000957480D03*
X0000886811Y0000977787D03*
X0000831330Y0001033266D03*
X0000299212Y0001109055D03*
X0000319519Y0001184842D03*
X0000374999Y0001240322D03*
X0000450787Y0001260629D03*
X0000526574Y0001240322D03*
X0000582055Y0001184842D03*
X0000602362Y0001109055D03*
X0000582055Y0001033266D03*
X0000526574Y0000977787D03*
X0000450787Y0000957480D03*
X0000374999Y0000977787D03*
X0000319519Y0001033266D03*
D25*
G36*
X0002942201Y0001365303D02*
X0002965962Y0001349426D01*
X0002981838Y0001325665D01*
X0002987519Y0001297106D01*
X0002987519Y0000994232D01*
X0002986932Y0000991285D01*
X0002985565Y0000989237D01*
X0002983517Y0000987869D01*
X0002980571Y0000987283D01*
X0002953936Y0000987283D01*
X0002951872Y0000986872D01*
X0002950123Y0000985703D01*
X0002948953Y0000983953D01*
X0002948543Y0000981889D01*
X0002948543Y0000397637D01*
X0002948953Y0000395573D01*
X0002950123Y0000393823D01*
X0002951872Y0000392654D01*
X0002953936Y0000392244D01*
X0002980571Y0000392244D01*
X0002983517Y0000391657D01*
X0002985565Y0000390289D01*
X0002986932Y0000388241D01*
X0002987519Y0000385295D01*
X0002987519Y0000097381D01*
X0002980370Y0000061439D01*
X0002960312Y0000031419D01*
X0002930292Y0000011361D01*
X0002894350Y0000004212D01*
X0000080452Y0000003818D01*
X0000051892Y0000009499D01*
X0000028132Y0000025376D01*
X0000012255Y0000049137D01*
X0000006573Y0000077696D01*
X0000006573Y0000154527D01*
X0000095984Y0000154527D01*
X0000100590Y0000131370D01*
X0000113707Y0000111738D01*
X0000133339Y0000098621D01*
X0000156496Y0000094015D01*
X0000179651Y0000098621D01*
X0000199284Y0000111738D01*
X0000212400Y0000131370D01*
X0000216812Y0000153543D01*
X0002772165Y0000153543D01*
X0002776770Y0000130386D01*
X0002789888Y0000110755D01*
X0002809520Y0000097637D01*
X0002832677Y0000093030D01*
X0002855834Y0000097637D01*
X0002875465Y0000110755D01*
X0002888582Y0000130386D01*
X0002893188Y0000153543D01*
X0002888582Y0000176700D01*
X0002875465Y0000196331D01*
X0002855834Y0000209448D01*
X0002832677Y0000214055D01*
X0002809520Y0000209448D01*
X0002789888Y0000196331D01*
X0002776770Y0000176700D01*
X0002772165Y0000153543D01*
X0000216812Y0000153543D01*
X0000217007Y0000154527D01*
X0000212400Y0000177684D01*
X0000199284Y0000197315D01*
X0000179651Y0000210433D01*
X0000156496Y0000215039D01*
X0000133339Y0000210433D01*
X0000113707Y0000197315D01*
X0000100590Y0000177684D01*
X0000095984Y0000154527D01*
X0000006573Y0000154527D01*
X0000006573Y0000381358D01*
X0000007159Y0000384304D01*
X0000008529Y0000386352D01*
X0000010576Y0000387719D01*
X0000013522Y0000388307D01*
X0000040157Y0000388307D01*
X0000042221Y0000388717D01*
X0000043971Y0000389886D01*
X0000045140Y0000391636D01*
X0000045551Y0000393700D01*
X0000045551Y0000533105D01*
X0000319840Y0000533105D01*
X0000320247Y0000531040D01*
X0000339286Y0000484879D01*
X0000339511Y0000484542D01*
X0000340453Y0000483128D01*
X0000375707Y0000447766D01*
X0000376754Y0000447065D01*
X0000377455Y0000446594D01*
X0000423559Y0000427416D01*
X0000425622Y0000427002D01*
X0000475555Y0000426927D01*
X0000477620Y0000427334D01*
X0000523781Y0000446373D01*
X0000524481Y0000446839D01*
X0000525533Y0000447539D01*
X0000560894Y0000482794D01*
X0000560897Y0000482797D01*
X0000560900Y0000482800D01*
X0000561489Y0000483682D01*
X0000562066Y0000484542D01*
X0000562067Y0000484546D01*
X0000562069Y0000484550D01*
X0000562273Y0000485574D01*
X0000562480Y0000486605D01*
X0000562479Y0000486610D01*
X0000562480Y0000486614D01*
X0000562480Y0000533105D01*
X0000831651Y0000533105D01*
X0000832058Y0000531040D01*
X0000851097Y0000484879D01*
X0000851322Y0000484542D01*
X0000852264Y0000483128D01*
X0000887518Y0000447766D01*
X0000888565Y0000447065D01*
X0000889265Y0000446594D01*
X0000935370Y0000427416D01*
X0000937433Y0000427002D01*
X0000987366Y0000426927D01*
X0000989431Y0000427334D01*
X0001035592Y0000446373D01*
X0001036292Y0000446839D01*
X0001037344Y0000447539D01*
X0001072705Y0000482794D01*
X0001072708Y0000482797D01*
X0001072711Y0000482800D01*
X0001073300Y0000483682D01*
X0001073877Y0000484542D01*
X0001073878Y0000484546D01*
X0001073880Y0000484550D01*
X0001074084Y0000485574D01*
X0001074291Y0000486605D01*
X0001074290Y0000486610D01*
X0001074291Y0000486614D01*
X0001074291Y0000533105D01*
X0001343461Y0000533105D01*
X0001343869Y0000531040D01*
X0001362907Y0000484879D01*
X0001363133Y0000484542D01*
X0001364075Y0000483128D01*
X0001399329Y0000447766D01*
X0001400376Y0000447065D01*
X0001401077Y0000446594D01*
X0001447181Y0000427416D01*
X0001449244Y0000427002D01*
X0001499177Y0000426927D01*
X0001501242Y0000427334D01*
X0001547403Y0000446373D01*
X0001548103Y0000446839D01*
X0001549155Y0000447539D01*
X0001584516Y0000482794D01*
X0001584519Y0000482797D01*
X0001584522Y0000482800D01*
X0001585110Y0000483682D01*
X0001585688Y0000484542D01*
X0001585689Y0000484546D01*
X0001585691Y0000484550D01*
X0001585895Y0000485574D01*
X0001586102Y0000486605D01*
X0001586101Y0000486610D01*
X0001586102Y0000486614D01*
X0001586102Y0000533105D01*
X0001894643Y0000533105D01*
X0001895051Y0000531040D01*
X0001914089Y0000484879D01*
X0001914314Y0000484542D01*
X0001915256Y0000483128D01*
X0001950511Y0000447766D01*
X0001951557Y0000447065D01*
X0001952259Y0000446594D01*
X0001998362Y0000427416D01*
X0002000425Y0000427002D01*
X0002050358Y0000426927D01*
X0002052423Y0000427334D01*
X0002098584Y0000446373D01*
X0002099285Y0000446839D01*
X0002100336Y0000447539D01*
X0002135697Y0000482794D01*
X0002135700Y0000482797D01*
X0002135703Y0000482800D01*
X0002136292Y0000483682D01*
X0002136869Y0000484542D01*
X0002136870Y0000484546D01*
X0002136872Y0000484550D01*
X0002137076Y0000485574D01*
X0002137283Y0000486605D01*
X0002137282Y0000486610D01*
X0002137283Y0000486614D01*
X0002137283Y0000533105D01*
X0002406454Y0000533105D01*
X0002406862Y0000531040D01*
X0002425900Y0000484879D01*
X0002426125Y0000484542D01*
X0002427067Y0000483128D01*
X0002462322Y0000447766D01*
X0002463368Y0000447065D01*
X0002464070Y0000446594D01*
X0002510173Y0000427416D01*
X0002512236Y0000427002D01*
X0002562169Y0000426927D01*
X0002564234Y0000427334D01*
X0002610394Y0000446373D01*
X0002611096Y0000446839D01*
X0002612147Y0000447539D01*
X0002647508Y0000482794D01*
X0002647510Y0000482797D01*
X0002647514Y0000482800D01*
X0002648103Y0000483682D01*
X0002648680Y0000484542D01*
X0002648681Y0000484546D01*
X0002648682Y0000484550D01*
X0002648887Y0000485574D01*
X0002649094Y0000486605D01*
X0002649093Y0000486610D01*
X0002649094Y0000486614D01*
X0002649094Y0000629133D01*
X0002648682Y0000631197D01*
X0002647514Y0000632946D01*
X0002612475Y0000667987D01*
X0002611596Y0000668574D01*
X0002610733Y0000669153D01*
X0002564629Y0000688331D01*
X0002562566Y0000688745D01*
X0002512633Y0000688820D01*
X0002512292Y0000688752D01*
X0002510568Y0000688413D01*
X0002464407Y0000669374D01*
X0002464074Y0000669153D01*
X0002462655Y0000668208D01*
X0002427294Y0000632953D01*
X0002426122Y0000631205D01*
X0002406943Y0000585102D01*
X0002406530Y0000583038D01*
X0002406454Y0000533105D01*
X0002137283Y0000533105D01*
X0002137283Y0000629133D01*
X0002136872Y0000631197D01*
X0002135703Y0000632946D01*
X0002100664Y0000667987D01*
X0002099785Y0000668574D01*
X0002098922Y0000669153D01*
X0002052817Y0000688331D01*
X0002050755Y0000688745D01*
X0002000821Y0000688820D01*
X0002000481Y0000688752D01*
X0001998757Y0000688413D01*
X0001952595Y0000669374D01*
X0001952263Y0000669153D01*
X0001950844Y0000668208D01*
X0001915483Y0000632953D01*
X0001914311Y0000631205D01*
X0001895132Y0000585102D01*
X0001894719Y0000583038D01*
X0001894643Y0000533105D01*
X0001586102Y0000533105D01*
X0001586102Y0000629133D01*
X0001585691Y0000631197D01*
X0001584522Y0000632946D01*
X0001549483Y0000667987D01*
X0001548604Y0000668574D01*
X0001547739Y0000669153D01*
X0001501637Y0000688331D01*
X0001499574Y0000688745D01*
X0001449641Y0000688820D01*
X0001449300Y0000688752D01*
X0001447576Y0000688413D01*
X0001401415Y0000669374D01*
X0001401082Y0000669153D01*
X0001399663Y0000668208D01*
X0001364302Y0000632953D01*
X0001363130Y0000631205D01*
X0001343950Y0000585102D01*
X0001343537Y0000583038D01*
X0001343461Y0000533105D01*
X0001074291Y0000533105D01*
X0001074291Y0000629133D01*
X0001073880Y0000631197D01*
X0001072711Y0000632946D01*
X0001037671Y0000667987D01*
X0001036793Y0000668574D01*
X0001035929Y0000669153D01*
X0000989826Y0000688331D01*
X0000987763Y0000688745D01*
X0000937830Y0000688820D01*
X0000937489Y0000688752D01*
X0000935764Y0000688413D01*
X0000889604Y0000669374D01*
X0000889271Y0000669153D01*
X0000887852Y0000668208D01*
X0000852491Y0000632953D01*
X0000851318Y0000631205D01*
X0000832140Y0000585102D01*
X0000831727Y0000583038D01*
X0000831651Y0000533105D01*
X0000562480Y0000533105D01*
X0000562480Y0000629133D01*
X0000562069Y0000631197D01*
X0000560900Y0000632946D01*
X0000525861Y0000667987D01*
X0000524982Y0000668574D01*
X0000524118Y0000669153D01*
X0000478015Y0000688331D01*
X0000475952Y0000688745D01*
X0000426019Y0000688820D01*
X0000425678Y0000688752D01*
X0000423954Y0000688413D01*
X0000377793Y0000669374D01*
X0000377460Y0000669153D01*
X0000376041Y0000668208D01*
X0000340680Y0000632953D01*
X0000339508Y0000631205D01*
X0000320329Y0000585102D01*
X0000319916Y0000583038D01*
X0000319840Y0000533105D01*
X0000045551Y0000533105D01*
X0000045551Y0000977952D01*
X0000045140Y0000980016D01*
X0000043971Y0000981766D01*
X0000042221Y0000982934D01*
X0000040157Y0000983346D01*
X0000013522Y0000983346D01*
X0000010576Y0000983932D01*
X0000008529Y0000985300D01*
X0000007159Y0000987348D01*
X0000006573Y0000990295D01*
X0000006573Y0001084286D01*
X0000319840Y0001084286D01*
X0000320247Y0001082222D01*
X0000339286Y0001036060D01*
X0000339511Y0001035723D01*
X0000340453Y0001034308D01*
X0000375707Y0000998947D01*
X0000376754Y0000998246D01*
X0000377455Y0000997775D01*
X0000423559Y0000978597D01*
X0000425622Y0000978183D01*
X0000475555Y0000978108D01*
X0000477620Y0000978515D01*
X0000523781Y0000997554D01*
X0000524729Y0000998185D01*
X0000525533Y0000998720D01*
X0000560894Y0001033975D01*
X0000560897Y0001033979D01*
X0000560900Y0001033981D01*
X0000561489Y0001034863D01*
X0000562066Y0001035723D01*
X0000562067Y0001035727D01*
X0000562069Y0001035731D01*
X0000562273Y0001036755D01*
X0000562480Y0001037787D01*
X0000562479Y0001037790D01*
X0000562480Y0001037795D01*
X0000562480Y0001084286D01*
X0000831651Y0001084286D01*
X0000832058Y0001082222D01*
X0000851097Y0001036060D01*
X0000851322Y0001035723D01*
X0000852264Y0001034308D01*
X0000887518Y0000998947D01*
X0000888565Y0000998246D01*
X0000889265Y0000997775D01*
X0000935370Y0000978597D01*
X0000937433Y0000978183D01*
X0000987366Y0000978108D01*
X0000989431Y0000978515D01*
X0001035592Y0000997554D01*
X0001036540Y0000998185D01*
X0001037344Y0000998720D01*
X0001072705Y0001033975D01*
X0001072708Y0001033979D01*
X0001072711Y0001033981D01*
X0001073300Y0001034863D01*
X0001073877Y0001035723D01*
X0001073878Y0001035727D01*
X0001073880Y0001035731D01*
X0001074084Y0001036755D01*
X0001074291Y0001037787D01*
X0001074290Y0001037790D01*
X0001074291Y0001037795D01*
X0001074291Y0001084286D01*
X0001343461Y0001084286D01*
X0001343869Y0001082222D01*
X0001362907Y0001036060D01*
X0001363133Y0001035723D01*
X0001364075Y0001034308D01*
X0001399329Y0000998947D01*
X0001400376Y0000998246D01*
X0001401077Y0000997775D01*
X0001447181Y0000978597D01*
X0001449244Y0000978183D01*
X0001499177Y0000978108D01*
X0001501242Y0000978515D01*
X0001547403Y0000997554D01*
X0001548351Y0000998185D01*
X0001549155Y0000998720D01*
X0001584516Y0001033975D01*
X0001584519Y0001033979D01*
X0001584522Y0001033981D01*
X0001585110Y0001034863D01*
X0001585688Y0001035723D01*
X0001585689Y0001035727D01*
X0001585691Y0001035731D01*
X0001585895Y0001036755D01*
X0001586102Y0001037787D01*
X0001586101Y0001037790D01*
X0001586102Y0001037795D01*
X0001586102Y0001084286D01*
X0001894643Y0001084286D01*
X0001895051Y0001082222D01*
X0001914089Y0001036060D01*
X0001914314Y0001035723D01*
X0001915256Y0001034308D01*
X0001950511Y0000998947D01*
X0001951557Y0000998246D01*
X0001952259Y0000997775D01*
X0001998362Y0000978597D01*
X0002000425Y0000978183D01*
X0002050358Y0000978108D01*
X0002052423Y0000978515D01*
X0002098584Y0000997554D01*
X0002099532Y0000998185D01*
X0002100336Y0000998720D01*
X0002135697Y0001033975D01*
X0002135700Y0001033979D01*
X0002135703Y0001033981D01*
X0002136292Y0001034863D01*
X0002136869Y0001035723D01*
X0002136870Y0001035727D01*
X0002136872Y0001035731D01*
X0002137076Y0001036755D01*
X0002137283Y0001037787D01*
X0002137282Y0001037790D01*
X0002137283Y0001037795D01*
X0002137283Y0001084286D01*
X0002406454Y0001084286D01*
X0002406862Y0001082222D01*
X0002425900Y0001036060D01*
X0002426125Y0001035723D01*
X0002427067Y0001034308D01*
X0002462322Y0000998947D01*
X0002463368Y0000998246D01*
X0002464070Y0000997775D01*
X0002510173Y0000978597D01*
X0002512236Y0000978183D01*
X0002562169Y0000978108D01*
X0002564234Y0000978515D01*
X0002610394Y0000997554D01*
X0002611343Y0000998185D01*
X0002612147Y0000998720D01*
X0002647508Y0001033975D01*
X0002647510Y0001033979D01*
X0002647514Y0001033981D01*
X0002648103Y0001034863D01*
X0002648680Y0001035723D01*
X0002648681Y0001035727D01*
X0002648682Y0001035731D01*
X0002648887Y0001036755D01*
X0002649094Y0001037787D01*
X0002649093Y0001037790D01*
X0002649094Y0001037795D01*
X0002649094Y0001180314D01*
X0002648682Y0001182379D01*
X0002647514Y0001184128D01*
X0002612475Y0001219168D01*
X0002611996Y0001219488D01*
X0002773149Y0001219488D01*
X0002777755Y0001196331D01*
X0002790873Y0001176699D01*
X0002810504Y0001163582D01*
X0002833661Y0001158976D01*
X0002856818Y0001163582D01*
X0002876449Y0001176699D01*
X0002889567Y0001196331D01*
X0002894173Y0001219488D01*
X0002889567Y0001242645D01*
X0002876449Y0001262276D01*
X0002856818Y0001275393D01*
X0002833661Y0001280000D01*
X0002810504Y0001275393D01*
X0002790873Y0001262276D01*
X0002777755Y0001242645D01*
X0002773149Y0001219488D01*
X0002611996Y0001219488D01*
X0002611596Y0001219755D01*
X0002610733Y0001220334D01*
X0002564629Y0001239512D01*
X0002562566Y0001239926D01*
X0002512633Y0001240002D01*
X0002512292Y0001239934D01*
X0002510568Y0001239594D01*
X0002464407Y0001220555D01*
X0002464074Y0001220334D01*
X0002462655Y0001219389D01*
X0002427294Y0001184134D01*
X0002426122Y0001182386D01*
X0002406943Y0001136283D01*
X0002406530Y0001134219D01*
X0002406454Y0001084286D01*
X0002137283Y0001084286D01*
X0002137283Y0001180314D01*
X0002136872Y0001182379D01*
X0002135703Y0001184128D01*
X0002100664Y0001219168D01*
X0002099785Y0001219755D01*
X0002098922Y0001220334D01*
X0002052817Y0001239512D01*
X0002050755Y0001239926D01*
X0002000821Y0001240002D01*
X0002000481Y0001239934D01*
X0001998757Y0001239594D01*
X0001952595Y0001220555D01*
X0001952263Y0001220334D01*
X0001950844Y0001219389D01*
X0001915483Y0001184134D01*
X0001914311Y0001182386D01*
X0001895132Y0001136283D01*
X0001894719Y0001134219D01*
X0001894643Y0001084286D01*
X0001586102Y0001084286D01*
X0001586102Y0001180314D01*
X0001585691Y0001182379D01*
X0001584522Y0001184128D01*
X0001549483Y0001219168D01*
X0001548604Y0001219755D01*
X0001547739Y0001220334D01*
X0001501637Y0001239512D01*
X0001499574Y0001239926D01*
X0001449641Y0001240002D01*
X0001449300Y0001239934D01*
X0001447576Y0001239594D01*
X0001401415Y0001220555D01*
X0001401082Y0001220334D01*
X0001399663Y0001219389D01*
X0001364302Y0001184134D01*
X0001363130Y0001182386D01*
X0001343950Y0001136283D01*
X0001343537Y0001134219D01*
X0001343461Y0001084286D01*
X0001074291Y0001084286D01*
X0001074291Y0001180314D01*
X0001073880Y0001182379D01*
X0001072711Y0001184128D01*
X0001037671Y0001219168D01*
X0001036793Y0001219755D01*
X0001035929Y0001220334D01*
X0000989826Y0001239512D01*
X0000987763Y0001239926D01*
X0000937830Y0001240002D01*
X0000937489Y0001239934D01*
X0000935764Y0001239594D01*
X0000889604Y0001220555D01*
X0000889271Y0001220334D01*
X0000887852Y0001219389D01*
X0000852491Y0001184134D01*
X0000851318Y0001182386D01*
X0000832140Y0001136283D01*
X0000831727Y0001134219D01*
X0000831651Y0001084286D01*
X0000562480Y0001084286D01*
X0000562480Y0001180314D01*
X0000562069Y0001182379D01*
X0000560900Y0001184128D01*
X0000525861Y0001219168D01*
X0000524982Y0001219755D01*
X0000524118Y0001220334D01*
X0000478015Y0001239512D01*
X0000475952Y0001239926D01*
X0000426019Y0001240002D01*
X0000425678Y0001239934D01*
X0000423954Y0001239594D01*
X0000377793Y0001220555D01*
X0000377460Y0001220334D01*
X0000376041Y0001219389D01*
X0000340680Y0001184134D01*
X0000339508Y0001182386D01*
X0000320329Y0001136283D01*
X0000319916Y0001134219D01*
X0000319840Y0001084286D01*
X0000006573Y0001084286D01*
X0000006573Y0001219488D01*
X0000095984Y0001219488D01*
X0000100590Y0001196331D01*
X0000113707Y0001176699D01*
X0000133339Y0001163582D01*
X0000156496Y0001158976D01*
X0000179651Y0001163582D01*
X0000199284Y0001176699D01*
X0000212400Y0001196331D01*
X0000217007Y0001219488D01*
X0000212400Y0001242645D01*
X0000199284Y0001262276D01*
X0000179651Y0001275393D01*
X0000156496Y0001280000D01*
X0000133339Y0001275393D01*
X0000113707Y0001262276D01*
X0000100590Y0001242645D01*
X0000095984Y0001219488D01*
X0000006573Y0001219488D01*
X0000006573Y0001297106D01*
X0000012255Y0001325665D01*
X0000028132Y0001349426D01*
X0000051892Y0001365303D01*
X0000080452Y0001370984D01*
X0002913641Y0001370984D01*
X0002942201Y0001365303D01*
X0002942201Y0001365303D01*
G37*
X0002942201Y0001365303D02*
X0002965962Y0001349426D01*
X0002981838Y0001325665D01*
X0002987519Y0001297106D01*
X0002987519Y0000994232D01*
X0002986932Y0000991285D01*
X0002985565Y0000989237D01*
X0002983517Y0000987869D01*
X0002980571Y0000987283D01*
X0002953936Y0000987283D01*
X0002951872Y0000986872D01*
X0002950123Y0000985703D01*
X0002948953Y0000983953D01*
X0002948543Y0000981889D01*
X0002948543Y0000397637D01*
X0002948953Y0000395573D01*
X0002950123Y0000393823D01*
X0002951872Y0000392654D01*
X0002953936Y0000392244D01*
X0002980571Y0000392244D01*
X0002983517Y0000391657D01*
X0002985565Y0000390289D01*
X0002986932Y0000388241D01*
X0002987519Y0000385295D01*
X0002987519Y0000097381D01*
X0002980370Y0000061439D01*
X0002960312Y0000031419D01*
X0002930292Y0000011361D01*
X0002894350Y0000004212D01*
X0000080452Y0000003818D01*
X0000051892Y0000009499D01*
X0000028132Y0000025376D01*
X0000012255Y0000049137D01*
X0000006573Y0000077696D01*
X0000006573Y0000154527D01*
X0000095984Y0000154527D01*
X0000100590Y0000131370D01*
X0000113707Y0000111738D01*
X0000133339Y0000098621D01*
X0000156496Y0000094015D01*
X0000179651Y0000098621D01*
X0000199284Y0000111738D01*
X0000212400Y0000131370D01*
X0000216812Y0000153543D01*
X0002772165Y0000153543D01*
X0002776770Y0000130386D01*
X0002789888Y0000110755D01*
X0002809520Y0000097637D01*
X0002832677Y0000093030D01*
X0002855834Y0000097637D01*
X0002875465Y0000110755D01*
X0002888582Y0000130386D01*
X0002893188Y0000153543D01*
X0002888582Y0000176700D01*
X0002875465Y0000196331D01*
X0002855834Y0000209448D01*
X0002832677Y0000214055D01*
X0002809520Y0000209448D01*
X0002789888Y0000196331D01*
X0002776770Y0000176700D01*
X0002772165Y0000153543D01*
X0000216812Y0000153543D01*
X0000217007Y0000154527D01*
X0000212400Y0000177684D01*
X0000199284Y0000197315D01*
X0000179651Y0000210433D01*
X0000156496Y0000215039D01*
X0000133339Y0000210433D01*
X0000113707Y0000197315D01*
X0000100590Y0000177684D01*
X0000095984Y0000154527D01*
X0000006573Y0000154527D01*
X0000006573Y0000381358D01*
X0000007159Y0000384304D01*
X0000008529Y0000386352D01*
X0000010576Y0000387719D01*
X0000013522Y0000388307D01*
X0000040157Y0000388307D01*
X0000042221Y0000388717D01*
X0000043971Y0000389886D01*
X0000045140Y0000391636D01*
X0000045551Y0000393700D01*
X0000045551Y0000533105D01*
X0000319840Y0000533105D01*
X0000320247Y0000531040D01*
X0000339286Y0000484879D01*
X0000339511Y0000484542D01*
X0000340453Y0000483128D01*
X0000375707Y0000447766D01*
X0000376754Y0000447065D01*
X0000377455Y0000446594D01*
X0000423559Y0000427416D01*
X0000425622Y0000427002D01*
X0000475555Y0000426927D01*
X0000477620Y0000427334D01*
X0000523781Y0000446373D01*
X0000524481Y0000446839D01*
X0000525533Y0000447539D01*
X0000560894Y0000482794D01*
X0000560897Y0000482797D01*
X0000560900Y0000482800D01*
X0000561489Y0000483682D01*
X0000562066Y0000484542D01*
X0000562067Y0000484546D01*
X0000562069Y0000484550D01*
X0000562273Y0000485574D01*
X0000562480Y0000486605D01*
X0000562479Y0000486610D01*
X0000562480Y0000486614D01*
X0000562480Y0000533105D01*
X0000831651Y0000533105D01*
X0000832058Y0000531040D01*
X0000851097Y0000484879D01*
X0000851322Y0000484542D01*
X0000852264Y0000483128D01*
X0000887518Y0000447766D01*
X0000888565Y0000447065D01*
X0000889265Y0000446594D01*
X0000935370Y0000427416D01*
X0000937433Y0000427002D01*
X0000987366Y0000426927D01*
X0000989431Y0000427334D01*
X0001035592Y0000446373D01*
X0001036292Y0000446839D01*
X0001037344Y0000447539D01*
X0001072705Y0000482794D01*
X0001072708Y0000482797D01*
X0001072711Y0000482800D01*
X0001073300Y0000483682D01*
X0001073877Y0000484542D01*
X0001073878Y0000484546D01*
X0001073880Y0000484550D01*
X0001074084Y0000485574D01*
X0001074291Y0000486605D01*
X0001074290Y0000486610D01*
X0001074291Y0000486614D01*
X0001074291Y0000533105D01*
X0001343461Y0000533105D01*
X0001343869Y0000531040D01*
X0001362907Y0000484879D01*
X0001363133Y0000484542D01*
X0001364075Y0000483128D01*
X0001399329Y0000447766D01*
X0001400376Y0000447065D01*
X0001401077Y0000446594D01*
X0001447181Y0000427416D01*
X0001449244Y0000427002D01*
X0001499177Y0000426927D01*
X0001501242Y0000427334D01*
X0001547403Y0000446373D01*
X0001548103Y0000446839D01*
X0001549155Y0000447539D01*
X0001584516Y0000482794D01*
X0001584519Y0000482797D01*
X0001584522Y0000482800D01*
X0001585110Y0000483682D01*
X0001585688Y0000484542D01*
X0001585689Y0000484546D01*
X0001585691Y0000484550D01*
X0001585895Y0000485574D01*
X0001586102Y0000486605D01*
X0001586101Y0000486610D01*
X0001586102Y0000486614D01*
X0001586102Y0000533105D01*
X0001894643Y0000533105D01*
X0001895051Y0000531040D01*
X0001914089Y0000484879D01*
X0001914314Y0000484542D01*
X0001915256Y0000483128D01*
X0001950511Y0000447766D01*
X0001951557Y0000447065D01*
X0001952259Y0000446594D01*
X0001998362Y0000427416D01*
X0002000425Y0000427002D01*
X0002050358Y0000426927D01*
X0002052423Y0000427334D01*
X0002098584Y0000446373D01*
X0002099285Y0000446839D01*
X0002100336Y0000447539D01*
X0002135697Y0000482794D01*
X0002135700Y0000482797D01*
X0002135703Y0000482800D01*
X0002136292Y0000483682D01*
X0002136869Y0000484542D01*
X0002136870Y0000484546D01*
X0002136872Y0000484550D01*
X0002137076Y0000485574D01*
X0002137283Y0000486605D01*
X0002137282Y0000486610D01*
X0002137283Y0000486614D01*
X0002137283Y0000533105D01*
X0002406454Y0000533105D01*
X0002406862Y0000531040D01*
X0002425900Y0000484879D01*
X0002426125Y0000484542D01*
X0002427067Y0000483128D01*
X0002462322Y0000447766D01*
X0002463368Y0000447065D01*
X0002464070Y0000446594D01*
X0002510173Y0000427416D01*
X0002512236Y0000427002D01*
X0002562169Y0000426927D01*
X0002564234Y0000427334D01*
X0002610394Y0000446373D01*
X0002611096Y0000446839D01*
X0002612147Y0000447539D01*
X0002647508Y0000482794D01*
X0002647510Y0000482797D01*
X0002647514Y0000482800D01*
X0002648103Y0000483682D01*
X0002648680Y0000484542D01*
X0002648681Y0000484546D01*
X0002648682Y0000484550D01*
X0002648887Y0000485574D01*
X0002649094Y0000486605D01*
X0002649093Y0000486610D01*
X0002649094Y0000486614D01*
X0002649094Y0000629133D01*
X0002648682Y0000631197D01*
X0002647514Y0000632946D01*
X0002612475Y0000667987D01*
X0002611596Y0000668574D01*
X0002610733Y0000669153D01*
X0002564629Y0000688331D01*
X0002562566Y0000688745D01*
X0002512633Y0000688820D01*
X0002512292Y0000688752D01*
X0002510568Y0000688413D01*
X0002464407Y0000669374D01*
X0002464074Y0000669153D01*
X0002462655Y0000668208D01*
X0002427294Y0000632953D01*
X0002426122Y0000631205D01*
X0002406943Y0000585102D01*
X0002406530Y0000583038D01*
X0002406454Y0000533105D01*
X0002137283Y0000533105D01*
X0002137283Y0000629133D01*
X0002136872Y0000631197D01*
X0002135703Y0000632946D01*
X0002100664Y0000667987D01*
X0002099785Y0000668574D01*
X0002098922Y0000669153D01*
X0002052817Y0000688331D01*
X0002050755Y0000688745D01*
X0002000821Y0000688820D01*
X0002000481Y0000688752D01*
X0001998757Y0000688413D01*
X0001952595Y0000669374D01*
X0001952263Y0000669153D01*
X0001950844Y0000668208D01*
X0001915483Y0000632953D01*
X0001914311Y0000631205D01*
X0001895132Y0000585102D01*
X0001894719Y0000583038D01*
X0001894643Y0000533105D01*
X0001586102Y0000533105D01*
X0001586102Y0000629133D01*
X0001585691Y0000631197D01*
X0001584522Y0000632946D01*
X0001549483Y0000667987D01*
X0001548604Y0000668574D01*
X0001547739Y0000669153D01*
X0001501637Y0000688331D01*
X0001499574Y0000688745D01*
X0001449641Y0000688820D01*
X0001449300Y0000688752D01*
X0001447576Y0000688413D01*
X0001401415Y0000669374D01*
X0001401082Y0000669153D01*
X0001399663Y0000668208D01*
X0001364302Y0000632953D01*
X0001363130Y0000631205D01*
X0001343950Y0000585102D01*
X0001343537Y0000583038D01*
X0001343461Y0000533105D01*
X0001074291Y0000533105D01*
X0001074291Y0000629133D01*
X0001073880Y0000631197D01*
X0001072711Y0000632946D01*
X0001037671Y0000667987D01*
X0001036793Y0000668574D01*
X0001035929Y0000669153D01*
X0000989826Y0000688331D01*
X0000987763Y0000688745D01*
X0000937830Y0000688820D01*
X0000937489Y0000688752D01*
X0000935764Y0000688413D01*
X0000889604Y0000669374D01*
X0000889271Y0000669153D01*
X0000887852Y0000668208D01*
X0000852491Y0000632953D01*
X0000851318Y0000631205D01*
X0000832140Y0000585102D01*
X0000831727Y0000583038D01*
X0000831651Y0000533105D01*
X0000562480Y0000533105D01*
X0000562480Y0000629133D01*
X0000562069Y0000631197D01*
X0000560900Y0000632946D01*
X0000525861Y0000667987D01*
X0000524982Y0000668574D01*
X0000524118Y0000669153D01*
X0000478015Y0000688331D01*
X0000475952Y0000688745D01*
X0000426019Y0000688820D01*
X0000425678Y0000688752D01*
X0000423954Y0000688413D01*
X0000377793Y0000669374D01*
X0000377460Y0000669153D01*
X0000376041Y0000668208D01*
X0000340680Y0000632953D01*
X0000339508Y0000631205D01*
X0000320329Y0000585102D01*
X0000319916Y0000583038D01*
X0000319840Y0000533105D01*
X0000045551Y0000533105D01*
X0000045551Y0000977952D01*
X0000045140Y0000980016D01*
X0000043971Y0000981766D01*
X0000042221Y0000982934D01*
X0000040157Y0000983346D01*
X0000013522Y0000983346D01*
X0000010576Y0000983932D01*
X0000008529Y0000985300D01*
X0000007159Y0000987348D01*
X0000006573Y0000990295D01*
X0000006573Y0001084286D01*
X0000319840Y0001084286D01*
X0000320247Y0001082222D01*
X0000339286Y0001036060D01*
X0000339511Y0001035723D01*
X0000340453Y0001034308D01*
X0000375707Y0000998947D01*
X0000376754Y0000998246D01*
X0000377455Y0000997775D01*
X0000423559Y0000978597D01*
X0000425622Y0000978183D01*
X0000475555Y0000978108D01*
X0000477620Y0000978515D01*
X0000523781Y0000997554D01*
X0000524729Y0000998185D01*
X0000525533Y0000998720D01*
X0000560894Y0001033975D01*
X0000560897Y0001033979D01*
X0000560900Y0001033981D01*
X0000561489Y0001034863D01*
X0000562066Y0001035723D01*
X0000562067Y0001035727D01*
X0000562069Y0001035731D01*
X0000562273Y0001036755D01*
X0000562480Y0001037787D01*
X0000562479Y0001037790D01*
X0000562480Y0001037795D01*
X0000562480Y0001084286D01*
X0000831651Y0001084286D01*
X0000832058Y0001082222D01*
X0000851097Y0001036060D01*
X0000851322Y0001035723D01*
X0000852264Y0001034308D01*
X0000887518Y0000998947D01*
X0000888565Y0000998246D01*
X0000889265Y0000997775D01*
X0000935370Y0000978597D01*
X0000937433Y0000978183D01*
X0000987366Y0000978108D01*
X0000989431Y0000978515D01*
X0001035592Y0000997554D01*
X0001036540Y0000998185D01*
X0001037344Y0000998720D01*
X0001072705Y0001033975D01*
X0001072708Y0001033979D01*
X0001072711Y0001033981D01*
X0001073300Y0001034863D01*
X0001073877Y0001035723D01*
X0001073878Y0001035727D01*
X0001073880Y0001035731D01*
X0001074084Y0001036755D01*
X0001074291Y0001037787D01*
X0001074290Y0001037790D01*
X0001074291Y0001037795D01*
X0001074291Y0001084286D01*
X0001343461Y0001084286D01*
X0001343869Y0001082222D01*
X0001362907Y0001036060D01*
X0001363133Y0001035723D01*
X0001364075Y0001034308D01*
X0001399329Y0000998947D01*
X0001400376Y0000998246D01*
X0001401077Y0000997775D01*
X0001447181Y0000978597D01*
X0001449244Y0000978183D01*
X0001499177Y0000978108D01*
X0001501242Y0000978515D01*
X0001547403Y0000997554D01*
X0001548351Y0000998185D01*
X0001549155Y0000998720D01*
X0001584516Y0001033975D01*
X0001584519Y0001033979D01*
X0001584522Y0001033981D01*
X0001585110Y0001034863D01*
X0001585688Y0001035723D01*
X0001585689Y0001035727D01*
X0001585691Y0001035731D01*
X0001585895Y0001036755D01*
X0001586102Y0001037787D01*
X0001586101Y0001037790D01*
X0001586102Y0001037795D01*
X0001586102Y0001084286D01*
X0001894643Y0001084286D01*
X0001895051Y0001082222D01*
X0001914089Y0001036060D01*
X0001914314Y0001035723D01*
X0001915256Y0001034308D01*
X0001950511Y0000998947D01*
X0001951557Y0000998246D01*
X0001952259Y0000997775D01*
X0001998362Y0000978597D01*
X0002000425Y0000978183D01*
X0002050358Y0000978108D01*
X0002052423Y0000978515D01*
X0002098584Y0000997554D01*
X0002099532Y0000998185D01*
X0002100336Y0000998720D01*
X0002135697Y0001033975D01*
X0002135700Y0001033979D01*
X0002135703Y0001033981D01*
X0002136292Y0001034863D01*
X0002136869Y0001035723D01*
X0002136870Y0001035727D01*
X0002136872Y0001035731D01*
X0002137076Y0001036755D01*
X0002137283Y0001037787D01*
X0002137282Y0001037790D01*
X0002137283Y0001037795D01*
X0002137283Y0001084286D01*
X0002406454Y0001084286D01*
X0002406862Y0001082222D01*
X0002425900Y0001036060D01*
X0002426125Y0001035723D01*
X0002427067Y0001034308D01*
X0002462322Y0000998947D01*
X0002463368Y0000998246D01*
X0002464070Y0000997775D01*
X0002510173Y0000978597D01*
X0002512236Y0000978183D01*
X0002562169Y0000978108D01*
X0002564234Y0000978515D01*
X0002610394Y0000997554D01*
X0002611343Y0000998185D01*
X0002612147Y0000998720D01*
X0002647508Y0001033975D01*
X0002647510Y0001033979D01*
X0002647514Y0001033981D01*
X0002648103Y0001034863D01*
X0002648680Y0001035723D01*
X0002648681Y0001035727D01*
X0002648682Y0001035731D01*
X0002648887Y0001036755D01*
X0002649094Y0001037787D01*
X0002649093Y0001037790D01*
X0002649094Y0001037795D01*
X0002649094Y0001180314D01*
X0002648682Y0001182379D01*
X0002647514Y0001184128D01*
X0002612475Y0001219168D01*
X0002611996Y0001219488D01*
X0002773149Y0001219488D01*
X0002777755Y0001196331D01*
X0002790873Y0001176699D01*
X0002810504Y0001163582D01*
X0002833661Y0001158976D01*
X0002856818Y0001163582D01*
X0002876449Y0001176699D01*
X0002889567Y0001196331D01*
X0002894173Y0001219488D01*
X0002889567Y0001242645D01*
X0002876449Y0001262276D01*
X0002856818Y0001275393D01*
X0002833661Y0001280000D01*
X0002810504Y0001275393D01*
X0002790873Y0001262276D01*
X0002777755Y0001242645D01*
X0002773149Y0001219488D01*
X0002611996Y0001219488D01*
X0002611596Y0001219755D01*
X0002610733Y0001220334D01*
X0002564629Y0001239512D01*
X0002562566Y0001239926D01*
X0002512633Y0001240002D01*
X0002512292Y0001239934D01*
X0002510568Y0001239594D01*
X0002464407Y0001220555D01*
X0002464074Y0001220334D01*
X0002462655Y0001219389D01*
X0002427294Y0001184134D01*
X0002426122Y0001182386D01*
X0002406943Y0001136283D01*
X0002406530Y0001134219D01*
X0002406454Y0001084286D01*
X0002137283Y0001084286D01*
X0002137283Y0001180314D01*
X0002136872Y0001182379D01*
X0002135703Y0001184128D01*
X0002100664Y0001219168D01*
X0002099785Y0001219755D01*
X0002098922Y0001220334D01*
X0002052817Y0001239512D01*
X0002050755Y0001239926D01*
X0002000821Y0001240002D01*
X0002000481Y0001239934D01*
X0001998757Y0001239594D01*
X0001952595Y0001220555D01*
X0001952263Y0001220334D01*
X0001950844Y0001219389D01*
X0001915483Y0001184134D01*
X0001914311Y0001182386D01*
X0001895132Y0001136283D01*
X0001894719Y0001134219D01*
X0001894643Y0001084286D01*
X0001586102Y0001084286D01*
X0001586102Y0001180314D01*
X0001585691Y0001182379D01*
X0001584522Y0001184128D01*
X0001549483Y0001219168D01*
X0001548604Y0001219755D01*
X0001547739Y0001220334D01*
X0001501637Y0001239512D01*
X0001499574Y0001239926D01*
X0001449641Y0001240002D01*
X0001449300Y0001239934D01*
X0001447576Y0001239594D01*
X0001401415Y0001220555D01*
X0001401082Y0001220334D01*
X0001399663Y0001219389D01*
X0001364302Y0001184134D01*
X0001363130Y0001182386D01*
X0001343950Y0001136283D01*
X0001343537Y0001134219D01*
X0001343461Y0001084286D01*
X0001074291Y0001084286D01*
X0001074291Y0001180314D01*
X0001073880Y0001182379D01*
X0001072711Y0001184128D01*
X0001037671Y0001219168D01*
X0001036793Y0001219755D01*
X0001035929Y0001220334D01*
X0000989826Y0001239512D01*
X0000987763Y0001239926D01*
X0000937830Y0001240002D01*
X0000937489Y0001239934D01*
X0000935764Y0001239594D01*
X0000889604Y0001220555D01*
X0000889271Y0001220334D01*
X0000887852Y0001219389D01*
X0000852491Y0001184134D01*
X0000851318Y0001182386D01*
X0000832140Y0001136283D01*
X0000831727Y0001134219D01*
X0000831651Y0001084286D01*
X0000562480Y0001084286D01*
X0000562480Y0001180314D01*
X0000562069Y0001182379D01*
X0000560900Y0001184128D01*
X0000525861Y0001219168D01*
X0000524982Y0001219755D01*
X0000524118Y0001220334D01*
X0000478015Y0001239512D01*
X0000475952Y0001239926D01*
X0000426019Y0001240002D01*
X0000425678Y0001239934D01*
X0000423954Y0001239594D01*
X0000377793Y0001220555D01*
X0000377460Y0001220334D01*
X0000376041Y0001219389D01*
X0000340680Y0001184134D01*
X0000339508Y0001182386D01*
X0000320329Y0001136283D01*
X0000319916Y0001134219D01*
X0000319840Y0001084286D01*
X0000006573Y0001084286D01*
X0000006573Y0001219488D01*
X0000095984Y0001219488D01*
X0000100590Y0001196331D01*
X0000113707Y0001176699D01*
X0000133339Y0001163582D01*
X0000156496Y0001158976D01*
X0000179651Y0001163582D01*
X0000199284Y0001176699D01*
X0000212400Y0001196331D01*
X0000217007Y0001219488D01*
X0000212400Y0001242645D01*
X0000199284Y0001262276D01*
X0000179651Y0001275393D01*
X0000156496Y0001280000D01*
X0000133339Y0001275393D01*
X0000113707Y0001262276D01*
X0000100590Y0001242645D01*
X0000095984Y0001219488D01*
X0000006573Y0001219488D01*
X0000006573Y0001297106D01*
X0000012255Y0001325665D01*
X0000028132Y0001349426D01*
X0000051892Y0001365303D01*
X0000080452Y0001370984D01*
X0002913641Y0001370984D01*
X0002942201Y0001365303D01*
G04 next file*
G04 #@! TF.GenerationSoftware,KiCad,Pcbnew,(2017-06-07 revision 51bed4bae)-makepkg*
G04 #@! TF.CreationDate,2017-06-11T00:06:54+02:00*
G04 #@! TF.ProjectId,Front_Panel_76x35_4conn,46726F6E745F50616E656C5F37367833,rev?*
G04 #@! TF.FileFunction,Copper,L2,Bot,Signal*
G04 #@! TF.FilePolarity,Positive*
G04 Gerber Fmt 4.6, Leading zero omitted, Abs format (unit mm)*
G04 Created by KiCad (PCBNEW (2017-06-07 revision 51bed4bae)-makepkg) date 06/11/17 00:06:54*
G01*
G04 APERTURE LIST*
G04 APERTURE END LIST*
D36*
D37*
X0000000000Y0002874015D02*
X0000981330Y0002177362D03*
X0001036810Y0002121881D03*
X0001112598Y0002101574D03*
X0001188385Y0002121881D03*
X0001243866Y0002177362D03*
X0001264173Y0002253149D03*
X0001243866Y0002328937D03*
X0001188385Y0002384417D03*
X0001112598Y0002404724D03*
X0001036810Y0002384417D03*
X0000981330Y0002328937D03*
X0000961023Y0002253149D03*
X0000469519Y0002177362D03*
X0000525000Y0002121881D03*
X0000600787Y0002101574D03*
X0000676574Y0002121881D03*
X0000732054Y0002177362D03*
X0000752362Y0002253149D03*
X0000732054Y0002328937D03*
X0000676574Y0002384417D03*
X0000600787Y0002404724D03*
X0000525000Y0002384417D03*
X0000469519Y0002328937D03*
X0000449212Y0002253149D03*
X0002280543Y0002177362D03*
X0002336023Y0002121881D03*
X0002411811Y0002101574D03*
X0002487598Y0002121881D03*
X0002543078Y0002177362D03*
X0002563385Y0002253149D03*
X0002543078Y0002328937D03*
X0002487598Y0002384417D03*
X0002411811Y0002404724D03*
X0002336023Y0002384417D03*
X0002280543Y0002328937D03*
X0002260236Y0002253149D03*
X0001768732Y0002177362D03*
X0001824212Y0002121881D03*
X0001900000Y0002101574D03*
X0001975787Y0002121881D03*
X0002031267Y0002177362D03*
X0002051574Y0002253149D03*
X0002031267Y0002328937D03*
X0001975787Y0002384417D03*
X0001900000Y0002404724D03*
X0001824212Y0002384417D03*
X0001768732Y0002328937D03*
X0001748425Y0002253149D03*
D38*
G36*
X0002948106Y0002853492D02*
X0002971867Y0002837615D01*
X0002987744Y0002813853D01*
X0002993425Y0002785295D01*
X0002993425Y0002482421D01*
X0002992839Y0002479474D01*
X0002991470Y0002477426D01*
X0002989423Y0002476058D01*
X0002986476Y0002475472D01*
X0002959842Y0002475472D01*
X0002957778Y0002475061D01*
X0002956028Y0002473892D01*
X0002954858Y0002472142D01*
X0002954448Y0002470078D01*
X0002954448Y0001885826D01*
X0002954858Y0001883762D01*
X0002956028Y0001882012D01*
X0002957778Y0001880843D01*
X0002959842Y0001880433D01*
X0002986476Y0001880433D01*
X0002989423Y0001879846D01*
X0002991470Y0001878478D01*
X0002992839Y0001876431D01*
X0002993425Y0001873484D01*
X0002993425Y0001585570D01*
X0002986275Y0001549628D01*
X0002966217Y0001519609D01*
X0002936197Y0001499550D01*
X0002900255Y0001492401D01*
X0000086357Y0001492007D01*
X0000057798Y0001497688D01*
X0000034037Y0001513565D01*
X0000018161Y0001537326D01*
X0000012480Y0001565885D01*
X0000012480Y0001642716D01*
X0000101889Y0001642716D01*
X0000106495Y0001619559D01*
X0000119613Y0001599927D01*
X0000139244Y0001586810D01*
X0000162401Y0001582203D01*
X0000185558Y0001586810D01*
X0000205189Y0001599927D01*
X0000218307Y0001619559D01*
X0000222717Y0001641732D01*
X0002778070Y0001641732D01*
X0002782677Y0001618574D01*
X0002795794Y0001598942D01*
X0002815425Y0001585826D01*
X0002838582Y0001581220D01*
X0002861739Y0001585826D01*
X0002881370Y0001598942D01*
X0002894488Y0001618574D01*
X0002899094Y0001641732D01*
X0002894488Y0001664889D01*
X0002881370Y0001684520D01*
X0002861739Y0001697636D01*
X0002838582Y0001702244D01*
X0002815425Y0001697636D01*
X0002795794Y0001684520D01*
X0002782677Y0001664889D01*
X0002778070Y0001641732D01*
X0000222717Y0001641732D01*
X0000222913Y0001642716D01*
X0000218307Y0001665873D01*
X0000205189Y0001685504D01*
X0000185558Y0001698621D01*
X0000162401Y0001703228D01*
X0000139244Y0001698621D01*
X0000119613Y0001685504D01*
X0000106495Y0001665873D01*
X0000101889Y0001642716D01*
X0000012480Y0001642716D01*
X0000012480Y0001869547D01*
X0000013066Y0001872494D01*
X0000014434Y0001874541D01*
X0000016482Y0001875909D01*
X0000019428Y0001876496D01*
X0000046062Y0001876496D01*
X0000048127Y0001876906D01*
X0000049876Y0001878075D01*
X0000051046Y0001879825D01*
X0000051455Y0001881889D01*
X0000051455Y0002228381D01*
X0000469840Y0002228381D01*
X0000470247Y0002226316D01*
X0000489286Y0002180155D01*
X0000489511Y0002179818D01*
X0000490453Y0002178403D01*
X0000525707Y0002143042D01*
X0000526754Y0002142340D01*
X0000527455Y0002141870D01*
X0000573559Y0002122691D01*
X0000575622Y0002122278D01*
X0000625555Y0002122202D01*
X0000627620Y0002122610D01*
X0000673781Y0002141648D01*
X0000674481Y0002142115D01*
X0000675532Y0002142815D01*
X0000710894Y0002178070D01*
X0000710897Y0002178073D01*
X0000710899Y0002178075D01*
X0000711489Y0002178957D01*
X0000712066Y0002179818D01*
X0000712067Y0002179822D01*
X0000712069Y0002179825D01*
X0000712273Y0002180850D01*
X0000712480Y0002181881D01*
X0000712479Y0002181885D01*
X0000712480Y0002181889D01*
X0000712480Y0002228381D01*
X0000981651Y0002228381D01*
X0000982058Y0002226316D01*
X0001001096Y0002180155D01*
X0001001322Y0002179818D01*
X0001002264Y0002178403D01*
X0001037517Y0002143042D01*
X0001038565Y0002142340D01*
X0001039266Y0002141870D01*
X0001085370Y0002122691D01*
X0001087433Y0002122278D01*
X0001137366Y0002122202D01*
X0001139431Y0002122610D01*
X0001185592Y0002141648D01*
X0001186292Y0002142115D01*
X0001187344Y0002142815D01*
X0001222705Y0002178070D01*
X0001222708Y0002178073D01*
X0001222711Y0002178075D01*
X0001223300Y0002178957D01*
X0001223877Y0002179818D01*
X0001223878Y0002179822D01*
X0001223880Y0002179825D01*
X0001224084Y0002180850D01*
X0001224291Y0002181881D01*
X0001224290Y0002181885D01*
X0001224291Y0002181889D01*
X0001224291Y0002228381D01*
X0001769052Y0002228381D01*
X0001769460Y0002226316D01*
X0001788498Y0002180155D01*
X0001788723Y0002179818D01*
X0001789665Y0002178403D01*
X0001824919Y0002143042D01*
X0001825967Y0002142340D01*
X0001826668Y0002141870D01*
X0001872771Y0002122691D01*
X0001874835Y0002122278D01*
X0001924768Y0002122202D01*
X0001926833Y0002122610D01*
X0001972993Y0002141648D01*
X0001973694Y0002142115D01*
X0001974745Y0002142815D01*
X0002010107Y0002178070D01*
X0002010109Y0002178073D01*
X0002010113Y0002178075D01*
X0002010702Y0002178957D01*
X0002011279Y0002179818D01*
X0002011280Y0002179822D01*
X0002011282Y0002179825D01*
X0002011486Y0002180850D01*
X0002011692Y0002181881D01*
X0002011692Y0002181885D01*
X0002011692Y0002181889D01*
X0002011692Y0002228381D01*
X0002280864Y0002228381D01*
X0002281271Y0002226316D01*
X0002300310Y0002180155D01*
X0002300534Y0002179818D01*
X0002301476Y0002178403D01*
X0002336731Y0002143042D01*
X0002337778Y0002142340D01*
X0002338479Y0002141870D01*
X0002384582Y0002122691D01*
X0002386646Y0002122278D01*
X0002436579Y0002122202D01*
X0002438644Y0002122610D01*
X0002484805Y0002141648D01*
X0002485505Y0002142115D01*
X0002486556Y0002142815D01*
X0002521918Y0002178070D01*
X0002521920Y0002178073D01*
X0002521924Y0002178075D01*
X0002522513Y0002178957D01*
X0002523090Y0002179818D01*
X0002523091Y0002179822D01*
X0002523093Y0002179825D01*
X0002523297Y0002180850D01*
X0002523502Y0002181881D01*
X0002523502Y0002181885D01*
X0002523502Y0002181889D01*
X0002523502Y0002324409D01*
X0002523093Y0002326473D01*
X0002521924Y0002328223D01*
X0002486884Y0002363262D01*
X0002486006Y0002363849D01*
X0002485142Y0002364428D01*
X0002439039Y0002383607D01*
X0002436975Y0002384020D01*
X0002387042Y0002384096D01*
X0002386702Y0002384029D01*
X0002384977Y0002383689D01*
X0002338816Y0002364650D01*
X0002338484Y0002364428D01*
X0002337065Y0002363483D01*
X0002301703Y0002328229D01*
X0002300531Y0002326481D01*
X0002281353Y0002280377D01*
X0002280939Y0002278314D01*
X0002280864Y0002228381D01*
X0002011692Y0002228381D01*
X0002011692Y0002324409D01*
X0002011282Y0002326473D01*
X0002010113Y0002328223D01*
X0001975072Y0002363262D01*
X0001974195Y0002363849D01*
X0001973330Y0002364428D01*
X0001927228Y0002383607D01*
X0001925163Y0002384020D01*
X0001875231Y0002384096D01*
X0001874891Y0002384029D01*
X0001873166Y0002383689D01*
X0001827005Y0002364650D01*
X0001826673Y0002364428D01*
X0001825254Y0002363483D01*
X0001789892Y0002328229D01*
X0001788720Y0002326481D01*
X0001769541Y0002280377D01*
X0001769128Y0002278314D01*
X0001769052Y0002228381D01*
X0001224291Y0002228381D01*
X0001224291Y0002324409D01*
X0001223880Y0002326473D01*
X0001222711Y0002328223D01*
X0001187672Y0002363262D01*
X0001186793Y0002363849D01*
X0001185929Y0002364428D01*
X0001139826Y0002383607D01*
X0001137763Y0002384020D01*
X0001087830Y0002384096D01*
X0001087489Y0002384029D01*
X0001085765Y0002383689D01*
X0001039604Y0002364650D01*
X0001039271Y0002364428D01*
X0001037852Y0002363483D01*
X0001002491Y0002328229D01*
X0001001319Y0002326481D01*
X0000982140Y0002280377D01*
X0000981727Y0002278314D01*
X0000981651Y0002228381D01*
X0000712480Y0002228381D01*
X0000712480Y0002324409D01*
X0000712069Y0002326473D01*
X0000710899Y0002328223D01*
X0000675861Y0002363262D01*
X0000674982Y0002363849D01*
X0000674118Y0002364428D01*
X0000628015Y0002383607D01*
X0000625952Y0002384020D01*
X0000576019Y0002384096D01*
X0000575678Y0002384029D01*
X0000573954Y0002383689D01*
X0000527793Y0002364650D01*
X0000527460Y0002364428D01*
X0000526041Y0002363483D01*
X0000490680Y0002328229D01*
X0000489508Y0002326481D01*
X0000470329Y0002280377D01*
X0000469916Y0002278314D01*
X0000469840Y0002228381D01*
X0000051455Y0002228381D01*
X0000051455Y0002466141D01*
X0000051046Y0002468205D01*
X0000049876Y0002469955D01*
X0000048127Y0002471124D01*
X0000046062Y0002471535D01*
X0000019428Y0002471535D01*
X0000016482Y0002472121D01*
X0000014434Y0002473489D01*
X0000013066Y0002475537D01*
X0000012480Y0002478484D01*
X0000012480Y0002707677D01*
X0000101889Y0002707677D01*
X0000106495Y0002684520D01*
X0000119613Y0002664888D01*
X0000139244Y0002651771D01*
X0000162401Y0002647165D01*
X0000185558Y0002651771D01*
X0000205189Y0002664888D01*
X0000218307Y0002684520D01*
X0000222913Y0002707677D01*
X0002779055Y0002707677D01*
X0002783660Y0002684520D01*
X0002796778Y0002664888D01*
X0002816410Y0002651771D01*
X0002839566Y0002647165D01*
X0002862723Y0002651771D01*
X0002882355Y0002664888D01*
X0002895471Y0002684520D01*
X0002900078Y0002707677D01*
X0002895471Y0002730834D01*
X0002882355Y0002750465D01*
X0002862723Y0002763582D01*
X0002839566Y0002768188D01*
X0002816410Y0002763582D01*
X0002796778Y0002750465D01*
X0002783660Y0002730834D01*
X0002779055Y0002707677D01*
X0000222913Y0002707677D01*
X0000218307Y0002730834D01*
X0000205189Y0002750465D01*
X0000185558Y0002763582D01*
X0000162401Y0002768188D01*
X0000139244Y0002763582D01*
X0000119613Y0002750465D01*
X0000106495Y0002730834D01*
X0000101889Y0002707677D01*
X0000012480Y0002707677D01*
X0000012480Y0002785295D01*
X0000018161Y0002813853D01*
X0000034037Y0002837615D01*
X0000057798Y0002853492D01*
X0000086358Y0002859172D01*
X0002919546Y0002859172D01*
X0002948106Y0002853492D01*
X0002948106Y0002853492D01*
G37*
X0002948106Y0002853492D02*
X0002971867Y0002837615D01*
X0002987744Y0002813853D01*
X0002993425Y0002785295D01*
X0002993425Y0002482421D01*
X0002992839Y0002479474D01*
X0002991470Y0002477426D01*
X0002989423Y0002476058D01*
X0002986476Y0002475472D01*
X0002959842Y0002475472D01*
X0002957778Y0002475061D01*
X0002956028Y0002473892D01*
X0002954858Y0002472142D01*
X0002954448Y0002470078D01*
X0002954448Y0001885826D01*
X0002954858Y0001883762D01*
X0002956028Y0001882012D01*
X0002957778Y0001880843D01*
X0002959842Y0001880433D01*
X0002986476Y0001880433D01*
X0002989423Y0001879846D01*
X0002991470Y0001878478D01*
X0002992839Y0001876431D01*
X0002993425Y0001873484D01*
X0002993425Y0001585570D01*
X0002986275Y0001549628D01*
X0002966217Y0001519609D01*
X0002936197Y0001499550D01*
X0002900255Y0001492401D01*
X0000086357Y0001492007D01*
X0000057798Y0001497688D01*
X0000034037Y0001513565D01*
X0000018161Y0001537326D01*
X0000012480Y0001565885D01*
X0000012480Y0001642716D01*
X0000101889Y0001642716D01*
X0000106495Y0001619559D01*
X0000119613Y0001599927D01*
X0000139244Y0001586810D01*
X0000162401Y0001582203D01*
X0000185558Y0001586810D01*
X0000205189Y0001599927D01*
X0000218307Y0001619559D01*
X0000222717Y0001641732D01*
X0002778070Y0001641732D01*
X0002782677Y0001618574D01*
X0002795794Y0001598942D01*
X0002815425Y0001585826D01*
X0002838582Y0001581220D01*
X0002861739Y0001585826D01*
X0002881370Y0001598942D01*
X0002894488Y0001618574D01*
X0002899094Y0001641732D01*
X0002894488Y0001664889D01*
X0002881370Y0001684520D01*
X0002861739Y0001697636D01*
X0002838582Y0001702244D01*
X0002815425Y0001697636D01*
X0002795794Y0001684520D01*
X0002782677Y0001664889D01*
X0002778070Y0001641732D01*
X0000222717Y0001641732D01*
X0000222913Y0001642716D01*
X0000218307Y0001665873D01*
X0000205189Y0001685504D01*
X0000185558Y0001698621D01*
X0000162401Y0001703228D01*
X0000139244Y0001698621D01*
X0000119613Y0001685504D01*
X0000106495Y0001665873D01*
X0000101889Y0001642716D01*
X0000012480Y0001642716D01*
X0000012480Y0001869547D01*
X0000013066Y0001872494D01*
X0000014434Y0001874541D01*
X0000016482Y0001875909D01*
X0000019428Y0001876496D01*
X0000046062Y0001876496D01*
X0000048127Y0001876906D01*
X0000049876Y0001878075D01*
X0000051046Y0001879825D01*
X0000051455Y0001881889D01*
X0000051455Y0002228381D01*
X0000469840Y0002228381D01*
X0000470247Y0002226316D01*
X0000489286Y0002180155D01*
X0000489511Y0002179818D01*
X0000490453Y0002178403D01*
X0000525707Y0002143042D01*
X0000526754Y0002142340D01*
X0000527455Y0002141870D01*
X0000573559Y0002122691D01*
X0000575622Y0002122278D01*
X0000625555Y0002122202D01*
X0000627620Y0002122610D01*
X0000673781Y0002141648D01*
X0000674481Y0002142115D01*
X0000675532Y0002142815D01*
X0000710894Y0002178070D01*
X0000710897Y0002178073D01*
X0000710899Y0002178075D01*
X0000711489Y0002178957D01*
X0000712066Y0002179818D01*
X0000712067Y0002179822D01*
X0000712069Y0002179825D01*
X0000712273Y0002180850D01*
X0000712480Y0002181881D01*
X0000712479Y0002181885D01*
X0000712480Y0002181889D01*
X0000712480Y0002228381D01*
X0000981651Y0002228381D01*
X0000982058Y0002226316D01*
X0001001096Y0002180155D01*
X0001001322Y0002179818D01*
X0001002264Y0002178403D01*
X0001037517Y0002143042D01*
X0001038565Y0002142340D01*
X0001039266Y0002141870D01*
X0001085370Y0002122691D01*
X0001087433Y0002122278D01*
X0001137366Y0002122202D01*
X0001139431Y0002122610D01*
X0001185592Y0002141648D01*
X0001186292Y0002142115D01*
X0001187344Y0002142815D01*
X0001222705Y0002178070D01*
X0001222708Y0002178073D01*
X0001222711Y0002178075D01*
X0001223300Y0002178957D01*
X0001223877Y0002179818D01*
X0001223878Y0002179822D01*
X0001223880Y0002179825D01*
X0001224084Y0002180850D01*
X0001224291Y0002181881D01*
X0001224290Y0002181885D01*
X0001224291Y0002181889D01*
X0001224291Y0002228381D01*
X0001769052Y0002228381D01*
X0001769460Y0002226316D01*
X0001788498Y0002180155D01*
X0001788723Y0002179818D01*
X0001789665Y0002178403D01*
X0001824919Y0002143042D01*
X0001825967Y0002142340D01*
X0001826668Y0002141870D01*
X0001872771Y0002122691D01*
X0001874835Y0002122278D01*
X0001924768Y0002122202D01*
X0001926833Y0002122610D01*
X0001972993Y0002141648D01*
X0001973694Y0002142115D01*
X0001974745Y0002142815D01*
X0002010107Y0002178070D01*
X0002010109Y0002178073D01*
X0002010113Y0002178075D01*
X0002010702Y0002178957D01*
X0002011279Y0002179818D01*
X0002011280Y0002179822D01*
X0002011282Y0002179825D01*
X0002011486Y0002180850D01*
X0002011692Y0002181881D01*
X0002011692Y0002181885D01*
X0002011692Y0002181889D01*
X0002011692Y0002228381D01*
X0002280864Y0002228381D01*
X0002281271Y0002226316D01*
X0002300310Y0002180155D01*
X0002300534Y0002179818D01*
X0002301476Y0002178403D01*
X0002336731Y0002143042D01*
X0002337778Y0002142340D01*
X0002338479Y0002141870D01*
X0002384582Y0002122691D01*
X0002386646Y0002122278D01*
X0002436579Y0002122202D01*
X0002438644Y0002122610D01*
X0002484805Y0002141648D01*
X0002485505Y0002142115D01*
X0002486556Y0002142815D01*
X0002521918Y0002178070D01*
X0002521920Y0002178073D01*
X0002521924Y0002178075D01*
X0002522513Y0002178957D01*
X0002523090Y0002179818D01*
X0002523091Y0002179822D01*
X0002523093Y0002179825D01*
X0002523297Y0002180850D01*
X0002523502Y0002181881D01*
X0002523502Y0002181885D01*
X0002523502Y0002181889D01*
X0002523502Y0002324409D01*
X0002523093Y0002326473D01*
X0002521924Y0002328223D01*
X0002486884Y0002363262D01*
X0002486006Y0002363849D01*
X0002485142Y0002364428D01*
X0002439039Y0002383607D01*
X0002436975Y0002384020D01*
X0002387042Y0002384096D01*
X0002386702Y0002384029D01*
X0002384977Y0002383689D01*
X0002338816Y0002364650D01*
X0002338484Y0002364428D01*
X0002337065Y0002363483D01*
X0002301703Y0002328229D01*
X0002300531Y0002326481D01*
X0002281353Y0002280377D01*
X0002280939Y0002278314D01*
X0002280864Y0002228381D01*
X0002011692Y0002228381D01*
X0002011692Y0002324409D01*
X0002011282Y0002326473D01*
X0002010113Y0002328223D01*
X0001975072Y0002363262D01*
X0001974195Y0002363849D01*
X0001973330Y0002364428D01*
X0001927228Y0002383607D01*
X0001925163Y0002384020D01*
X0001875231Y0002384096D01*
X0001874891Y0002384029D01*
X0001873166Y0002383689D01*
X0001827005Y0002364650D01*
X0001826673Y0002364428D01*
X0001825254Y0002363483D01*
X0001789892Y0002328229D01*
X0001788720Y0002326481D01*
X0001769541Y0002280377D01*
X0001769128Y0002278314D01*
X0001769052Y0002228381D01*
X0001224291Y0002228381D01*
X0001224291Y0002324409D01*
X0001223880Y0002326473D01*
X0001222711Y0002328223D01*
X0001187672Y0002363262D01*
X0001186793Y0002363849D01*
X0001185929Y0002364428D01*
X0001139826Y0002383607D01*
X0001137763Y0002384020D01*
X0001087830Y0002384096D01*
X0001087489Y0002384029D01*
X0001085765Y0002383689D01*
X0001039604Y0002364650D01*
X0001039271Y0002364428D01*
X0001037852Y0002363483D01*
X0001002491Y0002328229D01*
X0001001319Y0002326481D01*
X0000982140Y0002280377D01*
X0000981727Y0002278314D01*
X0000981651Y0002228381D01*
X0000712480Y0002228381D01*
X0000712480Y0002324409D01*
X0000712069Y0002326473D01*
X0000710899Y0002328223D01*
X0000675861Y0002363262D01*
X0000674982Y0002363849D01*
X0000674118Y0002364428D01*
X0000628015Y0002383607D01*
X0000625952Y0002384020D01*
X0000576019Y0002384096D01*
X0000575678Y0002384029D01*
X0000573954Y0002383689D01*
X0000527793Y0002364650D01*
X0000527460Y0002364428D01*
X0000526041Y0002363483D01*
X0000490680Y0002328229D01*
X0000489508Y0002326481D01*
X0000470329Y0002280377D01*
X0000469916Y0002278314D01*
X0000469840Y0002228381D01*
X0000051455Y0002228381D01*
X0000051455Y0002466141D01*
X0000051046Y0002468205D01*
X0000049876Y0002469955D01*
X0000048127Y0002471124D01*
X0000046062Y0002471535D01*
X0000019428Y0002471535D01*
X0000016482Y0002472121D01*
X0000014434Y0002473489D01*
X0000013066Y0002475537D01*
X0000012480Y0002478484D01*
X0000012480Y0002707677D01*
X0000101889Y0002707677D01*
X0000106495Y0002684520D01*
X0000119613Y0002664888D01*
X0000139244Y0002651771D01*
X0000162401Y0002647165D01*
X0000185558Y0002651771D01*
X0000205189Y0002664888D01*
X0000218307Y0002684520D01*
X0000222913Y0002707677D01*
X0002779055Y0002707677D01*
X0002783660Y0002684520D01*
X0002796778Y0002664888D01*
X0002816410Y0002651771D01*
X0002839566Y0002647165D01*
X0002862723Y0002651771D01*
X0002882355Y0002664888D01*
X0002895471Y0002684520D01*
X0002900078Y0002707677D01*
X0002895471Y0002730834D01*
X0002882355Y0002750465D01*
X0002862723Y0002763582D01*
X0002839566Y0002768188D01*
X0002816410Y0002763582D01*
X0002796778Y0002750465D01*
X0002783660Y0002730834D01*
X0002779055Y0002707677D01*
X0000222913Y0002707677D01*
X0000218307Y0002730834D01*
X0000205189Y0002750465D01*
X0000185558Y0002763582D01*
X0000162401Y0002768188D01*
X0000139244Y0002763582D01*
X0000119613Y0002750465D01*
X0000106495Y0002730834D01*
X0000101889Y0002707677D01*
X0000012480Y0002707677D01*
X0000012480Y0002785295D01*
X0000018161Y0002813853D01*
X0000034037Y0002837615D01*
X0000057798Y0002853492D01*
X0000086358Y0002859172D01*
X0002919546Y0002859172D01*
X0002948106Y0002853492D01*
M02*