%
M48
METRIC,000.000
T01C0.50
%
T01
X040506Y073010
X039506Y073010
X038506Y073010
X037506Y073010
X036506Y073010
X035506Y073010
X035985Y074711
X036985Y074711
X037985Y074711
X038985Y074711
X039985Y074711
X016356Y035210
X015356Y035210
X014356Y035210
X013356Y035210
X012356Y035210
X012180Y037511
X013180Y037511
X014180Y037511
X015180Y037511
X016180Y037511
X040356Y035210
X039356Y035210
X038356Y035210
X037356Y035210
X036356Y035210
X036180Y037514
X037180Y037514
X038180Y037515
X039180Y037515
X040180Y037515
X066506Y073010
X065506Y073010
X064506Y073010
X063506Y073010
X062506Y073010
X061506Y073010
X061985Y074715
X062985Y074715
X063985Y074715
X064985Y074715
X065985Y074715
X066356Y035210
X065356Y035210
X064356Y035210
X063356Y035210
X062356Y035210
X062180Y037518
X063180Y037518
X064180Y037518
X065180Y037518
X066180Y037518
X016506Y073010
X015506Y073010
X014506Y073010
X013506Y073010
X012506Y073010
X011506Y073010
X011985Y074708
X012985Y074708
X013985Y074708
X014985Y074708
X015985Y074708
M30