%MOIN*%
%OFA0B0*%
%FSLAX46Y46*%
%IPPOS*%
%LPD*%
%ADD10C,0.005905511811023622*%
%ADD11C,0.011811023622047244*%
%ADD12C,0.01968503937007874*%
%ADD13C,0.031496062992125991*%
%ADD14C,0.11811023622047245*%
%ADD15C,0.027559055118110236*%
%ADD16C,0.053149606299212608*%
%ADD27C,0.005905511811023622*%
%ADD28C,0.011811023622047244*%
%ADD29C,0.01968503937007874*%
%ADD30C,0.013779527559055118*%
%ADD31C,0.031496062992125991*%
%ADD32C,0.015748031496062995*%
%ADD33C,0.11811023622047245*%
%ADD34C,0.027559055118110236*%
%ADD35C,0.053149606299212608*%
%ADD36C,0.00039370078740157485*%
%ADD47C,0.005905511811023622*%
%ADD48C,0.01968503937007874*%
%ADD49C,0.011811023622047244*%
%ADD50C,0.031496062992125991*%
%ADD51C,0.015748031496062995*%
%ADD52C,0.11811023622047245*%
%ADD53C,0.027559055118110236*%
%ADD54C,0.053149606299212608*%
%ADD55C,0.00039370078740157485*%
%LPD*%
G01*
D10*
D11*
X0001737630Y0003870880D02*
X0001784875Y0003831510D01*
X0001737630Y0003871647D02*
X0001784875Y0003910250D01*
X0001871489Y0003902376D02*
X0001871489Y0003839384D01*
X0001871489Y0003870880D02*
X0001737630Y0003870880D01*
D12*
X0000920697Y0003575629D02*
G75*
G02X0001001410Y0003492928I0000000003J-0000080732D01*
G01*
X0001001410Y0003492928D02*
X0001001410Y0003237022D01*
X0001001410Y0003237022D02*
G75*
G02X0000922670Y0003158282I-0000078740D01*
G01*
X0001871674Y0003989757D02*
G75*
G02X0001954376Y0004070466I0000080732D01*
G01*
D11*
X0002721882Y0003902376D02*
X0002721882Y0003835447D01*
X0002721882Y0003871647D02*
X0002769127Y0003910250D01*
X0002855741Y0003870880D02*
X0002721882Y0003870880D01*
X0002721882Y0003870880D02*
X0002769127Y0003831510D01*
D12*
X0001871674Y0003989757D02*
X0001871674Y0003952380D01*
X0002720517Y0003987765D02*
X0002720517Y0003950387D01*
X0002720517Y0003794851D02*
X0002720517Y0003718104D01*
X0001872068Y0003796844D02*
X0001872068Y0003718104D01*
X0001952777Y0003637371D02*
G75*
G02X0001872044Y0003718104J0000080732D01*
G01*
X0002720517Y0003718104D02*
G75*
G02X0002637816Y0003637395I-0000080732D01*
G01*
X0002169312Y0003637395D02*
X0001954745Y0003637395D01*
D11*
X0002338296Y0003644784D02*
X0002341670Y0003641409D01*
X0002351794Y0003638035D01*
X0002358543Y0003638035D01*
X0002368667Y0003641409D01*
X0002375416Y0003648158D01*
X0002378791Y0003654907D01*
X0002382165Y0003668406D01*
X0002382165Y0003678529D01*
X0002378791Y0003692028D01*
X0002375416Y0003698777D01*
X0002368667Y0003705526D01*
X0002358543Y0003708901D01*
X0002351794Y0003708901D01*
X0002341670Y0003705526D01*
X0002338296Y0003702152D01*
X0002274179Y0003638035D02*
X0002307925Y0003638035D01*
X0002307925Y0003708901D01*
X0002250557Y0003638035D02*
X0002250557Y0003708901D01*
X0002210062Y0003638035D02*
X0002240433Y0003678529D01*
X0002210062Y0003708901D02*
X0002250557Y0003668406D01*
D12*
X0002637816Y0003637395D02*
X0002425218Y0003637395D01*
D10*
X0000924732Y0003476617D02*
X0000924732Y0003483366D01*
X0000926607Y0003486741D01*
X0000928482Y0003488428D01*
X0000934106Y0003491803D01*
X0000941605Y0003493490D01*
X0000956603Y0003493490D01*
X0000960353Y0003491803D01*
X0000962227Y0003490116D01*
X0000964102Y0003486741D01*
X0000964102Y0003479992D01*
X0000962227Y0003476617D01*
X0000960353Y0003474930D01*
X0000956603Y0003473243D01*
X0000947229Y0003473243D01*
X0000943480Y0003474930D01*
X0000941605Y0003476617D01*
X0000939730Y0003479992D01*
X0000939730Y0003486741D01*
X0000941605Y0003490116D01*
X0000943480Y0003491803D01*
X0000947229Y0003493490D01*
X0000949104Y0003458057D02*
X0000949104Y0003431060D01*
X0000964102Y0003395627D02*
X0000964102Y0003415875D01*
X0000964102Y0003405751D02*
X0000924732Y0003405751D01*
X0000930356Y0003409126D01*
X0000934106Y0003412500D01*
X0000935981Y0003415875D01*
X0000928482Y0003382129D02*
X0000926607Y0003380442D01*
X0000924732Y0003377067D01*
X0000924732Y0003368631D01*
X0000926607Y0003365256D01*
X0000928482Y0003363569D01*
X0000932231Y0003361882D01*
X0000935981Y0003361882D01*
X0000941605Y0003363569D01*
X0000964102Y0003383816D01*
X0000964102Y0003361882D01*
X0000924732Y0003351758D02*
X0000964102Y0003339947D01*
X0000924732Y0003328136D01*
X0000964102Y0003270768D02*
X0000964102Y0003291015D01*
X0000964102Y0003280892D02*
X0000924732Y0003280892D01*
X0000930356Y0003284266D01*
X0000934106Y0003287641D01*
X0000935981Y0003291015D01*
X0000952854Y0003257270D02*
X0000952854Y0003240397D01*
X0000964102Y0003260644D02*
X0000924732Y0003248833D01*
X0000964102Y0003237022D01*
D12*
X0001339421Y0003573758D02*
X0001252807Y0003573758D01*
X0001737029Y0003574427D02*
X0001668131Y0003574427D01*
X0001817785Y0003123222D02*
G75*
G02X0001735084Y0003042513I-0000080732D01*
G01*
X0001251230Y0003042513D02*
G75*
G02X0001170517Y0003125214I-0000000003J0000080732D01*
G01*
X0001250838Y0003042262D02*
X0001735090Y0003042262D01*
X0001170124Y0003121253D02*
X0001170124Y0003491332D01*
X0001170124Y0003491332D02*
G75*
G02X0001252807Y0003573758I0000080714J0000001717D01*
G01*
X0001737029Y0003574427D02*
G75*
G02X0001817737Y0003491726J-0000080732D01*
G01*
X0001817761Y0003122435D02*
X0001817737Y0003491726D01*
X0000548654Y0003240959D02*
X0000548654Y0003496865D01*
X0000548654Y0003496865D02*
G75*
G02X0000627394Y0003575605I0000078740D01*
G01*
X0000629367Y0003158258D02*
G75*
G02X0000548654Y0003240959I-0000000003J0000080732D01*
G01*
X0000629367Y0003158258D02*
X0000921305Y0003158258D01*
D11*
X0000874240Y0003541806D02*
X0000874240Y0003612672D01*
X0000847243Y0003612672D01*
X0000840494Y0003609297D01*
X0000837120Y0003605922D01*
X0000833745Y0003599173D01*
X0000833745Y0003589050D01*
X0000837120Y0003582300D01*
X0000840494Y0003578926D01*
X0000847243Y0003575551D01*
X0000874240Y0003575551D01*
X0000810123Y0003612672D02*
X0000793250Y0003541806D01*
X0000779752Y0003592424D01*
X0000766254Y0003541806D01*
X0000749381Y0003612672D01*
X0000681889Y0003541806D02*
X0000705511Y0003575551D01*
X0000722384Y0003541806D02*
X0000722384Y0003612672D01*
X0000695387Y0003612672D01*
X0000688638Y0003609297D01*
X0000685264Y0003605922D01*
X0000681889Y0003599173D01*
X0000681889Y0003589050D01*
X0000685264Y0003582300D01*
X0000688638Y0003578926D01*
X0000695387Y0003575551D01*
X0000722384Y0003575551D01*
X0001590259Y0003609585D02*
X0001590259Y0003552217D01*
X0001586884Y0003545468D01*
X0001583510Y0003542094D01*
X0001576760Y0003538719D01*
X0001563262Y0003538719D01*
X0001556513Y0003542094D01*
X0001553138Y0003545468D01*
X0001549764Y0003552217D01*
X0001549764Y0003609585D01*
X0001519392Y0003542094D02*
X0001509269Y0003538719D01*
X0001492396Y0003538719D01*
X0001485647Y0003542094D01*
X0001482272Y0003545468D01*
X0001478898Y0003552217D01*
X0001478898Y0003558967D01*
X0001482272Y0003565716D01*
X0001485647Y0003569090D01*
X0001492396Y0003572465D01*
X0001505894Y0003575840D01*
X0001512643Y0003579214D01*
X0001516018Y0003582589D01*
X0001519392Y0003589338D01*
X0001519392Y0003596087D01*
X0001516018Y0003602836D01*
X0001512643Y0003606211D01*
X0001505894Y0003609585D01*
X0001489021Y0003609585D01*
X0001478898Y0003606211D01*
X0001424904Y0003575840D02*
X0001414781Y0003572465D01*
X0001411406Y0003569090D01*
X0001408031Y0003562341D01*
X0001408031Y0003552217D01*
X0001411406Y0003545468D01*
X0001414781Y0003542094D01*
X0001421530Y0003538719D01*
X0001448526Y0003538719D01*
X0001448526Y0003609585D01*
X0001424904Y0003609585D01*
X0001418155Y0003606211D01*
X0001414781Y0003602836D01*
X0001411406Y0003596087D01*
X0001411406Y0003589338D01*
X0001414781Y0003582589D01*
X0001418155Y0003579214D01*
X0001424904Y0003575840D01*
X0001448526Y0003575840D01*
D12*
X0002639809Y0004070466D02*
X0001954376Y0004070466D01*
X0002639809Y0004070466D02*
G75*
G02X0002720517Y0003987765J-0000080732D01*
G01*
D10*
X0000589993Y0003390565D02*
G75*
G02X0000615583Y0003416156I0000025590D01*
G01*
X0000615583Y0003416156D02*
G75*
G02X0000641174Y0003390565J-0000025590D01*
G01*
X0000615583Y0003416156D02*
X0000615583Y0003437810D01*
X0000641174Y0003463400D02*
G75*
G03X0000641174Y0003463400I-0000025590D01*
G01*
X0000641174Y0003317731D02*
G75*
G03X0000641174Y0003317731I-0000025590D01*
G01*
X0000615583Y0003343321D02*
X0000615583Y0003378754D01*
D11*
X0000619520Y0003390565D02*
G75*
G03X0000619520Y0003390565I-0000003937D01*
G01*
X0000623457Y0003390565D02*
G75*
G03X0000623457Y0003390565I-0000007874D01*
G01*
D10*
X0000593930Y0003376786D02*
G75*
G02X0000601804Y0003412219I0000021653J0000013779D01*
G01*
X0000629363Y0003412219D02*
G75*
G02X0000637237Y0003376786I-0000013779J-0000021653D01*
G01*
X0000615583Y0003477180D02*
X0000615583Y0003449621D01*
X0000615583Y0003331510D02*
X0000615583Y0003303951D01*
X0000629363Y0003317731D02*
X0000601804Y0003317731D01*
%LPC*%
D13*
X0002902964Y0004172308D02*
G75*
G03X0002902964Y0004172308I-0000070866D01*
G01*
X0002902177Y0003106166D02*
G75*
G03X0002902177Y0003106166I-0000070866D01*
G01*
X0000225405Y0003107347D02*
G75*
G03X0000225405Y0003107347I-0000070866D01*
G01*
X0000225799Y0004171914D02*
G75*
G03X0000225799Y0004171914I-0000070866D01*
G01*
D14*
X0002185433Y0003861417D02*
G75*
G03X0002185433Y0003861417I-0000104724D01*
G01*
D15*
X0002196062Y0003933858D02*
X0002196062Y0003788582D01*
D16*
X0002231496Y0003861417D02*
G75*
G03X0002231496Y0003861417I-0000150787D01*
G01*
X0002664566Y0003861417D02*
G75*
G03X0002664566Y0003861417I-0000150787D01*
G01*
D15*
X0002629133Y0003933858D02*
X0002629133Y0003788582D01*
D14*
X0002618503Y0003861417D02*
G75*
G03X0002618503Y0003861417I-0000104724D01*
G01*
G04 next file*
%LPD*%
G01*
D27*
D28*
X0002515466Y0000828965D02*
X0002549212Y0000828965D01*
X0002549212Y0000899831D01*
D29*
X0002387795Y0000864960D02*
X0002179133Y0000864960D01*
D28*
X0002045837Y0000828378D02*
X0002045837Y0000899245D01*
X0002045837Y0000865499D02*
X0002005342Y0000865499D01*
X0002005342Y0000828378D02*
X0002005342Y0000899245D01*
D29*
X0001879527Y0000865354D02*
G75*
G02X0001798818Y0000948055J0000080732D01*
G01*
X0001796850Y0001255118D02*
X0001798818Y0000948055D01*
X0001796826Y0001256692D02*
G75*
G02X0001879527Y0001337401I0000080732D01*
G01*
X0002687007Y0001337401D02*
X0001879921Y0001337401D01*
X0002683070Y0001337401D02*
G75*
G02X0002763779Y0001254700J-0000080732D01*
G01*
X0002763779Y0000944881D02*
X0002763779Y0001254700D01*
X0002763779Y0000944881D02*
G75*
G02X0002681078Y0000864173I-0000080732D01*
G01*
D30*
X0002801368Y0001062748D02*
X0002801368Y0001013254D01*
X0002880108Y0001038001D02*
X0002801368Y0001038001D01*
X0002801368Y0000992632D02*
X0002880108Y0000934889D01*
X0002801368Y0000934889D02*
X0002880108Y0000992632D01*
X0002880108Y0000856523D02*
X0002880108Y0000906018D01*
X0002880108Y0000881271D02*
X0002801368Y0000881271D01*
X0002812617Y0000889520D01*
X0002820116Y0000897769D01*
X0002823865Y0000906018D01*
D29*
X0001796826Y0000705511D02*
G75*
G02X0001879527Y0000786220I0000080732D01*
G01*
X0001796850Y0000703937D02*
X0001798818Y0000396874D01*
X0001879527Y0000314173D02*
G75*
G02X0001798818Y0000396874J0000080732D01*
G01*
X0001620077Y0001337401D02*
G75*
G02X0001700787Y0001254700J-0000080732D01*
G01*
X0001700787Y0000946850D02*
X0001700787Y0001254700D01*
X0001700787Y0000945669D02*
G75*
G02X0001618086Y0000864960I-0000080732D01*
G01*
D28*
X0001504780Y0000899831D02*
X0001487907Y0000828965D01*
X0001474409Y0000879583D01*
X0001460911Y0000828965D01*
X0001444038Y0000899831D01*
D29*
X0001324803Y0000864960D02*
X0001116141Y0000864960D01*
D28*
X0000940663Y0000828378D02*
X0000974409Y0000828378D01*
X0000974409Y0000899245D01*
D29*
X0000812992Y0000864960D02*
X0000604330Y0000864960D01*
D28*
X0000471034Y0000828965D02*
X0000471034Y0000899831D01*
X0000471034Y0000866085D02*
X0000430539Y0000866085D01*
X0000430539Y0000828965D02*
X0000430539Y0000899831D01*
D29*
X0000305355Y0000866342D02*
G75*
G02X0000224647Y0000949044J0000080732D01*
G01*
X0001624015Y0001337401D02*
X0000307086Y0001337401D01*
X0000224385Y0001256692D02*
G75*
G02X0000307086Y0001337401I0000080732D01*
G01*
X0000224647Y0000949020D02*
X0000224647Y0001258075D01*
D30*
X0000184439Y0001013948D02*
X0000146944Y0001042818D01*
X0000184439Y0001063442D02*
X0000105699Y0001063442D01*
X0000105699Y0001030446D01*
X0000109448Y0001022197D01*
X0000113198Y0001018072D01*
X0000120697Y0001013948D01*
X0000131945Y0001013948D01*
X0000139445Y0001018072D01*
X0000143194Y0001022197D01*
X0000146944Y0001030446D01*
X0000146944Y0001063442D01*
X0000105699Y0000985076D02*
X0000184439Y0000927334D01*
X0000105699Y0000927334D02*
X0000184439Y0000985076D01*
X0000184439Y0000848968D02*
X0000184439Y0000898462D01*
X0000184439Y0000873715D02*
X0000105699Y0000873715D01*
X0000116947Y0000881963D01*
X0000124446Y0000890212D01*
X0000128196Y0000898462D01*
D28*
X0002045837Y0000277197D02*
X0002045837Y0000348063D01*
X0002045837Y0000314318D02*
X0002005342Y0000314318D01*
X0002005342Y0000277197D02*
X0002005342Y0000348063D01*
X0002515466Y0000277784D02*
X0002549212Y0000277784D01*
X0002549212Y0000348650D01*
D29*
X0002387795Y0000313779D02*
X0002179133Y0000313779D01*
X0002687007Y0000786220D02*
X0001879921Y0000786220D01*
X0002683070Y0000786220D02*
G75*
G02X0002763779Y0000703519J-0000080732D01*
G01*
X0002763779Y0000393700D02*
X0002763779Y0000703519D01*
X0002763779Y0000394488D02*
G75*
G02X0002681078Y0000313779I-0000080732D01*
G01*
D30*
X0002801368Y0000511567D02*
X0002801368Y0000462073D01*
X0002880108Y0000486820D02*
X0002801368Y0000486820D01*
X0002801368Y0000441451D02*
X0002880108Y0000383708D01*
X0002801368Y0000383708D02*
X0002880108Y0000441451D01*
X0002808867Y0000354836D02*
X0002805118Y0000350711D01*
X0002801368Y0000342463D01*
X0002801368Y0000321841D01*
X0002805118Y0000313592D01*
X0002808867Y0000309467D01*
X0002816366Y0000305343D01*
X0002823865Y0000305343D01*
X0002835114Y0000309467D01*
X0002880108Y0000358961D01*
X0002880108Y0000305343D01*
D29*
X0000812992Y0000313779D02*
X0000604330Y0000313779D01*
D30*
X0000184439Y0000462767D02*
X0000146944Y0000491637D01*
X0000184439Y0000512260D02*
X0000105699Y0000512260D01*
X0000105699Y0000479265D01*
X0000109448Y0000471016D01*
X0000113198Y0000466891D01*
X0000120697Y0000462767D01*
X0000131945Y0000462767D01*
X0000139445Y0000466891D01*
X0000143194Y0000471016D01*
X0000146944Y0000479265D01*
X0000146944Y0000512260D01*
X0000105699Y0000433895D02*
X0000184439Y0000376152D01*
X0000105699Y0000376152D02*
X0000184439Y0000433895D01*
X0000113198Y0000347281D02*
X0000109448Y0000343156D01*
X0000105699Y0000334908D01*
X0000105699Y0000314285D01*
X0000109448Y0000306036D01*
X0000113198Y0000301912D01*
X0000120697Y0000297787D01*
X0000128196Y0000297787D01*
X0000139445Y0000301912D01*
X0000184439Y0000351406D01*
X0000184439Y0000297787D01*
D29*
X0001700787Y0000393700D02*
X0001700787Y0000703519D01*
X0001700787Y0000394488D02*
G75*
G02X0001618086Y0000313779I-0000080732D01*
G01*
X0001620077Y0000786220D02*
G75*
G02X0001700787Y0000703519J-0000080732D01*
G01*
X0001324803Y0000313779D02*
X0001116141Y0000313779D01*
X0000224647Y0000397838D02*
X0000224647Y0000706893D01*
X0000305355Y0000315161D02*
G75*
G02X0000224647Y0000397861J0000080732D01*
G01*
X0000224385Y0000705511D02*
G75*
G02X0000307086Y0000786220I0000080732D01*
G01*
X0001624015Y0000786220D02*
X0000307086Y0000786220D01*
D28*
X0000471034Y0000277784D02*
X0000471034Y0000348650D01*
X0000471034Y0000314904D02*
X0000430539Y0000314904D01*
X0000430539Y0000277784D02*
X0000430539Y0000348650D01*
X0000940663Y0000277197D02*
X0000974409Y0000277197D01*
X0000974409Y0000348063D01*
X0001504780Y0000348650D02*
X0001487907Y0000277784D01*
X0001474409Y0000328402D01*
X0001460911Y0000277784D01*
X0001444038Y0000348650D01*
%LPC*%
D31*
X0002904724Y0001219685D02*
G75*
G03X0002904724Y0001219685I-0000070866D01*
G01*
X0002903936Y0000153543D02*
G75*
G03X0002903936Y0000153543I-0000070866D01*
G01*
X0000227165Y0000154724D02*
G75*
G03X0000227165Y0000154724I-0000070866D01*
G01*
X0000227559Y0001219291D02*
G75*
G03X0000227559Y0001219291I-0000070866D01*
G01*
D32*
X0000933070Y0000080651D02*
X0000983689Y0000080651D01*
X0000983689Y0000186951D01*
X0000897637Y0000080651D02*
X0000897637Y0000151518D01*
X0000897637Y0000186951D02*
X0000902699Y0000181889D01*
X0000897637Y0000176827D01*
X0000892575Y0000181889D01*
X0000897637Y0000186951D01*
X0000897637Y0000176827D01*
X0000847019Y0000080651D02*
X0000847019Y0000151518D01*
X0000847019Y0000141394D02*
X0000841957Y0000146456D01*
X0000831833Y0000151518D01*
X0000816647Y0000151518D01*
X0000806524Y0000146456D01*
X0000801462Y0000136332D01*
X0000801462Y0000080651D01*
X0000801462Y0000136332D02*
X0000796400Y0000146456D01*
X0000786276Y0000151518D01*
X0000771091Y0000151518D01*
X0000760967Y0000146456D01*
X0000755905Y0000136332D01*
X0000755905Y0000080651D01*
X0000664791Y0000085714D02*
X0000674915Y0000080651D01*
X0000695163Y0000080651D01*
X0000705286Y0000085714D01*
X0000710348Y0000095838D01*
X0000710348Y0000136332D01*
X0000705286Y0000146456D01*
X0000695163Y0000151518D01*
X0000674915Y0000151518D01*
X0000664791Y0000146456D01*
X0000659730Y0000136332D01*
X0000659730Y0000126208D01*
X0000710348Y0000116084D01*
X0000619235Y0000085714D02*
X0000604049Y0000080651D01*
X0000578740Y0000080651D01*
X0000568616Y0000085714D01*
X0000563554Y0000090776D01*
X0000558492Y0000100899D01*
X0000558492Y0000111023D01*
X0000563554Y0000121147D01*
X0000568616Y0000126208D01*
X0000578740Y0000131271D01*
X0000598987Y0000136332D01*
X0000609111Y0000141394D01*
X0000614173Y0000146456D01*
X0000619235Y0000156580D01*
X0000619235Y0000166704D01*
X0000614173Y0000176827D01*
X0000609111Y0000181889D01*
X0000598987Y0000186951D01*
X0000573678Y0000186951D01*
X0000558492Y0000181889D01*
X0000512935Y0000080651D02*
X0000512935Y0000186951D01*
X0000487626Y0000186951D01*
X0000472440Y0000181889D01*
X0000462317Y0000171766D01*
X0000457255Y0000161642D01*
X0000452193Y0000141394D01*
X0000452193Y0000126208D01*
X0000457255Y0000105961D01*
X0000462317Y0000095838D01*
X0000472440Y0000085714D01*
X0000487626Y0000080651D01*
X0000512935Y0000080651D01*
X0000345894Y0000080651D02*
X0000381327Y0000131271D01*
X0000406636Y0000080651D02*
X0000406636Y0000186951D01*
X0000366141Y0000186951D01*
X0000356017Y0000181889D01*
X0000350956Y0000176827D01*
X0000345894Y0000166704D01*
X0000345894Y0000151518D01*
X0000350956Y0000141394D01*
X0000356017Y0000136332D01*
X0000366141Y0000131271D01*
X0000406636Y0000131271D01*
D33*
X0002642124Y0000557874D02*
G75*
G03X0002642124Y0000557874I-0000104724D01*
G01*
D34*
X0002652755Y0000630314D02*
X0002652755Y0000485039D01*
D35*
X0002688188Y0000557874D02*
G75*
G03X0002688188Y0000557874I-0000150787D01*
G01*
D33*
X0002130314Y0000557874D02*
G75*
G03X0002130314Y0000557874I-0000104724D01*
G01*
D34*
X0002140944Y0000630314D02*
X0002140944Y0000485039D01*
D35*
X0002176377Y0000557874D02*
G75*
G03X0002176377Y0000557874I-0000150787D01*
G01*
D33*
X0002642124Y0001109055D02*
G75*
G03X0002642124Y0001109055I-0000104724D01*
G01*
D34*
X0002652755Y0001181496D02*
X0002652755Y0001036219D01*
D35*
X0002688188Y0001109055D02*
G75*
G03X0002688188Y0001109055I-0000150787D01*
G01*
D33*
X0002130314Y0001109055D02*
G75*
G03X0002130314Y0001109055I-0000104724D01*
G01*
D34*
X0002140944Y0001181496D02*
X0002140944Y0001036219D01*
D35*
X0002176377Y0001109055D02*
G75*
G03X0002176377Y0001109055I-0000150787D01*
G01*
D33*
X0001579133Y0000557874D02*
G75*
G03X0001579133Y0000557874I-0000104724D01*
G01*
D34*
X0001589763Y0000630314D02*
X0001589763Y0000485039D01*
D35*
X0001625196Y0000557874D02*
G75*
G03X0001625196Y0000557874I-0000150787D01*
G01*
D33*
X0001067322Y0000557874D02*
G75*
G03X0001067322Y0000557874I-0000104724D01*
G01*
D34*
X0001077952Y0000630314D02*
X0001077952Y0000485039D01*
D35*
X0001113385Y0000557874D02*
G75*
G03X0001113385Y0000557874I-0000150787D01*
G01*
D33*
X0000555511Y0000557874D02*
G75*
G03X0000555511Y0000557874I-0000104724D01*
G01*
D34*
X0000566141Y0000630314D02*
X0000566141Y0000485039D01*
D35*
X0000601574Y0000557874D02*
G75*
G03X0000601574Y0000557874I-0000150787D01*
G01*
D33*
X0001579133Y0001109055D02*
G75*
G03X0001579133Y0001109055I-0000104724D01*
G01*
D34*
X0001589763Y0001181496D02*
X0001589763Y0001036219D01*
D35*
X0001625196Y0001109055D02*
G75*
G03X0001625196Y0001109055I-0000150787D01*
G01*
D33*
X0001067322Y0001109055D02*
G75*
G03X0001067322Y0001109055I-0000104724D01*
G01*
D34*
X0001077952Y0001181496D02*
X0001077952Y0001036219D01*
D35*
X0001113385Y0001109055D02*
G75*
G03X0001113385Y0001109055I-0000150787D01*
G01*
D33*
X0000555511Y0001109055D02*
G75*
G03X0000555511Y0001109055I-0000104724D01*
G01*
D34*
X0000566141Y0001181496D02*
X0000566141Y0001036219D01*
D35*
X0000601574Y0001109055D02*
G75*
G03X0000601574Y0001109055I-0000150787D01*
G01*
D36*
G36*
X0001226218Y0000202684D02*
X0001227658Y0000203136D01*
X0001229257Y0000204209D01*
X0001231242Y0000206166D01*
X0001233842Y0000209269D01*
X0001237283Y0000213781D01*
X0001241793Y0000219963D01*
X0001247598Y0000228081D01*
X0001251314Y0000233307D01*
X0001257145Y0000241551D01*
X0001262393Y0000249039D01*
X0001266841Y0000255456D01*
X0001270269Y0000260483D01*
X0001272459Y0000263805D01*
X0001273198Y0000265092D01*
X0001272560Y0000266181D01*
X0001270359Y0000264985D01*
X0001266566Y0000261483D01*
X0001263826Y0000258604D01*
X0001256967Y0000251160D01*
X0001251485Y0000245109D01*
X0001246791Y0000239771D01*
X0001242297Y0000234467D01*
X0001237416Y0000228517D01*
X0001232095Y0000221910D01*
X0001227492Y0000216033D01*
X0001223661Y0000210886D01*
X0001220906Y0000206896D01*
X0001219531Y0000204494D01*
X0001219441Y0000204053D01*
X0001221050Y0000203062D01*
X0001224322Y0000202597D01*
X0001224711Y0000202592D01*
X0001226218Y0000202684D01*
X0001226218Y0000202684D01*
G37*
X0001226218Y0000202684D02*
X0001227658Y0000203136D01*
X0001229257Y0000204209D01*
X0001231242Y0000206166D01*
X0001233842Y0000209269D01*
X0001237283Y0000213781D01*
X0001241793Y0000219963D01*
X0001247598Y0000228081D01*
X0001251314Y0000233307D01*
X0001257145Y0000241551D01*
X0001262393Y0000249039D01*
X0001266841Y0000255456D01*
X0001270269Y0000260483D01*
X0001272459Y0000263805D01*
X0001273198Y0000265092D01*
X0001272560Y0000266181D01*
X0001270359Y0000264985D01*
X0001266566Y0000261483D01*
X0001263826Y0000258604D01*
X0001256967Y0000251160D01*
X0001251485Y0000245109D01*
X0001246791Y0000239771D01*
X0001242297Y0000234467D01*
X0001237416Y0000228517D01*
X0001232095Y0000221910D01*
X0001227492Y0000216033D01*
X0001223661Y0000210886D01*
X0001220906Y0000206896D01*
X0001219531Y0000204494D01*
X0001219441Y0000204053D01*
X0001221050Y0000203062D01*
X0001224322Y0000202597D01*
X0001224711Y0000202592D01*
X0001226218Y0000202684D01*
G36*
X0001093904Y0000024027D02*
X0001096747Y0000026656D01*
X0001101021Y0000031396D01*
X0001103391Y0000034178D01*
X0001107449Y0000038984D01*
X0001110913Y0000043063D01*
X0001113305Y0000045854D01*
X0001114029Y0000046678D01*
X0001115373Y0000048258D01*
X0001118215Y0000051669D01*
X0001122244Y0000056533D01*
X0001127145Y0000062471D01*
X0001132536Y0000069021D01*
X0001138665Y0000076386D01*
X0001144904Y0000083725D01*
X0001150748Y0000090451D01*
X0001155690Y0000095984D01*
X0001158524Y0000099021D01*
X0001162793Y0000103394D01*
X0001165633Y0000106008D01*
X0001167589Y0000107167D01*
X0001169210Y0000107174D01*
X0001171042Y0000106332D01*
X0001171373Y0000106149D01*
X0001175209Y0000103098D01*
X0001178255Y0000098434D01*
X0001180728Y0000091722D01*
X0001182561Y0000084000D01*
X0001184416Y0000074797D01*
X0001185828Y0000068025D01*
X0001186905Y0000063311D01*
X0001187758Y0000060284D01*
X0001188497Y0000058571D01*
X0001189230Y0000057800D01*
X0001190069Y0000057597D01*
X0001190346Y0000057592D01*
X0001191458Y0000058069D01*
X0001192345Y0000059797D01*
X0001193125Y0000063227D01*
X0001193915Y0000068808D01*
X0001194404Y0000073015D01*
X0001195125Y0000080018D01*
X0001195699Y0000086573D01*
X0001196053Y0000091784D01*
X0001196130Y0000094087D01*
X0001196830Y0000100332D01*
X0001198684Y0000107879D01*
X0001201349Y0000115592D01*
X0001204485Y0000122338D01*
X0001204795Y0000122887D01*
X0001206737Y0000126981D01*
X0001207136Y0000129541D01*
X0001206060Y0000130237D01*
X0001203627Y0000128785D01*
X0001202113Y0000127678D01*
X0001199750Y0000126296D01*
X0001196131Y0000124434D01*
X0001190849Y0000121880D01*
X0001183496Y0000118431D01*
X0001180684Y0000117124D01*
X0001177392Y0000116241D01*
X0001172576Y0000115655D01*
X0001169491Y0000115524D01*
X0001164641Y0000115672D01*
X0001161563Y0000116475D01*
X0001159186Y0000118299D01*
X0001158204Y0000119384D01*
X0001155566Y0000123530D01*
X0001153933Y0000128031D01*
X0001153923Y0000128086D01*
X0001154182Y0000133516D01*
X0001156644Y0000140670D01*
X0001161278Y0000149497D01*
X0001168051Y0000159942D01*
X0001176931Y0000171951D01*
X0001187828Y0000185399D01*
X0001192213Y0000190983D01*
X0001194764Y0000195080D01*
X0001195349Y0000197473D01*
X0001195326Y0000197542D01*
X0001194581Y0000200182D01*
X0001193659Y0000204425D01*
X0001193199Y0000206878D01*
X0001192480Y0000210633D01*
X0001191593Y0000214511D01*
X0001190363Y0000219182D01*
X0001188614Y0000225321D01*
X0001186496Y0000232499D01*
X0001184859Y0000236013D01*
X0001182926Y0000237349D01*
X0001181142Y0000236201D01*
X0001181129Y0000236179D01*
X0001180692Y0000234253D01*
X0001180156Y0000230033D01*
X0001179579Y0000224079D01*
X0001179019Y0000216952D01*
X0001178840Y0000214319D01*
X0001177867Y0000202569D01*
X0001176576Y0000193226D01*
X0001174849Y0000185842D01*
X0001172567Y0000179971D01*
X0001169610Y0000175169D01*
X0001167800Y0000172984D01*
X0001164579Y0000169618D01*
X0001161429Y0000166951D01*
X0001157955Y0000164880D01*
X0001153763Y0000163302D01*
X0001148457Y0000162112D01*
X0001141642Y0000161209D01*
X0001132925Y0000160488D01*
X0001121910Y0000159846D01*
X0001116570Y0000159579D01*
X0001109155Y0000159152D01*
X0001102708Y0000158658D01*
X0001097793Y0000158149D01*
X0001094978Y0000157678D01*
X0001094602Y0000157537D01*
X0001093520Y0000155887D01*
X0001094675Y0000154292D01*
X0001097498Y0000153364D01*
X0001098537Y0000153307D01*
X0001103713Y0000152780D01*
X0001110310Y0000151367D01*
X0001117581Y0000149312D01*
X0001124779Y0000146864D01*
X0001131156Y0000144269D01*
X0001135963Y0000141775D01*
X0001137916Y0000140301D01*
X0001140437Y0000137535D01*
X0001141132Y0000135512D01*
X0001140292Y0000133056D01*
X0001139892Y0000132268D01*
X0001136845Y0000128149D01*
X0001131388Y0000122959D01*
X0001123467Y0000116649D01*
X0001113028Y0000109176D01*
X0001110402Y0000107381D01*
X0001103599Y0000102838D01*
X0001095680Y0000097668D01*
X0001087247Y0000092252D01*
X0001078904Y0000086976D01*
X0001071253Y0000082218D01*
X0001064897Y0000078361D01*
X0001061179Y0000076197D01*
X0001055797Y0000073088D01*
X0001052511Y0000070921D01*
X0001050865Y0000069349D01*
X0001050405Y0000068026D01*
X0001050404Y0000067991D01*
X0001051563Y0000068054D01*
X0001055057Y0000069402D01*
X0001060911Y0000072048D01*
X0001069149Y0000076003D01*
X0001079796Y0000081280D01*
X0001092878Y0000087892D01*
X0001108419Y0000095850D01*
X0001125146Y0000104493D01*
X0001131428Y0000107613D01*
X0001135731Y0000109383D01*
X0001138503Y0000109952D01*
X0001140061Y0000109564D01*
X0001142251Y0000107661D01*
X0001142840Y0000106714D01*
X0001142656Y0000105745D01*
X0001141713Y0000103719D01*
X0001139916Y0000100484D01*
X0001137170Y0000095890D01*
X0001133380Y0000089785D01*
X0001128450Y0000082016D01*
X0001122286Y0000072431D01*
X0001114793Y0000060879D01*
X0001105875Y0000047211D01*
X0001098749Y0000036323D01*
X0001095652Y0000031465D01*
X0001093271Y0000027482D01*
X0001091970Y0000024991D01*
X0001091833Y0000024537D01*
X0001092322Y0000023368D01*
X0001093904Y0000024027D01*
X0001093904Y0000024027D01*
G37*
X0001093904Y0000024027D02*
X0001096747Y0000026656D01*
X0001101021Y0000031396D01*
X0001103391Y0000034178D01*
X0001107449Y0000038984D01*
X0001110913Y0000043063D01*
X0001113305Y0000045854D01*
X0001114029Y0000046678D01*
X0001115373Y0000048258D01*
X0001118215Y0000051669D01*
X0001122244Y0000056533D01*
X0001127145Y0000062471D01*
X0001132536Y0000069021D01*
X0001138665Y0000076386D01*
X0001144904Y0000083725D01*
X0001150748Y0000090451D01*
X0001155690Y0000095984D01*
X0001158524Y0000099021D01*
X0001162793Y0000103394D01*
X0001165633Y0000106008D01*
X0001167589Y0000107167D01*
X0001169210Y0000107174D01*
X0001171042Y0000106332D01*
X0001171373Y0000106149D01*
X0001175209Y0000103098D01*
X0001178255Y0000098434D01*
X0001180728Y0000091722D01*
X0001182561Y0000084000D01*
X0001184416Y0000074797D01*
X0001185828Y0000068025D01*
X0001186905Y0000063311D01*
X0001187758Y0000060284D01*
X0001188497Y0000058571D01*
X0001189230Y0000057800D01*
X0001190069Y0000057597D01*
X0001190346Y0000057592D01*
X0001191458Y0000058069D01*
X0001192345Y0000059797D01*
X0001193125Y0000063227D01*
X0001193915Y0000068808D01*
X0001194404Y0000073015D01*
X0001195125Y0000080018D01*
X0001195699Y0000086573D01*
X0001196053Y0000091784D01*
X0001196130Y0000094087D01*
X0001196830Y0000100332D01*
X0001198684Y0000107879D01*
X0001201349Y0000115592D01*
X0001204485Y0000122338D01*
X0001204795Y0000122887D01*
X0001206737Y0000126981D01*
X0001207136Y0000129541D01*
X0001206060Y0000130237D01*
X0001203627Y0000128785D01*
X0001202113Y0000127678D01*
X0001199750Y0000126296D01*
X0001196131Y0000124434D01*
X0001190849Y0000121880D01*
X0001183496Y0000118431D01*
X0001180684Y0000117124D01*
X0001177392Y0000116241D01*
X0001172576Y0000115655D01*
X0001169491Y0000115524D01*
X0001164641Y0000115672D01*
X0001161563Y0000116475D01*
X0001159186Y0000118299D01*
X0001158204Y0000119384D01*
X0001155566Y0000123530D01*
X0001153933Y0000128031D01*
X0001153923Y0000128086D01*
X0001154182Y0000133516D01*
X0001156644Y0000140670D01*
X0001161278Y0000149497D01*
X0001168051Y0000159942D01*
X0001176931Y0000171951D01*
X0001187828Y0000185399D01*
X0001192213Y0000190983D01*
X0001194764Y0000195080D01*
X0001195349Y0000197473D01*
X0001195326Y0000197542D01*
X0001194581Y0000200182D01*
X0001193659Y0000204425D01*
X0001193199Y0000206878D01*
X0001192480Y0000210633D01*
X0001191593Y0000214511D01*
X0001190363Y0000219182D01*
X0001188614Y0000225321D01*
X0001186496Y0000232499D01*
X0001184859Y0000236013D01*
X0001182926Y0000237349D01*
X0001181142Y0000236201D01*
X0001181129Y0000236179D01*
X0001180692Y0000234253D01*
X0001180156Y0000230033D01*
X0001179579Y0000224079D01*
X0001179019Y0000216952D01*
X0001178840Y0000214319D01*
X0001177867Y0000202569D01*
X0001176576Y0000193226D01*
X0001174849Y0000185842D01*
X0001172567Y0000179971D01*
X0001169610Y0000175169D01*
X0001167800Y0000172984D01*
X0001164579Y0000169618D01*
X0001161429Y0000166951D01*
X0001157955Y0000164880D01*
X0001153763Y0000163302D01*
X0001148457Y0000162112D01*
X0001141642Y0000161209D01*
X0001132925Y0000160488D01*
X0001121910Y0000159846D01*
X0001116570Y0000159579D01*
X0001109155Y0000159152D01*
X0001102708Y0000158658D01*
X0001097793Y0000158149D01*
X0001094978Y0000157678D01*
X0001094602Y0000157537D01*
X0001093520Y0000155887D01*
X0001094675Y0000154292D01*
X0001097498Y0000153364D01*
X0001098537Y0000153307D01*
X0001103713Y0000152780D01*
X0001110310Y0000151367D01*
X0001117581Y0000149312D01*
X0001124779Y0000146864D01*
X0001131156Y0000144269D01*
X0001135963Y0000141775D01*
X0001137916Y0000140301D01*
X0001140437Y0000137535D01*
X0001141132Y0000135512D01*
X0001140292Y0000133056D01*
X0001139892Y0000132268D01*
X0001136845Y0000128149D01*
X0001131388Y0000122959D01*
X0001123467Y0000116649D01*
X0001113028Y0000109176D01*
X0001110402Y0000107381D01*
X0001103599Y0000102838D01*
X0001095680Y0000097668D01*
X0001087247Y0000092252D01*
X0001078904Y0000086976D01*
X0001071253Y0000082218D01*
X0001064897Y0000078361D01*
X0001061179Y0000076197D01*
X0001055797Y0000073088D01*
X0001052511Y0000070921D01*
X0001050865Y0000069349D01*
X0001050405Y0000068026D01*
X0001050404Y0000067991D01*
X0001051563Y0000068054D01*
X0001055057Y0000069402D01*
X0001060911Y0000072048D01*
X0001069149Y0000076003D01*
X0001079796Y0000081280D01*
X0001092878Y0000087892D01*
X0001108419Y0000095850D01*
X0001125146Y0000104493D01*
X0001131428Y0000107613D01*
X0001135731Y0000109383D01*
X0001138503Y0000109952D01*
X0001140061Y0000109564D01*
X0001142251Y0000107661D01*
X0001142840Y0000106714D01*
X0001142656Y0000105745D01*
X0001141713Y0000103719D01*
X0001139916Y0000100484D01*
X0001137170Y0000095890D01*
X0001133380Y0000089785D01*
X0001128450Y0000082016D01*
X0001122286Y0000072431D01*
X0001114793Y0000060879D01*
X0001105875Y0000047211D01*
X0001098749Y0000036323D01*
X0001095652Y0000031465D01*
X0001093271Y0000027482D01*
X0001091970Y0000024991D01*
X0001091833Y0000024537D01*
X0001092322Y0000023368D01*
X0001093904Y0000024027D01*
G36*
X0001238219Y0000176514D02*
X0001242469Y0000178251D01*
X0001248951Y0000181549D01*
X0001250052Y0000182142D01*
X0001256689Y0000185879D01*
X0001264128Y0000190317D01*
X0001271994Y0000195207D01*
X0001279909Y0000200294D01*
X0001287498Y0000205327D01*
X0001294385Y0000210055D01*
X0001300193Y0000214223D01*
X0001304546Y0000217583D01*
X0001307068Y0000219880D01*
X0001307547Y0000220672D01*
X0001307154Y0000221522D01*
X0001305760Y0000221560D01*
X0001303044Y0000220665D01*
X0001298687Y0000218714D01*
X0001292367Y0000215584D01*
X0001286833Y0000212743D01*
X0001274172Y0000206090D01*
X0001263843Y0000200411D01*
X0001255567Y0000195523D01*
X0001249062Y0000191243D01*
X0001244050Y0000187387D01*
X0001240251Y0000183773D01*
X0001237589Y0000180507D01*
X0001235908Y0000177659D01*
X0001236075Y0000176322D01*
X0001238219Y0000176514D01*
X0001238219Y0000176514D01*
G37*
X0001238219Y0000176514D02*
X0001242469Y0000178251D01*
X0001248951Y0000181549D01*
X0001250052Y0000182142D01*
X0001256689Y0000185879D01*
X0001264128Y0000190317D01*
X0001271994Y0000195207D01*
X0001279909Y0000200294D01*
X0001287498Y0000205327D01*
X0001294385Y0000210055D01*
X0001300193Y0000214223D01*
X0001304546Y0000217583D01*
X0001307068Y0000219880D01*
X0001307547Y0000220672D01*
X0001307154Y0000221522D01*
X0001305760Y0000221560D01*
X0001303044Y0000220665D01*
X0001298687Y0000218714D01*
X0001292367Y0000215584D01*
X0001286833Y0000212743D01*
X0001274172Y0000206090D01*
X0001263843Y0000200411D01*
X0001255567Y0000195523D01*
X0001249062Y0000191243D01*
X0001244050Y0000187387D01*
X0001240251Y0000183773D01*
X0001237589Y0000180507D01*
X0001235908Y0000177659D01*
X0001236075Y0000176322D01*
X0001238219Y0000176514D01*
G36*
X0001214178Y0000132425D02*
X0001217029Y0000132846D01*
X0001222107Y0000133366D01*
X0001228786Y0000133931D01*
X0001236440Y0000134485D01*
X0001239690Y0000134694D01*
X0001252687Y0000135535D01*
X0001263041Y0000136288D01*
X0001270964Y0000136975D01*
X0001276674Y0000137618D01*
X0001280378Y0000138240D01*
X0001282292Y0000138861D01*
X0001282626Y0000139149D01*
X0001281979Y0000140275D01*
X0001279391Y0000141260D01*
X0001275066Y0000142344D01*
X0001269440Y0000143907D01*
X0001263275Y0000145720D01*
X0001257333Y0000147552D01*
X0001252372Y0000149171D01*
X0001249154Y0000150347D01*
X0001248600Y0000150600D01*
X0001245857Y0000151462D01*
X0001241372Y0000152316D01*
X0001237457Y0000152827D01*
X0001228832Y0000153729D01*
X0001221195Y0000145844D01*
X0001217240Y0000141575D01*
X0001213934Y0000137670D01*
X0001211933Y0000134912D01*
X0001211826Y0000134723D01*
X0001210830Y0000132498D01*
X0001211637Y0000131945D01*
X0001214178Y0000132425D01*
X0001214178Y0000132425D01*
G37*
X0001214178Y0000132425D02*
X0001217029Y0000132846D01*
X0001222107Y0000133366D01*
X0001228786Y0000133931D01*
X0001236440Y0000134485D01*
X0001239690Y0000134694D01*
X0001252687Y0000135535D01*
X0001263041Y0000136288D01*
X0001270964Y0000136975D01*
X0001276674Y0000137618D01*
X0001280378Y0000138240D01*
X0001282292Y0000138861D01*
X0001282626Y0000139149D01*
X0001281979Y0000140275D01*
X0001279391Y0000141260D01*
X0001275066Y0000142344D01*
X0001269440Y0000143907D01*
X0001263275Y0000145720D01*
X0001257333Y0000147552D01*
X0001252372Y0000149171D01*
X0001249154Y0000150347D01*
X0001248600Y0000150600D01*
X0001245857Y0000151462D01*
X0001241372Y0000152316D01*
X0001237457Y0000152827D01*
X0001228832Y0000153729D01*
X0001221195Y0000145844D01*
X0001217240Y0000141575D01*
X0001213934Y0000137670D01*
X0001211933Y0000134912D01*
X0001211826Y0000134723D01*
X0001210830Y0000132498D01*
X0001211637Y0000131945D01*
X0001214178Y0000132425D01*
G04 next file*
%LPD*%
G04 #@! TF.GenerationSoftware,KiCad,Pcbnew,(2017-06-07 revision 51bed4bae)-makepkg*
G04 #@! TF.CreationDate,2017-06-11T00:06:54+02:00*
G04 #@! TF.ProjectId,Front_Panel_76x35_4conn,46726F6E745F50616E656C5F37367833,rev?*
G04 #@! TF.FileFunction,Legend,Bot*
G04 #@! TF.FilePolarity,Positive*
G04 Gerber Fmt 4.6, Leading zero omitted, Abs format (unit mm)*
G04 Created by KiCad (PCBNEW (2017-06-07 revision 51bed4bae)-makepkg) date 06/11/17 00:06:54*
G01*
G04 APERTURE LIST*
G04 APERTURE END LIST*
D47*
D48*
X0001262204Y0002481496D02*
X0000455118Y0002481496D01*
X0001338976Y0002088976D02*
X0001338976Y0002398794D01*
D49*
X0001158155Y0001973059D02*
X0001181777Y0002006805D01*
X0001198650Y0001973059D02*
X0001198650Y0002043925D01*
X0001171653Y0002043925D01*
X0001164904Y0002040550D01*
X0001161529Y0002037176D01*
X0001158155Y0002030427D01*
X0001158155Y0002020303D01*
X0001161529Y0002013554D01*
X0001164904Y0002010180D01*
X0001171653Y0002006805D01*
X0001198650Y0002006805D01*
X0001134533Y0002043925D02*
X0001087289Y0001973059D01*
X0001087289Y0002043925D02*
X0001134533Y0001973059D01*
X0001023172Y0001973059D02*
X0001063667Y0001973059D01*
X0001043419Y0001973059D02*
X0001043419Y0002043925D01*
X0001050168Y0002033802D01*
X0001056917Y0002027051D01*
X0001063667Y0002023677D01*
D48*
X0001338976Y0002089763D02*
G75*
G02X0001256275Y0002009055I-0000080732D01*
G01*
X0001258267Y0002481496D02*
G75*
G02X0001338976Y0002398794J-0000080732D01*
G01*
X0000962992Y0002009055D02*
X0000754329Y0002009055D01*
X0000372023Y0002400787D02*
G75*
G02X0000454724Y0002481496I0000080732D01*
G01*
X0000372047Y0002399212D02*
X0000374015Y0002092149D01*
X0000454724Y0002009448D02*
G75*
G02X0000374015Y0002092149J0000080732D01*
G01*
D49*
X0000646344Y0001972473D02*
X0000669966Y0002006219D01*
X0000686839Y0001972473D02*
X0000686839Y0002043339D01*
X0000659842Y0002043339D01*
X0000653092Y0002039964D01*
X0000649718Y0002036590D01*
X0000646344Y0002029840D01*
X0000646344Y0002019717D01*
X0000649718Y0002012967D01*
X0000653092Y0002009593D01*
X0000659842Y0002006219D01*
X0000686839Y0002006219D01*
X0000622722Y0002043339D02*
X0000575478Y0001972473D01*
X0000575478Y0002043339D02*
X0000622722Y0001972473D01*
X0000551855Y0002036590D02*
X0000548481Y0002039964D01*
X0000541732Y0002043339D01*
X0000524859Y0002043339D01*
X0000518109Y0002039964D01*
X0000514735Y0002036590D01*
X0000511360Y0002029840D01*
X0000511360Y0002023092D01*
X0000514735Y0002012967D01*
X0000555230Y0001972473D01*
X0000511360Y0001972473D01*
D48*
X0001671235Y0002400787D02*
G75*
G02X0001753937Y0002481496I0000080732D01*
G01*
X0001671259Y0002399212D02*
X0001673228Y0002092149D01*
X0001753937Y0002009448D02*
G75*
G02X0001673228Y0002092149J0000080732D01*
G01*
D49*
X0001987739Y0002043339D02*
X0001947244Y0002043339D01*
X0001967491Y0001972473D02*
X0001967491Y0002043339D01*
X0001930371Y0002043339D02*
X0001883127Y0001972473D01*
X0001883127Y0002043339D02*
X0001930371Y0001972473D01*
X0001859505Y0002036590D02*
X0001856130Y0002039964D01*
X0001849381Y0002043339D01*
X0001832508Y0002043339D01*
X0001825759Y0002039964D01*
X0001822384Y0002036590D01*
X0001819009Y0002029840D01*
X0001819009Y0002023092D01*
X0001822384Y0002012967D01*
X0001862879Y0001972473D01*
X0001819009Y0001972473D01*
X0002499550Y0002043925D02*
X0002459055Y0002043925D01*
X0002479302Y0001973059D02*
X0002479302Y0002043925D01*
X0002442182Y0002043925D02*
X0002394938Y0001973059D01*
X0002394938Y0002043925D02*
X0002442182Y0001973059D01*
X0002330821Y0001973059D02*
X0002371316Y0001973059D01*
X0002351068Y0001973059D02*
X0002351068Y0002043925D01*
X0002357817Y0002033802D01*
X0002364566Y0002027051D01*
X0002371316Y0002023677D01*
D48*
X0002262204Y0002009055D02*
X0002053543Y0002009055D01*
X0002561416Y0002481496D02*
X0001754330Y0002481496D01*
X0002557480Y0002481496D02*
G75*
G02X0002638188Y0002398794J-0000080732D01*
G01*
X0002638188Y0002088976D02*
X0002638188Y0002398794D01*
X0002638188Y0002089763D02*
G75*
G02X0002555487Y0002009055I-0000080732D01*
G01*
%LPC*%
D50*
X0002910629Y0002707874D02*
G75*
G03X0002910629Y0002707874I-0000070866D01*
G01*
X0002909841Y0001641732D02*
G75*
G03X0002909841Y0001641732I-0000070866D01*
G01*
X0000233070Y0001642912D02*
G75*
G03X0000233070Y0001642912I-0000070866D01*
G01*
X0000233464Y0002707480D02*
G75*
G03X0000233464Y0002707480I-0000070866D01*
G01*
D51*
X0000938976Y0001568841D02*
X0000989595Y0001568841D01*
X0000989595Y0001675140D01*
X0000903543Y0001568841D02*
X0000903543Y0001639707D01*
X0000903543Y0001675140D02*
X0000908605Y0001670078D01*
X0000903543Y0001665016D01*
X0000898481Y0001670078D01*
X0000903543Y0001675140D01*
X0000903543Y0001665016D01*
X0000852924Y0001568841D02*
X0000852924Y0001639707D01*
X0000852924Y0001629583D02*
X0000847862Y0001634645D01*
X0000837739Y0001639707D01*
X0000822553Y0001639707D01*
X0000812429Y0001634645D01*
X0000807367Y0001624521D01*
X0000807367Y0001568841D01*
X0000807367Y0001624521D02*
X0000802305Y0001634645D01*
X0000792182Y0001639707D01*
X0000776996Y0001639707D01*
X0000766872Y0001634645D01*
X0000761811Y0001624521D01*
X0000761811Y0001568841D01*
X0000670697Y0001573903D02*
X0000680821Y0001568841D01*
X0000701068Y0001568841D01*
X0000711192Y0001573903D01*
X0000716254Y0001584027D01*
X0000716254Y0001624521D01*
X0000711192Y0001634645D01*
X0000701068Y0001639707D01*
X0000680821Y0001639707D01*
X0000670697Y0001634645D01*
X0000665635Y0001624521D01*
X0000665635Y0001614398D01*
X0000716254Y0001604274D01*
X0000625140Y0001573903D02*
X0000609955Y0001568841D01*
X0000584645Y0001568841D01*
X0000574521Y0001573903D01*
X0000569460Y0001578965D01*
X0000564398Y0001589088D01*
X0000564398Y0001599212D01*
X0000569460Y0001609336D01*
X0000574521Y0001614398D01*
X0000584645Y0001619460D01*
X0000604893Y0001624521D01*
X0000615016Y0001629583D01*
X0000620078Y0001634645D01*
X0000625140Y0001644769D01*
X0000625140Y0001654893D01*
X0000620078Y0001665016D01*
X0000615016Y0001670078D01*
X0000604893Y0001675140D01*
X0000579583Y0001675140D01*
X0000564398Y0001670078D01*
X0000518841Y0001568841D02*
X0000518841Y0001675140D01*
X0000493532Y0001675140D01*
X0000478346Y0001670078D01*
X0000468222Y0001659955D01*
X0000463159Y0001649831D01*
X0000458098Y0001629583D01*
X0000458098Y0001614398D01*
X0000463159Y0001594150D01*
X0000468222Y0001584027D01*
X0000478346Y0001573903D01*
X0000493532Y0001568841D01*
X0000518841Y0001568841D01*
X0000351798Y0001568841D02*
X0000387232Y0001619460D01*
X0000412542Y0001568841D02*
X0000412542Y0001675140D01*
X0000372047Y0001675140D01*
X0000361923Y0001670078D01*
X0000356861Y0001665016D01*
X0000351798Y0001654893D01*
X0000351798Y0001639707D01*
X0000356861Y0001629583D01*
X0000361923Y0001624521D01*
X0000372047Y0001619460D01*
X0000412542Y0001619460D01*
D52*
X0001217322Y0002253149D02*
G75*
G03X0001217322Y0002253149I-0000104724D01*
G01*
D53*
X0001227952Y0002325590D02*
X0001227952Y0002180314D01*
D54*
X0001263385Y0002253149D02*
G75*
G03X0001263385Y0002253149I-0000150787D01*
G01*
D52*
X0000705511Y0002253149D02*
G75*
G03X0000705511Y0002253149I-0000104724D01*
G01*
D53*
X0000716141Y0002325590D02*
X0000716141Y0002180314D01*
D54*
X0000751574Y0002253149D02*
G75*
G03X0000751574Y0002253149I-0000150787D01*
G01*
D52*
X0002516535Y0002253149D02*
G75*
G03X0002516535Y0002253149I-0000104724D01*
G01*
D53*
X0002527164Y0002325590D02*
X0002527164Y0002180314D01*
D54*
X0002562598Y0002253149D02*
G75*
G03X0002562598Y0002253149I-0000150787D01*
G01*
D52*
X0002004724Y0002253149D02*
G75*
G03X0002004724Y0002253149I-0000104724D01*
G01*
D53*
X0002015353Y0002325590D02*
X0002015353Y0002180314D01*
D54*
X0002050787Y0002253149D02*
G75*
G03X0002050787Y0002253149I-0000150787D01*
G01*
D55*
G36*
X0001232124Y0001690873D02*
X0001233563Y0001691325D01*
X0001235162Y0001692398D01*
X0001237148Y0001694355D01*
X0001239748Y0001697458D01*
X0001243189Y0001701970D01*
X0001247698Y0001708153D01*
X0001253504Y0001716270D01*
X0001257219Y0001721496D01*
X0001263050Y0001729740D01*
X0001268299Y0001737228D01*
X0001272746Y0001743645D01*
X0001276175Y0001748672D01*
X0001278366Y0001751994D01*
X0001279103Y0001753281D01*
X0001278465Y0001754370D01*
X0001276265Y0001753174D01*
X0001272472Y0001749672D01*
X0001269731Y0001746794D01*
X0001262873Y0001739349D01*
X0001257390Y0001733298D01*
X0001252697Y0001727960D01*
X0001248203Y0001722656D01*
X0001243321Y0001716706D01*
X0001238001Y0001710098D01*
X0001233398Y0001704222D01*
X0001229567Y0001699075D01*
X0001226812Y0001695085D01*
X0001225437Y0001692683D01*
X0001225347Y0001692242D01*
X0001226956Y0001691250D01*
X0001230227Y0001690786D01*
X0001230617Y0001690781D01*
X0001232124Y0001690873D01*
X0001232124Y0001690873D01*
G37*
X0001232124Y0001690873D02*
X0001233563Y0001691325D01*
X0001235162Y0001692398D01*
X0001237148Y0001694355D01*
X0001239748Y0001697458D01*
X0001243189Y0001701970D01*
X0001247698Y0001708153D01*
X0001253504Y0001716270D01*
X0001257219Y0001721496D01*
X0001263050Y0001729740D01*
X0001268299Y0001737228D01*
X0001272746Y0001743645D01*
X0001276175Y0001748672D01*
X0001278366Y0001751994D01*
X0001279103Y0001753281D01*
X0001278465Y0001754370D01*
X0001276265Y0001753174D01*
X0001272472Y0001749672D01*
X0001269731Y0001746794D01*
X0001262873Y0001739349D01*
X0001257390Y0001733298D01*
X0001252697Y0001727960D01*
X0001248203Y0001722656D01*
X0001243321Y0001716706D01*
X0001238001Y0001710098D01*
X0001233398Y0001704222D01*
X0001229567Y0001699075D01*
X0001226812Y0001695085D01*
X0001225437Y0001692683D01*
X0001225347Y0001692242D01*
X0001226956Y0001691250D01*
X0001230227Y0001690786D01*
X0001230617Y0001690781D01*
X0001232124Y0001690873D01*
G36*
X0001099809Y0001512216D02*
X0001102652Y0001514845D01*
X0001106926Y0001519584D01*
X0001109297Y0001522367D01*
X0001113354Y0001527173D01*
X0001116818Y0001531252D01*
X0001119211Y0001534043D01*
X0001119934Y0001534867D01*
X0001121278Y0001536447D01*
X0001124121Y0001539858D01*
X0001128149Y0001544721D01*
X0001133050Y0001550660D01*
X0001138441Y0001557210D01*
X0001144570Y0001564574D01*
X0001150810Y0001571914D01*
X0001156654Y0001578641D01*
X0001161595Y0001584172D01*
X0001164429Y0001587210D01*
X0001168699Y0001591583D01*
X0001171538Y0001594197D01*
X0001173495Y0001595356D01*
X0001175116Y0001595363D01*
X0001176948Y0001594521D01*
X0001177279Y0001594338D01*
X0001181115Y0001591287D01*
X0001184160Y0001586623D01*
X0001186634Y0001579911D01*
X0001188467Y0001572189D01*
X0001190322Y0001562986D01*
X0001191733Y0001556214D01*
X0001192811Y0001551501D01*
X0001193664Y0001548473D01*
X0001194402Y0001546760D01*
X0001195136Y0001545988D01*
X0001195975Y0001545787D01*
X0001196252Y0001545781D01*
X0001197364Y0001546258D01*
X0001198251Y0001547986D01*
X0001199030Y0001551416D01*
X0001199821Y0001556997D01*
X0001200309Y0001561204D01*
X0001201031Y0001568207D01*
X0001201605Y0001574762D01*
X0001201958Y0001579974D01*
X0001202035Y0001582276D01*
X0001202736Y0001588522D01*
X0001204589Y0001596068D01*
X0001207255Y0001603781D01*
X0001210391Y0001610527D01*
X0001210701Y0001611076D01*
X0001212642Y0001615170D01*
X0001213042Y0001617731D01*
X0001211966Y0001618427D01*
X0001209533Y0001616974D01*
X0001208018Y0001615867D01*
X0001205655Y0001614486D01*
X0001202037Y0001612623D01*
X0001196754Y0001610069D01*
X0001189401Y0001606620D01*
X0001186589Y0001605313D01*
X0001183297Y0001604430D01*
X0001178482Y0001603844D01*
X0001175397Y0001603713D01*
X0001170546Y0001603861D01*
X0001167468Y0001604664D01*
X0001165092Y0001606488D01*
X0001164110Y0001607573D01*
X0001161471Y0001611719D01*
X0001159839Y0001616219D01*
X0001159828Y0001616275D01*
X0001160087Y0001621704D01*
X0001162550Y0001628859D01*
X0001167183Y0001637686D01*
X0001173956Y0001648131D01*
X0001182837Y0001660140D01*
X0001193734Y0001673588D01*
X0001198118Y0001679172D01*
X0001200670Y0001683269D01*
X0001201255Y0001685663D01*
X0001201231Y0001685731D01*
X0001200486Y0001688371D01*
X0001199564Y0001692614D01*
X0001199104Y0001695067D01*
X0001198385Y0001698821D01*
X0001197499Y0001702699D01*
X0001196268Y0001707371D01*
X0001194519Y0001713510D01*
X0001192401Y0001720688D01*
X0001190765Y0001724202D01*
X0001188831Y0001725538D01*
X0001187047Y0001724390D01*
X0001187034Y0001724369D01*
X0001186598Y0001722442D01*
X0001186062Y0001718222D01*
X0001185484Y0001712268D01*
X0001184924Y0001705141D01*
X0001184745Y0001702508D01*
X0001183772Y0001690759D01*
X0001182482Y0001681415D01*
X0001180755Y0001674031D01*
X0001178472Y0001668159D01*
X0001175515Y0001663358D01*
X0001173705Y0001661173D01*
X0001170485Y0001657806D01*
X0001167335Y0001655140D01*
X0001163861Y0001653069D01*
X0001159668Y0001651491D01*
X0001154362Y0001650301D01*
X0001147548Y0001649398D01*
X0001138830Y0001648677D01*
X0001127815Y0001648035D01*
X0001122476Y0001647768D01*
X0001115061Y0001647341D01*
X0001108613Y0001646847D01*
X0001103699Y0001646338D01*
X0001100883Y0001645867D01*
X0001100507Y0001645726D01*
X0001099426Y0001644076D01*
X0001100581Y0001642481D01*
X0001103404Y0001641553D01*
X0001104443Y0001641496D01*
X0001109618Y0001640969D01*
X0001116215Y0001639556D01*
X0001123487Y0001637501D01*
X0001130685Y0001635052D01*
X0001137061Y0001632458D01*
X0001141869Y0001629964D01*
X0001143821Y0001628490D01*
X0001146342Y0001625724D01*
X0001147037Y0001623701D01*
X0001146197Y0001621245D01*
X0001145797Y0001620457D01*
X0001142750Y0001616339D01*
X0001137293Y0001611148D01*
X0001129372Y0001604838D01*
X0001118933Y0001597365D01*
X0001116308Y0001595570D01*
X0001109505Y0001591027D01*
X0001101585Y0001585857D01*
X0001093153Y0001580442D01*
X0001084809Y0001575165D01*
X0001077158Y0001570407D01*
X0001070803Y0001566550D01*
X0001067084Y0001564386D01*
X0001061703Y0001561277D01*
X0001058417Y0001559110D01*
X0001056771Y0001557538D01*
X0001056310Y0001556215D01*
X0001056310Y0001556180D01*
X0001057469Y0001556243D01*
X0001060963Y0001557591D01*
X0001066816Y0001560237D01*
X0001075054Y0001564192D01*
X0001085701Y0001569470D01*
X0001098783Y0001576081D01*
X0001114324Y0001584039D01*
X0001131051Y0001592682D01*
X0001137334Y0001595803D01*
X0001141636Y0001597571D01*
X0001144409Y0001598141D01*
X0001145966Y0001597753D01*
X0001148157Y0001595849D01*
X0001148745Y0001594904D01*
X0001148562Y0001593934D01*
X0001147619Y0001591908D01*
X0001145822Y0001588673D01*
X0001143076Y0001584079D01*
X0001139286Y0001577973D01*
X0001134356Y0001570205D01*
X0001128192Y0001560620D01*
X0001120698Y0001549069D01*
X0001111780Y0001535400D01*
X0001104654Y0001524512D01*
X0001101557Y0001519654D01*
X0001099177Y0001515671D01*
X0001097876Y0001513180D01*
X0001097739Y0001512726D01*
X0001098228Y0001511557D01*
X0001099809Y0001512216D01*
X0001099809Y0001512216D01*
G37*
X0001099809Y0001512216D02*
X0001102652Y0001514845D01*
X0001106926Y0001519584D01*
X0001109297Y0001522367D01*
X0001113354Y0001527173D01*
X0001116818Y0001531252D01*
X0001119211Y0001534043D01*
X0001119934Y0001534867D01*
X0001121278Y0001536447D01*
X0001124121Y0001539858D01*
X0001128149Y0001544721D01*
X0001133050Y0001550660D01*
X0001138441Y0001557210D01*
X0001144570Y0001564574D01*
X0001150810Y0001571914D01*
X0001156654Y0001578641D01*
X0001161595Y0001584172D01*
X0001164429Y0001587210D01*
X0001168699Y0001591583D01*
X0001171538Y0001594197D01*
X0001173495Y0001595356D01*
X0001175116Y0001595363D01*
X0001176948Y0001594521D01*
X0001177279Y0001594338D01*
X0001181115Y0001591287D01*
X0001184160Y0001586623D01*
X0001186634Y0001579911D01*
X0001188467Y0001572189D01*
X0001190322Y0001562986D01*
X0001191733Y0001556214D01*
X0001192811Y0001551501D01*
X0001193664Y0001548473D01*
X0001194402Y0001546760D01*
X0001195136Y0001545988D01*
X0001195975Y0001545787D01*
X0001196252Y0001545781D01*
X0001197364Y0001546258D01*
X0001198251Y0001547986D01*
X0001199030Y0001551416D01*
X0001199821Y0001556997D01*
X0001200309Y0001561204D01*
X0001201031Y0001568207D01*
X0001201605Y0001574762D01*
X0001201958Y0001579974D01*
X0001202035Y0001582276D01*
X0001202736Y0001588522D01*
X0001204589Y0001596068D01*
X0001207255Y0001603781D01*
X0001210391Y0001610527D01*
X0001210701Y0001611076D01*
X0001212642Y0001615170D01*
X0001213042Y0001617731D01*
X0001211966Y0001618427D01*
X0001209533Y0001616974D01*
X0001208018Y0001615867D01*
X0001205655Y0001614486D01*
X0001202037Y0001612623D01*
X0001196754Y0001610069D01*
X0001189401Y0001606620D01*
X0001186589Y0001605313D01*
X0001183297Y0001604430D01*
X0001178482Y0001603844D01*
X0001175397Y0001603713D01*
X0001170546Y0001603861D01*
X0001167468Y0001604664D01*
X0001165092Y0001606488D01*
X0001164110Y0001607573D01*
X0001161471Y0001611719D01*
X0001159839Y0001616219D01*
X0001159828Y0001616275D01*
X0001160087Y0001621704D01*
X0001162550Y0001628859D01*
X0001167183Y0001637686D01*
X0001173956Y0001648131D01*
X0001182837Y0001660140D01*
X0001193734Y0001673588D01*
X0001198118Y0001679172D01*
X0001200670Y0001683269D01*
X0001201255Y0001685663D01*
X0001201231Y0001685731D01*
X0001200486Y0001688371D01*
X0001199564Y0001692614D01*
X0001199104Y0001695067D01*
X0001198385Y0001698821D01*
X0001197499Y0001702699D01*
X0001196268Y0001707371D01*
X0001194519Y0001713510D01*
X0001192401Y0001720688D01*
X0001190765Y0001724202D01*
X0001188831Y0001725538D01*
X0001187047Y0001724390D01*
X0001187034Y0001724369D01*
X0001186598Y0001722442D01*
X0001186062Y0001718222D01*
X0001185484Y0001712268D01*
X0001184924Y0001705141D01*
X0001184745Y0001702508D01*
X0001183772Y0001690759D01*
X0001182482Y0001681415D01*
X0001180755Y0001674031D01*
X0001178472Y0001668159D01*
X0001175515Y0001663358D01*
X0001173705Y0001661173D01*
X0001170485Y0001657806D01*
X0001167335Y0001655140D01*
X0001163861Y0001653069D01*
X0001159668Y0001651491D01*
X0001154362Y0001650301D01*
X0001147548Y0001649398D01*
X0001138830Y0001648677D01*
X0001127815Y0001648035D01*
X0001122476Y0001647768D01*
X0001115061Y0001647341D01*
X0001108613Y0001646847D01*
X0001103699Y0001646338D01*
X0001100883Y0001645867D01*
X0001100507Y0001645726D01*
X0001099426Y0001644076D01*
X0001100581Y0001642481D01*
X0001103404Y0001641553D01*
X0001104443Y0001641496D01*
X0001109618Y0001640969D01*
X0001116215Y0001639556D01*
X0001123487Y0001637501D01*
X0001130685Y0001635052D01*
X0001137061Y0001632458D01*
X0001141869Y0001629964D01*
X0001143821Y0001628490D01*
X0001146342Y0001625724D01*
X0001147037Y0001623701D01*
X0001146197Y0001621245D01*
X0001145797Y0001620457D01*
X0001142750Y0001616339D01*
X0001137293Y0001611148D01*
X0001129372Y0001604838D01*
X0001118933Y0001597365D01*
X0001116308Y0001595570D01*
X0001109505Y0001591027D01*
X0001101585Y0001585857D01*
X0001093153Y0001580442D01*
X0001084809Y0001575165D01*
X0001077158Y0001570407D01*
X0001070803Y0001566550D01*
X0001067084Y0001564386D01*
X0001061703Y0001561277D01*
X0001058417Y0001559110D01*
X0001056771Y0001557538D01*
X0001056310Y0001556215D01*
X0001056310Y0001556180D01*
X0001057469Y0001556243D01*
X0001060963Y0001557591D01*
X0001066816Y0001560237D01*
X0001075054Y0001564192D01*
X0001085701Y0001569470D01*
X0001098783Y0001576081D01*
X0001114324Y0001584039D01*
X0001131051Y0001592682D01*
X0001137334Y0001595803D01*
X0001141636Y0001597571D01*
X0001144409Y0001598141D01*
X0001145966Y0001597753D01*
X0001148157Y0001595849D01*
X0001148745Y0001594904D01*
X0001148562Y0001593934D01*
X0001147619Y0001591908D01*
X0001145822Y0001588673D01*
X0001143076Y0001584079D01*
X0001139286Y0001577973D01*
X0001134356Y0001570205D01*
X0001128192Y0001560620D01*
X0001120698Y0001549069D01*
X0001111780Y0001535400D01*
X0001104654Y0001524512D01*
X0001101557Y0001519654D01*
X0001099177Y0001515671D01*
X0001097876Y0001513180D01*
X0001097739Y0001512726D01*
X0001098228Y0001511557D01*
X0001099809Y0001512216D01*
G36*
X0001244125Y0001664703D02*
X0001248374Y0001666440D01*
X0001254857Y0001669739D01*
X0001255958Y0001670331D01*
X0001262594Y0001674068D01*
X0001270034Y0001678506D01*
X0001277899Y0001683396D01*
X0001285815Y0001688482D01*
X0001293404Y0001693516D01*
X0001300291Y0001698244D01*
X0001306099Y0001702413D01*
X0001310452Y0001705772D01*
X0001312974Y0001708068D01*
X0001313453Y0001708861D01*
X0001313059Y0001709711D01*
X0001311665Y0001709749D01*
X0001308950Y0001708854D01*
X0001304593Y0001706903D01*
X0001298273Y0001703773D01*
X0001292738Y0001700932D01*
X0001280077Y0001694279D01*
X0001269749Y0001688600D01*
X0001261471Y0001683712D01*
X0001254968Y0001679432D01*
X0001249956Y0001675576D01*
X0001246156Y0001671962D01*
X0001243495Y0001668697D01*
X0001241813Y0001665848D01*
X0001241981Y0001664511D01*
X0001244125Y0001664703D01*
X0001244125Y0001664703D01*
G37*
X0001244125Y0001664703D02*
X0001248374Y0001666440D01*
X0001254857Y0001669739D01*
X0001255958Y0001670331D01*
X0001262594Y0001674068D01*
X0001270034Y0001678506D01*
X0001277899Y0001683396D01*
X0001285815Y0001688482D01*
X0001293404Y0001693516D01*
X0001300291Y0001698244D01*
X0001306099Y0001702413D01*
X0001310452Y0001705772D01*
X0001312974Y0001708068D01*
X0001313453Y0001708861D01*
X0001313059Y0001709711D01*
X0001311665Y0001709749D01*
X0001308950Y0001708854D01*
X0001304593Y0001706903D01*
X0001298273Y0001703773D01*
X0001292738Y0001700932D01*
X0001280077Y0001694279D01*
X0001269749Y0001688600D01*
X0001261471Y0001683712D01*
X0001254968Y0001679432D01*
X0001249956Y0001675576D01*
X0001246156Y0001671962D01*
X0001243495Y0001668697D01*
X0001241813Y0001665848D01*
X0001241981Y0001664511D01*
X0001244125Y0001664703D01*
G36*
X0001220083Y0001620614D02*
X0001222934Y0001621034D01*
X0001228012Y0001621555D01*
X0001234691Y0001622120D01*
X0001242345Y0001622674D01*
X0001245596Y0001622883D01*
X0001258592Y0001623724D01*
X0001268946Y0001624477D01*
X0001276871Y0001625164D01*
X0001282578Y0001625807D01*
X0001286284Y0001626429D01*
X0001288197Y0001627050D01*
X0001288532Y0001627338D01*
X0001287885Y0001628464D01*
X0001285297Y0001629448D01*
X0001280971Y0001630532D01*
X0001275346Y0001632096D01*
X0001269182Y0001633909D01*
X0001263239Y0001635741D01*
X0001258278Y0001637360D01*
X0001255060Y0001638536D01*
X0001254505Y0001638789D01*
X0001251762Y0001639651D01*
X0001247277Y0001640505D01*
X0001243362Y0001641016D01*
X0001234738Y0001641918D01*
X0001227101Y0001634033D01*
X0001223146Y0001629764D01*
X0001219839Y0001625860D01*
X0001217838Y0001623101D01*
X0001217732Y0001622912D01*
X0001216735Y0001620687D01*
X0001217543Y0001620134D01*
X0001220083Y0001620614D01*
X0001220083Y0001620614D01*
G37*
X0001220083Y0001620614D02*
X0001222934Y0001621034D01*
X0001228012Y0001621555D01*
X0001234691Y0001622120D01*
X0001242345Y0001622674D01*
X0001245596Y0001622883D01*
X0001258592Y0001623724D01*
X0001268946Y0001624477D01*
X0001276871Y0001625164D01*
X0001282578Y0001625807D01*
X0001286284Y0001626429D01*
X0001288197Y0001627050D01*
X0001288532Y0001627338D01*
X0001287885Y0001628464D01*
X0001285297Y0001629448D01*
X0001280971Y0001630532D01*
X0001275346Y0001632096D01*
X0001269182Y0001633909D01*
X0001263239Y0001635741D01*
X0001258278Y0001637360D01*
X0001255060Y0001638536D01*
X0001254505Y0001638789D01*
X0001251762Y0001639651D01*
X0001247277Y0001640505D01*
X0001243362Y0001641016D01*
X0001234738Y0001641918D01*
X0001227101Y0001634033D01*
X0001223146Y0001629764D01*
X0001219839Y0001625860D01*
X0001217838Y0001623101D01*
X0001217732Y0001622912D01*
X0001216735Y0001620687D01*
X0001217543Y0001620134D01*
X0001220083Y0001620614D01*
M02*