%
M48
METRIC,000.000
T01C0.46
%
T01
X007599Y028169
X008115Y030095
X008115Y026244
X009524Y031504
X009524Y024834
X011450Y032020
X011450Y024319
X013375Y031504
X013375Y024834
X014785Y030095
X014785Y026244
X015300Y028169
X033599Y014169
X034114Y016094
X034114Y012244
X035524Y017504
X035524Y010836
X037449Y018020
X037449Y010318
X039375Y017504
X039375Y010836
X040784Y016094
X040784Y012244
X041300Y014169
X060599Y014169
X061114Y016094
X061114Y012244
X062524Y017504
X062524Y010836
X064449Y018020
X064449Y010318
X066375Y017504
X066375Y010836
X067784Y016094
X067784Y012244
X068300Y014169
X020599Y014169
X021115Y016094
X021115Y012244
X022524Y017504
X022524Y010836
X024450Y018020
X024450Y010318
X026375Y017504
X026375Y010836
X027785Y016094
X027785Y012244
X028300Y014169
X047599Y014169
X048115Y016094
X048115Y012244
X049524Y017504
X049524Y010836
X051450Y018020
X051450Y010318
X053375Y017504
X053375Y010836
X054785Y016094
X054785Y012244
X055300Y014169
X007599Y014169
X008115Y016094
X008115Y012244
X009524Y017504
X009524Y010836
X011450Y018020
X011450Y010318
X013375Y017504
X013375Y010836
X014785Y016094
X014785Y012244
X015300Y014169
X033599Y028169
X034114Y030095
X034114Y026244
X035524Y031504
X035524Y024834
X037449Y032020
X037449Y024319
X039375Y031504
X039375Y024834
X040784Y030095
X040784Y026244
X041300Y028169
X060599Y028169
X061114Y030095
X061114Y026244
X062524Y031504
X062524Y024834
X064449Y032020
X064449Y024319
X066375Y031504
X066375Y024834
X067784Y030095
X067784Y026244
X068300Y028169
X020599Y028169
X021115Y030095
X021115Y026244
X022524Y031504
X022524Y024834
X024450Y032020
X024450Y024319
X026375Y031504
X026375Y024834
X027785Y030095
X027785Y026244
X028300Y028169
X047599Y028169
X048115Y030095
X048115Y026244
X049524Y031504
X049524Y024834
X051450Y032020
X051450Y024319
X053375Y031504
X053375Y024834
X054785Y030095
X054785Y026244
X055300Y028169
X024409Y057229
X024925Y059154
X024925Y055303
X026334Y060564
X026334Y053896
X028260Y061079
X028260Y053381
X030185Y060564
X030185Y053896
X031595Y059154
X031595Y055303
X032110Y057229
X011409Y057229
X011925Y059154
X011925Y055303
X013334Y060564
X013334Y053896
X015260Y061079
X015260Y053381
X017185Y060564
X017185Y053896
X018595Y059154
X018595Y055303
X019110Y057229
X057409Y057229
X057924Y059154
X057924Y055303
X059334Y060564
X059334Y053896
X061259Y061079
X061259Y053381
X063185Y060564
X063185Y053896
X064593Y059154
X064593Y055303
X065110Y057229
X044409Y057229
X044924Y059154
X044924Y055303
X046334Y060564
X046334Y053896
X048260Y061079
X048260Y053381
X050185Y060564
X050185Y053896
X051595Y059154
X051595Y055303
X052110Y057229
X048999Y098079
X049514Y100005
X049514Y096154
X050924Y101414
X050924Y094744
X052849Y101930
X052849Y094229
X054775Y101414
X054775Y094744
X056184Y100005
X056184Y096154
X056200Y098079
X059999Y098079
X060515Y100005
X060515Y096154
X061925Y101414
X061925Y094744
X063850Y101930
X063850Y094229
X065775Y101414
X065775Y094744
X067183Y100005
X067183Y096154
X067200Y098079
M30