%MOIN*%
%OFA0B0*%
%FSLAX46Y46*%
%IPPOS*%
%LPD*%
%ADD10C,0.005905511811023622*%
%ADD11C,0.0039370078740157488*%
%ADD12C,0.027559055118110236*%
%ADD13C,0.053149606299212608*%
%ADD14C,0.11811023622047245*%
%ADD15C,0.01*%
%ADD26C,0.005905511811023622*%
%ADD27C,0.0039370078740157488*%
%ADD28C,0.027559055118110236*%
%ADD29C,0.053149606299212608*%
%ADD30C,0.11811023622047245*%
%ADD31C,0.01*%
%ADD42C,0.005905511811023622*%
%ADD43C,0.0039370078740157488*%
%ADD44C,0.027559055118110236*%
%ADD45C,0.053149606299212608*%
%ADD46C,0.11811023622047245*%
%ADD47C,0.01*%
%LPD*%
G01*
D10*
D11*
X0002717791Y0003421241D02*
X0002716291Y0003418241D01*
X0002713292Y0003416741D01*
X0002686295Y0003416741D01*
X0002696794Y0003446737D02*
X0002717791Y0003446737D01*
X0002696794Y0003433239D02*
X0002713292Y0003433239D01*
X0002716291Y0003434739D01*
X0002717791Y0003437739D01*
X0002717791Y0003442238D01*
X0002716291Y0003445238D01*
X0002714791Y0003446737D01*
X0002696794Y0003457236D02*
X0002696794Y0003469235D01*
X0002717791Y0003461736D02*
X0002690794Y0003461736D01*
X0002687795Y0003463235D01*
X0002686295Y0003466235D01*
X0002686295Y0003469235D01*
X0002696794Y0003475234D02*
X0002696794Y0003487232D01*
X0002686295Y0003479733D02*
X0002713292Y0003479733D01*
X0002716291Y0003481233D01*
X0002717791Y0003484233D01*
X0002717791Y0003487232D01*
X0002716291Y0003509730D02*
X0002717791Y0003506730D01*
X0002717791Y0003500731D01*
X0002716291Y0003497731D01*
X0002713292Y0003496231D01*
X0002701293Y0003496231D01*
X0002698293Y0003497731D01*
X0002696794Y0003500731D01*
X0002696794Y0003506730D01*
X0002698293Y0003509730D01*
X0002701293Y0003511229D01*
X0002704293Y0003511229D01*
X0002707292Y0003496231D01*
X0002717791Y0003524728D02*
X0002686295Y0003524728D01*
X0002705792Y0003527727D02*
X0002717791Y0003536726D01*
X0002696794Y0003536726D02*
X0002708792Y0003524728D01*
D10*
X0002742259Y0003417972D02*
X0002740759Y0003419472D01*
X0002739259Y0003422472D01*
X0002739259Y0003429971D01*
X0002740759Y0003432970D01*
X0002742259Y0003434470D01*
X0002745259Y0003435970D01*
X0002748258Y0003435970D01*
X0002752758Y0003434470D01*
X0002770756Y0003416473D01*
X0002770756Y0003435970D01*
X0002739259Y0003455468D02*
X0002739259Y0003458467D01*
X0002740759Y0003461467D01*
X0002742259Y0003462967D01*
X0002745259Y0003464467D01*
X0002751258Y0003465966D01*
X0002758757Y0003465966D01*
X0002764756Y0003464467D01*
X0002767756Y0003462967D01*
X0002769256Y0003461467D01*
X0002770756Y0003458467D01*
X0002770756Y0003455468D01*
X0002769256Y0003452468D01*
X0002767756Y0003450968D01*
X0002764756Y0003449468D01*
X0002758757Y0003447969D01*
X0002751258Y0003447969D01*
X0002745259Y0003449468D01*
X0002742259Y0003450968D01*
X0002740759Y0003452468D01*
X0002739259Y0003455468D01*
X0002770756Y0003495963D02*
X0002770756Y0003477965D01*
X0002770756Y0003486964D02*
X0002739259Y0003486964D01*
X0002743759Y0003483964D01*
X0002746759Y0003480964D01*
X0002748258Y0003477965D01*
X0002739259Y0003506461D02*
X0002739259Y0003527459D01*
X0002770756Y0003513960D01*
X0002739259Y0003545456D02*
X0002739259Y0003548456D01*
X0002740759Y0003551456D01*
X0002742259Y0003552955D01*
X0002745259Y0003554455D01*
X0002751258Y0003555955D01*
X0002758757Y0003555955D01*
X0002764756Y0003554455D01*
X0002767756Y0003552955D01*
X0002769256Y0003551456D01*
X0002770756Y0003548456D01*
X0002770756Y0003545456D01*
X0002769256Y0003542457D01*
X0002767756Y0003540957D01*
X0002764756Y0003539457D01*
X0002758757Y0003537957D01*
X0002751258Y0003537957D01*
X0002745259Y0003539457D01*
X0002742259Y0003540957D01*
X0002740759Y0003542457D01*
X0002739259Y0003545456D01*
X0002739259Y0003582952D02*
X0002739259Y0003576952D01*
X0002740759Y0003573953D01*
X0002742259Y0003572453D01*
X0002746759Y0003569453D01*
X0002752758Y0003567954D01*
X0002764756Y0003567954D01*
X0002767756Y0003569453D01*
X0002769256Y0003570953D01*
X0002770756Y0003573953D01*
X0002770756Y0003579952D01*
X0002769256Y0003582952D01*
X0002767756Y0003584452D01*
X0002764756Y0003585951D01*
X0002757257Y0003585951D01*
X0002754258Y0003584452D01*
X0002752758Y0003582952D01*
X0002751258Y0003579952D01*
X0002751258Y0003573953D01*
X0002752758Y0003570953D01*
X0002754258Y0003569453D01*
X0002757257Y0003567954D01*
X0002770756Y0003615948D02*
X0002770756Y0003597950D01*
X0002770756Y0003606949D02*
X0002739259Y0003606949D01*
X0002743759Y0003603949D01*
X0002746759Y0003600949D01*
X0002748258Y0003597950D01*
X0002742259Y0003627946D02*
X0002740759Y0003629446D01*
X0002739259Y0003632446D01*
X0002739259Y0003639945D01*
X0002740759Y0003642944D01*
X0002742259Y0003644444D01*
X0002745259Y0003645944D01*
X0002748258Y0003645944D01*
X0002752758Y0003644444D01*
X0002770756Y0003626446D01*
X0002770756Y0003645944D01*
D11*
X0001233408Y0003073547D02*
X0001254405Y0003073547D01*
X0001240907Y0003042051D01*
X0001279902Y0003073547D02*
X0001273903Y0003073547D01*
X0001270903Y0003072047D01*
X0001269403Y0003070547D01*
X0001266404Y0003066048D01*
X0001264904Y0003060048D01*
X0001264904Y0003048050D01*
X0001266404Y0003045050D01*
X0001267903Y0003043550D01*
X0001270903Y0003042051D01*
X0001276902Y0003042051D01*
X0001279902Y0003043550D01*
X0001281402Y0003045050D01*
X0001282902Y0003048050D01*
X0001282902Y0003055549D01*
X0001281402Y0003058548D01*
X0001279902Y0003060048D01*
X0001276902Y0003061548D01*
X0001270903Y0003061548D01*
X0001267903Y0003060048D01*
X0001266404Y0003058548D01*
X0001264904Y0003055549D01*
X0001293400Y0003042051D02*
X0001309898Y0003063048D01*
X0001293400Y0003063048D02*
X0001309898Y0003042051D01*
X0001318897Y0003073547D02*
X0001338395Y0003073547D01*
X0001327896Y0003061548D01*
X0001332395Y0003061548D01*
X0001335395Y0003060048D01*
X0001336895Y0003058548D01*
X0001338395Y0003055549D01*
X0001338395Y0003048050D01*
X0001336895Y0003045050D01*
X0001335395Y0003043550D01*
X0001332395Y0003042051D01*
X0001323397Y0003042051D01*
X0001320397Y0003043550D01*
X0001318897Y0003045050D01*
X0001366891Y0003073547D02*
X0001351893Y0003073547D01*
X0001350393Y0003058548D01*
X0001351893Y0003060048D01*
X0001354893Y0003061548D01*
X0001362392Y0003061548D01*
X0001365391Y0003060048D01*
X0001366891Y0003058548D01*
X0001368391Y0003055549D01*
X0001368391Y0003048050D01*
X0001366891Y0003045050D01*
X0001365391Y0003043550D01*
X0001362392Y0003042051D01*
X0001354893Y0003042051D01*
X0001351893Y0003043550D01*
X0001350393Y0003045050D01*
X0001378890Y0003042051D02*
X0001395388Y0003063048D01*
X0001378890Y0003063048D02*
X0001395388Y0003042051D01*
X0001423884Y0003042051D02*
X0001405886Y0003042051D01*
X0001414885Y0003042051D02*
X0001414885Y0003073547D01*
X0001411885Y0003069047D01*
X0001408886Y0003066048D01*
X0001405886Y0003064548D01*
X0001443382Y0003073547D02*
X0001446381Y0003073547D01*
X0001449381Y0003072047D01*
X0001450881Y0003070547D01*
X0001452380Y0003067547D01*
X0001453880Y0003061548D01*
X0001453880Y0003054049D01*
X0001452380Y0003048050D01*
X0001450881Y0003045050D01*
X0001449381Y0003043550D01*
X0001446381Y0003042051D01*
X0001443382Y0003042051D01*
X0001440382Y0003043550D01*
X0001438882Y0003045050D01*
X0001437382Y0003048050D01*
X0001435882Y0003054049D01*
X0001435882Y0003061548D01*
X0001437382Y0003067547D01*
X0001438882Y0003070547D01*
X0001440382Y0003072047D01*
X0001443382Y0003073547D01*
X0001473378Y0003073547D02*
X0001476377Y0003073547D01*
X0001479377Y0003072047D01*
X0001480877Y0003070547D01*
X0001482377Y0003067547D01*
X0001483877Y0003061548D01*
X0001483877Y0003054049D01*
X0001482377Y0003048050D01*
X0001480877Y0003045050D01*
X0001479377Y0003043550D01*
X0001476377Y0003042051D01*
X0001473378Y0003042051D01*
X0001470378Y0003043550D01*
X0001468878Y0003045050D01*
X0001467379Y0003048050D01*
X0001465879Y0003054049D01*
X0001465879Y0003061548D01*
X0001467379Y0003067547D01*
X0001468878Y0003070547D01*
X0001470378Y0003072047D01*
X0001473378Y0003073547D01*
X0001519872Y0003043550D02*
X0001522872Y0003042051D01*
X0001528871Y0003042051D01*
X0001531870Y0003043550D01*
X0001533370Y0003046550D01*
X0001533370Y0003048050D01*
X0001531870Y0003051049D01*
X0001528871Y0003052549D01*
X0001524371Y0003052549D01*
X0001521372Y0003054049D01*
X0001519872Y0003057049D01*
X0001519872Y0003058548D01*
X0001521372Y0003061548D01*
X0001524371Y0003063048D01*
X0001528871Y0003063048D01*
X0001531870Y0003061548D01*
X0001546869Y0003063048D02*
X0001546869Y0003031552D01*
X0001546869Y0003061548D02*
X0001549868Y0003063048D01*
X0001555867Y0003063048D01*
X0001558867Y0003061548D01*
X0001560367Y0003060048D01*
X0001561867Y0003057049D01*
X0001561867Y0003048050D01*
X0001560367Y0003045050D01*
X0001558867Y0003043550D01*
X0001555867Y0003042051D01*
X0001549868Y0003042051D01*
X0001546869Y0003043550D01*
X0001579865Y0003042051D02*
X0001576865Y0003043550D01*
X0001575365Y0003046550D01*
X0001575365Y0003073547D01*
X0001591863Y0003042051D02*
X0001591863Y0003063048D01*
X0001591863Y0003073547D02*
X0001590363Y0003072047D01*
X0001591863Y0003070547D01*
X0001593363Y0003072047D01*
X0001591863Y0003073547D01*
X0001591863Y0003070547D01*
X0001602362Y0003063048D02*
X0001614360Y0003063048D01*
X0001606861Y0003073547D02*
X0001606861Y0003046550D01*
X0001608361Y0003043550D01*
X0001611361Y0003042051D01*
X0001614360Y0003042051D01*
X0001647356Y0003043550D02*
X0001650356Y0003042051D01*
X0001656355Y0003042051D01*
X0001659355Y0003043550D01*
X0001660854Y0003046550D01*
X0001660854Y0003048050D01*
X0001659355Y0003051049D01*
X0001656355Y0003052549D01*
X0001651855Y0003052549D01*
X0001648856Y0003054049D01*
X0001647356Y0003057049D01*
X0001647356Y0003058548D01*
X0001648856Y0003061548D01*
X0001651855Y0003063048D01*
X0001656355Y0003063048D01*
X0001659355Y0003061548D01*
X0001674353Y0003042051D02*
X0001674353Y0003073547D01*
X0001687851Y0003042051D02*
X0001687851Y0003058548D01*
X0001686351Y0003061548D01*
X0001683352Y0003063048D01*
X0001678852Y0003063048D01*
X0001675852Y0003061548D01*
X0001674353Y0003060048D01*
X0001714848Y0003043550D02*
X0001711848Y0003042051D01*
X0001705849Y0003042051D01*
X0001702849Y0003043550D01*
X0001701349Y0003046550D01*
X0001701349Y0003058548D01*
X0001702849Y0003061548D01*
X0001705849Y0003063048D01*
X0001711848Y0003063048D01*
X0001714848Y0003061548D01*
X0001716347Y0003058548D01*
X0001716347Y0003055549D01*
X0001701349Y0003052549D01*
X0001734345Y0003042051D02*
X0001731346Y0003043550D01*
X0001729846Y0003046550D01*
X0001729846Y0003073547D01*
X0001750843Y0003042051D02*
X0001747844Y0003043550D01*
X0001746344Y0003046550D01*
X0001746344Y0003073547D01*
D12*
X0002195669Y0003939370D02*
X0002195669Y0003783070D01*
D13*
X0002231496Y0003861417D02*
G75*
G03X0002231496Y0003861417I-0000150787D01*
G01*
D14*
X0002185433Y0003861417D02*
G75*
G03X0002185433Y0003861417I-0000104724D01*
G01*
X0002618503Y0003861417D02*
G75*
G03X0002618503Y0003861417I-0000104724D01*
G01*
D13*
X0002664566Y0003861417D02*
G75*
G03X0002664566Y0003861417I-0000150787D01*
G01*
D12*
X0002628740Y0003939370D02*
X0002628740Y0003783070D01*
D15*
G36*
X0002787796Y0004329123D02*
X0002777727Y0004254472D01*
X0000187953Y0004253687D01*
X0000188999Y0004331084D01*
X0002787796Y0004329123D01*
X0002787796Y0004329123D01*
G37*
X0002787796Y0004329123D02*
X0002777727Y0004254472D01*
X0000187953Y0004253687D01*
X0000188999Y0004331084D01*
X0002787796Y0004329123D01*
G36*
X0002760146Y0002950144D02*
X0000232744Y0002950928D01*
X0000232397Y0003026364D01*
X0002759798Y0003027149D01*
X0002760146Y0002950144D01*
X0002760146Y0002950144D01*
G37*
X0002760146Y0002950144D02*
X0000232744Y0002950928D01*
X0000232397Y0003026364D01*
X0002759798Y0003027149D01*
X0002760146Y0002950144D01*
G36*
X0002993241Y0003946418D02*
X0002983929Y0003934001D01*
X0002956507Y0003934001D01*
X0002954594Y0003933620D01*
X0002952972Y0003932536D01*
X0002951888Y0003930914D01*
X0002951507Y0003929011D01*
X0002950326Y0003354208D01*
X0002950703Y0003352294D01*
X0002951783Y0003350669D01*
X0002953403Y0003349582D01*
X0002955326Y0003349197D01*
X0002984357Y0003349197D01*
X0002993240Y0003340315D01*
X0002993240Y0002949749D01*
X0002756760Y0002949749D01*
X0002756389Y0003031377D01*
X0002756389Y0003116310D01*
X0002759356Y0003120266D01*
X0002761529Y0003121269D01*
X0002765698Y0003119879D01*
X0002789049Y0003097988D01*
X0002792225Y0003085989D01*
X0002793635Y0003083624D01*
X0002806627Y0003071419D01*
X0002808153Y0003070438D01*
X0002823507Y0003064139D01*
X0002825405Y0003063764D01*
X0002840366Y0003063764D01*
X0002842860Y0003064431D01*
X0002855853Y0003071912D01*
X0002856671Y0003072500D01*
X0002866907Y0003081555D01*
X0002868213Y0003083385D01*
X0002874906Y0003099527D01*
X0002875285Y0003101589D01*
X0002874891Y0003114974D01*
X0002874545Y0003116660D01*
X0002869427Y0003129652D01*
X0002868439Y0003131222D01*
X0002858203Y0003142245D01*
X0002856537Y0003143427D01*
X0002842031Y0003149750D01*
X0002819678Y0003171736D01*
X0002818106Y0003178025D01*
X0002820100Y0003182013D01*
X0002825877Y0003185040D01*
X0002887672Y0003185812D01*
X0002889581Y0003186217D01*
X0002891189Y0003187321D01*
X0002892253Y0003188956D01*
X0002892610Y0003190812D01*
X0002892610Y0003265615D01*
X0002892229Y0003267528D01*
X0002891145Y0003269150D01*
X0002889523Y0003270234D01*
X0002887671Y0003270614D01*
X0002795762Y0003271735D01*
X0002796150Y0004009122D01*
X0002886511Y0004010615D01*
X0002888418Y0004011028D01*
X0002890022Y0004012138D01*
X0002891079Y0004013778D01*
X0002891429Y0004015589D01*
X0002891822Y0004091179D01*
X0002891452Y0004093095D01*
X0002890376Y0004094722D01*
X0002888760Y0004095815D01*
X0002886852Y0004096205D01*
X0002821869Y0004096588D01*
X0002818344Y0004099861D01*
X0002816550Y0004103000D01*
X0002817353Y0004106413D01*
X0002839612Y0004129037D01*
X0002851176Y0004133374D01*
X0002852862Y0004134428D01*
X0002868216Y0004148995D01*
X0002869529Y0004151073D01*
X0002875434Y0004169183D01*
X0002875515Y0004172010D01*
X0002870003Y0004192876D01*
X0002868751Y0004195087D01*
X0002854184Y0004210048D01*
X0002852577Y0004211153D01*
X0002851466Y0004211485D01*
X0002829025Y0004215422D01*
X0002826948Y0004215347D01*
X0002812775Y0004211804D01*
X0002810787Y0004210795D01*
X0002796614Y0004198983D01*
X0002795210Y0004197091D01*
X0002787002Y0004177691D01*
X0002765289Y0004158922D01*
X0002763348Y0004158146D01*
X0002760290Y0004158554D01*
X0002758052Y0004160588D01*
X0002755992Y0004166476D01*
X0002755602Y0004248201D01*
X0002758941Y0004329444D01*
X0002809586Y0004328726D01*
X0002809688Y0004328725D01*
X0002993628Y0004329875D01*
X0002993241Y0003946418D01*
X0002993241Y0003946418D01*
G37*
X0002993241Y0003946418D02*
X0002983929Y0003934001D01*
X0002956507Y0003934001D01*
X0002954594Y0003933620D01*
X0002952972Y0003932536D01*
X0002951888Y0003930914D01*
X0002951507Y0003929011D01*
X0002950326Y0003354208D01*
X0002950703Y0003352294D01*
X0002951783Y0003350669D01*
X0002953403Y0003349582D01*
X0002955326Y0003349197D01*
X0002984357Y0003349197D01*
X0002993240Y0003340315D01*
X0002993240Y0002949749D01*
X0002756760Y0002949749D01*
X0002756389Y0003031377D01*
X0002756389Y0003116310D01*
X0002759356Y0003120266D01*
X0002761529Y0003121269D01*
X0002765698Y0003119879D01*
X0002789049Y0003097988D01*
X0002792225Y0003085989D01*
X0002793635Y0003083624D01*
X0002806627Y0003071419D01*
X0002808153Y0003070438D01*
X0002823507Y0003064139D01*
X0002825405Y0003063764D01*
X0002840366Y0003063764D01*
X0002842860Y0003064431D01*
X0002855853Y0003071912D01*
X0002856671Y0003072500D01*
X0002866907Y0003081555D01*
X0002868213Y0003083385D01*
X0002874906Y0003099527D01*
X0002875285Y0003101589D01*
X0002874891Y0003114974D01*
X0002874545Y0003116660D01*
X0002869427Y0003129652D01*
X0002868439Y0003131222D01*
X0002858203Y0003142245D01*
X0002856537Y0003143427D01*
X0002842031Y0003149750D01*
X0002819678Y0003171736D01*
X0002818106Y0003178025D01*
X0002820100Y0003182013D01*
X0002825877Y0003185040D01*
X0002887672Y0003185812D01*
X0002889581Y0003186217D01*
X0002891189Y0003187321D01*
X0002892253Y0003188956D01*
X0002892610Y0003190812D01*
X0002892610Y0003265615D01*
X0002892229Y0003267528D01*
X0002891145Y0003269150D01*
X0002889523Y0003270234D01*
X0002887671Y0003270614D01*
X0002795762Y0003271735D01*
X0002796150Y0004009122D01*
X0002886511Y0004010615D01*
X0002888418Y0004011028D01*
X0002890022Y0004012138D01*
X0002891079Y0004013778D01*
X0002891429Y0004015589D01*
X0002891822Y0004091179D01*
X0002891452Y0004093095D01*
X0002890376Y0004094722D01*
X0002888760Y0004095815D01*
X0002886852Y0004096205D01*
X0002821869Y0004096588D01*
X0002818344Y0004099861D01*
X0002816550Y0004103000D01*
X0002817353Y0004106413D01*
X0002839612Y0004129037D01*
X0002851176Y0004133374D01*
X0002852862Y0004134428D01*
X0002868216Y0004148995D01*
X0002869529Y0004151073D01*
X0002875434Y0004169183D01*
X0002875515Y0004172010D01*
X0002870003Y0004192876D01*
X0002868751Y0004195087D01*
X0002854184Y0004210048D01*
X0002852577Y0004211153D01*
X0002851466Y0004211485D01*
X0002829025Y0004215422D01*
X0002826948Y0004215347D01*
X0002812775Y0004211804D01*
X0002810787Y0004210795D01*
X0002796614Y0004198983D01*
X0002795210Y0004197091D01*
X0002787002Y0004177691D01*
X0002765289Y0004158922D01*
X0002763348Y0004158146D01*
X0002760290Y0004158554D01*
X0002758052Y0004160588D01*
X0002755992Y0004166476D01*
X0002755602Y0004248201D01*
X0002758941Y0004329444D01*
X0002809586Y0004328726D01*
X0002809688Y0004328725D01*
X0002993628Y0004329875D01*
X0002993241Y0003946418D01*
G36*
X0000230247Y0004250640D02*
X0000230247Y0004165707D01*
X0000227281Y0004161751D01*
X0000225108Y0004160748D01*
X0000220939Y0004162138D01*
X0000197588Y0004184029D01*
X0000194412Y0004196028D01*
X0000193002Y0004198393D01*
X0000180009Y0004210598D01*
X0000178484Y0004211579D01*
X0000163130Y0004217878D01*
X0000161232Y0004218253D01*
X0000146271Y0004218253D01*
X0000143776Y0004217586D01*
X0000130784Y0004210105D01*
X0000129966Y0004209517D01*
X0000119730Y0004200462D01*
X0000118424Y0004198632D01*
X0000111731Y0004182491D01*
X0000111352Y0004180428D01*
X0000111746Y0004167043D01*
X0000112092Y0004165357D01*
X0000117210Y0004152365D01*
X0000118198Y0004150795D01*
X0000128434Y0004139772D01*
X0000130100Y0004138590D01*
X0000144606Y0004132267D01*
X0000166959Y0004110281D01*
X0000168531Y0004103992D01*
X0000166537Y0004100004D01*
X0000160760Y0004096977D01*
X0000098965Y0004096205D01*
X0000097056Y0004095800D01*
X0000095448Y0004094696D01*
X0000094384Y0004093061D01*
X0000094027Y0004091205D01*
X0000094027Y0004016402D01*
X0000094408Y0004014489D01*
X0000095492Y0004012867D01*
X0000097114Y0004011783D01*
X0000098966Y0004011403D01*
X0000190875Y0004010282D01*
X0000190486Y0003272895D01*
X0000100126Y0003271402D01*
X0000098219Y0003270989D01*
X0000096615Y0003269879D01*
X0000095558Y0003268239D01*
X0000095208Y0003266428D01*
X0000094815Y0003190838D01*
X0000095185Y0003188922D01*
X0000096261Y0003187295D01*
X0000097877Y0003186202D01*
X0000099785Y0003185812D01*
X0000164768Y0003185429D01*
X0000168293Y0003182156D01*
X0000170087Y0003179017D01*
X0000169284Y0003175604D01*
X0000147025Y0003152980D01*
X0000135460Y0003148643D01*
X0000133775Y0003147589D01*
X0000118420Y0003133022D01*
X0000117108Y0003130944D01*
X0000111202Y0003112834D01*
X0000111122Y0003110007D01*
X0000116634Y0003089141D01*
X0000117886Y0003086930D01*
X0000132453Y0003071969D01*
X0000134060Y0003070864D01*
X0000135171Y0003070533D01*
X0000157612Y0003066596D01*
X0000159689Y0003066670D01*
X0000173862Y0003070213D01*
X0000175850Y0003071223D01*
X0000190023Y0003083034D01*
X0000191427Y0003084926D01*
X0000199635Y0003104326D01*
X0000221347Y0003123095D01*
X0000223288Y0003123871D01*
X0000226346Y0003123463D01*
X0000228585Y0003121429D01*
X0000230645Y0003115541D01*
X0000231034Y0003033816D01*
X0000227692Y0002952480D01*
X0000154923Y0002952111D01*
X-0000006991Y0002952111D01*
X-0000006604Y0003335599D01*
X0000002708Y0003348016D01*
X0000030129Y0003348016D01*
X0000032043Y0003348397D01*
X0000033665Y0003349481D01*
X0000034749Y0003351103D01*
X0000035129Y0003353006D01*
X0000036310Y0003927809D01*
X0000035934Y0003929723D01*
X0000034853Y0003931348D01*
X0000033233Y0003932435D01*
X0000031310Y0003932820D01*
X0000002279Y0003932820D01*
X-0000006602Y0003941702D01*
X-0000006602Y0004332268D01*
X0000229876Y0004332268D01*
X0000230247Y0004250640D01*
X0000230247Y0004250640D01*
G37*
X0000230247Y0004250640D02*
X0000230247Y0004165707D01*
X0000227281Y0004161751D01*
X0000225108Y0004160748D01*
X0000220939Y0004162138D01*
X0000197588Y0004184029D01*
X0000194412Y0004196028D01*
X0000193002Y0004198393D01*
X0000180009Y0004210598D01*
X0000178484Y0004211579D01*
X0000163130Y0004217878D01*
X0000161232Y0004218253D01*
X0000146271Y0004218253D01*
X0000143776Y0004217586D01*
X0000130784Y0004210105D01*
X0000129966Y0004209517D01*
X0000119730Y0004200462D01*
X0000118424Y0004198632D01*
X0000111731Y0004182491D01*
X0000111352Y0004180428D01*
X0000111746Y0004167043D01*
X0000112092Y0004165357D01*
X0000117210Y0004152365D01*
X0000118198Y0004150795D01*
X0000128434Y0004139772D01*
X0000130100Y0004138590D01*
X0000144606Y0004132267D01*
X0000166959Y0004110281D01*
X0000168531Y0004103992D01*
X0000166537Y0004100004D01*
X0000160760Y0004096977D01*
X0000098965Y0004096205D01*
X0000097056Y0004095800D01*
X0000095448Y0004094696D01*
X0000094384Y0004093061D01*
X0000094027Y0004091205D01*
X0000094027Y0004016402D01*
X0000094408Y0004014489D01*
X0000095492Y0004012867D01*
X0000097114Y0004011783D01*
X0000098966Y0004011403D01*
X0000190875Y0004010282D01*
X0000190486Y0003272895D01*
X0000100126Y0003271402D01*
X0000098219Y0003270989D01*
X0000096615Y0003269879D01*
X0000095558Y0003268239D01*
X0000095208Y0003266428D01*
X0000094815Y0003190838D01*
X0000095185Y0003188922D01*
X0000096261Y0003187295D01*
X0000097877Y0003186202D01*
X0000099785Y0003185812D01*
X0000164768Y0003185429D01*
X0000168293Y0003182156D01*
X0000170087Y0003179017D01*
X0000169284Y0003175604D01*
X0000147025Y0003152980D01*
X0000135460Y0003148643D01*
X0000133775Y0003147589D01*
X0000118420Y0003133022D01*
X0000117108Y0003130944D01*
X0000111202Y0003112834D01*
X0000111122Y0003110007D01*
X0000116634Y0003089141D01*
X0000117886Y0003086930D01*
X0000132453Y0003071969D01*
X0000134060Y0003070864D01*
X0000135171Y0003070533D01*
X0000157612Y0003066596D01*
X0000159689Y0003066670D01*
X0000173862Y0003070213D01*
X0000175850Y0003071223D01*
X0000190023Y0003083034D01*
X0000191427Y0003084926D01*
X0000199635Y0003104326D01*
X0000221347Y0003123095D01*
X0000223288Y0003123871D01*
X0000226346Y0003123463D01*
X0000228585Y0003121429D01*
X0000230645Y0003115541D01*
X0000231034Y0003033816D01*
X0000227692Y0002952480D01*
X0000154923Y0002952111D01*
X-0000006991Y0002952111D01*
X-0000006604Y0003335599D01*
X0000002708Y0003348016D01*
X0000030129Y0003348016D01*
X0000032043Y0003348397D01*
X0000033665Y0003349481D01*
X0000034749Y0003351103D01*
X0000035129Y0003353006D01*
X0000036310Y0003927809D01*
X0000035934Y0003929723D01*
X0000034853Y0003931348D01*
X0000033233Y0003932435D01*
X0000031310Y0003932820D01*
X0000002279Y0003932820D01*
X-0000006602Y0003941702D01*
X-0000006602Y0004332268D01*
X0000229876Y0004332268D01*
X0000230247Y0004250640D01*
G04 next file*
%LPD*%
G01*
D26*
D27*
X0002774090Y0000323209D02*
X0002772589Y0000320210D01*
X0002769591Y0000318710D01*
X0002742594Y0000318710D01*
X0002753093Y0000348706D02*
X0002774090Y0000348706D01*
X0002753093Y0000335208D02*
X0002769591Y0000335208D01*
X0002772589Y0000336707D01*
X0002774090Y0000339707D01*
X0002774090Y0000344206D01*
X0002772589Y0000347206D01*
X0002771091Y0000348706D01*
X0002753093Y0000359205D02*
X0002753093Y0000371203D01*
X0002774090Y0000363704D02*
X0002747094Y0000363704D01*
X0002744094Y0000365204D01*
X0002742594Y0000368203D01*
X0002742594Y0000371203D01*
X0002753093Y0000377202D02*
X0002753093Y0000389200D01*
X0002742594Y0000381702D02*
X0002769591Y0000381702D01*
X0002772589Y0000383202D01*
X0002774090Y0000386200D01*
X0002774090Y0000389200D01*
X0002772589Y0000411697D02*
X0002774090Y0000408697D01*
X0002774090Y0000402699D01*
X0002772589Y0000399700D01*
X0002769591Y0000398200D01*
X0002757592Y0000398200D01*
X0002754593Y0000399700D01*
X0002753093Y0000402699D01*
X0002753093Y0000408697D01*
X0002754593Y0000411697D01*
X0002757592Y0000413197D01*
X0002760592Y0000413197D01*
X0002763592Y0000398200D01*
X0002774090Y0000426696D02*
X0002742594Y0000426696D01*
X0002762091Y0000429696D02*
X0002774090Y0000438695D01*
X0002753093Y0000438695D02*
X0002765091Y0000426696D01*
D26*
X0002744019Y0000465348D02*
X0002742519Y0000466848D01*
X0002741018Y0000469848D01*
X0002741018Y0000477348D01*
X0002742519Y0000480347D01*
X0002744019Y0000481847D01*
X0002747019Y0000483347D01*
X0002750018Y0000483347D01*
X0002754518Y0000481847D01*
X0002772515Y0000463848D01*
X0002772515Y0000483347D01*
X0002741018Y0000502843D02*
X0002741018Y0000505843D01*
X0002742519Y0000508843D01*
X0002744019Y0000510344D01*
X0002747019Y0000511843D01*
X0002753018Y0000513343D01*
X0002760517Y0000513343D01*
X0002766516Y0000511843D01*
X0002769516Y0000510344D01*
X0002771016Y0000508843D01*
X0002772515Y0000505843D01*
X0002772515Y0000502843D01*
X0002771016Y0000499845D01*
X0002769516Y0000498345D01*
X0002766516Y0000496845D01*
X0002760517Y0000495345D01*
X0002753018Y0000495345D01*
X0002747019Y0000496845D01*
X0002744019Y0000498345D01*
X0002742519Y0000499845D01*
X0002741018Y0000502843D01*
X0002772515Y0000543339D02*
X0002772515Y0000525342D01*
X0002772515Y0000534340D02*
X0002741018Y0000534340D01*
X0002745519Y0000531341D01*
X0002748518Y0000528341D01*
X0002750018Y0000525342D01*
X0002741018Y0000553838D02*
X0002741018Y0000574835D01*
X0002772515Y0000561337D01*
X0002741018Y0000592833D02*
X0002741018Y0000595833D01*
X0002742519Y0000598832D01*
X0002744019Y0000600332D01*
X0002747019Y0000601832D01*
X0002753018Y0000603332D01*
X0002760517Y0000603332D01*
X0002766516Y0000601832D01*
X0002769516Y0000600332D01*
X0002771016Y0000598832D01*
X0002772515Y0000595833D01*
X0002772515Y0000592833D01*
X0002771016Y0000589834D01*
X0002769516Y0000588334D01*
X0002766516Y0000586834D01*
X0002760517Y0000585334D01*
X0002753018Y0000585334D01*
X0002747019Y0000586834D01*
X0002744019Y0000588334D01*
X0002742519Y0000589834D01*
X0002741018Y0000592833D01*
X0002741018Y0000630329D02*
X0002741018Y0000624329D01*
X0002742519Y0000621330D01*
X0002744019Y0000619830D01*
X0002748518Y0000616830D01*
X0002754518Y0000615330D01*
X0002766516Y0000615330D01*
X0002769516Y0000616830D01*
X0002771016Y0000618330D01*
X0002772515Y0000621330D01*
X0002772515Y0000627329D01*
X0002771016Y0000630329D01*
X0002769516Y0000631827D01*
X0002766516Y0000633328D01*
X0002759017Y0000633328D01*
X0002756017Y0000631827D01*
X0002754518Y0000630329D01*
X0002753018Y0000627329D01*
X0002753018Y0000621330D01*
X0002754518Y0000618330D01*
X0002756017Y0000616830D01*
X0002759017Y0000615330D01*
X0002772515Y0000663324D02*
X0002772515Y0000645327D01*
X0002772515Y0000654326D02*
X0002741018Y0000654326D01*
X0002745519Y0000651326D01*
X0002748518Y0000648326D01*
X0002750018Y0000645327D01*
X0002744019Y0000675322D02*
X0002742519Y0000676823D01*
X0002741018Y0000679822D01*
X0002741018Y0000687321D01*
X0002742519Y0000690321D01*
X0002744019Y0000691821D01*
X0002747019Y0000693321D01*
X0002750018Y0000693321D01*
X0002754518Y0000691821D01*
X0002772515Y0000673823D01*
X0002772515Y0000693321D01*
D27*
X0002207424Y0000131027D02*
X0002228421Y0000131027D01*
X0002214923Y0000099530D01*
X0002253918Y0000131027D02*
X0002247918Y0000131027D01*
X0002244919Y0000129527D01*
X0002243419Y0000128027D01*
X0002240419Y0000123528D01*
X0002238920Y0000117529D01*
X0002238920Y0000105530D01*
X0002240419Y0000102530D01*
X0002241919Y0000101030D01*
X0002244919Y0000099530D01*
X0002250918Y0000099530D01*
X0002253918Y0000101030D01*
X0002255418Y0000102530D01*
X0002256917Y0000105530D01*
X0002256917Y0000113029D01*
X0002255418Y0000116029D01*
X0002253918Y0000117529D01*
X0002250918Y0000119028D01*
X0002244919Y0000119028D01*
X0002241919Y0000117529D01*
X0002240419Y0000116029D01*
X0002238920Y0000113029D01*
X0002267416Y0000099530D02*
X0002283914Y0000120528D01*
X0002267416Y0000120528D02*
X0002283914Y0000099530D01*
X0002292913Y0000131027D02*
X0002312410Y0000131027D01*
X0002301912Y0000119028D01*
X0002306411Y0000119028D01*
X0002309411Y0000117529D01*
X0002310911Y0000116029D01*
X0002312410Y0000113029D01*
X0002312410Y0000105530D01*
X0002310911Y0000102530D01*
X0002309411Y0000101030D01*
X0002306411Y0000099530D01*
X0002297412Y0000099530D01*
X0002294413Y0000101030D01*
X0002292913Y0000102530D01*
X0002340907Y0000131027D02*
X0002325909Y0000131027D01*
X0002324409Y0000116029D01*
X0002325909Y0000117529D01*
X0002328908Y0000119028D01*
X0002336407Y0000119028D01*
X0002339407Y0000117529D01*
X0002340907Y0000116029D01*
X0002342407Y0000113029D01*
X0002342407Y0000105530D01*
X0002340907Y0000102530D01*
X0002339407Y0000101030D01*
X0002336407Y0000099530D01*
X0002328908Y0000099530D01*
X0002325909Y0000101030D01*
X0002324409Y0000102530D01*
X0002352905Y0000099530D02*
X0002369403Y0000120528D01*
X0002352905Y0000120528D02*
X0002369403Y0000099530D01*
X0002397900Y0000099530D02*
X0002379902Y0000099530D01*
X0002388901Y0000099530D02*
X0002388901Y0000131027D01*
X0002385901Y0000126527D01*
X0002382902Y0000123528D01*
X0002379902Y0000122028D01*
X0002417397Y0000131027D02*
X0002420397Y0000131027D01*
X0002423397Y0000129527D01*
X0002424896Y0000128027D01*
X0002426396Y0000125028D01*
X0002427896Y0000119028D01*
X0002427896Y0000111529D01*
X0002426396Y0000105530D01*
X0002424896Y0000102530D01*
X0002423397Y0000101030D01*
X0002420397Y0000099530D01*
X0002417397Y0000099530D01*
X0002414398Y0000101030D01*
X0002412898Y0000102530D01*
X0002411398Y0000105530D01*
X0002409898Y0000111529D01*
X0002409898Y0000119028D01*
X0002411398Y0000125028D01*
X0002412898Y0000128027D01*
X0002414398Y0000129527D01*
X0002417397Y0000131027D01*
X0002447394Y0000131027D02*
X0002450393Y0000131027D01*
X0002453393Y0000129527D01*
X0002454893Y0000128027D01*
X0002456392Y0000125028D01*
X0002457892Y0000119028D01*
X0002457892Y0000111529D01*
X0002456392Y0000105530D01*
X0002454893Y0000102530D01*
X0002453393Y0000101030D01*
X0002450393Y0000099530D01*
X0002447394Y0000099530D01*
X0002444394Y0000101030D01*
X0002442894Y0000102530D01*
X0002441394Y0000105530D01*
X0002439895Y0000111529D01*
X0002439895Y0000119028D01*
X0002441394Y0000125028D01*
X0002442894Y0000128027D01*
X0002444394Y0000129527D01*
X0002447394Y0000131027D01*
X0002493888Y0000101030D02*
X0002496887Y0000099530D01*
X0002502887Y0000099530D01*
X0002505886Y0000101030D01*
X0002507386Y0000104030D01*
X0002507386Y0000105530D01*
X0002505886Y0000108530D01*
X0002502887Y0000110029D01*
X0002498387Y0000110029D01*
X0002495388Y0000111529D01*
X0002493888Y0000114529D01*
X0002493888Y0000116029D01*
X0002495388Y0000119028D01*
X0002498387Y0000120528D01*
X0002502887Y0000120528D01*
X0002505886Y0000119028D01*
X0002520884Y0000120528D02*
X0002520884Y0000089032D01*
X0002520884Y0000119028D02*
X0002523884Y0000120528D01*
X0002529883Y0000120528D01*
X0002532883Y0000119028D01*
X0002534383Y0000117529D01*
X0002535882Y0000114529D01*
X0002535882Y0000105530D01*
X0002534383Y0000102530D01*
X0002532883Y0000101030D01*
X0002529883Y0000099530D01*
X0002523884Y0000099530D01*
X0002520884Y0000101030D01*
X0002553880Y0000099530D02*
X0002550881Y0000101030D01*
X0002549381Y0000104030D01*
X0002549381Y0000131027D01*
X0002565879Y0000099530D02*
X0002565879Y0000120528D01*
X0002565879Y0000131027D02*
X0002564379Y0000129527D01*
X0002565879Y0000128027D01*
X0002567379Y0000129527D01*
X0002565879Y0000131027D01*
X0002565879Y0000128027D01*
X0002576377Y0000120528D02*
X0002588376Y0000120528D01*
X0002580877Y0000131027D02*
X0002580877Y0000104030D01*
X0002582377Y0000101030D01*
X0002585376Y0000099530D01*
X0002588376Y0000099530D01*
X0002621372Y0000101030D02*
X0002624371Y0000099530D01*
X0002630371Y0000099530D01*
X0002633370Y0000101030D01*
X0002634870Y0000104030D01*
X0002634870Y0000105530D01*
X0002633370Y0000108530D01*
X0002630371Y0000110029D01*
X0002625871Y0000110029D01*
X0002622872Y0000111529D01*
X0002621372Y0000114529D01*
X0002621372Y0000116029D01*
X0002622872Y0000119028D01*
X0002625871Y0000120528D01*
X0002630371Y0000120528D01*
X0002633370Y0000119028D01*
X0002648368Y0000099530D02*
X0002648368Y0000131027D01*
X0002661867Y0000099530D02*
X0002661867Y0000116029D01*
X0002660366Y0000119028D01*
X0002657367Y0000120528D01*
X0002652868Y0000120528D01*
X0002649868Y0000119028D01*
X0002648368Y0000117529D01*
X0002688863Y0000101030D02*
X0002685864Y0000099530D01*
X0002679865Y0000099530D01*
X0002676865Y0000101030D01*
X0002675365Y0000104030D01*
X0002675365Y0000116029D01*
X0002676865Y0000119028D01*
X0002679865Y0000120528D01*
X0002685864Y0000120528D01*
X0002688863Y0000119028D01*
X0002690363Y0000116029D01*
X0002690363Y0000113029D01*
X0002675365Y0000110029D01*
X0002708361Y0000099530D02*
X0002705361Y0000101030D01*
X0002703862Y0000104030D01*
X0002703862Y0000131027D01*
X0002724858Y0000099530D02*
X0002721859Y0000101030D01*
X0002720359Y0000104030D01*
X0002720359Y0000131027D01*
D28*
X0002652362Y0000635826D02*
X0002652362Y0000479527D01*
D29*
X0002688188Y0000557874D02*
G75*
G03X0002688188Y0000557874I-0000150787D01*
G01*
D30*
X0002642124Y0000557874D02*
G75*
G03X0002642124Y0000557874I-0000104724D01*
G01*
D28*
X0002140551Y0000635826D02*
X0002140551Y0000479527D01*
D29*
X0002176377Y0000557874D02*
G75*
G03X0002176377Y0000557874I-0000150787D01*
G01*
D30*
X0002130314Y0000557874D02*
G75*
G03X0002130314Y0000557874I-0000104724D01*
G01*
D28*
X0002652362Y0001187007D02*
X0002652362Y0001030708D01*
D29*
X0002688188Y0001109055D02*
G75*
G03X0002688188Y0001109055I-0000150787D01*
G01*
D30*
X0002642124Y0001109055D02*
G75*
G03X0002642124Y0001109055I-0000104724D01*
G01*
D28*
X0002140551Y0001187007D02*
X0002140551Y0001030708D01*
D29*
X0002176377Y0001109055D02*
G75*
G03X0002176377Y0001109055I-0000150787D01*
G01*
D30*
X0002130314Y0001109055D02*
G75*
G03X0002130314Y0001109055I-0000104724D01*
G01*
D28*
X0001589370Y0000635826D02*
X0001589370Y0000479527D01*
D29*
X0001625196Y0000557874D02*
G75*
G03X0001625196Y0000557874I-0000150787D01*
G01*
D30*
X0001579133Y0000557874D02*
G75*
G03X0001579133Y0000557874I-0000104724D01*
G01*
D28*
X0001077559Y0000635826D02*
X0001077559Y0000479527D01*
D29*
X0001113385Y0000557874D02*
G75*
G03X0001113385Y0000557874I-0000150787D01*
G01*
D30*
X0001067322Y0000557874D02*
G75*
G03X0001067322Y0000557874I-0000104724D01*
G01*
D28*
X0000565748Y0000635826D02*
X0000565748Y0000479527D01*
D29*
X0000601574Y0000557874D02*
G75*
G03X0000601574Y0000557874I-0000150787D01*
G01*
D30*
X0000555511Y0000557874D02*
G75*
G03X0000555511Y0000557874I-0000104724D01*
G01*
D28*
X0001589370Y0001187007D02*
X0001589370Y0001030708D01*
D29*
X0001625196Y0001109055D02*
G75*
G03X0001625196Y0001109055I-0000150787D01*
G01*
D30*
X0001579133Y0001109055D02*
G75*
G03X0001579133Y0001109055I-0000104724D01*
G01*
D28*
X0001077559Y0001187007D02*
X0001077559Y0001030708D01*
D29*
X0001113385Y0001109055D02*
G75*
G03X0001113385Y0001109055I-0000150787D01*
G01*
D30*
X0001067322Y0001109055D02*
G75*
G03X0001067322Y0001109055I-0000104724D01*
G01*
D28*
X0000565748Y0001187007D02*
X0000565748Y0001030708D01*
D29*
X0000601574Y0001109055D02*
G75*
G03X0000601574Y0001109055I-0000150787D01*
G01*
D30*
X0000555511Y0001109055D02*
G75*
G03X0000555511Y0001109055I-0000104724D01*
G01*
D31*
G36*
X0002789556Y0001376500D02*
X0002779487Y0001301849D01*
X0000189713Y0001301064D01*
X0000190759Y0001378460D01*
X0002789556Y0001376500D01*
X0002789556Y0001376500D01*
G37*
X0002789556Y0001376500D02*
X0002779487Y0001301849D01*
X0000189713Y0001301064D01*
X0000190759Y0001378460D01*
X0002789556Y0001376500D01*
G36*
X0002761906Y-0000002478D02*
X0000234504Y-0000001694D01*
X0000234156Y0000073741D01*
X0002761557Y0000074525D01*
X0002761906Y-0000002478D01*
X0002761906Y-0000002478D01*
G37*
X0002761906Y-0000002478D02*
X0000234504Y-0000001694D01*
X0000234156Y0000073741D01*
X0002761557Y0000074525D01*
X0002761906Y-0000002478D01*
G36*
X0002995001Y0000993794D02*
X0002985688Y0000981377D01*
X0002958267Y0000981377D01*
X0002956354Y0000980997D01*
X0002954732Y0000979913D01*
X0002953648Y0000978291D01*
X0002953267Y0000976388D01*
X0002952086Y0000401585D01*
X0002952462Y0000399670D01*
X0002953543Y0000398046D01*
X0002955163Y0000396959D01*
X0002957086Y0000396573D01*
X0002986117Y0000396573D01*
X0002995000Y0000387692D01*
X0002995000Y-0000002874D01*
X0002758520Y-0000002874D01*
X0002758149Y0000078754D01*
X0002758149Y0000163687D01*
X0002761116Y0000167643D01*
X0002763289Y0000168646D01*
X0002767458Y0000167256D01*
X0002790809Y0000145365D01*
X0002793985Y0000133366D01*
X0002795395Y0000131001D01*
X0002808387Y0000118796D01*
X0002809913Y0000117815D01*
X0002825266Y0000111515D01*
X0002827165Y0000111140D01*
X0002842125Y0000111140D01*
X0002844619Y0000111808D01*
X0002857612Y0000119288D01*
X0002858430Y0000119877D01*
X0002868667Y0000128931D01*
X0002869973Y0000130761D01*
X0002876665Y0000146903D01*
X0002877044Y0000148965D01*
X0002876651Y0000162351D01*
X0002876305Y0000164037D01*
X0002871187Y0000177029D01*
X0002870199Y0000178599D01*
X0002859963Y0000189622D01*
X0002858297Y0000190803D01*
X0002843791Y0000197126D01*
X0002821438Y0000219113D01*
X0002819866Y0000225402D01*
X0002821860Y0000229390D01*
X0002827636Y0000232416D01*
X0002889432Y0000233189D01*
X0002891341Y0000233593D01*
X0002892949Y0000234697D01*
X0002894013Y0000236333D01*
X0002894369Y0000238187D01*
X0002894369Y0000312992D01*
X0002893989Y0000314905D01*
X0002892905Y0000316526D01*
X0002891283Y0000317611D01*
X0002889431Y0000317991D01*
X0002797522Y0000319111D01*
X0002797910Y0001056499D01*
X0002888271Y0001057992D01*
X0002890178Y0001058405D01*
X0002891782Y0001059515D01*
X0002892839Y0001061155D01*
X0002893188Y0001062966D01*
X0002893582Y0001138556D01*
X0002893211Y0001140472D01*
X0002892136Y0001142099D01*
X0002890520Y0001143192D01*
X0002888612Y0001143582D01*
X0002823628Y0001143964D01*
X0002820103Y0001147238D01*
X0002818310Y0001150377D01*
X0002819113Y0001153790D01*
X0002841372Y0001176414D01*
X0002852936Y0001180751D01*
X0002854621Y0001181805D01*
X0002869976Y0001196372D01*
X0002871289Y0001198449D01*
X0002877194Y0001216560D01*
X0002877275Y0001219387D01*
X0002871763Y0001240253D01*
X0002870511Y0001242464D01*
X0002855943Y0001257425D01*
X0002854337Y0001258530D01*
X0002853226Y0001258861D01*
X0002830785Y0001262798D01*
X0002828707Y0001262724D01*
X0002814535Y0001259181D01*
X0002812547Y0001258171D01*
X0002798373Y0001246360D01*
X0002796969Y0001244467D01*
X0002788762Y0001225068D01*
X0002767049Y0001206299D01*
X0002765107Y0001205523D01*
X0002762050Y0001205930D01*
X0002759812Y0001207965D01*
X0002757751Y0001213853D01*
X0002757362Y0001295578D01*
X0002760701Y0001376821D01*
X0002811346Y0001376102D01*
X0002811448Y0001376102D01*
X0002995388Y0001377252D01*
X0002995001Y0000993794D01*
X0002995001Y0000993794D01*
G37*
X0002995001Y0000993794D02*
X0002985688Y0000981377D01*
X0002958267Y0000981377D01*
X0002956354Y0000980997D01*
X0002954732Y0000979913D01*
X0002953648Y0000978291D01*
X0002953267Y0000976388D01*
X0002952086Y0000401585D01*
X0002952462Y0000399670D01*
X0002953543Y0000398046D01*
X0002955163Y0000396959D01*
X0002957086Y0000396573D01*
X0002986117Y0000396573D01*
X0002995000Y0000387692D01*
X0002995000Y-0000002874D01*
X0002758520Y-0000002874D01*
X0002758149Y0000078754D01*
X0002758149Y0000163687D01*
X0002761116Y0000167643D01*
X0002763289Y0000168646D01*
X0002767458Y0000167256D01*
X0002790809Y0000145365D01*
X0002793985Y0000133366D01*
X0002795395Y0000131001D01*
X0002808387Y0000118796D01*
X0002809913Y0000117815D01*
X0002825266Y0000111515D01*
X0002827165Y0000111140D01*
X0002842125Y0000111140D01*
X0002844619Y0000111808D01*
X0002857612Y0000119288D01*
X0002858430Y0000119877D01*
X0002868667Y0000128931D01*
X0002869973Y0000130761D01*
X0002876665Y0000146903D01*
X0002877044Y0000148965D01*
X0002876651Y0000162351D01*
X0002876305Y0000164037D01*
X0002871187Y0000177029D01*
X0002870199Y0000178599D01*
X0002859963Y0000189622D01*
X0002858297Y0000190803D01*
X0002843791Y0000197126D01*
X0002821438Y0000219113D01*
X0002819866Y0000225402D01*
X0002821860Y0000229390D01*
X0002827636Y0000232416D01*
X0002889432Y0000233189D01*
X0002891341Y0000233593D01*
X0002892949Y0000234697D01*
X0002894013Y0000236333D01*
X0002894369Y0000238187D01*
X0002894369Y0000312992D01*
X0002893989Y0000314905D01*
X0002892905Y0000316526D01*
X0002891283Y0000317611D01*
X0002889431Y0000317991D01*
X0002797522Y0000319111D01*
X0002797910Y0001056499D01*
X0002888271Y0001057992D01*
X0002890178Y0001058405D01*
X0002891782Y0001059515D01*
X0002892839Y0001061155D01*
X0002893188Y0001062966D01*
X0002893582Y0001138556D01*
X0002893211Y0001140472D01*
X0002892136Y0001142099D01*
X0002890520Y0001143192D01*
X0002888612Y0001143582D01*
X0002823628Y0001143964D01*
X0002820103Y0001147238D01*
X0002818310Y0001150377D01*
X0002819113Y0001153790D01*
X0002841372Y0001176414D01*
X0002852936Y0001180751D01*
X0002854621Y0001181805D01*
X0002869976Y0001196372D01*
X0002871289Y0001198449D01*
X0002877194Y0001216560D01*
X0002877275Y0001219387D01*
X0002871763Y0001240253D01*
X0002870511Y0001242464D01*
X0002855943Y0001257425D01*
X0002854337Y0001258530D01*
X0002853226Y0001258861D01*
X0002830785Y0001262798D01*
X0002828707Y0001262724D01*
X0002814535Y0001259181D01*
X0002812547Y0001258171D01*
X0002798373Y0001246360D01*
X0002796969Y0001244467D01*
X0002788762Y0001225068D01*
X0002767049Y0001206299D01*
X0002765107Y0001205523D01*
X0002762050Y0001205930D01*
X0002759812Y0001207965D01*
X0002757751Y0001213853D01*
X0002757362Y0001295578D01*
X0002760701Y0001376821D01*
X0002811346Y0001376102D01*
X0002811448Y0001376102D01*
X0002995388Y0001377252D01*
X0002995001Y0000993794D01*
G36*
X0000232007Y0001298017D02*
X0000232007Y0001213084D01*
X0000229041Y0001209128D01*
X0000226867Y0001208125D01*
X0000222699Y0001209515D01*
X0000199348Y0001231406D01*
X0000196171Y0001243405D01*
X0000194761Y0001245770D01*
X0000181769Y0001257974D01*
X0000180244Y0001258956D01*
X0000164889Y0001265255D01*
X0000162992Y0001265629D01*
X0000148031Y0001265629D01*
X0000145536Y0001264962D01*
X0000132544Y0001257482D01*
X0000131726Y0001256894D01*
X0000121489Y0001247839D01*
X0000120184Y0001246009D01*
X0000113491Y0001229867D01*
X0000113111Y0001227805D01*
X0000113505Y0001214419D01*
X0000113851Y0001212734D01*
X0000118969Y0001199742D01*
X0000119958Y0001198172D01*
X0000130194Y0001187148D01*
X0000131860Y0001185967D01*
X0000146366Y0001179644D01*
X0000168718Y0001157658D01*
X0000170291Y0001151369D01*
X0000168297Y0001147380D01*
X0000162518Y0001144354D01*
X0000100723Y0001143582D01*
X0000098816Y0001143177D01*
X0000097207Y0001142073D01*
X0000096144Y0001140438D01*
X0000095787Y0001138582D01*
X0000095787Y0001063779D01*
X0000096168Y0001061866D01*
X0000097251Y0001060243D01*
X0000098874Y0001059160D01*
X0000100726Y0001058779D01*
X0000192635Y0001057658D01*
X0000192246Y0000320272D01*
X0000101885Y0000318778D01*
X0000099979Y0000318366D01*
X0000098375Y0000317256D01*
X0000097318Y0000315616D01*
X0000096968Y0000313805D01*
X0000096573Y0000238215D01*
X0000096945Y0000236299D01*
X0000098020Y0000234671D01*
X0000099637Y0000233579D01*
X0000101545Y0000233189D01*
X0000166528Y0000232806D01*
X0000170053Y0000229533D01*
X0000171847Y0000226394D01*
X0000171044Y0000222980D01*
X0000148785Y0000200356D01*
X0000137220Y0000196020D01*
X0000135535Y0000194965D01*
X0000120180Y0000180398D01*
X0000118867Y0000178321D01*
X0000112962Y0000160211D01*
X0000112882Y0000157384D01*
X0000118394Y0000136518D01*
X0000119645Y0000134307D01*
X0000134212Y0000119346D01*
X0000135820Y0000118241D01*
X0000136931Y0000117909D01*
X0000159372Y0000113972D01*
X0000161448Y0000114046D01*
X0000175622Y0000117590D01*
X0000177610Y0000118599D01*
X0000191782Y0000130410D01*
X0000193187Y0000132303D01*
X0000201395Y0000151703D01*
X0000223107Y0000170472D01*
X0000225048Y0000171248D01*
X0000228106Y0000170840D01*
X0000230344Y0000168806D01*
X0000232404Y0000162918D01*
X0000232794Y0000081192D01*
X0000229452Y-0000000142D01*
X0000156683Y-0000000510D01*
X-0000005231Y-0000000510D01*
X-0000004844Y0000382976D01*
X0000004468Y0000395393D01*
X0000031889Y0000395393D01*
X0000033803Y0000395774D01*
X0000035425Y0000396857D01*
X0000036509Y0000398480D01*
X0000036889Y0000400383D01*
X0000038070Y0000975186D01*
X0000037694Y0000977100D01*
X0000036613Y0000978725D01*
X0000034993Y0000979812D01*
X0000033070Y0000980196D01*
X0000004039Y0000980196D01*
X-0000004842Y0000989078D01*
X-0000004842Y0001379645D01*
X0000231635Y0001379645D01*
X0000232007Y0001298017D01*
X0000232007Y0001298017D01*
G37*
X0000232007Y0001298017D02*
X0000232007Y0001213084D01*
X0000229041Y0001209128D01*
X0000226867Y0001208125D01*
X0000222699Y0001209515D01*
X0000199348Y0001231406D01*
X0000196171Y0001243405D01*
X0000194761Y0001245770D01*
X0000181769Y0001257974D01*
X0000180244Y0001258956D01*
X0000164889Y0001265255D01*
X0000162992Y0001265629D01*
X0000148031Y0001265629D01*
X0000145536Y0001264962D01*
X0000132544Y0001257482D01*
X0000131726Y0001256894D01*
X0000121489Y0001247839D01*
X0000120184Y0001246009D01*
X0000113491Y0001229867D01*
X0000113111Y0001227805D01*
X0000113505Y0001214419D01*
X0000113851Y0001212734D01*
X0000118969Y0001199742D01*
X0000119958Y0001198172D01*
X0000130194Y0001187148D01*
X0000131860Y0001185967D01*
X0000146366Y0001179644D01*
X0000168718Y0001157658D01*
X0000170291Y0001151369D01*
X0000168297Y0001147380D01*
X0000162518Y0001144354D01*
X0000100723Y0001143582D01*
X0000098816Y0001143177D01*
X0000097207Y0001142073D01*
X0000096144Y0001140438D01*
X0000095787Y0001138582D01*
X0000095787Y0001063779D01*
X0000096168Y0001061866D01*
X0000097251Y0001060243D01*
X0000098874Y0001059160D01*
X0000100726Y0001058779D01*
X0000192635Y0001057658D01*
X0000192246Y0000320272D01*
X0000101885Y0000318778D01*
X0000099979Y0000318366D01*
X0000098375Y0000317256D01*
X0000097318Y0000315616D01*
X0000096968Y0000313805D01*
X0000096573Y0000238215D01*
X0000096945Y0000236299D01*
X0000098020Y0000234671D01*
X0000099637Y0000233579D01*
X0000101545Y0000233189D01*
X0000166528Y0000232806D01*
X0000170053Y0000229533D01*
X0000171847Y0000226394D01*
X0000171044Y0000222980D01*
X0000148785Y0000200356D01*
X0000137220Y0000196020D01*
X0000135535Y0000194965D01*
X0000120180Y0000180398D01*
X0000118867Y0000178321D01*
X0000112962Y0000160211D01*
X0000112882Y0000157384D01*
X0000118394Y0000136518D01*
X0000119645Y0000134307D01*
X0000134212Y0000119346D01*
X0000135820Y0000118241D01*
X0000136931Y0000117909D01*
X0000159372Y0000113972D01*
X0000161448Y0000114046D01*
X0000175622Y0000117590D01*
X0000177610Y0000118599D01*
X0000191782Y0000130410D01*
X0000193187Y0000132303D01*
X0000201395Y0000151703D01*
X0000223107Y0000170472D01*
X0000225048Y0000171248D01*
X0000228106Y0000170840D01*
X0000230344Y0000168806D01*
X0000232404Y0000162918D01*
X0000232794Y0000081192D01*
X0000229452Y-0000000142D01*
X0000156683Y-0000000510D01*
X-0000005231Y-0000000510D01*
X-0000004844Y0000382976D01*
X0000004468Y0000395393D01*
X0000031889Y0000395393D01*
X0000033803Y0000395774D01*
X0000035425Y0000396857D01*
X0000036509Y0000398480D01*
X0000036889Y0000400383D01*
X0000038070Y0000975186D01*
X0000037694Y0000977100D01*
X0000036613Y0000978725D01*
X0000034993Y0000979812D01*
X0000033070Y0000980196D01*
X0000004039Y0000980196D01*
X-0000004842Y0000989078D01*
X-0000004842Y0001379645D01*
X0000231635Y0001379645D01*
X0000232007Y0001298017D01*
G04 next file*
G04 #@! TF.GenerationSoftware,KiCad,Pcbnew,(2017-06-07 revision 51bed4bae)-makepkg*
G04 #@! TF.CreationDate,2017-06-11T00:06:54+02:00*
G04 #@! TF.ProjectId,Front_Panel_76x35_4conn,46726F6E745F50616E656C5F37367833,rev?*
G04 #@! TF.FileFunction,Soldermask,Top*
G04 #@! TF.FilePolarity,Negative*
G04 Gerber Fmt 4.6, Leading zero omitted, Abs format (unit mm)*
G04 Created by KiCad (PCBNEW (2017-06-07 revision 51bed4bae)-makepkg) date 06/11/17 00:06:54*
G01*
G04 APERTURE LIST*
G04 APERTURE END LIST*
D42*
D43*
X0002779996Y0001811398D02*
X0002778496Y0001808398D01*
X0002775496Y0001806898D01*
X0002748500Y0001806898D01*
X0002758998Y0001836895D02*
X0002779996Y0001836895D01*
X0002758998Y0001823397D02*
X0002775496Y0001823397D01*
X0002778496Y0001824896D01*
X0002779996Y0001827896D01*
X0002779996Y0001832395D01*
X0002778496Y0001835395D01*
X0002776996Y0001836895D01*
X0002758998Y0001847394D02*
X0002758998Y0001859391D01*
X0002779996Y0001851893D02*
X0002752999Y0001851893D01*
X0002750000Y0001853393D01*
X0002748500Y0001856392D01*
X0002748500Y0001859391D01*
X0002758998Y0001865390D02*
X0002758998Y0001877390D01*
X0002748500Y0001869891D02*
X0002775496Y0001869891D01*
X0002778496Y0001871391D01*
X0002779996Y0001874390D01*
X0002779996Y0001877390D01*
X0002778496Y0001899887D02*
X0002779996Y0001896886D01*
X0002779996Y0001890888D01*
X0002778496Y0001887889D01*
X0002775496Y0001886389D01*
X0002763498Y0001886389D01*
X0002760498Y0001887889D01*
X0002758998Y0001890888D01*
X0002758998Y0001896886D01*
X0002760498Y0001899887D01*
X0002763498Y0001901387D01*
X0002766497Y0001901387D01*
X0002769497Y0001886389D01*
X0002779996Y0001914885D02*
X0002748500Y0001914885D01*
X0002767996Y0001917885D02*
X0002779996Y0001926884D01*
X0002758998Y0001926884D02*
X0002770997Y0001914885D01*
D42*
X0002749925Y0001953538D02*
X0002748425Y0001955038D01*
X0002746925Y0001958037D01*
X0002746925Y0001965537D01*
X0002748425Y0001968535D01*
X0002749925Y0001970036D01*
X0002752924Y0001971536D01*
X0002755924Y0001971536D01*
X0002760423Y0001970036D01*
X0002778421Y0001952037D01*
X0002778421Y0001971536D01*
X0002746925Y0001991033D02*
X0002746925Y0001994033D01*
X0002748425Y0001997033D01*
X0002749925Y0001998533D01*
X0002752924Y0002000032D01*
X0002758923Y0002001532D01*
X0002766422Y0002001532D01*
X0002772422Y0002000032D01*
X0002775420Y0001998533D01*
X0002776921Y0001997033D01*
X0002778421Y0001994033D01*
X0002778421Y0001991033D01*
X0002776921Y0001988034D01*
X0002775420Y0001986534D01*
X0002772422Y0001985034D01*
X0002766422Y0001983534D01*
X0002758923Y0001983534D01*
X0002752924Y0001985034D01*
X0002749925Y0001986534D01*
X0002748425Y0001988034D01*
X0002746925Y0001991033D01*
X0002778421Y0002031527D02*
X0002778421Y0002013531D01*
X0002778421Y0002022530D02*
X0002746925Y0002022530D01*
X0002751424Y0002019530D01*
X0002754424Y0002016530D01*
X0002755924Y0002013531D01*
X0002746925Y0002042027D02*
X0002746925Y0002063024D01*
X0002778421Y0002049526D01*
X0002746925Y0002081022D02*
X0002746925Y0002084022D01*
X0002748425Y0002087021D01*
X0002749925Y0002088521D01*
X0002752924Y0002090021D01*
X0002758923Y0002091521D01*
X0002766422Y0002091521D01*
X0002772422Y0002090021D01*
X0002775420Y0002088521D01*
X0002776921Y0002087021D01*
X0002778421Y0002084022D01*
X0002778421Y0002081022D01*
X0002776921Y0002078023D01*
X0002775420Y0002076523D01*
X0002772422Y0002075022D01*
X0002766422Y0002073522D01*
X0002758923Y0002073522D01*
X0002752924Y0002075022D01*
X0002749925Y0002076523D01*
X0002748425Y0002078023D01*
X0002746925Y0002081022D01*
X0002746925Y0002118518D02*
X0002746925Y0002112518D01*
X0002748425Y0002109519D01*
X0002749925Y0002108019D01*
X0002754424Y0002105019D01*
X0002760423Y0002103519D01*
X0002772422Y0002103519D01*
X0002775420Y0002105019D01*
X0002776921Y0002106519D01*
X0002778421Y0002109519D01*
X0002778421Y0002115518D01*
X0002776921Y0002118518D01*
X0002775420Y0002120017D01*
X0002772422Y0002121517D01*
X0002764922Y0002121517D01*
X0002761923Y0002120017D01*
X0002760423Y0002118518D01*
X0002758923Y0002115518D01*
X0002758923Y0002109519D01*
X0002760423Y0002106519D01*
X0002761923Y0002105019D01*
X0002764922Y0002103519D01*
X0002778421Y0002151513D02*
X0002778421Y0002133516D01*
X0002778421Y0002142515D02*
X0002746925Y0002142515D01*
X0002751424Y0002139515D01*
X0002754424Y0002136515D01*
X0002755924Y0002133516D01*
X0002749925Y0002163512D02*
X0002748425Y0002165012D01*
X0002746925Y0002168011D01*
X0002746925Y0002175510D01*
X0002748425Y0002178510D01*
X0002749925Y0002180010D01*
X0002752924Y0002181510D01*
X0002755924Y0002181510D01*
X0002760423Y0002180010D01*
X0002778421Y0002162012D01*
X0002778421Y0002181510D01*
D43*
X0002213329Y0001619216D02*
X0002234326Y0001619216D01*
X0002220828Y0001587720D01*
X0002259823Y0001619216D02*
X0002253824Y0001619216D01*
X0002250824Y0001617716D01*
X0002249325Y0001616216D01*
X0002246325Y0001611717D01*
X0002244825Y0001605718D01*
X0002244825Y0001593719D01*
X0002246325Y0001590719D01*
X0002247825Y0001589220D01*
X0002250824Y0001587720D01*
X0002256824Y0001587720D01*
X0002259823Y0001589220D01*
X0002261323Y0001590719D01*
X0002262823Y0001593719D01*
X0002262823Y0001601218D01*
X0002261323Y0001604218D01*
X0002259823Y0001605718D01*
X0002256824Y0001607216D01*
X0002250824Y0001607216D01*
X0002247825Y0001605718D01*
X0002246325Y0001604218D01*
X0002244825Y0001601218D01*
X0002273322Y0001587720D02*
X0002289820Y0001608717D01*
X0002273322Y0001608717D02*
X0002289820Y0001587720D01*
X0002298818Y0001619216D02*
X0002318316Y0001619216D01*
X0002307817Y0001607216D01*
X0002312317Y0001607216D01*
X0002315316Y0001605718D01*
X0002316816Y0001604218D01*
X0002318316Y0001601218D01*
X0002318316Y0001593719D01*
X0002316816Y0001590719D01*
X0002315316Y0001589220D01*
X0002312317Y0001587720D01*
X0002303318Y0001587720D01*
X0002300318Y0001589220D01*
X0002298818Y0001590719D01*
X0002346812Y0001619216D02*
X0002331814Y0001619216D01*
X0002330314Y0001604218D01*
X0002331814Y0001605718D01*
X0002334814Y0001607216D01*
X0002342313Y0001607216D01*
X0002345313Y0001605718D01*
X0002346812Y0001604218D01*
X0002348312Y0001601218D01*
X0002348312Y0001593719D01*
X0002346812Y0001590719D01*
X0002345313Y0001589220D01*
X0002342313Y0001587720D01*
X0002334814Y0001587720D01*
X0002331814Y0001589220D01*
X0002330314Y0001590719D01*
X0002358811Y0001587720D02*
X0002375309Y0001608717D01*
X0002358811Y0001608717D02*
X0002375309Y0001587720D01*
X0002403805Y0001587720D02*
X0002385807Y0001587720D01*
X0002394806Y0001587720D02*
X0002394806Y0001619216D01*
X0002391807Y0001614716D01*
X0002388807Y0001611717D01*
X0002385807Y0001610217D01*
X0002423303Y0001619216D02*
X0002426302Y0001619216D01*
X0002429302Y0001617716D01*
X0002430802Y0001616216D01*
X0002432302Y0001613216D01*
X0002433802Y0001607216D01*
X0002433802Y0001599718D01*
X0002432302Y0001593719D01*
X0002430802Y0001590719D01*
X0002429302Y0001589220D01*
X0002426302Y0001587720D01*
X0002423303Y0001587720D01*
X0002420303Y0001589220D01*
X0002418803Y0001590719D01*
X0002417304Y0001593719D01*
X0002415804Y0001599718D01*
X0002415804Y0001607216D01*
X0002417304Y0001613216D01*
X0002418803Y0001616216D01*
X0002420303Y0001617716D01*
X0002423303Y0001619216D01*
X0002453299Y0001619216D02*
X0002456299Y0001619216D01*
X0002459298Y0001617716D01*
X0002460798Y0001616216D01*
X0002462298Y0001613216D01*
X0002463798Y0001607216D01*
X0002463798Y0001599718D01*
X0002462298Y0001593719D01*
X0002460798Y0001590719D01*
X0002459298Y0001589220D01*
X0002456299Y0001587720D01*
X0002453299Y0001587720D01*
X0002450299Y0001589220D01*
X0002448800Y0001590719D01*
X0002447300Y0001593719D01*
X0002445800Y0001599718D01*
X0002445800Y0001607216D01*
X0002447300Y0001613216D01*
X0002448800Y0001616216D01*
X0002450299Y0001617716D01*
X0002453299Y0001619216D01*
X0002499793Y0001589220D02*
X0002502793Y0001587720D01*
X0002508792Y0001587720D01*
X0002511792Y0001589220D01*
X0002513292Y0001592218D01*
X0002513292Y0001593719D01*
X0002511792Y0001596719D01*
X0002508792Y0001598218D01*
X0002504293Y0001598218D01*
X0002501293Y0001599718D01*
X0002499793Y0001602718D01*
X0002499793Y0001604218D01*
X0002501293Y0001607216D01*
X0002504293Y0001608717D01*
X0002508792Y0001608717D01*
X0002511792Y0001607216D01*
X0002526790Y0001608717D02*
X0002526790Y0001577221D01*
X0002526790Y0001607216D02*
X0002529789Y0001608717D01*
X0002535789Y0001608717D01*
X0002538788Y0001607216D01*
X0002540288Y0001605718D01*
X0002541788Y0001602718D01*
X0002541788Y0001593719D01*
X0002540288Y0001590719D01*
X0002538788Y0001589220D01*
X0002535789Y0001587720D01*
X0002529789Y0001587720D01*
X0002526790Y0001589220D01*
X0002559786Y0001587720D02*
X0002556786Y0001589220D01*
X0002555286Y0001592218D01*
X0002555286Y0001619216D01*
X0002571783Y0001587720D02*
X0002571783Y0001608717D01*
X0002571783Y0001619216D02*
X0002570284Y0001617716D01*
X0002571783Y0001616216D01*
X0002573284Y0001617716D01*
X0002571783Y0001619216D01*
X0002571783Y0001616216D01*
X0002582283Y0001608717D02*
X0002594281Y0001608717D01*
X0002586782Y0001619216D02*
X0002586782Y0001592218D01*
X0002588282Y0001589220D01*
X0002591282Y0001587720D01*
X0002594281Y0001587720D01*
X0002627277Y0001589220D02*
X0002630276Y0001587720D01*
X0002636275Y0001587720D01*
X0002639276Y0001589220D01*
X0002640776Y0001592218D01*
X0002640776Y0001593719D01*
X0002639276Y0001596719D01*
X0002636275Y0001598218D01*
X0002631777Y0001598218D01*
X0002628777Y0001599718D01*
X0002627277Y0001602718D01*
X0002627277Y0001604218D01*
X0002628777Y0001607216D01*
X0002631777Y0001608717D01*
X0002636275Y0001608717D01*
X0002639276Y0001607216D01*
X0002654274Y0001587720D02*
X0002654274Y0001619216D01*
X0002667772Y0001587720D02*
X0002667772Y0001604218D01*
X0002666272Y0001607216D01*
X0002663273Y0001608717D01*
X0002658773Y0001608717D01*
X0002655774Y0001607216D01*
X0002654274Y0001605718D01*
X0002694768Y0001589220D02*
X0002691769Y0001587720D01*
X0002685770Y0001587720D01*
X0002682770Y0001589220D01*
X0002681271Y0001592218D01*
X0002681271Y0001604218D01*
X0002682770Y0001607216D01*
X0002685770Y0001608717D01*
X0002691769Y0001608717D01*
X0002694768Y0001607216D01*
X0002696269Y0001604218D01*
X0002696269Y0001601218D01*
X0002681271Y0001598218D01*
X0002714266Y0001587720D02*
X0002711267Y0001589220D01*
X0002709767Y0001592218D01*
X0002709767Y0001619216D01*
X0002730764Y0001587720D02*
X0002727765Y0001589220D01*
X0002726265Y0001592218D01*
X0002726265Y0001619216D01*
D44*
X0001227559Y0002331102D02*
X0001227559Y0002174803D01*
D45*
X0001263385Y0002253149D02*
G75*
G03X0001263385Y0002253149I-0000150787D01*
G01*
D46*
X0001217322Y0002253149D02*
G75*
G03X0001217322Y0002253149I-0000104724D01*
G01*
D44*
X0000715748Y0002331102D02*
X0000715748Y0002174803D01*
D45*
X0000751574Y0002253149D02*
G75*
G03X0000751574Y0002253149I-0000150787D01*
G01*
D46*
X0000705511Y0002253149D02*
G75*
G03X0000705511Y0002253149I-0000104724D01*
G01*
D44*
X0002526771Y0002331102D02*
X0002526771Y0002174803D01*
D45*
X0002562598Y0002253149D02*
G75*
G03X0002562598Y0002253149I-0000150787D01*
G01*
D46*
X0002516535Y0002253149D02*
G75*
G03X0002516535Y0002253149I-0000104724D01*
G01*
D44*
X0002014959Y0002331102D02*
X0002014959Y0002174803D01*
D45*
X0002050787Y0002253149D02*
G75*
G03X0002050787Y0002253149I-0000150787D01*
G01*
D46*
X0002004724Y0002253149D02*
G75*
G03X0002004724Y0002253149I-0000104724D01*
G01*
D47*
G36*
X0002795462Y0002864689D02*
X0002785392Y0002790038D01*
X0000195619Y0002789253D01*
X0000196665Y0002866649D01*
X0002795462Y0002864689D01*
X0002795462Y0002864689D01*
G37*
X0002795462Y0002864689D02*
X0002785392Y0002790038D01*
X0000195619Y0002789253D01*
X0000196665Y0002866649D01*
X0002795462Y0002864689D01*
G36*
X0002767811Y0001485710D02*
X0000240410Y0001486494D01*
X0000240062Y0001561930D01*
X0002767463Y0001562714D01*
X0002767811Y0001485710D01*
X0002767811Y0001485710D01*
G37*
X0002767811Y0001485710D02*
X0000240410Y0001486494D01*
X0000240062Y0001561930D01*
X0002767463Y0001562714D01*
X0002767811Y0001485710D01*
G36*
X0003000907Y0002481983D02*
X0002991594Y0002469566D01*
X0002964173Y0002469566D01*
X0002962259Y0002469186D01*
X0002960637Y0002468102D01*
X0002959553Y0002466480D01*
X0002959172Y0002464577D01*
X0002957992Y0001889774D01*
X0002958368Y0001887859D01*
X0002959449Y0001886235D01*
X0002961069Y0001885147D01*
X0002962992Y0001884762D01*
X0002992023Y0001884762D01*
X0003000905Y0001875881D01*
X0003000905Y0001485314D01*
X0002764426Y0001485314D01*
X0002764055Y0001566943D01*
X0002764055Y0001651876D01*
X0002767021Y0001655832D01*
X0002769194Y0001656834D01*
X0002773363Y0001655445D01*
X0002796713Y0001633554D01*
X0002799890Y0001621555D01*
X0002801301Y0001619190D01*
X0002814293Y0001606985D01*
X0002815818Y0001606003D01*
X0002831173Y0001599704D01*
X0002833070Y0001599330D01*
X0002848031Y0001599330D01*
X0002850526Y0001599997D01*
X0002863518Y0001607477D01*
X0002864336Y0001608066D01*
X0002874572Y0001617121D01*
X0002875878Y0001618951D01*
X0002882571Y0001635092D01*
X0002882950Y0001637154D01*
X0002882556Y0001650539D01*
X0002882210Y0001652226D01*
X0002877092Y0001665218D01*
X0002876104Y0001666788D01*
X0002865868Y0001677811D01*
X0002864202Y0001678992D01*
X0002849696Y0001685315D01*
X0002827344Y0001707301D01*
X0002825771Y0001713590D01*
X0002827765Y0001717579D01*
X0002833543Y0001720604D01*
X0002895338Y0001721378D01*
X0002897246Y0001721782D01*
X0002898855Y0001722886D01*
X0002899918Y0001724522D01*
X0002900275Y0001726376D01*
X0002900275Y0001801181D01*
X0002899895Y0001803094D01*
X0002898811Y0001804715D01*
X0002897189Y0001805800D01*
X0002895336Y0001806180D01*
X0002803427Y0001807301D01*
X0002803816Y0002544688D01*
X0002894177Y0002546180D01*
X0002896083Y0002546593D01*
X0002897687Y0002547704D01*
X0002898744Y0002549344D01*
X0002899094Y0002551155D01*
X0002899488Y0002626745D01*
X0002899117Y0002628660D01*
X0002898042Y0002630288D01*
X0002896425Y0002631381D01*
X0002894517Y0002631771D01*
X0002829534Y0002632153D01*
X0002826009Y0002635427D01*
X0002824215Y0002638566D01*
X0002825018Y0002641979D01*
X0002847277Y0002664603D01*
X0002858842Y0002668940D01*
X0002860527Y0002669994D01*
X0002875882Y0002684561D01*
X0002877194Y0002686638D01*
X0002883100Y0002704749D01*
X0002883180Y0002707576D01*
X0002877668Y0002728442D01*
X0002876417Y0002730653D01*
X0002861850Y0002745614D01*
X0002860242Y0002746719D01*
X0002859131Y0002747050D01*
X0002836690Y0002750987D01*
X0002834614Y0002750913D01*
X0002820440Y0002747370D01*
X0002818452Y0002746360D01*
X0002804279Y0002734549D01*
X0002802875Y0002732656D01*
X0002794667Y0002713257D01*
X0002772954Y0002694488D01*
X0002771014Y0002693712D01*
X0002767956Y0002694119D01*
X0002765718Y0002696153D01*
X0002763656Y0002702042D01*
X0002763268Y0002783767D01*
X0002766606Y0002865009D01*
X0002817251Y0002864291D01*
X0002817353Y0002864291D01*
X0003001294Y0002865441D01*
X0003000907Y0002481983D01*
X0003000907Y0002481983D01*
G37*
X0003000907Y0002481983D02*
X0002991594Y0002469566D01*
X0002964173Y0002469566D01*
X0002962259Y0002469186D01*
X0002960637Y0002468102D01*
X0002959553Y0002466480D01*
X0002959172Y0002464577D01*
X0002957992Y0001889774D01*
X0002958368Y0001887859D01*
X0002959449Y0001886235D01*
X0002961069Y0001885147D01*
X0002962992Y0001884762D01*
X0002992023Y0001884762D01*
X0003000905Y0001875881D01*
X0003000905Y0001485314D01*
X0002764426Y0001485314D01*
X0002764055Y0001566943D01*
X0002764055Y0001651876D01*
X0002767021Y0001655832D01*
X0002769194Y0001656834D01*
X0002773363Y0001655445D01*
X0002796713Y0001633554D01*
X0002799890Y0001621555D01*
X0002801301Y0001619190D01*
X0002814293Y0001606985D01*
X0002815818Y0001606003D01*
X0002831173Y0001599704D01*
X0002833070Y0001599330D01*
X0002848031Y0001599330D01*
X0002850526Y0001599997D01*
X0002863518Y0001607477D01*
X0002864336Y0001608066D01*
X0002874572Y0001617121D01*
X0002875878Y0001618951D01*
X0002882571Y0001635092D01*
X0002882950Y0001637154D01*
X0002882556Y0001650539D01*
X0002882210Y0001652226D01*
X0002877092Y0001665218D01*
X0002876104Y0001666788D01*
X0002865868Y0001677811D01*
X0002864202Y0001678992D01*
X0002849696Y0001685315D01*
X0002827344Y0001707301D01*
X0002825771Y0001713590D01*
X0002827765Y0001717579D01*
X0002833543Y0001720604D01*
X0002895338Y0001721378D01*
X0002897246Y0001721782D01*
X0002898855Y0001722886D01*
X0002899918Y0001724522D01*
X0002900275Y0001726376D01*
X0002900275Y0001801181D01*
X0002899895Y0001803094D01*
X0002898811Y0001804715D01*
X0002897189Y0001805800D01*
X0002895336Y0001806180D01*
X0002803427Y0001807301D01*
X0002803816Y0002544688D01*
X0002894177Y0002546180D01*
X0002896083Y0002546593D01*
X0002897687Y0002547704D01*
X0002898744Y0002549344D01*
X0002899094Y0002551155D01*
X0002899488Y0002626745D01*
X0002899117Y0002628660D01*
X0002898042Y0002630288D01*
X0002896425Y0002631381D01*
X0002894517Y0002631771D01*
X0002829534Y0002632153D01*
X0002826009Y0002635427D01*
X0002824215Y0002638566D01*
X0002825018Y0002641979D01*
X0002847277Y0002664603D01*
X0002858842Y0002668940D01*
X0002860527Y0002669994D01*
X0002875882Y0002684561D01*
X0002877194Y0002686638D01*
X0002883100Y0002704749D01*
X0002883180Y0002707576D01*
X0002877668Y0002728442D01*
X0002876417Y0002730653D01*
X0002861850Y0002745614D01*
X0002860242Y0002746719D01*
X0002859131Y0002747050D01*
X0002836690Y0002750987D01*
X0002834614Y0002750913D01*
X0002820440Y0002747370D01*
X0002818452Y0002746360D01*
X0002804279Y0002734549D01*
X0002802875Y0002732656D01*
X0002794667Y0002713257D01*
X0002772954Y0002694488D01*
X0002771014Y0002693712D01*
X0002767956Y0002694119D01*
X0002765718Y0002696153D01*
X0002763656Y0002702042D01*
X0002763268Y0002783767D01*
X0002766606Y0002865009D01*
X0002817251Y0002864291D01*
X0002817353Y0002864291D01*
X0003001294Y0002865441D01*
X0003000907Y0002481983D01*
G36*
X0000237913Y0002786206D02*
X0000237913Y0002701272D01*
X0000234946Y0002697317D01*
X0000232773Y0002696314D01*
X0000228604Y0002697704D01*
X0000205253Y0002719595D01*
X0000202077Y0002731594D01*
X0000200667Y0002733959D01*
X0000187675Y0002746163D01*
X0000186149Y0002747145D01*
X0000170795Y0002753444D01*
X0000168897Y0002753818D01*
X0000153937Y0002753818D01*
X0000151442Y0002753152D01*
X0000138450Y0002745671D01*
X0000137632Y0002745082D01*
X0000127395Y0002736028D01*
X0000126090Y0002734198D01*
X0000119397Y0002718056D01*
X0000119017Y0002715993D01*
X0000119411Y0002702608D01*
X0000119757Y0002700923D01*
X0000124875Y0002687931D01*
X0000125863Y0002686361D01*
X0000136099Y0002675337D01*
X0000137765Y0002674156D01*
X0000152271Y0002667833D01*
X0000174624Y0002645847D01*
X0000176196Y0002639558D01*
X0000174202Y0002635569D01*
X0000168425Y0002632543D01*
X0000106630Y0002631771D01*
X0000104721Y0002631366D01*
X0000103113Y0002630262D01*
X0000102049Y0002628627D01*
X0000101692Y0002626771D01*
X0000101692Y0002551968D01*
X0000102073Y0002550055D01*
X0000103156Y0002548431D01*
X0000104779Y0002547349D01*
X0000106631Y0002546968D01*
X0000198540Y0002545846D01*
X0000198152Y0001808461D01*
X0000107791Y0001806967D01*
X0000105883Y0001806555D01*
X0000104280Y0001805445D01*
X0000103223Y0001803805D01*
X0000102874Y0001801993D01*
X0000102480Y0001726404D01*
X0000102851Y0001724488D01*
X0000103926Y0001722860D01*
X0000105542Y0001721768D01*
X0000107450Y0001721378D01*
X0000172433Y0001720995D01*
X0000175959Y0001717722D01*
X0000177752Y0001714583D01*
X0000176949Y0001711169D01*
X0000154690Y0001688544D01*
X0000143126Y0001684209D01*
X0000141440Y0001683154D01*
X0000126086Y0001668587D01*
X0000124773Y0001666510D01*
X0000118867Y0001648400D01*
X0000118787Y0001645572D01*
X0000124299Y0001624707D01*
X0000125551Y0001622495D01*
X0000140118Y0001607535D01*
X0000141725Y0001606430D01*
X0000142836Y0001606098D01*
X0000165276Y0001602161D01*
X0000167353Y0001602234D01*
X0000181527Y0001605779D01*
X0000183515Y0001606788D01*
X0000197689Y0001618599D01*
X0000199093Y0001620492D01*
X0000207300Y0001639892D01*
X0000229013Y0001658661D01*
X0000230954Y0001659437D01*
X0000234012Y0001659029D01*
X0000236250Y0001656995D01*
X0000238311Y0001651107D01*
X0000238700Y0001569381D01*
X0000235357Y0001488046D01*
X0000162588Y0001487676D01*
X0000000674Y0001487676D01*
X0000001061Y0001871165D01*
X0000010374Y0001883582D01*
X0000037795Y0001883582D01*
X0000039708Y0001883962D01*
X0000041330Y0001885047D01*
X0000042414Y0001886669D01*
X0000042795Y0001888572D01*
X0000043976Y0002463375D01*
X0000043598Y0002465289D01*
X0000042519Y0002466914D01*
X0000040899Y0002468001D01*
X0000038976Y0002468385D01*
X0000009945Y0002468385D01*
X0000001062Y0002477267D01*
X0000001062Y0002867834D01*
X0000237542Y0002867834D01*
X0000237913Y0002786206D01*
X0000237913Y0002786206D01*
G37*
X0000237913Y0002786206D02*
X0000237913Y0002701272D01*
X0000234946Y0002697317D01*
X0000232773Y0002696314D01*
X0000228604Y0002697704D01*
X0000205253Y0002719595D01*
X0000202077Y0002731594D01*
X0000200667Y0002733959D01*
X0000187675Y0002746163D01*
X0000186149Y0002747145D01*
X0000170795Y0002753444D01*
X0000168897Y0002753818D01*
X0000153937Y0002753818D01*
X0000151442Y0002753152D01*
X0000138450Y0002745671D01*
X0000137632Y0002745082D01*
X0000127395Y0002736028D01*
X0000126090Y0002734198D01*
X0000119397Y0002718056D01*
X0000119017Y0002715993D01*
X0000119411Y0002702608D01*
X0000119757Y0002700923D01*
X0000124875Y0002687931D01*
X0000125863Y0002686361D01*
X0000136099Y0002675337D01*
X0000137765Y0002674156D01*
X0000152271Y0002667833D01*
X0000174624Y0002645847D01*
X0000176196Y0002639558D01*
X0000174202Y0002635569D01*
X0000168425Y0002632543D01*
X0000106630Y0002631771D01*
X0000104721Y0002631366D01*
X0000103113Y0002630262D01*
X0000102049Y0002628627D01*
X0000101692Y0002626771D01*
X0000101692Y0002551968D01*
X0000102073Y0002550055D01*
X0000103156Y0002548431D01*
X0000104779Y0002547349D01*
X0000106631Y0002546968D01*
X0000198540Y0002545846D01*
X0000198152Y0001808461D01*
X0000107791Y0001806967D01*
X0000105883Y0001806555D01*
X0000104280Y0001805445D01*
X0000103223Y0001803805D01*
X0000102874Y0001801993D01*
X0000102480Y0001726404D01*
X0000102851Y0001724488D01*
X0000103926Y0001722860D01*
X0000105542Y0001721768D01*
X0000107450Y0001721378D01*
X0000172433Y0001720995D01*
X0000175959Y0001717722D01*
X0000177752Y0001714583D01*
X0000176949Y0001711169D01*
X0000154690Y0001688544D01*
X0000143126Y0001684209D01*
X0000141440Y0001683154D01*
X0000126086Y0001668587D01*
X0000124773Y0001666510D01*
X0000118867Y0001648400D01*
X0000118787Y0001645572D01*
X0000124299Y0001624707D01*
X0000125551Y0001622495D01*
X0000140118Y0001607535D01*
X0000141725Y0001606430D01*
X0000142836Y0001606098D01*
X0000165276Y0001602161D01*
X0000167353Y0001602234D01*
X0000181527Y0001605779D01*
X0000183515Y0001606788D01*
X0000197689Y0001618599D01*
X0000199093Y0001620492D01*
X0000207300Y0001639892D01*
X0000229013Y0001658661D01*
X0000230954Y0001659437D01*
X0000234012Y0001659029D01*
X0000236250Y0001656995D01*
X0000238311Y0001651107D01*
X0000238700Y0001569381D01*
X0000235357Y0001488046D01*
X0000162588Y0001487676D01*
X0000000674Y0001487676D01*
X0000001061Y0001871165D01*
X0000010374Y0001883582D01*
X0000037795Y0001883582D01*
X0000039708Y0001883962D01*
X0000041330Y0001885047D01*
X0000042414Y0001886669D01*
X0000042795Y0001888572D01*
X0000043976Y0002463375D01*
X0000043598Y0002465289D01*
X0000042519Y0002466914D01*
X0000040899Y0002468001D01*
X0000038976Y0002468385D01*
X0000009945Y0002468385D01*
X0000001062Y0002477267D01*
X0000001062Y0002867834D01*
X0000237542Y0002867834D01*
X0000237913Y0002786206D01*
M02*