%MOIN*%
%OFA0B0*%
%FSLAX46Y46*%
%IPPOS*%
%LPD*%
%ADD10C,0.005905511811023622*%
%ADD11C,0.0039370078740157488*%
%ADD12C,0.027559055118110236*%
%ADD13C,0.053149606299212608*%
%ADD14C,0.11811023622047245*%
%ADD15C,0.01*%
%ADD26C,0.005905511811023622*%
%ADD27C,0.011811023622047244*%
%ADD28C,0.0039370078740157488*%
%ADD29C,0.027559055118110236*%
%ADD30C,0.053149606299212608*%
%ADD31C,0.11811023622047245*%
%ADD32C,0.01*%
%ADD43C,0.005905511811023622*%
%ADD44C,0.011811023622047244*%
%ADD45C,0.0039370078740157488*%
%ADD46C,0.027559055118110236*%
%ADD47C,0.053149606299212608*%
%ADD48C,0.11811023622047245*%
%ADD49C,0.01*%
%LPD*%
G01*
D10*
D11*
X0000285179Y0004006599D02*
X0000273368Y0004025346D01*
X0000264932Y0004006599D02*
X0000264932Y0004045969D01*
X0000278430Y0004045969D01*
X0000281805Y0004044094D01*
X0000283492Y0004042219D01*
X0000285179Y0004038470D01*
X0000285179Y0004032845D01*
X0000283492Y0004029096D01*
X0000281805Y0004027221D01*
X0000278430Y0004025346D01*
X0000264932Y0004025346D01*
X0000312176Y0004027221D02*
X0000300365Y0004027221D01*
X0000300365Y0004006599D02*
X0000300365Y0004045969D01*
X0000317238Y0004045969D01*
X0000352671Y0004045969D02*
X0000372918Y0004045969D01*
X0000362795Y0004006599D02*
X0000362795Y0004045969D01*
X0000384730Y0004006599D02*
X0000384730Y0004032845D01*
X0000384730Y0004025346D02*
X0000386417Y0004029096D01*
X0000388104Y0004030971D01*
X0000391479Y0004032845D01*
X0000394853Y0004032845D01*
X0000421850Y0004006599D02*
X0000421850Y0004027221D01*
X0000420163Y0004030971D01*
X0000416788Y0004032845D01*
X0000410039Y0004032845D01*
X0000406664Y0004030971D01*
X0000421850Y0004008473D02*
X0000418475Y0004006599D01*
X0000410039Y0004006599D01*
X0000406664Y0004008473D01*
X0000404977Y0004012223D01*
X0000404977Y0004015973D01*
X0000406664Y0004019722D01*
X0000410039Y0004021597D01*
X0000418475Y0004021597D01*
X0000421850Y0004023472D01*
X0000438723Y0004032845D02*
X0000438723Y0004006599D01*
X0000438723Y0004029096D02*
X0000440410Y0004030971D01*
X0000443785Y0004032845D01*
X0000448847Y0004032845D01*
X0000452221Y0004030971D01*
X0000453908Y0004027221D01*
X0000453908Y0004006599D01*
X0000469094Y0004008473D02*
X0000472469Y0004006599D01*
X0000479218Y0004006599D01*
X0000482592Y0004008473D01*
X0000484280Y0004012223D01*
X0000484280Y0004014098D01*
X0000482592Y0004017847D01*
X0000479218Y0004019722D01*
X0000474156Y0004019722D01*
X0000470781Y0004021597D01*
X0000469094Y0004025346D01*
X0000469094Y0004027221D01*
X0000470781Y0004030971D01*
X0000474156Y0004032845D01*
X0000479218Y0004032845D01*
X0000482592Y0004030971D01*
X0000514651Y0004008473D02*
X0000511276Y0004006599D01*
X0000504527Y0004006599D01*
X0000501152Y0004008473D01*
X0000499465Y0004010348D01*
X0000497778Y0004014098D01*
X0000497778Y0004025346D01*
X0000499465Y0004029096D01*
X0000501152Y0004030971D01*
X0000504527Y0004032845D01*
X0000511276Y0004032845D01*
X0000514651Y0004030971D01*
X0000543335Y0004008473D02*
X0000539960Y0004006599D01*
X0000533211Y0004006599D01*
X0000529836Y0004008473D01*
X0000528149Y0004012223D01*
X0000528149Y0004027221D01*
X0000529836Y0004030971D01*
X0000533211Y0004032845D01*
X0000539960Y0004032845D01*
X0000543335Y0004030971D01*
X0000545022Y0004027221D01*
X0000545022Y0004023472D01*
X0000528149Y0004019722D01*
X0000560208Y0004006599D02*
X0000560208Y0004032845D01*
X0000560208Y0004045969D02*
X0000558520Y0004044094D01*
X0000560208Y0004042219D01*
X0000561895Y0004044094D01*
X0000560208Y0004045969D01*
X0000560208Y0004042219D01*
X0000573706Y0004032845D02*
X0000582142Y0004006599D01*
X0000590579Y0004032845D01*
X0000617575Y0004008473D02*
X0000614201Y0004006599D01*
X0000607452Y0004006599D01*
X0000604077Y0004008473D01*
X0000602390Y0004012223D01*
X0000602390Y0004027221D01*
X0000604077Y0004030971D01*
X0000607452Y0004032845D01*
X0000614201Y0004032845D01*
X0000617575Y0004030971D01*
X0000619263Y0004027221D01*
X0000619263Y0004023472D01*
X0000602390Y0004019722D01*
X0000634448Y0004006599D02*
X0000634448Y0004032845D01*
X0000634448Y0004025346D02*
X0000636136Y0004029096D01*
X0000637823Y0004030971D01*
X0000641197Y0004032845D01*
X0000644572Y0004032845D01*
X0000656383Y0004010348D02*
X0000658070Y0004008473D01*
X0000656383Y0004006599D01*
X0000654696Y0004008473D01*
X0000656383Y0004010348D01*
X0000656383Y0004006599D01*
X0000656383Y0004030971D02*
X0000658070Y0004029096D01*
X0000656383Y0004027221D01*
X0000654696Y0004029096D01*
X0000656383Y0004030971D01*
X0000656383Y0004027221D01*
X0000717125Y0004006599D02*
X0000700253Y0004006599D01*
X0000700253Y0004045969D01*
X0000728937Y0004006599D02*
X0000728937Y0004032845D01*
X0000728937Y0004045969D02*
X0000727249Y0004044094D01*
X0000728937Y0004042219D01*
X0000730624Y0004044094D01*
X0000728937Y0004045969D01*
X0000728937Y0004042219D01*
X0000745809Y0004006599D02*
X0000745809Y0004032845D01*
X0000745809Y0004029096D02*
X0000747497Y0004030971D01*
X0000750871Y0004032845D01*
X0000755933Y0004032845D01*
X0000759308Y0004030971D01*
X0000760995Y0004027221D01*
X0000760995Y0004006599D01*
X0000760995Y0004027221D02*
X0000762682Y0004030971D01*
X0000766057Y0004032845D01*
X0000771119Y0004032845D01*
X0000774493Y0004030971D01*
X0000776181Y0004027221D01*
X0000776181Y0004006599D01*
X0000806552Y0004008473D02*
X0000803177Y0004006599D01*
X0000796428Y0004006599D01*
X0000793053Y0004008473D01*
X0000791366Y0004012223D01*
X0000791366Y0004027221D01*
X0000793053Y0004030971D01*
X0000796428Y0004032845D01*
X0000803177Y0004032845D01*
X0000806552Y0004030971D01*
X0000808239Y0004027221D01*
X0000808239Y0004023472D01*
X0000791366Y0004019722D01*
X0000850421Y0004006599D02*
X0000850421Y0004045969D01*
X0000862232Y0004017847D01*
X0000874043Y0004045969D01*
X0000874043Y0004006599D01*
X0000890916Y0004006599D02*
X0000890916Y0004032845D01*
X0000890916Y0004045969D02*
X0000889229Y0004044094D01*
X0000890916Y0004042219D01*
X0000892604Y0004044094D01*
X0000890916Y0004045969D01*
X0000890916Y0004042219D01*
X0000922975Y0004008473D02*
X0000919600Y0004006599D01*
X0000912851Y0004006599D01*
X0000909476Y0004008473D01*
X0000907789Y0004010348D01*
X0000906102Y0004014098D01*
X0000906102Y0004025346D01*
X0000907789Y0004029096D01*
X0000909476Y0004030971D01*
X0000912851Y0004032845D01*
X0000919600Y0004032845D01*
X0000922975Y0004030971D01*
X0000938160Y0004006599D02*
X0000938160Y0004032845D01*
X0000938160Y0004025346D02*
X0000939848Y0004029096D01*
X0000941535Y0004030971D01*
X0000944910Y0004032845D01*
X0000948284Y0004032845D01*
X0000965157Y0004006599D02*
X0000961782Y0004008473D01*
X0000960095Y0004010348D01*
X0000958408Y0004014098D01*
X0000958408Y0004025346D01*
X0000960095Y0004029096D01*
X0000961782Y0004030971D01*
X0000965157Y0004032845D01*
X0000970219Y0004032845D01*
X0000973593Y0004030971D01*
X0000975281Y0004029096D01*
X0000976968Y0004025346D01*
X0000976968Y0004014098D01*
X0000975281Y0004010348D01*
X0000973593Y0004008473D01*
X0000970219Y0004006599D01*
X0000965157Y0004006599D01*
X0000990466Y0004008473D02*
X0000993841Y0004006599D01*
X0001000590Y0004006599D01*
X0001003965Y0004008473D01*
X0001005652Y0004012223D01*
X0001005652Y0004014098D01*
X0001003965Y0004017847D01*
X0001000590Y0004019722D01*
X0000995528Y0004019722D01*
X0000992154Y0004021597D01*
X0000990466Y0004025346D01*
X0000990466Y0004027221D01*
X0000992154Y0004030971D01*
X0000995528Y0004032845D01*
X0001000590Y0004032845D01*
X0001003965Y0004030971D01*
X0001017463Y0004032845D02*
X0001025899Y0004006599D01*
X0001034336Y0004032845D02*
X0001025899Y0004006599D01*
X0001022525Y0003997225D01*
X0001020837Y0003995350D01*
X0001017463Y0003993475D01*
X0001046147Y0004008473D02*
X0001049521Y0004006599D01*
X0001056271Y0004006599D01*
X0001059645Y0004008473D01*
X0001061332Y0004012223D01*
X0001061332Y0004014098D01*
X0001059645Y0004017847D01*
X0001056271Y0004019722D01*
X0001051209Y0004019722D01*
X0001047834Y0004021597D01*
X0001046147Y0004025346D01*
X0001046147Y0004027221D01*
X0001047834Y0004030971D01*
X0001051209Y0004032845D01*
X0001056271Y0004032845D01*
X0001059645Y0004030971D01*
X0001071456Y0004032845D02*
X0001084955Y0004032845D01*
X0001076518Y0004045969D02*
X0001076518Y0004012223D01*
X0001078205Y0004008473D01*
X0001081580Y0004006599D01*
X0001084955Y0004006599D01*
X0001110264Y0004008473D02*
X0001106889Y0004006599D01*
X0001100140Y0004006599D01*
X0001096766Y0004008473D01*
X0001095078Y0004012223D01*
X0001095078Y0004027221D01*
X0001096766Y0004030971D01*
X0001100140Y0004032845D01*
X0001106889Y0004032845D01*
X0001110264Y0004030971D01*
X0001111951Y0004027221D01*
X0001111951Y0004023472D01*
X0001095078Y0004019722D01*
X0001127137Y0004006599D02*
X0001127137Y0004032845D01*
X0001127137Y0004029096D02*
X0001128824Y0004030971D01*
X0001132199Y0004032845D01*
X0001137260Y0004032845D01*
X0001140635Y0004030971D01*
X0001142322Y0004027221D01*
X0001142322Y0004006599D01*
X0001142322Y0004027221D02*
X0001144010Y0004030971D01*
X0001147384Y0004032845D01*
X0001152446Y0004032845D01*
X0001155821Y0004030971D01*
X0001157508Y0004027221D01*
X0001157508Y0004006599D01*
X0001172694Y0004008473D02*
X0001176068Y0004006599D01*
X0001182817Y0004006599D01*
X0001186192Y0004008473D01*
X0001187879Y0004012223D01*
X0001187879Y0004014098D01*
X0001186192Y0004017847D01*
X0001182817Y0004019722D01*
X0001177755Y0004019722D01*
X0001174381Y0004021597D01*
X0001172694Y0004025346D01*
X0001172694Y0004027221D01*
X0001174381Y0004030971D01*
X0001177755Y0004032845D01*
X0001182817Y0004032845D01*
X0001186192Y0004030971D01*
X0001246934Y0004006599D02*
X0001230061Y0004006599D01*
X0001230061Y0004045969D01*
X0001258745Y0004006599D02*
X0001258745Y0004045969D01*
X0001270556Y0004017847D01*
X0001282367Y0004045969D01*
X0001282367Y0004006599D01*
X0001297553Y0004008473D02*
X0001302615Y0004006599D01*
X0001311051Y0004006599D01*
X0001314426Y0004008473D01*
X0001316113Y0004010348D01*
X0001317800Y0004014098D01*
X0001317800Y0004017847D01*
X0001316113Y0004021597D01*
X0001314426Y0004023472D01*
X0001311051Y0004025346D01*
X0001304302Y0004027221D01*
X0001300927Y0004029096D01*
X0001299240Y0004030971D01*
X0001297553Y0004034720D01*
X0001297553Y0004038470D01*
X0001299240Y0004042219D01*
X0001300927Y0004044094D01*
X0001304302Y0004045969D01*
X0001312738Y0004045969D01*
X0001317800Y0004044094D01*
X0001329611Y0004045969D02*
X0001353233Y0004045969D01*
X0001338048Y0004006599D01*
X0001373481Y0004045969D02*
X0001376855Y0004045969D01*
X0001380230Y0004044094D01*
X0001381917Y0004042219D01*
X0001383605Y0004038470D01*
X0001385292Y0004030971D01*
X0001385292Y0004021597D01*
X0001383605Y0004014098D01*
X0001381917Y0004010348D01*
X0001380230Y0004008473D01*
X0001376855Y0004006599D01*
X0001373481Y0004006599D01*
X0001370106Y0004008473D01*
X0001368419Y0004010348D01*
X0001366732Y0004014098D01*
X0001365044Y0004021597D01*
X0001365044Y0004030971D01*
X0001366732Y0004038470D01*
X0001368419Y0004042219D01*
X0001370106Y0004044094D01*
X0001373481Y0004045969D01*
X0001407227Y0004045969D02*
X0001410601Y0004045969D01*
X0001413976Y0004044094D01*
X0001415663Y0004042219D01*
X0001417350Y0004038470D01*
X0001419038Y0004030971D01*
X0001419038Y0004021597D01*
X0001417350Y0004014098D01*
X0001415663Y0004010348D01*
X0001413976Y0004008473D01*
X0001410601Y0004006599D01*
X0001407227Y0004006599D01*
X0001403852Y0004008473D01*
X0001402165Y0004010348D01*
X0001400478Y0004014098D01*
X0001398790Y0004021597D01*
X0001398790Y0004030971D01*
X0001400478Y0004038470D01*
X0001402165Y0004042219D01*
X0001403852Y0004044094D01*
X0001407227Y0004045969D01*
X0001432536Y0004042219D02*
X0001434223Y0004044094D01*
X0001437598Y0004045969D01*
X0001446034Y0004045969D01*
X0001449409Y0004044094D01*
X0001451096Y0004042219D01*
X0001452784Y0004038470D01*
X0001452784Y0004034720D01*
X0001451096Y0004029096D01*
X0001430849Y0004006599D01*
X0001452784Y0004006599D01*
X0001467969Y0004006599D02*
X0001467969Y0004045969D01*
X0001479780Y0004017847D01*
X0001491591Y0004045969D01*
X0001491591Y0004006599D01*
X0000276743Y0003964229D02*
X0000264932Y0003964229D01*
X0000264932Y0003943607D02*
X0000264932Y0003982977D01*
X0000281805Y0003982977D01*
X0000295303Y0003943607D02*
X0000295303Y0003982977D01*
X0000308802Y0003982977D01*
X0000312176Y0003981102D01*
X0000313863Y0003979227D01*
X0000315551Y0003975478D01*
X0000315551Y0003969853D01*
X0000313863Y0003966104D01*
X0000312176Y0003964229D01*
X0000308802Y0003962354D01*
X0000295303Y0003962354D01*
X0000349296Y0003981102D02*
X0000345922Y0003982977D01*
X0000340860Y0003982977D01*
X0000335798Y0003981102D01*
X0000332424Y0003977352D01*
X0000330736Y0003973603D01*
X0000329049Y0003966104D01*
X0000329049Y0003960479D01*
X0000330736Y0003952980D01*
X0000332424Y0003949231D01*
X0000335798Y0003945481D01*
X0000340860Y0003943607D01*
X0000344235Y0003943607D01*
X0000349296Y0003945481D01*
X0000350984Y0003947356D01*
X0000350984Y0003960479D01*
X0000344235Y0003960479D01*
X0000364482Y0003954855D02*
X0000381355Y0003954855D01*
X0000361107Y0003943607D02*
X0000372918Y0003982977D01*
X0000384730Y0003943607D01*
X0000396541Y0003947356D02*
X0000398228Y0003945481D01*
X0000396541Y0003943607D01*
X0000394853Y0003945481D01*
X0000396541Y0003947356D01*
X0000396541Y0003943607D01*
X0000396541Y0003967979D02*
X0000398228Y0003966104D01*
X0000396541Y0003964229D01*
X0000394853Y0003966104D01*
X0000396541Y0003967979D01*
X0000396541Y0003964229D01*
X0000438723Y0003954855D02*
X0000455596Y0003954855D01*
X0000435348Y0003943607D02*
X0000447159Y0003982977D01*
X0000458970Y0003943607D01*
X0000475843Y0003943607D02*
X0000472469Y0003945481D01*
X0000470781Y0003949231D01*
X0000470781Y0003982977D01*
X0000484280Y0003969853D02*
X0000497778Y0003969853D01*
X0000489341Y0003982977D02*
X0000489341Y0003949231D01*
X0000491029Y0003945481D01*
X0000494403Y0003943607D01*
X0000497778Y0003943607D01*
X0000523087Y0003945481D02*
X0000519713Y0003943607D01*
X0000512963Y0003943607D01*
X0000509589Y0003945481D01*
X0000507902Y0003949231D01*
X0000507902Y0003964229D01*
X0000509589Y0003967979D01*
X0000512963Y0003969853D01*
X0000519713Y0003969853D01*
X0000523087Y0003967979D01*
X0000524775Y0003964229D01*
X0000524775Y0003960479D01*
X0000507902Y0003956730D01*
X0000539960Y0003943607D02*
X0000539960Y0003969853D01*
X0000539960Y0003962354D02*
X0000541647Y0003966104D01*
X0000543335Y0003967979D01*
X0000546709Y0003969853D01*
X0000550084Y0003969853D01*
X0000577080Y0003943607D02*
X0000577080Y0003964229D01*
X0000575393Y0003967979D01*
X0000572019Y0003969853D01*
X0000565269Y0003969853D01*
X0000561895Y0003967979D01*
X0000577080Y0003945481D02*
X0000573706Y0003943607D01*
X0000565269Y0003943607D01*
X0000561895Y0003945481D01*
X0000560208Y0003949231D01*
X0000560208Y0003952980D01*
X0000561895Y0003956730D01*
X0000565269Y0003958605D01*
X0000573706Y0003958605D01*
X0000577080Y0003960479D01*
X0000641197Y0003947356D02*
X0000639510Y0003945481D01*
X0000634448Y0003943607D01*
X0000631074Y0003943607D01*
X0000626012Y0003945481D01*
X0000622637Y0003949231D01*
X0000620950Y0003952980D01*
X0000619263Y0003960479D01*
X0000619263Y0003966104D01*
X0000620950Y0003973603D01*
X0000622637Y0003977352D01*
X0000626012Y0003981102D01*
X0000631074Y0003982977D01*
X0000634448Y0003982977D01*
X0000639510Y0003981102D01*
X0000641197Y0003979227D01*
X0000653008Y0003969853D02*
X0000661445Y0003943607D01*
X0000669881Y0003969853D02*
X0000661445Y0003943607D01*
X0000658070Y0003934233D01*
X0000656383Y0003932358D01*
X0000653008Y0003930483D01*
X0000698565Y0003945481D02*
X0000695191Y0003943607D01*
X0000688442Y0003943607D01*
X0000685067Y0003945481D01*
X0000683380Y0003947356D01*
X0000681692Y0003951106D01*
X0000681692Y0003962354D01*
X0000683380Y0003966104D01*
X0000685067Y0003967979D01*
X0000688442Y0003969853D01*
X0000695191Y0003969853D01*
X0000698565Y0003967979D01*
X0000718813Y0003943607D02*
X0000715438Y0003945481D01*
X0000713751Y0003949231D01*
X0000713751Y0003982977D01*
X0000737373Y0003943607D02*
X0000733998Y0003945481D01*
X0000732311Y0003947356D01*
X0000730624Y0003951106D01*
X0000730624Y0003962354D01*
X0000732311Y0003966104D01*
X0000733998Y0003967979D01*
X0000737373Y0003969853D01*
X0000742435Y0003969853D01*
X0000745809Y0003967979D01*
X0000747497Y0003966104D01*
X0000749184Y0003962354D01*
X0000749184Y0003951106D01*
X0000747497Y0003947356D01*
X0000745809Y0003945481D01*
X0000742435Y0003943607D01*
X0000737373Y0003943607D01*
X0000764370Y0003969853D02*
X0000764370Y0003943607D01*
X0000764370Y0003966104D02*
X0000766057Y0003967979D01*
X0000769431Y0003969853D01*
X0000774493Y0003969853D01*
X0000777868Y0003967979D01*
X0000779555Y0003964229D01*
X0000779555Y0003943607D01*
X0000809926Y0003945481D02*
X0000806552Y0003943607D01*
X0000799803Y0003943607D01*
X0000796428Y0003945481D01*
X0000794741Y0003949231D01*
X0000794741Y0003964229D01*
X0000796428Y0003967979D01*
X0000799803Y0003969853D01*
X0000806552Y0003969853D01*
X0000809926Y0003967979D01*
X0000811614Y0003964229D01*
X0000811614Y0003960479D01*
X0000794741Y0003956730D01*
X0000853796Y0003943607D02*
X0000853796Y0003982977D01*
X0000865607Y0003982977D02*
X0000877418Y0003943607D01*
X0000889229Y0003982977D01*
X0000928037Y0003964229D02*
X0000939848Y0003964229D01*
X0000944910Y0003943607D02*
X0000928037Y0003943607D01*
X0000928037Y0003982977D01*
X0000944910Y0003982977D01*
X0000960095Y0003943607D02*
X0000960095Y0003982977D01*
X0000973593Y0003982977D01*
X0000976968Y0003981102D01*
X0000978655Y0003979227D01*
X0000980343Y0003975478D01*
X0000980343Y0003969853D01*
X0000978655Y0003966104D01*
X0000976968Y0003964229D01*
X0000973593Y0003962354D01*
X0000960095Y0003962354D01*
X0001010714Y0003969853D02*
X0001010714Y0003943607D01*
X0001002277Y0003984851D02*
X0000993841Y0003956730D01*
X0001015776Y0003956730D01*
X0001049521Y0003947356D02*
X0001047834Y0003945481D01*
X0001042772Y0003943607D01*
X0001039398Y0003943607D01*
X0001034336Y0003945481D01*
X0001030961Y0003949231D01*
X0001029274Y0003952980D01*
X0001027587Y0003960479D01*
X0001027587Y0003966104D01*
X0001029274Y0003973603D01*
X0001030961Y0003977352D01*
X0001034336Y0003981102D01*
X0001039398Y0003982977D01*
X0001042772Y0003982977D01*
X0001047834Y0003981102D01*
X0001049521Y0003979227D01*
X0001064707Y0003964229D02*
X0001076518Y0003964229D01*
X0001081580Y0003943607D02*
X0001064707Y0003943607D01*
X0001064707Y0003982977D01*
X0001081580Y0003982977D01*
X0001111951Y0003969853D02*
X0001111951Y0003943607D01*
X0001103515Y0003984851D02*
X0001095078Y0003956730D01*
X0001117013Y0003956730D01*
X0001137260Y0003982977D02*
X0001140635Y0003982977D01*
X0001144010Y0003981102D01*
X0001145697Y0003979227D01*
X0001147384Y0003975478D01*
X0001149071Y0003967979D01*
X0001149071Y0003958605D01*
X0001147384Y0003951106D01*
X0001145697Y0003947356D01*
X0001144010Y0003945481D01*
X0001140635Y0003943607D01*
X0001137260Y0003943607D01*
X0001133886Y0003945481D01*
X0001132199Y0003947356D01*
X0001130511Y0003951106D01*
X0001128824Y0003958605D01*
X0001128824Y0003967979D01*
X0001130511Y0003975478D01*
X0001132199Y0003979227D01*
X0001133886Y0003981102D01*
X0001137260Y0003982977D01*
X0001176068Y0003964229D02*
X0001164257Y0003964229D01*
X0001164257Y0003943607D02*
X0001164257Y0003982977D01*
X0001181130Y0003982977D01*
X0001192941Y0003979227D02*
X0001194628Y0003981102D01*
X0001198003Y0003982977D01*
X0001206439Y0003982977D01*
X0001209814Y0003981102D01*
X0001211501Y0003979227D01*
X0001213188Y0003975478D01*
X0001213188Y0003971728D01*
X0001211501Y0003966104D01*
X0001191254Y0003943607D01*
X0001213188Y0003943607D01*
X0001225000Y0003982977D02*
X0001246934Y0003982977D01*
X0001235123Y0003967979D01*
X0001240185Y0003967979D01*
X0001243560Y0003966104D01*
X0001245247Y0003964229D01*
X0001246934Y0003960479D01*
X0001246934Y0003951106D01*
X0001245247Y0003947356D01*
X0001243560Y0003945481D01*
X0001240185Y0003943607D01*
X0001230061Y0003943607D01*
X0001226687Y0003945481D01*
X0001225000Y0003947356D01*
X0001294178Y0003943607D02*
X0001290804Y0003945481D01*
X0001289116Y0003947356D01*
X0001287429Y0003951106D01*
X0001287429Y0003962354D01*
X0001289116Y0003966104D01*
X0001290804Y0003967979D01*
X0001294178Y0003969853D01*
X0001299240Y0003969853D01*
X0001302615Y0003967979D01*
X0001304302Y0003966104D01*
X0001305989Y0003962354D01*
X0001305989Y0003951106D01*
X0001304302Y0003947356D01*
X0001302615Y0003945481D01*
X0001299240Y0003943607D01*
X0001294178Y0003943607D01*
X0001321175Y0003943607D02*
X0001321175Y0003969853D01*
X0001321175Y0003962354D02*
X0001322862Y0003966104D01*
X0001324550Y0003967979D01*
X0001327924Y0003969853D01*
X0001331299Y0003969853D01*
X0001370106Y0003964229D02*
X0001381917Y0003964229D01*
X0001386979Y0003943607D02*
X0001370106Y0003943607D01*
X0001370106Y0003982977D01*
X0001386979Y0003982977D01*
X0001402165Y0003943607D02*
X0001402165Y0003982977D01*
X0001415663Y0003982977D01*
X0001419038Y0003981102D01*
X0001420725Y0003979227D01*
X0001422412Y0003975478D01*
X0001422412Y0003969853D01*
X0001420725Y0003966104D01*
X0001419038Y0003964229D01*
X0001415663Y0003962354D01*
X0001402165Y0003962354D01*
X0001452784Y0003969853D02*
X0001452784Y0003943607D01*
X0001444347Y0003984851D02*
X0001435911Y0003956730D01*
X0001457845Y0003956730D01*
X0001491591Y0003947356D02*
X0001489904Y0003945481D01*
X0001484842Y0003943607D01*
X0001481467Y0003943607D01*
X0001476406Y0003945481D01*
X0001473031Y0003949231D01*
X0001471344Y0003952980D01*
X0001469656Y0003960479D01*
X0001469656Y0003966104D01*
X0001471344Y0003973603D01*
X0001473031Y0003977352D01*
X0001476406Y0003981102D01*
X0001481467Y0003982977D01*
X0001484842Y0003982977D01*
X0001489904Y0003981102D01*
X0001491591Y0003979227D01*
X0001506777Y0003964229D02*
X0001518588Y0003964229D01*
X0001523650Y0003943607D02*
X0001506777Y0003943607D01*
X0001506777Y0003982977D01*
X0001523650Y0003982977D01*
X0001535461Y0003982977D02*
X0001557395Y0003982977D01*
X0001545584Y0003967979D01*
X0001550646Y0003967979D01*
X0001554021Y0003966104D01*
X0001555708Y0003964229D01*
X0001557395Y0003960479D01*
X0001557395Y0003951106D01*
X0001555708Y0003947356D01*
X0001554021Y0003945481D01*
X0001550646Y0003943607D01*
X0001540523Y0003943607D01*
X0001537148Y0003945481D01*
X0001535461Y0003947356D01*
X0001579330Y0003982977D02*
X0001582705Y0003982977D01*
X0001586079Y0003981102D01*
X0001587767Y0003979227D01*
X0001589454Y0003975478D01*
X0001591141Y0003967979D01*
X0001591141Y0003958605D01*
X0001589454Y0003951106D01*
X0001587767Y0003947356D01*
X0001586079Y0003945481D01*
X0001582705Y0003943607D01*
X0001579330Y0003943607D01*
X0001575956Y0003945481D01*
X0001574268Y0003947356D01*
X0001572581Y0003951106D01*
X0001570894Y0003958605D01*
X0001570894Y0003967979D01*
X0001572581Y0003975478D01*
X0001574268Y0003979227D01*
X0001575956Y0003981102D01*
X0001579330Y0003982977D01*
X0001618138Y0003964229D02*
X0001606327Y0003964229D01*
X0001606327Y0003943607D02*
X0001606327Y0003982977D01*
X0001623200Y0003982977D01*
X0001635011Y0003979227D02*
X0001636698Y0003981102D01*
X0001640073Y0003982977D01*
X0001648509Y0003982977D01*
X0001651884Y0003981102D01*
X0001653571Y0003979227D01*
X0001655258Y0003975478D01*
X0001655258Y0003971728D01*
X0001653571Y0003966104D01*
X0001633323Y0003943607D01*
X0001655258Y0003943607D01*
X0001667069Y0003982977D02*
X0001689004Y0003982977D01*
X0001677193Y0003967979D01*
X0001682255Y0003967979D01*
X0001685629Y0003966104D01*
X0001687317Y0003964229D01*
X0001689004Y0003960479D01*
X0001689004Y0003951106D01*
X0001687317Y0003947356D01*
X0001685629Y0003945481D01*
X0001682255Y0003943607D01*
X0001672131Y0003943607D01*
X0001668757Y0003945481D01*
X0001667069Y0003947356D01*
X0000264932Y0003880614D02*
X0000264932Y0003919985D01*
X0000276743Y0003891863D01*
X0000288554Y0003919985D01*
X0000288554Y0003880614D01*
X0000318925Y0003882489D02*
X0000315551Y0003880614D01*
X0000308802Y0003880614D01*
X0000305427Y0003882489D01*
X0000303740Y0003886239D01*
X0000303740Y0003901237D01*
X0000305427Y0003904986D01*
X0000308802Y0003906861D01*
X0000315551Y0003906861D01*
X0000318925Y0003904986D01*
X0000320613Y0003901237D01*
X0000320613Y0003897487D01*
X0000303740Y0003893738D01*
X0000335798Y0003880614D02*
X0000335798Y0003906861D01*
X0000335798Y0003903112D02*
X0000337485Y0003904986D01*
X0000340860Y0003906861D01*
X0000345922Y0003906861D01*
X0000349296Y0003904986D01*
X0000350984Y0003901237D01*
X0000350984Y0003880614D01*
X0000350984Y0003901237D02*
X0000352671Y0003904986D01*
X0000356046Y0003906861D01*
X0000361107Y0003906861D01*
X0000364482Y0003904986D01*
X0000366169Y0003901237D01*
X0000366169Y0003880614D01*
X0000388104Y0003880614D02*
X0000384730Y0003882489D01*
X0000383042Y0003884364D01*
X0000381355Y0003888114D01*
X0000381355Y0003899362D01*
X0000383042Y0003903112D01*
X0000384730Y0003904986D01*
X0000388104Y0003906861D01*
X0000393166Y0003906861D01*
X0000396541Y0003904986D01*
X0000398228Y0003903112D01*
X0000399915Y0003899362D01*
X0000399915Y0003888114D01*
X0000398228Y0003884364D01*
X0000396541Y0003882489D01*
X0000393166Y0003880614D01*
X0000388104Y0003880614D01*
X0000415101Y0003880614D02*
X0000415101Y0003906861D01*
X0000415101Y0003899362D02*
X0000416788Y0003903112D01*
X0000418475Y0003904986D01*
X0000421850Y0003906861D01*
X0000425224Y0003906861D01*
X0000433661Y0003906861D02*
X0000442097Y0003880614D01*
X0000450534Y0003906861D02*
X0000442097Y0003880614D01*
X0000438723Y0003871241D01*
X0000437035Y0003869366D01*
X0000433661Y0003867491D01*
X0000464032Y0003884364D02*
X0000465719Y0003882489D01*
X0000464032Y0003880614D01*
X0000462345Y0003882489D01*
X0000464032Y0003884364D01*
X0000464032Y0003880614D01*
X0000464032Y0003904986D02*
X0000465719Y0003903112D01*
X0000464032Y0003901237D01*
X0000462345Y0003903112D01*
X0000464032Y0003904986D01*
X0000464032Y0003901237D01*
X0000506214Y0003916235D02*
X0000507902Y0003918110D01*
X0000511276Y0003919985D01*
X0000519713Y0003919985D01*
X0000523087Y0003918110D01*
X0000524775Y0003916235D01*
X0000526462Y0003912485D01*
X0000526462Y0003908736D01*
X0000524775Y0003903112D01*
X0000504527Y0003880614D01*
X0000526462Y0003880614D01*
X0000558520Y0003919985D02*
X0000541647Y0003919985D01*
X0000539960Y0003901237D01*
X0000541647Y0003903112D01*
X0000545022Y0003904986D01*
X0000553458Y0003904986D01*
X0000556833Y0003903112D01*
X0000558520Y0003901237D01*
X0000560208Y0003897487D01*
X0000560208Y0003888114D01*
X0000558520Y0003884364D01*
X0000556833Y0003882489D01*
X0000553458Y0003880614D01*
X0000545022Y0003880614D01*
X0000541647Y0003882489D01*
X0000539960Y0003884364D01*
X0000590579Y0003919985D02*
X0000583830Y0003919985D01*
X0000580455Y0003918110D01*
X0000578768Y0003916235D01*
X0000575393Y0003910611D01*
X0000573706Y0003903112D01*
X0000573706Y0003888114D01*
X0000575393Y0003884364D01*
X0000577080Y0003882489D01*
X0000580455Y0003880614D01*
X0000587204Y0003880614D01*
X0000590579Y0003882489D01*
X0000592266Y0003884364D01*
X0000593953Y0003888114D01*
X0000593953Y0003897487D01*
X0000592266Y0003901237D01*
X0000590579Y0003903112D01*
X0000587204Y0003904986D01*
X0000580455Y0003904986D01*
X0000577080Y0003903112D01*
X0000575393Y0003901237D01*
X0000573706Y0003897487D01*
X0000636136Y0003880614D02*
X0000636136Y0003919985D01*
X0000647947Y0003891863D01*
X0000659758Y0003919985D01*
X0000659758Y0003880614D01*
X0000688442Y0003901237D02*
X0000693503Y0003899362D01*
X0000695191Y0003897487D01*
X0000696878Y0003893738D01*
X0000696878Y0003888114D01*
X0000695191Y0003884364D01*
X0000693503Y0003882489D01*
X0000690129Y0003880614D01*
X0000676631Y0003880614D01*
X0000676631Y0003919985D01*
X0000688442Y0003919985D01*
X0000691816Y0003918110D01*
X0000693503Y0003916235D01*
X0000695191Y0003912485D01*
X0000695191Y0003908736D01*
X0000693503Y0003904986D01*
X0000691816Y0003903112D01*
X0000688442Y0003901237D01*
X0000676631Y0003901237D01*
X0000708689Y0003906861D02*
X0000717125Y0003880614D01*
X0000725562Y0003906861D02*
X0000717125Y0003880614D01*
X0000713751Y0003871241D01*
X0000712064Y0003869366D01*
X0000708689Y0003867491D01*
X0000733998Y0003906861D02*
X0000747497Y0003906861D01*
X0000739060Y0003919985D02*
X0000739060Y0003886239D01*
X0000740748Y0003882489D01*
X0000744122Y0003880614D01*
X0000747497Y0003880614D01*
X0000772806Y0003882489D02*
X0000769431Y0003880614D01*
X0000762682Y0003880614D01*
X0000759308Y0003882489D01*
X0000757620Y0003886239D01*
X0000757620Y0003901237D01*
X0000759308Y0003904986D01*
X0000762682Y0003906861D01*
X0000769431Y0003906861D01*
X0000772806Y0003904986D01*
X0000774493Y0003901237D01*
X0000774493Y0003897487D01*
X0000757620Y0003893738D01*
X0000787992Y0003882489D02*
X0000791366Y0003880614D01*
X0000798115Y0003880614D01*
X0000801490Y0003882489D01*
X0000803177Y0003886239D01*
X0000803177Y0003888114D01*
X0000801490Y0003891863D01*
X0000798115Y0003893738D01*
X0000793053Y0003893738D01*
X0000789679Y0003895613D01*
X0000787992Y0003899362D01*
X0000787992Y0003901237D01*
X0000789679Y0003904986D01*
X0000793053Y0003906861D01*
X0000798115Y0003906861D01*
X0000801490Y0003904986D01*
X0000845359Y0003880614D02*
X0000845359Y0003919985D01*
X0000853796Y0003919985D01*
X0000858858Y0003918110D01*
X0000862232Y0003914360D01*
X0000863920Y0003910611D01*
X0000865607Y0003903112D01*
X0000865607Y0003897487D01*
X0000863920Y0003889988D01*
X0000862232Y0003886239D01*
X0000858858Y0003882489D01*
X0000853796Y0003880614D01*
X0000845359Y0003880614D01*
X0000880792Y0003880614D02*
X0000880792Y0003919985D01*
X0000889229Y0003919985D01*
X0000894291Y0003918110D01*
X0000897665Y0003914360D01*
X0000899353Y0003910611D01*
X0000901040Y0003903112D01*
X0000901040Y0003897487D01*
X0000899353Y0003889988D01*
X0000897665Y0003886239D01*
X0000894291Y0003882489D01*
X0000889229Y0003880614D01*
X0000880792Y0003880614D01*
X0000936473Y0003880614D02*
X0000924662Y0003899362D01*
X0000916226Y0003880614D02*
X0000916226Y0003919985D01*
X0000929724Y0003919985D01*
X0000933098Y0003918110D01*
X0000934786Y0003916235D01*
X0000936473Y0003912485D01*
X0000936473Y0003906861D01*
X0000934786Y0003903112D01*
X0000933098Y0003901237D01*
X0000929724Y0003899362D01*
X0000916226Y0003899362D01*
X0000949971Y0003916235D02*
X0000951659Y0003918110D01*
X0000955033Y0003919985D01*
X0000963470Y0003919985D01*
X0000966844Y0003918110D01*
X0000968532Y0003916235D01*
X0000970219Y0003912485D01*
X0000970219Y0003908736D01*
X0000968532Y0003903112D01*
X0000948284Y0003880614D01*
X0000970219Y0003880614D01*
X0001010714Y0003882489D02*
X0001015776Y0003880614D01*
X0001024212Y0003880614D01*
X0001027587Y0003882489D01*
X0001029274Y0003884364D01*
X0001030961Y0003888114D01*
X0001030961Y0003891863D01*
X0001029274Y0003895613D01*
X0001027587Y0003897487D01*
X0001024212Y0003899362D01*
X0001017463Y0003901237D01*
X0001014088Y0003903112D01*
X0001012401Y0003904986D01*
X0001010714Y0003908736D01*
X0001010714Y0003912485D01*
X0001012401Y0003916235D01*
X0001014088Y0003918110D01*
X0001017463Y0003919985D01*
X0001025899Y0003919985D01*
X0001030961Y0003918110D01*
X0001046147Y0003880614D02*
X0001046147Y0003919985D01*
X0001054583Y0003919985D01*
X0001059645Y0003918110D01*
X0001063020Y0003914360D01*
X0001064707Y0003910611D01*
X0001066394Y0003903112D01*
X0001066394Y0003897487D01*
X0001064707Y0003889988D01*
X0001063020Y0003886239D01*
X0001059645Y0003882489D01*
X0001054583Y0003880614D01*
X0001046147Y0003880614D01*
X0001101827Y0003880614D02*
X0001090016Y0003899362D01*
X0001081580Y0003880614D02*
X0001081580Y0003919985D01*
X0001095078Y0003919985D01*
X0001098453Y0003918110D01*
X0001100140Y0003916235D01*
X0001101827Y0003912485D01*
X0001101827Y0003906861D01*
X0001100140Y0003903112D01*
X0001098453Y0003901237D01*
X0001095078Y0003899362D01*
X0001081580Y0003899362D01*
X0001115326Y0003891863D02*
X0001132199Y0003891863D01*
X0001111951Y0003880614D02*
X0001123762Y0003919985D01*
X0001135573Y0003880614D01*
X0001147384Y0003880614D02*
X0001147384Y0003919985D01*
X0001159195Y0003891863D01*
X0001171006Y0003919985D01*
X0001171006Y0003880614D01*
X0000285179Y0003821372D02*
X0000283492Y0003819497D01*
X0000278430Y0003817622D01*
X0000275056Y0003817622D01*
X0000269994Y0003819497D01*
X0000266619Y0003823247D01*
X0000264932Y0003826996D01*
X0000263245Y0003834495D01*
X0000263245Y0003840119D01*
X0000264932Y0003847619D01*
X0000266619Y0003851368D01*
X0000269994Y0003855118D01*
X0000275056Y0003856992D01*
X0000278430Y0003856992D01*
X0000283492Y0003855118D01*
X0000285179Y0003853243D01*
X0000305427Y0003817622D02*
X0000302052Y0003819497D01*
X0000300365Y0003821372D01*
X0000298678Y0003825121D01*
X0000298678Y0003836370D01*
X0000300365Y0003840119D01*
X0000302052Y0003841994D01*
X0000305427Y0003843869D01*
X0000310489Y0003843869D01*
X0000313863Y0003841994D01*
X0000315551Y0003840119D01*
X0000317238Y0003836370D01*
X0000317238Y0003825121D01*
X0000315551Y0003821372D01*
X0000313863Y0003819497D01*
X0000310489Y0003817622D01*
X0000305427Y0003817622D01*
X0000332424Y0003843869D02*
X0000332424Y0003817622D01*
X0000332424Y0003840119D02*
X0000334111Y0003841994D01*
X0000337485Y0003843869D01*
X0000342547Y0003843869D01*
X0000345922Y0003841994D01*
X0000347609Y0003838245D01*
X0000347609Y0003817622D01*
X0000359420Y0003843869D02*
X0000372918Y0003843869D01*
X0000364482Y0003856992D02*
X0000364482Y0003823247D01*
X0000366169Y0003819497D01*
X0000369544Y0003817622D01*
X0000372918Y0003817622D01*
X0000384730Y0003817622D02*
X0000384730Y0003843869D01*
X0000384730Y0003856992D02*
X0000383042Y0003855118D01*
X0000384730Y0003853243D01*
X0000386417Y0003855118D01*
X0000384730Y0003856992D01*
X0000384730Y0003853243D01*
X0000401602Y0003843869D02*
X0000401602Y0003817622D01*
X0000401602Y0003840119D02*
X0000403290Y0003841994D01*
X0000406664Y0003843869D01*
X0000411726Y0003843869D01*
X0000415101Y0003841994D01*
X0000416788Y0003838245D01*
X0000416788Y0003817622D01*
X0000448847Y0003843869D02*
X0000448847Y0003817622D01*
X0000433661Y0003843869D02*
X0000433661Y0003823247D01*
X0000435348Y0003819497D01*
X0000438723Y0003817622D01*
X0000443785Y0003817622D01*
X0000447159Y0003819497D01*
X0000448847Y0003821372D01*
X0000470781Y0003817622D02*
X0000467407Y0003819497D01*
X0000465719Y0003821372D01*
X0000464032Y0003825121D01*
X0000464032Y0003836370D01*
X0000465719Y0003840119D01*
X0000467407Y0003841994D01*
X0000470781Y0003843869D01*
X0000475843Y0003843869D01*
X0000479218Y0003841994D01*
X0000480905Y0003840119D01*
X0000482592Y0003836370D01*
X0000482592Y0003825121D01*
X0000480905Y0003821372D01*
X0000479218Y0003819497D01*
X0000475843Y0003817622D01*
X0000470781Y0003817622D01*
X0000512963Y0003843869D02*
X0000512963Y0003817622D01*
X0000497778Y0003843869D02*
X0000497778Y0003823247D01*
X0000499465Y0003819497D01*
X0000502840Y0003817622D01*
X0000507902Y0003817622D01*
X0000511276Y0003819497D01*
X0000512963Y0003821372D01*
X0000528149Y0003819497D02*
X0000531524Y0003817622D01*
X0000538273Y0003817622D01*
X0000541647Y0003819497D01*
X0000543335Y0003823247D01*
X0000543335Y0003825121D01*
X0000541647Y0003828871D01*
X0000538273Y0003830746D01*
X0000533211Y0003830746D01*
X0000529836Y0003832620D01*
X0000528149Y0003836370D01*
X0000528149Y0003838245D01*
X0000529836Y0003841994D01*
X0000533211Y0003843869D01*
X0000538273Y0003843869D01*
X0000541647Y0003841994D01*
X0000580455Y0003843869D02*
X0000593953Y0003843869D01*
X0000585517Y0003817622D02*
X0000585517Y0003851368D01*
X0000587204Y0003855118D01*
X0000590579Y0003856992D01*
X0000593953Y0003856992D01*
X0000605764Y0003817622D02*
X0000605764Y0003843869D01*
X0000605764Y0003836370D02*
X0000607452Y0003840119D01*
X0000609139Y0003841994D01*
X0000612514Y0003843869D01*
X0000615888Y0003843869D01*
X0000641197Y0003819497D02*
X0000637823Y0003817622D01*
X0000631074Y0003817622D01*
X0000627699Y0003819497D01*
X0000626012Y0003823247D01*
X0000626012Y0003838245D01*
X0000627699Y0003841994D01*
X0000631074Y0003843869D01*
X0000637823Y0003843869D01*
X0000641197Y0003841994D01*
X0000642885Y0003838245D01*
X0000642885Y0003834495D01*
X0000626012Y0003830746D01*
X0000673256Y0003843869D02*
X0000673256Y0003804499D01*
X0000673256Y0003819497D02*
X0000669881Y0003817622D01*
X0000663132Y0003817622D01*
X0000659758Y0003819497D01*
X0000658070Y0003821372D01*
X0000656383Y0003825121D01*
X0000656383Y0003836370D01*
X0000658070Y0003840119D01*
X0000659758Y0003841994D01*
X0000663132Y0003843869D01*
X0000669881Y0003843869D01*
X0000673256Y0003841994D01*
X0000705314Y0003843869D02*
X0000705314Y0003817622D01*
X0000690129Y0003843869D02*
X0000690129Y0003823247D01*
X0000691816Y0003819497D01*
X0000695191Y0003817622D01*
X0000700253Y0003817622D01*
X0000703627Y0003819497D01*
X0000705314Y0003821372D01*
X0000735686Y0003819497D02*
X0000732311Y0003817622D01*
X0000725562Y0003817622D01*
X0000722187Y0003819497D01*
X0000720500Y0003823247D01*
X0000720500Y0003838245D01*
X0000722187Y0003841994D01*
X0000725562Y0003843869D01*
X0000732311Y0003843869D01*
X0000735686Y0003841994D01*
X0000737373Y0003838245D01*
X0000737373Y0003834495D01*
X0000720500Y0003830746D01*
X0000752559Y0003843869D02*
X0000752559Y0003817622D01*
X0000752559Y0003840119D02*
X0000754246Y0003841994D01*
X0000757620Y0003843869D01*
X0000762682Y0003843869D01*
X0000766057Y0003841994D01*
X0000767744Y0003838245D01*
X0000767744Y0003817622D01*
X0000799803Y0003819497D02*
X0000796428Y0003817622D01*
X0000789679Y0003817622D01*
X0000786304Y0003819497D01*
X0000784617Y0003821372D01*
X0000782930Y0003825121D01*
X0000782930Y0003836370D01*
X0000784617Y0003840119D01*
X0000786304Y0003841994D01*
X0000789679Y0003843869D01*
X0000796428Y0003843869D01*
X0000799803Y0003841994D01*
X0000811614Y0003843869D02*
X0000820050Y0003817622D01*
X0000828487Y0003843869D02*
X0000820050Y0003817622D01*
X0000816676Y0003808248D01*
X0000814988Y0003806374D01*
X0000811614Y0003804499D01*
X0000868981Y0003817622D02*
X0000868981Y0003843869D01*
X0000868981Y0003836370D02*
X0000870669Y0003840119D01*
X0000872356Y0003841994D01*
X0000875731Y0003843869D01*
X0000879105Y0003843869D01*
X0000906102Y0003817622D02*
X0000906102Y0003838245D01*
X0000904415Y0003841994D01*
X0000901040Y0003843869D01*
X0000894291Y0003843869D01*
X0000890916Y0003841994D01*
X0000906102Y0003819497D02*
X0000902727Y0003817622D01*
X0000894291Y0003817622D01*
X0000890916Y0003819497D01*
X0000889229Y0003823247D01*
X0000889229Y0003826996D01*
X0000890916Y0003830746D01*
X0000894291Y0003832620D01*
X0000902727Y0003832620D01*
X0000906102Y0003834495D01*
X0000922975Y0003843869D02*
X0000922975Y0003817622D01*
X0000922975Y0003840119D02*
X0000924662Y0003841994D01*
X0000928037Y0003843869D01*
X0000933098Y0003843869D01*
X0000936473Y0003841994D01*
X0000938160Y0003838245D01*
X0000938160Y0003817622D01*
X0000970219Y0003843869D02*
X0000970219Y0003811998D01*
X0000968532Y0003808248D01*
X0000966844Y0003806374D01*
X0000963470Y0003804499D01*
X0000958408Y0003804499D01*
X0000955033Y0003806374D01*
X0000970219Y0003819497D02*
X0000966844Y0003817622D01*
X0000960095Y0003817622D01*
X0000956721Y0003819497D01*
X0000955033Y0003821372D01*
X0000953346Y0003825121D01*
X0000953346Y0003836370D01*
X0000955033Y0003840119D01*
X0000956721Y0003841994D01*
X0000960095Y0003843869D01*
X0000966844Y0003843869D01*
X0000970219Y0003841994D01*
X0001000590Y0003819497D02*
X0000997215Y0003817622D01*
X0000990466Y0003817622D01*
X0000987092Y0003819497D01*
X0000985404Y0003823247D01*
X0000985404Y0003838245D01*
X0000987092Y0003841994D01*
X0000990466Y0003843869D01*
X0000997215Y0003843869D01*
X0001000590Y0003841994D01*
X0001002277Y0003838245D01*
X0001002277Y0003834495D01*
X0000985404Y0003830746D01*
X0001017463Y0003821372D02*
X0001019150Y0003819497D01*
X0001017463Y0003817622D01*
X0001015776Y0003819497D01*
X0001017463Y0003821372D01*
X0001017463Y0003817622D01*
X0001017463Y0003841994D02*
X0001019150Y0003840119D01*
X0001017463Y0003838245D01*
X0001015776Y0003840119D01*
X0001017463Y0003841994D01*
X0001017463Y0003838245D01*
X0001079893Y0003817622D02*
X0001059645Y0003817622D01*
X0001069769Y0003817622D02*
X0001069769Y0003856992D01*
X0001066394Y0003851368D01*
X0001063020Y0003847619D01*
X0001059645Y0003845744D01*
X0001101827Y0003856992D02*
X0001105202Y0003856992D01*
X0001108577Y0003855118D01*
X0001110264Y0003853243D01*
X0001111951Y0003849493D01*
X0001113638Y0003841994D01*
X0001113638Y0003832620D01*
X0001111951Y0003825121D01*
X0001110264Y0003821372D01*
X0001108577Y0003819497D01*
X0001105202Y0003817622D01*
X0001101827Y0003817622D01*
X0001098453Y0003819497D01*
X0001096766Y0003821372D01*
X0001095078Y0003825121D01*
X0001093391Y0003832620D01*
X0001093391Y0003841994D01*
X0001095078Y0003849493D01*
X0001096766Y0003853243D01*
X0001098453Y0003855118D01*
X0001101827Y0003856992D01*
X0001135573Y0003856992D02*
X0001138948Y0003856992D01*
X0001142322Y0003855118D01*
X0001144010Y0003853243D01*
X0001145697Y0003849493D01*
X0001147384Y0003841994D01*
X0001147384Y0003832620D01*
X0001145697Y0003825121D01*
X0001144010Y0003821372D01*
X0001142322Y0003819497D01*
X0001138948Y0003817622D01*
X0001135573Y0003817622D01*
X0001132199Y0003819497D01*
X0001130511Y0003821372D01*
X0001128824Y0003825121D01*
X0001127137Y0003832620D01*
X0001127137Y0003841994D01*
X0001128824Y0003849493D01*
X0001130511Y0003853243D01*
X0001132199Y0003855118D01*
X0001135573Y0003856992D01*
X0001189566Y0003817622D02*
X0001189566Y0003856992D01*
X0001192941Y0003832620D02*
X0001203065Y0003817622D01*
X0001203065Y0003843869D02*
X0001189566Y0003828871D01*
X0001218250Y0003817622D02*
X0001218250Y0003856992D01*
X0001218250Y0003838245D02*
X0001238498Y0003838245D01*
X0001238498Y0003817622D02*
X0001238498Y0003856992D01*
X0001251996Y0003843869D02*
X0001270556Y0003843869D01*
X0001251996Y0003817622D01*
X0001270556Y0003817622D01*
X0001319488Y0003830746D02*
X0001305989Y0003830746D01*
X0001354921Y0003856992D02*
X0001376855Y0003856992D01*
X0001365044Y0003841994D01*
X0001370106Y0003841994D01*
X0001373481Y0003840119D01*
X0001375168Y0003838245D01*
X0001376855Y0003834495D01*
X0001376855Y0003825121D01*
X0001375168Y0003821372D01*
X0001373481Y0003819497D01*
X0001370106Y0003817622D01*
X0001359983Y0003817622D01*
X0001356608Y0003819497D01*
X0001354921Y0003821372D01*
X0001392041Y0003821372D02*
X0001393728Y0003819497D01*
X0001392041Y0003817622D01*
X0001390354Y0003819497D01*
X0001392041Y0003821372D01*
X0001392041Y0003817622D01*
X0001413976Y0003840119D02*
X0001410601Y0003841994D01*
X0001408914Y0003843869D01*
X0001407227Y0003847619D01*
X0001407227Y0003849493D01*
X0001408914Y0003853243D01*
X0001410601Y0003855118D01*
X0001413976Y0003856992D01*
X0001420725Y0003856992D01*
X0001424100Y0003855118D01*
X0001425787Y0003853243D01*
X0001427474Y0003849493D01*
X0001427474Y0003847619D01*
X0001425787Y0003843869D01*
X0001424100Y0003841994D01*
X0001420725Y0003840119D01*
X0001413976Y0003840119D01*
X0001410601Y0003838245D01*
X0001408914Y0003836370D01*
X0001407227Y0003832620D01*
X0001407227Y0003825121D01*
X0001408914Y0003821372D01*
X0001410601Y0003819497D01*
X0001413976Y0003817622D01*
X0001420725Y0003817622D01*
X0001424100Y0003819497D01*
X0001425787Y0003821372D01*
X0001427474Y0003825121D01*
X0001427474Y0003832620D01*
X0001425787Y0003836370D01*
X0001424100Y0003838245D01*
X0001420725Y0003840119D01*
X0001488217Y0003855118D02*
X0001484842Y0003856992D01*
X0001479780Y0003856992D01*
X0001474718Y0003855118D01*
X0001471344Y0003851368D01*
X0001469656Y0003847619D01*
X0001467969Y0003840119D01*
X0001467969Y0003834495D01*
X0001469656Y0003826996D01*
X0001471344Y0003823247D01*
X0001474718Y0003819497D01*
X0001479780Y0003817622D01*
X0001483155Y0003817622D01*
X0001488217Y0003819497D01*
X0001489904Y0003821372D01*
X0001489904Y0003834495D01*
X0001483155Y0003834495D01*
X0001505089Y0003817622D02*
X0001505089Y0003856992D01*
X0001505089Y0003838245D02*
X0001525337Y0003838245D01*
X0001525337Y0003817622D02*
X0001525337Y0003856992D01*
X0001538835Y0003843869D02*
X0001557395Y0003843869D01*
X0001538835Y0003817622D01*
X0001557395Y0003817622D01*
X0000276743Y0003775253D02*
X0000281805Y0003773378D01*
X0000283492Y0003771503D01*
X0000285179Y0003767754D01*
X0000285179Y0003762129D01*
X0000283492Y0003758380D01*
X0000281805Y0003756505D01*
X0000278430Y0003754630D01*
X0000264932Y0003754630D01*
X0000264932Y0003794000D01*
X0000276743Y0003794000D01*
X0000280118Y0003792125D01*
X0000281805Y0003790251D01*
X0000283492Y0003786501D01*
X0000283492Y0003782752D01*
X0000281805Y0003779002D01*
X0000280118Y0003777127D01*
X0000276743Y0003775253D01*
X0000264932Y0003775253D01*
X0000315551Y0003754630D02*
X0000315551Y0003775253D01*
X0000313863Y0003779002D01*
X0000310489Y0003780877D01*
X0000303740Y0003780877D01*
X0000300365Y0003779002D01*
X0000315551Y0003756505D02*
X0000312176Y0003754630D01*
X0000303740Y0003754630D01*
X0000300365Y0003756505D01*
X0000298678Y0003760255D01*
X0000298678Y0003764004D01*
X0000300365Y0003767754D01*
X0000303740Y0003769628D01*
X0000312176Y0003769628D01*
X0000315551Y0003771503D01*
X0000332424Y0003780877D02*
X0000332424Y0003754630D01*
X0000332424Y0003777127D02*
X0000334111Y0003779002D01*
X0000337485Y0003780877D01*
X0000342547Y0003780877D01*
X0000345922Y0003779002D01*
X0000347609Y0003775253D01*
X0000347609Y0003754630D01*
X0000379668Y0003754630D02*
X0000379668Y0003794000D01*
X0000379668Y0003756505D02*
X0000376293Y0003754630D01*
X0000369544Y0003754630D01*
X0000366169Y0003756505D01*
X0000364482Y0003758380D01*
X0000362795Y0003762129D01*
X0000362795Y0003773378D01*
X0000364482Y0003777127D01*
X0000366169Y0003779002D01*
X0000369544Y0003780877D01*
X0000376293Y0003780877D01*
X0000379668Y0003779002D01*
X0000393166Y0003780877D02*
X0000399915Y0003754630D01*
X0000406664Y0003773378D01*
X0000413413Y0003754630D01*
X0000420163Y0003780877D01*
X0000433661Y0003754630D02*
X0000433661Y0003780877D01*
X0000433661Y0003794000D02*
X0000431974Y0003792125D01*
X0000433661Y0003790251D01*
X0000435348Y0003792125D01*
X0000433661Y0003794000D01*
X0000433661Y0003790251D01*
X0000465719Y0003754630D02*
X0000465719Y0003794000D01*
X0000465719Y0003756505D02*
X0000462345Y0003754630D01*
X0000455596Y0003754630D01*
X0000452221Y0003756505D01*
X0000450534Y0003758380D01*
X0000448847Y0003762129D01*
X0000448847Y0003773378D01*
X0000450534Y0003777127D01*
X0000452221Y0003779002D01*
X0000455596Y0003780877D01*
X0000462345Y0003780877D01*
X0000465719Y0003779002D01*
X0000477530Y0003780877D02*
X0000491029Y0003780877D01*
X0000482592Y0003794000D02*
X0000482592Y0003760255D01*
X0000484280Y0003756505D01*
X0000487654Y0003754630D01*
X0000491029Y0003754630D01*
X0000502840Y0003754630D02*
X0000502840Y0003794000D01*
X0000518025Y0003754630D02*
X0000518025Y0003775253D01*
X0000516338Y0003779002D01*
X0000512963Y0003780877D01*
X0000507902Y0003780877D01*
X0000504527Y0003779002D01*
X0000502840Y0003777127D01*
X0000534898Y0003758380D02*
X0000536586Y0003756505D01*
X0000534898Y0003754630D01*
X0000533211Y0003756505D01*
X0000534898Y0003758380D01*
X0000534898Y0003754630D01*
X0000534898Y0003779002D02*
X0000536586Y0003777127D01*
X0000534898Y0003775253D01*
X0000533211Y0003777127D01*
X0000534898Y0003779002D01*
X0000534898Y0003775253D01*
X0000593953Y0003794000D02*
X0000587204Y0003794000D01*
X0000583830Y0003792125D01*
X0000582142Y0003790251D01*
X0000578768Y0003784626D01*
X0000577080Y0003777127D01*
X0000577080Y0003762129D01*
X0000578768Y0003758380D01*
X0000580455Y0003756505D01*
X0000583830Y0003754630D01*
X0000590579Y0003754630D01*
X0000593953Y0003756505D01*
X0000595641Y0003758380D01*
X0000597328Y0003762129D01*
X0000597328Y0003771503D01*
X0000595641Y0003775253D01*
X0000593953Y0003777127D01*
X0000590579Y0003779002D01*
X0000583830Y0003779002D01*
X0000580455Y0003777127D01*
X0000578768Y0003775253D01*
X0000577080Y0003771503D01*
X0000631074Y0003754630D02*
X0000610826Y0003754630D01*
X0000620950Y0003754630D02*
X0000620950Y0003794000D01*
X0000617575Y0003788376D01*
X0000614201Y0003784626D01*
X0000610826Y0003782752D01*
X0000646259Y0003758380D02*
X0000647947Y0003756505D01*
X0000646259Y0003754630D01*
X0000644572Y0003756505D01*
X0000646259Y0003758380D01*
X0000646259Y0003754630D01*
X0000678318Y0003780877D02*
X0000678318Y0003754630D01*
X0000669881Y0003795875D02*
X0000661445Y0003767754D01*
X0000683380Y0003767754D01*
X0000712064Y0003780877D02*
X0000712064Y0003754630D01*
X0000703627Y0003795875D02*
X0000695191Y0003767754D01*
X0000717125Y0003767754D01*
X0000757620Y0003754630D02*
X0000757620Y0003794000D01*
X0000769431Y0003765879D01*
X0000781242Y0003794000D01*
X0000781242Y0003754630D01*
X0000798115Y0003754630D02*
X0000798115Y0003794000D01*
X0000798115Y0003775253D02*
X0000818363Y0003775253D01*
X0000818363Y0003754630D02*
X0000818363Y0003794000D01*
X0000831861Y0003780877D02*
X0000850421Y0003780877D01*
X0000831861Y0003754630D01*
X0000850421Y0003754630D01*
X0000264932Y0003691638D02*
X0000264932Y0003731008D01*
X0000278430Y0003731008D01*
X0000281805Y0003729133D01*
X0000283492Y0003727259D01*
X0000285179Y0003723509D01*
X0000285179Y0003717885D01*
X0000283492Y0003714135D01*
X0000281805Y0003712260D01*
X0000278430Y0003710386D01*
X0000264932Y0003710386D01*
X0000305427Y0003691638D02*
X0000302052Y0003693513D01*
X0000300365Y0003695388D01*
X0000298678Y0003699137D01*
X0000298678Y0003710386D01*
X0000300365Y0003714135D01*
X0000302052Y0003716010D01*
X0000305427Y0003717885D01*
X0000310489Y0003717885D01*
X0000313863Y0003716010D01*
X0000315551Y0003714135D01*
X0000317238Y0003710386D01*
X0000317238Y0003699137D01*
X0000315551Y0003695388D01*
X0000313863Y0003693513D01*
X0000310489Y0003691638D01*
X0000305427Y0003691638D01*
X0000329049Y0003717885D02*
X0000335798Y0003691638D01*
X0000342547Y0003710386D01*
X0000349296Y0003691638D01*
X0000356046Y0003717885D01*
X0000383042Y0003693513D02*
X0000379668Y0003691638D01*
X0000372918Y0003691638D01*
X0000369544Y0003693513D01*
X0000367857Y0003697262D01*
X0000367857Y0003712260D01*
X0000369544Y0003716010D01*
X0000372918Y0003717885D01*
X0000379668Y0003717885D01*
X0000383042Y0003716010D01*
X0000384730Y0003712260D01*
X0000384730Y0003708511D01*
X0000367857Y0003704761D01*
X0000399915Y0003691638D02*
X0000399915Y0003717885D01*
X0000399915Y0003710386D02*
X0000401602Y0003714135D01*
X0000403290Y0003716010D01*
X0000406664Y0003717885D01*
X0000410039Y0003717885D01*
X0000455596Y0003731008D02*
X0000462345Y0003731008D01*
X0000465719Y0003729133D01*
X0000469094Y0003725384D01*
X0000470781Y0003717885D01*
X0000470781Y0003704761D01*
X0000469094Y0003697262D01*
X0000465719Y0003693513D01*
X0000462345Y0003691638D01*
X0000455596Y0003691638D01*
X0000452221Y0003693513D01*
X0000448847Y0003697262D01*
X0000447159Y0003704761D01*
X0000447159Y0003717885D01*
X0000448847Y0003725384D01*
X0000452221Y0003729133D01*
X0000455596Y0003731008D01*
X0000501152Y0003717885D02*
X0000501152Y0003691638D01*
X0000485967Y0003717885D02*
X0000485967Y0003697262D01*
X0000487654Y0003693513D01*
X0000491029Y0003691638D01*
X0000496091Y0003691638D01*
X0000499465Y0003693513D01*
X0000501152Y0003695388D01*
X0000512963Y0003717885D02*
X0000526462Y0003717885D01*
X0000518025Y0003731008D02*
X0000518025Y0003697262D01*
X0000519713Y0003693513D01*
X0000523087Y0003691638D01*
X0000526462Y0003691638D01*
X0000538273Y0003717885D02*
X0000538273Y0003678515D01*
X0000538273Y0003716010D02*
X0000541647Y0003717885D01*
X0000548397Y0003717885D01*
X0000551771Y0003716010D01*
X0000553458Y0003714135D01*
X0000555146Y0003710386D01*
X0000555146Y0003699137D01*
X0000553458Y0003695388D01*
X0000551771Y0003693513D01*
X0000548397Y0003691638D01*
X0000541647Y0003691638D01*
X0000538273Y0003693513D01*
X0000585517Y0003717885D02*
X0000585517Y0003691638D01*
X0000570331Y0003717885D02*
X0000570331Y0003697262D01*
X0000572019Y0003693513D01*
X0000575393Y0003691638D01*
X0000580455Y0003691638D01*
X0000583830Y0003693513D01*
X0000585517Y0003695388D01*
X0000597328Y0003717885D02*
X0000610826Y0003717885D01*
X0000602390Y0003731008D02*
X0000602390Y0003697262D01*
X0000604077Y0003693513D01*
X0000607452Y0003691638D01*
X0000610826Y0003691638D01*
X0000659758Y0003676640D02*
X0000658070Y0003678515D01*
X0000654696Y0003684139D01*
X0000653008Y0003687889D01*
X0000651321Y0003693513D01*
X0000649634Y0003702887D01*
X0000649634Y0003710386D01*
X0000651321Y0003719760D01*
X0000653008Y0003725384D01*
X0000654696Y0003729133D01*
X0000658070Y0003734758D01*
X0000659758Y0003736632D01*
X0000693503Y0003695388D02*
X0000691816Y0003693513D01*
X0000686754Y0003691638D01*
X0000683380Y0003691638D01*
X0000678318Y0003693513D01*
X0000674943Y0003697262D01*
X0000673256Y0003701012D01*
X0000671569Y0003708511D01*
X0000671569Y0003714135D01*
X0000673256Y0003721634D01*
X0000674943Y0003725384D01*
X0000678318Y0003729133D01*
X0000683380Y0003731008D01*
X0000686754Y0003731008D01*
X0000691816Y0003729133D01*
X0000693503Y0003727259D01*
X0000705314Y0003731008D02*
X0000713751Y0003691638D01*
X0000720500Y0003719760D01*
X0000727249Y0003691638D01*
X0000735686Y0003731008D01*
X0000745809Y0003676640D02*
X0000747497Y0003678515D01*
X0000750871Y0003684139D01*
X0000752559Y0003687889D01*
X0000754246Y0003693513D01*
X0000755933Y0003702887D01*
X0000755933Y0003710386D01*
X0000754246Y0003719760D01*
X0000752559Y0003725384D01*
X0000750871Y0003729133D01*
X0000747497Y0003734758D01*
X0000745809Y0003736632D01*
X0000772806Y0003695388D02*
X0000774493Y0003693513D01*
X0000772806Y0003691638D01*
X0000771119Y0003693513D01*
X0000772806Y0003695388D01*
X0000772806Y0003691638D01*
X0000772806Y0003716010D02*
X0000774493Y0003714135D01*
X0000772806Y0003712260D01*
X0000771119Y0003714135D01*
X0000772806Y0003716010D01*
X0000772806Y0003712260D01*
X0000831861Y0003717885D02*
X0000831861Y0003691638D01*
X0000816676Y0003717885D02*
X0000816676Y0003697262D01*
X0000818363Y0003693513D01*
X0000821737Y0003691638D01*
X0000826799Y0003691638D01*
X0000830174Y0003693513D01*
X0000831861Y0003695388D01*
X0000848734Y0003717885D02*
X0000848734Y0003678515D01*
X0000848734Y0003716010D02*
X0000852109Y0003717885D01*
X0000858858Y0003717885D01*
X0000862232Y0003716010D01*
X0000863920Y0003714135D01*
X0000865607Y0003710386D01*
X0000865607Y0003699137D01*
X0000863920Y0003695388D01*
X0000862232Y0003693513D01*
X0000858858Y0003691638D01*
X0000852109Y0003691638D01*
X0000848734Y0003693513D01*
X0000902727Y0003717885D02*
X0000916226Y0003717885D01*
X0000907789Y0003731008D02*
X0000907789Y0003697262D01*
X0000909476Y0003693513D01*
X0000912851Y0003691638D01*
X0000916226Y0003691638D01*
X0000933098Y0003691638D02*
X0000929724Y0003693513D01*
X0000928037Y0003695388D01*
X0000926349Y0003699137D01*
X0000926349Y0003710386D01*
X0000928037Y0003714135D01*
X0000929724Y0003716010D01*
X0000933098Y0003717885D01*
X0000938160Y0003717885D01*
X0000941535Y0003716010D01*
X0000943222Y0003714135D01*
X0000944910Y0003710386D01*
X0000944910Y0003699137D01*
X0000943222Y0003695388D01*
X0000941535Y0003693513D01*
X0000938160Y0003691638D01*
X0000933098Y0003691638D01*
X0001005652Y0003691638D02*
X0000985404Y0003691638D01*
X0000995528Y0003691638D02*
X0000995528Y0003731008D01*
X0000992154Y0003725384D01*
X0000988779Y0003721634D01*
X0000985404Y0003719760D01*
X0001027587Y0003731008D02*
X0001030961Y0003731008D01*
X0001034336Y0003729133D01*
X0001036023Y0003727259D01*
X0001037710Y0003723509D01*
X0001039398Y0003716010D01*
X0001039398Y0003706636D01*
X0001037710Y0003699137D01*
X0001036023Y0003695388D01*
X0001034336Y0003693513D01*
X0001030961Y0003691638D01*
X0001027587Y0003691638D01*
X0001024212Y0003693513D01*
X0001022525Y0003695388D01*
X0001020837Y0003699137D01*
X0001019150Y0003706636D01*
X0001019150Y0003716010D01*
X0001020837Y0003723509D01*
X0001022525Y0003727259D01*
X0001024212Y0003729133D01*
X0001027587Y0003731008D01*
X0001096766Y0003691638D02*
X0001096766Y0003731008D01*
X0001096766Y0003693513D02*
X0001093391Y0003691638D01*
X0001086642Y0003691638D01*
X0001083267Y0003693513D01*
X0001081580Y0003695388D01*
X0001079893Y0003699137D01*
X0001079893Y0003710386D01*
X0001081580Y0003714135D01*
X0001083267Y0003716010D01*
X0001086642Y0003717885D01*
X0001093391Y0003717885D01*
X0001096766Y0003716010D01*
X0001125449Y0003712260D02*
X0001130511Y0003710386D01*
X0001132199Y0003708511D01*
X0001133886Y0003704761D01*
X0001133886Y0003699137D01*
X0001132199Y0003695388D01*
X0001130511Y0003693513D01*
X0001127137Y0003691638D01*
X0001113638Y0003691638D01*
X0001113638Y0003731008D01*
X0001125449Y0003731008D01*
X0001128824Y0003729133D01*
X0001130511Y0003727259D01*
X0001132199Y0003723509D01*
X0001132199Y0003719760D01*
X0001130511Y0003716010D01*
X0001128824Y0003714135D01*
X0001125449Y0003712260D01*
X0001113638Y0003712260D01*
X0001149071Y0003691638D02*
X0001149071Y0003717885D01*
X0001149071Y0003714135D02*
X0001150759Y0003716010D01*
X0001154133Y0003717885D01*
X0001159195Y0003717885D01*
X0001162570Y0003716010D01*
X0001164257Y0003712260D01*
X0001164257Y0003691638D01*
X0001164257Y0003712260D02*
X0001165944Y0003716010D01*
X0001169319Y0003717885D01*
X0001174381Y0003717885D01*
X0001177755Y0003716010D01*
X0001179443Y0003712260D01*
X0001179443Y0003691638D01*
X0000264932Y0003628646D02*
X0000264932Y0003668016D01*
X0000276743Y0003639895D01*
X0000288554Y0003668016D01*
X0000288554Y0003628646D01*
X0000320613Y0003654893D02*
X0000320613Y0003628646D01*
X0000305427Y0003654893D02*
X0000305427Y0003634270D01*
X0000307114Y0003630521D01*
X0000310489Y0003628646D01*
X0000315551Y0003628646D01*
X0000318925Y0003630521D01*
X0000320613Y0003632395D01*
X0000342547Y0003628646D02*
X0000339173Y0003630521D01*
X0000337485Y0003634270D01*
X0000337485Y0003668016D01*
X0000350984Y0003654893D02*
X0000364482Y0003654893D01*
X0000356046Y0003668016D02*
X0000356046Y0003634270D01*
X0000357733Y0003630521D01*
X0000361107Y0003628646D01*
X0000364482Y0003628646D01*
X0000376293Y0003628646D02*
X0000376293Y0003654893D01*
X0000376293Y0003668016D02*
X0000374606Y0003666141D01*
X0000376293Y0003664266D01*
X0000377980Y0003666141D01*
X0000376293Y0003668016D01*
X0000376293Y0003664266D01*
X0000393166Y0003654893D02*
X0000393166Y0003615523D01*
X0000393166Y0003653018D02*
X0000396541Y0003654893D01*
X0000403290Y0003654893D01*
X0000406664Y0003653018D01*
X0000408352Y0003651143D01*
X0000410039Y0003647394D01*
X0000410039Y0003636145D01*
X0000408352Y0003632395D01*
X0000406664Y0003630521D01*
X0000403290Y0003628646D01*
X0000396541Y0003628646D01*
X0000393166Y0003630521D01*
X0000430286Y0003628646D02*
X0000426912Y0003630521D01*
X0000425224Y0003634270D01*
X0000425224Y0003668016D01*
X0000457283Y0003630521D02*
X0000453908Y0003628646D01*
X0000447159Y0003628646D01*
X0000443785Y0003630521D01*
X0000442097Y0003634270D01*
X0000442097Y0003649268D01*
X0000443785Y0003653018D01*
X0000447159Y0003654893D01*
X0000453908Y0003654893D01*
X0000457283Y0003653018D01*
X0000458970Y0003649268D01*
X0000458970Y0003645519D01*
X0000442097Y0003641769D01*
X0000470781Y0003628646D02*
X0000489341Y0003654893D01*
X0000470781Y0003654893D02*
X0000489341Y0003628646D01*
X0000502840Y0003628646D02*
X0000502840Y0003654893D01*
X0000502840Y0003668016D02*
X0000501152Y0003666141D01*
X0000502840Y0003664266D01*
X0000504527Y0003666141D01*
X0000502840Y0003668016D01*
X0000502840Y0003664266D01*
X0000519713Y0003654893D02*
X0000519713Y0003628646D01*
X0000519713Y0003651143D02*
X0000521400Y0003653018D01*
X0000524775Y0003654893D01*
X0000529836Y0003654893D01*
X0000533211Y0003653018D01*
X0000534898Y0003649268D01*
X0000534898Y0003628646D01*
X0000566957Y0003654893D02*
X0000566957Y0003623022D01*
X0000565269Y0003619272D01*
X0000563582Y0003617397D01*
X0000560208Y0003615523D01*
X0000555146Y0003615523D01*
X0000551771Y0003617397D01*
X0000566957Y0003630521D02*
X0000563582Y0003628646D01*
X0000556833Y0003628646D01*
X0000553458Y0003630521D01*
X0000551771Y0003632395D01*
X0000550084Y0003636145D01*
X0000550084Y0003647394D01*
X0000551771Y0003651143D01*
X0000553458Y0003653018D01*
X0000556833Y0003654893D01*
X0000563582Y0003654893D01*
X0000566957Y0003653018D01*
X0000583830Y0003632395D02*
X0000585517Y0003630521D01*
X0000583830Y0003628646D01*
X0000582142Y0003630521D01*
X0000583830Y0003632395D01*
X0000583830Y0003628646D01*
X0000583830Y0003653018D02*
X0000585517Y0003651143D01*
X0000583830Y0003649268D01*
X0000582142Y0003651143D01*
X0000583830Y0003653018D01*
X0000583830Y0003649268D01*
X0000626012Y0003664266D02*
X0000627699Y0003666141D01*
X0000631074Y0003668016D01*
X0000639510Y0003668016D01*
X0000642885Y0003666141D01*
X0000644572Y0003664266D01*
X0000646259Y0003660517D01*
X0000646259Y0003656767D01*
X0000644572Y0003651143D01*
X0000624325Y0003628646D01*
X0000646259Y0003628646D01*
X0000658070Y0003628646D02*
X0000676631Y0003654893D01*
X0000658070Y0003654893D02*
X0000676631Y0003628646D01*
X0000688442Y0003664266D02*
X0000690129Y0003666141D01*
X0000693503Y0003668016D01*
X0000701940Y0003668016D01*
X0000705314Y0003666141D01*
X0000707002Y0003664266D01*
X0000708689Y0003660517D01*
X0000708689Y0003656767D01*
X0000707002Y0003651143D01*
X0000686754Y0003628646D01*
X0000708689Y0003628646D01*
X0000750871Y0003628646D02*
X0000750871Y0003668016D01*
X0000762682Y0003639895D01*
X0000774493Y0003668016D01*
X0000774493Y0003628646D01*
X0000791366Y0003628646D02*
X0000791366Y0003668016D01*
X0000808239Y0003628646D02*
X0000808239Y0003668016D01*
X0000820050Y0003639895D01*
X0000831861Y0003668016D01*
X0000831861Y0003628646D01*
X0000855483Y0003668016D02*
X0000862232Y0003668016D01*
X0000865607Y0003666141D01*
X0000868981Y0003662392D01*
X0000870669Y0003654893D01*
X0000870669Y0003641769D01*
X0000868981Y0003634270D01*
X0000865607Y0003630521D01*
X0000862232Y0003628646D01*
X0000855483Y0003628646D01*
X0000852109Y0003630521D01*
X0000848734Y0003634270D01*
X0000847047Y0003641769D01*
X0000847047Y0003654893D01*
X0000848734Y0003662392D01*
X0000852109Y0003666141D01*
X0000855483Y0003668016D01*
%LPC*%
X0002717791Y0003421241D02*
X0002716291Y0003418241D01*
X0002713292Y0003416741D01*
X0002686295Y0003416741D01*
X0002696794Y0003446737D02*
X0002717791Y0003446737D01*
X0002696794Y0003433239D02*
X0002713292Y0003433239D01*
X0002716291Y0003434739D01*
X0002717791Y0003437739D01*
X0002717791Y0003442238D01*
X0002716291Y0003445238D01*
X0002714791Y0003446737D01*
X0002696794Y0003457236D02*
X0002696794Y0003469235D01*
X0002717791Y0003461736D02*
X0002690794Y0003461736D01*
X0002687795Y0003463235D01*
X0002686295Y0003466235D01*
X0002686295Y0003469235D01*
X0002696794Y0003475234D02*
X0002696794Y0003487232D01*
X0002686295Y0003479733D02*
X0002713292Y0003479733D01*
X0002716291Y0003481233D01*
X0002717791Y0003484233D01*
X0002717791Y0003487232D01*
X0002716291Y0003509730D02*
X0002717791Y0003506730D01*
X0002717791Y0003500731D01*
X0002716291Y0003497731D01*
X0002713292Y0003496231D01*
X0002701293Y0003496231D01*
X0002698293Y0003497731D01*
X0002696794Y0003500731D01*
X0002696794Y0003506730D01*
X0002698293Y0003509730D01*
X0002701293Y0003511229D01*
X0002704293Y0003511229D01*
X0002707292Y0003496231D01*
X0002717791Y0003524728D02*
X0002686295Y0003524728D01*
X0002705792Y0003527727D02*
X0002717791Y0003536726D01*
X0002696794Y0003536726D02*
X0002708792Y0003524728D01*
D10*
X0002742259Y0003417972D02*
X0002740759Y0003419472D01*
X0002739259Y0003422472D01*
X0002739259Y0003429971D01*
X0002740759Y0003432970D01*
X0002742259Y0003434470D01*
X0002745259Y0003435970D01*
X0002748258Y0003435970D01*
X0002752758Y0003434470D01*
X0002770756Y0003416473D01*
X0002770756Y0003435970D01*
X0002739259Y0003455468D02*
X0002739259Y0003458467D01*
X0002740759Y0003461467D01*
X0002742259Y0003462967D01*
X0002745259Y0003464467D01*
X0002751258Y0003465966D01*
X0002758757Y0003465966D01*
X0002764756Y0003464467D01*
X0002767756Y0003462967D01*
X0002769256Y0003461467D01*
X0002770756Y0003458467D01*
X0002770756Y0003455468D01*
X0002769256Y0003452468D01*
X0002767756Y0003450968D01*
X0002764756Y0003449468D01*
X0002758757Y0003447969D01*
X0002751258Y0003447969D01*
X0002745259Y0003449468D01*
X0002742259Y0003450968D01*
X0002740759Y0003452468D01*
X0002739259Y0003455468D01*
X0002770756Y0003495963D02*
X0002770756Y0003477965D01*
X0002770756Y0003486964D02*
X0002739259Y0003486964D01*
X0002743759Y0003483964D01*
X0002746759Y0003480964D01*
X0002748258Y0003477965D01*
X0002739259Y0003506461D02*
X0002739259Y0003527459D01*
X0002770756Y0003513960D01*
X0002739259Y0003545456D02*
X0002739259Y0003548456D01*
X0002740759Y0003551456D01*
X0002742259Y0003552955D01*
X0002745259Y0003554455D01*
X0002751258Y0003555955D01*
X0002758757Y0003555955D01*
X0002764756Y0003554455D01*
X0002767756Y0003552955D01*
X0002769256Y0003551456D01*
X0002770756Y0003548456D01*
X0002770756Y0003545456D01*
X0002769256Y0003542457D01*
X0002767756Y0003540957D01*
X0002764756Y0003539457D01*
X0002758757Y0003537957D01*
X0002751258Y0003537957D01*
X0002745259Y0003539457D01*
X0002742259Y0003540957D01*
X0002740759Y0003542457D01*
X0002739259Y0003545456D01*
X0002739259Y0003582952D02*
X0002739259Y0003576952D01*
X0002740759Y0003573953D01*
X0002742259Y0003572453D01*
X0002746759Y0003569453D01*
X0002752758Y0003567954D01*
X0002764756Y0003567954D01*
X0002767756Y0003569453D01*
X0002769256Y0003570953D01*
X0002770756Y0003573953D01*
X0002770756Y0003579952D01*
X0002769256Y0003582952D01*
X0002767756Y0003584452D01*
X0002764756Y0003585951D01*
X0002757257Y0003585951D01*
X0002754258Y0003584452D01*
X0002752758Y0003582952D01*
X0002751258Y0003579952D01*
X0002751258Y0003573953D01*
X0002752758Y0003570953D01*
X0002754258Y0003569453D01*
X0002757257Y0003567954D01*
X0002770756Y0003615948D02*
X0002770756Y0003597950D01*
X0002770756Y0003606949D02*
X0002739259Y0003606949D01*
X0002743759Y0003603949D01*
X0002746759Y0003600949D01*
X0002748258Y0003597950D01*
X0002742259Y0003627946D02*
X0002740759Y0003629446D01*
X0002739259Y0003632446D01*
X0002739259Y0003639945D01*
X0002740759Y0003642944D01*
X0002742259Y0003644444D01*
X0002745259Y0003645944D01*
X0002748258Y0003645944D01*
X0002752758Y0003644444D01*
X0002770756Y0003626446D01*
X0002770756Y0003645944D01*
D11*
X0001233408Y0003073547D02*
X0001254405Y0003073547D01*
X0001240907Y0003042051D01*
X0001279902Y0003073547D02*
X0001273903Y0003073547D01*
X0001270903Y0003072047D01*
X0001269403Y0003070547D01*
X0001266404Y0003066048D01*
X0001264904Y0003060048D01*
X0001264904Y0003048050D01*
X0001266404Y0003045050D01*
X0001267903Y0003043550D01*
X0001270903Y0003042051D01*
X0001276902Y0003042051D01*
X0001279902Y0003043550D01*
X0001281402Y0003045050D01*
X0001282902Y0003048050D01*
X0001282902Y0003055549D01*
X0001281402Y0003058548D01*
X0001279902Y0003060048D01*
X0001276902Y0003061548D01*
X0001270903Y0003061548D01*
X0001267903Y0003060048D01*
X0001266404Y0003058548D01*
X0001264904Y0003055549D01*
X0001293400Y0003042051D02*
X0001309898Y0003063048D01*
X0001293400Y0003063048D02*
X0001309898Y0003042051D01*
X0001318897Y0003073547D02*
X0001338395Y0003073547D01*
X0001327896Y0003061548D01*
X0001332395Y0003061548D01*
X0001335395Y0003060048D01*
X0001336895Y0003058548D01*
X0001338395Y0003055549D01*
X0001338395Y0003048050D01*
X0001336895Y0003045050D01*
X0001335395Y0003043550D01*
X0001332395Y0003042051D01*
X0001323397Y0003042051D01*
X0001320397Y0003043550D01*
X0001318897Y0003045050D01*
X0001366891Y0003073547D02*
X0001351893Y0003073547D01*
X0001350393Y0003058548D01*
X0001351893Y0003060048D01*
X0001354893Y0003061548D01*
X0001362392Y0003061548D01*
X0001365391Y0003060048D01*
X0001366891Y0003058548D01*
X0001368391Y0003055549D01*
X0001368391Y0003048050D01*
X0001366891Y0003045050D01*
X0001365391Y0003043550D01*
X0001362392Y0003042051D01*
X0001354893Y0003042051D01*
X0001351893Y0003043550D01*
X0001350393Y0003045050D01*
X0001378890Y0003042051D02*
X0001395388Y0003063048D01*
X0001378890Y0003063048D02*
X0001395388Y0003042051D01*
X0001423884Y0003042051D02*
X0001405886Y0003042051D01*
X0001414885Y0003042051D02*
X0001414885Y0003073547D01*
X0001411885Y0003069047D01*
X0001408886Y0003066048D01*
X0001405886Y0003064548D01*
X0001443382Y0003073547D02*
X0001446381Y0003073547D01*
X0001449381Y0003072047D01*
X0001450881Y0003070547D01*
X0001452380Y0003067547D01*
X0001453880Y0003061548D01*
X0001453880Y0003054049D01*
X0001452380Y0003048050D01*
X0001450881Y0003045050D01*
X0001449381Y0003043550D01*
X0001446381Y0003042051D01*
X0001443382Y0003042051D01*
X0001440382Y0003043550D01*
X0001438882Y0003045050D01*
X0001437382Y0003048050D01*
X0001435882Y0003054049D01*
X0001435882Y0003061548D01*
X0001437382Y0003067547D01*
X0001438882Y0003070547D01*
X0001440382Y0003072047D01*
X0001443382Y0003073547D01*
X0001473378Y0003073547D02*
X0001476377Y0003073547D01*
X0001479377Y0003072047D01*
X0001480877Y0003070547D01*
X0001482377Y0003067547D01*
X0001483877Y0003061548D01*
X0001483877Y0003054049D01*
X0001482377Y0003048050D01*
X0001480877Y0003045050D01*
X0001479377Y0003043550D01*
X0001476377Y0003042051D01*
X0001473378Y0003042051D01*
X0001470378Y0003043550D01*
X0001468878Y0003045050D01*
X0001467379Y0003048050D01*
X0001465879Y0003054049D01*
X0001465879Y0003061548D01*
X0001467379Y0003067547D01*
X0001468878Y0003070547D01*
X0001470378Y0003072047D01*
X0001473378Y0003073547D01*
X0001519872Y0003043550D02*
X0001522872Y0003042051D01*
X0001528871Y0003042051D01*
X0001531870Y0003043550D01*
X0001533370Y0003046550D01*
X0001533370Y0003048050D01*
X0001531870Y0003051049D01*
X0001528871Y0003052549D01*
X0001524371Y0003052549D01*
X0001521372Y0003054049D01*
X0001519872Y0003057049D01*
X0001519872Y0003058548D01*
X0001521372Y0003061548D01*
X0001524371Y0003063048D01*
X0001528871Y0003063048D01*
X0001531870Y0003061548D01*
X0001546869Y0003063048D02*
X0001546869Y0003031552D01*
X0001546869Y0003061548D02*
X0001549868Y0003063048D01*
X0001555867Y0003063048D01*
X0001558867Y0003061548D01*
X0001560367Y0003060048D01*
X0001561867Y0003057049D01*
X0001561867Y0003048050D01*
X0001560367Y0003045050D01*
X0001558867Y0003043550D01*
X0001555867Y0003042051D01*
X0001549868Y0003042051D01*
X0001546869Y0003043550D01*
X0001579865Y0003042051D02*
X0001576865Y0003043550D01*
X0001575365Y0003046550D01*
X0001575365Y0003073547D01*
X0001591863Y0003042051D02*
X0001591863Y0003063048D01*
X0001591863Y0003073547D02*
X0001590363Y0003072047D01*
X0001591863Y0003070547D01*
X0001593363Y0003072047D01*
X0001591863Y0003073547D01*
X0001591863Y0003070547D01*
X0001602362Y0003063048D02*
X0001614360Y0003063048D01*
X0001606861Y0003073547D02*
X0001606861Y0003046550D01*
X0001608361Y0003043550D01*
X0001611361Y0003042051D01*
X0001614360Y0003042051D01*
X0001647356Y0003043550D02*
X0001650356Y0003042051D01*
X0001656355Y0003042051D01*
X0001659355Y0003043550D01*
X0001660854Y0003046550D01*
X0001660854Y0003048050D01*
X0001659355Y0003051049D01*
X0001656355Y0003052549D01*
X0001651855Y0003052549D01*
X0001648856Y0003054049D01*
X0001647356Y0003057049D01*
X0001647356Y0003058548D01*
X0001648856Y0003061548D01*
X0001651855Y0003063048D01*
X0001656355Y0003063048D01*
X0001659355Y0003061548D01*
X0001674353Y0003042051D02*
X0001674353Y0003073547D01*
X0001687851Y0003042051D02*
X0001687851Y0003058548D01*
X0001686351Y0003061548D01*
X0001683352Y0003063048D01*
X0001678852Y0003063048D01*
X0001675852Y0003061548D01*
X0001674353Y0003060048D01*
X0001714848Y0003043550D02*
X0001711848Y0003042051D01*
X0001705849Y0003042051D01*
X0001702849Y0003043550D01*
X0001701349Y0003046550D01*
X0001701349Y0003058548D01*
X0001702849Y0003061548D01*
X0001705849Y0003063048D01*
X0001711848Y0003063048D01*
X0001714848Y0003061548D01*
X0001716347Y0003058548D01*
X0001716347Y0003055549D01*
X0001701349Y0003052549D01*
X0001734345Y0003042051D02*
X0001731346Y0003043550D01*
X0001729846Y0003046550D01*
X0001729846Y0003073547D01*
X0001750843Y0003042051D02*
X0001747844Y0003043550D01*
X0001746344Y0003046550D01*
X0001746344Y0003073547D01*
D12*
X0002195669Y0003939370D02*
X0002195669Y0003783070D01*
D13*
X0002231496Y0003861417D02*
G75*
G03X0002231496Y0003861417I-0000150787D01*
G01*
D14*
X0002185433Y0003861417D02*
G75*
G03X0002185433Y0003861417I-0000104724D01*
G01*
X0002618503Y0003861417D02*
G75*
G03X0002618503Y0003861417I-0000104724D01*
G01*
D13*
X0002664566Y0003861417D02*
G75*
G03X0002664566Y0003861417I-0000150787D01*
G01*
D12*
X0002628740Y0003939370D02*
X0002628740Y0003783070D01*
D15*
G36*
X0002787796Y0004329123D02*
X0002777727Y0004254472D01*
X0000187953Y0004253687D01*
X0000188999Y0004331084D01*
X0002787796Y0004329123D01*
X0002787796Y0004329123D01*
G37*
X0002787796Y0004329123D02*
X0002777727Y0004254472D01*
X0000187953Y0004253687D01*
X0000188999Y0004331084D01*
X0002787796Y0004329123D01*
G36*
X0002760146Y0002950144D02*
X0000232744Y0002950928D01*
X0000232397Y0003026364D01*
X0002759798Y0003027149D01*
X0002760146Y0002950144D01*
X0002760146Y0002950144D01*
G37*
X0002760146Y0002950144D02*
X0000232744Y0002950928D01*
X0000232397Y0003026364D01*
X0002759798Y0003027149D01*
X0002760146Y0002950144D01*
G36*
X0002993241Y0003946418D02*
X0002983929Y0003934001D01*
X0002956507Y0003934001D01*
X0002954594Y0003933620D01*
X0002952972Y0003932536D01*
X0002951888Y0003930914D01*
X0002951507Y0003929011D01*
X0002950326Y0003354208D01*
X0002950703Y0003352294D01*
X0002951783Y0003350669D01*
X0002953403Y0003349582D01*
X0002955326Y0003349197D01*
X0002984357Y0003349197D01*
X0002993240Y0003340315D01*
X0002993240Y0002949749D01*
X0002756760Y0002949749D01*
X0002756389Y0003031377D01*
X0002756389Y0003116310D01*
X0002759356Y0003120266D01*
X0002761529Y0003121269D01*
X0002765698Y0003119879D01*
X0002789049Y0003097988D01*
X0002792225Y0003085989D01*
X0002793635Y0003083624D01*
X0002806627Y0003071419D01*
X0002808153Y0003070438D01*
X0002823507Y0003064139D01*
X0002825405Y0003063764D01*
X0002840366Y0003063764D01*
X0002842860Y0003064431D01*
X0002855853Y0003071912D01*
X0002856671Y0003072500D01*
X0002866907Y0003081555D01*
X0002868213Y0003083385D01*
X0002874906Y0003099527D01*
X0002875285Y0003101589D01*
X0002874891Y0003114974D01*
X0002874545Y0003116660D01*
X0002869427Y0003129652D01*
X0002868439Y0003131222D01*
X0002858203Y0003142245D01*
X0002856537Y0003143427D01*
X0002842031Y0003149750D01*
X0002819678Y0003171736D01*
X0002818106Y0003178025D01*
X0002820100Y0003182013D01*
X0002825877Y0003185040D01*
X0002887672Y0003185812D01*
X0002889581Y0003186217D01*
X0002891189Y0003187321D01*
X0002892253Y0003188956D01*
X0002892610Y0003190812D01*
X0002892610Y0003265615D01*
X0002892229Y0003267528D01*
X0002891145Y0003269150D01*
X0002889523Y0003270234D01*
X0002887671Y0003270614D01*
X0002795762Y0003271735D01*
X0002796150Y0004009122D01*
X0002886511Y0004010615D01*
X0002888418Y0004011028D01*
X0002890022Y0004012138D01*
X0002891079Y0004013778D01*
X0002891429Y0004015589D01*
X0002891822Y0004091179D01*
X0002891452Y0004093095D01*
X0002890376Y0004094722D01*
X0002888760Y0004095815D01*
X0002886852Y0004096205D01*
X0002821869Y0004096588D01*
X0002818344Y0004099861D01*
X0002816550Y0004103000D01*
X0002817353Y0004106413D01*
X0002839612Y0004129037D01*
X0002851176Y0004133374D01*
X0002852862Y0004134428D01*
X0002868216Y0004148995D01*
X0002869529Y0004151073D01*
X0002875434Y0004169183D01*
X0002875515Y0004172010D01*
X0002870003Y0004192876D01*
X0002868751Y0004195087D01*
X0002854184Y0004210048D01*
X0002852577Y0004211153D01*
X0002851466Y0004211485D01*
X0002829025Y0004215422D01*
X0002826948Y0004215347D01*
X0002812775Y0004211804D01*
X0002810787Y0004210795D01*
X0002796614Y0004198983D01*
X0002795210Y0004197091D01*
X0002787002Y0004177691D01*
X0002765289Y0004158922D01*
X0002763348Y0004158146D01*
X0002760290Y0004158554D01*
X0002758052Y0004160588D01*
X0002755992Y0004166476D01*
X0002755602Y0004248201D01*
X0002758941Y0004329444D01*
X0002809586Y0004328726D01*
X0002809688Y0004328725D01*
X0002993628Y0004329875D01*
X0002993241Y0003946418D01*
X0002993241Y0003946418D01*
G37*
X0002993241Y0003946418D02*
X0002983929Y0003934001D01*
X0002956507Y0003934001D01*
X0002954594Y0003933620D01*
X0002952972Y0003932536D01*
X0002951888Y0003930914D01*
X0002951507Y0003929011D01*
X0002950326Y0003354208D01*
X0002950703Y0003352294D01*
X0002951783Y0003350669D01*
X0002953403Y0003349582D01*
X0002955326Y0003349197D01*
X0002984357Y0003349197D01*
X0002993240Y0003340315D01*
X0002993240Y0002949749D01*
X0002756760Y0002949749D01*
X0002756389Y0003031377D01*
X0002756389Y0003116310D01*
X0002759356Y0003120266D01*
X0002761529Y0003121269D01*
X0002765698Y0003119879D01*
X0002789049Y0003097988D01*
X0002792225Y0003085989D01*
X0002793635Y0003083624D01*
X0002806627Y0003071419D01*
X0002808153Y0003070438D01*
X0002823507Y0003064139D01*
X0002825405Y0003063764D01*
X0002840366Y0003063764D01*
X0002842860Y0003064431D01*
X0002855853Y0003071912D01*
X0002856671Y0003072500D01*
X0002866907Y0003081555D01*
X0002868213Y0003083385D01*
X0002874906Y0003099527D01*
X0002875285Y0003101589D01*
X0002874891Y0003114974D01*
X0002874545Y0003116660D01*
X0002869427Y0003129652D01*
X0002868439Y0003131222D01*
X0002858203Y0003142245D01*
X0002856537Y0003143427D01*
X0002842031Y0003149750D01*
X0002819678Y0003171736D01*
X0002818106Y0003178025D01*
X0002820100Y0003182013D01*
X0002825877Y0003185040D01*
X0002887672Y0003185812D01*
X0002889581Y0003186217D01*
X0002891189Y0003187321D01*
X0002892253Y0003188956D01*
X0002892610Y0003190812D01*
X0002892610Y0003265615D01*
X0002892229Y0003267528D01*
X0002891145Y0003269150D01*
X0002889523Y0003270234D01*
X0002887671Y0003270614D01*
X0002795762Y0003271735D01*
X0002796150Y0004009122D01*
X0002886511Y0004010615D01*
X0002888418Y0004011028D01*
X0002890022Y0004012138D01*
X0002891079Y0004013778D01*
X0002891429Y0004015589D01*
X0002891822Y0004091179D01*
X0002891452Y0004093095D01*
X0002890376Y0004094722D01*
X0002888760Y0004095815D01*
X0002886852Y0004096205D01*
X0002821869Y0004096588D01*
X0002818344Y0004099861D01*
X0002816550Y0004103000D01*
X0002817353Y0004106413D01*
X0002839612Y0004129037D01*
X0002851176Y0004133374D01*
X0002852862Y0004134428D01*
X0002868216Y0004148995D01*
X0002869529Y0004151073D01*
X0002875434Y0004169183D01*
X0002875515Y0004172010D01*
X0002870003Y0004192876D01*
X0002868751Y0004195087D01*
X0002854184Y0004210048D01*
X0002852577Y0004211153D01*
X0002851466Y0004211485D01*
X0002829025Y0004215422D01*
X0002826948Y0004215347D01*
X0002812775Y0004211804D01*
X0002810787Y0004210795D01*
X0002796614Y0004198983D01*
X0002795210Y0004197091D01*
X0002787002Y0004177691D01*
X0002765289Y0004158922D01*
X0002763348Y0004158146D01*
X0002760290Y0004158554D01*
X0002758052Y0004160588D01*
X0002755992Y0004166476D01*
X0002755602Y0004248201D01*
X0002758941Y0004329444D01*
X0002809586Y0004328726D01*
X0002809688Y0004328725D01*
X0002993628Y0004329875D01*
X0002993241Y0003946418D01*
G36*
X0000230247Y0004250640D02*
X0000230247Y0004165707D01*
X0000227281Y0004161751D01*
X0000225108Y0004160748D01*
X0000220939Y0004162138D01*
X0000197588Y0004184029D01*
X0000194412Y0004196028D01*
X0000193002Y0004198393D01*
X0000180009Y0004210598D01*
X0000178484Y0004211579D01*
X0000163130Y0004217878D01*
X0000161232Y0004218253D01*
X0000146271Y0004218253D01*
X0000143776Y0004217586D01*
X0000130784Y0004210105D01*
X0000129966Y0004209517D01*
X0000119730Y0004200462D01*
X0000118424Y0004198632D01*
X0000111731Y0004182491D01*
X0000111352Y0004180428D01*
X0000111746Y0004167043D01*
X0000112092Y0004165357D01*
X0000117210Y0004152365D01*
X0000118198Y0004150795D01*
X0000128434Y0004139772D01*
X0000130100Y0004138590D01*
X0000144606Y0004132267D01*
X0000166959Y0004110281D01*
X0000168531Y0004103992D01*
X0000166537Y0004100004D01*
X0000160760Y0004096977D01*
X0000098965Y0004096205D01*
X0000097056Y0004095800D01*
X0000095448Y0004094696D01*
X0000094384Y0004093061D01*
X0000094027Y0004091205D01*
X0000094027Y0004016402D01*
X0000094408Y0004014489D01*
X0000095492Y0004012867D01*
X0000097114Y0004011783D01*
X0000098966Y0004011403D01*
X0000190875Y0004010282D01*
X0000190486Y0003272895D01*
X0000100126Y0003271402D01*
X0000098219Y0003270989D01*
X0000096615Y0003269879D01*
X0000095558Y0003268239D01*
X0000095208Y0003266428D01*
X0000094815Y0003190838D01*
X0000095185Y0003188922D01*
X0000096261Y0003187295D01*
X0000097877Y0003186202D01*
X0000099785Y0003185812D01*
X0000164768Y0003185429D01*
X0000168293Y0003182156D01*
X0000170087Y0003179017D01*
X0000169284Y0003175604D01*
X0000147025Y0003152980D01*
X0000135460Y0003148643D01*
X0000133775Y0003147589D01*
X0000118420Y0003133022D01*
X0000117108Y0003130944D01*
X0000111202Y0003112834D01*
X0000111122Y0003110007D01*
X0000116634Y0003089141D01*
X0000117886Y0003086930D01*
X0000132453Y0003071969D01*
X0000134060Y0003070864D01*
X0000135171Y0003070533D01*
X0000157612Y0003066596D01*
X0000159689Y0003066670D01*
X0000173862Y0003070213D01*
X0000175850Y0003071223D01*
X0000190023Y0003083034D01*
X0000191427Y0003084926D01*
X0000199635Y0003104326D01*
X0000221347Y0003123095D01*
X0000223288Y0003123871D01*
X0000226346Y0003123463D01*
X0000228585Y0003121429D01*
X0000230645Y0003115541D01*
X0000231034Y0003033816D01*
X0000227692Y0002952480D01*
X0000154923Y0002952111D01*
X-0000006991Y0002952111D01*
X-0000006604Y0003335599D01*
X0000002708Y0003348016D01*
X0000030129Y0003348016D01*
X0000032043Y0003348397D01*
X0000033665Y0003349481D01*
X0000034749Y0003351103D01*
X0000035129Y0003353006D01*
X0000036310Y0003927809D01*
X0000035934Y0003929723D01*
X0000034853Y0003931348D01*
X0000033233Y0003932435D01*
X0000031310Y0003932820D01*
X0000002279Y0003932820D01*
X-0000006602Y0003941702D01*
X-0000006602Y0004332268D01*
X0000229876Y0004332268D01*
X0000230247Y0004250640D01*
X0000230247Y0004250640D01*
G37*
X0000230247Y0004250640D02*
X0000230247Y0004165707D01*
X0000227281Y0004161751D01*
X0000225108Y0004160748D01*
X0000220939Y0004162138D01*
X0000197588Y0004184029D01*
X0000194412Y0004196028D01*
X0000193002Y0004198393D01*
X0000180009Y0004210598D01*
X0000178484Y0004211579D01*
X0000163130Y0004217878D01*
X0000161232Y0004218253D01*
X0000146271Y0004218253D01*
X0000143776Y0004217586D01*
X0000130784Y0004210105D01*
X0000129966Y0004209517D01*
X0000119730Y0004200462D01*
X0000118424Y0004198632D01*
X0000111731Y0004182491D01*
X0000111352Y0004180428D01*
X0000111746Y0004167043D01*
X0000112092Y0004165357D01*
X0000117210Y0004152365D01*
X0000118198Y0004150795D01*
X0000128434Y0004139772D01*
X0000130100Y0004138590D01*
X0000144606Y0004132267D01*
X0000166959Y0004110281D01*
X0000168531Y0004103992D01*
X0000166537Y0004100004D01*
X0000160760Y0004096977D01*
X0000098965Y0004096205D01*
X0000097056Y0004095800D01*
X0000095448Y0004094696D01*
X0000094384Y0004093061D01*
X0000094027Y0004091205D01*
X0000094027Y0004016402D01*
X0000094408Y0004014489D01*
X0000095492Y0004012867D01*
X0000097114Y0004011783D01*
X0000098966Y0004011403D01*
X0000190875Y0004010282D01*
X0000190486Y0003272895D01*
X0000100126Y0003271402D01*
X0000098219Y0003270989D01*
X0000096615Y0003269879D01*
X0000095558Y0003268239D01*
X0000095208Y0003266428D01*
X0000094815Y0003190838D01*
X0000095185Y0003188922D01*
X0000096261Y0003187295D01*
X0000097877Y0003186202D01*
X0000099785Y0003185812D01*
X0000164768Y0003185429D01*
X0000168293Y0003182156D01*
X0000170087Y0003179017D01*
X0000169284Y0003175604D01*
X0000147025Y0003152980D01*
X0000135460Y0003148643D01*
X0000133775Y0003147589D01*
X0000118420Y0003133022D01*
X0000117108Y0003130944D01*
X0000111202Y0003112834D01*
X0000111122Y0003110007D01*
X0000116634Y0003089141D01*
X0000117886Y0003086930D01*
X0000132453Y0003071969D01*
X0000134060Y0003070864D01*
X0000135171Y0003070533D01*
X0000157612Y0003066596D01*
X0000159689Y0003066670D01*
X0000173862Y0003070213D01*
X0000175850Y0003071223D01*
X0000190023Y0003083034D01*
X0000191427Y0003084926D01*
X0000199635Y0003104326D01*
X0000221347Y0003123095D01*
X0000223288Y0003123871D01*
X0000226346Y0003123463D01*
X0000228585Y0003121429D01*
X0000230645Y0003115541D01*
X0000231034Y0003033816D01*
X0000227692Y0002952480D01*
X0000154923Y0002952111D01*
X-0000006991Y0002952111D01*
X-0000006604Y0003335599D01*
X0000002708Y0003348016D01*
X0000030129Y0003348016D01*
X0000032043Y0003348397D01*
X0000033665Y0003349481D01*
X0000034749Y0003351103D01*
X0000035129Y0003353006D01*
X0000036310Y0003927809D01*
X0000035934Y0003929723D01*
X0000034853Y0003931348D01*
X0000033233Y0003932435D01*
X0000031310Y0003932820D01*
X0000002279Y0003932820D01*
X-0000006602Y0003941702D01*
X-0000006602Y0004332268D01*
X0000229876Y0004332268D01*
X0000230247Y0004250640D01*
G04 next file*
%LPD*%
G01*
D26*
D27*
X0002459373Y0000796962D02*
X0002483370Y0000796962D01*
X0002468372Y0000817960D02*
X0002468372Y0000763966D01*
X0002471372Y0000757967D01*
X0002477371Y0000754968D01*
X0002483370Y0000754968D01*
X0002498368Y0000754968D02*
X0002531364Y0000796962D01*
X0002498368Y0000796962D02*
X0002531364Y0000754968D01*
X0002552362Y0000811961D02*
X0002555361Y0000814960D01*
X0002561361Y0000817960D01*
X0002576359Y0000817960D01*
X0002582358Y0000814960D01*
X0002585358Y0000811961D01*
X0002588357Y0000805961D01*
X0002588357Y0000799962D01*
X0002585358Y0000790963D01*
X0002549362Y0000754968D01*
X0002588357Y0000754968D01*
X0002645350Y0000754968D02*
X0002615354Y0000754968D01*
X0002615354Y0000817960D01*
X0001935339Y0000798930D02*
X0001959336Y0000798930D01*
X0001944338Y0000819928D02*
X0001944338Y0000765935D01*
X0001947337Y0000759936D01*
X0001953337Y0000756936D01*
X0001959336Y0000756936D01*
X0001974334Y0000756936D02*
X0002007330Y0000798930D01*
X0001974334Y0000798930D02*
X0002007330Y0000756936D01*
X0002028327Y0000813929D02*
X0002031327Y0000816929D01*
X0002037326Y0000819928D01*
X0002052324Y0000819928D01*
X0002058323Y0000816929D01*
X0002061322Y0000813929D01*
X0002064323Y0000807930D01*
X0002064323Y0000801930D01*
X0002061322Y0000792932D01*
X0002025328Y0000756936D01*
X0002064323Y0000756936D01*
X0002091319Y0000756936D02*
X0002091319Y0000819928D01*
X0002091319Y0000789932D02*
X0002127315Y0000789932D01*
X0002127315Y0000756936D02*
X0002127315Y0000819928D01*
X0001361885Y0000754574D02*
X0001361885Y0000796569D01*
X0001361885Y0000784570D02*
X0001364885Y0000790569D01*
X0001367885Y0000793569D01*
X0001373884Y0000796569D01*
X0001379883Y0000796569D01*
X0001394881Y0000754574D02*
X0001427877Y0000796569D01*
X0001394881Y0000796569D02*
X0001427877Y0000754574D01*
X0001448875Y0000811567D02*
X0001451874Y0000814566D01*
X0001457874Y0000817566D01*
X0001472872Y0000817566D01*
X0001478871Y0000814566D01*
X0001481870Y0000811567D01*
X0001484870Y0000805568D01*
X0001484870Y0000799568D01*
X0001481870Y0000790569D01*
X0001445875Y0000754574D01*
X0001484870Y0000754574D01*
X0001505867Y0000817566D02*
X0001520865Y0000754574D01*
X0001532864Y0000799568D01*
X0001544863Y0000754574D01*
X0001559861Y0000817566D01*
X0000871597Y0000755361D02*
X0000871597Y0000797356D01*
X0000871597Y0000785358D02*
X0000874595Y0000791357D01*
X0000877595Y0000794356D01*
X0000883595Y0000797356D01*
X0000889595Y0000797356D01*
X0000904593Y0000755361D02*
X0000937589Y0000797356D01*
X0000904593Y0000797356D02*
X0000937589Y0000755361D01*
X0000958586Y0000812354D02*
X0000961586Y0000815354D01*
X0000967585Y0000818353D01*
X0000982583Y0000818353D01*
X0000988582Y0000815354D01*
X0000991582Y0000812354D01*
X0000994581Y0000806355D01*
X0000994581Y0000800356D01*
X0000991582Y0000791357D01*
X0000955586Y0000755361D01*
X0000994581Y0000755361D01*
X0001051574Y0000755361D02*
X0001021578Y0000755361D01*
X0001021578Y0000818353D01*
X0000349137Y0000752605D02*
X0000349137Y0000794600D01*
X0000349137Y0000782602D02*
X0000352137Y0000788600D01*
X0000355136Y0000791600D01*
X0000361136Y0000794600D01*
X0000367134Y0000794600D01*
X0000382133Y0000752605D02*
X0000415129Y0000794600D01*
X0000382133Y0000794600D02*
X0000415129Y0000752605D01*
X0000436126Y0000809598D02*
X0000439126Y0000812598D01*
X0000445125Y0000815598D01*
X0000460123Y0000815598D01*
X0000466122Y0000812598D01*
X0000469122Y0000809598D01*
X0000472122Y0000803599D01*
X0000472122Y0000797600D01*
X0000469122Y0000788600D01*
X0000433127Y0000752605D01*
X0000472122Y0000752605D01*
X0000499118Y0000752605D02*
X0000499118Y0000815598D01*
X0000499118Y0000785600D02*
X0000535114Y0000785600D01*
X0000535114Y0000752605D02*
X0000535114Y0000815598D01*
X0000346380Y0000851424D02*
X0000346380Y0000893419D01*
X0000346380Y0000881421D02*
X0000349380Y0000887420D01*
X0000352380Y0000890419D01*
X0000358380Y0000893419D01*
X0000364379Y0000893419D01*
X0000379377Y0000851424D02*
X0000412373Y0000893419D01*
X0000379377Y0000893419D02*
X0000412373Y0000851424D01*
X0000469366Y0000851424D02*
X0000433369Y0000851424D01*
X0000451368Y0000851424D02*
X0000451368Y0000914416D01*
X0000445369Y0000905418D01*
X0000439369Y0000899418D01*
X0000433369Y0000896419D01*
X0000496362Y0000851424D02*
X0000496362Y0000914416D01*
X0000496362Y0000884420D02*
X0000532358Y0000884420D01*
X0000532358Y0000851424D02*
X0000532358Y0000914416D01*
X0000870416Y0000850637D02*
X0000870416Y0000892632D01*
X0000870416Y0000880633D02*
X0000873415Y0000886632D01*
X0000876415Y0000889632D01*
X0000882414Y0000892632D01*
X0000888413Y0000892632D01*
X0000903411Y0000850637D02*
X0000936407Y0000892632D01*
X0000903411Y0000892632D02*
X0000936407Y0000850637D01*
X0000993400Y0000850637D02*
X0000957405Y0000850637D01*
X0000975403Y0000850637D02*
X0000975403Y0000913629D01*
X0000969403Y0000904630D01*
X0000963404Y0000898631D01*
X0000957405Y0000895631D01*
X0001050393Y0000850637D02*
X0001020397Y0000850637D01*
X0001020397Y0000913629D01*
X0001359917Y0000855755D02*
X0001359917Y0000897750D01*
X0001359917Y0000885751D02*
X0001362917Y0000891751D01*
X0001365916Y0000894750D01*
X0001371915Y0000897750D01*
X0001377915Y0000897750D01*
X0001392913Y0000855755D02*
X0001425909Y0000897750D01*
X0001392913Y0000897750D02*
X0001425909Y0000855755D01*
X0001482902Y0000855755D02*
X0001446906Y0000855755D01*
X0001464904Y0000855755D02*
X0001464904Y0000918747D01*
X0001458905Y0000909748D01*
X0001452905Y0000903749D01*
X0001446906Y0000900749D01*
X0001503898Y0000918747D02*
X0001518897Y0000855755D01*
X0001530895Y0000900749D01*
X0001542894Y0000855755D01*
X0001557892Y0000918747D01*
X0001936520Y0000893025D02*
X0001960516Y0000893025D01*
X0001945519Y0000914023D02*
X0001945519Y0000860030D01*
X0001948517Y0000854030D01*
X0001954517Y0000851031D01*
X0001960516Y0000851031D01*
X0001975514Y0000851031D02*
X0002008511Y0000893025D01*
X0001975514Y0000893025D02*
X0002008511Y0000851031D01*
X0002065503Y0000851031D02*
X0002029507Y0000851031D01*
X0002047505Y0000851031D02*
X0002047505Y0000914023D01*
X0002041507Y0000905024D01*
X0002035508Y0000899025D01*
X0002029507Y0000896025D01*
X0002092499Y0000851031D02*
X0002092499Y0000914023D01*
X0002092499Y0000884026D02*
X0002128496Y0000884026D01*
X0002128496Y0000851031D02*
X0002128496Y0000914023D01*
X0002457011Y0000893025D02*
X0002481008Y0000893025D01*
X0002466010Y0000914023D02*
X0002466010Y0000860030D01*
X0002469010Y0000854030D01*
X0002475009Y0000851031D01*
X0002481008Y0000851031D01*
X0002496006Y0000851031D02*
X0002529002Y0000893025D01*
X0002496006Y0000893025D02*
X0002529002Y0000851031D01*
X0002585994Y0000851031D02*
X0002549999Y0000851031D01*
X0002567997Y0000851031D02*
X0002567997Y0000914023D01*
X0002561998Y0000905024D01*
X0002555999Y0000899025D01*
X0002549999Y0000896025D01*
X0002642988Y0000851031D02*
X0002612991Y0000851031D01*
X0002612991Y0000914023D01*
%LPC*%
D28*
X0002774090Y0000323209D02*
X0002772589Y0000320210D01*
X0002769591Y0000318710D01*
X0002742594Y0000318710D01*
X0002753093Y0000348706D02*
X0002774090Y0000348706D01*
X0002753093Y0000335208D02*
X0002769591Y0000335208D01*
X0002772589Y0000336707D01*
X0002774090Y0000339707D01*
X0002774090Y0000344206D01*
X0002772589Y0000347206D01*
X0002771091Y0000348706D01*
X0002753093Y0000359205D02*
X0002753093Y0000371203D01*
X0002774090Y0000363704D02*
X0002747094Y0000363704D01*
X0002744094Y0000365204D01*
X0002742594Y0000368203D01*
X0002742594Y0000371203D01*
X0002753093Y0000377202D02*
X0002753093Y0000389200D01*
X0002742594Y0000381702D02*
X0002769591Y0000381702D01*
X0002772589Y0000383202D01*
X0002774090Y0000386200D01*
X0002774090Y0000389200D01*
X0002772589Y0000411697D02*
X0002774090Y0000408697D01*
X0002774090Y0000402699D01*
X0002772589Y0000399700D01*
X0002769591Y0000398200D01*
X0002757592Y0000398200D01*
X0002754593Y0000399700D01*
X0002753093Y0000402699D01*
X0002753093Y0000408697D01*
X0002754593Y0000411697D01*
X0002757592Y0000413197D01*
X0002760592Y0000413197D01*
X0002763592Y0000398200D01*
X0002774090Y0000426696D02*
X0002742594Y0000426696D01*
X0002762091Y0000429696D02*
X0002774090Y0000438695D01*
X0002753093Y0000438695D02*
X0002765091Y0000426696D01*
D26*
X0002744019Y0000465348D02*
X0002742519Y0000466848D01*
X0002741018Y0000469848D01*
X0002741018Y0000477348D01*
X0002742519Y0000480347D01*
X0002744019Y0000481847D01*
X0002747019Y0000483347D01*
X0002750018Y0000483347D01*
X0002754518Y0000481847D01*
X0002772515Y0000463848D01*
X0002772515Y0000483347D01*
X0002741018Y0000502843D02*
X0002741018Y0000505843D01*
X0002742519Y0000508843D01*
X0002744019Y0000510344D01*
X0002747019Y0000511843D01*
X0002753018Y0000513343D01*
X0002760517Y0000513343D01*
X0002766516Y0000511843D01*
X0002769516Y0000510344D01*
X0002771016Y0000508843D01*
X0002772515Y0000505843D01*
X0002772515Y0000502843D01*
X0002771016Y0000499845D01*
X0002769516Y0000498345D01*
X0002766516Y0000496845D01*
X0002760517Y0000495345D01*
X0002753018Y0000495345D01*
X0002747019Y0000496845D01*
X0002744019Y0000498345D01*
X0002742519Y0000499845D01*
X0002741018Y0000502843D01*
X0002772515Y0000543339D02*
X0002772515Y0000525342D01*
X0002772515Y0000534340D02*
X0002741018Y0000534340D01*
X0002745519Y0000531341D01*
X0002748518Y0000528341D01*
X0002750018Y0000525342D01*
X0002741018Y0000553838D02*
X0002741018Y0000574835D01*
X0002772515Y0000561337D01*
X0002741018Y0000592833D02*
X0002741018Y0000595833D01*
X0002742519Y0000598832D01*
X0002744019Y0000600332D01*
X0002747019Y0000601832D01*
X0002753018Y0000603332D01*
X0002760517Y0000603332D01*
X0002766516Y0000601832D01*
X0002769516Y0000600332D01*
X0002771016Y0000598832D01*
X0002772515Y0000595833D01*
X0002772515Y0000592833D01*
X0002771016Y0000589834D01*
X0002769516Y0000588334D01*
X0002766516Y0000586834D01*
X0002760517Y0000585334D01*
X0002753018Y0000585334D01*
X0002747019Y0000586834D01*
X0002744019Y0000588334D01*
X0002742519Y0000589834D01*
X0002741018Y0000592833D01*
X0002741018Y0000630329D02*
X0002741018Y0000624329D01*
X0002742519Y0000621330D01*
X0002744019Y0000619830D01*
X0002748518Y0000616830D01*
X0002754518Y0000615330D01*
X0002766516Y0000615330D01*
X0002769516Y0000616830D01*
X0002771016Y0000618330D01*
X0002772515Y0000621330D01*
X0002772515Y0000627329D01*
X0002771016Y0000630329D01*
X0002769516Y0000631827D01*
X0002766516Y0000633328D01*
X0002759017Y0000633328D01*
X0002756017Y0000631827D01*
X0002754518Y0000630329D01*
X0002753018Y0000627329D01*
X0002753018Y0000621330D01*
X0002754518Y0000618330D01*
X0002756017Y0000616830D01*
X0002759017Y0000615330D01*
X0002772515Y0000663324D02*
X0002772515Y0000645327D01*
X0002772515Y0000654326D02*
X0002741018Y0000654326D01*
X0002745519Y0000651326D01*
X0002748518Y0000648326D01*
X0002750018Y0000645327D01*
X0002744019Y0000675322D02*
X0002742519Y0000676823D01*
X0002741018Y0000679822D01*
X0002741018Y0000687321D01*
X0002742519Y0000690321D01*
X0002744019Y0000691821D01*
X0002747019Y0000693321D01*
X0002750018Y0000693321D01*
X0002754518Y0000691821D01*
X0002772515Y0000673823D01*
X0002772515Y0000693321D01*
D28*
X0002207424Y0000131027D02*
X0002228421Y0000131027D01*
X0002214923Y0000099530D01*
X0002253918Y0000131027D02*
X0002247918Y0000131027D01*
X0002244919Y0000129527D01*
X0002243419Y0000128027D01*
X0002240419Y0000123528D01*
X0002238920Y0000117529D01*
X0002238920Y0000105530D01*
X0002240419Y0000102530D01*
X0002241919Y0000101030D01*
X0002244919Y0000099530D01*
X0002250918Y0000099530D01*
X0002253918Y0000101030D01*
X0002255418Y0000102530D01*
X0002256917Y0000105530D01*
X0002256917Y0000113029D01*
X0002255418Y0000116029D01*
X0002253918Y0000117529D01*
X0002250918Y0000119028D01*
X0002244919Y0000119028D01*
X0002241919Y0000117529D01*
X0002240419Y0000116029D01*
X0002238920Y0000113029D01*
X0002267416Y0000099530D02*
X0002283914Y0000120528D01*
X0002267416Y0000120528D02*
X0002283914Y0000099530D01*
X0002292913Y0000131027D02*
X0002312410Y0000131027D01*
X0002301912Y0000119028D01*
X0002306411Y0000119028D01*
X0002309411Y0000117529D01*
X0002310911Y0000116029D01*
X0002312410Y0000113029D01*
X0002312410Y0000105530D01*
X0002310911Y0000102530D01*
X0002309411Y0000101030D01*
X0002306411Y0000099530D01*
X0002297412Y0000099530D01*
X0002294413Y0000101030D01*
X0002292913Y0000102530D01*
X0002340907Y0000131027D02*
X0002325909Y0000131027D01*
X0002324409Y0000116029D01*
X0002325909Y0000117529D01*
X0002328908Y0000119028D01*
X0002336407Y0000119028D01*
X0002339407Y0000117529D01*
X0002340907Y0000116029D01*
X0002342407Y0000113029D01*
X0002342407Y0000105530D01*
X0002340907Y0000102530D01*
X0002339407Y0000101030D01*
X0002336407Y0000099530D01*
X0002328908Y0000099530D01*
X0002325909Y0000101030D01*
X0002324409Y0000102530D01*
X0002352905Y0000099530D02*
X0002369403Y0000120528D01*
X0002352905Y0000120528D02*
X0002369403Y0000099530D01*
X0002397900Y0000099530D02*
X0002379902Y0000099530D01*
X0002388901Y0000099530D02*
X0002388901Y0000131027D01*
X0002385901Y0000126527D01*
X0002382902Y0000123528D01*
X0002379902Y0000122028D01*
X0002417397Y0000131027D02*
X0002420397Y0000131027D01*
X0002423397Y0000129527D01*
X0002424896Y0000128027D01*
X0002426396Y0000125028D01*
X0002427896Y0000119028D01*
X0002427896Y0000111529D01*
X0002426396Y0000105530D01*
X0002424896Y0000102530D01*
X0002423397Y0000101030D01*
X0002420397Y0000099530D01*
X0002417397Y0000099530D01*
X0002414398Y0000101030D01*
X0002412898Y0000102530D01*
X0002411398Y0000105530D01*
X0002409898Y0000111529D01*
X0002409898Y0000119028D01*
X0002411398Y0000125028D01*
X0002412898Y0000128027D01*
X0002414398Y0000129527D01*
X0002417397Y0000131027D01*
X0002447394Y0000131027D02*
X0002450393Y0000131027D01*
X0002453393Y0000129527D01*
X0002454893Y0000128027D01*
X0002456392Y0000125028D01*
X0002457892Y0000119028D01*
X0002457892Y0000111529D01*
X0002456392Y0000105530D01*
X0002454893Y0000102530D01*
X0002453393Y0000101030D01*
X0002450393Y0000099530D01*
X0002447394Y0000099530D01*
X0002444394Y0000101030D01*
X0002442894Y0000102530D01*
X0002441394Y0000105530D01*
X0002439895Y0000111529D01*
X0002439895Y0000119028D01*
X0002441394Y0000125028D01*
X0002442894Y0000128027D01*
X0002444394Y0000129527D01*
X0002447394Y0000131027D01*
X0002493888Y0000101030D02*
X0002496887Y0000099530D01*
X0002502887Y0000099530D01*
X0002505886Y0000101030D01*
X0002507386Y0000104030D01*
X0002507386Y0000105530D01*
X0002505886Y0000108530D01*
X0002502887Y0000110029D01*
X0002498387Y0000110029D01*
X0002495388Y0000111529D01*
X0002493888Y0000114529D01*
X0002493888Y0000116029D01*
X0002495388Y0000119028D01*
X0002498387Y0000120528D01*
X0002502887Y0000120528D01*
X0002505886Y0000119028D01*
X0002520884Y0000120528D02*
X0002520884Y0000089032D01*
X0002520884Y0000119028D02*
X0002523884Y0000120528D01*
X0002529883Y0000120528D01*
X0002532883Y0000119028D01*
X0002534383Y0000117529D01*
X0002535882Y0000114529D01*
X0002535882Y0000105530D01*
X0002534383Y0000102530D01*
X0002532883Y0000101030D01*
X0002529883Y0000099530D01*
X0002523884Y0000099530D01*
X0002520884Y0000101030D01*
X0002553880Y0000099530D02*
X0002550881Y0000101030D01*
X0002549381Y0000104030D01*
X0002549381Y0000131027D01*
X0002565879Y0000099530D02*
X0002565879Y0000120528D01*
X0002565879Y0000131027D02*
X0002564379Y0000129527D01*
X0002565879Y0000128027D01*
X0002567379Y0000129527D01*
X0002565879Y0000131027D01*
X0002565879Y0000128027D01*
X0002576377Y0000120528D02*
X0002588376Y0000120528D01*
X0002580877Y0000131027D02*
X0002580877Y0000104030D01*
X0002582377Y0000101030D01*
X0002585376Y0000099530D01*
X0002588376Y0000099530D01*
X0002621372Y0000101030D02*
X0002624371Y0000099530D01*
X0002630371Y0000099530D01*
X0002633370Y0000101030D01*
X0002634870Y0000104030D01*
X0002634870Y0000105530D01*
X0002633370Y0000108530D01*
X0002630371Y0000110029D01*
X0002625871Y0000110029D01*
X0002622872Y0000111529D01*
X0002621372Y0000114529D01*
X0002621372Y0000116029D01*
X0002622872Y0000119028D01*
X0002625871Y0000120528D01*
X0002630371Y0000120528D01*
X0002633370Y0000119028D01*
X0002648368Y0000099530D02*
X0002648368Y0000131027D01*
X0002661867Y0000099530D02*
X0002661867Y0000116029D01*
X0002660366Y0000119028D01*
X0002657367Y0000120528D01*
X0002652868Y0000120528D01*
X0002649868Y0000119028D01*
X0002648368Y0000117529D01*
X0002688863Y0000101030D02*
X0002685864Y0000099530D01*
X0002679865Y0000099530D01*
X0002676865Y0000101030D01*
X0002675365Y0000104030D01*
X0002675365Y0000116029D01*
X0002676865Y0000119028D01*
X0002679865Y0000120528D01*
X0002685864Y0000120528D01*
X0002688863Y0000119028D01*
X0002690363Y0000116029D01*
X0002690363Y0000113029D01*
X0002675365Y0000110029D01*
X0002708361Y0000099530D02*
X0002705361Y0000101030D01*
X0002703862Y0000104030D01*
X0002703862Y0000131027D01*
X0002724858Y0000099530D02*
X0002721859Y0000101030D01*
X0002720359Y0000104030D01*
X0002720359Y0000131027D01*
D29*
X0002652362Y0000635826D02*
X0002652362Y0000479527D01*
D30*
X0002688188Y0000557874D02*
G75*
G03X0002688188Y0000557874I-0000150787D01*
G01*
D31*
X0002642124Y0000557874D02*
G75*
G03X0002642124Y0000557874I-0000104724D01*
G01*
D29*
X0002140551Y0000635826D02*
X0002140551Y0000479527D01*
D30*
X0002176377Y0000557874D02*
G75*
G03X0002176377Y0000557874I-0000150787D01*
G01*
D31*
X0002130314Y0000557874D02*
G75*
G03X0002130314Y0000557874I-0000104724D01*
G01*
D29*
X0002652362Y0001187007D02*
X0002652362Y0001030708D01*
D30*
X0002688188Y0001109055D02*
G75*
G03X0002688188Y0001109055I-0000150787D01*
G01*
D31*
X0002642124Y0001109055D02*
G75*
G03X0002642124Y0001109055I-0000104724D01*
G01*
D29*
X0002140551Y0001187007D02*
X0002140551Y0001030708D01*
D30*
X0002176377Y0001109055D02*
G75*
G03X0002176377Y0001109055I-0000150787D01*
G01*
D31*
X0002130314Y0001109055D02*
G75*
G03X0002130314Y0001109055I-0000104724D01*
G01*
D29*
X0001589370Y0000635826D02*
X0001589370Y0000479527D01*
D30*
X0001625196Y0000557874D02*
G75*
G03X0001625196Y0000557874I-0000150787D01*
G01*
D31*
X0001579133Y0000557874D02*
G75*
G03X0001579133Y0000557874I-0000104724D01*
G01*
D29*
X0001077559Y0000635826D02*
X0001077559Y0000479527D01*
D30*
X0001113385Y0000557874D02*
G75*
G03X0001113385Y0000557874I-0000150787D01*
G01*
D31*
X0001067322Y0000557874D02*
G75*
G03X0001067322Y0000557874I-0000104724D01*
G01*
D29*
X0000565748Y0000635826D02*
X0000565748Y0000479527D01*
D30*
X0000601574Y0000557874D02*
G75*
G03X0000601574Y0000557874I-0000150787D01*
G01*
D31*
X0000555511Y0000557874D02*
G75*
G03X0000555511Y0000557874I-0000104724D01*
G01*
D29*
X0001589370Y0001187007D02*
X0001589370Y0001030708D01*
D30*
X0001625196Y0001109055D02*
G75*
G03X0001625196Y0001109055I-0000150787D01*
G01*
D31*
X0001579133Y0001109055D02*
G75*
G03X0001579133Y0001109055I-0000104724D01*
G01*
D29*
X0001077559Y0001187007D02*
X0001077559Y0001030708D01*
D30*
X0001113385Y0001109055D02*
G75*
G03X0001113385Y0001109055I-0000150787D01*
G01*
D31*
X0001067322Y0001109055D02*
G75*
G03X0001067322Y0001109055I-0000104724D01*
G01*
D29*
X0000565748Y0001187007D02*
X0000565748Y0001030708D01*
D30*
X0000601574Y0001109055D02*
G75*
G03X0000601574Y0001109055I-0000150787D01*
G01*
D31*
X0000555511Y0001109055D02*
G75*
G03X0000555511Y0001109055I-0000104724D01*
G01*
D32*
G36*
X0002789556Y0001376500D02*
X0002779487Y0001301849D01*
X0000189713Y0001301064D01*
X0000190759Y0001378460D01*
X0002789556Y0001376500D01*
X0002789556Y0001376500D01*
G37*
X0002789556Y0001376500D02*
X0002779487Y0001301849D01*
X0000189713Y0001301064D01*
X0000190759Y0001378460D01*
X0002789556Y0001376500D01*
G36*
X0002761906Y-0000002478D02*
X0000234504Y-0000001694D01*
X0000234156Y0000073741D01*
X0002761557Y0000074525D01*
X0002761906Y-0000002478D01*
X0002761906Y-0000002478D01*
G37*
X0002761906Y-0000002478D02*
X0000234504Y-0000001694D01*
X0000234156Y0000073741D01*
X0002761557Y0000074525D01*
X0002761906Y-0000002478D01*
G36*
X0002995001Y0000993794D02*
X0002985688Y0000981377D01*
X0002958267Y0000981377D01*
X0002956354Y0000980997D01*
X0002954732Y0000979913D01*
X0002953648Y0000978291D01*
X0002953267Y0000976388D01*
X0002952086Y0000401585D01*
X0002952462Y0000399670D01*
X0002953543Y0000398046D01*
X0002955163Y0000396959D01*
X0002957086Y0000396573D01*
X0002986117Y0000396573D01*
X0002995000Y0000387692D01*
X0002995000Y-0000002874D01*
X0002758520Y-0000002874D01*
X0002758149Y0000078754D01*
X0002758149Y0000163687D01*
X0002761116Y0000167643D01*
X0002763289Y0000168646D01*
X0002767458Y0000167256D01*
X0002790809Y0000145365D01*
X0002793985Y0000133366D01*
X0002795395Y0000131001D01*
X0002808387Y0000118796D01*
X0002809913Y0000117815D01*
X0002825266Y0000111515D01*
X0002827165Y0000111140D01*
X0002842125Y0000111140D01*
X0002844619Y0000111808D01*
X0002857612Y0000119288D01*
X0002858430Y0000119877D01*
X0002868667Y0000128931D01*
X0002869973Y0000130761D01*
X0002876665Y0000146903D01*
X0002877044Y0000148965D01*
X0002876651Y0000162351D01*
X0002876305Y0000164037D01*
X0002871187Y0000177029D01*
X0002870199Y0000178599D01*
X0002859963Y0000189622D01*
X0002858297Y0000190803D01*
X0002843791Y0000197126D01*
X0002821438Y0000219113D01*
X0002819866Y0000225402D01*
X0002821860Y0000229390D01*
X0002827636Y0000232416D01*
X0002889432Y0000233189D01*
X0002891341Y0000233593D01*
X0002892949Y0000234697D01*
X0002894013Y0000236333D01*
X0002894369Y0000238187D01*
X0002894369Y0000312992D01*
X0002893989Y0000314905D01*
X0002892905Y0000316526D01*
X0002891283Y0000317611D01*
X0002889431Y0000317991D01*
X0002797522Y0000319111D01*
X0002797910Y0001056499D01*
X0002888271Y0001057992D01*
X0002890178Y0001058405D01*
X0002891782Y0001059515D01*
X0002892839Y0001061155D01*
X0002893188Y0001062966D01*
X0002893582Y0001138556D01*
X0002893211Y0001140472D01*
X0002892136Y0001142099D01*
X0002890520Y0001143192D01*
X0002888612Y0001143582D01*
X0002823628Y0001143964D01*
X0002820103Y0001147238D01*
X0002818310Y0001150377D01*
X0002819113Y0001153790D01*
X0002841372Y0001176414D01*
X0002852936Y0001180751D01*
X0002854621Y0001181805D01*
X0002869976Y0001196372D01*
X0002871289Y0001198449D01*
X0002877194Y0001216560D01*
X0002877275Y0001219387D01*
X0002871763Y0001240253D01*
X0002870511Y0001242464D01*
X0002855943Y0001257425D01*
X0002854337Y0001258530D01*
X0002853226Y0001258861D01*
X0002830785Y0001262798D01*
X0002828707Y0001262724D01*
X0002814535Y0001259181D01*
X0002812547Y0001258171D01*
X0002798373Y0001246360D01*
X0002796969Y0001244467D01*
X0002788762Y0001225068D01*
X0002767049Y0001206299D01*
X0002765107Y0001205523D01*
X0002762050Y0001205930D01*
X0002759812Y0001207965D01*
X0002757751Y0001213853D01*
X0002757362Y0001295578D01*
X0002760701Y0001376821D01*
X0002811346Y0001376102D01*
X0002811448Y0001376102D01*
X0002995388Y0001377252D01*
X0002995001Y0000993794D01*
X0002995001Y0000993794D01*
G37*
X0002995001Y0000993794D02*
X0002985688Y0000981377D01*
X0002958267Y0000981377D01*
X0002956354Y0000980997D01*
X0002954732Y0000979913D01*
X0002953648Y0000978291D01*
X0002953267Y0000976388D01*
X0002952086Y0000401585D01*
X0002952462Y0000399670D01*
X0002953543Y0000398046D01*
X0002955163Y0000396959D01*
X0002957086Y0000396573D01*
X0002986117Y0000396573D01*
X0002995000Y0000387692D01*
X0002995000Y-0000002874D01*
X0002758520Y-0000002874D01*
X0002758149Y0000078754D01*
X0002758149Y0000163687D01*
X0002761116Y0000167643D01*
X0002763289Y0000168646D01*
X0002767458Y0000167256D01*
X0002790809Y0000145365D01*
X0002793985Y0000133366D01*
X0002795395Y0000131001D01*
X0002808387Y0000118796D01*
X0002809913Y0000117815D01*
X0002825266Y0000111515D01*
X0002827165Y0000111140D01*
X0002842125Y0000111140D01*
X0002844619Y0000111808D01*
X0002857612Y0000119288D01*
X0002858430Y0000119877D01*
X0002868667Y0000128931D01*
X0002869973Y0000130761D01*
X0002876665Y0000146903D01*
X0002877044Y0000148965D01*
X0002876651Y0000162351D01*
X0002876305Y0000164037D01*
X0002871187Y0000177029D01*
X0002870199Y0000178599D01*
X0002859963Y0000189622D01*
X0002858297Y0000190803D01*
X0002843791Y0000197126D01*
X0002821438Y0000219113D01*
X0002819866Y0000225402D01*
X0002821860Y0000229390D01*
X0002827636Y0000232416D01*
X0002889432Y0000233189D01*
X0002891341Y0000233593D01*
X0002892949Y0000234697D01*
X0002894013Y0000236333D01*
X0002894369Y0000238187D01*
X0002894369Y0000312992D01*
X0002893989Y0000314905D01*
X0002892905Y0000316526D01*
X0002891283Y0000317611D01*
X0002889431Y0000317991D01*
X0002797522Y0000319111D01*
X0002797910Y0001056499D01*
X0002888271Y0001057992D01*
X0002890178Y0001058405D01*
X0002891782Y0001059515D01*
X0002892839Y0001061155D01*
X0002893188Y0001062966D01*
X0002893582Y0001138556D01*
X0002893211Y0001140472D01*
X0002892136Y0001142099D01*
X0002890520Y0001143192D01*
X0002888612Y0001143582D01*
X0002823628Y0001143964D01*
X0002820103Y0001147238D01*
X0002818310Y0001150377D01*
X0002819113Y0001153790D01*
X0002841372Y0001176414D01*
X0002852936Y0001180751D01*
X0002854621Y0001181805D01*
X0002869976Y0001196372D01*
X0002871289Y0001198449D01*
X0002877194Y0001216560D01*
X0002877275Y0001219387D01*
X0002871763Y0001240253D01*
X0002870511Y0001242464D01*
X0002855943Y0001257425D01*
X0002854337Y0001258530D01*
X0002853226Y0001258861D01*
X0002830785Y0001262798D01*
X0002828707Y0001262724D01*
X0002814535Y0001259181D01*
X0002812547Y0001258171D01*
X0002798373Y0001246360D01*
X0002796969Y0001244467D01*
X0002788762Y0001225068D01*
X0002767049Y0001206299D01*
X0002765107Y0001205523D01*
X0002762050Y0001205930D01*
X0002759812Y0001207965D01*
X0002757751Y0001213853D01*
X0002757362Y0001295578D01*
X0002760701Y0001376821D01*
X0002811346Y0001376102D01*
X0002811448Y0001376102D01*
X0002995388Y0001377252D01*
X0002995001Y0000993794D01*
G36*
X0000232007Y0001298017D02*
X0000232007Y0001213084D01*
X0000229041Y0001209128D01*
X0000226867Y0001208125D01*
X0000222699Y0001209515D01*
X0000199348Y0001231406D01*
X0000196171Y0001243405D01*
X0000194761Y0001245770D01*
X0000181769Y0001257974D01*
X0000180244Y0001258956D01*
X0000164889Y0001265255D01*
X0000162992Y0001265629D01*
X0000148031Y0001265629D01*
X0000145536Y0001264962D01*
X0000132544Y0001257482D01*
X0000131726Y0001256894D01*
X0000121489Y0001247839D01*
X0000120184Y0001246009D01*
X0000113491Y0001229867D01*
X0000113111Y0001227805D01*
X0000113505Y0001214419D01*
X0000113851Y0001212734D01*
X0000118969Y0001199742D01*
X0000119958Y0001198172D01*
X0000130194Y0001187148D01*
X0000131860Y0001185967D01*
X0000146366Y0001179644D01*
X0000168718Y0001157658D01*
X0000170291Y0001151369D01*
X0000168297Y0001147380D01*
X0000162518Y0001144354D01*
X0000100723Y0001143582D01*
X0000098816Y0001143177D01*
X0000097207Y0001142073D01*
X0000096144Y0001140438D01*
X0000095787Y0001138582D01*
X0000095787Y0001063779D01*
X0000096168Y0001061866D01*
X0000097251Y0001060243D01*
X0000098874Y0001059160D01*
X0000100726Y0001058779D01*
X0000192635Y0001057658D01*
X0000192246Y0000320272D01*
X0000101885Y0000318778D01*
X0000099979Y0000318366D01*
X0000098375Y0000317256D01*
X0000097318Y0000315616D01*
X0000096968Y0000313805D01*
X0000096573Y0000238215D01*
X0000096945Y0000236299D01*
X0000098020Y0000234671D01*
X0000099637Y0000233579D01*
X0000101545Y0000233189D01*
X0000166528Y0000232806D01*
X0000170053Y0000229533D01*
X0000171847Y0000226394D01*
X0000171044Y0000222980D01*
X0000148785Y0000200356D01*
X0000137220Y0000196020D01*
X0000135535Y0000194965D01*
X0000120180Y0000180398D01*
X0000118867Y0000178321D01*
X0000112962Y0000160211D01*
X0000112882Y0000157384D01*
X0000118394Y0000136518D01*
X0000119645Y0000134307D01*
X0000134212Y0000119346D01*
X0000135820Y0000118241D01*
X0000136931Y0000117909D01*
X0000159372Y0000113972D01*
X0000161448Y0000114046D01*
X0000175622Y0000117590D01*
X0000177610Y0000118599D01*
X0000191782Y0000130410D01*
X0000193187Y0000132303D01*
X0000201395Y0000151703D01*
X0000223107Y0000170472D01*
X0000225048Y0000171248D01*
X0000228106Y0000170840D01*
X0000230344Y0000168806D01*
X0000232404Y0000162918D01*
X0000232794Y0000081192D01*
X0000229452Y-0000000142D01*
X0000156683Y-0000000510D01*
X-0000005231Y-0000000510D01*
X-0000004844Y0000382976D01*
X0000004468Y0000395393D01*
X0000031889Y0000395393D01*
X0000033803Y0000395774D01*
X0000035425Y0000396857D01*
X0000036509Y0000398480D01*
X0000036889Y0000400383D01*
X0000038070Y0000975186D01*
X0000037694Y0000977100D01*
X0000036613Y0000978725D01*
X0000034993Y0000979812D01*
X0000033070Y0000980196D01*
X0000004039Y0000980196D01*
X-0000004842Y0000989078D01*
X-0000004842Y0001379645D01*
X0000231635Y0001379645D01*
X0000232007Y0001298017D01*
X0000232007Y0001298017D01*
G37*
X0000232007Y0001298017D02*
X0000232007Y0001213084D01*
X0000229041Y0001209128D01*
X0000226867Y0001208125D01*
X0000222699Y0001209515D01*
X0000199348Y0001231406D01*
X0000196171Y0001243405D01*
X0000194761Y0001245770D01*
X0000181769Y0001257974D01*
X0000180244Y0001258956D01*
X0000164889Y0001265255D01*
X0000162992Y0001265629D01*
X0000148031Y0001265629D01*
X0000145536Y0001264962D01*
X0000132544Y0001257482D01*
X0000131726Y0001256894D01*
X0000121489Y0001247839D01*
X0000120184Y0001246009D01*
X0000113491Y0001229867D01*
X0000113111Y0001227805D01*
X0000113505Y0001214419D01*
X0000113851Y0001212734D01*
X0000118969Y0001199742D01*
X0000119958Y0001198172D01*
X0000130194Y0001187148D01*
X0000131860Y0001185967D01*
X0000146366Y0001179644D01*
X0000168718Y0001157658D01*
X0000170291Y0001151369D01*
X0000168297Y0001147380D01*
X0000162518Y0001144354D01*
X0000100723Y0001143582D01*
X0000098816Y0001143177D01*
X0000097207Y0001142073D01*
X0000096144Y0001140438D01*
X0000095787Y0001138582D01*
X0000095787Y0001063779D01*
X0000096168Y0001061866D01*
X0000097251Y0001060243D01*
X0000098874Y0001059160D01*
X0000100726Y0001058779D01*
X0000192635Y0001057658D01*
X0000192246Y0000320272D01*
X0000101885Y0000318778D01*
X0000099979Y0000318366D01*
X0000098375Y0000317256D01*
X0000097318Y0000315616D01*
X0000096968Y0000313805D01*
X0000096573Y0000238215D01*
X0000096945Y0000236299D01*
X0000098020Y0000234671D01*
X0000099637Y0000233579D01*
X0000101545Y0000233189D01*
X0000166528Y0000232806D01*
X0000170053Y0000229533D01*
X0000171847Y0000226394D01*
X0000171044Y0000222980D01*
X0000148785Y0000200356D01*
X0000137220Y0000196020D01*
X0000135535Y0000194965D01*
X0000120180Y0000180398D01*
X0000118867Y0000178321D01*
X0000112962Y0000160211D01*
X0000112882Y0000157384D01*
X0000118394Y0000136518D01*
X0000119645Y0000134307D01*
X0000134212Y0000119346D01*
X0000135820Y0000118241D01*
X0000136931Y0000117909D01*
X0000159372Y0000113972D01*
X0000161448Y0000114046D01*
X0000175622Y0000117590D01*
X0000177610Y0000118599D01*
X0000191782Y0000130410D01*
X0000193187Y0000132303D01*
X0000201395Y0000151703D01*
X0000223107Y0000170472D01*
X0000225048Y0000171248D01*
X0000228106Y0000170840D01*
X0000230344Y0000168806D01*
X0000232404Y0000162918D01*
X0000232794Y0000081192D01*
X0000229452Y-0000000142D01*
X0000156683Y-0000000510D01*
X-0000005231Y-0000000510D01*
X-0000004844Y0000382976D01*
X0000004468Y0000395393D01*
X0000031889Y0000395393D01*
X0000033803Y0000395774D01*
X0000035425Y0000396857D01*
X0000036509Y0000398480D01*
X0000036889Y0000400383D01*
X0000038070Y0000975186D01*
X0000037694Y0000977100D01*
X0000036613Y0000978725D01*
X0000034993Y0000979812D01*
X0000033070Y0000980196D01*
X0000004039Y0000980196D01*
X-0000004842Y0000989078D01*
X-0000004842Y0001379645D01*
X0000231635Y0001379645D01*
X0000232007Y0001298017D01*
G04 next file*
%LPD*%
G04 #@! TF.GenerationSoftware,KiCad,Pcbnew,(2017-06-07 revision 51bed4bae)-makepkg*
G04 #@! TF.CreationDate,2017-06-11T00:06:54+02:00*
G04 #@! TF.ProjectId,Front_Panel_76x35_4conn,46726F6E745F50616E656C5F37367833,rev?*
G04 #@! TF.FileFunction,Legend,Top*
G04 #@! TF.FilePolarity,Positive*
G04 Gerber Fmt 4.6, Leading zero omitted, Abs format (unit mm)*
G04 Created by KiCad (PCBNEW (2017-06-07 revision 51bed4bae)-makepkg) date 06/11/17 00:06:54*
G01*
G04 APERTURE LIST*
G04 APERTURE END LIST*
D43*
D44*
X0000528590Y0002462054D02*
X0000528590Y0002504049D01*
X0000528590Y0002492051D02*
X0000531589Y0002498050D01*
X0000534589Y0002501049D01*
X0000540588Y0002504049D01*
X0000546587Y0002504049D01*
X0000561586Y0002462054D02*
X0000594581Y0002504049D01*
X0000561586Y0002504049D02*
X0000594581Y0002462054D01*
X0000615579Y0002519047D02*
X0000618578Y0002522047D01*
X0000624578Y0002525046D01*
X0000639576Y0002525046D01*
X0000645575Y0002522047D01*
X0000648575Y0002519047D01*
X0000651574Y0002513048D01*
X0000651574Y0002507049D01*
X0000648575Y0002498050D01*
X0000612579Y0002462054D01*
X0000651574Y0002462054D01*
X0001056542Y0002462054D02*
X0001056542Y0002504049D01*
X0001056542Y0002492051D02*
X0001059542Y0002498050D01*
X0001062542Y0002501049D01*
X0001068541Y0002504049D01*
X0001074540Y0002504049D01*
X0001089538Y0002462054D02*
X0001122534Y0002504049D01*
X0001089538Y0002504049D02*
X0001122534Y0002462054D01*
X0001179527Y0002462054D02*
X0001143532Y0002462054D01*
X0001161529Y0002462054D02*
X0001161529Y0002525046D01*
X0001155530Y0002516048D01*
X0001149531Y0002510048D01*
X0001143532Y0002507049D01*
X0002348256Y0002504049D02*
X0002372253Y0002504049D01*
X0002357255Y0002525046D02*
X0002357255Y0002471053D01*
X0002360254Y0002465054D01*
X0002366254Y0002462054D01*
X0002372253Y0002462054D01*
X0002387251Y0002462054D02*
X0002420247Y0002504049D01*
X0002387251Y0002504049D02*
X0002420247Y0002462054D01*
X0002477240Y0002462054D02*
X0002441244Y0002462054D01*
X0002459242Y0002462054D02*
X0002459242Y0002525046D01*
X0002453243Y0002516048D01*
X0002447244Y0002510048D01*
X0002441244Y0002507049D01*
X0001820303Y0002504049D02*
X0001844300Y0002504049D01*
X0001829302Y0002525046D02*
X0001829302Y0002471053D01*
X0001832302Y0002465054D01*
X0001838301Y0002462054D01*
X0001844300Y0002462054D01*
X0001859298Y0002462054D02*
X0001892294Y0002504049D01*
X0001859298Y0002504049D02*
X0001892294Y0002462054D01*
X0001913292Y0002519047D02*
X0001916291Y0002522047D01*
X0001922290Y0002525046D01*
X0001937288Y0002525046D01*
X0001943288Y0002522047D01*
X0001946287Y0002519047D01*
X0001949287Y0002513048D01*
X0001949287Y0002507049D01*
X0001946287Y0002498050D01*
X0001910292Y0002462054D01*
X0001949287Y0002462054D01*
%LPC*%
D45*
X0002779996Y0001811398D02*
X0002778496Y0001808398D01*
X0002775496Y0001806898D01*
X0002748500Y0001806898D01*
X0002758998Y0001836895D02*
X0002779996Y0001836895D01*
X0002758998Y0001823397D02*
X0002775496Y0001823397D01*
X0002778496Y0001824896D01*
X0002779996Y0001827896D01*
X0002779996Y0001832395D01*
X0002778496Y0001835395D01*
X0002776996Y0001836895D01*
X0002758998Y0001847394D02*
X0002758998Y0001859391D01*
X0002779996Y0001851893D02*
X0002752999Y0001851893D01*
X0002750000Y0001853393D01*
X0002748500Y0001856392D01*
X0002748500Y0001859391D01*
X0002758998Y0001865390D02*
X0002758998Y0001877390D01*
X0002748500Y0001869891D02*
X0002775496Y0001869891D01*
X0002778496Y0001871391D01*
X0002779996Y0001874390D01*
X0002779996Y0001877390D01*
X0002778496Y0001899887D02*
X0002779996Y0001896886D01*
X0002779996Y0001890888D01*
X0002778496Y0001887889D01*
X0002775496Y0001886389D01*
X0002763498Y0001886389D01*
X0002760498Y0001887889D01*
X0002758998Y0001890888D01*
X0002758998Y0001896886D01*
X0002760498Y0001899887D01*
X0002763498Y0001901387D01*
X0002766497Y0001901387D01*
X0002769497Y0001886389D01*
X0002779996Y0001914885D02*
X0002748500Y0001914885D01*
X0002767996Y0001917885D02*
X0002779996Y0001926884D01*
X0002758998Y0001926884D02*
X0002770997Y0001914885D01*
D43*
X0002749925Y0001953538D02*
X0002748425Y0001955038D01*
X0002746925Y0001958037D01*
X0002746925Y0001965537D01*
X0002748425Y0001968535D01*
X0002749925Y0001970036D01*
X0002752924Y0001971536D01*
X0002755924Y0001971536D01*
X0002760423Y0001970036D01*
X0002778421Y0001952037D01*
X0002778421Y0001971536D01*
X0002746925Y0001991033D02*
X0002746925Y0001994033D01*
X0002748425Y0001997033D01*
X0002749925Y0001998533D01*
X0002752924Y0002000032D01*
X0002758923Y0002001532D01*
X0002766422Y0002001532D01*
X0002772422Y0002000032D01*
X0002775420Y0001998533D01*
X0002776921Y0001997033D01*
X0002778421Y0001994033D01*
X0002778421Y0001991033D01*
X0002776921Y0001988034D01*
X0002775420Y0001986534D01*
X0002772422Y0001985034D01*
X0002766422Y0001983534D01*
X0002758923Y0001983534D01*
X0002752924Y0001985034D01*
X0002749925Y0001986534D01*
X0002748425Y0001988034D01*
X0002746925Y0001991033D01*
X0002778421Y0002031527D02*
X0002778421Y0002013531D01*
X0002778421Y0002022530D02*
X0002746925Y0002022530D01*
X0002751424Y0002019530D01*
X0002754424Y0002016530D01*
X0002755924Y0002013531D01*
X0002746925Y0002042027D02*
X0002746925Y0002063024D01*
X0002778421Y0002049526D01*
X0002746925Y0002081022D02*
X0002746925Y0002084022D01*
X0002748425Y0002087021D01*
X0002749925Y0002088521D01*
X0002752924Y0002090021D01*
X0002758923Y0002091521D01*
X0002766422Y0002091521D01*
X0002772422Y0002090021D01*
X0002775420Y0002088521D01*
X0002776921Y0002087021D01*
X0002778421Y0002084022D01*
X0002778421Y0002081022D01*
X0002776921Y0002078023D01*
X0002775420Y0002076523D01*
X0002772422Y0002075022D01*
X0002766422Y0002073522D01*
X0002758923Y0002073522D01*
X0002752924Y0002075022D01*
X0002749925Y0002076523D01*
X0002748425Y0002078023D01*
X0002746925Y0002081022D01*
X0002746925Y0002118518D02*
X0002746925Y0002112518D01*
X0002748425Y0002109519D01*
X0002749925Y0002108019D01*
X0002754424Y0002105019D01*
X0002760423Y0002103519D01*
X0002772422Y0002103519D01*
X0002775420Y0002105019D01*
X0002776921Y0002106519D01*
X0002778421Y0002109519D01*
X0002778421Y0002115518D01*
X0002776921Y0002118518D01*
X0002775420Y0002120017D01*
X0002772422Y0002121517D01*
X0002764922Y0002121517D01*
X0002761923Y0002120017D01*
X0002760423Y0002118518D01*
X0002758923Y0002115518D01*
X0002758923Y0002109519D01*
X0002760423Y0002106519D01*
X0002761923Y0002105019D01*
X0002764922Y0002103519D01*
X0002778421Y0002151513D02*
X0002778421Y0002133516D01*
X0002778421Y0002142515D02*
X0002746925Y0002142515D01*
X0002751424Y0002139515D01*
X0002754424Y0002136515D01*
X0002755924Y0002133516D01*
X0002749925Y0002163512D02*
X0002748425Y0002165012D01*
X0002746925Y0002168011D01*
X0002746925Y0002175510D01*
X0002748425Y0002178510D01*
X0002749925Y0002180010D01*
X0002752924Y0002181510D01*
X0002755924Y0002181510D01*
X0002760423Y0002180010D01*
X0002778421Y0002162012D01*
X0002778421Y0002181510D01*
D45*
X0002213329Y0001619216D02*
X0002234326Y0001619216D01*
X0002220828Y0001587720D01*
X0002259823Y0001619216D02*
X0002253824Y0001619216D01*
X0002250824Y0001617716D01*
X0002249325Y0001616216D01*
X0002246325Y0001611717D01*
X0002244825Y0001605718D01*
X0002244825Y0001593719D01*
X0002246325Y0001590719D01*
X0002247825Y0001589220D01*
X0002250824Y0001587720D01*
X0002256824Y0001587720D01*
X0002259823Y0001589220D01*
X0002261323Y0001590719D01*
X0002262823Y0001593719D01*
X0002262823Y0001601218D01*
X0002261323Y0001604218D01*
X0002259823Y0001605718D01*
X0002256824Y0001607216D01*
X0002250824Y0001607216D01*
X0002247825Y0001605718D01*
X0002246325Y0001604218D01*
X0002244825Y0001601218D01*
X0002273322Y0001587720D02*
X0002289820Y0001608717D01*
X0002273322Y0001608717D02*
X0002289820Y0001587720D01*
X0002298818Y0001619216D02*
X0002318316Y0001619216D01*
X0002307817Y0001607216D01*
X0002312317Y0001607216D01*
X0002315316Y0001605718D01*
X0002316816Y0001604218D01*
X0002318316Y0001601218D01*
X0002318316Y0001593719D01*
X0002316816Y0001590719D01*
X0002315316Y0001589220D01*
X0002312317Y0001587720D01*
X0002303318Y0001587720D01*
X0002300318Y0001589220D01*
X0002298818Y0001590719D01*
X0002346812Y0001619216D02*
X0002331814Y0001619216D01*
X0002330314Y0001604218D01*
X0002331814Y0001605718D01*
X0002334814Y0001607216D01*
X0002342313Y0001607216D01*
X0002345313Y0001605718D01*
X0002346812Y0001604218D01*
X0002348312Y0001601218D01*
X0002348312Y0001593719D01*
X0002346812Y0001590719D01*
X0002345313Y0001589220D01*
X0002342313Y0001587720D01*
X0002334814Y0001587720D01*
X0002331814Y0001589220D01*
X0002330314Y0001590719D01*
X0002358811Y0001587720D02*
X0002375309Y0001608717D01*
X0002358811Y0001608717D02*
X0002375309Y0001587720D01*
X0002403805Y0001587720D02*
X0002385807Y0001587720D01*
X0002394806Y0001587720D02*
X0002394806Y0001619216D01*
X0002391807Y0001614716D01*
X0002388807Y0001611717D01*
X0002385807Y0001610217D01*
X0002423303Y0001619216D02*
X0002426302Y0001619216D01*
X0002429302Y0001617716D01*
X0002430802Y0001616216D01*
X0002432302Y0001613216D01*
X0002433802Y0001607216D01*
X0002433802Y0001599718D01*
X0002432302Y0001593719D01*
X0002430802Y0001590719D01*
X0002429302Y0001589220D01*
X0002426302Y0001587720D01*
X0002423303Y0001587720D01*
X0002420303Y0001589220D01*
X0002418803Y0001590719D01*
X0002417304Y0001593719D01*
X0002415804Y0001599718D01*
X0002415804Y0001607216D01*
X0002417304Y0001613216D01*
X0002418803Y0001616216D01*
X0002420303Y0001617716D01*
X0002423303Y0001619216D01*
X0002453299Y0001619216D02*
X0002456299Y0001619216D01*
X0002459298Y0001617716D01*
X0002460798Y0001616216D01*
X0002462298Y0001613216D01*
X0002463798Y0001607216D01*
X0002463798Y0001599718D01*
X0002462298Y0001593719D01*
X0002460798Y0001590719D01*
X0002459298Y0001589220D01*
X0002456299Y0001587720D01*
X0002453299Y0001587720D01*
X0002450299Y0001589220D01*
X0002448800Y0001590719D01*
X0002447300Y0001593719D01*
X0002445800Y0001599718D01*
X0002445800Y0001607216D01*
X0002447300Y0001613216D01*
X0002448800Y0001616216D01*
X0002450299Y0001617716D01*
X0002453299Y0001619216D01*
X0002499793Y0001589220D02*
X0002502793Y0001587720D01*
X0002508792Y0001587720D01*
X0002511792Y0001589220D01*
X0002513292Y0001592218D01*
X0002513292Y0001593719D01*
X0002511792Y0001596719D01*
X0002508792Y0001598218D01*
X0002504293Y0001598218D01*
X0002501293Y0001599718D01*
X0002499793Y0001602718D01*
X0002499793Y0001604218D01*
X0002501293Y0001607216D01*
X0002504293Y0001608717D01*
X0002508792Y0001608717D01*
X0002511792Y0001607216D01*
X0002526790Y0001608717D02*
X0002526790Y0001577221D01*
X0002526790Y0001607216D02*
X0002529789Y0001608717D01*
X0002535789Y0001608717D01*
X0002538788Y0001607216D01*
X0002540288Y0001605718D01*
X0002541788Y0001602718D01*
X0002541788Y0001593719D01*
X0002540288Y0001590719D01*
X0002538788Y0001589220D01*
X0002535789Y0001587720D01*
X0002529789Y0001587720D01*
X0002526790Y0001589220D01*
X0002559786Y0001587720D02*
X0002556786Y0001589220D01*
X0002555286Y0001592218D01*
X0002555286Y0001619216D01*
X0002571783Y0001587720D02*
X0002571783Y0001608717D01*
X0002571783Y0001619216D02*
X0002570284Y0001617716D01*
X0002571783Y0001616216D01*
X0002573284Y0001617716D01*
X0002571783Y0001619216D01*
X0002571783Y0001616216D01*
X0002582283Y0001608717D02*
X0002594281Y0001608717D01*
X0002586782Y0001619216D02*
X0002586782Y0001592218D01*
X0002588282Y0001589220D01*
X0002591282Y0001587720D01*
X0002594281Y0001587720D01*
X0002627277Y0001589220D02*
X0002630276Y0001587720D01*
X0002636275Y0001587720D01*
X0002639276Y0001589220D01*
X0002640776Y0001592218D01*
X0002640776Y0001593719D01*
X0002639276Y0001596719D01*
X0002636275Y0001598218D01*
X0002631777Y0001598218D01*
X0002628777Y0001599718D01*
X0002627277Y0001602718D01*
X0002627277Y0001604218D01*
X0002628777Y0001607216D01*
X0002631777Y0001608717D01*
X0002636275Y0001608717D01*
X0002639276Y0001607216D01*
X0002654274Y0001587720D02*
X0002654274Y0001619216D01*
X0002667772Y0001587720D02*
X0002667772Y0001604218D01*
X0002666272Y0001607216D01*
X0002663273Y0001608717D01*
X0002658773Y0001608717D01*
X0002655774Y0001607216D01*
X0002654274Y0001605718D01*
X0002694768Y0001589220D02*
X0002691769Y0001587720D01*
X0002685770Y0001587720D01*
X0002682770Y0001589220D01*
X0002681271Y0001592218D01*
X0002681271Y0001604218D01*
X0002682770Y0001607216D01*
X0002685770Y0001608717D01*
X0002691769Y0001608717D01*
X0002694768Y0001607216D01*
X0002696269Y0001604218D01*
X0002696269Y0001601218D01*
X0002681271Y0001598218D01*
X0002714266Y0001587720D02*
X0002711267Y0001589220D01*
X0002709767Y0001592218D01*
X0002709767Y0001619216D01*
X0002730764Y0001587720D02*
X0002727765Y0001589220D01*
X0002726265Y0001592218D01*
X0002726265Y0001619216D01*
D46*
X0001227559Y0002331102D02*
X0001227559Y0002174803D01*
D47*
X0001263385Y0002253149D02*
G75*
G03X0001263385Y0002253149I-0000150787D01*
G01*
D48*
X0001217322Y0002253149D02*
G75*
G03X0001217322Y0002253149I-0000104724D01*
G01*
D46*
X0000715748Y0002331102D02*
X0000715748Y0002174803D01*
D47*
X0000751574Y0002253149D02*
G75*
G03X0000751574Y0002253149I-0000150787D01*
G01*
D48*
X0000705511Y0002253149D02*
G75*
G03X0000705511Y0002253149I-0000104724D01*
G01*
D46*
X0002526771Y0002331102D02*
X0002526771Y0002174803D01*
D47*
X0002562598Y0002253149D02*
G75*
G03X0002562598Y0002253149I-0000150787D01*
G01*
D48*
X0002516535Y0002253149D02*
G75*
G03X0002516535Y0002253149I-0000104724D01*
G01*
D46*
X0002014959Y0002331102D02*
X0002014959Y0002174803D01*
D47*
X0002050787Y0002253149D02*
G75*
G03X0002050787Y0002253149I-0000150787D01*
G01*
D48*
X0002004724Y0002253149D02*
G75*
G03X0002004724Y0002253149I-0000104724D01*
G01*
D49*
G36*
X0002795462Y0002864689D02*
X0002785392Y0002790038D01*
X0000195619Y0002789253D01*
X0000196665Y0002866649D01*
X0002795462Y0002864689D01*
X0002795462Y0002864689D01*
G37*
X0002795462Y0002864689D02*
X0002785392Y0002790038D01*
X0000195619Y0002789253D01*
X0000196665Y0002866649D01*
X0002795462Y0002864689D01*
G36*
X0002767811Y0001485710D02*
X0000240410Y0001486494D01*
X0000240062Y0001561930D01*
X0002767463Y0001562714D01*
X0002767811Y0001485710D01*
X0002767811Y0001485710D01*
G37*
X0002767811Y0001485710D02*
X0000240410Y0001486494D01*
X0000240062Y0001561930D01*
X0002767463Y0001562714D01*
X0002767811Y0001485710D01*
G36*
X0003000907Y0002481983D02*
X0002991594Y0002469566D01*
X0002964173Y0002469566D01*
X0002962259Y0002469186D01*
X0002960637Y0002468102D01*
X0002959553Y0002466480D01*
X0002959172Y0002464577D01*
X0002957992Y0001889774D01*
X0002958368Y0001887859D01*
X0002959449Y0001886235D01*
X0002961069Y0001885147D01*
X0002962992Y0001884762D01*
X0002992023Y0001884762D01*
X0003000905Y0001875881D01*
X0003000905Y0001485314D01*
X0002764426Y0001485314D01*
X0002764055Y0001566943D01*
X0002764055Y0001651876D01*
X0002767021Y0001655832D01*
X0002769194Y0001656834D01*
X0002773363Y0001655445D01*
X0002796713Y0001633554D01*
X0002799890Y0001621555D01*
X0002801301Y0001619190D01*
X0002814293Y0001606985D01*
X0002815818Y0001606003D01*
X0002831173Y0001599704D01*
X0002833070Y0001599330D01*
X0002848031Y0001599330D01*
X0002850526Y0001599997D01*
X0002863518Y0001607477D01*
X0002864336Y0001608066D01*
X0002874572Y0001617121D01*
X0002875878Y0001618951D01*
X0002882571Y0001635092D01*
X0002882950Y0001637154D01*
X0002882556Y0001650539D01*
X0002882210Y0001652226D01*
X0002877092Y0001665218D01*
X0002876104Y0001666788D01*
X0002865868Y0001677811D01*
X0002864202Y0001678992D01*
X0002849696Y0001685315D01*
X0002827344Y0001707301D01*
X0002825771Y0001713590D01*
X0002827765Y0001717579D01*
X0002833543Y0001720604D01*
X0002895338Y0001721378D01*
X0002897246Y0001721782D01*
X0002898855Y0001722886D01*
X0002899918Y0001724522D01*
X0002900275Y0001726376D01*
X0002900275Y0001801181D01*
X0002899895Y0001803094D01*
X0002898811Y0001804715D01*
X0002897189Y0001805800D01*
X0002895336Y0001806180D01*
X0002803427Y0001807301D01*
X0002803816Y0002544688D01*
X0002894177Y0002546180D01*
X0002896083Y0002546593D01*
X0002897687Y0002547704D01*
X0002898744Y0002549344D01*
X0002899094Y0002551155D01*
X0002899488Y0002626745D01*
X0002899117Y0002628660D01*
X0002898042Y0002630288D01*
X0002896425Y0002631381D01*
X0002894517Y0002631771D01*
X0002829534Y0002632153D01*
X0002826009Y0002635427D01*
X0002824215Y0002638566D01*
X0002825018Y0002641979D01*
X0002847277Y0002664603D01*
X0002858842Y0002668940D01*
X0002860527Y0002669994D01*
X0002875882Y0002684561D01*
X0002877194Y0002686638D01*
X0002883100Y0002704749D01*
X0002883180Y0002707576D01*
X0002877668Y0002728442D01*
X0002876417Y0002730653D01*
X0002861850Y0002745614D01*
X0002860242Y0002746719D01*
X0002859131Y0002747050D01*
X0002836690Y0002750987D01*
X0002834614Y0002750913D01*
X0002820440Y0002747370D01*
X0002818452Y0002746360D01*
X0002804279Y0002734549D01*
X0002802875Y0002732656D01*
X0002794667Y0002713257D01*
X0002772954Y0002694488D01*
X0002771014Y0002693712D01*
X0002767956Y0002694119D01*
X0002765718Y0002696153D01*
X0002763656Y0002702042D01*
X0002763268Y0002783767D01*
X0002766606Y0002865009D01*
X0002817251Y0002864291D01*
X0002817353Y0002864291D01*
X0003001294Y0002865441D01*
X0003000907Y0002481983D01*
X0003000907Y0002481983D01*
G37*
X0003000907Y0002481983D02*
X0002991594Y0002469566D01*
X0002964173Y0002469566D01*
X0002962259Y0002469186D01*
X0002960637Y0002468102D01*
X0002959553Y0002466480D01*
X0002959172Y0002464577D01*
X0002957992Y0001889774D01*
X0002958368Y0001887859D01*
X0002959449Y0001886235D01*
X0002961069Y0001885147D01*
X0002962992Y0001884762D01*
X0002992023Y0001884762D01*
X0003000905Y0001875881D01*
X0003000905Y0001485314D01*
X0002764426Y0001485314D01*
X0002764055Y0001566943D01*
X0002764055Y0001651876D01*
X0002767021Y0001655832D01*
X0002769194Y0001656834D01*
X0002773363Y0001655445D01*
X0002796713Y0001633554D01*
X0002799890Y0001621555D01*
X0002801301Y0001619190D01*
X0002814293Y0001606985D01*
X0002815818Y0001606003D01*
X0002831173Y0001599704D01*
X0002833070Y0001599330D01*
X0002848031Y0001599330D01*
X0002850526Y0001599997D01*
X0002863518Y0001607477D01*
X0002864336Y0001608066D01*
X0002874572Y0001617121D01*
X0002875878Y0001618951D01*
X0002882571Y0001635092D01*
X0002882950Y0001637154D01*
X0002882556Y0001650539D01*
X0002882210Y0001652226D01*
X0002877092Y0001665218D01*
X0002876104Y0001666788D01*
X0002865868Y0001677811D01*
X0002864202Y0001678992D01*
X0002849696Y0001685315D01*
X0002827344Y0001707301D01*
X0002825771Y0001713590D01*
X0002827765Y0001717579D01*
X0002833543Y0001720604D01*
X0002895338Y0001721378D01*
X0002897246Y0001721782D01*
X0002898855Y0001722886D01*
X0002899918Y0001724522D01*
X0002900275Y0001726376D01*
X0002900275Y0001801181D01*
X0002899895Y0001803094D01*
X0002898811Y0001804715D01*
X0002897189Y0001805800D01*
X0002895336Y0001806180D01*
X0002803427Y0001807301D01*
X0002803816Y0002544688D01*
X0002894177Y0002546180D01*
X0002896083Y0002546593D01*
X0002897687Y0002547704D01*
X0002898744Y0002549344D01*
X0002899094Y0002551155D01*
X0002899488Y0002626745D01*
X0002899117Y0002628660D01*
X0002898042Y0002630288D01*
X0002896425Y0002631381D01*
X0002894517Y0002631771D01*
X0002829534Y0002632153D01*
X0002826009Y0002635427D01*
X0002824215Y0002638566D01*
X0002825018Y0002641979D01*
X0002847277Y0002664603D01*
X0002858842Y0002668940D01*
X0002860527Y0002669994D01*
X0002875882Y0002684561D01*
X0002877194Y0002686638D01*
X0002883100Y0002704749D01*
X0002883180Y0002707576D01*
X0002877668Y0002728442D01*
X0002876417Y0002730653D01*
X0002861850Y0002745614D01*
X0002860242Y0002746719D01*
X0002859131Y0002747050D01*
X0002836690Y0002750987D01*
X0002834614Y0002750913D01*
X0002820440Y0002747370D01*
X0002818452Y0002746360D01*
X0002804279Y0002734549D01*
X0002802875Y0002732656D01*
X0002794667Y0002713257D01*
X0002772954Y0002694488D01*
X0002771014Y0002693712D01*
X0002767956Y0002694119D01*
X0002765718Y0002696153D01*
X0002763656Y0002702042D01*
X0002763268Y0002783767D01*
X0002766606Y0002865009D01*
X0002817251Y0002864291D01*
X0002817353Y0002864291D01*
X0003001294Y0002865441D01*
X0003000907Y0002481983D01*
G36*
X0000237913Y0002786206D02*
X0000237913Y0002701272D01*
X0000234946Y0002697317D01*
X0000232773Y0002696314D01*
X0000228604Y0002697704D01*
X0000205253Y0002719595D01*
X0000202077Y0002731594D01*
X0000200667Y0002733959D01*
X0000187675Y0002746163D01*
X0000186149Y0002747145D01*
X0000170795Y0002753444D01*
X0000168897Y0002753818D01*
X0000153937Y0002753818D01*
X0000151442Y0002753152D01*
X0000138450Y0002745671D01*
X0000137632Y0002745082D01*
X0000127395Y0002736028D01*
X0000126090Y0002734198D01*
X0000119397Y0002718056D01*
X0000119017Y0002715993D01*
X0000119411Y0002702608D01*
X0000119757Y0002700923D01*
X0000124875Y0002687931D01*
X0000125863Y0002686361D01*
X0000136099Y0002675337D01*
X0000137765Y0002674156D01*
X0000152271Y0002667833D01*
X0000174624Y0002645847D01*
X0000176196Y0002639558D01*
X0000174202Y0002635569D01*
X0000168425Y0002632543D01*
X0000106630Y0002631771D01*
X0000104721Y0002631366D01*
X0000103113Y0002630262D01*
X0000102049Y0002628627D01*
X0000101692Y0002626771D01*
X0000101692Y0002551968D01*
X0000102073Y0002550055D01*
X0000103156Y0002548431D01*
X0000104779Y0002547349D01*
X0000106631Y0002546968D01*
X0000198540Y0002545846D01*
X0000198152Y0001808461D01*
X0000107791Y0001806967D01*
X0000105883Y0001806555D01*
X0000104280Y0001805445D01*
X0000103223Y0001803805D01*
X0000102874Y0001801993D01*
X0000102480Y0001726404D01*
X0000102851Y0001724488D01*
X0000103926Y0001722860D01*
X0000105542Y0001721768D01*
X0000107450Y0001721378D01*
X0000172433Y0001720995D01*
X0000175959Y0001717722D01*
X0000177752Y0001714583D01*
X0000176949Y0001711169D01*
X0000154690Y0001688544D01*
X0000143126Y0001684209D01*
X0000141440Y0001683154D01*
X0000126086Y0001668587D01*
X0000124773Y0001666510D01*
X0000118867Y0001648400D01*
X0000118787Y0001645572D01*
X0000124299Y0001624707D01*
X0000125551Y0001622495D01*
X0000140118Y0001607535D01*
X0000141725Y0001606430D01*
X0000142836Y0001606098D01*
X0000165276Y0001602161D01*
X0000167353Y0001602234D01*
X0000181527Y0001605779D01*
X0000183515Y0001606788D01*
X0000197689Y0001618599D01*
X0000199093Y0001620492D01*
X0000207300Y0001639892D01*
X0000229013Y0001658661D01*
X0000230954Y0001659437D01*
X0000234012Y0001659029D01*
X0000236250Y0001656995D01*
X0000238311Y0001651107D01*
X0000238700Y0001569381D01*
X0000235357Y0001488046D01*
X0000162588Y0001487676D01*
X0000000674Y0001487676D01*
X0000001061Y0001871165D01*
X0000010374Y0001883582D01*
X0000037795Y0001883582D01*
X0000039708Y0001883962D01*
X0000041330Y0001885047D01*
X0000042414Y0001886669D01*
X0000042795Y0001888572D01*
X0000043976Y0002463375D01*
X0000043598Y0002465289D01*
X0000042519Y0002466914D01*
X0000040899Y0002468001D01*
X0000038976Y0002468385D01*
X0000009945Y0002468385D01*
X0000001062Y0002477267D01*
X0000001062Y0002867834D01*
X0000237542Y0002867834D01*
X0000237913Y0002786206D01*
X0000237913Y0002786206D01*
G37*
X0000237913Y0002786206D02*
X0000237913Y0002701272D01*
X0000234946Y0002697317D01*
X0000232773Y0002696314D01*
X0000228604Y0002697704D01*
X0000205253Y0002719595D01*
X0000202077Y0002731594D01*
X0000200667Y0002733959D01*
X0000187675Y0002746163D01*
X0000186149Y0002747145D01*
X0000170795Y0002753444D01*
X0000168897Y0002753818D01*
X0000153937Y0002753818D01*
X0000151442Y0002753152D01*
X0000138450Y0002745671D01*
X0000137632Y0002745082D01*
X0000127395Y0002736028D01*
X0000126090Y0002734198D01*
X0000119397Y0002718056D01*
X0000119017Y0002715993D01*
X0000119411Y0002702608D01*
X0000119757Y0002700923D01*
X0000124875Y0002687931D01*
X0000125863Y0002686361D01*
X0000136099Y0002675337D01*
X0000137765Y0002674156D01*
X0000152271Y0002667833D01*
X0000174624Y0002645847D01*
X0000176196Y0002639558D01*
X0000174202Y0002635569D01*
X0000168425Y0002632543D01*
X0000106630Y0002631771D01*
X0000104721Y0002631366D01*
X0000103113Y0002630262D01*
X0000102049Y0002628627D01*
X0000101692Y0002626771D01*
X0000101692Y0002551968D01*
X0000102073Y0002550055D01*
X0000103156Y0002548431D01*
X0000104779Y0002547349D01*
X0000106631Y0002546968D01*
X0000198540Y0002545846D01*
X0000198152Y0001808461D01*
X0000107791Y0001806967D01*
X0000105883Y0001806555D01*
X0000104280Y0001805445D01*
X0000103223Y0001803805D01*
X0000102874Y0001801993D01*
X0000102480Y0001726404D01*
X0000102851Y0001724488D01*
X0000103926Y0001722860D01*
X0000105542Y0001721768D01*
X0000107450Y0001721378D01*
X0000172433Y0001720995D01*
X0000175959Y0001717722D01*
X0000177752Y0001714583D01*
X0000176949Y0001711169D01*
X0000154690Y0001688544D01*
X0000143126Y0001684209D01*
X0000141440Y0001683154D01*
X0000126086Y0001668587D01*
X0000124773Y0001666510D01*
X0000118867Y0001648400D01*
X0000118787Y0001645572D01*
X0000124299Y0001624707D01*
X0000125551Y0001622495D01*
X0000140118Y0001607535D01*
X0000141725Y0001606430D01*
X0000142836Y0001606098D01*
X0000165276Y0001602161D01*
X0000167353Y0001602234D01*
X0000181527Y0001605779D01*
X0000183515Y0001606788D01*
X0000197689Y0001618599D01*
X0000199093Y0001620492D01*
X0000207300Y0001639892D01*
X0000229013Y0001658661D01*
X0000230954Y0001659437D01*
X0000234012Y0001659029D01*
X0000236250Y0001656995D01*
X0000238311Y0001651107D01*
X0000238700Y0001569381D01*
X0000235357Y0001488046D01*
X0000162588Y0001487676D01*
X0000000674Y0001487676D01*
X0000001061Y0001871165D01*
X0000010374Y0001883582D01*
X0000037795Y0001883582D01*
X0000039708Y0001883962D01*
X0000041330Y0001885047D01*
X0000042414Y0001886669D01*
X0000042795Y0001888572D01*
X0000043976Y0002463375D01*
X0000043598Y0002465289D01*
X0000042519Y0002466914D01*
X0000040899Y0002468001D01*
X0000038976Y0002468385D01*
X0000009945Y0002468385D01*
X0000001062Y0002477267D01*
X0000001062Y0002867834D01*
X0000237542Y0002867834D01*
X0000237913Y0002786206D01*
M02*