%MOIN*%
%OFA0B0*%
%FSLAX44Y44*%
%IPPOS*%
%LPD*%
%ADD10C,0*%
D10*
X00025126Y00030402D02*
X00025126Y00030402D01*
X00019811Y00030402D01*
X00019702Y00030415D01*
X00019598Y00030451D01*
X00019504Y00030510D01*
X00019426Y00030588D01*
X00019368Y00030681D01*
X00019331Y00030785D01*
X00019319Y00030895D01*
X00019331Y00031004D01*
X00019368Y00031108D01*
X00019426Y00031201D01*
X00019504Y00031279D01*
X00019598Y00031338D01*
X00019702Y00031374D01*
X00019811Y00031387D01*
X00025126Y00031387D01*
X00025236Y00031374D01*
X00025340Y00031338D01*
X00025433Y00031279D01*
X00025511Y00031201D01*
X00025569Y00031108D01*
X00025606Y00031004D01*
X00025618Y00030895D01*
X00025606Y00030785D01*
X00025569Y00030681D01*
X00025511Y00030588D01*
X00025433Y00030510D01*
X00025340Y00030451D01*
X00025236Y00030415D01*
X00025126Y00030402D01*
X00008984Y00030402D02*
X00008984Y00030402D01*
X00004850Y00030402D01*
X00004741Y00030415D01*
X00004637Y00030451D01*
X00004544Y00030510D01*
X00004466Y00030588D01*
X00004407Y00030681D01*
X00004371Y00030785D01*
X00004358Y00030895D01*
X00004371Y00031004D01*
X00004407Y00031108D01*
X00004466Y00031201D01*
X00004544Y00031279D01*
X00004637Y00031338D01*
X00004741Y00031374D01*
X00004850Y00031387D01*
X00008984Y00031387D01*
X00009094Y00031374D01*
X00009198Y00031338D01*
X00009291Y00031279D01*
X00009369Y00031201D01*
X00009428Y00031108D01*
X00009464Y00031004D01*
X00009476Y00030895D01*
X00009464Y00030785D01*
X00009428Y00030681D01*
X00009369Y00030588D01*
X00009291Y00030510D01*
X00009198Y00030451D01*
X00009094Y00030415D01*
X00008984Y00030402D01*
X00028339Y00030511D02*
X00028339Y00030511D01*
X00028220Y00030518D01*
X00028105Y00030550D01*
X00028000Y00030605D01*
X00027909Y00030683D01*
X00027837Y00030777D01*
X00027787Y00030886D01*
X00027761Y00031002D01*
X00027761Y00031121D01*
X00027787Y00031238D01*
X00027837Y00031346D01*
X00027909Y00031441D01*
X00028000Y00031518D01*
X00028105Y00031574D01*
X00028220Y00031606D01*
X00028339Y00031612D01*
X00028456Y00031593D01*
X00028567Y00031549D01*
X00028666Y00031482D01*
X00028748Y00031395D01*
X00028809Y00031293D01*
X00028847Y00031180D01*
X00028860Y00031062D01*
X00028847Y00030943D01*
X00028809Y00030830D01*
X00028748Y00030728D01*
X00028666Y00030642D01*
X00028567Y00030575D01*
X00028456Y00030531D01*
X00028339Y00030511D01*
X00001577Y00030521D02*
X00001577Y00030521D01*
X00001458Y00030527D01*
X00001343Y00030559D01*
X00001238Y00030615D01*
X00001147Y00030692D01*
X00001075Y00030787D01*
X00001025Y00030895D01*
X00000999Y00031011D01*
X00000999Y00031131D01*
X00001025Y00031247D01*
X00001075Y00031355D01*
X00001147Y00031450D01*
X00001238Y00031527D01*
X00001343Y00031583D01*
X00001458Y00031615D01*
X00001577Y00031621D01*
X00001694Y00031602D01*
X00001805Y00031558D01*
X00001904Y00031491D01*
X00001986Y00031405D01*
X00002047Y00031302D01*
X00002085Y00031189D01*
X00002098Y00031071D01*
X00002085Y00030953D01*
X00002047Y00030840D01*
X00001986Y00030737D01*
X00001904Y00030651D01*
X00001805Y00030584D01*
X00001694Y00030540D01*
X00001577Y00030521D01*
X00021832Y00032473D02*
X00021832Y00032473D01*
X00021700Y00032480D01*
X00021573Y00032515D01*
X00021456Y00032577D01*
X00021356Y00032662D01*
X00021276Y00032768D01*
X00021221Y00032887D01*
X00021192Y00033016D01*
X00021192Y00033148D01*
X00021221Y00033277D01*
X00021276Y00033397D01*
X00021356Y00033502D01*
X00021456Y00033587D01*
X00021573Y00033649D01*
X00021700Y00033684D01*
X00021832Y00033691D01*
X00021962Y00033670D01*
X00022085Y00033621D01*
X00022194Y00033547D01*
X00022285Y00033451D01*
X00022353Y00033338D01*
X00022395Y00033213D01*
X00022409Y00033082D01*
X00022395Y00032951D01*
X00022353Y00032826D01*
X00022285Y00032713D01*
X00022194Y00032617D01*
X00022085Y00032543D01*
X00021962Y00032494D01*
X00021832Y00032473D01*
X00020002Y00032473D02*
X00020002Y00032473D01*
X00019870Y00032480D01*
X00019743Y00032515D01*
X00019626Y00032577D01*
X00019525Y00032662D01*
X00019446Y00032768D01*
X00019390Y00032887D01*
X00019362Y00033016D01*
X00019362Y00033148D01*
X00019390Y00033277D01*
X00019446Y00033397D01*
X00019525Y00033502D01*
X00019626Y00033587D01*
X00019743Y00033649D01*
X00019870Y00033684D01*
X00020002Y00033691D01*
X00020132Y00033670D01*
X00020254Y00033621D01*
X00020364Y00033547D01*
X00020454Y00033451D01*
X00020522Y00033338D01*
X00020564Y00033213D01*
X00020579Y00033082D01*
X00020564Y00032951D01*
X00020522Y00032826D01*
X00020454Y00032713D01*
X00020364Y00032617D01*
X00020254Y00032543D01*
X00020132Y00032494D01*
X00020002Y00032473D01*
X00027094Y00032784D02*
X00027094Y00032784D01*
X00025126Y00032784D01*
X00025016Y00032797D01*
X00024912Y00032833D01*
X00024819Y00032892D01*
X00024741Y00032970D01*
X00024683Y00033063D01*
X00024646Y00033167D01*
X00024634Y00033276D01*
X00024646Y00033386D01*
X00024683Y00033490D01*
X00024741Y00033583D01*
X00024819Y00033661D01*
X00024912Y00033720D01*
X00025016Y00033756D01*
X00025126Y00033769D01*
X00027094Y00033769D01*
X00027204Y00033756D01*
X00027308Y00033720D01*
X00027401Y00033661D01*
X00027479Y00033583D01*
X00027538Y00033490D01*
X00027574Y00033386D01*
X00027587Y00033276D01*
X00027574Y00033167D01*
X00027538Y00033063D01*
X00027479Y00032970D01*
X00027401Y00032892D01*
X00027308Y00032833D01*
X00027204Y00032797D01*
X00027094Y00032784D01*
X00004654Y00032981D02*
X00004654Y00032981D01*
X00002685Y00032981D01*
X00002576Y00032994D01*
X00002472Y00033030D01*
X00002378Y00033089D01*
X00002300Y00033166D01*
X00002242Y00033260D01*
X00002205Y00033364D01*
X00002193Y00033473D01*
X00002205Y00033583D01*
X00002242Y00033687D01*
X00002300Y00033780D01*
X00002378Y00033858D01*
X00002472Y00033917D01*
X00002576Y00033953D01*
X00002685Y00033965D01*
X00004654Y00033965D01*
X00004763Y00033953D01*
X00004867Y00033917D01*
X00004960Y00033858D01*
X00005038Y00033780D01*
X00005097Y00033687D01*
X00005133Y00033583D01*
X00005146Y00033473D01*
X00005133Y00033364D01*
X00005097Y00033260D01*
X00005038Y00033166D01*
X00004960Y00033089D01*
X00004867Y00033030D01*
X00004763Y00032994D01*
X00004654Y00032981D01*
X00012764Y00030956D02*
X00012764Y00030956D01*
X00012733Y00030959D01*
X00012703Y00030966D01*
X00012674Y00030978D01*
X00012648Y00030994D01*
X00012625Y00031014D01*
X00012604Y00031037D01*
X00012588Y00031064D01*
X00012577Y00031092D01*
X00012569Y00031122D01*
X00012567Y00031153D01*
X00012567Y00032775D01*
X00012370Y00032775D01*
X00012339Y00032777D01*
X00012309Y00032785D01*
X00012281Y00032796D01*
X00012254Y00032813D01*
X00012231Y00032833D01*
X00012211Y00032856D01*
X00012195Y00032883D01*
X00012183Y00032911D01*
X00012176Y00032941D01*
X00012173Y00032972D01*
X00012173Y00034066D01*
X00012176Y00034097D01*
X00012183Y00034127D01*
X00012195Y00034156D01*
X00012211Y00034182D01*
X00012231Y00034206D01*
X00012254Y00034226D01*
X00012281Y00034242D01*
X00012309Y00034254D01*
X00012339Y00034261D01*
X00012370Y00034263D01*
X00017508Y00034263D01*
X00017539Y00034261D01*
X00017569Y00034254D01*
X00017597Y00034242D01*
X00017624Y00034226D01*
X00017647Y00034206D01*
X00017667Y00034182D01*
X00017683Y00034156D01*
X00017695Y00034127D01*
X00017702Y00034097D01*
X00017705Y00034066D01*
X00017705Y00032972D01*
X00017702Y00032941D01*
X00017695Y00032911D01*
X00017683Y00032883D01*
X00017667Y00032856D01*
X00017647Y00032833D01*
X00017624Y00032813D01*
X00017597Y00032796D01*
X00017569Y00032785D01*
X00017539Y00032777D01*
X00017508Y00032775D01*
X00017370Y00032775D01*
X00017370Y00031153D01*
X00017368Y00031122D01*
X00017360Y00031092D01*
X00017349Y00031064D01*
X00017332Y00031037D01*
X00017312Y00031014D01*
X00017289Y00030994D01*
X00017263Y00030978D01*
X00017234Y00030966D01*
X00017204Y00030959D01*
X00017173Y00030956D01*
X00012764Y00030956D01*
X00008630Y00031980D02*
X00008630Y00031980D01*
X00006917Y00031980D01*
X00006880Y00031983D01*
X00006844Y00031991D01*
X00006810Y00032006D01*
X00006778Y00032025D01*
X00006750Y00032049D01*
X00006726Y00032077D01*
X00006707Y00032109D01*
X00006693Y00032143D01*
X00006684Y00032179D01*
X00006681Y00032216D01*
X00006681Y00034854D01*
X00006684Y00034891D01*
X00006692Y00034927D01*
X00006706Y00034961D01*
X00006726Y00034993D01*
X00006750Y00035021D01*
X00006778Y00035045D01*
X00006810Y00035065D01*
X00006844Y00035079D01*
X00006880Y00035088D01*
X00006917Y00035090D01*
X00008630Y00035090D01*
X00008670Y00035087D01*
X00008706Y00035078D01*
X00008739Y00035063D01*
X00008770Y00035044D01*
X00008798Y00035020D01*
X00008822Y00034992D01*
X00008841Y00034960D01*
X00008855Y00034926D01*
X00008863Y00034890D01*
X00008866Y00034854D01*
X00008866Y00032216D01*
X00008863Y00032179D01*
X00008854Y00032143D01*
X00008840Y00032109D01*
X00008821Y00032077D01*
X00008797Y00032049D01*
X00008768Y00032025D01*
X00008737Y00032006D01*
X00008703Y00031992D01*
X00008667Y00031983D01*
X00008630Y00031980D01*
X00008630Y00031980D01*
X00021832Y00034478D02*
X00021832Y00034478D01*
X00021700Y00034485D01*
X00021573Y00034521D01*
X00021457Y00034582D01*
X00021356Y00034668D01*
X00021276Y00034773D01*
X00021221Y00034893D01*
X00021193Y00035022D01*
X00021193Y00035153D01*
X00021221Y00035282D01*
X00021276Y00035402D01*
X00021356Y00035507D01*
X00021457Y00035593D01*
X00021573Y00035654D01*
X00021700Y00035690D01*
X00021832Y00035697D01*
X00021962Y00035675D01*
X00022085Y00035627D01*
X00022194Y00035553D01*
X00022285Y00035457D01*
X00022353Y00035344D01*
X00022395Y00035219D01*
X00022409Y00035087D01*
X00022395Y00034956D01*
X00022353Y00034831D01*
X00022285Y00034718D01*
X00022194Y00034622D01*
X00022085Y00034548D01*
X00021962Y00034499D01*
X00021832Y00034478D01*
X00020002Y00034478D02*
X00020002Y00034478D01*
X00019870Y00034485D01*
X00019743Y00034521D01*
X00019626Y00034582D01*
X00019525Y00034668D01*
X00019446Y00034773D01*
X00019390Y00034893D01*
X00019362Y00035022D01*
X00019362Y00035153D01*
X00019390Y00035282D01*
X00019446Y00035402D01*
X00019525Y00035507D01*
X00019626Y00035593D01*
X00019743Y00035654D01*
X00019870Y00035690D01*
X00020002Y00035697D01*
X00020132Y00035675D01*
X00020254Y00035627D01*
X00020364Y00035553D01*
X00020454Y00035457D01*
X00020522Y00035344D01*
X00020564Y00035219D01*
X00020579Y00035087D01*
X00020564Y00034956D01*
X00020522Y00034831D01*
X00020454Y00034718D01*
X00020364Y00034622D01*
X00020254Y00034548D01*
X00020132Y00034499D01*
X00020002Y00034478D01*
X00025220Y00037337D02*
X00025220Y00037337D01*
X00025052Y00037337D01*
X00024887Y00037359D01*
X00024725Y00037402D01*
X00024571Y00037466D01*
X00024426Y00037550D01*
X00024293Y00037652D01*
X00024175Y00037770D01*
X00024073Y00037903D01*
X00023989Y00038048D01*
X00023925Y00038203D01*
X00023882Y00038364D01*
X00023860Y00038530D01*
X00023860Y00038697D01*
X00023882Y00038863D01*
X00023925Y00039025D01*
X00023989Y00039179D01*
X00024073Y00039324D01*
X00024175Y00039457D01*
X00024293Y00039575D01*
X00024426Y00039677D01*
X00024571Y00039761D01*
X00024725Y00039825D01*
X00024887Y00039869D01*
X00025052Y00039891D01*
X00025220Y00039891D01*
X00025386Y00039869D01*
X00025547Y00039826D01*
X00025702Y00039762D01*
X00025847Y00039679D01*
X00025980Y00039577D01*
X00026098Y00039459D01*
X00026200Y00039326D01*
X00026200Y00037901D01*
X00026098Y00037769D01*
X00025980Y00037650D01*
X00025847Y00037549D01*
X00025702Y00037465D01*
X00025547Y00037401D01*
X00025386Y00037358D01*
X00025220Y00037337D01*
X00020889Y00037337D02*
X00020889Y00037337D01*
X00020722Y00037337D01*
X00020556Y00037359D01*
X00020394Y00037402D01*
X00020240Y00037466D01*
X00020095Y00037550D01*
X00019962Y00037652D01*
X00019844Y00037770D01*
X00019742Y00037903D01*
X00019659Y00038048D01*
X00019595Y00038203D01*
X00019551Y00038364D01*
X00019530Y00038530D01*
X00019530Y00038697D01*
X00019551Y00038863D01*
X00019595Y00039025D01*
X00019659Y00039179D01*
X00019742Y00039324D01*
X00019844Y00039457D01*
X00019962Y00039575D01*
X00020095Y00039677D01*
X00020240Y00039761D01*
X00020394Y00039825D01*
X00020556Y00039869D01*
X00020722Y00039891D01*
X00020889Y00039891D01*
X00021055Y00039869D01*
X00021217Y00039826D01*
X00021371Y00039762D01*
X00021516Y00039679D01*
X00021649Y00039577D01*
X00021768Y00039459D01*
X00021870Y00039326D01*
X00021870Y00037901D01*
X00021768Y00037769D01*
X00021649Y00037650D01*
X00021516Y00037549D01*
X00021371Y00037465D01*
X00021217Y00037401D01*
X00021055Y00037358D01*
X00020889Y00037337D01*
X00013906Y00041249D02*
X00013906Y00041249D01*
X00010559Y00041249D01*
X00010450Y00041261D01*
X00010346Y00041298D01*
X00010252Y00041356D01*
X00010174Y00041434D01*
X00010116Y00041528D01*
X00010079Y00041632D01*
X00010067Y00041741D01*
X00010079Y00041851D01*
X00010116Y00041955D01*
X00010174Y00042048D01*
X00010252Y00042126D01*
X00010346Y00042184D01*
X00010450Y00042221D01*
X00010559Y00042233D01*
X00013906Y00042233D01*
X00014015Y00042221D01*
X00014119Y00042184D01*
X00014212Y00042126D01*
X00014290Y00042048D01*
X00014349Y00041955D01*
X00014385Y00041851D01*
X00014398Y00041741D01*
X00014385Y00041632D01*
X00014349Y00041528D01*
X00014290Y00041434D01*
X00014212Y00041356D01*
X00014119Y00041298D01*
X00014015Y00041261D01*
X00013906Y00041249D01*
X00008394Y00041249D02*
X00008394Y00041249D01*
X00004063Y00041249D01*
X00003953Y00041261D01*
X00003849Y00041298D01*
X00003756Y00041356D01*
X00003678Y00041434D01*
X00003620Y00041528D01*
X00003583Y00041632D01*
X00003571Y00041741D01*
X00003583Y00041851D01*
X00003620Y00041955D01*
X00003678Y00042048D01*
X00003756Y00042126D01*
X00003849Y00042184D01*
X00003953Y00042221D01*
X00004063Y00042233D01*
X00008394Y00042233D01*
X00008503Y00042221D01*
X00008607Y00042184D01*
X00008701Y00042126D01*
X00008778Y00042048D01*
X00008837Y00041955D01*
X00008873Y00041851D01*
X00008886Y00041741D01*
X00008873Y00041632D01*
X00008837Y00041528D01*
X00008778Y00041434D01*
X00008701Y00041356D01*
X00008607Y00041298D01*
X00008503Y00041261D01*
X00008394Y00041249D01*
X00020402Y00041249D02*
X00020402Y00041249D01*
X00016071Y00041249D01*
X00015961Y00041261D01*
X00015857Y00041298D01*
X00015764Y00041356D01*
X00015686Y00041434D01*
X00015627Y00041528D01*
X00015591Y00041632D01*
X00015579Y00041741D01*
X00015591Y00041851D01*
X00015627Y00041955D01*
X00015686Y00042048D01*
X00015764Y00042126D01*
X00015857Y00042184D01*
X00015961Y00042221D01*
X00016071Y00042233D01*
X00020402Y00042233D01*
X00020511Y00042221D01*
X00020615Y00042184D01*
X00020708Y00042126D01*
X00020786Y00042048D01*
X00020845Y00041955D01*
X00020881Y00041851D01*
X00020894Y00041741D01*
X00020881Y00041632D01*
X00020845Y00041528D01*
X00020786Y00041434D01*
X00020708Y00041356D01*
X00020615Y00041298D01*
X00020511Y00041261D01*
X00020402Y00041249D01*
X00025913Y00041249D02*
X00025913Y00041249D01*
X00022567Y00041249D01*
X00022457Y00041261D01*
X00022353Y00041298D01*
X00022260Y00041356D01*
X00022182Y00041434D01*
X00022124Y00041528D01*
X00022087Y00041632D01*
X00022075Y00041741D01*
X00022087Y00041851D01*
X00022124Y00041955D01*
X00022182Y00042048D01*
X00022260Y00042126D01*
X00022353Y00042184D01*
X00022457Y00042221D01*
X00022567Y00042233D01*
X00025913Y00042233D01*
X00026023Y00042221D01*
X00026127Y00042184D01*
X00026220Y00042126D01*
X00026298Y00042048D01*
X00026357Y00041955D01*
X00026393Y00041851D01*
X00026406Y00041741D01*
X00026393Y00041632D01*
X00026357Y00041528D01*
X00026298Y00041434D01*
X00026220Y00041356D01*
X00026127Y00041298D01*
X00026023Y00041261D01*
X00025913Y00041249D01*
X00028348Y00041170D02*
X00028348Y00041170D01*
X00028229Y00041177D01*
X00028115Y00041209D01*
X00028009Y00041264D01*
X00027918Y00041342D01*
X00027846Y00041436D01*
X00027796Y00041545D01*
X00027771Y00041661D01*
X00027771Y00041780D01*
X00027796Y00041897D01*
X00027846Y00042005D01*
X00027918Y00042100D01*
X00028009Y00042177D01*
X00028115Y00042233D01*
X00028229Y00042265D01*
X00028348Y00042271D01*
X00028466Y00042252D01*
X00028577Y00042208D01*
X00028675Y00042141D01*
X00028757Y00042054D01*
X00028819Y00041952D01*
X00028857Y00041839D01*
X00028870Y00041721D01*
X00028857Y00041602D01*
X00028819Y00041489D01*
X00028757Y00041387D01*
X00028675Y00041301D01*
X00028577Y00041234D01*
X00028466Y00041190D01*
X00028348Y00041170D01*
X00001577Y00041170D02*
X00001577Y00041170D01*
X00001458Y00041177D01*
X00001343Y00041209D01*
X00001238Y00041264D01*
X00001147Y00041342D01*
X00001075Y00041436D01*
X00001025Y00041545D01*
X00000999Y00041661D01*
X00000999Y00041780D01*
X00001025Y00041897D01*
X00001075Y00042005D01*
X00001147Y00042100D01*
X00001238Y00042177D01*
X00001343Y00042233D01*
X00001458Y00042265D01*
X00001577Y00042271D01*
X00001694Y00042252D01*
X00001805Y00042208D01*
X00001904Y00042141D01*
X00001986Y00042054D01*
X00002047Y00041952D01*
X00002085Y00041839D01*
X00002098Y00041721D01*
X00002085Y00041602D01*
X00002047Y00041489D01*
X00001986Y00041387D01*
X00001904Y00041301D01*
X00001805Y00041234D01*
X00001694Y00041190D01*
X00001577Y00041170D01*
X00028415Y00015866D02*
X00028415Y00015866D01*
X00028296Y00015873D01*
X00028181Y00015905D01*
X00028076Y00015961D01*
X00027985Y00016038D01*
X00027913Y00016133D01*
X00027863Y00016241D01*
X00027837Y00016357D01*
X00027837Y00016476D01*
X00027863Y00016593D01*
X00027913Y00016701D01*
X00027985Y00016796D01*
X00028076Y00016873D01*
X00028181Y00016929D01*
X00028296Y00016961D01*
X00028415Y00016967D01*
X00028533Y00016948D01*
X00028644Y00016904D01*
X00028742Y00016837D01*
X00028824Y00016750D01*
X00028886Y00016648D01*
X00028924Y00016535D01*
X00028937Y00016417D01*
X00028924Y00016298D01*
X00028886Y00016185D01*
X00028824Y00016083D01*
X00028742Y00015997D01*
X00028644Y00015930D01*
X00028533Y00015886D01*
X00028415Y00015866D01*
X00001653Y00015876D02*
X00001653Y00015876D01*
X00001534Y00015883D01*
X00001419Y00015915D01*
X00001314Y00015970D01*
X00001223Y00016048D01*
X00001151Y00016143D01*
X00001101Y00016251D01*
X00001076Y00016367D01*
X00001076Y00016486D01*
X00001101Y00016603D01*
X00001151Y00016711D01*
X00001223Y00016806D01*
X00001314Y00016883D01*
X00001419Y00016939D01*
X00001534Y00016971D01*
X00001653Y00016977D01*
X00001771Y00016958D01*
X00001882Y00016914D01*
X00001980Y00016847D01*
X00002062Y00016760D01*
X00002124Y00016658D01*
X00002162Y00016545D01*
X00002175Y00016427D01*
X00002162Y00016308D01*
X00002124Y00016195D01*
X00002062Y00016093D01*
X00001980Y00016007D01*
X00001882Y00015940D01*
X00001771Y00015896D01*
X00001653Y00015876D01*
X00019082Y00021254D02*
X00019082Y00021254D01*
X00018915Y00021254D01*
X00018749Y00021276D01*
X00018587Y00021319D01*
X00018433Y00021384D01*
X00018288Y00021467D01*
X00018155Y00021569D01*
X00018037Y00021688D01*
X00017935Y00021820D01*
X00017852Y00021965D01*
X00017788Y00022120D01*
X00017744Y00022281D01*
X00017722Y00022447D01*
X00017722Y00022615D01*
X00017744Y00022781D01*
X00017788Y00022942D01*
X00017852Y00023097D01*
X00017935Y00023242D01*
X00018037Y00023374D01*
X00018155Y00023493D01*
X00018288Y00023595D01*
X00018433Y00023678D01*
X00018587Y00023743D01*
X00018749Y00023786D01*
X00018915Y00023808D01*
X00019082Y00023808D01*
X00019248Y00023786D01*
X00019409Y00023743D01*
X00019564Y00023679D01*
X00019709Y00023596D01*
X00019842Y00023494D01*
X00019960Y00023376D01*
X00020062Y00023244D01*
X00020062Y00021818D01*
X00019960Y00021686D01*
X00019842Y00021568D01*
X00019709Y00021466D01*
X00019564Y00021383D01*
X00019409Y00021319D01*
X00019248Y00021276D01*
X00019082Y00021254D01*
X00024200Y00021254D02*
X00024200Y00021254D01*
X00024033Y00021254D01*
X00023867Y00021276D01*
X00023705Y00021319D01*
X00023551Y00021384D01*
X00023406Y00021467D01*
X00023273Y00021569D01*
X00023155Y00021688D01*
X00023053Y00021820D01*
X00022970Y00021965D01*
X00022906Y00022120D01*
X00022862Y00022281D01*
X00022841Y00022447D01*
X00022841Y00022615D01*
X00022862Y00022781D01*
X00022906Y00022942D01*
X00022970Y00023097D01*
X00023053Y00023242D01*
X00023155Y00023374D01*
X00023273Y00023493D01*
X00023406Y00023595D01*
X00023551Y00023678D01*
X00023705Y00023743D01*
X00023867Y00023786D01*
X00024033Y00023808D01*
X00024200Y00023808D01*
X00024366Y00023786D01*
X00024528Y00023743D01*
X00024682Y00023679D01*
X00024827Y00023596D01*
X00024960Y00023494D01*
X00025079Y00023376D01*
X00025181Y00023244D01*
X00025181Y00021818D01*
X00025079Y00021686D01*
X00024960Y00021568D01*
X00024827Y00021466D01*
X00024682Y00021383D01*
X00024528Y00021319D01*
X00024366Y00021276D01*
X00024200Y00021254D01*
X00006090Y00021254D02*
X00006090Y00021254D01*
X00005923Y00021254D01*
X00005757Y00021276D01*
X00005595Y00021319D01*
X00005441Y00021384D01*
X00005296Y00021467D01*
X00005163Y00021569D01*
X00005045Y00021688D01*
X00004943Y00021820D01*
X00004859Y00021965D01*
X00004795Y00022120D01*
X00004752Y00022281D01*
X00004730Y00022447D01*
X00004730Y00022615D01*
X00004752Y00022781D01*
X00004795Y00022942D01*
X00004859Y00023097D01*
X00004943Y00023242D01*
X00005045Y00023374D01*
X00005163Y00023493D01*
X00005296Y00023595D01*
X00005441Y00023678D01*
X00005595Y00023743D01*
X00005757Y00023786D01*
X00005923Y00023808D01*
X00006090Y00023808D01*
X00006256Y00023786D01*
X00006417Y00023743D01*
X00006572Y00023679D01*
X00006717Y00023596D01*
X00006850Y00023494D01*
X00006968Y00023376D01*
X00007070Y00023244D01*
X00007070Y00021818D01*
X00006968Y00021686D01*
X00006850Y00021568D01*
X00006717Y00021466D01*
X00006572Y00021383D01*
X00006417Y00021319D01*
X00006256Y00021276D01*
X00006090Y00021254D01*
X00011208Y00021254D02*
X00011208Y00021254D01*
X00011041Y00021254D01*
X00010875Y00021276D01*
X00010713Y00021319D01*
X00010559Y00021384D01*
X00010414Y00021467D01*
X00010281Y00021569D01*
X00010163Y00021688D01*
X00010061Y00021820D01*
X00009978Y00021965D01*
X00009914Y00022120D01*
X00009870Y00022281D01*
X00009848Y00022447D01*
X00009848Y00022615D01*
X00009870Y00022781D01*
X00009914Y00022942D01*
X00009978Y00023097D01*
X00010061Y00023242D01*
X00010163Y00023374D01*
X00010281Y00023493D01*
X00010414Y00023595D01*
X00010559Y00023678D01*
X00010713Y00023743D01*
X00010875Y00023786D01*
X00011041Y00023808D01*
X00011208Y00023808D01*
X00011374Y00023786D01*
X00011535Y00023743D01*
X00011690Y00023679D01*
X00011835Y00023596D01*
X00011968Y00023494D01*
X00012086Y00023376D01*
X00012188Y00023244D01*
X00012188Y00021818D01*
X00012086Y00021686D01*
X00011968Y00021568D01*
X00011835Y00021466D01*
X00011690Y00021383D01*
X00011535Y00021319D01*
X00011374Y00021276D01*
X00011208Y00021254D01*
X00028425Y00026526D02*
X00028425Y00026526D01*
X00028306Y00026532D01*
X00028191Y00026564D01*
X00028086Y00026620D01*
X00027995Y00026697D01*
X00027923Y00026792D01*
X00027873Y00026900D01*
X00027847Y00027017D01*
X00027847Y00027136D01*
X00027873Y00027252D01*
X00027923Y00027360D01*
X00027995Y00027455D01*
X00028086Y00027532D01*
X00028191Y00027588D01*
X00028306Y00027620D01*
X00028425Y00027627D01*
X00028543Y00027607D01*
X00028653Y00027563D01*
X00028752Y00027496D01*
X00028834Y00027410D01*
X00028895Y00027308D01*
X00028933Y00027195D01*
X00028946Y00027076D01*
X00028933Y00026958D01*
X00028895Y00026845D01*
X00028834Y00026743D01*
X00028752Y00026656D01*
X00028653Y00026589D01*
X00028543Y00026545D01*
X00028425Y00026526D01*
X00001653Y00026526D02*
X00001653Y00026526D01*
X00001534Y00026532D01*
X00001419Y00026564D01*
X00001314Y00026620D01*
X00001223Y00026697D01*
X00001151Y00026792D01*
X00001101Y00026900D01*
X00001076Y00027017D01*
X00001076Y00027136D01*
X00001101Y00027252D01*
X00001151Y00027360D01*
X00001223Y00027455D01*
X00001314Y00027532D01*
X00001419Y00027588D01*
X00001534Y00027620D01*
X00001653Y00027627D01*
X00001771Y00027607D01*
X00001882Y00027563D01*
X00001980Y00027496D01*
X00002062Y00027410D01*
X00002124Y00027308D01*
X00002162Y00027195D01*
X00002175Y00027076D01*
X00002162Y00026958D01*
X00002124Y00026845D01*
X00002062Y00026743D01*
X00001980Y00026656D01*
X00001882Y00026589D01*
X00001771Y00026545D01*
X00001653Y00026526D01*
X00028356Y00000985D02*
X00028356Y00000985D01*
X00028237Y00000991D01*
X00028122Y00001023D01*
X00028017Y00001079D01*
X00027926Y00001156D01*
X00027854Y00001251D01*
X00027804Y00001359D01*
X00027778Y00001475D01*
X00027778Y00001595D01*
X00027804Y00001711D01*
X00027854Y00001819D01*
X00027926Y00001914D01*
X00028017Y00001991D01*
X00028122Y00002047D01*
X00028237Y00002079D01*
X00028356Y00002085D01*
X00028474Y00002066D01*
X00028584Y00002022D01*
X00028683Y00001955D01*
X00028765Y00001868D01*
X00028827Y00001766D01*
X00028865Y00001653D01*
X00028877Y00001535D01*
X00028865Y00001416D01*
X00028827Y00001303D01*
X00028765Y00001201D01*
X00028683Y00001115D01*
X00028584Y00001048D01*
X00028474Y00001004D01*
X00028356Y00000985D01*
X00001594Y00000994D02*
X00001594Y00000994D01*
X00001475Y00001001D01*
X00001360Y00001033D01*
X00001255Y00001089D01*
X00001164Y00001166D01*
X00001092Y00001261D01*
X00001042Y00001369D01*
X00001017Y00001485D01*
X00001017Y00001604D01*
X00001042Y00001721D01*
X00001092Y00001829D01*
X00001164Y00001924D01*
X00001255Y00002001D01*
X00001360Y00002057D01*
X00001475Y00002089D01*
X00001594Y00002095D01*
X00001712Y00002076D01*
X00001823Y00002032D01*
X00001921Y00001965D01*
X00002003Y00001878D01*
X00002065Y00001776D01*
X00002103Y00001663D01*
X00002116Y00001545D01*
X00002103Y00001426D01*
X00002065Y00001313D01*
X00002003Y00001211D01*
X00001921Y00001125D01*
X00001823Y00001058D01*
X00001712Y00001014D01*
X00001594Y00000994D01*
X00009708Y00004301D02*
X00009708Y00004301D01*
X00009541Y00004301D01*
X00009375Y00004323D01*
X00009213Y00004367D01*
X00009059Y00004431D01*
X00008914Y00004515D01*
X00008781Y00004617D01*
X00008663Y00004735D01*
X00008561Y00004868D01*
X00008478Y00005013D01*
X00008414Y00005167D01*
X00008370Y00005329D01*
X00008348Y00005495D01*
X00008348Y00005662D01*
X00008370Y00005828D01*
X00008414Y00005989D01*
X00008478Y00006144D01*
X00008561Y00006289D01*
X00008663Y00006422D01*
X00008781Y00006540D01*
X00008914Y00006642D01*
X00009059Y00006726D01*
X00009213Y00006790D01*
X00009375Y00006833D01*
X00009541Y00006855D01*
X00009708Y00006855D01*
X00009874Y00006834D01*
X00010035Y00006791D01*
X00010190Y00006727D01*
X00010335Y00006643D01*
X00010468Y00006542D01*
X00010586Y00006423D01*
X00010688Y00006291D01*
X00010688Y00004866D01*
X00010586Y00004733D01*
X00010468Y00004615D01*
X00010335Y00004513D01*
X00010190Y00004430D01*
X00010035Y00004366D01*
X00009874Y00004323D01*
X00009708Y00004301D01*
X00025456Y00004301D02*
X00025456Y00004301D01*
X00025289Y00004301D01*
X00025123Y00004323D01*
X00024961Y00004367D01*
X00024807Y00004431D01*
X00024662Y00004515D01*
X00024529Y00004617D01*
X00024411Y00004735D01*
X00024309Y00004868D01*
X00024226Y00005013D01*
X00024162Y00005167D01*
X00024118Y00005329D01*
X00024097Y00005495D01*
X00024097Y00005662D01*
X00024118Y00005828D01*
X00024162Y00005989D01*
X00024226Y00006144D01*
X00024309Y00006289D01*
X00024411Y00006422D01*
X00024529Y00006540D01*
X00024662Y00006642D01*
X00024807Y00006726D01*
X00024961Y00006790D01*
X00025123Y00006833D01*
X00025289Y00006855D01*
X00025456Y00006855D01*
X00025622Y00006834D01*
X00025784Y00006791D01*
X00025938Y00006727D01*
X00026083Y00006643D01*
X00026216Y00006542D01*
X00026334Y00006423D01*
X00026437Y00006291D01*
X00026437Y00004866D01*
X00026334Y00004733D01*
X00026216Y00004615D01*
X00026083Y00004513D01*
X00025938Y00004430D01*
X00025784Y00004366D01*
X00025622Y00004323D01*
X00025456Y00004301D01*
X00004590Y00004301D02*
X00004590Y00004301D01*
X00004423Y00004301D01*
X00004257Y00004323D01*
X00004095Y00004367D01*
X00003941Y00004431D01*
X00003796Y00004515D01*
X00003663Y00004617D01*
X00003545Y00004735D01*
X00003443Y00004868D01*
X00003359Y00005013D01*
X00003295Y00005167D01*
X00003252Y00005329D01*
X00003230Y00005495D01*
X00003230Y00005662D01*
X00003252Y00005828D01*
X00003295Y00005989D01*
X00003359Y00006144D01*
X00003443Y00006289D01*
X00003545Y00006422D01*
X00003663Y00006540D01*
X00003796Y00006642D01*
X00003941Y00006726D01*
X00004095Y00006790D01*
X00004257Y00006833D01*
X00004423Y00006855D01*
X00004590Y00006855D01*
X00004756Y00006834D01*
X00004917Y00006791D01*
X00005072Y00006727D01*
X00005217Y00006643D01*
X00005350Y00006542D01*
X00005468Y00006423D01*
X00005570Y00006291D01*
X00005570Y00006291D01*
X00005570Y00004866D01*
X00005570Y00004866D01*
X00005468Y00004733D01*
X00005350Y00004615D01*
X00005217Y00004513D01*
X00005072Y00004430D01*
X00004917Y00004366D01*
X00004756Y00004323D01*
X00004590Y00004301D01*
X00014826Y00004301D02*
X00014826Y00004301D01*
X00014659Y00004301D01*
X00014493Y00004323D01*
X00014331Y00004367D01*
X00014177Y00004431D01*
X00014032Y00004515D01*
X00013899Y00004617D01*
X00013781Y00004735D01*
X00013679Y00004868D01*
X00013596Y00005013D01*
X00013532Y00005167D01*
X00013488Y00005329D01*
X00013467Y00005495D01*
X00013467Y00005662D01*
X00013488Y00005828D01*
X00013532Y00005989D01*
X00013596Y00006144D01*
X00013679Y00006289D01*
X00013781Y00006422D01*
X00013899Y00006540D01*
X00014032Y00006642D01*
X00014177Y00006726D01*
X00014331Y00006790D01*
X00014493Y00006833D01*
X00014659Y00006855D01*
X00014826Y00006855D01*
X00014992Y00006834D01*
X00015154Y00006791D01*
X00015308Y00006727D01*
X00015453Y00006643D01*
X00015586Y00006542D01*
X00015705Y00006423D01*
X00015807Y00006291D01*
X00015807Y00006291D01*
X00015807Y00004866D01*
X00015705Y00004733D01*
X00015586Y00004615D01*
X00015453Y00004513D01*
X00015308Y00004430D01*
X00015154Y00004366D01*
X00014992Y00004323D01*
X00014826Y00004301D01*
X00020338Y00004301D02*
X00020338Y00004301D01*
X00020171Y00004301D01*
X00020005Y00004323D01*
X00019843Y00004367D01*
X00019689Y00004431D01*
X00019544Y00004515D01*
X00019411Y00004617D01*
X00019293Y00004735D01*
X00019191Y00004868D01*
X00019107Y00005013D01*
X00019043Y00005167D01*
X00019000Y00005329D01*
X00018978Y00005495D01*
X00018978Y00005662D01*
X00019000Y00005828D01*
X00019043Y00005989D01*
X00019107Y00006144D01*
X00019191Y00006289D01*
X00019293Y00006422D01*
X00019411Y00006540D01*
X00019544Y00006642D01*
X00019689Y00006726D01*
X00019843Y00006790D01*
X00020005Y00006833D01*
X00020171Y00006855D01*
X00020338Y00006855D01*
X00020504Y00006834D01*
X00020665Y00006791D01*
X00020820Y00006727D01*
X00020965Y00006643D01*
X00021098Y00006542D01*
X00021216Y00006423D01*
X00021318Y00006291D01*
X00021318Y00006291D01*
X00021318Y00004866D01*
X00021216Y00004733D01*
X00021098Y00004615D01*
X00020965Y00004513D01*
X00020820Y00004430D01*
X00020665Y00004366D01*
X00020504Y00004323D01*
X00020338Y00004301D01*
X00004590Y00009813D02*
X00004590Y00009813D01*
X00004423Y00009813D01*
X00004257Y00009835D01*
X00004095Y00009879D01*
X00003941Y00009943D01*
X00003796Y00010026D01*
X00003663Y00010128D01*
X00003545Y00010247D01*
X00003443Y00010379D01*
X00003359Y00010524D01*
X00003295Y00010679D01*
X00003252Y00010841D01*
X00003230Y00011006D01*
X00003230Y00011174D01*
X00003252Y00011340D01*
X00003295Y00011501D01*
X00003359Y00011656D01*
X00003443Y00011801D01*
X00003545Y00011933D01*
X00003663Y00012052D01*
X00003796Y00012154D01*
X00003941Y00012237D01*
X00004095Y00012302D01*
X00004257Y00012345D01*
X00004423Y00012367D01*
X00004590Y00012367D01*
X00004756Y00012345D01*
X00004917Y00012302D01*
X00005072Y00012239D01*
X00005217Y00012155D01*
X00005350Y00012053D01*
X00005468Y00011935D01*
X00005570Y00011803D01*
X00005570Y00010377D01*
X00005570Y00010377D01*
X00005468Y00010245D01*
X00005350Y00010127D01*
X00005217Y00010025D01*
X00005072Y00009942D01*
X00004917Y00009878D01*
X00004756Y00009835D01*
X00004590Y00009813D01*
X00009708Y00009813D02*
X00009708Y00009813D01*
X00009541Y00009813D01*
X00009375Y00009835D01*
X00009213Y00009879D01*
X00009059Y00009943D01*
X00008914Y00010026D01*
X00008781Y00010128D01*
X00008663Y00010247D01*
X00008561Y00010379D01*
X00008478Y00010524D01*
X00008414Y00010679D01*
X00008370Y00010841D01*
X00008348Y00011006D01*
X00008348Y00011174D01*
X00008370Y00011340D01*
X00008414Y00011501D01*
X00008478Y00011656D01*
X00008561Y00011801D01*
X00008663Y00011933D01*
X00008781Y00012052D01*
X00008914Y00012154D01*
X00009059Y00012237D01*
X00009213Y00012302D01*
X00009375Y00012345D01*
X00009541Y00012367D01*
X00009708Y00012367D01*
X00009874Y00012345D01*
X00010035Y00012302D01*
X00010190Y00012239D01*
X00010335Y00012155D01*
X00010468Y00012053D01*
X00010586Y00011935D01*
X00010688Y00011803D01*
X00010688Y00010377D01*
X00010586Y00010245D01*
X00010468Y00010127D01*
X00010335Y00010025D01*
X00010190Y00009942D01*
X00010035Y00009878D01*
X00009874Y00009835D01*
X00009708Y00009813D01*
X00014826Y00009813D02*
X00014826Y00009813D01*
X00014659Y00009813D01*
X00014493Y00009835D01*
X00014331Y00009879D01*
X00014177Y00009943D01*
X00014032Y00010026D01*
X00013899Y00010128D01*
X00013781Y00010247D01*
X00013679Y00010379D01*
X00013596Y00010524D01*
X00013532Y00010679D01*
X00013488Y00010841D01*
X00013467Y00011006D01*
X00013467Y00011174D01*
X00013488Y00011340D01*
X00013532Y00011501D01*
X00013596Y00011656D01*
X00013679Y00011801D01*
X00013781Y00011933D01*
X00013899Y00012052D01*
X00014032Y00012154D01*
X00014177Y00012237D01*
X00014331Y00012302D01*
X00014493Y00012345D01*
X00014659Y00012367D01*
X00014826Y00012367D01*
X00014992Y00012345D01*
X00015154Y00012302D01*
X00015308Y00012239D01*
X00015453Y00012155D01*
X00015586Y00012053D01*
X00015705Y00011935D01*
X00015807Y00011803D01*
X00015807Y00010377D01*
X00015705Y00010245D01*
X00015586Y00010127D01*
X00015453Y00010025D01*
X00015308Y00009942D01*
X00015154Y00009878D01*
X00014992Y00009835D01*
X00014826Y00009813D01*
X00020338Y00009813D02*
X00020338Y00009813D01*
X00020171Y00009813D01*
X00020005Y00009835D01*
X00019843Y00009879D01*
X00019689Y00009943D01*
X00019544Y00010026D01*
X00019411Y00010128D01*
X00019293Y00010247D01*
X00019191Y00010379D01*
X00019107Y00010524D01*
X00019043Y00010679D01*
X00019000Y00010841D01*
X00018978Y00011006D01*
X00018978Y00011174D01*
X00019000Y00011340D01*
X00019043Y00011501D01*
X00019107Y00011656D01*
X00019191Y00011801D01*
X00019293Y00011933D01*
X00019411Y00012052D01*
X00019544Y00012154D01*
X00019689Y00012237D01*
X00019843Y00012302D01*
X00020005Y00012345D01*
X00020171Y00012367D01*
X00020338Y00012367D01*
X00020504Y00012345D01*
X00020665Y00012302D01*
X00020820Y00012239D01*
X00020965Y00012155D01*
X00021098Y00012053D01*
X00021216Y00011935D01*
X00021318Y00011803D01*
X00021318Y00010377D01*
X00021216Y00010245D01*
X00021098Y00010127D01*
X00020965Y00010025D01*
X00020820Y00009942D01*
X00020665Y00009878D01*
X00020504Y00009835D01*
X00020338Y00009813D01*
X00025456Y00009813D02*
X00025456Y00009813D01*
X00025289Y00009813D01*
X00025123Y00009835D01*
X00024961Y00009879D01*
X00024807Y00009943D01*
X00024662Y00010026D01*
X00024529Y00010128D01*
X00024411Y00010247D01*
X00024309Y00010379D01*
X00024226Y00010524D01*
X00024162Y00010679D01*
X00024118Y00010841D01*
X00024097Y00011006D01*
X00024097Y00011174D01*
X00024118Y00011340D01*
X00024162Y00011501D01*
X00024226Y00011656D01*
X00024309Y00011801D01*
X00024411Y00011933D01*
X00024529Y00012052D01*
X00024662Y00012154D01*
X00024807Y00012237D01*
X00024961Y00012302D01*
X00025123Y00012345D01*
X00025289Y00012367D01*
X00025456Y00012367D01*
X00025622Y00012345D01*
X00025784Y00012302D01*
X00025938Y00012239D01*
X00026083Y00012155D01*
X00026216Y00012053D01*
X00026334Y00011935D01*
X00026437Y00011803D01*
X00026437Y00010377D01*
X00026334Y00010245D01*
X00026216Y00010127D01*
X00026083Y00010025D01*
X00025938Y00009942D01*
X00025784Y00009878D01*
X00025622Y00009835D01*
X00025456Y00009813D01*
X00028366Y00011644D02*
X00028366Y00011644D01*
X00028247Y00011650D01*
X00028132Y00011682D01*
X00028027Y00011738D01*
X00027936Y00011815D01*
X00027864Y00011910D01*
X00027814Y00012018D01*
X00027788Y00012135D01*
X00027788Y00012254D01*
X00027814Y00012370D01*
X00027864Y00012479D01*
X00027936Y00012573D01*
X00028027Y00012651D01*
X00028132Y00012706D01*
X00028247Y00012738D01*
X00028366Y00012745D01*
X00028484Y00012725D01*
X00028594Y00012681D01*
X00028693Y00012614D01*
X00028775Y00012528D01*
X00028836Y00012426D01*
X00028874Y00012313D01*
X00028887Y00012194D01*
X00028874Y00012076D01*
X00028836Y00011963D01*
X00028775Y00011861D01*
X00028693Y00011774D01*
X00028594Y00011707D01*
X00028484Y00011663D01*
X00028366Y00011644D01*
X00001594Y00011644D02*
X00001594Y00011644D01*
X00001475Y00011650D01*
X00001360Y00011682D01*
X00001255Y00011738D01*
X00001164Y00011815D01*
X00001092Y00011910D01*
X00001042Y00012018D01*
X00001017Y00012135D01*
X00001017Y00012254D01*
X00001042Y00012370D01*
X00001092Y00012479D01*
X00001164Y00012573D01*
X00001255Y00012651D01*
X00001360Y00012706D01*
X00001475Y00012738D01*
X00001594Y00012745D01*
X00001712Y00012725D01*
X00001823Y00012681D01*
X00001921Y00012614D01*
X00002003Y00012528D01*
X00002065Y00012426D01*
X00002103Y00012313D01*
X00002116Y00012194D01*
X00002103Y00012076D01*
X00002065Y00011963D01*
X00002003Y00011861D01*
X00001921Y00011774D01*
X00001823Y00011707D01*
X00001712Y00011663D01*
X00001594Y00011644D01*
X00014087Y00013763D02*
X00014087Y00013763D01*
X00006432Y00013763D01*
X00006397Y00013765D01*
X00006363Y00013769D01*
X00006329Y00013777D01*
X00006296Y00013788D01*
X00006263Y00013801D01*
X00006233Y00013817D01*
X00006203Y00013836D01*
X00006176Y00013858D01*
X00006151Y00013882D01*
X00006127Y00013908D01*
X00006107Y00013935D01*
X00006088Y00013965D01*
X00006073Y00013996D01*
X00006060Y00014028D01*
X00006050Y00014062D01*
X00006043Y00014096D01*
X00006039Y00014131D01*
X00006038Y00014165D01*
X00006041Y00014200D01*
X00006046Y00014235D01*
X00006109Y00014550D01*
X00006116Y00014577D01*
X00006124Y00014602D01*
X00006133Y00014628D01*
X00006145Y00014652D01*
X00006158Y00014676D01*
X00006173Y00014698D01*
X00006189Y00014720D01*
X00006207Y00014740D01*
X00006226Y00014759D01*
X00006246Y00014777D01*
X00006267Y00014794D01*
X00006290Y00014809D01*
X00006313Y00014822D01*
X00006338Y00014834D01*
X00006363Y00014843D01*
X00006389Y00014852D01*
X00006415Y00014858D01*
X00006441Y00014863D01*
X00006468Y00014865D01*
X00006495Y00014866D01*
X00014021Y00014867D01*
X00014048Y00014867D01*
X00014075Y00014864D01*
X00014101Y00014859D01*
X00014127Y00014853D01*
X00014153Y00014845D01*
X00014178Y00014835D01*
X00014202Y00014823D01*
X00014225Y00014810D01*
X00014248Y00014795D01*
X00014269Y00014779D01*
X00014290Y00014762D01*
X00014309Y00014743D01*
X00014326Y00014722D01*
X00014343Y00014701D01*
X00014357Y00014678D01*
X00014371Y00014655D01*
X00014382Y00014631D01*
X00014392Y00014606D01*
X00014400Y00014580D01*
X00014406Y00014554D01*
X00014472Y00014237D01*
X00014478Y00014203D01*
X00014481Y00014168D01*
X00014480Y00014133D01*
X00014476Y00014098D01*
X00014470Y00014064D01*
X00014460Y00014030D01*
X00014447Y00013998D01*
X00014432Y00013966D01*
X00014413Y00013937D01*
X00014392Y00013909D01*
X00014369Y00013882D01*
X00014344Y00013859D01*
X00014316Y00013837D01*
X00014287Y00013818D01*
X00014256Y00013801D01*
X00014224Y00013788D01*
X00014191Y00013777D01*
X00014157Y00013769D01*
X00014122Y00013765D01*
X00014087Y00013763D01*
X00015833Y00013763D02*
X00015833Y00013763D01*
X00015798Y00013765D01*
X00015764Y00013769D01*
X00015730Y00013777D01*
X00015696Y00013788D01*
X00015664Y00013801D01*
X00015633Y00013818D01*
X00015604Y00013837D01*
X00015577Y00013859D01*
X00015551Y00013882D01*
X00015528Y00013909D01*
X00015507Y00013937D01*
X00015489Y00013966D01*
X00015473Y00013998D01*
X00015461Y00014030D01*
X00015451Y00014064D01*
X00015444Y00014098D01*
X00015440Y00014133D01*
X00015440Y00014168D01*
X00015442Y00014203D01*
X00015448Y00014237D01*
X00015514Y00014554D01*
X00015520Y00014580D01*
X00015528Y00014606D01*
X00015538Y00014631D01*
X00015550Y00014655D01*
X00015563Y00014679D01*
X00015578Y00014701D01*
X00015594Y00014723D01*
X00015612Y00014743D01*
X00015631Y00014762D01*
X00015651Y00014779D01*
X00015672Y00014796D01*
X00015695Y00014810D01*
X00015718Y00014824D01*
X00015742Y00014835D01*
X00015767Y00014845D01*
X00015793Y00014853D01*
X00015819Y00014860D01*
X00015846Y00014864D01*
X00015872Y00014867D01*
X00015899Y00014868D01*
X00024170Y00014869D01*
X00024197Y00014868D01*
X00024224Y00014865D01*
X00024251Y00014860D01*
X00024277Y00014854D01*
X00024303Y00014845D01*
X00024329Y00014835D01*
X00024353Y00014823D01*
X00024377Y00014810D01*
X00024400Y00014795D01*
X00024421Y00014778D01*
X00024442Y00014760D01*
X00024461Y00014740D01*
X00024478Y00014720D01*
X00024495Y00014698D01*
X00024509Y00014675D01*
X00024522Y00014651D01*
X00024533Y00014626D01*
X00024543Y00014600D01*
X00024551Y00014574D01*
X00024557Y00014547D01*
X00024616Y00014229D01*
X00024621Y00014195D01*
X00024623Y00014160D01*
X00024621Y00014126D01*
X00024617Y00014092D01*
X00024610Y00014058D01*
X00024600Y00014025D01*
X00024587Y00013993D01*
X00024571Y00013962D01*
X00024553Y00013933D01*
X00024532Y00013905D01*
X00024508Y00013880D01*
X00024483Y00013856D01*
X00024456Y00013835D01*
X00024427Y00013817D01*
X00024396Y00013801D01*
X00024364Y00013787D01*
X00024331Y00013777D01*
X00024298Y00013769D01*
X00024263Y00013765D01*
X00024229Y00013763D01*
X00015833Y00013763D01*
X00004527Y00014866D02*
X00004527Y00014866D01*
X00004554Y00014865D01*
X00004581Y00014862D01*
X00004608Y00014858D01*
X00004634Y00014851D01*
X00004660Y00014843D01*
X00004685Y00014833D01*
X00004709Y00014822D01*
X00004733Y00014808D01*
X00004755Y00014793D01*
X00004777Y00014777D01*
X00004797Y00014759D01*
X00004816Y00014740D01*
X00004834Y00014720D01*
X00004850Y00014698D01*
X00004865Y00014675D01*
X00004878Y00014652D01*
X00004889Y00014627D01*
X00004899Y00014602D01*
X00004907Y00014576D01*
X00004913Y00014550D01*
X00004977Y00014235D01*
X00004982Y00014200D01*
X00004984Y00014165D01*
X00004983Y00014131D01*
X00004980Y00014096D01*
X00004973Y00014062D01*
X00004963Y00014029D01*
X00004950Y00013996D01*
X00004934Y00013965D01*
X00004916Y00013935D01*
X00004895Y00013908D01*
X00004872Y00013882D01*
X00004847Y00013858D01*
X00004819Y00013836D01*
X00004790Y00013817D01*
X00004759Y00013801D01*
X00004727Y00013788D01*
X00004694Y00013777D01*
X00004660Y00013769D01*
X00004625Y00013765D01*
X00004591Y00013763D01*
X00000799Y00013763D01*
X00000676Y00013754D01*
X00000555Y00013725D01*
X00000441Y00013677D01*
X00000336Y00013613D01*
X00000242Y00013533D01*
X00000162Y00013439D01*
X00000097Y00013333D01*
X00000050Y00013219D01*
X00000021Y00013099D01*
X00000011Y00012976D01*
X00000011Y00009897D01*
X00000011Y00009897D01*
X00000013Y00009879D01*
X00000017Y00009861D01*
X00000024Y00009844D01*
X00000034Y00009828D01*
X00000046Y00009814D01*
X00000060Y00009802D01*
X00000076Y00009792D01*
X00000093Y00009785D01*
X00000111Y00009780D01*
X00000129Y00009779D01*
X00000401Y00009779D01*
X00000401Y00003937D01*
X00000129Y00003937D01*
X00000111Y00003935D01*
X00000093Y00003931D01*
X00000076Y00003924D01*
X00000060Y00003914D01*
X00000046Y00003902D01*
X00000034Y00003888D01*
X00000024Y00003872D01*
X00000017Y00003855D01*
X00000013Y00003837D01*
X00000011Y00003818D01*
X00000011Y00000771D01*
X00000011Y00000771D01*
X00000021Y00000648D01*
X00000050Y00000528D01*
X00000097Y00000414D01*
X00000162Y00000308D01*
X00000242Y00000214D01*
X00000336Y00000134D01*
X00000441Y00000070D01*
X00000555Y00000022D01*
X00000676Y-00000006D01*
X00000799Y-00000015D01*
X00028948Y-00000011D01*
X00029102Y00000000D01*
X00029251Y00000036D01*
X00029393Y00000095D01*
X00029525Y00000175D01*
X00029642Y00000275D01*
X00029741Y00000392D01*
X00029822Y00000523D01*
X00029881Y00000665D01*
X00029917Y00000815D01*
X00029929Y00000968D01*
X00029929Y00003858D01*
X00029927Y00003876D01*
X00029923Y00003894D01*
X00029916Y00003911D01*
X00029906Y00003927D01*
X00029894Y00003941D01*
X00029880Y00003953D01*
X00029864Y00003963D01*
X00029847Y00003970D01*
X00029829Y00003974D01*
X00029811Y00003976D01*
X00029539Y00003976D01*
X00029539Y00009818D01*
X00029811Y00009818D01*
X00029829Y00009820D01*
X00029847Y00009824D01*
X00029864Y00009831D01*
X00029880Y00009841D01*
X00029894Y00009853D01*
X00029906Y00009867D01*
X00029916Y00009883D01*
X00029923Y00009900D01*
X00029927Y00009918D01*
X00029929Y00009937D01*
X00029929Y00012976D01*
X00029919Y00013099D01*
X00029890Y00013219D01*
X00029843Y00013333D01*
X00029778Y00013439D01*
X00029698Y00013533D01*
X00029604Y00013613D01*
X00029499Y00013677D01*
X00029385Y00013725D01*
X00029264Y00013754D01*
X00029141Y00013763D01*
X00026164Y00013763D01*
X00026129Y00013765D01*
X00026095Y00013769D01*
X00026061Y00013777D01*
X00026028Y00013787D01*
X00025997Y00013801D01*
X00025966Y00013817D01*
X00025937Y00013835D01*
X00025910Y00013856D01*
X00025884Y00013880D01*
X00025861Y00013905D01*
X00025840Y00013933D01*
X00025822Y00013962D01*
X00025806Y00013993D01*
X00025793Y00014025D01*
X00025783Y00014058D01*
X00025776Y00014092D01*
X00025771Y00014126D01*
X00025770Y00014160D01*
X00025772Y00014195D01*
X00025777Y00014229D01*
X00025836Y00014547D01*
X00025842Y00014574D01*
X00025850Y00014600D01*
X00025859Y00014626D01*
X00025870Y00014651D01*
X00025883Y00014675D01*
X00025898Y00014698D01*
X00025914Y00014720D01*
X00025932Y00014741D01*
X00025951Y00014760D01*
X00025971Y00014778D01*
X00025993Y00014795D01*
X00026016Y00014810D01*
X00026039Y00014824D01*
X00026064Y00014836D01*
X00026089Y00014846D01*
X00026115Y00014854D01*
X00026142Y00014861D01*
X00026169Y00014865D01*
X00026196Y00014868D01*
X00026223Y00014869D01*
X00029007Y00014870D01*
X00029161Y00014882D01*
X00029310Y00014918D01*
X00029452Y00014976D01*
X00029584Y00015057D01*
X00029701Y00015157D01*
X00029800Y00015274D01*
X00029881Y00015405D01*
X00029940Y00015547D01*
X00029976Y00015697D01*
X00029988Y00015850D01*
X00029988Y00018740D01*
X00029986Y00018758D01*
X00029982Y00018776D01*
X00029975Y00018793D01*
X00029965Y00018809D01*
X00029953Y00018823D01*
X00029939Y00018835D01*
X00029923Y00018845D01*
X00029906Y00018852D01*
X00029888Y00018856D01*
X00029870Y00018858D01*
X00029598Y00018858D01*
X00029598Y00024700D01*
X00029870Y00024700D01*
X00029888Y00024702D01*
X00029906Y00024706D01*
X00029923Y00024713D01*
X00029939Y00024723D01*
X00029953Y00024735D01*
X00029965Y00024749D01*
X00029975Y00024765D01*
X00029982Y00024782D01*
X00029986Y00024800D01*
X00029988Y00024818D01*
X00029988Y00027858D01*
X00029978Y00027981D01*
X00029949Y00028101D01*
X00029902Y00028215D01*
X00029837Y00028321D01*
X00029757Y00028415D01*
X00029663Y00028495D01*
X00029558Y00028559D01*
X00029444Y00028607D01*
X00029323Y00028635D01*
X00029200Y00028645D01*
X00026219Y00028645D01*
X00026208Y00028645D01*
X00026197Y00028646D01*
X00026186Y00028647D01*
X00026175Y00028648D01*
X00026164Y00028649D01*
X00026153Y00028651D01*
X00026142Y00028653D01*
X00026131Y00028655D01*
X00026121Y00028658D01*
X00026110Y00028660D01*
X00026100Y00028664D01*
X00026089Y00028667D01*
X00026079Y00028671D01*
X00026069Y00028675D01*
X00026058Y00028679D01*
X00026048Y00028684D01*
X00026039Y00028689D01*
X00026029Y00028694D01*
X00026019Y00028699D01*
X00026010Y00028705D01*
X00025880Y00028786D01*
X00025839Y00028816D01*
X00025802Y00028850D01*
X00025770Y00028890D01*
X00025743Y00028933D01*
X00025722Y00028979D01*
X00025706Y00029027D01*
X00025698Y00029077D01*
X00025696Y00029128D01*
X00025700Y00029179D01*
X00025711Y00029228D01*
X00025728Y00029276D01*
X00025751Y00029321D01*
X00025780Y00029363D01*
X00025814Y00029401D01*
X00025852Y00029434D01*
X00025895Y00029462D01*
X00025940Y00029484D01*
X00025989Y00029500D01*
X00026038Y00029510D01*
X00026089Y00029514D01*
X00028931Y00029514D01*
X00029084Y00029526D01*
X00029234Y00029562D01*
X00029376Y00029621D01*
X00029507Y00029701D01*
X00029624Y00029801D01*
X00029724Y00029918D01*
X00029804Y00030049D01*
X00029863Y00030191D01*
X00029899Y00030341D01*
X00029911Y00030494D01*
X00029911Y00033384D01*
X00029910Y00033402D01*
X00029905Y00033421D01*
X00029898Y00033438D01*
X00029888Y00033453D01*
X00029876Y00033468D01*
X00029862Y00033480D01*
X00029847Y00033489D01*
X00029829Y00033496D01*
X00029811Y00033501D01*
X00029793Y00033502D01*
X00029521Y00033502D01*
X00029521Y00039345D01*
X00029793Y00039345D01*
X00029811Y00039346D01*
X00029829Y00039350D01*
X00029847Y00039358D01*
X00029862Y00039367D01*
X00029876Y00039379D01*
X00029888Y00039393D01*
X00029898Y00039409D01*
X00029905Y00039426D01*
X00029910Y00039444D01*
X00029911Y00039463D01*
X00029911Y00042502D01*
X00029901Y00042625D01*
X00029872Y00042745D01*
X00029825Y00042860D01*
X00029761Y00042965D01*
X00029680Y00043059D01*
X00029586Y00043139D01*
X00029481Y00043204D01*
X00029367Y00043251D01*
X00029247Y00043280D01*
X00029124Y00043290D01*
X00000781Y00043290D01*
X00000658Y00043280D01*
X00000538Y00043251D01*
X00000424Y00043204D01*
X00000318Y00043139D01*
X00000224Y00043059D01*
X00000144Y00042965D01*
X00000080Y00042860D01*
X00000032Y00042745D01*
X00000003Y00042625D01*
X-00000005Y00042502D01*
X-00000005Y00039423D01*
X-00000004Y00039405D01*
X00000000Y00039387D01*
X00000007Y00039370D01*
X00000016Y00039354D01*
X00000028Y00039340D01*
X00000042Y00039328D01*
X00000058Y00039318D01*
X00000075Y00039311D01*
X00000093Y00039307D01*
X00000112Y00039305D01*
X00000383Y00039305D01*
X00000383Y00033463D01*
X00000112Y00033463D01*
X00000093Y00033461D01*
X00000075Y00033457D01*
X00000058Y00033450D01*
X00000042Y00033440D01*
X00000028Y00033428D01*
X00000016Y00033414D01*
X00000007Y00033398D01*
X00000000Y00033381D01*
X-00000004Y00033363D01*
X-00000005Y00033345D01*
X-00000005Y00030297D01*
X00000003Y00030174D01*
X00000032Y00030054D01*
X00000080Y00029940D01*
X00000144Y00029835D01*
X00000224Y00029741D01*
X00000318Y00029660D01*
X00000424Y00029596D01*
X00000538Y00029549D01*
X00000658Y00029520D01*
X00000781Y00029510D01*
X00004617Y00029511D01*
X00004668Y00029507D01*
X00004718Y00029497D01*
X00004766Y00029481D01*
X00004812Y00029459D01*
X00004854Y00029431D01*
X00004893Y00029397D01*
X00004927Y00029359D01*
X00004956Y00029317D01*
X00004979Y00029272D01*
X00004996Y00029223D01*
X00005006Y00029174D01*
X00005010Y00029123D01*
X00005008Y00029072D01*
X00004999Y00029021D01*
X00004983Y00028973D01*
X00004961Y00028927D01*
X00004934Y00028884D01*
X00004901Y00028845D01*
X00004864Y00028810D01*
X00004822Y00028781D01*
X00004694Y00028703D01*
X00004685Y00028697D01*
X00004675Y00028692D01*
X00004666Y00028687D01*
X00004656Y00028682D01*
X00004646Y00028678D01*
X00004636Y00028674D01*
X00004626Y00028670D01*
X00004616Y00028666D01*
X00004606Y00028663D01*
X00004596Y00028660D01*
X00004585Y00028657D01*
X00004575Y00028655D01*
X00004564Y00028652D01*
X00004553Y00028650D01*
X00004543Y00028649D01*
X00004532Y00028648D01*
X00004521Y00028646D01*
X00004511Y00028646D01*
X00004500Y00028645D01*
X00004489Y00028645D01*
X00000858Y00028645D01*
X00000735Y00028635D01*
X00000614Y00028607D01*
X00000500Y00028559D01*
X00000395Y00028495D01*
X00000301Y00028415D01*
X00000221Y00028321D01*
X00000156Y00028215D01*
X00000109Y00028101D01*
X00000080Y00027981D01*
X00000070Y00027858D01*
X00000070Y00024779D01*
X00000072Y00024761D01*
X00000076Y00024743D01*
X00000083Y00024725D01*
X00000093Y00024710D01*
X00000105Y00024696D01*
X00000119Y00024683D01*
X00000135Y00024674D01*
X00000152Y00024667D01*
X00000170Y00024662D01*
X00000188Y00024661D01*
X00000460Y00024661D01*
X00000460Y00018818D01*
X00000188Y00018818D01*
X00000170Y00018817D01*
X00000152Y00018813D01*
X00000135Y00018806D01*
X00000119Y00018796D01*
X00000105Y00018784D01*
X00000093Y00018770D01*
X00000083Y00018754D01*
X00000076Y00018737D01*
X00000072Y00018719D01*
X00000070Y00018700D01*
X00000070Y00015653D01*
X00000080Y00015530D01*
X00000109Y00015410D01*
X00000156Y00015296D01*
X00000221Y00015190D01*
X00000301Y00015096D01*
X00000395Y00015016D01*
X00000500Y00014951D01*
X00000614Y00014904D01*
X00000735Y00014875D01*
X00000858Y00014866D01*
X00004527Y00014866D01*
X00015982Y00028645D02*
X00015982Y00028645D01*
X00015972Y00028645D01*
X00015961Y00028646D01*
X00015950Y00028647D01*
X00015939Y00028648D01*
X00015928Y00028649D01*
X00015917Y00028651D01*
X00015907Y00028653D01*
X00015896Y00028655D01*
X00015885Y00028657D01*
X00015875Y00028660D01*
X00015864Y00028663D01*
X00015854Y00028667D01*
X00015844Y00028670D01*
X00015834Y00028674D01*
X00015824Y00028679D01*
X00015814Y00028683D01*
X00015804Y00028688D01*
X00015794Y00028693D01*
X00015785Y00028698D01*
X00015775Y00028704D01*
X00015647Y00028784D01*
X00015605Y00028813D01*
X00015568Y00028848D01*
X00015535Y00028887D01*
X00015508Y00028930D01*
X00015487Y00028976D01*
X00015471Y00029025D01*
X00015463Y00029075D01*
X00015460Y00029126D01*
X00015464Y00029176D01*
X00015475Y00029226D01*
X00015492Y00029274D01*
X00015515Y00029319D01*
X00015544Y00029361D01*
X00015578Y00029399D01*
X00015617Y00029433D01*
X00015659Y00029461D01*
X00015705Y00029483D01*
X00015753Y00029499D01*
X00015803Y00029509D01*
X00015854Y00029512D01*
X00024303Y00029513D01*
X00024354Y00029510D01*
X00024404Y00029500D01*
X00024452Y00029484D01*
X00024498Y00029462D01*
X00024540Y00029434D01*
X00024579Y00029401D01*
X00024613Y00029363D01*
X00024642Y00029321D01*
X00024665Y00029276D01*
X00024682Y00029228D01*
X00024693Y00029178D01*
X00024697Y00029128D01*
X00024695Y00029077D01*
X00024686Y00029027D01*
X00024671Y00028978D01*
X00024650Y00028932D01*
X00024623Y00028889D01*
X00024590Y00028850D01*
X00024553Y00028815D01*
X00024512Y00028785D01*
X00024382Y00028705D01*
X00024373Y00028699D01*
X00024363Y00028694D01*
X00024354Y00028689D01*
X00024344Y00028684D01*
X00024334Y00028679D01*
X00024324Y00028675D01*
X00024314Y00028671D01*
X00024303Y00028667D01*
X00024293Y00028664D01*
X00024282Y00028660D01*
X00024272Y00028657D01*
X00024261Y00028655D01*
X00024250Y00028653D01*
X00024240Y00028651D01*
X00024229Y00028649D01*
X00024218Y00028648D01*
X00024207Y00028647D01*
X00024196Y00028646D01*
X00024185Y00028645D01*
X00024174Y00028645D01*
X00015982Y00028645D01*
X00014066Y00029512D02*
X00014066Y00029512D01*
X00014117Y00029509D01*
X00014167Y00029499D01*
X00014215Y00029483D01*
X00014261Y00029460D01*
X00014304Y00029432D01*
X00014342Y00029399D01*
X00014376Y00029361D01*
X00014405Y00029319D01*
X00014428Y00029274D01*
X00014445Y00029226D01*
X00014456Y00029176D01*
X00014460Y00029125D01*
X00014458Y00029074D01*
X00014449Y00029024D01*
X00014433Y00028975D01*
X00014412Y00028929D01*
X00014385Y00028886D01*
X00014352Y00028847D01*
X00014315Y00028813D01*
X00014273Y00028783D01*
X00014145Y00028704D01*
X00014135Y00028698D01*
X00014126Y00028693D01*
X00014116Y00028688D01*
X00014106Y00028683D01*
X00014096Y00028679D01*
X00014086Y00028674D01*
X00014076Y00028670D01*
X00014066Y00028667D01*
X00014056Y00028663D01*
X00014045Y00028660D01*
X00014035Y00028657D01*
X00014024Y00028655D01*
X00014014Y00028653D01*
X00014003Y00028651D01*
X00013992Y00028649D01*
X00013981Y00028648D01*
X00013970Y00028647D01*
X00013960Y00028646D01*
X00013949Y00028645D01*
X00013938Y00028645D01*
X00006534Y00028645D01*
X00006523Y00028645D01*
X00006512Y00028646D01*
X00006501Y00028647D01*
X00006490Y00028648D01*
X00006480Y00028649D01*
X00006469Y00028651D01*
X00006458Y00028652D01*
X00006448Y00028655D01*
X00006437Y00028657D01*
X00006427Y00028660D01*
X00006416Y00028663D01*
X00006406Y00028666D01*
X00006396Y00028670D01*
X00006386Y00028674D01*
X00006376Y00028678D01*
X00006366Y00028683D01*
X00006356Y00028687D01*
X00006347Y00028692D01*
X00006337Y00028698D01*
X00006328Y00028703D01*
X00006200Y00028781D01*
X00006159Y00028811D01*
X00006121Y00028845D01*
X00006088Y00028884D01*
X00006061Y00028927D01*
X00006039Y00028973D01*
X00006024Y00029022D01*
X00006015Y00029072D01*
X00006012Y00029123D01*
X00006016Y00029174D01*
X00006027Y00029224D01*
X00006044Y00029272D01*
X00006067Y00029317D01*
X00006096Y00029360D01*
X00006130Y00029398D01*
X00006168Y00029431D01*
X00006211Y00029459D01*
X00006257Y00029481D01*
X00006305Y00029498D01*
X00006355Y00029507D01*
X00006406Y00029511D01*
X00014066Y00029512D01*
M02*