G04 #@! TF.FileFunction,Legend,Bot*
%FSLAX46Y46*%
G04 Gerber Fmt 4.6, Leading zero omitted, Abs format (unit mm)*
G04 Created by KiCad (PCBNEW no-bzr-kicad_new3d-viewer) date 07/10/16 17:41:36*
%MOMM*%
%LPD*%
G01*
G04 APERTURE LIST*
%ADD10C,0.150000*%
%ADD11C,0.500000*%
G04 APERTURE END LIST*
D10*
D11*
X74350000Y-26730952D02*
X75445238Y-26730952D01*
X75445238Y-24230952D01*
X73583333Y-26730952D02*
X73583333Y-25064285D01*
X73583333Y-24230952D02*
X73692857Y-24350000D01*
X73583333Y-24469047D01*
X73473809Y-24350000D01*
X73583333Y-24230952D01*
X73583333Y-24469047D01*
X72488095Y-26730952D02*
X72488095Y-25064285D01*
X72488095Y-25302380D02*
X72378571Y-25183333D01*
X72159523Y-25064285D01*
X71830952Y-25064285D01*
X71611904Y-25183333D01*
X71502380Y-25421428D01*
X71502380Y-26730952D01*
X71502380Y-25421428D02*
X71392857Y-25183333D01*
X71173809Y-25064285D01*
X70845238Y-25064285D01*
X70626190Y-25183333D01*
X70516666Y-25421428D01*
X70516666Y-26730952D01*
X68545238Y-26611904D02*
X68764285Y-26730952D01*
X69202380Y-26730952D01*
X69421428Y-26611904D01*
X69530952Y-26373809D01*
X69530952Y-25421428D01*
X69421428Y-25183333D01*
X69202380Y-25064285D01*
X68764285Y-25064285D01*
X68545238Y-25183333D01*
X68435714Y-25421428D01*
X68435714Y-25659523D01*
X69530952Y-25897619D01*
X67559523Y-26611904D02*
X67230952Y-26730952D01*
X66683333Y-26730952D01*
X66464285Y-26611904D01*
X66354761Y-26492857D01*
X66245238Y-26254761D01*
X66245238Y-26016666D01*
X66354761Y-25778571D01*
X66464285Y-25659523D01*
X66683333Y-25540476D01*
X67121428Y-25421428D01*
X67340476Y-25302380D01*
X67450000Y-25183333D01*
X67559523Y-24945238D01*
X67559523Y-24707142D01*
X67450000Y-24469047D01*
X67340476Y-24350000D01*
X67121428Y-24230952D01*
X66573809Y-24230952D01*
X66245238Y-24350000D01*
X65259523Y-26730952D02*
X65259523Y-24230952D01*
X64711904Y-24230952D01*
X64383333Y-24350000D01*
X64164285Y-24588095D01*
X64054761Y-24826190D01*
X63945238Y-25302380D01*
X63945238Y-25659523D01*
X64054761Y-26135714D01*
X64164285Y-26373809D01*
X64383333Y-26611904D01*
X64711904Y-26730952D01*
X65259523Y-26730952D01*
X61645238Y-26730952D02*
X62411904Y-25540476D01*
X62959523Y-26730952D02*
X62959523Y-24230952D01*
X62083333Y-24230952D01*
X61864285Y-24350000D01*
X61754761Y-24469047D01*
X61645238Y-24707142D01*
X61645238Y-25064285D01*
X61754761Y-25302380D01*
X61864285Y-25421428D01*
X62083333Y-25540476D01*
X62959523Y-25540476D01*
M02*
