G04 #@! TF.FileFunction,Legend,Bot*
%FSLAX46Y46*%
G04 Gerber Fmt 4.6, Leading zero omitted, Abs format (unit mm)*
G04 Created by KiCad (PCBNEW (2016-09-17 revision 679eef1)-makepkg) date 09/25/16 18:07:17*
%MOMM*%
%LPD*%
G01*
G04 APERTURE LIST*
%ADD10C,0.150000*%
%ADD11C,0.500000*%
%ADD12C,0.300000*%
%ADD13C,0.800000*%
%ADD14C,3.000000*%
%ADD15C,0.700000*%
%ADD16C,1.350000*%
%ADD17C,1.000000*%
G04 APERTURE END LIST*
D10*
X42999512Y-20963630D02*
X42999512Y-21963630D01*
X42999512Y-21011249D02*
X42913798Y-20963630D01*
X42742369Y-20963630D01*
X42656655Y-21011249D01*
X42613798Y-21058868D01*
X42570941Y-21154106D01*
X42570941Y-21439820D01*
X42613798Y-21535058D01*
X42656655Y-21582677D01*
X42742369Y-21630296D01*
X42913798Y-21630296D01*
X42999512Y-21582677D01*
X42056655Y-21630296D02*
X42142369Y-21582677D01*
X42185227Y-21487439D01*
X42185227Y-20630296D01*
X41328084Y-20963630D02*
X41328084Y-21630296D01*
X41713798Y-20963630D02*
X41713798Y-21487439D01*
X41670941Y-21582677D01*
X41585227Y-21630296D01*
X41456655Y-21630296D01*
X41370941Y-21582677D01*
X41328084Y-21535058D01*
X40513798Y-20963630D02*
X40513798Y-21773154D01*
X40556655Y-21868392D01*
X40599512Y-21916011D01*
X40685227Y-21963630D01*
X40813798Y-21963630D01*
X40899512Y-21916011D01*
X40513798Y-21582677D02*
X40599512Y-21630296D01*
X40770941Y-21630296D01*
X40856655Y-21582677D01*
X40899512Y-21535058D01*
X40942369Y-21439820D01*
X40942369Y-21154106D01*
X40899512Y-21058868D01*
X40856655Y-21011249D01*
X40770941Y-20963630D01*
X40599512Y-20963630D01*
X40513798Y-21011249D01*
X38756655Y-20582677D02*
X39528084Y-21868392D01*
X37813798Y-21582677D02*
X37728084Y-21630296D01*
X37556655Y-21630296D01*
X37470941Y-21582677D01*
X37428084Y-21487439D01*
X37428084Y-21439820D01*
X37470941Y-21344582D01*
X37556655Y-21296963D01*
X37685227Y-21296963D01*
X37770941Y-21249344D01*
X37813798Y-21154106D01*
X37813798Y-21106487D01*
X37770941Y-21011249D01*
X37685227Y-20963630D01*
X37556655Y-20963630D01*
X37470941Y-21011249D01*
X36913798Y-21630296D02*
X36999512Y-21582677D01*
X37042369Y-21535058D01*
X37085227Y-21439820D01*
X37085227Y-21154106D01*
X37042369Y-21058868D01*
X36999512Y-21011249D01*
X36913798Y-20963630D01*
X36785227Y-20963630D01*
X36699512Y-21011249D01*
X36656655Y-21058868D01*
X36613798Y-21154106D01*
X36613798Y-21439820D01*
X36656655Y-21535058D01*
X36699512Y-21582677D01*
X36785227Y-21630296D01*
X36913798Y-21630296D01*
X35842369Y-21582677D02*
X35928084Y-21630296D01*
X36099512Y-21630296D01*
X36185227Y-21582677D01*
X36228084Y-21535058D01*
X36270941Y-21439820D01*
X36270941Y-21154106D01*
X36228084Y-21058868D01*
X36185227Y-21011249D01*
X36099512Y-20963630D01*
X35928084Y-20963630D01*
X35842369Y-21011249D01*
X35456655Y-21630296D02*
X35456655Y-20630296D01*
X35370941Y-21249344D02*
X35113798Y-21630296D01*
X35113798Y-20963630D02*
X35456655Y-21344582D01*
X34385227Y-21582677D02*
X34470941Y-21630296D01*
X34642369Y-21630296D01*
X34728084Y-21582677D01*
X34770941Y-21487439D01*
X34770941Y-21106487D01*
X34728084Y-21011249D01*
X34642369Y-20963630D01*
X34470941Y-20963630D01*
X34385227Y-21011249D01*
X34342369Y-21106487D01*
X34342369Y-21201725D01*
X34770941Y-21296963D01*
X34085227Y-20963630D02*
X33742369Y-20963630D01*
X33956655Y-20630296D02*
X33956655Y-21487439D01*
X33913798Y-21582677D01*
X33828084Y-21630296D01*
X33742369Y-21630296D01*
X23235227Y-31330296D02*
X23235227Y-30330296D01*
X23020941Y-30330296D01*
X22892369Y-30377916D01*
X22806655Y-30473154D01*
X22763798Y-30568392D01*
X22720941Y-30758868D01*
X22720941Y-30901725D01*
X22763798Y-31092201D01*
X22806655Y-31187439D01*
X22892369Y-31282677D01*
X23020941Y-31330296D01*
X23235227Y-31330296D01*
X21820941Y-31235058D02*
X21863798Y-31282677D01*
X21992369Y-31330296D01*
X22078084Y-31330296D01*
X22206655Y-31282677D01*
X22292369Y-31187439D01*
X22335227Y-31092201D01*
X22378084Y-30901725D01*
X22378084Y-30758868D01*
X22335227Y-30568392D01*
X22292369Y-30473154D01*
X22206655Y-30377916D01*
X22078084Y-30330296D01*
X21992369Y-30330296D01*
X21863798Y-30377916D01*
X21820941Y-30425535D01*
X20363798Y-30330296D02*
X20535227Y-30330296D01*
X20620941Y-30377916D01*
X20663798Y-30425535D01*
X20749512Y-30568392D01*
X20792369Y-30758868D01*
X20792369Y-31139820D01*
X20749512Y-31235058D01*
X20706655Y-31282677D01*
X20620941Y-31330296D01*
X20449512Y-31330296D01*
X20363798Y-31282677D01*
X20320941Y-31235058D01*
X20278084Y-31139820D01*
X20278084Y-30901725D01*
X20320941Y-30806487D01*
X20363798Y-30758868D01*
X20449512Y-30711249D01*
X20620941Y-30711249D01*
X20706655Y-30758868D01*
X20749512Y-30806487D01*
X20792369Y-30901725D01*
X19892369Y-30949344D02*
X19206655Y-30949344D01*
X18306655Y-31330296D02*
X18820941Y-31330296D01*
X18563798Y-31330296D02*
X18563798Y-30330296D01*
X18649512Y-30473154D01*
X18735227Y-30568392D01*
X18820941Y-30616011D01*
X17963798Y-30425535D02*
X17920941Y-30377916D01*
X17835227Y-30330296D01*
X17620941Y-30330296D01*
X17535227Y-30377916D01*
X17492369Y-30425535D01*
X17449512Y-30520773D01*
X17449512Y-30616011D01*
X17492369Y-30758868D01*
X18006655Y-31330296D01*
X17449512Y-31330296D01*
X16506655Y-30330296D02*
X16206655Y-31330296D01*
X15906655Y-30330296D01*
D11*
X34035227Y-18677916D02*
X31335227Y-18677916D01*
X44835227Y-18677916D02*
X42435227Y-18677916D01*
X46905837Y-30627916D02*
G75*
G02X44805227Y-32677916I-2050610J0D01*
G01*
X31295328Y-32677916D02*
G75*
G02X29245227Y-30577306I-101J2050610D01*
G01*
X31335227Y-32677916D02*
X44835227Y-32677916D01*
X29235227Y-30677916D02*
X29235227Y-20777916D01*
X29235227Y-20777916D02*
G75*
G02X31335373Y-18684296I2050146J43620D01*
G01*
X44885227Y-18677306D02*
G75*
G02X46935227Y-20777916I0J-2050610D01*
G01*
X46905227Y-30647916D02*
X46935227Y-20777916D01*
X13935227Y-30677916D02*
X13935227Y-20777916D01*
X13935227Y-20787916D02*
G75*
G02X16035837Y-18737916I2050610J0D01*
G01*
X15995328Y-32737916D02*
G75*
G02X13945227Y-30637306I-101J2050610D01*
G01*
X16000000Y-32738000D02*
X23415227Y-32738000D01*
X25505837Y-30687916D02*
G75*
G02X23405227Y-32737916I-2050610J0D01*
G01*
X25505227Y-30647916D02*
X25535227Y-20777916D01*
X23485227Y-18677306D02*
G75*
G02X25535227Y-20777916I0J-2050610D01*
G01*
D12*
X22235227Y-19392201D02*
X22235227Y-17592201D01*
X21549512Y-17592201D01*
X21378084Y-17677916D01*
X21292369Y-17763630D01*
X21206655Y-17935058D01*
X21206655Y-18192201D01*
X21292369Y-18363630D01*
X21378084Y-18449344D01*
X21549512Y-18535058D01*
X22235227Y-18535058D01*
X20606655Y-17592201D02*
X20178084Y-19392201D01*
X19835227Y-18106487D01*
X19492369Y-19392201D01*
X19063798Y-17592201D01*
X17349512Y-19392201D02*
X17949512Y-18535058D01*
X18378084Y-19392201D02*
X18378084Y-17592201D01*
X17692369Y-17592201D01*
X17520941Y-17677916D01*
X17435227Y-17763630D01*
X17349512Y-17935058D01*
X17349512Y-18192201D01*
X17435227Y-18363630D01*
X17520941Y-18449344D01*
X17692369Y-18535058D01*
X18378084Y-18535058D01*
X40406655Y-17592201D02*
X40406655Y-19049344D01*
X40320941Y-19220773D01*
X40235227Y-19306487D01*
X40063798Y-19392201D01*
X39720941Y-19392201D01*
X39549512Y-19306487D01*
X39463798Y-19220773D01*
X39378084Y-19049344D01*
X39378084Y-17592201D01*
X38606655Y-19306487D02*
X38349512Y-19392201D01*
X37920941Y-19392201D01*
X37749512Y-19306487D01*
X37663798Y-19220773D01*
X37578084Y-19049344D01*
X37578084Y-18877916D01*
X37663798Y-18706487D01*
X37749512Y-18620773D01*
X37920941Y-18535058D01*
X38263798Y-18449344D01*
X38435227Y-18363630D01*
X38520941Y-18277916D01*
X38606655Y-18106487D01*
X38606655Y-17935058D01*
X38520941Y-17763630D01*
X38435227Y-17677916D01*
X38263798Y-17592201D01*
X37835227Y-17592201D01*
X37578084Y-17677916D01*
X36206655Y-18449344D02*
X35949512Y-18535058D01*
X35863798Y-18620773D01*
X35778084Y-18792201D01*
X35778084Y-19049344D01*
X35863798Y-19220773D01*
X35949512Y-19306487D01*
X36120941Y-19392201D01*
X36806655Y-19392201D01*
X36806655Y-17592201D01*
X36206655Y-17592201D01*
X36035227Y-17677916D01*
X35949512Y-17763630D01*
X35863798Y-17935058D01*
X35863798Y-18106487D01*
X35949512Y-18277916D01*
X36035227Y-18363630D01*
X36206655Y-18449344D01*
X36806655Y-18449344D01*
D11*
X58554617Y-8617916D02*
G75*
G02X60655227Y-6567916I2050610J0D01*
G01*
X58555227Y-8657916D02*
X58555227Y-16457306D01*
X60615227Y-18568526D02*
G75*
G02X58565227Y-16467916I0J2050610D01*
G01*
D12*
X65393798Y-19472201D02*
X65993798Y-18615058D01*
X66422369Y-19472201D02*
X66422369Y-17672201D01*
X65736655Y-17672201D01*
X65565227Y-17757916D01*
X65479512Y-17843630D01*
X65393798Y-18015058D01*
X65393798Y-18272201D01*
X65479512Y-18443630D01*
X65565227Y-18529344D01*
X65736655Y-18615058D01*
X66422369Y-18615058D01*
X64622369Y-18529344D02*
X64022369Y-18529344D01*
X63765227Y-19472201D02*
X64622369Y-19472201D01*
X64622369Y-17672201D01*
X63765227Y-17672201D01*
X62393798Y-18529344D02*
X62993798Y-18529344D01*
X62993798Y-19472201D02*
X62993798Y-17672201D01*
X62136655Y-17672201D01*
X65436655Y-22300773D02*
X65522369Y-22386487D01*
X65779512Y-22472201D01*
X65950941Y-22472201D01*
X66208084Y-22386487D01*
X66379512Y-22215058D01*
X66465227Y-22043630D01*
X66550941Y-21700773D01*
X66550941Y-21443630D01*
X66465227Y-21100773D01*
X66379512Y-20929344D01*
X66208084Y-20757916D01*
X65950941Y-20672201D01*
X65779512Y-20672201D01*
X65522369Y-20757916D01*
X65436655Y-20843630D01*
X63808084Y-22472201D02*
X64665227Y-22472201D01*
X64665227Y-20672201D01*
X63208084Y-22472201D02*
X63208084Y-20672201D01*
X62179512Y-22472201D02*
X62950941Y-21443630D01*
X62179512Y-20672201D02*
X63208084Y-21700773D01*
D11*
X68165227Y-6567916D02*
X60645227Y-6567916D01*
X68065227Y-6567916D02*
G75*
G02X70115227Y-8668526I0J-2050610D01*
G01*
X70165227Y-16467916D02*
X70115227Y-8668526D01*
X70165227Y-16517916D02*
G75*
G02X68064617Y-18567916I-2050610J0D01*
G01*
%LPC*%
D13*
X73750000Y-3980000D02*
G75*
G03X73750000Y-3980000I-1800000J0D01*
G01*
X73730000Y-31060000D02*
G75*
G03X73730000Y-31060000I-1800000J0D01*
G01*
X5740000Y-31030000D02*
G75*
G03X5740000Y-31030000I-1800000J0D01*
G01*
X5750000Y-3990000D02*
G75*
G03X5750000Y-3990000I-1800000J0D01*
G01*
D14*
X67020227Y-12373718D02*
G75*
G03X67020227Y-12373718I-2660000J0D01*
G01*
D15*
X67290227Y-10533718D02*
X67290227Y-14223718D01*
D16*
X68190227Y-12373718D02*
G75*
G03X68190227Y-12373718I-3830000J0D01*
G01*
D17*
X18246500Y-4600000D03*
X21292000Y-4600000D03*
X12155500Y-4600000D03*
X27383000Y-4600000D03*
X15201000Y-4600000D03*
X24337500Y-4600000D03*
X48701500Y-4600000D03*
X33474000Y-4600000D03*
X36519500Y-4600000D03*
X42610500Y-4600000D03*
X45656000Y-4600000D03*
X39565000Y-4600000D03*
X30428500Y-4600000D03*
X63929000Y-4600000D03*
X54792500Y-4600000D03*
X57838000Y-4600000D03*
X60883500Y-4600000D03*
X51747000Y-4600000D03*
X65454500Y-3540000D03*
X62409000Y-3540000D03*
X59363500Y-3540000D03*
X56318000Y-3540000D03*
X53272500Y-3540000D03*
X50227000Y-3540000D03*
X47181500Y-3540000D03*
X44136000Y-3540000D03*
X41090500Y-3540000D03*
X38045000Y-3540000D03*
X34999500Y-3540000D03*
X31954000Y-3540000D03*
X28908500Y-3540000D03*
X25863000Y-3540000D03*
X22817500Y-3540000D03*
X19772000Y-3540000D03*
X16726500Y-3540000D03*
X13681000Y-3540000D03*
X10635500Y-3540000D03*
M02*
