G04 #@! TF.FileFunction,Copper,L2,Bot,Signal*
%FSLAX46Y46*%
G04 Gerber Fmt 4.6, Leading zero omitted, Abs format (unit mm)*
G04 Created by KiCad (PCBNEW (2016-09-17 revision 679eef1)-makepkg) date 09/24/16 16:37:27*
%MOMM*%
%LPD*%
G01*
G04 APERTURE LIST*
%ADD10C,0.150000*%
%ADD11C,0.800000*%
%ADD12C,0.254000*%
G04 APERTURE END LIST*
D10*
D11*
X60510227Y-12373718D03*
X61026029Y-10448718D03*
X62435227Y-9039520D03*
X64360227Y-8523718D03*
X66285227Y-9039520D03*
X67694425Y-10448718D03*
X68210227Y-12373718D03*
X67694425Y-14298718D03*
X66285227Y-15707916D03*
X64360227Y-16223718D03*
X62435227Y-15707916D03*
X61026029Y-14298718D03*
D12*
G36*
X74701912Y-281292D02*
X75305443Y-684557D01*
X75708708Y-1288088D01*
X75853000Y-2013495D01*
X75853000Y-9706505D01*
X75838112Y-9781352D01*
X75803361Y-9833360D01*
X75751352Y-9868112D01*
X75676505Y-9883000D01*
X74999999Y-9883000D01*
X74947571Y-9893429D01*
X74903125Y-9923126D01*
X74873428Y-9967572D01*
X74862999Y-10020000D01*
X74863000Y-24860000D01*
X74873429Y-24912428D01*
X74903126Y-24956874D01*
X74947572Y-24986571D01*
X75000000Y-24997000D01*
X75676505Y-24997000D01*
X75751352Y-25011888D01*
X75803361Y-25046640D01*
X75838112Y-25098648D01*
X75853000Y-25173495D01*
X75853000Y-32486505D01*
X75671408Y-33399429D01*
X75161926Y-34161923D01*
X74399429Y-34671408D01*
X73486495Y-34853002D01*
X2013486Y-34862998D01*
X1288088Y-34718708D01*
X684557Y-34315443D01*
X281292Y-33711912D01*
X137000Y-32986505D01*
X137000Y-31035000D01*
X2408000Y-31035000D01*
X2524997Y-31623184D01*
X2858177Y-32121823D01*
X3356816Y-32455003D01*
X3945000Y-32572000D01*
X4533184Y-32455003D01*
X5031823Y-32121823D01*
X5365003Y-31623184D01*
X5482000Y-31035000D01*
X5365003Y-30446816D01*
X5031823Y-29948177D01*
X4533184Y-29614997D01*
X3945000Y-29498000D01*
X3356816Y-29614997D01*
X2858177Y-29948177D01*
X2524997Y-30446816D01*
X2408000Y-31035000D01*
X137000Y-31035000D01*
X137000Y-25273495D01*
X151888Y-25198648D01*
X186640Y-25146639D01*
X238648Y-25111888D01*
X313495Y-25097000D01*
X990000Y-25097000D01*
X1042428Y-25086571D01*
X1086874Y-25056874D01*
X1116571Y-25012428D01*
X1127000Y-24960000D01*
X1127000Y-21277916D01*
X16758227Y-21277916D01*
X16758227Y-28127916D01*
X16761628Y-28145014D01*
X16761628Y-28162447D01*
X16799688Y-28353789D01*
X16799688Y-28353790D01*
X16826117Y-28417595D01*
X16934502Y-28579804D01*
X16983337Y-28628639D01*
X17145548Y-28737026D01*
X17145549Y-28737027D01*
X17182925Y-28752508D01*
X17209353Y-28763455D01*
X17209354Y-28763455D01*
X17400697Y-28801515D01*
X17418129Y-28801515D01*
X17435227Y-28804916D01*
X21985227Y-28804916D01*
X22002325Y-28801515D01*
X22019758Y-28801515D01*
X22211100Y-28763455D01*
X22211101Y-28763455D01*
X22274906Y-28737026D01*
X22437117Y-28628639D01*
X22485952Y-28579804D01*
X22594337Y-28417595D01*
X22594338Y-28417594D01*
X22620766Y-28353789D01*
X22658826Y-28162446D01*
X22658826Y-28145014D01*
X22662227Y-28127916D01*
X22662227Y-23227916D01*
X30658227Y-23227916D01*
X30658227Y-26427916D01*
X30661628Y-26445014D01*
X30661628Y-26462447D01*
X30699688Y-26653789D01*
X30699688Y-26653790D01*
X30726117Y-26717595D01*
X30834502Y-26879804D01*
X30883337Y-26928639D01*
X31045548Y-27037026D01*
X31045549Y-27037027D01*
X31082925Y-27052508D01*
X31109353Y-27063455D01*
X31109354Y-27063455D01*
X31300697Y-27101515D01*
X31318129Y-27101515D01*
X31335227Y-27104916D01*
X31608227Y-27104916D01*
X31608227Y-31127916D01*
X31611628Y-31145014D01*
X31611628Y-31162447D01*
X31649688Y-31353789D01*
X31649688Y-31353790D01*
X31676117Y-31417595D01*
X31784502Y-31579804D01*
X31833337Y-31628639D01*
X31995548Y-31737026D01*
X31995549Y-31737027D01*
X32032925Y-31752508D01*
X32059353Y-31763455D01*
X32059354Y-31763455D01*
X32250697Y-31801515D01*
X32268129Y-31801515D01*
X32285227Y-31804916D01*
X43835227Y-31804916D01*
X43852325Y-31801515D01*
X43869758Y-31801515D01*
X44061100Y-31763455D01*
X44061101Y-31763455D01*
X44124906Y-31737026D01*
X44287117Y-31628639D01*
X44335952Y-31579804D01*
X44444337Y-31417595D01*
X44444338Y-31417594D01*
X44470766Y-31353789D01*
X44508826Y-31162446D01*
X44508826Y-31145014D01*
X44512227Y-31127916D01*
X44512227Y-31060000D01*
X70383000Y-31060000D01*
X70499997Y-31648184D01*
X70833177Y-32146823D01*
X71331816Y-32480003D01*
X71920000Y-32597000D01*
X72508184Y-32480003D01*
X73006823Y-32146823D01*
X73340003Y-31648184D01*
X73457000Y-31060000D01*
X73340003Y-30471816D01*
X73006823Y-29973177D01*
X72508184Y-29639997D01*
X71920000Y-29523000D01*
X71331816Y-29639997D01*
X70833177Y-29973177D01*
X70499997Y-30471816D01*
X70383000Y-31060000D01*
X44512227Y-31060000D01*
X44512227Y-27104916D01*
X44635227Y-27104916D01*
X44652325Y-27101515D01*
X44669758Y-27101515D01*
X44861100Y-27063455D01*
X44861101Y-27063455D01*
X44924906Y-27037026D01*
X45087117Y-26928639D01*
X45135952Y-26879804D01*
X45244337Y-26717595D01*
X45244338Y-26717594D01*
X45270766Y-26653789D01*
X45308826Y-26462446D01*
X45308826Y-26445014D01*
X45312227Y-26427916D01*
X45312227Y-23227916D01*
X45308826Y-23210818D01*
X45308826Y-23193386D01*
X45270766Y-23002043D01*
X45244338Y-22938238D01*
X45244337Y-22938237D01*
X45135950Y-22776026D01*
X45087115Y-22727191D01*
X44924906Y-22618806D01*
X44861101Y-22592377D01*
X44861100Y-22592377D01*
X44669758Y-22554317D01*
X44652325Y-22554317D01*
X44635227Y-22550916D01*
X31335227Y-22550916D01*
X31318129Y-22554317D01*
X31300697Y-22554317D01*
X31109354Y-22592377D01*
X31109353Y-22592377D01*
X31084291Y-22602758D01*
X31045549Y-22618805D01*
X31045548Y-22618806D01*
X30883339Y-22727191D01*
X30834504Y-22776026D01*
X30726117Y-22938237D01*
X30726117Y-22938238D01*
X30699688Y-23002043D01*
X30661628Y-23193385D01*
X30661628Y-23210818D01*
X30658227Y-23227916D01*
X22662227Y-23227916D01*
X22662227Y-21277916D01*
X22658826Y-21260818D01*
X22658826Y-21243386D01*
X22620766Y-21052043D01*
X22594338Y-20988238D01*
X22594337Y-20988237D01*
X22485950Y-20826026D01*
X22437115Y-20777191D01*
X22274906Y-20668806D01*
X22211101Y-20642377D01*
X22211100Y-20642377D01*
X22019758Y-20604317D01*
X22002325Y-20604317D01*
X21985227Y-20600916D01*
X17435227Y-20600916D01*
X17418129Y-20604317D01*
X17400697Y-20604317D01*
X17209354Y-20642377D01*
X17209353Y-20642377D01*
X17184291Y-20652758D01*
X17145549Y-20668805D01*
X17145548Y-20668806D01*
X16983339Y-20777191D01*
X16934504Y-20826026D01*
X16826117Y-20988237D01*
X16826117Y-20988238D01*
X16799688Y-21052043D01*
X16761628Y-21243385D01*
X16761628Y-21260818D01*
X16758227Y-21277916D01*
X1127000Y-21277916D01*
X1127000Y-13002737D01*
X60969175Y-13002737D01*
X60984434Y-13080062D01*
X60984435Y-13080063D01*
X61468018Y-14252551D01*
X61468019Y-14252556D01*
X61473845Y-14261303D01*
X61511708Y-14318156D01*
X61511711Y-14318158D01*
X62407173Y-15216334D01*
X62407175Y-15216337D01*
X62433449Y-15233951D01*
X62472642Y-15260225D01*
X62472647Y-15260226D01*
X63643662Y-15747354D01*
X63643666Y-15747357D01*
X63720944Y-15762850D01*
X64989246Y-15764770D01*
X65066571Y-15749511D01*
X65066573Y-15749509D01*
X66239060Y-15265927D01*
X66239065Y-15265926D01*
X66278441Y-15239702D01*
X66304665Y-15222237D01*
X66304667Y-15222234D01*
X67202846Y-14326769D01*
X67202931Y-14326642D01*
X67203063Y-14326554D01*
X67224979Y-14293755D01*
X67246734Y-14261303D01*
X67246765Y-14261149D01*
X67246851Y-14261020D01*
X67254408Y-14223028D01*
X67262228Y-14184024D01*
X67262197Y-14183868D01*
X67262227Y-14183718D01*
X67262227Y-10563723D01*
X67262228Y-10563718D01*
X67246851Y-10486416D01*
X67203063Y-10420882D01*
X66313063Y-9530882D01*
X66280185Y-9508914D01*
X66247812Y-9487212D01*
X66247530Y-9487095D01*
X66247529Y-9487094D01*
X66247528Y-9487094D01*
X65076789Y-9000080D01*
X65076790Y-9000080D01*
X65076788Y-9000079D01*
X65015003Y-8987692D01*
X64999510Y-8984586D01*
X64999509Y-8984586D01*
X63731208Y-8982666D01*
X63653883Y-8997925D01*
X62481394Y-9481509D01*
X62481389Y-9481510D01*
X62415790Y-9525199D01*
X61517608Y-10420666D01*
X61473720Y-10486133D01*
X61473719Y-10486138D01*
X60986590Y-11657155D01*
X60986588Y-11657157D01*
X60971095Y-11734436D01*
X60969175Y-13002737D01*
X1127000Y-13002737D01*
X1127000Y-10120000D01*
X1116571Y-10067572D01*
X1086874Y-10023126D01*
X1042428Y-9993429D01*
X990000Y-9983000D01*
X313495Y-9983000D01*
X238648Y-9968112D01*
X186640Y-9933361D01*
X151888Y-9881352D01*
X137000Y-9806505D01*
X137000Y-3985000D01*
X2408000Y-3985000D01*
X2524997Y-4573184D01*
X2858177Y-5071823D01*
X3356816Y-5405003D01*
X3945000Y-5522000D01*
X4533184Y-5405003D01*
X5031823Y-5071823D01*
X5237651Y-4763779D01*
X11328357Y-4763779D01*
X11453995Y-5067846D01*
X11686430Y-5300688D01*
X11990278Y-5426856D01*
X12319279Y-5427143D01*
X12623346Y-5301505D01*
X12856188Y-5069070D01*
X12982356Y-4765222D01*
X12982357Y-4763779D01*
X14373857Y-4763779D01*
X14499495Y-5067846D01*
X14731930Y-5300688D01*
X15035778Y-5426856D01*
X15364779Y-5427143D01*
X15668846Y-5301505D01*
X15901688Y-5069070D01*
X16027856Y-4765222D01*
X16027857Y-4763779D01*
X17419357Y-4763779D01*
X17544995Y-5067846D01*
X17777430Y-5300688D01*
X18081278Y-5426856D01*
X18410279Y-5427143D01*
X18714346Y-5301505D01*
X18947188Y-5069070D01*
X19073356Y-4765222D01*
X19073357Y-4763779D01*
X20464857Y-4763779D01*
X20590495Y-5067846D01*
X20822930Y-5300688D01*
X21126778Y-5426856D01*
X21455779Y-5427143D01*
X21759846Y-5301505D01*
X21992688Y-5069070D01*
X22118856Y-4765222D01*
X22118857Y-4763779D01*
X23510357Y-4763779D01*
X23635995Y-5067846D01*
X23868430Y-5300688D01*
X24172278Y-5426856D01*
X24501279Y-5427143D01*
X24805346Y-5301505D01*
X25038188Y-5069070D01*
X25164356Y-4765222D01*
X25164357Y-4763779D01*
X26555857Y-4763779D01*
X26681495Y-5067846D01*
X26913930Y-5300688D01*
X27217778Y-5426856D01*
X27546779Y-5427143D01*
X27850846Y-5301505D01*
X28083688Y-5069070D01*
X28209856Y-4765222D01*
X28209857Y-4763779D01*
X29601357Y-4763779D01*
X29726995Y-5067846D01*
X29959430Y-5300688D01*
X30263278Y-5426856D01*
X30592279Y-5427143D01*
X30896346Y-5301505D01*
X31129188Y-5069070D01*
X31255356Y-4765222D01*
X31255357Y-4763779D01*
X32646857Y-4763779D01*
X32772495Y-5067846D01*
X33004930Y-5300688D01*
X33308778Y-5426856D01*
X33637779Y-5427143D01*
X33941846Y-5301505D01*
X34174688Y-5069070D01*
X34300856Y-4765222D01*
X34300857Y-4763779D01*
X35692357Y-4763779D01*
X35817995Y-5067846D01*
X36050430Y-5300688D01*
X36354278Y-5426856D01*
X36683279Y-5427143D01*
X36987346Y-5301505D01*
X37220188Y-5069070D01*
X37346356Y-4765222D01*
X37346357Y-4763779D01*
X38737857Y-4763779D01*
X38863495Y-5067846D01*
X39095930Y-5300688D01*
X39399778Y-5426856D01*
X39728779Y-5427143D01*
X40032846Y-5301505D01*
X40265688Y-5069070D01*
X40391856Y-4765222D01*
X40391857Y-4763779D01*
X41783357Y-4763779D01*
X41908995Y-5067846D01*
X42141430Y-5300688D01*
X42445278Y-5426856D01*
X42774279Y-5427143D01*
X43078346Y-5301505D01*
X43311188Y-5069070D01*
X43437356Y-4765222D01*
X43437357Y-4763779D01*
X44828857Y-4763779D01*
X44954495Y-5067846D01*
X45186930Y-5300688D01*
X45490778Y-5426856D01*
X45819779Y-5427143D01*
X46123846Y-5301505D01*
X46356688Y-5069070D01*
X46482856Y-4765222D01*
X46482857Y-4763779D01*
X47874357Y-4763779D01*
X47999995Y-5067846D01*
X48232430Y-5300688D01*
X48536278Y-5426856D01*
X48865279Y-5427143D01*
X49169346Y-5301505D01*
X49402188Y-5069070D01*
X49528356Y-4765222D01*
X49528357Y-4763779D01*
X50919857Y-4763779D01*
X51045495Y-5067846D01*
X51277930Y-5300688D01*
X51581778Y-5426856D01*
X51910779Y-5427143D01*
X52214846Y-5301505D01*
X52447688Y-5069070D01*
X52573856Y-4765222D01*
X52573857Y-4763779D01*
X53965357Y-4763779D01*
X54090995Y-5067846D01*
X54323430Y-5300688D01*
X54627278Y-5426856D01*
X54956279Y-5427143D01*
X55260346Y-5301505D01*
X55493188Y-5069070D01*
X55619356Y-4765222D01*
X55619357Y-4763779D01*
X57010857Y-4763779D01*
X57136495Y-5067846D01*
X57368930Y-5300688D01*
X57672778Y-5426856D01*
X58001779Y-5427143D01*
X58305846Y-5301505D01*
X58538688Y-5069070D01*
X58664856Y-4765222D01*
X58664857Y-4763779D01*
X60056357Y-4763779D01*
X60181995Y-5067846D01*
X60414430Y-5300688D01*
X60718278Y-5426856D01*
X61047279Y-5427143D01*
X61351346Y-5301505D01*
X61584188Y-5069070D01*
X61710356Y-4765222D01*
X61710357Y-4763779D01*
X63101857Y-4763779D01*
X63227495Y-5067846D01*
X63459930Y-5300688D01*
X63763778Y-5426856D01*
X64092779Y-5427143D01*
X64396846Y-5301505D01*
X64629688Y-5069070D01*
X64755856Y-4765222D01*
X64756143Y-4436221D01*
X64630505Y-4132154D01*
X64398070Y-3899312D01*
X64094222Y-3773144D01*
X63765221Y-3772857D01*
X63461154Y-3898495D01*
X63228312Y-4130930D01*
X63102144Y-4434778D01*
X63101857Y-4763779D01*
X61710357Y-4763779D01*
X61710643Y-4436221D01*
X61585005Y-4132154D01*
X61352570Y-3899312D01*
X61048722Y-3773144D01*
X60719721Y-3772857D01*
X60415654Y-3898495D01*
X60182812Y-4130930D01*
X60056644Y-4434778D01*
X60056357Y-4763779D01*
X58664857Y-4763779D01*
X58665143Y-4436221D01*
X58539505Y-4132154D01*
X58307070Y-3899312D01*
X58003222Y-3773144D01*
X57674221Y-3772857D01*
X57370154Y-3898495D01*
X57137312Y-4130930D01*
X57011144Y-4434778D01*
X57010857Y-4763779D01*
X55619357Y-4763779D01*
X55619643Y-4436221D01*
X55494005Y-4132154D01*
X55261570Y-3899312D01*
X54957722Y-3773144D01*
X54628721Y-3772857D01*
X54324654Y-3898495D01*
X54091812Y-4130930D01*
X53965644Y-4434778D01*
X53965357Y-4763779D01*
X52573857Y-4763779D01*
X52574143Y-4436221D01*
X52448505Y-4132154D01*
X52216070Y-3899312D01*
X51912222Y-3773144D01*
X51583221Y-3772857D01*
X51279154Y-3898495D01*
X51046312Y-4130930D01*
X50920144Y-4434778D01*
X50919857Y-4763779D01*
X49528357Y-4763779D01*
X49528643Y-4436221D01*
X49403005Y-4132154D01*
X49170570Y-3899312D01*
X48866722Y-3773144D01*
X48537721Y-3772857D01*
X48233654Y-3898495D01*
X48000812Y-4130930D01*
X47874644Y-4434778D01*
X47874357Y-4763779D01*
X46482857Y-4763779D01*
X46483143Y-4436221D01*
X46357505Y-4132154D01*
X46125070Y-3899312D01*
X45821222Y-3773144D01*
X45492221Y-3772857D01*
X45188154Y-3898495D01*
X44955312Y-4130930D01*
X44829144Y-4434778D01*
X44828857Y-4763779D01*
X43437357Y-4763779D01*
X43437643Y-4436221D01*
X43312005Y-4132154D01*
X43079570Y-3899312D01*
X42775722Y-3773144D01*
X42446721Y-3772857D01*
X42142654Y-3898495D01*
X41909812Y-4130930D01*
X41783644Y-4434778D01*
X41783357Y-4763779D01*
X40391857Y-4763779D01*
X40392143Y-4436221D01*
X40266505Y-4132154D01*
X40034070Y-3899312D01*
X39730222Y-3773144D01*
X39401221Y-3772857D01*
X39097154Y-3898495D01*
X38864312Y-4130930D01*
X38738144Y-4434778D01*
X38737857Y-4763779D01*
X37346357Y-4763779D01*
X37346643Y-4436221D01*
X37221005Y-4132154D01*
X36988570Y-3899312D01*
X36684722Y-3773144D01*
X36355721Y-3772857D01*
X36051654Y-3898495D01*
X35818812Y-4130930D01*
X35692644Y-4434778D01*
X35692357Y-4763779D01*
X34300857Y-4763779D01*
X34301143Y-4436221D01*
X34175505Y-4132154D01*
X33943070Y-3899312D01*
X33639222Y-3773144D01*
X33310221Y-3772857D01*
X33006154Y-3898495D01*
X32773312Y-4130930D01*
X32647144Y-4434778D01*
X32646857Y-4763779D01*
X31255357Y-4763779D01*
X31255643Y-4436221D01*
X31130005Y-4132154D01*
X30897570Y-3899312D01*
X30593722Y-3773144D01*
X30264721Y-3772857D01*
X29960654Y-3898495D01*
X29727812Y-4130930D01*
X29601644Y-4434778D01*
X29601357Y-4763779D01*
X28209857Y-4763779D01*
X28210143Y-4436221D01*
X28084505Y-4132154D01*
X27852070Y-3899312D01*
X27548222Y-3773144D01*
X27219221Y-3772857D01*
X26915154Y-3898495D01*
X26682312Y-4130930D01*
X26556144Y-4434778D01*
X26555857Y-4763779D01*
X25164357Y-4763779D01*
X25164643Y-4436221D01*
X25039005Y-4132154D01*
X24806570Y-3899312D01*
X24502722Y-3773144D01*
X24173721Y-3772857D01*
X23869654Y-3898495D01*
X23636812Y-4130930D01*
X23510644Y-4434778D01*
X23510357Y-4763779D01*
X22118857Y-4763779D01*
X22119143Y-4436221D01*
X21993505Y-4132154D01*
X21761070Y-3899312D01*
X21457222Y-3773144D01*
X21128221Y-3772857D01*
X20824154Y-3898495D01*
X20591312Y-4130930D01*
X20465144Y-4434778D01*
X20464857Y-4763779D01*
X19073357Y-4763779D01*
X19073643Y-4436221D01*
X18948005Y-4132154D01*
X18715570Y-3899312D01*
X18411722Y-3773144D01*
X18082721Y-3772857D01*
X17778654Y-3898495D01*
X17545812Y-4130930D01*
X17419644Y-4434778D01*
X17419357Y-4763779D01*
X16027857Y-4763779D01*
X16028143Y-4436221D01*
X15902505Y-4132154D01*
X15670070Y-3899312D01*
X15366222Y-3773144D01*
X15037221Y-3772857D01*
X14733154Y-3898495D01*
X14500312Y-4130930D01*
X14374144Y-4434778D01*
X14373857Y-4763779D01*
X12982357Y-4763779D01*
X12982643Y-4436221D01*
X12857005Y-4132154D01*
X12624570Y-3899312D01*
X12320722Y-3773144D01*
X11991721Y-3772857D01*
X11687654Y-3898495D01*
X11454812Y-4130930D01*
X11328644Y-4434778D01*
X11328357Y-4763779D01*
X5237651Y-4763779D01*
X5365003Y-4573184D01*
X5482000Y-3985000D01*
X5426062Y-3703779D01*
X9808357Y-3703779D01*
X9933995Y-4007846D01*
X10166430Y-4240688D01*
X10470278Y-4366856D01*
X10799279Y-4367143D01*
X11103346Y-4241505D01*
X11336188Y-4009070D01*
X11462356Y-3705222D01*
X11462357Y-3703779D01*
X12853857Y-3703779D01*
X12979495Y-4007846D01*
X13211930Y-4240688D01*
X13515778Y-4366856D01*
X13844779Y-4367143D01*
X14148846Y-4241505D01*
X14381688Y-4009070D01*
X14507856Y-3705222D01*
X14507857Y-3703779D01*
X15899357Y-3703779D01*
X16024995Y-4007846D01*
X16257430Y-4240688D01*
X16561278Y-4366856D01*
X16890279Y-4367143D01*
X17194346Y-4241505D01*
X17427188Y-4009070D01*
X17553356Y-3705222D01*
X17553357Y-3703779D01*
X18944857Y-3703779D01*
X19070495Y-4007846D01*
X19302930Y-4240688D01*
X19606778Y-4366856D01*
X19935779Y-4367143D01*
X20239846Y-4241505D01*
X20472688Y-4009070D01*
X20598856Y-3705222D01*
X20598857Y-3703779D01*
X21990357Y-3703779D01*
X22115995Y-4007846D01*
X22348430Y-4240688D01*
X22652278Y-4366856D01*
X22981279Y-4367143D01*
X23285346Y-4241505D01*
X23518188Y-4009070D01*
X23644356Y-3705222D01*
X23644357Y-3703779D01*
X25035857Y-3703779D01*
X25161495Y-4007846D01*
X25393930Y-4240688D01*
X25697778Y-4366856D01*
X26026779Y-4367143D01*
X26330846Y-4241505D01*
X26563688Y-4009070D01*
X26689856Y-3705222D01*
X26689857Y-3703779D01*
X28081357Y-3703779D01*
X28206995Y-4007846D01*
X28439430Y-4240688D01*
X28743278Y-4366856D01*
X29072279Y-4367143D01*
X29376346Y-4241505D01*
X29609188Y-4009070D01*
X29735356Y-3705222D01*
X29735357Y-3703779D01*
X31126857Y-3703779D01*
X31252495Y-4007846D01*
X31484930Y-4240688D01*
X31788778Y-4366856D01*
X32117779Y-4367143D01*
X32421846Y-4241505D01*
X32654688Y-4009070D01*
X32780856Y-3705222D01*
X32780857Y-3703779D01*
X34172357Y-3703779D01*
X34297995Y-4007846D01*
X34530430Y-4240688D01*
X34834278Y-4366856D01*
X35163279Y-4367143D01*
X35467346Y-4241505D01*
X35700188Y-4009070D01*
X35826356Y-3705222D01*
X35826357Y-3703779D01*
X37217857Y-3703779D01*
X37343495Y-4007846D01*
X37575930Y-4240688D01*
X37879778Y-4366856D01*
X38208779Y-4367143D01*
X38512846Y-4241505D01*
X38745688Y-4009070D01*
X38871856Y-3705222D01*
X38871857Y-3703779D01*
X40263357Y-3703779D01*
X40388995Y-4007846D01*
X40621430Y-4240688D01*
X40925278Y-4366856D01*
X41254279Y-4367143D01*
X41558346Y-4241505D01*
X41791188Y-4009070D01*
X41917356Y-3705222D01*
X41917357Y-3703779D01*
X43308857Y-3703779D01*
X43434495Y-4007846D01*
X43666930Y-4240688D01*
X43970778Y-4366856D01*
X44299779Y-4367143D01*
X44603846Y-4241505D01*
X44836688Y-4009070D01*
X44962856Y-3705222D01*
X44962857Y-3703779D01*
X46354357Y-3703779D01*
X46479995Y-4007846D01*
X46712430Y-4240688D01*
X47016278Y-4366856D01*
X47345279Y-4367143D01*
X47649346Y-4241505D01*
X47882188Y-4009070D01*
X48008356Y-3705222D01*
X48008357Y-3703779D01*
X49399857Y-3703779D01*
X49525495Y-4007846D01*
X49757930Y-4240688D01*
X50061778Y-4366856D01*
X50390779Y-4367143D01*
X50694846Y-4241505D01*
X50927688Y-4009070D01*
X51053856Y-3705222D01*
X51053857Y-3703779D01*
X52445357Y-3703779D01*
X52570995Y-4007846D01*
X52803430Y-4240688D01*
X53107278Y-4366856D01*
X53436279Y-4367143D01*
X53740346Y-4241505D01*
X53973188Y-4009070D01*
X54099356Y-3705222D01*
X54099357Y-3703779D01*
X55490857Y-3703779D01*
X55616495Y-4007846D01*
X55848930Y-4240688D01*
X56152778Y-4366856D01*
X56481779Y-4367143D01*
X56785846Y-4241505D01*
X57018688Y-4009070D01*
X57144856Y-3705222D01*
X57144857Y-3703779D01*
X58536357Y-3703779D01*
X58661995Y-4007846D01*
X58894430Y-4240688D01*
X59198278Y-4366856D01*
X59527279Y-4367143D01*
X59831346Y-4241505D01*
X60064188Y-4009070D01*
X60190356Y-3705222D01*
X60190357Y-3703779D01*
X61581857Y-3703779D01*
X61707495Y-4007846D01*
X61939930Y-4240688D01*
X62243778Y-4366856D01*
X62572779Y-4367143D01*
X62876846Y-4241505D01*
X63109688Y-4009070D01*
X63235856Y-3705222D01*
X63235857Y-3703779D01*
X64627357Y-3703779D01*
X64752995Y-4007846D01*
X64985430Y-4240688D01*
X65289278Y-4366856D01*
X65618279Y-4367143D01*
X65922346Y-4241505D01*
X66155188Y-4009070D01*
X66165182Y-3985000D01*
X70408000Y-3985000D01*
X70524997Y-4573184D01*
X70858177Y-5071823D01*
X71356816Y-5405003D01*
X71945000Y-5522000D01*
X72533184Y-5405003D01*
X73031823Y-5071823D01*
X73365003Y-4573184D01*
X73482000Y-3985000D01*
X73365003Y-3396816D01*
X73031823Y-2898177D01*
X72533184Y-2564997D01*
X71945000Y-2448000D01*
X71356816Y-2564997D01*
X70858177Y-2898177D01*
X70524997Y-3396816D01*
X70408000Y-3985000D01*
X66165182Y-3985000D01*
X66281356Y-3705222D01*
X66281643Y-3376221D01*
X66156005Y-3072154D01*
X65923570Y-2839312D01*
X65619722Y-2713144D01*
X65290721Y-2712857D01*
X64986654Y-2838495D01*
X64753812Y-3070930D01*
X64627644Y-3374778D01*
X64627357Y-3703779D01*
X63235857Y-3703779D01*
X63236143Y-3376221D01*
X63110505Y-3072154D01*
X62878070Y-2839312D01*
X62574222Y-2713144D01*
X62245221Y-2712857D01*
X61941154Y-2838495D01*
X61708312Y-3070930D01*
X61582144Y-3374778D01*
X61581857Y-3703779D01*
X60190357Y-3703779D01*
X60190643Y-3376221D01*
X60065005Y-3072154D01*
X59832570Y-2839312D01*
X59528722Y-2713144D01*
X59199721Y-2712857D01*
X58895654Y-2838495D01*
X58662812Y-3070930D01*
X58536644Y-3374778D01*
X58536357Y-3703779D01*
X57144857Y-3703779D01*
X57145143Y-3376221D01*
X57019505Y-3072154D01*
X56787070Y-2839312D01*
X56483222Y-2713144D01*
X56154221Y-2712857D01*
X55850154Y-2838495D01*
X55617312Y-3070930D01*
X55491144Y-3374778D01*
X55490857Y-3703779D01*
X54099357Y-3703779D01*
X54099643Y-3376221D01*
X53974005Y-3072154D01*
X53741570Y-2839312D01*
X53437722Y-2713144D01*
X53108721Y-2712857D01*
X52804654Y-2838495D01*
X52571812Y-3070930D01*
X52445644Y-3374778D01*
X52445357Y-3703779D01*
X51053857Y-3703779D01*
X51054143Y-3376221D01*
X50928505Y-3072154D01*
X50696070Y-2839312D01*
X50392222Y-2713144D01*
X50063221Y-2712857D01*
X49759154Y-2838495D01*
X49526312Y-3070930D01*
X49400144Y-3374778D01*
X49399857Y-3703779D01*
X48008357Y-3703779D01*
X48008643Y-3376221D01*
X47883005Y-3072154D01*
X47650570Y-2839312D01*
X47346722Y-2713144D01*
X47017721Y-2712857D01*
X46713654Y-2838495D01*
X46480812Y-3070930D01*
X46354644Y-3374778D01*
X46354357Y-3703779D01*
X44962857Y-3703779D01*
X44963143Y-3376221D01*
X44837505Y-3072154D01*
X44605070Y-2839312D01*
X44301222Y-2713144D01*
X43972221Y-2712857D01*
X43668154Y-2838495D01*
X43435312Y-3070930D01*
X43309144Y-3374778D01*
X43308857Y-3703779D01*
X41917357Y-3703779D01*
X41917643Y-3376221D01*
X41792005Y-3072154D01*
X41559570Y-2839312D01*
X41255722Y-2713144D01*
X40926721Y-2712857D01*
X40622654Y-2838495D01*
X40389812Y-3070930D01*
X40263644Y-3374778D01*
X40263357Y-3703779D01*
X38871857Y-3703779D01*
X38872143Y-3376221D01*
X38746505Y-3072154D01*
X38514070Y-2839312D01*
X38210222Y-2713144D01*
X37881221Y-2712857D01*
X37577154Y-2838495D01*
X37344312Y-3070930D01*
X37218144Y-3374778D01*
X37217857Y-3703779D01*
X35826357Y-3703779D01*
X35826643Y-3376221D01*
X35701005Y-3072154D01*
X35468570Y-2839312D01*
X35164722Y-2713144D01*
X34835721Y-2712857D01*
X34531654Y-2838495D01*
X34298812Y-3070930D01*
X34172644Y-3374778D01*
X34172357Y-3703779D01*
X32780857Y-3703779D01*
X32781143Y-3376221D01*
X32655505Y-3072154D01*
X32423070Y-2839312D01*
X32119222Y-2713144D01*
X31790221Y-2712857D01*
X31486154Y-2838495D01*
X31253312Y-3070930D01*
X31127144Y-3374778D01*
X31126857Y-3703779D01*
X29735357Y-3703779D01*
X29735643Y-3376221D01*
X29610005Y-3072154D01*
X29377570Y-2839312D01*
X29073722Y-2713144D01*
X28744721Y-2712857D01*
X28440654Y-2838495D01*
X28207812Y-3070930D01*
X28081644Y-3374778D01*
X28081357Y-3703779D01*
X26689857Y-3703779D01*
X26690143Y-3376221D01*
X26564505Y-3072154D01*
X26332070Y-2839312D01*
X26028222Y-2713144D01*
X25699221Y-2712857D01*
X25395154Y-2838495D01*
X25162312Y-3070930D01*
X25036144Y-3374778D01*
X25035857Y-3703779D01*
X23644357Y-3703779D01*
X23644643Y-3376221D01*
X23519005Y-3072154D01*
X23286570Y-2839312D01*
X22982722Y-2713144D01*
X22653721Y-2712857D01*
X22349654Y-2838495D01*
X22116812Y-3070930D01*
X21990644Y-3374778D01*
X21990357Y-3703779D01*
X20598857Y-3703779D01*
X20599143Y-3376221D01*
X20473505Y-3072154D01*
X20241070Y-2839312D01*
X19937222Y-2713144D01*
X19608221Y-2712857D01*
X19304154Y-2838495D01*
X19071312Y-3070930D01*
X18945144Y-3374778D01*
X18944857Y-3703779D01*
X17553357Y-3703779D01*
X17553643Y-3376221D01*
X17428005Y-3072154D01*
X17195570Y-2839312D01*
X16891722Y-2713144D01*
X16562721Y-2712857D01*
X16258654Y-2838495D01*
X16025812Y-3070930D01*
X15899644Y-3374778D01*
X15899357Y-3703779D01*
X14507857Y-3703779D01*
X14508143Y-3376221D01*
X14382505Y-3072154D01*
X14150070Y-2839312D01*
X13846222Y-2713144D01*
X13517221Y-2712857D01*
X13213154Y-2838495D01*
X12980312Y-3070930D01*
X12854144Y-3374778D01*
X12853857Y-3703779D01*
X11462357Y-3703779D01*
X11462643Y-3376221D01*
X11337005Y-3072154D01*
X11104570Y-2839312D01*
X10800722Y-2713144D01*
X10471721Y-2712857D01*
X10167654Y-2838495D01*
X9934812Y-3070930D01*
X9808644Y-3374778D01*
X9808357Y-3703779D01*
X5426062Y-3703779D01*
X5365003Y-3396816D01*
X5031823Y-2898177D01*
X4533184Y-2564997D01*
X3945000Y-2448000D01*
X3356816Y-2564997D01*
X2858177Y-2898177D01*
X2524997Y-3396816D01*
X2408000Y-3985000D01*
X137000Y-3985000D01*
X137000Y-2013496D01*
X281292Y-1288089D01*
X684557Y-684558D01*
X1288085Y-281293D01*
X2013494Y-137000D01*
X73976505Y-137000D01*
X74701912Y-281292D01*
X74701912Y-281292D01*
G37*
X74701912Y-281292D02*
X75305443Y-684557D01*
X75708708Y-1288088D01*
X75853000Y-2013495D01*
X75853000Y-9706505D01*
X75838112Y-9781352D01*
X75803361Y-9833360D01*
X75751352Y-9868112D01*
X75676505Y-9883000D01*
X74999999Y-9883000D01*
X74947571Y-9893429D01*
X74903125Y-9923126D01*
X74873428Y-9967572D01*
X74862999Y-10020000D01*
X74863000Y-24860000D01*
X74873429Y-24912428D01*
X74903126Y-24956874D01*
X74947572Y-24986571D01*
X75000000Y-24997000D01*
X75676505Y-24997000D01*
X75751352Y-25011888D01*
X75803361Y-25046640D01*
X75838112Y-25098648D01*
X75853000Y-25173495D01*
X75853000Y-32486505D01*
X75671408Y-33399429D01*
X75161926Y-34161923D01*
X74399429Y-34671408D01*
X73486495Y-34853002D01*
X2013486Y-34862998D01*
X1288088Y-34718708D01*
X684557Y-34315443D01*
X281292Y-33711912D01*
X137000Y-32986505D01*
X137000Y-31035000D01*
X2408000Y-31035000D01*
X2524997Y-31623184D01*
X2858177Y-32121823D01*
X3356816Y-32455003D01*
X3945000Y-32572000D01*
X4533184Y-32455003D01*
X5031823Y-32121823D01*
X5365003Y-31623184D01*
X5482000Y-31035000D01*
X5365003Y-30446816D01*
X5031823Y-29948177D01*
X4533184Y-29614997D01*
X3945000Y-29498000D01*
X3356816Y-29614997D01*
X2858177Y-29948177D01*
X2524997Y-30446816D01*
X2408000Y-31035000D01*
X137000Y-31035000D01*
X137000Y-25273495D01*
X151888Y-25198648D01*
X186640Y-25146639D01*
X238648Y-25111888D01*
X313495Y-25097000D01*
X990000Y-25097000D01*
X1042428Y-25086571D01*
X1086874Y-25056874D01*
X1116571Y-25012428D01*
X1127000Y-24960000D01*
X1127000Y-21277916D01*
X16758227Y-21277916D01*
X16758227Y-28127916D01*
X16761628Y-28145014D01*
X16761628Y-28162447D01*
X16799688Y-28353789D01*
X16799688Y-28353790D01*
X16826117Y-28417595D01*
X16934502Y-28579804D01*
X16983337Y-28628639D01*
X17145548Y-28737026D01*
X17145549Y-28737027D01*
X17182925Y-28752508D01*
X17209353Y-28763455D01*
X17209354Y-28763455D01*
X17400697Y-28801515D01*
X17418129Y-28801515D01*
X17435227Y-28804916D01*
X21985227Y-28804916D01*
X22002325Y-28801515D01*
X22019758Y-28801515D01*
X22211100Y-28763455D01*
X22211101Y-28763455D01*
X22274906Y-28737026D01*
X22437117Y-28628639D01*
X22485952Y-28579804D01*
X22594337Y-28417595D01*
X22594338Y-28417594D01*
X22620766Y-28353789D01*
X22658826Y-28162446D01*
X22658826Y-28145014D01*
X22662227Y-28127916D01*
X22662227Y-23227916D01*
X30658227Y-23227916D01*
X30658227Y-26427916D01*
X30661628Y-26445014D01*
X30661628Y-26462447D01*
X30699688Y-26653789D01*
X30699688Y-26653790D01*
X30726117Y-26717595D01*
X30834502Y-26879804D01*
X30883337Y-26928639D01*
X31045548Y-27037026D01*
X31045549Y-27037027D01*
X31082925Y-27052508D01*
X31109353Y-27063455D01*
X31109354Y-27063455D01*
X31300697Y-27101515D01*
X31318129Y-27101515D01*
X31335227Y-27104916D01*
X31608227Y-27104916D01*
X31608227Y-31127916D01*
X31611628Y-31145014D01*
X31611628Y-31162447D01*
X31649688Y-31353789D01*
X31649688Y-31353790D01*
X31676117Y-31417595D01*
X31784502Y-31579804D01*
X31833337Y-31628639D01*
X31995548Y-31737026D01*
X31995549Y-31737027D01*
X32032925Y-31752508D01*
X32059353Y-31763455D01*
X32059354Y-31763455D01*
X32250697Y-31801515D01*
X32268129Y-31801515D01*
X32285227Y-31804916D01*
X43835227Y-31804916D01*
X43852325Y-31801515D01*
X43869758Y-31801515D01*
X44061100Y-31763455D01*
X44061101Y-31763455D01*
X44124906Y-31737026D01*
X44287117Y-31628639D01*
X44335952Y-31579804D01*
X44444337Y-31417595D01*
X44444338Y-31417594D01*
X44470766Y-31353789D01*
X44508826Y-31162446D01*
X44508826Y-31145014D01*
X44512227Y-31127916D01*
X44512227Y-31060000D01*
X70383000Y-31060000D01*
X70499997Y-31648184D01*
X70833177Y-32146823D01*
X71331816Y-32480003D01*
X71920000Y-32597000D01*
X72508184Y-32480003D01*
X73006823Y-32146823D01*
X73340003Y-31648184D01*
X73457000Y-31060000D01*
X73340003Y-30471816D01*
X73006823Y-29973177D01*
X72508184Y-29639997D01*
X71920000Y-29523000D01*
X71331816Y-29639997D01*
X70833177Y-29973177D01*
X70499997Y-30471816D01*
X70383000Y-31060000D01*
X44512227Y-31060000D01*
X44512227Y-27104916D01*
X44635227Y-27104916D01*
X44652325Y-27101515D01*
X44669758Y-27101515D01*
X44861100Y-27063455D01*
X44861101Y-27063455D01*
X44924906Y-27037026D01*
X45087117Y-26928639D01*
X45135952Y-26879804D01*
X45244337Y-26717595D01*
X45244338Y-26717594D01*
X45270766Y-26653789D01*
X45308826Y-26462446D01*
X45308826Y-26445014D01*
X45312227Y-26427916D01*
X45312227Y-23227916D01*
X45308826Y-23210818D01*
X45308826Y-23193386D01*
X45270766Y-23002043D01*
X45244338Y-22938238D01*
X45244337Y-22938237D01*
X45135950Y-22776026D01*
X45087115Y-22727191D01*
X44924906Y-22618806D01*
X44861101Y-22592377D01*
X44861100Y-22592377D01*
X44669758Y-22554317D01*
X44652325Y-22554317D01*
X44635227Y-22550916D01*
X31335227Y-22550916D01*
X31318129Y-22554317D01*
X31300697Y-22554317D01*
X31109354Y-22592377D01*
X31109353Y-22592377D01*
X31084291Y-22602758D01*
X31045549Y-22618805D01*
X31045548Y-22618806D01*
X30883339Y-22727191D01*
X30834504Y-22776026D01*
X30726117Y-22938237D01*
X30726117Y-22938238D01*
X30699688Y-23002043D01*
X30661628Y-23193385D01*
X30661628Y-23210818D01*
X30658227Y-23227916D01*
X22662227Y-23227916D01*
X22662227Y-21277916D01*
X22658826Y-21260818D01*
X22658826Y-21243386D01*
X22620766Y-21052043D01*
X22594338Y-20988238D01*
X22594337Y-20988237D01*
X22485950Y-20826026D01*
X22437115Y-20777191D01*
X22274906Y-20668806D01*
X22211101Y-20642377D01*
X22211100Y-20642377D01*
X22019758Y-20604317D01*
X22002325Y-20604317D01*
X21985227Y-20600916D01*
X17435227Y-20600916D01*
X17418129Y-20604317D01*
X17400697Y-20604317D01*
X17209354Y-20642377D01*
X17209353Y-20642377D01*
X17184291Y-20652758D01*
X17145549Y-20668805D01*
X17145548Y-20668806D01*
X16983339Y-20777191D01*
X16934504Y-20826026D01*
X16826117Y-20988237D01*
X16826117Y-20988238D01*
X16799688Y-21052043D01*
X16761628Y-21243385D01*
X16761628Y-21260818D01*
X16758227Y-21277916D01*
X1127000Y-21277916D01*
X1127000Y-13002737D01*
X60969175Y-13002737D01*
X60984434Y-13080062D01*
X60984435Y-13080063D01*
X61468018Y-14252551D01*
X61468019Y-14252556D01*
X61473845Y-14261303D01*
X61511708Y-14318156D01*
X61511711Y-14318158D01*
X62407173Y-15216334D01*
X62407175Y-15216337D01*
X62433449Y-15233951D01*
X62472642Y-15260225D01*
X62472647Y-15260226D01*
X63643662Y-15747354D01*
X63643666Y-15747357D01*
X63720944Y-15762850D01*
X64989246Y-15764770D01*
X65066571Y-15749511D01*
X65066573Y-15749509D01*
X66239060Y-15265927D01*
X66239065Y-15265926D01*
X66278441Y-15239702D01*
X66304665Y-15222237D01*
X66304667Y-15222234D01*
X67202846Y-14326769D01*
X67202931Y-14326642D01*
X67203063Y-14326554D01*
X67224979Y-14293755D01*
X67246734Y-14261303D01*
X67246765Y-14261149D01*
X67246851Y-14261020D01*
X67254408Y-14223028D01*
X67262228Y-14184024D01*
X67262197Y-14183868D01*
X67262227Y-14183718D01*
X67262227Y-10563723D01*
X67262228Y-10563718D01*
X67246851Y-10486416D01*
X67203063Y-10420882D01*
X66313063Y-9530882D01*
X66280185Y-9508914D01*
X66247812Y-9487212D01*
X66247530Y-9487095D01*
X66247529Y-9487094D01*
X66247528Y-9487094D01*
X65076789Y-9000080D01*
X65076790Y-9000080D01*
X65076788Y-9000079D01*
X65015003Y-8987692D01*
X64999510Y-8984586D01*
X64999509Y-8984586D01*
X63731208Y-8982666D01*
X63653883Y-8997925D01*
X62481394Y-9481509D01*
X62481389Y-9481510D01*
X62415790Y-9525199D01*
X61517608Y-10420666D01*
X61473720Y-10486133D01*
X61473719Y-10486138D01*
X60986590Y-11657155D01*
X60986588Y-11657157D01*
X60971095Y-11734436D01*
X60969175Y-13002737D01*
X1127000Y-13002737D01*
X1127000Y-10120000D01*
X1116571Y-10067572D01*
X1086874Y-10023126D01*
X1042428Y-9993429D01*
X990000Y-9983000D01*
X313495Y-9983000D01*
X238648Y-9968112D01*
X186640Y-9933361D01*
X151888Y-9881352D01*
X137000Y-9806505D01*
X137000Y-3985000D01*
X2408000Y-3985000D01*
X2524997Y-4573184D01*
X2858177Y-5071823D01*
X3356816Y-5405003D01*
X3945000Y-5522000D01*
X4533184Y-5405003D01*
X5031823Y-5071823D01*
X5237651Y-4763779D01*
X11328357Y-4763779D01*
X11453995Y-5067846D01*
X11686430Y-5300688D01*
X11990278Y-5426856D01*
X12319279Y-5427143D01*
X12623346Y-5301505D01*
X12856188Y-5069070D01*
X12982356Y-4765222D01*
X12982357Y-4763779D01*
X14373857Y-4763779D01*
X14499495Y-5067846D01*
X14731930Y-5300688D01*
X15035778Y-5426856D01*
X15364779Y-5427143D01*
X15668846Y-5301505D01*
X15901688Y-5069070D01*
X16027856Y-4765222D01*
X16027857Y-4763779D01*
X17419357Y-4763779D01*
X17544995Y-5067846D01*
X17777430Y-5300688D01*
X18081278Y-5426856D01*
X18410279Y-5427143D01*
X18714346Y-5301505D01*
X18947188Y-5069070D01*
X19073356Y-4765222D01*
X19073357Y-4763779D01*
X20464857Y-4763779D01*
X20590495Y-5067846D01*
X20822930Y-5300688D01*
X21126778Y-5426856D01*
X21455779Y-5427143D01*
X21759846Y-5301505D01*
X21992688Y-5069070D01*
X22118856Y-4765222D01*
X22118857Y-4763779D01*
X23510357Y-4763779D01*
X23635995Y-5067846D01*
X23868430Y-5300688D01*
X24172278Y-5426856D01*
X24501279Y-5427143D01*
X24805346Y-5301505D01*
X25038188Y-5069070D01*
X25164356Y-4765222D01*
X25164357Y-4763779D01*
X26555857Y-4763779D01*
X26681495Y-5067846D01*
X26913930Y-5300688D01*
X27217778Y-5426856D01*
X27546779Y-5427143D01*
X27850846Y-5301505D01*
X28083688Y-5069070D01*
X28209856Y-4765222D01*
X28209857Y-4763779D01*
X29601357Y-4763779D01*
X29726995Y-5067846D01*
X29959430Y-5300688D01*
X30263278Y-5426856D01*
X30592279Y-5427143D01*
X30896346Y-5301505D01*
X31129188Y-5069070D01*
X31255356Y-4765222D01*
X31255357Y-4763779D01*
X32646857Y-4763779D01*
X32772495Y-5067846D01*
X33004930Y-5300688D01*
X33308778Y-5426856D01*
X33637779Y-5427143D01*
X33941846Y-5301505D01*
X34174688Y-5069070D01*
X34300856Y-4765222D01*
X34300857Y-4763779D01*
X35692357Y-4763779D01*
X35817995Y-5067846D01*
X36050430Y-5300688D01*
X36354278Y-5426856D01*
X36683279Y-5427143D01*
X36987346Y-5301505D01*
X37220188Y-5069070D01*
X37346356Y-4765222D01*
X37346357Y-4763779D01*
X38737857Y-4763779D01*
X38863495Y-5067846D01*
X39095930Y-5300688D01*
X39399778Y-5426856D01*
X39728779Y-5427143D01*
X40032846Y-5301505D01*
X40265688Y-5069070D01*
X40391856Y-4765222D01*
X40391857Y-4763779D01*
X41783357Y-4763779D01*
X41908995Y-5067846D01*
X42141430Y-5300688D01*
X42445278Y-5426856D01*
X42774279Y-5427143D01*
X43078346Y-5301505D01*
X43311188Y-5069070D01*
X43437356Y-4765222D01*
X43437357Y-4763779D01*
X44828857Y-4763779D01*
X44954495Y-5067846D01*
X45186930Y-5300688D01*
X45490778Y-5426856D01*
X45819779Y-5427143D01*
X46123846Y-5301505D01*
X46356688Y-5069070D01*
X46482856Y-4765222D01*
X46482857Y-4763779D01*
X47874357Y-4763779D01*
X47999995Y-5067846D01*
X48232430Y-5300688D01*
X48536278Y-5426856D01*
X48865279Y-5427143D01*
X49169346Y-5301505D01*
X49402188Y-5069070D01*
X49528356Y-4765222D01*
X49528357Y-4763779D01*
X50919857Y-4763779D01*
X51045495Y-5067846D01*
X51277930Y-5300688D01*
X51581778Y-5426856D01*
X51910779Y-5427143D01*
X52214846Y-5301505D01*
X52447688Y-5069070D01*
X52573856Y-4765222D01*
X52573857Y-4763779D01*
X53965357Y-4763779D01*
X54090995Y-5067846D01*
X54323430Y-5300688D01*
X54627278Y-5426856D01*
X54956279Y-5427143D01*
X55260346Y-5301505D01*
X55493188Y-5069070D01*
X55619356Y-4765222D01*
X55619357Y-4763779D01*
X57010857Y-4763779D01*
X57136495Y-5067846D01*
X57368930Y-5300688D01*
X57672778Y-5426856D01*
X58001779Y-5427143D01*
X58305846Y-5301505D01*
X58538688Y-5069070D01*
X58664856Y-4765222D01*
X58664857Y-4763779D01*
X60056357Y-4763779D01*
X60181995Y-5067846D01*
X60414430Y-5300688D01*
X60718278Y-5426856D01*
X61047279Y-5427143D01*
X61351346Y-5301505D01*
X61584188Y-5069070D01*
X61710356Y-4765222D01*
X61710357Y-4763779D01*
X63101857Y-4763779D01*
X63227495Y-5067846D01*
X63459930Y-5300688D01*
X63763778Y-5426856D01*
X64092779Y-5427143D01*
X64396846Y-5301505D01*
X64629688Y-5069070D01*
X64755856Y-4765222D01*
X64756143Y-4436221D01*
X64630505Y-4132154D01*
X64398070Y-3899312D01*
X64094222Y-3773144D01*
X63765221Y-3772857D01*
X63461154Y-3898495D01*
X63228312Y-4130930D01*
X63102144Y-4434778D01*
X63101857Y-4763779D01*
X61710357Y-4763779D01*
X61710643Y-4436221D01*
X61585005Y-4132154D01*
X61352570Y-3899312D01*
X61048722Y-3773144D01*
X60719721Y-3772857D01*
X60415654Y-3898495D01*
X60182812Y-4130930D01*
X60056644Y-4434778D01*
X60056357Y-4763779D01*
X58664857Y-4763779D01*
X58665143Y-4436221D01*
X58539505Y-4132154D01*
X58307070Y-3899312D01*
X58003222Y-3773144D01*
X57674221Y-3772857D01*
X57370154Y-3898495D01*
X57137312Y-4130930D01*
X57011144Y-4434778D01*
X57010857Y-4763779D01*
X55619357Y-4763779D01*
X55619643Y-4436221D01*
X55494005Y-4132154D01*
X55261570Y-3899312D01*
X54957722Y-3773144D01*
X54628721Y-3772857D01*
X54324654Y-3898495D01*
X54091812Y-4130930D01*
X53965644Y-4434778D01*
X53965357Y-4763779D01*
X52573857Y-4763779D01*
X52574143Y-4436221D01*
X52448505Y-4132154D01*
X52216070Y-3899312D01*
X51912222Y-3773144D01*
X51583221Y-3772857D01*
X51279154Y-3898495D01*
X51046312Y-4130930D01*
X50920144Y-4434778D01*
X50919857Y-4763779D01*
X49528357Y-4763779D01*
X49528643Y-4436221D01*
X49403005Y-4132154D01*
X49170570Y-3899312D01*
X48866722Y-3773144D01*
X48537721Y-3772857D01*
X48233654Y-3898495D01*
X48000812Y-4130930D01*
X47874644Y-4434778D01*
X47874357Y-4763779D01*
X46482857Y-4763779D01*
X46483143Y-4436221D01*
X46357505Y-4132154D01*
X46125070Y-3899312D01*
X45821222Y-3773144D01*
X45492221Y-3772857D01*
X45188154Y-3898495D01*
X44955312Y-4130930D01*
X44829144Y-4434778D01*
X44828857Y-4763779D01*
X43437357Y-4763779D01*
X43437643Y-4436221D01*
X43312005Y-4132154D01*
X43079570Y-3899312D01*
X42775722Y-3773144D01*
X42446721Y-3772857D01*
X42142654Y-3898495D01*
X41909812Y-4130930D01*
X41783644Y-4434778D01*
X41783357Y-4763779D01*
X40391857Y-4763779D01*
X40392143Y-4436221D01*
X40266505Y-4132154D01*
X40034070Y-3899312D01*
X39730222Y-3773144D01*
X39401221Y-3772857D01*
X39097154Y-3898495D01*
X38864312Y-4130930D01*
X38738144Y-4434778D01*
X38737857Y-4763779D01*
X37346357Y-4763779D01*
X37346643Y-4436221D01*
X37221005Y-4132154D01*
X36988570Y-3899312D01*
X36684722Y-3773144D01*
X36355721Y-3772857D01*
X36051654Y-3898495D01*
X35818812Y-4130930D01*
X35692644Y-4434778D01*
X35692357Y-4763779D01*
X34300857Y-4763779D01*
X34301143Y-4436221D01*
X34175505Y-4132154D01*
X33943070Y-3899312D01*
X33639222Y-3773144D01*
X33310221Y-3772857D01*
X33006154Y-3898495D01*
X32773312Y-4130930D01*
X32647144Y-4434778D01*
X32646857Y-4763779D01*
X31255357Y-4763779D01*
X31255643Y-4436221D01*
X31130005Y-4132154D01*
X30897570Y-3899312D01*
X30593722Y-3773144D01*
X30264721Y-3772857D01*
X29960654Y-3898495D01*
X29727812Y-4130930D01*
X29601644Y-4434778D01*
X29601357Y-4763779D01*
X28209857Y-4763779D01*
X28210143Y-4436221D01*
X28084505Y-4132154D01*
X27852070Y-3899312D01*
X27548222Y-3773144D01*
X27219221Y-3772857D01*
X26915154Y-3898495D01*
X26682312Y-4130930D01*
X26556144Y-4434778D01*
X26555857Y-4763779D01*
X25164357Y-4763779D01*
X25164643Y-4436221D01*
X25039005Y-4132154D01*
X24806570Y-3899312D01*
X24502722Y-3773144D01*
X24173721Y-3772857D01*
X23869654Y-3898495D01*
X23636812Y-4130930D01*
X23510644Y-4434778D01*
X23510357Y-4763779D01*
X22118857Y-4763779D01*
X22119143Y-4436221D01*
X21993505Y-4132154D01*
X21761070Y-3899312D01*
X21457222Y-3773144D01*
X21128221Y-3772857D01*
X20824154Y-3898495D01*
X20591312Y-4130930D01*
X20465144Y-4434778D01*
X20464857Y-4763779D01*
X19073357Y-4763779D01*
X19073643Y-4436221D01*
X18948005Y-4132154D01*
X18715570Y-3899312D01*
X18411722Y-3773144D01*
X18082721Y-3772857D01*
X17778654Y-3898495D01*
X17545812Y-4130930D01*
X17419644Y-4434778D01*
X17419357Y-4763779D01*
X16027857Y-4763779D01*
X16028143Y-4436221D01*
X15902505Y-4132154D01*
X15670070Y-3899312D01*
X15366222Y-3773144D01*
X15037221Y-3772857D01*
X14733154Y-3898495D01*
X14500312Y-4130930D01*
X14374144Y-4434778D01*
X14373857Y-4763779D01*
X12982357Y-4763779D01*
X12982643Y-4436221D01*
X12857005Y-4132154D01*
X12624570Y-3899312D01*
X12320722Y-3773144D01*
X11991721Y-3772857D01*
X11687654Y-3898495D01*
X11454812Y-4130930D01*
X11328644Y-4434778D01*
X11328357Y-4763779D01*
X5237651Y-4763779D01*
X5365003Y-4573184D01*
X5482000Y-3985000D01*
X5426062Y-3703779D01*
X9808357Y-3703779D01*
X9933995Y-4007846D01*
X10166430Y-4240688D01*
X10470278Y-4366856D01*
X10799279Y-4367143D01*
X11103346Y-4241505D01*
X11336188Y-4009070D01*
X11462356Y-3705222D01*
X11462357Y-3703779D01*
X12853857Y-3703779D01*
X12979495Y-4007846D01*
X13211930Y-4240688D01*
X13515778Y-4366856D01*
X13844779Y-4367143D01*
X14148846Y-4241505D01*
X14381688Y-4009070D01*
X14507856Y-3705222D01*
X14507857Y-3703779D01*
X15899357Y-3703779D01*
X16024995Y-4007846D01*
X16257430Y-4240688D01*
X16561278Y-4366856D01*
X16890279Y-4367143D01*
X17194346Y-4241505D01*
X17427188Y-4009070D01*
X17553356Y-3705222D01*
X17553357Y-3703779D01*
X18944857Y-3703779D01*
X19070495Y-4007846D01*
X19302930Y-4240688D01*
X19606778Y-4366856D01*
X19935779Y-4367143D01*
X20239846Y-4241505D01*
X20472688Y-4009070D01*
X20598856Y-3705222D01*
X20598857Y-3703779D01*
X21990357Y-3703779D01*
X22115995Y-4007846D01*
X22348430Y-4240688D01*
X22652278Y-4366856D01*
X22981279Y-4367143D01*
X23285346Y-4241505D01*
X23518188Y-4009070D01*
X23644356Y-3705222D01*
X23644357Y-3703779D01*
X25035857Y-3703779D01*
X25161495Y-4007846D01*
X25393930Y-4240688D01*
X25697778Y-4366856D01*
X26026779Y-4367143D01*
X26330846Y-4241505D01*
X26563688Y-4009070D01*
X26689856Y-3705222D01*
X26689857Y-3703779D01*
X28081357Y-3703779D01*
X28206995Y-4007846D01*
X28439430Y-4240688D01*
X28743278Y-4366856D01*
X29072279Y-4367143D01*
X29376346Y-4241505D01*
X29609188Y-4009070D01*
X29735356Y-3705222D01*
X29735357Y-3703779D01*
X31126857Y-3703779D01*
X31252495Y-4007846D01*
X31484930Y-4240688D01*
X31788778Y-4366856D01*
X32117779Y-4367143D01*
X32421846Y-4241505D01*
X32654688Y-4009070D01*
X32780856Y-3705222D01*
X32780857Y-3703779D01*
X34172357Y-3703779D01*
X34297995Y-4007846D01*
X34530430Y-4240688D01*
X34834278Y-4366856D01*
X35163279Y-4367143D01*
X35467346Y-4241505D01*
X35700188Y-4009070D01*
X35826356Y-3705222D01*
X35826357Y-3703779D01*
X37217857Y-3703779D01*
X37343495Y-4007846D01*
X37575930Y-4240688D01*
X37879778Y-4366856D01*
X38208779Y-4367143D01*
X38512846Y-4241505D01*
X38745688Y-4009070D01*
X38871856Y-3705222D01*
X38871857Y-3703779D01*
X40263357Y-3703779D01*
X40388995Y-4007846D01*
X40621430Y-4240688D01*
X40925278Y-4366856D01*
X41254279Y-4367143D01*
X41558346Y-4241505D01*
X41791188Y-4009070D01*
X41917356Y-3705222D01*
X41917357Y-3703779D01*
X43308857Y-3703779D01*
X43434495Y-4007846D01*
X43666930Y-4240688D01*
X43970778Y-4366856D01*
X44299779Y-4367143D01*
X44603846Y-4241505D01*
X44836688Y-4009070D01*
X44962856Y-3705222D01*
X44962857Y-3703779D01*
X46354357Y-3703779D01*
X46479995Y-4007846D01*
X46712430Y-4240688D01*
X47016278Y-4366856D01*
X47345279Y-4367143D01*
X47649346Y-4241505D01*
X47882188Y-4009070D01*
X48008356Y-3705222D01*
X48008357Y-3703779D01*
X49399857Y-3703779D01*
X49525495Y-4007846D01*
X49757930Y-4240688D01*
X50061778Y-4366856D01*
X50390779Y-4367143D01*
X50694846Y-4241505D01*
X50927688Y-4009070D01*
X51053856Y-3705222D01*
X51053857Y-3703779D01*
X52445357Y-3703779D01*
X52570995Y-4007846D01*
X52803430Y-4240688D01*
X53107278Y-4366856D01*
X53436279Y-4367143D01*
X53740346Y-4241505D01*
X53973188Y-4009070D01*
X54099356Y-3705222D01*
X54099357Y-3703779D01*
X55490857Y-3703779D01*
X55616495Y-4007846D01*
X55848930Y-4240688D01*
X56152778Y-4366856D01*
X56481779Y-4367143D01*
X56785846Y-4241505D01*
X57018688Y-4009070D01*
X57144856Y-3705222D01*
X57144857Y-3703779D01*
X58536357Y-3703779D01*
X58661995Y-4007846D01*
X58894430Y-4240688D01*
X59198278Y-4366856D01*
X59527279Y-4367143D01*
X59831346Y-4241505D01*
X60064188Y-4009070D01*
X60190356Y-3705222D01*
X60190357Y-3703779D01*
X61581857Y-3703779D01*
X61707495Y-4007846D01*
X61939930Y-4240688D01*
X62243778Y-4366856D01*
X62572779Y-4367143D01*
X62876846Y-4241505D01*
X63109688Y-4009070D01*
X63235856Y-3705222D01*
X63235857Y-3703779D01*
X64627357Y-3703779D01*
X64752995Y-4007846D01*
X64985430Y-4240688D01*
X65289278Y-4366856D01*
X65618279Y-4367143D01*
X65922346Y-4241505D01*
X66155188Y-4009070D01*
X66165182Y-3985000D01*
X70408000Y-3985000D01*
X70524997Y-4573184D01*
X70858177Y-5071823D01*
X71356816Y-5405003D01*
X71945000Y-5522000D01*
X72533184Y-5405003D01*
X73031823Y-5071823D01*
X73365003Y-4573184D01*
X73482000Y-3985000D01*
X73365003Y-3396816D01*
X73031823Y-2898177D01*
X72533184Y-2564997D01*
X71945000Y-2448000D01*
X71356816Y-2564997D01*
X70858177Y-2898177D01*
X70524997Y-3396816D01*
X70408000Y-3985000D01*
X66165182Y-3985000D01*
X66281356Y-3705222D01*
X66281643Y-3376221D01*
X66156005Y-3072154D01*
X65923570Y-2839312D01*
X65619722Y-2713144D01*
X65290721Y-2712857D01*
X64986654Y-2838495D01*
X64753812Y-3070930D01*
X64627644Y-3374778D01*
X64627357Y-3703779D01*
X63235857Y-3703779D01*
X63236143Y-3376221D01*
X63110505Y-3072154D01*
X62878070Y-2839312D01*
X62574222Y-2713144D01*
X62245221Y-2712857D01*
X61941154Y-2838495D01*
X61708312Y-3070930D01*
X61582144Y-3374778D01*
X61581857Y-3703779D01*
X60190357Y-3703779D01*
X60190643Y-3376221D01*
X60065005Y-3072154D01*
X59832570Y-2839312D01*
X59528722Y-2713144D01*
X59199721Y-2712857D01*
X58895654Y-2838495D01*
X58662812Y-3070930D01*
X58536644Y-3374778D01*
X58536357Y-3703779D01*
X57144857Y-3703779D01*
X57145143Y-3376221D01*
X57019505Y-3072154D01*
X56787070Y-2839312D01*
X56483222Y-2713144D01*
X56154221Y-2712857D01*
X55850154Y-2838495D01*
X55617312Y-3070930D01*
X55491144Y-3374778D01*
X55490857Y-3703779D01*
X54099357Y-3703779D01*
X54099643Y-3376221D01*
X53974005Y-3072154D01*
X53741570Y-2839312D01*
X53437722Y-2713144D01*
X53108721Y-2712857D01*
X52804654Y-2838495D01*
X52571812Y-3070930D01*
X52445644Y-3374778D01*
X52445357Y-3703779D01*
X51053857Y-3703779D01*
X51054143Y-3376221D01*
X50928505Y-3072154D01*
X50696070Y-2839312D01*
X50392222Y-2713144D01*
X50063221Y-2712857D01*
X49759154Y-2838495D01*
X49526312Y-3070930D01*
X49400144Y-3374778D01*
X49399857Y-3703779D01*
X48008357Y-3703779D01*
X48008643Y-3376221D01*
X47883005Y-3072154D01*
X47650570Y-2839312D01*
X47346722Y-2713144D01*
X47017721Y-2712857D01*
X46713654Y-2838495D01*
X46480812Y-3070930D01*
X46354644Y-3374778D01*
X46354357Y-3703779D01*
X44962857Y-3703779D01*
X44963143Y-3376221D01*
X44837505Y-3072154D01*
X44605070Y-2839312D01*
X44301222Y-2713144D01*
X43972221Y-2712857D01*
X43668154Y-2838495D01*
X43435312Y-3070930D01*
X43309144Y-3374778D01*
X43308857Y-3703779D01*
X41917357Y-3703779D01*
X41917643Y-3376221D01*
X41792005Y-3072154D01*
X41559570Y-2839312D01*
X41255722Y-2713144D01*
X40926721Y-2712857D01*
X40622654Y-2838495D01*
X40389812Y-3070930D01*
X40263644Y-3374778D01*
X40263357Y-3703779D01*
X38871857Y-3703779D01*
X38872143Y-3376221D01*
X38746505Y-3072154D01*
X38514070Y-2839312D01*
X38210222Y-2713144D01*
X37881221Y-2712857D01*
X37577154Y-2838495D01*
X37344312Y-3070930D01*
X37218144Y-3374778D01*
X37217857Y-3703779D01*
X35826357Y-3703779D01*
X35826643Y-3376221D01*
X35701005Y-3072154D01*
X35468570Y-2839312D01*
X35164722Y-2713144D01*
X34835721Y-2712857D01*
X34531654Y-2838495D01*
X34298812Y-3070930D01*
X34172644Y-3374778D01*
X34172357Y-3703779D01*
X32780857Y-3703779D01*
X32781143Y-3376221D01*
X32655505Y-3072154D01*
X32423070Y-2839312D01*
X32119222Y-2713144D01*
X31790221Y-2712857D01*
X31486154Y-2838495D01*
X31253312Y-3070930D01*
X31127144Y-3374778D01*
X31126857Y-3703779D01*
X29735357Y-3703779D01*
X29735643Y-3376221D01*
X29610005Y-3072154D01*
X29377570Y-2839312D01*
X29073722Y-2713144D01*
X28744721Y-2712857D01*
X28440654Y-2838495D01*
X28207812Y-3070930D01*
X28081644Y-3374778D01*
X28081357Y-3703779D01*
X26689857Y-3703779D01*
X26690143Y-3376221D01*
X26564505Y-3072154D01*
X26332070Y-2839312D01*
X26028222Y-2713144D01*
X25699221Y-2712857D01*
X25395154Y-2838495D01*
X25162312Y-3070930D01*
X25036144Y-3374778D01*
X25035857Y-3703779D01*
X23644357Y-3703779D01*
X23644643Y-3376221D01*
X23519005Y-3072154D01*
X23286570Y-2839312D01*
X22982722Y-2713144D01*
X22653721Y-2712857D01*
X22349654Y-2838495D01*
X22116812Y-3070930D01*
X21990644Y-3374778D01*
X21990357Y-3703779D01*
X20598857Y-3703779D01*
X20599143Y-3376221D01*
X20473505Y-3072154D01*
X20241070Y-2839312D01*
X19937222Y-2713144D01*
X19608221Y-2712857D01*
X19304154Y-2838495D01*
X19071312Y-3070930D01*
X18945144Y-3374778D01*
X18944857Y-3703779D01*
X17553357Y-3703779D01*
X17553643Y-3376221D01*
X17428005Y-3072154D01*
X17195570Y-2839312D01*
X16891722Y-2713144D01*
X16562721Y-2712857D01*
X16258654Y-2838495D01*
X16025812Y-3070930D01*
X15899644Y-3374778D01*
X15899357Y-3703779D01*
X14507857Y-3703779D01*
X14508143Y-3376221D01*
X14382505Y-3072154D01*
X14150070Y-2839312D01*
X13846222Y-2713144D01*
X13517221Y-2712857D01*
X13213154Y-2838495D01*
X12980312Y-3070930D01*
X12854144Y-3374778D01*
X12853857Y-3703779D01*
X11462357Y-3703779D01*
X11462643Y-3376221D01*
X11337005Y-3072154D01*
X11104570Y-2839312D01*
X10800722Y-2713144D01*
X10471721Y-2712857D01*
X10167654Y-2838495D01*
X9934812Y-3070930D01*
X9808644Y-3374778D01*
X9808357Y-3703779D01*
X5426062Y-3703779D01*
X5365003Y-3396816D01*
X5031823Y-2898177D01*
X4533184Y-2564997D01*
X3945000Y-2448000D01*
X3356816Y-2564997D01*
X2858177Y-2898177D01*
X2524997Y-3396816D01*
X2408000Y-3985000D01*
X137000Y-3985000D01*
X137000Y-2013496D01*
X281292Y-1288089D01*
X684557Y-684558D01*
X1288085Y-281293D01*
X2013494Y-137000D01*
X73976505Y-137000D01*
X74701912Y-281292D01*
M02*
