M48
;DRILL file {KiCad (2016-09-17 revision 679eef1)-makepkg} date 09/25/16 18:07:23
;FORMAT={2:4/ absolute / inch / keep zeros}
FMAT,2
INCH,TZ
T1C0.018
T2C0.039
%
G90
G05
M72
T1
X023823Y-004872
X024026Y-004114
X024026Y-005629
X024581Y-003559
X024581Y-006184
X025339Y-003356
X025339Y-006387
X026097Y-003559
X026097Y-006184
X026651Y-004114
X026651Y-005629
X026854Y-004872
T2
X004187Y-001394
X004786Y-001811
X005386Y-001394
X005985Y-001811
X006585Y-001394
X007184Y-001811
X007784Y-001394
X008383Y-001811
X008983Y-001394
X009582Y-001811
X010182Y-001394
X010781Y-001811
X011381Y-001394
X011980Y-001811
X012580Y-001394
X013179Y-001811
X013779Y-001394
X014378Y-001811
X014978Y-001394
X015577Y-001811
X016177Y-001394
X016776Y-001811
X017376Y-001394
X017975Y-001811
X018575Y-001394
X019174Y-001811
X019774Y-001394
X020373Y-001811
X020973Y-001394
X021572Y-001811
X022172Y-001394
X022771Y-001811
X023371Y-001394
X023970Y-001811
X024570Y-001394
X025169Y-001811
X025769Y-001394
T0
M30
