G04 #@! TF.FileFunction,Soldermask,Bot*
%FSLAX46Y46*%
G04 Gerber Fmt 4.6, Leading zero omitted, Abs format (unit mm)*
G04 Created by KiCad (PCBNEW (2016-09-17 revision 679eef1)-makepkg) date 09/24/16 16:37:27*
%MOMM*%
%LPD*%
G01*
G04 APERTURE LIST*
%ADD10C,0.150000*%
%ADD11C,0.800000*%
%ADD12C,3.000000*%
%ADD13C,0.700000*%
%ADD14C,1.350000*%
%ADD15C,1.000000*%
G04 APERTURE END LIST*
D10*
D11*
X73750000Y-3980000D02*
G75*
G03X73750000Y-3980000I-1800000J0D01*
G01*
X73730000Y-31060000D02*
G75*
G03X73730000Y-31060000I-1800000J0D01*
G01*
X5740000Y-31030000D02*
G75*
G03X5740000Y-31030000I-1800000J0D01*
G01*
X5750000Y-3990000D02*
G75*
G03X5750000Y-3990000I-1800000J0D01*
G01*
D12*
X67020227Y-12373718D02*
G75*
G03X67020227Y-12373718I-2660000J0D01*
G01*
D13*
X67290227Y-10533718D02*
X67290227Y-14223718D01*
D14*
X68190227Y-12373718D02*
G75*
G03X68190227Y-12373718I-3830000J0D01*
G01*
D15*
X18246500Y-4600000D03*
X21292000Y-4600000D03*
X12155500Y-4600000D03*
X27383000Y-4600000D03*
X15201000Y-4600000D03*
X24337500Y-4600000D03*
X48701500Y-4600000D03*
X33474000Y-4600000D03*
X36519500Y-4600000D03*
X42610500Y-4600000D03*
X45656000Y-4600000D03*
X39565000Y-4600000D03*
X30428500Y-4600000D03*
X63929000Y-4600000D03*
X54792500Y-4600000D03*
X57838000Y-4600000D03*
X60883500Y-4600000D03*
X51747000Y-4600000D03*
X65454500Y-3540000D03*
X62409000Y-3540000D03*
X59363500Y-3540000D03*
X56318000Y-3540000D03*
X53272500Y-3540000D03*
X50227000Y-3540000D03*
X47181500Y-3540000D03*
X44136000Y-3540000D03*
X41090500Y-3540000D03*
X38045000Y-3540000D03*
X34999500Y-3540000D03*
X31954000Y-3540000D03*
X28908500Y-3540000D03*
X25863000Y-3540000D03*
X22817500Y-3540000D03*
X19772000Y-3540000D03*
X16726500Y-3540000D03*
X13681000Y-3540000D03*
X10635500Y-3540000D03*
M02*
