G04 #@! TF.FileFunction,Profile,NP*
%FSLAX46Y46*%
G04 Gerber Fmt 4.6, Leading zero omitted, Abs format (unit mm)*
G04 Created by KiCad (PCBNEW (2016-09-17 revision 679eef1)-makepkg) date 09/25/16 18:07:17*
%MOMM*%
%LPD*%
G01*
G04 APERTURE LIST*
%ADD10C,0.150000*%
%ADD11C,0.100000*%
%ADD12C,0.020000*%
G04 APERTURE END LIST*
D10*
D11*
X43635227Y-31327916D02*
X32435227Y-31327916D01*
X43635227Y-31327916D02*
G75*
G03X44135227Y-30827916I0J500000D01*
G01*
X44135227Y-26707916D02*
X44135227Y-30827916D01*
X17585227Y-28627916D02*
X21935227Y-28627916D01*
X21935227Y-28627916D02*
G75*
G03X22435227Y-28127916I0J500000D01*
G01*
X22435227Y-21427916D02*
X22435227Y-28127916D01*
X22435227Y-21427916D02*
G75*
G03X21935227Y-20927916I-500000J0D01*
G01*
X21935227Y-20927916D02*
X17585227Y-20927916D01*
X17585227Y-20927916D02*
G75*
G03X17085227Y-21427916I0J-500000D01*
G01*
X17085227Y-21427916D02*
X17085227Y-28127916D01*
X17085227Y-28127916D02*
G75*
G03X17585227Y-28627916I500000J0D01*
G01*
X31935227Y-30827916D02*
G75*
G03X32435227Y-31327916I500000J0D01*
G01*
X31935227Y-26707916D02*
X31935227Y-30827916D01*
X44135227Y-26707916D02*
X44485227Y-26707916D01*
X31935227Y-26707916D02*
X31435227Y-26707916D01*
X44485227Y-26707916D02*
G75*
G03X44985227Y-26207916I0J500000D01*
G01*
X44985227Y-23427916D02*
X44985227Y-26207916D01*
X30935227Y-26207916D02*
G75*
G03X31435227Y-26707916I500000J0D01*
G01*
X30935227Y-23427916D02*
X30935227Y-26207916D01*
X31435227Y-22927916D02*
G75*
G03X30935227Y-23427916I0J-500000D01*
G01*
X44485227Y-22927916D02*
X31435227Y-22927916D01*
X44985227Y-23427916D02*
G75*
G03X44485227Y-22927916I-500000J0D01*
G01*
D12*
X0Y-33000000D02*
G75*
G03X2000000Y-35000000I2000000J0D01*
G01*
X75990000Y-2000000D02*
G75*
G03X73990000Y0I-2000000J0D01*
G01*
X1999999Y0D02*
G75*
G03X0Y-2000001I1J-2000000D01*
G01*
X5345000Y-3985000D02*
G75*
G03X5345000Y-3985000I-1400000J0D01*
G01*
X5345000Y-31035000D02*
G75*
G03X5345000Y-31035000I-1400000J0D01*
G01*
X73320000Y-31060000D02*
G75*
G03X73320000Y-31060000I-1400000J0D01*
G01*
X75990000Y-25160000D02*
G75*
G03X75690000Y-24860000I-300000J0D01*
G01*
X75690000Y-10020000D02*
G75*
G03X75990000Y-9720000I0J300000D01*
G01*
X0Y-9820000D02*
G75*
G03X300000Y-10120000I300000J0D01*
G01*
X300000Y-24960000D02*
G75*
G03X0Y-25260000I0J-300000D01*
G01*
X0Y-2000000D02*
X0Y-9820000D01*
X0Y-25260000D02*
X0Y-33000000D01*
X75990000Y-25160000D02*
X75990000Y-32500000D01*
X75990000Y-2000000D02*
X75990000Y-9720000D01*
X74999999Y-10020000D02*
X75690000Y-10020000D01*
X75000000Y-24860000D02*
X74999999Y-10020000D01*
X75000000Y-24860000D02*
X75690000Y-24860000D01*
X990000Y-10120000D02*
X990000Y-24960000D01*
X990000Y-10120000D02*
X300000Y-10120000D01*
X990000Y-24960000D02*
X300000Y-24960000D01*
X73345000Y-3985000D02*
G75*
G03X73345000Y-3985000I-1400000J0D01*
G01*
X75990000Y-32500000D02*
G75*
G02X73500000Y-34990000I-2490000J0D01*
G01*
X73500000Y-34990000D02*
X2000000Y-35000000D01*
X2000000Y0D02*
X73990000Y0D01*
D10*
X67060227Y-14183718D02*
G75*
G02X67060227Y-10563718I-2700000J1810000D01*
G01*
X67060227Y-10563718D02*
X67060227Y-14183718D01*
M02*
