G04 #@! TF.FileFunction,Soldermask,Top*
%FSLAX46Y46*%
G04 Gerber Fmt 4.6, Leading zero omitted, Abs format (unit mm)*
G04 Created by KiCad (PCBNEW (2016-09-17 revision 679eef1)-makepkg) date 09/24/16 16:37:27*
%MOMM*%
%LPD*%
G01*
G04 APERTURE LIST*
%ADD10C,0.150000*%
%ADD11C,0.100000*%
%ADD12C,0.700000*%
%ADD13C,1.350000*%
%ADD14C,3.000000*%
%ADD15C,1.000000*%
%ADD16C,0.254000*%
G04 APERTURE END LIST*
D10*
D11*
X70431904Y-26750476D02*
X70393809Y-26826666D01*
X70317619Y-26864761D01*
X69631904Y-26864761D01*
X69898571Y-26102857D02*
X70431904Y-26102857D01*
X69898571Y-26445714D02*
X70317619Y-26445714D01*
X70393809Y-26407619D01*
X70431904Y-26331428D01*
X70431904Y-26217142D01*
X70393809Y-26140952D01*
X70355714Y-26102857D01*
X69898571Y-25836190D02*
X69898571Y-25531428D01*
X70431904Y-25721904D02*
X69746190Y-25721904D01*
X69670000Y-25683809D01*
X69631904Y-25607619D01*
X69631904Y-25531428D01*
X69898571Y-25379047D02*
X69898571Y-25074285D01*
X69631904Y-25264761D02*
X70317619Y-25264761D01*
X70393809Y-25226666D01*
X70431904Y-25150476D01*
X70431904Y-25074285D01*
X70393809Y-24502857D02*
X70431904Y-24579047D01*
X70431904Y-24731428D01*
X70393809Y-24807619D01*
X70317619Y-24845714D01*
X70012857Y-24845714D01*
X69936666Y-24807619D01*
X69898571Y-24731428D01*
X69898571Y-24579047D01*
X69936666Y-24502857D01*
X70012857Y-24464761D01*
X70089047Y-24464761D01*
X70165238Y-24845714D01*
X70431904Y-24121904D02*
X69631904Y-24121904D01*
X70127142Y-24045714D02*
X70431904Y-23817142D01*
X69898571Y-23817142D02*
X70203333Y-24121904D01*
D10*
X69668095Y-23140119D02*
X69630000Y-23102023D01*
X69591904Y-23025833D01*
X69591904Y-22835357D01*
X69630000Y-22759166D01*
X69668095Y-22721071D01*
X69744285Y-22682976D01*
X69820476Y-22682976D01*
X69934761Y-22721071D01*
X70391904Y-23178214D01*
X70391904Y-22682976D01*
X69591904Y-22187738D02*
X69591904Y-22111547D01*
X69630000Y-22035357D01*
X69668095Y-21997261D01*
X69744285Y-21959166D01*
X69896666Y-21921071D01*
X70087142Y-21921071D01*
X70239523Y-21959166D01*
X70315714Y-21997261D01*
X70353809Y-22035357D01*
X70391904Y-22111547D01*
X70391904Y-22187738D01*
X70353809Y-22263928D01*
X70315714Y-22302023D01*
X70239523Y-22340119D01*
X70087142Y-22378214D01*
X69896666Y-22378214D01*
X69744285Y-22340119D01*
X69668095Y-22302023D01*
X69630000Y-22263928D01*
X69591904Y-22187738D01*
X70391904Y-21159166D02*
X70391904Y-21616309D01*
X70391904Y-21387738D02*
X69591904Y-21387738D01*
X69706190Y-21463928D01*
X69782380Y-21540119D01*
X69820476Y-21616309D01*
X69591904Y-20473452D02*
X69591904Y-20625833D01*
X69630000Y-20702023D01*
X69668095Y-20740119D01*
X69782380Y-20816309D01*
X69934761Y-20854404D01*
X70239523Y-20854404D01*
X70315714Y-20816309D01*
X70353809Y-20778214D01*
X70391904Y-20702023D01*
X70391904Y-20549642D01*
X70353809Y-20473452D01*
X70315714Y-20435357D01*
X70239523Y-20397261D01*
X70049047Y-20397261D01*
X69972857Y-20435357D01*
X69934761Y-20473452D01*
X69896666Y-20549642D01*
X69896666Y-20702023D01*
X69934761Y-20778214D01*
X69972857Y-20816309D01*
X70049047Y-20854404D01*
X69591904Y-19902023D02*
X69591904Y-19825833D01*
X69630000Y-19749642D01*
X69668095Y-19711547D01*
X69744285Y-19673452D01*
X69896666Y-19635357D01*
X70087142Y-19635357D01*
X70239523Y-19673452D01*
X70315714Y-19711547D01*
X70353809Y-19749642D01*
X70391904Y-19825833D01*
X70391904Y-19902023D01*
X70353809Y-19978214D01*
X70315714Y-20016309D01*
X70239523Y-20054404D01*
X70087142Y-20092500D01*
X69896666Y-20092500D01*
X69744285Y-20054404D01*
X69668095Y-20016309D01*
X69630000Y-19978214D01*
X69591904Y-19902023D01*
X70391904Y-19254404D02*
X70391904Y-19102023D01*
X70353809Y-19025833D01*
X70315714Y-18987738D01*
X70201428Y-18911547D01*
X70049047Y-18873452D01*
X69744285Y-18873452D01*
X69668095Y-18911547D01*
X69630000Y-18949642D01*
X69591904Y-19025833D01*
X69591904Y-19178214D01*
X69630000Y-19254404D01*
X69668095Y-19292500D01*
X69744285Y-19330595D01*
X69934761Y-19330595D01*
X70010952Y-19292500D01*
X70049047Y-19254404D01*
X70087142Y-19178214D01*
X70087142Y-19025833D01*
X70049047Y-18949642D01*
X70010952Y-18911547D01*
X69934761Y-18873452D01*
X69668095Y-18568690D02*
X69630000Y-18530595D01*
X69591904Y-18454404D01*
X69591904Y-18263928D01*
X69630000Y-18187738D01*
X69668095Y-18149642D01*
X69744285Y-18111547D01*
X69820476Y-18111547D01*
X69934761Y-18149642D01*
X70391904Y-18606785D01*
X70391904Y-18111547D01*
X69858571Y-17425833D02*
X70391904Y-17425833D01*
X69553809Y-17616309D02*
X70125238Y-17806785D01*
X70125238Y-17311547D01*
D11*
X56038571Y-31631904D02*
X56571904Y-31631904D01*
X56229047Y-32431904D01*
X57219523Y-31631904D02*
X57067142Y-31631904D01*
X56990952Y-31670000D01*
X56952857Y-31708095D01*
X56876666Y-31822380D01*
X56838571Y-31974761D01*
X56838571Y-32279523D01*
X56876666Y-32355714D01*
X56914761Y-32393809D01*
X56990952Y-32431904D01*
X57143333Y-32431904D01*
X57219523Y-32393809D01*
X57257619Y-32355714D01*
X57295714Y-32279523D01*
X57295714Y-32089047D01*
X57257619Y-32012857D01*
X57219523Y-31974761D01*
X57143333Y-31936666D01*
X56990952Y-31936666D01*
X56914761Y-31974761D01*
X56876666Y-32012857D01*
X56838571Y-32089047D01*
X57562380Y-32431904D02*
X57981428Y-31898571D01*
X57562380Y-31898571D02*
X57981428Y-32431904D01*
X58210000Y-31631904D02*
X58705238Y-31631904D01*
X58438571Y-31936666D01*
X58552857Y-31936666D01*
X58629047Y-31974761D01*
X58667142Y-32012857D01*
X58705238Y-32089047D01*
X58705238Y-32279523D01*
X58667142Y-32355714D01*
X58629047Y-32393809D01*
X58552857Y-32431904D01*
X58324285Y-32431904D01*
X58248095Y-32393809D01*
X58210000Y-32355714D01*
X59429047Y-31631904D02*
X59048095Y-31631904D01*
X59010000Y-32012857D01*
X59048095Y-31974761D01*
X59124285Y-31936666D01*
X59314761Y-31936666D01*
X59390952Y-31974761D01*
X59429047Y-32012857D01*
X59467142Y-32089047D01*
X59467142Y-32279523D01*
X59429047Y-32355714D01*
X59390952Y-32393809D01*
X59314761Y-32431904D01*
X59124285Y-32431904D01*
X59048095Y-32393809D01*
X59010000Y-32355714D01*
X59733809Y-32431904D02*
X60152857Y-31898571D01*
X59733809Y-31898571D02*
X60152857Y-32431904D01*
X60876666Y-32431904D02*
X60419523Y-32431904D01*
X60648095Y-32431904D02*
X60648095Y-31631904D01*
X60571904Y-31746190D01*
X60495714Y-31822380D01*
X60419523Y-31860476D01*
X61371904Y-31631904D02*
X61448095Y-31631904D01*
X61524285Y-31670000D01*
X61562380Y-31708095D01*
X61600476Y-31784285D01*
X61638571Y-31936666D01*
X61638571Y-32127142D01*
X61600476Y-32279523D01*
X61562380Y-32355714D01*
X61524285Y-32393809D01*
X61448095Y-32431904D01*
X61371904Y-32431904D01*
X61295714Y-32393809D01*
X61257619Y-32355714D01*
X61219523Y-32279523D01*
X61181428Y-32127142D01*
X61181428Y-31936666D01*
X61219523Y-31784285D01*
X61257619Y-31708095D01*
X61295714Y-31670000D01*
X61371904Y-31631904D01*
X62133809Y-31631904D02*
X62210000Y-31631904D01*
X62286190Y-31670000D01*
X62324285Y-31708095D01*
X62362380Y-31784285D01*
X62400476Y-31936666D01*
X62400476Y-32127142D01*
X62362380Y-32279523D01*
X62324285Y-32355714D01*
X62286190Y-32393809D01*
X62210000Y-32431904D01*
X62133809Y-32431904D01*
X62057619Y-32393809D01*
X62019523Y-32355714D01*
X61981428Y-32279523D01*
X61943333Y-32127142D01*
X61943333Y-31936666D01*
X61981428Y-31784285D01*
X62019523Y-31708095D01*
X62057619Y-31670000D01*
X62133809Y-31631904D01*
X63314761Y-32393809D02*
X63390952Y-32431904D01*
X63543333Y-32431904D01*
X63619523Y-32393809D01*
X63657619Y-32317619D01*
X63657619Y-32279523D01*
X63619523Y-32203333D01*
X63543333Y-32165238D01*
X63429047Y-32165238D01*
X63352857Y-32127142D01*
X63314761Y-32050952D01*
X63314761Y-32012857D01*
X63352857Y-31936666D01*
X63429047Y-31898571D01*
X63543333Y-31898571D01*
X63619523Y-31936666D01*
X64000476Y-31898571D02*
X64000476Y-32698571D01*
X64000476Y-31936666D02*
X64076666Y-31898571D01*
X64229047Y-31898571D01*
X64305238Y-31936666D01*
X64343333Y-31974761D01*
X64381428Y-32050952D01*
X64381428Y-32279523D01*
X64343333Y-32355714D01*
X64305238Y-32393809D01*
X64229047Y-32431904D01*
X64076666Y-32431904D01*
X64000476Y-32393809D01*
X64838571Y-32431904D02*
X64762380Y-32393809D01*
X64724285Y-32317619D01*
X64724285Y-31631904D01*
X65143333Y-32431904D02*
X65143333Y-31898571D01*
X65143333Y-31631904D02*
X65105238Y-31670000D01*
X65143333Y-31708095D01*
X65181428Y-31670000D01*
X65143333Y-31631904D01*
X65143333Y-31708095D01*
X65410000Y-31898571D02*
X65714761Y-31898571D01*
X65524285Y-31631904D02*
X65524285Y-32317619D01*
X65562380Y-32393809D01*
X65638571Y-32431904D01*
X65714761Y-32431904D01*
X66552857Y-32393809D02*
X66629047Y-32431904D01*
X66781428Y-32431904D01*
X66857619Y-32393809D01*
X66895714Y-32317619D01*
X66895714Y-32279523D01*
X66857619Y-32203333D01*
X66781428Y-32165238D01*
X66667142Y-32165238D01*
X66590952Y-32127142D01*
X66552857Y-32050952D01*
X66552857Y-32012857D01*
X66590952Y-31936666D01*
X66667142Y-31898571D01*
X66781428Y-31898571D01*
X66857619Y-31936666D01*
X67238571Y-32431904D02*
X67238571Y-31631904D01*
X67581428Y-32431904D02*
X67581428Y-32012857D01*
X67543333Y-31936666D01*
X67467142Y-31898571D01*
X67352857Y-31898571D01*
X67276666Y-31936666D01*
X67238571Y-31974761D01*
X68267142Y-32393809D02*
X68190952Y-32431904D01*
X68038571Y-32431904D01*
X67962380Y-32393809D01*
X67924285Y-32317619D01*
X67924285Y-32012857D01*
X67962380Y-31936666D01*
X68038571Y-31898571D01*
X68190952Y-31898571D01*
X68267142Y-31936666D01*
X68305238Y-32012857D01*
X68305238Y-32089047D01*
X67924285Y-32165238D01*
X68762380Y-32431904D02*
X68686190Y-32393809D01*
X68648095Y-32317619D01*
X68648095Y-31631904D01*
X69181428Y-32431904D02*
X69105238Y-32393809D01*
X69067142Y-32317619D01*
X69067142Y-31631904D01*
D12*
X67280227Y-10393718D02*
X67280227Y-14363718D01*
D13*
X68190227Y-12373718D02*
G75*
G03X68190227Y-12373718I-3830000J0D01*
G01*
D14*
X67020227Y-12373718D02*
G75*
G03X67020227Y-12373718I-2660000J0D01*
G01*
D15*
X18246500Y-4600000D03*
X21292000Y-4600000D03*
X12155500Y-4600000D03*
X27383000Y-4600000D03*
X15201000Y-4600000D03*
X24337500Y-4600000D03*
X48701500Y-4600000D03*
X33474000Y-4600000D03*
X36519500Y-4600000D03*
X42610500Y-4600000D03*
X45656000Y-4600000D03*
X39565000Y-4600000D03*
X30428500Y-4600000D03*
X63929000Y-4600000D03*
X54792500Y-4600000D03*
X57838000Y-4600000D03*
X60883500Y-4600000D03*
X51747000Y-4600000D03*
X65454500Y-3540000D03*
X62409000Y-3540000D03*
X59363500Y-3540000D03*
X56318000Y-3540000D03*
X53272500Y-3540000D03*
X50227000Y-3540000D03*
X47181500Y-3540000D03*
X44136000Y-3540000D03*
X41090500Y-3540000D03*
X38045000Y-3540000D03*
X34999500Y-3540000D03*
X31954000Y-3540000D03*
X28908500Y-3540000D03*
X25863000Y-3540000D03*
X22817500Y-3540000D03*
X19772000Y-3540000D03*
X16726500Y-3540000D03*
X13681000Y-3540000D03*
X10635500Y-3540000D03*
D10*
G36*
X31681762Y-26940578D02*
X31693411Y-26942306D01*
X31704834Y-26945167D01*
X31715922Y-26949134D01*
X31726568Y-26954169D01*
X31736668Y-26960224D01*
X31746127Y-26967239D01*
X31754853Y-26975147D01*
X31762761Y-26983873D01*
X31769776Y-26993332D01*
X31775831Y-27003432D01*
X31780866Y-27014078D01*
X31784833Y-27025166D01*
X31787694Y-27036589D01*
X31789422Y-27048238D01*
X31790000Y-27060000D01*
X31790000Y-28020000D01*
X31789422Y-28031762D01*
X31787694Y-28043411D01*
X31784833Y-28054834D01*
X31780866Y-28065922D01*
X31775831Y-28076568D01*
X31769776Y-28086668D01*
X31762761Y-28096127D01*
X31754853Y-28104853D01*
X31746127Y-28112761D01*
X31736668Y-28119776D01*
X31726568Y-28125831D01*
X31715922Y-28130866D01*
X31704834Y-28134833D01*
X31693411Y-28137694D01*
X31681762Y-28139422D01*
X31670000Y-28140000D01*
X30710000Y-28140000D01*
X30698238Y-28139422D01*
X30686589Y-28137694D01*
X30675166Y-28134833D01*
X30664078Y-28130866D01*
X30653432Y-28125831D01*
X30643332Y-28119776D01*
X30633873Y-28112761D01*
X30625147Y-28104853D01*
X30617239Y-28096127D01*
X30610224Y-28086668D01*
X30604169Y-28076568D01*
X30599134Y-28065922D01*
X30595167Y-28054834D01*
X30592306Y-28043411D01*
X30590578Y-28031762D01*
X30590000Y-28020000D01*
X30590000Y-27060000D01*
X30590578Y-27048238D01*
X30592306Y-27036589D01*
X30595167Y-27025166D01*
X30599134Y-27014078D01*
X30604169Y-27003432D01*
X30610224Y-26993332D01*
X30617239Y-26983873D01*
X30625147Y-26975147D01*
X30633873Y-26967239D01*
X30643332Y-26960224D01*
X30653432Y-26954169D01*
X30664078Y-26949134D01*
X30675166Y-26945167D01*
X30686589Y-26942306D01*
X30698238Y-26940578D01*
X30710000Y-26940000D01*
X31670000Y-26940000D01*
X31681762Y-26940578D01*
X31681762Y-26940578D01*
G37*
G36*
X45421762Y-26910578D02*
X45433411Y-26912306D01*
X45444834Y-26915167D01*
X45455922Y-26919134D01*
X45466568Y-26924169D01*
X45476668Y-26930224D01*
X45486127Y-26937239D01*
X45494853Y-26945147D01*
X45502761Y-26953873D01*
X45509776Y-26963332D01*
X45515831Y-26973432D01*
X45520866Y-26984078D01*
X45524833Y-26995166D01*
X45527694Y-27006589D01*
X45529422Y-27018238D01*
X45530000Y-27030000D01*
X45530000Y-27990000D01*
X45529422Y-28001762D01*
X45527694Y-28013411D01*
X45524833Y-28024834D01*
X45520866Y-28035922D01*
X45515831Y-28046568D01*
X45509776Y-28056668D01*
X45502761Y-28066127D01*
X45494853Y-28074853D01*
X45486127Y-28082761D01*
X45476668Y-28089776D01*
X45466568Y-28095831D01*
X45455922Y-28100866D01*
X45444834Y-28104833D01*
X45433411Y-28107694D01*
X45421762Y-28109422D01*
X45410000Y-28110000D01*
X44450000Y-28110000D01*
X44438238Y-28109422D01*
X44426589Y-28107694D01*
X44415166Y-28104833D01*
X44404078Y-28100866D01*
X44393432Y-28095831D01*
X44383332Y-28089776D01*
X44373873Y-28082761D01*
X44365147Y-28074853D01*
X44357239Y-28066127D01*
X44350224Y-28056668D01*
X44344169Y-28046568D01*
X44339134Y-28035922D01*
X44335167Y-28024834D01*
X44332306Y-28013411D01*
X44330578Y-28001762D01*
X44330000Y-27990000D01*
X44330000Y-27030000D01*
X44330578Y-27018238D01*
X44332306Y-27006589D01*
X44335167Y-26995166D01*
X44339134Y-26984078D01*
X44344169Y-26973432D01*
X44350224Y-26963332D01*
X44357239Y-26953873D01*
X44365147Y-26945147D01*
X44373873Y-26937239D01*
X44383332Y-26930224D01*
X44393432Y-26924169D01*
X44404078Y-26919134D01*
X44415166Y-26915167D01*
X44426589Y-26912306D01*
X44438238Y-26910578D01*
X44450000Y-26910000D01*
X45410000Y-26910000D01*
X45421762Y-26910578D01*
X45421762Y-26910578D01*
G37*
G36*
X39105881Y-31600289D02*
X39111705Y-31601153D01*
X39117417Y-31602584D01*
X39122961Y-31604567D01*
X39128284Y-31607085D01*
X39133334Y-31610112D01*
X39138064Y-31613619D01*
X39142426Y-31617574D01*
X39146381Y-31621936D01*
X39149888Y-31626666D01*
X39152915Y-31631716D01*
X39155433Y-31637039D01*
X39157416Y-31642583D01*
X39158847Y-31648295D01*
X39159711Y-31654119D01*
X39160000Y-31660000D01*
X39160000Y-32140000D01*
X39159711Y-32145881D01*
X39158847Y-32151705D01*
X39157416Y-32157417D01*
X39155433Y-32162961D01*
X39152915Y-32168284D01*
X39149888Y-32173334D01*
X39146381Y-32178064D01*
X39142426Y-32182426D01*
X39138064Y-32186381D01*
X39133334Y-32189888D01*
X39128284Y-32192915D01*
X39122961Y-32195433D01*
X39117417Y-32197416D01*
X39111705Y-32198847D01*
X39105881Y-32199711D01*
X39100000Y-32200000D01*
X37020000Y-32200000D01*
X37014119Y-32199711D01*
X37008295Y-32198847D01*
X37002583Y-32197416D01*
X36997039Y-32195433D01*
X36991716Y-32192915D01*
X36986666Y-32189888D01*
X36981936Y-32186381D01*
X36977574Y-32182426D01*
X36973619Y-32178064D01*
X36970112Y-32173334D01*
X36967085Y-32168284D01*
X36964567Y-32162961D01*
X36962584Y-32157417D01*
X36961153Y-32151705D01*
X36960289Y-32145881D01*
X36960000Y-32140000D01*
X36960000Y-31660000D01*
X36960289Y-31654119D01*
X36961153Y-31648295D01*
X36962584Y-31642583D01*
X36964567Y-31637039D01*
X36967085Y-31631716D01*
X36970112Y-31626666D01*
X36973619Y-31621936D01*
X36977574Y-31617574D01*
X36981936Y-31613619D01*
X36986666Y-31610112D01*
X36991716Y-31607085D01*
X36997039Y-31604567D01*
X37002583Y-31602584D01*
X37008295Y-31601153D01*
X37014119Y-31600289D01*
X37020000Y-31600000D01*
X39100000Y-31600000D01*
X39105881Y-31600289D01*
X39105881Y-31600289D01*
G37*
G36*
X30781762Y-23780578D02*
X30793411Y-23782306D01*
X30804834Y-23785167D01*
X30815922Y-23789134D01*
X30826568Y-23794169D01*
X30836668Y-23800224D01*
X30846127Y-23807239D01*
X30854853Y-23815147D01*
X30862761Y-23823873D01*
X30869776Y-23833332D01*
X30875831Y-23843432D01*
X30880866Y-23854078D01*
X30884833Y-23865166D01*
X30887694Y-23876589D01*
X30889422Y-23888238D01*
X30890000Y-23900000D01*
X30890000Y-25860000D01*
X30889422Y-25871762D01*
X30887694Y-25883411D01*
X30884833Y-25894834D01*
X30880866Y-25905922D01*
X30875831Y-25916568D01*
X30869776Y-25926668D01*
X30862761Y-25936127D01*
X30854853Y-25944853D01*
X30846127Y-25952761D01*
X30836668Y-25959776D01*
X30826568Y-25965831D01*
X30815922Y-25970866D01*
X30804834Y-25974833D01*
X30793411Y-25977694D01*
X30781762Y-25979422D01*
X30770000Y-25980000D01*
X29810000Y-25980000D01*
X29798238Y-25979422D01*
X29786589Y-25977694D01*
X29775166Y-25974833D01*
X29764078Y-25970866D01*
X29753432Y-25965831D01*
X29743332Y-25959776D01*
X29733873Y-25952761D01*
X29725147Y-25944853D01*
X29717239Y-25936127D01*
X29710224Y-25926668D01*
X29704169Y-25916568D01*
X29699134Y-25905922D01*
X29695167Y-25894834D01*
X29692306Y-25883411D01*
X29690578Y-25871762D01*
X29690000Y-25860000D01*
X29690000Y-23900000D01*
X29690578Y-23888238D01*
X29692306Y-23876589D01*
X29695167Y-23865166D01*
X29699134Y-23854078D01*
X29704169Y-23843432D01*
X29710224Y-23833332D01*
X29717239Y-23823873D01*
X29725147Y-23815147D01*
X29733873Y-23807239D01*
X29743332Y-23800224D01*
X29753432Y-23794169D01*
X29764078Y-23789134D01*
X29775166Y-23785167D01*
X29786589Y-23782306D01*
X29798238Y-23780578D01*
X29810000Y-23780000D01*
X30770000Y-23780000D01*
X30781762Y-23780578D01*
X30781762Y-23780578D01*
G37*
G36*
X46194501Y-23775579D02*
X46206150Y-23777307D01*
X46217573Y-23780168D01*
X46228661Y-23784135D01*
X46239307Y-23789170D01*
X46249407Y-23795225D01*
X46258866Y-23802240D01*
X46267592Y-23810148D01*
X46275500Y-23818874D01*
X46282515Y-23828333D01*
X46288570Y-23838433D01*
X46293605Y-23849079D01*
X46297572Y-23860167D01*
X46300433Y-23871590D01*
X46302161Y-23883239D01*
X46302739Y-23895001D01*
X46302739Y-25855001D01*
X46302161Y-25866763D01*
X46300433Y-25878412D01*
X46297572Y-25889835D01*
X46293605Y-25900923D01*
X46288570Y-25911569D01*
X46282515Y-25921669D01*
X46275500Y-25931128D01*
X46267592Y-25939854D01*
X46258866Y-25947762D01*
X46249407Y-25954777D01*
X46239307Y-25960832D01*
X46228661Y-25965867D01*
X46217573Y-25969834D01*
X46206150Y-25972695D01*
X46194501Y-25974423D01*
X46182739Y-25975001D01*
X45222739Y-25975001D01*
X45210977Y-25974423D01*
X45199328Y-25972695D01*
X45187905Y-25969834D01*
X45176817Y-25965867D01*
X45166171Y-25960832D01*
X45156071Y-25954777D01*
X45146612Y-25947762D01*
X45137886Y-25939854D01*
X45129978Y-25931128D01*
X45122963Y-25921669D01*
X45116908Y-25911569D01*
X45111873Y-25900923D01*
X45107906Y-25889835D01*
X45105045Y-25878412D01*
X45103317Y-25866763D01*
X45102739Y-25855001D01*
X45102739Y-23895001D01*
X45103317Y-23883239D01*
X45105045Y-23871590D01*
X45107906Y-23860167D01*
X45111873Y-23849079D01*
X45116908Y-23838433D01*
X45122963Y-23828333D01*
X45129978Y-23818874D01*
X45137886Y-23810148D01*
X45146612Y-23802240D01*
X45156071Y-23795225D01*
X45166171Y-23789170D01*
X45176817Y-23784135D01*
X45187905Y-23780168D01*
X45199328Y-23777307D01*
X45210977Y-23775579D01*
X45222739Y-23775001D01*
X46182739Y-23775001D01*
X46194501Y-23775579D01*
X46194501Y-23775579D01*
G37*
D16*
G36*
X70824735Y3110D02*
X70568976Y-1893034D01*
X4788728Y-1912961D01*
X4815294Y52905D01*
X70824735Y3110D01*
X70824735Y3110D01*
G37*
X70824735Y3110D02*
X70568976Y-1893034D01*
X4788728Y-1912961D01*
X4815294Y52905D01*
X70824735Y3110D01*
G36*
X70122424Y-35022960D02*
X5926417Y-35003039D01*
X5917587Y-33086960D01*
X70113573Y-33067039D01*
X70122424Y-35022960D01*
X70122424Y-35022960D01*
G37*
X70122424Y-35022960D02*
X5926417Y-35003039D01*
X5917587Y-33086960D01*
X70113573Y-33067039D01*
X70122424Y-35022960D01*
G36*
X76043043Y-9717610D02*
X75806500Y-10033000D01*
X75110000Y-10033000D01*
X75061399Y-10042667D01*
X75020197Y-10070197D01*
X74992667Y-10111399D01*
X74983000Y-10159739D01*
X74953000Y-24759739D01*
X74962568Y-24808360D01*
X74990013Y-24849618D01*
X75031158Y-24877233D01*
X75080000Y-24887000D01*
X75817394Y-24887000D01*
X76043000Y-25112606D01*
X76043000Y-35033000D01*
X70036424Y-35033000D01*
X70027000Y-32959643D01*
X70027000Y-30802333D01*
X70102350Y-30701866D01*
X70157554Y-30676388D01*
X70263440Y-30711683D01*
X70856553Y-31267727D01*
X70937228Y-31572498D01*
X70973046Y-31632564D01*
X71303046Y-31942564D01*
X71341796Y-31967496D01*
X71731796Y-32127496D01*
X71780000Y-32137000D01*
X72160000Y-32137000D01*
X72223368Y-32120061D01*
X72553368Y-31930061D01*
X72574147Y-31915123D01*
X72834147Y-31685123D01*
X72867315Y-31638643D01*
X73037315Y-31228643D01*
X73046945Y-31176266D01*
X73036945Y-30836266D01*
X73028162Y-30793451D01*
X72898162Y-30463451D01*
X72873065Y-30423583D01*
X72613065Y-30143583D01*
X72570747Y-30113580D01*
X72202299Y-29952974D01*
X71634539Y-29394522D01*
X71594602Y-29234775D01*
X71645253Y-29133474D01*
X71791994Y-29056610D01*
X73361587Y-29036990D01*
X73410064Y-29026716D01*
X73450918Y-28998673D01*
X73477931Y-28957130D01*
X73487000Y-28910000D01*
X73487000Y-27010000D01*
X73477333Y-26961399D01*
X73449803Y-26920197D01*
X73408601Y-26892667D01*
X73361549Y-26883009D01*
X71027066Y-26854540D01*
X71036934Y-8124920D01*
X73332099Y-8086983D01*
X73380533Y-8076513D01*
X73421274Y-8048306D01*
X73448120Y-8006655D01*
X73456998Y-7960661D01*
X73466998Y-6040661D01*
X73457584Y-5992011D01*
X73430269Y-5950666D01*
X73389211Y-5922922D01*
X73340747Y-5913002D01*
X71690187Y-5903293D01*
X71600639Y-5820141D01*
X71555078Y-5740409D01*
X71575477Y-5653714D01*
X72140858Y-5079065D01*
X72434593Y-4968914D01*
X72477409Y-4942134D01*
X72867409Y-4572134D01*
X72900743Y-4519373D01*
X73050743Y-4059373D01*
X73052788Y-3987565D01*
X72912788Y-3457565D01*
X72880992Y-3401403D01*
X72510992Y-3021403D01*
X72470161Y-2993326D01*
X72441946Y-2984910D01*
X71871946Y-2884910D01*
X71819198Y-2886792D01*
X71459198Y-2976792D01*
X71408697Y-3002436D01*
X71048697Y-3302436D01*
X71013037Y-3350516D01*
X70804565Y-3843268D01*
X70253061Y-4319992D01*
X70203763Y-4339711D01*
X70126088Y-4329354D01*
X70069240Y-4277675D01*
X70016898Y-4128124D01*
X70007013Y-2052299D01*
X70091817Y11260D01*
X71378199Y-6987D01*
X71380794Y-6998D01*
X76052871Y22202D01*
X76043043Y-9717610D01*
X76043043Y-9717610D01*
G37*
X76043043Y-9717610D02*
X75806500Y-10033000D01*
X75110000Y-10033000D01*
X75061399Y-10042667D01*
X75020197Y-10070197D01*
X74992667Y-10111399D01*
X74983000Y-10159739D01*
X74953000Y-24759739D01*
X74962568Y-24808360D01*
X74990013Y-24849618D01*
X75031158Y-24877233D01*
X75080000Y-24887000D01*
X75817394Y-24887000D01*
X76043000Y-25112606D01*
X76043000Y-35033000D01*
X70036424Y-35033000D01*
X70027000Y-32959643D01*
X70027000Y-30802333D01*
X70102350Y-30701866D01*
X70157554Y-30676388D01*
X70263440Y-30711683D01*
X70856553Y-31267727D01*
X70937228Y-31572498D01*
X70973046Y-31632564D01*
X71303046Y-31942564D01*
X71341796Y-31967496D01*
X71731796Y-32127496D01*
X71780000Y-32137000D01*
X72160000Y-32137000D01*
X72223368Y-32120061D01*
X72553368Y-31930061D01*
X72574147Y-31915123D01*
X72834147Y-31685123D01*
X72867315Y-31638643D01*
X73037315Y-31228643D01*
X73046945Y-31176266D01*
X73036945Y-30836266D01*
X73028162Y-30793451D01*
X72898162Y-30463451D01*
X72873065Y-30423583D01*
X72613065Y-30143583D01*
X72570747Y-30113580D01*
X72202299Y-29952974D01*
X71634539Y-29394522D01*
X71594602Y-29234775D01*
X71645253Y-29133474D01*
X71791994Y-29056610D01*
X73361587Y-29036990D01*
X73410064Y-29026716D01*
X73450918Y-28998673D01*
X73477931Y-28957130D01*
X73487000Y-28910000D01*
X73487000Y-27010000D01*
X73477333Y-26961399D01*
X73449803Y-26920197D01*
X73408601Y-26892667D01*
X73361549Y-26883009D01*
X71027066Y-26854540D01*
X71036934Y-8124920D01*
X73332099Y-8086983D01*
X73380533Y-8076513D01*
X73421274Y-8048306D01*
X73448120Y-8006655D01*
X73456998Y-7960661D01*
X73466998Y-6040661D01*
X73457584Y-5992011D01*
X73430269Y-5950666D01*
X73389211Y-5922922D01*
X73340747Y-5913002D01*
X71690187Y-5903293D01*
X71600639Y-5820141D01*
X71555078Y-5740409D01*
X71575477Y-5653714D01*
X72140858Y-5079065D01*
X72434593Y-4968914D01*
X72477409Y-4942134D01*
X72867409Y-4572134D01*
X72900743Y-4519373D01*
X73050743Y-4059373D01*
X73052788Y-3987565D01*
X72912788Y-3457565D01*
X72880992Y-3401403D01*
X72510992Y-3021403D01*
X72470161Y-2993326D01*
X72441946Y-2984910D01*
X71871946Y-2884910D01*
X71819198Y-2886792D01*
X71459198Y-2976792D01*
X71408697Y-3002436D01*
X71048697Y-3302436D01*
X71013037Y-3350516D01*
X70804565Y-3843268D01*
X70253061Y-4319992D01*
X70203763Y-4339711D01*
X70126088Y-4329354D01*
X70069240Y-4277675D01*
X70016898Y-4128124D01*
X70007013Y-2052299D01*
X70091817Y11260D01*
X71378199Y-6987D01*
X71380794Y-6998D01*
X76052871Y22202D01*
X76043043Y-9717610D01*
G36*
X5863000Y-1990357D02*
X5863000Y-4147666D01*
X5787649Y-4248135D01*
X5732446Y-4273614D01*
X5626560Y-4238317D01*
X5033447Y-3682271D01*
X4952771Y-3377501D01*
X4916954Y-3317436D01*
X4586954Y-3007436D01*
X4548204Y-2982504D01*
X4158204Y-2822504D01*
X4110000Y-2813000D01*
X3730000Y-2813000D01*
X3666632Y-2829939D01*
X3336632Y-3019939D01*
X3315853Y-3034877D01*
X3055854Y-3264876D01*
X3022686Y-3311356D01*
X2852685Y-3721357D01*
X2843055Y-3773734D01*
X2853055Y-4113734D01*
X2861838Y-4156548D01*
X2991837Y-4486549D01*
X3016935Y-4526419D01*
X3276936Y-4806418D01*
X3319253Y-4836421D01*
X3687704Y-4997027D01*
X4255462Y-5555480D01*
X4295397Y-5715224D01*
X4244746Y-5816526D01*
X4098007Y-5893390D01*
X2528413Y-5913010D01*
X2479936Y-5923284D01*
X2439082Y-5951327D01*
X2412069Y-5992870D01*
X2403000Y-6040000D01*
X2403001Y-7940000D01*
X2412668Y-7988601D01*
X2440198Y-8029803D01*
X2481400Y-8057333D01*
X2528452Y-8066991D01*
X4862935Y-8095462D01*
X4853066Y-26825080D01*
X2557902Y-26863017D01*
X2509468Y-26873487D01*
X2468727Y-26901694D01*
X2441881Y-26943345D01*
X2433003Y-26989338D01*
X2423002Y-28909338D01*
X2432416Y-28957989D01*
X2459731Y-28999334D01*
X2500789Y-29027078D01*
X2549253Y-29036998D01*
X4199813Y-29046706D01*
X4289361Y-29129859D01*
X4334922Y-29209591D01*
X4314523Y-29296286D01*
X3749142Y-29870936D01*
X3455408Y-29981086D01*
X3412591Y-30007866D01*
X3022591Y-30377866D01*
X2989257Y-30430627D01*
X2839257Y-30890627D01*
X2837212Y-30962435D01*
X2977212Y-31492435D01*
X3009008Y-31548597D01*
X3379008Y-31928597D01*
X3419839Y-31956674D01*
X3448054Y-31965090D01*
X4018054Y-32065090D01*
X4070802Y-32063208D01*
X4430802Y-31973208D01*
X4481303Y-31947564D01*
X4841303Y-31647564D01*
X4876963Y-31599484D01*
X5085436Y-31106730D01*
X5636940Y-30630007D01*
X5686236Y-30610289D01*
X5763912Y-30620646D01*
X5820760Y-30672325D01*
X5873102Y-30821876D01*
X5882987Y-32897701D01*
X5798086Y-34963618D01*
X3949749Y-34973000D01*
X-162872Y-34973000D01*
X-153043Y-25232390D01*
X83500Y-24917000D01*
X780000Y-24917001D01*
X828601Y-24907334D01*
X869802Y-24879804D01*
X897333Y-24838602D01*
X907000Y-24790262D01*
X937000Y-10190261D01*
X927432Y-10141640D01*
X899987Y-10100382D01*
X858842Y-10072767D01*
X810000Y-10063000D01*
X72606Y-10063000D01*
X-153000Y-9837394D01*
X-153002Y82999D01*
X5853574Y82999D01*
X5863000Y-1990357D01*
X5863000Y-1990357D01*
G37*
X5863000Y-1990357D02*
X5863000Y-4147666D01*
X5787649Y-4248135D01*
X5732446Y-4273614D01*
X5626560Y-4238317D01*
X5033447Y-3682271D01*
X4952771Y-3377501D01*
X4916954Y-3317436D01*
X4586954Y-3007436D01*
X4548204Y-2982504D01*
X4158204Y-2822504D01*
X4110000Y-2813000D01*
X3730000Y-2813000D01*
X3666632Y-2829939D01*
X3336632Y-3019939D01*
X3315853Y-3034877D01*
X3055854Y-3264876D01*
X3022686Y-3311356D01*
X2852685Y-3721357D01*
X2843055Y-3773734D01*
X2853055Y-4113734D01*
X2861838Y-4156548D01*
X2991837Y-4486549D01*
X3016935Y-4526419D01*
X3276936Y-4806418D01*
X3319253Y-4836421D01*
X3687704Y-4997027D01*
X4255462Y-5555480D01*
X4295397Y-5715224D01*
X4244746Y-5816526D01*
X4098007Y-5893390D01*
X2528413Y-5913010D01*
X2479936Y-5923284D01*
X2439082Y-5951327D01*
X2412069Y-5992870D01*
X2403000Y-6040000D01*
X2403001Y-7940000D01*
X2412668Y-7988601D01*
X2440198Y-8029803D01*
X2481400Y-8057333D01*
X2528452Y-8066991D01*
X4862935Y-8095462D01*
X4853066Y-26825080D01*
X2557902Y-26863017D01*
X2509468Y-26873487D01*
X2468727Y-26901694D01*
X2441881Y-26943345D01*
X2433003Y-26989338D01*
X2423002Y-28909338D01*
X2432416Y-28957989D01*
X2459731Y-28999334D01*
X2500789Y-29027078D01*
X2549253Y-29036998D01*
X4199813Y-29046706D01*
X4289361Y-29129859D01*
X4334922Y-29209591D01*
X4314523Y-29296286D01*
X3749142Y-29870936D01*
X3455408Y-29981086D01*
X3412591Y-30007866D01*
X3022591Y-30377866D01*
X2989257Y-30430627D01*
X2839257Y-30890627D01*
X2837212Y-30962435D01*
X2977212Y-31492435D01*
X3009008Y-31548597D01*
X3379008Y-31928597D01*
X3419839Y-31956674D01*
X3448054Y-31965090D01*
X4018054Y-32065090D01*
X4070802Y-32063208D01*
X4430802Y-31973208D01*
X4481303Y-31947564D01*
X4841303Y-31647564D01*
X4876963Y-31599484D01*
X5085436Y-31106730D01*
X5636940Y-30630007D01*
X5686236Y-30610289D01*
X5763912Y-30620646D01*
X5820760Y-30672325D01*
X5873102Y-30821876D01*
X5882987Y-32897701D01*
X5798086Y-34963618D01*
X3949749Y-34973000D01*
X-162872Y-34973000D01*
X-153043Y-25232390D01*
X83500Y-24917000D01*
X780000Y-24917001D01*
X828601Y-24907334D01*
X869802Y-24879804D01*
X897333Y-24838602D01*
X907000Y-24790262D01*
X937000Y-10190261D01*
X927432Y-10141640D01*
X899987Y-10100382D01*
X858842Y-10072767D01*
X810000Y-10063000D01*
X72606Y-10063000D01*
X-153000Y-9837394D01*
X-153002Y82999D01*
X5853574Y82999D01*
X5863000Y-1990357D01*
M02*
