G04 #@! TF.FileFunction,Legend,Bot*
%FSLAX46Y46*%
G04 Gerber Fmt 4.6, Leading zero omitted, Abs format (unit mm)*
G04 Created by KiCad (PCBNEW no-bzr-kicad_new3d-viewer) date 07/10/16 17:39:31*
%MOMM*%
%LPD*%
G01*
G04 APERTURE LIST*
%ADD10C,0.150000*%
%ADD11C,0.300000*%
%ADD12C,0.500000*%
G04 APERTURE END LIST*
D10*
X136411900Y-87760340D02*
X137911900Y-87760340D01*
X122911900Y-87760340D02*
X123911900Y-87760340D01*
D11*
X132254757Y-93038911D02*
X132254757Y-94253197D01*
X132183328Y-94396054D01*
X132111900Y-94467482D01*
X131969042Y-94538911D01*
X131683328Y-94538911D01*
X131540471Y-94467482D01*
X131469042Y-94396054D01*
X131397614Y-94253197D01*
X131397614Y-93038911D01*
X130754757Y-94467482D02*
X130540471Y-94538911D01*
X130183328Y-94538911D01*
X130040471Y-94467482D01*
X129969042Y-94396054D01*
X129897614Y-94253197D01*
X129897614Y-94110340D01*
X129969042Y-93967482D01*
X130040471Y-93896054D01*
X130183328Y-93824625D01*
X130469042Y-93753197D01*
X130611900Y-93681768D01*
X130683328Y-93610340D01*
X130754757Y-93467482D01*
X130754757Y-93324625D01*
X130683328Y-93181768D01*
X130611900Y-93110340D01*
X130469042Y-93038911D01*
X130111900Y-93038911D01*
X129897614Y-93110340D01*
X128754757Y-93753197D02*
X128540471Y-93824625D01*
X128469042Y-93896054D01*
X128397614Y-94038911D01*
X128397614Y-94253197D01*
X128469042Y-94396054D01*
X128540471Y-94467482D01*
X128683328Y-94538911D01*
X129254757Y-94538911D01*
X129254757Y-93038911D01*
X128754757Y-93038911D01*
X128611900Y-93110340D01*
X128540471Y-93181768D01*
X128469042Y-93324625D01*
X128469042Y-93467482D01*
X128540471Y-93610340D01*
X128611900Y-93681768D01*
X128754757Y-93753197D01*
X129254757Y-93753197D01*
D10*
X123911900Y-92160340D02*
X123911900Y-87760340D01*
X136411900Y-92160340D02*
X136411900Y-87760340D01*
X123911900Y-92160340D02*
X136411900Y-92160340D01*
D11*
X116161900Y-80738911D02*
X116161900Y-79238911D01*
X115804757Y-79238911D01*
X115590471Y-79310340D01*
X115447614Y-79453197D01*
X115376185Y-79596054D01*
X115304757Y-79881768D01*
X115304757Y-80096054D01*
X115376185Y-80381768D01*
X115447614Y-80524625D01*
X115590471Y-80667482D01*
X115804757Y-80738911D01*
X116161900Y-80738911D01*
X113804757Y-80596054D02*
X113876185Y-80667482D01*
X114090471Y-80738911D01*
X114233328Y-80738911D01*
X114447614Y-80667482D01*
X114590471Y-80524625D01*
X114661900Y-80381768D01*
X114733328Y-80096054D01*
X114733328Y-79881768D01*
X114661900Y-79596054D01*
X114590471Y-79453197D01*
X114447614Y-79310340D01*
X114233328Y-79238911D01*
X114090471Y-79238911D01*
X113876185Y-79310340D01*
X113804757Y-79381768D01*
X112019042Y-79738911D02*
X112019042Y-81024625D01*
X112090471Y-81167482D01*
X112233328Y-81238911D01*
X112304757Y-81238911D01*
X112019042Y-79238911D02*
X112090471Y-79310340D01*
X112019042Y-79381768D01*
X111947614Y-79310340D01*
X112019042Y-79238911D01*
X112019042Y-79381768D01*
X110661900Y-80738911D02*
X110661900Y-79953197D01*
X110733328Y-79810340D01*
X110876185Y-79738911D01*
X111161900Y-79738911D01*
X111304757Y-79810340D01*
X110661900Y-80667482D02*
X110804757Y-80738911D01*
X111161900Y-80738911D01*
X111304757Y-80667482D01*
X111376185Y-80524625D01*
X111376185Y-80381768D01*
X111304757Y-80238911D01*
X111161900Y-80167482D01*
X110804757Y-80167482D01*
X110661900Y-80096054D01*
X109304757Y-80667482D02*
X109447614Y-80738911D01*
X109733328Y-80738911D01*
X109876185Y-80667482D01*
X109947614Y-80596054D01*
X110019042Y-80453197D01*
X110019042Y-80024625D01*
X109947614Y-79881768D01*
X109876185Y-79810340D01*
X109733328Y-79738911D01*
X109447614Y-79738911D01*
X109304757Y-79810340D01*
X108661900Y-80738911D02*
X108661900Y-79238911D01*
X108519042Y-80167482D02*
X108090471Y-80738911D01*
X108090471Y-79738911D02*
X108661900Y-80310340D01*
D10*
X109711900Y-89760340D02*
X114911900Y-89760340D01*
X109711900Y-82160340D02*
X109711900Y-89760340D01*
X114911900Y-82160340D02*
X109711900Y-82160340D01*
X114911900Y-89760340D02*
X114911900Y-82160340D01*
D11*
X136119042Y-81338911D02*
X136119042Y-82553197D01*
X136047614Y-82696054D01*
X135976185Y-82767482D01*
X135833328Y-82838911D01*
X135547614Y-82838911D01*
X135404757Y-82767482D01*
X135333328Y-82696054D01*
X135261900Y-82553197D01*
X135261900Y-81338911D01*
X134619042Y-82767482D02*
X134404757Y-82838911D01*
X134047614Y-82838911D01*
X133904757Y-82767482D01*
X133833328Y-82696054D01*
X133761900Y-82553197D01*
X133761900Y-82410340D01*
X133833328Y-82267482D01*
X133904757Y-82196054D01*
X134047614Y-82124625D01*
X134333328Y-82053197D01*
X134476185Y-81981768D01*
X134547614Y-81910340D01*
X134619042Y-81767482D01*
X134619042Y-81624625D01*
X134547614Y-81481768D01*
X134476185Y-81410340D01*
X134333328Y-81338911D01*
X133976185Y-81338911D01*
X133761900Y-81410340D01*
X132619042Y-82053197D02*
X132404757Y-82124625D01*
X132333328Y-82196054D01*
X132261900Y-82338911D01*
X132261900Y-82553197D01*
X132333328Y-82696054D01*
X132404757Y-82767482D01*
X132547614Y-82838911D01*
X133119042Y-82838911D01*
X133119042Y-81338911D01*
X132619042Y-81338911D01*
X132476185Y-81410340D01*
X132404757Y-81481768D01*
X132333328Y-81624625D01*
X132333328Y-81767482D01*
X132404757Y-81910340D01*
X132476185Y-81981768D01*
X132619042Y-82053197D01*
X133119042Y-82053197D01*
X130476185Y-82838911D02*
X130476185Y-81838911D01*
X130476185Y-81981768D02*
X130404757Y-81910340D01*
X130261900Y-81838911D01*
X130047614Y-81838911D01*
X129904757Y-81910340D01*
X129833328Y-82053197D01*
X129833328Y-82838911D01*
X129833328Y-82053197D02*
X129761900Y-81910340D01*
X129619042Y-81838911D01*
X129404757Y-81838911D01*
X129261900Y-81910340D01*
X129190471Y-82053197D01*
X129190471Y-82838911D01*
X128476185Y-82838911D02*
X128476185Y-81838911D01*
X128476185Y-81338911D02*
X128547614Y-81410340D01*
X128476185Y-81481768D01*
X128404757Y-81410340D01*
X128476185Y-81338911D01*
X128476185Y-81481768D01*
X127119042Y-82767482D02*
X127261900Y-82838911D01*
X127547614Y-82838911D01*
X127690471Y-82767482D01*
X127761900Y-82696054D01*
X127833328Y-82553197D01*
X127833328Y-82124625D01*
X127761900Y-81981768D01*
X127690471Y-81910340D01*
X127547614Y-81838911D01*
X127261900Y-81838911D01*
X127119042Y-81910340D01*
X126476185Y-82838911D02*
X126476185Y-81838911D01*
X126476185Y-82124625D02*
X126404757Y-81981768D01*
X126333328Y-81910340D01*
X126190471Y-81838911D01*
X126047614Y-81838911D01*
X125333328Y-82838911D02*
X125476185Y-82767482D01*
X125547614Y-82696054D01*
X125619042Y-82553197D01*
X125619042Y-82124625D01*
X125547614Y-81981768D01*
X125476185Y-81910340D01*
X125333328Y-81838911D01*
X125119042Y-81838911D01*
X124976185Y-81910340D01*
X124904757Y-81981768D01*
X124833328Y-82124625D01*
X124833328Y-82553197D01*
X124904757Y-82696054D01*
X124976185Y-82767482D01*
X125119042Y-82838911D01*
X125333328Y-82838911D01*
D10*
X122911900Y-84060340D02*
X122911900Y-87760340D01*
X137911900Y-84060340D02*
X122911900Y-84060340D01*
X137911900Y-87760340D02*
X137911900Y-84060340D01*
D12*
X167358348Y-76679154D02*
G75*
G02X169408348Y-78779764I0J-2050610D01*
G01*
X167358348Y-76679764D02*
X160458348Y-76679764D01*
X158357738Y-78729764D02*
G75*
G02X160458348Y-76679764I2050610J0D01*
G01*
X160408348Y-89679764D02*
G75*
G02X158358348Y-87579154I0J2050610D01*
G01*
X158358348Y-87579764D02*
X158358348Y-78729764D01*
X169408348Y-87529764D02*
X169408348Y-78779764D01*
X169408958Y-87579154D02*
G75*
G02X167308348Y-89629154I-2050610J0D01*
G01*
X165001205Y-90934525D02*
X165667871Y-89982144D01*
X166144062Y-90934525D02*
X166144062Y-88934525D01*
X165382157Y-88934525D01*
X165191681Y-89029764D01*
X165096443Y-89125002D01*
X165001205Y-89315478D01*
X165001205Y-89601192D01*
X165096443Y-89791668D01*
X165191681Y-89886906D01*
X165382157Y-89982144D01*
X166144062Y-89982144D01*
X164144062Y-89886906D02*
X163477395Y-89886906D01*
X163191681Y-90934525D02*
X164144062Y-90934525D01*
X164144062Y-88934525D01*
X163191681Y-88934525D01*
X161667871Y-89886906D02*
X162334538Y-89886906D01*
X162334538Y-90934525D02*
X162334538Y-88934525D01*
X161382157Y-88934525D01*
X165048824Y-94244049D02*
X165144062Y-94339287D01*
X165429776Y-94434525D01*
X165620252Y-94434525D01*
X165905967Y-94339287D01*
X166096443Y-94148811D01*
X166191681Y-93958335D01*
X166286919Y-93577383D01*
X166286919Y-93291668D01*
X166191681Y-92910716D01*
X166096443Y-92720240D01*
X165905967Y-92529764D01*
X165620252Y-92434525D01*
X165429776Y-92434525D01*
X165144062Y-92529764D01*
X165048824Y-92625002D01*
X163239300Y-94434525D02*
X164191681Y-94434525D01*
X164191681Y-92434525D01*
X162572633Y-94434525D02*
X162572633Y-92434525D01*
X161429776Y-94434525D02*
X162286919Y-93291668D01*
X161429776Y-92434525D02*
X162572633Y-93577383D01*
M02*
