G04 #@! TF.FileFunction,Legend,Bot*
%FSLAX46Y46*%
G04 Gerber Fmt 4.6, Leading zero omitted, Abs format (unit mm)*
G04 Created by KiCad (PCBNEW no-bzr-kicad_new3d-viewer) date 06/27/16 23:34:47*
%MOMM*%
%LPD*%
G01*
G04 APERTURE LIST*
%ADD10C,0.100000*%
%ADD11C,0.500000*%
G04 APERTURE END LIST*
D10*
D11*
X74850000Y-26730952D02*
X76040476Y-26730952D01*
X76040476Y-24230952D01*
X74016666Y-26730952D02*
X74016666Y-25064285D01*
X74016666Y-24230952D02*
X74135714Y-24350000D01*
X74016666Y-24469047D01*
X73897619Y-24350000D01*
X74016666Y-24230952D01*
X74016666Y-24469047D01*
X72826190Y-26730952D02*
X72826190Y-25064285D01*
X72826190Y-25302380D02*
X72707142Y-25183333D01*
X72469047Y-25064285D01*
X72111904Y-25064285D01*
X71873809Y-25183333D01*
X71754761Y-25421428D01*
X71754761Y-26730952D01*
X71754761Y-25421428D02*
X71635714Y-25183333D01*
X71397619Y-25064285D01*
X71040476Y-25064285D01*
X70802380Y-25183333D01*
X70683333Y-25421428D01*
X70683333Y-26730952D01*
X68540476Y-26611904D02*
X68778571Y-26730952D01*
X69254761Y-26730952D01*
X69492857Y-26611904D01*
X69611904Y-26373809D01*
X69611904Y-25421428D01*
X69492857Y-25183333D01*
X69254761Y-25064285D01*
X68778571Y-25064285D01*
X68540476Y-25183333D01*
X68421428Y-25421428D01*
X68421428Y-25659523D01*
X69611904Y-25897619D01*
X67469047Y-26611904D02*
X67111904Y-26730952D01*
X66516666Y-26730952D01*
X66278571Y-26611904D01*
X66159523Y-26492857D01*
X66040476Y-26254761D01*
X66040476Y-26016666D01*
X66159523Y-25778571D01*
X66278571Y-25659523D01*
X66516666Y-25540476D01*
X66992857Y-25421428D01*
X67230952Y-25302380D01*
X67350000Y-25183333D01*
X67469047Y-24945238D01*
X67469047Y-24707142D01*
X67350000Y-24469047D01*
X67230952Y-24350000D01*
X66992857Y-24230952D01*
X66397619Y-24230952D01*
X66040476Y-24350000D01*
X64969047Y-26730952D02*
X64969047Y-24230952D01*
X64373809Y-24230952D01*
X64016666Y-24350000D01*
X63778571Y-24588095D01*
X63659523Y-24826190D01*
X63540476Y-25302380D01*
X63540476Y-25659523D01*
X63659523Y-26135714D01*
X63778571Y-26373809D01*
X64016666Y-26611904D01*
X64373809Y-26730952D01*
X64969047Y-26730952D01*
X61040476Y-26730952D02*
X61873809Y-25540476D01*
X62469047Y-26730952D02*
X62469047Y-24230952D01*
X61516666Y-24230952D01*
X61278571Y-24350000D01*
X61159523Y-24469047D01*
X61040476Y-24707142D01*
X61040476Y-25064285D01*
X61159523Y-25302380D01*
X61278571Y-25421428D01*
X61516666Y-25540476D01*
X62469047Y-25540476D01*
M02*
