%MOIN*%
%OFA0B0*%
%FSLAX46Y46*%
%IPPOS*%
%LPD*%
%ADD10C,0.005905511811023622*%
%ADD11C,0.031496062992125991*%
%ADD12C,0.11811023622047245*%
%ADD13C,0.027559055118110236*%
%ADD14C,0.053149606299212608*%
%ADD15C,0.03937007874015748*%
%ADD26C,0.005905511811023622*%
%ADD37C,0.005905511811023622*%
%ADD48C,0.005905511811023622*%
%ADD49C,0.20472440944881892*%
%ADD50C,0.01*%
%ADD61C,0.005905511811023622*%
%ADD62C,0.20472440944881892*%
%ADD63C,0.01*%
%ADD74C,0.005905511811023622*%
%ADD75C,0.20472440944881892*%
%ADD76C,0.01*%
%ADD87C,0.005905511811023622*%
%ADD88C,0.20472440944881892*%
%ADD89C,0.01*%
%ADD100C,0.005905511811023622*%
%ADD101C,0.031496062992125991*%
%ADD102C,0.11811023622047245*%
%ADD103C,0.027559055118110236*%
%ADD104C,0.053149606299212608*%
%ADD115C,0.005905511811023622*%
%ADD116C,0.031496062992125991*%
%ADD117C,0.11811023622047245*%
%ADD118C,0.027559055118110236*%
%ADD119C,0.053149606299212608*%
%LPD*%
G01G01G01G01G01G01G01G01*
D10*
D11*
X0002903543Y0004134645D02*
G75*
G03G03G03G03X0002903543Y0004134645I-0000070866D01X0002903543Y0004134645I-0000070866D01X0002903543Y0004134645I-0000070866D01G03G03X0002903543Y0004134645I-0000070866D01G03G03X0002903543Y0004134645I-0000070866D01X0002903543Y0004134645I-0000070866D01X0002903543Y0004134645I-0000070866D01X0002903543Y0004134645I-0000070866D01*
G01G01G01G01G01G01G01G01*
X0002902755Y0003068503D02*
G75*
G03G03G03G03X0002902755Y0003068503I-0000070866D01X0002902755Y0003068503I-0000070866D01X0002902755Y0003068503I-0000070866D01G03G03X0002902755Y0003068503I-0000070866D01G03G03X0002902755Y0003068503I-0000070866D01X0002902755Y0003068503I-0000070866D01X0002902755Y0003068503I-0000070866D01X0002902755Y0003068503I-0000070866D01*
G01G01G01G01G01G01G01G01*
X0000225984Y0003069685D02*
G75*
G03G03G03G03X0000225984Y0003069685I-0000070866D01X0000225984Y0003069685I-0000070866D01X0000225984Y0003069685I-0000070866D01G03G03X0000225984Y0003069685I-0000070866D01G03G03X0000225984Y0003069685I-0000070866D01X0000225984Y0003069685I-0000070866D01X0000225984Y0003069685I-0000070866D01X0000225984Y0003069685I-0000070866D01*
G01G01G01G01G01G01G01G01*
X0000226377Y0004134251D02*
G75*
G03G03G03G03X0000226377Y0004134251I-0000070866D01X0000226377Y0004134251I-0000070866D01X0000226377Y0004134251I-0000070866D01G03G03X0000226377Y0004134251I-0000070866D01G03G03X0000226377Y0004134251I-0000070866D01X0000226377Y0004134251I-0000070866D01X0000226377Y0004134251I-0000070866D01X0000226377Y0004134251I-0000070866D01*
G01G01G01G01G01G01G01G01*
D12*
X0002638591Y0003804184D02*
G75*
G03G03G03G03X0002638591Y0003804184I-0000104724D01X0002638591Y0003804184I-0000104724D01X0002638591Y0003804184I-0000104724D01G03G03X0002638591Y0003804184I-0000104724D01G03G03X0002638591Y0003804184I-0000104724D01X0002638591Y0003804184I-0000104724D01X0002638591Y0003804184I-0000104724D01X0002638591Y0003804184I-0000104724D01*
G01G01G01G01G01G01G01G01*
D13*
X0002649220Y0003876625D02*
X0002649220Y0003731349D01*
D14*
X0002684654Y0003804184D02*
G75*
G03G03G03G03X0002684654Y0003804184I-0000150787D01X0002684654Y0003804184I-0000150787D01X0002684654Y0003804184I-0000150787D01G03G03X0002684654Y0003804184I-0000150787D01G03G03X0002684654Y0003804184I-0000150787D01X0002684654Y0003804184I-0000150787D01X0002684654Y0003804184I-0000150787D01X0002684654Y0003804184I-0000150787D01*
G01G01G01G01G01G01G01G01*
D15*
X0000718366Y0004110235D03*
X0000838267Y0004110235D03*
X0000478562Y0004110235D03*
X0001078070Y0004110235D03*
X0000598464Y0004110235D03*
X0000958169Y0004110235D03*
X0001917381Y0004110235D03*
X0001317873Y0004110235D03*
X0001437775Y0004110235D03*
X0001677578Y0004110235D03*
X0001797480Y0004110235D03*
X0001557677Y0004110235D03*
X0001197972Y0004110235D03*
X0002516889Y0004110235D03*
X0002157185Y0004110235D03*
X0002277086Y0004110235D03*
X0002396988Y0004110235D03*
X0002037283Y0004110235D03*
X0002576948Y0004151968D03*
X0002457047Y0004151968D03*
X0002337145Y0004151968D03*
X0002217244Y0004151968D03*
X0002097342Y0004151968D03*
X0001977440Y0004151968D03*
X0001857539Y0004151968D03*
X0001737637Y0004151968D03*
X0001617736Y0004151968D03*
X0001497834Y0004151968D03*
X0001377933Y0004151968D03*
X0001258031Y0004151968D03*
X0001138129Y0004151968D03*
X0001018227Y0004151968D03*
X0000898326Y0004151968D03*
X0000778425Y0004151968D03*
X0000658523Y0004151968D03*
X0000538622Y0004151968D03*
X0000418720Y0004151968D03*
G01G01G01G01G01G01G01G01*
D26*
G01G01G01G01G01G01G01G01*
D37*
G01G01G01G01G01G01G01G01*
D48*
D49*
X0003070866Y0004291338D02*
X0003435433Y0004146454D03*
D50*
G36*
X0003153921Y0004006967D02*
X0003078883Y0004006967D01*
X0003078123Y0004282795D01*
X0003153163Y0004282795D01*
X0003153921Y0004006967D01*
X0003153921Y0004006967D01*
G37*
X0003153921Y0004006967D02*
X0003078883Y0004006967D01*
X0003078123Y0004282795D01*
X0003153163Y0004282795D01*
X0003153921Y0004006967D01*
G04 next file*
G01G01G01G01G01G01G01G01*
D61*
D62*
X0003070866Y0003937007D02*
X0003435433Y0003792125D03*
D63*
G36*
X0003153921Y0003652637D02*
X0003078883Y0003652637D01*
X0003078123Y0003928464D01*
X0003153163Y0003928464D01*
X0003153921Y0003652637D01*
X0003153921Y0003652637D01*
G37*
X0003153921Y0003652637D02*
X0003078883Y0003652637D01*
X0003078123Y0003928464D01*
X0003153163Y0003928464D01*
X0003153921Y0003652637D01*
G01G01G01G01G01G01G01G01*
D74*
D75*
X0003070866Y0003582677D02*
X0003435433Y0003437795D03*
D76*
G36*
X0003153921Y0003298307D02*
X0003078883Y0003298307D01*
X0003078123Y0003574133D01*
X0003153163Y0003574133D01*
X0003153921Y0003298307D01*
X0003153921Y0003298307D01*
G37*
X0003153921Y0003298307D02*
X0003078883Y0003298307D01*
X0003078123Y0003574133D01*
X0003153163Y0003574133D01*
X0003153921Y0003298307D01*
G04 next file*
G01G01G01G01G01G01G01G01*
D87*
D88*
X0003070866Y0003228346D02*
X0003435433Y0003083464D03*
D89*
G36*
X0003153921Y0002943976D02*
X0003078883Y0002943976D01*
X0003078123Y0003219803D01*
X0003153163Y0003219803D01*
X0003153921Y0002943976D01*
X0003153921Y0002943976D01*
G37*
X0003153921Y0002943976D02*
X0003078883Y0002943976D01*
X0003078123Y0003219803D01*
X0003153163Y0003219803D01*
X0003153921Y0002943976D01*
G04 next file*
G01G01G01G01G01G01G01G01G01G01G01G01G01G01G01G01*
D100*
D101*
X0002903543Y0001221259D02*
G75*
G03G03G03G03X0002903543Y0001221259I-0000070866D01X0002903543Y0001221259I-0000070866D01G03G03X0002903543Y0001221259I-0000070866D01G03G03X0002903543Y0001221259I-0000070866D01X0002903543Y0001221259I-0000070866D01X0002903543Y0001221259I-0000070866D01X0002903543Y0001221259I-0000070866D01G03G03G03G03X0002903543Y0001221259I-0000070866D01X0002903543Y0001221259I-0000070866D01X0002903543Y0001221259I-0000070866D01G03G03X0002903543Y0001221259I-0000070866D01G03G03X0002903543Y0001221259I-0000070866D01X0002903543Y0001221259I-0000070866D01X0002903543Y0001221259I-0000070866D01X0002903543Y0001221259I-0000070866D01X0002903543Y0001221259I-0000070866D01*
G01G01G01G01G01G01G01G01G01G01G01G01G01G01G01G01*
X0002902755Y0000155118D02*
G75*
G03G03G03G03X0002902755Y0000155118I-0000070866D01X0002902755Y0000155118I-0000070866D01G03G03X0002902755Y0000155118I-0000070866D01G03G03X0002902755Y0000155118I-0000070866D01X0002902755Y0000155118I-0000070866D01X0002902755Y0000155118I-0000070866D01X0002902755Y0000155118I-0000070866D01G03G03G03G03X0002902755Y0000155118I-0000070866D01X0002902755Y0000155118I-0000070866D01X0002902755Y0000155118I-0000070866D01G03G03X0002902755Y0000155118I-0000070866D01G03G03X0002902755Y0000155118I-0000070866D01X0002902755Y0000155118I-0000070866D01X0002902755Y0000155118I-0000070866D01X0002902755Y0000155118I-0000070866D01X0002902755Y0000155118I-0000070866D01*
G01G01G01G01G01G01G01G01G01G01G01G01G01G01G01G01*
X0000225984Y0000156299D02*
G75*
G03G03G03G03X0000225984Y0000156299I-0000070866D01X0000225984Y0000156299I-0000070866D01G03G03X0000225984Y0000156299I-0000070866D01G03G03X0000225984Y0000156299I-0000070866D01X0000225984Y0000156299I-0000070866D01X0000225984Y0000156299I-0000070866D01X0000225984Y0000156299I-0000070866D01G03G03G03G03X0000225984Y0000156299I-0000070866D01X0000225984Y0000156299I-0000070866D01X0000225984Y0000156299I-0000070866D01G03G03X0000225984Y0000156299I-0000070866D01G03G03X0000225984Y0000156299I-0000070866D01X0000225984Y0000156299I-0000070866D01X0000225984Y0000156299I-0000070866D01X0000225984Y0000156299I-0000070866D01X0000225984Y0000156299I-0000070866D01*
G01G01G01G01G01G01G01G01G01G01G01G01G01G01G01G01*
X0000226377Y0001220866D02*
G75*
G03G03G03G03X0000226377Y0001220866I-0000070866D01X0000226377Y0001220866I-0000070866D01G03G03X0000226377Y0001220866I-0000070866D01G03G03X0000226377Y0001220866I-0000070866D01X0000226377Y0001220866I-0000070866D01X0000226377Y0001220866I-0000070866D01X0000226377Y0001220866I-0000070866D01G03G03G03G03X0000226377Y0001220866I-0000070866D01X0000226377Y0001220866I-0000070866D01X0000226377Y0001220866I-0000070866D01G03G03X0000226377Y0001220866I-0000070866D01G03G03X0000226377Y0001220866I-0000070866D01X0000226377Y0001220866I-0000070866D01X0000226377Y0001220866I-0000070866D01X0000226377Y0001220866I-0000070866D01X0000226377Y0001220866I-0000070866D01*
G01G01G01G01G01G01G01G01G01G01G01G01G01G01G01G01*
D102*
X0002640944Y0000559448D02*
G75*
G03G03G03G03X0002640944Y0000559448I-0000104724D01X0002640944Y0000559448I-0000104724D01G03G03X0002640944Y0000559448I-0000104724D01G03G03X0002640944Y0000559448I-0000104724D01X0002640944Y0000559448I-0000104724D01X0002640944Y0000559448I-0000104724D01X0002640944Y0000559448I-0000104724D01G03G03G03G03X0002640944Y0000559448I-0000104724D01X0002640944Y0000559448I-0000104724D01X0002640944Y0000559448I-0000104724D01G03G03X0002640944Y0000559448I-0000104724D01G03G03X0002640944Y0000559448I-0000104724D01X0002640944Y0000559448I-0000104724D01X0002640944Y0000559448I-0000104724D01X0002640944Y0000559448I-0000104724D01X0002640944Y0000559448I-0000104724D01*
G01G01G01G01G01G01G01G01G01G01G01G01G01G01G01G01*
D103*
X0002651574Y0000631889D02*
X0002651574Y0000486614D01*
D104*
X0002687007Y0000559448D02*
G75*
G03G03G03G03X0002687007Y0000559448I-0000150787D01X0002687007Y0000559448I-0000150787D01G03G03X0002687007Y0000559448I-0000150787D01G03G03X0002687007Y0000559448I-0000150787D01X0002687007Y0000559448I-0000150787D01X0002687007Y0000559448I-0000150787D01X0002687007Y0000559448I-0000150787D01G03G03G03G03X0002687007Y0000559448I-0000150787D01X0002687007Y0000559448I-0000150787D01X0002687007Y0000559448I-0000150787D01G03G03X0002687007Y0000559448I-0000150787D01G03G03X0002687007Y0000559448I-0000150787D01X0002687007Y0000559448I-0000150787D01X0002687007Y0000559448I-0000150787D01X0002687007Y0000559448I-0000150787D01X0002687007Y0000559448I-0000150787D01*
G01G01G01G01G01G01G01G01G01G01G01G01G01G01G01G01*
D102*
X0002129133Y0000559448D02*
G75*
G03G03G03G03X0002129133Y0000559448I-0000104724D01X0002129133Y0000559448I-0000104724D01G03G03X0002129133Y0000559448I-0000104724D01G03G03X0002129133Y0000559448I-0000104724D01X0002129133Y0000559448I-0000104724D01X0002129133Y0000559448I-0000104724D01X0002129133Y0000559448I-0000104724D01G03G03G03G03X0002129133Y0000559448I-0000104724D01X0002129133Y0000559448I-0000104724D01X0002129133Y0000559448I-0000104724D01G03G03X0002129133Y0000559448I-0000104724D01G03G03X0002129133Y0000559448I-0000104724D01X0002129133Y0000559448I-0000104724D01X0002129133Y0000559448I-0000104724D01X0002129133Y0000559448I-0000104724D01X0002129133Y0000559448I-0000104724D01*
G01G01G01G01G01G01G01G01G01G01G01G01G01G01G01G01*
D103*
X0002139763Y0000631889D02*
X0002139763Y0000486614D01*
D104*
X0002175196Y0000559448D02*
G75*
G03G03G03G03X0002175196Y0000559448I-0000150787D01X0002175196Y0000559448I-0000150787D01G03G03X0002175196Y0000559448I-0000150787D01G03G03X0002175196Y0000559448I-0000150787D01X0002175196Y0000559448I-0000150787D01X0002175196Y0000559448I-0000150787D01X0002175196Y0000559448I-0000150787D01G03G03G03G03X0002175196Y0000559448I-0000150787D01X0002175196Y0000559448I-0000150787D01X0002175196Y0000559448I-0000150787D01G03G03X0002175196Y0000559448I-0000150787D01G03G03X0002175196Y0000559448I-0000150787D01X0002175196Y0000559448I-0000150787D01X0002175196Y0000559448I-0000150787D01X0002175196Y0000559448I-0000150787D01X0002175196Y0000559448I-0000150787D01*
G01G01G01G01G01G01G01G01G01G01G01G01G01G01G01G01*
D102*
X0002640944Y0001110629D02*
G75*
G03G03G03G03X0002640944Y0001110629I-0000104724D01X0002640944Y0001110629I-0000104724D01G03G03X0002640944Y0001110629I-0000104724D01G03G03X0002640944Y0001110629I-0000104724D01X0002640944Y0001110629I-0000104724D01X0002640944Y0001110629I-0000104724D01X0002640944Y0001110629I-0000104724D01G03G03G03G03X0002640944Y0001110629I-0000104724D01X0002640944Y0001110629I-0000104724D01X0002640944Y0001110629I-0000104724D01G03G03X0002640944Y0001110629I-0000104724D01G03G03X0002640944Y0001110629I-0000104724D01X0002640944Y0001110629I-0000104724D01X0002640944Y0001110629I-0000104724D01X0002640944Y0001110629I-0000104724D01X0002640944Y0001110629I-0000104724D01*
G01G01G01G01G01G01G01G01G01G01G01G01G01G01G01G01*
D103*
X0002651574Y0001183070D02*
X0002651574Y0001037795D01*
D104*
X0002687007Y0001110629D02*
G75*
G03G03G03G03X0002687007Y0001110629I-0000150787D01X0002687007Y0001110629I-0000150787D01G03G03X0002687007Y0001110629I-0000150787D01G03G03X0002687007Y0001110629I-0000150787D01X0002687007Y0001110629I-0000150787D01X0002687007Y0001110629I-0000150787D01X0002687007Y0001110629I-0000150787D01G03G03G03G03X0002687007Y0001110629I-0000150787D01X0002687007Y0001110629I-0000150787D01X0002687007Y0001110629I-0000150787D01G03G03X0002687007Y0001110629I-0000150787D01G03G03X0002687007Y0001110629I-0000150787D01X0002687007Y0001110629I-0000150787D01X0002687007Y0001110629I-0000150787D01X0002687007Y0001110629I-0000150787D01X0002687007Y0001110629I-0000150787D01*
G01G01G01G01G01G01G01G01G01G01G01G01G01G01G01G01*
D102*
X0002129133Y0001110629D02*
G75*
G03G03G03G03X0002129133Y0001110629I-0000104724D01X0002129133Y0001110629I-0000104724D01G03G03X0002129133Y0001110629I-0000104724D01G03G03X0002129133Y0001110629I-0000104724D01X0002129133Y0001110629I-0000104724D01X0002129133Y0001110629I-0000104724D01X0002129133Y0001110629I-0000104724D01G03G03G03G03X0002129133Y0001110629I-0000104724D01X0002129133Y0001110629I-0000104724D01X0002129133Y0001110629I-0000104724D01G03G03X0002129133Y0001110629I-0000104724D01G03G03X0002129133Y0001110629I-0000104724D01X0002129133Y0001110629I-0000104724D01X0002129133Y0001110629I-0000104724D01X0002129133Y0001110629I-0000104724D01X0002129133Y0001110629I-0000104724D01*
G01G01G01G01G01G01G01G01G01G01G01G01G01G01G01G01*
D103*
X0002139763Y0001183070D02*
X0002139763Y0001037795D01*
D104*
X0002175196Y0001110629D02*
G75*
G03G03G03G03X0002175196Y0001110629I-0000150787D01X0002175196Y0001110629I-0000150787D01G03G03X0002175196Y0001110629I-0000150787D01G03G03X0002175196Y0001110629I-0000150787D01X0002175196Y0001110629I-0000150787D01X0002175196Y0001110629I-0000150787D01X0002175196Y0001110629I-0000150787D01G03G03G03G03X0002175196Y0001110629I-0000150787D01X0002175196Y0001110629I-0000150787D01X0002175196Y0001110629I-0000150787D01G03G03X0002175196Y0001110629I-0000150787D01G03G03X0002175196Y0001110629I-0000150787D01X0002175196Y0001110629I-0000150787D01X0002175196Y0001110629I-0000150787D01X0002175196Y0001110629I-0000150787D01X0002175196Y0001110629I-0000150787D01*
G01G01G01G01G01G01G01G01G01G01G01G01G01G01G01G01*
D102*
X0001577952Y0000559448D02*
G75*
G03G03G03G03X0001577952Y0000559448I-0000104724D01X0001577952Y0000559448I-0000104724D01G03G03X0001577952Y0000559448I-0000104724D01G03G03X0001577952Y0000559448I-0000104724D01X0001577952Y0000559448I-0000104724D01X0001577952Y0000559448I-0000104724D01X0001577952Y0000559448I-0000104724D01G03G03G03G03X0001577952Y0000559448I-0000104724D01X0001577952Y0000559448I-0000104724D01X0001577952Y0000559448I-0000104724D01G03G03X0001577952Y0000559448I-0000104724D01G03G03X0001577952Y0000559448I-0000104724D01X0001577952Y0000559448I-0000104724D01X0001577952Y0000559448I-0000104724D01X0001577952Y0000559448I-0000104724D01X0001577952Y0000559448I-0000104724D01*
G01G01G01G01G01G01G01G01G01G01G01G01G01G01G01G01*
D103*
X0001588582Y0000631889D02*
X0001588582Y0000486614D01*
D104*
X0001624015Y0000559448D02*
G75*
G03G03G03G03X0001624015Y0000559448I-0000150787D01X0001624015Y0000559448I-0000150787D01G03G03X0001624015Y0000559448I-0000150787D01G03G03X0001624015Y0000559448I-0000150787D01X0001624015Y0000559448I-0000150787D01X0001624015Y0000559448I-0000150787D01X0001624015Y0000559448I-0000150787D01G03G03G03G03X0001624015Y0000559448I-0000150787D01X0001624015Y0000559448I-0000150787D01X0001624015Y0000559448I-0000150787D01G03G03X0001624015Y0000559448I-0000150787D01G03G03X0001624015Y0000559448I-0000150787D01X0001624015Y0000559448I-0000150787D01X0001624015Y0000559448I-0000150787D01X0001624015Y0000559448I-0000150787D01X0001624015Y0000559448I-0000150787D01*
G01G01G01G01G01G01G01G01G01G01G01G01G01G01G01G01*
D102*
X0001066141Y0000559448D02*
G75*
G03G03G03G03X0001066141Y0000559448I-0000104724D01X0001066141Y0000559448I-0000104724D01G03G03X0001066141Y0000559448I-0000104724D01G03G03X0001066141Y0000559448I-0000104724D01X0001066141Y0000559448I-0000104724D01X0001066141Y0000559448I-0000104724D01X0001066141Y0000559448I-0000104724D01G03G03G03G03X0001066141Y0000559448I-0000104724D01X0001066141Y0000559448I-0000104724D01X0001066141Y0000559448I-0000104724D01G03G03X0001066141Y0000559448I-0000104724D01G03G03X0001066141Y0000559448I-0000104724D01X0001066141Y0000559448I-0000104724D01X0001066141Y0000559448I-0000104724D01X0001066141Y0000559448I-0000104724D01X0001066141Y0000559448I-0000104724D01*
G01G01G01G01G01G01G01G01G01G01G01G01G01G01G01G01*
D103*
X0001076771Y0000631889D02*
X0001076771Y0000486614D01*
D104*
X0001112204Y0000559448D02*
G75*
G03G03G03G03X0001112204Y0000559448I-0000150787D01X0001112204Y0000559448I-0000150787D01G03G03X0001112204Y0000559448I-0000150787D01G03G03X0001112204Y0000559448I-0000150787D01X0001112204Y0000559448I-0000150787D01X0001112204Y0000559448I-0000150787D01X0001112204Y0000559448I-0000150787D01G03G03G03G03X0001112204Y0000559448I-0000150787D01X0001112204Y0000559448I-0000150787D01X0001112204Y0000559448I-0000150787D01G03G03X0001112204Y0000559448I-0000150787D01G03G03X0001112204Y0000559448I-0000150787D01X0001112204Y0000559448I-0000150787D01X0001112204Y0000559448I-0000150787D01X0001112204Y0000559448I-0000150787D01X0001112204Y0000559448I-0000150787D01*
G01G01G01G01G01G01G01G01G01G01G01G01G01G01G01G01*
D102*
X0000554330Y0000559448D02*
G75*
G03G03G03G03X0000554330Y0000559448I-0000104724D01X0000554330Y0000559448I-0000104724D01G03G03X0000554330Y0000559448I-0000104724D01G03G03X0000554330Y0000559448I-0000104724D01X0000554330Y0000559448I-0000104724D01X0000554330Y0000559448I-0000104724D01X0000554330Y0000559448I-0000104724D01G03G03G03G03X0000554330Y0000559448I-0000104724D01X0000554330Y0000559448I-0000104724D01X0000554330Y0000559448I-0000104724D01G03G03X0000554330Y0000559448I-0000104724D01G03G03X0000554330Y0000559448I-0000104724D01X0000554330Y0000559448I-0000104724D01X0000554330Y0000559448I-0000104724D01X0000554330Y0000559448I-0000104724D01X0000554330Y0000559448I-0000104724D01*
G01G01G01G01G01G01G01G01G01G01G01G01G01G01G01G01*
D103*
X0000564960Y0000631889D02*
X0000564960Y0000486614D01*
D104*
X0000600393Y0000559448D02*
G75*
G03G03G03G03X0000600393Y0000559448I-0000150787D01X0000600393Y0000559448I-0000150787D01G03G03X0000600393Y0000559448I-0000150787D01G03G03X0000600393Y0000559448I-0000150787D01X0000600393Y0000559448I-0000150787D01X0000600393Y0000559448I-0000150787D01X0000600393Y0000559448I-0000150787D01G03G03G03G03X0000600393Y0000559448I-0000150787D01X0000600393Y0000559448I-0000150787D01X0000600393Y0000559448I-0000150787D01G03G03X0000600393Y0000559448I-0000150787D01G03G03X0000600393Y0000559448I-0000150787D01X0000600393Y0000559448I-0000150787D01X0000600393Y0000559448I-0000150787D01X0000600393Y0000559448I-0000150787D01X0000600393Y0000559448I-0000150787D01*
G01G01G01G01G01G01G01G01G01G01G01G01G01G01G01G01*
D102*
X0001577952Y0001110629D02*
G75*
G03G03G03G03X0001577952Y0001110629I-0000104724D01X0001577952Y0001110629I-0000104724D01G03G03X0001577952Y0001110629I-0000104724D01G03G03X0001577952Y0001110629I-0000104724D01X0001577952Y0001110629I-0000104724D01X0001577952Y0001110629I-0000104724D01X0001577952Y0001110629I-0000104724D01G03G03G03G03X0001577952Y0001110629I-0000104724D01X0001577952Y0001110629I-0000104724D01X0001577952Y0001110629I-0000104724D01G03G03X0001577952Y0001110629I-0000104724D01G03G03X0001577952Y0001110629I-0000104724D01X0001577952Y0001110629I-0000104724D01X0001577952Y0001110629I-0000104724D01X0001577952Y0001110629I-0000104724D01X0001577952Y0001110629I-0000104724D01*
G01G01G01G01G01G01G01G01G01G01G01G01G01G01G01G01*
D103*
X0001588582Y0001183070D02*
X0001588582Y0001037795D01*
D104*
X0001624015Y0001110629D02*
G75*
G03G03G03G03X0001624015Y0001110629I-0000150787D01X0001624015Y0001110629I-0000150787D01G03G03X0001624015Y0001110629I-0000150787D01G03G03X0001624015Y0001110629I-0000150787D01X0001624015Y0001110629I-0000150787D01X0001624015Y0001110629I-0000150787D01X0001624015Y0001110629I-0000150787D01G03G03G03G03X0001624015Y0001110629I-0000150787D01X0001624015Y0001110629I-0000150787D01X0001624015Y0001110629I-0000150787D01G03G03X0001624015Y0001110629I-0000150787D01G03G03X0001624015Y0001110629I-0000150787D01X0001624015Y0001110629I-0000150787D01X0001624015Y0001110629I-0000150787D01X0001624015Y0001110629I-0000150787D01X0001624015Y0001110629I-0000150787D01*
G01G01G01G01G01G01G01G01G01G01G01G01G01G01G01G01*
D102*
X0001066141Y0001110629D02*
G75*
G03G03G03G03X0001066141Y0001110629I-0000104724D01X0001066141Y0001110629I-0000104724D01G03G03X0001066141Y0001110629I-0000104724D01G03G03X0001066141Y0001110629I-0000104724D01X0001066141Y0001110629I-0000104724D01X0001066141Y0001110629I-0000104724D01X0001066141Y0001110629I-0000104724D01G03G03G03G03X0001066141Y0001110629I-0000104724D01X0001066141Y0001110629I-0000104724D01X0001066141Y0001110629I-0000104724D01G03G03X0001066141Y0001110629I-0000104724D01G03G03X0001066141Y0001110629I-0000104724D01X0001066141Y0001110629I-0000104724D01X0001066141Y0001110629I-0000104724D01X0001066141Y0001110629I-0000104724D01X0001066141Y0001110629I-0000104724D01*
G01G01G01G01G01G01G01G01G01G01G01G01G01G01G01G01*
D103*
X0001076771Y0001183070D02*
X0001076771Y0001037795D01*
D104*
X0001112204Y0001110629D02*
G75*
G03G03G03G03X0001112204Y0001110629I-0000150787D01X0001112204Y0001110629I-0000150787D01G03G03X0001112204Y0001110629I-0000150787D01G03G03X0001112204Y0001110629I-0000150787D01X0001112204Y0001110629I-0000150787D01X0001112204Y0001110629I-0000150787D01X0001112204Y0001110629I-0000150787D01G03G03G03G03X0001112204Y0001110629I-0000150787D01X0001112204Y0001110629I-0000150787D01X0001112204Y0001110629I-0000150787D01G03G03X0001112204Y0001110629I-0000150787D01G03G03X0001112204Y0001110629I-0000150787D01X0001112204Y0001110629I-0000150787D01X0001112204Y0001110629I-0000150787D01X0001112204Y0001110629I-0000150787D01X0001112204Y0001110629I-0000150787D01*
G01G01G01G01G01G01G01G01G01G01G01G01G01G01G01G01*
D102*
X0000554330Y0001110629D02*
G75*
G03G03G03G03X0000554330Y0001110629I-0000104724D01X0000554330Y0001110629I-0000104724D01G03G03X0000554330Y0001110629I-0000104724D01G03G03X0000554330Y0001110629I-0000104724D01X0000554330Y0001110629I-0000104724D01X0000554330Y0001110629I-0000104724D01X0000554330Y0001110629I-0000104724D01G03G03G03G03X0000554330Y0001110629I-0000104724D01X0000554330Y0001110629I-0000104724D01X0000554330Y0001110629I-0000104724D01G03G03X0000554330Y0001110629I-0000104724D01G03G03X0000554330Y0001110629I-0000104724D01X0000554330Y0001110629I-0000104724D01X0000554330Y0001110629I-0000104724D01X0000554330Y0001110629I-0000104724D01X0000554330Y0001110629I-0000104724D01*
G01G01G01G01G01G01G01G01G01G01G01G01G01G01G01G01*
D103*
X0000564960Y0001183070D02*
X0000564960Y0001037795D01*
D104*
X0000600393Y0001110629D02*
G75*
G03G03G03G03X0000600393Y0001110629I-0000150787D01X0000600393Y0001110629I-0000150787D01G03G03X0000600393Y0001110629I-0000150787D01G03G03X0000600393Y0001110629I-0000150787D01X0000600393Y0001110629I-0000150787D01X0000600393Y0001110629I-0000150787D01X0000600393Y0001110629I-0000150787D01G03G03G03G03X0000600393Y0001110629I-0000150787D01X0000600393Y0001110629I-0000150787D01X0000600393Y0001110629I-0000150787D01G03G03X0000600393Y0001110629I-0000150787D01G03G03X0000600393Y0001110629I-0000150787D01X0000600393Y0001110629I-0000150787D01X0000600393Y0001110629I-0000150787D01X0000600393Y0001110629I-0000150787D01X0000600393Y0001110629I-0000150787D01*
G01G01G01G01G01G01G01G01G01G01G01G01G01G01G01G01*
G04 next file*
G04 #@! TF.FileFunction,Soldermask,Bot*
G04 Gerber Fmt 4.6, Leading zero omitted, Abs format (unit mm)*
G04 Created by KiCad (PCBNEW (2016-09-17 revision 679eef1)-makepkg) date 09/24/16 16:35:10*
G01G01G01G01G01G01G01G01G01G01G01G01G01G01G01G01*
G04 APERTURE LIST*
G04 APERTURE END LIST*
D115*
D116*
X0002903543Y0002677952D02*
G75*
G03G03G03G03X0002903543Y0002677952I-0000070866D01X0002903543Y0002677952I-0000070866D01G03G03X0002903543Y0002677952I-0000070866D01G03G03X0002903543Y0002677952I-0000070866D01X0002903543Y0002677952I-0000070866D01X0002903543Y0002677952I-0000070866D01X0002903543Y0002677952I-0000070866D01G03G03G03G03X0002903543Y0002677952I-0000070866D01X0002903543Y0002677952I-0000070866D01X0002903543Y0002677952I-0000070866D01G03G03X0002903543Y0002677952I-0000070866D01G03G03X0002903543Y0002677952I-0000070866D01X0002903543Y0002677952I-0000070866D01X0002903543Y0002677952I-0000070866D01X0002903543Y0002677952I-0000070866D01X0002903543Y0002677952I-0000070866D01*
G01G01G01G01G01G01G01G01G01G01G01G01G01G01G01G01*
X0002902755Y0001611811D02*
G75*
G03G03G03G03X0002902755Y0001611811I-0000070866D01X0002902755Y0001611811I-0000070866D01G03G03X0002902755Y0001611811I-0000070866D01G03G03X0002902755Y0001611811I-0000070866D01X0002902755Y0001611811I-0000070866D01X0002902755Y0001611811I-0000070866D01X0002902755Y0001611811I-0000070866D01G03G03G03G03X0002902755Y0001611811I-0000070866D01X0002902755Y0001611811I-0000070866D01X0002902755Y0001611811I-0000070866D01G03G03X0002902755Y0001611811I-0000070866D01G03G03X0002902755Y0001611811I-0000070866D01X0002902755Y0001611811I-0000070866D01X0002902755Y0001611811I-0000070866D01X0002902755Y0001611811I-0000070866D01X0002902755Y0001611811I-0000070866D01*
G01G01G01G01G01G01G01G01G01G01G01G01G01G01G01G01*
X0000225984Y0001612992D02*
G75*
G03G03G03G03X0000225984Y0001612992I-0000070866D01X0000225984Y0001612992I-0000070866D01G03G03X0000225984Y0001612992I-0000070866D01G03G03X0000225984Y0001612992I-0000070866D01X0000225984Y0001612992I-0000070866D01X0000225984Y0001612992I-0000070866D01X0000225984Y0001612992I-0000070866D01G03G03G03G03X0000225984Y0001612992I-0000070866D01X0000225984Y0001612992I-0000070866D01X0000225984Y0001612992I-0000070866D01G03G03X0000225984Y0001612992I-0000070866D01G03G03X0000225984Y0001612992I-0000070866D01X0000225984Y0001612992I-0000070866D01X0000225984Y0001612992I-0000070866D01X0000225984Y0001612992I-0000070866D01X0000225984Y0001612992I-0000070866D01*
G01G01G01G01G01G01G01G01G01G01G01G01G01G01G01G01*
X0000226377Y0002677559D02*
G75*
G03G03G03G03X0000226377Y0002677559I-0000070866D01X0000226377Y0002677559I-0000070866D01G03G03X0000226377Y0002677559I-0000070866D01G03G03X0000226377Y0002677559I-0000070866D01X0000226377Y0002677559I-0000070866D01X0000226377Y0002677559I-0000070866D01X0000226377Y0002677559I-0000070866D01G03G03G03G03X0000226377Y0002677559I-0000070866D01X0000226377Y0002677559I-0000070866D01X0000226377Y0002677559I-0000070866D01G03G03X0000226377Y0002677559I-0000070866D01G03G03X0000226377Y0002677559I-0000070866D01X0000226377Y0002677559I-0000070866D01X0000226377Y0002677559I-0000070866D01X0000226377Y0002677559I-0000070866D01X0000226377Y0002677559I-0000070866D01*
G01G01G01G01G01G01G01G01G01G01G01G01G01G01G01G01*
D117*
X0001210236Y0002223228D02*
G75*
G03G03G03G03X0001210236Y0002223228I-0000104724D01X0001210236Y0002223228I-0000104724D01G03G03X0001210236Y0002223228I-0000104724D01G03G03X0001210236Y0002223228I-0000104724D01X0001210236Y0002223228I-0000104724D01X0001210236Y0002223228I-0000104724D01X0001210236Y0002223228I-0000104724D01G03G03G03G03X0001210236Y0002223228I-0000104724D01X0001210236Y0002223228I-0000104724D01X0001210236Y0002223228I-0000104724D01G03G03X0001210236Y0002223228I-0000104724D01G03G03X0001210236Y0002223228I-0000104724D01X0001210236Y0002223228I-0000104724D01X0001210236Y0002223228I-0000104724D01X0001210236Y0002223228I-0000104724D01X0001210236Y0002223228I-0000104724D01*
G01G01G01G01G01G01G01G01G01G01G01G01G01G01G01G01*
D118*
X0001220866Y0002295669D02*
X0001220866Y0002150393D01*
D119*
X0001256299Y0002223228D02*
G75*
G03G03G03G03X0001256299Y0002223228I-0000150787D01X0001256299Y0002223228I-0000150787D01G03G03X0001256299Y0002223228I-0000150787D01G03G03X0001256299Y0002223228I-0000150787D01X0001256299Y0002223228I-0000150787D01X0001256299Y0002223228I-0000150787D01X0001256299Y0002223228I-0000150787D01G03G03G03G03X0001256299Y0002223228I-0000150787D01X0001256299Y0002223228I-0000150787D01X0001256299Y0002223228I-0000150787D01G03G03X0001256299Y0002223228I-0000150787D01G03G03X0001256299Y0002223228I-0000150787D01X0001256299Y0002223228I-0000150787D01X0001256299Y0002223228I-0000150787D01X0001256299Y0002223228I-0000150787D01X0001256299Y0002223228I-0000150787D01*
G01G01G01G01G01G01G01G01G01G01G01G01G01G01G01G01*
D117*
X0000698425Y0002223228D02*
G75*
G03G03G03G03X0000698425Y0002223228I-0000104724D01X0000698425Y0002223228I-0000104724D01G03G03X0000698425Y0002223228I-0000104724D01G03G03X0000698425Y0002223228I-0000104724D01X0000698425Y0002223228I-0000104724D01X0000698425Y0002223228I-0000104724D01X0000698425Y0002223228I-0000104724D01G03G03G03G03X0000698425Y0002223228I-0000104724D01X0000698425Y0002223228I-0000104724D01X0000698425Y0002223228I-0000104724D01G03G03X0000698425Y0002223228I-0000104724D01G03G03X0000698425Y0002223228I-0000104724D01X0000698425Y0002223228I-0000104724D01X0000698425Y0002223228I-0000104724D01X0000698425Y0002223228I-0000104724D01X0000698425Y0002223228I-0000104724D01*
G01G01G01G01G01G01G01G01G01G01G01G01G01G01G01G01*
D118*
X0000709055Y0002295669D02*
X0000709055Y0002150393D01*
D119*
X0000744488Y0002223228D02*
G75*
G03G03G03G03X0000744488Y0002223228I-0000150787D01X0000744488Y0002223228I-0000150787D01G03G03X0000744488Y0002223228I-0000150787D01G03G03X0000744488Y0002223228I-0000150787D01X0000744488Y0002223228I-0000150787D01X0000744488Y0002223228I-0000150787D01X0000744488Y0002223228I-0000150787D01G03G03G03G03X0000744488Y0002223228I-0000150787D01X0000744488Y0002223228I-0000150787D01X0000744488Y0002223228I-0000150787D01G03G03X0000744488Y0002223228I-0000150787D01G03G03X0000744488Y0002223228I-0000150787D01X0000744488Y0002223228I-0000150787D01X0000744488Y0002223228I-0000150787D01X0000744488Y0002223228I-0000150787D01X0000744488Y0002223228I-0000150787D01*
G01G01G01G01G01G01G01G01G01G01G01G01G01G01G01G01*
D117*
X0002509448Y0002223228D02*
G75*
G03G03G03G03X0002509448Y0002223228I-0000104724D01X0002509448Y0002223228I-0000104724D01G03G03X0002509448Y0002223228I-0000104724D01G03G03X0002509448Y0002223228I-0000104724D01X0002509448Y0002223228I-0000104724D01X0002509448Y0002223228I-0000104724D01X0002509448Y0002223228I-0000104724D01G03G03G03G03X0002509448Y0002223228I-0000104724D01X0002509448Y0002223228I-0000104724D01X0002509448Y0002223228I-0000104724D01G03G03X0002509448Y0002223228I-0000104724D01G03G03X0002509448Y0002223228I-0000104724D01X0002509448Y0002223228I-0000104724D01X0002509448Y0002223228I-0000104724D01X0002509448Y0002223228I-0000104724D01X0002509448Y0002223228I-0000104724D01*
G01G01G01G01G01G01G01G01G01G01G01G01G01G01G01G01*
D118*
X0002520078Y0002295669D02*
X0002520078Y0002150393D01*
D119*
X0002555511Y0002223228D02*
G75*
G03G03G03G03X0002555511Y0002223228I-0000150787D01X0002555511Y0002223228I-0000150787D01G03G03X0002555511Y0002223228I-0000150787D01G03G03X0002555511Y0002223228I-0000150787D01X0002555511Y0002223228I-0000150787D01X0002555511Y0002223228I-0000150787D01X0002555511Y0002223228I-0000150787D01G03G03G03G03X0002555511Y0002223228I-0000150787D01X0002555511Y0002223228I-0000150787D01X0002555511Y0002223228I-0000150787D01G03G03X0002555511Y0002223228I-0000150787D01G03G03X0002555511Y0002223228I-0000150787D01X0002555511Y0002223228I-0000150787D01X0002555511Y0002223228I-0000150787D01X0002555511Y0002223228I-0000150787D01X0002555511Y0002223228I-0000150787D01*
G01G01G01G01G01G01G01G01G01G01G01G01G01G01G01G01*
D117*
X0001997637Y0002223228D02*
G75*
G03G03G03G03X0001997637Y0002223228I-0000104724D01X0001997637Y0002223228I-0000104724D01G03G03X0001997637Y0002223228I-0000104724D01G03G03X0001997637Y0002223228I-0000104724D01X0001997637Y0002223228I-0000104724D01X0001997637Y0002223228I-0000104724D01X0001997637Y0002223228I-0000104724D01G03G03G03G03X0001997637Y0002223228I-0000104724D01X0001997637Y0002223228I-0000104724D01X0001997637Y0002223228I-0000104724D01G03G03X0001997637Y0002223228I-0000104724D01G03G03X0001997637Y0002223228I-0000104724D01X0001997637Y0002223228I-0000104724D01X0001997637Y0002223228I-0000104724D01X0001997637Y0002223228I-0000104724D01X0001997637Y0002223228I-0000104724D01*
G01G01G01G01G01G01G01G01G01G01G01G01G01G01G01G01*
D118*
X0002008267Y0002295669D02*
X0002008267Y0002150393D01*
D119*
X0002043699Y0002223228D02*
G75*
G03G03G03G03X0002043699Y0002223228I-0000150787D01X0002043699Y0002223228I-0000150787D01G03G03X0002043699Y0002223228I-0000150787D01G03G03X0002043699Y0002223228I-0000150787D01X0002043699Y0002223228I-0000150787D01X0002043699Y0002223228I-0000150787D01X0002043699Y0002223228I-0000150787D01G03G03G03G03X0002043699Y0002223228I-0000150787D01X0002043699Y0002223228I-0000150787D01X0002043699Y0002223228I-0000150787D01G03G03X0002043699Y0002223228I-0000150787D01G03G03X0002043699Y0002223228I-0000150787D01X0002043699Y0002223228I-0000150787D01X0002043699Y0002223228I-0000150787D01X0002043699Y0002223228I-0000150787D01X0002043699Y0002223228I-0000150787D01*
G01G01G01G01G01G01G01G01G01G01G01G01G01G01G01G01*
M02*