%MOIN*%
%OFA0B0*%
%FSLAX46Y46*%
%IPPOS*%
%LPD*%
%ADD10C,0.005905511811023622*%
%ADD11C,0.0039370078740157488*%
%ADD12C,0.027559055118110236*%
%ADD13C,0.053149606299212608*%
%ADD14C,0.11811023622047245*%
%ADD15C,0.03937007874015748*%
%ADD16C,0.01*%
%ADD27C,0.005905511811023622*%
%ADD28C,0.0078740157480314977*%
%ADD39C,0.005905511811023622*%
%ADD40C,0.0078740157480314977*%
%ADD51C,0.005905511811023622*%
%ADD52C,0.0039370078740157488*%
%ADD53C,0.20472440944881892*%
%ADD54C,0.01*%
%ADD65C,0.005905511811023622*%
%ADD66C,0.0039370078740157488*%
%ADD67C,0.20472440944881892*%
%ADD68C,0.01*%
%ADD79C,0.005905511811023622*%
%ADD80C,0.0039370078740157488*%
%ADD81C,0.20472440944881892*%
%ADD82C,0.01*%
%ADD93C,0.005905511811023622*%
%ADD94C,0.0039370078740157488*%
%ADD95C,0.20472440944881892*%
%ADD96C,0.01*%
%ADD107C,0.005905511811023622*%
%ADD108C,0.011811023622047244*%
%ADD109C,0.0039370078740157488*%
%ADD110C,0.027559055118110236*%
%ADD111C,0.053149606299212608*%
%ADD112C,0.11811023622047245*%
%ADD113C,0.01*%
%ADD124C,0.005905511811023622*%
%ADD125C,0.011811023622047244*%
%ADD126C,0.0039370078740157488*%
%ADD127C,0.027559055118110236*%
%ADD128C,0.053149606299212608*%
%ADD129C,0.11811023622047245*%
%ADD130C,0.01*%
%LPD*%
G01G01G01G01G01G01G01G01*
D10*
D11*
X0000318644Y0003990850D02*
X0000306833Y0004009598D01*
X0000298397Y0003990850D02*
X0000298397Y0004030221D01*
X0000311895Y0004030221D01*
X0000315269Y0004028346D01*
X0000316957Y0004026471D01*
X0000318644Y0004022722D01*
X0000318644Y0004017095D01*
X0000316957Y0004013347D01*
X0000315269Y0004011472D01*
X0000311895Y0004009598D01*
X0000298397Y0004009598D01*
X0000345641Y0004011472D02*
X0000333830Y0004011472D01*
X0000333830Y0003990850D02*
X0000333830Y0004030221D01*
X0000350703Y0004030221D01*
X0000386136Y0004030221D02*
X0000406383Y0004030221D01*
X0000396259Y0003990850D02*
X0000396259Y0004030221D01*
X0000418193Y0003990850D02*
X0000418193Y0004017095D01*
X0000418193Y0004009598D02*
X0000419881Y0004013347D01*
X0000421569Y0004015221D01*
X0000424943Y0004017095D01*
X0000428318Y0004017095D01*
X0000455314Y0003990850D02*
X0000455314Y0004011472D01*
X0000453627Y0004015221D01*
X0000450253Y0004017095D01*
X0000443503Y0004017095D01*
X0000440129Y0004015221D01*
X0000455314Y0003992725D02*
X0000451939Y0003990850D01*
X0000443503Y0003990850D01*
X0000440129Y0003992725D01*
X0000438442Y0003996475D01*
X0000438442Y0004000225D01*
X0000440129Y0004003974D01*
X0000443503Y0004005849D01*
X0000451939Y0004005849D01*
X0000455314Y0004007723D01*
X0000472187Y0004017095D02*
X0000472187Y0003990850D01*
X0000472187Y0004013347D02*
X0000473875Y0004015221D01*
X0000477249Y0004017095D01*
X0000482311Y0004017095D01*
X0000485686Y0004015221D01*
X0000487373Y0004011472D01*
X0000487373Y0003990850D01*
X0000502559Y0003992725D02*
X0000505932Y0003990850D01*
X0000512682Y0003990850D01*
X0000516057Y0003992725D01*
X0000517744Y0003996475D01*
X0000517744Y0003998350D01*
X0000516057Y0004002099D01*
X0000512682Y0004003974D01*
X0000507619Y0004003974D01*
X0000504246Y0004005849D01*
X0000502559Y0004009598D01*
X0000502559Y0004011472D01*
X0000504246Y0004015221D01*
X0000507619Y0004017095D01*
X0000512682Y0004017095D01*
X0000516057Y0004015221D01*
X0000548115Y0003992725D02*
X0000544741Y0003990850D01*
X0000537992Y0003990850D01*
X0000534617Y0003992725D01*
X0000532930Y0003994600D01*
X0000531242Y0003998350D01*
X0000531242Y0004009598D01*
X0000532930Y0004013347D01*
X0000534617Y0004015221D01*
X0000537992Y0004017095D01*
X0000544741Y0004017095D01*
X0000548115Y0004015221D01*
X0000576799Y0003992725D02*
X0000573425Y0003990850D01*
X0000566676Y0003990850D01*
X0000563301Y0003992725D01*
X0000561614Y0003996475D01*
X0000561614Y0004011472D01*
X0000563301Y0004015221D01*
X0000566676Y0004017095D01*
X0000573425Y0004017095D01*
X0000576799Y0004015221D01*
X0000578487Y0004011472D01*
X0000578487Y0004007723D01*
X0000561614Y0004003974D01*
X0000593672Y0003990850D02*
X0000593672Y0004017095D01*
X0000593672Y0004030221D02*
X0000591985Y0004028346D01*
X0000593672Y0004026471D01*
X0000595359Y0004028346D01*
X0000593672Y0004030221D01*
X0000593672Y0004026471D01*
X0000607170Y0004017095D02*
X0000615607Y0003990850D01*
X0000624043Y0004017095D01*
X0000651040Y0003992725D02*
X0000647665Y0003990850D01*
X0000640916Y0003990850D01*
X0000637542Y0003992725D01*
X0000635853Y0003996475D01*
X0000635853Y0004011472D01*
X0000637542Y0004015221D01*
X0000640916Y0004017095D01*
X0000647665Y0004017095D01*
X0000651040Y0004015221D01*
X0000652727Y0004011472D01*
X0000652727Y0004007723D01*
X0000635853Y0004003974D01*
X0000667913Y0003990850D02*
X0000667913Y0004017095D01*
X0000667913Y0004009598D02*
X0000669600Y0004013347D01*
X0000671287Y0004015221D01*
X0000674661Y0004017095D01*
X0000678037Y0004017095D01*
X0000689847Y0003994600D02*
X0000691535Y0003992725D01*
X0000689847Y0003990850D01*
X0000688160Y0003992725D01*
X0000689847Y0003994600D01*
X0000689847Y0003990850D01*
X0000689847Y0004015221D02*
X0000691535Y0004013347D01*
X0000689847Y0004011472D01*
X0000688160Y0004013347D01*
X0000689847Y0004015221D01*
X0000689847Y0004011472D01*
X0000750590Y0003990850D02*
X0000733717Y0003990850D01*
X0000733717Y0004030221D01*
X0000762401Y0003990850D02*
X0000762401Y0004017095D01*
X0000762401Y0004030221D02*
X0000760714Y0004028346D01*
X0000762401Y0004026471D01*
X0000764088Y0004028346D01*
X0000762401Y0004030221D01*
X0000762401Y0004026471D01*
X0000779274Y0003990850D02*
X0000779274Y0004017095D01*
X0000779274Y0004013347D02*
X0000780961Y0004015221D01*
X0000784336Y0004017095D01*
X0000789398Y0004017095D01*
X0000792771Y0004015221D01*
X0000794460Y0004011472D01*
X0000794460Y0003990850D01*
X0000794460Y0004011472D02*
X0000796147Y0004015221D01*
X0000799521Y0004017095D01*
X0000804583Y0004017095D01*
X0000807958Y0004015221D01*
X0000809645Y0004011472D01*
X0000809645Y0003990850D01*
X0000840016Y0003992725D02*
X0000836642Y0003990850D01*
X0000829893Y0003990850D01*
X0000826518Y0003992725D01*
X0000824831Y0003996475D01*
X0000824831Y0004011472D01*
X0000826518Y0004015221D01*
X0000829893Y0004017095D01*
X0000836642Y0004017095D01*
X0000840016Y0004015221D01*
X0000841704Y0004011472D01*
X0000841704Y0004007723D01*
X0000824831Y0004003974D01*
X0000883885Y0003990850D02*
X0000883885Y0004030221D01*
X0000895697Y0004002099D01*
X0000907508Y0004030221D01*
X0000907508Y0003990850D01*
X0000924380Y0003990850D02*
X0000924380Y0004017095D01*
X0000924380Y0004030221D02*
X0000922694Y0004028346D01*
X0000924380Y0004026471D01*
X0000926068Y0004028346D01*
X0000924380Y0004030221D01*
X0000924380Y0004026471D01*
X0000956439Y0003992725D02*
X0000953065Y0003990850D01*
X0000946316Y0003990850D01*
X0000942941Y0003992725D01*
X0000941254Y0003994600D01*
X0000939566Y0003998350D01*
X0000939566Y0004009598D01*
X0000941254Y0004013347D01*
X0000942941Y0004015221D01*
X0000946316Y0004017095D01*
X0000953065Y0004017095D01*
X0000956439Y0004015221D01*
X0000971625Y0003990850D02*
X0000971625Y0004017095D01*
X0000971625Y0004009598D02*
X0000973311Y0004013347D01*
X0000975000Y0004015221D01*
X0000978374Y0004017095D01*
X0000981749Y0004017095D01*
X0000998622Y0003990850D02*
X0000995247Y0003992725D01*
X0000993560Y0003994600D01*
X0000991872Y0003998350D01*
X0000991872Y0004009598D01*
X0000993560Y0004013347D01*
X0000995247Y0004015221D01*
X0000998622Y0004017095D01*
X0001003683Y0004017095D01*
X0001007058Y0004015221D01*
X0001008745Y0004013347D01*
X0001010432Y0004009598D01*
X0001010432Y0003998350D01*
X0001008745Y0003994600D01*
X0001007058Y0003992725D01*
X0001003683Y0003990850D01*
X0000998622Y0003990850D01*
X0001023930Y0003992725D02*
X0001027304Y0003990850D01*
X0001034055Y0003990850D01*
X0001037428Y0003992725D01*
X0001039115Y0003996475D01*
X0001039115Y0003998350D01*
X0001037428Y0004002099D01*
X0001034055Y0004003974D01*
X0001028993Y0004003974D01*
X0001025617Y0004005849D01*
X0001023930Y0004009598D01*
X0001023930Y0004011472D01*
X0001025617Y0004015221D01*
X0001028993Y0004017095D01*
X0001034055Y0004017095D01*
X0001037428Y0004015221D01*
X0001050927Y0004017095D02*
X0001059364Y0003990850D01*
X0001067800Y0004017095D02*
X0001059364Y0003990850D01*
X0001055989Y0003981477D01*
X0001054302Y0003979602D01*
X0001050927Y0003977727D01*
X0001079611Y0003992725D02*
X0001082986Y0003990850D01*
X0001089735Y0003990850D01*
X0001093110Y0003992725D01*
X0001094797Y0003996475D01*
X0001094797Y0003998350D01*
X0001093110Y0004002099D01*
X0001089735Y0004003974D01*
X0001084673Y0004003974D01*
X0001081299Y0004005849D01*
X0001079611Y0004009598D01*
X0001079611Y0004011472D01*
X0001081299Y0004015221D01*
X0001084673Y0004017095D01*
X0001089735Y0004017095D01*
X0001093110Y0004015221D01*
X0001104921Y0004017095D02*
X0001118419Y0004017095D01*
X0001109983Y0004030221D02*
X0001109983Y0003996475D01*
X0001111670Y0003992725D01*
X0001115044Y0003990850D01*
X0001118419Y0003990850D01*
X0001143728Y0003992725D02*
X0001140354Y0003990850D01*
X0001133605Y0003990850D01*
X0001130230Y0003992725D01*
X0001128543Y0003996475D01*
X0001128543Y0004011472D01*
X0001130230Y0004015221D01*
X0001133605Y0004017095D01*
X0001140354Y0004017095D01*
X0001143728Y0004015221D01*
X0001145416Y0004011472D01*
X0001145416Y0004007723D01*
X0001128543Y0004003974D01*
X0001160601Y0003990850D02*
X0001160601Y0004017095D01*
X0001160601Y0004013347D02*
X0001162289Y0004015221D01*
X0001165663Y0004017095D01*
X0001170725Y0004017095D01*
X0001174100Y0004015221D01*
X0001175787Y0004011472D01*
X0001175787Y0003990850D01*
X0001175787Y0004011472D02*
X0001177474Y0004015221D01*
X0001180849Y0004017095D01*
X0001185911Y0004017095D01*
X0001189285Y0004015221D01*
X0001190972Y0004011472D01*
X0001190972Y0003990850D01*
X0001206158Y0003992725D02*
X0001209533Y0003990850D01*
X0001216282Y0003990850D01*
X0001219656Y0003992725D01*
X0001221344Y0003996475D01*
X0001221344Y0003998350D01*
X0001219656Y0004002099D01*
X0001216282Y0004003974D01*
X0001211220Y0004003974D01*
X0001207845Y0004005849D01*
X0001206158Y0004009598D01*
X0001206158Y0004011472D01*
X0001207845Y0004015221D01*
X0001211220Y0004017095D01*
X0001216282Y0004017095D01*
X0001219656Y0004015221D01*
X0001280399Y0003990850D02*
X0001263526Y0003990850D01*
X0001263526Y0004030221D01*
X0001292210Y0003990850D02*
X0001292210Y0004030221D01*
X0001304021Y0004002099D01*
X0001315832Y0004030221D01*
X0001315832Y0003990850D01*
X0001331017Y0003992725D02*
X0001336079Y0003990850D01*
X0001344516Y0003990850D01*
X0001347890Y0003992725D01*
X0001349578Y0003994600D01*
X0001351265Y0003998350D01*
X0001351265Y0004002099D01*
X0001349578Y0004005849D01*
X0001347890Y0004007723D01*
X0001344516Y0004009598D01*
X0001337767Y0004011472D01*
X0001334392Y0004013347D01*
X0001332705Y0004015221D01*
X0001331017Y0004018970D01*
X0001331017Y0004022722D01*
X0001332705Y0004026471D01*
X0001334392Y0004028346D01*
X0001337767Y0004030221D01*
X0001346202Y0004030221D01*
X0001351265Y0004028346D01*
X0001363076Y0004030221D02*
X0001386698Y0004030221D01*
X0001371511Y0003990850D01*
X0001406945Y0004030221D02*
X0001410320Y0004030221D01*
X0001413695Y0004028346D01*
X0001415382Y0004026471D01*
X0001417069Y0004022722D01*
X0001418757Y0004015221D01*
X0001418757Y0004005849D01*
X0001417069Y0003998350D01*
X0001415382Y0003994600D01*
X0001413695Y0003992725D01*
X0001410320Y0003990850D01*
X0001406945Y0003990850D01*
X0001403571Y0003992725D01*
X0001401884Y0003994600D01*
X0001400196Y0003998350D01*
X0001398508Y0004005849D01*
X0001398508Y0004015221D01*
X0001400196Y0004022722D01*
X0001401884Y0004026471D01*
X0001403571Y0004028346D01*
X0001406945Y0004030221D01*
X0001440691Y0004030221D02*
X0001444066Y0004030221D01*
X0001447440Y0004028346D01*
X0001449128Y0004026471D01*
X0001450814Y0004022722D01*
X0001452502Y0004015221D01*
X0001452502Y0004005849D01*
X0001450814Y0003998350D01*
X0001449128Y0003994600D01*
X0001447440Y0003992725D01*
X0001444066Y0003990850D01*
X0001440691Y0003990850D01*
X0001437317Y0003992725D01*
X0001435629Y0003994600D01*
X0001433942Y0003998350D01*
X0001432255Y0004005849D01*
X0001432255Y0004015221D01*
X0001433942Y0004022722D01*
X0001435629Y0004026471D01*
X0001437317Y0004028346D01*
X0001440691Y0004030221D01*
X0001466001Y0004026471D02*
X0001467688Y0004028346D01*
X0001471062Y0004030221D01*
X0001479499Y0004030221D01*
X0001482874Y0004028346D01*
X0001484561Y0004026471D01*
X0001486248Y0004022722D01*
X0001486248Y0004018970D01*
X0001484561Y0004013347D01*
X0001464313Y0003990850D01*
X0001486248Y0003990850D01*
X0001501434Y0003990850D02*
X0001501434Y0004030221D01*
X0001513245Y0004002099D01*
X0001525056Y0004030221D01*
X0001525056Y0003990850D01*
X0001568925Y0003990850D02*
X0001568925Y0004030221D01*
X0001580736Y0004002099D01*
X0001592547Y0004030221D01*
X0001592547Y0003990850D01*
X0001609419Y0003990850D02*
X0001609419Y0004030221D01*
X0001626293Y0003990850D02*
X0001626293Y0004030221D01*
X0001638104Y0004002099D01*
X0001649915Y0004030221D01*
X0001649915Y0003990850D01*
X0001673537Y0004030221D02*
X0001680286Y0004030221D01*
X0001683661Y0004028346D01*
X0001687035Y0004024596D01*
X0001688723Y0004017095D01*
X0001688723Y0004003974D01*
X0001687035Y0003996475D01*
X0001683661Y0003992725D01*
X0001680286Y0003990850D01*
X0001673537Y0003990850D01*
X0001670163Y0003992725D01*
X0001666788Y0003996475D01*
X0001665101Y0004003974D01*
X0001665101Y0004017095D01*
X0001666788Y0004024596D01*
X0001670163Y0004028346D01*
X0001673537Y0004030221D01*
X0001742716Y0004011472D02*
X0001730905Y0004011472D01*
X0001730905Y0003990850D02*
X0001730905Y0004030221D01*
X0001747778Y0004030221D01*
X0001761276Y0003990850D02*
X0001761276Y0004030221D01*
X0001774775Y0004030221D01*
X0001778149Y0004028346D01*
X0001779836Y0004026471D01*
X0001781524Y0004022722D01*
X0001781524Y0004017095D01*
X0001779836Y0004013347D01*
X0001778149Y0004011472D01*
X0001774775Y0004009598D01*
X0001761276Y0004009598D01*
X0001816956Y0003990850D02*
X0001805146Y0004009598D01*
X0001796709Y0003990850D02*
X0001796709Y0004030221D01*
X0001810208Y0004030221D01*
X0001813582Y0004028346D01*
X0001815268Y0004026471D01*
X0001816956Y0004022722D01*
X0001816956Y0004017095D01*
X0001815268Y0004013347D01*
X0001813582Y0004011472D01*
X0001810208Y0004009598D01*
X0001796709Y0004009598D01*
X0001843953Y0004011472D02*
X0001832142Y0004011472D01*
X0001832142Y0003990850D02*
X0001832142Y0004030221D01*
X0001849015Y0004030221D01*
X0000310208Y0003948481D02*
X0000298397Y0003948481D01*
X0000298397Y0003927859D02*
X0000298397Y0003967229D01*
X0000315269Y0003967229D01*
X0000328768Y0003927859D02*
X0000328768Y0003967229D01*
X0000342266Y0003967229D01*
X0000345641Y0003965354D01*
X0000347327Y0003963479D01*
X0000349015Y0003959730D01*
X0000349015Y0003954105D01*
X0000347327Y0003950356D01*
X0000345641Y0003948481D01*
X0000342266Y0003946605D01*
X0000328768Y0003946605D01*
X0000382761Y0003965354D02*
X0000379386Y0003967229D01*
X0000374325Y0003967229D01*
X0000369263Y0003965354D01*
X0000365888Y0003961604D01*
X0000364201Y0003957855D01*
X0000362514Y0003950356D01*
X0000362514Y0003944731D01*
X0000364201Y0003937232D01*
X0000365888Y0003933483D01*
X0000369263Y0003929733D01*
X0000374325Y0003927859D01*
X0000377699Y0003927859D01*
X0000382761Y0003929733D01*
X0000384448Y0003931608D01*
X0000384448Y0003944731D01*
X0000377699Y0003944731D01*
X0000397947Y0003939107D02*
X0000414820Y0003939107D01*
X0000394572Y0003927859D02*
X0000406383Y0003967229D01*
X0000418193Y0003927859D01*
X0000430005Y0003931608D02*
X0000431692Y0003929733D01*
X0000430005Y0003927859D01*
X0000428318Y0003929733D01*
X0000430005Y0003931608D01*
X0000430005Y0003927859D01*
X0000430005Y0003952230D02*
X0000431692Y0003950356D01*
X0000430005Y0003948481D01*
X0000428318Y0003950356D01*
X0000430005Y0003952230D01*
X0000430005Y0003948481D01*
X0000472187Y0003939107D02*
X0000489059Y0003939107D01*
X0000468813Y0003927859D02*
X0000480624Y0003967229D01*
X0000492435Y0003927859D01*
X0000509308Y0003927859D02*
X0000505932Y0003929733D01*
X0000504246Y0003933483D01*
X0000504246Y0003967229D01*
X0000517744Y0003954105D02*
X0000531242Y0003954105D01*
X0000522806Y0003967229D02*
X0000522806Y0003933483D01*
X0000524493Y0003929733D01*
X0000527868Y0003927859D01*
X0000531242Y0003927859D01*
X0000556552Y0003929733D02*
X0000553177Y0003927859D01*
X0000546428Y0003927859D01*
X0000543053Y0003929733D01*
X0000541366Y0003933483D01*
X0000541366Y0003948481D01*
X0000543053Y0003952230D01*
X0000546428Y0003954105D01*
X0000553177Y0003954105D01*
X0000556552Y0003952230D01*
X0000558239Y0003948481D01*
X0000558239Y0003944731D01*
X0000541366Y0003940982D01*
X0000573425Y0003927859D02*
X0000573425Y0003954105D01*
X0000573425Y0003946605D02*
X0000575112Y0003950356D01*
X0000576799Y0003952230D01*
X0000580174Y0003954105D01*
X0000583548Y0003954105D01*
X0000610545Y0003927859D02*
X0000610545Y0003948481D01*
X0000608858Y0003952230D01*
X0000605483Y0003954105D01*
X0000598734Y0003954105D01*
X0000595359Y0003952230D01*
X0000610545Y0003929733D02*
X0000607170Y0003927859D01*
X0000598734Y0003927859D01*
X0000595359Y0003929733D01*
X0000593672Y0003933483D01*
X0000593672Y0003937232D01*
X0000595359Y0003940982D01*
X0000598734Y0003942857D01*
X0000607170Y0003942857D01*
X0000610545Y0003944731D01*
X0000674661Y0003931608D02*
X0000672975Y0003929733D01*
X0000667913Y0003927859D01*
X0000664538Y0003927859D01*
X0000659475Y0003929733D01*
X0000656102Y0003933483D01*
X0000654415Y0003937232D01*
X0000652727Y0003944731D01*
X0000652727Y0003950356D01*
X0000654415Y0003957855D01*
X0000656102Y0003961604D01*
X0000659475Y0003965354D01*
X0000664538Y0003967229D01*
X0000667913Y0003967229D01*
X0000672975Y0003965354D01*
X0000674661Y0003963479D01*
X0000686473Y0003954105D02*
X0000694910Y0003927859D01*
X0000703346Y0003954105D02*
X0000694910Y0003927859D01*
X0000691535Y0003918485D01*
X0000689847Y0003916610D01*
X0000686473Y0003914735D01*
X0000732030Y0003929733D02*
X0000728654Y0003927859D01*
X0000721906Y0003927859D01*
X0000718532Y0003929733D01*
X0000716844Y0003931608D01*
X0000715157Y0003935358D01*
X0000715157Y0003946605D01*
X0000716844Y0003950356D01*
X0000718532Y0003952230D01*
X0000721906Y0003954105D01*
X0000728654Y0003954105D01*
X0000732030Y0003952230D01*
X0000752276Y0003927859D02*
X0000748903Y0003929733D01*
X0000747215Y0003933483D01*
X0000747215Y0003967229D01*
X0000770837Y0003927859D02*
X0000767462Y0003929733D01*
X0000765776Y0003931608D01*
X0000764088Y0003935358D01*
X0000764088Y0003946605D01*
X0000765776Y0003950356D01*
X0000767462Y0003952230D01*
X0000770837Y0003954105D01*
X0000775899Y0003954105D01*
X0000779274Y0003952230D01*
X0000780961Y0003950356D01*
X0000782648Y0003946605D01*
X0000782648Y0003935358D01*
X0000780961Y0003931608D01*
X0000779274Y0003929733D01*
X0000775899Y0003927859D01*
X0000770837Y0003927859D01*
X0000797834Y0003954105D02*
X0000797834Y0003927859D01*
X0000797834Y0003950356D02*
X0000799521Y0003952230D01*
X0000802896Y0003954105D01*
X0000807958Y0003954105D01*
X0000811332Y0003952230D01*
X0000813020Y0003948481D01*
X0000813020Y0003927859D01*
X0000843391Y0003929733D02*
X0000840016Y0003927859D01*
X0000833267Y0003927859D01*
X0000829893Y0003929733D01*
X0000828205Y0003933483D01*
X0000828205Y0003948481D01*
X0000829893Y0003952230D01*
X0000833267Y0003954105D01*
X0000840016Y0003954105D01*
X0000843391Y0003952230D01*
X0000845078Y0003948481D01*
X0000845078Y0003944731D01*
X0000828205Y0003940982D01*
X0000887260Y0003927859D02*
X0000887260Y0003967229D01*
X0000899071Y0003967229D02*
X0000910882Y0003927859D01*
X0000922694Y0003967229D01*
X0000961501Y0003948481D02*
X0000973311Y0003948481D01*
X0000978374Y0003927859D02*
X0000961501Y0003927859D01*
X0000961501Y0003967229D01*
X0000978374Y0003967229D01*
X0000993560Y0003927859D02*
X0000993560Y0003967229D01*
X0001007058Y0003967229D01*
X0001010432Y0003965354D01*
X0001012119Y0003963479D01*
X0001013806Y0003959730D01*
X0001013806Y0003954105D01*
X0001012119Y0003950356D01*
X0001010432Y0003948481D01*
X0001007058Y0003946605D01*
X0000993560Y0003946605D01*
X0001044178Y0003954105D02*
X0001044178Y0003927859D01*
X0001035741Y0003969103D02*
X0001027304Y0003940982D01*
X0001049240Y0003940982D01*
X0001082986Y0003931608D02*
X0001081299Y0003929733D01*
X0001076237Y0003927859D01*
X0001072862Y0003927859D01*
X0001067800Y0003929733D01*
X0001064426Y0003933483D01*
X0001062739Y0003937232D01*
X0001061051Y0003944731D01*
X0001061051Y0003950356D01*
X0001062739Y0003957855D01*
X0001064426Y0003961604D01*
X0001067800Y0003965354D01*
X0001072862Y0003967229D01*
X0001076237Y0003967229D01*
X0001081299Y0003965354D01*
X0001082986Y0003963479D01*
X0001098172Y0003948481D02*
X0001109983Y0003948481D01*
X0001115044Y0003927859D02*
X0001098172Y0003927859D01*
X0001098172Y0003967229D01*
X0001115044Y0003967229D01*
X0001145416Y0003954105D02*
X0001145416Y0003927859D01*
X0001136979Y0003969103D02*
X0001128543Y0003940982D01*
X0001150478Y0003940982D01*
X0001170725Y0003967229D02*
X0001174100Y0003967229D01*
X0001177474Y0003965354D01*
X0001179161Y0003963479D01*
X0001180849Y0003959730D01*
X0001182536Y0003952230D01*
X0001182536Y0003942857D01*
X0001180849Y0003935358D01*
X0001179161Y0003931608D01*
X0001177474Y0003929733D01*
X0001174100Y0003927859D01*
X0001170725Y0003927859D01*
X0001167350Y0003929733D01*
X0001165663Y0003931608D01*
X0001163976Y0003935358D01*
X0001162289Y0003942857D01*
X0001162289Y0003952230D01*
X0001163976Y0003959730D01*
X0001165663Y0003963479D01*
X0001167350Y0003965354D01*
X0001170725Y0003967229D01*
X0001209533Y0003948481D02*
X0001197722Y0003948481D01*
X0001197722Y0003927859D02*
X0001197722Y0003967229D01*
X0001214595Y0003967229D01*
X0001226406Y0003963479D02*
X0001228093Y0003965354D01*
X0001231467Y0003967229D01*
X0001239904Y0003967229D01*
X0001243278Y0003965354D01*
X0001244966Y0003963479D01*
X0001246653Y0003959730D01*
X0001246653Y0003955980D01*
X0001244966Y0003950356D01*
X0001224718Y0003927859D01*
X0001246653Y0003927859D01*
X0001258464Y0003967229D02*
X0001280399Y0003967229D01*
X0001268588Y0003952230D01*
X0001273650Y0003952230D01*
X0001277024Y0003950356D01*
X0001278711Y0003948481D01*
X0001280399Y0003944731D01*
X0001280399Y0003935358D01*
X0001278711Y0003931608D01*
X0001277024Y0003929733D01*
X0001273650Y0003927859D01*
X0001263526Y0003927859D01*
X0001260151Y0003929733D01*
X0001258464Y0003931608D01*
X0001297272Y0003929733D02*
X0001297272Y0003927859D01*
X0001295583Y0003924109D01*
X0001293897Y0003922233D01*
X0001354640Y0003929733D02*
X0001351265Y0003927859D01*
X0001344516Y0003927859D01*
X0001341141Y0003929733D01*
X0001339454Y0003931608D01*
X0001337767Y0003935358D01*
X0001337767Y0003946605D01*
X0001339454Y0003950356D01*
X0001341141Y0003952230D01*
X0001344516Y0003954105D01*
X0001351265Y0003954105D01*
X0001354640Y0003952230D01*
X0001374887Y0003927859D02*
X0001371511Y0003929733D01*
X0001369825Y0003931608D01*
X0001368138Y0003935358D01*
X0001368138Y0003946605D01*
X0001369825Y0003950356D01*
X0001371511Y0003952230D01*
X0001374887Y0003954105D01*
X0001379949Y0003954105D01*
X0001383323Y0003952230D01*
X0001385011Y0003950356D01*
X0001386698Y0003946605D01*
X0001386698Y0003935358D01*
X0001385011Y0003931608D01*
X0001383323Y0003929733D01*
X0001379949Y0003927859D01*
X0001374887Y0003927859D01*
X0001401884Y0003927859D02*
X0001401884Y0003954105D01*
X0001401884Y0003950356D02*
X0001403571Y0003952230D01*
X0001406945Y0003954105D01*
X0001412007Y0003954105D01*
X0001415382Y0003952230D01*
X0001417069Y0003948481D01*
X0001417069Y0003927859D01*
X0001417069Y0003948481D02*
X0001418757Y0003952230D01*
X0001422131Y0003954105D01*
X0001427193Y0003954105D01*
X0001430568Y0003952230D01*
X0001432255Y0003948481D01*
X0001432255Y0003927859D01*
X0001449128Y0003954105D02*
X0001449128Y0003914735D01*
X0001449128Y0003952230D02*
X0001452502Y0003954105D01*
X0001459251Y0003954105D01*
X0001462626Y0003952230D01*
X0001464313Y0003950356D01*
X0001466001Y0003946605D01*
X0001466001Y0003935358D01*
X0001464313Y0003931608D01*
X0001462626Y0003929733D01*
X0001459251Y0003927859D01*
X0001452502Y0003927859D01*
X0001449128Y0003929733D01*
X0001481186Y0003931608D02*
X0001482874Y0003929733D01*
X0001481186Y0003927859D01*
X0001479499Y0003929733D01*
X0001481186Y0003931608D01*
X0001481186Y0003927859D01*
X0001521681Y0003954105D02*
X0001528430Y0003927859D01*
X0001535179Y0003946605D01*
X0001541929Y0003927859D01*
X0001548678Y0003954105D01*
X0001562176Y0003927859D02*
X0001562176Y0003954105D01*
X0001562176Y0003967229D02*
X0001560489Y0003965354D01*
X0001562176Y0003963479D01*
X0001563863Y0003965354D01*
X0001562176Y0003967229D01*
X0001562176Y0003963479D01*
X0001573987Y0003954105D02*
X0001587485Y0003954105D01*
X0001579047Y0003967229D02*
X0001579047Y0003933483D01*
X0001580736Y0003929733D01*
X0001584110Y0003927859D01*
X0001587485Y0003927859D01*
X0001599296Y0003927859D02*
X0001599296Y0003967229D01*
X0001614482Y0003927859D02*
X0001614482Y0003948481D01*
X0001612795Y0003952230D01*
X0001609419Y0003954105D01*
X0001604356Y0003954105D01*
X0001600984Y0003952230D01*
X0001599296Y0003950356D01*
X0001658352Y0003948481D02*
X0001670163Y0003948481D01*
X0001675224Y0003927859D02*
X0001658352Y0003927859D01*
X0001658352Y0003967229D01*
X0001675224Y0003967229D01*
X0001690410Y0003927859D02*
X0001690410Y0003967229D01*
X0001703908Y0003967229D01*
X0001707283Y0003965354D01*
X0001708970Y0003963479D01*
X0001710658Y0003959730D01*
X0001710658Y0003954105D01*
X0001708970Y0003950356D01*
X0001707283Y0003948481D01*
X0001703908Y0003946605D01*
X0001690410Y0003946605D01*
X0001741029Y0003954105D02*
X0001741029Y0003927859D01*
X0001732592Y0003969103D02*
X0001724156Y0003940982D01*
X0001746091Y0003940982D01*
X0001779836Y0003931608D02*
X0001778149Y0003929733D01*
X0001773087Y0003927859D01*
X0001769713Y0003927859D01*
X0001764650Y0003929733D01*
X0001761276Y0003933483D01*
X0001759589Y0003937232D01*
X0001757902Y0003944731D01*
X0001757902Y0003950356D01*
X0001759589Y0003957855D01*
X0001761276Y0003961604D01*
X0001764650Y0003965354D01*
X0001769713Y0003967229D01*
X0001773087Y0003967229D01*
X0001778149Y0003965354D01*
X0001779836Y0003963479D01*
X0001795022Y0003948481D02*
X0001806833Y0003948481D01*
X0001811895Y0003927859D02*
X0001795022Y0003927859D01*
X0001795022Y0003967229D01*
X0001811895Y0003967229D01*
X0001823706Y0003967229D02*
X0001845640Y0003967229D01*
X0001833830Y0003952230D01*
X0001838892Y0003952230D01*
X0001842265Y0003950356D01*
X0001843953Y0003948481D01*
X0001845640Y0003944731D01*
X0001845640Y0003935358D01*
X0001843953Y0003931608D01*
X0001842265Y0003929733D01*
X0001838892Y0003927859D01*
X0001828768Y0003927859D01*
X0001825393Y0003929733D01*
X0001823706Y0003931608D01*
X0001867574Y0003967229D02*
X0001870950Y0003967229D01*
X0001874325Y0003965354D01*
X0001876012Y0003963479D01*
X0001877699Y0003959730D01*
X0001879386Y0003952230D01*
X0001879386Y0003942857D01*
X0001877699Y0003935358D01*
X0001876012Y0003931608D01*
X0001874325Y0003929733D01*
X0001870950Y0003927859D01*
X0001867574Y0003927859D01*
X0001864201Y0003929733D01*
X0001862514Y0003931608D01*
X0001860826Y0003935358D01*
X0001859139Y0003942857D01*
X0001859139Y0003952230D01*
X0001860826Y0003959730D01*
X0001862514Y0003963479D01*
X0001864201Y0003965354D01*
X0001867574Y0003967229D01*
X0001906383Y0003948481D02*
X0001894572Y0003948481D01*
X0001894572Y0003927859D02*
X0001894572Y0003967229D01*
X0001911445Y0003967229D01*
X0001923255Y0003963479D02*
X0001924943Y0003965354D01*
X0001928318Y0003967229D01*
X0001936754Y0003967229D01*
X0001940129Y0003965354D01*
X0001941816Y0003963479D01*
X0001943501Y0003959730D01*
X0001943501Y0003955980D01*
X0001941816Y0003950356D01*
X0001921569Y0003927859D01*
X0001943501Y0003927859D01*
X0001955314Y0003967229D02*
X0001977249Y0003967229D01*
X0001965438Y0003952230D01*
X0001970499Y0003952230D01*
X0001973875Y0003950356D01*
X0001975562Y0003948481D01*
X0001977249Y0003944731D01*
X0001977249Y0003935358D01*
X0001975562Y0003931608D01*
X0001973875Y0003929733D01*
X0001970499Y0003927859D01*
X0001960376Y0003927859D01*
X0001957002Y0003929733D01*
X0001955314Y0003931608D01*
X0000298397Y0003864866D02*
X0000298397Y0003904237D01*
X0000310208Y0003876115D01*
X0000322018Y0003904237D01*
X0000322018Y0003864866D01*
X0000352390Y0003866741D02*
X0000349015Y0003864866D01*
X0000342266Y0003864866D01*
X0000338892Y0003866741D01*
X0000337204Y0003870491D01*
X0000337204Y0003885489D01*
X0000338892Y0003889238D01*
X0000342266Y0003891113D01*
X0000349015Y0003891113D01*
X0000352390Y0003889238D01*
X0000354077Y0003885489D01*
X0000354077Y0003881739D01*
X0000337204Y0003877990D01*
X0000369263Y0003864866D02*
X0000369263Y0003891113D01*
X0000369263Y0003887363D02*
X0000370950Y0003889238D01*
X0000374325Y0003891113D01*
X0000379386Y0003891113D01*
X0000382761Y0003889238D01*
X0000384448Y0003885489D01*
X0000384448Y0003864866D01*
X0000384448Y0003885489D02*
X0000386136Y0003889238D01*
X0000389510Y0003891113D01*
X0000394572Y0003891113D01*
X0000397947Y0003889238D01*
X0000399634Y0003885489D01*
X0000399634Y0003864866D01*
X0000421569Y0003864866D02*
X0000418193Y0003866741D01*
X0000416507Y0003868616D01*
X0000414820Y0003872365D01*
X0000414820Y0003883614D01*
X0000416507Y0003887363D01*
X0000418193Y0003889238D01*
X0000421569Y0003891113D01*
X0000426631Y0003891113D01*
X0000430005Y0003889238D01*
X0000431692Y0003887363D01*
X0000433380Y0003883614D01*
X0000433380Y0003872365D01*
X0000431692Y0003868616D01*
X0000430005Y0003866741D01*
X0000426631Y0003864866D01*
X0000421569Y0003864866D01*
X0000448565Y0003864866D02*
X0000448565Y0003891113D01*
X0000448565Y0003883614D02*
X0000450253Y0003887363D01*
X0000451939Y0003889238D01*
X0000455314Y0003891113D01*
X0000458689Y0003891113D01*
X0000467125Y0003891113D02*
X0000475562Y0003864866D01*
X0000483998Y0003891113D02*
X0000475562Y0003864866D01*
X0000472187Y0003855493D01*
X0000470500Y0003853618D01*
X0000467125Y0003851742D01*
X0000497497Y0003868616D02*
X0000499184Y0003866741D01*
X0000497497Y0003864866D01*
X0000495809Y0003866741D01*
X0000497497Y0003868616D01*
X0000497497Y0003864866D01*
X0000497497Y0003889238D02*
X0000499184Y0003887363D01*
X0000497497Y0003885489D01*
X0000495809Y0003887363D01*
X0000497497Y0003889238D01*
X0000497497Y0003885489D01*
X0000539679Y0003900487D02*
X0000541366Y0003902362D01*
X0000544741Y0003904237D01*
X0000553177Y0003904237D01*
X0000556552Y0003902362D01*
X0000558239Y0003900487D01*
X0000559926Y0003896737D01*
X0000559926Y0003892988D01*
X0000558239Y0003887363D01*
X0000537992Y0003864866D01*
X0000559926Y0003864866D01*
X0000591985Y0003904237D02*
X0000575112Y0003904237D01*
X0000573425Y0003885489D01*
X0000575112Y0003887363D01*
X0000578487Y0003889238D01*
X0000586923Y0003889238D01*
X0000590298Y0003887363D01*
X0000591985Y0003885489D01*
X0000593672Y0003881739D01*
X0000593672Y0003872365D01*
X0000591985Y0003868616D01*
X0000590298Y0003866741D01*
X0000586923Y0003864866D01*
X0000578487Y0003864866D01*
X0000575112Y0003866741D01*
X0000573425Y0003868616D01*
X0000624043Y0003904237D02*
X0000617294Y0003904237D01*
X0000613920Y0003902362D01*
X0000612232Y0003900487D01*
X0000608858Y0003894863D01*
X0000607170Y0003887363D01*
X0000607170Y0003872365D01*
X0000608858Y0003868616D01*
X0000610545Y0003866741D01*
X0000613920Y0003864866D01*
X0000620669Y0003864866D01*
X0000624043Y0003866741D01*
X0000625731Y0003868616D01*
X0000627418Y0003872365D01*
X0000627418Y0003881739D01*
X0000625731Y0003885489D01*
X0000624043Y0003887363D01*
X0000620669Y0003889238D01*
X0000613920Y0003889238D01*
X0000610545Y0003887363D01*
X0000608858Y0003885489D01*
X0000607170Y0003881739D01*
X0000669600Y0003864866D02*
X0000669600Y0003904237D01*
X0000681411Y0003876115D01*
X0000693222Y0003904237D01*
X0000693222Y0003864866D01*
X0000721906Y0003885489D02*
X0000726967Y0003883614D01*
X0000728654Y0003881739D01*
X0000730343Y0003877990D01*
X0000730343Y0003872365D01*
X0000728654Y0003868616D01*
X0000726967Y0003866741D01*
X0000723593Y0003864866D01*
X0000710095Y0003864866D01*
X0000710095Y0003904237D01*
X0000721906Y0003904237D01*
X0000725281Y0003902362D01*
X0000726967Y0003900487D01*
X0000728654Y0003896737D01*
X0000728654Y0003892988D01*
X0000726967Y0003889238D01*
X0000725281Y0003887363D01*
X0000721906Y0003885489D01*
X0000710095Y0003885489D01*
X0000742153Y0003891113D02*
X0000750590Y0003864866D01*
X0000759026Y0003891113D02*
X0000750590Y0003864866D01*
X0000747215Y0003855493D01*
X0000745528Y0003853618D01*
X0000742153Y0003851742D01*
X0000767462Y0003891113D02*
X0000780961Y0003891113D01*
X0000772525Y0003904237D02*
X0000772525Y0003870491D01*
X0000774212Y0003866741D01*
X0000777587Y0003864866D01*
X0000780961Y0003864866D01*
X0000806270Y0003866741D02*
X0000802896Y0003864866D01*
X0000796147Y0003864866D01*
X0000792771Y0003866741D01*
X0000791085Y0003870491D01*
X0000791085Y0003885489D01*
X0000792771Y0003889238D01*
X0000796147Y0003891113D01*
X0000802896Y0003891113D01*
X0000806270Y0003889238D01*
X0000807958Y0003885489D01*
X0000807958Y0003881739D01*
X0000791085Y0003877990D01*
X0000821456Y0003866741D02*
X0000824831Y0003864866D01*
X0000831579Y0003864866D01*
X0000834955Y0003866741D01*
X0000836642Y0003870491D01*
X0000836642Y0003872365D01*
X0000834955Y0003876115D01*
X0000831579Y0003877990D01*
X0000826518Y0003877990D01*
X0000823143Y0003879865D01*
X0000821456Y0003883614D01*
X0000821456Y0003885489D01*
X0000823143Y0003889238D01*
X0000826518Y0003891113D01*
X0000831579Y0003891113D01*
X0000834955Y0003889238D01*
X0000878824Y0003864866D02*
X0000878824Y0003904237D01*
X0000887260Y0003904237D01*
X0000892322Y0003902362D01*
X0000895697Y0003898612D01*
X0000897384Y0003894863D01*
X0000899071Y0003887363D01*
X0000899071Y0003881739D01*
X0000897384Y0003874240D01*
X0000895697Y0003870491D01*
X0000892322Y0003866741D01*
X0000887260Y0003864866D01*
X0000878824Y0003864866D01*
X0000914257Y0003864866D02*
X0000914257Y0003904237D01*
X0000922694Y0003904237D01*
X0000927755Y0003902362D01*
X0000931130Y0003898612D01*
X0000932817Y0003894863D01*
X0000934505Y0003887363D01*
X0000934505Y0003881739D01*
X0000932817Y0003874240D01*
X0000931130Y0003870491D01*
X0000927755Y0003866741D01*
X0000922694Y0003864866D01*
X0000914257Y0003864866D01*
X0000969938Y0003864866D02*
X0000958127Y0003883614D01*
X0000949689Y0003864866D02*
X0000949689Y0003904237D01*
X0000963188Y0003904237D01*
X0000966563Y0003902362D01*
X0000968250Y0003900487D01*
X0000969938Y0003896737D01*
X0000969938Y0003891113D01*
X0000968250Y0003887363D01*
X0000966563Y0003885489D01*
X0000963188Y0003883614D01*
X0000949689Y0003883614D01*
X0000983436Y0003900487D02*
X0000985123Y0003902362D01*
X0000988497Y0003904237D01*
X0000996934Y0003904237D01*
X0001000308Y0003902362D01*
X0001001996Y0003900487D01*
X0001003683Y0003896737D01*
X0001003683Y0003892988D01*
X0001001996Y0003887363D01*
X0000981749Y0003864866D01*
X0001003683Y0003864866D01*
X0001044178Y0003866741D02*
X0001049240Y0003864866D01*
X0001057677Y0003864866D01*
X0001061051Y0003866741D01*
X0001062739Y0003868616D01*
X0001064426Y0003872365D01*
X0001064426Y0003876115D01*
X0001062739Y0003879865D01*
X0001061051Y0003881739D01*
X0001057677Y0003883614D01*
X0001050927Y0003885489D01*
X0001047553Y0003887363D01*
X0001045866Y0003889238D01*
X0001044178Y0003892988D01*
X0001044178Y0003896737D01*
X0001045866Y0003900487D01*
X0001047553Y0003902362D01*
X0001050927Y0003904237D01*
X0001059364Y0003904237D01*
X0001064426Y0003902362D01*
X0001079611Y0003864866D02*
X0001079611Y0003904237D01*
X0001088048Y0003904237D01*
X0001093110Y0003902362D01*
X0001096484Y0003898612D01*
X0001098172Y0003894863D01*
X0001099859Y0003887363D01*
X0001099859Y0003881739D01*
X0001098172Y0003874240D01*
X0001096484Y0003870491D01*
X0001093110Y0003866741D01*
X0001088048Y0003864866D01*
X0001079611Y0003864866D01*
X0001135292Y0003864866D02*
X0001123481Y0003883614D01*
X0001115044Y0003864866D02*
X0001115044Y0003904237D01*
X0001128543Y0003904237D01*
X0001131917Y0003902362D01*
X0001133605Y0003900487D01*
X0001135292Y0003896737D01*
X0001135292Y0003891113D01*
X0001133605Y0003887363D01*
X0001131917Y0003885489D01*
X0001128543Y0003883614D01*
X0001115044Y0003883614D01*
X0001148790Y0003876115D02*
X0001165663Y0003876115D01*
X0001145416Y0003864866D02*
X0001157227Y0003904237D01*
X0001169038Y0003864866D01*
X0001180849Y0003864866D02*
X0001180849Y0003904237D01*
X0001192660Y0003876115D01*
X0001204471Y0003904237D01*
X0001204471Y0003864866D01*
X0000318644Y0003805624D02*
X0000316957Y0003803749D01*
X0000311895Y0003801874D01*
X0000308520Y0003801874D01*
X0000303458Y0003803749D01*
X0000300084Y0003807499D01*
X0000298397Y0003811248D01*
X0000296709Y0003818747D01*
X0000296709Y0003824371D01*
X0000298397Y0003831870D01*
X0000300084Y0003835620D01*
X0000303458Y0003839370D01*
X0000308520Y0003841244D01*
X0000311895Y0003841244D01*
X0000316957Y0003839370D01*
X0000318644Y0003837494D01*
X0000338892Y0003801874D02*
X0000335517Y0003803749D01*
X0000333830Y0003805624D01*
X0000332141Y0003809373D01*
X0000332141Y0003820622D01*
X0000333830Y0003824371D01*
X0000335517Y0003826246D01*
X0000338892Y0003828121D01*
X0000343953Y0003828121D01*
X0000347327Y0003826246D01*
X0000349015Y0003824371D01*
X0000350703Y0003820622D01*
X0000350703Y0003809373D01*
X0000349015Y0003805624D01*
X0000347327Y0003803749D01*
X0000343953Y0003801874D01*
X0000338892Y0003801874D01*
X0000365888Y0003828121D02*
X0000365888Y0003801874D01*
X0000365888Y0003824371D02*
X0000367575Y0003826246D01*
X0000370950Y0003828121D01*
X0000376012Y0003828121D01*
X0000379386Y0003826246D01*
X0000381073Y0003822497D01*
X0000381073Y0003801874D01*
X0000392884Y0003828121D02*
X0000406383Y0003828121D01*
X0000397947Y0003841244D02*
X0000397947Y0003807499D01*
X0000399634Y0003803749D01*
X0000403007Y0003801874D01*
X0000406383Y0003801874D01*
X0000418193Y0003801874D02*
X0000418193Y0003828121D01*
X0000418193Y0003841244D02*
X0000416507Y0003839370D01*
X0000418193Y0003837494D01*
X0000419881Y0003839370D01*
X0000418193Y0003841244D01*
X0000418193Y0003837494D01*
X0000435067Y0003828121D02*
X0000435067Y0003801874D01*
X0000435067Y0003824371D02*
X0000436754Y0003826246D01*
X0000440129Y0003828121D01*
X0000445191Y0003828121D01*
X0000448565Y0003826246D01*
X0000450253Y0003822497D01*
X0000450253Y0003801874D01*
X0000482311Y0003828121D02*
X0000482311Y0003801874D01*
X0000467125Y0003828121D02*
X0000467125Y0003807499D01*
X0000468813Y0003803749D01*
X0000472187Y0003801874D01*
X0000477249Y0003801874D01*
X0000480624Y0003803749D01*
X0000482311Y0003805624D01*
X0000504246Y0003801874D02*
X0000500870Y0003803749D01*
X0000499184Y0003805624D01*
X0000497497Y0003809373D01*
X0000497497Y0003820622D01*
X0000499184Y0003824371D01*
X0000500870Y0003826246D01*
X0000504246Y0003828121D01*
X0000509308Y0003828121D01*
X0000512682Y0003826246D01*
X0000514370Y0003824371D01*
X0000516057Y0003820622D01*
X0000516057Y0003809373D01*
X0000514370Y0003805624D01*
X0000512682Y0003803749D01*
X0000509308Y0003801874D01*
X0000504246Y0003801874D01*
X0000546428Y0003828121D02*
X0000546428Y0003801874D01*
X0000531242Y0003828121D02*
X0000531242Y0003807499D01*
X0000532930Y0003803749D01*
X0000536304Y0003801874D01*
X0000541366Y0003801874D01*
X0000544741Y0003803749D01*
X0000546428Y0003805624D01*
X0000561614Y0003803749D02*
X0000564988Y0003801874D01*
X0000571737Y0003801874D01*
X0000575112Y0003803749D01*
X0000576799Y0003807499D01*
X0000576799Y0003809373D01*
X0000575112Y0003813122D01*
X0000571737Y0003814998D01*
X0000566676Y0003814998D01*
X0000563301Y0003816872D01*
X0000561614Y0003820622D01*
X0000561614Y0003822497D01*
X0000563301Y0003826246D01*
X0000566676Y0003828121D01*
X0000571737Y0003828121D01*
X0000575112Y0003826246D01*
X0000613920Y0003828121D02*
X0000627418Y0003828121D01*
X0000618981Y0003801874D02*
X0000618981Y0003835620D01*
X0000620669Y0003839370D01*
X0000624043Y0003841244D01*
X0000627418Y0003841244D01*
X0000639229Y0003801874D02*
X0000639229Y0003828121D01*
X0000639229Y0003820622D02*
X0000640916Y0003824371D01*
X0000642604Y0003826246D01*
X0000645978Y0003828121D01*
X0000649352Y0003828121D01*
X0000674661Y0003803749D02*
X0000671287Y0003801874D01*
X0000664538Y0003801874D01*
X0000661164Y0003803749D01*
X0000659475Y0003807499D01*
X0000659475Y0003822497D01*
X0000661164Y0003826246D01*
X0000664538Y0003828121D01*
X0000671287Y0003828121D01*
X0000674661Y0003826246D01*
X0000676349Y0003822497D01*
X0000676349Y0003818747D01*
X0000659475Y0003814998D01*
X0000706721Y0003828121D02*
X0000706721Y0003788750D01*
X0000706721Y0003803749D02*
X0000703346Y0003801874D01*
X0000696597Y0003801874D01*
X0000693222Y0003803749D01*
X0000691535Y0003805624D01*
X0000689847Y0003809373D01*
X0000689847Y0003820622D01*
X0000691535Y0003824371D01*
X0000693222Y0003826246D01*
X0000696597Y0003828121D01*
X0000703346Y0003828121D01*
X0000706721Y0003826246D01*
X0000738779Y0003828121D02*
X0000738779Y0003801874D01*
X0000723593Y0003828121D02*
X0000723593Y0003807499D01*
X0000725281Y0003803749D01*
X0000728654Y0003801874D01*
X0000733717Y0003801874D01*
X0000737092Y0003803749D01*
X0000738779Y0003805624D01*
X0000769150Y0003803749D02*
X0000765776Y0003801874D01*
X0000759026Y0003801874D01*
X0000755652Y0003803749D01*
X0000753965Y0003807499D01*
X0000753965Y0003822497D01*
X0000755652Y0003826246D01*
X0000759026Y0003828121D01*
X0000765776Y0003828121D01*
X0000769150Y0003826246D01*
X0000770837Y0003822497D01*
X0000770837Y0003818747D01*
X0000753965Y0003814998D01*
X0000786023Y0003828121D02*
X0000786023Y0003801874D01*
X0000786023Y0003824371D02*
X0000787710Y0003826246D01*
X0000791085Y0003828121D01*
X0000796147Y0003828121D01*
X0000799521Y0003826246D01*
X0000801209Y0003822497D01*
X0000801209Y0003801874D01*
X0000833267Y0003803749D02*
X0000829893Y0003801874D01*
X0000823143Y0003801874D01*
X0000819769Y0003803749D01*
X0000818082Y0003805624D01*
X0000816393Y0003809373D01*
X0000816393Y0003820622D01*
X0000818082Y0003824371D01*
X0000819769Y0003826246D01*
X0000823143Y0003828121D01*
X0000829893Y0003828121D01*
X0000833267Y0003826246D01*
X0000845078Y0003828121D02*
X0000853515Y0003801874D01*
X0000861951Y0003828121D02*
X0000853515Y0003801874D01*
X0000850140Y0003792500D01*
X0000848453Y0003790626D01*
X0000845078Y0003788750D01*
X0000902446Y0003801874D02*
X0000902446Y0003828121D01*
X0000902446Y0003820622D02*
X0000904133Y0003824371D01*
X0000905821Y0003826246D01*
X0000909194Y0003828121D01*
X0000912570Y0003828121D01*
X0000939566Y0003801874D02*
X0000939566Y0003822497D01*
X0000937879Y0003826246D01*
X0000934505Y0003828121D01*
X0000927755Y0003828121D01*
X0000924380Y0003826246D01*
X0000939566Y0003803749D02*
X0000936192Y0003801874D01*
X0000927755Y0003801874D01*
X0000924380Y0003803749D01*
X0000922694Y0003807499D01*
X0000922694Y0003811248D01*
X0000924380Y0003814998D01*
X0000927755Y0003816872D01*
X0000936192Y0003816872D01*
X0000939566Y0003818747D01*
X0000956439Y0003828121D02*
X0000956439Y0003801874D01*
X0000956439Y0003824371D02*
X0000958127Y0003826246D01*
X0000961501Y0003828121D01*
X0000966563Y0003828121D01*
X0000969938Y0003826246D01*
X0000971625Y0003822497D01*
X0000971625Y0003801874D01*
X0001003683Y0003828121D02*
X0001003683Y0003796250D01*
X0001001996Y0003792500D01*
X0001000308Y0003790626D01*
X0000996934Y0003788750D01*
X0000991872Y0003788750D01*
X0000988497Y0003790626D01*
X0001003683Y0003803749D02*
X0001000308Y0003801874D01*
X0000993560Y0003801874D01*
X0000990185Y0003803749D01*
X0000988497Y0003805624D01*
X0000986811Y0003809373D01*
X0000986811Y0003820622D01*
X0000988497Y0003824371D01*
X0000990185Y0003826246D01*
X0000993560Y0003828121D01*
X0001000308Y0003828121D01*
X0001003683Y0003826246D01*
X0001034055Y0003803749D02*
X0001030680Y0003801874D01*
X0001023930Y0003801874D01*
X0001020556Y0003803749D01*
X0001018869Y0003807499D01*
X0001018869Y0003822497D01*
X0001020556Y0003826246D01*
X0001023930Y0003828121D01*
X0001030680Y0003828121D01*
X0001034055Y0003826246D01*
X0001035741Y0003822497D01*
X0001035741Y0003818747D01*
X0001018869Y0003814998D01*
X0001050927Y0003805624D02*
X0001052615Y0003803749D01*
X0001050927Y0003801874D01*
X0001049240Y0003803749D01*
X0001050927Y0003805624D01*
X0001050927Y0003801874D01*
X0001050927Y0003826246D02*
X0001052615Y0003824371D01*
X0001050927Y0003822497D01*
X0001049240Y0003824371D01*
X0001050927Y0003826246D01*
X0001050927Y0003822497D01*
X0001113357Y0003801874D02*
X0001093110Y0003801874D01*
X0001103233Y0003801874D02*
X0001103233Y0003841244D01*
X0001099859Y0003835620D01*
X0001096484Y0003831870D01*
X0001093110Y0003829996D01*
X0001135292Y0003841244D02*
X0001138667Y0003841244D01*
X0001142041Y0003839370D01*
X0001143728Y0003837494D01*
X0001145416Y0003833745D01*
X0001147103Y0003826246D01*
X0001147103Y0003816872D01*
X0001145416Y0003809373D01*
X0001143728Y0003805624D01*
X0001142041Y0003803749D01*
X0001138667Y0003801874D01*
X0001135292Y0003801874D01*
X0001131917Y0003803749D01*
X0001130230Y0003805624D01*
X0001128543Y0003809373D01*
X0001126855Y0003816872D01*
X0001126855Y0003826246D01*
X0001128543Y0003833745D01*
X0001130230Y0003837494D01*
X0001131917Y0003839370D01*
X0001135292Y0003841244D01*
X0001169038Y0003841244D02*
X0001172412Y0003841244D01*
X0001175787Y0003839370D01*
X0001177474Y0003837494D01*
X0001179161Y0003833745D01*
X0001180849Y0003826246D01*
X0001180849Y0003816872D01*
X0001179161Y0003809373D01*
X0001177474Y0003805624D01*
X0001175787Y0003803749D01*
X0001172412Y0003801874D01*
X0001169038Y0003801874D01*
X0001165663Y0003803749D01*
X0001163976Y0003805624D01*
X0001162289Y0003809373D01*
X0001160601Y0003816872D01*
X0001160601Y0003826246D01*
X0001162289Y0003833745D01*
X0001163976Y0003837494D01*
X0001165663Y0003839370D01*
X0001169038Y0003841244D01*
X0001223031Y0003801874D02*
X0001223031Y0003841244D01*
X0001226406Y0003816872D02*
X0001236529Y0003801874D01*
X0001236529Y0003828121D02*
X0001223031Y0003813122D01*
X0001251715Y0003801874D02*
X0001251715Y0003841244D01*
X0001251715Y0003822497D02*
X0001271962Y0003822497D01*
X0001271962Y0003801874D02*
X0001271962Y0003841244D01*
X0001285461Y0003828121D02*
X0001304021Y0003828121D01*
X0001285461Y0003801874D01*
X0001304021Y0003801874D01*
X0001352952Y0003814998D02*
X0001339454Y0003814998D01*
X0001388385Y0003841244D02*
X0001410320Y0003841244D01*
X0001398508Y0003826246D01*
X0001403571Y0003826246D01*
X0001406945Y0003824371D01*
X0001408633Y0003822497D01*
X0001410320Y0003818747D01*
X0001410320Y0003809373D01*
X0001408633Y0003805624D01*
X0001406945Y0003803749D01*
X0001403571Y0003801874D01*
X0001393447Y0003801874D01*
X0001390073Y0003803749D01*
X0001388385Y0003805624D01*
X0001425505Y0003805624D02*
X0001427193Y0003803749D01*
X0001425505Y0003801874D01*
X0001423817Y0003803749D01*
X0001425505Y0003805624D01*
X0001425505Y0003801874D01*
X0001447440Y0003824371D02*
X0001444066Y0003826246D01*
X0001442379Y0003828121D01*
X0001440691Y0003831870D01*
X0001440691Y0003833745D01*
X0001442379Y0003837494D01*
X0001444066Y0003839370D01*
X0001447440Y0003841244D01*
X0001454189Y0003841244D01*
X0001457564Y0003839370D01*
X0001459251Y0003837494D01*
X0001460939Y0003833745D01*
X0001460939Y0003831870D01*
X0001459251Y0003828121D01*
X0001457564Y0003826246D01*
X0001454189Y0003824371D01*
X0001447440Y0003824371D01*
X0001444066Y0003822497D01*
X0001442379Y0003820622D01*
X0001440691Y0003816872D01*
X0001440691Y0003809373D01*
X0001442379Y0003805624D01*
X0001444066Y0003803749D01*
X0001447440Y0003801874D01*
X0001454189Y0003801874D01*
X0001457564Y0003803749D01*
X0001459251Y0003805624D01*
X0001460939Y0003809373D01*
X0001460939Y0003816872D01*
X0001459251Y0003820622D01*
X0001457564Y0003822497D01*
X0001454189Y0003824371D01*
X0001521681Y0003839370D02*
X0001518307Y0003841244D01*
X0001513245Y0003841244D01*
X0001508183Y0003839370D01*
X0001504808Y0003835620D01*
X0001503121Y0003831870D01*
X0001501434Y0003824371D01*
X0001501434Y0003818747D01*
X0001503121Y0003811248D01*
X0001504808Y0003807499D01*
X0001508183Y0003803749D01*
X0001513245Y0003801874D01*
X0001516619Y0003801874D01*
X0001521681Y0003803749D01*
X0001523368Y0003805624D01*
X0001523368Y0003818747D01*
X0001516619Y0003818747D01*
X0001538554Y0003801874D02*
X0001538554Y0003841244D01*
X0001538554Y0003822497D02*
X0001558801Y0003822497D01*
X0001558801Y0003801874D02*
X0001558801Y0003841244D01*
X0001572300Y0003828121D02*
X0001590860Y0003828121D01*
X0001572300Y0003801874D01*
X0001590860Y0003801874D01*
X0000310208Y0003759505D02*
X0000315269Y0003757630D01*
X0000316957Y0003755755D01*
X0000318644Y0003752006D01*
X0000318644Y0003746381D01*
X0000316957Y0003742631D01*
X0000315269Y0003740757D01*
X0000311895Y0003738882D01*
X0000298397Y0003738882D01*
X0000298397Y0003778252D01*
X0000310208Y0003778252D01*
X0000313582Y0003776377D01*
X0000315269Y0003774503D01*
X0000316957Y0003770753D01*
X0000316957Y0003767003D01*
X0000315269Y0003763254D01*
X0000313582Y0003761379D01*
X0000310208Y0003759505D01*
X0000298397Y0003759505D01*
X0000349015Y0003738882D02*
X0000349015Y0003759505D01*
X0000347327Y0003763254D01*
X0000343953Y0003765129D01*
X0000337204Y0003765129D01*
X0000333830Y0003763254D01*
X0000349015Y0003740757D02*
X0000345641Y0003738882D01*
X0000337204Y0003738882D01*
X0000333830Y0003740757D01*
X0000332141Y0003744505D01*
X0000332141Y0003748256D01*
X0000333830Y0003752006D01*
X0000337204Y0003753880D01*
X0000345641Y0003753880D01*
X0000349015Y0003755755D01*
X0000365888Y0003765129D02*
X0000365888Y0003738882D01*
X0000365888Y0003761379D02*
X0000367575Y0003763254D01*
X0000370950Y0003765129D01*
X0000376012Y0003765129D01*
X0000379386Y0003763254D01*
X0000381073Y0003759505D01*
X0000381073Y0003738882D01*
X0000413132Y0003738882D02*
X0000413132Y0003778252D01*
X0000413132Y0003740757D02*
X0000409758Y0003738882D01*
X0000403007Y0003738882D01*
X0000399634Y0003740757D01*
X0000397947Y0003742631D01*
X0000396259Y0003746381D01*
X0000396259Y0003757630D01*
X0000397947Y0003761379D01*
X0000399634Y0003763254D01*
X0000403007Y0003765129D01*
X0000409758Y0003765129D01*
X0000413132Y0003763254D01*
X0000426631Y0003765129D02*
X0000433380Y0003738882D01*
X0000440129Y0003757630D01*
X0000446878Y0003738882D01*
X0000453627Y0003765129D01*
X0000467125Y0003738882D02*
X0000467125Y0003765129D01*
X0000467125Y0003778252D02*
X0000465438Y0003776377D01*
X0000467125Y0003774503D01*
X0000468813Y0003776377D01*
X0000467125Y0003778252D01*
X0000467125Y0003774503D01*
X0000499184Y0003738882D02*
X0000499184Y0003778252D01*
X0000499184Y0003740757D02*
X0000495809Y0003738882D01*
X0000489059Y0003738882D01*
X0000485686Y0003740757D01*
X0000483998Y0003742631D01*
X0000482311Y0003746381D01*
X0000482311Y0003757630D01*
X0000483998Y0003761379D01*
X0000485686Y0003763254D01*
X0000489059Y0003765129D01*
X0000495809Y0003765129D01*
X0000499184Y0003763254D01*
X0000510995Y0003765129D02*
X0000524493Y0003765129D01*
X0000516057Y0003778252D02*
X0000516057Y0003744505D01*
X0000517744Y0003740757D01*
X0000521119Y0003738882D01*
X0000524493Y0003738882D01*
X0000536304Y0003738882D02*
X0000536304Y0003778252D01*
X0000551490Y0003738882D02*
X0000551490Y0003759505D01*
X0000549803Y0003763254D01*
X0000546428Y0003765129D01*
X0000541366Y0003765129D01*
X0000537992Y0003763254D01*
X0000536304Y0003761379D01*
X0000568363Y0003742631D02*
X0000570050Y0003740757D01*
X0000568363Y0003738882D01*
X0000566676Y0003740757D01*
X0000568363Y0003742631D01*
X0000568363Y0003738882D01*
X0000568363Y0003763254D02*
X0000570050Y0003761379D01*
X0000568363Y0003759505D01*
X0000566676Y0003761379D01*
X0000568363Y0003763254D01*
X0000568363Y0003759505D01*
X0000627418Y0003778252D02*
X0000620669Y0003778252D01*
X0000617294Y0003776377D01*
X0000615607Y0003774503D01*
X0000612232Y0003768877D01*
X0000610545Y0003761379D01*
X0000610545Y0003746381D01*
X0000612232Y0003742631D01*
X0000613920Y0003740757D01*
X0000617294Y0003738882D01*
X0000624043Y0003738882D01*
X0000627418Y0003740757D01*
X0000629105Y0003742631D01*
X0000630792Y0003746381D01*
X0000630792Y0003755755D01*
X0000629105Y0003759505D01*
X0000627418Y0003761379D01*
X0000624043Y0003763254D01*
X0000617294Y0003763254D01*
X0000613920Y0003761379D01*
X0000612232Y0003759505D01*
X0000610545Y0003755755D01*
X0000664538Y0003738882D02*
X0000644291Y0003738882D01*
X0000654415Y0003738882D02*
X0000654415Y0003778252D01*
X0000651040Y0003772628D01*
X0000647665Y0003768877D01*
X0000644291Y0003767003D01*
X0000679724Y0003742631D02*
X0000681411Y0003740757D01*
X0000679724Y0003738882D01*
X0000678037Y0003740757D01*
X0000679724Y0003742631D01*
X0000679724Y0003738882D01*
X0000711782Y0003765129D02*
X0000711782Y0003738882D01*
X0000703346Y0003780127D02*
X0000694910Y0003752006D01*
X0000716844Y0003752006D01*
X0000745528Y0003765129D02*
X0000745528Y0003738882D01*
X0000737092Y0003780127D02*
X0000728654Y0003752006D01*
X0000750590Y0003752006D01*
X0000791085Y0003738882D02*
X0000791085Y0003778252D01*
X0000802896Y0003750131D01*
X0000814707Y0003778252D01*
X0000814707Y0003738882D01*
X0000831579Y0003738882D02*
X0000831579Y0003778252D01*
X0000831579Y0003759505D02*
X0000851827Y0003759505D01*
X0000851827Y0003738882D02*
X0000851827Y0003778252D01*
X0000865326Y0003765129D02*
X0000883885Y0003765129D01*
X0000865326Y0003738882D01*
X0000883885Y0003738882D01*
X0000298397Y0003675890D02*
X0000298397Y0003715260D01*
X0000311895Y0003715260D01*
X0000315269Y0003713385D01*
X0000316957Y0003711511D01*
X0000318644Y0003707761D01*
X0000318644Y0003702137D01*
X0000316957Y0003698387D01*
X0000315269Y0003696512D01*
X0000311895Y0003694638D01*
X0000298397Y0003694638D01*
X0000338892Y0003675890D02*
X0000335517Y0003677765D01*
X0000333830Y0003679640D01*
X0000332141Y0003683389D01*
X0000332141Y0003694638D01*
X0000333830Y0003698387D01*
X0000335517Y0003700262D01*
X0000338892Y0003702137D01*
X0000343953Y0003702137D01*
X0000347327Y0003700262D01*
X0000349015Y0003698387D01*
X0000350703Y0003694638D01*
X0000350703Y0003683389D01*
X0000349015Y0003679640D01*
X0000347327Y0003677765D01*
X0000343953Y0003675890D01*
X0000338892Y0003675890D01*
X0000362514Y0003702137D02*
X0000369263Y0003675890D01*
X0000376012Y0003694638D01*
X0000382761Y0003675890D01*
X0000389510Y0003702137D01*
X0000416507Y0003677765D02*
X0000413132Y0003675890D01*
X0000406383Y0003675890D01*
X0000403007Y0003677765D01*
X0000401321Y0003681514D01*
X0000401321Y0003696512D01*
X0000403007Y0003700262D01*
X0000406383Y0003702137D01*
X0000413132Y0003702137D01*
X0000416507Y0003700262D01*
X0000418193Y0003696512D01*
X0000418193Y0003692763D01*
X0000401321Y0003689013D01*
X0000433380Y0003675890D02*
X0000433380Y0003702137D01*
X0000433380Y0003694638D02*
X0000435067Y0003698387D01*
X0000436754Y0003700262D01*
X0000440129Y0003702137D01*
X0000443503Y0003702137D01*
X0000489059Y0003715260D02*
X0000495809Y0003715260D01*
X0000499184Y0003713385D01*
X0000502559Y0003709636D01*
X0000504246Y0003702137D01*
X0000504246Y0003689013D01*
X0000502559Y0003681514D01*
X0000499184Y0003677765D01*
X0000495809Y0003675890D01*
X0000489059Y0003675890D01*
X0000485686Y0003677765D01*
X0000482311Y0003681514D01*
X0000480624Y0003689013D01*
X0000480624Y0003702137D01*
X0000482311Y0003709636D01*
X0000485686Y0003713385D01*
X0000489059Y0003715260D01*
X0000534617Y0003702137D02*
X0000534617Y0003675890D01*
X0000519431Y0003702137D02*
X0000519431Y0003681514D01*
X0000521119Y0003677765D01*
X0000524493Y0003675890D01*
X0000529555Y0003675890D01*
X0000532930Y0003677765D01*
X0000534617Y0003679640D01*
X0000546428Y0003702137D02*
X0000559926Y0003702137D01*
X0000551490Y0003715260D02*
X0000551490Y0003681514D01*
X0000553177Y0003677765D01*
X0000556552Y0003675890D01*
X0000559926Y0003675890D01*
X0000571737Y0003702137D02*
X0000571737Y0003662767D01*
X0000571737Y0003700262D02*
X0000575112Y0003702137D01*
X0000581861Y0003702137D01*
X0000585236Y0003700262D01*
X0000586923Y0003698387D01*
X0000588610Y0003694638D01*
X0000588610Y0003683389D01*
X0000586923Y0003679640D01*
X0000585236Y0003677765D01*
X0000581861Y0003675890D01*
X0000575112Y0003675890D01*
X0000571737Y0003677765D01*
X0000618981Y0003702137D02*
X0000618981Y0003675890D01*
X0000603796Y0003702137D02*
X0000603796Y0003681514D01*
X0000605483Y0003677765D01*
X0000608858Y0003675890D01*
X0000613920Y0003675890D01*
X0000617294Y0003677765D01*
X0000618981Y0003679640D01*
X0000630792Y0003702137D02*
X0000644291Y0003702137D01*
X0000635853Y0003715260D02*
X0000635853Y0003681514D01*
X0000637542Y0003677765D01*
X0000640916Y0003675890D01*
X0000644291Y0003675890D01*
X0000693222Y0003660892D02*
X0000691535Y0003662767D01*
X0000688160Y0003668390D01*
X0000686473Y0003672140D01*
X0000684786Y0003677765D01*
X0000683098Y0003687139D01*
X0000683098Y0003694638D01*
X0000684786Y0003704012D01*
X0000686473Y0003709636D01*
X0000688160Y0003713385D01*
X0000691535Y0003719010D01*
X0000693222Y0003720884D01*
X0000726967Y0003679640D02*
X0000725281Y0003677765D01*
X0000720219Y0003675890D01*
X0000716844Y0003675890D01*
X0000711782Y0003677765D01*
X0000708408Y0003681514D01*
X0000706721Y0003685264D01*
X0000705033Y0003692763D01*
X0000705033Y0003698387D01*
X0000706721Y0003705886D01*
X0000708408Y0003709636D01*
X0000711782Y0003713385D01*
X0000716844Y0003715260D01*
X0000720219Y0003715260D01*
X0000725281Y0003713385D01*
X0000726967Y0003711511D01*
X0000738779Y0003715260D02*
X0000747215Y0003675890D01*
X0000753965Y0003704012D01*
X0000760714Y0003675890D01*
X0000769150Y0003715260D01*
X0000779274Y0003660892D02*
X0000780961Y0003662767D01*
X0000784336Y0003668390D01*
X0000786023Y0003672140D01*
X0000787710Y0003677765D01*
X0000789398Y0003687139D01*
X0000789398Y0003694638D01*
X0000787710Y0003704012D01*
X0000786023Y0003709636D01*
X0000784336Y0003713385D01*
X0000780961Y0003719010D01*
X0000779274Y0003720884D01*
X0000806270Y0003679640D02*
X0000807958Y0003677765D01*
X0000806270Y0003675890D01*
X0000804583Y0003677765D01*
X0000806270Y0003679640D01*
X0000806270Y0003675890D01*
X0000806270Y0003700262D02*
X0000807958Y0003698387D01*
X0000806270Y0003696512D01*
X0000804583Y0003698387D01*
X0000806270Y0003700262D01*
X0000806270Y0003696512D01*
X0000865326Y0003702137D02*
X0000865326Y0003675890D01*
X0000850140Y0003702137D02*
X0000850140Y0003681514D01*
X0000851827Y0003677765D01*
X0000855202Y0003675890D01*
X0000860263Y0003675890D01*
X0000863638Y0003677765D01*
X0000865326Y0003679640D01*
X0000882199Y0003702137D02*
X0000882199Y0003662767D01*
X0000882199Y0003700262D02*
X0000885573Y0003702137D01*
X0000892322Y0003702137D01*
X0000895697Y0003700262D01*
X0000897384Y0003698387D01*
X0000899071Y0003694638D01*
X0000899071Y0003683389D01*
X0000897384Y0003679640D01*
X0000895697Y0003677765D01*
X0000892322Y0003675890D01*
X0000885573Y0003675890D01*
X0000882199Y0003677765D01*
X0000936192Y0003702137D02*
X0000949689Y0003702137D01*
X0000941254Y0003715260D02*
X0000941254Y0003681514D01*
X0000942941Y0003677765D01*
X0000946316Y0003675890D01*
X0000949689Y0003675890D01*
X0000966563Y0003675890D02*
X0000963188Y0003677765D01*
X0000961501Y0003679640D01*
X0000959814Y0003683389D01*
X0000959814Y0003694638D01*
X0000961501Y0003698387D01*
X0000963188Y0003700262D01*
X0000966563Y0003702137D01*
X0000971625Y0003702137D01*
X0000975000Y0003700262D01*
X0000976687Y0003698387D01*
X0000978374Y0003694638D01*
X0000978374Y0003683389D01*
X0000976687Y0003679640D01*
X0000975000Y0003677765D01*
X0000971625Y0003675890D01*
X0000966563Y0003675890D01*
X0001039115Y0003675890D02*
X0001018869Y0003675890D01*
X0001028993Y0003675890D02*
X0001028993Y0003715260D01*
X0001025617Y0003709636D01*
X0001022243Y0003705886D01*
X0001018869Y0003704012D01*
X0001061051Y0003715260D02*
X0001064426Y0003715260D01*
X0001067800Y0003713385D01*
X0001069488Y0003711511D01*
X0001071175Y0003707761D01*
X0001072862Y0003700262D01*
X0001072862Y0003690888D01*
X0001071175Y0003683389D01*
X0001069488Y0003679640D01*
X0001067800Y0003677765D01*
X0001064426Y0003675890D01*
X0001061051Y0003675890D01*
X0001057677Y0003677765D01*
X0001055989Y0003679640D01*
X0001054302Y0003683389D01*
X0001052615Y0003690888D01*
X0001052615Y0003700262D01*
X0001054302Y0003707761D01*
X0001055989Y0003711511D01*
X0001057677Y0003713385D01*
X0001061051Y0003715260D01*
X0001130230Y0003675890D02*
X0001130230Y0003715260D01*
X0001130230Y0003677765D02*
X0001126855Y0003675890D01*
X0001120106Y0003675890D01*
X0001116732Y0003677765D01*
X0001115044Y0003679640D01*
X0001113357Y0003683389D01*
X0001113357Y0003694638D01*
X0001115044Y0003698387D01*
X0001116732Y0003700262D01*
X0001120106Y0003702137D01*
X0001126855Y0003702137D01*
X0001130230Y0003700262D01*
X0001158914Y0003696512D02*
X0001163976Y0003694638D01*
X0001165663Y0003692763D01*
X0001167350Y0003689013D01*
X0001167350Y0003683389D01*
X0001165663Y0003679640D01*
X0001163976Y0003677765D01*
X0001160601Y0003675890D01*
X0001147103Y0003675890D01*
X0001147103Y0003715260D01*
X0001158914Y0003715260D01*
X0001162289Y0003713385D01*
X0001163976Y0003711511D01*
X0001165663Y0003707761D01*
X0001165663Y0003704012D01*
X0001163976Y0003700262D01*
X0001162289Y0003698387D01*
X0001158914Y0003696512D01*
X0001147103Y0003696512D01*
X0001182536Y0003675890D02*
X0001182536Y0003702137D01*
X0001182536Y0003698387D02*
X0001184223Y0003700262D01*
X0001187598Y0003702137D01*
X0001192660Y0003702137D01*
X0001196034Y0003700262D01*
X0001197722Y0003696512D01*
X0001197722Y0003675890D01*
X0001197722Y0003696512D02*
X0001199409Y0003700262D01*
X0001202784Y0003702137D01*
X0001207845Y0003702137D01*
X0001211220Y0003700262D01*
X0001212907Y0003696512D01*
X0001212907Y0003675890D01*
X0000298397Y0003612898D02*
X0000298397Y0003652268D01*
X0000310208Y0003624147D01*
X0000322018Y0003652268D01*
X0000322018Y0003612898D01*
X0000354077Y0003639145D02*
X0000354077Y0003612898D01*
X0000338892Y0003639145D02*
X0000338892Y0003618522D01*
X0000340579Y0003614773D01*
X0000343953Y0003612898D01*
X0000349015Y0003612898D01*
X0000352390Y0003614773D01*
X0000354077Y0003616647D01*
X0000376012Y0003612898D02*
X0000372637Y0003614773D01*
X0000370950Y0003618522D01*
X0000370950Y0003652268D01*
X0000384448Y0003639145D02*
X0000397947Y0003639145D01*
X0000389510Y0003652268D02*
X0000389510Y0003618522D01*
X0000391196Y0003614773D01*
X0000394572Y0003612898D01*
X0000397947Y0003612898D01*
X0000409758Y0003612898D02*
X0000409758Y0003639145D01*
X0000409758Y0003652268D02*
X0000408070Y0003650393D01*
X0000409758Y0003648518D01*
X0000411445Y0003650393D01*
X0000409758Y0003652268D01*
X0000409758Y0003648518D01*
X0000426631Y0003639145D02*
X0000426631Y0003599775D01*
X0000426631Y0003637270D02*
X0000430005Y0003639145D01*
X0000436754Y0003639145D01*
X0000440129Y0003637270D01*
X0000441816Y0003635394D01*
X0000443503Y0003631646D01*
X0000443503Y0003620397D01*
X0000441816Y0003616647D01*
X0000440129Y0003614773D01*
X0000436754Y0003612898D01*
X0000430005Y0003612898D01*
X0000426631Y0003614773D01*
X0000463751Y0003612898D02*
X0000460376Y0003614773D01*
X0000458689Y0003618522D01*
X0000458689Y0003652268D01*
X0000490748Y0003614773D02*
X0000487373Y0003612898D01*
X0000480624Y0003612898D01*
X0000477249Y0003614773D01*
X0000475562Y0003618522D01*
X0000475562Y0003633520D01*
X0000477249Y0003637270D01*
X0000480624Y0003639145D01*
X0000487373Y0003639145D01*
X0000490748Y0003637270D01*
X0000492435Y0003633520D01*
X0000492435Y0003629771D01*
X0000475562Y0003626021D01*
X0000504246Y0003612898D02*
X0000522806Y0003639145D01*
X0000504246Y0003639145D02*
X0000522806Y0003612898D01*
X0000536304Y0003612898D02*
X0000536304Y0003639145D01*
X0000536304Y0003652268D02*
X0000534617Y0003650393D01*
X0000536304Y0003648518D01*
X0000537992Y0003650393D01*
X0000536304Y0003652268D01*
X0000536304Y0003648518D01*
X0000553177Y0003639145D02*
X0000553177Y0003612898D01*
X0000553177Y0003635394D02*
X0000554865Y0003637270D01*
X0000558239Y0003639145D01*
X0000563301Y0003639145D01*
X0000566676Y0003637270D01*
X0000568363Y0003633520D01*
X0000568363Y0003612898D01*
X0000600421Y0003639145D02*
X0000600421Y0003607274D01*
X0000598734Y0003603524D01*
X0000597047Y0003601649D01*
X0000593672Y0003599775D01*
X0000588610Y0003599775D01*
X0000585236Y0003601649D01*
X0000600421Y0003614773D02*
X0000597047Y0003612898D01*
X0000590298Y0003612898D01*
X0000586923Y0003614773D01*
X0000585236Y0003616647D01*
X0000583548Y0003620397D01*
X0000583548Y0003631646D01*
X0000585236Y0003635394D01*
X0000586923Y0003637270D01*
X0000590298Y0003639145D01*
X0000597047Y0003639145D01*
X0000600421Y0003637270D01*
X0000617294Y0003616647D02*
X0000618981Y0003614773D01*
X0000617294Y0003612898D01*
X0000615607Y0003614773D01*
X0000617294Y0003616647D01*
X0000617294Y0003612898D01*
X0000617294Y0003637270D02*
X0000618981Y0003635394D01*
X0000617294Y0003633520D01*
X0000615607Y0003635394D01*
X0000617294Y0003637270D01*
X0000617294Y0003633520D01*
X0000659475Y0003648518D02*
X0000661164Y0003650393D01*
X0000664538Y0003652268D01*
X0000672975Y0003652268D01*
X0000676349Y0003650393D01*
X0000678037Y0003648518D01*
X0000679724Y0003644769D01*
X0000679724Y0003641019D01*
X0000678037Y0003635394D01*
X0000657789Y0003612898D01*
X0000679724Y0003612898D01*
X0000691535Y0003612898D02*
X0000710095Y0003639145D01*
X0000691535Y0003639145D02*
X0000710095Y0003612898D01*
X0000721906Y0003648518D02*
X0000723593Y0003650393D01*
X0000726967Y0003652268D01*
X0000735404Y0003652268D01*
X0000738779Y0003650393D01*
X0000740466Y0003648518D01*
X0000742153Y0003644769D01*
X0000742153Y0003641019D01*
X0000740466Y0003635394D01*
X0000720219Y0003612898D01*
X0000742153Y0003612898D01*
X0000784336Y0003612898D02*
X0000784336Y0003652268D01*
X0000796147Y0003624147D01*
X0000807958Y0003652268D01*
X0000807958Y0003612898D01*
X0000824831Y0003612898D02*
X0000824831Y0003652268D01*
X0000841704Y0003612898D02*
X0000841704Y0003652268D01*
X0000853515Y0003624147D01*
X0000865326Y0003652268D01*
X0000865326Y0003612898D01*
X0000888948Y0003652268D02*
X0000895697Y0003652268D01*
X0000899071Y0003650393D01*
X0000902446Y0003646644D01*
X0000904133Y0003639145D01*
X0000904133Y0003626021D01*
X0000902446Y0003618522D01*
X0000899071Y0003614773D01*
X0000895697Y0003612898D01*
X0000888948Y0003612898D01*
X0000885573Y0003614773D01*
X0000882199Y0003618522D01*
X0000880511Y0003626021D01*
X0000880511Y0003639145D01*
X0000882199Y0003646644D01*
X0000885573Y0003650393D01*
X0000888948Y0003652268D01*
%LPC*%
X0002772909Y0003238170D02*
X0002771409Y0003235170D01*
X0002768410Y0003233670D01*
X0002741413Y0003233670D01*
X0002751912Y0003263666D02*
X0002772909Y0003263666D01*
X0002751912Y0003250168D02*
X0002768410Y0003250168D01*
X0002771409Y0003251668D01*
X0002772909Y0003254668D01*
X0002772909Y0003259167D01*
X0002771409Y0003262167D01*
X0002769910Y0003263666D01*
X0002751912Y0003274164D02*
X0002751912Y0003286164D01*
X0002772909Y0003278665D02*
X0002745912Y0003278665D01*
X0002742913Y0003280165D01*
X0002741413Y0003283164D01*
X0002741413Y0003286164D01*
X0002751912Y0003292163D02*
X0002751912Y0003304162D01*
X0002741413Y0003296662D02*
X0002768410Y0003296662D01*
X0002771409Y0003298162D01*
X0002772909Y0003301162D01*
X0002772909Y0003304162D01*
X0002771409Y0003326659D02*
X0002772909Y0003323659D01*
X0002772909Y0003317660D01*
X0002771409Y0003314660D01*
X0002768410Y0003313160D01*
X0002756411Y0003313160D01*
X0002753411Y0003314660D01*
X0002751912Y0003317660D01*
X0002751912Y0003323659D01*
X0002753411Y0003326659D01*
X0002756411Y0003328158D01*
X0002759411Y0003328158D01*
X0002762410Y0003313160D01*
X0002772909Y0003341657D02*
X0002741413Y0003341657D01*
X0002760911Y0003344655D02*
X0002772909Y0003353655D01*
X0002751912Y0003353655D02*
X0002763909Y0003341657D01*
D10*
X0002742838Y0003380310D02*
X0002741338Y0003381810D01*
X0002739838Y0003384809D01*
X0002739838Y0003392308D01*
X0002741338Y0003395308D01*
X0002742838Y0003396808D01*
X0002745837Y0003398308D01*
X0002748837Y0003398308D01*
X0002753337Y0003396808D01*
X0002771334Y0003378809D01*
X0002771334Y0003398308D01*
X0002739838Y0003417805D02*
X0002739838Y0003420805D01*
X0002741338Y0003423804D01*
X0002742838Y0003425304D01*
X0002745837Y0003426804D01*
X0002751837Y0003428304D01*
X0002759336Y0003428304D01*
X0002765335Y0003426804D01*
X0002768335Y0003425304D01*
X0002769835Y0003423804D01*
X0002771334Y0003420805D01*
X0002771334Y0003417805D01*
X0002769835Y0003414804D01*
X0002768335Y0003413306D01*
X0002765335Y0003411806D01*
X0002759336Y0003410306D01*
X0002751837Y0003410306D01*
X0002745837Y0003411806D01*
X0002742838Y0003413306D01*
X0002741338Y0003414804D01*
X0002739838Y0003417805D01*
X0002771334Y0003458300D02*
X0002771334Y0003440302D01*
X0002771334Y0003449301D02*
X0002739838Y0003449301D01*
X0002744338Y0003446302D01*
X0002747337Y0003443301D01*
X0002748837Y0003440302D01*
X0002739838Y0003485297D02*
X0002739838Y0003479296D01*
X0002741338Y0003476298D01*
X0002742838Y0003474798D01*
X0002747337Y0003471798D01*
X0002753337Y0003470299D01*
X0002765335Y0003470299D01*
X0002768335Y0003471798D01*
X0002769835Y0003473298D01*
X0002771334Y0003476298D01*
X0002771334Y0003482297D01*
X0002769835Y0003485297D01*
X0002768335Y0003486796D01*
X0002765335Y0003488296D01*
X0002757836Y0003488296D01*
X0002754836Y0003486796D01*
X0002753337Y0003485297D01*
X0002751837Y0003482297D01*
X0002751837Y0003476298D01*
X0002753337Y0003473298D01*
X0002754836Y0003471798D01*
X0002757836Y0003470299D01*
X0002739838Y0003507794D02*
X0002739838Y0003510793D01*
X0002741338Y0003513793D01*
X0002742838Y0003515293D01*
X0002745837Y0003516793D01*
X0002751837Y0003518293D01*
X0002759336Y0003518293D01*
X0002765335Y0003516793D01*
X0002768335Y0003515293D01*
X0002769835Y0003513793D01*
X0002771334Y0003510793D01*
X0002771334Y0003507794D01*
X0002769835Y0003504794D01*
X0002768335Y0003503294D01*
X0002765335Y0003501794D01*
X0002759336Y0003500295D01*
X0002751837Y0003500295D01*
X0002745837Y0003501794D01*
X0002742838Y0003503294D01*
X0002741338Y0003504794D01*
X0002739838Y0003507794D01*
X0002771334Y0003533291D02*
X0002771334Y0003539290D01*
X0002769835Y0003542290D01*
X0002768335Y0003543789D01*
X0002763835Y0003546789D01*
X0002757836Y0003548289D01*
X0002745837Y0003548289D01*
X0002742838Y0003546789D01*
X0002741338Y0003545289D01*
X0002739838Y0003542290D01*
X0002739838Y0003536290D01*
X0002741338Y0003533291D01*
X0002742838Y0003531791D01*
X0002745837Y0003530291D01*
X0002753337Y0003530291D01*
X0002756336Y0003531791D01*
X0002757836Y0003533291D01*
X0002759336Y0003536290D01*
X0002759336Y0003542290D01*
X0002757836Y0003545289D01*
X0002756336Y0003546789D01*
X0002753337Y0003548289D01*
X0002742838Y0003560287D02*
X0002741338Y0003561787D01*
X0002739838Y0003564787D01*
X0002739838Y0003572286D01*
X0002741338Y0003575285D01*
X0002742838Y0003576784D01*
X0002745837Y0003578285D01*
X0002748837Y0003578285D01*
X0002753337Y0003576784D01*
X0002771334Y0003558787D01*
X0002771334Y0003578285D01*
X0002750337Y0003605282D02*
X0002771334Y0003605282D01*
X0002738338Y0003597783D02*
X0002760836Y0003590284D01*
X0002760836Y0003609781D01*
D11*
X0002206242Y0003045988D02*
X0002227240Y0003045988D01*
X0002213742Y0003014491D01*
X0002252737Y0003045988D02*
X0002246737Y0003045988D01*
X0002243738Y0003044488D01*
X0002242238Y0003042987D01*
X0002239238Y0003038488D01*
X0002237739Y0003032489D01*
X0002237739Y0003020491D01*
X0002239238Y0003017491D01*
X0002240738Y0003015991D01*
X0002243738Y0003014491D01*
X0002249737Y0003014491D01*
X0002252737Y0003015991D01*
X0002254236Y0003017491D01*
X0002255736Y0003020491D01*
X0002255736Y0003027990D01*
X0002254236Y0003030989D01*
X0002252737Y0003032489D01*
X0002249737Y0003033989D01*
X0002243738Y0003033989D01*
X0002240738Y0003032489D01*
X0002239238Y0003030989D01*
X0002237739Y0003027990D01*
X0002266235Y0003014491D02*
X0002282733Y0003035489D01*
X0002266235Y0003035489D02*
X0002282733Y0003014491D01*
X0002291732Y0003045988D02*
X0002311229Y0003045988D01*
X0002300731Y0003033989D01*
X0002305230Y0003033989D01*
X0002308230Y0003032489D01*
X0002309730Y0003030989D01*
X0002311229Y0003027990D01*
X0002311229Y0003020491D01*
X0002309730Y0003017491D01*
X0002308230Y0003015991D01*
X0002305230Y0003014491D01*
X0002296231Y0003014491D01*
X0002293232Y0003015991D01*
X0002291732Y0003017491D01*
X0002339726Y0003045988D02*
X0002324728Y0003045988D01*
X0002323228Y0003030989D01*
X0002324728Y0003032489D01*
X0002327727Y0003033989D01*
X0002335226Y0003033989D01*
X0002338226Y0003032489D01*
X0002339726Y0003030989D01*
X0002341226Y0003027990D01*
X0002341226Y0003020491D01*
X0002339726Y0003017491D01*
X0002338226Y0003015991D01*
X0002335226Y0003014491D01*
X0002327727Y0003014491D01*
X0002324728Y0003015991D01*
X0002323228Y0003017491D01*
X0002351724Y0003014491D02*
X0002368222Y0003035489D01*
X0002351724Y0003035489D02*
X0002368222Y0003014491D01*
X0002396719Y0003014491D02*
X0002378721Y0003014491D01*
X0002387720Y0003014491D02*
X0002387720Y0003045988D01*
X0002384720Y0003041488D01*
X0002381721Y0003038488D01*
X0002378721Y0003036989D01*
X0002416216Y0003045988D02*
X0002419216Y0003045988D01*
X0002422215Y0003044488D01*
X0002423715Y0003042987D01*
X0002425215Y0003039988D01*
X0002426715Y0003033989D01*
X0002426715Y0003026490D01*
X0002425215Y0003020491D01*
X0002423715Y0003017491D01*
X0002422215Y0003015991D01*
X0002419216Y0003014491D01*
X0002416216Y0003014491D01*
X0002413217Y0003015991D01*
X0002411717Y0003017491D01*
X0002410217Y0003020491D01*
X0002408717Y0003026490D01*
X0002408717Y0003033989D01*
X0002410217Y0003039988D01*
X0002411717Y0003042987D01*
X0002413217Y0003044488D01*
X0002416216Y0003045988D01*
X0002446212Y0003045988D02*
X0002449212Y0003045988D01*
X0002452212Y0003044488D01*
X0002453712Y0003042987D01*
X0002455211Y0003039988D01*
X0002456711Y0003033989D01*
X0002456711Y0003026490D01*
X0002455211Y0003020491D01*
X0002453712Y0003017491D01*
X0002452212Y0003015991D01*
X0002449212Y0003014491D01*
X0002446212Y0003014491D01*
X0002443213Y0003015991D01*
X0002441713Y0003017491D01*
X0002440213Y0003020491D01*
X0002438713Y0003026490D01*
X0002438713Y0003033989D01*
X0002440213Y0003039988D01*
X0002441713Y0003042987D01*
X0002443213Y0003044488D01*
X0002446212Y0003045988D01*
X0002492707Y0003015991D02*
X0002495706Y0003014491D01*
X0002501706Y0003014491D01*
X0002504705Y0003015991D01*
X0002506205Y0003018990D01*
X0002506205Y0003020491D01*
X0002504705Y0003023490D01*
X0002501706Y0003024990D01*
X0002497206Y0003024990D01*
X0002494206Y0003026490D01*
X0002492707Y0003029490D01*
X0002492707Y0003030989D01*
X0002494206Y0003033989D01*
X0002497206Y0003035489D01*
X0002501706Y0003035489D01*
X0002504705Y0003033989D01*
X0002519703Y0003035489D02*
X0002519703Y0003003993D01*
X0002519703Y0003033989D02*
X0002522702Y0003035489D01*
X0002528701Y0003035489D01*
X0002531702Y0003033989D01*
X0002533202Y0003032489D01*
X0002534701Y0003029490D01*
X0002534701Y0003020491D01*
X0002533202Y0003017491D01*
X0002531702Y0003015991D01*
X0002528701Y0003014491D01*
X0002522702Y0003014491D01*
X0002519703Y0003015991D01*
X0002552699Y0003014491D02*
X0002549699Y0003015991D01*
X0002548200Y0003018990D01*
X0002548200Y0003045988D01*
X0002564698Y0003014491D02*
X0002564698Y0003035489D01*
X0002564698Y0003045988D02*
X0002563198Y0003044488D01*
X0002564698Y0003042987D01*
X0002566197Y0003044488D01*
X0002564698Y0003045988D01*
X0002564698Y0003042987D01*
X0002575196Y0003035489D02*
X0002587194Y0003035489D01*
X0002579696Y0003045988D02*
X0002579696Y0003018990D01*
X0002581195Y0003015991D01*
X0002584195Y0003014491D01*
X0002587194Y0003014491D01*
X0002620190Y0003015991D02*
X0002623190Y0003014491D01*
X0002629190Y0003014491D01*
X0002632189Y0003015991D01*
X0002633689Y0003018990D01*
X0002633689Y0003020491D01*
X0002632189Y0003023490D01*
X0002629190Y0003024990D01*
X0002624690Y0003024990D01*
X0002621691Y0003026490D01*
X0002620190Y0003029490D01*
X0002620190Y0003030989D01*
X0002621691Y0003033989D01*
X0002624690Y0003035489D01*
X0002629190Y0003035489D01*
X0002632189Y0003033989D01*
X0002647187Y0003014491D02*
X0002647187Y0003045988D01*
X0002660686Y0003014491D02*
X0002660686Y0003030989D01*
X0002659186Y0003033989D01*
X0002656185Y0003035489D01*
X0002651686Y0003035489D01*
X0002648687Y0003033989D01*
X0002647187Y0003032489D01*
X0002687682Y0003015991D02*
X0002684682Y0003014491D01*
X0002678683Y0003014491D01*
X0002675684Y0003015991D01*
X0002674184Y0003018990D01*
X0002674184Y0003030989D01*
X0002675684Y0003033989D01*
X0002678683Y0003035489D01*
X0002684682Y0003035489D01*
X0002687682Y0003033989D01*
X0002689182Y0003030989D01*
X0002689182Y0003027990D01*
X0002674184Y0003024990D01*
X0002707180Y0003014491D02*
X0002704180Y0003015991D01*
X0002702680Y0003018990D01*
X0002702680Y0003045988D01*
X0002723678Y0003014491D02*
X0002720677Y0003015991D01*
X0002719178Y0003018990D01*
X0002719178Y0003045988D01*
D12*
X0002648827Y0003882137D02*
X0002648827Y0003725837D01*
D13*
X0002684654Y0003804184D02*
G75*
G03G03G03G03X0002684654Y0003804184I-0000150787D01X0002684654Y0003804184I-0000150787D01X0002684654Y0003804184I-0000150787D01G03G03X0002684654Y0003804184I-0000150787D01G03G03X0002684654Y0003804184I-0000150787D01X0002684654Y0003804184I-0000150787D01X0002684654Y0003804184I-0000150787D01X0002684654Y0003804184I-0000150787D01*
G01G01G01G01G01G01G01G01*
D14*
X0002638591Y0003804184D02*
G75*
G03G03G03G03X0002638591Y0003804184I-0000104724D01X0002638591Y0003804184I-0000104724D01X0002638591Y0003804184I-0000104724D01G03G03X0002638591Y0003804184I-0000104724D01G03G03X0002638591Y0003804184I-0000104724D01X0002638591Y0003804184I-0000104724D01X0002638591Y0003804184I-0000104724D01X0002638591Y0003804184I-0000104724D01*
G01G01G01G01G01G01G01G01*
D15*
X0000718366Y0004110235D03*
X0000838267Y0004110235D03*
X0000478562Y0004110235D03*
X0001078070Y0004110235D03*
X0000598464Y0004110235D03*
X0000958169Y0004110235D03*
X0001917381Y0004110235D03*
X0001317873Y0004110235D03*
X0001437775Y0004110235D03*
X0001677578Y0004110235D03*
X0001797480Y0004110235D03*
X0001557677Y0004110235D03*
X0001197972Y0004110235D03*
X0002516889Y0004110235D03*
X0002157185Y0004110235D03*
X0002277086Y0004110235D03*
X0002396988Y0004110235D03*
X0002037283Y0004110235D03*
X0002576948Y0004151968D03*
X0002457047Y0004151968D03*
X0002337145Y0004151968D03*
X0002217244Y0004151968D03*
X0002097342Y0004151968D03*
X0001977440Y0004151968D03*
X0001857539Y0004151968D03*
X0001737637Y0004151968D03*
X0001617736Y0004151968D03*
X0001497834Y0004151968D03*
X0001377933Y0004151968D03*
X0001258031Y0004151968D03*
X0001138129Y0004151968D03*
X0001018227Y0004151968D03*
X0000898326Y0004151968D03*
X0000778425Y0004151968D03*
X0000658523Y0004151968D03*
X0000538622Y0004151968D03*
X0000418720Y0004151968D03*
D10*
G36*
X0001247313Y0003230685D02*
X0001247772Y0003230617D01*
X0001248221Y0003230505D01*
X0001248658Y0003230349D01*
X0001249077Y0003230150D01*
X0001249475Y0003229912D01*
X0001249847Y0003229636D01*
X0001250191Y0003229324D01*
X0001250502Y0003228981D01*
X0001250778Y0003228608D01*
X0001251016Y0003228211D01*
X0001251215Y0003227792D01*
X0001251371Y0003227355D01*
X0001251484Y0003226905D01*
X0001251552Y0003226447D01*
X0001251574Y0003225984D01*
X0001251574Y0003188187D01*
X0001251552Y0003187724D01*
X0001251484Y0003187267D01*
X0001251371Y0003186817D01*
X0001251215Y0003186381D01*
X0001251016Y0003185961D01*
X0001250778Y0003185564D01*
X0001250502Y0003185191D01*
X0001250191Y0003184848D01*
X0001249847Y0003184535D01*
X0001249475Y0003184259D01*
X0001249077Y0003184022D01*
X0001248658Y0003183824D01*
X0001248221Y0003183667D01*
X0001247772Y0003183555D01*
X0001247313Y0003183487D01*
X0001246850Y0003183464D01*
X0001209055Y0003183464D01*
X0001208592Y0003183487D01*
X0001208133Y0003183555D01*
X0001207683Y0003183667D01*
X0001207247Y0003183824D01*
X0001206828Y0003184022D01*
X0001206430Y0003184259D01*
X0001206057Y0003184535D01*
X0001205714Y0003184848D01*
X0001205403Y0003185191D01*
X0001205126Y0003185564D01*
X0001204888Y0003185961D01*
X0001204690Y0003186381D01*
X0001204534Y0003186817D01*
X0001204421Y0003187267D01*
X0001204353Y0003187724D01*
X0001204330Y0003188187D01*
X0001204330Y0003225984D01*
X0001204353Y0003226447D01*
X0001204421Y0003226905D01*
X0001204534Y0003227355D01*
X0001204690Y0003227792D01*
X0001204888Y0003228211D01*
X0001205126Y0003228608D01*
X0001205403Y0003228981D01*
X0001205714Y0003229324D01*
X0001206057Y0003229636D01*
X0001206430Y0003229912D01*
X0001206828Y0003230150D01*
X0001207247Y0003230349D01*
X0001207683Y0003230505D01*
X0001208133Y0003230617D01*
X0001208592Y0003230685D01*
X0001209055Y0003230708D01*
X0001246850Y0003230708D01*
X0001247313Y0003230685D01*
X0001247313Y0003230685D01*
G37*
G36*
X0001788258Y0003231867D02*
X0001788716Y0003231798D01*
X0001789166Y0003231686D01*
X0001789603Y0003231530D01*
X0001790021Y0003231330D01*
X0001790420Y0003231093D01*
X0001790792Y0003230817D01*
X0001791135Y0003230506D01*
X0001791447Y0003230162D01*
X0001791723Y0003229790D01*
X0001791961Y0003229392D01*
X0001792160Y0003228973D01*
X0001792314Y0003228536D01*
X0001792428Y0003228087D01*
X0001792496Y0003227628D01*
X0001792519Y0003227165D01*
X0001792519Y0003189370D01*
X0001792496Y0003188907D01*
X0001792428Y0003188448D01*
X0001792314Y0003187998D01*
X0001792160Y0003187562D01*
X0001791961Y0003187142D01*
X0001791723Y0003186745D01*
X0001791447Y0003186372D01*
X0001791135Y0003186029D01*
X0001790792Y0003185718D01*
X0001790420Y0003185441D01*
X0001790021Y0003185203D01*
X0001789603Y0003185005D01*
X0001789166Y0003184849D01*
X0001788716Y0003184736D01*
X0001788258Y0003184668D01*
X0001787795Y0003184645D01*
X0001750000Y0003184645D01*
X0001749536Y0003184668D01*
X0001749078Y0003184736D01*
X0001748628Y0003184849D01*
X0001748192Y0003185005D01*
X0001747772Y0003185203D01*
X0001747373Y0003185441D01*
X0001747002Y0003185718D01*
X0001746659Y0003186029D01*
X0001746346Y0003186372D01*
X0001746071Y0003186745D01*
X0001745833Y0003187142D01*
X0001745635Y0003187562D01*
X0001745479Y0003187998D01*
X0001745366Y0003188448D01*
X0001745298Y0003188907D01*
X0001745275Y0003189370D01*
X0001745275Y0003227165D01*
X0001745298Y0003227628D01*
X0001745366Y0003228087D01*
X0001745479Y0003228536D01*
X0001745635Y0003228973D01*
X0001745833Y0003229392D01*
X0001746071Y0003229790D01*
X0001746346Y0003230162D01*
X0001746659Y0003230506D01*
X0001747002Y0003230817D01*
X0001747373Y0003231093D01*
X0001747772Y0003231330D01*
X0001748192Y0003231530D01*
X0001748628Y0003231686D01*
X0001749078Y0003231798D01*
X0001749536Y0003231867D01*
X0001750000Y0003231889D01*
X0001787795Y0003231889D01*
X0001788258Y0003231867D01*
X0001788258Y0003231867D01*
G37*
G36*
X0001539601Y0003047232D02*
X0001539830Y0003047198D01*
X0001540055Y0003047142D01*
X0001540274Y0003047064D01*
X0001540483Y0003046965D01*
X0001540682Y0003046845D01*
X0001540868Y0003046707D01*
X0001541040Y0003046552D01*
X0001541196Y0003046380D01*
X0001541334Y0003046194D01*
X0001541453Y0003045995D01*
X0001541552Y0003045785D01*
X0001541630Y0003045567D01*
X0001541686Y0003045342D01*
X0001541720Y0003045113D01*
X0001541732Y0003044881D01*
X0001541732Y0003025984D01*
X0001541720Y0003025752D01*
X0001541686Y0003025523D01*
X0001541630Y0003025298D01*
X0001541552Y0003025080D01*
X0001541453Y0003024869D01*
X0001541334Y0003024671D01*
X0001541196Y0003024485D01*
X0001541040Y0003024313D01*
X0001540868Y0003024158D01*
X0001540682Y0003024020D01*
X0001540483Y0003023900D01*
X0001540274Y0003023801D01*
X0001540055Y0003023723D01*
X0001539830Y0003023667D01*
X0001539601Y0003023633D01*
X0001539369Y0003023622D01*
X0001457480Y0003023622D01*
X0001457248Y0003023633D01*
X0001457019Y0003023667D01*
X0001456794Y0003023723D01*
X0001456576Y0003023801D01*
X0001456366Y0003023900D01*
X0001456167Y0003024020D01*
X0001455981Y0003024158D01*
X0001455810Y0003024313D01*
X0001455654Y0003024485D01*
X0001455516Y0003024671D01*
X0001455397Y0003024869D01*
X0001455297Y0003025080D01*
X0001455219Y0003025298D01*
X0001455163Y0003025523D01*
X0001455129Y0003025752D01*
X0001455118Y0003025984D01*
X0001455118Y0003044881D01*
X0001455129Y0003045113D01*
X0001455163Y0003045342D01*
X0001455219Y0003045567D01*
X0001455297Y0003045785D01*
X0001455397Y0003045995D01*
X0001455516Y0003046194D01*
X0001455654Y0003046380D01*
X0001455810Y0003046552D01*
X0001455981Y0003046707D01*
X0001456167Y0003046845D01*
X0001456366Y0003046965D01*
X0001456576Y0003047064D01*
X0001456794Y0003047142D01*
X0001457019Y0003047198D01*
X0001457248Y0003047232D01*
X0001457480Y0003047244D01*
X0001539369Y0003047244D01*
X0001539601Y0003047232D01*
X0001539601Y0003047232D01*
G37*
G36*
X0001211880Y0003355095D02*
X0001212339Y0003355027D01*
X0001212788Y0003354914D01*
X0001213225Y0003354758D01*
X0001213644Y0003354560D01*
X0001214042Y0003354320D01*
X0001214414Y0003354044D01*
X0001214757Y0003353734D01*
X0001215069Y0003353390D01*
X0001215345Y0003353018D01*
X0001215583Y0003352619D01*
X0001215782Y0003352201D01*
X0001215938Y0003351765D01*
X0001216050Y0003351315D01*
X0001216118Y0003350856D01*
X0001216141Y0003350393D01*
X0001216141Y0003273228D01*
X0001216118Y0003272765D01*
X0001216050Y0003272306D01*
X0001215938Y0003271855D01*
X0001215782Y0003271420D01*
X0001215583Y0003271001D01*
X0001215345Y0003270603D01*
X0001215069Y0003270231D01*
X0001214757Y0003269887D01*
X0001214414Y0003269576D01*
X0001214042Y0003269300D01*
X0001213644Y0003269061D01*
X0001213225Y0003268863D01*
X0001212788Y0003268707D01*
X0001212339Y0003268594D01*
X0001211880Y0003268526D01*
X0001211417Y0003268502D01*
X0001173622Y0003268502D01*
X0001173158Y0003268526D01*
X0001172700Y0003268594D01*
X0001172250Y0003268707D01*
X0001171814Y0003268863D01*
X0001171394Y0003269061D01*
X0001170997Y0003269300D01*
X0001170624Y0003269576D01*
X0001170281Y0003269887D01*
X0001169970Y0003270231D01*
X0001169693Y0003270603D01*
X0001169455Y0003271001D01*
X0001169257Y0003271420D01*
X0001169101Y0003271855D01*
X0001168988Y0003272306D01*
X0001168920Y0003272765D01*
X0001168897Y0003273228D01*
X0001168897Y0003350393D01*
X0001168920Y0003350856D01*
X0001168988Y0003351315D01*
X0001169101Y0003351765D01*
X0001169257Y0003352201D01*
X0001169455Y0003352619D01*
X0001169693Y0003353018D01*
X0001169970Y0003353390D01*
X0001170281Y0003353734D01*
X0001170624Y0003354044D01*
X0001170997Y0003354320D01*
X0001171394Y0003354560D01*
X0001171814Y0003354758D01*
X0001172250Y0003354914D01*
X0001172700Y0003355027D01*
X0001173158Y0003355095D01*
X0001173622Y0003355118D01*
X0001211417Y0003355118D01*
X0001211880Y0003355095D01*
X0001211880Y0003355095D01*
G37*
G36*
X0001818681Y0003355292D02*
X0001819139Y0003355224D01*
X0001819588Y0003355111D01*
X0001820026Y0003354955D01*
X0001820445Y0003354757D01*
X0001820841Y0003354518D01*
X0001821215Y0003354242D01*
X0001821558Y0003353931D01*
X0001821870Y0003353587D01*
X0001822146Y0003353215D01*
X0001822384Y0003352817D01*
X0001822582Y0003352398D01*
X0001822739Y0003351961D01*
X0001822851Y0003351512D01*
X0001822919Y0003351053D01*
X0001822942Y0003350590D01*
X0001822942Y0003273425D01*
X0001822919Y0003272962D01*
X0001822851Y0003272503D01*
X0001822739Y0003272053D01*
X0001822582Y0003271617D01*
X0001822384Y0003271198D01*
X0001822146Y0003270800D01*
X0001821870Y0003270428D01*
X0001821558Y0003270084D01*
X0001821215Y0003269773D01*
X0001820841Y0003269496D01*
X0001820445Y0003269258D01*
X0001820026Y0003269059D01*
X0001819588Y0003268904D01*
X0001819139Y0003268791D01*
X0001818681Y0003268723D01*
X0001818217Y0003268700D01*
X0001780422Y0003268700D01*
X0001779959Y0003268723D01*
X0001779501Y0003268791D01*
X0001779051Y0003268904D01*
X0001778614Y0003269059D01*
X0001778195Y0003269258D01*
X0001777798Y0003269496D01*
X0001777425Y0003269773D01*
X0001777082Y0003270084D01*
X0001776770Y0003270428D01*
X0001776494Y0003270800D01*
X0001776256Y0003271198D01*
X0001776057Y0003271617D01*
X0001775901Y0003272053D01*
X0001775789Y0003272503D01*
X0001775721Y0003272962D01*
X0001775698Y0003273425D01*
X0001775698Y0003350590D01*
X0001775721Y0003351053D01*
X0001775789Y0003351512D01*
X0001775901Y0003351961D01*
X0001776057Y0003352398D01*
X0001776256Y0003352817D01*
X0001776494Y0003353215D01*
X0001776770Y0003353587D01*
X0001777082Y0003353931D01*
X0001777425Y0003354242D01*
X0001777798Y0003354518D01*
X0001778195Y0003354757D01*
X0001778614Y0003354955D01*
X0001779051Y0003355111D01*
X0001779501Y0003355224D01*
X0001779959Y0003355292D01*
X0001780422Y0003355314D01*
X0001818217Y0003355314D01*
X0001818681Y0003355292D01*
X0001818681Y0003355292D01*
G37*
D16*
G36*
X0002788375Y0004291461D02*
X0002778306Y0004216809D01*
X0000188532Y0004216025D01*
X0000189578Y0004293421D01*
X0002788375Y0004291461D01*
X0002788375Y0004291461D01*
G37*
X0002788375Y0004291461D02*
X0002778306Y0004216809D01*
X0000188532Y0004216025D01*
X0000189578Y0004293421D01*
X0002788375Y0004291461D01*
G36*
X0002760725Y0002912481D02*
X0000233323Y0002913266D01*
X0000232975Y0002988702D01*
X0002760376Y0002989486D01*
X0002760725Y0002912481D01*
X0002760725Y0002912481D01*
G37*
X0002760725Y0002912481D02*
X0000233323Y0002913266D01*
X0000232975Y0002988702D01*
X0002760376Y0002989486D01*
X0002760725Y0002912481D01*
G36*
X0002993820Y0003908755D02*
X0002984507Y0003896338D01*
X0002957086Y0003896338D01*
X0002955173Y0003895957D01*
X0002953551Y0003894874D01*
X0002952467Y0003893252D01*
X0002952086Y0003891348D01*
X0002950905Y0003316545D01*
X0002951282Y0003314631D01*
X0002952362Y0003313007D01*
X0002953982Y0003311919D01*
X0002955905Y0003311535D01*
X0002984936Y0003311535D01*
X0002993818Y0003302653D01*
X0002993818Y0002912086D01*
X0002757339Y0002912086D01*
X0002756968Y0002993714D01*
X0002756968Y0003078648D01*
X0002759935Y0003082603D01*
X0002762108Y0003083606D01*
X0002766277Y0003082216D01*
X0002789628Y0003060325D01*
X0002792804Y0003048326D01*
X0002794214Y0003045962D01*
X0002807206Y0003033757D01*
X0002808732Y0003032775D01*
X0002824086Y0003026476D01*
X0002825984Y0003026102D01*
X0002840944Y0003026102D01*
X0002843439Y0003026769D01*
X0002856431Y0003034249D01*
X0002857249Y0003034836D01*
X0002867486Y0003043892D01*
X0002868791Y0003045722D01*
X0002875484Y0003061864D01*
X0002875863Y0003063926D01*
X0002875470Y0003077312D01*
X0002875124Y0003078997D01*
X0002870006Y0003091990D01*
X0002869017Y0003093559D01*
X0002858782Y0003104583D01*
X0002857116Y0003105764D01*
X0002842610Y0003112087D01*
X0002820257Y0003134073D01*
X0002818685Y0003140363D01*
X0002820678Y0003144351D01*
X0002826456Y0003147377D01*
X0002888251Y0003148150D01*
X0002890160Y0003148554D01*
X0002891768Y0003149658D01*
X0002892831Y0003151294D01*
X0002893188Y0003153149D01*
X0002893188Y0003227952D01*
X0002892808Y0003229866D01*
X0002891723Y0003231487D01*
X0002890102Y0003232572D01*
X0002888249Y0003232952D01*
X0002796341Y0003234072D01*
X0002796729Y0003971459D01*
X0002887090Y0003972953D01*
X0002888997Y0003973365D01*
X0002890601Y0003974476D01*
X0002891658Y0003976115D01*
X0002892006Y0003977926D01*
X0002892401Y0004053517D01*
X0002892030Y0004055430D01*
X0002890955Y0004057060D01*
X0002889339Y0004058150D01*
X0002887430Y0004058543D01*
X0002822448Y0004058925D01*
X0002818922Y0004062198D01*
X0002817129Y0004065337D01*
X0002817932Y0004068751D01*
X0002840191Y0004091375D01*
X0002851755Y0004095712D01*
X0002853441Y0004096765D01*
X0002868795Y0004111333D01*
X0002870107Y0004113410D01*
X0002876013Y0004131520D01*
X0002876094Y0004134347D01*
X0002870582Y0004155213D01*
X0002869330Y0004157425D01*
X0002854763Y0004172385D01*
X0002853155Y0004173491D01*
X0002852045Y0004173822D01*
X0002829604Y0004177759D01*
X0002827527Y0004177685D01*
X0002813354Y0004174142D01*
X0002811366Y0004173132D01*
X0002797192Y0004161321D01*
X0002795788Y0004159428D01*
X0002787581Y0004140028D01*
X0002765868Y0004121260D01*
X0002763927Y0004120483D01*
X0002760869Y0004120891D01*
X0002758631Y0004122925D01*
X0002756570Y0004128814D01*
X0002756181Y0004210539D01*
X0002759520Y0004291781D01*
X0002810165Y0004291063D01*
X0002810267Y0004291063D01*
X0002994207Y0004292212D01*
X0002993820Y0003908755D01*
X0002993820Y0003908755D01*
G37*
X0002993820Y0003908755D02*
X0002984507Y0003896338D01*
X0002957086Y0003896338D01*
X0002955173Y0003895957D01*
X0002953551Y0003894874D01*
X0002952467Y0003893252D01*
X0002952086Y0003891348D01*
X0002950905Y0003316545D01*
X0002951282Y0003314631D01*
X0002952362Y0003313007D01*
X0002953982Y0003311919D01*
X0002955905Y0003311535D01*
X0002984936Y0003311535D01*
X0002993818Y0003302653D01*
X0002993818Y0002912086D01*
X0002757339Y0002912086D01*
X0002756968Y0002993714D01*
X0002756968Y0003078648D01*
X0002759935Y0003082603D01*
X0002762108Y0003083606D01*
X0002766277Y0003082216D01*
X0002789628Y0003060325D01*
X0002792804Y0003048326D01*
X0002794214Y0003045962D01*
X0002807206Y0003033757D01*
X0002808732Y0003032775D01*
X0002824086Y0003026476D01*
X0002825984Y0003026102D01*
X0002840944Y0003026102D01*
X0002843439Y0003026769D01*
X0002856431Y0003034249D01*
X0002857249Y0003034836D01*
X0002867486Y0003043892D01*
X0002868791Y0003045722D01*
X0002875484Y0003061864D01*
X0002875863Y0003063926D01*
X0002875470Y0003077312D01*
X0002875124Y0003078997D01*
X0002870006Y0003091990D01*
X0002869017Y0003093559D01*
X0002858782Y0003104583D01*
X0002857116Y0003105764D01*
X0002842610Y0003112087D01*
X0002820257Y0003134073D01*
X0002818685Y0003140363D01*
X0002820678Y0003144351D01*
X0002826456Y0003147377D01*
X0002888251Y0003148150D01*
X0002890160Y0003148554D01*
X0002891768Y0003149658D01*
X0002892831Y0003151294D01*
X0002893188Y0003153149D01*
X0002893188Y0003227952D01*
X0002892808Y0003229866D01*
X0002891723Y0003231487D01*
X0002890102Y0003232572D01*
X0002888249Y0003232952D01*
X0002796341Y0003234072D01*
X0002796729Y0003971459D01*
X0002887090Y0003972953D01*
X0002888997Y0003973365D01*
X0002890601Y0003974476D01*
X0002891658Y0003976115D01*
X0002892006Y0003977926D01*
X0002892401Y0004053517D01*
X0002892030Y0004055430D01*
X0002890955Y0004057060D01*
X0002889339Y0004058150D01*
X0002887430Y0004058543D01*
X0002822448Y0004058925D01*
X0002818922Y0004062198D01*
X0002817129Y0004065337D01*
X0002817932Y0004068751D01*
X0002840191Y0004091375D01*
X0002851755Y0004095712D01*
X0002853441Y0004096765D01*
X0002868795Y0004111333D01*
X0002870107Y0004113410D01*
X0002876013Y0004131520D01*
X0002876094Y0004134347D01*
X0002870582Y0004155213D01*
X0002869330Y0004157425D01*
X0002854763Y0004172385D01*
X0002853155Y0004173491D01*
X0002852045Y0004173822D01*
X0002829604Y0004177759D01*
X0002827527Y0004177685D01*
X0002813354Y0004174142D01*
X0002811366Y0004173132D01*
X0002797192Y0004161321D01*
X0002795788Y0004159428D01*
X0002787581Y0004140028D01*
X0002765868Y0004121260D01*
X0002763927Y0004120483D01*
X0002760869Y0004120891D01*
X0002758631Y0004122925D01*
X0002756570Y0004128814D01*
X0002756181Y0004210539D01*
X0002759520Y0004291781D01*
X0002810165Y0004291063D01*
X0002810267Y0004291063D01*
X0002994207Y0004292212D01*
X0002993820Y0003908755D01*
G36*
X0000230826Y0004212978D02*
X0000230826Y0004128044D01*
X0000227860Y0004124088D01*
X0000225686Y0004123086D01*
X0000221518Y0004124475D01*
X0000198167Y0004146366D01*
X0000194990Y0004158366D01*
X0000193580Y0004160730D01*
X0000180588Y0004172935D01*
X0000179063Y0004173917D01*
X0000163708Y0004180214D01*
X0000161811Y0004180589D01*
X0000146850Y0004180589D01*
X0000144355Y0004179922D01*
X0000131363Y0004172443D01*
X0000130545Y0004171855D01*
X0000120309Y0004162800D01*
X0000119003Y0004160970D01*
X0000112309Y0004144828D01*
X0000111931Y0004142766D01*
X0000112325Y0004129380D01*
X0000112670Y0004127694D01*
X0000117788Y0004114702D01*
X0000118776Y0004113133D01*
X0000129011Y0004102108D01*
X0000130677Y0004100927D01*
X0000145185Y0004094604D01*
X0000167537Y0004072618D01*
X0000169110Y0004066328D01*
X0000167115Y0004062341D01*
X0000161338Y0004059315D01*
X0000099543Y0004058542D01*
X0000097635Y0004058137D01*
X0000096026Y0004057034D01*
X0000094963Y0004055398D01*
X0000094606Y0004053543D01*
X0000094606Y0003978740D01*
X0000094986Y0003976826D01*
X0000096070Y0003975204D01*
X0000097692Y0003974120D01*
X0000099545Y0003973740D01*
X0000191454Y0003972619D01*
X0000191065Y0003235233D01*
X0000100704Y0003233739D01*
X0000098797Y0003233327D01*
X0000097193Y0003232216D01*
X0000096137Y0003230576D01*
X0000095787Y0003228766D01*
X0000095393Y0003153175D01*
X0000095764Y0003151260D01*
X0000096839Y0003149632D01*
X0000098456Y0003148540D01*
X0000100364Y0003148149D01*
X0000165345Y0003147767D01*
X0000168872Y0003144493D01*
X0000170666Y0003141354D01*
X0000169863Y0003137941D01*
X0000147604Y0003115317D01*
X0000136039Y0003110980D01*
X0000134353Y0003109926D01*
X0000118999Y0003095359D01*
X0000117686Y0003093282D01*
X0000111781Y0003075171D01*
X0000111701Y0003072345D01*
X0000117212Y0003051478D01*
X0000118464Y0003049267D01*
X0000133031Y0003034307D01*
X0000134639Y0003033201D01*
X0000135750Y0003032870D01*
X0000158191Y0003028933D01*
X0000160267Y0003029007D01*
X0000174441Y0003032550D01*
X0000176428Y0003033560D01*
X0000190602Y0003045371D01*
X0000192006Y0003047264D01*
X0000200213Y0003066664D01*
X0000221926Y0003085432D01*
X0000223867Y0003086209D01*
X0000226925Y0003085801D01*
X0000229163Y0003083766D01*
X0000231224Y0003077878D01*
X0000231613Y0002996153D01*
X0000228271Y0002914818D01*
X0000155501Y0002914448D01*
X-0000006412Y0002914448D01*
X-0000006025Y0003297937D01*
X0000003286Y0003310354D01*
X0000030708Y0003310354D01*
X0000032622Y0003310734D01*
X0000034244Y0003311818D01*
X0000035328Y0003313440D01*
X0000035708Y0003315344D01*
X0000036889Y0003890147D01*
X0000036513Y0003892061D01*
X0000035432Y0003893685D01*
X0000033812Y0003894772D01*
X0000031889Y0003895157D01*
X0000002858Y0003895157D01*
X-0000006023Y0003904039D01*
X-0000006023Y0004294606D01*
X0000230455Y0004294606D01*
X0000230826Y0004212978D01*
X0000230826Y0004212978D01*
G37*
X0000230826Y0004212978D02*
X0000230826Y0004128044D01*
X0000227860Y0004124088D01*
X0000225686Y0004123086D01*
X0000221518Y0004124475D01*
X0000198167Y0004146366D01*
X0000194990Y0004158366D01*
X0000193580Y0004160730D01*
X0000180588Y0004172935D01*
X0000179063Y0004173917D01*
X0000163708Y0004180214D01*
X0000161811Y0004180589D01*
X0000146850Y0004180589D01*
X0000144355Y0004179922D01*
X0000131363Y0004172443D01*
X0000130545Y0004171855D01*
X0000120309Y0004162800D01*
X0000119003Y0004160970D01*
X0000112309Y0004144828D01*
X0000111931Y0004142766D01*
X0000112325Y0004129380D01*
X0000112670Y0004127694D01*
X0000117788Y0004114702D01*
X0000118776Y0004113133D01*
X0000129011Y0004102108D01*
X0000130677Y0004100927D01*
X0000145185Y0004094604D01*
X0000167537Y0004072618D01*
X0000169110Y0004066328D01*
X0000167115Y0004062341D01*
X0000161338Y0004059315D01*
X0000099543Y0004058542D01*
X0000097635Y0004058137D01*
X0000096026Y0004057034D01*
X0000094963Y0004055398D01*
X0000094606Y0004053543D01*
X0000094606Y0003978740D01*
X0000094986Y0003976826D01*
X0000096070Y0003975204D01*
X0000097692Y0003974120D01*
X0000099545Y0003973740D01*
X0000191454Y0003972619D01*
X0000191065Y0003235233D01*
X0000100704Y0003233739D01*
X0000098797Y0003233327D01*
X0000097193Y0003232216D01*
X0000096137Y0003230576D01*
X0000095787Y0003228766D01*
X0000095393Y0003153175D01*
X0000095764Y0003151260D01*
X0000096839Y0003149632D01*
X0000098456Y0003148540D01*
X0000100364Y0003148149D01*
X0000165345Y0003147767D01*
X0000168872Y0003144493D01*
X0000170666Y0003141354D01*
X0000169863Y0003137941D01*
X0000147604Y0003115317D01*
X0000136039Y0003110980D01*
X0000134353Y0003109926D01*
X0000118999Y0003095359D01*
X0000117686Y0003093282D01*
X0000111781Y0003075171D01*
X0000111701Y0003072345D01*
X0000117212Y0003051478D01*
X0000118464Y0003049267D01*
X0000133031Y0003034307D01*
X0000134639Y0003033201D01*
X0000135750Y0003032870D01*
X0000158191Y0003028933D01*
X0000160267Y0003029007D01*
X0000174441Y0003032550D01*
X0000176428Y0003033560D01*
X0000190602Y0003045371D01*
X0000192006Y0003047264D01*
X0000200213Y0003066664D01*
X0000221926Y0003085432D01*
X0000223867Y0003086209D01*
X0000226925Y0003085801D01*
X0000229163Y0003083766D01*
X0000231224Y0003077878D01*
X0000231613Y0002996153D01*
X0000228271Y0002914818D01*
X0000155501Y0002914448D01*
X-0000006412Y0002914448D01*
X-0000006025Y0003297937D01*
X0000003286Y0003310354D01*
X0000030708Y0003310354D01*
X0000032622Y0003310734D01*
X0000034244Y0003311818D01*
X0000035328Y0003313440D01*
X0000035708Y0003315344D01*
X0000036889Y0003890147D01*
X0000036513Y0003892061D01*
X0000035432Y0003893685D01*
X0000033812Y0003894772D01*
X0000031889Y0003895157D01*
X0000002858Y0003895157D01*
X-0000006023Y0003904039D01*
X-0000006023Y0004294606D01*
X0000230455Y0004294606D01*
X0000230826Y0004212978D01*
%LPD*%
G01G01G01G01G01G01G01G01*
D27*
D28*
X0003191038Y0001544825D02*
X0003151668Y0001544825D01*
X0003191038Y0001560011D02*
X0003170416Y0001560011D01*
X0003166666Y0001558323D01*
X0003164791Y0001554949D01*
X0003164791Y0001549887D01*
X0003166666Y0001546512D01*
X0003168541Y0001544825D01*
X0003191038Y0001581945D02*
X0003189163Y0001578571D01*
X0003187289Y0001576884D01*
X0003183539Y0001575196D01*
X0003172290Y0001575196D01*
X0003168541Y0001576884D01*
X0003166666Y0001578571D01*
X0003164791Y0001581945D01*
X0003164791Y0001587007D01*
X0003166666Y0001590382D01*
X0003168541Y0001592069D01*
X0003172290Y0001593757D01*
X0003183539Y0001593757D01*
X0003187289Y0001592069D01*
X0003189163Y0001590382D01*
X0003191038Y0001587007D01*
X0003191038Y0001581945D01*
X0003191038Y0001614004D02*
X0003189163Y0001610629D01*
X0003185414Y0001608942D01*
X0003151668Y0001608942D01*
X0003189163Y0001641001D02*
X0003191038Y0001637626D01*
X0003191038Y0001630877D01*
X0003189163Y0001627502D01*
X0003185414Y0001625815D01*
X0003170416Y0001625815D01*
X0003166666Y0001627502D01*
X0003164791Y0001630877D01*
X0003164791Y0001637626D01*
X0003166666Y0001641001D01*
X0003170416Y0001642688D01*
X0003174165Y0001642688D01*
X0003177914Y0001625815D01*
X0003164791Y0001684870D02*
X0003204160Y0001684870D01*
X0003166666Y0001684870D02*
X0003164791Y0001688245D01*
X0003164791Y0001694994D01*
X0003166666Y0001698368D01*
X0003168541Y0001700056D01*
X0003172290Y0001701742D01*
X0003183539Y0001701742D01*
X0003187289Y0001700056D01*
X0003189163Y0001698368D01*
X0003191038Y0001694994D01*
X0003191038Y0001688245D01*
X0003189163Y0001684870D01*
X0003191038Y0001721988D02*
X0003189163Y0001718616D01*
X0003185414Y0001716929D01*
X0003151668Y0001716929D01*
X0003164791Y0001750674D02*
X0003191038Y0001750674D01*
X0003164791Y0001735489D02*
X0003185414Y0001735489D01*
X0003189163Y0001737176D01*
X0003191038Y0001740551D01*
X0003191038Y0001745613D01*
X0003189163Y0001748987D01*
X0003187289Y0001750674D01*
X0003164791Y0001782733D02*
X0003196662Y0001782733D01*
X0003200412Y0001781046D01*
X0003202286Y0001779358D01*
X0003204160Y0001775984D01*
X0003204160Y0001770922D01*
X0003202286Y0001767547D01*
X0003189163Y0001782733D02*
X0003191038Y0001779358D01*
X0003191038Y0001772609D01*
X0003189163Y0001769235D01*
X0003187289Y0001767547D01*
X0003183539Y0001765860D01*
X0003172290Y0001765860D01*
X0003168541Y0001767547D01*
X0003166666Y0001769235D01*
X0003164791Y0001772609D01*
X0003164791Y0001779358D01*
X0003166666Y0001782733D01*
%LPC*%
D27*
G36*
X0003078762Y0001468966D02*
X0003078830Y0001469425D01*
X0003078943Y0001469875D01*
X0003079099Y0001470311D01*
X0003079296Y0001470731D01*
X0003079536Y0001471128D01*
X0003079812Y0001471501D01*
X0003080122Y0001471844D01*
X0003080466Y0001472155D01*
X0003080838Y0001472431D01*
X0003081237Y0001472670D01*
X0003081656Y0001472868D01*
X0003082092Y0001473024D01*
X0003082542Y0001473137D01*
X0003083001Y0001473205D01*
X0003083464Y0001473228D01*
X0003121259Y0001473228D01*
X0003121722Y0001473205D01*
X0003122181Y0001473137D01*
X0003122631Y0001473024D01*
X0003123067Y0001472868D01*
X0003123485Y0001472670D01*
X0003123884Y0001472431D01*
X0003124256Y0001472155D01*
X0003124600Y0001471844D01*
X0003124911Y0001471501D01*
X0003125188Y0001471128D01*
X0003125426Y0001470731D01*
X0003125624Y0001470311D01*
X0003125780Y0001469875D01*
X0003125893Y0001469425D01*
X0003125961Y0001468966D01*
X0003125984Y0001468503D01*
X0003125984Y0001430708D01*
X0003125961Y0001430244D01*
X0003125893Y0001429786D01*
X0003125780Y0001429337D01*
X0003125624Y0001428900D01*
X0003125426Y0001428481D01*
X0003125188Y0001428083D01*
X0003124911Y0001427711D01*
X0003124600Y0001427367D01*
X0003124256Y0001427056D01*
X0003123884Y0001426780D01*
X0003123485Y0001426542D01*
X0003123067Y0001426343D01*
X0003122631Y0001426186D01*
X0003122181Y0001426075D01*
X0003121722Y0001426007D01*
X0003121259Y0001425984D01*
X0003083464Y0001425984D01*
X0003083001Y0001426007D01*
X0003082542Y0001426075D01*
X0003082092Y0001426186D01*
X0003081656Y0001426343D01*
X0003081237Y0001426542D01*
X0003080838Y0001426780D01*
X0003080466Y0001427056D01*
X0003080122Y0001427367D01*
X0003079812Y0001427711D01*
X0003079536Y0001428083D01*
X0003079296Y0001428481D01*
X0003079099Y0001428900D01*
X0003078943Y0001429337D01*
X0003078830Y0001429786D01*
X0003078762Y0001430244D01*
X0003078739Y0001430708D01*
X0003078739Y0001468503D01*
X0003078762Y0001468966D01*
X0003078762Y0001468966D01*
G37*
G36*
X0003078762Y0001907549D02*
X0003078830Y0001908008D01*
X0003078943Y0001908458D01*
X0003079099Y0001908894D01*
X0003079296Y0001909313D01*
X0003079536Y0001909711D01*
X0003079812Y0001910083D01*
X0003080122Y0001910427D01*
X0003080466Y0001910738D01*
X0003080838Y0001911014D01*
X0003081237Y0001911253D01*
X0003081656Y0001911451D01*
X0003082092Y0001911607D01*
X0003082542Y0001911720D01*
X0003083001Y0001911788D01*
X0003083464Y0001911811D01*
X0003121259Y0001911811D01*
X0003121722Y0001911788D01*
X0003122181Y0001911720D01*
X0003122631Y0001911607D01*
X0003123067Y0001911451D01*
X0003123485Y0001911253D01*
X0003123884Y0001911014D01*
X0003124256Y0001910738D01*
X0003124600Y0001910427D01*
X0003124911Y0001910083D01*
X0003125188Y0001909711D01*
X0003125426Y0001909313D01*
X0003125624Y0001908894D01*
X0003125780Y0001908458D01*
X0003125893Y0001908008D01*
X0003125961Y0001907549D01*
X0003125984Y0001907086D01*
X0003125984Y0001869291D01*
X0003125961Y0001868828D01*
X0003125893Y0001868369D01*
X0003125780Y0001867919D01*
X0003125624Y0001867483D01*
X0003125426Y0001867064D01*
X0003125188Y0001866665D01*
X0003124911Y0001866294D01*
X0003124600Y0001865950D01*
X0003124256Y0001865638D01*
X0003123884Y0001865362D01*
X0003123485Y0001865124D01*
X0003123067Y0001864926D01*
X0003122631Y0001864770D01*
X0003122181Y0001864657D01*
X0003121722Y0001864589D01*
X0003121259Y0001864566D01*
X0003083464Y0001864566D01*
X0003083001Y0001864589D01*
X0003082542Y0001864657D01*
X0003082092Y0001864770D01*
X0003081656Y0001864926D01*
X0003081237Y0001865124D01*
X0003080838Y0001865362D01*
X0003080466Y0001865638D01*
X0003080122Y0001865950D01*
X0003079812Y0001866294D01*
X0003079536Y0001866665D01*
X0003079296Y0001867064D01*
X0003079099Y0001867483D01*
X0003078943Y0001867919D01*
X0003078830Y0001868369D01*
X0003078762Y0001868828D01*
X0003078739Y0001869291D01*
X0003078739Y0001907086D01*
X0003078762Y0001907549D01*
X0003078762Y0001907549D01*
G37*
G36*
X0003232298Y0001705426D02*
X0003232343Y0001705732D01*
X0003232419Y0001706032D01*
X0003232523Y0001706323D01*
X0003232655Y0001706602D01*
X0003232814Y0001706867D01*
X0003232998Y0001707115D01*
X0003233204Y0001707345D01*
X0003233435Y0001707552D01*
X0003233683Y0001707736D01*
X0003233948Y0001707894D01*
X0003234227Y0001708027D01*
X0003234518Y0001708132D01*
X0003234818Y0001708207D01*
X0003235124Y0001708252D01*
X0003235433Y0001708266D01*
X0003260629Y0001708266D01*
X0003260938Y0001708252D01*
X0003261244Y0001708207D01*
X0003261544Y0001708132D01*
X0003261835Y0001708027D01*
X0003262114Y0001707894D01*
X0003262379Y0001707736D01*
X0003262627Y0001707552D01*
X0003262857Y0001707345D01*
X0003263064Y0001707115D01*
X0003263248Y0001706867D01*
X0003263407Y0001706602D01*
X0003263539Y0001706323D01*
X0003263643Y0001706032D01*
X0003263719Y0001705732D01*
X0003263764Y0001705426D01*
X0003263779Y0001705118D01*
X0003263779Y0001624802D01*
X0003263764Y0001624494D01*
X0003263718Y0001624188D01*
X0003263643Y0001623888D01*
X0003263539Y0001623597D01*
X0003263407Y0001623318D01*
X0003263248Y0001623052D01*
X0003263064Y0001622804D01*
X0003262857Y0001622576D01*
X0003262627Y0001622368D01*
X0003262379Y0001622184D01*
X0003262114Y0001622025D01*
X0003261835Y0001621893D01*
X0003261544Y0001621789D01*
X0003261244Y0001621714D01*
X0003260938Y0001621668D01*
X0003260629Y0001621653D01*
X0003235433Y0001621653D01*
X0003235124Y0001621668D01*
X0003234818Y0001621714D01*
X0003234518Y0001621789D01*
X0003234227Y0001621893D01*
X0003233948Y0001622025D01*
X0003233683Y0001622184D01*
X0003233435Y0001622368D01*
X0003233204Y0001622576D01*
X0003232998Y0001622804D01*
X0003232814Y0001623052D01*
X0003232655Y0001623318D01*
X0003232523Y0001623597D01*
X0003232419Y0001623888D01*
X0003232343Y0001624188D01*
X0003232298Y0001624494D01*
X0003232282Y0001624802D01*
X0003232282Y0001705118D01*
X0003232298Y0001705426D01*
X0003232298Y0001705426D01*
G37*
%LPD*%
G01G01G01G01G01G01G01G01*
D39*
D40*
X0003170958Y0002440298D02*
X0003131589Y0002440298D01*
X0003170958Y0002455483D02*
X0003150337Y0002455483D01*
X0003146586Y0002453796D01*
X0003144712Y0002450421D01*
X0003144712Y0002445359D01*
X0003146586Y0002441985D01*
X0003148462Y0002440298D01*
X0003170958Y0002477418D02*
X0003169084Y0002474043D01*
X0003167210Y0002472356D01*
X0003163460Y0002470669D01*
X0003152212Y0002470669D01*
X0003148462Y0002472356D01*
X0003146586Y0002474043D01*
X0003144712Y0002477418D01*
X0003144712Y0002482480D01*
X0003146586Y0002485854D01*
X0003148462Y0002487542D01*
X0003152212Y0002489229D01*
X0003163460Y0002489229D01*
X0003167210Y0002487542D01*
X0003169084Y0002485854D01*
X0003170958Y0002482480D01*
X0003170958Y0002477418D01*
X0003170958Y0002509476D02*
X0003169084Y0002506102D01*
X0003165335Y0002504415D01*
X0003131589Y0002504415D01*
X0003169084Y0002536473D02*
X0003170958Y0002533097D01*
X0003170958Y0002526349D01*
X0003169084Y0002522975D01*
X0003165335Y0002521287D01*
X0003150337Y0002521287D01*
X0003146586Y0002522975D01*
X0003144712Y0002526349D01*
X0003144712Y0002533097D01*
X0003146586Y0002536473D01*
X0003150337Y0002538160D01*
X0003154086Y0002538160D01*
X0003157836Y0002521287D01*
X0003144712Y0002580343D02*
X0003184083Y0002580343D01*
X0003146586Y0002580343D02*
X0003144712Y0002583717D01*
X0003144712Y0002590465D01*
X0003146586Y0002593841D01*
X0003148462Y0002595528D01*
X0003152212Y0002597215D01*
X0003163460Y0002597215D01*
X0003167210Y0002595528D01*
X0003169084Y0002593841D01*
X0003170958Y0002590465D01*
X0003170958Y0002583717D01*
X0003169084Y0002580343D01*
X0003170958Y0002617463D02*
X0003169084Y0002614088D01*
X0003165335Y0002612401D01*
X0003131589Y0002612401D01*
X0003144712Y0002646147D02*
X0003170958Y0002646147D01*
X0003144712Y0002630961D02*
X0003165335Y0002630961D01*
X0003169084Y0002632649D01*
X0003170958Y0002636022D01*
X0003170958Y0002641085D01*
X0003169084Y0002644459D01*
X0003167210Y0002646147D01*
X0003144712Y0002678205D02*
X0003176584Y0002678205D01*
X0003180333Y0002676518D01*
X0003182208Y0002674830D01*
X0003184083Y0002671456D01*
X0003184083Y0002666393D01*
X0003182208Y0002663020D01*
X0003169084Y0002678205D02*
X0003170958Y0002674830D01*
X0003170958Y0002668082D01*
X0003169084Y0002664706D01*
X0003167210Y0002663020D01*
X0003163460Y0002661332D01*
X0003152212Y0002661332D01*
X0003148462Y0002663020D01*
X0003146586Y0002664706D01*
X0003144712Y0002668082D01*
X0003144712Y0002674830D01*
X0003146586Y0002678205D01*
%LPC*%
D39*
G36*
X0003107306Y0002333337D02*
X0003107374Y0002333795D01*
X0003107486Y0002334245D01*
X0003107643Y0002334681D01*
X0003107841Y0002335101D01*
X0003108079Y0002335498D01*
X0003108355Y0002335871D01*
X0003108667Y0002336214D01*
X0003109010Y0002336526D01*
X0003109383Y0002336802D01*
X0003109780Y0002337040D01*
X0003110198Y0002337238D01*
X0003110636Y0002337395D01*
X0003111086Y0002337507D01*
X0003111543Y0002337575D01*
X0003112007Y0002337598D01*
X0003189172Y0002337598D01*
X0003189636Y0002337575D01*
X0003190094Y0002337507D01*
X0003190544Y0002337395D01*
X0003190981Y0002337238D01*
X0003191400Y0002337040D01*
X0003191797Y0002336802D01*
X0003192170Y0002336526D01*
X0003192513Y0002336214D01*
X0003192825Y0002335871D01*
X0003193101Y0002335498D01*
X0003193339Y0002335101D01*
X0003193538Y0002334681D01*
X0003193694Y0002334245D01*
X0003193806Y0002333795D01*
X0003193874Y0002333337D01*
X0003193897Y0002332874D01*
X0003193897Y0002295078D01*
X0003193874Y0002294615D01*
X0003193806Y0002294157D01*
X0003193694Y0002293707D01*
X0003193538Y0002293270D01*
X0003193339Y0002292851D01*
X0003193101Y0002292454D01*
X0003192825Y0002292081D01*
X0003192513Y0002291738D01*
X0003192170Y0002291426D01*
X0003191797Y0002291150D01*
X0003191400Y0002290912D01*
X0003190981Y0002290713D01*
X0003190544Y0002290557D01*
X0003190094Y0002290445D01*
X0003189636Y0002290377D01*
X0003189172Y0002290354D01*
X0003112007Y0002290354D01*
X0003111543Y0002290377D01*
X0003111086Y0002290445D01*
X0003110636Y0002290557D01*
X0003110198Y0002290713D01*
X0003109780Y0002290912D01*
X0003109383Y0002291150D01*
X0003109010Y0002291426D01*
X0003108667Y0002291738D01*
X0003108355Y0002292081D01*
X0003108079Y0002292454D01*
X0003107841Y0002292851D01*
X0003107643Y0002293270D01*
X0003107486Y0002293707D01*
X0003107374Y0002294157D01*
X0003107306Y0002294615D01*
X0003107283Y0002295078D01*
X0003107283Y0002332874D01*
X0003107306Y0002333337D01*
X0003107306Y0002333337D01*
G37*
G36*
X0003107306Y0002835305D02*
X0003107374Y0002835764D01*
X0003107486Y0002836213D01*
X0003107643Y0002836650D01*
X0003107841Y0002837069D01*
X0003108079Y0002837467D01*
X0003108355Y0002837839D01*
X0003108667Y0002838183D01*
X0003109010Y0002838494D01*
X0003109383Y0002838770D01*
X0003109780Y0002839009D01*
X0003110198Y0002839207D01*
X0003110636Y0002839362D01*
X0003111086Y0002839476D01*
X0003111543Y0002839544D01*
X0003112007Y0002839566D01*
X0003189172Y0002839566D01*
X0003189636Y0002839544D01*
X0003190094Y0002839476D01*
X0003190544Y0002839362D01*
X0003190981Y0002839207D01*
X0003191400Y0002839009D01*
X0003191797Y0002838770D01*
X0003192170Y0002838494D01*
X0003192513Y0002838183D01*
X0003192825Y0002837839D01*
X0003193101Y0002837467D01*
X0003193339Y0002837069D01*
X0003193538Y0002836650D01*
X0003193694Y0002836213D01*
X0003193806Y0002835764D01*
X0003193874Y0002835305D01*
X0003193897Y0002834842D01*
X0003193897Y0002797047D01*
X0003193874Y0002796584D01*
X0003193806Y0002796125D01*
X0003193694Y0002795675D01*
X0003193538Y0002795239D01*
X0003193339Y0002794820D01*
X0003193101Y0002794422D01*
X0003192825Y0002794050D01*
X0003192513Y0002793706D01*
X0003192170Y0002793395D01*
X0003191797Y0002793119D01*
X0003191400Y0002792880D01*
X0003190981Y0002792682D01*
X0003190544Y0002792525D01*
X0003190094Y0002792413D01*
X0003189636Y0002792345D01*
X0003189172Y0002792322D01*
X0003112007Y0002792322D01*
X0003111543Y0002792345D01*
X0003111086Y0002792413D01*
X0003110636Y0002792525D01*
X0003110198Y0002792682D01*
X0003109780Y0002792880D01*
X0003109383Y0002793119D01*
X0003109010Y0002793395D01*
X0003108667Y0002793706D01*
X0003108355Y0002794050D01*
X0003108079Y0002794422D01*
X0003107841Y0002794820D01*
X0003107643Y0002795239D01*
X0003107486Y0002795675D01*
X0003107374Y0002796125D01*
X0003107306Y0002796584D01*
X0003107283Y0002797047D01*
X0003107283Y0002834842D01*
X0003107306Y0002835305D01*
X0003107306Y0002835305D01*
G37*
%LPD*%
G01G01G01G01G01G01G01G01*
D51*
D52*
X0003200881Y0004063123D02*
X0003200881Y0004089368D01*
X0003240251Y0004072497D01*
X0003200881Y0004121241D02*
X0003200881Y0004113742D01*
X0003202755Y0004109992D01*
X0003204630Y0004108117D01*
X0003210255Y0004104368D01*
X0003217753Y0004102493D01*
X0003232752Y0004102493D01*
X0003236501Y0004104368D01*
X0003238376Y0004106242D01*
X0003240251Y0004109992D01*
X0003240251Y0004117491D01*
X0003238376Y0004121241D01*
X0003236501Y0004123115D01*
X0003232752Y0004124990D01*
X0003223378Y0004124990D01*
X0003219628Y0004123115D01*
X0003217753Y0004121241D01*
X0003215879Y0004117491D01*
X0003215879Y0004109992D01*
X0003217753Y0004106242D01*
X0003219628Y0004104368D01*
X0003223378Y0004102493D01*
X0003240251Y0004138114D02*
X0003214004Y0004158736D01*
X0003214004Y0004138114D02*
X0003240251Y0004158736D01*
X0003200881Y0004169984D02*
X0003200881Y0004194356D01*
X0003215879Y0004181231D01*
X0003215879Y0004186857D01*
X0003217753Y0004190607D01*
X0003219628Y0004192482D01*
X0003223378Y0004194356D01*
X0003232752Y0004194356D01*
X0003236501Y0004192482D01*
X0003238376Y0004190607D01*
X0003240251Y0004186857D01*
X0003240251Y0004175608D01*
X0003238376Y0004171859D01*
X0003236501Y0004169984D01*
X0003200881Y0004229977D02*
X0003200881Y0004211229D01*
X0003219628Y0004209355D01*
X0003217753Y0004211229D01*
X0003215879Y0004214979D01*
X0003215879Y0004224353D01*
X0003217753Y0004228102D01*
X0003219628Y0004229977D01*
X0003223378Y0004231852D01*
X0003232752Y0004231852D01*
X0003236501Y0004229977D01*
X0003238376Y0004228102D01*
X0003240251Y0004224353D01*
X0003240251Y0004214979D01*
X0003238376Y0004211229D01*
X0003236501Y0004209355D01*
%LPC*%
D53*
X0003435433Y0004146454D03*
D54*
G36*
X0003153907Y0004007124D02*
X0003078867Y0004007124D01*
X0003078107Y0004282951D01*
X0003153147Y0004282951D01*
X0003153907Y0004007124D01*
X0003153907Y0004007124D01*
G37*
X0003153907Y0004007124D02*
X0003078867Y0004007124D01*
X0003078107Y0004282951D01*
X0003153147Y0004282951D01*
X0003153907Y0004007124D01*
G04 next file*
%LPD*%
G01G01G01G01G01G01G01G01*
D65*
D66*
X0003200881Y0003708792D02*
X0003200881Y0003735039D01*
X0003240251Y0003718166D01*
X0003200881Y0003766910D02*
X0003200881Y0003759411D01*
X0003202755Y0003755661D01*
X0003204630Y0003753787D01*
X0003210255Y0003750037D01*
X0003217753Y0003748162D01*
X0003232752Y0003748162D01*
X0003236501Y0003750037D01*
X0003238376Y0003751912D01*
X0003240251Y0003755661D01*
X0003240251Y0003763159D01*
X0003238376Y0003766910D01*
X0003236501Y0003768785D01*
X0003232752Y0003770659D01*
X0003223378Y0003770659D01*
X0003219628Y0003768785D01*
X0003217753Y0003766910D01*
X0003215879Y0003763159D01*
X0003215879Y0003755661D01*
X0003217753Y0003751912D01*
X0003219628Y0003750037D01*
X0003223378Y0003748162D01*
X0003240251Y0003783783D02*
X0003214004Y0003804405D01*
X0003214004Y0003783783D02*
X0003240251Y0003804405D01*
X0003200881Y0003815654D02*
X0003200881Y0003840026D01*
X0003215879Y0003826902D01*
X0003215879Y0003832527D01*
X0003217753Y0003836276D01*
X0003219628Y0003838151D01*
X0003223378Y0003840026D01*
X0003232752Y0003840026D01*
X0003236501Y0003838151D01*
X0003238376Y0003836276D01*
X0003240251Y0003832527D01*
X0003240251Y0003821278D01*
X0003238376Y0003817529D01*
X0003236501Y0003815654D01*
X0003200881Y0003875646D02*
X0003200881Y0003856899D01*
X0003219628Y0003855024D01*
X0003217753Y0003856899D01*
X0003215879Y0003860648D01*
X0003215879Y0003870022D01*
X0003217753Y0003873772D01*
X0003219628Y0003875646D01*
X0003223378Y0003877521D01*
X0003232752Y0003877521D01*
X0003236501Y0003875646D01*
X0003238376Y0003873772D01*
X0003240251Y0003870022D01*
X0003240251Y0003860648D01*
X0003238376Y0003856899D01*
X0003236501Y0003855024D01*
%LPC*%
D67*
X0003435433Y0003792125D03*
D68*
G36*
X0003153907Y0003652793D02*
X0003078867Y0003652793D01*
X0003078107Y0003928620D01*
X0003153147Y0003928620D01*
X0003153907Y0003652793D01*
X0003153907Y0003652793D01*
G37*
X0003153907Y0003652793D02*
X0003078867Y0003652793D01*
X0003078107Y0003928620D01*
X0003153147Y0003928620D01*
X0003153907Y0003652793D01*
%LPD*%
G01G01G01G01G01G01G01G01*
D79*
D80*
X0003200881Y0003354461D02*
X0003200881Y0003380708D01*
X0003240251Y0003363835D01*
X0003200881Y0003412579D02*
X0003200881Y0003405080D01*
X0003202755Y0003401330D01*
X0003204630Y0003399456D01*
X0003210255Y0003395706D01*
X0003217753Y0003393832D01*
X0003232752Y0003393832D01*
X0003236501Y0003395706D01*
X0003238376Y0003397580D01*
X0003240251Y0003401330D01*
X0003240251Y0003408830D01*
X0003238376Y0003412579D01*
X0003236501Y0003414454D01*
X0003232752Y0003416329D01*
X0003223378Y0003416329D01*
X0003219628Y0003414454D01*
X0003217753Y0003412579D01*
X0003215879Y0003408830D01*
X0003215879Y0003401330D01*
X0003217753Y0003397580D01*
X0003219628Y0003395706D01*
X0003223378Y0003393832D01*
X0003240251Y0003429452D02*
X0003214004Y0003450074D01*
X0003214004Y0003429452D02*
X0003240251Y0003450074D01*
X0003200881Y0003461323D02*
X0003200881Y0003485695D01*
X0003215879Y0003472572D01*
X0003215879Y0003478196D01*
X0003217753Y0003481945D01*
X0003219628Y0003483820D01*
X0003223378Y0003485695D01*
X0003232752Y0003485695D01*
X0003236501Y0003483820D01*
X0003238376Y0003481945D01*
X0003240251Y0003478196D01*
X0003240251Y0003466947D01*
X0003238376Y0003463198D01*
X0003236501Y0003461323D01*
X0003200881Y0003521316D02*
X0003200881Y0003502568D01*
X0003219628Y0003500692D01*
X0003217753Y0003502568D01*
X0003215879Y0003506317D01*
X0003215879Y0003515691D01*
X0003217753Y0003519441D01*
X0003219628Y0003521316D01*
X0003223378Y0003523190D01*
X0003232752Y0003523190D01*
X0003236501Y0003521316D01*
X0003238376Y0003519441D01*
X0003240251Y0003515691D01*
X0003240251Y0003506317D01*
X0003238376Y0003502568D01*
X0003236501Y0003500692D01*
%LPC*%
D81*
X0003435433Y0003437795D03*
D82*
G36*
X0003153907Y0003298463D02*
X0003078867Y0003298463D01*
X0003078107Y0003574290D01*
X0003153147Y0003574290D01*
X0003153907Y0003298463D01*
X0003153907Y0003298463D01*
G37*
X0003153907Y0003298463D02*
X0003078867Y0003298463D01*
X0003078107Y0003574290D01*
X0003153147Y0003574290D01*
X0003153907Y0003298463D01*
G04 next file*
%LPD*%
G01G01G01G01G01G01G01G01*
D93*
D94*
X0003200881Y0003000130D02*
X0003200881Y0003026376D01*
X0003240251Y0003009505D01*
X0003200881Y0003058248D02*
X0003200881Y0003050748D01*
X0003202755Y0003047000D01*
X0003204630Y0003045125D01*
X0003210255Y0003041376D01*
X0003217753Y0003039501D01*
X0003232752Y0003039501D01*
X0003236501Y0003041376D01*
X0003238376Y0003043250D01*
X0003240251Y0003047000D01*
X0003240251Y0003054499D01*
X0003238376Y0003058248D01*
X0003236501Y0003060123D01*
X0003232752Y0003061998D01*
X0003223378Y0003061998D01*
X0003219628Y0003060123D01*
X0003217753Y0003058248D01*
X0003215879Y0003054499D01*
X0003215879Y0003047000D01*
X0003217753Y0003043250D01*
X0003219628Y0003041376D01*
X0003223378Y0003039501D01*
X0003240251Y0003075121D02*
X0003214004Y0003095744D01*
X0003214004Y0003075121D02*
X0003240251Y0003095744D01*
X0003200881Y0003106992D02*
X0003200881Y0003131364D01*
X0003215879Y0003118241D01*
X0003215879Y0003123865D01*
X0003217753Y0003127615D01*
X0003219628Y0003129490D01*
X0003223378Y0003131364D01*
X0003232752Y0003131364D01*
X0003236501Y0003129490D01*
X0003238376Y0003127615D01*
X0003240251Y0003123865D01*
X0003240251Y0003112617D01*
X0003238376Y0003108867D01*
X0003236501Y0003106992D01*
X0003200881Y0003166985D02*
X0003200881Y0003148237D01*
X0003219628Y0003146362D01*
X0003217753Y0003148237D01*
X0003215879Y0003151987D01*
X0003215879Y0003161361D01*
X0003217753Y0003165109D01*
X0003219628Y0003166985D01*
X0003223378Y0003168860D01*
X0003232752Y0003168860D01*
X0003236501Y0003166985D01*
X0003238376Y0003165109D01*
X0003240251Y0003161361D01*
X0003240251Y0003151987D01*
X0003238376Y0003148237D01*
X0003236501Y0003146362D01*
%LPC*%
D95*
X0003435433Y0003083464D03*
D96*
G36*
X0003153907Y0002944131D02*
X0003078867Y0002944131D01*
X0003078107Y0003219959D01*
X0003153147Y0003219959D01*
X0003153907Y0002944131D01*
X0003153907Y0002944131D01*
G37*
X0003153907Y0002944131D02*
X0003078867Y0002944131D01*
X0003078107Y0003219959D01*
X0003153147Y0003219959D01*
X0003153907Y0002944131D01*
G04 next file*
%LPD*%
G01G01G01G01G01G01G01G01G01G01G01G01G01G01G01G01*
D107*
D108*
X0002458192Y0000798537D02*
X0002482189Y0000798537D01*
X0002467191Y0000819535D02*
X0002467191Y0000765540D01*
X0002470191Y0000759542D01*
X0002476190Y0000756542D01*
X0002482189Y0000756542D01*
X0002497187Y0000756542D02*
X0002530182Y0000798537D01*
X0002497187Y0000798537D02*
X0002530182Y0000756542D01*
X0002551181Y0000813535D02*
X0002554180Y0000816535D01*
X0002560179Y0000819535D01*
X0002575178Y0000819535D01*
X0002581177Y0000816535D01*
X0002584176Y0000813535D01*
X0002587176Y0000807536D01*
X0002587176Y0000801537D01*
X0002584176Y0000792538D01*
X0002548181Y0000756542D01*
X0002587176Y0000756542D01*
X0002644169Y0000756542D02*
X0002614173Y0000756542D01*
X0002614173Y0000819535D01*
X0001934158Y0000800506D02*
X0001958155Y0000800506D01*
X0001943157Y0000821503D02*
X0001943157Y0000767510D01*
X0001946156Y0000761510D01*
X0001952155Y0000758510D01*
X0001958155Y0000758510D01*
X0001973153Y0000758510D02*
X0002006149Y0000800506D01*
X0001973153Y0000800506D02*
X0002006149Y0000758510D01*
X0002027146Y0000815504D02*
X0002030145Y0000818503D01*
X0002036144Y0000821503D01*
X0002051143Y0000821503D01*
X0002057141Y0000818503D01*
X0002060142Y0000815504D01*
X0002063142Y0000809505D01*
X0002063142Y0000803505D01*
X0002060142Y0000794506D01*
X0002024146Y0000758510D01*
X0002063142Y0000758510D01*
X0002090138Y0000758510D02*
X0002090138Y0000821503D01*
X0002090138Y0000791507D02*
X0002126134Y0000791507D01*
X0002126134Y0000758510D02*
X0002126134Y0000821503D01*
X0001360703Y0000756149D02*
X0001360703Y0000798144D01*
X0001360703Y0000786145D02*
X0001363704Y0000792144D01*
X0001366703Y0000795144D01*
X0001372703Y0000798144D01*
X0001378702Y0000798144D01*
X0001393700Y0000756149D02*
X0001426696Y0000798144D01*
X0001393700Y0000798144D02*
X0001426696Y0000756149D01*
X0001447693Y0000813141D02*
X0001450693Y0000816141D01*
X0001456692Y0000819141D01*
X0001471691Y0000819141D01*
X0001477690Y0000816141D01*
X0001480689Y0000813141D01*
X0001483689Y0000807141D01*
X0001483689Y0000801143D01*
X0001480689Y0000792144D01*
X0001444694Y0000756149D01*
X0001483689Y0000756149D01*
X0001504686Y0000819141D02*
X0001519685Y0000756149D01*
X0001531683Y0000801143D01*
X0001543680Y0000756149D01*
X0001558680Y0000819141D01*
X0000870416Y0000756936D02*
X0000870416Y0000798930D01*
X0000870416Y0000786932D02*
X0000873415Y0000792932D01*
X0000876415Y0000795931D01*
X0000882414Y0000798930D01*
X0000888413Y0000798930D01*
X0000903411Y0000756936D02*
X0000936407Y0000798930D01*
X0000903411Y0000798930D02*
X0000936407Y0000756936D01*
X0000957405Y0000813929D02*
X0000960404Y0000816929D01*
X0000966404Y0000819928D01*
X0000981402Y0000819928D01*
X0000987401Y0000816929D01*
X0000990401Y0000813929D01*
X0000993400Y0000807930D01*
X0000993400Y0000801930D01*
X0000990401Y0000792932D01*
X0000954405Y0000756936D01*
X0000993400Y0000756936D01*
X0001050393Y0000756936D02*
X0001020397Y0000756936D01*
X0001020397Y0000819928D01*
X0000347956Y0000754180D02*
X0000347956Y0000796175D01*
X0000347956Y0000784177D02*
X0000350956Y0000790176D01*
X0000353954Y0000793175D01*
X0000359954Y0000796175D01*
X0000365954Y0000796175D01*
X0000380952Y0000754180D02*
X0000413948Y0000796175D01*
X0000380952Y0000796175D02*
X0000413948Y0000754180D01*
X0000434945Y0000811173D02*
X0000437945Y0000814173D01*
X0000443943Y0000817171D01*
X0000458942Y0000817171D01*
X0000464941Y0000814173D01*
X0000467941Y0000811173D01*
X0000470940Y0000805174D01*
X0000470940Y0000799175D01*
X0000467941Y0000790176D01*
X0000431945Y0000754180D01*
X0000470940Y0000754180D01*
X0000497937Y0000754180D02*
X0000497937Y0000817171D01*
X0000497937Y0000787176D02*
X0000533933Y0000787176D01*
X0000533933Y0000754180D02*
X0000533933Y0000817171D01*
X0000345200Y0000852999D02*
X0000345200Y0000894993D01*
X0000345200Y0000882995D02*
X0000348200Y0000888995D01*
X0000351199Y0000891993D01*
X0000357199Y0000894993D01*
X0000363198Y0000894993D01*
X0000378196Y0000852999D02*
X0000411192Y0000894993D01*
X0000378196Y0000894993D02*
X0000411192Y0000852999D01*
X0000468185Y0000852999D02*
X0000432189Y0000852999D01*
X0000450186Y0000852999D02*
X0000450186Y0000915991D01*
X0000444188Y0000906992D01*
X0000438188Y0000900993D01*
X0000432189Y0000897993D01*
X0000495181Y0000852999D02*
X0000495181Y0000915991D01*
X0000495181Y0000885995D02*
X0000531177Y0000885995D01*
X0000531177Y0000852999D02*
X0000531177Y0000915991D01*
X0000869235Y0000852212D02*
X0000869235Y0000894207D01*
X0000869235Y0000882208D02*
X0000872234Y0000888207D01*
X0000875234Y0000891207D01*
X0000881233Y0000894207D01*
X0000887232Y0000894207D01*
X0000902230Y0000852212D02*
X0000935226Y0000894207D01*
X0000902230Y0000894207D02*
X0000935226Y0000852212D01*
X0000992219Y0000852212D02*
X0000956224Y0000852212D01*
X0000974220Y0000852212D02*
X0000974220Y0000915204D01*
X0000968222Y0000906204D01*
X0000962223Y0000900206D01*
X0000956224Y0000897206D01*
X0001049212Y0000852212D02*
X0001019215Y0000852212D01*
X0001019215Y0000915204D01*
X0001358736Y0000857330D02*
X0001358736Y0000899325D01*
X0001358736Y0000887326D02*
X0001361736Y0000893325D01*
X0001364735Y0000896325D01*
X0001370733Y0000899325D01*
X0001376733Y0000899325D01*
X0001391732Y0000857330D02*
X0001424728Y0000899325D01*
X0001391732Y0000899325D02*
X0001424728Y0000857330D01*
X0001481721Y0000857330D02*
X0001445723Y0000857330D01*
X0001463723Y0000857330D02*
X0001463723Y0000920322D01*
X0001457723Y0000911323D01*
X0001451723Y0000905324D01*
X0001445723Y0000902324D01*
X0001502718Y0000920322D02*
X0001517716Y0000857330D01*
X0001529715Y0000902324D01*
X0001541713Y0000857330D01*
X0001556711Y0000920322D01*
X0001935339Y0000894600D02*
X0001959336Y0000894600D01*
X0001944338Y0000915598D02*
X0001944338Y0000861603D01*
X0001947337Y0000855605D01*
X0001953337Y0000852605D01*
X0001959336Y0000852605D01*
X0001974334Y0000852605D02*
X0002007330Y0000894600D01*
X0001974334Y0000894600D02*
X0002007330Y0000852605D01*
X0002064323Y0000852605D02*
X0002028327Y0000852605D01*
X0002046325Y0000852605D02*
X0002046325Y0000915598D01*
X0002040325Y0000906599D01*
X0002034326Y0000900599D01*
X0002028327Y0000897600D01*
X0002091319Y0000852605D02*
X0002091319Y0000915598D01*
X0002091319Y0000885601D02*
X0002127315Y0000885601D01*
X0002127315Y0000852605D02*
X0002127315Y0000915598D01*
X0002455830Y0000894600D02*
X0002479827Y0000894600D01*
X0002464829Y0000915598D02*
X0002464829Y0000861603D01*
X0002467829Y0000855605D01*
X0002473828Y0000852605D01*
X0002479827Y0000852605D01*
X0002494825Y0000852605D02*
X0002527821Y0000894600D01*
X0002494825Y0000894600D02*
X0002527821Y0000852605D01*
X0002584814Y0000852605D02*
X0002548818Y0000852605D01*
X0002566816Y0000852605D02*
X0002566816Y0000915598D01*
X0002560817Y0000906599D01*
X0002554818Y0000900599D01*
X0002548818Y0000897600D01*
X0002641807Y0000852605D02*
X0002611811Y0000852605D01*
X0002611811Y0000915598D01*
%LPC*%
D109*
X0002772909Y0000324784D02*
X0002771409Y0000321784D01*
X0002768410Y0000320284D01*
X0002741413Y0000320284D01*
X0002751912Y0000350281D02*
X0002772909Y0000350281D01*
X0002751912Y0000336782D02*
X0002768410Y0000336782D01*
X0002771409Y0000338282D01*
X0002772909Y0000341282D01*
X0002772909Y0000345781D01*
X0002771409Y0000348781D01*
X0002769910Y0000350281D01*
X0002751912Y0000360779D02*
X0002751912Y0000372778D01*
X0002772909Y0000365279D02*
X0002745912Y0000365279D01*
X0002742913Y0000366779D01*
X0002741413Y0000369778D01*
X0002741413Y0000372778D01*
X0002751912Y0000378776D02*
X0002751912Y0000390776D01*
X0002741413Y0000383276D02*
X0002768410Y0000383276D01*
X0002771409Y0000384776D01*
X0002772909Y0000387776D01*
X0002772909Y0000390776D01*
X0002771409Y0000413273D02*
X0002772909Y0000410273D01*
X0002772909Y0000404274D01*
X0002771409Y0000401274D01*
X0002768410Y0000399775D01*
X0002756411Y0000399775D01*
X0002753411Y0000401274D01*
X0002751912Y0000404274D01*
X0002751912Y0000410273D01*
X0002753411Y0000413273D01*
X0002756411Y0000414773D01*
X0002759411Y0000414773D01*
X0002762410Y0000399775D01*
X0002772909Y0000428271D02*
X0002741413Y0000428271D01*
X0002760911Y0000431271D02*
X0002772909Y0000440270D01*
X0002751912Y0000440270D02*
X0002763909Y0000428271D01*
D107*
X0002742838Y0000466924D02*
X0002741338Y0000468424D01*
X0002739838Y0000471423D01*
X0002739838Y0000478922D01*
X0002741338Y0000481922D01*
X0002742838Y0000483422D01*
X0002745837Y0000484922D01*
X0002748837Y0000484922D01*
X0002753337Y0000483422D01*
X0002771334Y0000465424D01*
X0002771334Y0000484922D01*
X0002739838Y0000504418D02*
X0002739838Y0000507418D01*
X0002741338Y0000510418D01*
X0002742838Y0000511918D01*
X0002745837Y0000513418D01*
X0002751837Y0000514918D01*
X0002759336Y0000514918D01*
X0002765335Y0000513418D01*
X0002768335Y0000511918D01*
X0002769835Y0000510418D01*
X0002771334Y0000507418D01*
X0002771334Y0000504418D01*
X0002769835Y0000501420D01*
X0002768335Y0000499920D01*
X0002765335Y0000498420D01*
X0002759336Y0000496920D01*
X0002751837Y0000496920D01*
X0002745837Y0000498420D01*
X0002742838Y0000499920D01*
X0002741338Y0000501420D01*
X0002739838Y0000504418D01*
X0002771334Y0000544914D02*
X0002771334Y0000526916D01*
X0002771334Y0000535915D02*
X0002739838Y0000535915D01*
X0002744338Y0000532916D01*
X0002747337Y0000529916D01*
X0002748837Y0000526916D01*
X0002739838Y0000571911D02*
X0002739838Y0000565912D01*
X0002741338Y0000562912D01*
X0002742838Y0000561412D01*
X0002747337Y0000558413D01*
X0002753337Y0000556913D01*
X0002765335Y0000556913D01*
X0002768335Y0000558413D01*
X0002769835Y0000559912D01*
X0002771334Y0000562912D01*
X0002771334Y0000568911D01*
X0002769835Y0000571911D01*
X0002768335Y0000573411D01*
X0002765335Y0000574910D01*
X0002757836Y0000574910D01*
X0002754836Y0000573411D01*
X0002753337Y0000571911D01*
X0002751837Y0000568911D01*
X0002751837Y0000562912D01*
X0002753337Y0000559912D01*
X0002754836Y0000558413D01*
X0002757836Y0000556913D01*
X0002739838Y0000594408D02*
X0002739838Y0000597408D01*
X0002741338Y0000600407D01*
X0002742838Y0000601907D01*
X0002745837Y0000603407D01*
X0002751837Y0000604907D01*
X0002759336Y0000604907D01*
X0002765335Y0000603407D01*
X0002768335Y0000601907D01*
X0002769835Y0000600407D01*
X0002771334Y0000597408D01*
X0002771334Y0000594408D01*
X0002769835Y0000591408D01*
X0002768335Y0000589909D01*
X0002765335Y0000588409D01*
X0002759336Y0000586909D01*
X0002751837Y0000586909D01*
X0002745837Y0000588409D01*
X0002742838Y0000589909D01*
X0002741338Y0000591408D01*
X0002739838Y0000594408D01*
X0002771334Y0000619905D02*
X0002771334Y0000625904D01*
X0002769835Y0000628904D01*
X0002768335Y0000630404D01*
X0002763835Y0000633403D01*
X0002757836Y0000634903D01*
X0002745837Y0000634903D01*
X0002742838Y0000633403D01*
X0002741338Y0000631903D01*
X0002739838Y0000628904D01*
X0002739838Y0000622904D01*
X0002741338Y0000619905D01*
X0002742838Y0000618405D01*
X0002745837Y0000616905D01*
X0002753337Y0000616905D01*
X0002756336Y0000618405D01*
X0002757836Y0000619905D01*
X0002759336Y0000622904D01*
X0002759336Y0000628904D01*
X0002757836Y0000631903D01*
X0002756336Y0000633403D01*
X0002753337Y0000634903D01*
X0002742838Y0000646901D02*
X0002741338Y0000648401D01*
X0002739838Y0000651401D01*
X0002739838Y0000658899D01*
X0002741338Y0000661899D01*
X0002742838Y0000663398D01*
X0002745837Y0000664899D01*
X0002748837Y0000664899D01*
X0002753337Y0000663398D01*
X0002771334Y0000645402D01*
X0002771334Y0000664899D01*
X0002750337Y0000691896D02*
X0002771334Y0000691896D01*
X0002738338Y0000684397D02*
X0002760836Y0000676898D01*
X0002760836Y0000696395D01*
D109*
X0002206242Y0000132602D02*
X0002227240Y0000132602D01*
X0002213742Y0000101106D01*
X0002252737Y0000132602D02*
X0002246737Y0000132602D01*
X0002243738Y0000131102D01*
X0002242238Y0000129602D01*
X0002239238Y0000125100D01*
X0002237739Y0000119103D01*
X0002237739Y0000107105D01*
X0002239238Y0000104105D01*
X0002240738Y0000102604D01*
X0002243738Y0000101106D01*
X0002249737Y0000101106D01*
X0002252737Y0000102604D01*
X0002254236Y0000104105D01*
X0002255736Y0000107105D01*
X0002255736Y0000114604D01*
X0002254236Y0000117604D01*
X0002252737Y0000119103D01*
X0002249737Y0000120603D01*
X0002243738Y0000120603D01*
X0002240738Y0000119103D01*
X0002239238Y0000117604D01*
X0002237739Y0000114604D01*
X0002266235Y0000101106D02*
X0002282733Y0000122103D01*
X0002266235Y0000122103D02*
X0002282733Y0000101106D01*
X0002291732Y0000132602D02*
X0002311229Y0000132602D01*
X0002300731Y0000120603D01*
X0002305230Y0000120603D01*
X0002308230Y0000119103D01*
X0002309730Y0000117604D01*
X0002311229Y0000114604D01*
X0002311229Y0000107105D01*
X0002309730Y0000104105D01*
X0002308230Y0000102604D01*
X0002305230Y0000101106D01*
X0002296231Y0000101106D01*
X0002293232Y0000102604D01*
X0002291732Y0000104105D01*
X0002339726Y0000132602D02*
X0002324728Y0000132602D01*
X0002323228Y0000117604D01*
X0002324728Y0000119103D01*
X0002327727Y0000120603D01*
X0002335226Y0000120603D01*
X0002338226Y0000119103D01*
X0002339726Y0000117604D01*
X0002341226Y0000114604D01*
X0002341226Y0000107105D01*
X0002339726Y0000104105D01*
X0002338226Y0000102604D01*
X0002335226Y0000101106D01*
X0002327727Y0000101106D01*
X0002324728Y0000102604D01*
X0002323228Y0000104105D01*
X0002351724Y0000101106D02*
X0002368222Y0000122103D01*
X0002351724Y0000122103D02*
X0002368222Y0000101106D01*
X0002396719Y0000101106D02*
X0002378721Y0000101106D01*
X0002387720Y0000101106D02*
X0002387720Y0000132602D01*
X0002384720Y0000128102D01*
X0002381721Y0000125100D01*
X0002378721Y0000123603D01*
X0002416216Y0000132602D02*
X0002419216Y0000132602D01*
X0002422215Y0000131102D01*
X0002423715Y0000129602D01*
X0002425215Y0000126599D01*
X0002426715Y0000120603D01*
X0002426715Y0000113104D01*
X0002425215Y0000107105D01*
X0002423715Y0000104105D01*
X0002422215Y0000102604D01*
X0002419216Y0000101106D01*
X0002416216Y0000101106D01*
X0002413217Y0000102604D01*
X0002411717Y0000104105D01*
X0002410217Y0000107105D01*
X0002408717Y0000113104D01*
X0002408717Y0000120603D01*
X0002410217Y0000126599D01*
X0002411717Y0000129602D01*
X0002413217Y0000131102D01*
X0002416216Y0000132602D01*
X0002446212Y0000132602D02*
X0002449212Y0000132602D01*
X0002452212Y0000131102D01*
X0002453712Y0000129602D01*
X0002455211Y0000126599D01*
X0002456711Y0000120603D01*
X0002456711Y0000113104D01*
X0002455211Y0000107105D01*
X0002453712Y0000104105D01*
X0002452212Y0000102604D01*
X0002449212Y0000101106D01*
X0002446212Y0000101106D01*
X0002443213Y0000102604D01*
X0002441713Y0000104105D01*
X0002440213Y0000107105D01*
X0002438713Y0000113104D01*
X0002438713Y0000120603D01*
X0002440213Y0000126599D01*
X0002441713Y0000129602D01*
X0002443213Y0000131102D01*
X0002446212Y0000132602D01*
X0002492707Y0000102604D02*
X0002495706Y0000101106D01*
X0002501706Y0000101106D01*
X0002504705Y0000102604D01*
X0002506205Y0000105605D01*
X0002506205Y0000107105D01*
X0002504705Y0000110104D01*
X0002501706Y0000111604D01*
X0002497206Y0000111604D01*
X0002494206Y0000113104D01*
X0002492707Y0000116104D01*
X0002492707Y0000117604D01*
X0002494206Y0000120603D01*
X0002497206Y0000122103D01*
X0002501706Y0000122103D01*
X0002504705Y0000120603D01*
X0002519703Y0000122103D02*
X0002519703Y0000090607D01*
X0002519703Y0000120603D02*
X0002522702Y0000122103D01*
X0002528701Y0000122103D01*
X0002531702Y0000120603D01*
X0002533202Y0000119103D01*
X0002534701Y0000116104D01*
X0002534701Y0000107105D01*
X0002533202Y0000104105D01*
X0002531702Y0000102604D01*
X0002528701Y0000101106D01*
X0002522702Y0000101106D01*
X0002519703Y0000102604D01*
X0002552699Y0000101106D02*
X0002549699Y0000102604D01*
X0002548200Y0000105605D01*
X0002548200Y0000132602D01*
X0002564698Y0000101106D02*
X0002564698Y0000122103D01*
X0002564698Y0000132602D02*
X0002563198Y0000131102D01*
X0002564698Y0000129602D01*
X0002566197Y0000131102D01*
X0002564698Y0000132602D01*
X0002564698Y0000129602D01*
X0002575196Y0000122103D02*
X0002587194Y0000122103D01*
X0002579696Y0000132602D02*
X0002579696Y0000105605D01*
X0002581195Y0000102604D01*
X0002584195Y0000101106D01*
X0002587194Y0000101106D01*
X0002620190Y0000102604D02*
X0002623190Y0000101106D01*
X0002629190Y0000101106D01*
X0002632189Y0000102604D01*
X0002633689Y0000105605D01*
X0002633689Y0000107105D01*
X0002632189Y0000110104D01*
X0002629190Y0000111604D01*
X0002624690Y0000111604D01*
X0002621691Y0000113104D01*
X0002620190Y0000116104D01*
X0002620190Y0000117604D01*
X0002621691Y0000120603D01*
X0002624690Y0000122103D01*
X0002629190Y0000122103D01*
X0002632189Y0000120603D01*
X0002647187Y0000101106D02*
X0002647187Y0000132602D01*
X0002660686Y0000101106D02*
X0002660686Y0000117604D01*
X0002659186Y0000120603D01*
X0002656185Y0000122103D01*
X0002651686Y0000122103D01*
X0002648687Y0000120603D01*
X0002647187Y0000119103D01*
X0002687682Y0000102604D02*
X0002684682Y0000101106D01*
X0002678683Y0000101106D01*
X0002675684Y0000102604D01*
X0002674184Y0000105605D01*
X0002674184Y0000117604D01*
X0002675684Y0000120603D01*
X0002678683Y0000122103D01*
X0002684682Y0000122103D01*
X0002687682Y0000120603D01*
X0002689182Y0000117604D01*
X0002689182Y0000114604D01*
X0002674184Y0000111604D01*
X0002707180Y0000101106D02*
X0002704180Y0000102604D01*
X0002702680Y0000105605D01*
X0002702680Y0000132602D01*
X0002723678Y0000101106D02*
X0002720677Y0000102604D01*
X0002719178Y0000105605D01*
X0002719178Y0000132602D01*
D110*
X0002651181Y0000637401D02*
X0002651181Y0000481101D01*
D111*
X0002687007Y0000559448D02*
G75*
G03G03G03G03X0002687007Y0000559448I-0000150787D01X0002687007Y0000559448I-0000150787D01G03G03X0002687007Y0000559448I-0000150787D01G03G03X0002687007Y0000559448I-0000150787D01X0002687007Y0000559448I-0000150787D01X0002687007Y0000559448I-0000150787D01X0002687007Y0000559448I-0000150787D01G03G03G03G03X0002687007Y0000559448I-0000150787D01X0002687007Y0000559448I-0000150787D01X0002687007Y0000559448I-0000150787D01G03G03X0002687007Y0000559448I-0000150787D01G03G03X0002687007Y0000559448I-0000150787D01X0002687007Y0000559448I-0000150787D01X0002687007Y0000559448I-0000150787D01X0002687007Y0000559448I-0000150787D01X0002687007Y0000559448I-0000150787D01*
G01G01G01G01G01G01G01G01G01G01G01G01G01G01G01G01*
D112*
X0002640944Y0000559448D02*
G75*
G03G03G03G03X0002640944Y0000559448I-0000104724D01X0002640944Y0000559448I-0000104724D01G03G03X0002640944Y0000559448I-0000104724D01G03G03X0002640944Y0000559448I-0000104724D01X0002640944Y0000559448I-0000104724D01X0002640944Y0000559448I-0000104724D01X0002640944Y0000559448I-0000104724D01G03G03G03G03X0002640944Y0000559448I-0000104724D01X0002640944Y0000559448I-0000104724D01X0002640944Y0000559448I-0000104724D01G03G03X0002640944Y0000559448I-0000104724D01G03G03X0002640944Y0000559448I-0000104724D01X0002640944Y0000559448I-0000104724D01X0002640944Y0000559448I-0000104724D01X0002640944Y0000559448I-0000104724D01X0002640944Y0000559448I-0000104724D01*
G01G01G01G01G01G01G01G01G01G01G01G01G01G01G01G01*
D110*
X0002139370Y0000637401D02*
X0002139370Y0000481101D01*
D111*
X0002175196Y0000559448D02*
G75*
G03G03G03G03X0002175196Y0000559448I-0000150787D01X0002175196Y0000559448I-0000150787D01G03G03X0002175196Y0000559448I-0000150787D01G03G03X0002175196Y0000559448I-0000150787D01X0002175196Y0000559448I-0000150787D01X0002175196Y0000559448I-0000150787D01X0002175196Y0000559448I-0000150787D01G03G03G03G03X0002175196Y0000559448I-0000150787D01X0002175196Y0000559448I-0000150787D01X0002175196Y0000559448I-0000150787D01G03G03X0002175196Y0000559448I-0000150787D01G03G03X0002175196Y0000559448I-0000150787D01X0002175196Y0000559448I-0000150787D01X0002175196Y0000559448I-0000150787D01X0002175196Y0000559448I-0000150787D01X0002175196Y0000559448I-0000150787D01*
G01G01G01G01G01G01G01G01G01G01G01G01G01G01G01G01*
D112*
X0002129133Y0000559448D02*
G75*
G03G03G03G03X0002129133Y0000559448I-0000104724D01X0002129133Y0000559448I-0000104724D01G03G03X0002129133Y0000559448I-0000104724D01G03G03X0002129133Y0000559448I-0000104724D01X0002129133Y0000559448I-0000104724D01X0002129133Y0000559448I-0000104724D01X0002129133Y0000559448I-0000104724D01G03G03G03G03X0002129133Y0000559448I-0000104724D01X0002129133Y0000559448I-0000104724D01X0002129133Y0000559448I-0000104724D01G03G03X0002129133Y0000559448I-0000104724D01G03G03X0002129133Y0000559448I-0000104724D01X0002129133Y0000559448I-0000104724D01X0002129133Y0000559448I-0000104724D01X0002129133Y0000559448I-0000104724D01X0002129133Y0000559448I-0000104724D01*
G01G01G01G01G01G01G01G01G01G01G01G01G01G01G01G01*
D110*
X0002651181Y0001188582D02*
X0002651181Y0001032283D01*
D111*
X0002687007Y0001110629D02*
G75*
G03G03G03G03X0002687007Y0001110629I-0000150787D01X0002687007Y0001110629I-0000150787D01G03G03X0002687007Y0001110629I-0000150787D01G03G03X0002687007Y0001110629I-0000150787D01X0002687007Y0001110629I-0000150787D01X0002687007Y0001110629I-0000150787D01X0002687007Y0001110629I-0000150787D01G03G03G03G03X0002687007Y0001110629I-0000150787D01X0002687007Y0001110629I-0000150787D01X0002687007Y0001110629I-0000150787D01G03G03X0002687007Y0001110629I-0000150787D01G03G03X0002687007Y0001110629I-0000150787D01X0002687007Y0001110629I-0000150787D01X0002687007Y0001110629I-0000150787D01X0002687007Y0001110629I-0000150787D01X0002687007Y0001110629I-0000150787D01*
G01G01G01G01G01G01G01G01G01G01G01G01G01G01G01G01*
D112*
X0002640944Y0001110629D02*
G75*
G03G03G03G03X0002640944Y0001110629I-0000104724D01X0002640944Y0001110629I-0000104724D01G03G03X0002640944Y0001110629I-0000104724D01G03G03X0002640944Y0001110629I-0000104724D01X0002640944Y0001110629I-0000104724D01X0002640944Y0001110629I-0000104724D01X0002640944Y0001110629I-0000104724D01G03G03G03G03X0002640944Y0001110629I-0000104724D01X0002640944Y0001110629I-0000104724D01X0002640944Y0001110629I-0000104724D01G03G03X0002640944Y0001110629I-0000104724D01G03G03X0002640944Y0001110629I-0000104724D01X0002640944Y0001110629I-0000104724D01X0002640944Y0001110629I-0000104724D01X0002640944Y0001110629I-0000104724D01X0002640944Y0001110629I-0000104724D01*
G01G01G01G01G01G01G01G01G01G01G01G01G01G01G01G01*
D110*
X0002139370Y0001188582D02*
X0002139370Y0001032283D01*
D111*
X0002175196Y0001110629D02*
G75*
G03G03G03G03X0002175196Y0001110629I-0000150787D01X0002175196Y0001110629I-0000150787D01G03G03X0002175196Y0001110629I-0000150787D01G03G03X0002175196Y0001110629I-0000150787D01X0002175196Y0001110629I-0000150787D01X0002175196Y0001110629I-0000150787D01X0002175196Y0001110629I-0000150787D01G03G03G03G03X0002175196Y0001110629I-0000150787D01X0002175196Y0001110629I-0000150787D01X0002175196Y0001110629I-0000150787D01G03G03X0002175196Y0001110629I-0000150787D01G03G03X0002175196Y0001110629I-0000150787D01X0002175196Y0001110629I-0000150787D01X0002175196Y0001110629I-0000150787D01X0002175196Y0001110629I-0000150787D01X0002175196Y0001110629I-0000150787D01*
G01G01G01G01G01G01G01G01G01G01G01G01G01G01G01G01*
D112*
X0002129133Y0001110629D02*
G75*
G03G03G03G03X0002129133Y0001110629I-0000104724D01X0002129133Y0001110629I-0000104724D01G03G03X0002129133Y0001110629I-0000104724D01G03G03X0002129133Y0001110629I-0000104724D01X0002129133Y0001110629I-0000104724D01X0002129133Y0001110629I-0000104724D01X0002129133Y0001110629I-0000104724D01G03G03G03G03X0002129133Y0001110629I-0000104724D01X0002129133Y0001110629I-0000104724D01X0002129133Y0001110629I-0000104724D01G03G03X0002129133Y0001110629I-0000104724D01G03G03X0002129133Y0001110629I-0000104724D01X0002129133Y0001110629I-0000104724D01X0002129133Y0001110629I-0000104724D01X0002129133Y0001110629I-0000104724D01X0002129133Y0001110629I-0000104724D01*
G01G01G01G01G01G01G01G01G01G01G01G01G01G01G01G01*
D110*
X0001588188Y0000637401D02*
X0001588188Y0000481101D01*
D111*
X0001624015Y0000559448D02*
G75*
G03G03G03G03X0001624015Y0000559448I-0000150787D01X0001624015Y0000559448I-0000150787D01G03G03X0001624015Y0000559448I-0000150787D01G03G03X0001624015Y0000559448I-0000150787D01X0001624015Y0000559448I-0000150787D01X0001624015Y0000559448I-0000150787D01X0001624015Y0000559448I-0000150787D01G03G03G03G03X0001624015Y0000559448I-0000150787D01X0001624015Y0000559448I-0000150787D01X0001624015Y0000559448I-0000150787D01G03G03X0001624015Y0000559448I-0000150787D01G03G03X0001624015Y0000559448I-0000150787D01X0001624015Y0000559448I-0000150787D01X0001624015Y0000559448I-0000150787D01X0001624015Y0000559448I-0000150787D01X0001624015Y0000559448I-0000150787D01*
G01G01G01G01G01G01G01G01G01G01G01G01G01G01G01G01*
D112*
X0001577952Y0000559448D02*
G75*
G03G03G03G03X0001577952Y0000559448I-0000104724D01X0001577952Y0000559448I-0000104724D01G03G03X0001577952Y0000559448I-0000104724D01G03G03X0001577952Y0000559448I-0000104724D01X0001577952Y0000559448I-0000104724D01X0001577952Y0000559448I-0000104724D01X0001577952Y0000559448I-0000104724D01G03G03G03G03X0001577952Y0000559448I-0000104724D01X0001577952Y0000559448I-0000104724D01X0001577952Y0000559448I-0000104724D01G03G03X0001577952Y0000559448I-0000104724D01G03G03X0001577952Y0000559448I-0000104724D01X0001577952Y0000559448I-0000104724D01X0001577952Y0000559448I-0000104724D01X0001577952Y0000559448I-0000104724D01X0001577952Y0000559448I-0000104724D01*
G01G01G01G01G01G01G01G01G01G01G01G01G01G01G01G01*
D110*
X0001076377Y0000637401D02*
X0001076377Y0000481101D01*
D111*
X0001112204Y0000559448D02*
G75*
G03G03G03G03X0001112204Y0000559448I-0000150787D01X0001112204Y0000559448I-0000150787D01G03G03X0001112204Y0000559448I-0000150787D01G03G03X0001112204Y0000559448I-0000150787D01X0001112204Y0000559448I-0000150787D01X0001112204Y0000559448I-0000150787D01X0001112204Y0000559448I-0000150787D01G03G03G03G03X0001112204Y0000559448I-0000150787D01X0001112204Y0000559448I-0000150787D01X0001112204Y0000559448I-0000150787D01G03G03X0001112204Y0000559448I-0000150787D01G03G03X0001112204Y0000559448I-0000150787D01X0001112204Y0000559448I-0000150787D01X0001112204Y0000559448I-0000150787D01X0001112204Y0000559448I-0000150787D01X0001112204Y0000559448I-0000150787D01*
G01G01G01G01G01G01G01G01G01G01G01G01G01G01G01G01*
D112*
X0001066141Y0000559448D02*
G75*
G03G03G03G03X0001066141Y0000559448I-0000104724D01X0001066141Y0000559448I-0000104724D01G03G03X0001066141Y0000559448I-0000104724D01G03G03X0001066141Y0000559448I-0000104724D01X0001066141Y0000559448I-0000104724D01X0001066141Y0000559448I-0000104724D01X0001066141Y0000559448I-0000104724D01G03G03G03G03X0001066141Y0000559448I-0000104724D01X0001066141Y0000559448I-0000104724D01X0001066141Y0000559448I-0000104724D01G03G03X0001066141Y0000559448I-0000104724D01G03G03X0001066141Y0000559448I-0000104724D01X0001066141Y0000559448I-0000104724D01X0001066141Y0000559448I-0000104724D01X0001066141Y0000559448I-0000104724D01X0001066141Y0000559448I-0000104724D01*
G01G01G01G01G01G01G01G01G01G01G01G01G01G01G01G01*
D110*
X0000564566Y0000637401D02*
X0000564566Y0000481101D01*
D111*
X0000600393Y0000559448D02*
G75*
G03G03G03G03X0000600393Y0000559448I-0000150787D01X0000600393Y0000559448I-0000150787D01G03G03X0000600393Y0000559448I-0000150787D01G03G03X0000600393Y0000559448I-0000150787D01X0000600393Y0000559448I-0000150787D01X0000600393Y0000559448I-0000150787D01X0000600393Y0000559448I-0000150787D01G03G03G03G03X0000600393Y0000559448I-0000150787D01X0000600393Y0000559448I-0000150787D01X0000600393Y0000559448I-0000150787D01G03G03X0000600393Y0000559448I-0000150787D01G03G03X0000600393Y0000559448I-0000150787D01X0000600393Y0000559448I-0000150787D01X0000600393Y0000559448I-0000150787D01X0000600393Y0000559448I-0000150787D01X0000600393Y0000559448I-0000150787D01*
G01G01G01G01G01G01G01G01G01G01G01G01G01G01G01G01*
D112*
X0000554330Y0000559448D02*
G75*
G03G03G03G03X0000554330Y0000559448I-0000104724D01X0000554330Y0000559448I-0000104724D01G03G03X0000554330Y0000559448I-0000104724D01G03G03X0000554330Y0000559448I-0000104724D01X0000554330Y0000559448I-0000104724D01X0000554330Y0000559448I-0000104724D01X0000554330Y0000559448I-0000104724D01G03G03G03G03X0000554330Y0000559448I-0000104724D01X0000554330Y0000559448I-0000104724D01X0000554330Y0000559448I-0000104724D01G03G03X0000554330Y0000559448I-0000104724D01G03G03X0000554330Y0000559448I-0000104724D01X0000554330Y0000559448I-0000104724D01X0000554330Y0000559448I-0000104724D01X0000554330Y0000559448I-0000104724D01X0000554330Y0000559448I-0000104724D01*
G01G01G01G01G01G01G01G01G01G01G01G01G01G01G01G01*
D110*
X0001588188Y0001188582D02*
X0001588188Y0001032283D01*
D111*
X0001624015Y0001110629D02*
G75*
G03G03G03G03X0001624015Y0001110629I-0000150787D01X0001624015Y0001110629I-0000150787D01G03G03X0001624015Y0001110629I-0000150787D01G03G03X0001624015Y0001110629I-0000150787D01X0001624015Y0001110629I-0000150787D01X0001624015Y0001110629I-0000150787D01X0001624015Y0001110629I-0000150787D01G03G03G03G03X0001624015Y0001110629I-0000150787D01X0001624015Y0001110629I-0000150787D01X0001624015Y0001110629I-0000150787D01G03G03X0001624015Y0001110629I-0000150787D01G03G03X0001624015Y0001110629I-0000150787D01X0001624015Y0001110629I-0000150787D01X0001624015Y0001110629I-0000150787D01X0001624015Y0001110629I-0000150787D01X0001624015Y0001110629I-0000150787D01*
G01G01G01G01G01G01G01G01G01G01G01G01G01G01G01G01*
D112*
X0001577952Y0001110629D02*
G75*
G03G03G03G03X0001577952Y0001110629I-0000104724D01X0001577952Y0001110629I-0000104724D01G03G03X0001577952Y0001110629I-0000104724D01G03G03X0001577952Y0001110629I-0000104724D01X0001577952Y0001110629I-0000104724D01X0001577952Y0001110629I-0000104724D01X0001577952Y0001110629I-0000104724D01G03G03G03G03X0001577952Y0001110629I-0000104724D01X0001577952Y0001110629I-0000104724D01X0001577952Y0001110629I-0000104724D01G03G03X0001577952Y0001110629I-0000104724D01G03G03X0001577952Y0001110629I-0000104724D01X0001577952Y0001110629I-0000104724D01X0001577952Y0001110629I-0000104724D01X0001577952Y0001110629I-0000104724D01X0001577952Y0001110629I-0000104724D01*
G01G01G01G01G01G01G01G01G01G01G01G01G01G01G01G01*
D110*
X0001076377Y0001188582D02*
X0001076377Y0001032283D01*
D111*
X0001112204Y0001110629D02*
G75*
G03G03G03G03X0001112204Y0001110629I-0000150787D01X0001112204Y0001110629I-0000150787D01G03G03X0001112204Y0001110629I-0000150787D01G03G03X0001112204Y0001110629I-0000150787D01X0001112204Y0001110629I-0000150787D01X0001112204Y0001110629I-0000150787D01X0001112204Y0001110629I-0000150787D01G03G03G03G03X0001112204Y0001110629I-0000150787D01X0001112204Y0001110629I-0000150787D01X0001112204Y0001110629I-0000150787D01G03G03X0001112204Y0001110629I-0000150787D01G03G03X0001112204Y0001110629I-0000150787D01X0001112204Y0001110629I-0000150787D01X0001112204Y0001110629I-0000150787D01X0001112204Y0001110629I-0000150787D01X0001112204Y0001110629I-0000150787D01*
G01G01G01G01G01G01G01G01G01G01G01G01G01G01G01G01*
D112*
X0001066141Y0001110629D02*
G75*
G03G03G03G03X0001066141Y0001110629I-0000104724D01X0001066141Y0001110629I-0000104724D01G03G03X0001066141Y0001110629I-0000104724D01G03G03X0001066141Y0001110629I-0000104724D01X0001066141Y0001110629I-0000104724D01X0001066141Y0001110629I-0000104724D01X0001066141Y0001110629I-0000104724D01G03G03G03G03X0001066141Y0001110629I-0000104724D01X0001066141Y0001110629I-0000104724D01X0001066141Y0001110629I-0000104724D01G03G03X0001066141Y0001110629I-0000104724D01G03G03X0001066141Y0001110629I-0000104724D01X0001066141Y0001110629I-0000104724D01X0001066141Y0001110629I-0000104724D01X0001066141Y0001110629I-0000104724D01X0001066141Y0001110629I-0000104724D01*
G01G01G01G01G01G01G01G01G01G01G01G01G01G01G01G01*
D110*
X0000564566Y0001188582D02*
X0000564566Y0001032283D01*
D111*
X0000600393Y0001110629D02*
G75*
G03G03G03G03X0000600393Y0001110629I-0000150787D01X0000600393Y0001110629I-0000150787D01G03G03X0000600393Y0001110629I-0000150787D01G03G03X0000600393Y0001110629I-0000150787D01X0000600393Y0001110629I-0000150787D01X0000600393Y0001110629I-0000150787D01X0000600393Y0001110629I-0000150787D01G03G03G03G03X0000600393Y0001110629I-0000150787D01X0000600393Y0001110629I-0000150787D01X0000600393Y0001110629I-0000150787D01G03G03X0000600393Y0001110629I-0000150787D01G03G03X0000600393Y0001110629I-0000150787D01X0000600393Y0001110629I-0000150787D01X0000600393Y0001110629I-0000150787D01X0000600393Y0001110629I-0000150787D01X0000600393Y0001110629I-0000150787D01*
G01G01G01G01G01G01G01G01G01G01G01G01G01G01G01G01*
D112*
X0000554330Y0001110629D02*
G75*
G03G03G03G03X0000554330Y0001110629I-0000104724D01X0000554330Y0001110629I-0000104724D01G03G03X0000554330Y0001110629I-0000104724D01G03G03X0000554330Y0001110629I-0000104724D01X0000554330Y0001110629I-0000104724D01X0000554330Y0001110629I-0000104724D01X0000554330Y0001110629I-0000104724D01G03G03G03G03X0000554330Y0001110629I-0000104724D01X0000554330Y0001110629I-0000104724D01X0000554330Y0001110629I-0000104724D01G03G03X0000554330Y0001110629I-0000104724D01G03G03X0000554330Y0001110629I-0000104724D01X0000554330Y0001110629I-0000104724D01X0000554330Y0001110629I-0000104724D01X0000554330Y0001110629I-0000104724D01X0000554330Y0001110629I-0000104724D01*
G01G01G01G01G01G01G01G01G01G01G01G01G01G01G01G01*
D113*
G36*
X0002788375Y0001378075D02*
X0002778306Y0001303423D01*
X0000188532Y0001302639D01*
X0000189578Y0001380035D01*
X0002788375Y0001378075D01*
X0002788375Y0001378075D01*
G37*
X0002788375Y0001378075D02*
X0002778306Y0001303423D01*
X0000188532Y0001302639D01*
X0000189578Y0001380035D01*
X0002788375Y0001378075D01*
G36*
X0002760725Y-0000000903D02*
X0000233323Y-0000000119D01*
X0000232975Y0000075316D01*
X0002760376Y0000076100D01*
X0002760725Y-0000000903D01*
X0002760725Y-0000000903D01*
G37*
X0002760725Y-0000000903D02*
X0000233323Y-0000000119D01*
X0000232975Y0000075316D01*
X0002760376Y0000076100D01*
X0002760725Y-0000000903D01*
G36*
X0002672462Y0000187677D02*
X0000320258Y0000187677D01*
X0000320258Y0000240669D01*
X0002672462Y0000240669D01*
X0002672462Y0000187677D01*
X0002672462Y0000187677D01*
G37*
X0002672462Y0000187677D02*
X0000320258Y0000187677D01*
X0000320258Y0000240669D01*
X0002672462Y0000240669D01*
X0002672462Y0000187677D01*
G36*
X0002993820Y0000995369D02*
X0002984507Y0000982951D01*
X0002957086Y0000982951D01*
X0002955173Y0000982572D01*
X0002953551Y0000981488D01*
X0002952467Y0000979865D01*
X0002952086Y0000977963D01*
X0002950905Y0000403159D01*
X0002951282Y0000401245D01*
X0002952362Y0000399621D01*
X0002953982Y0000398534D01*
X0002955905Y0000398149D01*
X0002984936Y0000398149D01*
X0002993818Y0000389267D01*
X0002993818Y-0000001299D01*
X0002757339Y-0000001299D01*
X0002756968Y0000080329D01*
X0002756968Y0000165262D01*
X0002759935Y0000169217D01*
X0002762108Y0000170220D01*
X0002766277Y0000168831D01*
X0002789628Y0000146939D01*
X0002792804Y0000134941D01*
X0002794214Y0000132576D01*
X0002807206Y0000120370D01*
X0002808732Y0000119388D01*
X0002824086Y0000113090D01*
X0002825984Y0000112716D01*
X0002840944Y0000112716D01*
X0002843439Y0000113383D01*
X0002856431Y0000120863D01*
X0002857249Y0000121451D01*
X0002867486Y0000130506D01*
X0002868791Y0000132336D01*
X0002875484Y0000148478D01*
X0002875863Y0000150540D01*
X0002875470Y0000163926D01*
X0002875124Y0000165611D01*
X0002870006Y0000178604D01*
X0002869017Y0000180172D01*
X0002858782Y0000191197D01*
X0002857116Y0000192378D01*
X0002842610Y0000198701D01*
X0002820257Y0000220688D01*
X0002818685Y0000226977D01*
X0002820678Y0000230965D01*
X0002826456Y0000233991D01*
X0002888251Y0000234764D01*
X0002890160Y0000235168D01*
X0002891768Y0000236272D01*
X0002892831Y0000237908D01*
X0002893188Y0000239762D01*
X0002893188Y0000314566D01*
X0002892808Y0000316480D01*
X0002891723Y0000318102D01*
X0002890102Y0000319186D01*
X0002888249Y0000319566D01*
X0002796341Y0000320687D01*
X0002796729Y0001058074D01*
X0002887090Y0001059567D01*
X0002888997Y0001059979D01*
X0002890601Y0001061090D01*
X0002891658Y0001062730D01*
X0002892006Y0001064540D01*
X0002892401Y0001140131D01*
X0002892030Y0001142046D01*
X0002890955Y0001143674D01*
X0002889339Y0001144766D01*
X0002887430Y0001145157D01*
X0002822448Y0001145539D01*
X0002818922Y0001148813D01*
X0002817129Y0001151952D01*
X0002817932Y0001155365D01*
X0002840191Y0001177989D01*
X0002851755Y0001182326D01*
X0002853441Y0001183380D01*
X0002868795Y0001197947D01*
X0002870107Y0001200024D01*
X0002876013Y0001218134D01*
X0002876094Y0001220962D01*
X0002870582Y0001241828D01*
X0002869330Y0001244039D01*
X0002854763Y0001258999D01*
X0002853155Y0001260105D01*
X0002852045Y0001260436D01*
X0002829604Y0001264373D01*
X0002827527Y0001264299D01*
X0002813354Y0001260756D01*
X0002811366Y0001259746D01*
X0002797192Y0001247935D01*
X0002795788Y0001246042D01*
X0002787581Y0001226642D01*
X0002765868Y0001207874D01*
X0002763927Y0001207097D01*
X0002760869Y0001207505D01*
X0002758631Y0001209540D01*
X0002756570Y0001215428D01*
X0002756181Y0001297153D01*
X0002759520Y0001378396D01*
X0002810165Y0001377676D01*
X0002810267Y0001377676D01*
X0002994207Y0001378826D01*
X0002993820Y0000995369D01*
X0002993820Y0000995369D01*
G37*
X0002993820Y0000995369D02*
X0002984507Y0000982951D01*
X0002957086Y0000982951D01*
X0002955173Y0000982572D01*
X0002953551Y0000981488D01*
X0002952467Y0000979865D01*
X0002952086Y0000977963D01*
X0002950905Y0000403159D01*
X0002951282Y0000401245D01*
X0002952362Y0000399621D01*
X0002953982Y0000398534D01*
X0002955905Y0000398149D01*
X0002984936Y0000398149D01*
X0002993818Y0000389267D01*
X0002993818Y-0000001299D01*
X0002757339Y-0000001299D01*
X0002756968Y0000080329D01*
X0002756968Y0000165262D01*
X0002759935Y0000169217D01*
X0002762108Y0000170220D01*
X0002766277Y0000168831D01*
X0002789628Y0000146939D01*
X0002792804Y0000134941D01*
X0002794214Y0000132576D01*
X0002807206Y0000120370D01*
X0002808732Y0000119388D01*
X0002824086Y0000113090D01*
X0002825984Y0000112716D01*
X0002840944Y0000112716D01*
X0002843439Y0000113383D01*
X0002856431Y0000120863D01*
X0002857249Y0000121451D01*
X0002867486Y0000130506D01*
X0002868791Y0000132336D01*
X0002875484Y0000148478D01*
X0002875863Y0000150540D01*
X0002875470Y0000163926D01*
X0002875124Y0000165611D01*
X0002870006Y0000178604D01*
X0002869017Y0000180172D01*
X0002858782Y0000191197D01*
X0002857116Y0000192378D01*
X0002842610Y0000198701D01*
X0002820257Y0000220688D01*
X0002818685Y0000226977D01*
X0002820678Y0000230965D01*
X0002826456Y0000233991D01*
X0002888251Y0000234764D01*
X0002890160Y0000235168D01*
X0002891768Y0000236272D01*
X0002892831Y0000237908D01*
X0002893188Y0000239762D01*
X0002893188Y0000314566D01*
X0002892808Y0000316480D01*
X0002891723Y0000318102D01*
X0002890102Y0000319186D01*
X0002888249Y0000319566D01*
X0002796341Y0000320687D01*
X0002796729Y0001058074D01*
X0002887090Y0001059567D01*
X0002888997Y0001059979D01*
X0002890601Y0001061090D01*
X0002891658Y0001062730D01*
X0002892006Y0001064540D01*
X0002892401Y0001140131D01*
X0002892030Y0001142046D01*
X0002890955Y0001143674D01*
X0002889339Y0001144766D01*
X0002887430Y0001145157D01*
X0002822448Y0001145539D01*
X0002818922Y0001148813D01*
X0002817129Y0001151952D01*
X0002817932Y0001155365D01*
X0002840191Y0001177989D01*
X0002851755Y0001182326D01*
X0002853441Y0001183380D01*
X0002868795Y0001197947D01*
X0002870107Y0001200024D01*
X0002876013Y0001218134D01*
X0002876094Y0001220962D01*
X0002870582Y0001241828D01*
X0002869330Y0001244039D01*
X0002854763Y0001258999D01*
X0002853155Y0001260105D01*
X0002852045Y0001260436D01*
X0002829604Y0001264373D01*
X0002827527Y0001264299D01*
X0002813354Y0001260756D01*
X0002811366Y0001259746D01*
X0002797192Y0001247935D01*
X0002795788Y0001246042D01*
X0002787581Y0001226642D01*
X0002765868Y0001207874D01*
X0002763927Y0001207097D01*
X0002760869Y0001207505D01*
X0002758631Y0001209540D01*
X0002756570Y0001215428D01*
X0002756181Y0001297153D01*
X0002759520Y0001378396D01*
X0002810165Y0001377676D01*
X0002810267Y0001377676D01*
X0002994207Y0001378826D01*
X0002993820Y0000995369D01*
G36*
X0000230826Y0001299592D02*
X0000230826Y0001214658D01*
X0000227860Y0001210703D01*
X0000225686Y0001209700D01*
X0000221518Y0001211089D01*
X0000198167Y0001232981D01*
X0000194990Y0001244980D01*
X0000193580Y0001247345D01*
X0000180588Y0001259549D01*
X0000179063Y0001260531D01*
X0000163708Y0001266830D01*
X0000161811Y0001267204D01*
X0000146850Y0001267204D01*
X0000144355Y0001266537D01*
X0000131363Y0001259057D01*
X0000130545Y0001258469D01*
X0000120309Y0001249414D01*
X0000119003Y0001247584D01*
X0000112309Y0001231442D01*
X0000111931Y0001229380D01*
X0000112325Y0001215994D01*
X0000112670Y0001214309D01*
X0000117788Y0001201316D01*
X0000118776Y0001199747D01*
X0000129010Y0001188723D01*
X0000130676Y0001187542D01*
X0000145185Y0001181219D01*
X0000167537Y0001159233D01*
X0000169110Y0001152943D01*
X0000167115Y0001148955D01*
X0000161338Y0001145929D01*
X0000099543Y0001145157D01*
X0000097635Y0001144752D01*
X0000096026Y0001143648D01*
X0000094963Y0001142012D01*
X0000094606Y0001140157D01*
X0000094606Y0001065354D01*
X0000094986Y0001063440D01*
X0000096070Y0001061818D01*
X0000097692Y0001060734D01*
X0000099545Y0001060354D01*
X0000191454Y0001059233D01*
X0000191065Y0000321847D01*
X0000100704Y0000320353D01*
X0000098797Y0000319941D01*
X0000097193Y0000318830D01*
X0000096137Y0000317191D01*
X0000095787Y0000315379D01*
X0000095393Y0000239789D01*
X0000095764Y0000237874D01*
X0000096839Y0000236246D01*
X0000098456Y0000235154D01*
X0000100364Y0000234763D01*
X0000165345Y0000234381D01*
X0000168872Y0000231107D01*
X0000170666Y0000227968D01*
X0000169863Y0000224555D01*
X0000147604Y0000201930D01*
X0000136039Y0000197595D01*
X0000134353Y0000196540D01*
X0000118999Y0000181973D01*
X0000117686Y0000179896D01*
X0000111781Y0000161786D01*
X0000111701Y0000158959D01*
X0000117212Y0000138093D01*
X0000118464Y0000135881D01*
X0000133031Y0000120921D01*
X0000134639Y0000119815D01*
X0000135750Y0000119484D01*
X0000158191Y0000115547D01*
X0000160267Y0000115621D01*
X0000174441Y0000119165D01*
X0000176428Y0000120174D01*
X0000190602Y0000131985D01*
X0000192006Y0000133878D01*
X0000200213Y0000153278D01*
X0000221926Y0000172046D01*
X0000223867Y0000172823D01*
X0000226925Y0000172415D01*
X0000229163Y0000170380D01*
X0000231224Y0000164493D01*
X0000231613Y0000082767D01*
X0000228271Y0000001432D01*
X0000155501Y0000001062D01*
X-0000006412Y0000001062D01*
X-0000006025Y0000384551D01*
X0000003286Y0000396968D01*
X0000030708Y0000396968D01*
X0000032622Y0000397349D01*
X0000034244Y0000398431D01*
X0000035328Y0000400055D01*
X0000035708Y0000401958D01*
X0000036889Y0000976761D01*
X0000036513Y0000978675D01*
X0000035432Y0000980299D01*
X0000033812Y0000981387D01*
X0000031889Y0000981771D01*
X0000002858Y0000981771D01*
X-0000006023Y0000990653D01*
X-0000006023Y0001381220D01*
X0000230455Y0001381220D01*
X0000230826Y0001299592D01*
X0000230826Y0001299592D01*
G37*
X0000230826Y0001299592D02*
X0000230826Y0001214658D01*
X0000227860Y0001210703D01*
X0000225686Y0001209700D01*
X0000221518Y0001211089D01*
X0000198167Y0001232981D01*
X0000194990Y0001244980D01*
X0000193580Y0001247345D01*
X0000180588Y0001259549D01*
X0000179063Y0001260531D01*
X0000163708Y0001266830D01*
X0000161811Y0001267204D01*
X0000146850Y0001267204D01*
X0000144355Y0001266537D01*
X0000131363Y0001259057D01*
X0000130545Y0001258469D01*
X0000120309Y0001249414D01*
X0000119003Y0001247584D01*
X0000112309Y0001231442D01*
X0000111931Y0001229380D01*
X0000112325Y0001215994D01*
X0000112670Y0001214309D01*
X0000117788Y0001201316D01*
X0000118776Y0001199747D01*
X0000129010Y0001188723D01*
X0000130676Y0001187542D01*
X0000145185Y0001181219D01*
X0000167537Y0001159233D01*
X0000169110Y0001152943D01*
X0000167115Y0001148955D01*
X0000161338Y0001145929D01*
X0000099543Y0001145157D01*
X0000097635Y0001144752D01*
X0000096026Y0001143648D01*
X0000094963Y0001142012D01*
X0000094606Y0001140157D01*
X0000094606Y0001065354D01*
X0000094986Y0001063440D01*
X0000096070Y0001061818D01*
X0000097692Y0001060734D01*
X0000099545Y0001060354D01*
X0000191454Y0001059233D01*
X0000191065Y0000321847D01*
X0000100704Y0000320353D01*
X0000098797Y0000319941D01*
X0000097193Y0000318830D01*
X0000096137Y0000317191D01*
X0000095787Y0000315379D01*
X0000095393Y0000239789D01*
X0000095764Y0000237874D01*
X0000096839Y0000236246D01*
X0000098456Y0000235154D01*
X0000100364Y0000234763D01*
X0000165345Y0000234381D01*
X0000168872Y0000231107D01*
X0000170666Y0000227968D01*
X0000169863Y0000224555D01*
X0000147604Y0000201930D01*
X0000136039Y0000197595D01*
X0000134353Y0000196540D01*
X0000118999Y0000181973D01*
X0000117686Y0000179896D01*
X0000111781Y0000161786D01*
X0000111701Y0000158959D01*
X0000117212Y0000138093D01*
X0000118464Y0000135881D01*
X0000133031Y0000120921D01*
X0000134639Y0000119815D01*
X0000135750Y0000119484D01*
X0000158191Y0000115547D01*
X0000160267Y0000115621D01*
X0000174441Y0000119165D01*
X0000176428Y0000120174D01*
X0000190602Y0000131985D01*
X0000192006Y0000133878D01*
X0000200213Y0000153278D01*
X0000221926Y0000172046D01*
X0000223867Y0000172823D01*
X0000226925Y0000172415D01*
X0000229163Y0000170380D01*
X0000231224Y0000164493D01*
X0000231613Y0000082767D01*
X0000228271Y0000001432D01*
X0000155501Y0000001062D01*
X-0000006412Y0000001062D01*
X-0000006025Y0000384551D01*
X0000003286Y0000396968D01*
X0000030708Y0000396968D01*
X0000032622Y0000397349D01*
X0000034244Y0000398431D01*
X0000035328Y0000400055D01*
X0000035708Y0000401958D01*
X0000036889Y0000976761D01*
X0000036513Y0000978675D01*
X0000035432Y0000980299D01*
X0000033812Y0000981387D01*
X0000031889Y0000981771D01*
X0000002858Y0000981771D01*
X-0000006023Y0000990653D01*
X-0000006023Y0001381220D01*
X0000230455Y0001381220D01*
X0000230826Y0001299592D01*
G04 next file*
G04 #@! TF.FileFunction,Legend,Top*
G04 Gerber Fmt 4.6, Leading zero omitted, Abs format (unit mm)*
G04 Created by KiCad (PCBNEW (2016-09-17 revision 679eef1)-makepkg) date 09/24/16 16:35:10*
%LPD*%
G01G01G01G01G01G01G01G01G01G01G01G01G01G01G01G01*
G04 APERTURE LIST*
G04 APERTURE END LIST*
D124*
D125*
X0000521503Y0002432133D02*
X0000521503Y0002474128D01*
X0000521503Y0002462129D02*
X0000524503Y0002468129D01*
X0000527502Y0002471128D01*
X0000533502Y0002474128D01*
X0000539501Y0002474128D01*
X0000554499Y0002432133D02*
X0000587495Y0002474128D01*
X0000554499Y0002474128D02*
X0000587495Y0002432133D01*
X0000608492Y0002489126D02*
X0000611492Y0002492125D01*
X0000617491Y0002495125D01*
X0000632489Y0002495125D01*
X0000638488Y0002492125D01*
X0000641488Y0002489126D01*
X0000644488Y0002483127D01*
X0000644488Y0002477127D01*
X0000641488Y0002468129D01*
X0000605493Y0002432133D01*
X0000644488Y0002432133D01*
X0001049456Y0002432133D02*
X0001049456Y0002474128D01*
X0001049456Y0002462129D02*
X0001052455Y0002468129D01*
X0001055455Y0002471128D01*
X0001061454Y0002474128D01*
X0001067454Y0002474128D01*
X0001082452Y0002432133D02*
X0001115448Y0002474128D01*
X0001082452Y0002474128D02*
X0001115448Y0002432133D01*
X0001172440Y0002432133D02*
X0001136445Y0002432133D01*
X0001154443Y0002432133D02*
X0001154443Y0002495125D01*
X0001148443Y0002486126D01*
X0001142444Y0002480127D01*
X0001136445Y0002477127D01*
X0002341169Y0002474128D02*
X0002365166Y0002474128D01*
X0002350168Y0002495125D02*
X0002350168Y0002441132D01*
X0002353168Y0002435133D01*
X0002359167Y0002432133D01*
X0002365166Y0002432133D01*
X0002380164Y0002432133D02*
X0002413160Y0002474128D01*
X0002380164Y0002474128D02*
X0002413160Y0002432133D01*
X0002470153Y0002432133D02*
X0002434158Y0002432133D01*
X0002452155Y0002432133D02*
X0002452155Y0002495125D01*
X0002446156Y0002486126D01*
X0002440157Y0002480127D01*
X0002434158Y0002477127D01*
X0001813217Y0002474128D02*
X0001837214Y0002474128D01*
X0001822215Y0002495125D02*
X0001822215Y0002441132D01*
X0001825215Y0002435133D01*
X0001831214Y0002432133D01*
X0001837214Y0002432133D01*
X0001852212Y0002432133D02*
X0001885208Y0002474128D01*
X0001852212Y0002474128D02*
X0001885208Y0002432133D01*
X0001906205Y0002489126D02*
X0001909205Y0002492125D01*
X0001915203Y0002495125D01*
X0001930202Y0002495125D01*
X0001936201Y0002492125D01*
X0001939201Y0002489126D01*
X0001942200Y0002483127D01*
X0001942200Y0002477127D01*
X0001939201Y0002468129D01*
X0001903205Y0002432133D01*
X0001942200Y0002432133D01*
%LPC*%
D126*
X0002772909Y0001781477D02*
X0002771409Y0001778477D01*
X0002768410Y0001776977D01*
X0002741413Y0001776977D01*
X0002751912Y0001806974D02*
X0002772909Y0001806974D01*
X0002751912Y0001793475D02*
X0002768410Y0001793475D01*
X0002771409Y0001794974D01*
X0002772909Y0001797975D01*
X0002772909Y0001802474D01*
X0002771409Y0001805474D01*
X0002769910Y0001806974D01*
X0002751912Y0001817472D02*
X0002751912Y0001829471D01*
X0002772909Y0001821972D02*
X0002745912Y0001821972D01*
X0002742913Y0001823472D01*
X0002741413Y0001826471D01*
X0002741413Y0001829471D01*
X0002751912Y0001835470D02*
X0002751912Y0001847469D01*
X0002741413Y0001839970D02*
X0002768410Y0001839970D01*
X0002771409Y0001841469D01*
X0002772909Y0001844469D01*
X0002772909Y0001847469D01*
X0002771409Y0001869966D02*
X0002772909Y0001866966D01*
X0002772909Y0001860967D01*
X0002771409Y0001857967D01*
X0002768410Y0001856467D01*
X0002756411Y0001856467D01*
X0002753411Y0001857967D01*
X0002751912Y0001860967D01*
X0002751912Y0001866966D01*
X0002753411Y0001869966D01*
X0002756411Y0001871466D01*
X0002759411Y0001871466D01*
X0002762410Y0001856467D01*
X0002772909Y0001884964D02*
X0002741413Y0001884964D01*
X0002760911Y0001887963D02*
X0002772909Y0001896961D01*
X0002751912Y0001896961D02*
X0002763909Y0001884964D01*
D124*
X0002742838Y0001923617D02*
X0002741338Y0001925115D01*
X0002739838Y0001928116D01*
X0002739838Y0001935615D01*
X0002741338Y0001938615D01*
X0002742838Y0001940115D01*
X0002745837Y0001941615D01*
X0002748837Y0001941615D01*
X0002753337Y0001940115D01*
X0002771334Y0001922117D01*
X0002771334Y0001941615D01*
X0002739838Y0001961112D02*
X0002739838Y0001964112D01*
X0002741338Y0001967111D01*
X0002742838Y0001968611D01*
X0002745837Y0001970111D01*
X0002751837Y0001971611D01*
X0002759336Y0001971611D01*
X0002765335Y0001970111D01*
X0002768335Y0001968611D01*
X0002769835Y0001967111D01*
X0002771334Y0001964112D01*
X0002771334Y0001961112D01*
X0002769835Y0001958113D01*
X0002768335Y0001956613D01*
X0002765335Y0001955113D01*
X0002759336Y0001953613D01*
X0002751837Y0001953613D01*
X0002745837Y0001955113D01*
X0002742838Y0001956613D01*
X0002741338Y0001958113D01*
X0002739838Y0001961112D01*
X0002771334Y0002001607D02*
X0002771334Y0001983608D01*
X0002771334Y0001992608D02*
X0002739838Y0001992608D01*
X0002744338Y0001989608D01*
X0002747337Y0001986609D01*
X0002748837Y0001983608D01*
X0002739838Y0002028604D02*
X0002739838Y0002022605D01*
X0002741338Y0002019604D01*
X0002742838Y0002018104D01*
X0002747337Y0002015105D01*
X0002753337Y0002013605D01*
X0002765335Y0002013605D01*
X0002768335Y0002015105D01*
X0002769835Y0002016605D01*
X0002771334Y0002019604D01*
X0002771334Y0002025604D01*
X0002769835Y0002028604D01*
X0002768335Y0002030104D01*
X0002765335Y0002031603D01*
X0002757836Y0002031603D01*
X0002754836Y0002030104D01*
X0002753337Y0002028604D01*
X0002751837Y0002025604D01*
X0002751837Y0002019604D01*
X0002753337Y0002016605D01*
X0002754836Y0002015105D01*
X0002757836Y0002013605D01*
X0002739838Y0002051101D02*
X0002739838Y0002054101D01*
X0002741338Y0002057100D01*
X0002742838Y0002058600D01*
X0002745837Y0002060099D01*
X0002751837Y0002061599D01*
X0002759336Y0002061599D01*
X0002765335Y0002060099D01*
X0002768335Y0002058600D01*
X0002769835Y0002057100D01*
X0002771334Y0002054101D01*
X0002771334Y0002051101D01*
X0002769835Y0002048101D01*
X0002768335Y0002046602D01*
X0002765335Y0002045102D01*
X0002759336Y0002043602D01*
X0002751837Y0002043602D01*
X0002745837Y0002045102D01*
X0002742838Y0002046602D01*
X0002741338Y0002048101D01*
X0002739838Y0002051101D01*
X0002771334Y0002076598D02*
X0002771334Y0002082596D01*
X0002769835Y0002085597D01*
X0002768335Y0002087095D01*
X0002763835Y0002090096D01*
X0002757836Y0002091596D01*
X0002745837Y0002091596D01*
X0002742838Y0002090096D01*
X0002741338Y0002088596D01*
X0002739838Y0002085597D01*
X0002739838Y0002079597D01*
X0002741338Y0002076598D01*
X0002742838Y0002075098D01*
X0002745837Y0002073598D01*
X0002753337Y0002073598D01*
X0002756336Y0002075098D01*
X0002757836Y0002076598D01*
X0002759336Y0002079597D01*
X0002759336Y0002085597D01*
X0002757836Y0002088596D01*
X0002756336Y0002090096D01*
X0002753337Y0002091596D01*
X0002742838Y0002103594D02*
X0002741338Y0002105094D01*
X0002739838Y0002108094D01*
X0002739838Y0002115593D01*
X0002741338Y0002118592D01*
X0002742838Y0002120092D01*
X0002745837Y0002121592D01*
X0002748837Y0002121592D01*
X0002753337Y0002120092D01*
X0002771334Y0002102095D01*
X0002771334Y0002121592D01*
X0002750337Y0002148589D02*
X0002771334Y0002148589D01*
X0002738338Y0002141090D02*
X0002760836Y0002133591D01*
X0002760836Y0002153088D01*
D126*
X0002206242Y0001589295D02*
X0002227240Y0001589295D01*
X0002213742Y0001557799D01*
X0002252737Y0001589295D02*
X0002246737Y0001589295D01*
X0002243738Y0001587795D01*
X0002242238Y0001586294D01*
X0002239238Y0001581796D01*
X0002237739Y0001575796D01*
X0002237739Y0001563798D01*
X0002239238Y0001560798D01*
X0002240738Y0001559297D01*
X0002243738Y0001557799D01*
X0002249737Y0001557799D01*
X0002252737Y0001559297D01*
X0002254236Y0001560798D01*
X0002255736Y0001563798D01*
X0002255736Y0001571297D01*
X0002254236Y0001574294D01*
X0002252737Y0001575796D01*
X0002249737Y0001577296D01*
X0002243738Y0001577296D01*
X0002240738Y0001575796D01*
X0002239238Y0001574294D01*
X0002237739Y0001571297D01*
X0002266235Y0001557799D02*
X0002282733Y0001578796D01*
X0002266235Y0001578796D02*
X0002282733Y0001557799D01*
X0002291732Y0001589295D02*
X0002311229Y0001589295D01*
X0002300731Y0001577296D01*
X0002305230Y0001577296D01*
X0002308230Y0001575796D01*
X0002309730Y0001574294D01*
X0002311229Y0001571297D01*
X0002311229Y0001563798D01*
X0002309730Y0001560798D01*
X0002308230Y0001559297D01*
X0002305230Y0001557799D01*
X0002296231Y0001557799D01*
X0002293232Y0001559297D01*
X0002291732Y0001560798D01*
X0002339726Y0001589295D02*
X0002324728Y0001589295D01*
X0002323228Y0001574294D01*
X0002324728Y0001575796D01*
X0002327727Y0001577296D01*
X0002335226Y0001577296D01*
X0002338226Y0001575796D01*
X0002339726Y0001574294D01*
X0002341226Y0001571297D01*
X0002341226Y0001563798D01*
X0002339726Y0001560798D01*
X0002338226Y0001559297D01*
X0002335226Y0001557799D01*
X0002327727Y0001557799D01*
X0002324728Y0001559297D01*
X0002323228Y0001560798D01*
X0002351724Y0001557799D02*
X0002368222Y0001578796D01*
X0002351724Y0001578796D02*
X0002368222Y0001557799D01*
X0002396719Y0001557799D02*
X0002378721Y0001557799D01*
X0002387720Y0001557799D02*
X0002387720Y0001589295D01*
X0002384720Y0001584795D01*
X0002381721Y0001581796D01*
X0002378721Y0001580294D01*
X0002416216Y0001589295D02*
X0002419216Y0001589295D01*
X0002422215Y0001587795D01*
X0002423715Y0001586294D01*
X0002425215Y0001583295D01*
X0002426715Y0001577296D01*
X0002426715Y0001569797D01*
X0002425215Y0001563798D01*
X0002423715Y0001560798D01*
X0002422215Y0001559297D01*
X0002419216Y0001557799D01*
X0002416216Y0001557799D01*
X0002413217Y0001559297D01*
X0002411717Y0001560798D01*
X0002410217Y0001563798D01*
X0002408717Y0001569797D01*
X0002408717Y0001577296D01*
X0002410217Y0001583295D01*
X0002411717Y0001586294D01*
X0002413217Y0001587795D01*
X0002416216Y0001589295D01*
X0002446212Y0001589295D02*
X0002449212Y0001589295D01*
X0002452212Y0001587795D01*
X0002453712Y0001586294D01*
X0002455211Y0001583295D01*
X0002456711Y0001577296D01*
X0002456711Y0001569797D01*
X0002455211Y0001563798D01*
X0002453712Y0001560798D01*
X0002452212Y0001559297D01*
X0002449212Y0001557799D01*
X0002446212Y0001557799D01*
X0002443213Y0001559297D01*
X0002441713Y0001560798D01*
X0002440213Y0001563798D01*
X0002438713Y0001569797D01*
X0002438713Y0001577296D01*
X0002440213Y0001583295D01*
X0002441713Y0001586294D01*
X0002443213Y0001587795D01*
X0002446212Y0001589295D01*
X0002492707Y0001559297D02*
X0002495706Y0001557799D01*
X0002501706Y0001557799D01*
X0002504705Y0001559297D01*
X0002506205Y0001562298D01*
X0002506205Y0001563798D01*
X0002504705Y0001566797D01*
X0002501706Y0001568297D01*
X0002497206Y0001568297D01*
X0002494206Y0001569797D01*
X0002492707Y0001572797D01*
X0002492707Y0001574294D01*
X0002494206Y0001577296D01*
X0002497206Y0001578796D01*
X0002501706Y0001578796D01*
X0002504705Y0001577296D01*
X0002519703Y0001578796D02*
X0002519703Y0001547300D01*
X0002519703Y0001577296D02*
X0002522702Y0001578796D01*
X0002528701Y0001578796D01*
X0002531702Y0001577296D01*
X0002533202Y0001575796D01*
X0002534701Y0001572797D01*
X0002534701Y0001563798D01*
X0002533202Y0001560798D01*
X0002531702Y0001559297D01*
X0002528701Y0001557799D01*
X0002522702Y0001557799D01*
X0002519703Y0001559297D01*
X0002552699Y0001557799D02*
X0002549699Y0001559297D01*
X0002548200Y0001562298D01*
X0002548200Y0001589295D01*
X0002564698Y0001557799D02*
X0002564698Y0001578796D01*
X0002564698Y0001589295D02*
X0002563198Y0001587795D01*
X0002564698Y0001586294D01*
X0002566197Y0001587795D01*
X0002564698Y0001589295D01*
X0002564698Y0001586294D01*
X0002575196Y0001578796D02*
X0002587194Y0001578796D01*
X0002579696Y0001589295D02*
X0002579696Y0001562298D01*
X0002581195Y0001559297D01*
X0002584195Y0001557799D01*
X0002587194Y0001557799D01*
X0002620190Y0001559297D02*
X0002623190Y0001557799D01*
X0002629190Y0001557799D01*
X0002632189Y0001559297D01*
X0002633689Y0001562298D01*
X0002633689Y0001563798D01*
X0002632189Y0001566797D01*
X0002629190Y0001568297D01*
X0002624690Y0001568297D01*
X0002621691Y0001569797D01*
X0002620190Y0001572797D01*
X0002620190Y0001574294D01*
X0002621691Y0001577296D01*
X0002624690Y0001578796D01*
X0002629190Y0001578796D01*
X0002632189Y0001577296D01*
X0002647187Y0001557799D02*
X0002647187Y0001589295D01*
X0002660686Y0001557799D02*
X0002660686Y0001574294D01*
X0002659186Y0001577296D01*
X0002656185Y0001578796D01*
X0002651686Y0001578796D01*
X0002648687Y0001577296D01*
X0002647187Y0001575796D01*
X0002687682Y0001559297D02*
X0002684682Y0001557799D01*
X0002678683Y0001557799D01*
X0002675684Y0001559297D01*
X0002674184Y0001562298D01*
X0002674184Y0001574294D01*
X0002675684Y0001577296D01*
X0002678683Y0001578796D01*
X0002684682Y0001578796D01*
X0002687682Y0001577296D01*
X0002689182Y0001574294D01*
X0002689182Y0001571297D01*
X0002674184Y0001568297D01*
X0002707180Y0001557799D02*
X0002704180Y0001559297D01*
X0002702680Y0001562298D01*
X0002702680Y0001589295D01*
X0002723678Y0001557799D02*
X0002720677Y0001559297D01*
X0002719178Y0001562298D01*
X0002719178Y0001589295D01*
D127*
X0001220472Y0002301181D02*
X0001220472Y0002144881D01*
D128*
X0001256299Y0002223228D02*
G75*
G03G03G03G03X0001256299Y0002223228I-0000150787D01X0001256299Y0002223228I-0000150787D01G03G03X0001256299Y0002223228I-0000150787D01G03G03X0001256299Y0002223228I-0000150787D01X0001256299Y0002223228I-0000150787D01X0001256299Y0002223228I-0000150787D01X0001256299Y0002223228I-0000150787D01G03G03G03G03X0001256299Y0002223228I-0000150787D01X0001256299Y0002223228I-0000150787D01X0001256299Y0002223228I-0000150787D01G03G03X0001256299Y0002223228I-0000150787D01G03G03X0001256299Y0002223228I-0000150787D01X0001256299Y0002223228I-0000150787D01X0001256299Y0002223228I-0000150787D01X0001256299Y0002223228I-0000150787D01X0001256299Y0002223228I-0000150787D01*
G01G01G01G01G01G01G01G01G01G01G01G01G01G01G01G01*
D129*
X0001210236Y0002223228D02*
G75*
G03G03G03G03X0001210236Y0002223228I-0000104724D01X0001210236Y0002223228I-0000104724D01G03G03X0001210236Y0002223228I-0000104724D01G03G03X0001210236Y0002223228I-0000104724D01X0001210236Y0002223228I-0000104724D01X0001210236Y0002223228I-0000104724D01X0001210236Y0002223228I-0000104724D01G03G03G03G03X0001210236Y0002223228I-0000104724D01X0001210236Y0002223228I-0000104724D01X0001210236Y0002223228I-0000104724D01G03G03X0001210236Y0002223228I-0000104724D01G03G03X0001210236Y0002223228I-0000104724D01X0001210236Y0002223228I-0000104724D01X0001210236Y0002223228I-0000104724D01X0001210236Y0002223228I-0000104724D01X0001210236Y0002223228I-0000104724D01*
G01G01G01G01G01G01G01G01G01G01G01G01G01G01G01G01*
D127*
X0000708660Y0002301181D02*
X0000708660Y0002144881D01*
D128*
X0000744488Y0002223228D02*
G75*
G03G03G03G03X0000744488Y0002223228I-0000150787D01X0000744488Y0002223228I-0000150787D01G03G03X0000744488Y0002223228I-0000150787D01G03G03X0000744488Y0002223228I-0000150787D01X0000744488Y0002223228I-0000150787D01X0000744488Y0002223228I-0000150787D01X0000744488Y0002223228I-0000150787D01G03G03G03G03X0000744488Y0002223228I-0000150787D01X0000744488Y0002223228I-0000150787D01X0000744488Y0002223228I-0000150787D01G03G03X0000744488Y0002223228I-0000150787D01G03G03X0000744488Y0002223228I-0000150787D01X0000744488Y0002223228I-0000150787D01X0000744488Y0002223228I-0000150787D01X0000744488Y0002223228I-0000150787D01X0000744488Y0002223228I-0000150787D01*
G01G01G01G01G01G01G01G01G01G01G01G01G01G01G01G01*
D129*
X0000698425Y0002223228D02*
G75*
G03G03G03G03X0000698425Y0002223228I-0000104724D01X0000698425Y0002223228I-0000104724D01G03G03X0000698425Y0002223228I-0000104724D01G03G03X0000698425Y0002223228I-0000104724D01X0000698425Y0002223228I-0000104724D01X0000698425Y0002223228I-0000104724D01X0000698425Y0002223228I-0000104724D01G03G03G03G03X0000698425Y0002223228I-0000104724D01X0000698425Y0002223228I-0000104724D01X0000698425Y0002223228I-0000104724D01G03G03X0000698425Y0002223228I-0000104724D01G03G03X0000698425Y0002223228I-0000104724D01X0000698425Y0002223228I-0000104724D01X0000698425Y0002223228I-0000104724D01X0000698425Y0002223228I-0000104724D01X0000698425Y0002223228I-0000104724D01*
G01G01G01G01G01G01G01G01G01G01G01G01G01G01G01G01*
D127*
X0002519685Y0002301181D02*
X0002519685Y0002144881D01*
D128*
X0002555511Y0002223228D02*
G75*
G03G03G03G03X0002555511Y0002223228I-0000150787D01X0002555511Y0002223228I-0000150787D01G03G03X0002555511Y0002223228I-0000150787D01G03G03X0002555511Y0002223228I-0000150787D01X0002555511Y0002223228I-0000150787D01X0002555511Y0002223228I-0000150787D01X0002555511Y0002223228I-0000150787D01G03G03G03G03X0002555511Y0002223228I-0000150787D01X0002555511Y0002223228I-0000150787D01X0002555511Y0002223228I-0000150787D01G03G03X0002555511Y0002223228I-0000150787D01G03G03X0002555511Y0002223228I-0000150787D01X0002555511Y0002223228I-0000150787D01X0002555511Y0002223228I-0000150787D01X0002555511Y0002223228I-0000150787D01X0002555511Y0002223228I-0000150787D01*
G01G01G01G01G01G01G01G01G01G01G01G01G01G01G01G01*
D129*
X0002509448Y0002223228D02*
G75*
G03G03G03G03X0002509448Y0002223228I-0000104724D01X0002509448Y0002223228I-0000104724D01G03G03X0002509448Y0002223228I-0000104724D01G03G03X0002509448Y0002223228I-0000104724D01X0002509448Y0002223228I-0000104724D01X0002509448Y0002223228I-0000104724D01X0002509448Y0002223228I-0000104724D01G03G03G03G03X0002509448Y0002223228I-0000104724D01X0002509448Y0002223228I-0000104724D01X0002509448Y0002223228I-0000104724D01G03G03X0002509448Y0002223228I-0000104724D01G03G03X0002509448Y0002223228I-0000104724D01X0002509448Y0002223228I-0000104724D01X0002509448Y0002223228I-0000104724D01X0002509448Y0002223228I-0000104724D01X0002509448Y0002223228I-0000104724D01*
G01G01G01G01G01G01G01G01G01G01G01G01G01G01G01G01*
D127*
X0002007874Y0002301181D02*
X0002007874Y0002144881D01*
D128*
X0002043699Y0002223228D02*
G75*
G03G03G03G03X0002043699Y0002223228I-0000150787D01X0002043699Y0002223228I-0000150787D01G03G03X0002043699Y0002223228I-0000150787D01G03G03X0002043699Y0002223228I-0000150787D01X0002043699Y0002223228I-0000150787D01X0002043699Y0002223228I-0000150787D01X0002043699Y0002223228I-0000150787D01G03G03G03G03X0002043699Y0002223228I-0000150787D01X0002043699Y0002223228I-0000150787D01X0002043699Y0002223228I-0000150787D01G03G03X0002043699Y0002223228I-0000150787D01G03G03X0002043699Y0002223228I-0000150787D01X0002043699Y0002223228I-0000150787D01X0002043699Y0002223228I-0000150787D01X0002043699Y0002223228I-0000150787D01X0002043699Y0002223228I-0000150787D01*
G01G01G01G01G01G01G01G01G01G01G01G01G01G01G01G01*
D129*
X0001997637Y0002223228D02*
G75*
G03G03G03G03X0001997637Y0002223228I-0000104724D01X0001997637Y0002223228I-0000104724D01G03G03X0001997637Y0002223228I-0000104724D01G03G03X0001997637Y0002223228I-0000104724D01X0001997637Y0002223228I-0000104724D01X0001997637Y0002223228I-0000104724D01X0001997637Y0002223228I-0000104724D01G03G03G03G03X0001997637Y0002223228I-0000104724D01X0001997637Y0002223228I-0000104724D01X0001997637Y0002223228I-0000104724D01G03G03X0001997637Y0002223228I-0000104724D01G03G03X0001997637Y0002223228I-0000104724D01X0001997637Y0002223228I-0000104724D01X0001997637Y0002223228I-0000104724D01X0001997637Y0002223228I-0000104724D01X0001997637Y0002223228I-0000104724D01*
G01G01G01G01G01G01G01G01G01G01G01G01G01G01G01G01*
D130*
G36*
X0002788375Y0002834767D02*
X0002778306Y0002760116D01*
X0000188532Y0002759332D01*
X0000189578Y0002836728D01*
X0002788375Y0002834767D01*
X0002788375Y0002834767D01*
G37*
X0002788375Y0002834767D02*
X0002778306Y0002760116D01*
X0000188532Y0002759332D01*
X0000189578Y0002836728D01*
X0002788375Y0002834767D01*
G36*
X0002760725Y0001455787D02*
X0000233323Y0001456573D01*
X0000232975Y0001532009D01*
X0002760376Y0001532793D01*
X0002760725Y0001455787D01*
X0002760725Y0001455787D01*
G37*
X0002760725Y0001455787D02*
X0000233323Y0001456573D01*
X0000232975Y0001532009D01*
X0002760376Y0001532793D01*
X0002760725Y0001455787D01*
G36*
X0002993820Y0002452062D02*
X0002984507Y0002439645D01*
X0002957086Y0002439645D01*
X0002955173Y0002439265D01*
X0002953551Y0002438181D01*
X0002952467Y0002436559D01*
X0002952086Y0002434655D01*
X0002950905Y0001859852D01*
X0002951282Y0001857938D01*
X0002952362Y0001856314D01*
X0002953982Y0001855227D01*
X0002955905Y0001854842D01*
X0002984936Y0001854842D01*
X0002993818Y0001845960D01*
X0002993818Y0001455393D01*
X0002757339Y0001455393D01*
X0002756968Y0001537021D01*
X0002756968Y0001621955D01*
X0002759935Y0001625910D01*
X0002762108Y0001626913D01*
X0002766277Y0001625524D01*
X0002789628Y0001603632D01*
X0002792804Y0001591633D01*
X0002794214Y0001589269D01*
X0002807206Y0001577063D01*
X0002808732Y0001576082D01*
X0002824086Y0001569783D01*
X0002825984Y0001569409D01*
X0002840944Y0001569409D01*
X0002843439Y0001570076D01*
X0002856431Y0001577556D01*
X0002857249Y0001578144D01*
X0002867486Y0001587199D01*
X0002868791Y0001589029D01*
X0002875484Y0001605170D01*
X0002875863Y0001607233D01*
X0002875470Y0001620619D01*
X0002875124Y0001622305D01*
X0002870006Y0001635297D01*
X0002869017Y0001636864D01*
X0002858782Y0001647890D01*
X0002857116Y0001649071D01*
X0002842610Y0001655394D01*
X0002820257Y0001677381D01*
X0002818685Y0001683670D01*
X0002820678Y0001687658D01*
X0002826456Y0001690684D01*
X0002888251Y0001691457D01*
X0002890160Y0001691861D01*
X0002891768Y0001692965D01*
X0002892831Y0001694601D01*
X0002893188Y0001696456D01*
X0002893188Y0001771259D01*
X0002892808Y0001773173D01*
X0002891723Y0001774795D01*
X0002890102Y0001775879D01*
X0002888249Y0001776259D01*
X0002796341Y0001777380D01*
X0002796729Y0002514766D01*
X0002887090Y0002516260D01*
X0002888997Y0002516672D01*
X0002890601Y0002517783D01*
X0002891658Y0002519423D01*
X0002892006Y0002521233D01*
X0002892401Y0002596824D01*
X0002892030Y0002598738D01*
X0002890955Y0002600366D01*
X0002889339Y0002601459D01*
X0002887430Y0002601850D01*
X0002822448Y0002602232D01*
X0002818922Y0002605506D01*
X0002817129Y0002608644D01*
X0002817932Y0002612058D01*
X0002840191Y0002634682D01*
X0002851755Y0002639019D01*
X0002853441Y0002640073D01*
X0002868795Y0002654640D01*
X0002870107Y0002656717D01*
X0002876013Y0002674827D01*
X0002876094Y0002677654D01*
X0002870582Y0002698521D01*
X0002869330Y0002700732D01*
X0002854763Y0002715692D01*
X0002853155Y0002716798D01*
X0002852045Y0002717129D01*
X0002829604Y0002721066D01*
X0002827527Y0002720992D01*
X0002813354Y0002717449D01*
X0002811366Y0002716439D01*
X0002797192Y0002704628D01*
X0002795788Y0002702735D01*
X0002787581Y0002683335D01*
X0002765868Y0002664567D01*
X0002763927Y0002663789D01*
X0002760869Y0002664198D01*
X0002758631Y0002666233D01*
X0002756570Y0002672121D01*
X0002756181Y0002753846D01*
X0002759520Y0002835088D01*
X0002810165Y0002834369D01*
X0002810267Y0002834369D01*
X0002994207Y0002835519D01*
X0002993820Y0002452062D01*
X0002993820Y0002452062D01*
G37*
X0002993820Y0002452062D02*
X0002984507Y0002439645D01*
X0002957086Y0002439645D01*
X0002955173Y0002439265D01*
X0002953551Y0002438181D01*
X0002952467Y0002436559D01*
X0002952086Y0002434655D01*
X0002950905Y0001859852D01*
X0002951282Y0001857938D01*
X0002952362Y0001856314D01*
X0002953982Y0001855227D01*
X0002955905Y0001854842D01*
X0002984936Y0001854842D01*
X0002993818Y0001845960D01*
X0002993818Y0001455393D01*
X0002757339Y0001455393D01*
X0002756968Y0001537021D01*
X0002756968Y0001621955D01*
X0002759935Y0001625910D01*
X0002762108Y0001626913D01*
X0002766277Y0001625524D01*
X0002789628Y0001603632D01*
X0002792804Y0001591633D01*
X0002794214Y0001589269D01*
X0002807206Y0001577063D01*
X0002808732Y0001576082D01*
X0002824086Y0001569783D01*
X0002825984Y0001569409D01*
X0002840944Y0001569409D01*
X0002843439Y0001570076D01*
X0002856431Y0001577556D01*
X0002857249Y0001578144D01*
X0002867486Y0001587199D01*
X0002868791Y0001589029D01*
X0002875484Y0001605170D01*
X0002875863Y0001607233D01*
X0002875470Y0001620619D01*
X0002875124Y0001622305D01*
X0002870006Y0001635297D01*
X0002869017Y0001636864D01*
X0002858782Y0001647890D01*
X0002857116Y0001649071D01*
X0002842610Y0001655394D01*
X0002820257Y0001677381D01*
X0002818685Y0001683670D01*
X0002820678Y0001687658D01*
X0002826456Y0001690684D01*
X0002888251Y0001691457D01*
X0002890160Y0001691861D01*
X0002891768Y0001692965D01*
X0002892831Y0001694601D01*
X0002893188Y0001696456D01*
X0002893188Y0001771259D01*
X0002892808Y0001773173D01*
X0002891723Y0001774795D01*
X0002890102Y0001775879D01*
X0002888249Y0001776259D01*
X0002796341Y0001777380D01*
X0002796729Y0002514766D01*
X0002887090Y0002516260D01*
X0002888997Y0002516672D01*
X0002890601Y0002517783D01*
X0002891658Y0002519423D01*
X0002892006Y0002521233D01*
X0002892401Y0002596824D01*
X0002892030Y0002598738D01*
X0002890955Y0002600366D01*
X0002889339Y0002601459D01*
X0002887430Y0002601850D01*
X0002822448Y0002602232D01*
X0002818922Y0002605506D01*
X0002817129Y0002608644D01*
X0002817932Y0002612058D01*
X0002840191Y0002634682D01*
X0002851755Y0002639019D01*
X0002853441Y0002640073D01*
X0002868795Y0002654640D01*
X0002870107Y0002656717D01*
X0002876013Y0002674827D01*
X0002876094Y0002677654D01*
X0002870582Y0002698521D01*
X0002869330Y0002700732D01*
X0002854763Y0002715692D01*
X0002853155Y0002716798D01*
X0002852045Y0002717129D01*
X0002829604Y0002721066D01*
X0002827527Y0002720992D01*
X0002813354Y0002717449D01*
X0002811366Y0002716439D01*
X0002797192Y0002704628D01*
X0002795788Y0002702735D01*
X0002787581Y0002683335D01*
X0002765868Y0002664567D01*
X0002763927Y0002663789D01*
X0002760869Y0002664198D01*
X0002758631Y0002666233D01*
X0002756570Y0002672121D01*
X0002756181Y0002753846D01*
X0002759520Y0002835088D01*
X0002810165Y0002834369D01*
X0002810267Y0002834369D01*
X0002994207Y0002835519D01*
X0002993820Y0002452062D01*
G36*
X0000230826Y0002756284D02*
X0000230826Y0002671351D01*
X0000227860Y0002667396D01*
X0000225686Y0002666393D01*
X0000221518Y0002667782D01*
X0000198167Y0002689674D01*
X0000194990Y0002701673D01*
X0000193580Y0002704037D01*
X0000180588Y0002716241D01*
X0000179063Y0002717224D01*
X0000163708Y0002723523D01*
X0000161811Y0002723897D01*
X0000146850Y0002723897D01*
X0000144355Y0002723230D01*
X0000131363Y0002715750D01*
X0000130545Y0002715162D01*
X0000120309Y0002706107D01*
X0000119003Y0002704276D01*
X0000112309Y0002688135D01*
X0000111931Y0002686073D01*
X0000112325Y0002672687D01*
X0000112670Y0002671002D01*
X0000117788Y0002658009D01*
X0000118776Y0002656440D01*
X0000129010Y0002645416D01*
X0000130676Y0002644235D01*
X0000145185Y0002637912D01*
X0000167537Y0002615925D01*
X0000169110Y0002609636D01*
X0000167115Y0002605648D01*
X0000161338Y0002602622D01*
X0000099543Y0002601850D01*
X0000097635Y0002601445D01*
X0000096026Y0002600341D01*
X0000094963Y0002598705D01*
X0000094606Y0002596850D01*
X0000094606Y0002522047D01*
X0000094986Y0002520133D01*
X0000096070Y0002518511D01*
X0000097692Y0002517427D01*
X0000099545Y0002517047D01*
X0000191454Y0002515926D01*
X0000191065Y0001778540D01*
X0000100704Y0001777046D01*
X0000098797Y0001776634D01*
X0000097193Y0001775523D01*
X0000096137Y0001773884D01*
X0000095787Y0001772073D01*
X0000095393Y0001696482D01*
X0000095764Y0001694567D01*
X0000096839Y0001692939D01*
X0000098456Y0001691847D01*
X0000100364Y0001691456D01*
X0000165345Y0001691074D01*
X0000168872Y0001687800D01*
X0000170666Y0001684661D01*
X0000169863Y0001681248D01*
X0000147604Y0001658624D01*
X0000136039Y0001654287D01*
X0000134353Y0001653232D01*
X0000118999Y0001638666D01*
X0000117686Y0001636588D01*
X0000111781Y0001618478D01*
X0000111701Y0001615652D01*
X0000117212Y0001594786D01*
X0000118464Y0001592574D01*
X0000133031Y0001577614D01*
X0000134639Y0001576508D01*
X0000135750Y0001576177D01*
X0000158191Y0001572240D01*
X0000160267Y0001572314D01*
X0000174441Y0001575857D01*
X0000176428Y0001576867D01*
X0000190602Y0001588678D01*
X0000192006Y0001590571D01*
X0000200213Y0001609971D01*
X0000221926Y0001628739D01*
X0000223867Y0001629516D01*
X0000226925Y0001629108D01*
X0000229163Y0001627073D01*
X0000231224Y0001621185D01*
X0000231613Y0001539460D01*
X0000228271Y0001458125D01*
X0000155501Y0001457755D01*
X-0000006412Y0001457755D01*
X-0000006025Y0001841244D01*
X0000003286Y0001853661D01*
X0000030708Y0001853661D01*
X0000032622Y0001854041D01*
X0000034244Y0001855125D01*
X0000035328Y0001856747D01*
X0000035708Y0001858651D01*
X0000036889Y0002433454D01*
X0000036513Y0002435368D01*
X0000035432Y0002436992D01*
X0000033812Y0002438080D01*
X0000031889Y0002438464D01*
X0000002858Y0002438464D01*
X-0000006023Y0002447346D01*
X-0000006023Y0002837913D01*
X0000230455Y0002837913D01*
X0000230826Y0002756284D01*
X0000230826Y0002756284D01*
G37*
X0000230826Y0002756284D02*
X0000230826Y0002671351D01*
X0000227860Y0002667396D01*
X0000225686Y0002666393D01*
X0000221518Y0002667782D01*
X0000198167Y0002689674D01*
X0000194990Y0002701673D01*
X0000193580Y0002704037D01*
X0000180588Y0002716241D01*
X0000179063Y0002717224D01*
X0000163708Y0002723523D01*
X0000161811Y0002723897D01*
X0000146850Y0002723897D01*
X0000144355Y0002723230D01*
X0000131363Y0002715750D01*
X0000130545Y0002715162D01*
X0000120309Y0002706107D01*
X0000119003Y0002704276D01*
X0000112309Y0002688135D01*
X0000111931Y0002686073D01*
X0000112325Y0002672687D01*
X0000112670Y0002671002D01*
X0000117788Y0002658009D01*
X0000118776Y0002656440D01*
X0000129010Y0002645416D01*
X0000130676Y0002644235D01*
X0000145185Y0002637912D01*
X0000167537Y0002615925D01*
X0000169110Y0002609636D01*
X0000167115Y0002605648D01*
X0000161338Y0002602622D01*
X0000099543Y0002601850D01*
X0000097635Y0002601445D01*
X0000096026Y0002600341D01*
X0000094963Y0002598705D01*
X0000094606Y0002596850D01*
X0000094606Y0002522047D01*
X0000094986Y0002520133D01*
X0000096070Y0002518511D01*
X0000097692Y0002517427D01*
X0000099545Y0002517047D01*
X0000191454Y0002515926D01*
X0000191065Y0001778540D01*
X0000100704Y0001777046D01*
X0000098797Y0001776634D01*
X0000097193Y0001775523D01*
X0000096137Y0001773884D01*
X0000095787Y0001772073D01*
X0000095393Y0001696482D01*
X0000095764Y0001694567D01*
X0000096839Y0001692939D01*
X0000098456Y0001691847D01*
X0000100364Y0001691456D01*
X0000165345Y0001691074D01*
X0000168872Y0001687800D01*
X0000170666Y0001684661D01*
X0000169863Y0001681248D01*
X0000147604Y0001658624D01*
X0000136039Y0001654287D01*
X0000134353Y0001653232D01*
X0000118999Y0001638666D01*
X0000117686Y0001636588D01*
X0000111781Y0001618478D01*
X0000111701Y0001615652D01*
X0000117212Y0001594786D01*
X0000118464Y0001592574D01*
X0000133031Y0001577614D01*
X0000134639Y0001576508D01*
X0000135750Y0001576177D01*
X0000158191Y0001572240D01*
X0000160267Y0001572314D01*
X0000174441Y0001575857D01*
X0000176428Y0001576867D01*
X0000190602Y0001588678D01*
X0000192006Y0001590571D01*
X0000200213Y0001609971D01*
X0000221926Y0001628739D01*
X0000223867Y0001629516D01*
X0000226925Y0001629108D01*
X0000229163Y0001627073D01*
X0000231224Y0001621185D01*
X0000231613Y0001539460D01*
X0000228271Y0001458125D01*
X0000155501Y0001457755D01*
X-0000006412Y0001457755D01*
X-0000006025Y0001841244D01*
X0000003286Y0001853661D01*
X0000030708Y0001853661D01*
X0000032622Y0001854041D01*
X0000034244Y0001855125D01*
X0000035328Y0001856747D01*
X0000035708Y0001858651D01*
X0000036889Y0002433454D01*
X0000036513Y0002435368D01*
X0000035432Y0002436992D01*
X0000033812Y0002438080D01*
X0000031889Y0002438464D01*
X0000002858Y0002438464D01*
X-0000006023Y0002447346D01*
X-0000006023Y0002837913D01*
X0000230455Y0002837913D01*
X0000230826Y0002756284D01*
M02*