%MOIN*%
%OFA0B0*%
%FSLAX46Y46*%
%IPPOS*%
%LPD*%
%ADD10C,0.005905511811023622*%
%ADD11C,0.0039370078740157488*%
%ADD12C,0.027559055118110236*%
%ADD13C,0.053149606299212608*%
%ADD14C,0.11811023622047245*%
%ADD15C,0.03937007874015748*%
%ADD16C,0.01*%
%ADD27C,0.005905511811023622*%
%ADD38C,0.005905511811023622*%
%ADD49C,0.005905511811023622*%
%ADD50C,0.20472440944881892*%
%ADD51C,0.01*%
%ADD62C,0.005905511811023622*%
%ADD63C,0.20472440944881892*%
%ADD64C,0.01*%
%ADD75C,0.005905511811023622*%
%ADD76C,0.20472440944881892*%
%ADD77C,0.01*%
%ADD88C,0.005905511811023622*%
%ADD89C,0.20472440944881892*%
%ADD90C,0.01*%
%ADD101C,0.005905511811023622*%
%ADD102C,0.0039370078740157488*%
%ADD103C,0.027559055118110236*%
%ADD104C,0.053149606299212608*%
%ADD105C,0.11811023622047245*%
%ADD106C,0.01*%
%ADD117C,0.005905511811023622*%
%ADD118C,0.0039370078740157488*%
%ADD119C,0.027559055118110236*%
%ADD120C,0.053149606299212608*%
%ADD121C,0.11811023622047245*%
%ADD122C,0.01*%
%LPD*%
G01G01G01G01G01G01G01G01*
D10*
D11*
X0002772909Y0003238170D02*
X0002771409Y0003235170D01*
X0002768410Y0003233670D01*
X0002741413Y0003233670D01*
X0002751912Y0003263666D02*
X0002772909Y0003263666D01*
X0002751912Y0003250168D02*
X0002768410Y0003250168D01*
X0002771409Y0003251668D01*
X0002772909Y0003254668D01*
X0002772909Y0003259167D01*
X0002771409Y0003262167D01*
X0002769910Y0003263666D01*
X0002751912Y0003274164D02*
X0002751912Y0003286164D01*
X0002772909Y0003278665D02*
X0002745912Y0003278665D01*
X0002742913Y0003280165D01*
X0002741413Y0003283164D01*
X0002741413Y0003286164D01*
X0002751912Y0003292163D02*
X0002751912Y0003304162D01*
X0002741413Y0003296662D02*
X0002768410Y0003296662D01*
X0002771409Y0003298162D01*
X0002772909Y0003301162D01*
X0002772909Y0003304162D01*
X0002771409Y0003326659D02*
X0002772909Y0003323659D01*
X0002772909Y0003317660D01*
X0002771409Y0003314660D01*
X0002768410Y0003313160D01*
X0002756411Y0003313160D01*
X0002753411Y0003314660D01*
X0002751912Y0003317660D01*
X0002751912Y0003323659D01*
X0002753411Y0003326659D01*
X0002756411Y0003328158D01*
X0002759411Y0003328158D01*
X0002762410Y0003313160D01*
X0002772909Y0003341657D02*
X0002741413Y0003341657D01*
X0002760911Y0003344655D02*
X0002772909Y0003353655D01*
X0002751912Y0003353655D02*
X0002763909Y0003341657D01*
D10*
X0002742838Y0003380310D02*
X0002741338Y0003381810D01*
X0002739838Y0003384809D01*
X0002739838Y0003392308D01*
X0002741338Y0003395308D01*
X0002742838Y0003396808D01*
X0002745837Y0003398308D01*
X0002748837Y0003398308D01*
X0002753337Y0003396808D01*
X0002771334Y0003378809D01*
X0002771334Y0003398308D01*
X0002739838Y0003417805D02*
X0002739838Y0003420805D01*
X0002741338Y0003423804D01*
X0002742838Y0003425304D01*
X0002745837Y0003426804D01*
X0002751837Y0003428304D01*
X0002759336Y0003428304D01*
X0002765335Y0003426804D01*
X0002768335Y0003425304D01*
X0002769835Y0003423804D01*
X0002771334Y0003420805D01*
X0002771334Y0003417805D01*
X0002769835Y0003414804D01*
X0002768335Y0003413306D01*
X0002765335Y0003411806D01*
X0002759336Y0003410306D01*
X0002751837Y0003410306D01*
X0002745837Y0003411806D01*
X0002742838Y0003413306D01*
X0002741338Y0003414804D01*
X0002739838Y0003417805D01*
X0002771334Y0003458300D02*
X0002771334Y0003440302D01*
X0002771334Y0003449301D02*
X0002739838Y0003449301D01*
X0002744338Y0003446302D01*
X0002747337Y0003443301D01*
X0002748837Y0003440302D01*
X0002739838Y0003485297D02*
X0002739838Y0003479296D01*
X0002741338Y0003476298D01*
X0002742838Y0003474798D01*
X0002747337Y0003471798D01*
X0002753337Y0003470299D01*
X0002765335Y0003470299D01*
X0002768335Y0003471798D01*
X0002769835Y0003473298D01*
X0002771334Y0003476298D01*
X0002771334Y0003482297D01*
X0002769835Y0003485297D01*
X0002768335Y0003486796D01*
X0002765335Y0003488296D01*
X0002757836Y0003488296D01*
X0002754836Y0003486796D01*
X0002753337Y0003485297D01*
X0002751837Y0003482297D01*
X0002751837Y0003476298D01*
X0002753337Y0003473298D01*
X0002754836Y0003471798D01*
X0002757836Y0003470299D01*
X0002739838Y0003507794D02*
X0002739838Y0003510793D01*
X0002741338Y0003513793D01*
X0002742838Y0003515293D01*
X0002745837Y0003516793D01*
X0002751837Y0003518293D01*
X0002759336Y0003518293D01*
X0002765335Y0003516793D01*
X0002768335Y0003515293D01*
X0002769835Y0003513793D01*
X0002771334Y0003510793D01*
X0002771334Y0003507794D01*
X0002769835Y0003504794D01*
X0002768335Y0003503294D01*
X0002765335Y0003501794D01*
X0002759336Y0003500295D01*
X0002751837Y0003500295D01*
X0002745837Y0003501794D01*
X0002742838Y0003503294D01*
X0002741338Y0003504794D01*
X0002739838Y0003507794D01*
X0002771334Y0003533291D02*
X0002771334Y0003539290D01*
X0002769835Y0003542290D01*
X0002768335Y0003543789D01*
X0002763835Y0003546789D01*
X0002757836Y0003548289D01*
X0002745837Y0003548289D01*
X0002742838Y0003546789D01*
X0002741338Y0003545289D01*
X0002739838Y0003542290D01*
X0002739838Y0003536290D01*
X0002741338Y0003533291D01*
X0002742838Y0003531791D01*
X0002745837Y0003530291D01*
X0002753337Y0003530291D01*
X0002756336Y0003531791D01*
X0002757836Y0003533291D01*
X0002759336Y0003536290D01*
X0002759336Y0003542290D01*
X0002757836Y0003545289D01*
X0002756336Y0003546789D01*
X0002753337Y0003548289D01*
X0002742838Y0003560287D02*
X0002741338Y0003561787D01*
X0002739838Y0003564787D01*
X0002739838Y0003572286D01*
X0002741338Y0003575285D01*
X0002742838Y0003576784D01*
X0002745837Y0003578285D01*
X0002748837Y0003578285D01*
X0002753337Y0003576784D01*
X0002771334Y0003558787D01*
X0002771334Y0003578285D01*
X0002750337Y0003605282D02*
X0002771334Y0003605282D01*
X0002738338Y0003597783D02*
X0002760836Y0003590284D01*
X0002760836Y0003609781D01*
D11*
X0002206242Y0003045988D02*
X0002227240Y0003045988D01*
X0002213742Y0003014491D01*
X0002252737Y0003045988D02*
X0002246737Y0003045988D01*
X0002243738Y0003044488D01*
X0002242238Y0003042987D01*
X0002239238Y0003038488D01*
X0002237739Y0003032489D01*
X0002237739Y0003020491D01*
X0002239238Y0003017491D01*
X0002240738Y0003015991D01*
X0002243738Y0003014491D01*
X0002249737Y0003014491D01*
X0002252737Y0003015991D01*
X0002254236Y0003017491D01*
X0002255736Y0003020491D01*
X0002255736Y0003027990D01*
X0002254236Y0003030989D01*
X0002252737Y0003032489D01*
X0002249737Y0003033989D01*
X0002243738Y0003033989D01*
X0002240738Y0003032489D01*
X0002239238Y0003030989D01*
X0002237739Y0003027990D01*
X0002266235Y0003014491D02*
X0002282733Y0003035489D01*
X0002266235Y0003035489D02*
X0002282733Y0003014491D01*
X0002291732Y0003045988D02*
X0002311229Y0003045988D01*
X0002300731Y0003033989D01*
X0002305230Y0003033989D01*
X0002308230Y0003032489D01*
X0002309730Y0003030989D01*
X0002311229Y0003027990D01*
X0002311229Y0003020491D01*
X0002309730Y0003017491D01*
X0002308230Y0003015991D01*
X0002305230Y0003014491D01*
X0002296231Y0003014491D01*
X0002293232Y0003015991D01*
X0002291732Y0003017491D01*
X0002339726Y0003045988D02*
X0002324728Y0003045988D01*
X0002323228Y0003030989D01*
X0002324728Y0003032489D01*
X0002327727Y0003033989D01*
X0002335226Y0003033989D01*
X0002338226Y0003032489D01*
X0002339726Y0003030989D01*
X0002341226Y0003027990D01*
X0002341226Y0003020491D01*
X0002339726Y0003017491D01*
X0002338226Y0003015991D01*
X0002335226Y0003014491D01*
X0002327727Y0003014491D01*
X0002324728Y0003015991D01*
X0002323228Y0003017491D01*
X0002351724Y0003014491D02*
X0002368222Y0003035489D01*
X0002351724Y0003035489D02*
X0002368222Y0003014491D01*
X0002396719Y0003014491D02*
X0002378721Y0003014491D01*
X0002387720Y0003014491D02*
X0002387720Y0003045988D01*
X0002384720Y0003041488D01*
X0002381721Y0003038488D01*
X0002378721Y0003036989D01*
X0002416216Y0003045988D02*
X0002419216Y0003045988D01*
X0002422215Y0003044488D01*
X0002423715Y0003042987D01*
X0002425215Y0003039988D01*
X0002426715Y0003033989D01*
X0002426715Y0003026490D01*
X0002425215Y0003020491D01*
X0002423715Y0003017491D01*
X0002422215Y0003015991D01*
X0002419216Y0003014491D01*
X0002416216Y0003014491D01*
X0002413217Y0003015991D01*
X0002411717Y0003017491D01*
X0002410217Y0003020491D01*
X0002408717Y0003026490D01*
X0002408717Y0003033989D01*
X0002410217Y0003039988D01*
X0002411717Y0003042987D01*
X0002413217Y0003044488D01*
X0002416216Y0003045988D01*
X0002446212Y0003045988D02*
X0002449212Y0003045988D01*
X0002452212Y0003044488D01*
X0002453712Y0003042987D01*
X0002455211Y0003039988D01*
X0002456711Y0003033989D01*
X0002456711Y0003026490D01*
X0002455211Y0003020491D01*
X0002453712Y0003017491D01*
X0002452212Y0003015991D01*
X0002449212Y0003014491D01*
X0002446212Y0003014491D01*
X0002443213Y0003015991D01*
X0002441713Y0003017491D01*
X0002440213Y0003020491D01*
X0002438713Y0003026490D01*
X0002438713Y0003033989D01*
X0002440213Y0003039988D01*
X0002441713Y0003042987D01*
X0002443213Y0003044488D01*
X0002446212Y0003045988D01*
X0002492707Y0003015991D02*
X0002495706Y0003014491D01*
X0002501706Y0003014491D01*
X0002504705Y0003015991D01*
X0002506205Y0003018990D01*
X0002506205Y0003020491D01*
X0002504705Y0003023490D01*
X0002501706Y0003024990D01*
X0002497206Y0003024990D01*
X0002494206Y0003026490D01*
X0002492707Y0003029490D01*
X0002492707Y0003030989D01*
X0002494206Y0003033989D01*
X0002497206Y0003035489D01*
X0002501706Y0003035489D01*
X0002504705Y0003033989D01*
X0002519703Y0003035489D02*
X0002519703Y0003003993D01*
X0002519703Y0003033989D02*
X0002522702Y0003035489D01*
X0002528701Y0003035489D01*
X0002531702Y0003033989D01*
X0002533202Y0003032489D01*
X0002534701Y0003029490D01*
X0002534701Y0003020491D01*
X0002533202Y0003017491D01*
X0002531702Y0003015991D01*
X0002528701Y0003014491D01*
X0002522702Y0003014491D01*
X0002519703Y0003015991D01*
X0002552699Y0003014491D02*
X0002549699Y0003015991D01*
X0002548200Y0003018990D01*
X0002548200Y0003045988D01*
X0002564698Y0003014491D02*
X0002564698Y0003035489D01*
X0002564698Y0003045988D02*
X0002563198Y0003044488D01*
X0002564698Y0003042987D01*
X0002566197Y0003044488D01*
X0002564698Y0003045988D01*
X0002564698Y0003042987D01*
X0002575196Y0003035489D02*
X0002587194Y0003035489D01*
X0002579696Y0003045988D02*
X0002579696Y0003018990D01*
X0002581195Y0003015991D01*
X0002584195Y0003014491D01*
X0002587194Y0003014491D01*
X0002620190Y0003015991D02*
X0002623190Y0003014491D01*
X0002629190Y0003014491D01*
X0002632189Y0003015991D01*
X0002633689Y0003018990D01*
X0002633689Y0003020491D01*
X0002632189Y0003023490D01*
X0002629190Y0003024990D01*
X0002624690Y0003024990D01*
X0002621691Y0003026490D01*
X0002620190Y0003029490D01*
X0002620190Y0003030989D01*
X0002621691Y0003033989D01*
X0002624690Y0003035489D01*
X0002629190Y0003035489D01*
X0002632189Y0003033989D01*
X0002647187Y0003014491D02*
X0002647187Y0003045988D01*
X0002660686Y0003014491D02*
X0002660686Y0003030989D01*
X0002659186Y0003033989D01*
X0002656185Y0003035489D01*
X0002651686Y0003035489D01*
X0002648687Y0003033989D01*
X0002647187Y0003032489D01*
X0002687682Y0003015991D02*
X0002684682Y0003014491D01*
X0002678683Y0003014491D01*
X0002675684Y0003015991D01*
X0002674184Y0003018990D01*
X0002674184Y0003030989D01*
X0002675684Y0003033989D01*
X0002678683Y0003035489D01*
X0002684682Y0003035489D01*
X0002687682Y0003033989D01*
X0002689182Y0003030989D01*
X0002689182Y0003027990D01*
X0002674184Y0003024990D01*
X0002707180Y0003014491D02*
X0002704180Y0003015991D01*
X0002702680Y0003018990D01*
X0002702680Y0003045988D01*
X0002723678Y0003014491D02*
X0002720677Y0003015991D01*
X0002719178Y0003018990D01*
X0002719178Y0003045988D01*
D12*
X0002648827Y0003882137D02*
X0002648827Y0003725837D01*
D13*
X0002684654Y0003804184D02*
G75*
G03G03G03G03X0002684654Y0003804184I-0000150787D01X0002684654Y0003804184I-0000150787D01X0002684654Y0003804184I-0000150787D01G03G03X0002684654Y0003804184I-0000150787D01G03G03X0002684654Y0003804184I-0000150787D01X0002684654Y0003804184I-0000150787D01X0002684654Y0003804184I-0000150787D01X0002684654Y0003804184I-0000150787D01*
G01G01G01G01G01G01G01G01*
D14*
X0002638591Y0003804184D02*
G75*
G03G03G03G03X0002638591Y0003804184I-0000104724D01X0002638591Y0003804184I-0000104724D01X0002638591Y0003804184I-0000104724D01G03G03X0002638591Y0003804184I-0000104724D01G03G03X0002638591Y0003804184I-0000104724D01X0002638591Y0003804184I-0000104724D01X0002638591Y0003804184I-0000104724D01X0002638591Y0003804184I-0000104724D01*
G01G01G01G01G01G01G01G01*
D15*
X0000718366Y0004110235D03*
X0000838267Y0004110235D03*
X0000478562Y0004110235D03*
X0001078070Y0004110235D03*
X0000598464Y0004110235D03*
X0000958169Y0004110235D03*
X0001917381Y0004110235D03*
X0001317873Y0004110235D03*
X0001437775Y0004110235D03*
X0001677578Y0004110235D03*
X0001797480Y0004110235D03*
X0001557677Y0004110235D03*
X0001197972Y0004110235D03*
X0002516889Y0004110235D03*
X0002157185Y0004110235D03*
X0002277086Y0004110235D03*
X0002396988Y0004110235D03*
X0002037283Y0004110235D03*
X0002576948Y0004151968D03*
X0002457047Y0004151968D03*
X0002337145Y0004151968D03*
X0002217244Y0004151968D03*
X0002097342Y0004151968D03*
X0001977440Y0004151968D03*
X0001857539Y0004151968D03*
X0001737637Y0004151968D03*
X0001617736Y0004151968D03*
X0001497834Y0004151968D03*
X0001377933Y0004151968D03*
X0001258031Y0004151968D03*
X0001138129Y0004151968D03*
X0001018227Y0004151968D03*
X0000898326Y0004151968D03*
X0000778425Y0004151968D03*
X0000658523Y0004151968D03*
X0000538622Y0004151968D03*
X0000418720Y0004151968D03*
D10*
G36*
X0001247313Y0003230685D02*
X0001247772Y0003230617D01*
X0001248221Y0003230505D01*
X0001248658Y0003230349D01*
X0001249077Y0003230150D01*
X0001249475Y0003229912D01*
X0001249847Y0003229636D01*
X0001250191Y0003229324D01*
X0001250502Y0003228981D01*
X0001250778Y0003228608D01*
X0001251016Y0003228211D01*
X0001251215Y0003227792D01*
X0001251371Y0003227355D01*
X0001251484Y0003226905D01*
X0001251552Y0003226447D01*
X0001251574Y0003225984D01*
X0001251574Y0003188187D01*
X0001251552Y0003187724D01*
X0001251484Y0003187267D01*
X0001251371Y0003186817D01*
X0001251215Y0003186381D01*
X0001251016Y0003185961D01*
X0001250778Y0003185564D01*
X0001250502Y0003185191D01*
X0001250191Y0003184848D01*
X0001249847Y0003184535D01*
X0001249475Y0003184259D01*
X0001249077Y0003184022D01*
X0001248658Y0003183824D01*
X0001248221Y0003183667D01*
X0001247772Y0003183555D01*
X0001247313Y0003183487D01*
X0001246850Y0003183464D01*
X0001209055Y0003183464D01*
X0001208592Y0003183487D01*
X0001208133Y0003183555D01*
X0001207683Y0003183667D01*
X0001207247Y0003183824D01*
X0001206828Y0003184022D01*
X0001206430Y0003184259D01*
X0001206057Y0003184535D01*
X0001205714Y0003184848D01*
X0001205403Y0003185191D01*
X0001205126Y0003185564D01*
X0001204888Y0003185961D01*
X0001204690Y0003186381D01*
X0001204534Y0003186817D01*
X0001204421Y0003187267D01*
X0001204353Y0003187724D01*
X0001204330Y0003188187D01*
X0001204330Y0003225984D01*
X0001204353Y0003226447D01*
X0001204421Y0003226905D01*
X0001204534Y0003227355D01*
X0001204690Y0003227792D01*
X0001204888Y0003228211D01*
X0001205126Y0003228608D01*
X0001205403Y0003228981D01*
X0001205714Y0003229324D01*
X0001206057Y0003229636D01*
X0001206430Y0003229912D01*
X0001206828Y0003230150D01*
X0001207247Y0003230349D01*
X0001207683Y0003230505D01*
X0001208133Y0003230617D01*
X0001208592Y0003230685D01*
X0001209055Y0003230708D01*
X0001246850Y0003230708D01*
X0001247313Y0003230685D01*
X0001247313Y0003230685D01*
G37*
G36*
X0001788258Y0003231867D02*
X0001788716Y0003231798D01*
X0001789166Y0003231686D01*
X0001789603Y0003231530D01*
X0001790021Y0003231330D01*
X0001790420Y0003231093D01*
X0001790792Y0003230817D01*
X0001791135Y0003230506D01*
X0001791447Y0003230162D01*
X0001791723Y0003229790D01*
X0001791961Y0003229392D01*
X0001792160Y0003228973D01*
X0001792314Y0003228536D01*
X0001792428Y0003228087D01*
X0001792496Y0003227628D01*
X0001792519Y0003227165D01*
X0001792519Y0003189370D01*
X0001792496Y0003188907D01*
X0001792428Y0003188448D01*
X0001792314Y0003187998D01*
X0001792160Y0003187562D01*
X0001791961Y0003187142D01*
X0001791723Y0003186745D01*
X0001791447Y0003186372D01*
X0001791135Y0003186029D01*
X0001790792Y0003185718D01*
X0001790420Y0003185441D01*
X0001790021Y0003185203D01*
X0001789603Y0003185005D01*
X0001789166Y0003184849D01*
X0001788716Y0003184736D01*
X0001788258Y0003184668D01*
X0001787795Y0003184645D01*
X0001750000Y0003184645D01*
X0001749536Y0003184668D01*
X0001749078Y0003184736D01*
X0001748628Y0003184849D01*
X0001748192Y0003185005D01*
X0001747772Y0003185203D01*
X0001747373Y0003185441D01*
X0001747002Y0003185718D01*
X0001746659Y0003186029D01*
X0001746346Y0003186372D01*
X0001746071Y0003186745D01*
X0001745833Y0003187142D01*
X0001745635Y0003187562D01*
X0001745479Y0003187998D01*
X0001745366Y0003188448D01*
X0001745298Y0003188907D01*
X0001745275Y0003189370D01*
X0001745275Y0003227165D01*
X0001745298Y0003227628D01*
X0001745366Y0003228087D01*
X0001745479Y0003228536D01*
X0001745635Y0003228973D01*
X0001745833Y0003229392D01*
X0001746071Y0003229790D01*
X0001746346Y0003230162D01*
X0001746659Y0003230506D01*
X0001747002Y0003230817D01*
X0001747373Y0003231093D01*
X0001747772Y0003231330D01*
X0001748192Y0003231530D01*
X0001748628Y0003231686D01*
X0001749078Y0003231798D01*
X0001749536Y0003231867D01*
X0001750000Y0003231889D01*
X0001787795Y0003231889D01*
X0001788258Y0003231867D01*
X0001788258Y0003231867D01*
G37*
G36*
X0001539601Y0003047232D02*
X0001539830Y0003047198D01*
X0001540055Y0003047142D01*
X0001540274Y0003047064D01*
X0001540483Y0003046965D01*
X0001540682Y0003046845D01*
X0001540868Y0003046707D01*
X0001541040Y0003046552D01*
X0001541196Y0003046380D01*
X0001541334Y0003046194D01*
X0001541453Y0003045995D01*
X0001541552Y0003045785D01*
X0001541630Y0003045567D01*
X0001541686Y0003045342D01*
X0001541720Y0003045113D01*
X0001541732Y0003044881D01*
X0001541732Y0003025984D01*
X0001541720Y0003025752D01*
X0001541686Y0003025523D01*
X0001541630Y0003025298D01*
X0001541552Y0003025080D01*
X0001541453Y0003024869D01*
X0001541334Y0003024671D01*
X0001541196Y0003024485D01*
X0001541040Y0003024313D01*
X0001540868Y0003024158D01*
X0001540682Y0003024020D01*
X0001540483Y0003023900D01*
X0001540274Y0003023801D01*
X0001540055Y0003023723D01*
X0001539830Y0003023667D01*
X0001539601Y0003023633D01*
X0001539369Y0003023622D01*
X0001457480Y0003023622D01*
X0001457248Y0003023633D01*
X0001457019Y0003023667D01*
X0001456794Y0003023723D01*
X0001456576Y0003023801D01*
X0001456366Y0003023900D01*
X0001456167Y0003024020D01*
X0001455981Y0003024158D01*
X0001455810Y0003024313D01*
X0001455654Y0003024485D01*
X0001455516Y0003024671D01*
X0001455397Y0003024869D01*
X0001455297Y0003025080D01*
X0001455219Y0003025298D01*
X0001455163Y0003025523D01*
X0001455129Y0003025752D01*
X0001455118Y0003025984D01*
X0001455118Y0003044881D01*
X0001455129Y0003045113D01*
X0001455163Y0003045342D01*
X0001455219Y0003045567D01*
X0001455297Y0003045785D01*
X0001455397Y0003045995D01*
X0001455516Y0003046194D01*
X0001455654Y0003046380D01*
X0001455810Y0003046552D01*
X0001455981Y0003046707D01*
X0001456167Y0003046845D01*
X0001456366Y0003046965D01*
X0001456576Y0003047064D01*
X0001456794Y0003047142D01*
X0001457019Y0003047198D01*
X0001457248Y0003047232D01*
X0001457480Y0003047244D01*
X0001539369Y0003047244D01*
X0001539601Y0003047232D01*
X0001539601Y0003047232D01*
G37*
G36*
X0001211880Y0003355095D02*
X0001212339Y0003355027D01*
X0001212788Y0003354914D01*
X0001213225Y0003354758D01*
X0001213644Y0003354560D01*
X0001214042Y0003354320D01*
X0001214414Y0003354044D01*
X0001214757Y0003353734D01*
X0001215069Y0003353390D01*
X0001215345Y0003353018D01*
X0001215583Y0003352619D01*
X0001215782Y0003352201D01*
X0001215938Y0003351765D01*
X0001216050Y0003351315D01*
X0001216118Y0003350856D01*
X0001216141Y0003350393D01*
X0001216141Y0003273228D01*
X0001216118Y0003272765D01*
X0001216050Y0003272306D01*
X0001215938Y0003271855D01*
X0001215782Y0003271420D01*
X0001215583Y0003271001D01*
X0001215345Y0003270603D01*
X0001215069Y0003270231D01*
X0001214757Y0003269887D01*
X0001214414Y0003269576D01*
X0001214042Y0003269300D01*
X0001213644Y0003269061D01*
X0001213225Y0003268863D01*
X0001212788Y0003268707D01*
X0001212339Y0003268594D01*
X0001211880Y0003268526D01*
X0001211417Y0003268502D01*
X0001173622Y0003268502D01*
X0001173158Y0003268526D01*
X0001172700Y0003268594D01*
X0001172250Y0003268707D01*
X0001171814Y0003268863D01*
X0001171394Y0003269061D01*
X0001170997Y0003269300D01*
X0001170624Y0003269576D01*
X0001170281Y0003269887D01*
X0001169970Y0003270231D01*
X0001169693Y0003270603D01*
X0001169455Y0003271001D01*
X0001169257Y0003271420D01*
X0001169101Y0003271855D01*
X0001168988Y0003272306D01*
X0001168920Y0003272765D01*
X0001168897Y0003273228D01*
X0001168897Y0003350393D01*
X0001168920Y0003350856D01*
X0001168988Y0003351315D01*
X0001169101Y0003351765D01*
X0001169257Y0003352201D01*
X0001169455Y0003352619D01*
X0001169693Y0003353018D01*
X0001169970Y0003353390D01*
X0001170281Y0003353734D01*
X0001170624Y0003354044D01*
X0001170997Y0003354320D01*
X0001171394Y0003354560D01*
X0001171814Y0003354758D01*
X0001172250Y0003354914D01*
X0001172700Y0003355027D01*
X0001173158Y0003355095D01*
X0001173622Y0003355118D01*
X0001211417Y0003355118D01*
X0001211880Y0003355095D01*
X0001211880Y0003355095D01*
G37*
G36*
X0001818681Y0003355292D02*
X0001819139Y0003355224D01*
X0001819588Y0003355111D01*
X0001820026Y0003354955D01*
X0001820445Y0003354757D01*
X0001820841Y0003354518D01*
X0001821215Y0003354242D01*
X0001821558Y0003353931D01*
X0001821870Y0003353587D01*
X0001822146Y0003353215D01*
X0001822384Y0003352817D01*
X0001822582Y0003352398D01*
X0001822739Y0003351961D01*
X0001822851Y0003351512D01*
X0001822919Y0003351053D01*
X0001822942Y0003350590D01*
X0001822942Y0003273425D01*
X0001822919Y0003272962D01*
X0001822851Y0003272503D01*
X0001822739Y0003272053D01*
X0001822582Y0003271617D01*
X0001822384Y0003271198D01*
X0001822146Y0003270800D01*
X0001821870Y0003270428D01*
X0001821558Y0003270084D01*
X0001821215Y0003269773D01*
X0001820841Y0003269496D01*
X0001820445Y0003269258D01*
X0001820026Y0003269059D01*
X0001819588Y0003268904D01*
X0001819139Y0003268791D01*
X0001818681Y0003268723D01*
X0001818217Y0003268700D01*
X0001780422Y0003268700D01*
X0001779959Y0003268723D01*
X0001779501Y0003268791D01*
X0001779051Y0003268904D01*
X0001778614Y0003269059D01*
X0001778195Y0003269258D01*
X0001777798Y0003269496D01*
X0001777425Y0003269773D01*
X0001777082Y0003270084D01*
X0001776770Y0003270428D01*
X0001776494Y0003270800D01*
X0001776256Y0003271198D01*
X0001776057Y0003271617D01*
X0001775901Y0003272053D01*
X0001775789Y0003272503D01*
X0001775721Y0003272962D01*
X0001775698Y0003273425D01*
X0001775698Y0003350590D01*
X0001775721Y0003351053D01*
X0001775789Y0003351512D01*
X0001775901Y0003351961D01*
X0001776057Y0003352398D01*
X0001776256Y0003352817D01*
X0001776494Y0003353215D01*
X0001776770Y0003353587D01*
X0001777082Y0003353931D01*
X0001777425Y0003354242D01*
X0001777798Y0003354518D01*
X0001778195Y0003354757D01*
X0001778614Y0003354955D01*
X0001779051Y0003355111D01*
X0001779501Y0003355224D01*
X0001779959Y0003355292D01*
X0001780422Y0003355314D01*
X0001818217Y0003355314D01*
X0001818681Y0003355292D01*
X0001818681Y0003355292D01*
G37*
D16*
G36*
X0002788375Y0004291461D02*
X0002778306Y0004216809D01*
X0000188532Y0004216025D01*
X0000189578Y0004293421D01*
X0002788375Y0004291461D01*
X0002788375Y0004291461D01*
G37*
X0002788375Y0004291461D02*
X0002778306Y0004216809D01*
X0000188532Y0004216025D01*
X0000189578Y0004293421D01*
X0002788375Y0004291461D01*
G36*
X0002760725Y0002912481D02*
X0000233323Y0002913266D01*
X0000232975Y0002988702D01*
X0002760376Y0002989486D01*
X0002760725Y0002912481D01*
X0002760725Y0002912481D01*
G37*
X0002760725Y0002912481D02*
X0000233323Y0002913266D01*
X0000232975Y0002988702D01*
X0002760376Y0002989486D01*
X0002760725Y0002912481D01*
G36*
X0002993820Y0003908755D02*
X0002984507Y0003896338D01*
X0002957086Y0003896338D01*
X0002955173Y0003895957D01*
X0002953551Y0003894874D01*
X0002952467Y0003893252D01*
X0002952086Y0003891348D01*
X0002950905Y0003316545D01*
X0002951282Y0003314631D01*
X0002952362Y0003313007D01*
X0002953982Y0003311919D01*
X0002955905Y0003311535D01*
X0002984936Y0003311535D01*
X0002993818Y0003302653D01*
X0002993818Y0002912086D01*
X0002757339Y0002912086D01*
X0002756968Y0002993714D01*
X0002756968Y0003078648D01*
X0002759935Y0003082603D01*
X0002762108Y0003083606D01*
X0002766277Y0003082216D01*
X0002789628Y0003060325D01*
X0002792804Y0003048326D01*
X0002794214Y0003045962D01*
X0002807206Y0003033757D01*
X0002808732Y0003032775D01*
X0002824086Y0003026476D01*
X0002825984Y0003026102D01*
X0002840944Y0003026102D01*
X0002843439Y0003026769D01*
X0002856431Y0003034249D01*
X0002857249Y0003034836D01*
X0002867486Y0003043892D01*
X0002868791Y0003045722D01*
X0002875484Y0003061864D01*
X0002875863Y0003063926D01*
X0002875470Y0003077312D01*
X0002875124Y0003078997D01*
X0002870006Y0003091990D01*
X0002869017Y0003093559D01*
X0002858782Y0003104583D01*
X0002857116Y0003105764D01*
X0002842610Y0003112087D01*
X0002820257Y0003134073D01*
X0002818685Y0003140363D01*
X0002820678Y0003144351D01*
X0002826456Y0003147377D01*
X0002888251Y0003148150D01*
X0002890160Y0003148554D01*
X0002891768Y0003149658D01*
X0002892831Y0003151294D01*
X0002893188Y0003153149D01*
X0002893188Y0003227952D01*
X0002892808Y0003229866D01*
X0002891723Y0003231487D01*
X0002890102Y0003232572D01*
X0002888249Y0003232952D01*
X0002796341Y0003234072D01*
X0002796729Y0003971459D01*
X0002887090Y0003972953D01*
X0002888997Y0003973365D01*
X0002890601Y0003974476D01*
X0002891658Y0003976115D01*
X0002892006Y0003977926D01*
X0002892401Y0004053517D01*
X0002892030Y0004055430D01*
X0002890955Y0004057060D01*
X0002889339Y0004058150D01*
X0002887430Y0004058543D01*
X0002822448Y0004058925D01*
X0002818922Y0004062198D01*
X0002817129Y0004065337D01*
X0002817932Y0004068751D01*
X0002840191Y0004091375D01*
X0002851755Y0004095712D01*
X0002853441Y0004096765D01*
X0002868795Y0004111333D01*
X0002870107Y0004113410D01*
X0002876013Y0004131520D01*
X0002876094Y0004134347D01*
X0002870582Y0004155213D01*
X0002869330Y0004157425D01*
X0002854763Y0004172385D01*
X0002853155Y0004173491D01*
X0002852045Y0004173822D01*
X0002829604Y0004177759D01*
X0002827527Y0004177685D01*
X0002813354Y0004174142D01*
X0002811366Y0004173132D01*
X0002797192Y0004161321D01*
X0002795788Y0004159428D01*
X0002787581Y0004140028D01*
X0002765868Y0004121260D01*
X0002763927Y0004120483D01*
X0002760869Y0004120891D01*
X0002758631Y0004122925D01*
X0002756570Y0004128814D01*
X0002756181Y0004210539D01*
X0002759520Y0004291781D01*
X0002810165Y0004291063D01*
X0002810267Y0004291063D01*
X0002994207Y0004292212D01*
X0002993820Y0003908755D01*
X0002993820Y0003908755D01*
G37*
X0002993820Y0003908755D02*
X0002984507Y0003896338D01*
X0002957086Y0003896338D01*
X0002955173Y0003895957D01*
X0002953551Y0003894874D01*
X0002952467Y0003893252D01*
X0002952086Y0003891348D01*
X0002950905Y0003316545D01*
X0002951282Y0003314631D01*
X0002952362Y0003313007D01*
X0002953982Y0003311919D01*
X0002955905Y0003311535D01*
X0002984936Y0003311535D01*
X0002993818Y0003302653D01*
X0002993818Y0002912086D01*
X0002757339Y0002912086D01*
X0002756968Y0002993714D01*
X0002756968Y0003078648D01*
X0002759935Y0003082603D01*
X0002762108Y0003083606D01*
X0002766277Y0003082216D01*
X0002789628Y0003060325D01*
X0002792804Y0003048326D01*
X0002794214Y0003045962D01*
X0002807206Y0003033757D01*
X0002808732Y0003032775D01*
X0002824086Y0003026476D01*
X0002825984Y0003026102D01*
X0002840944Y0003026102D01*
X0002843439Y0003026769D01*
X0002856431Y0003034249D01*
X0002857249Y0003034836D01*
X0002867486Y0003043892D01*
X0002868791Y0003045722D01*
X0002875484Y0003061864D01*
X0002875863Y0003063926D01*
X0002875470Y0003077312D01*
X0002875124Y0003078997D01*
X0002870006Y0003091990D01*
X0002869017Y0003093559D01*
X0002858782Y0003104583D01*
X0002857116Y0003105764D01*
X0002842610Y0003112087D01*
X0002820257Y0003134073D01*
X0002818685Y0003140363D01*
X0002820678Y0003144351D01*
X0002826456Y0003147377D01*
X0002888251Y0003148150D01*
X0002890160Y0003148554D01*
X0002891768Y0003149658D01*
X0002892831Y0003151294D01*
X0002893188Y0003153149D01*
X0002893188Y0003227952D01*
X0002892808Y0003229866D01*
X0002891723Y0003231487D01*
X0002890102Y0003232572D01*
X0002888249Y0003232952D01*
X0002796341Y0003234072D01*
X0002796729Y0003971459D01*
X0002887090Y0003972953D01*
X0002888997Y0003973365D01*
X0002890601Y0003974476D01*
X0002891658Y0003976115D01*
X0002892006Y0003977926D01*
X0002892401Y0004053517D01*
X0002892030Y0004055430D01*
X0002890955Y0004057060D01*
X0002889339Y0004058150D01*
X0002887430Y0004058543D01*
X0002822448Y0004058925D01*
X0002818922Y0004062198D01*
X0002817129Y0004065337D01*
X0002817932Y0004068751D01*
X0002840191Y0004091375D01*
X0002851755Y0004095712D01*
X0002853441Y0004096765D01*
X0002868795Y0004111333D01*
X0002870107Y0004113410D01*
X0002876013Y0004131520D01*
X0002876094Y0004134347D01*
X0002870582Y0004155213D01*
X0002869330Y0004157425D01*
X0002854763Y0004172385D01*
X0002853155Y0004173491D01*
X0002852045Y0004173822D01*
X0002829604Y0004177759D01*
X0002827527Y0004177685D01*
X0002813354Y0004174142D01*
X0002811366Y0004173132D01*
X0002797192Y0004161321D01*
X0002795788Y0004159428D01*
X0002787581Y0004140028D01*
X0002765868Y0004121260D01*
X0002763927Y0004120483D01*
X0002760869Y0004120891D01*
X0002758631Y0004122925D01*
X0002756570Y0004128814D01*
X0002756181Y0004210539D01*
X0002759520Y0004291781D01*
X0002810165Y0004291063D01*
X0002810267Y0004291063D01*
X0002994207Y0004292212D01*
X0002993820Y0003908755D01*
G36*
X0000230826Y0004212978D02*
X0000230826Y0004128044D01*
X0000227860Y0004124088D01*
X0000225686Y0004123086D01*
X0000221518Y0004124475D01*
X0000198167Y0004146366D01*
X0000194990Y0004158366D01*
X0000193580Y0004160730D01*
X0000180588Y0004172935D01*
X0000179063Y0004173917D01*
X0000163708Y0004180214D01*
X0000161811Y0004180589D01*
X0000146850Y0004180589D01*
X0000144355Y0004179922D01*
X0000131363Y0004172443D01*
X0000130545Y0004171855D01*
X0000120309Y0004162800D01*
X0000119003Y0004160970D01*
X0000112309Y0004144828D01*
X0000111931Y0004142766D01*
X0000112325Y0004129380D01*
X0000112670Y0004127694D01*
X0000117788Y0004114702D01*
X0000118776Y0004113133D01*
X0000129011Y0004102108D01*
X0000130677Y0004100927D01*
X0000145185Y0004094604D01*
X0000167537Y0004072618D01*
X0000169110Y0004066328D01*
X0000167115Y0004062341D01*
X0000161338Y0004059315D01*
X0000099543Y0004058542D01*
X0000097635Y0004058137D01*
X0000096026Y0004057034D01*
X0000094963Y0004055398D01*
X0000094606Y0004053543D01*
X0000094606Y0003978740D01*
X0000094986Y0003976826D01*
X0000096070Y0003975204D01*
X0000097692Y0003974120D01*
X0000099545Y0003973740D01*
X0000191454Y0003972619D01*
X0000191065Y0003235233D01*
X0000100704Y0003233739D01*
X0000098797Y0003233327D01*
X0000097193Y0003232216D01*
X0000096137Y0003230576D01*
X0000095787Y0003228766D01*
X0000095393Y0003153175D01*
X0000095764Y0003151260D01*
X0000096839Y0003149632D01*
X0000098456Y0003148540D01*
X0000100364Y0003148149D01*
X0000165345Y0003147767D01*
X0000168872Y0003144493D01*
X0000170666Y0003141354D01*
X0000169863Y0003137941D01*
X0000147604Y0003115317D01*
X0000136039Y0003110980D01*
X0000134353Y0003109926D01*
X0000118999Y0003095359D01*
X0000117686Y0003093282D01*
X0000111781Y0003075171D01*
X0000111701Y0003072345D01*
X0000117212Y0003051478D01*
X0000118464Y0003049267D01*
X0000133031Y0003034307D01*
X0000134639Y0003033201D01*
X0000135750Y0003032870D01*
X0000158191Y0003028933D01*
X0000160267Y0003029007D01*
X0000174441Y0003032550D01*
X0000176428Y0003033560D01*
X0000190602Y0003045371D01*
X0000192006Y0003047264D01*
X0000200213Y0003066664D01*
X0000221926Y0003085432D01*
X0000223867Y0003086209D01*
X0000226925Y0003085801D01*
X0000229163Y0003083766D01*
X0000231224Y0003077878D01*
X0000231613Y0002996153D01*
X0000228271Y0002914818D01*
X0000155501Y0002914448D01*
X-0000006412Y0002914448D01*
X-0000006025Y0003297937D01*
X0000003286Y0003310354D01*
X0000030708Y0003310354D01*
X0000032622Y0003310734D01*
X0000034244Y0003311818D01*
X0000035328Y0003313440D01*
X0000035708Y0003315344D01*
X0000036889Y0003890147D01*
X0000036513Y0003892061D01*
X0000035432Y0003893685D01*
X0000033812Y0003894772D01*
X0000031889Y0003895157D01*
X0000002858Y0003895157D01*
X-0000006023Y0003904039D01*
X-0000006023Y0004294606D01*
X0000230455Y0004294606D01*
X0000230826Y0004212978D01*
X0000230826Y0004212978D01*
G37*
X0000230826Y0004212978D02*
X0000230826Y0004128044D01*
X0000227860Y0004124088D01*
X0000225686Y0004123086D01*
X0000221518Y0004124475D01*
X0000198167Y0004146366D01*
X0000194990Y0004158366D01*
X0000193580Y0004160730D01*
X0000180588Y0004172935D01*
X0000179063Y0004173917D01*
X0000163708Y0004180214D01*
X0000161811Y0004180589D01*
X0000146850Y0004180589D01*
X0000144355Y0004179922D01*
X0000131363Y0004172443D01*
X0000130545Y0004171855D01*
X0000120309Y0004162800D01*
X0000119003Y0004160970D01*
X0000112309Y0004144828D01*
X0000111931Y0004142766D01*
X0000112325Y0004129380D01*
X0000112670Y0004127694D01*
X0000117788Y0004114702D01*
X0000118776Y0004113133D01*
X0000129011Y0004102108D01*
X0000130677Y0004100927D01*
X0000145185Y0004094604D01*
X0000167537Y0004072618D01*
X0000169110Y0004066328D01*
X0000167115Y0004062341D01*
X0000161338Y0004059315D01*
X0000099543Y0004058542D01*
X0000097635Y0004058137D01*
X0000096026Y0004057034D01*
X0000094963Y0004055398D01*
X0000094606Y0004053543D01*
X0000094606Y0003978740D01*
X0000094986Y0003976826D01*
X0000096070Y0003975204D01*
X0000097692Y0003974120D01*
X0000099545Y0003973740D01*
X0000191454Y0003972619D01*
X0000191065Y0003235233D01*
X0000100704Y0003233739D01*
X0000098797Y0003233327D01*
X0000097193Y0003232216D01*
X0000096137Y0003230576D01*
X0000095787Y0003228766D01*
X0000095393Y0003153175D01*
X0000095764Y0003151260D01*
X0000096839Y0003149632D01*
X0000098456Y0003148540D01*
X0000100364Y0003148149D01*
X0000165345Y0003147767D01*
X0000168872Y0003144493D01*
X0000170666Y0003141354D01*
X0000169863Y0003137941D01*
X0000147604Y0003115317D01*
X0000136039Y0003110980D01*
X0000134353Y0003109926D01*
X0000118999Y0003095359D01*
X0000117686Y0003093282D01*
X0000111781Y0003075171D01*
X0000111701Y0003072345D01*
X0000117212Y0003051478D01*
X0000118464Y0003049267D01*
X0000133031Y0003034307D01*
X0000134639Y0003033201D01*
X0000135750Y0003032870D01*
X0000158191Y0003028933D01*
X0000160267Y0003029007D01*
X0000174441Y0003032550D01*
X0000176428Y0003033560D01*
X0000190602Y0003045371D01*
X0000192006Y0003047264D01*
X0000200213Y0003066664D01*
X0000221926Y0003085432D01*
X0000223867Y0003086209D01*
X0000226925Y0003085801D01*
X0000229163Y0003083766D01*
X0000231224Y0003077878D01*
X0000231613Y0002996153D01*
X0000228271Y0002914818D01*
X0000155501Y0002914448D01*
X-0000006412Y0002914448D01*
X-0000006025Y0003297937D01*
X0000003286Y0003310354D01*
X0000030708Y0003310354D01*
X0000032622Y0003310734D01*
X0000034244Y0003311818D01*
X0000035328Y0003313440D01*
X0000035708Y0003315344D01*
X0000036889Y0003890147D01*
X0000036513Y0003892061D01*
X0000035432Y0003893685D01*
X0000033812Y0003894772D01*
X0000031889Y0003895157D01*
X0000002858Y0003895157D01*
X-0000006023Y0003904039D01*
X-0000006023Y0004294606D01*
X0000230455Y0004294606D01*
X0000230826Y0004212978D01*
G01G01G01G01G01G01G01G01*
D27*
G36*
X0003078762Y0001468966D02*
X0003078830Y0001469425D01*
X0003078943Y0001469875D01*
X0003079099Y0001470311D01*
X0003079296Y0001470731D01*
X0003079536Y0001471128D01*
X0003079812Y0001471501D01*
X0003080122Y0001471844D01*
X0003080466Y0001472155D01*
X0003080838Y0001472431D01*
X0003081237Y0001472670D01*
X0003081656Y0001472868D01*
X0003082092Y0001473024D01*
X0003082542Y0001473137D01*
X0003083001Y0001473205D01*
X0003083464Y0001473228D01*
X0003121259Y0001473228D01*
X0003121722Y0001473205D01*
X0003122181Y0001473137D01*
X0003122631Y0001473024D01*
X0003123067Y0001472868D01*
X0003123485Y0001472670D01*
X0003123884Y0001472431D01*
X0003124256Y0001472155D01*
X0003124600Y0001471844D01*
X0003124911Y0001471501D01*
X0003125188Y0001471128D01*
X0003125426Y0001470731D01*
X0003125624Y0001470311D01*
X0003125780Y0001469875D01*
X0003125893Y0001469425D01*
X0003125961Y0001468966D01*
X0003125984Y0001468503D01*
X0003125984Y0001430708D01*
X0003125961Y0001430244D01*
X0003125893Y0001429786D01*
X0003125780Y0001429337D01*
X0003125624Y0001428900D01*
X0003125426Y0001428481D01*
X0003125188Y0001428083D01*
X0003124911Y0001427711D01*
X0003124600Y0001427367D01*
X0003124256Y0001427056D01*
X0003123884Y0001426780D01*
X0003123485Y0001426542D01*
X0003123067Y0001426343D01*
X0003122631Y0001426186D01*
X0003122181Y0001426075D01*
X0003121722Y0001426007D01*
X0003121259Y0001425984D01*
X0003083464Y0001425984D01*
X0003083001Y0001426007D01*
X0003082542Y0001426075D01*
X0003082092Y0001426186D01*
X0003081656Y0001426343D01*
X0003081237Y0001426542D01*
X0003080838Y0001426780D01*
X0003080466Y0001427056D01*
X0003080122Y0001427367D01*
X0003079812Y0001427711D01*
X0003079536Y0001428083D01*
X0003079296Y0001428481D01*
X0003079099Y0001428900D01*
X0003078943Y0001429337D01*
X0003078830Y0001429786D01*
X0003078762Y0001430244D01*
X0003078739Y0001430708D01*
X0003078739Y0001468503D01*
X0003078762Y0001468966D01*
X0003078762Y0001468966D01*
G37*
G36*
X0003078762Y0001907549D02*
X0003078830Y0001908008D01*
X0003078943Y0001908458D01*
X0003079099Y0001908894D01*
X0003079296Y0001909313D01*
X0003079536Y0001909711D01*
X0003079812Y0001910083D01*
X0003080122Y0001910427D01*
X0003080466Y0001910738D01*
X0003080838Y0001911014D01*
X0003081237Y0001911253D01*
X0003081656Y0001911451D01*
X0003082092Y0001911607D01*
X0003082542Y0001911720D01*
X0003083001Y0001911788D01*
X0003083464Y0001911811D01*
X0003121259Y0001911811D01*
X0003121722Y0001911788D01*
X0003122181Y0001911720D01*
X0003122631Y0001911607D01*
X0003123067Y0001911451D01*
X0003123485Y0001911253D01*
X0003123884Y0001911014D01*
X0003124256Y0001910738D01*
X0003124600Y0001910427D01*
X0003124911Y0001910083D01*
X0003125188Y0001909711D01*
X0003125426Y0001909313D01*
X0003125624Y0001908894D01*
X0003125780Y0001908458D01*
X0003125893Y0001908008D01*
X0003125961Y0001907549D01*
X0003125984Y0001907086D01*
X0003125984Y0001869291D01*
X0003125961Y0001868828D01*
X0003125893Y0001868369D01*
X0003125780Y0001867919D01*
X0003125624Y0001867483D01*
X0003125426Y0001867064D01*
X0003125188Y0001866665D01*
X0003124911Y0001866294D01*
X0003124600Y0001865950D01*
X0003124256Y0001865638D01*
X0003123884Y0001865362D01*
X0003123485Y0001865124D01*
X0003123067Y0001864926D01*
X0003122631Y0001864770D01*
X0003122181Y0001864657D01*
X0003121722Y0001864589D01*
X0003121259Y0001864566D01*
X0003083464Y0001864566D01*
X0003083001Y0001864589D01*
X0003082542Y0001864657D01*
X0003082092Y0001864770D01*
X0003081656Y0001864926D01*
X0003081237Y0001865124D01*
X0003080838Y0001865362D01*
X0003080466Y0001865638D01*
X0003080122Y0001865950D01*
X0003079812Y0001866294D01*
X0003079536Y0001866665D01*
X0003079296Y0001867064D01*
X0003079099Y0001867483D01*
X0003078943Y0001867919D01*
X0003078830Y0001868369D01*
X0003078762Y0001868828D01*
X0003078739Y0001869291D01*
X0003078739Y0001907086D01*
X0003078762Y0001907549D01*
X0003078762Y0001907549D01*
G37*
G36*
X0003232298Y0001705426D02*
X0003232343Y0001705732D01*
X0003232419Y0001706032D01*
X0003232523Y0001706323D01*
X0003232655Y0001706602D01*
X0003232814Y0001706867D01*
X0003232998Y0001707115D01*
X0003233204Y0001707345D01*
X0003233435Y0001707552D01*
X0003233683Y0001707736D01*
X0003233948Y0001707894D01*
X0003234227Y0001708027D01*
X0003234518Y0001708132D01*
X0003234818Y0001708207D01*
X0003235124Y0001708252D01*
X0003235433Y0001708266D01*
X0003260629Y0001708266D01*
X0003260938Y0001708252D01*
X0003261244Y0001708207D01*
X0003261544Y0001708132D01*
X0003261835Y0001708027D01*
X0003262114Y0001707894D01*
X0003262379Y0001707736D01*
X0003262627Y0001707552D01*
X0003262857Y0001707345D01*
X0003263064Y0001707115D01*
X0003263248Y0001706867D01*
X0003263407Y0001706602D01*
X0003263539Y0001706323D01*
X0003263643Y0001706032D01*
X0003263719Y0001705732D01*
X0003263764Y0001705426D01*
X0003263779Y0001705118D01*
X0003263779Y0001624802D01*
X0003263764Y0001624494D01*
X0003263718Y0001624188D01*
X0003263643Y0001623888D01*
X0003263539Y0001623597D01*
X0003263407Y0001623318D01*
X0003263248Y0001623052D01*
X0003263064Y0001622804D01*
X0003262857Y0001622576D01*
X0003262627Y0001622368D01*
X0003262379Y0001622184D01*
X0003262114Y0001622025D01*
X0003261835Y0001621893D01*
X0003261544Y0001621789D01*
X0003261244Y0001621714D01*
X0003260938Y0001621668D01*
X0003260629Y0001621653D01*
X0003235433Y0001621653D01*
X0003235124Y0001621668D01*
X0003234818Y0001621714D01*
X0003234518Y0001621789D01*
X0003234227Y0001621893D01*
X0003233948Y0001622025D01*
X0003233683Y0001622184D01*
X0003233435Y0001622368D01*
X0003233204Y0001622576D01*
X0003232998Y0001622804D01*
X0003232814Y0001623052D01*
X0003232655Y0001623318D01*
X0003232523Y0001623597D01*
X0003232419Y0001623888D01*
X0003232343Y0001624188D01*
X0003232298Y0001624494D01*
X0003232282Y0001624802D01*
X0003232282Y0001705118D01*
X0003232298Y0001705426D01*
X0003232298Y0001705426D01*
G37*
G01G01G01G01G01G01G01G01*
D38*
G36*
X0003107306Y0002333337D02*
X0003107374Y0002333795D01*
X0003107486Y0002334245D01*
X0003107643Y0002334681D01*
X0003107841Y0002335101D01*
X0003108079Y0002335498D01*
X0003108355Y0002335871D01*
X0003108667Y0002336214D01*
X0003109010Y0002336526D01*
X0003109383Y0002336802D01*
X0003109780Y0002337040D01*
X0003110198Y0002337238D01*
X0003110636Y0002337395D01*
X0003111086Y0002337507D01*
X0003111543Y0002337575D01*
X0003112007Y0002337598D01*
X0003189172Y0002337598D01*
X0003189636Y0002337575D01*
X0003190094Y0002337507D01*
X0003190544Y0002337395D01*
X0003190981Y0002337238D01*
X0003191400Y0002337040D01*
X0003191797Y0002336802D01*
X0003192170Y0002336526D01*
X0003192513Y0002336214D01*
X0003192825Y0002335871D01*
X0003193101Y0002335498D01*
X0003193339Y0002335101D01*
X0003193538Y0002334681D01*
X0003193694Y0002334245D01*
X0003193806Y0002333795D01*
X0003193874Y0002333337D01*
X0003193897Y0002332874D01*
X0003193897Y0002295078D01*
X0003193874Y0002294615D01*
X0003193806Y0002294157D01*
X0003193694Y0002293707D01*
X0003193538Y0002293270D01*
X0003193339Y0002292851D01*
X0003193101Y0002292454D01*
X0003192825Y0002292081D01*
X0003192513Y0002291738D01*
X0003192170Y0002291426D01*
X0003191797Y0002291150D01*
X0003191400Y0002290912D01*
X0003190981Y0002290713D01*
X0003190544Y0002290557D01*
X0003190094Y0002290445D01*
X0003189636Y0002290377D01*
X0003189172Y0002290354D01*
X0003112007Y0002290354D01*
X0003111543Y0002290377D01*
X0003111086Y0002290445D01*
X0003110636Y0002290557D01*
X0003110198Y0002290713D01*
X0003109780Y0002290912D01*
X0003109383Y0002291150D01*
X0003109010Y0002291426D01*
X0003108667Y0002291738D01*
X0003108355Y0002292081D01*
X0003108079Y0002292454D01*
X0003107841Y0002292851D01*
X0003107643Y0002293270D01*
X0003107486Y0002293707D01*
X0003107374Y0002294157D01*
X0003107306Y0002294615D01*
X0003107283Y0002295078D01*
X0003107283Y0002332874D01*
X0003107306Y0002333337D01*
X0003107306Y0002333337D01*
G37*
G36*
X0003107306Y0002835305D02*
X0003107374Y0002835764D01*
X0003107486Y0002836213D01*
X0003107643Y0002836650D01*
X0003107841Y0002837069D01*
X0003108079Y0002837467D01*
X0003108355Y0002837839D01*
X0003108667Y0002838183D01*
X0003109010Y0002838494D01*
X0003109383Y0002838770D01*
X0003109780Y0002839009D01*
X0003110198Y0002839207D01*
X0003110636Y0002839362D01*
X0003111086Y0002839476D01*
X0003111543Y0002839544D01*
X0003112007Y0002839566D01*
X0003189172Y0002839566D01*
X0003189636Y0002839544D01*
X0003190094Y0002839476D01*
X0003190544Y0002839362D01*
X0003190981Y0002839207D01*
X0003191400Y0002839009D01*
X0003191797Y0002838770D01*
X0003192170Y0002838494D01*
X0003192513Y0002838183D01*
X0003192825Y0002837839D01*
X0003193101Y0002837467D01*
X0003193339Y0002837069D01*
X0003193538Y0002836650D01*
X0003193694Y0002836213D01*
X0003193806Y0002835764D01*
X0003193874Y0002835305D01*
X0003193897Y0002834842D01*
X0003193897Y0002797047D01*
X0003193874Y0002796584D01*
X0003193806Y0002796125D01*
X0003193694Y0002795675D01*
X0003193538Y0002795239D01*
X0003193339Y0002794820D01*
X0003193101Y0002794422D01*
X0003192825Y0002794050D01*
X0003192513Y0002793706D01*
X0003192170Y0002793395D01*
X0003191797Y0002793119D01*
X0003191400Y0002792880D01*
X0003190981Y0002792682D01*
X0003190544Y0002792525D01*
X0003190094Y0002792413D01*
X0003189636Y0002792345D01*
X0003189172Y0002792322D01*
X0003112007Y0002792322D01*
X0003111543Y0002792345D01*
X0003111086Y0002792413D01*
X0003110636Y0002792525D01*
X0003110198Y0002792682D01*
X0003109780Y0002792880D01*
X0003109383Y0002793119D01*
X0003109010Y0002793395D01*
X0003108667Y0002793706D01*
X0003108355Y0002794050D01*
X0003108079Y0002794422D01*
X0003107841Y0002794820D01*
X0003107643Y0002795239D01*
X0003107486Y0002795675D01*
X0003107374Y0002796125D01*
X0003107306Y0002796584D01*
X0003107283Y0002797047D01*
X0003107283Y0002834842D01*
X0003107306Y0002835305D01*
X0003107306Y0002835305D01*
G37*
G01G01G01G01G01G01G01G01*
D49*
D50*
X0003070866Y0004291338D02*
X0003435433Y0004146454D03*
D51*
G36*
X0003153907Y0004007124D02*
X0003078867Y0004007124D01*
X0003078107Y0004282951D01*
X0003153147Y0004282951D01*
X0003153907Y0004007124D01*
X0003153907Y0004007124D01*
G37*
X0003153907Y0004007124D02*
X0003078867Y0004007124D01*
X0003078107Y0004282951D01*
X0003153147Y0004282951D01*
X0003153907Y0004007124D01*
G04 next file*
G01G01G01G01G01G01G01G01*
D62*
D63*
X0003070866Y0003937007D02*
X0003435433Y0003792125D03*
D64*
G36*
X0003153907Y0003652793D02*
X0003078867Y0003652793D01*
X0003078107Y0003928620D01*
X0003153147Y0003928620D01*
X0003153907Y0003652793D01*
X0003153907Y0003652793D01*
G37*
X0003153907Y0003652793D02*
X0003078867Y0003652793D01*
X0003078107Y0003928620D01*
X0003153147Y0003928620D01*
X0003153907Y0003652793D01*
G01G01G01G01G01G01G01G01*
D75*
D76*
X0003070866Y0003582677D02*
X0003435433Y0003437795D03*
D77*
G36*
X0003153907Y0003298463D02*
X0003078867Y0003298463D01*
X0003078107Y0003574290D01*
X0003153147Y0003574290D01*
X0003153907Y0003298463D01*
X0003153907Y0003298463D01*
G37*
X0003153907Y0003298463D02*
X0003078867Y0003298463D01*
X0003078107Y0003574290D01*
X0003153147Y0003574290D01*
X0003153907Y0003298463D01*
G04 next file*
G01G01G01G01G01G01G01G01*
D88*
D89*
X0003070866Y0003228346D02*
X0003435433Y0003083464D03*
D90*
G36*
X0003153907Y0002944131D02*
X0003078867Y0002944131D01*
X0003078107Y0003219959D01*
X0003153147Y0003219959D01*
X0003153907Y0002944131D01*
X0003153907Y0002944131D01*
G37*
X0003153907Y0002944131D02*
X0003078867Y0002944131D01*
X0003078107Y0003219959D01*
X0003153147Y0003219959D01*
X0003153907Y0002944131D01*
G04 next file*
G01G01G01G01G01G01G01G01G01G01G01G01G01G01G01G01*
D101*
D102*
X0002772909Y0000324784D02*
X0002771409Y0000321784D01*
X0002768410Y0000320284D01*
X0002741413Y0000320284D01*
X0002751912Y0000350281D02*
X0002772909Y0000350281D01*
X0002751912Y0000336782D02*
X0002768410Y0000336782D01*
X0002771409Y0000338282D01*
X0002772909Y0000341282D01*
X0002772909Y0000345781D01*
X0002771409Y0000348781D01*
X0002769910Y0000350281D01*
X0002751912Y0000360779D02*
X0002751912Y0000372778D01*
X0002772909Y0000365279D02*
X0002745912Y0000365279D01*
X0002742913Y0000366779D01*
X0002741413Y0000369778D01*
X0002741413Y0000372778D01*
X0002751912Y0000378776D02*
X0002751912Y0000390776D01*
X0002741413Y0000383276D02*
X0002768410Y0000383276D01*
X0002771409Y0000384776D01*
X0002772909Y0000387776D01*
X0002772909Y0000390776D01*
X0002771409Y0000413273D02*
X0002772909Y0000410273D01*
X0002772909Y0000404274D01*
X0002771409Y0000401274D01*
X0002768410Y0000399775D01*
X0002756411Y0000399775D01*
X0002753411Y0000401274D01*
X0002751912Y0000404274D01*
X0002751912Y0000410273D01*
X0002753411Y0000413273D01*
X0002756411Y0000414773D01*
X0002759411Y0000414773D01*
X0002762410Y0000399775D01*
X0002772909Y0000428271D02*
X0002741413Y0000428271D01*
X0002760911Y0000431271D02*
X0002772909Y0000440270D01*
X0002751912Y0000440270D02*
X0002763909Y0000428271D01*
D101*
X0002742838Y0000466924D02*
X0002741338Y0000468424D01*
X0002739838Y0000471423D01*
X0002739838Y0000478922D01*
X0002741338Y0000481922D01*
X0002742838Y0000483422D01*
X0002745837Y0000484922D01*
X0002748837Y0000484922D01*
X0002753337Y0000483422D01*
X0002771334Y0000465424D01*
X0002771334Y0000484922D01*
X0002739838Y0000504418D02*
X0002739838Y0000507418D01*
X0002741338Y0000510418D01*
X0002742838Y0000511918D01*
X0002745837Y0000513418D01*
X0002751837Y0000514918D01*
X0002759336Y0000514918D01*
X0002765335Y0000513418D01*
X0002768335Y0000511918D01*
X0002769835Y0000510418D01*
X0002771334Y0000507418D01*
X0002771334Y0000504418D01*
X0002769835Y0000501420D01*
X0002768335Y0000499920D01*
X0002765335Y0000498420D01*
X0002759336Y0000496920D01*
X0002751837Y0000496920D01*
X0002745837Y0000498420D01*
X0002742838Y0000499920D01*
X0002741338Y0000501420D01*
X0002739838Y0000504418D01*
X0002771334Y0000544914D02*
X0002771334Y0000526916D01*
X0002771334Y0000535915D02*
X0002739838Y0000535915D01*
X0002744338Y0000532916D01*
X0002747337Y0000529916D01*
X0002748837Y0000526916D01*
X0002739838Y0000571911D02*
X0002739838Y0000565912D01*
X0002741338Y0000562912D01*
X0002742838Y0000561412D01*
X0002747337Y0000558413D01*
X0002753337Y0000556913D01*
X0002765335Y0000556913D01*
X0002768335Y0000558413D01*
X0002769835Y0000559912D01*
X0002771334Y0000562912D01*
X0002771334Y0000568911D01*
X0002769835Y0000571911D01*
X0002768335Y0000573411D01*
X0002765335Y0000574910D01*
X0002757836Y0000574910D01*
X0002754836Y0000573411D01*
X0002753337Y0000571911D01*
X0002751837Y0000568911D01*
X0002751837Y0000562912D01*
X0002753337Y0000559912D01*
X0002754836Y0000558413D01*
X0002757836Y0000556913D01*
X0002739838Y0000594408D02*
X0002739838Y0000597408D01*
X0002741338Y0000600407D01*
X0002742838Y0000601907D01*
X0002745837Y0000603407D01*
X0002751837Y0000604907D01*
X0002759336Y0000604907D01*
X0002765335Y0000603407D01*
X0002768335Y0000601907D01*
X0002769835Y0000600407D01*
X0002771334Y0000597408D01*
X0002771334Y0000594408D01*
X0002769835Y0000591408D01*
X0002768335Y0000589909D01*
X0002765335Y0000588409D01*
X0002759336Y0000586909D01*
X0002751837Y0000586909D01*
X0002745837Y0000588409D01*
X0002742838Y0000589909D01*
X0002741338Y0000591408D01*
X0002739838Y0000594408D01*
X0002771334Y0000619905D02*
X0002771334Y0000625904D01*
X0002769835Y0000628904D01*
X0002768335Y0000630404D01*
X0002763835Y0000633403D01*
X0002757836Y0000634903D01*
X0002745837Y0000634903D01*
X0002742838Y0000633403D01*
X0002741338Y0000631903D01*
X0002739838Y0000628904D01*
X0002739838Y0000622904D01*
X0002741338Y0000619905D01*
X0002742838Y0000618405D01*
X0002745837Y0000616905D01*
X0002753337Y0000616905D01*
X0002756336Y0000618405D01*
X0002757836Y0000619905D01*
X0002759336Y0000622904D01*
X0002759336Y0000628904D01*
X0002757836Y0000631903D01*
X0002756336Y0000633403D01*
X0002753337Y0000634903D01*
X0002742838Y0000646901D02*
X0002741338Y0000648401D01*
X0002739838Y0000651401D01*
X0002739838Y0000658899D01*
X0002741338Y0000661899D01*
X0002742838Y0000663398D01*
X0002745837Y0000664899D01*
X0002748837Y0000664899D01*
X0002753337Y0000663398D01*
X0002771334Y0000645402D01*
X0002771334Y0000664899D01*
X0002750337Y0000691896D02*
X0002771334Y0000691896D01*
X0002738338Y0000684397D02*
X0002760836Y0000676898D01*
X0002760836Y0000696395D01*
D102*
X0002206242Y0000132602D02*
X0002227240Y0000132602D01*
X0002213742Y0000101106D01*
X0002252737Y0000132602D02*
X0002246737Y0000132602D01*
X0002243738Y0000131102D01*
X0002242238Y0000129602D01*
X0002239238Y0000125100D01*
X0002237739Y0000119103D01*
X0002237739Y0000107105D01*
X0002239238Y0000104105D01*
X0002240738Y0000102604D01*
X0002243738Y0000101106D01*
X0002249737Y0000101106D01*
X0002252737Y0000102604D01*
X0002254236Y0000104105D01*
X0002255736Y0000107105D01*
X0002255736Y0000114604D01*
X0002254236Y0000117604D01*
X0002252737Y0000119103D01*
X0002249737Y0000120603D01*
X0002243738Y0000120603D01*
X0002240738Y0000119103D01*
X0002239238Y0000117604D01*
X0002237739Y0000114604D01*
X0002266235Y0000101106D02*
X0002282733Y0000122103D01*
X0002266235Y0000122103D02*
X0002282733Y0000101106D01*
X0002291732Y0000132602D02*
X0002311229Y0000132602D01*
X0002300731Y0000120603D01*
X0002305230Y0000120603D01*
X0002308230Y0000119103D01*
X0002309730Y0000117604D01*
X0002311229Y0000114604D01*
X0002311229Y0000107105D01*
X0002309730Y0000104105D01*
X0002308230Y0000102604D01*
X0002305230Y0000101106D01*
X0002296231Y0000101106D01*
X0002293232Y0000102604D01*
X0002291732Y0000104105D01*
X0002339726Y0000132602D02*
X0002324728Y0000132602D01*
X0002323228Y0000117604D01*
X0002324728Y0000119103D01*
X0002327727Y0000120603D01*
X0002335226Y0000120603D01*
X0002338226Y0000119103D01*
X0002339726Y0000117604D01*
X0002341226Y0000114604D01*
X0002341226Y0000107105D01*
X0002339726Y0000104105D01*
X0002338226Y0000102604D01*
X0002335226Y0000101106D01*
X0002327727Y0000101106D01*
X0002324728Y0000102604D01*
X0002323228Y0000104105D01*
X0002351724Y0000101106D02*
X0002368222Y0000122103D01*
X0002351724Y0000122103D02*
X0002368222Y0000101106D01*
X0002396719Y0000101106D02*
X0002378721Y0000101106D01*
X0002387720Y0000101106D02*
X0002387720Y0000132602D01*
X0002384720Y0000128102D01*
X0002381721Y0000125100D01*
X0002378721Y0000123603D01*
X0002416216Y0000132602D02*
X0002419216Y0000132602D01*
X0002422215Y0000131102D01*
X0002423715Y0000129602D01*
X0002425215Y0000126599D01*
X0002426715Y0000120603D01*
X0002426715Y0000113104D01*
X0002425215Y0000107105D01*
X0002423715Y0000104105D01*
X0002422215Y0000102604D01*
X0002419216Y0000101106D01*
X0002416216Y0000101106D01*
X0002413217Y0000102604D01*
X0002411717Y0000104105D01*
X0002410217Y0000107105D01*
X0002408717Y0000113104D01*
X0002408717Y0000120603D01*
X0002410217Y0000126599D01*
X0002411717Y0000129602D01*
X0002413217Y0000131102D01*
X0002416216Y0000132602D01*
X0002446212Y0000132602D02*
X0002449212Y0000132602D01*
X0002452212Y0000131102D01*
X0002453712Y0000129602D01*
X0002455211Y0000126599D01*
X0002456711Y0000120603D01*
X0002456711Y0000113104D01*
X0002455211Y0000107105D01*
X0002453712Y0000104105D01*
X0002452212Y0000102604D01*
X0002449212Y0000101106D01*
X0002446212Y0000101106D01*
X0002443213Y0000102604D01*
X0002441713Y0000104105D01*
X0002440213Y0000107105D01*
X0002438713Y0000113104D01*
X0002438713Y0000120603D01*
X0002440213Y0000126599D01*
X0002441713Y0000129602D01*
X0002443213Y0000131102D01*
X0002446212Y0000132602D01*
X0002492707Y0000102604D02*
X0002495706Y0000101106D01*
X0002501706Y0000101106D01*
X0002504705Y0000102604D01*
X0002506205Y0000105605D01*
X0002506205Y0000107105D01*
X0002504705Y0000110104D01*
X0002501706Y0000111604D01*
X0002497206Y0000111604D01*
X0002494206Y0000113104D01*
X0002492707Y0000116104D01*
X0002492707Y0000117604D01*
X0002494206Y0000120603D01*
X0002497206Y0000122103D01*
X0002501706Y0000122103D01*
X0002504705Y0000120603D01*
X0002519703Y0000122103D02*
X0002519703Y0000090607D01*
X0002519703Y0000120603D02*
X0002522702Y0000122103D01*
X0002528701Y0000122103D01*
X0002531702Y0000120603D01*
X0002533202Y0000119103D01*
X0002534701Y0000116104D01*
X0002534701Y0000107105D01*
X0002533202Y0000104105D01*
X0002531702Y0000102604D01*
X0002528701Y0000101106D01*
X0002522702Y0000101106D01*
X0002519703Y0000102604D01*
X0002552699Y0000101106D02*
X0002549699Y0000102604D01*
X0002548200Y0000105605D01*
X0002548200Y0000132602D01*
X0002564698Y0000101106D02*
X0002564698Y0000122103D01*
X0002564698Y0000132602D02*
X0002563198Y0000131102D01*
X0002564698Y0000129602D01*
X0002566197Y0000131102D01*
X0002564698Y0000132602D01*
X0002564698Y0000129602D01*
X0002575196Y0000122103D02*
X0002587194Y0000122103D01*
X0002579696Y0000132602D02*
X0002579696Y0000105605D01*
X0002581195Y0000102604D01*
X0002584195Y0000101106D01*
X0002587194Y0000101106D01*
X0002620190Y0000102604D02*
X0002623190Y0000101106D01*
X0002629190Y0000101106D01*
X0002632189Y0000102604D01*
X0002633689Y0000105605D01*
X0002633689Y0000107105D01*
X0002632189Y0000110104D01*
X0002629190Y0000111604D01*
X0002624690Y0000111604D01*
X0002621691Y0000113104D01*
X0002620190Y0000116104D01*
X0002620190Y0000117604D01*
X0002621691Y0000120603D01*
X0002624690Y0000122103D01*
X0002629190Y0000122103D01*
X0002632189Y0000120603D01*
X0002647187Y0000101106D02*
X0002647187Y0000132602D01*
X0002660686Y0000101106D02*
X0002660686Y0000117604D01*
X0002659186Y0000120603D01*
X0002656185Y0000122103D01*
X0002651686Y0000122103D01*
X0002648687Y0000120603D01*
X0002647187Y0000119103D01*
X0002687682Y0000102604D02*
X0002684682Y0000101106D01*
X0002678683Y0000101106D01*
X0002675684Y0000102604D01*
X0002674184Y0000105605D01*
X0002674184Y0000117604D01*
X0002675684Y0000120603D01*
X0002678683Y0000122103D01*
X0002684682Y0000122103D01*
X0002687682Y0000120603D01*
X0002689182Y0000117604D01*
X0002689182Y0000114604D01*
X0002674184Y0000111604D01*
X0002707180Y0000101106D02*
X0002704180Y0000102604D01*
X0002702680Y0000105605D01*
X0002702680Y0000132602D01*
X0002723678Y0000101106D02*
X0002720677Y0000102604D01*
X0002719178Y0000105605D01*
X0002719178Y0000132602D01*
D103*
X0002651181Y0000637401D02*
X0002651181Y0000481101D01*
D104*
X0002687007Y0000559448D02*
G75*
G03G03G03G03X0002687007Y0000559448I-0000150787D01X0002687007Y0000559448I-0000150787D01G03G03X0002687007Y0000559448I-0000150787D01G03G03X0002687007Y0000559448I-0000150787D01X0002687007Y0000559448I-0000150787D01X0002687007Y0000559448I-0000150787D01X0002687007Y0000559448I-0000150787D01G03G03G03G03X0002687007Y0000559448I-0000150787D01X0002687007Y0000559448I-0000150787D01X0002687007Y0000559448I-0000150787D01G03G03X0002687007Y0000559448I-0000150787D01G03G03X0002687007Y0000559448I-0000150787D01X0002687007Y0000559448I-0000150787D01X0002687007Y0000559448I-0000150787D01X0002687007Y0000559448I-0000150787D01X0002687007Y0000559448I-0000150787D01*
G01G01G01G01G01G01G01G01G01G01G01G01G01G01G01G01*
D105*
X0002640944Y0000559448D02*
G75*
G03G03G03G03X0002640944Y0000559448I-0000104724D01X0002640944Y0000559448I-0000104724D01G03G03X0002640944Y0000559448I-0000104724D01G03G03X0002640944Y0000559448I-0000104724D01X0002640944Y0000559448I-0000104724D01X0002640944Y0000559448I-0000104724D01X0002640944Y0000559448I-0000104724D01G03G03G03G03X0002640944Y0000559448I-0000104724D01X0002640944Y0000559448I-0000104724D01X0002640944Y0000559448I-0000104724D01G03G03X0002640944Y0000559448I-0000104724D01G03G03X0002640944Y0000559448I-0000104724D01X0002640944Y0000559448I-0000104724D01X0002640944Y0000559448I-0000104724D01X0002640944Y0000559448I-0000104724D01X0002640944Y0000559448I-0000104724D01*
G01G01G01G01G01G01G01G01G01G01G01G01G01G01G01G01*
D103*
X0002139370Y0000637401D02*
X0002139370Y0000481101D01*
D104*
X0002175196Y0000559448D02*
G75*
G03G03G03G03X0002175196Y0000559448I-0000150787D01X0002175196Y0000559448I-0000150787D01G03G03X0002175196Y0000559448I-0000150787D01G03G03X0002175196Y0000559448I-0000150787D01X0002175196Y0000559448I-0000150787D01X0002175196Y0000559448I-0000150787D01X0002175196Y0000559448I-0000150787D01G03G03G03G03X0002175196Y0000559448I-0000150787D01X0002175196Y0000559448I-0000150787D01X0002175196Y0000559448I-0000150787D01G03G03X0002175196Y0000559448I-0000150787D01G03G03X0002175196Y0000559448I-0000150787D01X0002175196Y0000559448I-0000150787D01X0002175196Y0000559448I-0000150787D01X0002175196Y0000559448I-0000150787D01X0002175196Y0000559448I-0000150787D01*
G01G01G01G01G01G01G01G01G01G01G01G01G01G01G01G01*
D105*
X0002129133Y0000559448D02*
G75*
G03G03G03G03X0002129133Y0000559448I-0000104724D01X0002129133Y0000559448I-0000104724D01G03G03X0002129133Y0000559448I-0000104724D01G03G03X0002129133Y0000559448I-0000104724D01X0002129133Y0000559448I-0000104724D01X0002129133Y0000559448I-0000104724D01X0002129133Y0000559448I-0000104724D01G03G03G03G03X0002129133Y0000559448I-0000104724D01X0002129133Y0000559448I-0000104724D01X0002129133Y0000559448I-0000104724D01G03G03X0002129133Y0000559448I-0000104724D01G03G03X0002129133Y0000559448I-0000104724D01X0002129133Y0000559448I-0000104724D01X0002129133Y0000559448I-0000104724D01X0002129133Y0000559448I-0000104724D01X0002129133Y0000559448I-0000104724D01*
G01G01G01G01G01G01G01G01G01G01G01G01G01G01G01G01*
D103*
X0002651181Y0001188582D02*
X0002651181Y0001032283D01*
D104*
X0002687007Y0001110629D02*
G75*
G03G03G03G03X0002687007Y0001110629I-0000150787D01X0002687007Y0001110629I-0000150787D01G03G03X0002687007Y0001110629I-0000150787D01G03G03X0002687007Y0001110629I-0000150787D01X0002687007Y0001110629I-0000150787D01X0002687007Y0001110629I-0000150787D01X0002687007Y0001110629I-0000150787D01G03G03G03G03X0002687007Y0001110629I-0000150787D01X0002687007Y0001110629I-0000150787D01X0002687007Y0001110629I-0000150787D01G03G03X0002687007Y0001110629I-0000150787D01G03G03X0002687007Y0001110629I-0000150787D01X0002687007Y0001110629I-0000150787D01X0002687007Y0001110629I-0000150787D01X0002687007Y0001110629I-0000150787D01X0002687007Y0001110629I-0000150787D01*
G01G01G01G01G01G01G01G01G01G01G01G01G01G01G01G01*
D105*
X0002640944Y0001110629D02*
G75*
G03G03G03G03X0002640944Y0001110629I-0000104724D01X0002640944Y0001110629I-0000104724D01G03G03X0002640944Y0001110629I-0000104724D01G03G03X0002640944Y0001110629I-0000104724D01X0002640944Y0001110629I-0000104724D01X0002640944Y0001110629I-0000104724D01X0002640944Y0001110629I-0000104724D01G03G03G03G03X0002640944Y0001110629I-0000104724D01X0002640944Y0001110629I-0000104724D01X0002640944Y0001110629I-0000104724D01G03G03X0002640944Y0001110629I-0000104724D01G03G03X0002640944Y0001110629I-0000104724D01X0002640944Y0001110629I-0000104724D01X0002640944Y0001110629I-0000104724D01X0002640944Y0001110629I-0000104724D01X0002640944Y0001110629I-0000104724D01*
G01G01G01G01G01G01G01G01G01G01G01G01G01G01G01G01*
D103*
X0002139370Y0001188582D02*
X0002139370Y0001032283D01*
D104*
X0002175196Y0001110629D02*
G75*
G03G03G03G03X0002175196Y0001110629I-0000150787D01X0002175196Y0001110629I-0000150787D01G03G03X0002175196Y0001110629I-0000150787D01G03G03X0002175196Y0001110629I-0000150787D01X0002175196Y0001110629I-0000150787D01X0002175196Y0001110629I-0000150787D01X0002175196Y0001110629I-0000150787D01G03G03G03G03X0002175196Y0001110629I-0000150787D01X0002175196Y0001110629I-0000150787D01X0002175196Y0001110629I-0000150787D01G03G03X0002175196Y0001110629I-0000150787D01G03G03X0002175196Y0001110629I-0000150787D01X0002175196Y0001110629I-0000150787D01X0002175196Y0001110629I-0000150787D01X0002175196Y0001110629I-0000150787D01X0002175196Y0001110629I-0000150787D01*
G01G01G01G01G01G01G01G01G01G01G01G01G01G01G01G01*
D105*
X0002129133Y0001110629D02*
G75*
G03G03G03G03X0002129133Y0001110629I-0000104724D01X0002129133Y0001110629I-0000104724D01G03G03X0002129133Y0001110629I-0000104724D01G03G03X0002129133Y0001110629I-0000104724D01X0002129133Y0001110629I-0000104724D01X0002129133Y0001110629I-0000104724D01X0002129133Y0001110629I-0000104724D01G03G03G03G03X0002129133Y0001110629I-0000104724D01X0002129133Y0001110629I-0000104724D01X0002129133Y0001110629I-0000104724D01G03G03X0002129133Y0001110629I-0000104724D01G03G03X0002129133Y0001110629I-0000104724D01X0002129133Y0001110629I-0000104724D01X0002129133Y0001110629I-0000104724D01X0002129133Y0001110629I-0000104724D01X0002129133Y0001110629I-0000104724D01*
G01G01G01G01G01G01G01G01G01G01G01G01G01G01G01G01*
D103*
X0001588188Y0000637401D02*
X0001588188Y0000481101D01*
D104*
X0001624015Y0000559448D02*
G75*
G03G03G03G03X0001624015Y0000559448I-0000150787D01X0001624015Y0000559448I-0000150787D01G03G03X0001624015Y0000559448I-0000150787D01G03G03X0001624015Y0000559448I-0000150787D01X0001624015Y0000559448I-0000150787D01X0001624015Y0000559448I-0000150787D01X0001624015Y0000559448I-0000150787D01G03G03G03G03X0001624015Y0000559448I-0000150787D01X0001624015Y0000559448I-0000150787D01X0001624015Y0000559448I-0000150787D01G03G03X0001624015Y0000559448I-0000150787D01G03G03X0001624015Y0000559448I-0000150787D01X0001624015Y0000559448I-0000150787D01X0001624015Y0000559448I-0000150787D01X0001624015Y0000559448I-0000150787D01X0001624015Y0000559448I-0000150787D01*
G01G01G01G01G01G01G01G01G01G01G01G01G01G01G01G01*
D105*
X0001577952Y0000559448D02*
G75*
G03G03G03G03X0001577952Y0000559448I-0000104724D01X0001577952Y0000559448I-0000104724D01G03G03X0001577952Y0000559448I-0000104724D01G03G03X0001577952Y0000559448I-0000104724D01X0001577952Y0000559448I-0000104724D01X0001577952Y0000559448I-0000104724D01X0001577952Y0000559448I-0000104724D01G03G03G03G03X0001577952Y0000559448I-0000104724D01X0001577952Y0000559448I-0000104724D01X0001577952Y0000559448I-0000104724D01G03G03X0001577952Y0000559448I-0000104724D01G03G03X0001577952Y0000559448I-0000104724D01X0001577952Y0000559448I-0000104724D01X0001577952Y0000559448I-0000104724D01X0001577952Y0000559448I-0000104724D01X0001577952Y0000559448I-0000104724D01*
G01G01G01G01G01G01G01G01G01G01G01G01G01G01G01G01*
D103*
X0001076377Y0000637401D02*
X0001076377Y0000481101D01*
D104*
X0001112204Y0000559448D02*
G75*
G03G03G03G03X0001112204Y0000559448I-0000150787D01X0001112204Y0000559448I-0000150787D01G03G03X0001112204Y0000559448I-0000150787D01G03G03X0001112204Y0000559448I-0000150787D01X0001112204Y0000559448I-0000150787D01X0001112204Y0000559448I-0000150787D01X0001112204Y0000559448I-0000150787D01G03G03G03G03X0001112204Y0000559448I-0000150787D01X0001112204Y0000559448I-0000150787D01X0001112204Y0000559448I-0000150787D01G03G03X0001112204Y0000559448I-0000150787D01G03G03X0001112204Y0000559448I-0000150787D01X0001112204Y0000559448I-0000150787D01X0001112204Y0000559448I-0000150787D01X0001112204Y0000559448I-0000150787D01X0001112204Y0000559448I-0000150787D01*
G01G01G01G01G01G01G01G01G01G01G01G01G01G01G01G01*
D105*
X0001066141Y0000559448D02*
G75*
G03G03G03G03X0001066141Y0000559448I-0000104724D01X0001066141Y0000559448I-0000104724D01G03G03X0001066141Y0000559448I-0000104724D01G03G03X0001066141Y0000559448I-0000104724D01X0001066141Y0000559448I-0000104724D01X0001066141Y0000559448I-0000104724D01X0001066141Y0000559448I-0000104724D01G03G03G03G03X0001066141Y0000559448I-0000104724D01X0001066141Y0000559448I-0000104724D01X0001066141Y0000559448I-0000104724D01G03G03X0001066141Y0000559448I-0000104724D01G03G03X0001066141Y0000559448I-0000104724D01X0001066141Y0000559448I-0000104724D01X0001066141Y0000559448I-0000104724D01X0001066141Y0000559448I-0000104724D01X0001066141Y0000559448I-0000104724D01*
G01G01G01G01G01G01G01G01G01G01G01G01G01G01G01G01*
D103*
X0000564566Y0000637401D02*
X0000564566Y0000481101D01*
D104*
X0000600393Y0000559448D02*
G75*
G03G03G03G03X0000600393Y0000559448I-0000150787D01X0000600393Y0000559448I-0000150787D01G03G03X0000600393Y0000559448I-0000150787D01G03G03X0000600393Y0000559448I-0000150787D01X0000600393Y0000559448I-0000150787D01X0000600393Y0000559448I-0000150787D01X0000600393Y0000559448I-0000150787D01G03G03G03G03X0000600393Y0000559448I-0000150787D01X0000600393Y0000559448I-0000150787D01X0000600393Y0000559448I-0000150787D01G03G03X0000600393Y0000559448I-0000150787D01G03G03X0000600393Y0000559448I-0000150787D01X0000600393Y0000559448I-0000150787D01X0000600393Y0000559448I-0000150787D01X0000600393Y0000559448I-0000150787D01X0000600393Y0000559448I-0000150787D01*
G01G01G01G01G01G01G01G01G01G01G01G01G01G01G01G01*
D105*
X0000554330Y0000559448D02*
G75*
G03G03G03G03X0000554330Y0000559448I-0000104724D01X0000554330Y0000559448I-0000104724D01G03G03X0000554330Y0000559448I-0000104724D01G03G03X0000554330Y0000559448I-0000104724D01X0000554330Y0000559448I-0000104724D01X0000554330Y0000559448I-0000104724D01X0000554330Y0000559448I-0000104724D01G03G03G03G03X0000554330Y0000559448I-0000104724D01X0000554330Y0000559448I-0000104724D01X0000554330Y0000559448I-0000104724D01G03G03X0000554330Y0000559448I-0000104724D01G03G03X0000554330Y0000559448I-0000104724D01X0000554330Y0000559448I-0000104724D01X0000554330Y0000559448I-0000104724D01X0000554330Y0000559448I-0000104724D01X0000554330Y0000559448I-0000104724D01*
G01G01G01G01G01G01G01G01G01G01G01G01G01G01G01G01*
D103*
X0001588188Y0001188582D02*
X0001588188Y0001032283D01*
D104*
X0001624015Y0001110629D02*
G75*
G03G03G03G03X0001624015Y0001110629I-0000150787D01X0001624015Y0001110629I-0000150787D01G03G03X0001624015Y0001110629I-0000150787D01G03G03X0001624015Y0001110629I-0000150787D01X0001624015Y0001110629I-0000150787D01X0001624015Y0001110629I-0000150787D01X0001624015Y0001110629I-0000150787D01G03G03G03G03X0001624015Y0001110629I-0000150787D01X0001624015Y0001110629I-0000150787D01X0001624015Y0001110629I-0000150787D01G03G03X0001624015Y0001110629I-0000150787D01G03G03X0001624015Y0001110629I-0000150787D01X0001624015Y0001110629I-0000150787D01X0001624015Y0001110629I-0000150787D01X0001624015Y0001110629I-0000150787D01X0001624015Y0001110629I-0000150787D01*
G01G01G01G01G01G01G01G01G01G01G01G01G01G01G01G01*
D105*
X0001577952Y0001110629D02*
G75*
G03G03G03G03X0001577952Y0001110629I-0000104724D01X0001577952Y0001110629I-0000104724D01G03G03X0001577952Y0001110629I-0000104724D01G03G03X0001577952Y0001110629I-0000104724D01X0001577952Y0001110629I-0000104724D01X0001577952Y0001110629I-0000104724D01X0001577952Y0001110629I-0000104724D01G03G03G03G03X0001577952Y0001110629I-0000104724D01X0001577952Y0001110629I-0000104724D01X0001577952Y0001110629I-0000104724D01G03G03X0001577952Y0001110629I-0000104724D01G03G03X0001577952Y0001110629I-0000104724D01X0001577952Y0001110629I-0000104724D01X0001577952Y0001110629I-0000104724D01X0001577952Y0001110629I-0000104724D01X0001577952Y0001110629I-0000104724D01*
G01G01G01G01G01G01G01G01G01G01G01G01G01G01G01G01*
D103*
X0001076377Y0001188582D02*
X0001076377Y0001032283D01*
D104*
X0001112204Y0001110629D02*
G75*
G03G03G03G03X0001112204Y0001110629I-0000150787D01X0001112204Y0001110629I-0000150787D01G03G03X0001112204Y0001110629I-0000150787D01G03G03X0001112204Y0001110629I-0000150787D01X0001112204Y0001110629I-0000150787D01X0001112204Y0001110629I-0000150787D01X0001112204Y0001110629I-0000150787D01G03G03G03G03X0001112204Y0001110629I-0000150787D01X0001112204Y0001110629I-0000150787D01X0001112204Y0001110629I-0000150787D01G03G03X0001112204Y0001110629I-0000150787D01G03G03X0001112204Y0001110629I-0000150787D01X0001112204Y0001110629I-0000150787D01X0001112204Y0001110629I-0000150787D01X0001112204Y0001110629I-0000150787D01X0001112204Y0001110629I-0000150787D01*
G01G01G01G01G01G01G01G01G01G01G01G01G01G01G01G01*
D105*
X0001066141Y0001110629D02*
G75*
G03G03G03G03X0001066141Y0001110629I-0000104724D01X0001066141Y0001110629I-0000104724D01G03G03X0001066141Y0001110629I-0000104724D01G03G03X0001066141Y0001110629I-0000104724D01X0001066141Y0001110629I-0000104724D01X0001066141Y0001110629I-0000104724D01X0001066141Y0001110629I-0000104724D01G03G03G03G03X0001066141Y0001110629I-0000104724D01X0001066141Y0001110629I-0000104724D01X0001066141Y0001110629I-0000104724D01G03G03X0001066141Y0001110629I-0000104724D01G03G03X0001066141Y0001110629I-0000104724D01X0001066141Y0001110629I-0000104724D01X0001066141Y0001110629I-0000104724D01X0001066141Y0001110629I-0000104724D01X0001066141Y0001110629I-0000104724D01*
G01G01G01G01G01G01G01G01G01G01G01G01G01G01G01G01*
D103*
X0000564566Y0001188582D02*
X0000564566Y0001032283D01*
D104*
X0000600393Y0001110629D02*
G75*
G03G03G03G03X0000600393Y0001110629I-0000150787D01X0000600393Y0001110629I-0000150787D01G03G03X0000600393Y0001110629I-0000150787D01G03G03X0000600393Y0001110629I-0000150787D01X0000600393Y0001110629I-0000150787D01X0000600393Y0001110629I-0000150787D01X0000600393Y0001110629I-0000150787D01G03G03G03G03X0000600393Y0001110629I-0000150787D01X0000600393Y0001110629I-0000150787D01X0000600393Y0001110629I-0000150787D01G03G03X0000600393Y0001110629I-0000150787D01G03G03X0000600393Y0001110629I-0000150787D01X0000600393Y0001110629I-0000150787D01X0000600393Y0001110629I-0000150787D01X0000600393Y0001110629I-0000150787D01X0000600393Y0001110629I-0000150787D01*
G01G01G01G01G01G01G01G01G01G01G01G01G01G01G01G01*
D105*
X0000554330Y0001110629D02*
G75*
G03G03G03G03X0000554330Y0001110629I-0000104724D01X0000554330Y0001110629I-0000104724D01G03G03X0000554330Y0001110629I-0000104724D01G03G03X0000554330Y0001110629I-0000104724D01X0000554330Y0001110629I-0000104724D01X0000554330Y0001110629I-0000104724D01X0000554330Y0001110629I-0000104724D01G03G03G03G03X0000554330Y0001110629I-0000104724D01X0000554330Y0001110629I-0000104724D01X0000554330Y0001110629I-0000104724D01G03G03X0000554330Y0001110629I-0000104724D01G03G03X0000554330Y0001110629I-0000104724D01X0000554330Y0001110629I-0000104724D01X0000554330Y0001110629I-0000104724D01X0000554330Y0001110629I-0000104724D01X0000554330Y0001110629I-0000104724D01*
G01G01G01G01G01G01G01G01G01G01G01G01G01G01G01G01*
D106*
G36*
X0002788375Y0001378075D02*
X0002778306Y0001303423D01*
X0000188532Y0001302639D01*
X0000189578Y0001380035D01*
X0002788375Y0001378075D01*
X0002788375Y0001378075D01*
G37*
X0002788375Y0001378075D02*
X0002778306Y0001303423D01*
X0000188532Y0001302639D01*
X0000189578Y0001380035D01*
X0002788375Y0001378075D01*
G36*
X0002760725Y-0000000903D02*
X0000233323Y-0000000119D01*
X0000232975Y0000075316D01*
X0002760376Y0000076100D01*
X0002760725Y-0000000903D01*
X0002760725Y-0000000903D01*
G37*
X0002760725Y-0000000903D02*
X0000233323Y-0000000119D01*
X0000232975Y0000075316D01*
X0002760376Y0000076100D01*
X0002760725Y-0000000903D01*
G36*
X0002672462Y0000187677D02*
X0000320258Y0000187677D01*
X0000320258Y0000240669D01*
X0002672462Y0000240669D01*
X0002672462Y0000187677D01*
X0002672462Y0000187677D01*
G37*
X0002672462Y0000187677D02*
X0000320258Y0000187677D01*
X0000320258Y0000240669D01*
X0002672462Y0000240669D01*
X0002672462Y0000187677D01*
G36*
X0002993820Y0000995369D02*
X0002984507Y0000982951D01*
X0002957086Y0000982951D01*
X0002955173Y0000982572D01*
X0002953551Y0000981488D01*
X0002952467Y0000979865D01*
X0002952086Y0000977963D01*
X0002950905Y0000403159D01*
X0002951282Y0000401245D01*
X0002952362Y0000399621D01*
X0002953982Y0000398534D01*
X0002955905Y0000398149D01*
X0002984936Y0000398149D01*
X0002993818Y0000389267D01*
X0002993818Y-0000001299D01*
X0002757339Y-0000001299D01*
X0002756968Y0000080329D01*
X0002756968Y0000165262D01*
X0002759935Y0000169217D01*
X0002762108Y0000170220D01*
X0002766277Y0000168831D01*
X0002789628Y0000146939D01*
X0002792804Y0000134941D01*
X0002794214Y0000132576D01*
X0002807206Y0000120370D01*
X0002808732Y0000119388D01*
X0002824086Y0000113090D01*
X0002825984Y0000112716D01*
X0002840944Y0000112716D01*
X0002843439Y0000113383D01*
X0002856431Y0000120863D01*
X0002857249Y0000121451D01*
X0002867486Y0000130506D01*
X0002868791Y0000132336D01*
X0002875484Y0000148478D01*
X0002875863Y0000150540D01*
X0002875470Y0000163926D01*
X0002875124Y0000165611D01*
X0002870006Y0000178604D01*
X0002869017Y0000180172D01*
X0002858782Y0000191197D01*
X0002857116Y0000192378D01*
X0002842610Y0000198701D01*
X0002820257Y0000220688D01*
X0002818685Y0000226977D01*
X0002820678Y0000230965D01*
X0002826456Y0000233991D01*
X0002888251Y0000234764D01*
X0002890160Y0000235168D01*
X0002891768Y0000236272D01*
X0002892831Y0000237908D01*
X0002893188Y0000239762D01*
X0002893188Y0000314566D01*
X0002892808Y0000316480D01*
X0002891723Y0000318102D01*
X0002890102Y0000319186D01*
X0002888249Y0000319566D01*
X0002796341Y0000320687D01*
X0002796729Y0001058074D01*
X0002887090Y0001059567D01*
X0002888997Y0001059979D01*
X0002890601Y0001061090D01*
X0002891658Y0001062730D01*
X0002892006Y0001064540D01*
X0002892401Y0001140131D01*
X0002892030Y0001142046D01*
X0002890955Y0001143674D01*
X0002889339Y0001144766D01*
X0002887430Y0001145157D01*
X0002822448Y0001145539D01*
X0002818922Y0001148813D01*
X0002817129Y0001151952D01*
X0002817932Y0001155365D01*
X0002840191Y0001177989D01*
X0002851755Y0001182326D01*
X0002853441Y0001183380D01*
X0002868795Y0001197947D01*
X0002870107Y0001200024D01*
X0002876013Y0001218134D01*
X0002876094Y0001220962D01*
X0002870582Y0001241828D01*
X0002869330Y0001244039D01*
X0002854763Y0001258999D01*
X0002853155Y0001260105D01*
X0002852045Y0001260436D01*
X0002829604Y0001264373D01*
X0002827527Y0001264299D01*
X0002813354Y0001260756D01*
X0002811366Y0001259746D01*
X0002797192Y0001247935D01*
X0002795788Y0001246042D01*
X0002787581Y0001226642D01*
X0002765868Y0001207874D01*
X0002763927Y0001207097D01*
X0002760869Y0001207505D01*
X0002758631Y0001209540D01*
X0002756570Y0001215428D01*
X0002756181Y0001297153D01*
X0002759520Y0001378396D01*
X0002810165Y0001377676D01*
X0002810267Y0001377676D01*
X0002994207Y0001378826D01*
X0002993820Y0000995369D01*
X0002993820Y0000995369D01*
G37*
X0002993820Y0000995369D02*
X0002984507Y0000982951D01*
X0002957086Y0000982951D01*
X0002955173Y0000982572D01*
X0002953551Y0000981488D01*
X0002952467Y0000979865D01*
X0002952086Y0000977963D01*
X0002950905Y0000403159D01*
X0002951282Y0000401245D01*
X0002952362Y0000399621D01*
X0002953982Y0000398534D01*
X0002955905Y0000398149D01*
X0002984936Y0000398149D01*
X0002993818Y0000389267D01*
X0002993818Y-0000001299D01*
X0002757339Y-0000001299D01*
X0002756968Y0000080329D01*
X0002756968Y0000165262D01*
X0002759935Y0000169217D01*
X0002762108Y0000170220D01*
X0002766277Y0000168831D01*
X0002789628Y0000146939D01*
X0002792804Y0000134941D01*
X0002794214Y0000132576D01*
X0002807206Y0000120370D01*
X0002808732Y0000119388D01*
X0002824086Y0000113090D01*
X0002825984Y0000112716D01*
X0002840944Y0000112716D01*
X0002843439Y0000113383D01*
X0002856431Y0000120863D01*
X0002857249Y0000121451D01*
X0002867486Y0000130506D01*
X0002868791Y0000132336D01*
X0002875484Y0000148478D01*
X0002875863Y0000150540D01*
X0002875470Y0000163926D01*
X0002875124Y0000165611D01*
X0002870006Y0000178604D01*
X0002869017Y0000180172D01*
X0002858782Y0000191197D01*
X0002857116Y0000192378D01*
X0002842610Y0000198701D01*
X0002820257Y0000220688D01*
X0002818685Y0000226977D01*
X0002820678Y0000230965D01*
X0002826456Y0000233991D01*
X0002888251Y0000234764D01*
X0002890160Y0000235168D01*
X0002891768Y0000236272D01*
X0002892831Y0000237908D01*
X0002893188Y0000239762D01*
X0002893188Y0000314566D01*
X0002892808Y0000316480D01*
X0002891723Y0000318102D01*
X0002890102Y0000319186D01*
X0002888249Y0000319566D01*
X0002796341Y0000320687D01*
X0002796729Y0001058074D01*
X0002887090Y0001059567D01*
X0002888997Y0001059979D01*
X0002890601Y0001061090D01*
X0002891658Y0001062730D01*
X0002892006Y0001064540D01*
X0002892401Y0001140131D01*
X0002892030Y0001142046D01*
X0002890955Y0001143674D01*
X0002889339Y0001144766D01*
X0002887430Y0001145157D01*
X0002822448Y0001145539D01*
X0002818922Y0001148813D01*
X0002817129Y0001151952D01*
X0002817932Y0001155365D01*
X0002840191Y0001177989D01*
X0002851755Y0001182326D01*
X0002853441Y0001183380D01*
X0002868795Y0001197947D01*
X0002870107Y0001200024D01*
X0002876013Y0001218134D01*
X0002876094Y0001220962D01*
X0002870582Y0001241828D01*
X0002869330Y0001244039D01*
X0002854763Y0001258999D01*
X0002853155Y0001260105D01*
X0002852045Y0001260436D01*
X0002829604Y0001264373D01*
X0002827527Y0001264299D01*
X0002813354Y0001260756D01*
X0002811366Y0001259746D01*
X0002797192Y0001247935D01*
X0002795788Y0001246042D01*
X0002787581Y0001226642D01*
X0002765868Y0001207874D01*
X0002763927Y0001207097D01*
X0002760869Y0001207505D01*
X0002758631Y0001209540D01*
X0002756570Y0001215428D01*
X0002756181Y0001297153D01*
X0002759520Y0001378396D01*
X0002810165Y0001377676D01*
X0002810267Y0001377676D01*
X0002994207Y0001378826D01*
X0002993820Y0000995369D01*
G36*
X0000230826Y0001299592D02*
X0000230826Y0001214658D01*
X0000227860Y0001210703D01*
X0000225686Y0001209700D01*
X0000221518Y0001211089D01*
X0000198167Y0001232981D01*
X0000194990Y0001244980D01*
X0000193580Y0001247345D01*
X0000180588Y0001259549D01*
X0000179063Y0001260531D01*
X0000163708Y0001266830D01*
X0000161811Y0001267204D01*
X0000146850Y0001267204D01*
X0000144355Y0001266537D01*
X0000131363Y0001259057D01*
X0000130545Y0001258469D01*
X0000120309Y0001249414D01*
X0000119003Y0001247584D01*
X0000112309Y0001231442D01*
X0000111931Y0001229380D01*
X0000112325Y0001215994D01*
X0000112670Y0001214309D01*
X0000117788Y0001201316D01*
X0000118776Y0001199747D01*
X0000129010Y0001188723D01*
X0000130676Y0001187542D01*
X0000145185Y0001181219D01*
X0000167537Y0001159233D01*
X0000169110Y0001152943D01*
X0000167115Y0001148955D01*
X0000161338Y0001145929D01*
X0000099543Y0001145157D01*
X0000097635Y0001144752D01*
X0000096026Y0001143648D01*
X0000094963Y0001142012D01*
X0000094606Y0001140157D01*
X0000094606Y0001065354D01*
X0000094986Y0001063440D01*
X0000096070Y0001061818D01*
X0000097692Y0001060734D01*
X0000099545Y0001060354D01*
X0000191454Y0001059233D01*
X0000191065Y0000321847D01*
X0000100704Y0000320353D01*
X0000098797Y0000319941D01*
X0000097193Y0000318830D01*
X0000096137Y0000317191D01*
X0000095787Y0000315379D01*
X0000095393Y0000239789D01*
X0000095764Y0000237874D01*
X0000096839Y0000236246D01*
X0000098456Y0000235154D01*
X0000100364Y0000234763D01*
X0000165345Y0000234381D01*
X0000168872Y0000231107D01*
X0000170666Y0000227968D01*
X0000169863Y0000224555D01*
X0000147604Y0000201930D01*
X0000136039Y0000197595D01*
X0000134353Y0000196540D01*
X0000118999Y0000181973D01*
X0000117686Y0000179896D01*
X0000111781Y0000161786D01*
X0000111701Y0000158959D01*
X0000117212Y0000138093D01*
X0000118464Y0000135881D01*
X0000133031Y0000120921D01*
X0000134639Y0000119815D01*
X0000135750Y0000119484D01*
X0000158191Y0000115547D01*
X0000160267Y0000115621D01*
X0000174441Y0000119165D01*
X0000176428Y0000120174D01*
X0000190602Y0000131985D01*
X0000192006Y0000133878D01*
X0000200213Y0000153278D01*
X0000221926Y0000172046D01*
X0000223867Y0000172823D01*
X0000226925Y0000172415D01*
X0000229163Y0000170380D01*
X0000231224Y0000164493D01*
X0000231613Y0000082767D01*
X0000228271Y0000001432D01*
X0000155501Y0000001062D01*
X-0000006412Y0000001062D01*
X-0000006025Y0000384551D01*
X0000003286Y0000396968D01*
X0000030708Y0000396968D01*
X0000032622Y0000397349D01*
X0000034244Y0000398431D01*
X0000035328Y0000400055D01*
X0000035708Y0000401958D01*
X0000036889Y0000976761D01*
X0000036513Y0000978675D01*
X0000035432Y0000980299D01*
X0000033812Y0000981387D01*
X0000031889Y0000981771D01*
X0000002858Y0000981771D01*
X-0000006023Y0000990653D01*
X-0000006023Y0001381220D01*
X0000230455Y0001381220D01*
X0000230826Y0001299592D01*
X0000230826Y0001299592D01*
G37*
X0000230826Y0001299592D02*
X0000230826Y0001214658D01*
X0000227860Y0001210703D01*
X0000225686Y0001209700D01*
X0000221518Y0001211089D01*
X0000198167Y0001232981D01*
X0000194990Y0001244980D01*
X0000193580Y0001247345D01*
X0000180588Y0001259549D01*
X0000179063Y0001260531D01*
X0000163708Y0001266830D01*
X0000161811Y0001267204D01*
X0000146850Y0001267204D01*
X0000144355Y0001266537D01*
X0000131363Y0001259057D01*
X0000130545Y0001258469D01*
X0000120309Y0001249414D01*
X0000119003Y0001247584D01*
X0000112309Y0001231442D01*
X0000111931Y0001229380D01*
X0000112325Y0001215994D01*
X0000112670Y0001214309D01*
X0000117788Y0001201316D01*
X0000118776Y0001199747D01*
X0000129010Y0001188723D01*
X0000130676Y0001187542D01*
X0000145185Y0001181219D01*
X0000167537Y0001159233D01*
X0000169110Y0001152943D01*
X0000167115Y0001148955D01*
X0000161338Y0001145929D01*
X0000099543Y0001145157D01*
X0000097635Y0001144752D01*
X0000096026Y0001143648D01*
X0000094963Y0001142012D01*
X0000094606Y0001140157D01*
X0000094606Y0001065354D01*
X0000094986Y0001063440D01*
X0000096070Y0001061818D01*
X0000097692Y0001060734D01*
X0000099545Y0001060354D01*
X0000191454Y0001059233D01*
X0000191065Y0000321847D01*
X0000100704Y0000320353D01*
X0000098797Y0000319941D01*
X0000097193Y0000318830D01*
X0000096137Y0000317191D01*
X0000095787Y0000315379D01*
X0000095393Y0000239789D01*
X0000095764Y0000237874D01*
X0000096839Y0000236246D01*
X0000098456Y0000235154D01*
X0000100364Y0000234763D01*
X0000165345Y0000234381D01*
X0000168872Y0000231107D01*
X0000170666Y0000227968D01*
X0000169863Y0000224555D01*
X0000147604Y0000201930D01*
X0000136039Y0000197595D01*
X0000134353Y0000196540D01*
X0000118999Y0000181973D01*
X0000117686Y0000179896D01*
X0000111781Y0000161786D01*
X0000111701Y0000158959D01*
X0000117212Y0000138093D01*
X0000118464Y0000135881D01*
X0000133031Y0000120921D01*
X0000134639Y0000119815D01*
X0000135750Y0000119484D01*
X0000158191Y0000115547D01*
X0000160267Y0000115621D01*
X0000174441Y0000119165D01*
X0000176428Y0000120174D01*
X0000190602Y0000131985D01*
X0000192006Y0000133878D01*
X0000200213Y0000153278D01*
X0000221926Y0000172046D01*
X0000223867Y0000172823D01*
X0000226925Y0000172415D01*
X0000229163Y0000170380D01*
X0000231224Y0000164493D01*
X0000231613Y0000082767D01*
X0000228271Y0000001432D01*
X0000155501Y0000001062D01*
X-0000006412Y0000001062D01*
X-0000006025Y0000384551D01*
X0000003286Y0000396968D01*
X0000030708Y0000396968D01*
X0000032622Y0000397349D01*
X0000034244Y0000398431D01*
X0000035328Y0000400055D01*
X0000035708Y0000401958D01*
X0000036889Y0000976761D01*
X0000036513Y0000978675D01*
X0000035432Y0000980299D01*
X0000033812Y0000981387D01*
X0000031889Y0000981771D01*
X0000002858Y0000981771D01*
X-0000006023Y0000990653D01*
X-0000006023Y0001381220D01*
X0000230455Y0001381220D01*
X0000230826Y0001299592D01*
G04 next file*
G04 #@! TF.FileFunction,Soldermask,Top*
G04 Gerber Fmt 4.6, Leading zero omitted, Abs format (unit mm)*
G04 Created by KiCad (PCBNEW (2016-09-17 revision 679eef1)-makepkg) date 09/24/16 16:35:10*
G01G01G01G01G01G01G01G01G01G01G01G01G01G01G01G01*
G04 APERTURE LIST*
G04 APERTURE END LIST*
D117*
D118*
X0002772909Y0001781477D02*
X0002771409Y0001778477D01*
X0002768410Y0001776977D01*
X0002741413Y0001776977D01*
X0002751912Y0001806974D02*
X0002772909Y0001806974D01*
X0002751912Y0001793475D02*
X0002768410Y0001793475D01*
X0002771409Y0001794974D01*
X0002772909Y0001797975D01*
X0002772909Y0001802474D01*
X0002771409Y0001805474D01*
X0002769910Y0001806974D01*
X0002751912Y0001817472D02*
X0002751912Y0001829471D01*
X0002772909Y0001821972D02*
X0002745912Y0001821972D01*
X0002742913Y0001823472D01*
X0002741413Y0001826471D01*
X0002741413Y0001829471D01*
X0002751912Y0001835470D02*
X0002751912Y0001847469D01*
X0002741413Y0001839970D02*
X0002768410Y0001839970D01*
X0002771409Y0001841469D01*
X0002772909Y0001844469D01*
X0002772909Y0001847469D01*
X0002771409Y0001869966D02*
X0002772909Y0001866966D01*
X0002772909Y0001860967D01*
X0002771409Y0001857967D01*
X0002768410Y0001856467D01*
X0002756411Y0001856467D01*
X0002753411Y0001857967D01*
X0002751912Y0001860967D01*
X0002751912Y0001866966D01*
X0002753411Y0001869966D01*
X0002756411Y0001871466D01*
X0002759411Y0001871466D01*
X0002762410Y0001856467D01*
X0002772909Y0001884964D02*
X0002741413Y0001884964D01*
X0002760911Y0001887963D02*
X0002772909Y0001896961D01*
X0002751912Y0001896961D02*
X0002763909Y0001884964D01*
D117*
X0002742838Y0001923617D02*
X0002741338Y0001925115D01*
X0002739838Y0001928116D01*
X0002739838Y0001935615D01*
X0002741338Y0001938615D01*
X0002742838Y0001940115D01*
X0002745837Y0001941615D01*
X0002748837Y0001941615D01*
X0002753337Y0001940115D01*
X0002771334Y0001922117D01*
X0002771334Y0001941615D01*
X0002739838Y0001961112D02*
X0002739838Y0001964112D01*
X0002741338Y0001967111D01*
X0002742838Y0001968611D01*
X0002745837Y0001970111D01*
X0002751837Y0001971611D01*
X0002759336Y0001971611D01*
X0002765335Y0001970111D01*
X0002768335Y0001968611D01*
X0002769835Y0001967111D01*
X0002771334Y0001964112D01*
X0002771334Y0001961112D01*
X0002769835Y0001958113D01*
X0002768335Y0001956613D01*
X0002765335Y0001955113D01*
X0002759336Y0001953613D01*
X0002751837Y0001953613D01*
X0002745837Y0001955113D01*
X0002742838Y0001956613D01*
X0002741338Y0001958113D01*
X0002739838Y0001961112D01*
X0002771334Y0002001607D02*
X0002771334Y0001983608D01*
X0002771334Y0001992608D02*
X0002739838Y0001992608D01*
X0002744338Y0001989608D01*
X0002747337Y0001986609D01*
X0002748837Y0001983608D01*
X0002739838Y0002028604D02*
X0002739838Y0002022605D01*
X0002741338Y0002019604D01*
X0002742838Y0002018104D01*
X0002747337Y0002015105D01*
X0002753337Y0002013605D01*
X0002765335Y0002013605D01*
X0002768335Y0002015105D01*
X0002769835Y0002016605D01*
X0002771334Y0002019604D01*
X0002771334Y0002025604D01*
X0002769835Y0002028604D01*
X0002768335Y0002030104D01*
X0002765335Y0002031603D01*
X0002757836Y0002031603D01*
X0002754836Y0002030104D01*
X0002753337Y0002028604D01*
X0002751837Y0002025604D01*
X0002751837Y0002019604D01*
X0002753337Y0002016605D01*
X0002754836Y0002015105D01*
X0002757836Y0002013605D01*
X0002739838Y0002051101D02*
X0002739838Y0002054101D01*
X0002741338Y0002057100D01*
X0002742838Y0002058600D01*
X0002745837Y0002060099D01*
X0002751837Y0002061599D01*
X0002759336Y0002061599D01*
X0002765335Y0002060099D01*
X0002768335Y0002058600D01*
X0002769835Y0002057100D01*
X0002771334Y0002054101D01*
X0002771334Y0002051101D01*
X0002769835Y0002048101D01*
X0002768335Y0002046602D01*
X0002765335Y0002045102D01*
X0002759336Y0002043602D01*
X0002751837Y0002043602D01*
X0002745837Y0002045102D01*
X0002742838Y0002046602D01*
X0002741338Y0002048101D01*
X0002739838Y0002051101D01*
X0002771334Y0002076598D02*
X0002771334Y0002082596D01*
X0002769835Y0002085597D01*
X0002768335Y0002087095D01*
X0002763835Y0002090096D01*
X0002757836Y0002091596D01*
X0002745837Y0002091596D01*
X0002742838Y0002090096D01*
X0002741338Y0002088596D01*
X0002739838Y0002085597D01*
X0002739838Y0002079597D01*
X0002741338Y0002076598D01*
X0002742838Y0002075098D01*
X0002745837Y0002073598D01*
X0002753337Y0002073598D01*
X0002756336Y0002075098D01*
X0002757836Y0002076598D01*
X0002759336Y0002079597D01*
X0002759336Y0002085597D01*
X0002757836Y0002088596D01*
X0002756336Y0002090096D01*
X0002753337Y0002091596D01*
X0002742838Y0002103594D02*
X0002741338Y0002105094D01*
X0002739838Y0002108094D01*
X0002739838Y0002115593D01*
X0002741338Y0002118592D01*
X0002742838Y0002120092D01*
X0002745837Y0002121592D01*
X0002748837Y0002121592D01*
X0002753337Y0002120092D01*
X0002771334Y0002102095D01*
X0002771334Y0002121592D01*
X0002750337Y0002148589D02*
X0002771334Y0002148589D01*
X0002738338Y0002141090D02*
X0002760836Y0002133591D01*
X0002760836Y0002153088D01*
D118*
X0002206242Y0001589295D02*
X0002227240Y0001589295D01*
X0002213742Y0001557799D01*
X0002252737Y0001589295D02*
X0002246737Y0001589295D01*
X0002243738Y0001587795D01*
X0002242238Y0001586294D01*
X0002239238Y0001581796D01*
X0002237739Y0001575796D01*
X0002237739Y0001563798D01*
X0002239238Y0001560798D01*
X0002240738Y0001559297D01*
X0002243738Y0001557799D01*
X0002249737Y0001557799D01*
X0002252737Y0001559297D01*
X0002254236Y0001560798D01*
X0002255736Y0001563798D01*
X0002255736Y0001571297D01*
X0002254236Y0001574294D01*
X0002252737Y0001575796D01*
X0002249737Y0001577296D01*
X0002243738Y0001577296D01*
X0002240738Y0001575796D01*
X0002239238Y0001574294D01*
X0002237739Y0001571297D01*
X0002266235Y0001557799D02*
X0002282733Y0001578796D01*
X0002266235Y0001578796D02*
X0002282733Y0001557799D01*
X0002291732Y0001589295D02*
X0002311229Y0001589295D01*
X0002300731Y0001577296D01*
X0002305230Y0001577296D01*
X0002308230Y0001575796D01*
X0002309730Y0001574294D01*
X0002311229Y0001571297D01*
X0002311229Y0001563798D01*
X0002309730Y0001560798D01*
X0002308230Y0001559297D01*
X0002305230Y0001557799D01*
X0002296231Y0001557799D01*
X0002293232Y0001559297D01*
X0002291732Y0001560798D01*
X0002339726Y0001589295D02*
X0002324728Y0001589295D01*
X0002323228Y0001574294D01*
X0002324728Y0001575796D01*
X0002327727Y0001577296D01*
X0002335226Y0001577296D01*
X0002338226Y0001575796D01*
X0002339726Y0001574294D01*
X0002341226Y0001571297D01*
X0002341226Y0001563798D01*
X0002339726Y0001560798D01*
X0002338226Y0001559297D01*
X0002335226Y0001557799D01*
X0002327727Y0001557799D01*
X0002324728Y0001559297D01*
X0002323228Y0001560798D01*
X0002351724Y0001557799D02*
X0002368222Y0001578796D01*
X0002351724Y0001578796D02*
X0002368222Y0001557799D01*
X0002396719Y0001557799D02*
X0002378721Y0001557799D01*
X0002387720Y0001557799D02*
X0002387720Y0001589295D01*
X0002384720Y0001584795D01*
X0002381721Y0001581796D01*
X0002378721Y0001580294D01*
X0002416216Y0001589295D02*
X0002419216Y0001589295D01*
X0002422215Y0001587795D01*
X0002423715Y0001586294D01*
X0002425215Y0001583295D01*
X0002426715Y0001577296D01*
X0002426715Y0001569797D01*
X0002425215Y0001563798D01*
X0002423715Y0001560798D01*
X0002422215Y0001559297D01*
X0002419216Y0001557799D01*
X0002416216Y0001557799D01*
X0002413217Y0001559297D01*
X0002411717Y0001560798D01*
X0002410217Y0001563798D01*
X0002408717Y0001569797D01*
X0002408717Y0001577296D01*
X0002410217Y0001583295D01*
X0002411717Y0001586294D01*
X0002413217Y0001587795D01*
X0002416216Y0001589295D01*
X0002446212Y0001589295D02*
X0002449212Y0001589295D01*
X0002452212Y0001587795D01*
X0002453712Y0001586294D01*
X0002455211Y0001583295D01*
X0002456711Y0001577296D01*
X0002456711Y0001569797D01*
X0002455211Y0001563798D01*
X0002453712Y0001560798D01*
X0002452212Y0001559297D01*
X0002449212Y0001557799D01*
X0002446212Y0001557799D01*
X0002443213Y0001559297D01*
X0002441713Y0001560798D01*
X0002440213Y0001563798D01*
X0002438713Y0001569797D01*
X0002438713Y0001577296D01*
X0002440213Y0001583295D01*
X0002441713Y0001586294D01*
X0002443213Y0001587795D01*
X0002446212Y0001589295D01*
X0002492707Y0001559297D02*
X0002495706Y0001557799D01*
X0002501706Y0001557799D01*
X0002504705Y0001559297D01*
X0002506205Y0001562298D01*
X0002506205Y0001563798D01*
X0002504705Y0001566797D01*
X0002501706Y0001568297D01*
X0002497206Y0001568297D01*
X0002494206Y0001569797D01*
X0002492707Y0001572797D01*
X0002492707Y0001574294D01*
X0002494206Y0001577296D01*
X0002497206Y0001578796D01*
X0002501706Y0001578796D01*
X0002504705Y0001577296D01*
X0002519703Y0001578796D02*
X0002519703Y0001547300D01*
X0002519703Y0001577296D02*
X0002522702Y0001578796D01*
X0002528701Y0001578796D01*
X0002531702Y0001577296D01*
X0002533202Y0001575796D01*
X0002534701Y0001572797D01*
X0002534701Y0001563798D01*
X0002533202Y0001560798D01*
X0002531702Y0001559297D01*
X0002528701Y0001557799D01*
X0002522702Y0001557799D01*
X0002519703Y0001559297D01*
X0002552699Y0001557799D02*
X0002549699Y0001559297D01*
X0002548200Y0001562298D01*
X0002548200Y0001589295D01*
X0002564698Y0001557799D02*
X0002564698Y0001578796D01*
X0002564698Y0001589295D02*
X0002563198Y0001587795D01*
X0002564698Y0001586294D01*
X0002566197Y0001587795D01*
X0002564698Y0001589295D01*
X0002564698Y0001586294D01*
X0002575196Y0001578796D02*
X0002587194Y0001578796D01*
X0002579696Y0001589295D02*
X0002579696Y0001562298D01*
X0002581195Y0001559297D01*
X0002584195Y0001557799D01*
X0002587194Y0001557799D01*
X0002620190Y0001559297D02*
X0002623190Y0001557799D01*
X0002629190Y0001557799D01*
X0002632189Y0001559297D01*
X0002633689Y0001562298D01*
X0002633689Y0001563798D01*
X0002632189Y0001566797D01*
X0002629190Y0001568297D01*
X0002624690Y0001568297D01*
X0002621691Y0001569797D01*
X0002620190Y0001572797D01*
X0002620190Y0001574294D01*
X0002621691Y0001577296D01*
X0002624690Y0001578796D01*
X0002629190Y0001578796D01*
X0002632189Y0001577296D01*
X0002647187Y0001557799D02*
X0002647187Y0001589295D01*
X0002660686Y0001557799D02*
X0002660686Y0001574294D01*
X0002659186Y0001577296D01*
X0002656185Y0001578796D01*
X0002651686Y0001578796D01*
X0002648687Y0001577296D01*
X0002647187Y0001575796D01*
X0002687682Y0001559297D02*
X0002684682Y0001557799D01*
X0002678683Y0001557799D01*
X0002675684Y0001559297D01*
X0002674184Y0001562298D01*
X0002674184Y0001574294D01*
X0002675684Y0001577296D01*
X0002678683Y0001578796D01*
X0002684682Y0001578796D01*
X0002687682Y0001577296D01*
X0002689182Y0001574294D01*
X0002689182Y0001571297D01*
X0002674184Y0001568297D01*
X0002707180Y0001557799D02*
X0002704180Y0001559297D01*
X0002702680Y0001562298D01*
X0002702680Y0001589295D01*
X0002723678Y0001557799D02*
X0002720677Y0001559297D01*
X0002719178Y0001562298D01*
X0002719178Y0001589295D01*
D119*
X0001220472Y0002301181D02*
X0001220472Y0002144881D01*
D120*
X0001256299Y0002223228D02*
G75*
G03G03G03G03X0001256299Y0002223228I-0000150787D01X0001256299Y0002223228I-0000150787D01G03G03X0001256299Y0002223228I-0000150787D01G03G03X0001256299Y0002223228I-0000150787D01X0001256299Y0002223228I-0000150787D01X0001256299Y0002223228I-0000150787D01X0001256299Y0002223228I-0000150787D01G03G03G03G03X0001256299Y0002223228I-0000150787D01X0001256299Y0002223228I-0000150787D01X0001256299Y0002223228I-0000150787D01G03G03X0001256299Y0002223228I-0000150787D01G03G03X0001256299Y0002223228I-0000150787D01X0001256299Y0002223228I-0000150787D01X0001256299Y0002223228I-0000150787D01X0001256299Y0002223228I-0000150787D01X0001256299Y0002223228I-0000150787D01*
G01G01G01G01G01G01G01G01G01G01G01G01G01G01G01G01*
D121*
X0001210236Y0002223228D02*
G75*
G03G03G03G03X0001210236Y0002223228I-0000104724D01X0001210236Y0002223228I-0000104724D01G03G03X0001210236Y0002223228I-0000104724D01G03G03X0001210236Y0002223228I-0000104724D01X0001210236Y0002223228I-0000104724D01X0001210236Y0002223228I-0000104724D01X0001210236Y0002223228I-0000104724D01G03G03G03G03X0001210236Y0002223228I-0000104724D01X0001210236Y0002223228I-0000104724D01X0001210236Y0002223228I-0000104724D01G03G03X0001210236Y0002223228I-0000104724D01G03G03X0001210236Y0002223228I-0000104724D01X0001210236Y0002223228I-0000104724D01X0001210236Y0002223228I-0000104724D01X0001210236Y0002223228I-0000104724D01X0001210236Y0002223228I-0000104724D01*
G01G01G01G01G01G01G01G01G01G01G01G01G01G01G01G01*
D119*
X0000708660Y0002301181D02*
X0000708660Y0002144881D01*
D120*
X0000744488Y0002223228D02*
G75*
G03G03G03G03X0000744488Y0002223228I-0000150787D01X0000744488Y0002223228I-0000150787D01G03G03X0000744488Y0002223228I-0000150787D01G03G03X0000744488Y0002223228I-0000150787D01X0000744488Y0002223228I-0000150787D01X0000744488Y0002223228I-0000150787D01X0000744488Y0002223228I-0000150787D01G03G03G03G03X0000744488Y0002223228I-0000150787D01X0000744488Y0002223228I-0000150787D01X0000744488Y0002223228I-0000150787D01G03G03X0000744488Y0002223228I-0000150787D01G03G03X0000744488Y0002223228I-0000150787D01X0000744488Y0002223228I-0000150787D01X0000744488Y0002223228I-0000150787D01X0000744488Y0002223228I-0000150787D01X0000744488Y0002223228I-0000150787D01*
G01G01G01G01G01G01G01G01G01G01G01G01G01G01G01G01*
D121*
X0000698425Y0002223228D02*
G75*
G03G03G03G03X0000698425Y0002223228I-0000104724D01X0000698425Y0002223228I-0000104724D01G03G03X0000698425Y0002223228I-0000104724D01G03G03X0000698425Y0002223228I-0000104724D01X0000698425Y0002223228I-0000104724D01X0000698425Y0002223228I-0000104724D01X0000698425Y0002223228I-0000104724D01G03G03G03G03X0000698425Y0002223228I-0000104724D01X0000698425Y0002223228I-0000104724D01X0000698425Y0002223228I-0000104724D01G03G03X0000698425Y0002223228I-0000104724D01G03G03X0000698425Y0002223228I-0000104724D01X0000698425Y0002223228I-0000104724D01X0000698425Y0002223228I-0000104724D01X0000698425Y0002223228I-0000104724D01X0000698425Y0002223228I-0000104724D01*
G01G01G01G01G01G01G01G01G01G01G01G01G01G01G01G01*
D119*
X0002519685Y0002301181D02*
X0002519685Y0002144881D01*
D120*
X0002555511Y0002223228D02*
G75*
G03G03G03G03X0002555511Y0002223228I-0000150787D01X0002555511Y0002223228I-0000150787D01G03G03X0002555511Y0002223228I-0000150787D01G03G03X0002555511Y0002223228I-0000150787D01X0002555511Y0002223228I-0000150787D01X0002555511Y0002223228I-0000150787D01X0002555511Y0002223228I-0000150787D01G03G03G03G03X0002555511Y0002223228I-0000150787D01X0002555511Y0002223228I-0000150787D01X0002555511Y0002223228I-0000150787D01G03G03X0002555511Y0002223228I-0000150787D01G03G03X0002555511Y0002223228I-0000150787D01X0002555511Y0002223228I-0000150787D01X0002555511Y0002223228I-0000150787D01X0002555511Y0002223228I-0000150787D01X0002555511Y0002223228I-0000150787D01*
G01G01G01G01G01G01G01G01G01G01G01G01G01G01G01G01*
D121*
X0002509448Y0002223228D02*
G75*
G03G03G03G03X0002509448Y0002223228I-0000104724D01X0002509448Y0002223228I-0000104724D01G03G03X0002509448Y0002223228I-0000104724D01G03G03X0002509448Y0002223228I-0000104724D01X0002509448Y0002223228I-0000104724D01X0002509448Y0002223228I-0000104724D01X0002509448Y0002223228I-0000104724D01G03G03G03G03X0002509448Y0002223228I-0000104724D01X0002509448Y0002223228I-0000104724D01X0002509448Y0002223228I-0000104724D01G03G03X0002509448Y0002223228I-0000104724D01G03G03X0002509448Y0002223228I-0000104724D01X0002509448Y0002223228I-0000104724D01X0002509448Y0002223228I-0000104724D01X0002509448Y0002223228I-0000104724D01X0002509448Y0002223228I-0000104724D01*
G01G01G01G01G01G01G01G01G01G01G01G01G01G01G01G01*
D119*
X0002007874Y0002301181D02*
X0002007874Y0002144881D01*
D120*
X0002043699Y0002223228D02*
G75*
G03G03G03G03X0002043699Y0002223228I-0000150787D01X0002043699Y0002223228I-0000150787D01G03G03X0002043699Y0002223228I-0000150787D01G03G03X0002043699Y0002223228I-0000150787D01X0002043699Y0002223228I-0000150787D01X0002043699Y0002223228I-0000150787D01X0002043699Y0002223228I-0000150787D01G03G03G03G03X0002043699Y0002223228I-0000150787D01X0002043699Y0002223228I-0000150787D01X0002043699Y0002223228I-0000150787D01G03G03X0002043699Y0002223228I-0000150787D01G03G03X0002043699Y0002223228I-0000150787D01X0002043699Y0002223228I-0000150787D01X0002043699Y0002223228I-0000150787D01X0002043699Y0002223228I-0000150787D01X0002043699Y0002223228I-0000150787D01*
G01G01G01G01G01G01G01G01G01G01G01G01G01G01G01G01*
D121*
X0001997637Y0002223228D02*
G75*
G03G03G03G03X0001997637Y0002223228I-0000104724D01X0001997637Y0002223228I-0000104724D01G03G03X0001997637Y0002223228I-0000104724D01G03G03X0001997637Y0002223228I-0000104724D01X0001997637Y0002223228I-0000104724D01X0001997637Y0002223228I-0000104724D01X0001997637Y0002223228I-0000104724D01G03G03G03G03X0001997637Y0002223228I-0000104724D01X0001997637Y0002223228I-0000104724D01X0001997637Y0002223228I-0000104724D01G03G03X0001997637Y0002223228I-0000104724D01G03G03X0001997637Y0002223228I-0000104724D01X0001997637Y0002223228I-0000104724D01X0001997637Y0002223228I-0000104724D01X0001997637Y0002223228I-0000104724D01X0001997637Y0002223228I-0000104724D01*
G01G01G01G01G01G01G01G01G01G01G01G01G01G01G01G01*
D122*
G36*
X0002788375Y0002834767D02*
X0002778306Y0002760116D01*
X0000188532Y0002759332D01*
X0000189578Y0002836728D01*
X0002788375Y0002834767D01*
X0002788375Y0002834767D01*
G37*
X0002788375Y0002834767D02*
X0002778306Y0002760116D01*
X0000188532Y0002759332D01*
X0000189578Y0002836728D01*
X0002788375Y0002834767D01*
G36*
X0002760725Y0001455787D02*
X0000233323Y0001456573D01*
X0000232975Y0001532009D01*
X0002760376Y0001532793D01*
X0002760725Y0001455787D01*
X0002760725Y0001455787D01*
G37*
X0002760725Y0001455787D02*
X0000233323Y0001456573D01*
X0000232975Y0001532009D01*
X0002760376Y0001532793D01*
X0002760725Y0001455787D01*
G36*
X0002993820Y0002452062D02*
X0002984507Y0002439645D01*
X0002957086Y0002439645D01*
X0002955173Y0002439265D01*
X0002953551Y0002438181D01*
X0002952467Y0002436559D01*
X0002952086Y0002434655D01*
X0002950905Y0001859852D01*
X0002951282Y0001857938D01*
X0002952362Y0001856314D01*
X0002953982Y0001855227D01*
X0002955905Y0001854842D01*
X0002984936Y0001854842D01*
X0002993818Y0001845960D01*
X0002993818Y0001455393D01*
X0002757339Y0001455393D01*
X0002756968Y0001537021D01*
X0002756968Y0001621955D01*
X0002759935Y0001625910D01*
X0002762108Y0001626913D01*
X0002766277Y0001625524D01*
X0002789628Y0001603632D01*
X0002792804Y0001591633D01*
X0002794214Y0001589269D01*
X0002807206Y0001577063D01*
X0002808732Y0001576082D01*
X0002824086Y0001569783D01*
X0002825984Y0001569409D01*
X0002840944Y0001569409D01*
X0002843439Y0001570076D01*
X0002856431Y0001577556D01*
X0002857249Y0001578144D01*
X0002867486Y0001587199D01*
X0002868791Y0001589029D01*
X0002875484Y0001605170D01*
X0002875863Y0001607233D01*
X0002875470Y0001620619D01*
X0002875124Y0001622305D01*
X0002870006Y0001635297D01*
X0002869017Y0001636864D01*
X0002858782Y0001647890D01*
X0002857116Y0001649071D01*
X0002842610Y0001655394D01*
X0002820257Y0001677381D01*
X0002818685Y0001683670D01*
X0002820678Y0001687658D01*
X0002826456Y0001690684D01*
X0002888251Y0001691457D01*
X0002890160Y0001691861D01*
X0002891768Y0001692965D01*
X0002892831Y0001694601D01*
X0002893188Y0001696456D01*
X0002893188Y0001771259D01*
X0002892808Y0001773173D01*
X0002891723Y0001774795D01*
X0002890102Y0001775879D01*
X0002888249Y0001776259D01*
X0002796341Y0001777380D01*
X0002796729Y0002514766D01*
X0002887090Y0002516260D01*
X0002888997Y0002516672D01*
X0002890601Y0002517783D01*
X0002891658Y0002519423D01*
X0002892006Y0002521233D01*
X0002892401Y0002596824D01*
X0002892030Y0002598738D01*
X0002890955Y0002600366D01*
X0002889339Y0002601459D01*
X0002887430Y0002601850D01*
X0002822448Y0002602232D01*
X0002818922Y0002605506D01*
X0002817129Y0002608644D01*
X0002817932Y0002612058D01*
X0002840191Y0002634682D01*
X0002851755Y0002639019D01*
X0002853441Y0002640073D01*
X0002868795Y0002654640D01*
X0002870107Y0002656717D01*
X0002876013Y0002674827D01*
X0002876094Y0002677654D01*
X0002870582Y0002698521D01*
X0002869330Y0002700732D01*
X0002854763Y0002715692D01*
X0002853155Y0002716798D01*
X0002852045Y0002717129D01*
X0002829604Y0002721066D01*
X0002827527Y0002720992D01*
X0002813354Y0002717449D01*
X0002811366Y0002716439D01*
X0002797192Y0002704628D01*
X0002795788Y0002702735D01*
X0002787581Y0002683335D01*
X0002765868Y0002664567D01*
X0002763927Y0002663789D01*
X0002760869Y0002664198D01*
X0002758631Y0002666233D01*
X0002756570Y0002672121D01*
X0002756181Y0002753846D01*
X0002759520Y0002835088D01*
X0002810165Y0002834369D01*
X0002810267Y0002834369D01*
X0002994207Y0002835519D01*
X0002993820Y0002452062D01*
X0002993820Y0002452062D01*
G37*
X0002993820Y0002452062D02*
X0002984507Y0002439645D01*
X0002957086Y0002439645D01*
X0002955173Y0002439265D01*
X0002953551Y0002438181D01*
X0002952467Y0002436559D01*
X0002952086Y0002434655D01*
X0002950905Y0001859852D01*
X0002951282Y0001857938D01*
X0002952362Y0001856314D01*
X0002953982Y0001855227D01*
X0002955905Y0001854842D01*
X0002984936Y0001854842D01*
X0002993818Y0001845960D01*
X0002993818Y0001455393D01*
X0002757339Y0001455393D01*
X0002756968Y0001537021D01*
X0002756968Y0001621955D01*
X0002759935Y0001625910D01*
X0002762108Y0001626913D01*
X0002766277Y0001625524D01*
X0002789628Y0001603632D01*
X0002792804Y0001591633D01*
X0002794214Y0001589269D01*
X0002807206Y0001577063D01*
X0002808732Y0001576082D01*
X0002824086Y0001569783D01*
X0002825984Y0001569409D01*
X0002840944Y0001569409D01*
X0002843439Y0001570076D01*
X0002856431Y0001577556D01*
X0002857249Y0001578144D01*
X0002867486Y0001587199D01*
X0002868791Y0001589029D01*
X0002875484Y0001605170D01*
X0002875863Y0001607233D01*
X0002875470Y0001620619D01*
X0002875124Y0001622305D01*
X0002870006Y0001635297D01*
X0002869017Y0001636864D01*
X0002858782Y0001647890D01*
X0002857116Y0001649071D01*
X0002842610Y0001655394D01*
X0002820257Y0001677381D01*
X0002818685Y0001683670D01*
X0002820678Y0001687658D01*
X0002826456Y0001690684D01*
X0002888251Y0001691457D01*
X0002890160Y0001691861D01*
X0002891768Y0001692965D01*
X0002892831Y0001694601D01*
X0002893188Y0001696456D01*
X0002893188Y0001771259D01*
X0002892808Y0001773173D01*
X0002891723Y0001774795D01*
X0002890102Y0001775879D01*
X0002888249Y0001776259D01*
X0002796341Y0001777380D01*
X0002796729Y0002514766D01*
X0002887090Y0002516260D01*
X0002888997Y0002516672D01*
X0002890601Y0002517783D01*
X0002891658Y0002519423D01*
X0002892006Y0002521233D01*
X0002892401Y0002596824D01*
X0002892030Y0002598738D01*
X0002890955Y0002600366D01*
X0002889339Y0002601459D01*
X0002887430Y0002601850D01*
X0002822448Y0002602232D01*
X0002818922Y0002605506D01*
X0002817129Y0002608644D01*
X0002817932Y0002612058D01*
X0002840191Y0002634682D01*
X0002851755Y0002639019D01*
X0002853441Y0002640073D01*
X0002868795Y0002654640D01*
X0002870107Y0002656717D01*
X0002876013Y0002674827D01*
X0002876094Y0002677654D01*
X0002870582Y0002698521D01*
X0002869330Y0002700732D01*
X0002854763Y0002715692D01*
X0002853155Y0002716798D01*
X0002852045Y0002717129D01*
X0002829604Y0002721066D01*
X0002827527Y0002720992D01*
X0002813354Y0002717449D01*
X0002811366Y0002716439D01*
X0002797192Y0002704628D01*
X0002795788Y0002702735D01*
X0002787581Y0002683335D01*
X0002765868Y0002664567D01*
X0002763927Y0002663789D01*
X0002760869Y0002664198D01*
X0002758631Y0002666233D01*
X0002756570Y0002672121D01*
X0002756181Y0002753846D01*
X0002759520Y0002835088D01*
X0002810165Y0002834369D01*
X0002810267Y0002834369D01*
X0002994207Y0002835519D01*
X0002993820Y0002452062D01*
G36*
X0000230826Y0002756284D02*
X0000230826Y0002671351D01*
X0000227860Y0002667396D01*
X0000225686Y0002666393D01*
X0000221518Y0002667782D01*
X0000198167Y0002689674D01*
X0000194990Y0002701673D01*
X0000193580Y0002704037D01*
X0000180588Y0002716241D01*
X0000179063Y0002717224D01*
X0000163708Y0002723523D01*
X0000161811Y0002723897D01*
X0000146850Y0002723897D01*
X0000144355Y0002723230D01*
X0000131363Y0002715750D01*
X0000130545Y0002715162D01*
X0000120309Y0002706107D01*
X0000119003Y0002704276D01*
X0000112309Y0002688135D01*
X0000111931Y0002686073D01*
X0000112325Y0002672687D01*
X0000112670Y0002671002D01*
X0000117788Y0002658009D01*
X0000118776Y0002656440D01*
X0000129010Y0002645416D01*
X0000130676Y0002644235D01*
X0000145185Y0002637912D01*
X0000167537Y0002615925D01*
X0000169110Y0002609636D01*
X0000167115Y0002605648D01*
X0000161338Y0002602622D01*
X0000099543Y0002601850D01*
X0000097635Y0002601445D01*
X0000096026Y0002600341D01*
X0000094963Y0002598705D01*
X0000094606Y0002596850D01*
X0000094606Y0002522047D01*
X0000094986Y0002520133D01*
X0000096070Y0002518511D01*
X0000097692Y0002517427D01*
X0000099545Y0002517047D01*
X0000191454Y0002515926D01*
X0000191065Y0001778540D01*
X0000100704Y0001777046D01*
X0000098797Y0001776634D01*
X0000097193Y0001775523D01*
X0000096137Y0001773884D01*
X0000095787Y0001772073D01*
X0000095393Y0001696482D01*
X0000095764Y0001694567D01*
X0000096839Y0001692939D01*
X0000098456Y0001691847D01*
X0000100364Y0001691456D01*
X0000165345Y0001691074D01*
X0000168872Y0001687800D01*
X0000170666Y0001684661D01*
X0000169863Y0001681248D01*
X0000147604Y0001658624D01*
X0000136039Y0001654287D01*
X0000134353Y0001653232D01*
X0000118999Y0001638666D01*
X0000117686Y0001636588D01*
X0000111781Y0001618478D01*
X0000111701Y0001615652D01*
X0000117212Y0001594786D01*
X0000118464Y0001592574D01*
X0000133031Y0001577614D01*
X0000134639Y0001576508D01*
X0000135750Y0001576177D01*
X0000158191Y0001572240D01*
X0000160267Y0001572314D01*
X0000174441Y0001575857D01*
X0000176428Y0001576867D01*
X0000190602Y0001588678D01*
X0000192006Y0001590571D01*
X0000200213Y0001609971D01*
X0000221926Y0001628739D01*
X0000223867Y0001629516D01*
X0000226925Y0001629108D01*
X0000229163Y0001627073D01*
X0000231224Y0001621185D01*
X0000231613Y0001539460D01*
X0000228271Y0001458125D01*
X0000155501Y0001457755D01*
X-0000006412Y0001457755D01*
X-0000006025Y0001841244D01*
X0000003286Y0001853661D01*
X0000030708Y0001853661D01*
X0000032622Y0001854041D01*
X0000034244Y0001855125D01*
X0000035328Y0001856747D01*
X0000035708Y0001858651D01*
X0000036889Y0002433454D01*
X0000036513Y0002435368D01*
X0000035432Y0002436992D01*
X0000033812Y0002438080D01*
X0000031889Y0002438464D01*
X0000002858Y0002438464D01*
X-0000006023Y0002447346D01*
X-0000006023Y0002837913D01*
X0000230455Y0002837913D01*
X0000230826Y0002756284D01*
X0000230826Y0002756284D01*
G37*
X0000230826Y0002756284D02*
X0000230826Y0002671351D01*
X0000227860Y0002667396D01*
X0000225686Y0002666393D01*
X0000221518Y0002667782D01*
X0000198167Y0002689674D01*
X0000194990Y0002701673D01*
X0000193580Y0002704037D01*
X0000180588Y0002716241D01*
X0000179063Y0002717224D01*
X0000163708Y0002723523D01*
X0000161811Y0002723897D01*
X0000146850Y0002723897D01*
X0000144355Y0002723230D01*
X0000131363Y0002715750D01*
X0000130545Y0002715162D01*
X0000120309Y0002706107D01*
X0000119003Y0002704276D01*
X0000112309Y0002688135D01*
X0000111931Y0002686073D01*
X0000112325Y0002672687D01*
X0000112670Y0002671002D01*
X0000117788Y0002658009D01*
X0000118776Y0002656440D01*
X0000129010Y0002645416D01*
X0000130676Y0002644235D01*
X0000145185Y0002637912D01*
X0000167537Y0002615925D01*
X0000169110Y0002609636D01*
X0000167115Y0002605648D01*
X0000161338Y0002602622D01*
X0000099543Y0002601850D01*
X0000097635Y0002601445D01*
X0000096026Y0002600341D01*
X0000094963Y0002598705D01*
X0000094606Y0002596850D01*
X0000094606Y0002522047D01*
X0000094986Y0002520133D01*
X0000096070Y0002518511D01*
X0000097692Y0002517427D01*
X0000099545Y0002517047D01*
X0000191454Y0002515926D01*
X0000191065Y0001778540D01*
X0000100704Y0001777046D01*
X0000098797Y0001776634D01*
X0000097193Y0001775523D01*
X0000096137Y0001773884D01*
X0000095787Y0001772073D01*
X0000095393Y0001696482D01*
X0000095764Y0001694567D01*
X0000096839Y0001692939D01*
X0000098456Y0001691847D01*
X0000100364Y0001691456D01*
X0000165345Y0001691074D01*
X0000168872Y0001687800D01*
X0000170666Y0001684661D01*
X0000169863Y0001681248D01*
X0000147604Y0001658624D01*
X0000136039Y0001654287D01*
X0000134353Y0001653232D01*
X0000118999Y0001638666D01*
X0000117686Y0001636588D01*
X0000111781Y0001618478D01*
X0000111701Y0001615652D01*
X0000117212Y0001594786D01*
X0000118464Y0001592574D01*
X0000133031Y0001577614D01*
X0000134639Y0001576508D01*
X0000135750Y0001576177D01*
X0000158191Y0001572240D01*
X0000160267Y0001572314D01*
X0000174441Y0001575857D01*
X0000176428Y0001576867D01*
X0000190602Y0001588678D01*
X0000192006Y0001590571D01*
X0000200213Y0001609971D01*
X0000221926Y0001628739D01*
X0000223867Y0001629516D01*
X0000226925Y0001629108D01*
X0000229163Y0001627073D01*
X0000231224Y0001621185D01*
X0000231613Y0001539460D01*
X0000228271Y0001458125D01*
X0000155501Y0001457755D01*
X-0000006412Y0001457755D01*
X-0000006025Y0001841244D01*
X0000003286Y0001853661D01*
X0000030708Y0001853661D01*
X0000032622Y0001854041D01*
X0000034244Y0001855125D01*
X0000035328Y0001856747D01*
X0000035708Y0001858651D01*
X0000036889Y0002433454D01*
X0000036513Y0002435368D01*
X0000035432Y0002436992D01*
X0000033812Y0002438080D01*
X0000031889Y0002438464D01*
X0000002858Y0002438464D01*
X-0000006023Y0002447346D01*
X-0000006023Y0002837913D01*
X0000230455Y0002837913D01*
X0000230826Y0002756284D01*
M02*