%MOIN*%
%OFA0B0*%
%FSLAX46Y46*%
%IPPOS*%
%LPD*%
%ADD10C,0.005905511811023622*%
%ADD11C,0.01968503937007874*%
%ADD12C,0.011811023622047244*%
%ADD13C,0.031496062992125991*%
%ADD14C,0.11811023622047245*%
%ADD15C,0.027559055118110236*%
%ADD16C,0.053149606299212608*%
%ADD17C,0.03937007874015748*%
%ADD28C,0.005905511811023622*%
%ADD29C,0.0039370078740157488*%
%ADD30C,0.20472440944881892*%
%ADD31C,0.01*%
%ADD42C,0.005905511811023622*%
%ADD43C,0.0039370078740157488*%
%ADD44C,0.20472440944881892*%
%ADD45C,0.01*%
%ADD56C,0.005905511811023622*%
%ADD57C,0.0039370078740157488*%
%ADD58C,0.20472440944881892*%
%ADD59C,0.01*%
%ADD70C,0.005905511811023622*%
%ADD71C,0.0039370078740157488*%
%ADD72C,0.20472440944881892*%
%ADD73C,0.01*%
%ADD84C,0.005905511811023622*%
%ADD95C,0.005905511811023622*%
%ADD106C,0.005905511811023622*%
%ADD107C,0.011811023622047244*%
%ADD108C,0.01968503937007874*%
%ADD109C,0.013779527559055118*%
%ADD110C,0.015748031496062995*%
%ADD111C,0.00039370078740157485*%
%ADD112C,0.031496062992125991*%
%ADD113C,0.11811023622047245*%
%ADD114C,0.027559055118110236*%
%ADD115C,0.053149606299212608*%
%ADD126C,0.005905511811023622*%
%ADD127C,0.01968503937007874*%
%ADD128C,0.011811023622047244*%
%ADD129C,0.015748031496062995*%
%ADD130C,0.00039370078740157485*%
%ADD131C,0.031496062992125991*%
%ADD132C,0.11811023622047245*%
%ADD133C,0.027559055118110236*%
%ADD134C,0.053149606299212608*%
%LPD*%
G01G01G01G01G01G01G01G01*
D10*
X0001692894Y0003465998D02*
X0001692894Y0003426628D01*
X0001692894Y0003464124D02*
X0001689519Y0003465998D01*
X0001682770Y0003465998D01*
X0001679395Y0003464124D01*
X0001677708Y0003462249D01*
X0001676019Y0003458499D01*
X0001676019Y0003447251D01*
X0001677708Y0003443501D01*
X0001679395Y0003441626D01*
X0001682770Y0003439752D01*
X0001689519Y0003439752D01*
X0001692894Y0003441626D01*
X0001655773Y0003439752D02*
X0001659148Y0003441626D01*
X0001660835Y0003445376D01*
X0001660835Y0003479122D01*
X0001627089Y0003465998D02*
X0001627089Y0003439752D01*
X0001642275Y0003465998D02*
X0001642275Y0003445376D01*
X0001640588Y0003441626D01*
X0001637213Y0003439752D01*
X0001632151Y0003439752D01*
X0001628777Y0003441626D01*
X0001627089Y0003443501D01*
X0001595031Y0003465998D02*
X0001595031Y0003434127D01*
X0001596718Y0003430378D01*
X0001598404Y0003428503D01*
X0001601780Y0003426628D01*
X0001606842Y0003426628D01*
X0001610217Y0003428503D01*
X0001595031Y0003441626D02*
X0001598404Y0003439752D01*
X0001605155Y0003439752D01*
X0001608529Y0003441626D01*
X0001610217Y0003443501D01*
X0001611904Y0003447251D01*
X0001611904Y0003458499D01*
X0001610217Y0003462249D01*
X0001608529Y0003464124D01*
X0001605155Y0003465998D01*
X0001598404Y0003465998D01*
X0001595031Y0003464124D01*
X0001525852Y0003480996D02*
X0001556223Y0003430378D01*
X0001488732Y0003441626D02*
X0001485357Y0003439752D01*
X0001478608Y0003439752D01*
X0001475233Y0003441626D01*
X0001473546Y0003445376D01*
X0001473546Y0003447251D01*
X0001475233Y0003451000D01*
X0001478608Y0003452875D01*
X0001483670Y0003452875D01*
X0001487044Y0003454750D01*
X0001488732Y0003458499D01*
X0001488732Y0003460373D01*
X0001487044Y0003464124D01*
X0001483670Y0003465998D01*
X0001478608Y0003465998D01*
X0001475233Y0003464124D01*
X0001453299Y0003439752D02*
X0001456673Y0003441626D01*
X0001458360Y0003443501D01*
X0001460048Y0003447251D01*
X0001460048Y0003458499D01*
X0001458360Y0003462249D01*
X0001456673Y0003464124D01*
X0001453299Y0003465998D01*
X0001448237Y0003465998D01*
X0001444862Y0003464124D01*
X0001443174Y0003462249D01*
X0001441488Y0003458499D01*
X0001441488Y0003447251D01*
X0001443174Y0003443501D01*
X0001444862Y0003441626D01*
X0001448237Y0003439752D01*
X0001453299Y0003439752D01*
X0001411116Y0003441626D02*
X0001414490Y0003439752D01*
X0001421240Y0003439752D01*
X0001424615Y0003441626D01*
X0001426302Y0003443501D01*
X0001427989Y0003447251D01*
X0001427989Y0003458499D01*
X0001426302Y0003462249D01*
X0001424615Y0003464124D01*
X0001421240Y0003465998D01*
X0001414490Y0003465998D01*
X0001411116Y0003464124D01*
X0001395931Y0003439752D02*
X0001395931Y0003479122D01*
X0001392556Y0003454750D02*
X0001382432Y0003439752D01*
X0001382432Y0003465998D02*
X0001395931Y0003451000D01*
X0001353749Y0003441626D02*
X0001357123Y0003439752D01*
X0001363872Y0003439752D01*
X0001367246Y0003441626D01*
X0001368934Y0003445376D01*
X0001368934Y0003460373D01*
X0001367246Y0003464124D01*
X0001363872Y0003465998D01*
X0001357123Y0003465998D01*
X0001353749Y0003464124D01*
X0001352061Y0003460373D01*
X0001352061Y0003456625D01*
X0001368934Y0003452875D01*
X0001341938Y0003465998D02*
X0001328439Y0003465998D01*
X0001336875Y0003479122D02*
X0001336875Y0003445376D01*
X0001335188Y0003441626D01*
X0001331814Y0003439752D01*
X0001328439Y0003439752D01*
X0000914772Y0003057862D02*
X0000914772Y0003097232D01*
X0000906335Y0003097232D01*
X0000901274Y0003095357D01*
X0000897899Y0003091607D01*
X0000896212Y0003087858D01*
X0000894525Y0003080359D01*
X0000894525Y0003074735D01*
X0000896212Y0003067235D01*
X0000897899Y0003063485D01*
X0000901274Y0003059737D01*
X0000906335Y0003057862D01*
X0000914772Y0003057862D01*
X0000859092Y0003061611D02*
X0000860779Y0003059737D01*
X0000865840Y0003057862D01*
X0000869215Y0003057862D01*
X0000874277Y0003059737D01*
X0000877652Y0003063485D01*
X0000879339Y0003067235D01*
X0000881026Y0003074735D01*
X0000881026Y0003080359D01*
X0000879339Y0003087858D01*
X0000877652Y0003091607D01*
X0000874277Y0003095357D01*
X0000869215Y0003097232D01*
X0000865840Y0003097232D01*
X0000860779Y0003095357D01*
X0000859092Y0003093481D01*
X0000801723Y0003097232D02*
X0000808473Y0003097232D01*
X0000811848Y0003095357D01*
X0000813535Y0003093481D01*
X0000816909Y0003087858D01*
X0000818597Y0003080359D01*
X0000818597Y0003065361D01*
X0000816909Y0003061611D01*
X0000815222Y0003059737D01*
X0000811848Y0003057862D01*
X0000805098Y0003057862D01*
X0000801723Y0003059737D01*
X0000800037Y0003061611D01*
X0000798349Y0003065361D01*
X0000798349Y0003074735D01*
X0000800037Y0003078484D01*
X0000801723Y0003080359D01*
X0000805098Y0003082234D01*
X0000811848Y0003082234D01*
X0000815222Y0003080359D01*
X0000816909Y0003078484D01*
X0000818597Y0003074735D01*
X0000783164Y0003072860D02*
X0000756167Y0003072860D01*
X0000720734Y0003057862D02*
X0000740981Y0003057862D01*
X0000730858Y0003057862D02*
X0000730858Y0003097232D01*
X0000734231Y0003091607D01*
X0000737607Y0003087858D01*
X0000740981Y0003085983D01*
X0000707236Y0003093481D02*
X0000705548Y0003095357D01*
X0000702174Y0003097232D01*
X0000693737Y0003097232D01*
X0000690363Y0003095357D01*
X0000688675Y0003093481D01*
X0000686988Y0003089733D01*
X0000686988Y0003085983D01*
X0000688675Y0003080359D01*
X0000708922Y0003057862D01*
X0000686988Y0003057862D01*
X0000649868Y0003097232D02*
X0000638057Y0003057862D01*
X0000626246Y0003097232D01*
D11*
X0001339968Y0003555987D02*
X0001233670Y0003555987D01*
X0001765166Y0003555987D02*
X0001670678Y0003555987D01*
X0001846686Y0003085515D02*
G75*
G02G02G02G02X0001763985Y0003004806I-0000080732D01X0001763985Y0003004806I-0000080732D01X0001763985Y0003004806I-0000080732D01G02G02X0001763985Y0003004806I-0000080732D01G02G02X0001763985Y0003004806I-0000080732D01X0001763985Y0003004806I-0000080732D01X0001763985Y0003004806I-0000080732D01X0001763985Y0003004806I-0000080732D01*
G01G01G01G01G01G01G01G01*
X0001232099Y0003004806D02*
G75*
G02G02G02G02X0001151386Y0003087507I-0000000003J0000080732D01X0001151386Y0003087507I-0000000003J0000080732D01X0001151386Y0003087507I-0000000003J0000080732D01G02G02X0001151386Y0003087507I-0000000003J0000080732D01G02G02X0001151386Y0003087507I-0000000003J0000080732D01X0001151386Y0003087507I-0000000003J0000080732D01X0001151386Y0003087507I-0000000003J0000080732D01X0001151386Y0003087507I-0000000003J0000080732D01*
G01G01G01G01G01G01G01G01*
X0001233670Y0003004806D02*
X0001765166Y0003004806D01*
X0001150993Y0003083545D02*
X0001150993Y0003473309D01*
X0001150993Y0003473309D02*
G75*
G02G02G02G02X0001233676Y0003555736I0000080714J0000001717D01X0001233676Y0003555736I0000080714J0000001717D01X0001233676Y0003555736I0000080714J0000001717D01G02G02X0001233676Y0003555736I0000080714J0000001717D01G02G02X0001233676Y0003555736I0000080714J0000001717D01X0001233676Y0003555736I0000080714J0000001717D01X0001233676Y0003555736I0000080714J0000001717D01X0001233676Y0003555736I0000080714J0000001717D01*
G01G01G01G01G01G01G01G01*
X0001767134Y0003556010D02*
G75*
G02G02G02G02X0001847843Y0003473309J-0000080732D01X0001847843Y0003473309J-0000080732D01X0001847843Y0003473309J-0000080732D01G02G02X0001847843Y0003473309J-0000080732D01G02G02X0001847843Y0003473309J-0000080732D01X0001847843Y0003473309J-0000080732D01X0001847843Y0003473309J-0000080732D01X0001847843Y0003473309J-0000080732D01*
G01G01G01G01G01G01G01G01*
X0001846662Y0003084727D02*
X0001847843Y0003473309D01*
X0000548630Y0003083545D02*
X0000548630Y0003473309D01*
X0000548630Y0003472916D02*
G75*
G02G02G02G02X0000631332Y0003553625I0000080732D01X0000631332Y0003553625I0000080732D01X0000631332Y0003553625I0000080732D01G02G02X0000631332Y0003553625I0000080732D01G02G02X0000631332Y0003553625I0000080732D01X0000631332Y0003553625I0000080732D01X0000631332Y0003553625I0000080732D01X0000631332Y0003553625I0000080732D01*
G01G01G01G01G01G01G01G01*
X0000629737Y0003002444D02*
G75*
G02G02G02G02X0000549024Y0003085145I-0000000003J0000080732D01X0000549024Y0003085145I-0000000003J0000080732D01X0000549024Y0003085145I-0000000003J0000080732D01G02G02X0000549024Y0003085145I-0000000003J0000080732D01G02G02X0000549024Y0003085145I-0000000003J0000080732D01X0000549024Y0003085145I-0000000003J0000080732D01X0000549024Y0003085145I-0000000003J0000080732D01X0000549024Y0003085145I-0000000003J0000080732D01*
G01G01G01G01G01G01G01G01*
X0000629921Y0003002439D02*
X0000921859Y0003002439D01*
X0001004165Y0003083152D02*
G75*
G02G02G02G02X0000921465Y0003002444I-0000080732D01X0000921465Y0003002444I-0000080732D01X0000921465Y0003002444I-0000080732D01G02G02X0000921465Y0003002444I-0000080732D01G02G02X0000921465Y0003002444I-0000080732D01X0000921465Y0003002444I-0000080732D01X0000921465Y0003002444I-0000080732D01X0000921465Y0003002444I-0000080732D01*
G01G01G01G01G01G01G01G01*
X0001004142Y0003084727D02*
X0001005323Y0003473309D01*
X0000924615Y0003556010D02*
G75*
G02G02G02G02X0001005323Y0003473309J-0000080732D01X0001005323Y0003473309J-0000080732D01X0001005323Y0003473309J-0000080732D01G02G02X0001005323Y0003473309J-0000080732D01G02G02X0001005323Y0003473309J-0000080732D01X0001005323Y0003473309J-0000080732D01X0001005323Y0003473309J-0000080732D01X0001005323Y0003473309J-0000080732D01*
G01G01G01G01G01G01G01G01*
D12*
X0000875402Y0003527866D02*
X0000875402Y0003598732D01*
X0000848405Y0003598732D01*
X0000841656Y0003595357D01*
X0000838282Y0003591982D01*
X0000834907Y0003585233D01*
X0000834907Y0003575110D01*
X0000838282Y0003568361D01*
X0000841656Y0003564986D01*
X0000848405Y0003561611D01*
X0000875402Y0003561611D01*
X0000811285Y0003598732D02*
X0000794412Y0003527866D01*
X0000780914Y0003578484D01*
X0000767416Y0003527866D01*
X0000750543Y0003598732D01*
X0000683051Y0003527866D02*
X0000706673Y0003561611D01*
X0000723546Y0003527866D02*
X0000723546Y0003598732D01*
X0000696549Y0003598732D01*
X0000689799Y0003595357D01*
X0000686426Y0003591982D01*
X0000683051Y0003585233D01*
X0000683051Y0003575110D01*
X0000686426Y0003568361D01*
X0000689799Y0003564986D01*
X0000696549Y0003561611D01*
X0000723546Y0003561611D01*
X0001590813Y0003598732D02*
X0001590813Y0003541364D01*
X0001587438Y0003534615D01*
X0001584062Y0003531240D01*
X0001577314Y0003527866D01*
X0001563816Y0003527866D01*
X0001557067Y0003531240D01*
X0001553692Y0003534615D01*
X0001550318Y0003541364D01*
X0001550318Y0003598732D01*
X0001519947Y0003531240D02*
X0001509823Y0003527866D01*
X0001492950Y0003527866D01*
X0001486201Y0003531240D01*
X0001482826Y0003534615D01*
X0001479452Y0003541364D01*
X0001479452Y0003548113D01*
X0001482826Y0003554862D01*
X0001486201Y0003558237D01*
X0001492950Y0003561611D01*
X0001506447Y0003564986D01*
X0001513197Y0003568361D01*
X0001516572Y0003571735D01*
X0001519947Y0003578484D01*
X0001519947Y0003585233D01*
X0001516572Y0003591982D01*
X0001513197Y0003595357D01*
X0001506447Y0003598732D01*
X0001489575Y0003598732D01*
X0001479452Y0003595357D01*
X0001425457Y0003564986D02*
X0001415335Y0003561611D01*
X0001411960Y0003558237D01*
X0001408585Y0003551488D01*
X0001408585Y0003541364D01*
X0001411960Y0003534615D01*
X0001415335Y0003531240D01*
X0001422084Y0003527866D01*
X0001449080Y0003527866D01*
X0001449080Y0003598732D01*
X0001425457Y0003598732D01*
X0001418709Y0003595357D01*
X0001415335Y0003591982D01*
X0001411960Y0003585233D01*
X0001411960Y0003578484D01*
X0001415335Y0003571735D01*
X0001418709Y0003568361D01*
X0001425457Y0003564986D01*
X0001449080Y0003564986D01*
D11*
X0002305299Y0003952049D02*
G75*
G02G02G02G02X0002388001Y0004032759I0000080732D01X0002388001Y0004032759I0000080732D01X0002388001Y0004032759I0000080732D01G02G02X0002388001Y0004032759I0000080732D01G02G02X0002388001Y0004032759I0000080732D01X0002388001Y0004032759I0000080732D01X0002388001Y0004032759I0000080732D01X0002388001Y0004032759I0000080732D01*
G01G01G01G01G01G01G01G01*
X0002305323Y0003950475D02*
X0002305323Y0003643413D01*
X0002386426Y0003560294D02*
G75*
G02G02G02G02X0002305717Y0003642995J0000080732D01X0002305717Y0003642995J0000080732D01X0002305717Y0003642995J0000080732D01G02G02X0002305717Y0003642995J0000080732D01G02G02X0002305717Y0003642995J0000080732D01X0002305717Y0003642995J0000080732D01X0002305717Y0003642995J0000080732D01X0002305717Y0003642995J0000080732D01*
G01G01G01G01G01G01G01G01*
D12*
X0002574558Y0003524716D02*
X0002598181Y0003558462D01*
X0002615053Y0003524716D02*
X0002615053Y0003595582D01*
X0002588057Y0003595582D01*
X0002581308Y0003592208D01*
X0002577933Y0003588833D01*
X0002574558Y0003582084D01*
X0002574558Y0003571960D01*
X0002577933Y0003565211D01*
X0002581308Y0003561836D01*
X0002588057Y0003558462D01*
X0002615053Y0003558462D01*
X0002544187Y0003561836D02*
X0002520565Y0003561836D01*
X0002510442Y0003524716D02*
X0002544187Y0003524716D01*
X0002544187Y0003595582D01*
X0002510442Y0003595582D01*
X0002456448Y0003561836D02*
X0002480070Y0003561836D01*
X0002480070Y0003524716D02*
X0002480070Y0003595582D01*
X0002446325Y0003595582D01*
X0002576246Y0003413355D02*
X0002579620Y0003409980D01*
X0002589744Y0003406606D01*
X0002596492Y0003406606D01*
X0002606617Y0003409980D01*
X0002613366Y0003416730D01*
X0002616741Y0003423479D01*
X0002620115Y0003436977D01*
X0002620115Y0003447101D01*
X0002616741Y0003460598D01*
X0002613366Y0003467348D01*
X0002606617Y0003474097D01*
X0002596492Y0003477472D01*
X0002589744Y0003477472D01*
X0002579620Y0003474097D01*
X0002576246Y0003470723D01*
X0002512129Y0003406606D02*
X0002545874Y0003406606D01*
X0002545874Y0003477472D01*
X0002488507Y0003406606D02*
X0002488507Y0003477472D01*
X0002448012Y0003406606D02*
X0002478383Y0003447101D01*
X0002448012Y0003477472D02*
X0002488507Y0003436977D01*
D11*
X0002683670Y0004032759D02*
X0002387607Y0004032759D01*
X0002679733Y0004032759D02*
G75*
G02G02G02G02X0002760442Y0003950058J-0000080732D01X0002760442Y0003950058J-0000080732D01X0002760442Y0003950058J-0000080732D01G02G02X0002760442Y0003950058J-0000080732D01G02G02X0002760442Y0003950058J-0000080732D01X0002760442Y0003950058J-0000080732D01X0002760442Y0003950058J-0000080732D01X0002760442Y0003950058J-0000080732D01*
G01G01G01G01G01G01G01G01*
X0002762410Y0003642995D02*
X0002760442Y0003950058D01*
X0002762410Y0003641026D02*
G75*
G02G02G02G02X0002679709Y0003560318I-0000080732D01X0002679709Y0003560318I-0000080732D01X0002679709Y0003560318I-0000080732D01G02G02X0002679709Y0003560318I-0000080732D01G02G02X0002679709Y0003560318I-0000080732D01X0002679709Y0003560318I-0000080732D01X0002679709Y0003560318I-0000080732D01X0002679709Y0003560318I-0000080732D01*
G01G01G01G01G01G01G01G01*
%LPC*%
D13*
X0002903543Y0004134645D02*
G75*
G03G03G03G03X0002903543Y0004134645I-0000070866D01X0002903543Y0004134645I-0000070866D01X0002903543Y0004134645I-0000070866D01G03G03X0002903543Y0004134645I-0000070866D01G03G03X0002903543Y0004134645I-0000070866D01X0002903543Y0004134645I-0000070866D01X0002903543Y0004134645I-0000070866D01X0002903543Y0004134645I-0000070866D01*
G01G01G01G01G01G01G01G01*
X0002902755Y0003068503D02*
G75*
G03G03G03G03X0002902755Y0003068503I-0000070866D01X0002902755Y0003068503I-0000070866D01X0002902755Y0003068503I-0000070866D01G03G03X0002902755Y0003068503I-0000070866D01G03G03X0002902755Y0003068503I-0000070866D01X0002902755Y0003068503I-0000070866D01X0002902755Y0003068503I-0000070866D01X0002902755Y0003068503I-0000070866D01*
G01G01G01G01G01G01G01G01*
X0000225984Y0003069685D02*
G75*
G03G03G03G03X0000225984Y0003069685I-0000070866D01X0000225984Y0003069685I-0000070866D01X0000225984Y0003069685I-0000070866D01G03G03X0000225984Y0003069685I-0000070866D01G03G03X0000225984Y0003069685I-0000070866D01X0000225984Y0003069685I-0000070866D01X0000225984Y0003069685I-0000070866D01X0000225984Y0003069685I-0000070866D01*
G01G01G01G01G01G01G01G01*
X0000226377Y0004134251D02*
G75*
G03G03G03G03X0000226377Y0004134251I-0000070866D01X0000226377Y0004134251I-0000070866D01X0000226377Y0004134251I-0000070866D01G03G03X0000226377Y0004134251I-0000070866D01G03G03X0000226377Y0004134251I-0000070866D01X0000226377Y0004134251I-0000070866D01X0000226377Y0004134251I-0000070866D01X0000226377Y0004134251I-0000070866D01*
G01G01G01G01G01G01G01G01*
D14*
X0002638591Y0003804184D02*
G75*
G03G03G03G03X0002638591Y0003804184I-0000104724D01X0002638591Y0003804184I-0000104724D01X0002638591Y0003804184I-0000104724D01G03G03X0002638591Y0003804184I-0000104724D01G03G03X0002638591Y0003804184I-0000104724D01X0002638591Y0003804184I-0000104724D01X0002638591Y0003804184I-0000104724D01X0002638591Y0003804184I-0000104724D01*
G01G01G01G01G01G01G01G01*
D15*
X0002649220Y0003876625D02*
X0002649220Y0003731349D01*
D16*
X0002684654Y0003804184D02*
G75*
G03G03G03G03X0002684654Y0003804184I-0000150787D01X0002684654Y0003804184I-0000150787D01X0002684654Y0003804184I-0000150787D01G03G03X0002684654Y0003804184I-0000150787D01G03G03X0002684654Y0003804184I-0000150787D01X0002684654Y0003804184I-0000150787D01X0002684654Y0003804184I-0000150787D01X0002684654Y0003804184I-0000150787D01*
G01G01G01G01G01G01G01G01*
D17*
X0000718366Y0004110235D03*
X0000838267Y0004110235D03*
X0000478562Y0004110235D03*
X0001078070Y0004110235D03*
X0000598464Y0004110235D03*
X0000958169Y0004110235D03*
X0001917381Y0004110235D03*
X0001317873Y0004110235D03*
X0001437775Y0004110235D03*
X0001677578Y0004110235D03*
X0001797480Y0004110235D03*
X0001557677Y0004110235D03*
X0001197972Y0004110235D03*
X0002516889Y0004110235D03*
X0002157185Y0004110235D03*
X0002277086Y0004110235D03*
X0002396988Y0004110235D03*
X0002037283Y0004110235D03*
X0002576948Y0004151968D03*
X0002457047Y0004151968D03*
X0002337145Y0004151968D03*
X0002217244Y0004151968D03*
X0002097342Y0004151968D03*
X0001977440Y0004151968D03*
X0001857539Y0004151968D03*
X0001737637Y0004151968D03*
X0001617736Y0004151968D03*
X0001497834Y0004151968D03*
X0001377933Y0004151968D03*
X0001258031Y0004151968D03*
X0001138129Y0004151968D03*
X0001018227Y0004151968D03*
X0000898326Y0004151968D03*
X0000778425Y0004151968D03*
X0000658523Y0004151968D03*
X0000538622Y0004151968D03*
X0000418720Y0004151968D03*
%LPD*%
G01G01G01G01G01G01G01G01*
D28*
D29*
X0003236314Y0004244094D02*
X0003236314Y0004262842D01*
X0003196944Y0004262842D01*
X0003236314Y0004230971D02*
X0003210067Y0004230971D01*
X0003196944Y0004230971D02*
X0003198818Y0004232845D01*
X0003200693Y0004230971D01*
X0003198818Y0004229096D01*
X0003196944Y0004230971D01*
X0003200693Y0004230971D01*
X0003236314Y0004212223D02*
X0003210067Y0004212223D01*
X0003213817Y0004212223D02*
X0003211942Y0004210348D01*
X0003210067Y0004206599D01*
X0003210067Y0004200974D01*
X0003211942Y0004197225D01*
X0003215691Y0004195350D01*
X0003236314Y0004195350D01*
X0003215691Y0004195350D02*
X0003211942Y0004193475D01*
X0003210067Y0004189726D01*
X0003210067Y0004184101D01*
X0003211942Y0004180352D01*
X0003215691Y0004178477D01*
X0003236314Y0004178477D01*
X0003234439Y0004144731D02*
X0003236314Y0004148481D01*
X0003236314Y0004155979D01*
X0003234439Y0004159728D01*
X0003230689Y0004161603D01*
X0003215691Y0004161603D01*
X0003211942Y0004159728D01*
X0003210067Y0004155979D01*
X0003210067Y0004148481D01*
X0003211942Y0004144731D01*
X0003215691Y0004142857D01*
X0003219441Y0004142857D01*
X0003223190Y0004161603D01*
X0003234439Y0004127859D02*
X0003236314Y0004122232D01*
X0003236314Y0004112860D01*
X0003234439Y0004109111D01*
X0003232563Y0004107236D01*
X0003228815Y0004105361D01*
X0003225065Y0004105361D01*
X0003221316Y0004107236D01*
X0003219441Y0004109111D01*
X0003217566Y0004112860D01*
X0003215691Y0004120358D01*
X0003213817Y0004124109D01*
X0003211942Y0004125984D01*
X0003208191Y0004127859D01*
X0003204443Y0004127859D01*
X0003200693Y0004125984D01*
X0003198818Y0004124109D01*
X0003196944Y0004120358D01*
X0003196944Y0004110985D01*
X0003198818Y0004105361D01*
X0003236314Y0004088488D02*
X0003196944Y0004088488D01*
X0003196944Y0004079115D01*
X0003198818Y0004073489D01*
X0003202568Y0004069740D01*
X0003206317Y0004067866D01*
X0003213817Y0004065991D01*
X0003219441Y0004065991D01*
X0003226940Y0004067866D01*
X0003230689Y0004069740D01*
X0003234439Y0004073489D01*
X0003236314Y0004079115D01*
X0003236314Y0004088488D01*
X0003236314Y0004026620D02*
X0003217566Y0004039745D01*
X0003236314Y0004049118D02*
X0003196944Y0004049118D01*
X0003196944Y0004034118D01*
X0003198818Y0004030369D01*
X0003200693Y0004028495D01*
X0003204443Y0004026620D01*
X0003210067Y0004026620D01*
X0003213817Y0004028495D01*
X0003215691Y0004030369D01*
X0003217566Y0004034118D01*
X0003217566Y0004049118D01*
%LPC*%
D30*
X0003435433Y0004146454D03*
D31*
G36*
X0003153921Y0004006967D02*
X0003078883Y0004006967D01*
X0003078123Y0004282795D01*
X0003153163Y0004282795D01*
X0003153921Y0004006967D01*
X0003153921Y0004006967D01*
G37*
X0003153921Y0004006967D02*
X0003078883Y0004006967D01*
X0003078123Y0004282795D01*
X0003153163Y0004282795D01*
X0003153921Y0004006967D01*
%LPD*%
G01G01G01G01G01G01G01G01*
D42*
D43*
X0003236314Y0003889763D02*
X0003236314Y0003908511D01*
X0003196944Y0003908511D01*
X0003236314Y0003876640D02*
X0003210067Y0003876640D01*
X0003196944Y0003876640D02*
X0003198818Y0003878515D01*
X0003200693Y0003876640D01*
X0003198818Y0003874765D01*
X0003196944Y0003876640D01*
X0003200693Y0003876640D01*
X0003236314Y0003857892D02*
X0003210067Y0003857892D01*
X0003213817Y0003857892D02*
X0003211942Y0003856017D01*
X0003210067Y0003852268D01*
X0003210067Y0003846644D01*
X0003211942Y0003842894D01*
X0003215691Y0003841019D01*
X0003236314Y0003841019D01*
X0003215691Y0003841019D02*
X0003211942Y0003839145D01*
X0003210067Y0003835395D01*
X0003210067Y0003829771D01*
X0003211942Y0003826021D01*
X0003215691Y0003824146D01*
X0003236314Y0003824146D01*
X0003234439Y0003790401D02*
X0003236314Y0003794150D01*
X0003236314Y0003801649D01*
X0003234439Y0003805399D01*
X0003230689Y0003807274D01*
X0003215691Y0003807274D01*
X0003211942Y0003805399D01*
X0003210067Y0003801649D01*
X0003210067Y0003794150D01*
X0003211942Y0003790401D01*
X0003215691Y0003788526D01*
X0003219441Y0003788526D01*
X0003223190Y0003807274D01*
X0003234439Y0003773528D02*
X0003236314Y0003767904D01*
X0003236314Y0003758530D01*
X0003234439Y0003754780D01*
X0003232563Y0003752905D01*
X0003228815Y0003751031D01*
X0003225065Y0003751031D01*
X0003221316Y0003752905D01*
X0003219441Y0003754780D01*
X0003217566Y0003758530D01*
X0003215691Y0003766029D01*
X0003213817Y0003769778D01*
X0003211942Y0003771652D01*
X0003208191Y0003773528D01*
X0003204443Y0003773528D01*
X0003200693Y0003771652D01*
X0003198818Y0003769778D01*
X0003196944Y0003766029D01*
X0003196944Y0003756655D01*
X0003198818Y0003751031D01*
X0003236314Y0003734158D02*
X0003196944Y0003734158D01*
X0003196944Y0003724784D01*
X0003198818Y0003719160D01*
X0003202568Y0003715410D01*
X0003206317Y0003713535D01*
X0003213817Y0003711661D01*
X0003219441Y0003711661D01*
X0003226940Y0003713535D01*
X0003230689Y0003715410D01*
X0003234439Y0003719160D01*
X0003236314Y0003724784D01*
X0003236314Y0003734158D01*
X0003236314Y0003672290D02*
X0003217566Y0003685414D01*
X0003236314Y0003694788D02*
X0003196944Y0003694788D01*
X0003196944Y0003679790D01*
X0003198818Y0003676040D01*
X0003200693Y0003674164D01*
X0003204443Y0003672290D01*
X0003210067Y0003672290D01*
X0003213817Y0003674164D01*
X0003215691Y0003676040D01*
X0003217566Y0003679790D01*
X0003217566Y0003694788D01*
%LPC*%
D44*
X0003435433Y0003792125D03*
D45*
G36*
X0003153921Y0003652637D02*
X0003078883Y0003652637D01*
X0003078123Y0003928464D01*
X0003153163Y0003928464D01*
X0003153921Y0003652637D01*
X0003153921Y0003652637D01*
G37*
X0003153921Y0003652637D02*
X0003078883Y0003652637D01*
X0003078123Y0003928464D01*
X0003153163Y0003928464D01*
X0003153921Y0003652637D01*
%LPD*%
G01G01G01G01G01G01G01G01*
D56*
D57*
X0003236314Y0003535433D02*
X0003236314Y0003554180D01*
X0003196944Y0003554180D01*
X0003236314Y0003522309D02*
X0003210067Y0003522309D01*
X0003196944Y0003522309D02*
X0003198818Y0003524184D01*
X0003200693Y0003522309D01*
X0003198818Y0003520434D01*
X0003196944Y0003522309D01*
X0003200693Y0003522309D01*
X0003236314Y0003503562D02*
X0003210067Y0003503562D01*
X0003213817Y0003503562D02*
X0003211942Y0003501687D01*
X0003210067Y0003497937D01*
X0003210067Y0003492313D01*
X0003211942Y0003488563D01*
X0003215691Y0003486689D01*
X0003236314Y0003486689D01*
X0003215691Y0003486689D02*
X0003211942Y0003484813D01*
X0003210067Y0003481064D01*
X0003210067Y0003475440D01*
X0003211942Y0003471691D01*
X0003215691Y0003469816D01*
X0003236314Y0003469816D01*
X0003234439Y0003436069D02*
X0003236314Y0003439820D01*
X0003236314Y0003447319D01*
X0003234439Y0003451068D01*
X0003230689Y0003452943D01*
X0003215691Y0003452943D01*
X0003211942Y0003451068D01*
X0003210067Y0003447319D01*
X0003210067Y0003439820D01*
X0003211942Y0003436069D01*
X0003215691Y0003434195D01*
X0003219441Y0003434195D01*
X0003223190Y0003452943D01*
X0003234439Y0003419197D02*
X0003236314Y0003413573D01*
X0003236314Y0003404199D01*
X0003234439Y0003400449D01*
X0003232563Y0003398575D01*
X0003228815Y0003396700D01*
X0003225065Y0003396700D01*
X0003221316Y0003398575D01*
X0003219441Y0003400449D01*
X0003217566Y0003404199D01*
X0003215691Y0003411697D01*
X0003213817Y0003415448D01*
X0003211942Y0003417322D01*
X0003208191Y0003419197D01*
X0003204443Y0003419197D01*
X0003200693Y0003417322D01*
X0003198818Y0003415448D01*
X0003196944Y0003411697D01*
X0003196944Y0003402324D01*
X0003198818Y0003396700D01*
X0003236314Y0003379827D02*
X0003196944Y0003379827D01*
X0003196944Y0003370453D01*
X0003198818Y0003364829D01*
X0003202568Y0003361079D01*
X0003206317Y0003359205D01*
X0003213817Y0003357330D01*
X0003219441Y0003357330D01*
X0003226940Y0003359205D01*
X0003230689Y0003361079D01*
X0003234439Y0003364829D01*
X0003236314Y0003370453D01*
X0003236314Y0003379827D01*
X0003236314Y0003317960D02*
X0003217566Y0003331083D01*
X0003236314Y0003340457D02*
X0003196944Y0003340457D01*
X0003196944Y0003325458D01*
X0003198818Y0003321709D01*
X0003200693Y0003319835D01*
X0003204443Y0003317960D01*
X0003210067Y0003317960D01*
X0003213817Y0003319835D01*
X0003215691Y0003321709D01*
X0003217566Y0003325458D01*
X0003217566Y0003340457D01*
%LPC*%
D58*
X0003435433Y0003437795D03*
D59*
G36*
X0003153921Y0003298307D02*
X0003078883Y0003298307D01*
X0003078123Y0003574133D01*
X0003153163Y0003574133D01*
X0003153921Y0003298307D01*
X0003153921Y0003298307D01*
G37*
X0003153921Y0003298307D02*
X0003078883Y0003298307D01*
X0003078123Y0003574133D01*
X0003153163Y0003574133D01*
X0003153921Y0003298307D01*
G04 next file*
%LPD*%
G01G01G01G01G01G01G01G01*
D70*
D71*
X0003236314Y0003181102D02*
X0003236314Y0003199850D01*
X0003196944Y0003199850D01*
X0003236314Y0003167978D02*
X0003210067Y0003167978D01*
X0003196944Y0003167978D02*
X0003198818Y0003169853D01*
X0003200693Y0003167978D01*
X0003198818Y0003166104D01*
X0003196944Y0003167978D01*
X0003200693Y0003167978D01*
X0003236314Y0003149230D02*
X0003210067Y0003149230D01*
X0003213817Y0003149230D02*
X0003211942Y0003147356D01*
X0003210067Y0003143607D01*
X0003210067Y0003137981D01*
X0003211942Y0003134233D01*
X0003215691Y0003132358D01*
X0003236314Y0003132358D01*
X0003215691Y0003132358D02*
X0003211942Y0003130483D01*
X0003210067Y0003126734D01*
X0003210067Y0003121109D01*
X0003211942Y0003117360D01*
X0003215691Y0003115485D01*
X0003236314Y0003115485D01*
X0003234439Y0003081739D02*
X0003236314Y0003085489D01*
X0003236314Y0003092988D01*
X0003234439Y0003096737D01*
X0003230689Y0003098612D01*
X0003215691Y0003098612D01*
X0003211942Y0003096737D01*
X0003210067Y0003092988D01*
X0003210067Y0003085489D01*
X0003211942Y0003081739D01*
X0003215691Y0003079865D01*
X0003219441Y0003079865D01*
X0003223190Y0003098612D01*
X0003234439Y0003064865D02*
X0003236314Y0003059242D01*
X0003236314Y0003049868D01*
X0003234439Y0003046119D01*
X0003232563Y0003044244D01*
X0003228815Y0003042369D01*
X0003225065Y0003042369D01*
X0003221316Y0003044244D01*
X0003219441Y0003046119D01*
X0003217566Y0003049868D01*
X0003215691Y0003057367D01*
X0003213817Y0003061117D01*
X0003211942Y0003062991D01*
X0003208191Y0003064865D01*
X0003204443Y0003064865D01*
X0003200693Y0003062991D01*
X0003198818Y0003061117D01*
X0003196944Y0003057367D01*
X0003196944Y0003047994D01*
X0003198818Y0003042369D01*
X0003236314Y0003025496D02*
X0003196944Y0003025496D01*
X0003196944Y0003016122D01*
X0003198818Y0003010497D01*
X0003202568Y0003006749D01*
X0003206317Y0003004874D01*
X0003213817Y0003002999D01*
X0003219441Y0003002999D01*
X0003226940Y0003004874D01*
X0003230689Y0003006749D01*
X0003234439Y0003010497D01*
X0003236314Y0003016122D01*
X0003236314Y0003025496D01*
X0003236314Y0002963629D02*
X0003217566Y0002976752D01*
X0003236314Y0002986125D02*
X0003196944Y0002986125D01*
X0003196944Y0002971128D01*
X0003198818Y0002967379D01*
X0003200693Y0002965504D01*
X0003204443Y0002963629D01*
X0003210067Y0002963629D01*
X0003213817Y0002965504D01*
X0003215691Y0002967379D01*
X0003217566Y0002971128D01*
X0003217566Y0002986125D01*
%LPC*%
D72*
X0003435433Y0003083464D03*
D73*
G36*
X0003153921Y0002943976D02*
X0003078883Y0002943976D01*
X0003078123Y0003219803D01*
X0003153163Y0003219803D01*
X0003153921Y0002943976D01*
X0003153921Y0002943976D01*
G37*
X0003153921Y0002943976D02*
X0003078883Y0002943976D01*
X0003078123Y0003219803D01*
X0003153163Y0003219803D01*
X0003153921Y0002943976D01*
%LPD*%
G01G01G01G01G01G01G01G01*
D84*
%LPC*%
G04 next file*
%LPD*%
G01G01G01G01G01G01G01G01*
D95*
%LPC*%
G04 next file*
%LPD*%
G01G01G01G01G01G01G01G01G01G01G01G01G01G01G01G01*
D106*
D107*
X0002514285Y0000830539D02*
X0002548031Y0000830539D01*
X0002548031Y0000901406D01*
D108*
X0002386614Y0000866535D02*
X0002177952Y0000866535D01*
D107*
X0002044655Y0000829953D02*
X0002044655Y0000900819D01*
X0002044655Y0000867074D02*
X0002004160Y0000867074D01*
X0002004160Y0000829953D02*
X0002004160Y0000900819D01*
D108*
X0001878346Y0000866929D02*
G75*
G02G02G02G02X0001797637Y0000949630J0000080732D01X0001797637Y0000949630J0000080732D01G02G02X0001797637Y0000949630J0000080732D01G02G02X0001797637Y0000949630J0000080732D01X0001797637Y0000949630J0000080732D01X0001797637Y0000949630J0000080732D01X0001797637Y0000949630J0000080732D01G02G02G02G02X0001797637Y0000949630J0000080732D01X0001797637Y0000949630J0000080732D01X0001797637Y0000949630J0000080732D01G02G02X0001797637Y0000949630J0000080732D01G02G02X0001797637Y0000949630J0000080732D01X0001797637Y0000949630J0000080732D01X0001797637Y0000949630J0000080732D01X0001797637Y0000949630J0000080732D01X0001797637Y0000949630J0000080732D01*
G01G01G01G01G01G01G01G01G01G01G01G01G01G01G01G01*
X0001795669Y0001256692D02*
X0001797637Y0000949630D01*
X0001795645Y0001258267D02*
G75*
G02G02G02G02X0001878346Y0001338976I0000080732D01X0001878346Y0001338976I0000080732D01G02G02X0001878346Y0001338976I0000080732D01G02G02X0001878346Y0001338976I0000080732D01X0001878346Y0001338976I0000080732D01X0001878346Y0001338976I0000080732D01X0001878346Y0001338976I0000080732D01G02G02G02G02X0001878346Y0001338976I0000080732D01X0001878346Y0001338976I0000080732D01X0001878346Y0001338976I0000080732D01G02G02X0001878346Y0001338976I0000080732D01G02G02X0001878346Y0001338976I0000080732D01X0001878346Y0001338976I0000080732D01X0001878346Y0001338976I0000080732D01X0001878346Y0001338976I0000080732D01X0001878346Y0001338976I0000080732D01*
G01G01G01G01G01G01G01G01G01G01G01G01G01G01G01G01*
X0002685826Y0001338976D02*
X0001878740Y0001338976D01*
X0002681889Y0001338976D02*
G75*
G02G02G02G02X0002762598Y0001256275J-0000080732D01X0002762598Y0001256275J-0000080732D01G02G02X0002762598Y0001256275J-0000080732D01G02G02X0002762598Y0001256275J-0000080732D01X0002762598Y0001256275J-0000080732D01X0002762598Y0001256275J-0000080732D01X0002762598Y0001256275J-0000080732D01G02G02G02G02X0002762598Y0001256275J-0000080732D01X0002762598Y0001256275J-0000080732D01X0002762598Y0001256275J-0000080732D01G02G02X0002762598Y0001256275J-0000080732D01G02G02X0002762598Y0001256275J-0000080732D01X0002762598Y0001256275J-0000080732D01X0002762598Y0001256275J-0000080732D01X0002762598Y0001256275J-0000080732D01X0002762598Y0001256275J-0000080732D01*
G01G01G01G01G01G01G01G01G01G01G01G01G01G01G01G01*
X0002762598Y0000946455D02*
X0002762598Y0001256275D01*
X0002762598Y0000946455D02*
G75*
G02G02G02G02X0002679897Y0000865747I-0000080732D01X0002679897Y0000865747I-0000080732D01G02G02X0002679897Y0000865747I-0000080732D01G02G02X0002679897Y0000865747I-0000080732D01X0002679897Y0000865747I-0000080732D01X0002679897Y0000865747I-0000080732D01X0002679897Y0000865747I-0000080732D01G02G02G02G02X0002679897Y0000865747I-0000080732D01X0002679897Y0000865747I-0000080732D01X0002679897Y0000865747I-0000080732D01G02G02X0002679897Y0000865747I-0000080732D01G02G02X0002679897Y0000865747I-0000080732D01X0002679897Y0000865747I-0000080732D01X0002679897Y0000865747I-0000080732D01X0002679897Y0000865747I-0000080732D01X0002679897Y0000865747I-0000080732D01*
G01G01G01G01G01G01G01G01G01G01G01G01G01G01G01G01*
D109*
X0002800187Y0001064323D02*
X0002800187Y0001014829D01*
X0002878927Y0001039576D02*
X0002800187Y0001039576D01*
X0002800187Y0000994207D02*
X0002878927Y0000936463D01*
X0002800187Y0000936463D02*
X0002878927Y0000994207D01*
X0002878927Y0000858099D02*
X0002878927Y0000907592D01*
X0002878927Y0000882845D02*
X0002800187Y0000882845D01*
X0002811436Y0000891094D01*
X0002818935Y0000899343D01*
X0002822683Y0000907592D01*
D108*
X0001795645Y0000707086D02*
G75*
G02G02G02G02X0001878346Y0000787794I0000080732D01X0001878346Y0000787794I0000080732D01G02G02X0001878346Y0000787794I0000080732D01G02G02X0001878346Y0000787794I0000080732D01X0001878346Y0000787794I0000080732D01X0001878346Y0000787794I0000080732D01X0001878346Y0000787794I0000080732D01G02G02G02G02X0001878346Y0000787794I0000080732D01X0001878346Y0000787794I0000080732D01X0001878346Y0000787794I0000080732D01G02G02X0001878346Y0000787794I0000080732D01G02G02X0001878346Y0000787794I0000080732D01X0001878346Y0000787794I0000080732D01X0001878346Y0000787794I0000080732D01X0001878346Y0000787794I0000080732D01X0001878346Y0000787794I0000080732D01*
G01G01G01G01G01G01G01G01G01G01G01G01G01G01G01G01*
X0001795669Y0000705511D02*
X0001797637Y0000398449D01*
X0001878346Y0000315748D02*
G75*
G02G02G02G02X0001797637Y0000398449J0000080732D01X0001797637Y0000398449J0000080732D01G02G02X0001797637Y0000398449J0000080732D01G02G02X0001797637Y0000398449J0000080732D01X0001797637Y0000398449J0000080732D01X0001797637Y0000398449J0000080732D01X0001797637Y0000398449J0000080732D01G02G02G02G02X0001797637Y0000398449J0000080732D01X0001797637Y0000398449J0000080732D01X0001797637Y0000398449J0000080732D01G02G02X0001797637Y0000398449J0000080732D01G02G02X0001797637Y0000398449J0000080732D01X0001797637Y0000398449J0000080732D01X0001797637Y0000398449J0000080732D01X0001797637Y0000398449J0000080732D01X0001797637Y0000398449J0000080732D01*
G01G01G01G01G01G01G01G01G01G01G01G01G01G01G01G01*
X0001618897Y0001338976D02*
G75*
G02G02G02G02X0001699606Y0001256275J-0000080732D01X0001699606Y0001256275J-0000080732D01G02G02X0001699606Y0001256275J-0000080732D01G02G02X0001699606Y0001256275J-0000080732D01X0001699606Y0001256275J-0000080732D01X0001699606Y0001256275J-0000080732D01X0001699606Y0001256275J-0000080732D01G02G02G02G02X0001699606Y0001256275J-0000080732D01X0001699606Y0001256275J-0000080732D01X0001699606Y0001256275J-0000080732D01G02G02X0001699606Y0001256275J-0000080732D01G02G02X0001699606Y0001256275J-0000080732D01X0001699606Y0001256275J-0000080732D01X0001699606Y0001256275J-0000080732D01X0001699606Y0001256275J-0000080732D01X0001699606Y0001256275J-0000080732D01*
G01G01G01G01G01G01G01G01G01G01G01G01G01G01G01G01*
X0001699606Y0000948425D02*
X0001699606Y0001256275D01*
X0001699606Y0000947244D02*
G75*
G02G02G02G02X0001616905Y0000866535I-0000080732D01X0001616905Y0000866535I-0000080732D01G02G02X0001616905Y0000866535I-0000080732D01G02G02X0001616905Y0000866535I-0000080732D01X0001616905Y0000866535I-0000080732D01X0001616905Y0000866535I-0000080732D01X0001616905Y0000866535I-0000080732D01G02G02G02G02X0001616905Y0000866535I-0000080732D01X0001616905Y0000866535I-0000080732D01X0001616905Y0000866535I-0000080732D01G02G02X0001616905Y0000866535I-0000080732D01G02G02X0001616905Y0000866535I-0000080732D01X0001616905Y0000866535I-0000080732D01X0001616905Y0000866535I-0000080732D01X0001616905Y0000866535I-0000080732D01X0001616905Y0000866535I-0000080732D01*
G01G01G01G01G01G01G01G01G01G01G01G01G01G01G01G01*
D107*
X0001503599Y0000901406D02*
X0001486724Y0000830539D01*
X0001473228Y0000881157D01*
X0001459730Y0000830539D01*
X0001442857Y0000901406D01*
D108*
X0001323622Y0000866535D02*
X0001114960Y0000866535D01*
D107*
X0000939482Y0000829953D02*
X0000973228Y0000829953D01*
X0000973228Y0000900819D01*
D108*
X0000811811Y0000866535D02*
X0000603149Y0000866535D01*
D107*
X0000469853Y0000830539D02*
X0000469853Y0000901406D01*
X0000469853Y0000867660D02*
X0000429358Y0000867660D01*
X0000429358Y0000830539D02*
X0000429358Y0000901406D01*
D108*
X0000304174Y0000867917D02*
G75*
G02G02G02G02X0000223465Y0000950618J0000080732D01X0000223465Y0000950618J0000080732D01G02G02X0000223465Y0000950618J0000080732D01G02G02X0000223465Y0000950618J0000080732D01X0000223465Y0000950618J0000080732D01X0000223465Y0000950618J0000080732D01X0000223465Y0000950618J0000080732D01G02G02G02G02X0000223465Y0000950618J0000080732D01X0000223465Y0000950618J0000080732D01X0000223465Y0000950618J0000080732D01G02G02X0000223465Y0000950618J0000080732D01G02G02X0000223465Y0000950618J0000080732D01X0000223465Y0000950618J0000080732D01X0000223465Y0000950618J0000080732D01X0000223465Y0000950618J0000080732D01X0000223465Y0000950618J0000080732D01*
G01G01G01G01G01G01G01G01G01G01G01G01G01G01G01G01*
X0001622834Y0001338976D02*
X0000305905Y0001338976D01*
X0000223204Y0001258267D02*
G75*
G02G02G02G02X0000305905Y0001338976I0000080732D01X0000305905Y0001338976I0000080732D01G02G02X0000305905Y0001338976I0000080732D01G02G02X0000305905Y0001338976I0000080732D01X0000305905Y0001338976I0000080732D01X0000305905Y0001338976I0000080732D01X0000305905Y0001338976I0000080732D01G02G02G02G02X0000305905Y0001338976I0000080732D01X0000305905Y0001338976I0000080732D01X0000305905Y0001338976I0000080732D01G02G02X0000305905Y0001338976I0000080732D01G02G02X0000305905Y0001338976I0000080732D01X0000305905Y0001338976I0000080732D01X0000305905Y0001338976I0000080732D01X0000305905Y0001338976I0000080732D01X0000305905Y0001338976I0000080732D01*
G01G01G01G01G01G01G01G01G01G01G01G01G01G01G01G01*
X0000223465Y0000950594D02*
X0000223465Y0001259650D01*
D109*
X0000183258Y0001015523D02*
X0000145762Y0001044394D01*
X0000183258Y0001065016D02*
X0000104518Y0001065016D01*
X0000104518Y0001032021D01*
X0000108267Y0001023771D01*
X0000112017Y0001019647D01*
X0000119515Y0001015523D01*
X0000130761Y0001015523D01*
X0000138263Y0001019647D01*
X0000142013Y0001023771D01*
X0000145762Y0001032021D01*
X0000145762Y0001065016D01*
X0000104518Y0000986651D02*
X0000183258Y0000928908D01*
X0000104518Y0000928908D02*
X0000183258Y0000986651D01*
X0000183258Y0000850543D02*
X0000183258Y0000900037D01*
X0000183258Y0000875290D02*
X0000104518Y0000875290D01*
X0000115766Y0000883539D01*
X0000123265Y0000891788D01*
X0000127012Y0000900037D01*
D107*
X0002044655Y0000278772D02*
X0002044655Y0000349638D01*
X0002044655Y0000315892D02*
X0002004160Y0000315892D01*
X0002004160Y0000278772D02*
X0002004160Y0000349638D01*
X0002514285Y0000279358D02*
X0002548031Y0000279358D01*
X0002548031Y0000350225D01*
D108*
X0002386614Y0000315353D02*
X0002177952Y0000315353D01*
X0002685826Y0000787794D02*
X0001878740Y0000787794D01*
X0002681889Y0000787794D02*
G75*
G02G02G02G02X0002762598Y0000705094J-0000080732D01X0002762598Y0000705094J-0000080732D01G02G02X0002762598Y0000705094J-0000080732D01G02G02X0002762598Y0000705094J-0000080732D01X0002762598Y0000705094J-0000080732D01X0002762598Y0000705094J-0000080732D01X0002762598Y0000705094J-0000080732D01G02G02G02G02X0002762598Y0000705094J-0000080732D01X0002762598Y0000705094J-0000080732D01X0002762598Y0000705094J-0000080732D01G02G02X0002762598Y0000705094J-0000080732D01G02G02X0002762598Y0000705094J-0000080732D01X0002762598Y0000705094J-0000080732D01X0002762598Y0000705094J-0000080732D01X0002762598Y0000705094J-0000080732D01X0002762598Y0000705094J-0000080732D01*
G01G01G01G01G01G01G01G01G01G01G01G01G01G01G01G01*
X0002762598Y0000395275D02*
X0002762598Y0000705094D01*
X0002762598Y0000396062D02*
G75*
G02G02G02G02X0002679897Y0000315353I-0000080732D01X0002679897Y0000315353I-0000080732D01G02G02X0002679897Y0000315353I-0000080732D01G02G02X0002679897Y0000315353I-0000080732D01X0002679897Y0000315353I-0000080732D01X0002679897Y0000315353I-0000080732D01X0002679897Y0000315353I-0000080732D01G02G02G02G02X0002679897Y0000315353I-0000080732D01X0002679897Y0000315353I-0000080732D01X0002679897Y0000315353I-0000080732D01G02G02X0002679897Y0000315353I-0000080732D01G02G02X0002679897Y0000315353I-0000080732D01X0002679897Y0000315353I-0000080732D01X0002679897Y0000315353I-0000080732D01X0002679897Y0000315353I-0000080732D01X0002679897Y0000315353I-0000080732D01*
G01G01G01G01G01G01G01G01G01G01G01G01G01G01G01G01*
D109*
X0002800187Y0000513142D02*
X0002800187Y0000463648D01*
X0002878927Y0000488394D02*
X0002800187Y0000488394D01*
X0002800187Y0000443025D02*
X0002878927Y0000385283D01*
X0002800187Y0000385283D02*
X0002878927Y0000443025D01*
X0002807686Y0000356410D02*
X0002803937Y0000352287D01*
X0002800187Y0000344038D01*
X0002800187Y0000323415D01*
X0002803937Y0000315166D01*
X0002807686Y0000311042D01*
X0002815185Y0000306917D01*
X0002822683Y0000306917D01*
X0002833933Y0000311042D01*
X0002878927Y0000360536D01*
X0002878927Y0000306917D01*
D108*
X0000811811Y0000315353D02*
X0000603149Y0000315353D01*
D109*
X0000183258Y0000464341D02*
X0000145762Y0000493213D01*
X0000183258Y0000513835D02*
X0000104518Y0000513835D01*
X0000104518Y0000480839D01*
X0000108267Y0000472590D01*
X0000112017Y0000468466D01*
X0000119515Y0000464341D01*
X0000130761Y0000464341D01*
X0000138263Y0000468466D01*
X0000142013Y0000472590D01*
X0000145762Y0000480839D01*
X0000145762Y0000513835D01*
X0000104518Y0000435470D02*
X0000183258Y0000377727D01*
X0000104518Y0000377727D02*
X0000183258Y0000435470D01*
X0000112017Y0000348856D02*
X0000108267Y0000344730D01*
X0000104518Y0000336482D01*
X0000104518Y0000315860D01*
X0000108267Y0000307611D01*
X0000112017Y0000303487D01*
X0000119515Y0000299362D01*
X0000127012Y0000299362D01*
X0000138263Y0000303487D01*
X0000183258Y0000352980D01*
X0000183258Y0000299362D01*
D108*
X0001699606Y0000395275D02*
X0001699606Y0000705094D01*
X0001699606Y0000396062D02*
G75*
G02G02G02G02X0001616905Y0000315353I-0000080732D01X0001616905Y0000315353I-0000080732D01G02G02X0001616905Y0000315353I-0000080732D01G02G02X0001616905Y0000315353I-0000080732D01X0001616905Y0000315353I-0000080732D01X0001616905Y0000315353I-0000080732D01X0001616905Y0000315353I-0000080732D01G02G02G02G02X0001616905Y0000315353I-0000080732D01X0001616905Y0000315353I-0000080732D01X0001616905Y0000315353I-0000080732D01G02G02X0001616905Y0000315353I-0000080732D01G02G02X0001616905Y0000315353I-0000080732D01X0001616905Y0000315353I-0000080732D01X0001616905Y0000315353I-0000080732D01X0001616905Y0000315353I-0000080732D01X0001616905Y0000315353I-0000080732D01*
G01G01G01G01G01G01G01G01G01G01G01G01G01G01G01G01*
X0001618897Y0000787794D02*
G75*
G02G02G02G02X0001699606Y0000705094J-0000080732D01X0001699606Y0000705094J-0000080732D01G02G02X0001699606Y0000705094J-0000080732D01G02G02X0001699606Y0000705094J-0000080732D01X0001699606Y0000705094J-0000080732D01X0001699606Y0000705094J-0000080732D01X0001699606Y0000705094J-0000080732D01G02G02G02G02X0001699606Y0000705094J-0000080732D01X0001699606Y0000705094J-0000080732D01X0001699606Y0000705094J-0000080732D01G02G02X0001699606Y0000705094J-0000080732D01G02G02X0001699606Y0000705094J-0000080732D01X0001699606Y0000705094J-0000080732D01X0001699606Y0000705094J-0000080732D01X0001699606Y0000705094J-0000080732D01X0001699606Y0000705094J-0000080732D01*
G01G01G01G01G01G01G01G01G01G01G01G01G01G01G01G01*
X0001323622Y0000315353D02*
X0001114960Y0000315353D01*
X0000223465Y0000399413D02*
X0000223465Y0000708468D01*
X0000304174Y0000316736D02*
G75*
G02G02G02G02X0000223465Y0000399437J0000080732D01X0000223465Y0000399437J0000080732D01G02G02X0000223465Y0000399437J0000080732D01G02G02X0000223465Y0000399437J0000080732D01X0000223465Y0000399437J0000080732D01X0000223465Y0000399437J0000080732D01X0000223465Y0000399437J0000080732D01G02G02G02G02X0000223465Y0000399437J0000080732D01X0000223465Y0000399437J0000080732D01X0000223465Y0000399437J0000080732D01G02G02X0000223465Y0000399437J0000080732D01G02G02X0000223465Y0000399437J0000080732D01X0000223465Y0000399437J0000080732D01X0000223465Y0000399437J0000080732D01X0000223465Y0000399437J0000080732D01X0000223465Y0000399437J0000080732D01*
G01G01G01G01G01G01G01G01G01G01G01G01G01G01G01G01*
X0000223204Y0000707086D02*
G75*
G02G02G02G02X0000305905Y0000787794I0000080732D01X0000305905Y0000787794I0000080732D01G02G02X0000305905Y0000787794I0000080732D01G02G02X0000305905Y0000787794I0000080732D01X0000305905Y0000787794I0000080732D01X0000305905Y0000787794I0000080732D01X0000305905Y0000787794I0000080732D01G02G02G02G02X0000305905Y0000787794I0000080732D01X0000305905Y0000787794I0000080732D01X0000305905Y0000787794I0000080732D01G02G02X0000305905Y0000787794I0000080732D01G02G02X0000305905Y0000787794I0000080732D01X0000305905Y0000787794I0000080732D01X0000305905Y0000787794I0000080732D01X0000305905Y0000787794I0000080732D01X0000305905Y0000787794I0000080732D01*
G01G01G01G01G01G01G01G01G01G01G01G01G01G01G01G01*
X0001622834Y0000787794D02*
X0000305905Y0000787794D01*
D107*
X0000469853Y0000279358D02*
X0000469853Y0000350225D01*
X0000469853Y0000316479D02*
X0000429358Y0000316479D01*
X0000429358Y0000279358D02*
X0000429358Y0000350225D01*
X0000939482Y0000278772D02*
X0000973228Y0000278772D01*
X0000973228Y0000349638D01*
X0001503599Y0000350225D02*
X0001486724Y0000279358D01*
X0001473228Y0000329976D01*
X0001459730Y0000279358D01*
X0001442857Y0000350225D01*
D110*
X0000931889Y0000082227D02*
X0000982508Y0000082227D01*
X0000982508Y0000188526D01*
X0000896456Y0000082227D02*
X0000896456Y0000153093D01*
X0000896456Y0000188526D02*
X0000901518Y0000183464D01*
X0000896456Y0000178402D01*
X0000891394Y0000183464D01*
X0000896456Y0000188526D01*
X0000896456Y0000178402D01*
X0000845837Y0000082227D02*
X0000845837Y0000153093D01*
X0000845837Y0000142969D02*
X0000840776Y0000148031D01*
X0000830652Y0000153093D01*
X0000815466Y0000153093D01*
X0000805343Y0000148031D01*
X0000800281Y0000137907D01*
X0000800281Y0000082227D01*
X0000800281Y0000137907D02*
X0000795219Y0000148031D01*
X0000785095Y0000153093D01*
X0000769910Y0000153093D01*
X0000759785Y0000148031D01*
X0000754724Y0000137907D01*
X0000754724Y0000082227D01*
X0000663610Y0000087289D02*
X0000673734Y0000082227D01*
X0000693981Y0000082227D01*
X0000704105Y0000087289D01*
X0000709167Y0000097412D01*
X0000709167Y0000137907D01*
X0000704105Y0000148031D01*
X0000693981Y0000153093D01*
X0000673734Y0000153093D01*
X0000663610Y0000148031D01*
X0000658548Y0000137907D01*
X0000658548Y0000127784D01*
X0000709167Y0000117660D01*
X0000618053Y0000087289D02*
X0000602868Y0000082227D01*
X0000577559Y0000082227D01*
X0000567435Y0000087289D01*
X0000562373Y0000092350D01*
X0000557311Y0000102474D01*
X0000557311Y0000112598D01*
X0000562373Y0000122722D01*
X0000567435Y0000127784D01*
X0000577559Y0000132845D01*
X0000597806Y0000137907D01*
X0000607930Y0000142969D01*
X0000612992Y0000148031D01*
X0000618053Y0000158155D01*
X0000618053Y0000168278D01*
X0000612992Y0000178402D01*
X0000607930Y0000183464D01*
X0000597806Y0000188526D01*
X0000572497Y0000188526D01*
X0000557311Y0000183464D01*
X0000511754Y0000082227D02*
X0000511754Y0000188526D01*
X0000486445Y0000188526D01*
X0000471259Y0000183464D01*
X0000461136Y0000173340D01*
X0000456074Y0000163217D01*
X0000451012Y0000142969D01*
X0000451012Y0000127784D01*
X0000456074Y0000107535D01*
X0000461136Y0000097412D01*
X0000471259Y0000087289D01*
X0000486445Y0000082227D01*
X0000511754Y0000082227D01*
X0000344713Y0000082227D02*
X0000380145Y0000132845D01*
X0000405454Y0000082227D02*
X0000405454Y0000188526D01*
X0000364960Y0000188526D01*
X0000354836Y0000183464D01*
X0000349775Y0000178402D01*
X0000344713Y0000168278D01*
X0000344713Y0000153093D01*
X0000349775Y0000142969D01*
X0000354836Y0000137907D01*
X0000364960Y0000132845D01*
X0000405454Y0000132845D01*
D111*
G36*
X0001225037Y0000204259D02*
X0001226477Y0000204711D01*
X0001228076Y0000205783D01*
X0001230061Y0000207740D01*
X0001232661Y0000210844D01*
X0001236102Y0000215356D01*
X0001240612Y0000221539D01*
X0001246417Y0000229656D01*
X0001250133Y0000234881D01*
X0001255964Y0000243125D01*
X0001261212Y0000250614D01*
X0001265659Y0000257029D01*
X0001269088Y0000262058D01*
X0001271279Y0000265380D01*
X0001272016Y0000266667D01*
X0001271379Y0000267756D01*
X0001269178Y0000266560D01*
X0001265383Y0000263058D01*
X0001262645Y0000260180D01*
X0001255786Y0000252735D01*
X0001250304Y0000246684D01*
X0001245610Y0000241346D01*
X0001241116Y0000236042D01*
X0001236235Y0000230092D01*
X0001230914Y0000223484D01*
X0001226311Y0000217608D01*
X0001222480Y0000212460D01*
X0001219725Y0000208471D01*
X0001218350Y0000206069D01*
X0001218260Y0000205628D01*
X0001219869Y0000204636D01*
X0001223141Y0000204172D01*
X0001223530Y0000204167D01*
X0001225037Y0000204259D01*
X0001225037Y0000204259D01*
G37*
X0001225037Y0000204259D02*
X0001226477Y0000204711D01*
X0001228076Y0000205783D01*
X0001230061Y0000207740D01*
X0001232661Y0000210844D01*
X0001236102Y0000215356D01*
X0001240612Y0000221539D01*
X0001246417Y0000229656D01*
X0001250133Y0000234881D01*
X0001255964Y0000243125D01*
X0001261212Y0000250614D01*
X0001265659Y0000257029D01*
X0001269088Y0000262058D01*
X0001271279Y0000265380D01*
X0001272016Y0000266667D01*
X0001271379Y0000267756D01*
X0001269178Y0000266560D01*
X0001265383Y0000263058D01*
X0001262645Y0000260180D01*
X0001255786Y0000252735D01*
X0001250304Y0000246684D01*
X0001245610Y0000241346D01*
X0001241116Y0000236042D01*
X0001236235Y0000230092D01*
X0001230914Y0000223484D01*
X0001226311Y0000217608D01*
X0001222480Y0000212460D01*
X0001219725Y0000208471D01*
X0001218350Y0000206069D01*
X0001218260Y0000205628D01*
X0001219869Y0000204636D01*
X0001223141Y0000204172D01*
X0001223530Y0000204167D01*
X0001225037Y0000204259D01*
G36*
X0001092723Y0000025602D02*
X0001095566Y0000028231D01*
X0001099840Y0000032971D01*
X0001102210Y0000035753D01*
X0001106268Y0000040558D01*
X0001109732Y0000044638D01*
X0001112124Y0000047429D01*
X0001112848Y0000048253D01*
X0001114191Y0000049833D01*
X0001117034Y0000053244D01*
X0001121063Y0000058108D01*
X0001125964Y0000064046D01*
X0001131355Y0000070596D01*
X0001137484Y0000077961D01*
X0001143723Y0000085300D01*
X0001149567Y0000092026D01*
X0001154509Y0000097558D01*
X0001157343Y0000100596D01*
X0001161612Y0000104969D01*
X0001164452Y0000107582D01*
X0001166408Y0000108741D01*
X0001168029Y0000108749D01*
X0001169861Y0000107907D01*
X0001170192Y0000107724D01*
X0001174028Y0000104673D01*
X0001177073Y0000100009D01*
X0001179547Y0000093297D01*
X0001181380Y0000085575D01*
X0001183235Y0000076372D01*
X0001184647Y0000069600D01*
X0001185724Y0000064887D01*
X0001186577Y0000061859D01*
X0001187316Y0000060146D01*
X0001188049Y0000059374D01*
X0001188888Y0000059171D01*
X0001189165Y0000059167D01*
X0001190277Y0000059643D01*
X0001191164Y0000061372D01*
X0001191944Y0000064802D01*
X0001192734Y0000070383D01*
X0001193223Y0000074590D01*
X0001193944Y0000081593D01*
X0001194518Y0000088147D01*
X0001194871Y0000093359D01*
X0001194949Y0000095661D01*
X0001195649Y0000101907D01*
X0001197503Y0000109454D01*
X0001200168Y0000117167D01*
X0001203304Y0000123913D01*
X0001203614Y0000124462D01*
X0001205555Y0000128556D01*
X0001205955Y0000131117D01*
X0001204879Y0000131813D01*
X0001202446Y0000130360D01*
X0001200932Y0000129254D01*
X0001198569Y0000127872D01*
X0001194950Y0000126008D01*
X0001189668Y0000123455D01*
X0001182315Y0000120005D01*
X0001179503Y0000118699D01*
X0001176211Y0000117816D01*
X0001171395Y0000117229D01*
X0001168310Y0000117098D01*
X0001163460Y0000117247D01*
X0001160382Y0000118050D01*
X0001158005Y0000119874D01*
X0001157023Y0000120958D01*
X0001154385Y0000125105D01*
X0001152752Y0000129606D01*
X0001152742Y0000129661D01*
X0001153001Y0000135090D01*
X0001155463Y0000142245D01*
X0001160097Y0000151072D01*
X0001166870Y0000161517D01*
X0001175750Y0000173525D01*
X0001186647Y0000186974D01*
X0001191031Y0000192557D01*
X0001193583Y0000196655D01*
X0001194168Y0000199049D01*
X0001194145Y0000199117D01*
X0001193400Y0000201757D01*
X0001192478Y0000206000D01*
X0001192017Y0000208453D01*
X0001191299Y0000212207D01*
X0001190412Y0000216086D01*
X0001189182Y0000220758D01*
X0001187432Y0000226896D01*
X0001185315Y0000234074D01*
X0001183678Y0000237588D01*
X0001181745Y0000238924D01*
X0001179961Y0000237776D01*
X0001179948Y0000237754D01*
X0001179511Y0000235828D01*
X0001178975Y0000231608D01*
X0001178398Y0000225654D01*
X0001177837Y0000218525D01*
X0001177659Y0000215894D01*
X0001176686Y0000204145D01*
X0001175395Y0000194801D01*
X0001173668Y0000187416D01*
X0001171386Y0000181546D01*
X0001168428Y0000176743D01*
X0001166619Y0000174558D01*
X0001163398Y0000171193D01*
X0001160248Y0000168526D01*
X0001156774Y0000166455D01*
X0001152582Y0000164876D01*
X0001147275Y0000163687D01*
X0001140461Y0000162784D01*
X0001131744Y0000162063D01*
X0001120728Y0000161420D01*
X0001115389Y0000161154D01*
X0001107974Y0000160726D01*
X0001101526Y0000160233D01*
X0001096612Y0000159724D01*
X0001093797Y0000159253D01*
X0001093420Y0000159112D01*
X0001092339Y0000157461D01*
X0001093494Y0000155867D01*
X0001096317Y0000154939D01*
X0001097356Y0000154881D01*
X0001102531Y0000154355D01*
X0001109129Y0000152942D01*
X0001116400Y0000150887D01*
X0001123598Y0000148439D01*
X0001129975Y0000145844D01*
X0001134782Y0000143350D01*
X0001136735Y0000141876D01*
X0001139255Y0000139110D01*
X0001139951Y0000137087D01*
X0001139110Y0000134631D01*
X0001138711Y0000133843D01*
X0001135664Y0000129724D01*
X0001130207Y0000124533D01*
X0001122286Y0000118224D01*
X0001111847Y0000110751D01*
X0001109221Y0000108955D01*
X0001102418Y0000104411D01*
X0001094499Y0000099243D01*
X0001086066Y0000093827D01*
X0001077722Y0000088551D01*
X0001070071Y0000083793D01*
X0001063716Y0000079936D01*
X0001059998Y0000077772D01*
X0001054616Y0000074663D01*
X0001051330Y0000072495D01*
X0001049684Y0000070924D01*
X0001049224Y0000069601D01*
X0001049223Y0000069566D01*
X0001050382Y0000069629D01*
X0001053876Y0000070977D01*
X0001059730Y0000073622D01*
X0001067967Y0000077578D01*
X0001078615Y0000082855D01*
X0001091697Y0000089467D01*
X0001107237Y0000097425D01*
X0001123965Y0000106067D01*
X0001130247Y0000109189D01*
X0001134550Y0000110957D01*
X0001137322Y0000111526D01*
X0001138880Y0000111139D01*
X0001141070Y0000109236D01*
X0001141659Y0000108290D01*
X0001141475Y0000107320D01*
X0001140532Y0000105293D01*
X0001138735Y0000102059D01*
X0001135989Y0000097465D01*
X0001132199Y0000091359D01*
X0001127269Y0000083590D01*
X0001121105Y0000074006D01*
X0001113612Y0000062455D01*
X0001104694Y0000048785D01*
X0001097567Y0000037898D01*
X0001094470Y0000033040D01*
X0001092090Y0000029056D01*
X0001090789Y0000026566D01*
X0001090652Y0000026112D01*
X0001091141Y0000024943D01*
X0001092723Y0000025602D01*
X0001092723Y0000025602D01*
G37*
X0001092723Y0000025602D02*
X0001095566Y0000028231D01*
X0001099840Y0000032971D01*
X0001102210Y0000035753D01*
X0001106268Y0000040558D01*
X0001109732Y0000044638D01*
X0001112124Y0000047429D01*
X0001112848Y0000048253D01*
X0001114191Y0000049833D01*
X0001117034Y0000053244D01*
X0001121063Y0000058108D01*
X0001125964Y0000064046D01*
X0001131355Y0000070596D01*
X0001137484Y0000077961D01*
X0001143723Y0000085300D01*
X0001149567Y0000092026D01*
X0001154509Y0000097558D01*
X0001157343Y0000100596D01*
X0001161612Y0000104969D01*
X0001164452Y0000107582D01*
X0001166408Y0000108741D01*
X0001168029Y0000108749D01*
X0001169861Y0000107907D01*
X0001170192Y0000107724D01*
X0001174028Y0000104673D01*
X0001177073Y0000100009D01*
X0001179547Y0000093297D01*
X0001181380Y0000085575D01*
X0001183235Y0000076372D01*
X0001184647Y0000069600D01*
X0001185724Y0000064887D01*
X0001186577Y0000061859D01*
X0001187316Y0000060146D01*
X0001188049Y0000059374D01*
X0001188888Y0000059171D01*
X0001189165Y0000059167D01*
X0001190277Y0000059643D01*
X0001191164Y0000061372D01*
X0001191944Y0000064802D01*
X0001192734Y0000070383D01*
X0001193223Y0000074590D01*
X0001193944Y0000081593D01*
X0001194518Y0000088147D01*
X0001194871Y0000093359D01*
X0001194949Y0000095661D01*
X0001195649Y0000101907D01*
X0001197503Y0000109454D01*
X0001200168Y0000117167D01*
X0001203304Y0000123913D01*
X0001203614Y0000124462D01*
X0001205555Y0000128556D01*
X0001205955Y0000131117D01*
X0001204879Y0000131813D01*
X0001202446Y0000130360D01*
X0001200932Y0000129254D01*
X0001198569Y0000127872D01*
X0001194950Y0000126008D01*
X0001189668Y0000123455D01*
X0001182315Y0000120005D01*
X0001179503Y0000118699D01*
X0001176211Y0000117816D01*
X0001171395Y0000117229D01*
X0001168310Y0000117098D01*
X0001163460Y0000117247D01*
X0001160382Y0000118050D01*
X0001158005Y0000119874D01*
X0001157023Y0000120958D01*
X0001154385Y0000125105D01*
X0001152752Y0000129606D01*
X0001152742Y0000129661D01*
X0001153001Y0000135090D01*
X0001155463Y0000142245D01*
X0001160097Y0000151072D01*
X0001166870Y0000161517D01*
X0001175750Y0000173525D01*
X0001186647Y0000186974D01*
X0001191031Y0000192557D01*
X0001193583Y0000196655D01*
X0001194168Y0000199049D01*
X0001194145Y0000199117D01*
X0001193400Y0000201757D01*
X0001192478Y0000206000D01*
X0001192017Y0000208453D01*
X0001191299Y0000212207D01*
X0001190412Y0000216086D01*
X0001189182Y0000220758D01*
X0001187432Y0000226896D01*
X0001185315Y0000234074D01*
X0001183678Y0000237588D01*
X0001181745Y0000238924D01*
X0001179961Y0000237776D01*
X0001179948Y0000237754D01*
X0001179511Y0000235828D01*
X0001178975Y0000231608D01*
X0001178398Y0000225654D01*
X0001177837Y0000218525D01*
X0001177659Y0000215894D01*
X0001176686Y0000204145D01*
X0001175395Y0000194801D01*
X0001173668Y0000187416D01*
X0001171386Y0000181546D01*
X0001168428Y0000176743D01*
X0001166619Y0000174558D01*
X0001163398Y0000171193D01*
X0001160248Y0000168526D01*
X0001156774Y0000166455D01*
X0001152582Y0000164876D01*
X0001147275Y0000163687D01*
X0001140461Y0000162784D01*
X0001131744Y0000162063D01*
X0001120728Y0000161420D01*
X0001115389Y0000161154D01*
X0001107974Y0000160726D01*
X0001101526Y0000160233D01*
X0001096612Y0000159724D01*
X0001093797Y0000159253D01*
X0001093420Y0000159112D01*
X0001092339Y0000157461D01*
X0001093494Y0000155867D01*
X0001096317Y0000154939D01*
X0001097356Y0000154881D01*
X0001102531Y0000154355D01*
X0001109129Y0000152942D01*
X0001116400Y0000150887D01*
X0001123598Y0000148439D01*
X0001129975Y0000145844D01*
X0001134782Y0000143350D01*
X0001136735Y0000141876D01*
X0001139255Y0000139110D01*
X0001139951Y0000137087D01*
X0001139110Y0000134631D01*
X0001138711Y0000133843D01*
X0001135664Y0000129724D01*
X0001130207Y0000124533D01*
X0001122286Y0000118224D01*
X0001111847Y0000110751D01*
X0001109221Y0000108955D01*
X0001102418Y0000104411D01*
X0001094499Y0000099243D01*
X0001086066Y0000093827D01*
X0001077722Y0000088551D01*
X0001070071Y0000083793D01*
X0001063716Y0000079936D01*
X0001059998Y0000077772D01*
X0001054616Y0000074663D01*
X0001051330Y0000072495D01*
X0001049684Y0000070924D01*
X0001049224Y0000069601D01*
X0001049223Y0000069566D01*
X0001050382Y0000069629D01*
X0001053876Y0000070977D01*
X0001059730Y0000073622D01*
X0001067967Y0000077578D01*
X0001078615Y0000082855D01*
X0001091697Y0000089467D01*
X0001107237Y0000097425D01*
X0001123965Y0000106067D01*
X0001130247Y0000109189D01*
X0001134550Y0000110957D01*
X0001137322Y0000111526D01*
X0001138880Y0000111139D01*
X0001141070Y0000109236D01*
X0001141659Y0000108290D01*
X0001141475Y0000107320D01*
X0001140532Y0000105293D01*
X0001138735Y0000102059D01*
X0001135989Y0000097465D01*
X0001132199Y0000091359D01*
X0001127269Y0000083590D01*
X0001121105Y0000074006D01*
X0001113612Y0000062455D01*
X0001104694Y0000048785D01*
X0001097567Y0000037898D01*
X0001094470Y0000033040D01*
X0001092090Y0000029056D01*
X0001090789Y0000026566D01*
X0001090652Y0000026112D01*
X0001091141Y0000024943D01*
X0001092723Y0000025602D01*
G36*
X0001237038Y0000178088D02*
X0001241288Y0000179826D01*
X0001247770Y0000183125D01*
X0001248871Y0000183717D01*
X0001255508Y0000187453D01*
X0001262947Y0000191892D01*
X0001270812Y0000196781D01*
X0001278728Y0000201869D01*
X0001286317Y0000206902D01*
X0001293204Y0000211630D01*
X0001299012Y0000215799D01*
X0001303365Y0000219157D01*
X0001305887Y0000221454D01*
X0001306365Y0000222247D01*
X0001305973Y0000223097D01*
X0001304579Y0000223135D01*
X0001301863Y0000222240D01*
X0001297505Y0000220289D01*
X0001291186Y0000217158D01*
X0001285652Y0000214318D01*
X0001272991Y0000207665D01*
X0001262662Y0000201986D01*
X0001254386Y0000197098D01*
X0001247881Y0000192818D01*
X0001242869Y0000188962D01*
X0001239070Y0000185347D01*
X0001236408Y0000182082D01*
X0001234727Y0000179234D01*
X0001234894Y0000177897D01*
X0001237038Y0000178088D01*
X0001237038Y0000178088D01*
G37*
X0001237038Y0000178088D02*
X0001241288Y0000179826D01*
X0001247770Y0000183125D01*
X0001248871Y0000183717D01*
X0001255508Y0000187453D01*
X0001262947Y0000191892D01*
X0001270812Y0000196781D01*
X0001278728Y0000201869D01*
X0001286317Y0000206902D01*
X0001293204Y0000211630D01*
X0001299012Y0000215799D01*
X0001303365Y0000219157D01*
X0001305887Y0000221454D01*
X0001306365Y0000222247D01*
X0001305973Y0000223097D01*
X0001304579Y0000223135D01*
X0001301863Y0000222240D01*
X0001297505Y0000220289D01*
X0001291186Y0000217158D01*
X0001285652Y0000214318D01*
X0001272991Y0000207665D01*
X0001262662Y0000201986D01*
X0001254386Y0000197098D01*
X0001247881Y0000192818D01*
X0001242869Y0000188962D01*
X0001239070Y0000185347D01*
X0001236408Y0000182082D01*
X0001234727Y0000179234D01*
X0001234894Y0000177897D01*
X0001237038Y0000178088D01*
G36*
X0001212997Y0000134000D02*
X0001215848Y0000134421D01*
X0001220926Y0000134941D01*
X0001227605Y0000135506D01*
X0001235259Y0000136060D01*
X0001238509Y0000136269D01*
X0001251505Y0000137110D01*
X0001261860Y0000137863D01*
X0001269784Y0000138550D01*
X0001275493Y0000139193D01*
X0001279196Y0000139814D01*
X0001281111Y0000140436D01*
X0001281445Y0000140724D01*
X0001280798Y0000141850D01*
X0001278210Y0000142834D01*
X0001273885Y0000143918D01*
X0001268259Y0000145482D01*
X0001262095Y0000147295D01*
X0001256152Y0000149127D01*
X0001251191Y0000150746D01*
X0001247973Y0000151922D01*
X0001247419Y0000152175D01*
X0001244675Y0000153037D01*
X0001240191Y0000153891D01*
X0001236275Y0000154402D01*
X0001227651Y0000155303D01*
X0001220014Y0000147419D01*
X0001216059Y0000143150D01*
X0001212752Y0000139245D01*
X0001210752Y0000136487D01*
X0001210645Y0000136298D01*
X0001209649Y0000134073D01*
X0001210456Y0000133520D01*
X0001212997Y0000134000D01*
X0001212997Y0000134000D01*
G37*
X0001212997Y0000134000D02*
X0001215848Y0000134421D01*
X0001220926Y0000134941D01*
X0001227605Y0000135506D01*
X0001235259Y0000136060D01*
X0001238509Y0000136269D01*
X0001251505Y0000137110D01*
X0001261860Y0000137863D01*
X0001269784Y0000138550D01*
X0001275493Y0000139193D01*
X0001279196Y0000139814D01*
X0001281111Y0000140436D01*
X0001281445Y0000140724D01*
X0001280798Y0000141850D01*
X0001278210Y0000142834D01*
X0001273885Y0000143918D01*
X0001268259Y0000145482D01*
X0001262095Y0000147295D01*
X0001256152Y0000149127D01*
X0001251191Y0000150746D01*
X0001247973Y0000151922D01*
X0001247419Y0000152175D01*
X0001244675Y0000153037D01*
X0001240191Y0000153891D01*
X0001236275Y0000154402D01*
X0001227651Y0000155303D01*
X0001220014Y0000147419D01*
X0001216059Y0000143150D01*
X0001212752Y0000139245D01*
X0001210752Y0000136487D01*
X0001210645Y0000136298D01*
X0001209649Y0000134073D01*
X0001210456Y0000133520D01*
X0001212997Y0000134000D01*
%LPC*%
D112*
X0002903543Y0001221259D02*
G75*
G03G03G03G03X0002903543Y0001221259I-0000070866D01X0002903543Y0001221259I-0000070866D01G03G03X0002903543Y0001221259I-0000070866D01G03G03X0002903543Y0001221259I-0000070866D01X0002903543Y0001221259I-0000070866D01X0002903543Y0001221259I-0000070866D01X0002903543Y0001221259I-0000070866D01G03G03G03G03X0002903543Y0001221259I-0000070866D01X0002903543Y0001221259I-0000070866D01X0002903543Y0001221259I-0000070866D01G03G03X0002903543Y0001221259I-0000070866D01G03G03X0002903543Y0001221259I-0000070866D01X0002903543Y0001221259I-0000070866D01X0002903543Y0001221259I-0000070866D01X0002903543Y0001221259I-0000070866D01X0002903543Y0001221259I-0000070866D01*
G01G01G01G01G01G01G01G01G01G01G01G01G01G01G01G01*
X0002902755Y0000155118D02*
G75*
G03G03G03G03X0002902755Y0000155118I-0000070866D01X0002902755Y0000155118I-0000070866D01G03G03X0002902755Y0000155118I-0000070866D01G03G03X0002902755Y0000155118I-0000070866D01X0002902755Y0000155118I-0000070866D01X0002902755Y0000155118I-0000070866D01X0002902755Y0000155118I-0000070866D01G03G03G03G03X0002902755Y0000155118I-0000070866D01X0002902755Y0000155118I-0000070866D01X0002902755Y0000155118I-0000070866D01G03G03X0002902755Y0000155118I-0000070866D01G03G03X0002902755Y0000155118I-0000070866D01X0002902755Y0000155118I-0000070866D01X0002902755Y0000155118I-0000070866D01X0002902755Y0000155118I-0000070866D01X0002902755Y0000155118I-0000070866D01*
G01G01G01G01G01G01G01G01G01G01G01G01G01G01G01G01*
X0000225984Y0000156299D02*
G75*
G03G03G03G03X0000225984Y0000156299I-0000070866D01X0000225984Y0000156299I-0000070866D01G03G03X0000225984Y0000156299I-0000070866D01G03G03X0000225984Y0000156299I-0000070866D01X0000225984Y0000156299I-0000070866D01X0000225984Y0000156299I-0000070866D01X0000225984Y0000156299I-0000070866D01G03G03G03G03X0000225984Y0000156299I-0000070866D01X0000225984Y0000156299I-0000070866D01X0000225984Y0000156299I-0000070866D01G03G03X0000225984Y0000156299I-0000070866D01G03G03X0000225984Y0000156299I-0000070866D01X0000225984Y0000156299I-0000070866D01X0000225984Y0000156299I-0000070866D01X0000225984Y0000156299I-0000070866D01X0000225984Y0000156299I-0000070866D01*
G01G01G01G01G01G01G01G01G01G01G01G01G01G01G01G01*
X0000226377Y0001220866D02*
G75*
G03G03G03G03X0000226377Y0001220866I-0000070866D01X0000226377Y0001220866I-0000070866D01G03G03X0000226377Y0001220866I-0000070866D01G03G03X0000226377Y0001220866I-0000070866D01X0000226377Y0001220866I-0000070866D01X0000226377Y0001220866I-0000070866D01X0000226377Y0001220866I-0000070866D01G03G03G03G03X0000226377Y0001220866I-0000070866D01X0000226377Y0001220866I-0000070866D01X0000226377Y0001220866I-0000070866D01G03G03X0000226377Y0001220866I-0000070866D01G03G03X0000226377Y0001220866I-0000070866D01X0000226377Y0001220866I-0000070866D01X0000226377Y0001220866I-0000070866D01X0000226377Y0001220866I-0000070866D01X0000226377Y0001220866I-0000070866D01*
G01G01G01G01G01G01G01G01G01G01G01G01G01G01G01G01*
D113*
X0002640944Y0000559448D02*
G75*
G03G03G03G03X0002640944Y0000559448I-0000104724D01X0002640944Y0000559448I-0000104724D01G03G03X0002640944Y0000559448I-0000104724D01G03G03X0002640944Y0000559448I-0000104724D01X0002640944Y0000559448I-0000104724D01X0002640944Y0000559448I-0000104724D01X0002640944Y0000559448I-0000104724D01G03G03G03G03X0002640944Y0000559448I-0000104724D01X0002640944Y0000559448I-0000104724D01X0002640944Y0000559448I-0000104724D01G03G03X0002640944Y0000559448I-0000104724D01G03G03X0002640944Y0000559448I-0000104724D01X0002640944Y0000559448I-0000104724D01X0002640944Y0000559448I-0000104724D01X0002640944Y0000559448I-0000104724D01X0002640944Y0000559448I-0000104724D01*
G01G01G01G01G01G01G01G01G01G01G01G01G01G01G01G01*
D114*
X0002651574Y0000631889D02*
X0002651574Y0000486614D01*
D115*
X0002687007Y0000559448D02*
G75*
G03G03G03G03X0002687007Y0000559448I-0000150787D01X0002687007Y0000559448I-0000150787D01G03G03X0002687007Y0000559448I-0000150787D01G03G03X0002687007Y0000559448I-0000150787D01X0002687007Y0000559448I-0000150787D01X0002687007Y0000559448I-0000150787D01X0002687007Y0000559448I-0000150787D01G03G03G03G03X0002687007Y0000559448I-0000150787D01X0002687007Y0000559448I-0000150787D01X0002687007Y0000559448I-0000150787D01G03G03X0002687007Y0000559448I-0000150787D01G03G03X0002687007Y0000559448I-0000150787D01X0002687007Y0000559448I-0000150787D01X0002687007Y0000559448I-0000150787D01X0002687007Y0000559448I-0000150787D01X0002687007Y0000559448I-0000150787D01*
G01G01G01G01G01G01G01G01G01G01G01G01G01G01G01G01*
D113*
X0002129133Y0000559448D02*
G75*
G03G03G03G03X0002129133Y0000559448I-0000104724D01X0002129133Y0000559448I-0000104724D01G03G03X0002129133Y0000559448I-0000104724D01G03G03X0002129133Y0000559448I-0000104724D01X0002129133Y0000559448I-0000104724D01X0002129133Y0000559448I-0000104724D01X0002129133Y0000559448I-0000104724D01G03G03G03G03X0002129133Y0000559448I-0000104724D01X0002129133Y0000559448I-0000104724D01X0002129133Y0000559448I-0000104724D01G03G03X0002129133Y0000559448I-0000104724D01G03G03X0002129133Y0000559448I-0000104724D01X0002129133Y0000559448I-0000104724D01X0002129133Y0000559448I-0000104724D01X0002129133Y0000559448I-0000104724D01X0002129133Y0000559448I-0000104724D01*
G01G01G01G01G01G01G01G01G01G01G01G01G01G01G01G01*
D114*
X0002139763Y0000631889D02*
X0002139763Y0000486614D01*
D115*
X0002175196Y0000559448D02*
G75*
G03G03G03G03X0002175196Y0000559448I-0000150787D01X0002175196Y0000559448I-0000150787D01G03G03X0002175196Y0000559448I-0000150787D01G03G03X0002175196Y0000559448I-0000150787D01X0002175196Y0000559448I-0000150787D01X0002175196Y0000559448I-0000150787D01X0002175196Y0000559448I-0000150787D01G03G03G03G03X0002175196Y0000559448I-0000150787D01X0002175196Y0000559448I-0000150787D01X0002175196Y0000559448I-0000150787D01G03G03X0002175196Y0000559448I-0000150787D01G03G03X0002175196Y0000559448I-0000150787D01X0002175196Y0000559448I-0000150787D01X0002175196Y0000559448I-0000150787D01X0002175196Y0000559448I-0000150787D01X0002175196Y0000559448I-0000150787D01*
G01G01G01G01G01G01G01G01G01G01G01G01G01G01G01G01*
D113*
X0002640944Y0001110629D02*
G75*
G03G03G03G03X0002640944Y0001110629I-0000104724D01X0002640944Y0001110629I-0000104724D01G03G03X0002640944Y0001110629I-0000104724D01G03G03X0002640944Y0001110629I-0000104724D01X0002640944Y0001110629I-0000104724D01X0002640944Y0001110629I-0000104724D01X0002640944Y0001110629I-0000104724D01G03G03G03G03X0002640944Y0001110629I-0000104724D01X0002640944Y0001110629I-0000104724D01X0002640944Y0001110629I-0000104724D01G03G03X0002640944Y0001110629I-0000104724D01G03G03X0002640944Y0001110629I-0000104724D01X0002640944Y0001110629I-0000104724D01X0002640944Y0001110629I-0000104724D01X0002640944Y0001110629I-0000104724D01X0002640944Y0001110629I-0000104724D01*
G01G01G01G01G01G01G01G01G01G01G01G01G01G01G01G01*
D114*
X0002651574Y0001183070D02*
X0002651574Y0001037795D01*
D115*
X0002687007Y0001110629D02*
G75*
G03G03G03G03X0002687007Y0001110629I-0000150787D01X0002687007Y0001110629I-0000150787D01G03G03X0002687007Y0001110629I-0000150787D01G03G03X0002687007Y0001110629I-0000150787D01X0002687007Y0001110629I-0000150787D01X0002687007Y0001110629I-0000150787D01X0002687007Y0001110629I-0000150787D01G03G03G03G03X0002687007Y0001110629I-0000150787D01X0002687007Y0001110629I-0000150787D01X0002687007Y0001110629I-0000150787D01G03G03X0002687007Y0001110629I-0000150787D01G03G03X0002687007Y0001110629I-0000150787D01X0002687007Y0001110629I-0000150787D01X0002687007Y0001110629I-0000150787D01X0002687007Y0001110629I-0000150787D01X0002687007Y0001110629I-0000150787D01*
G01G01G01G01G01G01G01G01G01G01G01G01G01G01G01G01*
D113*
X0002129133Y0001110629D02*
G75*
G03G03G03G03X0002129133Y0001110629I-0000104724D01X0002129133Y0001110629I-0000104724D01G03G03X0002129133Y0001110629I-0000104724D01G03G03X0002129133Y0001110629I-0000104724D01X0002129133Y0001110629I-0000104724D01X0002129133Y0001110629I-0000104724D01X0002129133Y0001110629I-0000104724D01G03G03G03G03X0002129133Y0001110629I-0000104724D01X0002129133Y0001110629I-0000104724D01X0002129133Y0001110629I-0000104724D01G03G03X0002129133Y0001110629I-0000104724D01G03G03X0002129133Y0001110629I-0000104724D01X0002129133Y0001110629I-0000104724D01X0002129133Y0001110629I-0000104724D01X0002129133Y0001110629I-0000104724D01X0002129133Y0001110629I-0000104724D01*
G01G01G01G01G01G01G01G01G01G01G01G01G01G01G01G01*
D114*
X0002139763Y0001183070D02*
X0002139763Y0001037795D01*
D115*
X0002175196Y0001110629D02*
G75*
G03G03G03G03X0002175196Y0001110629I-0000150787D01X0002175196Y0001110629I-0000150787D01G03G03X0002175196Y0001110629I-0000150787D01G03G03X0002175196Y0001110629I-0000150787D01X0002175196Y0001110629I-0000150787D01X0002175196Y0001110629I-0000150787D01X0002175196Y0001110629I-0000150787D01G03G03G03G03X0002175196Y0001110629I-0000150787D01X0002175196Y0001110629I-0000150787D01X0002175196Y0001110629I-0000150787D01G03G03X0002175196Y0001110629I-0000150787D01G03G03X0002175196Y0001110629I-0000150787D01X0002175196Y0001110629I-0000150787D01X0002175196Y0001110629I-0000150787D01X0002175196Y0001110629I-0000150787D01X0002175196Y0001110629I-0000150787D01*
G01G01G01G01G01G01G01G01G01G01G01G01G01G01G01G01*
D113*
X0001577952Y0000559448D02*
G75*
G03G03G03G03X0001577952Y0000559448I-0000104724D01X0001577952Y0000559448I-0000104724D01G03G03X0001577952Y0000559448I-0000104724D01G03G03X0001577952Y0000559448I-0000104724D01X0001577952Y0000559448I-0000104724D01X0001577952Y0000559448I-0000104724D01X0001577952Y0000559448I-0000104724D01G03G03G03G03X0001577952Y0000559448I-0000104724D01X0001577952Y0000559448I-0000104724D01X0001577952Y0000559448I-0000104724D01G03G03X0001577952Y0000559448I-0000104724D01G03G03X0001577952Y0000559448I-0000104724D01X0001577952Y0000559448I-0000104724D01X0001577952Y0000559448I-0000104724D01X0001577952Y0000559448I-0000104724D01X0001577952Y0000559448I-0000104724D01*
G01G01G01G01G01G01G01G01G01G01G01G01G01G01G01G01*
D114*
X0001588582Y0000631889D02*
X0001588582Y0000486614D01*
D115*
X0001624015Y0000559448D02*
G75*
G03G03G03G03X0001624015Y0000559448I-0000150787D01X0001624015Y0000559448I-0000150787D01G03G03X0001624015Y0000559448I-0000150787D01G03G03X0001624015Y0000559448I-0000150787D01X0001624015Y0000559448I-0000150787D01X0001624015Y0000559448I-0000150787D01X0001624015Y0000559448I-0000150787D01G03G03G03G03X0001624015Y0000559448I-0000150787D01X0001624015Y0000559448I-0000150787D01X0001624015Y0000559448I-0000150787D01G03G03X0001624015Y0000559448I-0000150787D01G03G03X0001624015Y0000559448I-0000150787D01X0001624015Y0000559448I-0000150787D01X0001624015Y0000559448I-0000150787D01X0001624015Y0000559448I-0000150787D01X0001624015Y0000559448I-0000150787D01*
G01G01G01G01G01G01G01G01G01G01G01G01G01G01G01G01*
D113*
X0001066141Y0000559448D02*
G75*
G03G03G03G03X0001066141Y0000559448I-0000104724D01X0001066141Y0000559448I-0000104724D01G03G03X0001066141Y0000559448I-0000104724D01G03G03X0001066141Y0000559448I-0000104724D01X0001066141Y0000559448I-0000104724D01X0001066141Y0000559448I-0000104724D01X0001066141Y0000559448I-0000104724D01G03G03G03G03X0001066141Y0000559448I-0000104724D01X0001066141Y0000559448I-0000104724D01X0001066141Y0000559448I-0000104724D01G03G03X0001066141Y0000559448I-0000104724D01G03G03X0001066141Y0000559448I-0000104724D01X0001066141Y0000559448I-0000104724D01X0001066141Y0000559448I-0000104724D01X0001066141Y0000559448I-0000104724D01X0001066141Y0000559448I-0000104724D01*
G01G01G01G01G01G01G01G01G01G01G01G01G01G01G01G01*
D114*
X0001076771Y0000631889D02*
X0001076771Y0000486614D01*
D115*
X0001112204Y0000559448D02*
G75*
G03G03G03G03X0001112204Y0000559448I-0000150787D01X0001112204Y0000559448I-0000150787D01G03G03X0001112204Y0000559448I-0000150787D01G03G03X0001112204Y0000559448I-0000150787D01X0001112204Y0000559448I-0000150787D01X0001112204Y0000559448I-0000150787D01X0001112204Y0000559448I-0000150787D01G03G03G03G03X0001112204Y0000559448I-0000150787D01X0001112204Y0000559448I-0000150787D01X0001112204Y0000559448I-0000150787D01G03G03X0001112204Y0000559448I-0000150787D01G03G03X0001112204Y0000559448I-0000150787D01X0001112204Y0000559448I-0000150787D01X0001112204Y0000559448I-0000150787D01X0001112204Y0000559448I-0000150787D01X0001112204Y0000559448I-0000150787D01*
G01G01G01G01G01G01G01G01G01G01G01G01G01G01G01G01*
D113*
X0000554330Y0000559448D02*
G75*
G03G03G03G03X0000554330Y0000559448I-0000104724D01X0000554330Y0000559448I-0000104724D01G03G03X0000554330Y0000559448I-0000104724D01G03G03X0000554330Y0000559448I-0000104724D01X0000554330Y0000559448I-0000104724D01X0000554330Y0000559448I-0000104724D01X0000554330Y0000559448I-0000104724D01G03G03G03G03X0000554330Y0000559448I-0000104724D01X0000554330Y0000559448I-0000104724D01X0000554330Y0000559448I-0000104724D01G03G03X0000554330Y0000559448I-0000104724D01G03G03X0000554330Y0000559448I-0000104724D01X0000554330Y0000559448I-0000104724D01X0000554330Y0000559448I-0000104724D01X0000554330Y0000559448I-0000104724D01X0000554330Y0000559448I-0000104724D01*
G01G01G01G01G01G01G01G01G01G01G01G01G01G01G01G01*
D114*
X0000564960Y0000631889D02*
X0000564960Y0000486614D01*
D115*
X0000600393Y0000559448D02*
G75*
G03G03G03G03X0000600393Y0000559448I-0000150787D01X0000600393Y0000559448I-0000150787D01G03G03X0000600393Y0000559448I-0000150787D01G03G03X0000600393Y0000559448I-0000150787D01X0000600393Y0000559448I-0000150787D01X0000600393Y0000559448I-0000150787D01X0000600393Y0000559448I-0000150787D01G03G03G03G03X0000600393Y0000559448I-0000150787D01X0000600393Y0000559448I-0000150787D01X0000600393Y0000559448I-0000150787D01G03G03X0000600393Y0000559448I-0000150787D01G03G03X0000600393Y0000559448I-0000150787D01X0000600393Y0000559448I-0000150787D01X0000600393Y0000559448I-0000150787D01X0000600393Y0000559448I-0000150787D01X0000600393Y0000559448I-0000150787D01*
G01G01G01G01G01G01G01G01G01G01G01G01G01G01G01G01*
D113*
X0001577952Y0001110629D02*
G75*
G03G03G03G03X0001577952Y0001110629I-0000104724D01X0001577952Y0001110629I-0000104724D01G03G03X0001577952Y0001110629I-0000104724D01G03G03X0001577952Y0001110629I-0000104724D01X0001577952Y0001110629I-0000104724D01X0001577952Y0001110629I-0000104724D01X0001577952Y0001110629I-0000104724D01G03G03G03G03X0001577952Y0001110629I-0000104724D01X0001577952Y0001110629I-0000104724D01X0001577952Y0001110629I-0000104724D01G03G03X0001577952Y0001110629I-0000104724D01G03G03X0001577952Y0001110629I-0000104724D01X0001577952Y0001110629I-0000104724D01X0001577952Y0001110629I-0000104724D01X0001577952Y0001110629I-0000104724D01X0001577952Y0001110629I-0000104724D01*
G01G01G01G01G01G01G01G01G01G01G01G01G01G01G01G01*
D114*
X0001588582Y0001183070D02*
X0001588582Y0001037795D01*
D115*
X0001624015Y0001110629D02*
G75*
G03G03G03G03X0001624015Y0001110629I-0000150787D01X0001624015Y0001110629I-0000150787D01G03G03X0001624015Y0001110629I-0000150787D01G03G03X0001624015Y0001110629I-0000150787D01X0001624015Y0001110629I-0000150787D01X0001624015Y0001110629I-0000150787D01X0001624015Y0001110629I-0000150787D01G03G03G03G03X0001624015Y0001110629I-0000150787D01X0001624015Y0001110629I-0000150787D01X0001624015Y0001110629I-0000150787D01G03G03X0001624015Y0001110629I-0000150787D01G03G03X0001624015Y0001110629I-0000150787D01X0001624015Y0001110629I-0000150787D01X0001624015Y0001110629I-0000150787D01X0001624015Y0001110629I-0000150787D01X0001624015Y0001110629I-0000150787D01*
G01G01G01G01G01G01G01G01G01G01G01G01G01G01G01G01*
D113*
X0001066141Y0001110629D02*
G75*
G03G03G03G03X0001066141Y0001110629I-0000104724D01X0001066141Y0001110629I-0000104724D01G03G03X0001066141Y0001110629I-0000104724D01G03G03X0001066141Y0001110629I-0000104724D01X0001066141Y0001110629I-0000104724D01X0001066141Y0001110629I-0000104724D01X0001066141Y0001110629I-0000104724D01G03G03G03G03X0001066141Y0001110629I-0000104724D01X0001066141Y0001110629I-0000104724D01X0001066141Y0001110629I-0000104724D01G03G03X0001066141Y0001110629I-0000104724D01G03G03X0001066141Y0001110629I-0000104724D01X0001066141Y0001110629I-0000104724D01X0001066141Y0001110629I-0000104724D01X0001066141Y0001110629I-0000104724D01X0001066141Y0001110629I-0000104724D01*
G01G01G01G01G01G01G01G01G01G01G01G01G01G01G01G01*
D114*
X0001076771Y0001183070D02*
X0001076771Y0001037795D01*
D115*
X0001112204Y0001110629D02*
G75*
G03G03G03G03X0001112204Y0001110629I-0000150787D01X0001112204Y0001110629I-0000150787D01G03G03X0001112204Y0001110629I-0000150787D01G03G03X0001112204Y0001110629I-0000150787D01X0001112204Y0001110629I-0000150787D01X0001112204Y0001110629I-0000150787D01X0001112204Y0001110629I-0000150787D01G03G03G03G03X0001112204Y0001110629I-0000150787D01X0001112204Y0001110629I-0000150787D01X0001112204Y0001110629I-0000150787D01G03G03X0001112204Y0001110629I-0000150787D01G03G03X0001112204Y0001110629I-0000150787D01X0001112204Y0001110629I-0000150787D01X0001112204Y0001110629I-0000150787D01X0001112204Y0001110629I-0000150787D01X0001112204Y0001110629I-0000150787D01*
G01G01G01G01G01G01G01G01G01G01G01G01G01G01G01G01*
D113*
X0000554330Y0001110629D02*
G75*
G03G03G03G03X0000554330Y0001110629I-0000104724D01X0000554330Y0001110629I-0000104724D01G03G03X0000554330Y0001110629I-0000104724D01G03G03X0000554330Y0001110629I-0000104724D01X0000554330Y0001110629I-0000104724D01X0000554330Y0001110629I-0000104724D01X0000554330Y0001110629I-0000104724D01G03G03G03G03X0000554330Y0001110629I-0000104724D01X0000554330Y0001110629I-0000104724D01X0000554330Y0001110629I-0000104724D01G03G03X0000554330Y0001110629I-0000104724D01G03G03X0000554330Y0001110629I-0000104724D01X0000554330Y0001110629I-0000104724D01X0000554330Y0001110629I-0000104724D01X0000554330Y0001110629I-0000104724D01X0000554330Y0001110629I-0000104724D01*
G01G01G01G01G01G01G01G01G01G01G01G01G01G01G01G01*
D114*
X0000564960Y0001183070D02*
X0000564960Y0001037795D01*
D115*
X0000600393Y0001110629D02*
G75*
G03G03G03G03X0000600393Y0001110629I-0000150787D01X0000600393Y0001110629I-0000150787D01G03G03X0000600393Y0001110629I-0000150787D01G03G03X0000600393Y0001110629I-0000150787D01X0000600393Y0001110629I-0000150787D01X0000600393Y0001110629I-0000150787D01X0000600393Y0001110629I-0000150787D01G03G03G03G03X0000600393Y0001110629I-0000150787D01X0000600393Y0001110629I-0000150787D01X0000600393Y0001110629I-0000150787D01G03G03X0000600393Y0001110629I-0000150787D01G03G03X0000600393Y0001110629I-0000150787D01X0000600393Y0001110629I-0000150787D01X0000600393Y0001110629I-0000150787D01X0000600393Y0001110629I-0000150787D01X0000600393Y0001110629I-0000150787D01*
G01G01G01G01G01G01G01G01G01G01G01G01G01G01G01G01*
G04 next file*
G04 #@! TF.FileFunction,Legend,Bot*
G04 Gerber Fmt 4.6, Leading zero omitted, Abs format (unit mm)*
G04 Created by KiCad (PCBNEW (2016-09-17 revision 679eef1)-makepkg) date 09/24/16 16:35:10*
%LPD*%
G01G01G01G01G01G01G01G01G01G01G01G01G01G01G01G01*
G04 APERTURE LIST*
G04 APERTURE END LIST*
D126*
D127*
X0001255118Y0002451574D02*
X0000448031Y0002451574D01*
X0001331889Y0002059054D02*
X0001331889Y0002368873D01*
D128*
X0001151068Y0001943138D02*
X0001174690Y0001976884D01*
X0001191563Y0001943138D02*
X0001191563Y0002014004D01*
X0001164566Y0002014004D01*
X0001157817Y0002010629D01*
X0001154443Y0002007254D01*
X0001151068Y0002000506D01*
X0001151068Y0001990382D01*
X0001154443Y0001983633D01*
X0001157817Y0001980258D01*
X0001164566Y0001976884D01*
X0001191563Y0001976884D01*
X0001127446Y0002014004D02*
X0001080202Y0001943138D01*
X0001080202Y0002014004D02*
X0001127446Y0001943138D01*
X0001016084Y0001943138D02*
X0001056580Y0001943138D01*
X0001036332Y0001943138D02*
X0001036332Y0002014004D01*
X0001043082Y0002003880D01*
X0001049831Y0001997130D01*
X0001056580Y0001993757D01*
D127*
X0001331889Y0002059842D02*
G75*
G02G02G02G02X0001249188Y0001979133I-0000080732D01X0001249188Y0001979133I-0000080732D01G02G02X0001249188Y0001979133I-0000080732D01G02G02X0001249188Y0001979133I-0000080732D01X0001249188Y0001979133I-0000080732D01X0001249188Y0001979133I-0000080732D01X0001249188Y0001979133I-0000080732D01G02G02G02G02X0001249188Y0001979133I-0000080732D01X0001249188Y0001979133I-0000080732D01X0001249188Y0001979133I-0000080732D01G02G02X0001249188Y0001979133I-0000080732D01G02G02X0001249188Y0001979133I-0000080732D01X0001249188Y0001979133I-0000080732D01X0001249188Y0001979133I-0000080732D01X0001249188Y0001979133I-0000080732D01X0001249188Y0001979133I-0000080732D01*
G01G01G01G01G01G01G01G01G01G01G01G01G01G01G01G01*
X0001251181Y0002451574D02*
G75*
G02G02G02G02X0001331889Y0002368873J-0000080732D01X0001331889Y0002368873J-0000080732D01G02G02X0001331889Y0002368873J-0000080732D01G02G02X0001331889Y0002368873J-0000080732D01X0001331889Y0002368873J-0000080732D01X0001331889Y0002368873J-0000080732D01X0001331889Y0002368873J-0000080732D01G02G02G02G02X0001331889Y0002368873J-0000080732D01X0001331889Y0002368873J-0000080732D01X0001331889Y0002368873J-0000080732D01G02G02X0001331889Y0002368873J-0000080732D01G02G02X0001331889Y0002368873J-0000080732D01X0001331889Y0002368873J-0000080732D01X0001331889Y0002368873J-0000080732D01X0001331889Y0002368873J-0000080732D01X0001331889Y0002368873J-0000080732D01*
G01G01G01G01G01G01G01G01G01G01G01G01G01G01G01G01*
X0000955905Y0001979133D02*
X0000747244Y0001979133D01*
X0000364936Y0002370866D02*
G75*
G02G02G02G02X0000447637Y0002451574I0000080732D01X0000447637Y0002451574I0000080732D01G02G02X0000447637Y0002451574I0000080732D01G02G02X0000447637Y0002451574I0000080732D01X0000447637Y0002451574I0000080732D01X0000447637Y0002451574I0000080732D01X0000447637Y0002451574I0000080732D01G02G02G02G02X0000447637Y0002451574I0000080732D01X0000447637Y0002451574I0000080732D01X0000447637Y0002451574I0000080732D01G02G02X0000447637Y0002451574I0000080732D01G02G02X0000447637Y0002451574I0000080732D01X0000447637Y0002451574I0000080732D01X0000447637Y0002451574I0000080732D01X0000447637Y0002451574I0000080732D01X0000447637Y0002451574I0000080732D01*
G01G01G01G01G01G01G01G01G01G01G01G01G01G01G01G01*
X0000364960Y0002369291D02*
X0000366929Y0002062228D01*
X0000447637Y0001979527D02*
G75*
G02G02G02G02X0000366929Y0002062228J0000080732D01X0000366929Y0002062228J0000080732D01G02G02X0000366929Y0002062228J0000080732D01G02G02X0000366929Y0002062228J0000080732D01X0000366929Y0002062228J0000080732D01X0000366929Y0002062228J0000080732D01X0000366929Y0002062228J0000080732D01G02G02G02G02X0000366929Y0002062228J0000080732D01X0000366929Y0002062228J0000080732D01X0000366929Y0002062228J0000080732D01G02G02X0000366929Y0002062228J0000080732D01G02G02X0000366929Y0002062228J0000080732D01X0000366929Y0002062228J0000080732D01X0000366929Y0002062228J0000080732D01X0000366929Y0002062228J0000080732D01X0000366929Y0002062228J0000080732D01*
G01G01G01G01G01G01G01G01G01G01G01G01G01G01G01G01*
D128*
X0000639257Y0001942552D02*
X0000662879Y0001976297D01*
X0000679752Y0001942552D02*
X0000679752Y0002013418D01*
X0000652755Y0002013418D01*
X0000646006Y0002010043D01*
X0000642632Y0002006669D01*
X0000639257Y0001999920D01*
X0000639257Y0001989796D01*
X0000642632Y0001983047D01*
X0000646006Y0001979672D01*
X0000652755Y0001976297D01*
X0000679752Y0001976297D01*
X0000615635Y0002013418D02*
X0000568391Y0001942552D01*
X0000568391Y0002013418D02*
X0000615635Y0001942552D01*
X0000544769Y0002006669D02*
X0000541394Y0002010043D01*
X0000534645Y0002013418D01*
X0000517772Y0002013418D01*
X0000511023Y0002010043D01*
X0000507649Y0002006669D01*
X0000504274Y0001999920D01*
X0000504274Y0001993170D01*
X0000507649Y0001983047D01*
X0000548143Y0001942552D01*
X0000504274Y0001942552D01*
D127*
X0001664149Y0002370866D02*
G75*
G02G02G02G02X0001746850Y0002451574I0000080732D01X0001746850Y0002451574I0000080732D01G02G02X0001746850Y0002451574I0000080732D01G02G02X0001746850Y0002451574I0000080732D01X0001746850Y0002451574I0000080732D01X0001746850Y0002451574I0000080732D01X0001746850Y0002451574I0000080732D01G02G02G02G02X0001746850Y0002451574I0000080732D01X0001746850Y0002451574I0000080732D01X0001746850Y0002451574I0000080732D01G02G02X0001746850Y0002451574I0000080732D01G02G02X0001746850Y0002451574I0000080732D01X0001746850Y0002451574I0000080732D01X0001746850Y0002451574I0000080732D01X0001746850Y0002451574I0000080732D01X0001746850Y0002451574I0000080732D01*
G01G01G01G01G01G01G01G01G01G01G01G01G01G01G01G01*
X0001664171Y0002369291D02*
X0001666141Y0002062228D01*
X0001746850Y0001979527D02*
G75*
G02G02G02G02X0001666141Y0002062228J0000080732D01X0001666141Y0002062228J0000080732D01G02G02X0001666141Y0002062228J0000080732D01G02G02X0001666141Y0002062228J0000080732D01X0001666141Y0002062228J0000080732D01X0001666141Y0002062228J0000080732D01X0001666141Y0002062228J0000080732D01G02G02G02G02X0001666141Y0002062228J0000080732D01X0001666141Y0002062228J0000080732D01X0001666141Y0002062228J0000080732D01G02G02X0001666141Y0002062228J0000080732D01G02G02X0001666141Y0002062228J0000080732D01X0001666141Y0002062228J0000080732D01X0001666141Y0002062228J0000080732D01X0001666141Y0002062228J0000080732D01X0001666141Y0002062228J0000080732D01*
G01G01G01G01G01G01G01G01G01G01G01G01G01G01G01G01*
D128*
X0001980652Y0002013418D02*
X0001940157Y0002013418D01*
X0001960404Y0001942552D02*
X0001960404Y0002013418D01*
X0001923283Y0002013418D02*
X0001876040Y0001942552D01*
X0001876040Y0002013418D02*
X0001923283Y0001942552D01*
X0001852418Y0002006669D02*
X0001849043Y0002010043D01*
X0001842294Y0002013418D01*
X0001825421Y0002013418D01*
X0001818671Y0002010043D01*
X0001815298Y0002006669D01*
X0001811923Y0001999920D01*
X0001811923Y0001993170D01*
X0001815298Y0001983047D01*
X0001855792Y0001942552D01*
X0001811923Y0001942552D01*
X0002492463Y0002014004D02*
X0002451968Y0002014004D01*
X0002472215Y0001943138D02*
X0002472215Y0002014004D01*
X0002435095Y0002014004D02*
X0002387851Y0001943138D01*
X0002387851Y0002014004D02*
X0002435095Y0001943138D01*
X0002323734Y0001943138D02*
X0002364229Y0001943138D01*
X0002343981Y0001943138D02*
X0002343981Y0002014004D01*
X0002350731Y0002003880D01*
X0002357480Y0001997130D01*
X0002364229Y0001993757D01*
D127*
X0002255118Y0001979133D02*
X0002046456Y0001979133D01*
X0002554330Y0002451574D02*
X0001747244Y0002451574D01*
X0002550393Y0002451574D02*
G75*
G02G02G02G02X0002631102Y0002368873J-0000080732D01X0002631102Y0002368873J-0000080732D01G02G02X0002631102Y0002368873J-0000080732D01G02G02X0002631102Y0002368873J-0000080732D01X0002631102Y0002368873J-0000080732D01X0002631102Y0002368873J-0000080732D01X0002631102Y0002368873J-0000080732D01G02G02G02G02X0002631102Y0002368873J-0000080732D01X0002631102Y0002368873J-0000080732D01X0002631102Y0002368873J-0000080732D01G02G02X0002631102Y0002368873J-0000080732D01G02G02X0002631102Y0002368873J-0000080732D01X0002631102Y0002368873J-0000080732D01X0002631102Y0002368873J-0000080732D01X0002631102Y0002368873J-0000080732D01X0002631102Y0002368873J-0000080732D01*
G01G01G01G01G01G01G01G01G01G01G01G01G01G01G01G01*
X0002631102Y0002059054D02*
X0002631102Y0002368873D01*
X0002631102Y0002059842D02*
G75*
G02G02G02G02X0002548401Y0001979133I-0000080732D01X0002548401Y0001979133I-0000080732D01G02G02X0002548401Y0001979133I-0000080732D01G02G02X0002548401Y0001979133I-0000080732D01X0002548401Y0001979133I-0000080732D01X0002548401Y0001979133I-0000080732D01X0002548401Y0001979133I-0000080732D01G02G02G02G02X0002548401Y0001979133I-0000080732D01X0002548401Y0001979133I-0000080732D01X0002548401Y0001979133I-0000080732D01G02G02X0002548401Y0001979133I-0000080732D01G02G02X0002548401Y0001979133I-0000080732D01X0002548401Y0001979133I-0000080732D01X0002548401Y0001979133I-0000080732D01X0002548401Y0001979133I-0000080732D01X0002548401Y0001979133I-0000080732D01*
G01G01G01G01G01G01G01G01G01G01G01G01G01G01G01G01*
D129*
X0000931889Y0001538920D02*
X0000982508Y0001538920D01*
X0000982508Y0001645219D01*
X0000896456Y0001538920D02*
X0000896456Y0001609785D01*
X0000896456Y0001645219D02*
X0000901518Y0001640157D01*
X0000896456Y0001635094D01*
X0000891394Y0001640157D01*
X0000896456Y0001645219D01*
X0000896456Y0001635094D01*
X0000845837Y0001538920D02*
X0000845837Y0001609785D01*
X0000845837Y0001599662D02*
X0000840776Y0001604724D01*
X0000830652Y0001609785D01*
X0000815466Y0001609785D01*
X0000805343Y0001604724D01*
X0000800281Y0001594600D01*
X0000800281Y0001538920D01*
X0000800281Y0001594600D02*
X0000795219Y0001604724D01*
X0000785095Y0001609785D01*
X0000769910Y0001609785D01*
X0000759785Y0001604724D01*
X0000754724Y0001594600D01*
X0000754724Y0001538920D01*
X0000663610Y0001543982D02*
X0000673734Y0001538920D01*
X0000693981Y0001538920D01*
X0000704105Y0001543982D01*
X0000709167Y0001554105D01*
X0000709167Y0001594600D01*
X0000704105Y0001604724D01*
X0000693981Y0001609785D01*
X0000673734Y0001609785D01*
X0000663610Y0001604724D01*
X0000658548Y0001594600D01*
X0000658548Y0001584476D01*
X0000709167Y0001574353D01*
X0000618053Y0001543982D02*
X0000602868Y0001538920D01*
X0000577559Y0001538920D01*
X0000567435Y0001543982D01*
X0000562373Y0001549043D01*
X0000557311Y0001559167D01*
X0000557311Y0001569291D01*
X0000562373Y0001579415D01*
X0000567435Y0001584476D01*
X0000577559Y0001589538D01*
X0000597806Y0001594600D01*
X0000607930Y0001599662D01*
X0000612992Y0001604724D01*
X0000618053Y0001614848D01*
X0000618053Y0001624971D01*
X0000612992Y0001635094D01*
X0000607930Y0001640157D01*
X0000597806Y0001645219D01*
X0000572497Y0001645219D01*
X0000557311Y0001640157D01*
X0000511754Y0001538920D02*
X0000511754Y0001645219D01*
X0000486445Y0001645219D01*
X0000471259Y0001640157D01*
X0000461136Y0001630033D01*
X0000456074Y0001619910D01*
X0000451012Y0001599662D01*
X0000451012Y0001584476D01*
X0000456074Y0001564229D01*
X0000461136Y0001554105D01*
X0000471259Y0001543982D01*
X0000486445Y0001538920D01*
X0000511754Y0001538920D01*
X0000344713Y0001538920D02*
X0000380145Y0001589538D01*
X0000405454Y0001538920D02*
X0000405454Y0001645219D01*
X0000364960Y0001645219D01*
X0000354836Y0001640157D01*
X0000349775Y0001635094D01*
X0000344713Y0001624971D01*
X0000344713Y0001609785D01*
X0000349775Y0001599662D01*
X0000354836Y0001594600D01*
X0000364960Y0001589538D01*
X0000405454Y0001589538D01*
D130*
G36*
X0001225037Y0001660952D02*
X0001226477Y0001661402D01*
X0001228076Y0001662476D01*
X0001230061Y0001664433D01*
X0001232661Y0001667537D01*
X0001236102Y0001672049D01*
X0001240612Y0001678232D01*
X0001246417Y0001686349D01*
X0001250133Y0001691574D01*
X0001255964Y0001699818D01*
X0001261212Y0001707307D01*
X0001265659Y0001713723D01*
X0001269088Y0001718751D01*
X0001271279Y0001722073D01*
X0001272016Y0001723359D01*
X0001271379Y0001724448D01*
X0001269178Y0001723253D01*
X0001265383Y0001719751D01*
X0001262645Y0001716873D01*
X0001255786Y0001709428D01*
X0001250304Y0001703377D01*
X0001245610Y0001698039D01*
X0001241116Y0001692735D01*
X0001236235Y0001686785D01*
X0001230914Y0001680178D01*
X0001226311Y0001674301D01*
X0001222480Y0001669153D01*
X0001219725Y0001665164D01*
X0001218350Y0001662762D01*
X0001218260Y0001662321D01*
X0001219869Y0001661329D01*
X0001223141Y0001660864D01*
X0001223530Y0001660860D01*
X0001225037Y0001660952D01*
X0001225037Y0001660952D01*
G37*
X0001225037Y0001660952D02*
X0001226477Y0001661402D01*
X0001228076Y0001662476D01*
X0001230061Y0001664433D01*
X0001232661Y0001667537D01*
X0001236102Y0001672049D01*
X0001240612Y0001678232D01*
X0001246417Y0001686349D01*
X0001250133Y0001691574D01*
X0001255964Y0001699818D01*
X0001261212Y0001707307D01*
X0001265659Y0001713723D01*
X0001269088Y0001718751D01*
X0001271279Y0001722073D01*
X0001272016Y0001723359D01*
X0001271379Y0001724448D01*
X0001269178Y0001723253D01*
X0001265383Y0001719751D01*
X0001262645Y0001716873D01*
X0001255786Y0001709428D01*
X0001250304Y0001703377D01*
X0001245610Y0001698039D01*
X0001241116Y0001692735D01*
X0001236235Y0001686785D01*
X0001230914Y0001680178D01*
X0001226311Y0001674301D01*
X0001222480Y0001669153D01*
X0001219725Y0001665164D01*
X0001218350Y0001662762D01*
X0001218260Y0001662321D01*
X0001219869Y0001661329D01*
X0001223141Y0001660864D01*
X0001223530Y0001660860D01*
X0001225037Y0001660952D01*
G36*
X0001092723Y0001482295D02*
X0001095566Y0001484924D01*
X0001099840Y0001489664D01*
X0001102210Y0001492446D01*
X0001106268Y0001497251D01*
X0001109732Y0001501331D01*
X0001112124Y0001504122D01*
X0001112848Y0001504946D01*
X0001114191Y0001506526D01*
X0001117034Y0001509937D01*
X0001121063Y0001514801D01*
X0001125964Y0001520739D01*
X0001131355Y0001527289D01*
X0001137484Y0001534654D01*
X0001143723Y0001541993D01*
X0001149567Y0001548720D01*
X0001154509Y0001554251D01*
X0001157343Y0001557289D01*
X0001161612Y0001561662D01*
X0001164452Y0001564276D01*
X0001166408Y0001565435D01*
X0001168029Y0001565441D01*
X0001169861Y0001564600D01*
X0001170192Y0001564416D01*
X0001174028Y0001561366D01*
X0001177073Y0001556701D01*
X0001179547Y0001549990D01*
X0001181380Y0001542268D01*
X0001183235Y0001533065D01*
X0001184647Y0001526293D01*
X0001185724Y0001521580D01*
X0001186577Y0001518551D01*
X0001187316Y0001516839D01*
X0001188049Y0001516067D01*
X0001188888Y0001515864D01*
X0001189165Y0001515860D01*
X0001190277Y0001516336D01*
X0001191164Y0001518065D01*
X0001191944Y0001521495D01*
X0001192734Y0001527076D01*
X0001193223Y0001531283D01*
X0001193944Y0001538286D01*
X0001194518Y0001544840D01*
X0001194871Y0001550052D01*
X0001194949Y0001552354D01*
X0001195649Y0001558600D01*
X0001197503Y0001566147D01*
X0001200168Y0001573860D01*
X0001203304Y0001580606D01*
X0001203614Y0001581155D01*
X0001205555Y0001585247D01*
X0001205955Y0001587809D01*
X0001204879Y0001588506D01*
X0001202446Y0001587052D01*
X0001200932Y0001585947D01*
X0001198569Y0001584565D01*
X0001194950Y0001582701D01*
X0001189668Y0001580148D01*
X0001182315Y0001576698D01*
X0001179503Y0001575392D01*
X0001176211Y0001574508D01*
X0001171395Y0001573922D01*
X0001168310Y0001573791D01*
X0001163460Y0001573940D01*
X0001160382Y0001574741D01*
X0001158005Y0001576567D01*
X0001157023Y0001577651D01*
X0001154385Y0001581798D01*
X0001152752Y0001586299D01*
X0001152742Y0001586354D01*
X0001153001Y0001591783D01*
X0001155463Y0001598938D01*
X0001160097Y0001607765D01*
X0001166870Y0001618210D01*
X0001175750Y0001630217D01*
X0001186647Y0001643667D01*
X0001191031Y0001649250D01*
X0001193583Y0001653348D01*
X0001194168Y0001655742D01*
X0001194145Y0001655810D01*
X0001193400Y0001658451D01*
X0001192478Y0001662693D01*
X0001192017Y0001665146D01*
X0001191299Y0001668900D01*
X0001190412Y0001672779D01*
X0001189182Y0001677451D01*
X0001187432Y0001683589D01*
X0001185315Y0001690767D01*
X0001183678Y0001694281D01*
X0001181745Y0001695617D01*
X0001179961Y0001694467D01*
X0001179948Y0001694447D01*
X0001179511Y0001692521D01*
X0001178975Y0001688301D01*
X0001178398Y0001682347D01*
X0001177837Y0001675219D01*
X0001177659Y0001672586D01*
X0001176686Y0001660837D01*
X0001175395Y0001651494D01*
X0001173668Y0001644109D01*
X0001171386Y0001638239D01*
X0001168428Y0001633436D01*
X0001166619Y0001631250D01*
X0001163398Y0001627886D01*
X0001160248Y0001625219D01*
X0001156774Y0001623148D01*
X0001152582Y0001621569D01*
X0001147275Y0001620380D01*
X0001140461Y0001619477D01*
X0001131744Y0001618756D01*
X0001120728Y0001618113D01*
X0001115389Y0001617847D01*
X0001107974Y0001617420D01*
X0001101526Y0001616926D01*
X0001096612Y0001616417D01*
X0001093797Y0001615946D01*
X0001093420Y0001615805D01*
X0001092339Y0001614154D01*
X0001093494Y0001612560D01*
X0001096317Y0001611631D01*
X0001097356Y0001611574D01*
X0001102531Y0001611048D01*
X0001109129Y0001609633D01*
X0001116400Y0001607580D01*
X0001123598Y0001605132D01*
X0001129975Y0001602537D01*
X0001134782Y0001600042D01*
X0001136735Y0001598569D01*
X0001139255Y0001595803D01*
X0001139951Y0001593780D01*
X0001139110Y0001591323D01*
X0001138711Y0001590536D01*
X0001135664Y0001586417D01*
X0001130207Y0001581226D01*
X0001122286Y0001574917D01*
X0001111847Y0001567444D01*
X0001109221Y0001565648D01*
X0001102418Y0001561105D01*
X0001094499Y0001555935D01*
X0001086066Y0001550521D01*
X0001077722Y0001545244D01*
X0001070071Y0001540486D01*
X0001063716Y0001536629D01*
X0001059998Y0001534463D01*
X0001054616Y0001531356D01*
X0001051330Y0001529187D01*
X0001049684Y0001527616D01*
X0001049224Y0001526293D01*
X0001049223Y0001526259D01*
X0001050382Y0001526322D01*
X0001053876Y0001527670D01*
X0001059730Y0001530315D01*
X0001067967Y0001534271D01*
X0001078615Y0001539548D01*
X0001091697Y0001546160D01*
X0001107237Y0001554117D01*
X0001123965Y0001562760D01*
X0001130247Y0001565882D01*
X0001134550Y0001567650D01*
X0001137322Y0001568218D01*
X0001138880Y0001567832D01*
X0001141070Y0001565929D01*
X0001141659Y0001564983D01*
X0001141475Y0001564013D01*
X0001140532Y0001561986D01*
X0001138735Y0001558752D01*
X0001135989Y0001554158D01*
X0001132199Y0001548052D01*
X0001127269Y0001540283D01*
X0001121105Y0001530699D01*
X0001113612Y0001519148D01*
X0001104694Y0001505478D01*
X0001097567Y0001494591D01*
X0001094470Y0001489733D01*
X0001092090Y0001485749D01*
X0001090789Y0001483259D01*
X0001090652Y0001482805D01*
X0001091141Y0001481636D01*
X0001092723Y0001482295D01*
X0001092723Y0001482295D01*
G37*
X0001092723Y0001482295D02*
X0001095566Y0001484924D01*
X0001099840Y0001489664D01*
X0001102210Y0001492446D01*
X0001106268Y0001497251D01*
X0001109732Y0001501331D01*
X0001112124Y0001504122D01*
X0001112848Y0001504946D01*
X0001114191Y0001506526D01*
X0001117034Y0001509937D01*
X0001121063Y0001514801D01*
X0001125964Y0001520739D01*
X0001131355Y0001527289D01*
X0001137484Y0001534654D01*
X0001143723Y0001541993D01*
X0001149567Y0001548720D01*
X0001154509Y0001554251D01*
X0001157343Y0001557289D01*
X0001161612Y0001561662D01*
X0001164452Y0001564276D01*
X0001166408Y0001565435D01*
X0001168029Y0001565441D01*
X0001169861Y0001564600D01*
X0001170192Y0001564416D01*
X0001174028Y0001561366D01*
X0001177073Y0001556701D01*
X0001179547Y0001549990D01*
X0001181380Y0001542268D01*
X0001183235Y0001533065D01*
X0001184647Y0001526293D01*
X0001185724Y0001521580D01*
X0001186577Y0001518551D01*
X0001187316Y0001516839D01*
X0001188049Y0001516067D01*
X0001188888Y0001515864D01*
X0001189165Y0001515860D01*
X0001190277Y0001516336D01*
X0001191164Y0001518065D01*
X0001191944Y0001521495D01*
X0001192734Y0001527076D01*
X0001193223Y0001531283D01*
X0001193944Y0001538286D01*
X0001194518Y0001544840D01*
X0001194871Y0001550052D01*
X0001194949Y0001552354D01*
X0001195649Y0001558600D01*
X0001197503Y0001566147D01*
X0001200168Y0001573860D01*
X0001203304Y0001580606D01*
X0001203614Y0001581155D01*
X0001205555Y0001585247D01*
X0001205955Y0001587809D01*
X0001204879Y0001588506D01*
X0001202446Y0001587052D01*
X0001200932Y0001585947D01*
X0001198569Y0001584565D01*
X0001194950Y0001582701D01*
X0001189668Y0001580148D01*
X0001182315Y0001576698D01*
X0001179503Y0001575392D01*
X0001176211Y0001574508D01*
X0001171395Y0001573922D01*
X0001168310Y0001573791D01*
X0001163460Y0001573940D01*
X0001160382Y0001574741D01*
X0001158005Y0001576567D01*
X0001157023Y0001577651D01*
X0001154385Y0001581798D01*
X0001152752Y0001586299D01*
X0001152742Y0001586354D01*
X0001153001Y0001591783D01*
X0001155463Y0001598938D01*
X0001160097Y0001607765D01*
X0001166870Y0001618210D01*
X0001175750Y0001630217D01*
X0001186647Y0001643667D01*
X0001191031Y0001649250D01*
X0001193583Y0001653348D01*
X0001194168Y0001655742D01*
X0001194145Y0001655810D01*
X0001193400Y0001658451D01*
X0001192478Y0001662693D01*
X0001192017Y0001665146D01*
X0001191299Y0001668900D01*
X0001190412Y0001672779D01*
X0001189182Y0001677451D01*
X0001187432Y0001683589D01*
X0001185315Y0001690767D01*
X0001183678Y0001694281D01*
X0001181745Y0001695617D01*
X0001179961Y0001694467D01*
X0001179948Y0001694447D01*
X0001179511Y0001692521D01*
X0001178975Y0001688301D01*
X0001178398Y0001682347D01*
X0001177837Y0001675219D01*
X0001177659Y0001672586D01*
X0001176686Y0001660837D01*
X0001175395Y0001651494D01*
X0001173668Y0001644109D01*
X0001171386Y0001638239D01*
X0001168428Y0001633436D01*
X0001166619Y0001631250D01*
X0001163398Y0001627886D01*
X0001160248Y0001625219D01*
X0001156774Y0001623148D01*
X0001152582Y0001621569D01*
X0001147275Y0001620380D01*
X0001140461Y0001619477D01*
X0001131744Y0001618756D01*
X0001120728Y0001618113D01*
X0001115389Y0001617847D01*
X0001107974Y0001617420D01*
X0001101526Y0001616926D01*
X0001096612Y0001616417D01*
X0001093797Y0001615946D01*
X0001093420Y0001615805D01*
X0001092339Y0001614154D01*
X0001093494Y0001612560D01*
X0001096317Y0001611631D01*
X0001097356Y0001611574D01*
X0001102531Y0001611048D01*
X0001109129Y0001609633D01*
X0001116400Y0001607580D01*
X0001123598Y0001605132D01*
X0001129975Y0001602537D01*
X0001134782Y0001600042D01*
X0001136735Y0001598569D01*
X0001139255Y0001595803D01*
X0001139951Y0001593780D01*
X0001139110Y0001591323D01*
X0001138711Y0001590536D01*
X0001135664Y0001586417D01*
X0001130207Y0001581226D01*
X0001122286Y0001574917D01*
X0001111847Y0001567444D01*
X0001109221Y0001565648D01*
X0001102418Y0001561105D01*
X0001094499Y0001555935D01*
X0001086066Y0001550521D01*
X0001077722Y0001545244D01*
X0001070071Y0001540486D01*
X0001063716Y0001536629D01*
X0001059998Y0001534463D01*
X0001054616Y0001531356D01*
X0001051330Y0001529187D01*
X0001049684Y0001527616D01*
X0001049224Y0001526293D01*
X0001049223Y0001526259D01*
X0001050382Y0001526322D01*
X0001053876Y0001527670D01*
X0001059730Y0001530315D01*
X0001067967Y0001534271D01*
X0001078615Y0001539548D01*
X0001091697Y0001546160D01*
X0001107237Y0001554117D01*
X0001123965Y0001562760D01*
X0001130247Y0001565882D01*
X0001134550Y0001567650D01*
X0001137322Y0001568218D01*
X0001138880Y0001567832D01*
X0001141070Y0001565929D01*
X0001141659Y0001564983D01*
X0001141475Y0001564013D01*
X0001140532Y0001561986D01*
X0001138735Y0001558752D01*
X0001135989Y0001554158D01*
X0001132199Y0001548052D01*
X0001127269Y0001540283D01*
X0001121105Y0001530699D01*
X0001113612Y0001519148D01*
X0001104694Y0001505478D01*
X0001097567Y0001494591D01*
X0001094470Y0001489733D01*
X0001092090Y0001485749D01*
X0001090789Y0001483259D01*
X0001090652Y0001482805D01*
X0001091141Y0001481636D01*
X0001092723Y0001482295D01*
G36*
X0001237038Y0001634781D02*
X0001241288Y0001636519D01*
X0001247770Y0001639818D01*
X0001248871Y0001640410D01*
X0001255508Y0001644146D01*
X0001262947Y0001648585D01*
X0001270812Y0001653474D01*
X0001278728Y0001658562D01*
X0001286317Y0001663595D01*
X0001293204Y0001668323D01*
X0001299012Y0001672492D01*
X0001303365Y0001675851D01*
X0001305887Y0001678147D01*
X0001306365Y0001678940D01*
X0001305973Y0001679788D01*
X0001304579Y0001679828D01*
X0001301863Y0001678933D01*
X0001297505Y0001676982D01*
X0001291186Y0001673850D01*
X0001285652Y0001671011D01*
X0001272991Y0001664357D01*
X0001262662Y0001658679D01*
X0001254386Y0001653789D01*
X0001247881Y0001649510D01*
X0001242869Y0001645654D01*
X0001239070Y0001642040D01*
X0001236408Y0001638776D01*
X0001234727Y0001635927D01*
X0001234894Y0001634590D01*
X0001237038Y0001634781D01*
X0001237038Y0001634781D01*
G37*
X0001237038Y0001634781D02*
X0001241288Y0001636519D01*
X0001247770Y0001639818D01*
X0001248871Y0001640410D01*
X0001255508Y0001644146D01*
X0001262947Y0001648585D01*
X0001270812Y0001653474D01*
X0001278728Y0001658562D01*
X0001286317Y0001663595D01*
X0001293204Y0001668323D01*
X0001299012Y0001672492D01*
X0001303365Y0001675851D01*
X0001305887Y0001678147D01*
X0001306365Y0001678940D01*
X0001305973Y0001679788D01*
X0001304579Y0001679828D01*
X0001301863Y0001678933D01*
X0001297505Y0001676982D01*
X0001291186Y0001673850D01*
X0001285652Y0001671011D01*
X0001272991Y0001664357D01*
X0001262662Y0001658679D01*
X0001254386Y0001653789D01*
X0001247881Y0001649510D01*
X0001242869Y0001645654D01*
X0001239070Y0001642040D01*
X0001236408Y0001638776D01*
X0001234727Y0001635927D01*
X0001234894Y0001634590D01*
X0001237038Y0001634781D01*
G36*
X0001212997Y0001590693D02*
X0001215848Y0001591114D01*
X0001220926Y0001591633D01*
X0001227605Y0001592199D01*
X0001235259Y0001592753D01*
X0001238509Y0001592962D01*
X0001251505Y0001593803D01*
X0001261860Y0001594556D01*
X0001269784Y0001595243D01*
X0001275493Y0001595886D01*
X0001279196Y0001596507D01*
X0001281111Y0001597129D01*
X0001281445Y0001597416D01*
X0001280798Y0001598542D01*
X0001278210Y0001599527D01*
X0001273885Y0001600611D01*
X0001268259Y0001602175D01*
X0001262095Y0001603988D01*
X0001256152Y0001605819D01*
X0001251191Y0001607438D01*
X0001247973Y0001608614D01*
X0001247419Y0001608868D01*
X0001244675Y0001609729D01*
X0001240191Y0001610584D01*
X0001236275Y0001611094D01*
X0001227651Y0001611996D01*
X0001220014Y0001604112D01*
X0001216059Y0001599843D01*
X0001212752Y0001595938D01*
X0001210752Y0001593180D01*
X0001210645Y0001592990D01*
X0001209649Y0001590766D01*
X0001210456Y0001590212D01*
X0001212997Y0001590693D01*
X0001212997Y0001590693D01*
G37*
X0001212997Y0001590693D02*
X0001215848Y0001591114D01*
X0001220926Y0001591633D01*
X0001227605Y0001592199D01*
X0001235259Y0001592753D01*
X0001238509Y0001592962D01*
X0001251505Y0001593803D01*
X0001261860Y0001594556D01*
X0001269784Y0001595243D01*
X0001275493Y0001595886D01*
X0001279196Y0001596507D01*
X0001281111Y0001597129D01*
X0001281445Y0001597416D01*
X0001280798Y0001598542D01*
X0001278210Y0001599527D01*
X0001273885Y0001600611D01*
X0001268259Y0001602175D01*
X0001262095Y0001603988D01*
X0001256152Y0001605819D01*
X0001251191Y0001607438D01*
X0001247973Y0001608614D01*
X0001247419Y0001608868D01*
X0001244675Y0001609729D01*
X0001240191Y0001610584D01*
X0001236275Y0001611094D01*
X0001227651Y0001611996D01*
X0001220014Y0001604112D01*
X0001216059Y0001599843D01*
X0001212752Y0001595938D01*
X0001210752Y0001593180D01*
X0001210645Y0001592990D01*
X0001209649Y0001590766D01*
X0001210456Y0001590212D01*
X0001212997Y0001590693D01*
%LPC*%
D131*
X0002903543Y0002677952D02*
G75*
G03G03G03G03X0002903543Y0002677952I-0000070866D01X0002903543Y0002677952I-0000070866D01G03G03X0002903543Y0002677952I-0000070866D01G03G03X0002903543Y0002677952I-0000070866D01X0002903543Y0002677952I-0000070866D01X0002903543Y0002677952I-0000070866D01X0002903543Y0002677952I-0000070866D01G03G03G03G03X0002903543Y0002677952I-0000070866D01X0002903543Y0002677952I-0000070866D01X0002903543Y0002677952I-0000070866D01G03G03X0002903543Y0002677952I-0000070866D01G03G03X0002903543Y0002677952I-0000070866D01X0002903543Y0002677952I-0000070866D01X0002903543Y0002677952I-0000070866D01X0002903543Y0002677952I-0000070866D01X0002903543Y0002677952I-0000070866D01*
G01G01G01G01G01G01G01G01G01G01G01G01G01G01G01G01*
X0002902755Y0001611811D02*
G75*
G03G03G03G03X0002902755Y0001611811I-0000070866D01X0002902755Y0001611811I-0000070866D01G03G03X0002902755Y0001611811I-0000070866D01G03G03X0002902755Y0001611811I-0000070866D01X0002902755Y0001611811I-0000070866D01X0002902755Y0001611811I-0000070866D01X0002902755Y0001611811I-0000070866D01G03G03G03G03X0002902755Y0001611811I-0000070866D01X0002902755Y0001611811I-0000070866D01X0002902755Y0001611811I-0000070866D01G03G03X0002902755Y0001611811I-0000070866D01G03G03X0002902755Y0001611811I-0000070866D01X0002902755Y0001611811I-0000070866D01X0002902755Y0001611811I-0000070866D01X0002902755Y0001611811I-0000070866D01X0002902755Y0001611811I-0000070866D01*
G01G01G01G01G01G01G01G01G01G01G01G01G01G01G01G01*
X0000225984Y0001612992D02*
G75*
G03G03G03G03X0000225984Y0001612992I-0000070866D01X0000225984Y0001612992I-0000070866D01G03G03X0000225984Y0001612992I-0000070866D01G03G03X0000225984Y0001612992I-0000070866D01X0000225984Y0001612992I-0000070866D01X0000225984Y0001612992I-0000070866D01X0000225984Y0001612992I-0000070866D01G03G03G03G03X0000225984Y0001612992I-0000070866D01X0000225984Y0001612992I-0000070866D01X0000225984Y0001612992I-0000070866D01G03G03X0000225984Y0001612992I-0000070866D01G03G03X0000225984Y0001612992I-0000070866D01X0000225984Y0001612992I-0000070866D01X0000225984Y0001612992I-0000070866D01X0000225984Y0001612992I-0000070866D01X0000225984Y0001612992I-0000070866D01*
G01G01G01G01G01G01G01G01G01G01G01G01G01G01G01G01*
X0000226377Y0002677559D02*
G75*
G03G03G03G03X0000226377Y0002677559I-0000070866D01X0000226377Y0002677559I-0000070866D01G03G03X0000226377Y0002677559I-0000070866D01G03G03X0000226377Y0002677559I-0000070866D01X0000226377Y0002677559I-0000070866D01X0000226377Y0002677559I-0000070866D01X0000226377Y0002677559I-0000070866D01G03G03G03G03X0000226377Y0002677559I-0000070866D01X0000226377Y0002677559I-0000070866D01X0000226377Y0002677559I-0000070866D01G03G03X0000226377Y0002677559I-0000070866D01G03G03X0000226377Y0002677559I-0000070866D01X0000226377Y0002677559I-0000070866D01X0000226377Y0002677559I-0000070866D01X0000226377Y0002677559I-0000070866D01X0000226377Y0002677559I-0000070866D01*
G01G01G01G01G01G01G01G01G01G01G01G01G01G01G01G01*
D132*
X0001210236Y0002223228D02*
G75*
G03G03G03G03X0001210236Y0002223228I-0000104724D01X0001210236Y0002223228I-0000104724D01G03G03X0001210236Y0002223228I-0000104724D01G03G03X0001210236Y0002223228I-0000104724D01X0001210236Y0002223228I-0000104724D01X0001210236Y0002223228I-0000104724D01X0001210236Y0002223228I-0000104724D01G03G03G03G03X0001210236Y0002223228I-0000104724D01X0001210236Y0002223228I-0000104724D01X0001210236Y0002223228I-0000104724D01G03G03X0001210236Y0002223228I-0000104724D01G03G03X0001210236Y0002223228I-0000104724D01X0001210236Y0002223228I-0000104724D01X0001210236Y0002223228I-0000104724D01X0001210236Y0002223228I-0000104724D01X0001210236Y0002223228I-0000104724D01*
G01G01G01G01G01G01G01G01G01G01G01G01G01G01G01G01*
D133*
X0001220866Y0002295669D02*
X0001220866Y0002150393D01*
D134*
X0001256299Y0002223228D02*
G75*
G03G03G03G03X0001256299Y0002223228I-0000150787D01X0001256299Y0002223228I-0000150787D01G03G03X0001256299Y0002223228I-0000150787D01G03G03X0001256299Y0002223228I-0000150787D01X0001256299Y0002223228I-0000150787D01X0001256299Y0002223228I-0000150787D01X0001256299Y0002223228I-0000150787D01G03G03G03G03X0001256299Y0002223228I-0000150787D01X0001256299Y0002223228I-0000150787D01X0001256299Y0002223228I-0000150787D01G03G03X0001256299Y0002223228I-0000150787D01G03G03X0001256299Y0002223228I-0000150787D01X0001256299Y0002223228I-0000150787D01X0001256299Y0002223228I-0000150787D01X0001256299Y0002223228I-0000150787D01X0001256299Y0002223228I-0000150787D01*
G01G01G01G01G01G01G01G01G01G01G01G01G01G01G01G01*
D132*
X0000698425Y0002223228D02*
G75*
G03G03G03G03X0000698425Y0002223228I-0000104724D01X0000698425Y0002223228I-0000104724D01G03G03X0000698425Y0002223228I-0000104724D01G03G03X0000698425Y0002223228I-0000104724D01X0000698425Y0002223228I-0000104724D01X0000698425Y0002223228I-0000104724D01X0000698425Y0002223228I-0000104724D01G03G03G03G03X0000698425Y0002223228I-0000104724D01X0000698425Y0002223228I-0000104724D01X0000698425Y0002223228I-0000104724D01G03G03X0000698425Y0002223228I-0000104724D01G03G03X0000698425Y0002223228I-0000104724D01X0000698425Y0002223228I-0000104724D01X0000698425Y0002223228I-0000104724D01X0000698425Y0002223228I-0000104724D01X0000698425Y0002223228I-0000104724D01*
G01G01G01G01G01G01G01G01G01G01G01G01G01G01G01G01*
D133*
X0000709055Y0002295669D02*
X0000709055Y0002150393D01*
D134*
X0000744488Y0002223228D02*
G75*
G03G03G03G03X0000744488Y0002223228I-0000150787D01X0000744488Y0002223228I-0000150787D01G03G03X0000744488Y0002223228I-0000150787D01G03G03X0000744488Y0002223228I-0000150787D01X0000744488Y0002223228I-0000150787D01X0000744488Y0002223228I-0000150787D01X0000744488Y0002223228I-0000150787D01G03G03G03G03X0000744488Y0002223228I-0000150787D01X0000744488Y0002223228I-0000150787D01X0000744488Y0002223228I-0000150787D01G03G03X0000744488Y0002223228I-0000150787D01G03G03X0000744488Y0002223228I-0000150787D01X0000744488Y0002223228I-0000150787D01X0000744488Y0002223228I-0000150787D01X0000744488Y0002223228I-0000150787D01X0000744488Y0002223228I-0000150787D01*
G01G01G01G01G01G01G01G01G01G01G01G01G01G01G01G01*
D132*
X0002509448Y0002223228D02*
G75*
G03G03G03G03X0002509448Y0002223228I-0000104724D01X0002509448Y0002223228I-0000104724D01G03G03X0002509448Y0002223228I-0000104724D01G03G03X0002509448Y0002223228I-0000104724D01X0002509448Y0002223228I-0000104724D01X0002509448Y0002223228I-0000104724D01X0002509448Y0002223228I-0000104724D01G03G03G03G03X0002509448Y0002223228I-0000104724D01X0002509448Y0002223228I-0000104724D01X0002509448Y0002223228I-0000104724D01G03G03X0002509448Y0002223228I-0000104724D01G03G03X0002509448Y0002223228I-0000104724D01X0002509448Y0002223228I-0000104724D01X0002509448Y0002223228I-0000104724D01X0002509448Y0002223228I-0000104724D01X0002509448Y0002223228I-0000104724D01*
G01G01G01G01G01G01G01G01G01G01G01G01G01G01G01G01*
D133*
X0002520078Y0002295669D02*
X0002520078Y0002150393D01*
D134*
X0002555511Y0002223228D02*
G75*
G03G03G03G03X0002555511Y0002223228I-0000150787D01X0002555511Y0002223228I-0000150787D01G03G03X0002555511Y0002223228I-0000150787D01G03G03X0002555511Y0002223228I-0000150787D01X0002555511Y0002223228I-0000150787D01X0002555511Y0002223228I-0000150787D01X0002555511Y0002223228I-0000150787D01G03G03G03G03X0002555511Y0002223228I-0000150787D01X0002555511Y0002223228I-0000150787D01X0002555511Y0002223228I-0000150787D01G03G03X0002555511Y0002223228I-0000150787D01G03G03X0002555511Y0002223228I-0000150787D01X0002555511Y0002223228I-0000150787D01X0002555511Y0002223228I-0000150787D01X0002555511Y0002223228I-0000150787D01X0002555511Y0002223228I-0000150787D01*
G01G01G01G01G01G01G01G01G01G01G01G01G01G01G01G01*
D132*
X0001997637Y0002223228D02*
G75*
G03G03G03G03X0001997637Y0002223228I-0000104724D01X0001997637Y0002223228I-0000104724D01G03G03X0001997637Y0002223228I-0000104724D01G03G03X0001997637Y0002223228I-0000104724D01X0001997637Y0002223228I-0000104724D01X0001997637Y0002223228I-0000104724D01X0001997637Y0002223228I-0000104724D01G03G03G03G03X0001997637Y0002223228I-0000104724D01X0001997637Y0002223228I-0000104724D01X0001997637Y0002223228I-0000104724D01G03G03X0001997637Y0002223228I-0000104724D01G03G03X0001997637Y0002223228I-0000104724D01X0001997637Y0002223228I-0000104724D01X0001997637Y0002223228I-0000104724D01X0001997637Y0002223228I-0000104724D01X0001997637Y0002223228I-0000104724D01*
G01G01G01G01G01G01G01G01G01G01G01G01G01G01G01G01*
D133*
X0002008267Y0002295669D02*
X0002008267Y0002150393D01*
D134*
X0002043699Y0002223228D02*
G75*
G03G03G03G03X0002043699Y0002223228I-0000150787D01X0002043699Y0002223228I-0000150787D01G03G03X0002043699Y0002223228I-0000150787D01G03G03X0002043699Y0002223228I-0000150787D01X0002043699Y0002223228I-0000150787D01X0002043699Y0002223228I-0000150787D01X0002043699Y0002223228I-0000150787D01G03G03G03G03X0002043699Y0002223228I-0000150787D01X0002043699Y0002223228I-0000150787D01X0002043699Y0002223228I-0000150787D01G03G03X0002043699Y0002223228I-0000150787D01G03G03X0002043699Y0002223228I-0000150787D01X0002043699Y0002223228I-0000150787D01X0002043699Y0002223228I-0000150787D01X0002043699Y0002223228I-0000150787D01X0002043699Y0002223228I-0000150787D01*
G01G01G01G01G01G01G01G01G01G01G01G01G01G01G01G01*
M02*