  0
SECTION
  2
HEADER
  9
$ACADVER
  1
AC1014
  9
$HANDSEED
  5
FFFF
  9
$MEASUREMENT
 70
     1
  0
ENDSEC
  0
SECTION
  2
TABLES
  0
TABLE
  2
VPORT
  5
8
330
0
100
AcDbSymbolTable
 70
     4
  0
VPORT
  5
2E
330
8
100
AcDbSymbolTableRecord
100
AcDbViewportTableRecord
  2
*ACTIVE
 70
     0
 10
0.0
 20
0.0
 11
1.0
 21
1.0
 12
210.0
 22
148.5
 13
0.0
 23
0.0
 14
10.0
 24
10.0
 15
10.0
 25
10.0
 16
0.0
 26
0.0
 36
1.0
 17
0.0
 27
0.0
 37
0.0
 40
341.0
 41
1.24
 42
50.0
 43
0.0
 44
0.0
 50
0.0
 51
0.0
 71
     0
 72
   100
 73
     1
 74
     3
 75
     0
 76
     0
 77
     0
 78
     0
  0
ENDTAB
  0
TABLE
  2
LTYPE
  5
5
330
0
100
AcDbSymbolTable
 70
     1
  0
LTYPE
  5
14
330
5
100
AcDbSymbolTableRecord
100
AcDbLinetypeTableRecord
  2
BYBLOCK
 70
     0
  3

 72
    65
 73
     0
 40
0.0
  0
LTYPE
  5
15
330
5
100
AcDbSymbolTableRecord
100
AcDbLinetypeTableRecord
  2
BYLAYER
 70
     0
  3

 72
    65
 73
     0
 40
0.0
  0
LTYPE
  5
16
330
5
100
AcDbSymbolTableRecord
100
AcDbLinetypeTableRecord
  2
CONTINUOUS
 70
     0
  3
Solid line
 72
    65
 73
     0
 40
0.0
  0
ENDTAB
  0
TABLE
  2
LAYER
  5
2
100
AcDbSymbolTable
 70
3
  0
LAYER
  5
50
100
AcDbSymbolTableRecord
100
AcDbLayerTableRecord
  2
0
 70
0
  6
CONTINUOUS
  0
LAYER
  5
51
100
AcDbSymbolTableRecord
100
AcDbLayerTableRecord
  2
Layer#1
 70
0
  6
CONTINUOUS
  0
LAYER
  5
52
100
AcDbSymbolTableRecord
100
AcDbLayerTableRecord
  2
Layer_1
 70
0
  6
CONTINUOUS
  0
ENDTAB
  0
TABLE
  2
STYLE
  5
3
330
0
100
AcDbSymbolTable
 70
     1
  0
STYLE
  5
11
330
3
100
AcDbSymbolTableRecord
100
AcDbTextStyleTableRecord
  2
STANDARD
 70
     0
 40
0.0
 41
1.0
 50
0.0
 71
     0
 42
2.5
  3
txt
  4

  0
ENDTAB
  0
TABLE
  2
VIEW
  5
6
330
0
100
AcDbSymbolTable
 70
     0
  0
ENDTAB
  0
TABLE
  2
UCS
  5
7
330
0
100
AcDbSymbolTable
 70
     0
  0
ENDTAB
  0
TABLE
  2
APPID
  5
9
330
0
100
AcDbSymbolTable
 70
     2
  0
APPID
  5
12
330
9
100
AcDbSymbolTableRecord
100
AcDbRegAppTableRecord
  2
ACAD
 70
     0
  0
ENDTAB
  0
TABLE
  2
DIMSTYLE
  5
A
330
0
100
AcDbSymbolTable
 70
     1
  0
DIMSTYLE
105
27
330
A
100
AcDbSymbolTableRecord
100
AcDbDimStyleTableRecord
  2
ISO-25
 70
     0
  3

  4

  5

  6

  7

 40
1.0
 41
2.5
 42
0.625
 43
3.75
 44
1.25
 45
0.0
 46
0.0
 47
0.0
 48
0.0
140
2.5
141
2.5
142
0.0
143
0.03937007874016
144
1.0
145
0.0
146
1.0
147
0.625
 71
     0
 72
     0
 73
     0
 74
     0
 75
     0
 76
     0
 77
     1
 78
     8
170
     0
171
     3
172
     1
173
     0
174
     0
175
     0
176
     0
177
     0
178
     0
270
     2
271
     2
272
     2
273
     2
274
     3
340
11
275
     0
280
     0
281
     0
282
     0
283
     0
284
     8
285
     0
286
     0
287
     3
288
     0
  0
ENDTAB
  0
TABLE
  2
BLOCK_RECORD
  5
1
330
0
100
AcDbSymbolTable
 70
     1
  0
BLOCK_RECORD
  5
1F
330
1
100
AcDbSymbolTableRecord
100
AcDbBlockTableRecord
  2
*MODEL_SPACE
  0
BLOCK_RECORD
  5
1B
330
1
100
AcDbSymbolTableRecord
100
AcDbBlockTableRecord
  2
*PAPER_SPACE
  0
ENDTAB
  0
ENDSEC
  0
SECTION
  2
BLOCKS
  0
BLOCK
  5
20
330
1F
100
AcDbEntity
  8
0
100
AcDbBlockBegin
  2
*MODEL_SPACE
 70
     0
 10
0.0
 20
0.0
 30
0.0
  3
*MODEL_SPACE
  1

  0
ENDBLK
  5
21
330
1F
100
AcDbEntity
  8
0
100
AcDbBlockEnd
  0
BLOCK
  5
1C
330
1B
100
AcDbEntity
 67
     1
  8
0
100
AcDbBlockBegin
  2
*PAPER_SPACE
  1

  0
ENDBLK
  5
1D
330
1B
100
AcDbEntity
 67
     1
  8
0
100
AcDbBlockEnd
  0
ENDSEC
  0
SECTION
  2
ENTITIES
  0
LINE
  5
100
100
AcDbEntity
  8
Layer#1
 62
7
100
AcDbLine
 10
20.135138
 20
279.609708
 30
0.0
 11
96.135141
 21
279.609708
 31
0.0
  0
LINE
  5
101
100
AcDbEntity
  8
Layer#1
 62
7
100
AcDbLine
 10
96.135141
 20
279.609708
 30
0.0
 11
96.135141
 21
244.609708
 31
0.0
  0
LINE
  5
102
100
AcDbEntity
  8
Layer#1
 62
7
100
AcDbLine
 10
96.135141
 20
244.609708
 30
0.0
 11
20.135138
 21
244.609708
 31
0.0
  0
LINE
  5
103
100
AcDbEntity
  8
Layer#1
 62
7
100
AcDbLine
 10
20.135138
 20
244.609708
 30
0.0
 11
20.135138
 21
279.609708
 31
0.0
  0
LINE
  5
104
100
AcDbEntity
  8
Layer_1
 62
7
100
AcDbLine
 10
25.117780
 20
271.603620
 30
0.0
 11
25.114958
 21
252.615936
 31
0.0
  0
LINE
  5
105
100
AcDbEntity
  8
Layer_1
 62
7
100
AcDbLine
 10
25.114958
 20
252.615936
 30
0.0
 11
22.618872
 21
252.609698
 31
0.0
  0
LINE
  5
106
100
AcDbEntity
  8
Layer_1
 62
7
100
AcDbLine
 10
22.618872
 20
252.609698
 30
0.0
 11
22.616049
 21
250.645268
 31
0.0
  0
LINE
  5
107
100
AcDbEntity
  8
Layer_1
 62
7
100
AcDbLine
 10
22.616049
 20
250.645268
 30
0.0
 11
24.265554
 21
250.642135
 31
0.0
  0
LINE
  5
108
100
AcDbEntity
  8
Layer_1
 62
7
100
AcDbLine
 10
24.265554
 20
250.642135
 30
0.0
 11
24.494746
 21
250.537679
 31
0.0
  0
LINE
  5
109
100
AcDbEntity
  8
Layer_1
 62
7
100
AcDbLine
 10
24.494746
 20
250.537679
 30
0.0
 11
24.544615
 21
250.236777
 31
0.0
  0
LINE
  5
10a
100
AcDbEntity
  8
Layer_1
 62
7
100
AcDbLine
 10
24.544615
 20
250.236777
 30
0.0
 11
24.474454
 21
250.091782
 31
0.0
  0
LINE
  5
10b
100
AcDbEntity
  8
Layer_1
 62
7
100
AcDbLine
 10
24.474454
 20
250.091782
 30
0.0
 11
23.914751
 21
249.557022
 31
0.0
  0
LINE
  5
10c
100
AcDbEntity
  8
Layer_1
 62
7
100
AcDbLine
 10
23.914751
 20
249.557022
 30
0.0
 11
23.638794
 21
249.493099
 31
0.0
  0
LINE
  5
10d
100
AcDbEntity
  8
Layer_1
 62
7
100
AcDbLine
 10
23.638794
 20
249.493099
 30
0.0
 11
23.351944
 21
249.281065
 31
0.0
  0
LINE
  5
10e
100
AcDbEntity
  8
Layer_1
 62
7
100
AcDbLine
 10
23.351944
 20
249.281065
 30
0.0
 11
23.185122
 21
249.016025
 31
0.0
  0
LINE
  5
10f
100
AcDbEntity
  8
Layer_1
 62
7
100
AcDbLine
 10
23.185122
 20
249.016025
 30
0.0
 11
23.093118
 21
248.638727
 31
0.0
  0
LINE
  5
110
100
AcDbEntity
  8
Layer_1
 62
7
100
AcDbLine
 10
23.093118
 20
248.638727
 30
0.0
 11
23.105536
 21
248.317558
 31
0.0
  0
LINE
  5
111
100
AcDbEntity
  8
Layer_1
 62
7
100
AcDbLine
 10
23.105536
 20
248.317558
 30
0.0
 11
23.270805
 21
248.007303
 31
0.0
  0
LINE
  5
112
100
AcDbEntity
  8
Layer_1
 62
7
100
AcDbLine
 10
23.270805
 20
248.007303
 30
0.0
 11
23.523366
 21
247.760971
 31
0.0
  0
LINE
  5
113
100
AcDbEntity
  8
Layer_1
 62
7
100
AcDbLine
 10
23.523366
 20
247.760971
 30
0.0
 11
23.866378
 21
247.584797
 31
0.0
  0
LINE
  5
114
100
AcDbEntity
  8
Layer_1
 62
7
100
AcDbLine
 10
23.866378
 20
247.584797
 30
0.0
 11
24.212496
 21
247.556744
 31
0.0
  0
LINE
  5
115
100
AcDbEntity
  8
Layer_1
 62
7
100
AcDbLine
 10
24.212496
 20
247.556744
 30
0.0
 11
24.586666
 21
247.709533
 31
0.0
  0
LINE
  5
116
100
AcDbEntity
  8
Layer_1
 62
7
100
AcDbLine
 10
24.586666
 20
247.709533
 30
0.0
 11
24.946810
 21
248.063443
 31
0.0
  0
LINE
  5
117
100
AcDbEntity
  8
Layer_1
 62
7
100
AcDbLine
 10
24.946810
 20
248.063443
 30
0.0
 11
25.130790
 21
248.515574
 31
0.0
  0
LINE
  5
118
100
AcDbEntity
  8
Layer_1
 62
7
100
AcDbLine
 10
25.130790
 20
248.515574
 30
0.0
 11
25.732573
 21
249.064366
 31
0.0
  0
LINE
  5
119
100
AcDbEntity
  8
Layer_1
 62
7
100
AcDbLine
 10
25.732573
 20
249.064366
 30
0.0
 11
25.769996
 21
249.098665
 31
0.0
  0
LINE
  5
11a
100
AcDbEntity
  8
Layer_1
 62
7
100
AcDbLine
 10
25.769996
 20
249.098665
 30
0.0
 11
26.044400
 21
248.938080
 31
0.0
  0
LINE
  5
11b
100
AcDbEntity
  8
Layer_1
 62
7
100
AcDbLine
 10
26.044400
 20
248.938080
 30
0.0
 11
26.125454
 21
248.802442
 31
0.0
  0
LINE
  5
11c
100
AcDbEntity
  8
Layer_1
 62
7
100
AcDbLine
 10
26.125454
 20
248.802442
 30
0.0
 11
26.128277
 21
246.647805
 31
0.0
  0
LINE
  5
11d
100
AcDbEntity
  8
Layer_1
 62
7
100
AcDbLine
 10
26.128277
 20
246.647805
 30
0.0
 11
90.042828
 21
246.644587
 31
0.0
  0
LINE
  5
11e
100
AcDbEntity
  8
Layer_1
 62
7
100
AcDbLine
 10
90.042828
 20
246.644587
 30
0.0
 11
90.042546
 21
248.858564
 31
0.0
  0
LINE
  5
11f
100
AcDbEntity
  8
Layer_1
 62
7
100
AcDbLine
 10
90.042546
 20
248.858564
 30
0.0
 11
90.148562
 21
248.998882
 31
0.0
  0
LINE
  5
120
100
AcDbEntity
  8
Layer_1
 62
7
100
AcDbLine
 10
90.148562
 20
248.998882
 30
0.0
 11
90.338769
 21
249.067482
 31
0.0
  0
LINE
  5
121
100
AcDbEntity
  8
Layer_1
 62
7
100
AcDbLine
 10
90.338769
 20
249.067482
 30
0.0
 11
90.454141
 21
249.023828
 31
0.0
  0
LINE
  5
122
100
AcDbEntity
  8
Layer_1
 62
7
100
AcDbLine
 10
90.454141
 20
249.023828
 30
0.0
 11
91.090242
 21
248.437616
 31
0.0
  0
LINE
  5
123
100
AcDbEntity
  8
Layer_1
 62
7
100
AcDbLine
 10
91.090242
 20
248.437616
 30
0.0
 11
91.133896
 21
248.287945
 31
0.0
  0
LINE
  5
124
100
AcDbEntity
  8
Layer_1
 62
7
100
AcDbLine
 10
91.133896
 20
248.287945
 30
0.0
 11
91.165079
 21
248.103976
 31
0.0
  0
LINE
  5
125
100
AcDbEntity
  8
Layer_1
 62
7
100
AcDbLine
 10
91.165079
 20
248.103976
 30
0.0
 11
91.271096
 21
247.966776
 31
0.0
  0
LINE
  5
126
100
AcDbEntity
  8
Layer_1
 62
7
100
AcDbLine
 10
91.271096
 20
247.966776
 30
0.0
 11
91.405174
 21
247.848288
 31
0.0
  0
LINE
  5
127
100
AcDbEntity
  8
Layer_1
 62
7
100
AcDbLine
 10
91.405174
 20
247.848288
 30
0.0
 11
91.701400
 21
247.642489
 31
0.0
  0
LINE
  5
128
100
AcDbEntity
  8
Layer_1
 62
7
100
AcDbLine
 10
91.701400
 20
247.642489
 30
0.0
 11
91.991386
 21
247.583244
 31
0.0
  0
LINE
  5
129
100
AcDbEntity
  8
Layer_1
 62
7
100
AcDbLine
 10
91.991386
 20
247.583244
 30
0.0
 11
92.325026
 21
247.589482
 31
0.0
  0
LINE
  5
12a
100
AcDbEntity
  8
Layer_1
 62
7
100
AcDbLine
 10
92.325026
 20
247.589482
 30
0.0
 11
92.646195
 21
247.770332
 31
0.0
  0
LINE
  5
12b
100
AcDbEntity
  8
Layer_1
 62
7
100
AcDbLine
 10
92.646195
 20
247.770332
 30
0.0
 11
92.917476
 21
248.063440
 31
0.0
  0
LINE
  5
12c
100
AcDbEntity
  8
Layer_1
 62
7
100
AcDbLine
 10
92.917476
 20
248.063440
 30
0.0
 11
93.067147
 21
248.443853
 31
0.0
  0
LINE
  5
12d
100
AcDbEntity
  8
Layer_1
 62
7
100
AcDbLine
 10
93.067147
 20
248.443853
 30
0.0
 11
93.054672
 21
248.793086
 31
0.0
  0
LINE
  5
12e
100
AcDbEntity
  8
Layer_1
 62
7
100
AcDbLine
 10
93.054672
 20
248.793086
 30
0.0
 11
92.901883
 21
249.123608
 31
0.0
  0
LINE
  5
12f
100
AcDbEntity
  8
Layer_1
 62
7
100
AcDbLine
 10
92.901883
 20
249.123608
 30
0.0
 11
92.649314
 21
249.373058
 31
0.0
  0
LINE
  5
130
100
AcDbEntity
  8
Layer_1
 62
7
100
AcDbLine
 10
92.649314
 20
249.373058
 30
0.0
 11
92.278256
 21
249.541441
 31
0.0
  0
LINE
  5
131
100
AcDbEntity
  8
Layer_1
 62
7
100
AcDbLine
 10
92.278256
 20
249.541441
 30
0.0
 11
91.632800
 21
250.161951
 31
0.0
  0
LINE
  5
132
100
AcDbEntity
  8
Layer_1
 62
7
100
AcDbLine
 10
91.632800
 20
250.161951
 30
0.0
 11
91.582909
 21
250.358392
 31
0.0
  0
LINE
  5
133
100
AcDbEntity
  8
Layer_1
 62
7
100
AcDbLine
 10
91.582909
 20
250.358392
 30
0.0
 11
91.685807
 21
250.570428
 31
0.0
  0
LINE
  5
134
100
AcDbEntity
  8
Layer_1
 62
7
100
AcDbLine
 10
91.685807
 20
250.570428
 30
0.0
 11
91.894722
 21
250.645262
 31
0.0
  0
LINE
  5
135
100
AcDbEntity
  8
Layer_1
 62
7
100
AcDbLine
 10
91.894722
 20
250.645262
 30
0.0
 11
93.506804
 21
250.651500
 31
0.0
  0
LINE
  5
136
100
AcDbEntity
  8
Layer_1
 62
7
100
AcDbLine
 10
93.506804
 20
250.651500
 30
0.0
 11
93.504546
 21
252.608739
 31
0.0
  0
LINE
  5
137
100
AcDbEntity
  8
Layer_1
 62
7
100
AcDbLine
 10
93.504546
 20
252.608739
 30
0.0
 11
91.035101
 21
252.615343
 31
0.0
  0
LINE
  5
138
100
AcDbEntity
  8
Layer_1
 62
7
100
AcDbLine
 10
91.035101
 20
252.615343
 30
0.0
 11
91.045036
 21
271.596993
 31
0.0
  0
LINE
  5
139
100
AcDbEntity
  8
Layer_1
 62
7
100
AcDbLine
 10
91.045036
 20
271.596993
 30
0.0
 11
93.494637
 21
271.610230
 31
0.0
  0
LINE
  5
13a
100
AcDbEntity
  8
Layer_1
 62
7
100
AcDbLine
 10
93.494637
 20
271.610230
 30
0.0
 11
93.500140
 21
273.590196
 31
0.0
  0
LINE
  5
13b
100
AcDbEntity
  8
Layer_1
 62
7
100
AcDbLine
 10
93.500140
 20
273.590196
 30
0.0
 11
91.779245
 21
273.587939
 31
0.0
  0
LINE
  5
13c
100
AcDbEntity
  8
Layer_1
 62
7
100
AcDbLine
 10
91.779245
 20
273.587939
 30
0.0
 11
91.627111
 21
273.714718
 31
0.0
  0
LINE
  5
13d
100
AcDbEntity
  8
Layer_1
 62
7
100
AcDbLine
 10
91.627111
 20
273.714718
 30
0.0
 11
91.569783
 21
273.877880
 31
0.0
  0
LINE
  5
13e
100
AcDbEntity
  8
Layer_1
 62
7
100
AcDbLine
 10
91.569783
 20
273.877880
 30
0.0
 11
91.650261
 21
274.036630
 31
0.0
  0
LINE
  5
13f
100
AcDbEntity
  8
Layer_1
 62
7
100
AcDbLine
 10
91.650261
 20
274.036630
 30
0.0
 11
92.204783
 21
274.635248
 31
0.0
  0
LINE
  5
140
100
AcDbEntity
  8
Layer_1
 62
7
100
AcDbLine
 10
92.204783
 20
274.635248
 30
0.0
 11
92.386683
 21
274.701396
 31
0.0
  0
LINE
  5
141
100
AcDbEntity
  8
Layer_1
 62
7
100
AcDbLine
 10
92.386683
 20
274.701396
 30
0.0
 11
92.621504
 21
274.786282
 31
0.0
  0
LINE
  5
142
100
AcDbEntity
  8
Layer_1
 62
7
100
AcDbLine
 10
92.621504
 20
274.786282
 30
0.0
 11
92.821043
 21
274.970387
 31
0.0
  0
LINE
  5
143
100
AcDbEntity
  8
Layer_1
 62
7
100
AcDbLine
 10
92.821043
 20
274.970387
 30
0.0
 11
93.017275
 21
275.311038
 31
0.0
  0
LINE
  5
144
100
AcDbEntity
  8
Layer_1
 62
7
100
AcDbLine
 10
93.017275
 20
275.311038
 30
0.0
 11
93.069088
 21
275.456560
 31
0.0
  0
LINE
  5
145
100
AcDbEntity
  8
Layer_1
 62
7
100
AcDbLine
 10
93.069088
 20
275.456560
 30
0.0
 11
93.066830
 21
275.830284
 31
0.0
  0
LINE
  5
146
100
AcDbEntity
  8
Layer_1
 62
7
100
AcDbLine
 10
93.066830
 20
275.830284
 30
0.0
 11
92.990763
 21
275.992342
 31
0.0
  0
LINE
  5
147
100
AcDbEntity
  8
Layer_1
 62
7
100
AcDbLine
 10
92.990763
 20
275.992342
 30
0.0
 11
92.792324
 21
276.294407
 31
0.0
  0
LINE
  5
148
100
AcDbEntity
  8
Layer_1
 62
7
100
AcDbLine
 10
92.792324
 20
276.294407
 30
0.0
 11
92.623654
 21
276.439927
 31
0.0
  0
LINE
  5
149
100
AcDbEntity
  8
Layer_1
 62
7
100
AcDbLine
 10
92.623654
 20
276.439927
 30
0.0
 11
92.484747
 21
276.534737
 31
0.0
  0
LINE
  5
14a
100
AcDbEntity
  8
Layer_1
 62
7
100
AcDbLine
 10
92.484747
 20
276.534737
 30
0.0
 11
92.241110
 21
276.605292
 31
0.0
  0
LINE
  5
14b
100
AcDbEntity
  8
Layer_1
 62
7
100
AcDbLine
 10
92.241110
 20
276.605292
 30
0.0
 11
91.920303
 21
276.612997
 31
0.0
  0
LINE
  5
14c
100
AcDbEntity
  8
Layer_1
 62
7
100
AcDbLine
 10
91.920303
 20
276.612997
 30
0.0
 11
91.655719
 21
276.503859
 31
0.0
  0
LINE
  5
14d
100
AcDbEntity
  8
Layer_1
 62
7
100
AcDbLine
 10
91.655719
 20
276.503859
 30
0.0
 11
91.394444
 21
276.345109
 31
0.0
  0
LINE
  5
14e
100
AcDbEntity
  8
Layer_1
 62
7
100
AcDbLine
 10
91.394444
 20
276.345109
 30
0.0
 11
91.223567
 21
276.113596
 31
0.0
  0
LINE
  5
14f
100
AcDbEntity
  8
Layer_1
 62
7
100
AcDbLine
 10
91.223567
 20
276.113596
 30
0.0
 11
91.110017
 21
275.821454
 31
0.0
  0
LINE
  5
150
100
AcDbEntity
  8
Layer_1
 62
7
100
AcDbLine
 10
91.110017
 20
275.821454
 30
0.0
 11
91.046074
 21
275.682547
 31
0.0
  0
LINE
  5
151
100
AcDbEntity
  8
Layer_1
 62
7
100
AcDbLine
 10
91.046074
 20
275.682547
 30
0.0
 11
90.383515
 21
275.119206
 31
0.0
  0
LINE
  5
152
100
AcDbEntity
  8
Layer_1
 62
7
100
AcDbLine
 10
90.383515
 20
275.119206
 30
0.0
 11
90.239096
 21
275.150072
 31
0.0
  0
LINE
  5
153
100
AcDbEntity
  8
Layer_1
 62
7
100
AcDbLine
 10
90.239096
 20
275.150072
 30
0.0
 11
90.073731
 21
275.304414
 31
0.0
  0
LINE
  5
154
100
AcDbEntity
  8
Layer_1
 62
7
100
AcDbLine
 10
90.073731
 20
275.304414
 30
0.0
 11
90.038453
 21
275.456549
 31
0.0
  0
LINE
  5
155
100
AcDbEntity
  8
Layer_1
 62
7
100
AcDbLine
 10
90.038453
 20
275.456549
 30
0.0
 11
90.040711
 21
277.577624
 31
0.0
  0
LINE
  5
156
100
AcDbEntity
  8
Layer_1
 62
7
100
AcDbLine
 10
90.040711
 20
277.577624
 30
0.0
 11
26.129914
 21
277.577624
 31
0.0
  0
LINE
  5
157
100
AcDbEntity
  8
Layer_1
 62
7
100
AcDbLine
 10
26.129914
 20
277.577624
 30
0.0
 11
26.114391
 21
275.320636
 31
0.0
  0
LINE
  5
158
100
AcDbEntity
  8
Layer_1
 62
7
100
AcDbLine
 10
26.114391
 20
275.320636
 30
0.0
 11
26.044259
 21
275.238004
 31
0.0
  0
LINE
  5
159
100
AcDbEntity
  8
Layer_1
 62
7
100
AcDbLine
 10
26.044259
 20
275.238004
 30
0.0
 11
25.886779
 21
275.139785
 31
0.0
  0
LINE
  5
15a
100
AcDbEntity
  8
Layer_1
 62
7
100
AcDbLine
 10
25.886779
 20
275.139785
 30
0.0
 11
25.730880
 21
275.130416
 31
0.0
  0
LINE
  5
15b
100
AcDbEntity
  8
Layer_1
 62
7
100
AcDbLine
 10
25.730880
 20
275.130416
 30
0.0
 11
25.046434
 21
275.785225
 31
0.0
  0
LINE
  5
15c
100
AcDbEntity
  8
Layer_1
 62
7
100
AcDbLine
 10
25.046434
 20
275.785225
 30
0.0
 11
24.980959
 21
276.017528
 31
0.0
  0
LINE
  5
15d
100
AcDbEntity
  8
Layer_1
 62
7
100
AcDbLine
 10
24.980959
 20
276.017528
 30
0.0
 11
24.839086
 21
276.254507
 31
0.0
  0
LINE
  5
15e
100
AcDbEntity
  8
Layer_1
 62
7
100
AcDbLine
 10
24.839086
 20
276.254507
 30
0.0
 11
24.561576
 21
276.488367
 31
0.0
  0
LINE
  5
15f
100
AcDbEntity
  8
Layer_1
 62
7
100
AcDbLine
 10
24.561576
 20
276.488367
 30
0.0
 11
24.259119
 21
276.600621
 31
0.0
  0
LINE
  5
160
100
AcDbEntity
  8
Layer_1
 62
7
100
AcDbLine
 10
24.259119
 20
276.600621
 30
0.0
 11
23.875579
 21
276.606858
 31
0.0
  0
LINE
  5
161
100
AcDbEntity
  8
Layer_1
 62
7
100
AcDbLine
 10
23.875579
 20
276.606858
 30
0.0
 11
23.563752
 21
276.460306
 31
0.0
  0
LINE
  5
162
100
AcDbEntity
  8
Layer_1
 62
7
100
AcDbLine
 10
23.563752
 20
276.460306
 30
0.0
 11
23.367325
 21
276.307517
 31
0.0
  0
LINE
  5
163
100
AcDbEntity
  8
Layer_1
 62
7
100
AcDbLine
 10
23.367325
 20
276.307517
 30
0.0
 11
23.195818
 21
276.064303
 31
0.0
  0
LINE
  5
164
100
AcDbEntity
  8
Layer_1
 62
7
100
AcDbLine
 10
23.195818
 20
276.064303
 30
0.0
 11
23.096053
 21
275.796141
 31
0.0
  0
LINE
  5
165
100
AcDbEntity
  8
Layer_1
 62
7
100
AcDbLine
 10
23.096053
 20
275.796141
 30
0.0
 11
23.105366
 21
275.418847
 31
0.0
  0
LINE
  5
166
100
AcDbEntity
  8
Layer_1
 62
7
100
AcDbLine
 10
23.105366
 20
275.418847
 30
0.0
 11
23.211397
 21
275.138214
 31
0.0
  0
LINE
  5
167
100
AcDbEntity
  8
Layer_1
 62
7
100
AcDbLine
 10
23.211397
 20
275.138214
 30
0.0
 11
23.351690
 21
274.923061
 31
0.0
  0
LINE
  5
168
100
AcDbEntity
  8
Layer_1
 62
7
100
AcDbLine
 10
23.351690
 20
274.923061
 30
0.0
 11
23.523196
 21
274.795218
 31
0.0
  0
LINE
  5
169
100
AcDbEntity
  8
Layer_1
 62
7
100
AcDbLine
 10
23.523196
 20
274.795218
 30
0.0
 11
23.803838
 21
274.661137
 31
0.0
  0
LINE
  5
16a
100
AcDbEntity
  8
Layer_1
 62
7
100
AcDbLine
 10
23.803838
 20
274.661137
 30
0.0
 11
23.994028
 21
274.595655
 31
0.0
  0
LINE
  5
16b
100
AcDbEntity
  8
Layer_1
 62
7
100
AcDbLine
 10
23.994028
 20
274.595655
 30
0.0
 11
24.511651
 21
274.040626
 31
0.0
  0
LINE
  5
16c
100
AcDbEntity
  8
Layer_1
 62
7
100
AcDbLine
 10
24.511651
 20
274.040626
 30
0.0
 11
24.555311
 21
273.844182
 31
0.0
  0
LINE
  5
16d
100
AcDbEntity
  8
Layer_1
 62
7
100
AcDbLine
 10
24.555311
 20
273.844182
 30
0.0
 11
24.514756
 21
273.688277
 31
0.0
  0
LINE
  5
16e
100
AcDbEntity
  8
Layer_1
 62
7
100
AcDbLine
 10
24.514756
 20
273.688277
 30
0.0
 11
24.327671
 21
273.579142
 31
0.0
  0
LINE
  5
16f
100
AcDbEntity
  8
Layer_1
 62
7
100
AcDbLine
 10
24.327671
 20
273.579142
 30
0.0
 11
22.625165
 21
273.576009
 31
0.0
  0
LINE
  5
170
100
AcDbEntity
  8
Layer_1
 62
7
100
AcDbLine
 10
22.625165
 20
273.576009
 30
0.0
 11
22.612747
 21
271.624050
 31
0.0
  0
LINE
  5
171
100
AcDbEntity
  8
Layer_1
 62
7
100
AcDbLine
 10
22.612747
 20
271.624050
 30
0.0
 11
25.117780
 21
271.603620
 31
0.0
  0
LINE
  5
172
100
AcDbEntity
  8
Layer_1
 62
7
100
AcDbLine
 10
20.123773
 20
269.597198
 30
0.0
 11
21.135794
 21
269.590594
 31
0.0
  0
LINE
  5
173
100
AcDbEntity
  8
Layer_1
 62
7
100
AcDbLine
 10
21.135794
 20
269.590594
 30
0.0
 11
21.129303
 21
254.628409
 31
0.0
  0
LINE
  5
174
100
AcDbEntity
  8
Layer_1
 62
7
100
AcDbLine
 10
21.129303
 20
254.628409
 30
0.0
 11
20.319014
 21
254.627280
 31
0.0
  0
LINE
  5
175
100
AcDbEntity
  8
Layer_1
 62
7
100
AcDbLine
 10
20.319014
 20
254.627280
 30
0.0
 11
20.201046
 21
254.578771
 31
0.0
  0
LINE
  5
176
100
AcDbEntity
  8
Layer_1
 62
7
100
AcDbLine
 10
20.201046
 20
254.578771
 30
0.0
 11
20.123886
 21
254.468530
 31
0.0
  0
LINE
  5
177
100
AcDbEntity
  8
Layer_1
 62
7
100
AcDbLine
 10
20.123886
 20
254.468530
 30
0.0
 11
20.117113
 21
254.374823
 31
0.0
  0
LINE
  5
178
100
AcDbEntity
  8
Layer_1
 62
7
100
AcDbLine
 10
20.117113
 20
254.374823
 30
0.0
 11
20.121628
 21
246.516698
 31
0.0
  0
LINE
  5
179
100
AcDbEntity
  8
Layer_1
 62
7
100
AcDbLine
 10
20.121628
 20
246.516698
 30
0.0
 11
20.192184
 21
246.018398
 31
0.0
  0
LINE
  5
17a
100
AcDbEntity
  8
Layer_1
 62
7
100
AcDbLine
 10
20.192184
 20
246.018398
 30
0.0
 11
20.434697
 21
245.573018
 31
0.0
  0
LINE
  5
17b
100
AcDbEntity
  8
Layer_1
 62
7
100
AcDbLine
 10
20.434697
 20
245.573018
 30
0.0
 11
20.721350
 21
245.198190
 31
0.0
  0
LINE
  5
17c
100
AcDbEntity
  8
Layer_1
 62
7
100
AcDbLine
 10
20.721350
 20
245.198190
 30
0.0
 11
21.131448
 21
244.915968
 31
0.0
  0
LINE
  5
17d
100
AcDbEntity
  8
Layer_1
 62
7
100
AcDbLine
 10
21.131448
 20
244.915968
 30
0.0
 11
21.625336
 21
244.682254
 31
0.0
  0
LINE
  5
17e
100
AcDbEntity
  8
Layer_1
 62
7
100
AcDbLine
 10
21.625336
 20
244.682254
 30
0.0
 11
94.191723
 21
244.682254
 31
0.0
  0
LINE
  5
17f
100
AcDbEntity
  8
Layer_1
 62
7
100
AcDbLine
 10
94.191723
 20
244.682254
 30
0.0
 11
94.734120
 21
244.748398
 31
0.0
  0
LINE
  5
180
100
AcDbEntity
  8
Layer_1
 62
7
100
AcDbLine
 10
94.734120
 20
244.748398
 30
0.0
 11
95.205959
 21
245.004162
 31
0.0
  0
LINE
  5
181
100
AcDbEntity
  8
Layer_1
 62
7
100
AcDbLine
 10
95.205959
 20
245.004162
 30
0.0
 11
95.686620
 21
245.520101
 31
0.0
  0
LINE
  5
182
100
AcDbEntity
  8
Layer_1
 62
7
100
AcDbLine
 10
95.686620
 20
245.520101
 30
0.0
 11
95.968843
 21
246.044857
 31
0.0
  0
LINE
  5
183
100
AcDbEntity
  8
Layer_1
 62
7
100
AcDbLine
 10
95.968843
 20
246.044857
 30
0.0
 11
96.061445
 21
246.604893
 31
0.0
  0
LINE
  5
184
100
AcDbEntity
  8
Layer_1
 62
7
100
AcDbLine
 10
96.061445
 20
246.604893
 30
0.0
 11
96.061445
 21
254.411972
 31
0.0
  0
LINE
  5
185
100
AcDbEntity
  8
Layer_1
 62
7
100
AcDbLine
 10
96.061445
 20
254.411972
 30
0.0
 11
95.979375
 21
254.524226
 31
0.0
  0
LINE
  5
186
100
AcDbEntity
  8
Layer_1
 62
7
100
AcDbLine
 10
95.979375
 20
254.524226
 30
0.0
 11
95.800082
 21
254.639599
 31
0.0
  0
LINE
  5
187
100
AcDbEntity
  8
Layer_1
 62
7
100
AcDbLine
 10
95.800082
 20
254.639599
 30
0.0
 11
95.037696
 21
254.639599
 31
0.0
  0
LINE
  5
188
100
AcDbEntity
  8
Layer_1
 62
7
100
AcDbLine
 10
95.037696
 20
254.639599
 30
0.0
 11
95.037696
 21
269.583953
 31
0.0
  0
LINE
  5
189
100
AcDbEntity
  8
Layer_1
 62
7
100
AcDbLine
 10
95.037696
 20
269.583953
 30
0.0
 11
95.952304
 21
269.583953
 31
0.0
  0
LINE
  5
18a
100
AcDbEntity
  8
Layer_1
 62
7
100
AcDbLine
 10
95.952304
 20
269.583953
 30
0.0
 11
96.014040
 21
269.618130
 31
0.0
  0
LINE
  5
18b
100
AcDbEntity
  8
Layer_1
 62
7
100
AcDbLine
 10
96.014040
 20
269.618130
 30
0.0
 11
96.043806
 21
269.699709
 31
0.0
  0
LINE
  5
18c
100
AcDbEntity
  8
Layer_1
 62
7
100
AcDbLine
 10
96.043806
 20
269.699709
 30
0.0
 11
96.040504
 21
277.739735
 31
0.0
  0
LINE
  5
18d
100
AcDbEntity
  8
Layer_1
 62
7
100
AcDbLine
 10
96.040504
 20
277.739735
 30
0.0
 11
95.925852
 21
278.193938
 31
0.0
  0
LINE
  5
18e
100
AcDbEntity
  8
Layer_1
 62
7
100
AcDbLine
 10
95.925852
 20
278.193938
 30
0.0
 11
95.704265
 21
278.637114
 31
0.0
  0
LINE
  5
18f
100
AcDbEntity
  8
Layer_1
 62
7
100
AcDbLine
 10
95.704265
 20
278.637114
 30
0.0
 11
95.366919
 21
279.047217
 31
0.0
  0
LINE
  5
190
100
AcDbEntity
  8
Layer_1
 62
7
100
AcDbLine
 10
95.366919
 20
279.047217
 30
0.0
 11
95.014141
 21
279.294162
 31
0.0
  0
LINE
  5
191
100
AcDbEntity
  8
Layer_1
 62
7
100
AcDbLine
 10
95.014141
 20
279.294162
 30
0.0
 11
94.557737
 21
279.527878
 31
0.0
  0
LINE
  5
192
100
AcDbEntity
  8
Layer_1
 62
7
100
AcDbLine
 10
94.557737
 20
279.527878
 30
0.0
 11
94.176294
 21
279.569771
 31
0.0
  0
LINE
  5
193
100
AcDbEntity
  8
Layer_1
 62
7
100
AcDbLine
 10
94.176294
 20
279.569771
 30
0.0
 11
21.953053
 21
279.569771
 31
0.0
  0
LINE
  5
194
100
AcDbEntity
  8
Layer_1
 62
7
100
AcDbLine
 10
21.953053
 20
279.569771
 30
0.0
 11
21.454169
 21
279.444436
 31
0.0
  0
LINE
  5
195
100
AcDbEntity
  8
Layer_1
 62
7
100
AcDbLine
 10
21.454169
 20
279.444436
 30
0.0
 11
20.983309
 21
279.185630
 31
0.0
  0
LINE
  5
196
100
AcDbEntity
  8
Layer_1
 62
7
100
AcDbLine
 10
20.983309
 20
279.185630
 30
0.0
 11
20.581086
 21
278.817689
 31
0.0
  0
LINE
  5
197
100
AcDbEntity
  8
Layer_1
 62
7
100
AcDbLine
 10
20.581086
 20
278.817689
 30
0.0
 11
20.294207
 21
278.337496
 31
0.0
  0
LINE
  5
198
100
AcDbEntity
  8
Layer_1
 62
7
100
AcDbLine
 10
20.294207
 20
278.337496
 30
0.0
 11
20.135175
 21
277.879128
 31
0.0
  0
LINE
  5
199
100
AcDbEntity
  8
Layer_1
 62
7
100
AcDbLine
 10
20.135175
 20
277.879128
 30
0.0
 11
20.123773
 21
269.597198
 31
0.0
  0
ENDSEC
  0
SECTION
  2
OBJECTS
  0
DICTIONARY
  5
C
330
0
100
AcDbDictionary
  3
ACAD_GROUP
350
D
  3
ACAD_MLINESTYLE
350
17
  0
DICTIONARY
  5
D
330
C
100
AcDbDictionary
  0
DICTIONARY
  5
1A
330
C
100
AcDbDictionary
  0
DICTIONARY
  5
17
330
C
100
AcDbDictionary
  3
STANDARD
350
18
  0
DICTIONARY
  5
19
330
C
100
AcDbDictionary
  0
ENDSEC
  0
EOF
