M48
INCH,TZ
T1C0.018
%
G90
G05
T1
X17362Y-17657
X17362Y-23957
X17563Y-16909
X17563Y-18406
X17563Y-23209
X17563Y-24705
X18110Y-16362
X18110Y-18953
X18110Y-22661
X18110Y-25252
X18858Y-16161
X18858Y-19154
X18858Y-22461
X18858Y-25453
X19606Y-16362
X19606Y-18953
X19606Y-22661
X19606Y-25252
X20154Y-16909
X20154Y-18406
X20154Y-23209
X20154Y-24705
X20354Y-17657
X20354Y-23957
X23661Y-17657
X23661Y-23957
X23862Y-16909
X23862Y-18406
X23862Y-23209
X23862Y-24705
X24409Y-16362
X24409Y-18953
X24409Y-22661
X24409Y-25252
X25157Y-16161
X25157Y-19154
X25157Y-22461
X25157Y-25453
X25906Y-16362
X25906Y-18953
X25906Y-22661
X25906Y-25252
X26453Y-16909
X26453Y-18406
X26453Y-23209
X26453Y-24705
X26654Y-17657
X26654Y-23957
X29961Y-17657
X29961Y-23957
X30161Y-16909
X30161Y-18406
X30161Y-23209
X30161Y-24705
X30709Y-16362
X30709Y-18953
X30709Y-22661
X30709Y-25252
X31457Y-16161
X31457Y-19154
X31457Y-22461
X31457Y-25453
X32205Y-16362
X32205Y-18953
X32205Y-22661
X32205Y-25252
X32752Y-16909
X32752Y-18406
X32752Y-23209
X32752Y-24705
X32953Y-17657
X32953Y-23957
X37835Y-17657
X37835Y-23957
X38035Y-16909
X38035Y-18406
X38035Y-23209
X38035Y-24705
X38583Y-16362
X38583Y-18953
X38583Y-22661
X38583Y-25252
X39331Y-16161
X39331Y-19154
X39331Y-22461
X39331Y-25453
X40079Y-16362
X40079Y-18953
X40079Y-22661
X40079Y-25252
X40626Y-16909
X40626Y-18406
X40626Y-23209
X40626Y-24705
X40827Y-17657
X40827Y-23957
X44134Y-17657
X44134Y-23957
X44334Y-16909
X44334Y-18406
X44334Y-23209
X44334Y-24705
X44882Y-16362
X44882Y-18953
X44882Y-22661
X44882Y-25252
X45630Y-16161
X45630Y-19154
X45630Y-22461
X45630Y-25453
X46378Y-16362
X46378Y-18953
X46378Y-22661
X46378Y-25252
X46926Y-16909
X46926Y-18406
X46926Y-23209
X46926Y-24705
X47126Y-17657
X47126Y-23957
T0
M30
