G04 #@! TF.FileFunction,Soldermask,Top*
%FSLAX46Y46*%
G04 Gerber Fmt 4.6, Leading zero omitted, Abs format (unit mm)*
G04 Created by KiCad (PCBNEW no-bzr-kicad_new3d-viewer) date 07/10/16 17:34:00*
%MOMM*%
%LPD*%
G01*
G04 APERTURE LIST*
%ADD10C,0.150000*%
%ADD11C,0.700000*%
%ADD12C,1.350000*%
%ADD13C,0.254000*%
G04 APERTURE END LIST*
D10*
D11*
X118820000Y-59250000D02*
X118820000Y-62450000D01*
D12*
X119730000Y-60850000D02*
G75*
G03X119730000Y-60850000I-3830000J0D01*
G01*
D11*
X102820000Y-59250000D02*
X102820000Y-62450000D01*
D12*
X103730000Y-60850000D02*
G75*
G03X103730000Y-60850000I-3830000J0D01*
G01*
D11*
X118820000Y-43250000D02*
X118820000Y-46450000D01*
D12*
X119730000Y-44850000D02*
G75*
G03X119730000Y-44850000I-3830000J0D01*
G01*
D11*
X102820000Y-43250000D02*
X102820000Y-46450000D01*
D12*
X103730000Y-44850000D02*
G75*
G03X103730000Y-44850000I-3830000J0D01*
G01*
D11*
X82820000Y-59250000D02*
X82820000Y-62450000D01*
D12*
X83730000Y-60850000D02*
G75*
G03X83730000Y-60850000I-3830000J0D01*
G01*
D11*
X66820000Y-59250000D02*
X66820000Y-62450000D01*
D12*
X67730000Y-60850000D02*
G75*
G03X67730000Y-60850000I-3830000J0D01*
G01*
D11*
X50820000Y-59250000D02*
X50820000Y-62450000D01*
D12*
X51730000Y-60850000D02*
G75*
G03X51730000Y-60850000I-3830000J0D01*
G01*
D11*
X82820000Y-43250000D02*
X82820000Y-46450000D01*
D12*
X83730000Y-44850000D02*
G75*
G03X83730000Y-44850000I-3830000J0D01*
G01*
D11*
X66820000Y-43250000D02*
X66820000Y-46450000D01*
D12*
X67730000Y-44850000D02*
G75*
G03X67730000Y-44850000I-3830000J0D01*
G01*
D11*
X50820000Y-43250000D02*
X50820000Y-46450000D01*
D12*
X51730000Y-44850000D02*
G75*
G03X51730000Y-44850000I-3830000J0D01*
G01*
D13*
G36*
X125479034Y-39167890D02*
X38433034Y-39167890D01*
X38433034Y-37421890D01*
X125479034Y-37421890D01*
X125479034Y-39167890D01*
X125479034Y-39167890D01*
G37*
X125479034Y-39167890D02*
X38433034Y-39167890D01*
X38433034Y-37421890D01*
X125479034Y-37421890D01*
X125479034Y-39167890D01*
G36*
X38433034Y-77167890D02*
X125479034Y-77167890D01*
X125479034Y-75421890D01*
X38433034Y-75421890D01*
X38433034Y-77167890D01*
X38433034Y-77167890D01*
G37*
X38433034Y-77167890D02*
X125479034Y-77167890D01*
X125479034Y-75421890D01*
X38433034Y-75421890D01*
X38433034Y-77167890D01*
G36*
X52013876Y-69167890D02*
X111809876Y-69167890D01*
X111809876Y-66421890D01*
X52013876Y-66421890D01*
X52013876Y-69167890D01*
X52013876Y-69167890D01*
G37*
X52013876Y-69167890D02*
X111809876Y-69167890D01*
X111809876Y-66421890D01*
X52013876Y-66421890D01*
X52013876Y-69167890D01*
G36*
X38273316Y-77173000D02*
X35816429Y-77173000D01*
X34907770Y-76933879D01*
X34241588Y-76410450D01*
X33816320Y-75843427D01*
X33609848Y-75073016D01*
X33559892Y-39753501D01*
X33768473Y-38802637D01*
X34243100Y-38138159D01*
X34711647Y-37763321D01*
X35721712Y-37426633D01*
X38372676Y-37379294D01*
X38273316Y-77173000D01*
X38273316Y-77173000D01*
G37*
X38273316Y-77173000D02*
X35816429Y-77173000D01*
X34907770Y-76933879D01*
X34241588Y-76410450D01*
X33816320Y-75843427D01*
X33609848Y-75073016D01*
X33559892Y-39753501D01*
X33768473Y-38802637D01*
X34243100Y-38138159D01*
X34711647Y-37763321D01*
X35721712Y-37426633D01*
X38372676Y-37379294D01*
X38273316Y-77173000D01*
G36*
X129048875Y-37666121D02*
X129715057Y-38189550D01*
X130140325Y-38756573D01*
X130346797Y-39526984D01*
X130396753Y-74846499D01*
X130188172Y-75797363D01*
X129713545Y-76461841D01*
X129244998Y-76836679D01*
X128234933Y-77173367D01*
X125583969Y-77220706D01*
X125683329Y-37427000D01*
X128140216Y-37427000D01*
X129048875Y-37666121D01*
X129048875Y-37666121D01*
G37*
X129048875Y-37666121D02*
X129715057Y-38189550D01*
X130140325Y-38756573D01*
X130346797Y-39526984D01*
X130396753Y-74846499D01*
X130188172Y-75797363D01*
X129713545Y-76461841D01*
X129244998Y-76836679D01*
X128234933Y-77173367D01*
X125583969Y-77220706D01*
X125683329Y-37427000D01*
X128140216Y-37427000D01*
X129048875Y-37666121D01*
M02*
