G04 #@! TF.GenerationSoftware,KiCad,Pcbnew,(2017-06-07 revision 51bed4bae)-makepkg*
G04 #@! TF.CreationDate,2017-06-10T14:48:25+02:00*
G04 #@! TF.ProjectId,Front_Panel_76x35,46726F6E745F50616E656C5F37367833,rev?*
G04 #@! TF.FileFunction,Legend,Top*
G04 #@! TF.FilePolarity,Positive*
%FSLAX46Y46*%
G04 Gerber Fmt 4.6, Leading zero omitted, Abs format (unit mm)*
G04 Created by KiCad (PCBNEW (2017-06-07 revision 51bed4bae)-makepkg) date 06/10/17 14:48:25*
%MOMM*%
%LPD*%
G01*
G04 APERTURE LIST*
%ADD10C,0.150000*%
%ADD11C,0.300000*%
%ADD12C,0.100000*%
%ADD13C,0.700000*%
%ADD14C,1.350000*%
%ADD15C,3.000000*%
%ADD16C,0.254000*%
G04 APERTURE END LIST*
D10*
D11*
X62468095Y-14757142D02*
X63077619Y-14757142D01*
X62696666Y-14223809D02*
X62696666Y-15595238D01*
X62772857Y-15747619D01*
X62925238Y-15823809D01*
X63077619Y-15823809D01*
X63458571Y-15823809D02*
X64296666Y-14757142D01*
X63458571Y-14757142D02*
X64296666Y-15823809D01*
X64830000Y-14376190D02*
X64906190Y-14300000D01*
X65058571Y-14223809D01*
X65439523Y-14223809D01*
X65591904Y-14300000D01*
X65668095Y-14376190D01*
X65744285Y-14528571D01*
X65744285Y-14680952D01*
X65668095Y-14909523D01*
X64753809Y-15823809D01*
X65744285Y-15823809D01*
X67191904Y-15823809D02*
X66430000Y-15823809D01*
X66430000Y-14223809D01*
X49157619Y-14707142D02*
X49767142Y-14707142D01*
X49386190Y-14173809D02*
X49386190Y-15545238D01*
X49462380Y-15697619D01*
X49614761Y-15773809D01*
X49767142Y-15773809D01*
X50148095Y-15773809D02*
X50986190Y-14707142D01*
X50148095Y-14707142D02*
X50986190Y-15773809D01*
X51519523Y-14326190D02*
X51595714Y-14250000D01*
X51748095Y-14173809D01*
X52129047Y-14173809D01*
X52281428Y-14250000D01*
X52357619Y-14326190D01*
X52433809Y-14478571D01*
X52433809Y-14630952D01*
X52357619Y-14859523D01*
X51443333Y-15773809D01*
X52433809Y-15773809D01*
X53119523Y-15773809D02*
X53119523Y-14173809D01*
X53119523Y-14935714D02*
X54033809Y-14935714D01*
X54033809Y-15773809D02*
X54033809Y-14173809D01*
X34591904Y-15833809D02*
X34591904Y-14767142D01*
X34591904Y-15071904D02*
X34668095Y-14919523D01*
X34744285Y-14843333D01*
X34896666Y-14767142D01*
X35049047Y-14767142D01*
X35430000Y-15833809D02*
X36268095Y-14767142D01*
X35430000Y-14767142D02*
X36268095Y-15833809D01*
X36801428Y-14386190D02*
X36877619Y-14310000D01*
X37030000Y-14233809D01*
X37410952Y-14233809D01*
X37563333Y-14310000D01*
X37639523Y-14386190D01*
X37715714Y-14538571D01*
X37715714Y-14690952D01*
X37639523Y-14919523D01*
X36725238Y-15833809D01*
X37715714Y-15833809D01*
X38249047Y-14233809D02*
X38630000Y-15833809D01*
X38934761Y-14690952D01*
X39239523Y-15833809D01*
X39620476Y-14233809D01*
X22138571Y-15813809D02*
X22138571Y-14747142D01*
X22138571Y-15051904D02*
X22214761Y-14899523D01*
X22290952Y-14823333D01*
X22443333Y-14747142D01*
X22595714Y-14747142D01*
X22976666Y-15813809D02*
X23814761Y-14747142D01*
X22976666Y-14747142D02*
X23814761Y-15813809D01*
X24348095Y-14366190D02*
X24424285Y-14290000D01*
X24576666Y-14213809D01*
X24957619Y-14213809D01*
X25110000Y-14290000D01*
X25186190Y-14366190D01*
X25262380Y-14518571D01*
X25262380Y-14670952D01*
X25186190Y-14899523D01*
X24271904Y-15813809D01*
X25262380Y-15813809D01*
X26710000Y-15813809D02*
X25948095Y-15813809D01*
X25948095Y-14213809D01*
X8868095Y-15883809D02*
X8868095Y-14817142D01*
X8868095Y-15121904D02*
X8944285Y-14969523D01*
X9020476Y-14893333D01*
X9172857Y-14817142D01*
X9325238Y-14817142D01*
X9706190Y-15883809D02*
X10544285Y-14817142D01*
X9706190Y-14817142D02*
X10544285Y-15883809D01*
X11077619Y-14436190D02*
X11153809Y-14360000D01*
X11306190Y-14283809D01*
X11687142Y-14283809D01*
X11839523Y-14360000D01*
X11915714Y-14436190D01*
X11991904Y-14588571D01*
X11991904Y-14740952D01*
X11915714Y-14969523D01*
X11001428Y-15883809D01*
X11991904Y-15883809D01*
X12677619Y-15883809D02*
X12677619Y-14283809D01*
X12677619Y-15045714D02*
X13591904Y-15045714D01*
X13591904Y-15883809D02*
X13591904Y-14283809D01*
X8798095Y-13373809D02*
X8798095Y-12307142D01*
X8798095Y-12611904D02*
X8874285Y-12459523D01*
X8950476Y-12383333D01*
X9102857Y-12307142D01*
X9255238Y-12307142D01*
X9636190Y-13373809D02*
X10474285Y-12307142D01*
X9636190Y-12307142D02*
X10474285Y-13373809D01*
X11921904Y-13373809D02*
X11007619Y-13373809D01*
X11464761Y-13373809D02*
X11464761Y-11773809D01*
X11312380Y-12002380D01*
X11160000Y-12154761D01*
X11007619Y-12230952D01*
X12607619Y-13373809D02*
X12607619Y-11773809D01*
X12607619Y-12535714D02*
X13521904Y-12535714D01*
X13521904Y-13373809D02*
X13521904Y-11773809D01*
X22108571Y-13393809D02*
X22108571Y-12327142D01*
X22108571Y-12631904D02*
X22184761Y-12479523D01*
X22260952Y-12403333D01*
X22413333Y-12327142D01*
X22565714Y-12327142D01*
X22946666Y-13393809D02*
X23784761Y-12327142D01*
X22946666Y-12327142D02*
X23784761Y-13393809D01*
X25232380Y-13393809D02*
X24318095Y-13393809D01*
X24775238Y-13393809D02*
X24775238Y-11793809D01*
X24622857Y-12022380D01*
X24470476Y-12174761D01*
X24318095Y-12250952D01*
X26680000Y-13393809D02*
X25918095Y-13393809D01*
X25918095Y-11793809D01*
X34541904Y-13263809D02*
X34541904Y-12197142D01*
X34541904Y-12501904D02*
X34618095Y-12349523D01*
X34694285Y-12273333D01*
X34846666Y-12197142D01*
X34999047Y-12197142D01*
X35380000Y-13263809D02*
X36218095Y-12197142D01*
X35380000Y-12197142D02*
X36218095Y-13263809D01*
X37665714Y-13263809D02*
X36751428Y-13263809D01*
X37208571Y-13263809D02*
X37208571Y-11663809D01*
X37056190Y-11892380D01*
X36903809Y-12044761D01*
X36751428Y-12120952D01*
X38199047Y-11663809D02*
X38580000Y-13263809D01*
X38884761Y-12120952D01*
X39189523Y-13263809D01*
X39570476Y-11663809D01*
X49187619Y-12317142D02*
X49797142Y-12317142D01*
X49416190Y-11783809D02*
X49416190Y-13155238D01*
X49492380Y-13307619D01*
X49644761Y-13383809D01*
X49797142Y-13383809D01*
X50178095Y-13383809D02*
X51016190Y-12317142D01*
X50178095Y-12317142D02*
X51016190Y-13383809D01*
X52463809Y-13383809D02*
X51549523Y-13383809D01*
X52006666Y-13383809D02*
X52006666Y-11783809D01*
X51854285Y-12012380D01*
X51701904Y-12164761D01*
X51549523Y-12240952D01*
X53149523Y-13383809D02*
X53149523Y-11783809D01*
X53149523Y-12545714D02*
X54063809Y-12545714D01*
X54063809Y-13383809D02*
X54063809Y-11783809D01*
X62408095Y-12317142D02*
X63017619Y-12317142D01*
X62636666Y-11783809D02*
X62636666Y-13155238D01*
X62712857Y-13307619D01*
X62865238Y-13383809D01*
X63017619Y-13383809D01*
X63398571Y-13383809D02*
X64236666Y-12317142D01*
X63398571Y-12317142D02*
X64236666Y-13383809D01*
X65684285Y-13383809D02*
X64770000Y-13383809D01*
X65227142Y-13383809D02*
X65227142Y-11783809D01*
X65074761Y-12012380D01*
X64922380Y-12164761D01*
X64770000Y-12240952D01*
X67131904Y-13383809D02*
X66370000Y-13383809D01*
X66370000Y-11783809D01*
%LPC*%
D12*
X70461904Y-26790476D02*
X70423809Y-26866666D01*
X70347619Y-26904761D01*
X69661904Y-26904761D01*
X69928571Y-26142857D02*
X70461904Y-26142857D01*
X69928571Y-26485714D02*
X70347619Y-26485714D01*
X70423809Y-26447619D01*
X70461904Y-26371428D01*
X70461904Y-26257142D01*
X70423809Y-26180952D01*
X70385714Y-26142857D01*
X69928571Y-25876190D02*
X69928571Y-25571428D01*
X70461904Y-25761904D02*
X69776190Y-25761904D01*
X69700000Y-25723809D01*
X69661904Y-25647619D01*
X69661904Y-25571428D01*
X69928571Y-25419047D02*
X69928571Y-25114285D01*
X69661904Y-25304761D02*
X70347619Y-25304761D01*
X70423809Y-25266666D01*
X70461904Y-25190476D01*
X70461904Y-25114285D01*
X70423809Y-24542857D02*
X70461904Y-24619047D01*
X70461904Y-24771428D01*
X70423809Y-24847619D01*
X70347619Y-24885714D01*
X70042857Y-24885714D01*
X69966666Y-24847619D01*
X69928571Y-24771428D01*
X69928571Y-24619047D01*
X69966666Y-24542857D01*
X70042857Y-24504761D01*
X70119047Y-24504761D01*
X70195238Y-24885714D01*
X70461904Y-24161904D02*
X69661904Y-24161904D01*
X70157142Y-24085714D02*
X70461904Y-23857142D01*
X69928571Y-23857142D02*
X70233333Y-24161904D01*
D10*
X69698095Y-23180119D02*
X69660000Y-23142023D01*
X69621904Y-23065833D01*
X69621904Y-22875357D01*
X69660000Y-22799166D01*
X69698095Y-22761071D01*
X69774285Y-22722976D01*
X69850476Y-22722976D01*
X69964761Y-22761071D01*
X70421904Y-23218214D01*
X70421904Y-22722976D01*
X69621904Y-22227738D02*
X69621904Y-22151547D01*
X69660000Y-22075357D01*
X69698095Y-22037261D01*
X69774285Y-21999166D01*
X69926666Y-21961071D01*
X70117142Y-21961071D01*
X70269523Y-21999166D01*
X70345714Y-22037261D01*
X70383809Y-22075357D01*
X70421904Y-22151547D01*
X70421904Y-22227738D01*
X70383809Y-22303928D01*
X70345714Y-22342023D01*
X70269523Y-22380119D01*
X70117142Y-22418214D01*
X69926666Y-22418214D01*
X69774285Y-22380119D01*
X69698095Y-22342023D01*
X69660000Y-22303928D01*
X69621904Y-22227738D01*
X70421904Y-21199166D02*
X70421904Y-21656309D01*
X70421904Y-21427738D02*
X69621904Y-21427738D01*
X69736190Y-21503928D01*
X69812380Y-21580119D01*
X69850476Y-21656309D01*
X69621904Y-20932500D02*
X69621904Y-20399166D01*
X70421904Y-20742023D01*
X69621904Y-19942023D02*
X69621904Y-19865833D01*
X69660000Y-19789642D01*
X69698095Y-19751547D01*
X69774285Y-19713452D01*
X69926666Y-19675357D01*
X70117142Y-19675357D01*
X70269523Y-19713452D01*
X70345714Y-19751547D01*
X70383809Y-19789642D01*
X70421904Y-19865833D01*
X70421904Y-19942023D01*
X70383809Y-20018214D01*
X70345714Y-20056309D01*
X70269523Y-20094404D01*
X70117142Y-20132500D01*
X69926666Y-20132500D01*
X69774285Y-20094404D01*
X69698095Y-20056309D01*
X69660000Y-20018214D01*
X69621904Y-19942023D01*
X69621904Y-18989642D02*
X69621904Y-19142023D01*
X69660000Y-19218214D01*
X69698095Y-19256309D01*
X69812380Y-19332500D01*
X69964761Y-19370595D01*
X70269523Y-19370595D01*
X70345714Y-19332500D01*
X70383809Y-19294404D01*
X70421904Y-19218214D01*
X70421904Y-19065833D01*
X70383809Y-18989642D01*
X70345714Y-18951547D01*
X70269523Y-18913452D01*
X70079047Y-18913452D01*
X70002857Y-18951547D01*
X69964761Y-18989642D01*
X69926666Y-19065833D01*
X69926666Y-19218214D01*
X69964761Y-19294404D01*
X70002857Y-19332500D01*
X70079047Y-19370595D01*
X70421904Y-18151547D02*
X70421904Y-18608690D01*
X70421904Y-18380119D02*
X69621904Y-18380119D01*
X69736190Y-18456309D01*
X69812380Y-18532500D01*
X69850476Y-18608690D01*
X69698095Y-17846785D02*
X69660000Y-17808690D01*
X69621904Y-17732500D01*
X69621904Y-17542023D01*
X69660000Y-17465833D01*
X69698095Y-17427738D01*
X69774285Y-17389642D01*
X69850476Y-17389642D01*
X69964761Y-17427738D01*
X70421904Y-17884880D01*
X70421904Y-17389642D01*
D12*
X56068571Y-31671904D02*
X56601904Y-31671904D01*
X56259047Y-32471904D01*
X57249523Y-31671904D02*
X57097142Y-31671904D01*
X57020952Y-31710000D01*
X56982857Y-31748095D01*
X56906666Y-31862380D01*
X56868571Y-32014761D01*
X56868571Y-32319523D01*
X56906666Y-32395714D01*
X56944761Y-32433809D01*
X57020952Y-32471904D01*
X57173333Y-32471904D01*
X57249523Y-32433809D01*
X57287619Y-32395714D01*
X57325714Y-32319523D01*
X57325714Y-32129047D01*
X57287619Y-32052857D01*
X57249523Y-32014761D01*
X57173333Y-31976666D01*
X57020952Y-31976666D01*
X56944761Y-32014761D01*
X56906666Y-32052857D01*
X56868571Y-32129047D01*
X57592380Y-32471904D02*
X58011428Y-31938571D01*
X57592380Y-31938571D02*
X58011428Y-32471904D01*
X58240000Y-31671904D02*
X58735238Y-31671904D01*
X58468571Y-31976666D01*
X58582857Y-31976666D01*
X58659047Y-32014761D01*
X58697142Y-32052857D01*
X58735238Y-32129047D01*
X58735238Y-32319523D01*
X58697142Y-32395714D01*
X58659047Y-32433809D01*
X58582857Y-32471904D01*
X58354285Y-32471904D01*
X58278095Y-32433809D01*
X58240000Y-32395714D01*
X59459047Y-31671904D02*
X59078095Y-31671904D01*
X59040000Y-32052857D01*
X59078095Y-32014761D01*
X59154285Y-31976666D01*
X59344761Y-31976666D01*
X59420952Y-32014761D01*
X59459047Y-32052857D01*
X59497142Y-32129047D01*
X59497142Y-32319523D01*
X59459047Y-32395714D01*
X59420952Y-32433809D01*
X59344761Y-32471904D01*
X59154285Y-32471904D01*
X59078095Y-32433809D01*
X59040000Y-32395714D01*
X59763809Y-32471904D02*
X60182857Y-31938571D01*
X59763809Y-31938571D02*
X60182857Y-32471904D01*
X60906666Y-32471904D02*
X60449523Y-32471904D01*
X60678095Y-32471904D02*
X60678095Y-31671904D01*
X60601904Y-31786190D01*
X60525714Y-31862380D01*
X60449523Y-31900476D01*
X61401904Y-31671904D02*
X61478095Y-31671904D01*
X61554285Y-31710000D01*
X61592380Y-31748095D01*
X61630476Y-31824285D01*
X61668571Y-31976666D01*
X61668571Y-32167142D01*
X61630476Y-32319523D01*
X61592380Y-32395714D01*
X61554285Y-32433809D01*
X61478095Y-32471904D01*
X61401904Y-32471904D01*
X61325714Y-32433809D01*
X61287619Y-32395714D01*
X61249523Y-32319523D01*
X61211428Y-32167142D01*
X61211428Y-31976666D01*
X61249523Y-31824285D01*
X61287619Y-31748095D01*
X61325714Y-31710000D01*
X61401904Y-31671904D01*
X62163809Y-31671904D02*
X62240000Y-31671904D01*
X62316190Y-31710000D01*
X62354285Y-31748095D01*
X62392380Y-31824285D01*
X62430476Y-31976666D01*
X62430476Y-32167142D01*
X62392380Y-32319523D01*
X62354285Y-32395714D01*
X62316190Y-32433809D01*
X62240000Y-32471904D01*
X62163809Y-32471904D01*
X62087619Y-32433809D01*
X62049523Y-32395714D01*
X62011428Y-32319523D01*
X61973333Y-32167142D01*
X61973333Y-31976666D01*
X62011428Y-31824285D01*
X62049523Y-31748095D01*
X62087619Y-31710000D01*
X62163809Y-31671904D01*
X63344761Y-32433809D02*
X63420952Y-32471904D01*
X63573333Y-32471904D01*
X63649523Y-32433809D01*
X63687619Y-32357619D01*
X63687619Y-32319523D01*
X63649523Y-32243333D01*
X63573333Y-32205238D01*
X63459047Y-32205238D01*
X63382857Y-32167142D01*
X63344761Y-32090952D01*
X63344761Y-32052857D01*
X63382857Y-31976666D01*
X63459047Y-31938571D01*
X63573333Y-31938571D01*
X63649523Y-31976666D01*
X64030476Y-31938571D02*
X64030476Y-32738571D01*
X64030476Y-31976666D02*
X64106666Y-31938571D01*
X64259047Y-31938571D01*
X64335238Y-31976666D01*
X64373333Y-32014761D01*
X64411428Y-32090952D01*
X64411428Y-32319523D01*
X64373333Y-32395714D01*
X64335238Y-32433809D01*
X64259047Y-32471904D01*
X64106666Y-32471904D01*
X64030476Y-32433809D01*
X64868571Y-32471904D02*
X64792380Y-32433809D01*
X64754285Y-32357619D01*
X64754285Y-31671904D01*
X65173333Y-32471904D02*
X65173333Y-31938571D01*
X65173333Y-31671904D02*
X65135238Y-31710000D01*
X65173333Y-31748095D01*
X65211428Y-31710000D01*
X65173333Y-31671904D01*
X65173333Y-31748095D01*
X65440000Y-31938571D02*
X65744761Y-31938571D01*
X65554285Y-31671904D02*
X65554285Y-32357619D01*
X65592380Y-32433809D01*
X65668571Y-32471904D01*
X65744761Y-32471904D01*
X66582857Y-32433809D02*
X66659047Y-32471904D01*
X66811428Y-32471904D01*
X66887619Y-32433809D01*
X66925714Y-32357619D01*
X66925714Y-32319523D01*
X66887619Y-32243333D01*
X66811428Y-32205238D01*
X66697142Y-32205238D01*
X66620952Y-32167142D01*
X66582857Y-32090952D01*
X66582857Y-32052857D01*
X66620952Y-31976666D01*
X66697142Y-31938571D01*
X66811428Y-31938571D01*
X66887619Y-31976666D01*
X67268571Y-32471904D02*
X67268571Y-31671904D01*
X67611428Y-32471904D02*
X67611428Y-32052857D01*
X67573333Y-31976666D01*
X67497142Y-31938571D01*
X67382857Y-31938571D01*
X67306666Y-31976666D01*
X67268571Y-32014761D01*
X68297142Y-32433809D02*
X68220952Y-32471904D01*
X68068571Y-32471904D01*
X67992380Y-32433809D01*
X67954285Y-32357619D01*
X67954285Y-32052857D01*
X67992380Y-31976666D01*
X68068571Y-31938571D01*
X68220952Y-31938571D01*
X68297142Y-31976666D01*
X68335238Y-32052857D01*
X68335238Y-32129047D01*
X67954285Y-32205238D01*
X68792380Y-32471904D02*
X68716190Y-32433809D01*
X68678095Y-32357619D01*
X68678095Y-31671904D01*
X69211428Y-32471904D02*
X69135238Y-32433809D01*
X69097142Y-32357619D01*
X69097142Y-31671904D01*
D13*
X67370000Y-18850000D02*
X67370000Y-22820000D01*
D14*
X68280000Y-20830000D02*
G75*
G03X68280000Y-20830000I-3830000J0D01*
G01*
D15*
X67110000Y-20830000D02*
G75*
G03X67110000Y-20830000I-2660000J0D01*
G01*
D13*
X54370000Y-18850000D02*
X54370000Y-22820000D01*
D14*
X55280000Y-20830000D02*
G75*
G03X55280000Y-20830000I-3830000J0D01*
G01*
D15*
X54110000Y-20830000D02*
G75*
G03X54110000Y-20830000I-2660000J0D01*
G01*
D13*
X67370000Y-4850000D02*
X67370000Y-8820000D01*
D14*
X68280000Y-6830000D02*
G75*
G03X68280000Y-6830000I-3830000J0D01*
G01*
D15*
X67110000Y-6830000D02*
G75*
G03X67110000Y-6830000I-2660000J0D01*
G01*
D13*
X54370000Y-4850000D02*
X54370000Y-8820000D01*
D14*
X55280000Y-6830000D02*
G75*
G03X55280000Y-6830000I-3830000J0D01*
G01*
D15*
X54110000Y-6830000D02*
G75*
G03X54110000Y-6830000I-2660000J0D01*
G01*
D13*
X40370000Y-18850000D02*
X40370000Y-22820000D01*
D14*
X41280000Y-20830000D02*
G75*
G03X41280000Y-20830000I-3830000J0D01*
G01*
D15*
X40110000Y-20830000D02*
G75*
G03X40110000Y-20830000I-2660000J0D01*
G01*
D13*
X27370000Y-18850000D02*
X27370000Y-22820000D01*
D14*
X28280000Y-20830000D02*
G75*
G03X28280000Y-20830000I-3830000J0D01*
G01*
D15*
X27110000Y-20830000D02*
G75*
G03X27110000Y-20830000I-2660000J0D01*
G01*
D13*
X14370000Y-18850000D02*
X14370000Y-22820000D01*
D14*
X15280000Y-20830000D02*
G75*
G03X15280000Y-20830000I-3830000J0D01*
G01*
D15*
X14110000Y-20830000D02*
G75*
G03X14110000Y-20830000I-2660000J0D01*
G01*
D13*
X40370000Y-4850000D02*
X40370000Y-8820000D01*
D14*
X41280000Y-6830000D02*
G75*
G03X41280000Y-6830000I-3830000J0D01*
G01*
D15*
X40110000Y-6830000D02*
G75*
G03X40110000Y-6830000I-2660000J0D01*
G01*
D13*
X27370000Y-4850000D02*
X27370000Y-8820000D01*
D14*
X28280000Y-6830000D02*
G75*
G03X28280000Y-6830000I-3830000J0D01*
G01*
D15*
X27110000Y-6830000D02*
G75*
G03X27110000Y-6830000I-2660000J0D01*
G01*
D13*
X14370000Y-4850000D02*
X14370000Y-8820000D01*
D14*
X15280000Y-6830000D02*
G75*
G03X15280000Y-6830000I-3830000J0D01*
G01*
D15*
X14110000Y-6830000D02*
G75*
G03X14110000Y-6830000I-2660000J0D01*
G01*
D16*
G36*
X70854735Y-36890D02*
X70598976Y-1933034D01*
X4818728Y-1952961D01*
X4845294Y12905D01*
X70854735Y-36890D01*
X70854735Y-36890D01*
G37*
X70854735Y-36890D02*
X70598976Y-1933034D01*
X4818728Y-1952961D01*
X4845294Y12905D01*
X70854735Y-36890D01*
G36*
X70152424Y-35062960D02*
X5956417Y-35043039D01*
X5947587Y-33126960D01*
X70143573Y-33107039D01*
X70152424Y-35062960D01*
X70152424Y-35062960D01*
G37*
X70152424Y-35062960D02*
X5956417Y-35043039D01*
X5947587Y-33126960D01*
X70143573Y-33107039D01*
X70152424Y-35062960D01*
G36*
X76073043Y-9757610D02*
X75836500Y-10073000D01*
X75140000Y-10073000D01*
X75091399Y-10082667D01*
X75050197Y-10110197D01*
X75022667Y-10151399D01*
X75013000Y-10199739D01*
X74983000Y-24799739D01*
X74992568Y-24848360D01*
X75020013Y-24889618D01*
X75061158Y-24917233D01*
X75110000Y-24927000D01*
X75847394Y-24927000D01*
X76073000Y-25152606D01*
X76073000Y-35073000D01*
X70066424Y-35073000D01*
X70057000Y-32999643D01*
X70057000Y-30842333D01*
X70132350Y-30741866D01*
X70187554Y-30716388D01*
X70293440Y-30751683D01*
X70886553Y-31307727D01*
X70967228Y-31612498D01*
X71003046Y-31672564D01*
X71333046Y-31982564D01*
X71371796Y-32007496D01*
X71761796Y-32167496D01*
X71810000Y-32177000D01*
X72190000Y-32177000D01*
X72253368Y-32160061D01*
X72583368Y-31970061D01*
X72604147Y-31955123D01*
X72864147Y-31725123D01*
X72897315Y-31678643D01*
X73067315Y-31268643D01*
X73076945Y-31216266D01*
X73066945Y-30876266D01*
X73058162Y-30833451D01*
X72928162Y-30503451D01*
X72903065Y-30463583D01*
X72643065Y-30183583D01*
X72600747Y-30153580D01*
X72232299Y-29992974D01*
X71664539Y-29434522D01*
X71624602Y-29274775D01*
X71675253Y-29173474D01*
X71821994Y-29096610D01*
X73391587Y-29076990D01*
X73440064Y-29066716D01*
X73480918Y-29038673D01*
X73507931Y-28997130D01*
X73517000Y-28950000D01*
X73517000Y-27050000D01*
X73507333Y-27001399D01*
X73479803Y-26960197D01*
X73438601Y-26932667D01*
X73391549Y-26923009D01*
X71057066Y-26894540D01*
X71066934Y-8164920D01*
X73362099Y-8126983D01*
X73410533Y-8116513D01*
X73451274Y-8088306D01*
X73478120Y-8046655D01*
X73486998Y-8000661D01*
X73496998Y-6080661D01*
X73487584Y-6032011D01*
X73460269Y-5990666D01*
X73419211Y-5962922D01*
X73370747Y-5953002D01*
X71720187Y-5943293D01*
X71630639Y-5860141D01*
X71585078Y-5780409D01*
X71605477Y-5693714D01*
X72170858Y-5119065D01*
X72464593Y-5008914D01*
X72507409Y-4982134D01*
X72897409Y-4612134D01*
X72930743Y-4559373D01*
X73080743Y-4099373D01*
X73082788Y-4027565D01*
X72942788Y-3497565D01*
X72910992Y-3441403D01*
X72540992Y-3061403D01*
X72500161Y-3033326D01*
X72471946Y-3024910D01*
X71901946Y-2924910D01*
X71849198Y-2926792D01*
X71489198Y-3016792D01*
X71438697Y-3042436D01*
X71078697Y-3342436D01*
X71043037Y-3390516D01*
X70834565Y-3883268D01*
X70283061Y-4359992D01*
X70233763Y-4379711D01*
X70156088Y-4369354D01*
X70099240Y-4317675D01*
X70046898Y-4168124D01*
X70037013Y-2092299D01*
X70121817Y-28740D01*
X71408199Y-46987D01*
X71410794Y-46998D01*
X76082871Y-17798D01*
X76073043Y-9757610D01*
X76073043Y-9757610D01*
G37*
X76073043Y-9757610D02*
X75836500Y-10073000D01*
X75140000Y-10073000D01*
X75091399Y-10082667D01*
X75050197Y-10110197D01*
X75022667Y-10151399D01*
X75013000Y-10199739D01*
X74983000Y-24799739D01*
X74992568Y-24848360D01*
X75020013Y-24889618D01*
X75061158Y-24917233D01*
X75110000Y-24927000D01*
X75847394Y-24927000D01*
X76073000Y-25152606D01*
X76073000Y-35073000D01*
X70066424Y-35073000D01*
X70057000Y-32999643D01*
X70057000Y-30842333D01*
X70132350Y-30741866D01*
X70187554Y-30716388D01*
X70293440Y-30751683D01*
X70886553Y-31307727D01*
X70967228Y-31612498D01*
X71003046Y-31672564D01*
X71333046Y-31982564D01*
X71371796Y-32007496D01*
X71761796Y-32167496D01*
X71810000Y-32177000D01*
X72190000Y-32177000D01*
X72253368Y-32160061D01*
X72583368Y-31970061D01*
X72604147Y-31955123D01*
X72864147Y-31725123D01*
X72897315Y-31678643D01*
X73067315Y-31268643D01*
X73076945Y-31216266D01*
X73066945Y-30876266D01*
X73058162Y-30833451D01*
X72928162Y-30503451D01*
X72903065Y-30463583D01*
X72643065Y-30183583D01*
X72600747Y-30153580D01*
X72232299Y-29992974D01*
X71664539Y-29434522D01*
X71624602Y-29274775D01*
X71675253Y-29173474D01*
X71821994Y-29096610D01*
X73391587Y-29076990D01*
X73440064Y-29066716D01*
X73480918Y-29038673D01*
X73507931Y-28997130D01*
X73517000Y-28950000D01*
X73517000Y-27050000D01*
X73507333Y-27001399D01*
X73479803Y-26960197D01*
X73438601Y-26932667D01*
X73391549Y-26923009D01*
X71057066Y-26894540D01*
X71066934Y-8164920D01*
X73362099Y-8126983D01*
X73410533Y-8116513D01*
X73451274Y-8088306D01*
X73478120Y-8046655D01*
X73486998Y-8000661D01*
X73496998Y-6080661D01*
X73487584Y-6032011D01*
X73460269Y-5990666D01*
X73419211Y-5962922D01*
X73370747Y-5953002D01*
X71720187Y-5943293D01*
X71630639Y-5860141D01*
X71585078Y-5780409D01*
X71605477Y-5693714D01*
X72170858Y-5119065D01*
X72464593Y-5008914D01*
X72507409Y-4982134D01*
X72897409Y-4612134D01*
X72930743Y-4559373D01*
X73080743Y-4099373D01*
X73082788Y-4027565D01*
X72942788Y-3497565D01*
X72910992Y-3441403D01*
X72540992Y-3061403D01*
X72500161Y-3033326D01*
X72471946Y-3024910D01*
X71901946Y-2924910D01*
X71849198Y-2926792D01*
X71489198Y-3016792D01*
X71438697Y-3042436D01*
X71078697Y-3342436D01*
X71043037Y-3390516D01*
X70834565Y-3883268D01*
X70283061Y-4359992D01*
X70233763Y-4379711D01*
X70156088Y-4369354D01*
X70099240Y-4317675D01*
X70046898Y-4168124D01*
X70037013Y-2092299D01*
X70121817Y-28740D01*
X71408199Y-46987D01*
X71410794Y-46998D01*
X76082871Y-17798D01*
X76073043Y-9757610D01*
G36*
X5893000Y-2030357D02*
X5893000Y-4187666D01*
X5817649Y-4288135D01*
X5762446Y-4313614D01*
X5656560Y-4278317D01*
X5063447Y-3722271D01*
X4982771Y-3417501D01*
X4946954Y-3357436D01*
X4616954Y-3047436D01*
X4578204Y-3022504D01*
X4188204Y-2862504D01*
X4140000Y-2853000D01*
X3760000Y-2853000D01*
X3696632Y-2869939D01*
X3366632Y-3059939D01*
X3345853Y-3074877D01*
X3085854Y-3304876D01*
X3052686Y-3351356D01*
X2882685Y-3761357D01*
X2873055Y-3813734D01*
X2883055Y-4153734D01*
X2891838Y-4196548D01*
X3021837Y-4526549D01*
X3046935Y-4566419D01*
X3306936Y-4846418D01*
X3349253Y-4876421D01*
X3717704Y-5037027D01*
X4285462Y-5595480D01*
X4325397Y-5755224D01*
X4274746Y-5856526D01*
X4128007Y-5933390D01*
X2558413Y-5953010D01*
X2509936Y-5963284D01*
X2469082Y-5991327D01*
X2442069Y-6032870D01*
X2433000Y-6080000D01*
X2433001Y-7980000D01*
X2442668Y-8028601D01*
X2470198Y-8069803D01*
X2511400Y-8097333D01*
X2558452Y-8106991D01*
X4892935Y-8135462D01*
X4883066Y-26865080D01*
X2587902Y-26903017D01*
X2539468Y-26913487D01*
X2498727Y-26941694D01*
X2471881Y-26983345D01*
X2463003Y-27029338D01*
X2453002Y-28949338D01*
X2462416Y-28997989D01*
X2489731Y-29039334D01*
X2530789Y-29067078D01*
X2579253Y-29076998D01*
X4229813Y-29086706D01*
X4319361Y-29169859D01*
X4364922Y-29249591D01*
X4344523Y-29336286D01*
X3779142Y-29910936D01*
X3485408Y-30021086D01*
X3442591Y-30047866D01*
X3052591Y-30417866D01*
X3019257Y-30470627D01*
X2869257Y-30930627D01*
X2867212Y-31002435D01*
X3007212Y-31532435D01*
X3039008Y-31588597D01*
X3409008Y-31968597D01*
X3449839Y-31996674D01*
X3478054Y-32005090D01*
X4048054Y-32105090D01*
X4100802Y-32103208D01*
X4460802Y-32013208D01*
X4511303Y-31987564D01*
X4871303Y-31687564D01*
X4906963Y-31639484D01*
X5115436Y-31146730D01*
X5666940Y-30670007D01*
X5716236Y-30650289D01*
X5793912Y-30660646D01*
X5850760Y-30712325D01*
X5903102Y-30861876D01*
X5912987Y-32937701D01*
X5828086Y-35003618D01*
X3979749Y-35013000D01*
X-132872Y-35013000D01*
X-123043Y-25272390D01*
X113500Y-24957000D01*
X810000Y-24957001D01*
X858601Y-24947334D01*
X899802Y-24919804D01*
X927333Y-24878602D01*
X937000Y-24830262D01*
X967000Y-10230261D01*
X957432Y-10181640D01*
X929987Y-10140382D01*
X888842Y-10112767D01*
X840000Y-10103000D01*
X102606Y-10103000D01*
X-123000Y-9877394D01*
X-123002Y42999D01*
X5883574Y42999D01*
X5893000Y-2030357D01*
X5893000Y-2030357D01*
G37*
X5893000Y-2030357D02*
X5893000Y-4187666D01*
X5817649Y-4288135D01*
X5762446Y-4313614D01*
X5656560Y-4278317D01*
X5063447Y-3722271D01*
X4982771Y-3417501D01*
X4946954Y-3357436D01*
X4616954Y-3047436D01*
X4578204Y-3022504D01*
X4188204Y-2862504D01*
X4140000Y-2853000D01*
X3760000Y-2853000D01*
X3696632Y-2869939D01*
X3366632Y-3059939D01*
X3345853Y-3074877D01*
X3085854Y-3304876D01*
X3052686Y-3351356D01*
X2882685Y-3761357D01*
X2873055Y-3813734D01*
X2883055Y-4153734D01*
X2891838Y-4196548D01*
X3021837Y-4526549D01*
X3046935Y-4566419D01*
X3306936Y-4846418D01*
X3349253Y-4876421D01*
X3717704Y-5037027D01*
X4285462Y-5595480D01*
X4325397Y-5755224D01*
X4274746Y-5856526D01*
X4128007Y-5933390D01*
X2558413Y-5953010D01*
X2509936Y-5963284D01*
X2469082Y-5991327D01*
X2442069Y-6032870D01*
X2433000Y-6080000D01*
X2433001Y-7980000D01*
X2442668Y-8028601D01*
X2470198Y-8069803D01*
X2511400Y-8097333D01*
X2558452Y-8106991D01*
X4892935Y-8135462D01*
X4883066Y-26865080D01*
X2587902Y-26903017D01*
X2539468Y-26913487D01*
X2498727Y-26941694D01*
X2471881Y-26983345D01*
X2463003Y-27029338D01*
X2453002Y-28949338D01*
X2462416Y-28997989D01*
X2489731Y-29039334D01*
X2530789Y-29067078D01*
X2579253Y-29076998D01*
X4229813Y-29086706D01*
X4319361Y-29169859D01*
X4364922Y-29249591D01*
X4344523Y-29336286D01*
X3779142Y-29910936D01*
X3485408Y-30021086D01*
X3442591Y-30047866D01*
X3052591Y-30417866D01*
X3019257Y-30470627D01*
X2869257Y-30930627D01*
X2867212Y-31002435D01*
X3007212Y-31532435D01*
X3039008Y-31588597D01*
X3409008Y-31968597D01*
X3449839Y-31996674D01*
X3478054Y-32005090D01*
X4048054Y-32105090D01*
X4100802Y-32103208D01*
X4460802Y-32013208D01*
X4511303Y-31987564D01*
X4871303Y-31687564D01*
X4906963Y-31639484D01*
X5115436Y-31146730D01*
X5666940Y-30670007D01*
X5716236Y-30650289D01*
X5793912Y-30660646D01*
X5850760Y-30712325D01*
X5903102Y-30861876D01*
X5912987Y-32937701D01*
X5828086Y-35003618D01*
X3979749Y-35013000D01*
X-132872Y-35013000D01*
X-123043Y-25272390D01*
X113500Y-24957000D01*
X810000Y-24957001D01*
X858601Y-24947334D01*
X899802Y-24919804D01*
X927333Y-24878602D01*
X937000Y-24830262D01*
X967000Y-10230261D01*
X957432Y-10181640D01*
X929987Y-10140382D01*
X888842Y-10112767D01*
X840000Y-10103000D01*
X102606Y-10103000D01*
X-123000Y-9877394D01*
X-123002Y42999D01*
X5883574Y42999D01*
X5893000Y-2030357D01*
M02*
