M48
;DRILL file {KiCad (2017-06-07 revision 51bed4bae)-makepkg} date 06/10/17 14:48:43
;FORMAT={2:4/ absolute / inch / keep zeros}
FMAT,2
INCH,TZ
T1C0.018
%
G90
G05
M72
T1
X002992Y-002689
X003195Y-001931
X003195Y-003447
X003750Y-001376
X003750Y-004002
X004508Y-001173
X004508Y-004205
X005266Y-001376
X005266Y-004002
X005821Y-001931
X005821Y-003447
X006024Y-002689
X013228Y-008201
X013431Y-007443
X013431Y-008959
X013986Y-006888
X013986Y-009513
X014744Y-006685
X014744Y-009717
X015502Y-006888
X015502Y-009513
X016057Y-007443
X016057Y-008959
X016260Y-008201
X023858Y-008201
X024061Y-007443
X024061Y-008959
X024616Y-006888
X024616Y-009513
X025374Y-006685
X025374Y-009717
X026132Y-006888
X026132Y-009513
X026687Y-007443
X026687Y-008959
X026890Y-008201
X008110Y-008201
X008313Y-007443
X008313Y-008959
X008868Y-006888
X008868Y-009513
X009626Y-006685
X009626Y-009717
X010384Y-006888
X010384Y-009513
X010939Y-007443
X010939Y-008959
X011142Y-008201
X018740Y-008201
X018943Y-007443
X018943Y-008959
X019498Y-006888
X019498Y-009513
X020256Y-006685
X020256Y-009717
X021014Y-006888
X021014Y-009513
X021569Y-007443
X021569Y-008959
X021772Y-008201
X002992Y-008201
X003195Y-007443
X003195Y-008959
X003750Y-006888
X003750Y-009513
X004508Y-006685
X004508Y-009717
X005266Y-006888
X005266Y-009513
X005821Y-007443
X005821Y-008959
X006024Y-008201
X013228Y-002689
X013431Y-001931
X013431Y-003447
X013986Y-001376
X013986Y-004002
X014744Y-001173
X014744Y-004205
X015502Y-001376
X015502Y-004002
X016057Y-001931
X016057Y-003447
X016260Y-002689
X023858Y-002689
X024061Y-001931
X024061Y-003447
X024616Y-001376
X024616Y-004002
X025374Y-001173
X025374Y-004205
X026132Y-001376
X026132Y-004002
X026687Y-001931
X026687Y-003447
X026890Y-002689
X008110Y-002689
X008313Y-001931
X008313Y-003447
X008868Y-001376
X008868Y-004002
X009626Y-001173
X009626Y-004205
X010384Y-001376
X010384Y-004002
X010939Y-001931
X010939Y-003447
X011142Y-002689
X018740Y-002689
X018943Y-001931
X018943Y-003447
X019498Y-001376
X019498Y-004002
X020256Y-001173
X020256Y-004205
X021014Y-001376
X021014Y-004002
X021569Y-001931
X021569Y-003447
X021772Y-002689
T0
M30
