G04 #@! TF.GenerationSoftware,KiCad,Pcbnew,(2017-06-07 revision 51bed4bae)-makepkg*
G04 #@! TF.CreationDate,2017-06-10T14:48:25+02:00*
G04 #@! TF.ProjectId,Front_Panel_76x35,46726F6E745F50616E656C5F37367833,rev?*
G04 #@! TF.FileFunction,Soldermask,Bot*
G04 #@! TF.FilePolarity,Negative*
%FSLAX46Y46*%
G04 Gerber Fmt 4.6, Leading zero omitted, Abs format (unit mm)*
G04 Created by KiCad (PCBNEW (2017-06-07 revision 51bed4bae)-makepkg) date 06/10/17 14:48:25*
%MOMM*%
%LPD*%
G01*
G04 APERTURE LIST*
%ADD10C,0.150000*%
%ADD11C,0.800000*%
%ADD12C,0.400000*%
%ADD13C,3.000000*%
%ADD14C,0.700000*%
%ADD15C,1.350000*%
%ADD16C,0.010000*%
G04 APERTURE END LIST*
D10*
D11*
X73780000Y-4020000D02*
G75*
G03X73780000Y-4020000I-1800000J0D01*
G01*
X73760000Y-31100000D02*
G75*
G03X73760000Y-31100000I-1800000J0D01*
G01*
X5770000Y-31070000D02*
G75*
G03X5770000Y-31070000I-1800000J0D01*
G01*
X5780000Y-4030000D02*
G75*
G03X5780000Y-4030000I-1800000J0D01*
G01*
D12*
X23700000Y-32951428D02*
X24985714Y-32951428D01*
X24985714Y-30251428D01*
X22800000Y-32951428D02*
X22800000Y-31151428D01*
X22800000Y-30251428D02*
X22928571Y-30380000D01*
X22800000Y-30508571D01*
X22671428Y-30380000D01*
X22800000Y-30251428D01*
X22800000Y-30508571D01*
X21514285Y-32951428D02*
X21514285Y-31151428D01*
X21514285Y-31408571D02*
X21385714Y-31280000D01*
X21128571Y-31151428D01*
X20742857Y-31151428D01*
X20485714Y-31280000D01*
X20357142Y-31537142D01*
X20357142Y-32951428D01*
X20357142Y-31537142D02*
X20228571Y-31280000D01*
X19971428Y-31151428D01*
X19585714Y-31151428D01*
X19328571Y-31280000D01*
X19200000Y-31537142D01*
X19200000Y-32951428D01*
X16885714Y-32822857D02*
X17142857Y-32951428D01*
X17657142Y-32951428D01*
X17914285Y-32822857D01*
X18042857Y-32565714D01*
X18042857Y-31537142D01*
X17914285Y-31280000D01*
X17657142Y-31151428D01*
X17142857Y-31151428D01*
X16885714Y-31280000D01*
X16757142Y-31537142D01*
X16757142Y-31794285D01*
X18042857Y-32051428D01*
X15728571Y-32822857D02*
X15342857Y-32951428D01*
X14700000Y-32951428D01*
X14442857Y-32822857D01*
X14314285Y-32694285D01*
X14185714Y-32437142D01*
X14185714Y-32180000D01*
X14314285Y-31922857D01*
X14442857Y-31794285D01*
X14700000Y-31665714D01*
X15214285Y-31537142D01*
X15471428Y-31408571D01*
X15600000Y-31280000D01*
X15728571Y-31022857D01*
X15728571Y-30765714D01*
X15600000Y-30508571D01*
X15471428Y-30380000D01*
X15214285Y-30251428D01*
X14571428Y-30251428D01*
X14185714Y-30380000D01*
X13028571Y-32951428D02*
X13028571Y-30251428D01*
X12385714Y-30251428D01*
X12000000Y-30380000D01*
X11742857Y-30637142D01*
X11614285Y-30894285D01*
X11485714Y-31408571D01*
X11485714Y-31794285D01*
X11614285Y-32308571D01*
X11742857Y-32565714D01*
X12000000Y-32822857D01*
X12385714Y-32951428D01*
X13028571Y-32951428D01*
X8785714Y-32951428D02*
X9685714Y-31665714D01*
X10328571Y-32951428D02*
X10328571Y-30251428D01*
X9300000Y-30251428D01*
X9042857Y-30380000D01*
X8914285Y-30508571D01*
X8785714Y-30765714D01*
X8785714Y-31151428D01*
X8914285Y-31408571D01*
X9042857Y-31537142D01*
X9300000Y-31665714D01*
X10328571Y-31665714D01*
D13*
X67110000Y-20830000D02*
G75*
G03X67110000Y-20830000I-2660000J0D01*
G01*
D14*
X67380000Y-18990000D02*
X67380000Y-22680000D01*
D15*
X68280000Y-20830000D02*
G75*
G03X68280000Y-20830000I-3830000J0D01*
G01*
D13*
X54110000Y-20830000D02*
G75*
G03X54110000Y-20830000I-2660000J0D01*
G01*
D14*
X54380000Y-18990000D02*
X54380000Y-22680000D01*
D15*
X55280000Y-20830000D02*
G75*
G03X55280000Y-20830000I-3830000J0D01*
G01*
D13*
X67110000Y-6830000D02*
G75*
G03X67110000Y-6830000I-2660000J0D01*
G01*
D14*
X67380000Y-4990000D02*
X67380000Y-8680000D01*
D15*
X68280000Y-6830000D02*
G75*
G03X68280000Y-6830000I-3830000J0D01*
G01*
D13*
X54110000Y-6830000D02*
G75*
G03X54110000Y-6830000I-2660000J0D01*
G01*
D14*
X54380000Y-4990000D02*
X54380000Y-8680000D01*
D15*
X55280000Y-6830000D02*
G75*
G03X55280000Y-6830000I-3830000J0D01*
G01*
D13*
X40110000Y-20830000D02*
G75*
G03X40110000Y-20830000I-2660000J0D01*
G01*
D14*
X40380000Y-18990000D02*
X40380000Y-22680000D01*
D15*
X41280000Y-20830000D02*
G75*
G03X41280000Y-20830000I-3830000J0D01*
G01*
D13*
X27110000Y-20830000D02*
G75*
G03X27110000Y-20830000I-2660000J0D01*
G01*
D14*
X27380000Y-18990000D02*
X27380000Y-22680000D01*
D15*
X28280000Y-20830000D02*
G75*
G03X28280000Y-20830000I-3830000J0D01*
G01*
D13*
X14110000Y-20830000D02*
G75*
G03X14110000Y-20830000I-2660000J0D01*
G01*
D14*
X14380000Y-18990000D02*
X14380000Y-22680000D01*
D15*
X15280000Y-20830000D02*
G75*
G03X15280000Y-20830000I-3830000J0D01*
G01*
D13*
X40110000Y-6830000D02*
G75*
G03X40110000Y-6830000I-2660000J0D01*
G01*
D14*
X40380000Y-4990000D02*
X40380000Y-8680000D01*
D15*
X41280000Y-6830000D02*
G75*
G03X41280000Y-6830000I-3830000J0D01*
G01*
D13*
X27110000Y-6830000D02*
G75*
G03X27110000Y-6830000I-2660000J0D01*
G01*
D14*
X27380000Y-4990000D02*
X27380000Y-8680000D01*
D15*
X28280000Y-6830000D02*
G75*
G03X28280000Y-6830000I-3830000J0D01*
G01*
D13*
X14110000Y-6830000D02*
G75*
G03X14110000Y-6830000I-2660000J0D01*
G01*
D14*
X14380000Y-4990000D02*
X14380000Y-8680000D01*
D15*
X15280000Y-6830000D02*
G75*
G03X15280000Y-6830000I-3830000J0D01*
G01*
D16*
G36*
X31145957Y-29851803D02*
X31182519Y-29840339D01*
X31223131Y-29813087D01*
X31273568Y-29763382D01*
X31339601Y-29684559D01*
X31427003Y-29569953D01*
X31541546Y-29412899D01*
X31689005Y-29206732D01*
X31783381Y-29074000D01*
X31931494Y-28864601D01*
X32064803Y-28674391D01*
X32177766Y-28511415D01*
X32264847Y-28383718D01*
X32320505Y-28299345D01*
X32339230Y-28266643D01*
X32323027Y-28238978D01*
X32267141Y-28269355D01*
X32170790Y-28358314D01*
X32101192Y-28431408D01*
X31926978Y-28620519D01*
X31787731Y-28774222D01*
X31668508Y-28909793D01*
X31554369Y-29044512D01*
X31430375Y-29195656D01*
X31295232Y-29363469D01*
X31178321Y-29512737D01*
X31081011Y-29643491D01*
X31011030Y-29744825D01*
X30976107Y-29805831D01*
X30973823Y-29817041D01*
X31014691Y-29842225D01*
X31097791Y-29854021D01*
X31107674Y-29854143D01*
X31145957Y-29851803D01*
X31145957Y-29851803D01*
G37*
X31145957Y-29851803D02*
X31182519Y-29840339D01*
X31223131Y-29813087D01*
X31273568Y-29763382D01*
X31339601Y-29684559D01*
X31427003Y-29569953D01*
X31541546Y-29412899D01*
X31689005Y-29206732D01*
X31783381Y-29074000D01*
X31931494Y-28864601D01*
X32064803Y-28674391D01*
X32177766Y-28511415D01*
X32264847Y-28383718D01*
X32320505Y-28299345D01*
X32339230Y-28266643D01*
X32323027Y-28238978D01*
X32267141Y-28269355D01*
X32170790Y-28358314D01*
X32101192Y-28431408D01*
X31926978Y-28620519D01*
X31787731Y-28774222D01*
X31668508Y-28909793D01*
X31554369Y-29044512D01*
X31430375Y-29195656D01*
X31295232Y-29363469D01*
X31178321Y-29512737D01*
X31081011Y-29643491D01*
X31011030Y-29744825D01*
X30976107Y-29805831D01*
X30973823Y-29817041D01*
X31014691Y-29842225D01*
X31097791Y-29854021D01*
X31107674Y-29854143D01*
X31145957Y-29851803D01*
G36*
X27785172Y-34389694D02*
X27857384Y-34322919D01*
X27965945Y-34202521D01*
X28026146Y-34131859D01*
X28129211Y-34009805D01*
X28217202Y-33906189D01*
X28277972Y-33835287D01*
X28296340Y-33814359D01*
X28330475Y-33774224D01*
X28402683Y-33687588D01*
X28505009Y-33564054D01*
X28629495Y-33413228D01*
X28766425Y-33246857D01*
X28922094Y-33059781D01*
X29080581Y-32873377D01*
X29229016Y-32702500D01*
X29354530Y-32562006D01*
X29426514Y-32484857D01*
X29534962Y-32373779D01*
X29607087Y-32307379D01*
X29656785Y-32277947D01*
X29697954Y-32277775D01*
X29744490Y-32299153D01*
X29752897Y-32303800D01*
X29850329Y-32381291D01*
X29927679Y-32499770D01*
X29990506Y-32670244D01*
X30037073Y-32866382D01*
X30084191Y-33100134D01*
X30120038Y-33272144D01*
X30147402Y-33391868D01*
X30169069Y-33468762D01*
X30187828Y-33512280D01*
X30206466Y-33531877D01*
X30227769Y-33537010D01*
X30234807Y-33537143D01*
X30263057Y-33525044D01*
X30285580Y-33481138D01*
X30305379Y-33394012D01*
X30325457Y-33252254D01*
X30337869Y-33145400D01*
X30356189Y-32967522D01*
X30370769Y-32801043D01*
X30379748Y-32668659D01*
X30381706Y-32610185D01*
X30399496Y-32451541D01*
X30446577Y-32259854D01*
X30514279Y-32063938D01*
X30593934Y-31892602D01*
X30601806Y-31878655D01*
X30651120Y-31774665D01*
X30661278Y-31709628D01*
X30633943Y-31691943D01*
X30572151Y-31728844D01*
X30533678Y-31756945D01*
X30473660Y-31792034D01*
X30381743Y-31839373D01*
X30247576Y-31904224D01*
X30060805Y-31991847D01*
X29989380Y-32025026D01*
X29905765Y-32047455D01*
X29783452Y-32062362D01*
X29705088Y-32065689D01*
X29581891Y-32061922D01*
X29503706Y-32041518D01*
X29443346Y-31995181D01*
X29418396Y-31967642D01*
X29351383Y-31862326D01*
X29309922Y-31747990D01*
X29309655Y-31746593D01*
X29316234Y-31608693D01*
X29378774Y-31426959D01*
X29496466Y-31202759D01*
X29668500Y-30937464D01*
X29894064Y-30632443D01*
X30170850Y-30290850D01*
X30282211Y-30149019D01*
X30347021Y-30044949D01*
X30361882Y-29984140D01*
X30361288Y-29982422D01*
X30342360Y-29915342D01*
X30318945Y-29807586D01*
X30307255Y-29745285D01*
X30289001Y-29649920D01*
X30266478Y-29551412D01*
X30235228Y-29432727D01*
X30190797Y-29276833D01*
X30137007Y-29094507D01*
X30095442Y-29005250D01*
X30046329Y-28971313D01*
X30001017Y-29000480D01*
X30000681Y-29001019D01*
X29989599Y-29049958D01*
X29975979Y-29157145D01*
X29961311Y-29308368D01*
X29947083Y-29489416D01*
X29942541Y-29556292D01*
X29917831Y-29854708D01*
X29885053Y-30092042D01*
X29841185Y-30279610D01*
X29783206Y-30428725D01*
X29708094Y-30550703D01*
X29662130Y-30606202D01*
X29580324Y-30691693D01*
X29500316Y-30759428D01*
X29412079Y-30812031D01*
X29305586Y-30852125D01*
X29170810Y-30882334D01*
X28997724Y-30905282D01*
X28776301Y-30923592D01*
X28496515Y-30939887D01*
X28360896Y-30946678D01*
X28172554Y-30957520D01*
X28008784Y-30970071D01*
X27883957Y-30982997D01*
X27812445Y-30994961D01*
X27802891Y-30998535D01*
X27775433Y-31040468D01*
X27804762Y-31080967D01*
X27876467Y-31104541D01*
X27902860Y-31106000D01*
X28034312Y-31119364D01*
X28201882Y-31155273D01*
X28386577Y-31207455D01*
X28569403Y-31269637D01*
X28731367Y-31335546D01*
X28853477Y-31398909D01*
X28903069Y-31436344D01*
X28967101Y-31506602D01*
X28984765Y-31557974D01*
X28963417Y-31620366D01*
X28953264Y-31640381D01*
X28875868Y-31744987D01*
X28737260Y-31876838D01*
X28536069Y-32037094D01*
X28270922Y-32226912D01*
X28204227Y-32272512D01*
X28031436Y-32387910D01*
X27830284Y-32519226D01*
X27616088Y-32656757D01*
X27404164Y-32790801D01*
X27209828Y-32911653D01*
X27048397Y-33009612D01*
X26953955Y-33064571D01*
X26817267Y-33143554D01*
X26733796Y-33198605D01*
X26691989Y-33238526D01*
X26680292Y-33272116D01*
X26680286Y-33273012D01*
X26709725Y-33271419D01*
X26798467Y-33237177D01*
X26947143Y-33169975D01*
X27156386Y-33069506D01*
X27426829Y-32935461D01*
X27759104Y-32767529D01*
X28153845Y-32565403D01*
X28578711Y-32345874D01*
X28738284Y-32266595D01*
X28847576Y-32221668D01*
X28917990Y-32207218D01*
X28957552Y-32217067D01*
X29013188Y-32265402D01*
X29028142Y-32289427D01*
X29023477Y-32314066D01*
X28999531Y-32365533D01*
X28953891Y-32447684D01*
X28884141Y-32564374D01*
X28787866Y-32719457D01*
X28662653Y-32916790D01*
X28506085Y-33160228D01*
X28315748Y-33453625D01*
X28089228Y-33800836D01*
X27908225Y-34077385D01*
X27829562Y-34200779D01*
X27769105Y-34301953D01*
X27736061Y-34365219D01*
X27732571Y-34376742D01*
X27745004Y-34406437D01*
X27785172Y-34389694D01*
X27785172Y-34389694D01*
G37*
X27785172Y-34389694D02*
X27857384Y-34322919D01*
X27965945Y-34202521D01*
X28026146Y-34131859D01*
X28129211Y-34009805D01*
X28217202Y-33906189D01*
X28277972Y-33835287D01*
X28296340Y-33814359D01*
X28330475Y-33774224D01*
X28402683Y-33687588D01*
X28505009Y-33564054D01*
X28629495Y-33413228D01*
X28766425Y-33246857D01*
X28922094Y-33059781D01*
X29080581Y-32873377D01*
X29229016Y-32702500D01*
X29354530Y-32562006D01*
X29426514Y-32484857D01*
X29534962Y-32373779D01*
X29607087Y-32307379D01*
X29656785Y-32277947D01*
X29697954Y-32277775D01*
X29744490Y-32299153D01*
X29752897Y-32303800D01*
X29850329Y-32381291D01*
X29927679Y-32499770D01*
X29990506Y-32670244D01*
X30037073Y-32866382D01*
X30084191Y-33100134D01*
X30120038Y-33272144D01*
X30147402Y-33391868D01*
X30169069Y-33468762D01*
X30187828Y-33512280D01*
X30206466Y-33531877D01*
X30227769Y-33537010D01*
X30234807Y-33537143D01*
X30263057Y-33525044D01*
X30285580Y-33481138D01*
X30305379Y-33394012D01*
X30325457Y-33252254D01*
X30337869Y-33145400D01*
X30356189Y-32967522D01*
X30370769Y-32801043D01*
X30379748Y-32668659D01*
X30381706Y-32610185D01*
X30399496Y-32451541D01*
X30446577Y-32259854D01*
X30514279Y-32063938D01*
X30593934Y-31892602D01*
X30601806Y-31878655D01*
X30651120Y-31774665D01*
X30661278Y-31709628D01*
X30633943Y-31691943D01*
X30572151Y-31728844D01*
X30533678Y-31756945D01*
X30473660Y-31792034D01*
X30381743Y-31839373D01*
X30247576Y-31904224D01*
X30060805Y-31991847D01*
X29989380Y-32025026D01*
X29905765Y-32047455D01*
X29783452Y-32062362D01*
X29705088Y-32065689D01*
X29581891Y-32061922D01*
X29503706Y-32041518D01*
X29443346Y-31995181D01*
X29418396Y-31967642D01*
X29351383Y-31862326D01*
X29309922Y-31747990D01*
X29309655Y-31746593D01*
X29316234Y-31608693D01*
X29378774Y-31426959D01*
X29496466Y-31202759D01*
X29668500Y-30937464D01*
X29894064Y-30632443D01*
X30170850Y-30290850D01*
X30282211Y-30149019D01*
X30347021Y-30044949D01*
X30361882Y-29984140D01*
X30361288Y-29982422D01*
X30342360Y-29915342D01*
X30318945Y-29807586D01*
X30307255Y-29745285D01*
X30289001Y-29649920D01*
X30266478Y-29551412D01*
X30235228Y-29432727D01*
X30190797Y-29276833D01*
X30137007Y-29094507D01*
X30095442Y-29005250D01*
X30046329Y-28971313D01*
X30001017Y-29000480D01*
X30000681Y-29001019D01*
X29989599Y-29049958D01*
X29975979Y-29157145D01*
X29961311Y-29308368D01*
X29947083Y-29489416D01*
X29942541Y-29556292D01*
X29917831Y-29854708D01*
X29885053Y-30092042D01*
X29841185Y-30279610D01*
X29783206Y-30428725D01*
X29708094Y-30550703D01*
X29662130Y-30606202D01*
X29580324Y-30691693D01*
X29500316Y-30759428D01*
X29412079Y-30812031D01*
X29305586Y-30852125D01*
X29170810Y-30882334D01*
X28997724Y-30905282D01*
X28776301Y-30923592D01*
X28496515Y-30939887D01*
X28360896Y-30946678D01*
X28172554Y-30957520D01*
X28008784Y-30970071D01*
X27883957Y-30982997D01*
X27812445Y-30994961D01*
X27802891Y-30998535D01*
X27775433Y-31040468D01*
X27804762Y-31080967D01*
X27876467Y-31104541D01*
X27902860Y-31106000D01*
X28034312Y-31119364D01*
X28201882Y-31155273D01*
X28386577Y-31207455D01*
X28569403Y-31269637D01*
X28731367Y-31335546D01*
X28853477Y-31398909D01*
X28903069Y-31436344D01*
X28967101Y-31506602D01*
X28984765Y-31557974D01*
X28963417Y-31620366D01*
X28953264Y-31640381D01*
X28875868Y-31744987D01*
X28737260Y-31876838D01*
X28536069Y-32037094D01*
X28270922Y-32226912D01*
X28204227Y-32272512D01*
X28031436Y-32387910D01*
X27830284Y-32519226D01*
X27616088Y-32656757D01*
X27404164Y-32790801D01*
X27209828Y-32911653D01*
X27048397Y-33009612D01*
X26953955Y-33064571D01*
X26817267Y-33143554D01*
X26733796Y-33198605D01*
X26691989Y-33238526D01*
X26680292Y-33272116D01*
X26680286Y-33273012D01*
X26709725Y-33271419D01*
X26798467Y-33237177D01*
X26947143Y-33169975D01*
X27156386Y-33069506D01*
X27426829Y-32935461D01*
X27759104Y-32767529D01*
X28153845Y-32565403D01*
X28578711Y-32345874D01*
X28738284Y-32266595D01*
X28847576Y-32221668D01*
X28917990Y-32207218D01*
X28957552Y-32217067D01*
X29013188Y-32265402D01*
X29028142Y-32289427D01*
X29023477Y-32314066D01*
X28999531Y-32365533D01*
X28953891Y-32447684D01*
X28884141Y-32564374D01*
X28787866Y-32719457D01*
X28662653Y-32916790D01*
X28506085Y-33160228D01*
X28315748Y-33453625D01*
X28089228Y-33800836D01*
X27908225Y-34077385D01*
X27829562Y-34200779D01*
X27769105Y-34301953D01*
X27736061Y-34365219D01*
X27732571Y-34376742D01*
X27745004Y-34406437D01*
X27785172Y-34389694D01*
G36*
X31450785Y-30516541D02*
X31558718Y-30472415D01*
X31723376Y-30388605D01*
X31751346Y-30373570D01*
X31919914Y-30278669D01*
X32108867Y-30165924D01*
X32308649Y-30041740D01*
X32509702Y-29912520D01*
X32702469Y-29784669D01*
X32877394Y-29664591D01*
X33024919Y-29558692D01*
X33135487Y-29473376D01*
X33199542Y-29415048D01*
X33211714Y-29394912D01*
X33201720Y-29373335D01*
X33166309Y-29372355D01*
X33097338Y-29395089D01*
X32986665Y-29444652D01*
X32826148Y-29524162D01*
X32685571Y-29596303D01*
X32363983Y-29765298D01*
X32101631Y-29909547D01*
X31891407Y-30033703D01*
X31726198Y-30142421D01*
X31598894Y-30240356D01*
X31502384Y-30332164D01*
X31434777Y-30415079D01*
X31392069Y-30487446D01*
X31396320Y-30521409D01*
X31450785Y-30516541D01*
X31450785Y-30516541D01*
G37*
X31450785Y-30516541D02*
X31558718Y-30472415D01*
X31723376Y-30388605D01*
X31751346Y-30373570D01*
X31919914Y-30278669D01*
X32108867Y-30165924D01*
X32308649Y-30041740D01*
X32509702Y-29912520D01*
X32702469Y-29784669D01*
X32877394Y-29664591D01*
X33024919Y-29558692D01*
X33135487Y-29473376D01*
X33199542Y-29415048D01*
X33211714Y-29394912D01*
X33201720Y-29373335D01*
X33166309Y-29372355D01*
X33097338Y-29395089D01*
X32986665Y-29444652D01*
X32826148Y-29524162D01*
X32685571Y-29596303D01*
X32363983Y-29765298D01*
X32101631Y-29909547D01*
X31891407Y-30033703D01*
X31726198Y-30142421D01*
X31598894Y-30240356D01*
X31502384Y-30332164D01*
X31434777Y-30415079D01*
X31392069Y-30487446D01*
X31396320Y-30521409D01*
X31450785Y-30516541D01*
G36*
X30840127Y-31636382D02*
X30912546Y-31625702D01*
X31041529Y-31612481D01*
X31211176Y-31598132D01*
X31405588Y-31584070D01*
X31488143Y-31578753D01*
X31818250Y-31557392D01*
X32081246Y-31538267D01*
X32282535Y-31520816D01*
X32427524Y-31504481D01*
X32521618Y-31488699D01*
X32570223Y-31472909D01*
X32578722Y-31465609D01*
X32562294Y-31436998D01*
X32496555Y-31411996D01*
X32386683Y-31384462D01*
X32243800Y-31344739D01*
X32087226Y-31298690D01*
X31936277Y-31252173D01*
X31810272Y-31211050D01*
X31728528Y-31181181D01*
X31714450Y-31174735D01*
X31644770Y-31152858D01*
X31530855Y-31131156D01*
X31431409Y-31118176D01*
X31212347Y-31095280D01*
X31018377Y-31295543D01*
X30917921Y-31403983D01*
X30833926Y-31503156D01*
X30783106Y-31573221D01*
X30780402Y-31578030D01*
X30755092Y-31634533D01*
X30775600Y-31648591D01*
X30840127Y-31636382D01*
X30840127Y-31636382D01*
G37*
X30840127Y-31636382D02*
X30912546Y-31625702D01*
X31041529Y-31612481D01*
X31211176Y-31598132D01*
X31405588Y-31584070D01*
X31488143Y-31578753D01*
X31818250Y-31557392D01*
X32081246Y-31538267D01*
X32282535Y-31520816D01*
X32427524Y-31504481D01*
X32521618Y-31488699D01*
X32570223Y-31472909D01*
X32578722Y-31465609D01*
X32562294Y-31436998D01*
X32496555Y-31411996D01*
X32386683Y-31384462D01*
X32243800Y-31344739D01*
X32087226Y-31298690D01*
X31936277Y-31252173D01*
X31810272Y-31211050D01*
X31728528Y-31181181D01*
X31714450Y-31174735D01*
X31644770Y-31152858D01*
X31530855Y-31131156D01*
X31431409Y-31118176D01*
X31212347Y-31095280D01*
X31018377Y-31295543D01*
X30917921Y-31403983D01*
X30833926Y-31503156D01*
X30783106Y-31573221D01*
X30780402Y-31578030D01*
X30755092Y-31634533D01*
X30775600Y-31648591D01*
X30840127Y-31636382D01*
M02*
