M48
INCH,TZ
T1C0.026
T2C0.040
%
G90
G05
T1
X55981Y-29382
X55981Y-29882
X55981Y-30382
X55981Y-30882
X55981Y-31382
X56481Y-29382
X56481Y-29882
X56481Y-30382
X56481Y-30882
X56481Y-31382
T2
X54756Y-26969
X54756Y-27969
X54756Y-28969
X54756Y-29969
X54756Y-30969
X57756Y-26969
X57756Y-27969
X57756Y-28969
X57756Y-29969
X57756Y-30969
T0
M30
