M48
;DRILL file {KiCad (2016-09-17 revision 679eef1)-makepkg} date 09/24/16 16:35:12
;FORMAT={2:4/ absolute / inch / keep zeros}
FMAT,2
INCH,TZ
T1C0.018
%
G90
G05
M72
T1
X004421Y-006114
X004624Y-005356
X004624Y-006872
X005179Y-004801
X005179Y-007427
X005937Y-004598
X005937Y-007630
X006695Y-004801
X006695Y-007427
X007250Y-005356
X007250Y-006872
X007453Y-006114
X009539Y-006114
X009742Y-005356
X009742Y-006872
X010297Y-004801
X010297Y-007427
X011055Y-004598
X011055Y-007630
X011813Y-004801
X011813Y-007427
X012368Y-005356
X012368Y-006872
X012571Y-006114
X017413Y-006114
X017616Y-005356
X017616Y-006872
X018171Y-004801
X018171Y-007427
X018929Y-004598
X018929Y-007630
X019687Y-004801
X019687Y-007427
X020242Y-005356
X020242Y-006872
X020445Y-006114
X022531Y-006114
X022735Y-005356
X022735Y-006872
X023289Y-004801
X023289Y-007427
X024047Y-004598
X024047Y-007630
X024805Y-004801
X024805Y-007427
X025360Y-005356
X025360Y-006872
X025563Y-006114
T0
M30
