G04 #@! TF.FileFunction,Profile,NP*
%FSLAX46Y46*%
G04 Gerber Fmt 4.6, Leading zero omitted, Abs format (unit mm)*
G04 Created by KiCad (PCBNEW (2016-09-17 revision 679eef1)-makepkg) date 09/24/16 16:36:29*
%MOMM*%
%LPD*%
G01*
G04 APERTURE LIST*
%ADD10C,0.150000*%
%ADD11C,0.020000*%
G04 APERTURE END LIST*
D10*
D11*
X0Y-33000000D02*
G75*
G03X2000000Y-35000000I2000000J0D01*
G01*
X75990000Y-2000000D02*
G75*
G03X73990000Y0I-2000000J0D01*
G01*
X1999999Y0D02*
G75*
G03X0Y-2000001I1J-2000000D01*
G01*
X5345000Y-3985000D02*
G75*
G03X5345000Y-3985000I-1400000J0D01*
G01*
X5345000Y-31035000D02*
G75*
G03X5345000Y-31035000I-1400000J0D01*
G01*
X73320000Y-31060000D02*
G75*
G03X73320000Y-31060000I-1400000J0D01*
G01*
X75990000Y-25160000D02*
G75*
G03X75690000Y-24860000I-300000J0D01*
G01*
X75690000Y-10020000D02*
G75*
G03X75990000Y-9720000I0J300000D01*
G01*
X0Y-9820000D02*
G75*
G03X300000Y-10120000I300000J0D01*
G01*
X300000Y-24960000D02*
G75*
G03X0Y-25260000I0J-300000D01*
G01*
X0Y-2000000D02*
X0Y-9820000D01*
X0Y-25260000D02*
X0Y-33000000D01*
X75990000Y-25160000D02*
X75990000Y-32500000D01*
X75990000Y-2000000D02*
X75990000Y-9720000D01*
X74999999Y-10020000D02*
X75690000Y-10020000D01*
X75000000Y-24860000D02*
X74999999Y-10020000D01*
X75000000Y-24860000D02*
X75690000Y-24860000D01*
X990000Y-10120000D02*
X990000Y-24960000D01*
X990000Y-10120000D02*
X300000Y-10120000D01*
X990000Y-24960000D02*
X300000Y-24960000D01*
X73345000Y-3985000D02*
G75*
G03X73345000Y-3985000I-1400000J0D01*
G01*
X75990000Y-32500000D02*
G75*
G02X73500000Y-34990000I-2490000J0D01*
G01*
X73500000Y-34990000D02*
X2000000Y-35000000D01*
X2000000Y0D02*
X73990000Y0D01*
X67120000Y-22600000D02*
G75*
G02X67120000Y-18980000I-2700000J1810000D01*
G01*
X67120000Y-18980000D02*
X67120000Y-22600000D01*
X54120000Y-22600000D02*
G75*
G02X54120000Y-18980000I-2700000J1810000D01*
G01*
X54120000Y-18980000D02*
X54120000Y-22600000D01*
X67120000Y-8600000D02*
G75*
G02X67120000Y-4980000I-2700000J1810000D01*
G01*
X67120000Y-4980000D02*
X67120000Y-8600000D01*
X54120000Y-8600000D02*
G75*
G02X54120000Y-4980000I-2700000J1810000D01*
G01*
X54120000Y-4980000D02*
X54120000Y-8600000D01*
X40120000Y-22600000D02*
G75*
G02X40120000Y-18980000I-2700000J1810000D01*
G01*
X40120000Y-18980000D02*
X40120000Y-22600000D01*
X27120000Y-22600000D02*
G75*
G02X27120000Y-18980000I-2700000J1810000D01*
G01*
X27120000Y-18980000D02*
X27120000Y-22600000D01*
X14120000Y-22600000D02*
G75*
G02X14120000Y-18980000I-2700000J1810000D01*
G01*
X14120000Y-18980000D02*
X14120000Y-22600000D01*
X40120000Y-8600000D02*
G75*
G02X40120000Y-4980000I-2700000J1810000D01*
G01*
X40120000Y-4980000D02*
X40120000Y-8600000D01*
X27120000Y-8600000D02*
G75*
G02X27120000Y-4980000I-2700000J1810000D01*
G01*
X27120000Y-4980000D02*
X27120000Y-8600000D01*
X14120000Y-8600000D02*
G75*
G02X14120000Y-4980000I-2700000J1810000D01*
G01*
X14120000Y-4980000D02*
X14120000Y-8600000D01*
M02*
