G04 #@! TF.FileFunction,Legend,Bot*
%FSLAX46Y46*%
G04 Gerber Fmt 4.6, Leading zero omitted, Abs format (unit mm)*
G04 Created by KiCad (PCBNEW (2016-09-17 revision 679eef1)-makepkg) date 09/24/16 16:36:29*
%MOMM*%
%LPD*%
G01*
G04 APERTURE LIST*
%ADD10C,0.150000*%
%ADD11C,0.300000*%
%ADD12C,0.500000*%
%ADD13C,0.350000*%
%ADD14C,0.400000*%
%ADD15C,0.010000*%
%ADD16C,0.800000*%
%ADD17C,3.000000*%
%ADD18C,0.700000*%
%ADD19C,1.350000*%
G04 APERTURE END LIST*
D10*
D11*
X63862857Y-13904285D02*
X64720000Y-13904285D01*
X64720000Y-12104285D01*
D12*
X60620000Y-12990000D02*
X55320000Y-12990000D01*
D11*
X51934285Y-13919175D02*
X51934285Y-12119175D01*
X51934285Y-12976318D02*
X50905714Y-12976318D01*
X50905714Y-13919175D02*
X50905714Y-12119175D01*
D12*
X47710000Y-12980000D02*
G75*
G02X45660000Y-10879390I0J2050610D01*
G01*
X45610000Y-3080000D02*
X45660000Y-10879390D01*
X45609390Y-3040000D02*
G75*
G02X47710000Y-990000I2050610J0D01*
G01*
X68220000Y-990000D02*
X47720000Y-990000D01*
X68120000Y-990000D02*
G75*
G02X70170000Y-3090610I0J-2050610D01*
G01*
X70170000Y-10960000D02*
X70170000Y-3090610D01*
X70170000Y-10960000D02*
G75*
G02X68069390Y-13010000I-2050610J0D01*
G01*
D13*
X71124761Y-7966190D02*
X71124761Y-9223333D01*
X73124761Y-8594761D02*
X71124761Y-8594761D01*
X71124761Y-9747142D02*
X73124761Y-11213809D01*
X71124761Y-11213809D02*
X73124761Y-9747142D01*
X73124761Y-13204285D02*
X73124761Y-11947142D01*
X73124761Y-12575714D02*
X71124761Y-12575714D01*
X71410476Y-12366190D01*
X71600952Y-12156666D01*
X71696190Y-11947142D01*
D12*
X45609390Y-17040000D02*
G75*
G02X47710000Y-14990000I2050610J0D01*
G01*
X45610000Y-17080000D02*
X45660000Y-24879390D01*
X47710000Y-26980000D02*
G75*
G02X45660000Y-24879390I0J2050610D01*
G01*
X41120000Y-990000D02*
G75*
G02X43170000Y-3090610I0J-2050610D01*
G01*
X43170000Y-10910000D02*
X43170000Y-3090610D01*
X43170000Y-10940000D02*
G75*
G02X41069390Y-12990000I-2050610J0D01*
G01*
D11*
X38191428Y-12104285D02*
X37762857Y-13904285D01*
X37420000Y-12618571D01*
X37077142Y-13904285D01*
X36648571Y-12104285D01*
D12*
X33620000Y-12990000D02*
X28320000Y-12990000D01*
D11*
X23862857Y-13919175D02*
X24720000Y-13919175D01*
X24720000Y-12119175D01*
D12*
X20620000Y-12990000D02*
X15320000Y-12990000D01*
D11*
X11934285Y-13904285D02*
X11934285Y-12104285D01*
X11934285Y-12961428D02*
X10905714Y-12961428D01*
X10905714Y-13904285D02*
X10905714Y-12104285D01*
D12*
X7726034Y-12954890D02*
G75*
G02X5676034Y-10854280I0J2050610D01*
G01*
X41220000Y-990000D02*
X7770000Y-990000D01*
X5669390Y-3040000D02*
G75*
G02X7770000Y-990000I2050610J0D01*
G01*
X5676034Y-10854890D02*
X5676034Y-3004890D01*
D13*
X4654761Y-9205714D02*
X3702380Y-8472380D01*
X4654761Y-7948571D02*
X2654761Y-7948571D01*
X2654761Y-8786666D01*
X2750000Y-8996190D01*
X2845238Y-9100952D01*
X3035714Y-9205714D01*
X3321428Y-9205714D01*
X3511904Y-9100952D01*
X3607142Y-8996190D01*
X3702380Y-8786666D01*
X3702380Y-7948571D01*
X2654761Y-9939047D02*
X4654761Y-11405714D01*
X2654761Y-11405714D02*
X4654761Y-9939047D01*
X4654761Y-13396190D02*
X4654761Y-12139047D01*
X4654761Y-12767619D02*
X2654761Y-12767619D01*
X2940476Y-12558095D01*
X3130952Y-12348571D01*
X3226190Y-12139047D01*
D11*
X51934285Y-27919175D02*
X51934285Y-26119175D01*
X51934285Y-26976318D02*
X50905714Y-26976318D01*
X50905714Y-27919175D02*
X50905714Y-26119175D01*
X63862857Y-27904285D02*
X64720000Y-27904285D01*
X64720000Y-26104285D01*
D12*
X60620000Y-26990000D02*
X55320000Y-26990000D01*
X68220000Y-14990000D02*
X47720000Y-14990000D01*
X68120000Y-14990000D02*
G75*
G02X70170000Y-17090610I0J-2050610D01*
G01*
X70170000Y-24960000D02*
X70170000Y-17090610D01*
X70170000Y-24940000D02*
G75*
G02X68069390Y-26990000I-2050610J0D01*
G01*
D13*
X71124761Y-21966190D02*
X71124761Y-23223333D01*
X73124761Y-22594761D02*
X71124761Y-22594761D01*
X71124761Y-23747142D02*
X73124761Y-25213809D01*
X71124761Y-25213809D02*
X73124761Y-23747142D01*
X71315238Y-25947142D02*
X71220000Y-26051904D01*
X71124761Y-26261428D01*
X71124761Y-26785238D01*
X71220000Y-26994761D01*
X71315238Y-27099523D01*
X71505714Y-27204285D01*
X71696190Y-27204285D01*
X71981904Y-27099523D01*
X73124761Y-25842380D01*
X73124761Y-27204285D01*
D12*
X20620000Y-26990000D02*
X15320000Y-26990000D01*
D13*
X4654761Y-23205714D02*
X3702380Y-22472380D01*
X4654761Y-21948571D02*
X2654761Y-21948571D01*
X2654761Y-22786666D01*
X2750000Y-22996190D01*
X2845238Y-23100952D01*
X3035714Y-23205714D01*
X3321428Y-23205714D01*
X3511904Y-23100952D01*
X3607142Y-22996190D01*
X3702380Y-22786666D01*
X3702380Y-21948571D01*
X2654761Y-23939047D02*
X4654761Y-25405714D01*
X2654761Y-25405714D02*
X4654761Y-23939047D01*
X2845238Y-26139047D02*
X2750000Y-26243809D01*
X2654761Y-26453333D01*
X2654761Y-26977142D01*
X2750000Y-27186666D01*
X2845238Y-27291428D01*
X3035714Y-27396190D01*
X3226190Y-27396190D01*
X3511904Y-27291428D01*
X4654761Y-26034285D01*
X4654761Y-27396190D01*
D12*
X43170000Y-24960000D02*
X43170000Y-17090610D01*
X43170000Y-24940000D02*
G75*
G02X41069390Y-26990000I-2050610J0D01*
G01*
X41120000Y-14990000D02*
G75*
G02X43170000Y-17090610I0J-2050610D01*
G01*
X33620000Y-26990000D02*
X28320000Y-26990000D01*
X5676034Y-24854890D02*
X5676034Y-17004890D01*
X7726034Y-26954890D02*
G75*
G02X5676034Y-24854280I0J2050610D01*
G01*
X5669390Y-17040000D02*
G75*
G02X7770000Y-14990000I2050610J0D01*
G01*
X41220000Y-14990000D02*
X7770000Y-14990000D01*
D11*
X11934285Y-27904285D02*
X11934285Y-26104285D01*
X11934285Y-26961428D02*
X10905714Y-26961428D01*
X10905714Y-27904285D02*
X10905714Y-26104285D01*
X23862857Y-27919175D02*
X24720000Y-27919175D01*
X24720000Y-26119175D01*
X38191428Y-26104285D02*
X37762857Y-27904285D01*
X37420000Y-26618571D01*
X37077142Y-27904285D01*
X36648571Y-26104285D01*
D14*
X23670000Y-32911428D02*
X24955714Y-32911428D01*
X24955714Y-30211428D01*
X22770000Y-32911428D02*
X22770000Y-31111428D01*
X22770000Y-30211428D02*
X22898571Y-30340000D01*
X22770000Y-30468571D01*
X22641428Y-30340000D01*
X22770000Y-30211428D01*
X22770000Y-30468571D01*
X21484285Y-32911428D02*
X21484285Y-31111428D01*
X21484285Y-31368571D02*
X21355714Y-31240000D01*
X21098571Y-31111428D01*
X20712857Y-31111428D01*
X20455714Y-31240000D01*
X20327142Y-31497142D01*
X20327142Y-32911428D01*
X20327142Y-31497142D02*
X20198571Y-31240000D01*
X19941428Y-31111428D01*
X19555714Y-31111428D01*
X19298571Y-31240000D01*
X19170000Y-31497142D01*
X19170000Y-32911428D01*
X16855714Y-32782857D02*
X17112857Y-32911428D01*
X17627142Y-32911428D01*
X17884285Y-32782857D01*
X18012857Y-32525714D01*
X18012857Y-31497142D01*
X17884285Y-31240000D01*
X17627142Y-31111428D01*
X17112857Y-31111428D01*
X16855714Y-31240000D01*
X16727142Y-31497142D01*
X16727142Y-31754285D01*
X18012857Y-32011428D01*
X15698571Y-32782857D02*
X15312857Y-32911428D01*
X14670000Y-32911428D01*
X14412857Y-32782857D01*
X14284285Y-32654285D01*
X14155714Y-32397142D01*
X14155714Y-32140000D01*
X14284285Y-31882857D01*
X14412857Y-31754285D01*
X14670000Y-31625714D01*
X15184285Y-31497142D01*
X15441428Y-31368571D01*
X15570000Y-31240000D01*
X15698571Y-30982857D01*
X15698571Y-30725714D01*
X15570000Y-30468571D01*
X15441428Y-30340000D01*
X15184285Y-30211428D01*
X14541428Y-30211428D01*
X14155714Y-30340000D01*
X12998571Y-32911428D02*
X12998571Y-30211428D01*
X12355714Y-30211428D01*
X11970000Y-30340000D01*
X11712857Y-30597142D01*
X11584285Y-30854285D01*
X11455714Y-31368571D01*
X11455714Y-31754285D01*
X11584285Y-32268571D01*
X11712857Y-32525714D01*
X11970000Y-32782857D01*
X12355714Y-32911428D01*
X12998571Y-32911428D01*
X8755714Y-32911428D02*
X9655714Y-31625714D01*
X10298571Y-32911428D02*
X10298571Y-30211428D01*
X9270000Y-30211428D01*
X9012857Y-30340000D01*
X8884285Y-30468571D01*
X8755714Y-30725714D01*
X8755714Y-31111428D01*
X8884285Y-31368571D01*
X9012857Y-31497142D01*
X9270000Y-31625714D01*
X10298571Y-31625714D01*
D15*
G36*
X31115957Y-29811803D02*
X31152519Y-29800339D01*
X31193131Y-29773087D01*
X31243568Y-29723382D01*
X31309601Y-29644559D01*
X31397003Y-29529953D01*
X31511546Y-29372899D01*
X31659005Y-29166732D01*
X31753381Y-29034000D01*
X31901494Y-28824601D01*
X32034803Y-28634391D01*
X32147766Y-28471415D01*
X32234847Y-28343718D01*
X32290505Y-28259345D01*
X32309230Y-28226643D01*
X32293027Y-28198978D01*
X32237141Y-28229355D01*
X32140790Y-28318314D01*
X32071192Y-28391408D01*
X31896978Y-28580519D01*
X31757731Y-28734222D01*
X31638508Y-28869793D01*
X31524369Y-29004512D01*
X31400375Y-29155656D01*
X31265232Y-29323469D01*
X31148321Y-29472737D01*
X31051011Y-29603491D01*
X30981030Y-29704825D01*
X30946107Y-29765831D01*
X30943823Y-29777041D01*
X30984691Y-29802225D01*
X31067791Y-29814021D01*
X31077674Y-29814143D01*
X31115957Y-29811803D01*
X31115957Y-29811803D01*
G37*
X31115957Y-29811803D02*
X31152519Y-29800339D01*
X31193131Y-29773087D01*
X31243568Y-29723382D01*
X31309601Y-29644559D01*
X31397003Y-29529953D01*
X31511546Y-29372899D01*
X31659005Y-29166732D01*
X31753381Y-29034000D01*
X31901494Y-28824601D01*
X32034803Y-28634391D01*
X32147766Y-28471415D01*
X32234847Y-28343718D01*
X32290505Y-28259345D01*
X32309230Y-28226643D01*
X32293027Y-28198978D01*
X32237141Y-28229355D01*
X32140790Y-28318314D01*
X32071192Y-28391408D01*
X31896978Y-28580519D01*
X31757731Y-28734222D01*
X31638508Y-28869793D01*
X31524369Y-29004512D01*
X31400375Y-29155656D01*
X31265232Y-29323469D01*
X31148321Y-29472737D01*
X31051011Y-29603491D01*
X30981030Y-29704825D01*
X30946107Y-29765831D01*
X30943823Y-29777041D01*
X30984691Y-29802225D01*
X31067791Y-29814021D01*
X31077674Y-29814143D01*
X31115957Y-29811803D01*
G36*
X27755172Y-34349694D02*
X27827384Y-34282919D01*
X27935945Y-34162521D01*
X27996146Y-34091859D01*
X28099211Y-33969805D01*
X28187202Y-33866189D01*
X28247972Y-33795287D01*
X28266340Y-33774359D01*
X28300475Y-33734224D01*
X28372683Y-33647588D01*
X28475009Y-33524054D01*
X28599495Y-33373228D01*
X28736425Y-33206857D01*
X28892094Y-33019781D01*
X29050581Y-32833377D01*
X29199016Y-32662500D01*
X29324530Y-32522006D01*
X29396514Y-32444857D01*
X29504962Y-32333779D01*
X29577087Y-32267379D01*
X29626785Y-32237947D01*
X29667954Y-32237775D01*
X29714490Y-32259153D01*
X29722897Y-32263800D01*
X29820329Y-32341291D01*
X29897679Y-32459770D01*
X29960506Y-32630244D01*
X30007073Y-32826382D01*
X30054191Y-33060134D01*
X30090038Y-33232144D01*
X30117402Y-33351868D01*
X30139069Y-33428762D01*
X30157828Y-33472280D01*
X30176466Y-33491877D01*
X30197769Y-33497010D01*
X30204807Y-33497143D01*
X30233057Y-33485044D01*
X30255580Y-33441138D01*
X30275379Y-33354012D01*
X30295457Y-33212254D01*
X30307869Y-33105400D01*
X30326189Y-32927522D01*
X30340769Y-32761043D01*
X30349748Y-32628659D01*
X30351706Y-32570185D01*
X30369496Y-32411541D01*
X30416577Y-32219854D01*
X30484279Y-32023938D01*
X30563934Y-31852602D01*
X30571806Y-31838655D01*
X30621120Y-31734665D01*
X30631278Y-31669628D01*
X30603943Y-31651943D01*
X30542151Y-31688844D01*
X30503678Y-31716945D01*
X30443660Y-31752034D01*
X30351743Y-31799373D01*
X30217576Y-31864224D01*
X30030805Y-31951847D01*
X29959380Y-31985026D01*
X29875765Y-32007455D01*
X29753452Y-32022362D01*
X29675088Y-32025689D01*
X29551891Y-32021922D01*
X29473706Y-32001518D01*
X29413346Y-31955181D01*
X29388396Y-31927642D01*
X29321383Y-31822326D01*
X29279922Y-31707990D01*
X29279655Y-31706593D01*
X29286234Y-31568693D01*
X29348774Y-31386959D01*
X29466466Y-31162759D01*
X29638500Y-30897464D01*
X29864064Y-30592443D01*
X30140850Y-30250850D01*
X30252211Y-30109019D01*
X30317021Y-30004949D01*
X30331882Y-29944140D01*
X30331288Y-29942422D01*
X30312360Y-29875342D01*
X30288945Y-29767586D01*
X30277255Y-29705285D01*
X30259001Y-29609920D01*
X30236478Y-29511412D01*
X30205228Y-29392727D01*
X30160797Y-29236833D01*
X30107007Y-29054507D01*
X30065442Y-28965250D01*
X30016329Y-28931313D01*
X29971017Y-28960480D01*
X29970681Y-28961019D01*
X29959599Y-29009958D01*
X29945979Y-29117145D01*
X29931311Y-29268368D01*
X29917083Y-29449416D01*
X29912541Y-29516292D01*
X29887831Y-29814708D01*
X29855053Y-30052042D01*
X29811185Y-30239610D01*
X29753206Y-30388725D01*
X29678094Y-30510703D01*
X29632130Y-30566202D01*
X29550324Y-30651693D01*
X29470316Y-30719428D01*
X29382079Y-30772031D01*
X29275586Y-30812125D01*
X29140810Y-30842334D01*
X28967724Y-30865282D01*
X28746301Y-30883592D01*
X28466515Y-30899887D01*
X28330896Y-30906678D01*
X28142554Y-30917520D01*
X27978784Y-30930071D01*
X27853957Y-30942997D01*
X27782445Y-30954961D01*
X27772891Y-30958535D01*
X27745433Y-31000468D01*
X27774762Y-31040967D01*
X27846467Y-31064541D01*
X27872860Y-31066000D01*
X28004312Y-31079364D01*
X28171882Y-31115273D01*
X28356577Y-31167455D01*
X28539403Y-31229637D01*
X28701367Y-31295546D01*
X28823477Y-31358909D01*
X28873069Y-31396344D01*
X28937101Y-31466602D01*
X28954765Y-31517974D01*
X28933417Y-31580366D01*
X28923264Y-31600381D01*
X28845868Y-31704987D01*
X28707260Y-31836838D01*
X28506069Y-31997094D01*
X28240922Y-32186912D01*
X28174227Y-32232512D01*
X28001436Y-32347910D01*
X27800284Y-32479226D01*
X27586088Y-32616757D01*
X27374164Y-32750801D01*
X27179828Y-32871653D01*
X27018397Y-32969612D01*
X26923955Y-33024571D01*
X26787267Y-33103554D01*
X26703796Y-33158605D01*
X26661989Y-33198526D01*
X26650292Y-33232116D01*
X26650286Y-33233012D01*
X26679725Y-33231419D01*
X26768467Y-33197177D01*
X26917143Y-33129975D01*
X27126386Y-33029506D01*
X27396829Y-32895461D01*
X27729104Y-32727529D01*
X28123845Y-32525403D01*
X28548711Y-32305874D01*
X28708284Y-32226595D01*
X28817576Y-32181668D01*
X28887990Y-32167218D01*
X28927552Y-32177067D01*
X28983188Y-32225402D01*
X28998142Y-32249427D01*
X28993477Y-32274066D01*
X28969531Y-32325533D01*
X28923891Y-32407684D01*
X28854141Y-32524374D01*
X28757866Y-32679457D01*
X28632653Y-32876790D01*
X28476085Y-33120228D01*
X28285748Y-33413625D01*
X28059228Y-33760836D01*
X27878225Y-34037385D01*
X27799562Y-34160779D01*
X27739105Y-34261953D01*
X27706061Y-34325219D01*
X27702571Y-34336742D01*
X27715004Y-34366437D01*
X27755172Y-34349694D01*
X27755172Y-34349694D01*
G37*
X27755172Y-34349694D02*
X27827384Y-34282919D01*
X27935945Y-34162521D01*
X27996146Y-34091859D01*
X28099211Y-33969805D01*
X28187202Y-33866189D01*
X28247972Y-33795287D01*
X28266340Y-33774359D01*
X28300475Y-33734224D01*
X28372683Y-33647588D01*
X28475009Y-33524054D01*
X28599495Y-33373228D01*
X28736425Y-33206857D01*
X28892094Y-33019781D01*
X29050581Y-32833377D01*
X29199016Y-32662500D01*
X29324530Y-32522006D01*
X29396514Y-32444857D01*
X29504962Y-32333779D01*
X29577087Y-32267379D01*
X29626785Y-32237947D01*
X29667954Y-32237775D01*
X29714490Y-32259153D01*
X29722897Y-32263800D01*
X29820329Y-32341291D01*
X29897679Y-32459770D01*
X29960506Y-32630244D01*
X30007073Y-32826382D01*
X30054191Y-33060134D01*
X30090038Y-33232144D01*
X30117402Y-33351868D01*
X30139069Y-33428762D01*
X30157828Y-33472280D01*
X30176466Y-33491877D01*
X30197769Y-33497010D01*
X30204807Y-33497143D01*
X30233057Y-33485044D01*
X30255580Y-33441138D01*
X30275379Y-33354012D01*
X30295457Y-33212254D01*
X30307869Y-33105400D01*
X30326189Y-32927522D01*
X30340769Y-32761043D01*
X30349748Y-32628659D01*
X30351706Y-32570185D01*
X30369496Y-32411541D01*
X30416577Y-32219854D01*
X30484279Y-32023938D01*
X30563934Y-31852602D01*
X30571806Y-31838655D01*
X30621120Y-31734665D01*
X30631278Y-31669628D01*
X30603943Y-31651943D01*
X30542151Y-31688844D01*
X30503678Y-31716945D01*
X30443660Y-31752034D01*
X30351743Y-31799373D01*
X30217576Y-31864224D01*
X30030805Y-31951847D01*
X29959380Y-31985026D01*
X29875765Y-32007455D01*
X29753452Y-32022362D01*
X29675088Y-32025689D01*
X29551891Y-32021922D01*
X29473706Y-32001518D01*
X29413346Y-31955181D01*
X29388396Y-31927642D01*
X29321383Y-31822326D01*
X29279922Y-31707990D01*
X29279655Y-31706593D01*
X29286234Y-31568693D01*
X29348774Y-31386959D01*
X29466466Y-31162759D01*
X29638500Y-30897464D01*
X29864064Y-30592443D01*
X30140850Y-30250850D01*
X30252211Y-30109019D01*
X30317021Y-30004949D01*
X30331882Y-29944140D01*
X30331288Y-29942422D01*
X30312360Y-29875342D01*
X30288945Y-29767586D01*
X30277255Y-29705285D01*
X30259001Y-29609920D01*
X30236478Y-29511412D01*
X30205228Y-29392727D01*
X30160797Y-29236833D01*
X30107007Y-29054507D01*
X30065442Y-28965250D01*
X30016329Y-28931313D01*
X29971017Y-28960480D01*
X29970681Y-28961019D01*
X29959599Y-29009958D01*
X29945979Y-29117145D01*
X29931311Y-29268368D01*
X29917083Y-29449416D01*
X29912541Y-29516292D01*
X29887831Y-29814708D01*
X29855053Y-30052042D01*
X29811185Y-30239610D01*
X29753206Y-30388725D01*
X29678094Y-30510703D01*
X29632130Y-30566202D01*
X29550324Y-30651693D01*
X29470316Y-30719428D01*
X29382079Y-30772031D01*
X29275586Y-30812125D01*
X29140810Y-30842334D01*
X28967724Y-30865282D01*
X28746301Y-30883592D01*
X28466515Y-30899887D01*
X28330896Y-30906678D01*
X28142554Y-30917520D01*
X27978784Y-30930071D01*
X27853957Y-30942997D01*
X27782445Y-30954961D01*
X27772891Y-30958535D01*
X27745433Y-31000468D01*
X27774762Y-31040967D01*
X27846467Y-31064541D01*
X27872860Y-31066000D01*
X28004312Y-31079364D01*
X28171882Y-31115273D01*
X28356577Y-31167455D01*
X28539403Y-31229637D01*
X28701367Y-31295546D01*
X28823477Y-31358909D01*
X28873069Y-31396344D01*
X28937101Y-31466602D01*
X28954765Y-31517974D01*
X28933417Y-31580366D01*
X28923264Y-31600381D01*
X28845868Y-31704987D01*
X28707260Y-31836838D01*
X28506069Y-31997094D01*
X28240922Y-32186912D01*
X28174227Y-32232512D01*
X28001436Y-32347910D01*
X27800284Y-32479226D01*
X27586088Y-32616757D01*
X27374164Y-32750801D01*
X27179828Y-32871653D01*
X27018397Y-32969612D01*
X26923955Y-33024571D01*
X26787267Y-33103554D01*
X26703796Y-33158605D01*
X26661989Y-33198526D01*
X26650292Y-33232116D01*
X26650286Y-33233012D01*
X26679725Y-33231419D01*
X26768467Y-33197177D01*
X26917143Y-33129975D01*
X27126386Y-33029506D01*
X27396829Y-32895461D01*
X27729104Y-32727529D01*
X28123845Y-32525403D01*
X28548711Y-32305874D01*
X28708284Y-32226595D01*
X28817576Y-32181668D01*
X28887990Y-32167218D01*
X28927552Y-32177067D01*
X28983188Y-32225402D01*
X28998142Y-32249427D01*
X28993477Y-32274066D01*
X28969531Y-32325533D01*
X28923891Y-32407684D01*
X28854141Y-32524374D01*
X28757866Y-32679457D01*
X28632653Y-32876790D01*
X28476085Y-33120228D01*
X28285748Y-33413625D01*
X28059228Y-33760836D01*
X27878225Y-34037385D01*
X27799562Y-34160779D01*
X27739105Y-34261953D01*
X27706061Y-34325219D01*
X27702571Y-34336742D01*
X27715004Y-34366437D01*
X27755172Y-34349694D01*
G36*
X31420785Y-30476541D02*
X31528718Y-30432415D01*
X31693376Y-30348605D01*
X31721346Y-30333570D01*
X31889914Y-30238669D01*
X32078867Y-30125924D01*
X32278649Y-30001740D01*
X32479702Y-29872520D01*
X32672469Y-29744669D01*
X32847394Y-29624591D01*
X32994919Y-29518692D01*
X33105487Y-29433376D01*
X33169542Y-29375048D01*
X33181714Y-29354912D01*
X33171720Y-29333335D01*
X33136309Y-29332355D01*
X33067338Y-29355089D01*
X32956665Y-29404652D01*
X32796148Y-29484162D01*
X32655571Y-29556303D01*
X32333983Y-29725298D01*
X32071631Y-29869547D01*
X31861407Y-29993703D01*
X31696198Y-30102421D01*
X31568894Y-30200356D01*
X31472384Y-30292164D01*
X31404777Y-30375079D01*
X31362069Y-30447446D01*
X31366320Y-30481409D01*
X31420785Y-30476541D01*
X31420785Y-30476541D01*
G37*
X31420785Y-30476541D02*
X31528718Y-30432415D01*
X31693376Y-30348605D01*
X31721346Y-30333570D01*
X31889914Y-30238669D01*
X32078867Y-30125924D01*
X32278649Y-30001740D01*
X32479702Y-29872520D01*
X32672469Y-29744669D01*
X32847394Y-29624591D01*
X32994919Y-29518692D01*
X33105487Y-29433376D01*
X33169542Y-29375048D01*
X33181714Y-29354912D01*
X33171720Y-29333335D01*
X33136309Y-29332355D01*
X33067338Y-29355089D01*
X32956665Y-29404652D01*
X32796148Y-29484162D01*
X32655571Y-29556303D01*
X32333983Y-29725298D01*
X32071631Y-29869547D01*
X31861407Y-29993703D01*
X31696198Y-30102421D01*
X31568894Y-30200356D01*
X31472384Y-30292164D01*
X31404777Y-30375079D01*
X31362069Y-30447446D01*
X31366320Y-30481409D01*
X31420785Y-30476541D01*
G36*
X30810127Y-31596382D02*
X30882546Y-31585702D01*
X31011529Y-31572481D01*
X31181176Y-31558132D01*
X31375588Y-31544070D01*
X31458143Y-31538753D01*
X31788250Y-31517392D01*
X32051246Y-31498267D01*
X32252535Y-31480816D01*
X32397524Y-31464481D01*
X32491618Y-31448699D01*
X32540223Y-31432909D01*
X32548722Y-31425609D01*
X32532294Y-31396998D01*
X32466555Y-31371996D01*
X32356683Y-31344462D01*
X32213800Y-31304739D01*
X32057226Y-31258690D01*
X31906277Y-31212173D01*
X31780272Y-31171050D01*
X31698528Y-31141181D01*
X31684450Y-31134735D01*
X31614770Y-31112858D01*
X31500855Y-31091156D01*
X31401409Y-31078176D01*
X31182347Y-31055280D01*
X30988377Y-31255543D01*
X30887921Y-31363983D01*
X30803926Y-31463156D01*
X30753106Y-31533221D01*
X30750402Y-31538030D01*
X30725092Y-31594533D01*
X30745600Y-31608591D01*
X30810127Y-31596382D01*
X30810127Y-31596382D01*
G37*
X30810127Y-31596382D02*
X30882546Y-31585702D01*
X31011529Y-31572481D01*
X31181176Y-31558132D01*
X31375588Y-31544070D01*
X31458143Y-31538753D01*
X31788250Y-31517392D01*
X32051246Y-31498267D01*
X32252535Y-31480816D01*
X32397524Y-31464481D01*
X32491618Y-31448699D01*
X32540223Y-31432909D01*
X32548722Y-31425609D01*
X32532294Y-31396998D01*
X32466555Y-31371996D01*
X32356683Y-31344462D01*
X32213800Y-31304739D01*
X32057226Y-31258690D01*
X31906277Y-31212173D01*
X31780272Y-31171050D01*
X31698528Y-31141181D01*
X31684450Y-31134735D01*
X31614770Y-31112858D01*
X31500855Y-31091156D01*
X31401409Y-31078176D01*
X31182347Y-31055280D01*
X30988377Y-31255543D01*
X30887921Y-31363983D01*
X30803926Y-31463156D01*
X30753106Y-31533221D01*
X30750402Y-31538030D01*
X30725092Y-31594533D01*
X30745600Y-31608591D01*
X30810127Y-31596382D01*
%LPC*%
D16*
X73750000Y-3980000D02*
G75*
G03X73750000Y-3980000I-1800000J0D01*
G01*
X73730000Y-31060000D02*
G75*
G03X73730000Y-31060000I-1800000J0D01*
G01*
X5740000Y-31030000D02*
G75*
G03X5740000Y-31030000I-1800000J0D01*
G01*
X5750000Y-3990000D02*
G75*
G03X5750000Y-3990000I-1800000J0D01*
G01*
D17*
X67080000Y-20790000D02*
G75*
G03X67080000Y-20790000I-2660000J0D01*
G01*
D18*
X67350000Y-18950000D02*
X67350000Y-22640000D01*
D19*
X68250000Y-20790000D02*
G75*
G03X68250000Y-20790000I-3830000J0D01*
G01*
D17*
X54080000Y-20790000D02*
G75*
G03X54080000Y-20790000I-2660000J0D01*
G01*
D18*
X54350000Y-18950000D02*
X54350000Y-22640000D01*
D19*
X55250000Y-20790000D02*
G75*
G03X55250000Y-20790000I-3830000J0D01*
G01*
D17*
X67080000Y-6790000D02*
G75*
G03X67080000Y-6790000I-2660000J0D01*
G01*
D18*
X67350000Y-4950000D02*
X67350000Y-8640000D01*
D19*
X68250000Y-6790000D02*
G75*
G03X68250000Y-6790000I-3830000J0D01*
G01*
D17*
X54080000Y-6790000D02*
G75*
G03X54080000Y-6790000I-2660000J0D01*
G01*
D18*
X54350000Y-4950000D02*
X54350000Y-8640000D01*
D19*
X55250000Y-6790000D02*
G75*
G03X55250000Y-6790000I-3830000J0D01*
G01*
D17*
X40080000Y-20790000D02*
G75*
G03X40080000Y-20790000I-2660000J0D01*
G01*
D18*
X40350000Y-18950000D02*
X40350000Y-22640000D01*
D19*
X41250000Y-20790000D02*
G75*
G03X41250000Y-20790000I-3830000J0D01*
G01*
D17*
X27080000Y-20790000D02*
G75*
G03X27080000Y-20790000I-2660000J0D01*
G01*
D18*
X27350000Y-18950000D02*
X27350000Y-22640000D01*
D19*
X28250000Y-20790000D02*
G75*
G03X28250000Y-20790000I-3830000J0D01*
G01*
D17*
X14080000Y-20790000D02*
G75*
G03X14080000Y-20790000I-2660000J0D01*
G01*
D18*
X14350000Y-18950000D02*
X14350000Y-22640000D01*
D19*
X15250000Y-20790000D02*
G75*
G03X15250000Y-20790000I-3830000J0D01*
G01*
D17*
X40080000Y-6790000D02*
G75*
G03X40080000Y-6790000I-2660000J0D01*
G01*
D18*
X40350000Y-4950000D02*
X40350000Y-8640000D01*
D19*
X41250000Y-6790000D02*
G75*
G03X41250000Y-6790000I-3830000J0D01*
G01*
D17*
X27080000Y-6790000D02*
G75*
G03X27080000Y-6790000I-2660000J0D01*
G01*
D18*
X27350000Y-4950000D02*
X27350000Y-8640000D01*
D19*
X28250000Y-6790000D02*
G75*
G03X28250000Y-6790000I-3830000J0D01*
G01*
D17*
X14080000Y-6790000D02*
G75*
G03X14080000Y-6790000I-2660000J0D01*
G01*
D18*
X14350000Y-4950000D02*
X14350000Y-8640000D01*
D19*
X15250000Y-6790000D02*
G75*
G03X15250000Y-6790000I-3830000J0D01*
G01*
M02*
