G04 #@! TF.FileFunction,Copper,L2,Bot,Signal*
%FSLAX46Y46*%
G04 Gerber Fmt 4.6, Leading zero omitted, Abs format (unit mm)*
G04 Created by KiCad (PCBNEW (2016-09-17 revision 679eef1)-makepkg) date 09/24/16 16:36:29*
%MOMM*%
%LPD*%
G01*
G04 APERTURE LIST*
%ADD10C,0.150000*%
%ADD11C,0.800000*%
%ADD12C,0.254000*%
G04 APERTURE END LIST*
D10*
D11*
X61085802Y-22715000D03*
X62495000Y-24124198D03*
X64420000Y-24640000D03*
X66345000Y-24124198D03*
X67754198Y-22715000D03*
X68270000Y-20790000D03*
X67754198Y-18865000D03*
X66345000Y-17455802D03*
X64420000Y-16940000D03*
X62495000Y-17455802D03*
X61085802Y-18865000D03*
X60570000Y-20790000D03*
X48085802Y-22715000D03*
X49495000Y-24124198D03*
X51420000Y-24640000D03*
X53345000Y-24124198D03*
X54754198Y-22715000D03*
X55270000Y-20790000D03*
X54754198Y-18865000D03*
X53345000Y-17455802D03*
X51420000Y-16940000D03*
X49495000Y-17455802D03*
X48085802Y-18865000D03*
X47570000Y-20790000D03*
X61085802Y-8715000D03*
X62495000Y-10124198D03*
X64420000Y-10640000D03*
X66345000Y-10124198D03*
X67754198Y-8715000D03*
X68270000Y-6790000D03*
X67754198Y-4865000D03*
X66345000Y-3455802D03*
X64420000Y-2940000D03*
X62495000Y-3455802D03*
X61085802Y-4865000D03*
X60570000Y-6790000D03*
X48085802Y-8715000D03*
X49495000Y-10124198D03*
X51420000Y-10640000D03*
X53345000Y-10124198D03*
X54754198Y-8715000D03*
X55270000Y-6790000D03*
X54754198Y-4865000D03*
X53345000Y-3455802D03*
X51420000Y-2940000D03*
X49495000Y-3455802D03*
X48085802Y-4865000D03*
X47570000Y-6790000D03*
X34085802Y-22715000D03*
X35495000Y-24124198D03*
X37420000Y-24640000D03*
X39345000Y-24124198D03*
X40754198Y-22715000D03*
X41270000Y-20790000D03*
X40754198Y-18865000D03*
X39345000Y-17455802D03*
X37420000Y-16940000D03*
X35495000Y-17455802D03*
X34085802Y-18865000D03*
X33570000Y-20790000D03*
X21085802Y-22715000D03*
X22495000Y-24124198D03*
X24420000Y-24640000D03*
X26345000Y-24124198D03*
X27754198Y-22715000D03*
X28270000Y-20790000D03*
X27754198Y-18865000D03*
X26345000Y-17455802D03*
X24420000Y-16940000D03*
X22495000Y-17455802D03*
X21085802Y-18865000D03*
X20570000Y-20790000D03*
X8085802Y-22715000D03*
X9495000Y-24124198D03*
X11420000Y-24640000D03*
X13345000Y-24124198D03*
X14754198Y-22715000D03*
X15270000Y-20790000D03*
X14754198Y-18865000D03*
X13345000Y-17455802D03*
X11420000Y-16940000D03*
X9495000Y-17455802D03*
X8085802Y-18865000D03*
X7570000Y-20790000D03*
X34085802Y-8715000D03*
X35495000Y-10124198D03*
X37420000Y-10640000D03*
X39345000Y-10124198D03*
X40754198Y-8715000D03*
X41270000Y-6790000D03*
X40754198Y-4865000D03*
X39345000Y-3455802D03*
X37420000Y-2940000D03*
X35495000Y-3455802D03*
X34085802Y-4865000D03*
X33570000Y-6790000D03*
X21085802Y-8715000D03*
X22495000Y-10124198D03*
X24420000Y-10640000D03*
X26345000Y-10124198D03*
X27754198Y-8715000D03*
X28270000Y-6790000D03*
X27754198Y-4865000D03*
X26345000Y-3455802D03*
X24420000Y-2940000D03*
X22495000Y-3455802D03*
X21085802Y-4865000D03*
X20570000Y-6790000D03*
X8085802Y-8715000D03*
X9495000Y-10124198D03*
X11420000Y-10640000D03*
X13345000Y-10124198D03*
X14754198Y-8715000D03*
X15270000Y-6790000D03*
X14754198Y-4865000D03*
X13345000Y-3455802D03*
X11420000Y-2940000D03*
X9495000Y-3455802D03*
X8085802Y-4865000D03*
X7570000Y-6790000D03*
D12*
G36*
X74701912Y-281292D02*
X75305443Y-684557D01*
X75708708Y-1288088D01*
X75853000Y-2013495D01*
X75853000Y-9706505D01*
X75838112Y-9781352D01*
X75803361Y-9833360D01*
X75751352Y-9868112D01*
X75676505Y-9883000D01*
X74999999Y-9883000D01*
X74947571Y-9893429D01*
X74903125Y-9923126D01*
X74873428Y-9967572D01*
X74862999Y-10020000D01*
X74863000Y-24860000D01*
X74873429Y-24912428D01*
X74903126Y-24956874D01*
X74947572Y-24986571D01*
X75000000Y-24997000D01*
X75676505Y-24997000D01*
X75751352Y-25011888D01*
X75803361Y-25046640D01*
X75838112Y-25098648D01*
X75853000Y-25173495D01*
X75853000Y-32486505D01*
X75671408Y-33399429D01*
X75161926Y-34161923D01*
X74399429Y-34671408D01*
X73486495Y-34853002D01*
X2013486Y-34862998D01*
X1288088Y-34718708D01*
X684557Y-34315443D01*
X281292Y-33711912D01*
X137000Y-32986505D01*
X137000Y-31035000D01*
X2408000Y-31035000D01*
X2524997Y-31623184D01*
X2858177Y-32121823D01*
X3356816Y-32455003D01*
X3945000Y-32572000D01*
X4533184Y-32455003D01*
X5031823Y-32121823D01*
X5365003Y-31623184D01*
X5477027Y-31060000D01*
X70383000Y-31060000D01*
X70499997Y-31648184D01*
X70833177Y-32146823D01*
X71331816Y-32480003D01*
X71920000Y-32597000D01*
X72508184Y-32480003D01*
X73006823Y-32146823D01*
X73340003Y-31648184D01*
X73457000Y-31060000D01*
X73340003Y-30471816D01*
X73006823Y-29973177D01*
X72508184Y-29639997D01*
X71920000Y-29523000D01*
X71331816Y-29639997D01*
X70833177Y-29973177D01*
X70499997Y-30471816D01*
X70383000Y-31060000D01*
X5477027Y-31060000D01*
X5482000Y-31035000D01*
X5365003Y-30446816D01*
X5031823Y-29948177D01*
X4533184Y-29614997D01*
X3945000Y-29498000D01*
X3356816Y-29614997D01*
X2858177Y-29948177D01*
X2524997Y-30446816D01*
X2408000Y-31035000D01*
X137000Y-31035000D01*
X137000Y-25273495D01*
X151888Y-25198648D01*
X186640Y-25146639D01*
X238648Y-25111888D01*
X313495Y-25097000D01*
X990000Y-25097000D01*
X1042428Y-25086571D01*
X1086874Y-25056874D01*
X1116571Y-25012428D01*
X1127000Y-24960000D01*
X1127000Y-21419117D01*
X8093948Y-21419117D01*
X8104297Y-21471561D01*
X8587882Y-22644054D01*
X8593586Y-22652618D01*
X8617513Y-22688545D01*
X9512980Y-23586727D01*
X9539562Y-23604546D01*
X9557381Y-23616492D01*
X10728404Y-24103624D01*
X10780816Y-24114132D01*
X12049117Y-24116052D01*
X12101561Y-24105703D01*
X13274054Y-23622118D01*
X13291839Y-23610272D01*
X13318545Y-23592487D01*
X14216727Y-22697020D01*
X14216785Y-22696933D01*
X14216874Y-22696874D01*
X14231838Y-22674477D01*
X14246492Y-22652618D01*
X14246513Y-22652515D01*
X14246571Y-22652428D01*
X14251748Y-22626403D01*
X14257000Y-22600207D01*
X14256979Y-22600103D01*
X14257000Y-22600000D01*
X14257000Y-21419117D01*
X21093948Y-21419117D01*
X21104297Y-21471561D01*
X21587882Y-22644054D01*
X21593586Y-22652618D01*
X21617513Y-22688545D01*
X22512980Y-23586727D01*
X22539562Y-23604546D01*
X22557381Y-23616492D01*
X23728404Y-24103624D01*
X23780816Y-24114132D01*
X25049117Y-24116052D01*
X25101561Y-24105703D01*
X26274054Y-23622118D01*
X26291839Y-23610272D01*
X26318545Y-23592487D01*
X27216727Y-22697020D01*
X27216785Y-22696933D01*
X27216874Y-22696874D01*
X27231838Y-22674477D01*
X27246492Y-22652618D01*
X27246513Y-22652515D01*
X27246571Y-22652428D01*
X27251748Y-22626403D01*
X27257000Y-22600207D01*
X27256979Y-22600103D01*
X27257000Y-22600000D01*
X27257000Y-21419117D01*
X34093948Y-21419117D01*
X34104297Y-21471561D01*
X34587882Y-22644054D01*
X34593586Y-22652618D01*
X34617513Y-22688545D01*
X35512980Y-23586727D01*
X35539562Y-23604546D01*
X35557381Y-23616492D01*
X36728404Y-24103624D01*
X36780816Y-24114132D01*
X38049117Y-24116052D01*
X38101561Y-24105703D01*
X39274054Y-23622118D01*
X39291839Y-23610272D01*
X39318545Y-23592487D01*
X40216727Y-22697020D01*
X40216785Y-22696933D01*
X40216874Y-22696874D01*
X40231838Y-22674477D01*
X40246492Y-22652618D01*
X40246513Y-22652515D01*
X40246571Y-22652428D01*
X40251748Y-22626403D01*
X40257000Y-22600207D01*
X40256979Y-22600103D01*
X40257000Y-22600000D01*
X40257000Y-21419117D01*
X48093948Y-21419117D01*
X48104297Y-21471561D01*
X48587882Y-22644054D01*
X48593586Y-22652618D01*
X48617513Y-22688545D01*
X49512980Y-23586727D01*
X49539562Y-23604546D01*
X49557381Y-23616492D01*
X50728404Y-24103624D01*
X50780816Y-24114132D01*
X52049117Y-24116052D01*
X52101561Y-24105703D01*
X53274054Y-23622118D01*
X53291839Y-23610272D01*
X53318545Y-23592487D01*
X54216727Y-22697020D01*
X54216785Y-22696933D01*
X54216874Y-22696874D01*
X54231838Y-22674477D01*
X54246492Y-22652618D01*
X54246513Y-22652515D01*
X54246571Y-22652428D01*
X54251748Y-22626403D01*
X54257000Y-22600207D01*
X54256979Y-22600103D01*
X54257000Y-22600000D01*
X54257000Y-21419117D01*
X61093948Y-21419117D01*
X61104297Y-21471561D01*
X61587882Y-22644054D01*
X61593586Y-22652618D01*
X61617513Y-22688545D01*
X62512980Y-23586727D01*
X62539562Y-23604546D01*
X62557381Y-23616492D01*
X63728404Y-24103624D01*
X63780816Y-24114132D01*
X65049117Y-24116052D01*
X65101561Y-24105703D01*
X66274054Y-23622118D01*
X66291839Y-23610272D01*
X66318545Y-23592487D01*
X67216727Y-22697020D01*
X67216785Y-22696933D01*
X67216874Y-22696874D01*
X67231838Y-22674477D01*
X67246492Y-22652618D01*
X67246513Y-22652515D01*
X67246571Y-22652428D01*
X67251748Y-22626403D01*
X67257000Y-22600207D01*
X67256979Y-22600103D01*
X67257000Y-22600000D01*
X67257000Y-18980000D01*
X67246571Y-18927572D01*
X67216874Y-18883126D01*
X66326874Y-17993126D01*
X66304560Y-17978217D01*
X66282619Y-17963508D01*
X65111596Y-17476376D01*
X65059184Y-17465868D01*
X63790883Y-17463948D01*
X63782239Y-17465654D01*
X63738439Y-17474297D01*
X62565946Y-17957882D01*
X62557499Y-17963508D01*
X62521455Y-17987513D01*
X61623273Y-18882980D01*
X61593508Y-18927381D01*
X61106376Y-20098404D01*
X61095868Y-20150816D01*
X61093948Y-21419117D01*
X54257000Y-21419117D01*
X54257000Y-18980000D01*
X54246571Y-18927572D01*
X54216874Y-18883126D01*
X53326874Y-17993126D01*
X53304560Y-17978217D01*
X53282619Y-17963508D01*
X52111596Y-17476376D01*
X52059184Y-17465868D01*
X50790883Y-17463948D01*
X50782239Y-17465654D01*
X50738439Y-17474297D01*
X49565946Y-17957882D01*
X49557499Y-17963508D01*
X49521455Y-17987513D01*
X48623273Y-18882980D01*
X48593508Y-18927381D01*
X48106376Y-20098404D01*
X48095868Y-20150816D01*
X48093948Y-21419117D01*
X40257000Y-21419117D01*
X40257000Y-18980000D01*
X40246571Y-18927572D01*
X40216874Y-18883126D01*
X39326874Y-17993126D01*
X39304560Y-17978217D01*
X39282619Y-17963508D01*
X38111596Y-17476376D01*
X38059184Y-17465868D01*
X36790883Y-17463948D01*
X36782239Y-17465654D01*
X36738439Y-17474297D01*
X35565946Y-17957882D01*
X35557499Y-17963508D01*
X35521455Y-17987513D01*
X34623273Y-18882980D01*
X34593508Y-18927381D01*
X34106376Y-20098404D01*
X34095868Y-20150816D01*
X34093948Y-21419117D01*
X27257000Y-21419117D01*
X27257000Y-18980000D01*
X27246571Y-18927572D01*
X27216874Y-18883126D01*
X26326874Y-17993126D01*
X26304560Y-17978217D01*
X26282619Y-17963508D01*
X25111596Y-17476376D01*
X25059184Y-17465868D01*
X23790883Y-17463948D01*
X23782239Y-17465654D01*
X23738439Y-17474297D01*
X22565946Y-17957882D01*
X22557499Y-17963508D01*
X22521455Y-17987513D01*
X21623273Y-18882980D01*
X21593508Y-18927381D01*
X21106376Y-20098404D01*
X21095868Y-20150816D01*
X21093948Y-21419117D01*
X14257000Y-21419117D01*
X14257000Y-18980000D01*
X14246571Y-18927572D01*
X14216874Y-18883126D01*
X13326874Y-17993126D01*
X13304560Y-17978217D01*
X13282619Y-17963508D01*
X12111596Y-17476376D01*
X12059184Y-17465868D01*
X10790883Y-17463948D01*
X10782239Y-17465654D01*
X10738439Y-17474297D01*
X9565946Y-17957882D01*
X9557499Y-17963508D01*
X9521455Y-17987513D01*
X8623273Y-18882980D01*
X8593508Y-18927381D01*
X8106376Y-20098404D01*
X8095868Y-20150816D01*
X8093948Y-21419117D01*
X1127000Y-21419117D01*
X1127000Y-10120000D01*
X1116571Y-10067572D01*
X1086874Y-10023126D01*
X1042428Y-9993429D01*
X990000Y-9983000D01*
X313495Y-9983000D01*
X238648Y-9968112D01*
X186640Y-9933361D01*
X151888Y-9881352D01*
X137000Y-9806505D01*
X137000Y-7419117D01*
X8093948Y-7419117D01*
X8104297Y-7471561D01*
X8587882Y-8644054D01*
X8593586Y-8652618D01*
X8617513Y-8688545D01*
X9512980Y-9586727D01*
X9539562Y-9604546D01*
X9557381Y-9616492D01*
X10728404Y-10103624D01*
X10780816Y-10114132D01*
X12049117Y-10116052D01*
X12101561Y-10105703D01*
X13274054Y-9622118D01*
X13298121Y-9606089D01*
X13318545Y-9592487D01*
X14216727Y-8697020D01*
X14216785Y-8696933D01*
X14216874Y-8696874D01*
X14231838Y-8674477D01*
X14246492Y-8652618D01*
X14246513Y-8652515D01*
X14246571Y-8652428D01*
X14251748Y-8626403D01*
X14257000Y-8600207D01*
X14256979Y-8600103D01*
X14257000Y-8600000D01*
X14257000Y-7419117D01*
X21093948Y-7419117D01*
X21104297Y-7471561D01*
X21587882Y-8644054D01*
X21593586Y-8652618D01*
X21617513Y-8688545D01*
X22512980Y-9586727D01*
X22539562Y-9604546D01*
X22557381Y-9616492D01*
X23728404Y-10103624D01*
X23780816Y-10114132D01*
X25049117Y-10116052D01*
X25101561Y-10105703D01*
X26274054Y-9622118D01*
X26298121Y-9606089D01*
X26318545Y-9592487D01*
X27216727Y-8697020D01*
X27216785Y-8696933D01*
X27216874Y-8696874D01*
X27231838Y-8674477D01*
X27246492Y-8652618D01*
X27246513Y-8652515D01*
X27246571Y-8652428D01*
X27251748Y-8626403D01*
X27257000Y-8600207D01*
X27256979Y-8600103D01*
X27257000Y-8600000D01*
X27257000Y-7419117D01*
X34093948Y-7419117D01*
X34104297Y-7471561D01*
X34587882Y-8644054D01*
X34593586Y-8652618D01*
X34617513Y-8688545D01*
X35512980Y-9586727D01*
X35539562Y-9604546D01*
X35557381Y-9616492D01*
X36728404Y-10103624D01*
X36780816Y-10114132D01*
X38049117Y-10116052D01*
X38101561Y-10105703D01*
X39274054Y-9622118D01*
X39298121Y-9606089D01*
X39318545Y-9592487D01*
X40216727Y-8697020D01*
X40216785Y-8696933D01*
X40216874Y-8696874D01*
X40231838Y-8674477D01*
X40246492Y-8652618D01*
X40246513Y-8652515D01*
X40246571Y-8652428D01*
X40251748Y-8626403D01*
X40257000Y-8600207D01*
X40256979Y-8600103D01*
X40257000Y-8600000D01*
X40257000Y-7419117D01*
X48093948Y-7419117D01*
X48104297Y-7471561D01*
X48587882Y-8644054D01*
X48593586Y-8652618D01*
X48617513Y-8688545D01*
X49512980Y-9586727D01*
X49539562Y-9604546D01*
X49557381Y-9616492D01*
X50728404Y-10103624D01*
X50780816Y-10114132D01*
X52049117Y-10116052D01*
X52101561Y-10105703D01*
X53274054Y-9622118D01*
X53298121Y-9606089D01*
X53318545Y-9592487D01*
X54216727Y-8697020D01*
X54216785Y-8696933D01*
X54216874Y-8696874D01*
X54231838Y-8674477D01*
X54246492Y-8652618D01*
X54246513Y-8652515D01*
X54246571Y-8652428D01*
X54251748Y-8626403D01*
X54257000Y-8600207D01*
X54256979Y-8600103D01*
X54257000Y-8600000D01*
X54257000Y-7419117D01*
X61093948Y-7419117D01*
X61104297Y-7471561D01*
X61587882Y-8644054D01*
X61593586Y-8652618D01*
X61617513Y-8688545D01*
X62512980Y-9586727D01*
X62539562Y-9604546D01*
X62557381Y-9616492D01*
X63728404Y-10103624D01*
X63780816Y-10114132D01*
X65049117Y-10116052D01*
X65101561Y-10105703D01*
X66274054Y-9622118D01*
X66298121Y-9606089D01*
X66318545Y-9592487D01*
X67216727Y-8697020D01*
X67216785Y-8696933D01*
X67216874Y-8696874D01*
X67231838Y-8674477D01*
X67246492Y-8652618D01*
X67246513Y-8652515D01*
X67246571Y-8652428D01*
X67251748Y-8626403D01*
X67257000Y-8600207D01*
X67256979Y-8600103D01*
X67257000Y-8600000D01*
X67257000Y-4980000D01*
X67246571Y-4927572D01*
X67216874Y-4883126D01*
X66326874Y-3993126D01*
X66314712Y-3985000D01*
X70408000Y-3985000D01*
X70524997Y-4573184D01*
X70858177Y-5071823D01*
X71356816Y-5405003D01*
X71945000Y-5522000D01*
X72533184Y-5405003D01*
X73031823Y-5071823D01*
X73365003Y-4573184D01*
X73482000Y-3985000D01*
X73365003Y-3396816D01*
X73031823Y-2898177D01*
X72533184Y-2564997D01*
X71945000Y-2448000D01*
X71356816Y-2564997D01*
X70858177Y-2898177D01*
X70524997Y-3396816D01*
X70408000Y-3985000D01*
X66314712Y-3985000D01*
X66304560Y-3978217D01*
X66282619Y-3963508D01*
X65111596Y-3476376D01*
X65059184Y-3465868D01*
X63790883Y-3463948D01*
X63782239Y-3465654D01*
X63738439Y-3474297D01*
X62565946Y-3957882D01*
X62557499Y-3963508D01*
X62521455Y-3987513D01*
X61623273Y-4882980D01*
X61593508Y-4927381D01*
X61106376Y-6098404D01*
X61095868Y-6150816D01*
X61093948Y-7419117D01*
X54257000Y-7419117D01*
X54257000Y-4980000D01*
X54246571Y-4927572D01*
X54216874Y-4883126D01*
X53326874Y-3993126D01*
X53304560Y-3978217D01*
X53282619Y-3963508D01*
X52111596Y-3476376D01*
X52059184Y-3465868D01*
X50790883Y-3463948D01*
X50782239Y-3465654D01*
X50738439Y-3474297D01*
X49565946Y-3957882D01*
X49557499Y-3963508D01*
X49521455Y-3987513D01*
X48623273Y-4882980D01*
X48593508Y-4927381D01*
X48106376Y-6098404D01*
X48095868Y-6150816D01*
X48093948Y-7419117D01*
X40257000Y-7419117D01*
X40257000Y-4980000D01*
X40246571Y-4927572D01*
X40216874Y-4883126D01*
X39326874Y-3993126D01*
X39304560Y-3978217D01*
X39282619Y-3963508D01*
X38111596Y-3476376D01*
X38059184Y-3465868D01*
X36790883Y-3463948D01*
X36782239Y-3465654D01*
X36738439Y-3474297D01*
X35565946Y-3957882D01*
X35557499Y-3963508D01*
X35521455Y-3987513D01*
X34623273Y-4882980D01*
X34593508Y-4927381D01*
X34106376Y-6098404D01*
X34095868Y-6150816D01*
X34093948Y-7419117D01*
X27257000Y-7419117D01*
X27257000Y-4980000D01*
X27246571Y-4927572D01*
X27216874Y-4883126D01*
X26326874Y-3993126D01*
X26304560Y-3978217D01*
X26282619Y-3963508D01*
X25111596Y-3476376D01*
X25059184Y-3465868D01*
X23790883Y-3463948D01*
X23782239Y-3465654D01*
X23738439Y-3474297D01*
X22565946Y-3957882D01*
X22557499Y-3963508D01*
X22521455Y-3987513D01*
X21623273Y-4882980D01*
X21593508Y-4927381D01*
X21106376Y-6098404D01*
X21095868Y-6150816D01*
X21093948Y-7419117D01*
X14257000Y-7419117D01*
X14257000Y-4980000D01*
X14246571Y-4927572D01*
X14216874Y-4883126D01*
X13326874Y-3993126D01*
X13304560Y-3978217D01*
X13282619Y-3963508D01*
X12111596Y-3476376D01*
X12059184Y-3465868D01*
X10790883Y-3463948D01*
X10782239Y-3465654D01*
X10738439Y-3474297D01*
X9565946Y-3957882D01*
X9557499Y-3963508D01*
X9521455Y-3987513D01*
X8623273Y-4882980D01*
X8593508Y-4927381D01*
X8106376Y-6098404D01*
X8095868Y-6150816D01*
X8093948Y-7419117D01*
X137000Y-7419117D01*
X137000Y-3985000D01*
X2408000Y-3985000D01*
X2524997Y-4573184D01*
X2858177Y-5071823D01*
X3356816Y-5405003D01*
X3945000Y-5522000D01*
X4533184Y-5405003D01*
X5031823Y-5071823D01*
X5365003Y-4573184D01*
X5482000Y-3985000D01*
X5365003Y-3396816D01*
X5031823Y-2898177D01*
X4533184Y-2564997D01*
X3945000Y-2448000D01*
X3356816Y-2564997D01*
X2858177Y-2898177D01*
X2524997Y-3396816D01*
X2408000Y-3985000D01*
X137000Y-3985000D01*
X137000Y-2013496D01*
X281292Y-1288089D01*
X684557Y-684558D01*
X1288085Y-281293D01*
X2013494Y-137000D01*
X73976505Y-137000D01*
X74701912Y-281292D01*
X74701912Y-281292D01*
G37*
X74701912Y-281292D02*
X75305443Y-684557D01*
X75708708Y-1288088D01*
X75853000Y-2013495D01*
X75853000Y-9706505D01*
X75838112Y-9781352D01*
X75803361Y-9833360D01*
X75751352Y-9868112D01*
X75676505Y-9883000D01*
X74999999Y-9883000D01*
X74947571Y-9893429D01*
X74903125Y-9923126D01*
X74873428Y-9967572D01*
X74862999Y-10020000D01*
X74863000Y-24860000D01*
X74873429Y-24912428D01*
X74903126Y-24956874D01*
X74947572Y-24986571D01*
X75000000Y-24997000D01*
X75676505Y-24997000D01*
X75751352Y-25011888D01*
X75803361Y-25046640D01*
X75838112Y-25098648D01*
X75853000Y-25173495D01*
X75853000Y-32486505D01*
X75671408Y-33399429D01*
X75161926Y-34161923D01*
X74399429Y-34671408D01*
X73486495Y-34853002D01*
X2013486Y-34862998D01*
X1288088Y-34718708D01*
X684557Y-34315443D01*
X281292Y-33711912D01*
X137000Y-32986505D01*
X137000Y-31035000D01*
X2408000Y-31035000D01*
X2524997Y-31623184D01*
X2858177Y-32121823D01*
X3356816Y-32455003D01*
X3945000Y-32572000D01*
X4533184Y-32455003D01*
X5031823Y-32121823D01*
X5365003Y-31623184D01*
X5477027Y-31060000D01*
X70383000Y-31060000D01*
X70499997Y-31648184D01*
X70833177Y-32146823D01*
X71331816Y-32480003D01*
X71920000Y-32597000D01*
X72508184Y-32480003D01*
X73006823Y-32146823D01*
X73340003Y-31648184D01*
X73457000Y-31060000D01*
X73340003Y-30471816D01*
X73006823Y-29973177D01*
X72508184Y-29639997D01*
X71920000Y-29523000D01*
X71331816Y-29639997D01*
X70833177Y-29973177D01*
X70499997Y-30471816D01*
X70383000Y-31060000D01*
X5477027Y-31060000D01*
X5482000Y-31035000D01*
X5365003Y-30446816D01*
X5031823Y-29948177D01*
X4533184Y-29614997D01*
X3945000Y-29498000D01*
X3356816Y-29614997D01*
X2858177Y-29948177D01*
X2524997Y-30446816D01*
X2408000Y-31035000D01*
X137000Y-31035000D01*
X137000Y-25273495D01*
X151888Y-25198648D01*
X186640Y-25146639D01*
X238648Y-25111888D01*
X313495Y-25097000D01*
X990000Y-25097000D01*
X1042428Y-25086571D01*
X1086874Y-25056874D01*
X1116571Y-25012428D01*
X1127000Y-24960000D01*
X1127000Y-21419117D01*
X8093948Y-21419117D01*
X8104297Y-21471561D01*
X8587882Y-22644054D01*
X8593586Y-22652618D01*
X8617513Y-22688545D01*
X9512980Y-23586727D01*
X9539562Y-23604546D01*
X9557381Y-23616492D01*
X10728404Y-24103624D01*
X10780816Y-24114132D01*
X12049117Y-24116052D01*
X12101561Y-24105703D01*
X13274054Y-23622118D01*
X13291839Y-23610272D01*
X13318545Y-23592487D01*
X14216727Y-22697020D01*
X14216785Y-22696933D01*
X14216874Y-22696874D01*
X14231838Y-22674477D01*
X14246492Y-22652618D01*
X14246513Y-22652515D01*
X14246571Y-22652428D01*
X14251748Y-22626403D01*
X14257000Y-22600207D01*
X14256979Y-22600103D01*
X14257000Y-22600000D01*
X14257000Y-21419117D01*
X21093948Y-21419117D01*
X21104297Y-21471561D01*
X21587882Y-22644054D01*
X21593586Y-22652618D01*
X21617513Y-22688545D01*
X22512980Y-23586727D01*
X22539562Y-23604546D01*
X22557381Y-23616492D01*
X23728404Y-24103624D01*
X23780816Y-24114132D01*
X25049117Y-24116052D01*
X25101561Y-24105703D01*
X26274054Y-23622118D01*
X26291839Y-23610272D01*
X26318545Y-23592487D01*
X27216727Y-22697020D01*
X27216785Y-22696933D01*
X27216874Y-22696874D01*
X27231838Y-22674477D01*
X27246492Y-22652618D01*
X27246513Y-22652515D01*
X27246571Y-22652428D01*
X27251748Y-22626403D01*
X27257000Y-22600207D01*
X27256979Y-22600103D01*
X27257000Y-22600000D01*
X27257000Y-21419117D01*
X34093948Y-21419117D01*
X34104297Y-21471561D01*
X34587882Y-22644054D01*
X34593586Y-22652618D01*
X34617513Y-22688545D01*
X35512980Y-23586727D01*
X35539562Y-23604546D01*
X35557381Y-23616492D01*
X36728404Y-24103624D01*
X36780816Y-24114132D01*
X38049117Y-24116052D01*
X38101561Y-24105703D01*
X39274054Y-23622118D01*
X39291839Y-23610272D01*
X39318545Y-23592487D01*
X40216727Y-22697020D01*
X40216785Y-22696933D01*
X40216874Y-22696874D01*
X40231838Y-22674477D01*
X40246492Y-22652618D01*
X40246513Y-22652515D01*
X40246571Y-22652428D01*
X40251748Y-22626403D01*
X40257000Y-22600207D01*
X40256979Y-22600103D01*
X40257000Y-22600000D01*
X40257000Y-21419117D01*
X48093948Y-21419117D01*
X48104297Y-21471561D01*
X48587882Y-22644054D01*
X48593586Y-22652618D01*
X48617513Y-22688545D01*
X49512980Y-23586727D01*
X49539562Y-23604546D01*
X49557381Y-23616492D01*
X50728404Y-24103624D01*
X50780816Y-24114132D01*
X52049117Y-24116052D01*
X52101561Y-24105703D01*
X53274054Y-23622118D01*
X53291839Y-23610272D01*
X53318545Y-23592487D01*
X54216727Y-22697020D01*
X54216785Y-22696933D01*
X54216874Y-22696874D01*
X54231838Y-22674477D01*
X54246492Y-22652618D01*
X54246513Y-22652515D01*
X54246571Y-22652428D01*
X54251748Y-22626403D01*
X54257000Y-22600207D01*
X54256979Y-22600103D01*
X54257000Y-22600000D01*
X54257000Y-21419117D01*
X61093948Y-21419117D01*
X61104297Y-21471561D01*
X61587882Y-22644054D01*
X61593586Y-22652618D01*
X61617513Y-22688545D01*
X62512980Y-23586727D01*
X62539562Y-23604546D01*
X62557381Y-23616492D01*
X63728404Y-24103624D01*
X63780816Y-24114132D01*
X65049117Y-24116052D01*
X65101561Y-24105703D01*
X66274054Y-23622118D01*
X66291839Y-23610272D01*
X66318545Y-23592487D01*
X67216727Y-22697020D01*
X67216785Y-22696933D01*
X67216874Y-22696874D01*
X67231838Y-22674477D01*
X67246492Y-22652618D01*
X67246513Y-22652515D01*
X67246571Y-22652428D01*
X67251748Y-22626403D01*
X67257000Y-22600207D01*
X67256979Y-22600103D01*
X67257000Y-22600000D01*
X67257000Y-18980000D01*
X67246571Y-18927572D01*
X67216874Y-18883126D01*
X66326874Y-17993126D01*
X66304560Y-17978217D01*
X66282619Y-17963508D01*
X65111596Y-17476376D01*
X65059184Y-17465868D01*
X63790883Y-17463948D01*
X63782239Y-17465654D01*
X63738439Y-17474297D01*
X62565946Y-17957882D01*
X62557499Y-17963508D01*
X62521455Y-17987513D01*
X61623273Y-18882980D01*
X61593508Y-18927381D01*
X61106376Y-20098404D01*
X61095868Y-20150816D01*
X61093948Y-21419117D01*
X54257000Y-21419117D01*
X54257000Y-18980000D01*
X54246571Y-18927572D01*
X54216874Y-18883126D01*
X53326874Y-17993126D01*
X53304560Y-17978217D01*
X53282619Y-17963508D01*
X52111596Y-17476376D01*
X52059184Y-17465868D01*
X50790883Y-17463948D01*
X50782239Y-17465654D01*
X50738439Y-17474297D01*
X49565946Y-17957882D01*
X49557499Y-17963508D01*
X49521455Y-17987513D01*
X48623273Y-18882980D01*
X48593508Y-18927381D01*
X48106376Y-20098404D01*
X48095868Y-20150816D01*
X48093948Y-21419117D01*
X40257000Y-21419117D01*
X40257000Y-18980000D01*
X40246571Y-18927572D01*
X40216874Y-18883126D01*
X39326874Y-17993126D01*
X39304560Y-17978217D01*
X39282619Y-17963508D01*
X38111596Y-17476376D01*
X38059184Y-17465868D01*
X36790883Y-17463948D01*
X36782239Y-17465654D01*
X36738439Y-17474297D01*
X35565946Y-17957882D01*
X35557499Y-17963508D01*
X35521455Y-17987513D01*
X34623273Y-18882980D01*
X34593508Y-18927381D01*
X34106376Y-20098404D01*
X34095868Y-20150816D01*
X34093948Y-21419117D01*
X27257000Y-21419117D01*
X27257000Y-18980000D01*
X27246571Y-18927572D01*
X27216874Y-18883126D01*
X26326874Y-17993126D01*
X26304560Y-17978217D01*
X26282619Y-17963508D01*
X25111596Y-17476376D01*
X25059184Y-17465868D01*
X23790883Y-17463948D01*
X23782239Y-17465654D01*
X23738439Y-17474297D01*
X22565946Y-17957882D01*
X22557499Y-17963508D01*
X22521455Y-17987513D01*
X21623273Y-18882980D01*
X21593508Y-18927381D01*
X21106376Y-20098404D01*
X21095868Y-20150816D01*
X21093948Y-21419117D01*
X14257000Y-21419117D01*
X14257000Y-18980000D01*
X14246571Y-18927572D01*
X14216874Y-18883126D01*
X13326874Y-17993126D01*
X13304560Y-17978217D01*
X13282619Y-17963508D01*
X12111596Y-17476376D01*
X12059184Y-17465868D01*
X10790883Y-17463948D01*
X10782239Y-17465654D01*
X10738439Y-17474297D01*
X9565946Y-17957882D01*
X9557499Y-17963508D01*
X9521455Y-17987513D01*
X8623273Y-18882980D01*
X8593508Y-18927381D01*
X8106376Y-20098404D01*
X8095868Y-20150816D01*
X8093948Y-21419117D01*
X1127000Y-21419117D01*
X1127000Y-10120000D01*
X1116571Y-10067572D01*
X1086874Y-10023126D01*
X1042428Y-9993429D01*
X990000Y-9983000D01*
X313495Y-9983000D01*
X238648Y-9968112D01*
X186640Y-9933361D01*
X151888Y-9881352D01*
X137000Y-9806505D01*
X137000Y-7419117D01*
X8093948Y-7419117D01*
X8104297Y-7471561D01*
X8587882Y-8644054D01*
X8593586Y-8652618D01*
X8617513Y-8688545D01*
X9512980Y-9586727D01*
X9539562Y-9604546D01*
X9557381Y-9616492D01*
X10728404Y-10103624D01*
X10780816Y-10114132D01*
X12049117Y-10116052D01*
X12101561Y-10105703D01*
X13274054Y-9622118D01*
X13298121Y-9606089D01*
X13318545Y-9592487D01*
X14216727Y-8697020D01*
X14216785Y-8696933D01*
X14216874Y-8696874D01*
X14231838Y-8674477D01*
X14246492Y-8652618D01*
X14246513Y-8652515D01*
X14246571Y-8652428D01*
X14251748Y-8626403D01*
X14257000Y-8600207D01*
X14256979Y-8600103D01*
X14257000Y-8600000D01*
X14257000Y-7419117D01*
X21093948Y-7419117D01*
X21104297Y-7471561D01*
X21587882Y-8644054D01*
X21593586Y-8652618D01*
X21617513Y-8688545D01*
X22512980Y-9586727D01*
X22539562Y-9604546D01*
X22557381Y-9616492D01*
X23728404Y-10103624D01*
X23780816Y-10114132D01*
X25049117Y-10116052D01*
X25101561Y-10105703D01*
X26274054Y-9622118D01*
X26298121Y-9606089D01*
X26318545Y-9592487D01*
X27216727Y-8697020D01*
X27216785Y-8696933D01*
X27216874Y-8696874D01*
X27231838Y-8674477D01*
X27246492Y-8652618D01*
X27246513Y-8652515D01*
X27246571Y-8652428D01*
X27251748Y-8626403D01*
X27257000Y-8600207D01*
X27256979Y-8600103D01*
X27257000Y-8600000D01*
X27257000Y-7419117D01*
X34093948Y-7419117D01*
X34104297Y-7471561D01*
X34587882Y-8644054D01*
X34593586Y-8652618D01*
X34617513Y-8688545D01*
X35512980Y-9586727D01*
X35539562Y-9604546D01*
X35557381Y-9616492D01*
X36728404Y-10103624D01*
X36780816Y-10114132D01*
X38049117Y-10116052D01*
X38101561Y-10105703D01*
X39274054Y-9622118D01*
X39298121Y-9606089D01*
X39318545Y-9592487D01*
X40216727Y-8697020D01*
X40216785Y-8696933D01*
X40216874Y-8696874D01*
X40231838Y-8674477D01*
X40246492Y-8652618D01*
X40246513Y-8652515D01*
X40246571Y-8652428D01*
X40251748Y-8626403D01*
X40257000Y-8600207D01*
X40256979Y-8600103D01*
X40257000Y-8600000D01*
X40257000Y-7419117D01*
X48093948Y-7419117D01*
X48104297Y-7471561D01*
X48587882Y-8644054D01*
X48593586Y-8652618D01*
X48617513Y-8688545D01*
X49512980Y-9586727D01*
X49539562Y-9604546D01*
X49557381Y-9616492D01*
X50728404Y-10103624D01*
X50780816Y-10114132D01*
X52049117Y-10116052D01*
X52101561Y-10105703D01*
X53274054Y-9622118D01*
X53298121Y-9606089D01*
X53318545Y-9592487D01*
X54216727Y-8697020D01*
X54216785Y-8696933D01*
X54216874Y-8696874D01*
X54231838Y-8674477D01*
X54246492Y-8652618D01*
X54246513Y-8652515D01*
X54246571Y-8652428D01*
X54251748Y-8626403D01*
X54257000Y-8600207D01*
X54256979Y-8600103D01*
X54257000Y-8600000D01*
X54257000Y-7419117D01*
X61093948Y-7419117D01*
X61104297Y-7471561D01*
X61587882Y-8644054D01*
X61593586Y-8652618D01*
X61617513Y-8688545D01*
X62512980Y-9586727D01*
X62539562Y-9604546D01*
X62557381Y-9616492D01*
X63728404Y-10103624D01*
X63780816Y-10114132D01*
X65049117Y-10116052D01*
X65101561Y-10105703D01*
X66274054Y-9622118D01*
X66298121Y-9606089D01*
X66318545Y-9592487D01*
X67216727Y-8697020D01*
X67216785Y-8696933D01*
X67216874Y-8696874D01*
X67231838Y-8674477D01*
X67246492Y-8652618D01*
X67246513Y-8652515D01*
X67246571Y-8652428D01*
X67251748Y-8626403D01*
X67257000Y-8600207D01*
X67256979Y-8600103D01*
X67257000Y-8600000D01*
X67257000Y-4980000D01*
X67246571Y-4927572D01*
X67216874Y-4883126D01*
X66326874Y-3993126D01*
X66314712Y-3985000D01*
X70408000Y-3985000D01*
X70524997Y-4573184D01*
X70858177Y-5071823D01*
X71356816Y-5405003D01*
X71945000Y-5522000D01*
X72533184Y-5405003D01*
X73031823Y-5071823D01*
X73365003Y-4573184D01*
X73482000Y-3985000D01*
X73365003Y-3396816D01*
X73031823Y-2898177D01*
X72533184Y-2564997D01*
X71945000Y-2448000D01*
X71356816Y-2564997D01*
X70858177Y-2898177D01*
X70524997Y-3396816D01*
X70408000Y-3985000D01*
X66314712Y-3985000D01*
X66304560Y-3978217D01*
X66282619Y-3963508D01*
X65111596Y-3476376D01*
X65059184Y-3465868D01*
X63790883Y-3463948D01*
X63782239Y-3465654D01*
X63738439Y-3474297D01*
X62565946Y-3957882D01*
X62557499Y-3963508D01*
X62521455Y-3987513D01*
X61623273Y-4882980D01*
X61593508Y-4927381D01*
X61106376Y-6098404D01*
X61095868Y-6150816D01*
X61093948Y-7419117D01*
X54257000Y-7419117D01*
X54257000Y-4980000D01*
X54246571Y-4927572D01*
X54216874Y-4883126D01*
X53326874Y-3993126D01*
X53304560Y-3978217D01*
X53282619Y-3963508D01*
X52111596Y-3476376D01*
X52059184Y-3465868D01*
X50790883Y-3463948D01*
X50782239Y-3465654D01*
X50738439Y-3474297D01*
X49565946Y-3957882D01*
X49557499Y-3963508D01*
X49521455Y-3987513D01*
X48623273Y-4882980D01*
X48593508Y-4927381D01*
X48106376Y-6098404D01*
X48095868Y-6150816D01*
X48093948Y-7419117D01*
X40257000Y-7419117D01*
X40257000Y-4980000D01*
X40246571Y-4927572D01*
X40216874Y-4883126D01*
X39326874Y-3993126D01*
X39304560Y-3978217D01*
X39282619Y-3963508D01*
X38111596Y-3476376D01*
X38059184Y-3465868D01*
X36790883Y-3463948D01*
X36782239Y-3465654D01*
X36738439Y-3474297D01*
X35565946Y-3957882D01*
X35557499Y-3963508D01*
X35521455Y-3987513D01*
X34623273Y-4882980D01*
X34593508Y-4927381D01*
X34106376Y-6098404D01*
X34095868Y-6150816D01*
X34093948Y-7419117D01*
X27257000Y-7419117D01*
X27257000Y-4980000D01*
X27246571Y-4927572D01*
X27216874Y-4883126D01*
X26326874Y-3993126D01*
X26304560Y-3978217D01*
X26282619Y-3963508D01*
X25111596Y-3476376D01*
X25059184Y-3465868D01*
X23790883Y-3463948D01*
X23782239Y-3465654D01*
X23738439Y-3474297D01*
X22565946Y-3957882D01*
X22557499Y-3963508D01*
X22521455Y-3987513D01*
X21623273Y-4882980D01*
X21593508Y-4927381D01*
X21106376Y-6098404D01*
X21095868Y-6150816D01*
X21093948Y-7419117D01*
X14257000Y-7419117D01*
X14257000Y-4980000D01*
X14246571Y-4927572D01*
X14216874Y-4883126D01*
X13326874Y-3993126D01*
X13304560Y-3978217D01*
X13282619Y-3963508D01*
X12111596Y-3476376D01*
X12059184Y-3465868D01*
X10790883Y-3463948D01*
X10782239Y-3465654D01*
X10738439Y-3474297D01*
X9565946Y-3957882D01*
X9557499Y-3963508D01*
X9521455Y-3987513D01*
X8623273Y-4882980D01*
X8593508Y-4927381D01*
X8106376Y-6098404D01*
X8095868Y-6150816D01*
X8093948Y-7419117D01*
X137000Y-7419117D01*
X137000Y-3985000D01*
X2408000Y-3985000D01*
X2524997Y-4573184D01*
X2858177Y-5071823D01*
X3356816Y-5405003D01*
X3945000Y-5522000D01*
X4533184Y-5405003D01*
X5031823Y-5071823D01*
X5365003Y-4573184D01*
X5482000Y-3985000D01*
X5365003Y-3396816D01*
X5031823Y-2898177D01*
X4533184Y-2564997D01*
X3945000Y-2448000D01*
X3356816Y-2564997D01*
X2858177Y-2898177D01*
X2524997Y-3396816D01*
X2408000Y-3985000D01*
X137000Y-3985000D01*
X137000Y-2013496D01*
X281292Y-1288089D01*
X684557Y-684558D01*
X1288085Y-281293D01*
X2013494Y-137000D01*
X73976505Y-137000D01*
X74701912Y-281292D01*
M02*
