M48
;DRILL file {KiCad (2017-06-07 revision 51bed4bae)-makepkg} date 06/10/17 23:54:32
;FORMAT={2:4/ absolute / inch / keep zeros}
FMAT,2
INCH,TZ
T1C0.018
%
G90
G05
M72
T1
X019291Y-004693
X019494Y-003935
X019494Y-005451
X020049Y-003380
X020049Y-006006
X020807Y-003177
X020807Y-006209
X021565Y-003380
X021565Y-006006
X022120Y-003935
X022120Y-005451
X022126Y-004693
X023622Y-004693
X023825Y-003935
X023825Y-005451
X024380Y-003380
X024380Y-006006
X025138Y-003177
X025138Y-006209
X025896Y-003380
X025896Y-006006
X026450Y-003935
X026450Y-005451
X026457Y-004693
T0
M30
