G04 #@! TF.GenerationSoftware,KiCad,Pcbnew,(2017-06-07 revision 51bed4bae)-makepkg*
G04 #@! TF.CreationDate,2017-06-10T23:55:19+02:00*
G04 #@! TF.ProjectId,Rear_Panel_76x35,526561725F50616E656C5F3736783335,rev?*
G04 #@! TF.FileFunction,Copper,L2,Bot,Signal*
G04 #@! TF.FilePolarity,Positive*
%FSLAX46Y46*%
G04 Gerber Fmt 4.6, Leading zero omitted, Abs format (unit mm)*
G04 Created by KiCad (PCBNEW (2017-06-07 revision 51bed4bae)-makepkg) date 06/10/17 23:55:19*
%MOMM*%
%LPD*%
G01*
G04 APERTURE LIST*
%ADD10C,0.150000*%
%ADD11C,0.800000*%
%ADD12C,0.254000*%
G04 APERTURE END LIST*
D10*
D11*
X49000000Y-11920000D03*
X49515802Y-9995000D03*
X50925000Y-8585802D03*
X52850000Y-8070000D03*
X54775000Y-8585802D03*
X56184198Y-9995000D03*
X56200000Y-11920000D03*
X56184198Y-13845000D03*
X54775000Y-15254198D03*
X52850000Y-15770000D03*
X50925000Y-15254198D03*
X49515802Y-13845000D03*
X60515802Y-13845000D03*
X61925000Y-15254198D03*
X63850000Y-15770000D03*
X65775000Y-15254198D03*
X67184198Y-13845000D03*
X67200000Y-11920000D03*
X67184198Y-9995000D03*
X65775000Y-8585802D03*
X63850000Y-8070000D03*
X61925000Y-8585802D03*
X60515802Y-9995000D03*
X60000000Y-11920000D03*
D12*
G36*
X74687211Y-324663D02*
X75290742Y-727928D01*
X75694007Y-1331459D01*
X75838299Y-2056866D01*
X75838299Y-9749876D01*
X75823411Y-9824723D01*
X75788660Y-9876731D01*
X75736651Y-9911483D01*
X75661804Y-9926371D01*
X74985298Y-9926371D01*
X74932870Y-9936800D01*
X74888424Y-9966497D01*
X74858727Y-10010943D01*
X74848298Y-10063371D01*
X74848299Y-24903371D01*
X74858728Y-24955799D01*
X74888425Y-25000245D01*
X74932871Y-25029942D01*
X74985299Y-25040371D01*
X75661804Y-25040371D01*
X75736651Y-25055259D01*
X75788660Y-25090011D01*
X75823411Y-25142019D01*
X75838299Y-25216866D01*
X75838299Y-32529876D01*
X75656707Y-33442800D01*
X75147225Y-34205294D01*
X74384728Y-34714779D01*
X73471794Y-34896373D01*
X1998785Y-34906369D01*
X1273387Y-34762079D01*
X669856Y-34358814D01*
X266591Y-33755283D01*
X122299Y-33029876D01*
X122299Y-31078371D01*
X2393299Y-31078371D01*
X2510296Y-31666555D01*
X2843476Y-32165194D01*
X3342115Y-32498374D01*
X3930299Y-32615371D01*
X4518483Y-32498374D01*
X5017122Y-32165194D01*
X5350302Y-31666555D01*
X5386381Y-31485171D01*
X10863374Y-31485171D01*
X10863374Y-31567890D01*
X10958525Y-32046244D01*
X10990179Y-32122666D01*
X11261146Y-32528195D01*
X11276322Y-32543371D01*
X11319636Y-32586686D01*
X11725165Y-32857652D01*
X11801587Y-32889306D01*
X12279941Y-32984458D01*
X12300823Y-32984458D01*
X12321300Y-32988531D01*
X22821300Y-32988531D01*
X22841781Y-32984457D01*
X22862659Y-32984457D01*
X23341014Y-32889306D01*
X23363397Y-32880035D01*
X23417435Y-32857652D01*
X23822964Y-32586685D01*
X23866278Y-32543371D01*
X23881455Y-32528195D01*
X24152421Y-32122666D01*
X24184075Y-32046244D01*
X24279227Y-31567890D01*
X24279227Y-31485172D01*
X24184075Y-31006818D01*
X24179308Y-30995309D01*
X24152421Y-30930396D01*
X23881455Y-30524867D01*
X23841044Y-30484457D01*
X23822964Y-30466377D01*
X23417435Y-30195410D01*
X23363397Y-30173027D01*
X23341014Y-30163756D01*
X22862659Y-30068605D01*
X22841781Y-30068605D01*
X22821300Y-30064531D01*
X12321300Y-30064531D01*
X12300823Y-30068604D01*
X12279941Y-30068604D01*
X11801587Y-30163756D01*
X11725165Y-30195410D01*
X11319636Y-30466376D01*
X11301556Y-30484457D01*
X11261146Y-30524867D01*
X10990179Y-30930396D01*
X10976609Y-30963158D01*
X10958525Y-31006817D01*
X10863374Y-31485171D01*
X5386381Y-31485171D01*
X5467299Y-31078371D01*
X5350302Y-30490187D01*
X5017122Y-29991548D01*
X4518483Y-29658368D01*
X3930299Y-29541371D01*
X3342115Y-29658368D01*
X2843476Y-29991548D01*
X2510296Y-30490187D01*
X2393299Y-31078371D01*
X122299Y-31078371D01*
X122299Y-25316866D01*
X137187Y-25242019D01*
X171939Y-25190010D01*
X223947Y-25155259D01*
X298794Y-25140371D01*
X975299Y-25140371D01*
X1027727Y-25129942D01*
X1072173Y-25100245D01*
X1101870Y-25055799D01*
X1112299Y-25003371D01*
X1112299Y-24935171D01*
X5363374Y-24935171D01*
X5363374Y-25017890D01*
X5458525Y-25496244D01*
X5490179Y-25572666D01*
X5761146Y-25978195D01*
X5779195Y-25996244D01*
X5819636Y-26036686D01*
X6225165Y-26307652D01*
X6301587Y-26339306D01*
X6779941Y-26434458D01*
X6800823Y-26434458D01*
X6821300Y-26438531D01*
X11821300Y-26438531D01*
X11841781Y-26434457D01*
X11862659Y-26434457D01*
X12341014Y-26339306D01*
X12363397Y-26330035D01*
X12417435Y-26307652D01*
X12822964Y-26036685D01*
X12863405Y-25996244D01*
X12881455Y-25978195D01*
X13152421Y-25572666D01*
X13184075Y-25496244D01*
X13279227Y-25017890D01*
X13279227Y-24935172D01*
X13184075Y-24456818D01*
X13184075Y-24456817D01*
X13152421Y-24380396D01*
X12881455Y-23974867D01*
X12841044Y-23934457D01*
X12822964Y-23916377D01*
X12417435Y-23645410D01*
X12363397Y-23623027D01*
X12341014Y-23613756D01*
X11862659Y-23518605D01*
X11841781Y-23518605D01*
X11821300Y-23514531D01*
X6821300Y-23514531D01*
X6800823Y-23518604D01*
X6779941Y-23518604D01*
X6301587Y-23613756D01*
X6225165Y-23645410D01*
X5819636Y-23916376D01*
X5801556Y-23934457D01*
X5761146Y-23974867D01*
X5490179Y-24380396D01*
X5475276Y-24416376D01*
X5458525Y-24456817D01*
X5363374Y-24935171D01*
X1112299Y-24935171D01*
X1112299Y-21470151D01*
X16794154Y-21470151D01*
X16794154Y-28170151D01*
X16797688Y-28187917D01*
X16797672Y-28204515D01*
X16842892Y-28433001D01*
X16856054Y-28464864D01*
X16869165Y-28496690D01*
X16998822Y-28691545D01*
X17047562Y-28740473D01*
X17047566Y-28740475D01*
X17241916Y-28870878D01*
X17241917Y-28870879D01*
X17279119Y-28886372D01*
X17305670Y-28897430D01*
X17305671Y-28897430D01*
X17535135Y-28943532D01*
X17553134Y-28943567D01*
X17571154Y-28947151D01*
X21921154Y-28947151D01*
X21944084Y-28942590D01*
X21955880Y-28942587D01*
X22185031Y-28896946D01*
X22185037Y-28896946D01*
X22222412Y-28881453D01*
X22248835Y-28870501D01*
X22248838Y-28870498D01*
X22443083Y-28740637D01*
X22491905Y-28691791D01*
X22491907Y-28691787D01*
X22621666Y-28497481D01*
X22621668Y-28497479D01*
X22648081Y-28433667D01*
X22693608Y-28204488D01*
X22693605Y-28193020D01*
X22698154Y-28170151D01*
X22698154Y-23470151D01*
X30744154Y-23470151D01*
X30744154Y-26250151D01*
X30747555Y-26267249D01*
X30747555Y-26284682D01*
X30785615Y-26476024D01*
X30785615Y-26476025D01*
X30812044Y-26539830D01*
X30920429Y-26702039D01*
X30969264Y-26750874D01*
X31131475Y-26859261D01*
X31131476Y-26859262D01*
X31168852Y-26874743D01*
X31195280Y-26885690D01*
X31195281Y-26885690D01*
X31386624Y-26923750D01*
X31404056Y-26923750D01*
X31421154Y-26927151D01*
X31744154Y-26927151D01*
X31744154Y-30870151D01*
X31747555Y-30887249D01*
X31747555Y-30904682D01*
X31785615Y-31096024D01*
X31785615Y-31096025D01*
X31812044Y-31159830D01*
X31920429Y-31322039D01*
X31969264Y-31370874D01*
X32131475Y-31479261D01*
X32131476Y-31479262D01*
X32168852Y-31494743D01*
X32195280Y-31505690D01*
X32195281Y-31505690D01*
X32386624Y-31543750D01*
X32404056Y-31543750D01*
X32421154Y-31547151D01*
X43621154Y-31547151D01*
X43638252Y-31543750D01*
X43655685Y-31543750D01*
X43847027Y-31505690D01*
X43847028Y-31505690D01*
X43896565Y-31485171D01*
X48863374Y-31485171D01*
X48863374Y-31567890D01*
X48958525Y-32046244D01*
X48990179Y-32122666D01*
X49261146Y-32528195D01*
X49276322Y-32543371D01*
X49319636Y-32586686D01*
X49725165Y-32857652D01*
X49801587Y-32889306D01*
X50279941Y-32984458D01*
X50300823Y-32984458D01*
X50321300Y-32988531D01*
X63821300Y-32988531D01*
X63841781Y-32984457D01*
X63862659Y-32984457D01*
X64341014Y-32889306D01*
X64363397Y-32880035D01*
X64417435Y-32857652D01*
X64822964Y-32586685D01*
X64866278Y-32543371D01*
X64881455Y-32528195D01*
X65152421Y-32122666D01*
X65184075Y-32046244D01*
X65279227Y-31567890D01*
X65279227Y-31485172D01*
X65203055Y-31102235D01*
X70368927Y-31102235D01*
X70485924Y-31690419D01*
X70819104Y-32189058D01*
X71317743Y-32522238D01*
X71905927Y-32639235D01*
X72494111Y-32522238D01*
X72992750Y-32189058D01*
X73325930Y-31690419D01*
X73442927Y-31102235D01*
X73325930Y-30514051D01*
X72992750Y-30015412D01*
X72494111Y-29682232D01*
X71905927Y-29565235D01*
X71317743Y-29682232D01*
X70819104Y-30015412D01*
X70485924Y-30514051D01*
X70368927Y-31102235D01*
X65203055Y-31102235D01*
X65184075Y-31006818D01*
X65179308Y-30995309D01*
X65152421Y-30930396D01*
X64881455Y-30524867D01*
X64841044Y-30484457D01*
X64822964Y-30466377D01*
X64417435Y-30195410D01*
X64363397Y-30173027D01*
X64341014Y-30163756D01*
X63862659Y-30068605D01*
X63841781Y-30068605D01*
X63821300Y-30064531D01*
X50321300Y-30064531D01*
X50300823Y-30068604D01*
X50279941Y-30068604D01*
X49801587Y-30163756D01*
X49725165Y-30195410D01*
X49319636Y-30466376D01*
X49301556Y-30484457D01*
X49261146Y-30524867D01*
X48990179Y-30930396D01*
X48976609Y-30963158D01*
X48958525Y-31006817D01*
X48863374Y-31485171D01*
X43896565Y-31485171D01*
X43910833Y-31479261D01*
X44073044Y-31370874D01*
X44121879Y-31322039D01*
X44230264Y-31159830D01*
X44230265Y-31159829D01*
X44245746Y-31122453D01*
X44256693Y-31096025D01*
X44256693Y-31096024D01*
X44294753Y-30904681D01*
X44294753Y-30887249D01*
X44298154Y-30870151D01*
X44298154Y-26927151D01*
X44471154Y-26927151D01*
X44488252Y-26923750D01*
X44505685Y-26923750D01*
X44697027Y-26885690D01*
X44697028Y-26885690D01*
X44760833Y-26859261D01*
X44923044Y-26750874D01*
X44971879Y-26702039D01*
X45080264Y-26539830D01*
X45080265Y-26539829D01*
X45105794Y-26478195D01*
X45106693Y-26476025D01*
X45106693Y-26476024D01*
X45144753Y-26284681D01*
X45144753Y-26267249D01*
X45148154Y-26250151D01*
X45148154Y-25970151D01*
X48959300Y-25970151D01*
X49093424Y-26644439D01*
X49475378Y-27216073D01*
X50047012Y-27598027D01*
X50721300Y-27732151D01*
X51395588Y-27598027D01*
X51967222Y-27216073D01*
X52349176Y-26644439D01*
X52483300Y-25970151D01*
X53608544Y-25970151D01*
X53742668Y-26644439D01*
X54124622Y-27216073D01*
X54696256Y-27598027D01*
X55370544Y-27732151D01*
X56044832Y-27598027D01*
X56616466Y-27216073D01*
X56998420Y-26644439D01*
X57132544Y-25970151D01*
X57026131Y-25435171D01*
X62363374Y-25435171D01*
X62363374Y-25517890D01*
X62458525Y-25996244D01*
X62490179Y-26072666D01*
X62761146Y-26478195D01*
X62788318Y-26505367D01*
X62819636Y-26536686D01*
X63225165Y-26807652D01*
X63301587Y-26839306D01*
X63779941Y-26934458D01*
X63800823Y-26934458D01*
X63821300Y-26938531D01*
X68821300Y-26938531D01*
X68841781Y-26934457D01*
X68862659Y-26934457D01*
X69341014Y-26839306D01*
X69363397Y-26830035D01*
X69417435Y-26807652D01*
X69822964Y-26536685D01*
X69854282Y-26505367D01*
X69881455Y-26478195D01*
X70152421Y-26072666D01*
X70184075Y-25996244D01*
X70279227Y-25517890D01*
X70279227Y-25435172D01*
X70184075Y-24956818D01*
X70182466Y-24952934D01*
X70152421Y-24880396D01*
X69881455Y-24474867D01*
X69841044Y-24434457D01*
X69822964Y-24416377D01*
X69417435Y-24145410D01*
X69363397Y-24123027D01*
X69341014Y-24113756D01*
X68862659Y-24018605D01*
X68841781Y-24018605D01*
X68821300Y-24014531D01*
X63821300Y-24014531D01*
X63800823Y-24018604D01*
X63779941Y-24018604D01*
X63301587Y-24113756D01*
X63225165Y-24145410D01*
X62819636Y-24416376D01*
X62801556Y-24434457D01*
X62761146Y-24474867D01*
X62490179Y-24880396D01*
X62470769Y-24927258D01*
X62458525Y-24956817D01*
X62363374Y-25435171D01*
X57026131Y-25435171D01*
X56998420Y-25295863D01*
X56616466Y-24724229D01*
X56044832Y-24342275D01*
X55370544Y-24208151D01*
X54696256Y-24342275D01*
X54124622Y-24724229D01*
X53742668Y-25295863D01*
X53608544Y-25970151D01*
X52483300Y-25970151D01*
X52349176Y-25295863D01*
X51967222Y-24724229D01*
X51395588Y-24342275D01*
X50721300Y-24208151D01*
X50047012Y-24342275D01*
X49475378Y-24724229D01*
X49093424Y-25295863D01*
X48959300Y-25970151D01*
X45148154Y-25970151D01*
X45148154Y-23470151D01*
X45144753Y-23453053D01*
X45144753Y-23435621D01*
X45106693Y-23244278D01*
X45080265Y-23180473D01*
X45080264Y-23180472D01*
X44971877Y-23018261D01*
X44923042Y-22969426D01*
X44760833Y-22861041D01*
X44697028Y-22834612D01*
X44697027Y-22834612D01*
X44505685Y-22796552D01*
X44488252Y-22796552D01*
X44471154Y-22793151D01*
X31421154Y-22793151D01*
X31404056Y-22796552D01*
X31386624Y-22796552D01*
X31195281Y-22834612D01*
X31195280Y-22834612D01*
X31170218Y-22844993D01*
X31131476Y-22861040D01*
X31131475Y-22861041D01*
X30969266Y-22969426D01*
X30920431Y-23018261D01*
X30812044Y-23180472D01*
X30812044Y-23180473D01*
X30785615Y-23244278D01*
X30747555Y-23435620D01*
X30747555Y-23453053D01*
X30744154Y-23470151D01*
X22698154Y-23470151D01*
X22698154Y-21470151D01*
X22695088Y-21454735D01*
X22695219Y-21436900D01*
X22652855Y-21215405D01*
X22640127Y-21184026D01*
X22627610Y-21152500D01*
X22500384Y-20955879D01*
X22452275Y-20906330D01*
X22452272Y-20906329D01*
X22409069Y-20876531D01*
X48959300Y-20876531D01*
X49093424Y-21550819D01*
X49475378Y-22122453D01*
X50047012Y-22504407D01*
X50721300Y-22638531D01*
X51395588Y-22504407D01*
X51967222Y-22122453D01*
X52349176Y-21550819D01*
X52483300Y-20876531D01*
X53609300Y-20876531D01*
X53743424Y-21550819D01*
X54125378Y-22122453D01*
X54697012Y-22504407D01*
X55371300Y-22638531D01*
X56045588Y-22504407D01*
X56617222Y-22122453D01*
X56999176Y-21550819D01*
X57133300Y-20876531D01*
X56999176Y-20202243D01*
X56617222Y-19630609D01*
X56045588Y-19248655D01*
X55371300Y-19114531D01*
X54697012Y-19248655D01*
X54125378Y-19630609D01*
X53743424Y-20202243D01*
X53609300Y-20876531D01*
X52483300Y-20876531D01*
X52349176Y-20202243D01*
X51967222Y-19630609D01*
X51395588Y-19248655D01*
X50721300Y-19114531D01*
X50047012Y-19248655D01*
X49475378Y-19630609D01*
X49093424Y-20202243D01*
X48959300Y-20876531D01*
X22409069Y-20876531D01*
X22259488Y-20773364D01*
X22196080Y-20745997D01*
X22196075Y-20745997D01*
X21967086Y-20696929D01*
X21937991Y-20696500D01*
X21921154Y-20693151D01*
X17571154Y-20693151D01*
X17559864Y-20695397D01*
X17536645Y-20695394D01*
X17306758Y-20741091D01*
X17306755Y-20741091D01*
X17306752Y-20741092D01*
X17306733Y-20741096D01*
X17276463Y-20753630D01*
X17242943Y-20767504D01*
X17047882Y-20897769D01*
X16999035Y-20946591D01*
X16999033Y-20946595D01*
X16868677Y-21141581D01*
X16868672Y-21141586D01*
X16853180Y-21178962D01*
X16842227Y-21205385D01*
X16842227Y-21205390D01*
X16796410Y-21435425D01*
X16796404Y-21458840D01*
X16794154Y-21470151D01*
X1112299Y-21470151D01*
X1112299Y-12549019D01*
X49458948Y-12549019D01*
X49474207Y-12626344D01*
X49474208Y-12626345D01*
X49957791Y-13798833D01*
X49957792Y-13798838D01*
X49963618Y-13807585D01*
X50001481Y-13864438D01*
X50001484Y-13864440D01*
X50896946Y-14762616D01*
X50896948Y-14762619D01*
X50923222Y-14780233D01*
X50962415Y-14806507D01*
X50962420Y-14806508D01*
X52133435Y-15293636D01*
X52133439Y-15293639D01*
X52210717Y-15309132D01*
X53479019Y-15311052D01*
X53556344Y-15295793D01*
X53556346Y-15295791D01*
X54728833Y-14812209D01*
X54728838Y-14812208D01*
X54768214Y-14785984D01*
X54794438Y-14768519D01*
X54794440Y-14768516D01*
X55692619Y-13873051D01*
X55692704Y-13872924D01*
X55692836Y-13872836D01*
X55714752Y-13840037D01*
X55736507Y-13807585D01*
X55736538Y-13807431D01*
X55736624Y-13807302D01*
X55744181Y-13769310D01*
X55752001Y-13730306D01*
X55751970Y-13730150D01*
X55752000Y-13730000D01*
X55752000Y-12549019D01*
X60458948Y-12549019D01*
X60474207Y-12626344D01*
X60474208Y-12626345D01*
X60957791Y-13798833D01*
X60957792Y-13798838D01*
X60963618Y-13807585D01*
X61001481Y-13864438D01*
X61001484Y-13864440D01*
X61896946Y-14762616D01*
X61896948Y-14762619D01*
X61923222Y-14780233D01*
X61962415Y-14806507D01*
X61962420Y-14806508D01*
X63133435Y-15293636D01*
X63133439Y-15293639D01*
X63210717Y-15309132D01*
X64479019Y-15311052D01*
X64556344Y-15295793D01*
X64556346Y-15295791D01*
X65728833Y-14812209D01*
X65728838Y-14812208D01*
X65768214Y-14785984D01*
X65794438Y-14768519D01*
X65794440Y-14768516D01*
X66692619Y-13873051D01*
X66692704Y-13872924D01*
X66692836Y-13872836D01*
X66714752Y-13840037D01*
X66736507Y-13807585D01*
X66736538Y-13807431D01*
X66736624Y-13807302D01*
X66744181Y-13769310D01*
X66752001Y-13730306D01*
X66751970Y-13730150D01*
X66752000Y-13730000D01*
X66752000Y-10110005D01*
X66752001Y-10110000D01*
X66736624Y-10032698D01*
X66692836Y-9967164D01*
X65802836Y-9077164D01*
X65769958Y-9055196D01*
X65737585Y-9033494D01*
X65737303Y-9033377D01*
X65737302Y-9033376D01*
X65737301Y-9033376D01*
X64566562Y-8546362D01*
X64566563Y-8546362D01*
X64566561Y-8546361D01*
X64504776Y-8533974D01*
X64489283Y-8530868D01*
X64489282Y-8530868D01*
X63220981Y-8528948D01*
X63143656Y-8544207D01*
X61971167Y-9027791D01*
X61971162Y-9027792D01*
X61905563Y-9071481D01*
X61007381Y-9966948D01*
X60963493Y-10032415D01*
X60963492Y-10032420D01*
X60476363Y-11203437D01*
X60476361Y-11203439D01*
X60460868Y-11280718D01*
X60458948Y-12549019D01*
X55752000Y-12549019D01*
X55752000Y-10110005D01*
X55752001Y-10110000D01*
X55736624Y-10032698D01*
X55692836Y-9967164D01*
X54802836Y-9077164D01*
X54769958Y-9055196D01*
X54737585Y-9033494D01*
X54737303Y-9033377D01*
X54737302Y-9033376D01*
X54737301Y-9033376D01*
X53566562Y-8546362D01*
X53566563Y-8546362D01*
X53566561Y-8546361D01*
X53504776Y-8533974D01*
X53489283Y-8530868D01*
X53489282Y-8530868D01*
X52220981Y-8528948D01*
X52143656Y-8544207D01*
X50971167Y-9027791D01*
X50971162Y-9027792D01*
X50905563Y-9071481D01*
X50007381Y-9966948D01*
X49963493Y-10032415D01*
X49963492Y-10032420D01*
X49476363Y-11203437D01*
X49476361Y-11203439D01*
X49460868Y-11280718D01*
X49458948Y-12549019D01*
X1112299Y-12549019D01*
X1112299Y-10163371D01*
X1101870Y-10110943D01*
X1072173Y-10066497D01*
X1027727Y-10036800D01*
X975299Y-10026371D01*
X298794Y-10026371D01*
X223947Y-10011483D01*
X171939Y-9976732D01*
X137187Y-9924723D01*
X122299Y-9849876D01*
X122299Y-4028371D01*
X2393299Y-4028371D01*
X2510296Y-4616555D01*
X2843476Y-5115194D01*
X3342115Y-5448374D01*
X3930299Y-5565371D01*
X4518483Y-5448374D01*
X5017122Y-5115194D01*
X5350302Y-4616555D01*
X5467299Y-4028371D01*
X5448761Y-3935171D01*
X8863374Y-3935171D01*
X8863374Y-4017890D01*
X8958525Y-4496244D01*
X8990179Y-4572666D01*
X9261146Y-4978195D01*
X9290391Y-5007440D01*
X9319636Y-5036686D01*
X9725165Y-5307652D01*
X9801587Y-5339306D01*
X10279941Y-5434458D01*
X10300823Y-5434458D01*
X10321300Y-5438531D01*
X21321300Y-5438531D01*
X21341781Y-5434457D01*
X21362659Y-5434457D01*
X21841014Y-5339306D01*
X21863397Y-5330035D01*
X21917435Y-5307652D01*
X22322964Y-5036685D01*
X22352209Y-5007440D01*
X22381455Y-4978195D01*
X22652421Y-4572666D01*
X22684075Y-4496244D01*
X22779227Y-4017890D01*
X22779227Y-3935172D01*
X22779227Y-3935171D01*
X25363374Y-3935171D01*
X25363374Y-4017890D01*
X25458525Y-4496244D01*
X25490179Y-4572666D01*
X25761146Y-4978195D01*
X25790391Y-5007440D01*
X25819636Y-5036686D01*
X26225165Y-5307652D01*
X26301587Y-5339306D01*
X26779941Y-5434458D01*
X26800823Y-5434458D01*
X26821300Y-5438531D01*
X35321300Y-5438531D01*
X35341781Y-5434457D01*
X35362659Y-5434457D01*
X35841014Y-5339306D01*
X35863397Y-5330035D01*
X35917435Y-5307652D01*
X36322964Y-5036685D01*
X36352209Y-5007440D01*
X36381455Y-4978195D01*
X36652421Y-4572666D01*
X36684075Y-4496244D01*
X36779227Y-4017890D01*
X36779227Y-3935172D01*
X36779227Y-3935171D01*
X39363374Y-3935171D01*
X39363374Y-4017890D01*
X39458525Y-4496244D01*
X39490179Y-4572666D01*
X39761146Y-4978195D01*
X39790391Y-5007440D01*
X39819636Y-5036686D01*
X40225165Y-5307652D01*
X40301587Y-5339306D01*
X40779941Y-5434458D01*
X40800823Y-5434458D01*
X40821300Y-5438531D01*
X51821300Y-5438531D01*
X51841781Y-5434457D01*
X51862659Y-5434457D01*
X52341014Y-5339306D01*
X52363397Y-5330035D01*
X52417435Y-5307652D01*
X52822964Y-5036685D01*
X52852209Y-5007440D01*
X52881455Y-4978195D01*
X53152421Y-4572666D01*
X53184075Y-4496244D01*
X53279227Y-4017890D01*
X53279227Y-3935172D01*
X53279227Y-3935171D01*
X55863374Y-3935171D01*
X55863374Y-4017890D01*
X55958525Y-4496244D01*
X55990179Y-4572666D01*
X56261146Y-4978195D01*
X56290391Y-5007440D01*
X56319636Y-5036686D01*
X56725165Y-5307652D01*
X56801587Y-5339306D01*
X57279941Y-5434458D01*
X57300823Y-5434458D01*
X57321300Y-5438531D01*
X65821300Y-5438531D01*
X65841781Y-5434457D01*
X65862659Y-5434457D01*
X66341014Y-5339306D01*
X66363397Y-5330035D01*
X66417435Y-5307652D01*
X66822964Y-5036685D01*
X66852209Y-5007440D01*
X66881455Y-4978195D01*
X67152421Y-4572666D01*
X67184075Y-4496244D01*
X67277142Y-4028371D01*
X70393299Y-4028371D01*
X70510296Y-4616555D01*
X70843476Y-5115194D01*
X71342115Y-5448374D01*
X71930299Y-5565371D01*
X72518483Y-5448374D01*
X73017122Y-5115194D01*
X73350302Y-4616555D01*
X73467299Y-4028371D01*
X73350302Y-3440187D01*
X73017122Y-2941548D01*
X72518483Y-2608368D01*
X71930299Y-2491371D01*
X71342115Y-2608368D01*
X70843476Y-2941548D01*
X70510296Y-3440187D01*
X70393299Y-4028371D01*
X67277142Y-4028371D01*
X67279227Y-4017890D01*
X67279227Y-3935172D01*
X67184075Y-3456818D01*
X67177186Y-3440187D01*
X67152421Y-3380396D01*
X66881455Y-2974867D01*
X66841044Y-2934457D01*
X66822964Y-2916377D01*
X66417435Y-2645410D01*
X66363397Y-2623027D01*
X66341014Y-2613756D01*
X65862659Y-2518605D01*
X65841781Y-2518605D01*
X65821300Y-2514531D01*
X57321300Y-2514531D01*
X57300823Y-2518604D01*
X57279941Y-2518604D01*
X56801587Y-2613756D01*
X56725165Y-2645410D01*
X56319636Y-2916376D01*
X56301556Y-2934457D01*
X56261146Y-2974867D01*
X55990179Y-3380396D01*
X55967796Y-3434434D01*
X55958525Y-3456817D01*
X55863374Y-3935171D01*
X53279227Y-3935171D01*
X53184075Y-3456818D01*
X53177186Y-3440187D01*
X53152421Y-3380396D01*
X52881455Y-2974867D01*
X52841044Y-2934457D01*
X52822964Y-2916377D01*
X52417435Y-2645410D01*
X52363397Y-2623027D01*
X52341014Y-2613756D01*
X51862659Y-2518605D01*
X51841781Y-2518605D01*
X51821300Y-2514531D01*
X40821300Y-2514531D01*
X40800823Y-2518604D01*
X40779941Y-2518604D01*
X40301587Y-2613756D01*
X40225165Y-2645410D01*
X39819636Y-2916376D01*
X39801556Y-2934457D01*
X39761146Y-2974867D01*
X39490179Y-3380396D01*
X39467796Y-3434434D01*
X39458525Y-3456817D01*
X39363374Y-3935171D01*
X36779227Y-3935171D01*
X36684075Y-3456818D01*
X36677186Y-3440187D01*
X36652421Y-3380396D01*
X36381455Y-2974867D01*
X36341044Y-2934457D01*
X36322964Y-2916377D01*
X35917435Y-2645410D01*
X35863397Y-2623027D01*
X35841014Y-2613756D01*
X35362659Y-2518605D01*
X35341781Y-2518605D01*
X35321300Y-2514531D01*
X26821300Y-2514531D01*
X26800823Y-2518604D01*
X26779941Y-2518604D01*
X26301587Y-2613756D01*
X26225165Y-2645410D01*
X25819636Y-2916376D01*
X25801556Y-2934457D01*
X25761146Y-2974867D01*
X25490179Y-3380396D01*
X25467796Y-3434434D01*
X25458525Y-3456817D01*
X25363374Y-3935171D01*
X22779227Y-3935171D01*
X22684075Y-3456818D01*
X22677186Y-3440187D01*
X22652421Y-3380396D01*
X22381455Y-2974867D01*
X22341044Y-2934457D01*
X22322964Y-2916377D01*
X21917435Y-2645410D01*
X21863397Y-2623027D01*
X21841014Y-2613756D01*
X21362659Y-2518605D01*
X21341781Y-2518605D01*
X21321300Y-2514531D01*
X10321300Y-2514531D01*
X10300823Y-2518604D01*
X10279941Y-2518604D01*
X9801587Y-2613756D01*
X9725165Y-2645410D01*
X9319636Y-2916376D01*
X9301556Y-2934457D01*
X9261146Y-2974867D01*
X8990179Y-3380396D01*
X8967796Y-3434434D01*
X8958525Y-3456817D01*
X8863374Y-3935171D01*
X5448761Y-3935171D01*
X5350302Y-3440187D01*
X5017122Y-2941548D01*
X4518483Y-2608368D01*
X3930299Y-2491371D01*
X3342115Y-2608368D01*
X2843476Y-2941548D01*
X2510296Y-3440187D01*
X2393299Y-4028371D01*
X122299Y-4028371D01*
X122299Y-2056867D01*
X266591Y-1331460D01*
X669856Y-727929D01*
X1273384Y-324664D01*
X1998793Y-180371D01*
X73961804Y-180371D01*
X74687211Y-324663D01*
X74687211Y-324663D01*
G37*
X74687211Y-324663D02*
X75290742Y-727928D01*
X75694007Y-1331459D01*
X75838299Y-2056866D01*
X75838299Y-9749876D01*
X75823411Y-9824723D01*
X75788660Y-9876731D01*
X75736651Y-9911483D01*
X75661804Y-9926371D01*
X74985298Y-9926371D01*
X74932870Y-9936800D01*
X74888424Y-9966497D01*
X74858727Y-10010943D01*
X74848298Y-10063371D01*
X74848299Y-24903371D01*
X74858728Y-24955799D01*
X74888425Y-25000245D01*
X74932871Y-25029942D01*
X74985299Y-25040371D01*
X75661804Y-25040371D01*
X75736651Y-25055259D01*
X75788660Y-25090011D01*
X75823411Y-25142019D01*
X75838299Y-25216866D01*
X75838299Y-32529876D01*
X75656707Y-33442800D01*
X75147225Y-34205294D01*
X74384728Y-34714779D01*
X73471794Y-34896373D01*
X1998785Y-34906369D01*
X1273387Y-34762079D01*
X669856Y-34358814D01*
X266591Y-33755283D01*
X122299Y-33029876D01*
X122299Y-31078371D01*
X2393299Y-31078371D01*
X2510296Y-31666555D01*
X2843476Y-32165194D01*
X3342115Y-32498374D01*
X3930299Y-32615371D01*
X4518483Y-32498374D01*
X5017122Y-32165194D01*
X5350302Y-31666555D01*
X5386381Y-31485171D01*
X10863374Y-31485171D01*
X10863374Y-31567890D01*
X10958525Y-32046244D01*
X10990179Y-32122666D01*
X11261146Y-32528195D01*
X11276322Y-32543371D01*
X11319636Y-32586686D01*
X11725165Y-32857652D01*
X11801587Y-32889306D01*
X12279941Y-32984458D01*
X12300823Y-32984458D01*
X12321300Y-32988531D01*
X22821300Y-32988531D01*
X22841781Y-32984457D01*
X22862659Y-32984457D01*
X23341014Y-32889306D01*
X23363397Y-32880035D01*
X23417435Y-32857652D01*
X23822964Y-32586685D01*
X23866278Y-32543371D01*
X23881455Y-32528195D01*
X24152421Y-32122666D01*
X24184075Y-32046244D01*
X24279227Y-31567890D01*
X24279227Y-31485172D01*
X24184075Y-31006818D01*
X24179308Y-30995309D01*
X24152421Y-30930396D01*
X23881455Y-30524867D01*
X23841044Y-30484457D01*
X23822964Y-30466377D01*
X23417435Y-30195410D01*
X23363397Y-30173027D01*
X23341014Y-30163756D01*
X22862659Y-30068605D01*
X22841781Y-30068605D01*
X22821300Y-30064531D01*
X12321300Y-30064531D01*
X12300823Y-30068604D01*
X12279941Y-30068604D01*
X11801587Y-30163756D01*
X11725165Y-30195410D01*
X11319636Y-30466376D01*
X11301556Y-30484457D01*
X11261146Y-30524867D01*
X10990179Y-30930396D01*
X10976609Y-30963158D01*
X10958525Y-31006817D01*
X10863374Y-31485171D01*
X5386381Y-31485171D01*
X5467299Y-31078371D01*
X5350302Y-30490187D01*
X5017122Y-29991548D01*
X4518483Y-29658368D01*
X3930299Y-29541371D01*
X3342115Y-29658368D01*
X2843476Y-29991548D01*
X2510296Y-30490187D01*
X2393299Y-31078371D01*
X122299Y-31078371D01*
X122299Y-25316866D01*
X137187Y-25242019D01*
X171939Y-25190010D01*
X223947Y-25155259D01*
X298794Y-25140371D01*
X975299Y-25140371D01*
X1027727Y-25129942D01*
X1072173Y-25100245D01*
X1101870Y-25055799D01*
X1112299Y-25003371D01*
X1112299Y-24935171D01*
X5363374Y-24935171D01*
X5363374Y-25017890D01*
X5458525Y-25496244D01*
X5490179Y-25572666D01*
X5761146Y-25978195D01*
X5779195Y-25996244D01*
X5819636Y-26036686D01*
X6225165Y-26307652D01*
X6301587Y-26339306D01*
X6779941Y-26434458D01*
X6800823Y-26434458D01*
X6821300Y-26438531D01*
X11821300Y-26438531D01*
X11841781Y-26434457D01*
X11862659Y-26434457D01*
X12341014Y-26339306D01*
X12363397Y-26330035D01*
X12417435Y-26307652D01*
X12822964Y-26036685D01*
X12863405Y-25996244D01*
X12881455Y-25978195D01*
X13152421Y-25572666D01*
X13184075Y-25496244D01*
X13279227Y-25017890D01*
X13279227Y-24935172D01*
X13184075Y-24456818D01*
X13184075Y-24456817D01*
X13152421Y-24380396D01*
X12881455Y-23974867D01*
X12841044Y-23934457D01*
X12822964Y-23916377D01*
X12417435Y-23645410D01*
X12363397Y-23623027D01*
X12341014Y-23613756D01*
X11862659Y-23518605D01*
X11841781Y-23518605D01*
X11821300Y-23514531D01*
X6821300Y-23514531D01*
X6800823Y-23518604D01*
X6779941Y-23518604D01*
X6301587Y-23613756D01*
X6225165Y-23645410D01*
X5819636Y-23916376D01*
X5801556Y-23934457D01*
X5761146Y-23974867D01*
X5490179Y-24380396D01*
X5475276Y-24416376D01*
X5458525Y-24456817D01*
X5363374Y-24935171D01*
X1112299Y-24935171D01*
X1112299Y-21470151D01*
X16794154Y-21470151D01*
X16794154Y-28170151D01*
X16797688Y-28187917D01*
X16797672Y-28204515D01*
X16842892Y-28433001D01*
X16856054Y-28464864D01*
X16869165Y-28496690D01*
X16998822Y-28691545D01*
X17047562Y-28740473D01*
X17047566Y-28740475D01*
X17241916Y-28870878D01*
X17241917Y-28870879D01*
X17279119Y-28886372D01*
X17305670Y-28897430D01*
X17305671Y-28897430D01*
X17535135Y-28943532D01*
X17553134Y-28943567D01*
X17571154Y-28947151D01*
X21921154Y-28947151D01*
X21944084Y-28942590D01*
X21955880Y-28942587D01*
X22185031Y-28896946D01*
X22185037Y-28896946D01*
X22222412Y-28881453D01*
X22248835Y-28870501D01*
X22248838Y-28870498D01*
X22443083Y-28740637D01*
X22491905Y-28691791D01*
X22491907Y-28691787D01*
X22621666Y-28497481D01*
X22621668Y-28497479D01*
X22648081Y-28433667D01*
X22693608Y-28204488D01*
X22693605Y-28193020D01*
X22698154Y-28170151D01*
X22698154Y-23470151D01*
X30744154Y-23470151D01*
X30744154Y-26250151D01*
X30747555Y-26267249D01*
X30747555Y-26284682D01*
X30785615Y-26476024D01*
X30785615Y-26476025D01*
X30812044Y-26539830D01*
X30920429Y-26702039D01*
X30969264Y-26750874D01*
X31131475Y-26859261D01*
X31131476Y-26859262D01*
X31168852Y-26874743D01*
X31195280Y-26885690D01*
X31195281Y-26885690D01*
X31386624Y-26923750D01*
X31404056Y-26923750D01*
X31421154Y-26927151D01*
X31744154Y-26927151D01*
X31744154Y-30870151D01*
X31747555Y-30887249D01*
X31747555Y-30904682D01*
X31785615Y-31096024D01*
X31785615Y-31096025D01*
X31812044Y-31159830D01*
X31920429Y-31322039D01*
X31969264Y-31370874D01*
X32131475Y-31479261D01*
X32131476Y-31479262D01*
X32168852Y-31494743D01*
X32195280Y-31505690D01*
X32195281Y-31505690D01*
X32386624Y-31543750D01*
X32404056Y-31543750D01*
X32421154Y-31547151D01*
X43621154Y-31547151D01*
X43638252Y-31543750D01*
X43655685Y-31543750D01*
X43847027Y-31505690D01*
X43847028Y-31505690D01*
X43896565Y-31485171D01*
X48863374Y-31485171D01*
X48863374Y-31567890D01*
X48958525Y-32046244D01*
X48990179Y-32122666D01*
X49261146Y-32528195D01*
X49276322Y-32543371D01*
X49319636Y-32586686D01*
X49725165Y-32857652D01*
X49801587Y-32889306D01*
X50279941Y-32984458D01*
X50300823Y-32984458D01*
X50321300Y-32988531D01*
X63821300Y-32988531D01*
X63841781Y-32984457D01*
X63862659Y-32984457D01*
X64341014Y-32889306D01*
X64363397Y-32880035D01*
X64417435Y-32857652D01*
X64822964Y-32586685D01*
X64866278Y-32543371D01*
X64881455Y-32528195D01*
X65152421Y-32122666D01*
X65184075Y-32046244D01*
X65279227Y-31567890D01*
X65279227Y-31485172D01*
X65203055Y-31102235D01*
X70368927Y-31102235D01*
X70485924Y-31690419D01*
X70819104Y-32189058D01*
X71317743Y-32522238D01*
X71905927Y-32639235D01*
X72494111Y-32522238D01*
X72992750Y-32189058D01*
X73325930Y-31690419D01*
X73442927Y-31102235D01*
X73325930Y-30514051D01*
X72992750Y-30015412D01*
X72494111Y-29682232D01*
X71905927Y-29565235D01*
X71317743Y-29682232D01*
X70819104Y-30015412D01*
X70485924Y-30514051D01*
X70368927Y-31102235D01*
X65203055Y-31102235D01*
X65184075Y-31006818D01*
X65179308Y-30995309D01*
X65152421Y-30930396D01*
X64881455Y-30524867D01*
X64841044Y-30484457D01*
X64822964Y-30466377D01*
X64417435Y-30195410D01*
X64363397Y-30173027D01*
X64341014Y-30163756D01*
X63862659Y-30068605D01*
X63841781Y-30068605D01*
X63821300Y-30064531D01*
X50321300Y-30064531D01*
X50300823Y-30068604D01*
X50279941Y-30068604D01*
X49801587Y-30163756D01*
X49725165Y-30195410D01*
X49319636Y-30466376D01*
X49301556Y-30484457D01*
X49261146Y-30524867D01*
X48990179Y-30930396D01*
X48976609Y-30963158D01*
X48958525Y-31006817D01*
X48863374Y-31485171D01*
X43896565Y-31485171D01*
X43910833Y-31479261D01*
X44073044Y-31370874D01*
X44121879Y-31322039D01*
X44230264Y-31159830D01*
X44230265Y-31159829D01*
X44245746Y-31122453D01*
X44256693Y-31096025D01*
X44256693Y-31096024D01*
X44294753Y-30904681D01*
X44294753Y-30887249D01*
X44298154Y-30870151D01*
X44298154Y-26927151D01*
X44471154Y-26927151D01*
X44488252Y-26923750D01*
X44505685Y-26923750D01*
X44697027Y-26885690D01*
X44697028Y-26885690D01*
X44760833Y-26859261D01*
X44923044Y-26750874D01*
X44971879Y-26702039D01*
X45080264Y-26539830D01*
X45080265Y-26539829D01*
X45105794Y-26478195D01*
X45106693Y-26476025D01*
X45106693Y-26476024D01*
X45144753Y-26284681D01*
X45144753Y-26267249D01*
X45148154Y-26250151D01*
X45148154Y-25970151D01*
X48959300Y-25970151D01*
X49093424Y-26644439D01*
X49475378Y-27216073D01*
X50047012Y-27598027D01*
X50721300Y-27732151D01*
X51395588Y-27598027D01*
X51967222Y-27216073D01*
X52349176Y-26644439D01*
X52483300Y-25970151D01*
X53608544Y-25970151D01*
X53742668Y-26644439D01*
X54124622Y-27216073D01*
X54696256Y-27598027D01*
X55370544Y-27732151D01*
X56044832Y-27598027D01*
X56616466Y-27216073D01*
X56998420Y-26644439D01*
X57132544Y-25970151D01*
X57026131Y-25435171D01*
X62363374Y-25435171D01*
X62363374Y-25517890D01*
X62458525Y-25996244D01*
X62490179Y-26072666D01*
X62761146Y-26478195D01*
X62788318Y-26505367D01*
X62819636Y-26536686D01*
X63225165Y-26807652D01*
X63301587Y-26839306D01*
X63779941Y-26934458D01*
X63800823Y-26934458D01*
X63821300Y-26938531D01*
X68821300Y-26938531D01*
X68841781Y-26934457D01*
X68862659Y-26934457D01*
X69341014Y-26839306D01*
X69363397Y-26830035D01*
X69417435Y-26807652D01*
X69822964Y-26536685D01*
X69854282Y-26505367D01*
X69881455Y-26478195D01*
X70152421Y-26072666D01*
X70184075Y-25996244D01*
X70279227Y-25517890D01*
X70279227Y-25435172D01*
X70184075Y-24956818D01*
X70182466Y-24952934D01*
X70152421Y-24880396D01*
X69881455Y-24474867D01*
X69841044Y-24434457D01*
X69822964Y-24416377D01*
X69417435Y-24145410D01*
X69363397Y-24123027D01*
X69341014Y-24113756D01*
X68862659Y-24018605D01*
X68841781Y-24018605D01*
X68821300Y-24014531D01*
X63821300Y-24014531D01*
X63800823Y-24018604D01*
X63779941Y-24018604D01*
X63301587Y-24113756D01*
X63225165Y-24145410D01*
X62819636Y-24416376D01*
X62801556Y-24434457D01*
X62761146Y-24474867D01*
X62490179Y-24880396D01*
X62470769Y-24927258D01*
X62458525Y-24956817D01*
X62363374Y-25435171D01*
X57026131Y-25435171D01*
X56998420Y-25295863D01*
X56616466Y-24724229D01*
X56044832Y-24342275D01*
X55370544Y-24208151D01*
X54696256Y-24342275D01*
X54124622Y-24724229D01*
X53742668Y-25295863D01*
X53608544Y-25970151D01*
X52483300Y-25970151D01*
X52349176Y-25295863D01*
X51967222Y-24724229D01*
X51395588Y-24342275D01*
X50721300Y-24208151D01*
X50047012Y-24342275D01*
X49475378Y-24724229D01*
X49093424Y-25295863D01*
X48959300Y-25970151D01*
X45148154Y-25970151D01*
X45148154Y-23470151D01*
X45144753Y-23453053D01*
X45144753Y-23435621D01*
X45106693Y-23244278D01*
X45080265Y-23180473D01*
X45080264Y-23180472D01*
X44971877Y-23018261D01*
X44923042Y-22969426D01*
X44760833Y-22861041D01*
X44697028Y-22834612D01*
X44697027Y-22834612D01*
X44505685Y-22796552D01*
X44488252Y-22796552D01*
X44471154Y-22793151D01*
X31421154Y-22793151D01*
X31404056Y-22796552D01*
X31386624Y-22796552D01*
X31195281Y-22834612D01*
X31195280Y-22834612D01*
X31170218Y-22844993D01*
X31131476Y-22861040D01*
X31131475Y-22861041D01*
X30969266Y-22969426D01*
X30920431Y-23018261D01*
X30812044Y-23180472D01*
X30812044Y-23180473D01*
X30785615Y-23244278D01*
X30747555Y-23435620D01*
X30747555Y-23453053D01*
X30744154Y-23470151D01*
X22698154Y-23470151D01*
X22698154Y-21470151D01*
X22695088Y-21454735D01*
X22695219Y-21436900D01*
X22652855Y-21215405D01*
X22640127Y-21184026D01*
X22627610Y-21152500D01*
X22500384Y-20955879D01*
X22452275Y-20906330D01*
X22452272Y-20906329D01*
X22409069Y-20876531D01*
X48959300Y-20876531D01*
X49093424Y-21550819D01*
X49475378Y-22122453D01*
X50047012Y-22504407D01*
X50721300Y-22638531D01*
X51395588Y-22504407D01*
X51967222Y-22122453D01*
X52349176Y-21550819D01*
X52483300Y-20876531D01*
X53609300Y-20876531D01*
X53743424Y-21550819D01*
X54125378Y-22122453D01*
X54697012Y-22504407D01*
X55371300Y-22638531D01*
X56045588Y-22504407D01*
X56617222Y-22122453D01*
X56999176Y-21550819D01*
X57133300Y-20876531D01*
X56999176Y-20202243D01*
X56617222Y-19630609D01*
X56045588Y-19248655D01*
X55371300Y-19114531D01*
X54697012Y-19248655D01*
X54125378Y-19630609D01*
X53743424Y-20202243D01*
X53609300Y-20876531D01*
X52483300Y-20876531D01*
X52349176Y-20202243D01*
X51967222Y-19630609D01*
X51395588Y-19248655D01*
X50721300Y-19114531D01*
X50047012Y-19248655D01*
X49475378Y-19630609D01*
X49093424Y-20202243D01*
X48959300Y-20876531D01*
X22409069Y-20876531D01*
X22259488Y-20773364D01*
X22196080Y-20745997D01*
X22196075Y-20745997D01*
X21967086Y-20696929D01*
X21937991Y-20696500D01*
X21921154Y-20693151D01*
X17571154Y-20693151D01*
X17559864Y-20695397D01*
X17536645Y-20695394D01*
X17306758Y-20741091D01*
X17306755Y-20741091D01*
X17306752Y-20741092D01*
X17306733Y-20741096D01*
X17276463Y-20753630D01*
X17242943Y-20767504D01*
X17047882Y-20897769D01*
X16999035Y-20946591D01*
X16999033Y-20946595D01*
X16868677Y-21141581D01*
X16868672Y-21141586D01*
X16853180Y-21178962D01*
X16842227Y-21205385D01*
X16842227Y-21205390D01*
X16796410Y-21435425D01*
X16796404Y-21458840D01*
X16794154Y-21470151D01*
X1112299Y-21470151D01*
X1112299Y-12549019D01*
X49458948Y-12549019D01*
X49474207Y-12626344D01*
X49474208Y-12626345D01*
X49957791Y-13798833D01*
X49957792Y-13798838D01*
X49963618Y-13807585D01*
X50001481Y-13864438D01*
X50001484Y-13864440D01*
X50896946Y-14762616D01*
X50896948Y-14762619D01*
X50923222Y-14780233D01*
X50962415Y-14806507D01*
X50962420Y-14806508D01*
X52133435Y-15293636D01*
X52133439Y-15293639D01*
X52210717Y-15309132D01*
X53479019Y-15311052D01*
X53556344Y-15295793D01*
X53556346Y-15295791D01*
X54728833Y-14812209D01*
X54728838Y-14812208D01*
X54768214Y-14785984D01*
X54794438Y-14768519D01*
X54794440Y-14768516D01*
X55692619Y-13873051D01*
X55692704Y-13872924D01*
X55692836Y-13872836D01*
X55714752Y-13840037D01*
X55736507Y-13807585D01*
X55736538Y-13807431D01*
X55736624Y-13807302D01*
X55744181Y-13769310D01*
X55752001Y-13730306D01*
X55751970Y-13730150D01*
X55752000Y-13730000D01*
X55752000Y-12549019D01*
X60458948Y-12549019D01*
X60474207Y-12626344D01*
X60474208Y-12626345D01*
X60957791Y-13798833D01*
X60957792Y-13798838D01*
X60963618Y-13807585D01*
X61001481Y-13864438D01*
X61001484Y-13864440D01*
X61896946Y-14762616D01*
X61896948Y-14762619D01*
X61923222Y-14780233D01*
X61962415Y-14806507D01*
X61962420Y-14806508D01*
X63133435Y-15293636D01*
X63133439Y-15293639D01*
X63210717Y-15309132D01*
X64479019Y-15311052D01*
X64556344Y-15295793D01*
X64556346Y-15295791D01*
X65728833Y-14812209D01*
X65728838Y-14812208D01*
X65768214Y-14785984D01*
X65794438Y-14768519D01*
X65794440Y-14768516D01*
X66692619Y-13873051D01*
X66692704Y-13872924D01*
X66692836Y-13872836D01*
X66714752Y-13840037D01*
X66736507Y-13807585D01*
X66736538Y-13807431D01*
X66736624Y-13807302D01*
X66744181Y-13769310D01*
X66752001Y-13730306D01*
X66751970Y-13730150D01*
X66752000Y-13730000D01*
X66752000Y-10110005D01*
X66752001Y-10110000D01*
X66736624Y-10032698D01*
X66692836Y-9967164D01*
X65802836Y-9077164D01*
X65769958Y-9055196D01*
X65737585Y-9033494D01*
X65737303Y-9033377D01*
X65737302Y-9033376D01*
X65737301Y-9033376D01*
X64566562Y-8546362D01*
X64566563Y-8546362D01*
X64566561Y-8546361D01*
X64504776Y-8533974D01*
X64489283Y-8530868D01*
X64489282Y-8530868D01*
X63220981Y-8528948D01*
X63143656Y-8544207D01*
X61971167Y-9027791D01*
X61971162Y-9027792D01*
X61905563Y-9071481D01*
X61007381Y-9966948D01*
X60963493Y-10032415D01*
X60963492Y-10032420D01*
X60476363Y-11203437D01*
X60476361Y-11203439D01*
X60460868Y-11280718D01*
X60458948Y-12549019D01*
X55752000Y-12549019D01*
X55752000Y-10110005D01*
X55752001Y-10110000D01*
X55736624Y-10032698D01*
X55692836Y-9967164D01*
X54802836Y-9077164D01*
X54769958Y-9055196D01*
X54737585Y-9033494D01*
X54737303Y-9033377D01*
X54737302Y-9033376D01*
X54737301Y-9033376D01*
X53566562Y-8546362D01*
X53566563Y-8546362D01*
X53566561Y-8546361D01*
X53504776Y-8533974D01*
X53489283Y-8530868D01*
X53489282Y-8530868D01*
X52220981Y-8528948D01*
X52143656Y-8544207D01*
X50971167Y-9027791D01*
X50971162Y-9027792D01*
X50905563Y-9071481D01*
X50007381Y-9966948D01*
X49963493Y-10032415D01*
X49963492Y-10032420D01*
X49476363Y-11203437D01*
X49476361Y-11203439D01*
X49460868Y-11280718D01*
X49458948Y-12549019D01*
X1112299Y-12549019D01*
X1112299Y-10163371D01*
X1101870Y-10110943D01*
X1072173Y-10066497D01*
X1027727Y-10036800D01*
X975299Y-10026371D01*
X298794Y-10026371D01*
X223947Y-10011483D01*
X171939Y-9976732D01*
X137187Y-9924723D01*
X122299Y-9849876D01*
X122299Y-4028371D01*
X2393299Y-4028371D01*
X2510296Y-4616555D01*
X2843476Y-5115194D01*
X3342115Y-5448374D01*
X3930299Y-5565371D01*
X4518483Y-5448374D01*
X5017122Y-5115194D01*
X5350302Y-4616555D01*
X5467299Y-4028371D01*
X5448761Y-3935171D01*
X8863374Y-3935171D01*
X8863374Y-4017890D01*
X8958525Y-4496244D01*
X8990179Y-4572666D01*
X9261146Y-4978195D01*
X9290391Y-5007440D01*
X9319636Y-5036686D01*
X9725165Y-5307652D01*
X9801587Y-5339306D01*
X10279941Y-5434458D01*
X10300823Y-5434458D01*
X10321300Y-5438531D01*
X21321300Y-5438531D01*
X21341781Y-5434457D01*
X21362659Y-5434457D01*
X21841014Y-5339306D01*
X21863397Y-5330035D01*
X21917435Y-5307652D01*
X22322964Y-5036685D01*
X22352209Y-5007440D01*
X22381455Y-4978195D01*
X22652421Y-4572666D01*
X22684075Y-4496244D01*
X22779227Y-4017890D01*
X22779227Y-3935172D01*
X22779227Y-3935171D01*
X25363374Y-3935171D01*
X25363374Y-4017890D01*
X25458525Y-4496244D01*
X25490179Y-4572666D01*
X25761146Y-4978195D01*
X25790391Y-5007440D01*
X25819636Y-5036686D01*
X26225165Y-5307652D01*
X26301587Y-5339306D01*
X26779941Y-5434458D01*
X26800823Y-5434458D01*
X26821300Y-5438531D01*
X35321300Y-5438531D01*
X35341781Y-5434457D01*
X35362659Y-5434457D01*
X35841014Y-5339306D01*
X35863397Y-5330035D01*
X35917435Y-5307652D01*
X36322964Y-5036685D01*
X36352209Y-5007440D01*
X36381455Y-4978195D01*
X36652421Y-4572666D01*
X36684075Y-4496244D01*
X36779227Y-4017890D01*
X36779227Y-3935172D01*
X36779227Y-3935171D01*
X39363374Y-3935171D01*
X39363374Y-4017890D01*
X39458525Y-4496244D01*
X39490179Y-4572666D01*
X39761146Y-4978195D01*
X39790391Y-5007440D01*
X39819636Y-5036686D01*
X40225165Y-5307652D01*
X40301587Y-5339306D01*
X40779941Y-5434458D01*
X40800823Y-5434458D01*
X40821300Y-5438531D01*
X51821300Y-5438531D01*
X51841781Y-5434457D01*
X51862659Y-5434457D01*
X52341014Y-5339306D01*
X52363397Y-5330035D01*
X52417435Y-5307652D01*
X52822964Y-5036685D01*
X52852209Y-5007440D01*
X52881455Y-4978195D01*
X53152421Y-4572666D01*
X53184075Y-4496244D01*
X53279227Y-4017890D01*
X53279227Y-3935172D01*
X53279227Y-3935171D01*
X55863374Y-3935171D01*
X55863374Y-4017890D01*
X55958525Y-4496244D01*
X55990179Y-4572666D01*
X56261146Y-4978195D01*
X56290391Y-5007440D01*
X56319636Y-5036686D01*
X56725165Y-5307652D01*
X56801587Y-5339306D01*
X57279941Y-5434458D01*
X57300823Y-5434458D01*
X57321300Y-5438531D01*
X65821300Y-5438531D01*
X65841781Y-5434457D01*
X65862659Y-5434457D01*
X66341014Y-5339306D01*
X66363397Y-5330035D01*
X66417435Y-5307652D01*
X66822964Y-5036685D01*
X66852209Y-5007440D01*
X66881455Y-4978195D01*
X67152421Y-4572666D01*
X67184075Y-4496244D01*
X67277142Y-4028371D01*
X70393299Y-4028371D01*
X70510296Y-4616555D01*
X70843476Y-5115194D01*
X71342115Y-5448374D01*
X71930299Y-5565371D01*
X72518483Y-5448374D01*
X73017122Y-5115194D01*
X73350302Y-4616555D01*
X73467299Y-4028371D01*
X73350302Y-3440187D01*
X73017122Y-2941548D01*
X72518483Y-2608368D01*
X71930299Y-2491371D01*
X71342115Y-2608368D01*
X70843476Y-2941548D01*
X70510296Y-3440187D01*
X70393299Y-4028371D01*
X67277142Y-4028371D01*
X67279227Y-4017890D01*
X67279227Y-3935172D01*
X67184075Y-3456818D01*
X67177186Y-3440187D01*
X67152421Y-3380396D01*
X66881455Y-2974867D01*
X66841044Y-2934457D01*
X66822964Y-2916377D01*
X66417435Y-2645410D01*
X66363397Y-2623027D01*
X66341014Y-2613756D01*
X65862659Y-2518605D01*
X65841781Y-2518605D01*
X65821300Y-2514531D01*
X57321300Y-2514531D01*
X57300823Y-2518604D01*
X57279941Y-2518604D01*
X56801587Y-2613756D01*
X56725165Y-2645410D01*
X56319636Y-2916376D01*
X56301556Y-2934457D01*
X56261146Y-2974867D01*
X55990179Y-3380396D01*
X55967796Y-3434434D01*
X55958525Y-3456817D01*
X55863374Y-3935171D01*
X53279227Y-3935171D01*
X53184075Y-3456818D01*
X53177186Y-3440187D01*
X53152421Y-3380396D01*
X52881455Y-2974867D01*
X52841044Y-2934457D01*
X52822964Y-2916377D01*
X52417435Y-2645410D01*
X52363397Y-2623027D01*
X52341014Y-2613756D01*
X51862659Y-2518605D01*
X51841781Y-2518605D01*
X51821300Y-2514531D01*
X40821300Y-2514531D01*
X40800823Y-2518604D01*
X40779941Y-2518604D01*
X40301587Y-2613756D01*
X40225165Y-2645410D01*
X39819636Y-2916376D01*
X39801556Y-2934457D01*
X39761146Y-2974867D01*
X39490179Y-3380396D01*
X39467796Y-3434434D01*
X39458525Y-3456817D01*
X39363374Y-3935171D01*
X36779227Y-3935171D01*
X36684075Y-3456818D01*
X36677186Y-3440187D01*
X36652421Y-3380396D01*
X36381455Y-2974867D01*
X36341044Y-2934457D01*
X36322964Y-2916377D01*
X35917435Y-2645410D01*
X35863397Y-2623027D01*
X35841014Y-2613756D01*
X35362659Y-2518605D01*
X35341781Y-2518605D01*
X35321300Y-2514531D01*
X26821300Y-2514531D01*
X26800823Y-2518604D01*
X26779941Y-2518604D01*
X26301587Y-2613756D01*
X26225165Y-2645410D01*
X25819636Y-2916376D01*
X25801556Y-2934457D01*
X25761146Y-2974867D01*
X25490179Y-3380396D01*
X25467796Y-3434434D01*
X25458525Y-3456817D01*
X25363374Y-3935171D01*
X22779227Y-3935171D01*
X22684075Y-3456818D01*
X22677186Y-3440187D01*
X22652421Y-3380396D01*
X22381455Y-2974867D01*
X22341044Y-2934457D01*
X22322964Y-2916377D01*
X21917435Y-2645410D01*
X21863397Y-2623027D01*
X21841014Y-2613756D01*
X21362659Y-2518605D01*
X21341781Y-2518605D01*
X21321300Y-2514531D01*
X10321300Y-2514531D01*
X10300823Y-2518604D01*
X10279941Y-2518604D01*
X9801587Y-2613756D01*
X9725165Y-2645410D01*
X9319636Y-2916376D01*
X9301556Y-2934457D01*
X9261146Y-2974867D01*
X8990179Y-3380396D01*
X8967796Y-3434434D01*
X8958525Y-3456817D01*
X8863374Y-3935171D01*
X5448761Y-3935171D01*
X5350302Y-3440187D01*
X5017122Y-2941548D01*
X4518483Y-2608368D01*
X3930299Y-2491371D01*
X3342115Y-2608368D01*
X2843476Y-2941548D01*
X2510296Y-3440187D01*
X2393299Y-4028371D01*
X122299Y-4028371D01*
X122299Y-2056867D01*
X266591Y-1331460D01*
X669856Y-727929D01*
X1273384Y-324664D01*
X1998793Y-180371D01*
X73961804Y-180371D01*
X74687211Y-324663D01*
M02*
