G04 #@! TF.GenerationSoftware,KiCad,Pcbnew,(2017-06-07 revision 51bed4bae)-makepkg*
G04 #@! TF.CreationDate,2017-06-10T23:55:19+02:00*
G04 #@! TF.ProjectId,Rear_Panel_76x35,526561725F50616E656C5F3736783335,rev?*
G04 #@! TF.FileFunction,Legend,Bot*
G04 #@! TF.FilePolarity,Positive*
%FSLAX46Y46*%
G04 Gerber Fmt 4.6, Leading zero omitted, Abs format (unit mm)*
G04 Created by KiCad (PCBNEW (2017-06-07 revision 51bed4bae)-makepkg) date 06/10/17 23:55:19*
%MOMM*%
%LPD*%
G01*
G04 APERTURE LIST*
%ADD10C,0.150000*%
%ADD11C,0.300000*%
%ADD12C,0.500000*%
%ADD13C,0.800000*%
%ADD14C,3.000000*%
%ADD15C,0.700000*%
%ADD16C,1.350000*%
G04 APERTURE END LIST*
D10*
D11*
X44135826Y-11679625D02*
X45335826Y-12679625D01*
X44135826Y-11660151D02*
X45335826Y-10679625D01*
X47535826Y-10879625D02*
X47535826Y-12479625D01*
X47535826Y-11679625D02*
X44135826Y-11679625D01*
D12*
X23385725Y-19179015D02*
G75*
G02X25435826Y-21279625I101J-2050610D01*
G01*
X25435826Y-21279625D02*
X25435826Y-27779625D01*
X25435826Y-27779625D02*
G75*
G02X23435826Y-29779625I-2000000J0D01*
G01*
X47540544Y-8660151D02*
G75*
G02X49641154Y-6610151I2050610J0D01*
G01*
D11*
X69135826Y-10879625D02*
X69135826Y-12579625D01*
X69135826Y-11660151D02*
X70335826Y-10679625D01*
X72535826Y-11679625D02*
X69135826Y-11679625D01*
X69135826Y-11679625D02*
X70335826Y-12679625D01*
D12*
X47540544Y-8660151D02*
X47540544Y-9609541D01*
X69101154Y-8710761D02*
X69101154Y-9660151D01*
X69101154Y-13610761D02*
X69101154Y-15560151D01*
X47550544Y-13560151D02*
X47550544Y-15560151D01*
X49600544Y-17610761D02*
G75*
G02X47549934Y-15560151I0J2050610D01*
G01*
X69101154Y-15560151D02*
G75*
G02X67000544Y-17610151I-2050610J0D01*
G01*
X55100544Y-17610151D02*
X49650544Y-17610151D01*
D11*
X59392728Y-17422482D02*
X59478442Y-17508196D01*
X59735585Y-17593910D01*
X59907014Y-17593910D01*
X60164157Y-17508196D01*
X60335585Y-17336767D01*
X60421300Y-17165339D01*
X60507014Y-16822482D01*
X60507014Y-16565339D01*
X60421300Y-16222482D01*
X60335585Y-16051053D01*
X60164157Y-15879625D01*
X59907014Y-15793910D01*
X59735585Y-15793910D01*
X59478442Y-15879625D01*
X59392728Y-15965339D01*
X57764157Y-17593910D02*
X58621300Y-17593910D01*
X58621300Y-15793910D01*
X57164157Y-17593910D02*
X57164157Y-15793910D01*
X56135585Y-17593910D02*
X56907014Y-16565339D01*
X56135585Y-15793910D02*
X57164157Y-16822482D01*
D12*
X67000544Y-17610151D02*
X61600544Y-17610151D01*
D10*
X23488206Y-21693910D02*
X23488206Y-21522482D01*
X23535826Y-21436767D01*
X23583445Y-21393910D01*
X23726302Y-21308196D01*
X23916778Y-21265339D01*
X24297730Y-21265339D01*
X24392968Y-21308196D01*
X24440587Y-21351053D01*
X24488206Y-21436767D01*
X24488206Y-21608196D01*
X24440587Y-21693910D01*
X24392968Y-21736767D01*
X24297730Y-21779625D01*
X24059635Y-21779625D01*
X23964397Y-21736767D01*
X23916778Y-21693910D01*
X23869159Y-21608196D01*
X23869159Y-21436767D01*
X23916778Y-21351053D01*
X23964397Y-21308196D01*
X24059635Y-21265339D01*
X24107254Y-22165339D02*
X24107254Y-22851053D01*
X24488206Y-23751053D02*
X24488206Y-23236767D01*
X24488206Y-23493910D02*
X23488206Y-23493910D01*
X23631064Y-23408196D01*
X23726302Y-23322482D01*
X23773921Y-23236767D01*
X23583445Y-24093910D02*
X23535826Y-24136767D01*
X23488206Y-24222482D01*
X23488206Y-24436767D01*
X23535826Y-24522482D01*
X23583445Y-24565339D01*
X23678683Y-24608196D01*
X23773921Y-24608196D01*
X23916778Y-24565339D01*
X24488206Y-24051053D01*
X24488206Y-24608196D01*
X23488206Y-24865339D02*
X24488206Y-25165339D01*
X23488206Y-25465339D01*
X24488206Y-26922482D02*
X24488206Y-26408196D01*
X24488206Y-26665339D02*
X23488206Y-26665339D01*
X23631064Y-26579625D01*
X23726302Y-26493910D01*
X23773921Y-26408196D01*
X24202492Y-27265339D02*
X24202492Y-27693910D01*
X24488206Y-27179625D02*
X23488206Y-27479625D01*
X24488206Y-27779625D01*
D12*
X34021300Y-19226531D02*
X31821300Y-19226531D01*
X44120544Y-19209541D02*
X42370544Y-19209541D01*
X46171764Y-30670151D02*
G75*
G02X44071154Y-32720151I-2050610J0D01*
G01*
X31781255Y-32720151D02*
G75*
G02X29731154Y-30619541I-101J2050610D01*
G01*
X31771300Y-32726531D02*
X44071300Y-32726531D01*
X29721154Y-30720151D02*
X29721154Y-21320151D01*
X29721154Y-21320151D02*
G75*
G02X31821300Y-19226531I2050146J43620D01*
G01*
X44120544Y-19209541D02*
G75*
G02X46170544Y-21310151I0J-2050610D01*
G01*
X46171154Y-30690151D02*
X46170544Y-21310151D01*
X13935826Y-27679625D02*
X13935826Y-21179625D01*
X13935826Y-21179625D02*
G75*
G02X15935826Y-19179625I2000000J0D01*
G01*
X15985927Y-29780235D02*
G75*
G02X13935826Y-27679625I-101J2050610D01*
G01*
X15985927Y-29780235D02*
X23401154Y-29780235D01*
D11*
X22205712Y-20038127D02*
X22205712Y-18238127D01*
X21519997Y-18238127D01*
X21348569Y-18323842D01*
X21262854Y-18409556D01*
X21177140Y-18580984D01*
X21177140Y-18838127D01*
X21262854Y-19009556D01*
X21348569Y-19095270D01*
X21519997Y-19180984D01*
X22205712Y-19180984D01*
X20577140Y-18238127D02*
X20148569Y-20038127D01*
X19805712Y-18752413D01*
X19462854Y-20038127D01*
X19034283Y-18238127D01*
X17319997Y-20038127D02*
X17919997Y-19180984D01*
X18348569Y-20038127D02*
X18348569Y-18238127D01*
X17662854Y-18238127D01*
X17491426Y-18323842D01*
X17405712Y-18409556D01*
X17319997Y-18580984D01*
X17319997Y-18838127D01*
X17405712Y-19009556D01*
X17491426Y-19095270D01*
X17662854Y-19180984D01*
X18348569Y-19180984D01*
X40392582Y-18316520D02*
X40392582Y-19773663D01*
X40306868Y-19945092D01*
X40221154Y-20030806D01*
X40049725Y-20116520D01*
X39706868Y-20116520D01*
X39535439Y-20030806D01*
X39449725Y-19945092D01*
X39364011Y-19773663D01*
X39364011Y-18316520D01*
X38592582Y-20030806D02*
X38335439Y-20116520D01*
X37906868Y-20116520D01*
X37735439Y-20030806D01*
X37649725Y-19945092D01*
X37564011Y-19773663D01*
X37564011Y-19602235D01*
X37649725Y-19430806D01*
X37735439Y-19345092D01*
X37906868Y-19259377D01*
X38249725Y-19173663D01*
X38421154Y-19087949D01*
X38506868Y-19002235D01*
X38592582Y-18830806D01*
X38592582Y-18659377D01*
X38506868Y-18487949D01*
X38421154Y-18402235D01*
X38249725Y-18316520D01*
X37821154Y-18316520D01*
X37564011Y-18402235D01*
X36192582Y-19173663D02*
X35935439Y-19259377D01*
X35849725Y-19345092D01*
X35764011Y-19516520D01*
X35764011Y-19773663D01*
X35849725Y-19945092D01*
X35935439Y-20030806D01*
X36106868Y-20116520D01*
X36792582Y-20116520D01*
X36792582Y-18316520D01*
X36192582Y-18316520D01*
X36021154Y-18402235D01*
X35935439Y-18487949D01*
X35849725Y-18659377D01*
X35849725Y-18830806D01*
X35935439Y-19002235D01*
X36021154Y-19087949D01*
X36192582Y-19173663D01*
X36792582Y-19173663D01*
D12*
X67051154Y-6610151D02*
X49641154Y-6610151D01*
X67051154Y-6610151D02*
G75*
G02X69101154Y-8710761I0J-2050610D01*
G01*
D10*
X14985826Y-23879625D02*
G75*
G02X15635826Y-23229625I650000J0D01*
G01*
X15635826Y-23229625D02*
G75*
G02X16285826Y-23879625I0J-650000D01*
G01*
X15635826Y-23229625D02*
X15635826Y-22679625D01*
X16285826Y-22029625D02*
G75*
G03X16285826Y-22029625I-650000J0D01*
G01*
X16285826Y-25729625D02*
G75*
G03X16285826Y-25729625I-650000J0D01*
G01*
X15635826Y-25079625D02*
X15635826Y-24179625D01*
D11*
X15735826Y-23879625D02*
G75*
G03X15735826Y-23879625I-100000J0D01*
G01*
X15835826Y-23879625D02*
G75*
G03X15835826Y-23879625I-200000J0D01*
G01*
D10*
X15085826Y-24229625D02*
G75*
G02X15285826Y-23329625I550000J350000D01*
G01*
X15985826Y-23329625D02*
G75*
G02X16185826Y-24229625I-350000J-550000D01*
G01*
X15635826Y-21679625D02*
X15635826Y-22379625D01*
X15635826Y-25379625D02*
X15635826Y-26079625D01*
X15985826Y-25729625D02*
X15285826Y-25729625D01*
%LPC*%
D13*
X73735299Y-4023371D02*
G75*
G03X73735299Y-4023371I-1800000J0D01*
G01*
X73715299Y-31103371D02*
G75*
G03X73715299Y-31103371I-1800000J0D01*
G01*
X5725299Y-31073371D02*
G75*
G03X5725299Y-31073371I-1800000J0D01*
G01*
X5735299Y-4033371D02*
G75*
G03X5735299Y-4033371I-1800000J0D01*
G01*
D14*
X55510000Y-11920000D02*
G75*
G03X55510000Y-11920000I-2660000J0D01*
G01*
D15*
X55780000Y-10080000D02*
X55780000Y-13770000D01*
D16*
X56680000Y-11920000D02*
G75*
G03X56680000Y-11920000I-3830000J0D01*
G01*
X67680000Y-11920000D02*
G75*
G03X67680000Y-11920000I-3830000J0D01*
G01*
D15*
X66780000Y-10080000D02*
X66780000Y-13770000D01*
D14*
X66510000Y-11920000D02*
G75*
G03X66510000Y-11920000I-2660000J0D01*
G01*
M02*
