G04 #@! TF.GenerationSoftware,KiCad,Pcbnew,(2017-06-07 revision 51bed4bae)-makepkg*
G04 #@! TF.CreationDate,2017-06-10T23:55:19+02:00*
G04 #@! TF.ProjectId,Rear_Panel_76x35,526561725F50616E656C5F3736783335,rev?*
G04 #@! TF.FileFunction,Legend,Top*
G04 #@! TF.FilePolarity,Positive*
%FSLAX46Y46*%
G04 Gerber Fmt 4.6, Leading zero omitted, Abs format (unit mm)*
G04 Created by KiCad (PCBNEW (2017-06-07 revision 51bed4bae)-makepkg) date 06/10/17 23:55:19*
%MOMM*%
%LPD*%
G01*
G04 APERTURE LIST*
%ADD10C,0.150000*%
%ADD11C,0.100000*%
%ADD12C,0.700000*%
%ADD13C,1.350000*%
%ADD14C,3.000000*%
%ADD15C,0.254000*%
G04 APERTURE END LIST*
D10*
D11*
X7243571Y-8232380D02*
X6943571Y-7756190D01*
X6729285Y-8232380D02*
X6729285Y-7232380D01*
X7072142Y-7232380D01*
X7157857Y-7280000D01*
X7200714Y-7327619D01*
X7243571Y-7422857D01*
X7243571Y-7565714D01*
X7200714Y-7660952D01*
X7157857Y-7708571D01*
X7072142Y-7756190D01*
X6729285Y-7756190D01*
X7929285Y-7708571D02*
X7629285Y-7708571D01*
X7629285Y-8232380D02*
X7629285Y-7232380D01*
X8057857Y-7232380D01*
X8957857Y-7232380D02*
X9472142Y-7232380D01*
X9215000Y-8232380D02*
X9215000Y-7232380D01*
X9772142Y-8232380D02*
X9772142Y-7565714D01*
X9772142Y-7756190D02*
X9815000Y-7660952D01*
X9857857Y-7613333D01*
X9943571Y-7565714D01*
X10029285Y-7565714D01*
X10715000Y-8232380D02*
X10715000Y-7708571D01*
X10672142Y-7613333D01*
X10586428Y-7565714D01*
X10415000Y-7565714D01*
X10329285Y-7613333D01*
X10715000Y-8184761D02*
X10629285Y-8232380D01*
X10415000Y-8232380D01*
X10329285Y-8184761D01*
X10286428Y-8089523D01*
X10286428Y-7994285D01*
X10329285Y-7899047D01*
X10415000Y-7851428D01*
X10629285Y-7851428D01*
X10715000Y-7803809D01*
X11143571Y-7565714D02*
X11143571Y-8232380D01*
X11143571Y-7660952D02*
X11186428Y-7613333D01*
X11272142Y-7565714D01*
X11400714Y-7565714D01*
X11486428Y-7613333D01*
X11529285Y-7708571D01*
X11529285Y-8232380D01*
X11915000Y-8184761D02*
X12000714Y-8232380D01*
X12172142Y-8232380D01*
X12257857Y-8184761D01*
X12300714Y-8089523D01*
X12300714Y-8041904D01*
X12257857Y-7946666D01*
X12172142Y-7899047D01*
X12043571Y-7899047D01*
X11957857Y-7851428D01*
X11915000Y-7756190D01*
X11915000Y-7708571D01*
X11957857Y-7613333D01*
X12043571Y-7565714D01*
X12172142Y-7565714D01*
X12257857Y-7613333D01*
X13072142Y-8184761D02*
X12986428Y-8232380D01*
X12815000Y-8232380D01*
X12729285Y-8184761D01*
X12686428Y-8137142D01*
X12643571Y-8041904D01*
X12643571Y-7756190D01*
X12686428Y-7660952D01*
X12729285Y-7613333D01*
X12815000Y-7565714D01*
X12986428Y-7565714D01*
X13072142Y-7613333D01*
X13800714Y-8184761D02*
X13715000Y-8232380D01*
X13543571Y-8232380D01*
X13457857Y-8184761D01*
X13415000Y-8089523D01*
X13415000Y-7708571D01*
X13457857Y-7613333D01*
X13543571Y-7565714D01*
X13715000Y-7565714D01*
X13800714Y-7613333D01*
X13843571Y-7708571D01*
X13843571Y-7803809D01*
X13415000Y-7899047D01*
X14229285Y-8232380D02*
X14229285Y-7565714D01*
X14229285Y-7232380D02*
X14186428Y-7280000D01*
X14229285Y-7327619D01*
X14272142Y-7280000D01*
X14229285Y-7232380D01*
X14229285Y-7327619D01*
X14572142Y-7565714D02*
X14786428Y-8232380D01*
X15000714Y-7565714D01*
X15686428Y-8184761D02*
X15600714Y-8232380D01*
X15429285Y-8232380D01*
X15343571Y-8184761D01*
X15300714Y-8089523D01*
X15300714Y-7708571D01*
X15343571Y-7613333D01*
X15429285Y-7565714D01*
X15600714Y-7565714D01*
X15686428Y-7613333D01*
X15729285Y-7708571D01*
X15729285Y-7803809D01*
X15300714Y-7899047D01*
X16115000Y-8232380D02*
X16115000Y-7565714D01*
X16115000Y-7756190D02*
X16157857Y-7660952D01*
X16200714Y-7613333D01*
X16286428Y-7565714D01*
X16372142Y-7565714D01*
X16672142Y-8137142D02*
X16715000Y-8184761D01*
X16672142Y-8232380D01*
X16629285Y-8184761D01*
X16672142Y-8137142D01*
X16672142Y-8232380D01*
X16672142Y-7613333D02*
X16715000Y-7660952D01*
X16672142Y-7708571D01*
X16629285Y-7660952D01*
X16672142Y-7613333D01*
X16672142Y-7708571D01*
X18215000Y-8232380D02*
X17786428Y-8232380D01*
X17786428Y-7232380D01*
X18515000Y-8232380D02*
X18515000Y-7565714D01*
X18515000Y-7232380D02*
X18472142Y-7280000D01*
X18515000Y-7327619D01*
X18557857Y-7280000D01*
X18515000Y-7232380D01*
X18515000Y-7327619D01*
X18943571Y-8232380D02*
X18943571Y-7565714D01*
X18943571Y-7660952D02*
X18986428Y-7613333D01*
X19072142Y-7565714D01*
X19200714Y-7565714D01*
X19286428Y-7613333D01*
X19329285Y-7708571D01*
X19329285Y-8232380D01*
X19329285Y-7708571D02*
X19372142Y-7613333D01*
X19457857Y-7565714D01*
X19586428Y-7565714D01*
X19672142Y-7613333D01*
X19715000Y-7708571D01*
X19715000Y-8232380D01*
X20486428Y-8184761D02*
X20400714Y-8232380D01*
X20229285Y-8232380D01*
X20143571Y-8184761D01*
X20100714Y-8089523D01*
X20100714Y-7708571D01*
X20143571Y-7613333D01*
X20229285Y-7565714D01*
X20400714Y-7565714D01*
X20486428Y-7613333D01*
X20529285Y-7708571D01*
X20529285Y-7803809D01*
X20100714Y-7899047D01*
X21600714Y-8232380D02*
X21600714Y-7232380D01*
X21900714Y-7946666D01*
X22200714Y-7232380D01*
X22200714Y-8232380D01*
X22629285Y-8232380D02*
X22629285Y-7565714D01*
X22629285Y-7232380D02*
X22586428Y-7280000D01*
X22629285Y-7327619D01*
X22672142Y-7280000D01*
X22629285Y-7232380D01*
X22629285Y-7327619D01*
X23443571Y-8184761D02*
X23357857Y-8232380D01*
X23186428Y-8232380D01*
X23100714Y-8184761D01*
X23057857Y-8137142D01*
X23015000Y-8041904D01*
X23015000Y-7756190D01*
X23057857Y-7660952D01*
X23100714Y-7613333D01*
X23186428Y-7565714D01*
X23357857Y-7565714D01*
X23443571Y-7613333D01*
X23829285Y-8232380D02*
X23829285Y-7565714D01*
X23829285Y-7756190D02*
X23872142Y-7660952D01*
X23915000Y-7613333D01*
X24000714Y-7565714D01*
X24086428Y-7565714D01*
X24515000Y-8232380D02*
X24429285Y-8184761D01*
X24386428Y-8137142D01*
X24343571Y-8041904D01*
X24343571Y-7756190D01*
X24386428Y-7660952D01*
X24429285Y-7613333D01*
X24515000Y-7565714D01*
X24643571Y-7565714D01*
X24729285Y-7613333D01*
X24772142Y-7660952D01*
X24815000Y-7756190D01*
X24815000Y-8041904D01*
X24772142Y-8137142D01*
X24729285Y-8184761D01*
X24643571Y-8232380D01*
X24515000Y-8232380D01*
X25157857Y-8184761D02*
X25243571Y-8232380D01*
X25415000Y-8232380D01*
X25500714Y-8184761D01*
X25543571Y-8089523D01*
X25543571Y-8041904D01*
X25500714Y-7946666D01*
X25415000Y-7899047D01*
X25286428Y-7899047D01*
X25200714Y-7851428D01*
X25157857Y-7756190D01*
X25157857Y-7708571D01*
X25200714Y-7613333D01*
X25286428Y-7565714D01*
X25415000Y-7565714D01*
X25500714Y-7613333D01*
X25843571Y-7565714D02*
X26057857Y-8232380D01*
X26272142Y-7565714D02*
X26057857Y-8232380D01*
X25972142Y-8470476D01*
X25929285Y-8518095D01*
X25843571Y-8565714D01*
X26572142Y-8184761D02*
X26657857Y-8232380D01*
X26829285Y-8232380D01*
X26915000Y-8184761D01*
X26957857Y-8089523D01*
X26957857Y-8041904D01*
X26915000Y-7946666D01*
X26829285Y-7899047D01*
X26700714Y-7899047D01*
X26615000Y-7851428D01*
X26572142Y-7756190D01*
X26572142Y-7708571D01*
X26615000Y-7613333D01*
X26700714Y-7565714D01*
X26829285Y-7565714D01*
X26915000Y-7613333D01*
X27215000Y-7565714D02*
X27557857Y-7565714D01*
X27343571Y-7232380D02*
X27343571Y-8089523D01*
X27386428Y-8184761D01*
X27472142Y-8232380D01*
X27557857Y-8232380D01*
X28200714Y-8184761D02*
X28115000Y-8232380D01*
X27943571Y-8232380D01*
X27857857Y-8184761D01*
X27815000Y-8089523D01*
X27815000Y-7708571D01*
X27857857Y-7613333D01*
X27943571Y-7565714D01*
X28115000Y-7565714D01*
X28200714Y-7613333D01*
X28243571Y-7708571D01*
X28243571Y-7803809D01*
X27815000Y-7899047D01*
X28629285Y-8232380D02*
X28629285Y-7565714D01*
X28629285Y-7660952D02*
X28672142Y-7613333D01*
X28757857Y-7565714D01*
X28886428Y-7565714D01*
X28972142Y-7613333D01*
X29015000Y-7708571D01*
X29015000Y-8232380D01*
X29015000Y-7708571D02*
X29057857Y-7613333D01*
X29143571Y-7565714D01*
X29272142Y-7565714D01*
X29357857Y-7613333D01*
X29400714Y-7708571D01*
X29400714Y-8232380D01*
X29786428Y-8184761D02*
X29872142Y-8232380D01*
X30043571Y-8232380D01*
X30129285Y-8184761D01*
X30172142Y-8089523D01*
X30172142Y-8041904D01*
X30129285Y-7946666D01*
X30043571Y-7899047D01*
X29915000Y-7899047D01*
X29829285Y-7851428D01*
X29786428Y-7756190D01*
X29786428Y-7708571D01*
X29829285Y-7613333D01*
X29915000Y-7565714D01*
X30043571Y-7565714D01*
X30129285Y-7613333D01*
X31672142Y-8232380D02*
X31243571Y-8232380D01*
X31243571Y-7232380D01*
X31972142Y-8232380D02*
X31972142Y-7232380D01*
X32272142Y-7946666D01*
X32572142Y-7232380D01*
X32572142Y-8232380D01*
X32957857Y-8184761D02*
X33086428Y-8232380D01*
X33300714Y-8232380D01*
X33386428Y-8184761D01*
X33429285Y-8137142D01*
X33472142Y-8041904D01*
X33472142Y-7946666D01*
X33429285Y-7851428D01*
X33386428Y-7803809D01*
X33300714Y-7756190D01*
X33129285Y-7708571D01*
X33043571Y-7660952D01*
X33000714Y-7613333D01*
X32957857Y-7518095D01*
X32957857Y-7422857D01*
X33000714Y-7327619D01*
X33043571Y-7280000D01*
X33129285Y-7232380D01*
X33343571Y-7232380D01*
X33472142Y-7280000D01*
X33772142Y-7232380D02*
X34372142Y-7232380D01*
X33986428Y-8232380D01*
X34886428Y-7232380D02*
X34972142Y-7232380D01*
X35057857Y-7280000D01*
X35100714Y-7327619D01*
X35143571Y-7422857D01*
X35186428Y-7613333D01*
X35186428Y-7851428D01*
X35143571Y-8041904D01*
X35100714Y-8137142D01*
X35057857Y-8184761D01*
X34972142Y-8232380D01*
X34886428Y-8232380D01*
X34800714Y-8184761D01*
X34757857Y-8137142D01*
X34715000Y-8041904D01*
X34672142Y-7851428D01*
X34672142Y-7613333D01*
X34715000Y-7422857D01*
X34757857Y-7327619D01*
X34800714Y-7280000D01*
X34886428Y-7232380D01*
X35743571Y-7232380D02*
X35829285Y-7232380D01*
X35915000Y-7280000D01*
X35957857Y-7327619D01*
X36000714Y-7422857D01*
X36043571Y-7613333D01*
X36043571Y-7851428D01*
X36000714Y-8041904D01*
X35957857Y-8137142D01*
X35915000Y-8184761D01*
X35829285Y-8232380D01*
X35743571Y-8232380D01*
X35657857Y-8184761D01*
X35615000Y-8137142D01*
X35572142Y-8041904D01*
X35529285Y-7851428D01*
X35529285Y-7613333D01*
X35572142Y-7422857D01*
X35615000Y-7327619D01*
X35657857Y-7280000D01*
X35743571Y-7232380D01*
X36386428Y-7327619D02*
X36429285Y-7280000D01*
X36515000Y-7232380D01*
X36729285Y-7232380D01*
X36815000Y-7280000D01*
X36857857Y-7327619D01*
X36900714Y-7422857D01*
X36900714Y-7518095D01*
X36857857Y-7660952D01*
X36343571Y-8232380D01*
X36900714Y-8232380D01*
X37286428Y-8232380D02*
X37286428Y-7232380D01*
X37586428Y-7946666D01*
X37886428Y-7232380D01*
X37886428Y-8232380D01*
X7029285Y-9308571D02*
X6729285Y-9308571D01*
X6729285Y-9832380D02*
X6729285Y-8832380D01*
X7157857Y-8832380D01*
X7500714Y-9832380D02*
X7500714Y-8832380D01*
X7843571Y-8832380D01*
X7929285Y-8880000D01*
X7972142Y-8927619D01*
X8015000Y-9022857D01*
X8015000Y-9165714D01*
X7972142Y-9260952D01*
X7929285Y-9308571D01*
X7843571Y-9356190D01*
X7500714Y-9356190D01*
X8872142Y-8880000D02*
X8786428Y-8832380D01*
X8657857Y-8832380D01*
X8529285Y-8880000D01*
X8443571Y-8975238D01*
X8400714Y-9070476D01*
X8357857Y-9260952D01*
X8357857Y-9403809D01*
X8400714Y-9594285D01*
X8443571Y-9689523D01*
X8529285Y-9784761D01*
X8657857Y-9832380D01*
X8743571Y-9832380D01*
X8872142Y-9784761D01*
X8915000Y-9737142D01*
X8915000Y-9403809D01*
X8743571Y-9403809D01*
X9257857Y-9546666D02*
X9686428Y-9546666D01*
X9172142Y-9832380D02*
X9472142Y-8832380D01*
X9772142Y-9832380D01*
X10072142Y-9737142D02*
X10115000Y-9784761D01*
X10072142Y-9832380D01*
X10029285Y-9784761D01*
X10072142Y-9737142D01*
X10072142Y-9832380D01*
X10072142Y-9213333D02*
X10115000Y-9260952D01*
X10072142Y-9308571D01*
X10029285Y-9260952D01*
X10072142Y-9213333D01*
X10072142Y-9308571D01*
X11143571Y-9546666D02*
X11572142Y-9546666D01*
X11057857Y-9832380D02*
X11357857Y-8832380D01*
X11657857Y-9832380D01*
X12086428Y-9832380D02*
X12000714Y-9784761D01*
X11957857Y-9689523D01*
X11957857Y-8832380D01*
X12300714Y-9165714D02*
X12643571Y-9165714D01*
X12429285Y-8832380D02*
X12429285Y-9689523D01*
X12472142Y-9784761D01*
X12557857Y-9832380D01*
X12643571Y-9832380D01*
X13286428Y-9784761D02*
X13200714Y-9832380D01*
X13029285Y-9832380D01*
X12943571Y-9784761D01*
X12900714Y-9689523D01*
X12900714Y-9308571D01*
X12943571Y-9213333D01*
X13029285Y-9165714D01*
X13200714Y-9165714D01*
X13286428Y-9213333D01*
X13329285Y-9308571D01*
X13329285Y-9403809D01*
X12900714Y-9499047D01*
X13715000Y-9832380D02*
X13715000Y-9165714D01*
X13715000Y-9356190D02*
X13757857Y-9260952D01*
X13800714Y-9213333D01*
X13886428Y-9165714D01*
X13972142Y-9165714D01*
X14657857Y-9832380D02*
X14657857Y-9308571D01*
X14615000Y-9213333D01*
X14529285Y-9165714D01*
X14357857Y-9165714D01*
X14272142Y-9213333D01*
X14657857Y-9784761D02*
X14572142Y-9832380D01*
X14357857Y-9832380D01*
X14272142Y-9784761D01*
X14229285Y-9689523D01*
X14229285Y-9594285D01*
X14272142Y-9499047D01*
X14357857Y-9451428D01*
X14572142Y-9451428D01*
X14657857Y-9403809D01*
X16286428Y-9737142D02*
X16243571Y-9784761D01*
X16115000Y-9832380D01*
X16029285Y-9832380D01*
X15900714Y-9784761D01*
X15815000Y-9689523D01*
X15772142Y-9594285D01*
X15729285Y-9403809D01*
X15729285Y-9260952D01*
X15772142Y-9070476D01*
X15815000Y-8975238D01*
X15900714Y-8880000D01*
X16029285Y-8832380D01*
X16115000Y-8832380D01*
X16243571Y-8880000D01*
X16286428Y-8927619D01*
X16586428Y-9165714D02*
X16800714Y-9832380D01*
X17015000Y-9165714D02*
X16800714Y-9832380D01*
X16715000Y-10070476D01*
X16672142Y-10118095D01*
X16586428Y-10165714D01*
X17743571Y-9784761D02*
X17657857Y-9832380D01*
X17486428Y-9832380D01*
X17400714Y-9784761D01*
X17357857Y-9737142D01*
X17315000Y-9641904D01*
X17315000Y-9356190D01*
X17357857Y-9260952D01*
X17400714Y-9213333D01*
X17486428Y-9165714D01*
X17657857Y-9165714D01*
X17743571Y-9213333D01*
X18257857Y-9832380D02*
X18172142Y-9784761D01*
X18129285Y-9689523D01*
X18129285Y-8832380D01*
X18729285Y-9832380D02*
X18643571Y-9784761D01*
X18600714Y-9737142D01*
X18557857Y-9641904D01*
X18557857Y-9356190D01*
X18600714Y-9260952D01*
X18643571Y-9213333D01*
X18729285Y-9165714D01*
X18857857Y-9165714D01*
X18943571Y-9213333D01*
X18986428Y-9260952D01*
X19029285Y-9356190D01*
X19029285Y-9641904D01*
X18986428Y-9737142D01*
X18943571Y-9784761D01*
X18857857Y-9832380D01*
X18729285Y-9832380D01*
X19415000Y-9165714D02*
X19415000Y-9832380D01*
X19415000Y-9260952D02*
X19457857Y-9213333D01*
X19543571Y-9165714D01*
X19672142Y-9165714D01*
X19757857Y-9213333D01*
X19800714Y-9308571D01*
X19800714Y-9832380D01*
X20572142Y-9784761D02*
X20486428Y-9832380D01*
X20315000Y-9832380D01*
X20229285Y-9784761D01*
X20186428Y-9689523D01*
X20186428Y-9308571D01*
X20229285Y-9213333D01*
X20315000Y-9165714D01*
X20486428Y-9165714D01*
X20572142Y-9213333D01*
X20615000Y-9308571D01*
X20615000Y-9403809D01*
X20186428Y-9499047D01*
X21686428Y-9832380D02*
X21686428Y-8832380D01*
X21986428Y-8832380D02*
X22286428Y-9832380D01*
X22586428Y-8832380D01*
X23572142Y-9308571D02*
X23872142Y-9308571D01*
X24000714Y-9832380D02*
X23572142Y-9832380D01*
X23572142Y-8832380D01*
X24000714Y-8832380D01*
X24386428Y-9832380D02*
X24386428Y-8832380D01*
X24729285Y-8832380D01*
X24815000Y-8880000D01*
X24857857Y-8927619D01*
X24900714Y-9022857D01*
X24900714Y-9165714D01*
X24857857Y-9260952D01*
X24815000Y-9308571D01*
X24729285Y-9356190D01*
X24386428Y-9356190D01*
X25672142Y-9165714D02*
X25672142Y-9832380D01*
X25457857Y-8784761D02*
X25243571Y-9499047D01*
X25800714Y-9499047D01*
X26657857Y-9737142D02*
X26615000Y-9784761D01*
X26486428Y-9832380D01*
X26400714Y-9832380D01*
X26272142Y-9784761D01*
X26186428Y-9689523D01*
X26143571Y-9594285D01*
X26100714Y-9403809D01*
X26100714Y-9260952D01*
X26143571Y-9070476D01*
X26186428Y-8975238D01*
X26272142Y-8880000D01*
X26400714Y-8832380D01*
X26486428Y-8832380D01*
X26615000Y-8880000D01*
X26657857Y-8927619D01*
X27043571Y-9308571D02*
X27343571Y-9308571D01*
X27472142Y-9832380D02*
X27043571Y-9832380D01*
X27043571Y-8832380D01*
X27472142Y-8832380D01*
X28243571Y-9165714D02*
X28243571Y-9832380D01*
X28029285Y-8784761D02*
X27815000Y-9499047D01*
X28372142Y-9499047D01*
X28886428Y-8832380D02*
X28972142Y-8832380D01*
X29057857Y-8880000D01*
X29100714Y-8927619D01*
X29143571Y-9022857D01*
X29186428Y-9213333D01*
X29186428Y-9451428D01*
X29143571Y-9641904D01*
X29100714Y-9737142D01*
X29057857Y-9784761D01*
X28972142Y-9832380D01*
X28886428Y-9832380D01*
X28800714Y-9784761D01*
X28757857Y-9737142D01*
X28715000Y-9641904D01*
X28672142Y-9451428D01*
X28672142Y-9213333D01*
X28715000Y-9022857D01*
X28757857Y-8927619D01*
X28800714Y-8880000D01*
X28886428Y-8832380D01*
X29872142Y-9308571D02*
X29572142Y-9308571D01*
X29572142Y-9832380D02*
X29572142Y-8832380D01*
X30000714Y-8832380D01*
X30300714Y-8927619D02*
X30343571Y-8880000D01*
X30429285Y-8832380D01*
X30643571Y-8832380D01*
X30729285Y-8880000D01*
X30772142Y-8927619D01*
X30815000Y-9022857D01*
X30815000Y-9118095D01*
X30772142Y-9260952D01*
X30257857Y-9832380D01*
X30815000Y-9832380D01*
X31115000Y-8832380D02*
X31672142Y-8832380D01*
X31372142Y-9213333D01*
X31500714Y-9213333D01*
X31586428Y-9260952D01*
X31629285Y-9308571D01*
X31672142Y-9403809D01*
X31672142Y-9641904D01*
X31629285Y-9737142D01*
X31586428Y-9784761D01*
X31500714Y-9832380D01*
X31243571Y-9832380D01*
X31157857Y-9784761D01*
X31115000Y-9737142D01*
X32872142Y-9832380D02*
X32786428Y-9784761D01*
X32743571Y-9737142D01*
X32700714Y-9641904D01*
X32700714Y-9356190D01*
X32743571Y-9260952D01*
X32786428Y-9213333D01*
X32872142Y-9165714D01*
X33000714Y-9165714D01*
X33086428Y-9213333D01*
X33129285Y-9260952D01*
X33172142Y-9356190D01*
X33172142Y-9641904D01*
X33129285Y-9737142D01*
X33086428Y-9784761D01*
X33000714Y-9832380D01*
X32872142Y-9832380D01*
X33557857Y-9832380D02*
X33557857Y-9165714D01*
X33557857Y-9356190D02*
X33600714Y-9260952D01*
X33643571Y-9213333D01*
X33729285Y-9165714D01*
X33815000Y-9165714D01*
X34800714Y-9308571D02*
X35100714Y-9308571D01*
X35229285Y-9832380D02*
X34800714Y-9832380D01*
X34800714Y-8832380D01*
X35229285Y-8832380D01*
X35615000Y-9832380D02*
X35615000Y-8832380D01*
X35957857Y-8832380D01*
X36043571Y-8880000D01*
X36086428Y-8927619D01*
X36129285Y-9022857D01*
X36129285Y-9165714D01*
X36086428Y-9260952D01*
X36043571Y-9308571D01*
X35957857Y-9356190D01*
X35615000Y-9356190D01*
X36900714Y-9165714D02*
X36900714Y-9832380D01*
X36686428Y-8784761D02*
X36472142Y-9499047D01*
X37029285Y-9499047D01*
X37886428Y-9737142D02*
X37843571Y-9784761D01*
X37715000Y-9832380D01*
X37629285Y-9832380D01*
X37500714Y-9784761D01*
X37415000Y-9689523D01*
X37372142Y-9594285D01*
X37329285Y-9403809D01*
X37329285Y-9260952D01*
X37372142Y-9070476D01*
X37415000Y-8975238D01*
X37500714Y-8880000D01*
X37629285Y-8832380D01*
X37715000Y-8832380D01*
X37843571Y-8880000D01*
X37886428Y-8927619D01*
X38272142Y-9308571D02*
X38572142Y-9308571D01*
X38700714Y-9832380D02*
X38272142Y-9832380D01*
X38272142Y-8832380D01*
X38700714Y-8832380D01*
X39000714Y-8832380D02*
X39557857Y-8832380D01*
X39257857Y-9213333D01*
X39386428Y-9213333D01*
X39472142Y-9260952D01*
X39515000Y-9308571D01*
X39557857Y-9403809D01*
X39557857Y-9641904D01*
X39515000Y-9737142D01*
X39472142Y-9784761D01*
X39386428Y-9832380D01*
X39129285Y-9832380D01*
X39043571Y-9784761D01*
X39000714Y-9737142D01*
X40115000Y-8832380D02*
X40200714Y-8832380D01*
X40286428Y-8880000D01*
X40329285Y-8927619D01*
X40372142Y-9022857D01*
X40415000Y-9213333D01*
X40415000Y-9451428D01*
X40372142Y-9641904D01*
X40329285Y-9737142D01*
X40286428Y-9784761D01*
X40200714Y-9832380D01*
X40115000Y-9832380D01*
X40029285Y-9784761D01*
X39986428Y-9737142D01*
X39943571Y-9641904D01*
X39900714Y-9451428D01*
X39900714Y-9213333D01*
X39943571Y-9022857D01*
X39986428Y-8927619D01*
X40029285Y-8880000D01*
X40115000Y-8832380D01*
X41100714Y-9308571D02*
X40800714Y-9308571D01*
X40800714Y-9832380D02*
X40800714Y-8832380D01*
X41229285Y-8832380D01*
X41529285Y-8927619D02*
X41572142Y-8880000D01*
X41657857Y-8832380D01*
X41872142Y-8832380D01*
X41957857Y-8880000D01*
X42000714Y-8927619D01*
X42043571Y-9022857D01*
X42043571Y-9118095D01*
X42000714Y-9260952D01*
X41486428Y-9832380D01*
X42043571Y-9832380D01*
X42343571Y-8832380D02*
X42900714Y-8832380D01*
X42600714Y-9213333D01*
X42729285Y-9213333D01*
X42815000Y-9260952D01*
X42857857Y-9308571D01*
X42900714Y-9403809D01*
X42900714Y-9641904D01*
X42857857Y-9737142D01*
X42815000Y-9784761D01*
X42729285Y-9832380D01*
X42472142Y-9832380D01*
X42386428Y-9784761D01*
X42343571Y-9737142D01*
X6729285Y-11432380D02*
X6729285Y-10432380D01*
X7029285Y-11146666D01*
X7329285Y-10432380D01*
X7329285Y-11432380D01*
X8100714Y-11384761D02*
X8015000Y-11432380D01*
X7843571Y-11432380D01*
X7757857Y-11384761D01*
X7715000Y-11289523D01*
X7715000Y-10908571D01*
X7757857Y-10813333D01*
X7843571Y-10765714D01*
X8015000Y-10765714D01*
X8100714Y-10813333D01*
X8143571Y-10908571D01*
X8143571Y-11003809D01*
X7715000Y-11099047D01*
X8529285Y-11432380D02*
X8529285Y-10765714D01*
X8529285Y-10860952D02*
X8572142Y-10813333D01*
X8657857Y-10765714D01*
X8786428Y-10765714D01*
X8872142Y-10813333D01*
X8915000Y-10908571D01*
X8915000Y-11432380D01*
X8915000Y-10908571D02*
X8957857Y-10813333D01*
X9043571Y-10765714D01*
X9172142Y-10765714D01*
X9257857Y-10813333D01*
X9300714Y-10908571D01*
X9300714Y-11432380D01*
X9857857Y-11432380D02*
X9772142Y-11384761D01*
X9729285Y-11337142D01*
X9686428Y-11241904D01*
X9686428Y-10956190D01*
X9729285Y-10860952D01*
X9772142Y-10813333D01*
X9857857Y-10765714D01*
X9986428Y-10765714D01*
X10072142Y-10813333D01*
X10115000Y-10860952D01*
X10157857Y-10956190D01*
X10157857Y-11241904D01*
X10115000Y-11337142D01*
X10072142Y-11384761D01*
X9986428Y-11432380D01*
X9857857Y-11432380D01*
X10543571Y-11432380D02*
X10543571Y-10765714D01*
X10543571Y-10956190D02*
X10586428Y-10860952D01*
X10629285Y-10813333D01*
X10715000Y-10765714D01*
X10800714Y-10765714D01*
X11015000Y-10765714D02*
X11229285Y-11432380D01*
X11443571Y-10765714D02*
X11229285Y-11432380D01*
X11143571Y-11670476D01*
X11100714Y-11718095D01*
X11015000Y-11765714D01*
X11786428Y-11337142D02*
X11829285Y-11384761D01*
X11786428Y-11432380D01*
X11743571Y-11384761D01*
X11786428Y-11337142D01*
X11786428Y-11432380D01*
X11786428Y-10813333D02*
X11829285Y-10860952D01*
X11786428Y-10908571D01*
X11743571Y-10860952D01*
X11786428Y-10813333D01*
X11786428Y-10908571D01*
X12857857Y-10527619D02*
X12900714Y-10480000D01*
X12986428Y-10432380D01*
X13200714Y-10432380D01*
X13286428Y-10480000D01*
X13329285Y-10527619D01*
X13372142Y-10622857D01*
X13372142Y-10718095D01*
X13329285Y-10860952D01*
X12815000Y-11432380D01*
X13372142Y-11432380D01*
X14186428Y-10432380D02*
X13757857Y-10432380D01*
X13715000Y-10908571D01*
X13757857Y-10860952D01*
X13843571Y-10813333D01*
X14057857Y-10813333D01*
X14143571Y-10860952D01*
X14186428Y-10908571D01*
X14229285Y-11003809D01*
X14229285Y-11241904D01*
X14186428Y-11337142D01*
X14143571Y-11384761D01*
X14057857Y-11432380D01*
X13843571Y-11432380D01*
X13757857Y-11384761D01*
X13715000Y-11337142D01*
X15000714Y-10432380D02*
X14829285Y-10432380D01*
X14743571Y-10480000D01*
X14700714Y-10527619D01*
X14615000Y-10670476D01*
X14572142Y-10860952D01*
X14572142Y-11241904D01*
X14615000Y-11337142D01*
X14657857Y-11384761D01*
X14743571Y-11432380D01*
X14915000Y-11432380D01*
X15000714Y-11384761D01*
X15043571Y-11337142D01*
X15086428Y-11241904D01*
X15086428Y-11003809D01*
X15043571Y-10908571D01*
X15000714Y-10860952D01*
X14915000Y-10813333D01*
X14743571Y-10813333D01*
X14657857Y-10860952D01*
X14615000Y-10908571D01*
X14572142Y-11003809D01*
X16157857Y-11432380D02*
X16157857Y-10432380D01*
X16457857Y-11146666D01*
X16757857Y-10432380D01*
X16757857Y-11432380D01*
X17486428Y-10908571D02*
X17615000Y-10956190D01*
X17657857Y-11003809D01*
X17700714Y-11099047D01*
X17700714Y-11241904D01*
X17657857Y-11337142D01*
X17615000Y-11384761D01*
X17529285Y-11432380D01*
X17186428Y-11432380D01*
X17186428Y-10432380D01*
X17486428Y-10432380D01*
X17572142Y-10480000D01*
X17615000Y-10527619D01*
X17657857Y-10622857D01*
X17657857Y-10718095D01*
X17615000Y-10813333D01*
X17572142Y-10860952D01*
X17486428Y-10908571D01*
X17186428Y-10908571D01*
X18000714Y-10765714D02*
X18215000Y-11432380D01*
X18429285Y-10765714D02*
X18215000Y-11432380D01*
X18129285Y-11670476D01*
X18086428Y-11718095D01*
X18000714Y-11765714D01*
X18643571Y-10765714D02*
X18986428Y-10765714D01*
X18772142Y-10432380D02*
X18772142Y-11289523D01*
X18815000Y-11384761D01*
X18900714Y-11432380D01*
X18986428Y-11432380D01*
X19629285Y-11384761D02*
X19543571Y-11432380D01*
X19372142Y-11432380D01*
X19286428Y-11384761D01*
X19243571Y-11289523D01*
X19243571Y-10908571D01*
X19286428Y-10813333D01*
X19372142Y-10765714D01*
X19543571Y-10765714D01*
X19629285Y-10813333D01*
X19672142Y-10908571D01*
X19672142Y-11003809D01*
X19243571Y-11099047D01*
X20015000Y-11384761D02*
X20100714Y-11432380D01*
X20272142Y-11432380D01*
X20357857Y-11384761D01*
X20400714Y-11289523D01*
X20400714Y-11241904D01*
X20357857Y-11146666D01*
X20272142Y-11099047D01*
X20143571Y-11099047D01*
X20057857Y-11051428D01*
X20015000Y-10956190D01*
X20015000Y-10908571D01*
X20057857Y-10813333D01*
X20143571Y-10765714D01*
X20272142Y-10765714D01*
X20357857Y-10813333D01*
X21472142Y-11432380D02*
X21472142Y-10432380D01*
X21686428Y-10432380D01*
X21815000Y-10480000D01*
X21900714Y-10575238D01*
X21943571Y-10670476D01*
X21986428Y-10860952D01*
X21986428Y-11003809D01*
X21943571Y-11194285D01*
X21900714Y-11289523D01*
X21815000Y-11384761D01*
X21686428Y-11432380D01*
X21472142Y-11432380D01*
X22372142Y-11432380D02*
X22372142Y-10432380D01*
X22586428Y-10432380D01*
X22715000Y-10480000D01*
X22800714Y-10575238D01*
X22843571Y-10670476D01*
X22886428Y-10860952D01*
X22886428Y-11003809D01*
X22843571Y-11194285D01*
X22800714Y-11289523D01*
X22715000Y-11384761D01*
X22586428Y-11432380D01*
X22372142Y-11432380D01*
X23786428Y-11432380D02*
X23486428Y-10956190D01*
X23272142Y-11432380D02*
X23272142Y-10432380D01*
X23615000Y-10432380D01*
X23700714Y-10480000D01*
X23743571Y-10527619D01*
X23786428Y-10622857D01*
X23786428Y-10765714D01*
X23743571Y-10860952D01*
X23700714Y-10908571D01*
X23615000Y-10956190D01*
X23272142Y-10956190D01*
X24129285Y-10527619D02*
X24172142Y-10480000D01*
X24257857Y-10432380D01*
X24472142Y-10432380D01*
X24557857Y-10480000D01*
X24600714Y-10527619D01*
X24643571Y-10622857D01*
X24643571Y-10718095D01*
X24600714Y-10860952D01*
X24086428Y-11432380D01*
X24643571Y-11432380D01*
X25672142Y-11384761D02*
X25800714Y-11432380D01*
X26015000Y-11432380D01*
X26100714Y-11384761D01*
X26143571Y-11337142D01*
X26186428Y-11241904D01*
X26186428Y-11146666D01*
X26143571Y-11051428D01*
X26100714Y-11003809D01*
X26015000Y-10956190D01*
X25843571Y-10908571D01*
X25757857Y-10860952D01*
X25715000Y-10813333D01*
X25672142Y-10718095D01*
X25672142Y-10622857D01*
X25715000Y-10527619D01*
X25757857Y-10480000D01*
X25843571Y-10432380D01*
X26057857Y-10432380D01*
X26186428Y-10480000D01*
X26572142Y-11432380D02*
X26572142Y-10432380D01*
X26786428Y-10432380D01*
X26915000Y-10480000D01*
X27000714Y-10575238D01*
X27043571Y-10670476D01*
X27086428Y-10860952D01*
X27086428Y-11003809D01*
X27043571Y-11194285D01*
X27000714Y-11289523D01*
X26915000Y-11384761D01*
X26786428Y-11432380D01*
X26572142Y-11432380D01*
X27986428Y-11432380D02*
X27686428Y-10956190D01*
X27472142Y-11432380D02*
X27472142Y-10432380D01*
X27815000Y-10432380D01*
X27900714Y-10480000D01*
X27943571Y-10527619D01*
X27986428Y-10622857D01*
X27986428Y-10765714D01*
X27943571Y-10860952D01*
X27900714Y-10908571D01*
X27815000Y-10956190D01*
X27472142Y-10956190D01*
X28329285Y-11146666D02*
X28757857Y-11146666D01*
X28243571Y-11432380D02*
X28543571Y-10432380D01*
X28843571Y-11432380D01*
X29143571Y-11432380D02*
X29143571Y-10432380D01*
X29443571Y-11146666D01*
X29743571Y-10432380D01*
X29743571Y-11432380D01*
X7243571Y-12937142D02*
X7200714Y-12984761D01*
X7072142Y-13032380D01*
X6986428Y-13032380D01*
X6857857Y-12984761D01*
X6772142Y-12889523D01*
X6729285Y-12794285D01*
X6686428Y-12603809D01*
X6686428Y-12460952D01*
X6729285Y-12270476D01*
X6772142Y-12175238D01*
X6857857Y-12080000D01*
X6986428Y-12032380D01*
X7072142Y-12032380D01*
X7200714Y-12080000D01*
X7243571Y-12127619D01*
X7757857Y-13032380D02*
X7672142Y-12984761D01*
X7629285Y-12937142D01*
X7586428Y-12841904D01*
X7586428Y-12556190D01*
X7629285Y-12460952D01*
X7672142Y-12413333D01*
X7757857Y-12365714D01*
X7886428Y-12365714D01*
X7972142Y-12413333D01*
X8015000Y-12460952D01*
X8057857Y-12556190D01*
X8057857Y-12841904D01*
X8015000Y-12937142D01*
X7972142Y-12984761D01*
X7886428Y-13032380D01*
X7757857Y-13032380D01*
X8443571Y-12365714D02*
X8443571Y-13032380D01*
X8443571Y-12460952D02*
X8486428Y-12413333D01*
X8572142Y-12365714D01*
X8700714Y-12365714D01*
X8786428Y-12413333D01*
X8829285Y-12508571D01*
X8829285Y-13032380D01*
X9129285Y-12365714D02*
X9472142Y-12365714D01*
X9257857Y-12032380D02*
X9257857Y-12889523D01*
X9300714Y-12984761D01*
X9386428Y-13032380D01*
X9472142Y-13032380D01*
X9772142Y-13032380D02*
X9772142Y-12365714D01*
X9772142Y-12032380D02*
X9729285Y-12080000D01*
X9772142Y-12127619D01*
X9815000Y-12080000D01*
X9772142Y-12032380D01*
X9772142Y-12127619D01*
X10200714Y-12365714D02*
X10200714Y-13032380D01*
X10200714Y-12460952D02*
X10243571Y-12413333D01*
X10329285Y-12365714D01*
X10457857Y-12365714D01*
X10543571Y-12413333D01*
X10586428Y-12508571D01*
X10586428Y-13032380D01*
X11400714Y-12365714D02*
X11400714Y-13032380D01*
X11015000Y-12365714D02*
X11015000Y-12889523D01*
X11057857Y-12984761D01*
X11143571Y-13032380D01*
X11272142Y-13032380D01*
X11357857Y-12984761D01*
X11400714Y-12937142D01*
X11957857Y-13032380D02*
X11872142Y-12984761D01*
X11829285Y-12937142D01*
X11786428Y-12841904D01*
X11786428Y-12556190D01*
X11829285Y-12460952D01*
X11872142Y-12413333D01*
X11957857Y-12365714D01*
X12086428Y-12365714D01*
X12172142Y-12413333D01*
X12215000Y-12460952D01*
X12257857Y-12556190D01*
X12257857Y-12841904D01*
X12215000Y-12937142D01*
X12172142Y-12984761D01*
X12086428Y-13032380D01*
X11957857Y-13032380D01*
X13029285Y-12365714D02*
X13029285Y-13032380D01*
X12643571Y-12365714D02*
X12643571Y-12889523D01*
X12686428Y-12984761D01*
X12772142Y-13032380D01*
X12900714Y-13032380D01*
X12986428Y-12984761D01*
X13029285Y-12937142D01*
X13415000Y-12984761D02*
X13500714Y-13032380D01*
X13672142Y-13032380D01*
X13757857Y-12984761D01*
X13800714Y-12889523D01*
X13800714Y-12841904D01*
X13757857Y-12746666D01*
X13672142Y-12699047D01*
X13543571Y-12699047D01*
X13457857Y-12651428D01*
X13415000Y-12556190D01*
X13415000Y-12508571D01*
X13457857Y-12413333D01*
X13543571Y-12365714D01*
X13672142Y-12365714D01*
X13757857Y-12413333D01*
X14743571Y-12365714D02*
X15086428Y-12365714D01*
X14872142Y-13032380D02*
X14872142Y-12175238D01*
X14915000Y-12080000D01*
X15000714Y-12032380D01*
X15086428Y-12032380D01*
X15386428Y-13032380D02*
X15386428Y-12365714D01*
X15386428Y-12556190D02*
X15429285Y-12460952D01*
X15472142Y-12413333D01*
X15557857Y-12365714D01*
X15643571Y-12365714D01*
X16286428Y-12984761D02*
X16200714Y-13032380D01*
X16029285Y-13032380D01*
X15943571Y-12984761D01*
X15900714Y-12889523D01*
X15900714Y-12508571D01*
X15943571Y-12413333D01*
X16029285Y-12365714D01*
X16200714Y-12365714D01*
X16286428Y-12413333D01*
X16329285Y-12508571D01*
X16329285Y-12603809D01*
X15900714Y-12699047D01*
X17100714Y-12365714D02*
X17100714Y-13365714D01*
X17100714Y-12984761D02*
X17015000Y-13032380D01*
X16843571Y-13032380D01*
X16757857Y-12984761D01*
X16715000Y-12937142D01*
X16672142Y-12841904D01*
X16672142Y-12556190D01*
X16715000Y-12460952D01*
X16757857Y-12413333D01*
X16843571Y-12365714D01*
X17015000Y-12365714D01*
X17100714Y-12413333D01*
X17915000Y-12365714D02*
X17915000Y-13032380D01*
X17529285Y-12365714D02*
X17529285Y-12889523D01*
X17572142Y-12984761D01*
X17657857Y-13032380D01*
X17786428Y-13032380D01*
X17872142Y-12984761D01*
X17915000Y-12937142D01*
X18686428Y-12984761D02*
X18600714Y-13032380D01*
X18429285Y-13032380D01*
X18343571Y-12984761D01*
X18300714Y-12889523D01*
X18300714Y-12508571D01*
X18343571Y-12413333D01*
X18429285Y-12365714D01*
X18600714Y-12365714D01*
X18686428Y-12413333D01*
X18729285Y-12508571D01*
X18729285Y-12603809D01*
X18300714Y-12699047D01*
X19115000Y-12365714D02*
X19115000Y-13032380D01*
X19115000Y-12460952D02*
X19157857Y-12413333D01*
X19243571Y-12365714D01*
X19372142Y-12365714D01*
X19457857Y-12413333D01*
X19500714Y-12508571D01*
X19500714Y-13032380D01*
X20315000Y-12984761D02*
X20229285Y-13032380D01*
X20057857Y-13032380D01*
X19972142Y-12984761D01*
X19929285Y-12937142D01*
X19886428Y-12841904D01*
X19886428Y-12556190D01*
X19929285Y-12460952D01*
X19972142Y-12413333D01*
X20057857Y-12365714D01*
X20229285Y-12365714D01*
X20315000Y-12413333D01*
X20615000Y-12365714D02*
X20829285Y-13032380D01*
X21043571Y-12365714D02*
X20829285Y-13032380D01*
X20743571Y-13270476D01*
X20700714Y-13318095D01*
X20615000Y-13365714D01*
X22072142Y-13032380D02*
X22072142Y-12365714D01*
X22072142Y-12556190D02*
X22115000Y-12460952D01*
X22157857Y-12413333D01*
X22243571Y-12365714D01*
X22329285Y-12365714D01*
X23015000Y-13032380D02*
X23015000Y-12508571D01*
X22972142Y-12413333D01*
X22886428Y-12365714D01*
X22715000Y-12365714D01*
X22629285Y-12413333D01*
X23015000Y-12984761D02*
X22929285Y-13032380D01*
X22715000Y-13032380D01*
X22629285Y-12984761D01*
X22586428Y-12889523D01*
X22586428Y-12794285D01*
X22629285Y-12699047D01*
X22715000Y-12651428D01*
X22929285Y-12651428D01*
X23015000Y-12603809D01*
X23443571Y-12365714D02*
X23443571Y-13032380D01*
X23443571Y-12460952D02*
X23486428Y-12413333D01*
X23572142Y-12365714D01*
X23700714Y-12365714D01*
X23786428Y-12413333D01*
X23829285Y-12508571D01*
X23829285Y-13032380D01*
X24643571Y-12365714D02*
X24643571Y-13175238D01*
X24600714Y-13270476D01*
X24557857Y-13318095D01*
X24472142Y-13365714D01*
X24343571Y-13365714D01*
X24257857Y-13318095D01*
X24643571Y-12984761D02*
X24557857Y-13032380D01*
X24386428Y-13032380D01*
X24300714Y-12984761D01*
X24257857Y-12937142D01*
X24215000Y-12841904D01*
X24215000Y-12556190D01*
X24257857Y-12460952D01*
X24300714Y-12413333D01*
X24386428Y-12365714D01*
X24557857Y-12365714D01*
X24643571Y-12413333D01*
X25415000Y-12984761D02*
X25329285Y-13032380D01*
X25157857Y-13032380D01*
X25072142Y-12984761D01*
X25029285Y-12889523D01*
X25029285Y-12508571D01*
X25072142Y-12413333D01*
X25157857Y-12365714D01*
X25329285Y-12365714D01*
X25415000Y-12413333D01*
X25457857Y-12508571D01*
X25457857Y-12603809D01*
X25029285Y-12699047D01*
X25843571Y-12937142D02*
X25886428Y-12984761D01*
X25843571Y-13032380D01*
X25800714Y-12984761D01*
X25843571Y-12937142D01*
X25843571Y-13032380D01*
X25843571Y-12413333D02*
X25886428Y-12460952D01*
X25843571Y-12508571D01*
X25800714Y-12460952D01*
X25843571Y-12413333D01*
X25843571Y-12508571D01*
X27429285Y-13032380D02*
X26915000Y-13032380D01*
X27172142Y-13032380D02*
X27172142Y-12032380D01*
X27086428Y-12175238D01*
X27000714Y-12270476D01*
X26915000Y-12318095D01*
X27986428Y-12032380D02*
X28072142Y-12032380D01*
X28157857Y-12080000D01*
X28200714Y-12127619D01*
X28243571Y-12222857D01*
X28286428Y-12413333D01*
X28286428Y-12651428D01*
X28243571Y-12841904D01*
X28200714Y-12937142D01*
X28157857Y-12984761D01*
X28072142Y-13032380D01*
X27986428Y-13032380D01*
X27900714Y-12984761D01*
X27857857Y-12937142D01*
X27815000Y-12841904D01*
X27772142Y-12651428D01*
X27772142Y-12413333D01*
X27815000Y-12222857D01*
X27857857Y-12127619D01*
X27900714Y-12080000D01*
X27986428Y-12032380D01*
X28843571Y-12032380D02*
X28929285Y-12032380D01*
X29015000Y-12080000D01*
X29057857Y-12127619D01*
X29100714Y-12222857D01*
X29143571Y-12413333D01*
X29143571Y-12651428D01*
X29100714Y-12841904D01*
X29057857Y-12937142D01*
X29015000Y-12984761D01*
X28929285Y-13032380D01*
X28843571Y-13032380D01*
X28757857Y-12984761D01*
X28715000Y-12937142D01*
X28672142Y-12841904D01*
X28629285Y-12651428D01*
X28629285Y-12413333D01*
X28672142Y-12222857D01*
X28715000Y-12127619D01*
X28757857Y-12080000D01*
X28843571Y-12032380D01*
X30215000Y-13032380D02*
X30215000Y-12032380D01*
X30300714Y-12651428D02*
X30557857Y-13032380D01*
X30557857Y-12365714D02*
X30215000Y-12746666D01*
X30943571Y-13032380D02*
X30943571Y-12032380D01*
X30943571Y-12508571D02*
X31457857Y-12508571D01*
X31457857Y-13032380D02*
X31457857Y-12032380D01*
X31800714Y-12365714D02*
X32272142Y-12365714D01*
X31800714Y-13032380D01*
X32272142Y-13032380D01*
X33515000Y-12699047D02*
X33172142Y-12699047D01*
X34415000Y-12032380D02*
X34972142Y-12032380D01*
X34672142Y-12413333D01*
X34800714Y-12413333D01*
X34886428Y-12460952D01*
X34929285Y-12508571D01*
X34972142Y-12603809D01*
X34972142Y-12841904D01*
X34929285Y-12937142D01*
X34886428Y-12984761D01*
X34800714Y-13032380D01*
X34543571Y-13032380D01*
X34457857Y-12984761D01*
X34415000Y-12937142D01*
X35357857Y-12937142D02*
X35400714Y-12984761D01*
X35357857Y-13032380D01*
X35315000Y-12984761D01*
X35357857Y-12937142D01*
X35357857Y-13032380D01*
X35915000Y-12460952D02*
X35829285Y-12413333D01*
X35786428Y-12365714D01*
X35743571Y-12270476D01*
X35743571Y-12222857D01*
X35786428Y-12127619D01*
X35829285Y-12080000D01*
X35915000Y-12032380D01*
X36086428Y-12032380D01*
X36172142Y-12080000D01*
X36215000Y-12127619D01*
X36257857Y-12222857D01*
X36257857Y-12270476D01*
X36215000Y-12365714D01*
X36172142Y-12413333D01*
X36086428Y-12460952D01*
X35915000Y-12460952D01*
X35829285Y-12508571D01*
X35786428Y-12556190D01*
X35743571Y-12651428D01*
X35743571Y-12841904D01*
X35786428Y-12937142D01*
X35829285Y-12984761D01*
X35915000Y-13032380D01*
X36086428Y-13032380D01*
X36172142Y-12984761D01*
X36215000Y-12937142D01*
X36257857Y-12841904D01*
X36257857Y-12651428D01*
X36215000Y-12556190D01*
X36172142Y-12508571D01*
X36086428Y-12460952D01*
X37800714Y-12080000D02*
X37715000Y-12032380D01*
X37586428Y-12032380D01*
X37457857Y-12080000D01*
X37372142Y-12175238D01*
X37329285Y-12270476D01*
X37286428Y-12460952D01*
X37286428Y-12603809D01*
X37329285Y-12794285D01*
X37372142Y-12889523D01*
X37457857Y-12984761D01*
X37586428Y-13032380D01*
X37672142Y-13032380D01*
X37800714Y-12984761D01*
X37843571Y-12937142D01*
X37843571Y-12603809D01*
X37672142Y-12603809D01*
X38229285Y-13032380D02*
X38229285Y-12032380D01*
X38229285Y-12508571D02*
X38743571Y-12508571D01*
X38743571Y-13032380D02*
X38743571Y-12032380D01*
X39086428Y-12365714D02*
X39557857Y-12365714D01*
X39086428Y-13032380D01*
X39557857Y-13032380D01*
X7029285Y-14108571D02*
X7157857Y-14156190D01*
X7200714Y-14203809D01*
X7243571Y-14299047D01*
X7243571Y-14441904D01*
X7200714Y-14537142D01*
X7157857Y-14584761D01*
X7072142Y-14632380D01*
X6729285Y-14632380D01*
X6729285Y-13632380D01*
X7029285Y-13632380D01*
X7115000Y-13680000D01*
X7157857Y-13727619D01*
X7200714Y-13822857D01*
X7200714Y-13918095D01*
X7157857Y-14013333D01*
X7115000Y-14060952D01*
X7029285Y-14108571D01*
X6729285Y-14108571D01*
X8015000Y-14632380D02*
X8015000Y-14108571D01*
X7972142Y-14013333D01*
X7886428Y-13965714D01*
X7715000Y-13965714D01*
X7629285Y-14013333D01*
X8015000Y-14584761D02*
X7929285Y-14632380D01*
X7715000Y-14632380D01*
X7629285Y-14584761D01*
X7586428Y-14489523D01*
X7586428Y-14394285D01*
X7629285Y-14299047D01*
X7715000Y-14251428D01*
X7929285Y-14251428D01*
X8015000Y-14203809D01*
X8443571Y-13965714D02*
X8443571Y-14632380D01*
X8443571Y-14060952D02*
X8486428Y-14013333D01*
X8572142Y-13965714D01*
X8700714Y-13965714D01*
X8786428Y-14013333D01*
X8829285Y-14108571D01*
X8829285Y-14632380D01*
X9643571Y-14632380D02*
X9643571Y-13632380D01*
X9643571Y-14584761D02*
X9557857Y-14632380D01*
X9386428Y-14632380D01*
X9300714Y-14584761D01*
X9257857Y-14537142D01*
X9215000Y-14441904D01*
X9215000Y-14156190D01*
X9257857Y-14060952D01*
X9300714Y-14013333D01*
X9386428Y-13965714D01*
X9557857Y-13965714D01*
X9643571Y-14013333D01*
X9986428Y-13965714D02*
X10157857Y-14632380D01*
X10329285Y-14156190D01*
X10500714Y-14632380D01*
X10672142Y-13965714D01*
X11015000Y-14632380D02*
X11015000Y-13965714D01*
X11015000Y-13632380D02*
X10972142Y-13680000D01*
X11015000Y-13727619D01*
X11057857Y-13680000D01*
X11015000Y-13632380D01*
X11015000Y-13727619D01*
X11829285Y-14632380D02*
X11829285Y-13632380D01*
X11829285Y-14584761D02*
X11743571Y-14632380D01*
X11572142Y-14632380D01*
X11486428Y-14584761D01*
X11443571Y-14537142D01*
X11400714Y-14441904D01*
X11400714Y-14156190D01*
X11443571Y-14060952D01*
X11486428Y-14013333D01*
X11572142Y-13965714D01*
X11743571Y-13965714D01*
X11829285Y-14013333D01*
X12129285Y-13965714D02*
X12472142Y-13965714D01*
X12257857Y-13632380D02*
X12257857Y-14489523D01*
X12300714Y-14584761D01*
X12386428Y-14632380D01*
X12472142Y-14632380D01*
X12772142Y-14632380D02*
X12772142Y-13632380D01*
X13157857Y-14632380D02*
X13157857Y-14108571D01*
X13115000Y-14013333D01*
X13029285Y-13965714D01*
X12900714Y-13965714D01*
X12815000Y-14013333D01*
X12772142Y-14060952D01*
X13586428Y-14537142D02*
X13629285Y-14584761D01*
X13586428Y-14632380D01*
X13543571Y-14584761D01*
X13586428Y-14537142D01*
X13586428Y-14632380D01*
X13586428Y-14013333D02*
X13629285Y-14060952D01*
X13586428Y-14108571D01*
X13543571Y-14060952D01*
X13586428Y-14013333D01*
X13586428Y-14108571D01*
X15086428Y-13632380D02*
X14915000Y-13632380D01*
X14829285Y-13680000D01*
X14786428Y-13727619D01*
X14700714Y-13870476D01*
X14657857Y-14060952D01*
X14657857Y-14441904D01*
X14700714Y-14537142D01*
X14743571Y-14584761D01*
X14829285Y-14632380D01*
X15000714Y-14632380D01*
X15086428Y-14584761D01*
X15129285Y-14537142D01*
X15172142Y-14441904D01*
X15172142Y-14203809D01*
X15129285Y-14108571D01*
X15086428Y-14060952D01*
X15000714Y-14013333D01*
X14829285Y-14013333D01*
X14743571Y-14060952D01*
X14700714Y-14108571D01*
X14657857Y-14203809D01*
X16029285Y-14632380D02*
X15515000Y-14632380D01*
X15772142Y-14632380D02*
X15772142Y-13632380D01*
X15686428Y-13775238D01*
X15600714Y-13870476D01*
X15515000Y-13918095D01*
X16415000Y-14537142D02*
X16457857Y-14584761D01*
X16415000Y-14632380D01*
X16372142Y-14584761D01*
X16415000Y-14537142D01*
X16415000Y-14632380D01*
X17229285Y-13965714D02*
X17229285Y-14632380D01*
X17015000Y-13584761D02*
X16800714Y-14299047D01*
X17357857Y-14299047D01*
X18086428Y-13965714D02*
X18086428Y-14632380D01*
X17872142Y-13584761D02*
X17657857Y-14299047D01*
X18215000Y-14299047D01*
X19243571Y-14632380D02*
X19243571Y-13632380D01*
X19543571Y-14346666D01*
X19843571Y-13632380D01*
X19843571Y-14632380D01*
X20272142Y-14632380D02*
X20272142Y-13632380D01*
X20272142Y-14108571D02*
X20786428Y-14108571D01*
X20786428Y-14632380D02*
X20786428Y-13632380D01*
X21129285Y-13965714D02*
X21600714Y-13965714D01*
X21129285Y-14632380D01*
X21600714Y-14632380D01*
X6729285Y-16232380D02*
X6729285Y-15232380D01*
X7072142Y-15232380D01*
X7157857Y-15280000D01*
X7200714Y-15327619D01*
X7243571Y-15422857D01*
X7243571Y-15565714D01*
X7200714Y-15660952D01*
X7157857Y-15708571D01*
X7072142Y-15756190D01*
X6729285Y-15756190D01*
X7757857Y-16232380D02*
X7672142Y-16184761D01*
X7629285Y-16137142D01*
X7586428Y-16041904D01*
X7586428Y-15756190D01*
X7629285Y-15660952D01*
X7672142Y-15613333D01*
X7757857Y-15565714D01*
X7886428Y-15565714D01*
X7972142Y-15613333D01*
X8015000Y-15660952D01*
X8057857Y-15756190D01*
X8057857Y-16041904D01*
X8015000Y-16137142D01*
X7972142Y-16184761D01*
X7886428Y-16232380D01*
X7757857Y-16232380D01*
X8357857Y-15565714D02*
X8529285Y-16232380D01*
X8700714Y-15756190D01*
X8872142Y-16232380D01*
X9043571Y-15565714D01*
X9729285Y-16184761D02*
X9643571Y-16232380D01*
X9472142Y-16232380D01*
X9386428Y-16184761D01*
X9343571Y-16089523D01*
X9343571Y-15708571D01*
X9386428Y-15613333D01*
X9472142Y-15565714D01*
X9643571Y-15565714D01*
X9729285Y-15613333D01*
X9772142Y-15708571D01*
X9772142Y-15803809D01*
X9343571Y-15899047D01*
X10157857Y-16232380D02*
X10157857Y-15565714D01*
X10157857Y-15756190D02*
X10200714Y-15660952D01*
X10243571Y-15613333D01*
X10329285Y-15565714D01*
X10415000Y-15565714D01*
X11572142Y-15232380D02*
X11743571Y-15232380D01*
X11829285Y-15280000D01*
X11915000Y-15375238D01*
X11957857Y-15565714D01*
X11957857Y-15899047D01*
X11915000Y-16089523D01*
X11829285Y-16184761D01*
X11743571Y-16232380D01*
X11572142Y-16232380D01*
X11486428Y-16184761D01*
X11400714Y-16089523D01*
X11357857Y-15899047D01*
X11357857Y-15565714D01*
X11400714Y-15375238D01*
X11486428Y-15280000D01*
X11572142Y-15232380D01*
X12729285Y-15565714D02*
X12729285Y-16232380D01*
X12343571Y-15565714D02*
X12343571Y-16089523D01*
X12386428Y-16184761D01*
X12472142Y-16232380D01*
X12600714Y-16232380D01*
X12686428Y-16184761D01*
X12729285Y-16137142D01*
X13029285Y-15565714D02*
X13372142Y-15565714D01*
X13157857Y-15232380D02*
X13157857Y-16089523D01*
X13200714Y-16184761D01*
X13286428Y-16232380D01*
X13372142Y-16232380D01*
X13672142Y-15565714D02*
X13672142Y-16565714D01*
X13672142Y-15613333D02*
X13757857Y-15565714D01*
X13929285Y-15565714D01*
X14015000Y-15613333D01*
X14057857Y-15660952D01*
X14100714Y-15756190D01*
X14100714Y-16041904D01*
X14057857Y-16137142D01*
X14015000Y-16184761D01*
X13929285Y-16232380D01*
X13757857Y-16232380D01*
X13672142Y-16184761D01*
X14872142Y-15565714D02*
X14872142Y-16232380D01*
X14486428Y-15565714D02*
X14486428Y-16089523D01*
X14529285Y-16184761D01*
X14615000Y-16232380D01*
X14743571Y-16232380D01*
X14829285Y-16184761D01*
X14872142Y-16137142D01*
X15172142Y-15565714D02*
X15515000Y-15565714D01*
X15300714Y-15232380D02*
X15300714Y-16089523D01*
X15343571Y-16184761D01*
X15429285Y-16232380D01*
X15515000Y-16232380D01*
X16757857Y-16613333D02*
X16715000Y-16565714D01*
X16629285Y-16422857D01*
X16586428Y-16327619D01*
X16543571Y-16184761D01*
X16500714Y-15946666D01*
X16500714Y-15756190D01*
X16543571Y-15518095D01*
X16586428Y-15375238D01*
X16629285Y-15280000D01*
X16715000Y-15137142D01*
X16757857Y-15089523D01*
X17615000Y-16137142D02*
X17572142Y-16184761D01*
X17443571Y-16232380D01*
X17357857Y-16232380D01*
X17229285Y-16184761D01*
X17143571Y-16089523D01*
X17100714Y-15994285D01*
X17057857Y-15803809D01*
X17057857Y-15660952D01*
X17100714Y-15470476D01*
X17143571Y-15375238D01*
X17229285Y-15280000D01*
X17357857Y-15232380D01*
X17443571Y-15232380D01*
X17572142Y-15280000D01*
X17615000Y-15327619D01*
X17915000Y-15232380D02*
X18129285Y-16232380D01*
X18300714Y-15518095D01*
X18472142Y-16232380D01*
X18686428Y-15232380D01*
X18943571Y-16613333D02*
X18986428Y-16565714D01*
X19072142Y-16422857D01*
X19115000Y-16327619D01*
X19157857Y-16184761D01*
X19200714Y-15946666D01*
X19200714Y-15756190D01*
X19157857Y-15518095D01*
X19115000Y-15375238D01*
X19072142Y-15280000D01*
X18986428Y-15137142D01*
X18943571Y-15089523D01*
X19629285Y-16137142D02*
X19672142Y-16184761D01*
X19629285Y-16232380D01*
X19586428Y-16184761D01*
X19629285Y-16137142D01*
X19629285Y-16232380D01*
X19629285Y-15613333D02*
X19672142Y-15660952D01*
X19629285Y-15708571D01*
X19586428Y-15660952D01*
X19629285Y-15613333D01*
X19629285Y-15708571D01*
X21129285Y-15565714D02*
X21129285Y-16232380D01*
X20743571Y-15565714D02*
X20743571Y-16089523D01*
X20786428Y-16184761D01*
X20872142Y-16232380D01*
X21000714Y-16232380D01*
X21086428Y-16184761D01*
X21129285Y-16137142D01*
X21557857Y-15565714D02*
X21557857Y-16565714D01*
X21557857Y-15613333D02*
X21643571Y-15565714D01*
X21815000Y-15565714D01*
X21900714Y-15613333D01*
X21943571Y-15660952D01*
X21986428Y-15756190D01*
X21986428Y-16041904D01*
X21943571Y-16137142D01*
X21900714Y-16184761D01*
X21815000Y-16232380D01*
X21643571Y-16232380D01*
X21557857Y-16184761D01*
X22929285Y-15565714D02*
X23272142Y-15565714D01*
X23057857Y-15232380D02*
X23057857Y-16089523D01*
X23100714Y-16184761D01*
X23186428Y-16232380D01*
X23272142Y-16232380D01*
X23700714Y-16232380D02*
X23615000Y-16184761D01*
X23572142Y-16137142D01*
X23529285Y-16041904D01*
X23529285Y-15756190D01*
X23572142Y-15660952D01*
X23615000Y-15613333D01*
X23700714Y-15565714D01*
X23829285Y-15565714D01*
X23915000Y-15613333D01*
X23957857Y-15660952D01*
X24000714Y-15756190D01*
X24000714Y-16041904D01*
X23957857Y-16137142D01*
X23915000Y-16184761D01*
X23829285Y-16232380D01*
X23700714Y-16232380D01*
X25543571Y-16232380D02*
X25029285Y-16232380D01*
X25286428Y-16232380D02*
X25286428Y-15232380D01*
X25200714Y-15375238D01*
X25115000Y-15470476D01*
X25029285Y-15518095D01*
X26100714Y-15232380D02*
X26186428Y-15232380D01*
X26272142Y-15280000D01*
X26315000Y-15327619D01*
X26357857Y-15422857D01*
X26400714Y-15613333D01*
X26400714Y-15851428D01*
X26357857Y-16041904D01*
X26315000Y-16137142D01*
X26272142Y-16184761D01*
X26186428Y-16232380D01*
X26100714Y-16232380D01*
X26015000Y-16184761D01*
X25972142Y-16137142D01*
X25929285Y-16041904D01*
X25886428Y-15851428D01*
X25886428Y-15613333D01*
X25929285Y-15422857D01*
X25972142Y-15327619D01*
X26015000Y-15280000D01*
X26100714Y-15232380D01*
X27857857Y-16232380D02*
X27857857Y-15232380D01*
X27857857Y-16184761D02*
X27772142Y-16232380D01*
X27600714Y-16232380D01*
X27515000Y-16184761D01*
X27472142Y-16137142D01*
X27429285Y-16041904D01*
X27429285Y-15756190D01*
X27472142Y-15660952D01*
X27515000Y-15613333D01*
X27600714Y-15565714D01*
X27772142Y-15565714D01*
X27857857Y-15613333D01*
X28586428Y-15708571D02*
X28715000Y-15756190D01*
X28757857Y-15803809D01*
X28800714Y-15899047D01*
X28800714Y-16041904D01*
X28757857Y-16137142D01*
X28715000Y-16184761D01*
X28629285Y-16232380D01*
X28286428Y-16232380D01*
X28286428Y-15232380D01*
X28586428Y-15232380D01*
X28672142Y-15280000D01*
X28715000Y-15327619D01*
X28757857Y-15422857D01*
X28757857Y-15518095D01*
X28715000Y-15613333D01*
X28672142Y-15660952D01*
X28586428Y-15708571D01*
X28286428Y-15708571D01*
X29186428Y-16232380D02*
X29186428Y-15565714D01*
X29186428Y-15660952D02*
X29229285Y-15613333D01*
X29315000Y-15565714D01*
X29443571Y-15565714D01*
X29529285Y-15613333D01*
X29572142Y-15708571D01*
X29572142Y-16232380D01*
X29572142Y-15708571D02*
X29615000Y-15613333D01*
X29700714Y-15565714D01*
X29829285Y-15565714D01*
X29915000Y-15613333D01*
X29957857Y-15708571D01*
X29957857Y-16232380D01*
X6729285Y-17832380D02*
X6729285Y-16832380D01*
X7029285Y-17546666D01*
X7329285Y-16832380D01*
X7329285Y-17832380D01*
X8143571Y-17165714D02*
X8143571Y-17832380D01*
X7757857Y-17165714D02*
X7757857Y-17689523D01*
X7800714Y-17784761D01*
X7886428Y-17832380D01*
X8015000Y-17832380D01*
X8100714Y-17784761D01*
X8143571Y-17737142D01*
X8700714Y-17832380D02*
X8615000Y-17784761D01*
X8572142Y-17689523D01*
X8572142Y-16832380D01*
X8915000Y-17165714D02*
X9257857Y-17165714D01*
X9043571Y-16832380D02*
X9043571Y-17689523D01*
X9086428Y-17784761D01*
X9172142Y-17832380D01*
X9257857Y-17832380D01*
X9557857Y-17832380D02*
X9557857Y-17165714D01*
X9557857Y-16832380D02*
X9515000Y-16880000D01*
X9557857Y-16927619D01*
X9600714Y-16880000D01*
X9557857Y-16832380D01*
X9557857Y-16927619D01*
X9986428Y-17165714D02*
X9986428Y-18165714D01*
X9986428Y-17213333D02*
X10072142Y-17165714D01*
X10243571Y-17165714D01*
X10329285Y-17213333D01*
X10372142Y-17260952D01*
X10415000Y-17356190D01*
X10415000Y-17641904D01*
X10372142Y-17737142D01*
X10329285Y-17784761D01*
X10243571Y-17832380D01*
X10072142Y-17832380D01*
X9986428Y-17784761D01*
X10929285Y-17832380D02*
X10843571Y-17784761D01*
X10800714Y-17689523D01*
X10800714Y-16832380D01*
X11615000Y-17784761D02*
X11529285Y-17832380D01*
X11357857Y-17832380D01*
X11272142Y-17784761D01*
X11229285Y-17689523D01*
X11229285Y-17308571D01*
X11272142Y-17213333D01*
X11357857Y-17165714D01*
X11529285Y-17165714D01*
X11615000Y-17213333D01*
X11657857Y-17308571D01*
X11657857Y-17403809D01*
X11229285Y-17499047D01*
X11957857Y-17832380D02*
X12429285Y-17165714D01*
X11957857Y-17165714D02*
X12429285Y-17832380D01*
X12772142Y-17832380D02*
X12772142Y-17165714D01*
X12772142Y-16832380D02*
X12729285Y-16880000D01*
X12772142Y-16927619D01*
X12815000Y-16880000D01*
X12772142Y-16832380D01*
X12772142Y-16927619D01*
X13200714Y-17165714D02*
X13200714Y-17832380D01*
X13200714Y-17260952D02*
X13243571Y-17213333D01*
X13329285Y-17165714D01*
X13457857Y-17165714D01*
X13543571Y-17213333D01*
X13586428Y-17308571D01*
X13586428Y-17832380D01*
X14400714Y-17165714D02*
X14400714Y-17975238D01*
X14357857Y-18070476D01*
X14315000Y-18118095D01*
X14229285Y-18165714D01*
X14100714Y-18165714D01*
X14015000Y-18118095D01*
X14400714Y-17784761D02*
X14315000Y-17832380D01*
X14143571Y-17832380D01*
X14057857Y-17784761D01*
X14015000Y-17737142D01*
X13972142Y-17641904D01*
X13972142Y-17356190D01*
X14015000Y-17260952D01*
X14057857Y-17213333D01*
X14143571Y-17165714D01*
X14315000Y-17165714D01*
X14400714Y-17213333D01*
X14829285Y-17737142D02*
X14872142Y-17784761D01*
X14829285Y-17832380D01*
X14786428Y-17784761D01*
X14829285Y-17737142D01*
X14829285Y-17832380D01*
X14829285Y-17213333D02*
X14872142Y-17260952D01*
X14829285Y-17308571D01*
X14786428Y-17260952D01*
X14829285Y-17213333D01*
X14829285Y-17308571D01*
X15900714Y-16927619D02*
X15943571Y-16880000D01*
X16029285Y-16832380D01*
X16243571Y-16832380D01*
X16329285Y-16880000D01*
X16372142Y-16927619D01*
X16415000Y-17022857D01*
X16415000Y-17118095D01*
X16372142Y-17260952D01*
X15857857Y-17832380D01*
X16415000Y-17832380D01*
X16715000Y-17832380D02*
X17186428Y-17165714D01*
X16715000Y-17165714D02*
X17186428Y-17832380D01*
X17486428Y-16927619D02*
X17529285Y-16880000D01*
X17615000Y-16832380D01*
X17829285Y-16832380D01*
X17915000Y-16880000D01*
X17957857Y-16927619D01*
X18000714Y-17022857D01*
X18000714Y-17118095D01*
X17957857Y-17260952D01*
X17443571Y-17832380D01*
X18000714Y-17832380D01*
X19072142Y-17832380D02*
X19072142Y-16832380D01*
X19372142Y-17546666D01*
X19672142Y-16832380D01*
X19672142Y-17832380D01*
X20100714Y-17832380D02*
X20100714Y-16832380D01*
X20529285Y-17832380D02*
X20529285Y-16832380D01*
X20829285Y-17546666D01*
X21129285Y-16832380D01*
X21129285Y-17832380D01*
X21729285Y-16832380D02*
X21900714Y-16832380D01*
X21986428Y-16880000D01*
X22072142Y-16975238D01*
X22115000Y-17165714D01*
X22115000Y-17499047D01*
X22072142Y-17689523D01*
X21986428Y-17784761D01*
X21900714Y-17832380D01*
X21729285Y-17832380D01*
X21643571Y-17784761D01*
X21557857Y-17689523D01*
X21515000Y-17499047D01*
X21515000Y-17165714D01*
X21557857Y-16975238D01*
X21643571Y-16880000D01*
X21729285Y-16832380D01*
%LPC*%
X69031904Y-23100476D02*
X68993809Y-23176666D01*
X68917619Y-23214761D01*
X68231904Y-23214761D01*
X68498571Y-22452857D02*
X69031904Y-22452857D01*
X68498571Y-22795714D02*
X68917619Y-22795714D01*
X68993809Y-22757619D01*
X69031904Y-22681428D01*
X69031904Y-22567142D01*
X68993809Y-22490952D01*
X68955714Y-22452857D01*
X68498571Y-22186190D02*
X68498571Y-21881428D01*
X69031904Y-22071904D02*
X68346190Y-22071904D01*
X68270000Y-22033809D01*
X68231904Y-21957619D01*
X68231904Y-21881428D01*
X68498571Y-21729047D02*
X68498571Y-21424285D01*
X68231904Y-21614761D02*
X68917619Y-21614761D01*
X68993809Y-21576666D01*
X69031904Y-21500476D01*
X69031904Y-21424285D01*
X68993809Y-20852857D02*
X69031904Y-20929047D01*
X69031904Y-21081428D01*
X68993809Y-21157619D01*
X68917619Y-21195714D01*
X68612857Y-21195714D01*
X68536666Y-21157619D01*
X68498571Y-21081428D01*
X68498571Y-20929047D01*
X68536666Y-20852857D01*
X68612857Y-20814761D01*
X68689047Y-20814761D01*
X68765238Y-21195714D01*
X69031904Y-20471904D02*
X68231904Y-20471904D01*
X68727142Y-20395714D02*
X69031904Y-20167142D01*
X68498571Y-20167142D02*
X68803333Y-20471904D01*
D10*
X69653394Y-23183490D02*
X69615299Y-23145394D01*
X69577203Y-23069204D01*
X69577203Y-22878728D01*
X69615299Y-22802537D01*
X69653394Y-22764442D01*
X69729584Y-22726347D01*
X69805775Y-22726347D01*
X69920060Y-22764442D01*
X70377203Y-23221585D01*
X70377203Y-22726347D01*
X69577203Y-22231109D02*
X69577203Y-22154918D01*
X69615299Y-22078728D01*
X69653394Y-22040632D01*
X69729584Y-22002537D01*
X69881965Y-21964442D01*
X70072441Y-21964442D01*
X70224822Y-22002537D01*
X70301013Y-22040632D01*
X70339108Y-22078728D01*
X70377203Y-22154918D01*
X70377203Y-22231109D01*
X70339108Y-22307299D01*
X70301013Y-22345394D01*
X70224822Y-22383490D01*
X70072441Y-22421585D01*
X69881965Y-22421585D01*
X69729584Y-22383490D01*
X69653394Y-22345394D01*
X69615299Y-22307299D01*
X69577203Y-22231109D01*
X70377203Y-21202537D02*
X70377203Y-21659680D01*
X70377203Y-21431109D02*
X69577203Y-21431109D01*
X69691489Y-21507299D01*
X69767679Y-21583490D01*
X69805775Y-21659680D01*
X69577203Y-20935871D02*
X69577203Y-20402537D01*
X70377203Y-20745394D01*
X69577203Y-19945394D02*
X69577203Y-19869204D01*
X69615299Y-19793013D01*
X69653394Y-19754918D01*
X69729584Y-19716823D01*
X69881965Y-19678728D01*
X70072441Y-19678728D01*
X70224822Y-19716823D01*
X70301013Y-19754918D01*
X70339108Y-19793013D01*
X70377203Y-19869204D01*
X70377203Y-19945394D01*
X70339108Y-20021585D01*
X70301013Y-20059680D01*
X70224822Y-20097775D01*
X70072441Y-20135871D01*
X69881965Y-20135871D01*
X69729584Y-20097775D01*
X69653394Y-20059680D01*
X69615299Y-20021585D01*
X69577203Y-19945394D01*
X69577203Y-18993013D02*
X69577203Y-19145394D01*
X69615299Y-19221585D01*
X69653394Y-19259680D01*
X69767679Y-19335871D01*
X69920060Y-19373966D01*
X70224822Y-19373966D01*
X70301013Y-19335871D01*
X70339108Y-19297775D01*
X70377203Y-19221585D01*
X70377203Y-19069204D01*
X70339108Y-18993013D01*
X70301013Y-18954918D01*
X70224822Y-18916823D01*
X70034346Y-18916823D01*
X69958156Y-18954918D01*
X69920060Y-18993013D01*
X69881965Y-19069204D01*
X69881965Y-19221585D01*
X69920060Y-19297775D01*
X69958156Y-19335871D01*
X70034346Y-19373966D01*
X70377203Y-18154918D02*
X70377203Y-18612061D01*
X70377203Y-18383490D02*
X69577203Y-18383490D01*
X69691489Y-18459680D01*
X69767679Y-18535871D01*
X69805775Y-18612061D01*
X69653394Y-17850156D02*
X69615299Y-17812061D01*
X69577203Y-17735871D01*
X69577203Y-17545394D01*
X69615299Y-17469204D01*
X69653394Y-17431109D01*
X69729584Y-17393013D01*
X69805775Y-17393013D01*
X69920060Y-17431109D01*
X70377203Y-17888251D01*
X70377203Y-17393013D01*
D11*
X31328571Y-31931904D02*
X31861904Y-31931904D01*
X31519047Y-32731904D01*
X32509523Y-31931904D02*
X32357142Y-31931904D01*
X32280952Y-31970000D01*
X32242857Y-32008095D01*
X32166666Y-32122380D01*
X32128571Y-32274761D01*
X32128571Y-32579523D01*
X32166666Y-32655714D01*
X32204761Y-32693809D01*
X32280952Y-32731904D01*
X32433333Y-32731904D01*
X32509523Y-32693809D01*
X32547619Y-32655714D01*
X32585714Y-32579523D01*
X32585714Y-32389047D01*
X32547619Y-32312857D01*
X32509523Y-32274761D01*
X32433333Y-32236666D01*
X32280952Y-32236666D01*
X32204761Y-32274761D01*
X32166666Y-32312857D01*
X32128571Y-32389047D01*
X32852380Y-32731904D02*
X33271428Y-32198571D01*
X32852380Y-32198571D02*
X33271428Y-32731904D01*
X33500000Y-31931904D02*
X33995238Y-31931904D01*
X33728571Y-32236666D01*
X33842857Y-32236666D01*
X33919047Y-32274761D01*
X33957142Y-32312857D01*
X33995238Y-32389047D01*
X33995238Y-32579523D01*
X33957142Y-32655714D01*
X33919047Y-32693809D01*
X33842857Y-32731904D01*
X33614285Y-32731904D01*
X33538095Y-32693809D01*
X33500000Y-32655714D01*
X34719047Y-31931904D02*
X34338095Y-31931904D01*
X34300000Y-32312857D01*
X34338095Y-32274761D01*
X34414285Y-32236666D01*
X34604761Y-32236666D01*
X34680952Y-32274761D01*
X34719047Y-32312857D01*
X34757142Y-32389047D01*
X34757142Y-32579523D01*
X34719047Y-32655714D01*
X34680952Y-32693809D01*
X34604761Y-32731904D01*
X34414285Y-32731904D01*
X34338095Y-32693809D01*
X34300000Y-32655714D01*
X35023809Y-32731904D02*
X35442857Y-32198571D01*
X35023809Y-32198571D02*
X35442857Y-32731904D01*
X36166666Y-32731904D02*
X35709523Y-32731904D01*
X35938095Y-32731904D02*
X35938095Y-31931904D01*
X35861904Y-32046190D01*
X35785714Y-32122380D01*
X35709523Y-32160476D01*
X36661904Y-31931904D02*
X36738095Y-31931904D01*
X36814285Y-31970000D01*
X36852380Y-32008095D01*
X36890476Y-32084285D01*
X36928571Y-32236666D01*
X36928571Y-32427142D01*
X36890476Y-32579523D01*
X36852380Y-32655714D01*
X36814285Y-32693809D01*
X36738095Y-32731904D01*
X36661904Y-32731904D01*
X36585714Y-32693809D01*
X36547619Y-32655714D01*
X36509523Y-32579523D01*
X36471428Y-32427142D01*
X36471428Y-32236666D01*
X36509523Y-32084285D01*
X36547619Y-32008095D01*
X36585714Y-31970000D01*
X36661904Y-31931904D01*
X37423809Y-31931904D02*
X37500000Y-31931904D01*
X37576190Y-31970000D01*
X37614285Y-32008095D01*
X37652380Y-32084285D01*
X37690476Y-32236666D01*
X37690476Y-32427142D01*
X37652380Y-32579523D01*
X37614285Y-32655714D01*
X37576190Y-32693809D01*
X37500000Y-32731904D01*
X37423809Y-32731904D01*
X37347619Y-32693809D01*
X37309523Y-32655714D01*
X37271428Y-32579523D01*
X37233333Y-32427142D01*
X37233333Y-32236666D01*
X37271428Y-32084285D01*
X37309523Y-32008095D01*
X37347619Y-31970000D01*
X37423809Y-31931904D01*
X38604761Y-32693809D02*
X38680952Y-32731904D01*
X38833333Y-32731904D01*
X38909523Y-32693809D01*
X38947619Y-32617619D01*
X38947619Y-32579523D01*
X38909523Y-32503333D01*
X38833333Y-32465238D01*
X38719047Y-32465238D01*
X38642857Y-32427142D01*
X38604761Y-32350952D01*
X38604761Y-32312857D01*
X38642857Y-32236666D01*
X38719047Y-32198571D01*
X38833333Y-32198571D01*
X38909523Y-32236666D01*
X39290476Y-32198571D02*
X39290476Y-32998571D01*
X39290476Y-32236666D02*
X39366666Y-32198571D01*
X39519047Y-32198571D01*
X39595238Y-32236666D01*
X39633333Y-32274761D01*
X39671428Y-32350952D01*
X39671428Y-32579523D01*
X39633333Y-32655714D01*
X39595238Y-32693809D01*
X39519047Y-32731904D01*
X39366666Y-32731904D01*
X39290476Y-32693809D01*
X40128571Y-32731904D02*
X40052380Y-32693809D01*
X40014285Y-32617619D01*
X40014285Y-31931904D01*
X40433333Y-32731904D02*
X40433333Y-32198571D01*
X40433333Y-31931904D02*
X40395238Y-31970000D01*
X40433333Y-32008095D01*
X40471428Y-31970000D01*
X40433333Y-31931904D01*
X40433333Y-32008095D01*
X40700000Y-32198571D02*
X41004761Y-32198571D01*
X40814285Y-31931904D02*
X40814285Y-32617619D01*
X40852380Y-32693809D01*
X40928571Y-32731904D01*
X41004761Y-32731904D01*
X41842857Y-32693809D02*
X41919047Y-32731904D01*
X42071428Y-32731904D01*
X42147619Y-32693809D01*
X42185714Y-32617619D01*
X42185714Y-32579523D01*
X42147619Y-32503333D01*
X42071428Y-32465238D01*
X41957142Y-32465238D01*
X41880952Y-32427142D01*
X41842857Y-32350952D01*
X41842857Y-32312857D01*
X41880952Y-32236666D01*
X41957142Y-32198571D01*
X42071428Y-32198571D01*
X42147619Y-32236666D01*
X42528571Y-32731904D02*
X42528571Y-31931904D01*
X42871428Y-32731904D02*
X42871428Y-32312857D01*
X42833333Y-32236666D01*
X42757142Y-32198571D01*
X42642857Y-32198571D01*
X42566666Y-32236666D01*
X42528571Y-32274761D01*
X43557142Y-32693809D02*
X43480952Y-32731904D01*
X43328571Y-32731904D01*
X43252380Y-32693809D01*
X43214285Y-32617619D01*
X43214285Y-32312857D01*
X43252380Y-32236666D01*
X43328571Y-32198571D01*
X43480952Y-32198571D01*
X43557142Y-32236666D01*
X43595238Y-32312857D01*
X43595238Y-32389047D01*
X43214285Y-32465238D01*
X44052380Y-32731904D02*
X43976190Y-32693809D01*
X43938095Y-32617619D01*
X43938095Y-31931904D01*
X44471428Y-32731904D02*
X44395238Y-32693809D01*
X44357142Y-32617619D01*
X44357142Y-31931904D01*
D12*
X55770000Y-9940000D02*
X55770000Y-13910000D01*
D13*
X56680000Y-11920000D02*
G75*
G03X56680000Y-11920000I-3830000J0D01*
G01*
D14*
X55510000Y-11920000D02*
G75*
G03X55510000Y-11920000I-2660000J0D01*
G01*
X66510000Y-11920000D02*
G75*
G03X66510000Y-11920000I-2660000J0D01*
G01*
D13*
X67680000Y-11920000D02*
G75*
G03X67680000Y-11920000I-3830000J0D01*
G01*
D12*
X66770000Y-9940000D02*
X66770000Y-13910000D01*
D15*
G36*
X70810034Y-40261D02*
X70554275Y-1936405D01*
X4774027Y-1956332D01*
X4800593Y9534D01*
X70810034Y-40261D01*
X70810034Y-40261D01*
G37*
X70810034Y-40261D02*
X70554275Y-1936405D01*
X4774027Y-1956332D01*
X4800593Y9534D01*
X70810034Y-40261D01*
G36*
X70107723Y-35066331D02*
X5911716Y-35046410D01*
X5902886Y-33130331D01*
X70098872Y-33110410D01*
X70107723Y-35066331D01*
X70107723Y-35066331D01*
G37*
X70107723Y-35066331D02*
X5911716Y-35046410D01*
X5902886Y-33130331D01*
X70098872Y-33110410D01*
X70107723Y-35066331D01*
G36*
X76028342Y-9760981D02*
X75791799Y-10076371D01*
X75095299Y-10076371D01*
X75046698Y-10086038D01*
X75005496Y-10113568D01*
X74977966Y-10154770D01*
X74968299Y-10203110D01*
X74938299Y-24803110D01*
X74947867Y-24851731D01*
X74975312Y-24892989D01*
X75016457Y-24920604D01*
X75065299Y-24930371D01*
X75802693Y-24930371D01*
X76028299Y-25155977D01*
X76028299Y-35076371D01*
X70021723Y-35076371D01*
X70012299Y-33003014D01*
X70012299Y-30845704D01*
X70087649Y-30745237D01*
X70142853Y-30719759D01*
X70248739Y-30755054D01*
X70841852Y-31311098D01*
X70922527Y-31615869D01*
X70958345Y-31675935D01*
X71288345Y-31985935D01*
X71327095Y-32010867D01*
X71717095Y-32170867D01*
X71765299Y-32180371D01*
X72145299Y-32180371D01*
X72208667Y-32163432D01*
X72538667Y-31973432D01*
X72559446Y-31958494D01*
X72819446Y-31728494D01*
X72852614Y-31682014D01*
X73022614Y-31272014D01*
X73032244Y-31219637D01*
X73022244Y-30879637D01*
X73013461Y-30836822D01*
X72883461Y-30506822D01*
X72858364Y-30466954D01*
X72598364Y-30186954D01*
X72556046Y-30156951D01*
X72187598Y-29996345D01*
X71619838Y-29437893D01*
X71579901Y-29278146D01*
X71630552Y-29176845D01*
X71777293Y-29099981D01*
X73346886Y-29080361D01*
X73395363Y-29070087D01*
X73436217Y-29042044D01*
X73463230Y-29000501D01*
X73472299Y-28953371D01*
X73472299Y-27053371D01*
X73462632Y-27004770D01*
X73435102Y-26963568D01*
X73393900Y-26936038D01*
X73346848Y-26926380D01*
X71012365Y-26897911D01*
X71022233Y-8168291D01*
X73317398Y-8130354D01*
X73365832Y-8119884D01*
X73406573Y-8091677D01*
X73433419Y-8050026D01*
X73442297Y-8004032D01*
X73452297Y-6084032D01*
X73442883Y-6035382D01*
X73415568Y-5994037D01*
X73374510Y-5966293D01*
X73326046Y-5956373D01*
X71675486Y-5946664D01*
X71585938Y-5863512D01*
X71540377Y-5783780D01*
X71560776Y-5697085D01*
X72126157Y-5122436D01*
X72419892Y-5012285D01*
X72462708Y-4985505D01*
X72852708Y-4615505D01*
X72886042Y-4562744D01*
X73036042Y-4102744D01*
X73038087Y-4030936D01*
X72898087Y-3500936D01*
X72866291Y-3444774D01*
X72496291Y-3064774D01*
X72455460Y-3036697D01*
X72427245Y-3028281D01*
X71857245Y-2928281D01*
X71804497Y-2930163D01*
X71444497Y-3020163D01*
X71393996Y-3045807D01*
X71033996Y-3345807D01*
X70998336Y-3393887D01*
X70789864Y-3886639D01*
X70238360Y-4363363D01*
X70189062Y-4383082D01*
X70111387Y-4372725D01*
X70054539Y-4321046D01*
X70002197Y-4171495D01*
X69992312Y-2095670D01*
X70077116Y-32111D01*
X71363498Y-50358D01*
X71366093Y-50369D01*
X76038170Y-21169D01*
X76028342Y-9760981D01*
X76028342Y-9760981D01*
G37*
X76028342Y-9760981D02*
X75791799Y-10076371D01*
X75095299Y-10076371D01*
X75046698Y-10086038D01*
X75005496Y-10113568D01*
X74977966Y-10154770D01*
X74968299Y-10203110D01*
X74938299Y-24803110D01*
X74947867Y-24851731D01*
X74975312Y-24892989D01*
X75016457Y-24920604D01*
X75065299Y-24930371D01*
X75802693Y-24930371D01*
X76028299Y-25155977D01*
X76028299Y-35076371D01*
X70021723Y-35076371D01*
X70012299Y-33003014D01*
X70012299Y-30845704D01*
X70087649Y-30745237D01*
X70142853Y-30719759D01*
X70248739Y-30755054D01*
X70841852Y-31311098D01*
X70922527Y-31615869D01*
X70958345Y-31675935D01*
X71288345Y-31985935D01*
X71327095Y-32010867D01*
X71717095Y-32170867D01*
X71765299Y-32180371D01*
X72145299Y-32180371D01*
X72208667Y-32163432D01*
X72538667Y-31973432D01*
X72559446Y-31958494D01*
X72819446Y-31728494D01*
X72852614Y-31682014D01*
X73022614Y-31272014D01*
X73032244Y-31219637D01*
X73022244Y-30879637D01*
X73013461Y-30836822D01*
X72883461Y-30506822D01*
X72858364Y-30466954D01*
X72598364Y-30186954D01*
X72556046Y-30156951D01*
X72187598Y-29996345D01*
X71619838Y-29437893D01*
X71579901Y-29278146D01*
X71630552Y-29176845D01*
X71777293Y-29099981D01*
X73346886Y-29080361D01*
X73395363Y-29070087D01*
X73436217Y-29042044D01*
X73463230Y-29000501D01*
X73472299Y-28953371D01*
X73472299Y-27053371D01*
X73462632Y-27004770D01*
X73435102Y-26963568D01*
X73393900Y-26936038D01*
X73346848Y-26926380D01*
X71012365Y-26897911D01*
X71022233Y-8168291D01*
X73317398Y-8130354D01*
X73365832Y-8119884D01*
X73406573Y-8091677D01*
X73433419Y-8050026D01*
X73442297Y-8004032D01*
X73452297Y-6084032D01*
X73442883Y-6035382D01*
X73415568Y-5994037D01*
X73374510Y-5966293D01*
X73326046Y-5956373D01*
X71675486Y-5946664D01*
X71585938Y-5863512D01*
X71540377Y-5783780D01*
X71560776Y-5697085D01*
X72126157Y-5122436D01*
X72419892Y-5012285D01*
X72462708Y-4985505D01*
X72852708Y-4615505D01*
X72886042Y-4562744D01*
X73036042Y-4102744D01*
X73038087Y-4030936D01*
X72898087Y-3500936D01*
X72866291Y-3444774D01*
X72496291Y-3064774D01*
X72455460Y-3036697D01*
X72427245Y-3028281D01*
X71857245Y-2928281D01*
X71804497Y-2930163D01*
X71444497Y-3020163D01*
X71393996Y-3045807D01*
X71033996Y-3345807D01*
X70998336Y-3393887D01*
X70789864Y-3886639D01*
X70238360Y-4363363D01*
X70189062Y-4383082D01*
X70111387Y-4372725D01*
X70054539Y-4321046D01*
X70002197Y-4171495D01*
X69992312Y-2095670D01*
X70077116Y-32111D01*
X71363498Y-50358D01*
X71366093Y-50369D01*
X76038170Y-21169D01*
X76028342Y-9760981D01*
G36*
X5848299Y-2033728D02*
X5848299Y-4191037D01*
X5772948Y-4291506D01*
X5717745Y-4316985D01*
X5611859Y-4281688D01*
X5018746Y-3725642D01*
X4938070Y-3420872D01*
X4902253Y-3360807D01*
X4572253Y-3050807D01*
X4533503Y-3025875D01*
X4143503Y-2865875D01*
X4095299Y-2856371D01*
X3715299Y-2856371D01*
X3651931Y-2873310D01*
X3321931Y-3063310D01*
X3301152Y-3078248D01*
X3041153Y-3308247D01*
X3007985Y-3354727D01*
X2837984Y-3764728D01*
X2828354Y-3817105D01*
X2838354Y-4157105D01*
X2847137Y-4199919D01*
X2977136Y-4529920D01*
X3002234Y-4569790D01*
X3262235Y-4849789D01*
X3304552Y-4879792D01*
X3673003Y-5040398D01*
X4240761Y-5598851D01*
X4280696Y-5758595D01*
X4230045Y-5859897D01*
X4083306Y-5936761D01*
X2513712Y-5956381D01*
X2465235Y-5966655D01*
X2424381Y-5994698D01*
X2397368Y-6036241D01*
X2388299Y-6083371D01*
X2388300Y-7983371D01*
X2397967Y-8031972D01*
X2425497Y-8073174D01*
X2466699Y-8100704D01*
X2513751Y-8110362D01*
X4848234Y-8138833D01*
X4838365Y-26868451D01*
X2543201Y-26906388D01*
X2494767Y-26916858D01*
X2454026Y-26945065D01*
X2427180Y-26986716D01*
X2418302Y-27032709D01*
X2408301Y-28952709D01*
X2417715Y-29001360D01*
X2445030Y-29042705D01*
X2486088Y-29070449D01*
X2534552Y-29080369D01*
X4185112Y-29090077D01*
X4274660Y-29173230D01*
X4320221Y-29252962D01*
X4299822Y-29339657D01*
X3734441Y-29914307D01*
X3440707Y-30024457D01*
X3397890Y-30051237D01*
X3007890Y-30421237D01*
X2974556Y-30473998D01*
X2824556Y-30933998D01*
X2822511Y-31005806D01*
X2962511Y-31535806D01*
X2994307Y-31591968D01*
X3364307Y-31971968D01*
X3405138Y-32000045D01*
X3433353Y-32008461D01*
X4003353Y-32108461D01*
X4056101Y-32106579D01*
X4416101Y-32016579D01*
X4466602Y-31990935D01*
X4826602Y-31690935D01*
X4862262Y-31642855D01*
X5070735Y-31150101D01*
X5622239Y-30673378D01*
X5671535Y-30653660D01*
X5749211Y-30664017D01*
X5806059Y-30715696D01*
X5858401Y-30865247D01*
X5868286Y-32941072D01*
X5783385Y-35006989D01*
X3935048Y-35016371D01*
X-177573Y-35016371D01*
X-167744Y-25275761D01*
X68799Y-24960371D01*
X765299Y-24960372D01*
X813900Y-24950705D01*
X855101Y-24923175D01*
X882632Y-24881973D01*
X892299Y-24833633D01*
X922299Y-10233632D01*
X912731Y-10185011D01*
X885286Y-10143753D01*
X844141Y-10116138D01*
X795299Y-10106371D01*
X57905Y-10106371D01*
X-167701Y-9880765D01*
X-167703Y39628D01*
X5838873Y39628D01*
X5848299Y-2033728D01*
X5848299Y-2033728D01*
G37*
X5848299Y-2033728D02*
X5848299Y-4191037D01*
X5772948Y-4291506D01*
X5717745Y-4316985D01*
X5611859Y-4281688D01*
X5018746Y-3725642D01*
X4938070Y-3420872D01*
X4902253Y-3360807D01*
X4572253Y-3050807D01*
X4533503Y-3025875D01*
X4143503Y-2865875D01*
X4095299Y-2856371D01*
X3715299Y-2856371D01*
X3651931Y-2873310D01*
X3321931Y-3063310D01*
X3301152Y-3078248D01*
X3041153Y-3308247D01*
X3007985Y-3354727D01*
X2837984Y-3764728D01*
X2828354Y-3817105D01*
X2838354Y-4157105D01*
X2847137Y-4199919D01*
X2977136Y-4529920D01*
X3002234Y-4569790D01*
X3262235Y-4849789D01*
X3304552Y-4879792D01*
X3673003Y-5040398D01*
X4240761Y-5598851D01*
X4280696Y-5758595D01*
X4230045Y-5859897D01*
X4083306Y-5936761D01*
X2513712Y-5956381D01*
X2465235Y-5966655D01*
X2424381Y-5994698D01*
X2397368Y-6036241D01*
X2388299Y-6083371D01*
X2388300Y-7983371D01*
X2397967Y-8031972D01*
X2425497Y-8073174D01*
X2466699Y-8100704D01*
X2513751Y-8110362D01*
X4848234Y-8138833D01*
X4838365Y-26868451D01*
X2543201Y-26906388D01*
X2494767Y-26916858D01*
X2454026Y-26945065D01*
X2427180Y-26986716D01*
X2418302Y-27032709D01*
X2408301Y-28952709D01*
X2417715Y-29001360D01*
X2445030Y-29042705D01*
X2486088Y-29070449D01*
X2534552Y-29080369D01*
X4185112Y-29090077D01*
X4274660Y-29173230D01*
X4320221Y-29252962D01*
X4299822Y-29339657D01*
X3734441Y-29914307D01*
X3440707Y-30024457D01*
X3397890Y-30051237D01*
X3007890Y-30421237D01*
X2974556Y-30473998D01*
X2824556Y-30933998D01*
X2822511Y-31005806D01*
X2962511Y-31535806D01*
X2994307Y-31591968D01*
X3364307Y-31971968D01*
X3405138Y-32000045D01*
X3433353Y-32008461D01*
X4003353Y-32108461D01*
X4056101Y-32106579D01*
X4416101Y-32016579D01*
X4466602Y-31990935D01*
X4826602Y-31690935D01*
X4862262Y-31642855D01*
X5070735Y-31150101D01*
X5622239Y-30673378D01*
X5671535Y-30653660D01*
X5749211Y-30664017D01*
X5806059Y-30715696D01*
X5858401Y-30865247D01*
X5868286Y-32941072D01*
X5783385Y-35006989D01*
X3935048Y-35016371D01*
X-177573Y-35016371D01*
X-167744Y-25275761D01*
X68799Y-24960371D01*
X765299Y-24960372D01*
X813900Y-24950705D01*
X855101Y-24923175D01*
X882632Y-24881973D01*
X892299Y-24833633D01*
X922299Y-10233632D01*
X912731Y-10185011D01*
X885286Y-10143753D01*
X844141Y-10116138D01*
X795299Y-10106371D01*
X57905Y-10106371D01*
X-167701Y-9880765D01*
X-167703Y39628D01*
X5838873Y39628D01*
X5848299Y-2033728D01*
M02*
