G04 #@! TF.GenerationSoftware,KiCad,Pcbnew,(2017-06-07 revision 51bed4bae)-makepkg*
G04 #@! TF.CreationDate,2017-06-10T23:55:19+02:00*
G04 #@! TF.ProjectId,Rear_Panel_76x35,526561725F50616E656C5F3736783335,rev?*
G04 #@! TF.FileFunction,Soldermask,Top*
G04 #@! TF.FilePolarity,Negative*
%FSLAX46Y46*%
G04 Gerber Fmt 4.6, Leading zero omitted, Abs format (unit mm)*
G04 Created by KiCad (PCBNEW (2017-06-07 revision 51bed4bae)-makepkg) date 06/10/17 23:55:19*
%MOMM*%
%LPD*%
G01*
G04 APERTURE LIST*
%ADD10C,0.150000*%
%ADD11C,0.100000*%
%ADD12C,0.700000*%
%ADD13C,1.350000*%
%ADD14C,3.000000*%
%ADD15C,0.254000*%
G04 APERTURE END LIST*
D10*
D11*
X69031904Y-23100476D02*
X68993809Y-23176666D01*
X68917619Y-23214761D01*
X68231904Y-23214761D01*
X68498571Y-22452857D02*
X69031904Y-22452857D01*
X68498571Y-22795714D02*
X68917619Y-22795714D01*
X68993809Y-22757619D01*
X69031904Y-22681428D01*
X69031904Y-22567142D01*
X68993809Y-22490952D01*
X68955714Y-22452857D01*
X68498571Y-22186190D02*
X68498571Y-21881428D01*
X69031904Y-22071904D02*
X68346190Y-22071904D01*
X68270000Y-22033809D01*
X68231904Y-21957619D01*
X68231904Y-21881428D01*
X68498571Y-21729047D02*
X68498571Y-21424285D01*
X68231904Y-21614761D02*
X68917619Y-21614761D01*
X68993809Y-21576666D01*
X69031904Y-21500476D01*
X69031904Y-21424285D01*
X68993809Y-20852857D02*
X69031904Y-20929047D01*
X69031904Y-21081428D01*
X68993809Y-21157619D01*
X68917619Y-21195714D01*
X68612857Y-21195714D01*
X68536666Y-21157619D01*
X68498571Y-21081428D01*
X68498571Y-20929047D01*
X68536666Y-20852857D01*
X68612857Y-20814761D01*
X68689047Y-20814761D01*
X68765238Y-21195714D01*
X69031904Y-20471904D02*
X68231904Y-20471904D01*
X68727142Y-20395714D02*
X69031904Y-20167142D01*
X68498571Y-20167142D02*
X68803333Y-20471904D01*
D10*
X69653394Y-23183490D02*
X69615299Y-23145394D01*
X69577203Y-23069204D01*
X69577203Y-22878728D01*
X69615299Y-22802537D01*
X69653394Y-22764442D01*
X69729584Y-22726347D01*
X69805775Y-22726347D01*
X69920060Y-22764442D01*
X70377203Y-23221585D01*
X70377203Y-22726347D01*
X69577203Y-22231109D02*
X69577203Y-22154918D01*
X69615299Y-22078728D01*
X69653394Y-22040632D01*
X69729584Y-22002537D01*
X69881965Y-21964442D01*
X70072441Y-21964442D01*
X70224822Y-22002537D01*
X70301013Y-22040632D01*
X70339108Y-22078728D01*
X70377203Y-22154918D01*
X70377203Y-22231109D01*
X70339108Y-22307299D01*
X70301013Y-22345394D01*
X70224822Y-22383490D01*
X70072441Y-22421585D01*
X69881965Y-22421585D01*
X69729584Y-22383490D01*
X69653394Y-22345394D01*
X69615299Y-22307299D01*
X69577203Y-22231109D01*
X70377203Y-21202537D02*
X70377203Y-21659680D01*
X70377203Y-21431109D02*
X69577203Y-21431109D01*
X69691489Y-21507299D01*
X69767679Y-21583490D01*
X69805775Y-21659680D01*
X69577203Y-20935871D02*
X69577203Y-20402537D01*
X70377203Y-20745394D01*
X69577203Y-19945394D02*
X69577203Y-19869204D01*
X69615299Y-19793013D01*
X69653394Y-19754918D01*
X69729584Y-19716823D01*
X69881965Y-19678728D01*
X70072441Y-19678728D01*
X70224822Y-19716823D01*
X70301013Y-19754918D01*
X70339108Y-19793013D01*
X70377203Y-19869204D01*
X70377203Y-19945394D01*
X70339108Y-20021585D01*
X70301013Y-20059680D01*
X70224822Y-20097775D01*
X70072441Y-20135871D01*
X69881965Y-20135871D01*
X69729584Y-20097775D01*
X69653394Y-20059680D01*
X69615299Y-20021585D01*
X69577203Y-19945394D01*
X69577203Y-18993013D02*
X69577203Y-19145394D01*
X69615299Y-19221585D01*
X69653394Y-19259680D01*
X69767679Y-19335871D01*
X69920060Y-19373966D01*
X70224822Y-19373966D01*
X70301013Y-19335871D01*
X70339108Y-19297775D01*
X70377203Y-19221585D01*
X70377203Y-19069204D01*
X70339108Y-18993013D01*
X70301013Y-18954918D01*
X70224822Y-18916823D01*
X70034346Y-18916823D01*
X69958156Y-18954918D01*
X69920060Y-18993013D01*
X69881965Y-19069204D01*
X69881965Y-19221585D01*
X69920060Y-19297775D01*
X69958156Y-19335871D01*
X70034346Y-19373966D01*
X70377203Y-18154918D02*
X70377203Y-18612061D01*
X70377203Y-18383490D02*
X69577203Y-18383490D01*
X69691489Y-18459680D01*
X69767679Y-18535871D01*
X69805775Y-18612061D01*
X69653394Y-17850156D02*
X69615299Y-17812061D01*
X69577203Y-17735871D01*
X69577203Y-17545394D01*
X69615299Y-17469204D01*
X69653394Y-17431109D01*
X69729584Y-17393013D01*
X69805775Y-17393013D01*
X69920060Y-17431109D01*
X70377203Y-17888251D01*
X70377203Y-17393013D01*
D11*
X31328571Y-31931904D02*
X31861904Y-31931904D01*
X31519047Y-32731904D01*
X32509523Y-31931904D02*
X32357142Y-31931904D01*
X32280952Y-31970000D01*
X32242857Y-32008095D01*
X32166666Y-32122380D01*
X32128571Y-32274761D01*
X32128571Y-32579523D01*
X32166666Y-32655714D01*
X32204761Y-32693809D01*
X32280952Y-32731904D01*
X32433333Y-32731904D01*
X32509523Y-32693809D01*
X32547619Y-32655714D01*
X32585714Y-32579523D01*
X32585714Y-32389047D01*
X32547619Y-32312857D01*
X32509523Y-32274761D01*
X32433333Y-32236666D01*
X32280952Y-32236666D01*
X32204761Y-32274761D01*
X32166666Y-32312857D01*
X32128571Y-32389047D01*
X32852380Y-32731904D02*
X33271428Y-32198571D01*
X32852380Y-32198571D02*
X33271428Y-32731904D01*
X33500000Y-31931904D02*
X33995238Y-31931904D01*
X33728571Y-32236666D01*
X33842857Y-32236666D01*
X33919047Y-32274761D01*
X33957142Y-32312857D01*
X33995238Y-32389047D01*
X33995238Y-32579523D01*
X33957142Y-32655714D01*
X33919047Y-32693809D01*
X33842857Y-32731904D01*
X33614285Y-32731904D01*
X33538095Y-32693809D01*
X33500000Y-32655714D01*
X34719047Y-31931904D02*
X34338095Y-31931904D01*
X34300000Y-32312857D01*
X34338095Y-32274761D01*
X34414285Y-32236666D01*
X34604761Y-32236666D01*
X34680952Y-32274761D01*
X34719047Y-32312857D01*
X34757142Y-32389047D01*
X34757142Y-32579523D01*
X34719047Y-32655714D01*
X34680952Y-32693809D01*
X34604761Y-32731904D01*
X34414285Y-32731904D01*
X34338095Y-32693809D01*
X34300000Y-32655714D01*
X35023809Y-32731904D02*
X35442857Y-32198571D01*
X35023809Y-32198571D02*
X35442857Y-32731904D01*
X36166666Y-32731904D02*
X35709523Y-32731904D01*
X35938095Y-32731904D02*
X35938095Y-31931904D01*
X35861904Y-32046190D01*
X35785714Y-32122380D01*
X35709523Y-32160476D01*
X36661904Y-31931904D02*
X36738095Y-31931904D01*
X36814285Y-31970000D01*
X36852380Y-32008095D01*
X36890476Y-32084285D01*
X36928571Y-32236666D01*
X36928571Y-32427142D01*
X36890476Y-32579523D01*
X36852380Y-32655714D01*
X36814285Y-32693809D01*
X36738095Y-32731904D01*
X36661904Y-32731904D01*
X36585714Y-32693809D01*
X36547619Y-32655714D01*
X36509523Y-32579523D01*
X36471428Y-32427142D01*
X36471428Y-32236666D01*
X36509523Y-32084285D01*
X36547619Y-32008095D01*
X36585714Y-31970000D01*
X36661904Y-31931904D01*
X37423809Y-31931904D02*
X37500000Y-31931904D01*
X37576190Y-31970000D01*
X37614285Y-32008095D01*
X37652380Y-32084285D01*
X37690476Y-32236666D01*
X37690476Y-32427142D01*
X37652380Y-32579523D01*
X37614285Y-32655714D01*
X37576190Y-32693809D01*
X37500000Y-32731904D01*
X37423809Y-32731904D01*
X37347619Y-32693809D01*
X37309523Y-32655714D01*
X37271428Y-32579523D01*
X37233333Y-32427142D01*
X37233333Y-32236666D01*
X37271428Y-32084285D01*
X37309523Y-32008095D01*
X37347619Y-31970000D01*
X37423809Y-31931904D01*
X38604761Y-32693809D02*
X38680952Y-32731904D01*
X38833333Y-32731904D01*
X38909523Y-32693809D01*
X38947619Y-32617619D01*
X38947619Y-32579523D01*
X38909523Y-32503333D01*
X38833333Y-32465238D01*
X38719047Y-32465238D01*
X38642857Y-32427142D01*
X38604761Y-32350952D01*
X38604761Y-32312857D01*
X38642857Y-32236666D01*
X38719047Y-32198571D01*
X38833333Y-32198571D01*
X38909523Y-32236666D01*
X39290476Y-32198571D02*
X39290476Y-32998571D01*
X39290476Y-32236666D02*
X39366666Y-32198571D01*
X39519047Y-32198571D01*
X39595238Y-32236666D01*
X39633333Y-32274761D01*
X39671428Y-32350952D01*
X39671428Y-32579523D01*
X39633333Y-32655714D01*
X39595238Y-32693809D01*
X39519047Y-32731904D01*
X39366666Y-32731904D01*
X39290476Y-32693809D01*
X40128571Y-32731904D02*
X40052380Y-32693809D01*
X40014285Y-32617619D01*
X40014285Y-31931904D01*
X40433333Y-32731904D02*
X40433333Y-32198571D01*
X40433333Y-31931904D02*
X40395238Y-31970000D01*
X40433333Y-32008095D01*
X40471428Y-31970000D01*
X40433333Y-31931904D01*
X40433333Y-32008095D01*
X40700000Y-32198571D02*
X41004761Y-32198571D01*
X40814285Y-31931904D02*
X40814285Y-32617619D01*
X40852380Y-32693809D01*
X40928571Y-32731904D01*
X41004761Y-32731904D01*
X41842857Y-32693809D02*
X41919047Y-32731904D01*
X42071428Y-32731904D01*
X42147619Y-32693809D01*
X42185714Y-32617619D01*
X42185714Y-32579523D01*
X42147619Y-32503333D01*
X42071428Y-32465238D01*
X41957142Y-32465238D01*
X41880952Y-32427142D01*
X41842857Y-32350952D01*
X41842857Y-32312857D01*
X41880952Y-32236666D01*
X41957142Y-32198571D01*
X42071428Y-32198571D01*
X42147619Y-32236666D01*
X42528571Y-32731904D02*
X42528571Y-31931904D01*
X42871428Y-32731904D02*
X42871428Y-32312857D01*
X42833333Y-32236666D01*
X42757142Y-32198571D01*
X42642857Y-32198571D01*
X42566666Y-32236666D01*
X42528571Y-32274761D01*
X43557142Y-32693809D02*
X43480952Y-32731904D01*
X43328571Y-32731904D01*
X43252380Y-32693809D01*
X43214285Y-32617619D01*
X43214285Y-32312857D01*
X43252380Y-32236666D01*
X43328571Y-32198571D01*
X43480952Y-32198571D01*
X43557142Y-32236666D01*
X43595238Y-32312857D01*
X43595238Y-32389047D01*
X43214285Y-32465238D01*
X44052380Y-32731904D02*
X43976190Y-32693809D01*
X43938095Y-32617619D01*
X43938095Y-31931904D01*
X44471428Y-32731904D02*
X44395238Y-32693809D01*
X44357142Y-32617619D01*
X44357142Y-31931904D01*
D12*
X55770000Y-9940000D02*
X55770000Y-13910000D01*
D13*
X56680000Y-11920000D02*
G75*
G03X56680000Y-11920000I-3830000J0D01*
G01*
D14*
X55510000Y-11920000D02*
G75*
G03X55510000Y-11920000I-2660000J0D01*
G01*
X66510000Y-11920000D02*
G75*
G03X66510000Y-11920000I-2660000J0D01*
G01*
D13*
X67680000Y-11920000D02*
G75*
G03X67680000Y-11920000I-3830000J0D01*
G01*
D12*
X66770000Y-9940000D02*
X66770000Y-13910000D01*
D15*
G36*
X70810034Y-40261D02*
X70554275Y-1936405D01*
X4774027Y-1956332D01*
X4800593Y9534D01*
X70810034Y-40261D01*
X70810034Y-40261D01*
G37*
X70810034Y-40261D02*
X70554275Y-1936405D01*
X4774027Y-1956332D01*
X4800593Y9534D01*
X70810034Y-40261D01*
G36*
X70107723Y-35066331D02*
X5911716Y-35046410D01*
X5902886Y-33130331D01*
X70098872Y-33110410D01*
X70107723Y-35066331D01*
X70107723Y-35066331D01*
G37*
X70107723Y-35066331D02*
X5911716Y-35046410D01*
X5902886Y-33130331D01*
X70098872Y-33110410D01*
X70107723Y-35066331D01*
G36*
X76028342Y-9760981D02*
X75791799Y-10076371D01*
X75095299Y-10076371D01*
X75046698Y-10086038D01*
X75005496Y-10113568D01*
X74977966Y-10154770D01*
X74968299Y-10203110D01*
X74938299Y-24803110D01*
X74947867Y-24851731D01*
X74975312Y-24892989D01*
X75016457Y-24920604D01*
X75065299Y-24930371D01*
X75802693Y-24930371D01*
X76028299Y-25155977D01*
X76028299Y-35076371D01*
X70021723Y-35076371D01*
X70012299Y-33003014D01*
X70012299Y-30845704D01*
X70087649Y-30745237D01*
X70142853Y-30719759D01*
X70248739Y-30755054D01*
X70841852Y-31311098D01*
X70922527Y-31615869D01*
X70958345Y-31675935D01*
X71288345Y-31985935D01*
X71327095Y-32010867D01*
X71717095Y-32170867D01*
X71765299Y-32180371D01*
X72145299Y-32180371D01*
X72208667Y-32163432D01*
X72538667Y-31973432D01*
X72559446Y-31958494D01*
X72819446Y-31728494D01*
X72852614Y-31682014D01*
X73022614Y-31272014D01*
X73032244Y-31219637D01*
X73022244Y-30879637D01*
X73013461Y-30836822D01*
X72883461Y-30506822D01*
X72858364Y-30466954D01*
X72598364Y-30186954D01*
X72556046Y-30156951D01*
X72187598Y-29996345D01*
X71619838Y-29437893D01*
X71579901Y-29278146D01*
X71630552Y-29176845D01*
X71777293Y-29099981D01*
X73346886Y-29080361D01*
X73395363Y-29070087D01*
X73436217Y-29042044D01*
X73463230Y-29000501D01*
X73472299Y-28953371D01*
X73472299Y-27053371D01*
X73462632Y-27004770D01*
X73435102Y-26963568D01*
X73393900Y-26936038D01*
X73346848Y-26926380D01*
X71012365Y-26897911D01*
X71022233Y-8168291D01*
X73317398Y-8130354D01*
X73365832Y-8119884D01*
X73406573Y-8091677D01*
X73433419Y-8050026D01*
X73442297Y-8004032D01*
X73452297Y-6084032D01*
X73442883Y-6035382D01*
X73415568Y-5994037D01*
X73374510Y-5966293D01*
X73326046Y-5956373D01*
X71675486Y-5946664D01*
X71585938Y-5863512D01*
X71540377Y-5783780D01*
X71560776Y-5697085D01*
X72126157Y-5122436D01*
X72419892Y-5012285D01*
X72462708Y-4985505D01*
X72852708Y-4615505D01*
X72886042Y-4562744D01*
X73036042Y-4102744D01*
X73038087Y-4030936D01*
X72898087Y-3500936D01*
X72866291Y-3444774D01*
X72496291Y-3064774D01*
X72455460Y-3036697D01*
X72427245Y-3028281D01*
X71857245Y-2928281D01*
X71804497Y-2930163D01*
X71444497Y-3020163D01*
X71393996Y-3045807D01*
X71033996Y-3345807D01*
X70998336Y-3393887D01*
X70789864Y-3886639D01*
X70238360Y-4363363D01*
X70189062Y-4383082D01*
X70111387Y-4372725D01*
X70054539Y-4321046D01*
X70002197Y-4171495D01*
X69992312Y-2095670D01*
X70077116Y-32111D01*
X71363498Y-50358D01*
X71366093Y-50369D01*
X76038170Y-21169D01*
X76028342Y-9760981D01*
X76028342Y-9760981D01*
G37*
X76028342Y-9760981D02*
X75791799Y-10076371D01*
X75095299Y-10076371D01*
X75046698Y-10086038D01*
X75005496Y-10113568D01*
X74977966Y-10154770D01*
X74968299Y-10203110D01*
X74938299Y-24803110D01*
X74947867Y-24851731D01*
X74975312Y-24892989D01*
X75016457Y-24920604D01*
X75065299Y-24930371D01*
X75802693Y-24930371D01*
X76028299Y-25155977D01*
X76028299Y-35076371D01*
X70021723Y-35076371D01*
X70012299Y-33003014D01*
X70012299Y-30845704D01*
X70087649Y-30745237D01*
X70142853Y-30719759D01*
X70248739Y-30755054D01*
X70841852Y-31311098D01*
X70922527Y-31615869D01*
X70958345Y-31675935D01*
X71288345Y-31985935D01*
X71327095Y-32010867D01*
X71717095Y-32170867D01*
X71765299Y-32180371D01*
X72145299Y-32180371D01*
X72208667Y-32163432D01*
X72538667Y-31973432D01*
X72559446Y-31958494D01*
X72819446Y-31728494D01*
X72852614Y-31682014D01*
X73022614Y-31272014D01*
X73032244Y-31219637D01*
X73022244Y-30879637D01*
X73013461Y-30836822D01*
X72883461Y-30506822D01*
X72858364Y-30466954D01*
X72598364Y-30186954D01*
X72556046Y-30156951D01*
X72187598Y-29996345D01*
X71619838Y-29437893D01*
X71579901Y-29278146D01*
X71630552Y-29176845D01*
X71777293Y-29099981D01*
X73346886Y-29080361D01*
X73395363Y-29070087D01*
X73436217Y-29042044D01*
X73463230Y-29000501D01*
X73472299Y-28953371D01*
X73472299Y-27053371D01*
X73462632Y-27004770D01*
X73435102Y-26963568D01*
X73393900Y-26936038D01*
X73346848Y-26926380D01*
X71012365Y-26897911D01*
X71022233Y-8168291D01*
X73317398Y-8130354D01*
X73365832Y-8119884D01*
X73406573Y-8091677D01*
X73433419Y-8050026D01*
X73442297Y-8004032D01*
X73452297Y-6084032D01*
X73442883Y-6035382D01*
X73415568Y-5994037D01*
X73374510Y-5966293D01*
X73326046Y-5956373D01*
X71675486Y-5946664D01*
X71585938Y-5863512D01*
X71540377Y-5783780D01*
X71560776Y-5697085D01*
X72126157Y-5122436D01*
X72419892Y-5012285D01*
X72462708Y-4985505D01*
X72852708Y-4615505D01*
X72886042Y-4562744D01*
X73036042Y-4102744D01*
X73038087Y-4030936D01*
X72898087Y-3500936D01*
X72866291Y-3444774D01*
X72496291Y-3064774D01*
X72455460Y-3036697D01*
X72427245Y-3028281D01*
X71857245Y-2928281D01*
X71804497Y-2930163D01*
X71444497Y-3020163D01*
X71393996Y-3045807D01*
X71033996Y-3345807D01*
X70998336Y-3393887D01*
X70789864Y-3886639D01*
X70238360Y-4363363D01*
X70189062Y-4383082D01*
X70111387Y-4372725D01*
X70054539Y-4321046D01*
X70002197Y-4171495D01*
X69992312Y-2095670D01*
X70077116Y-32111D01*
X71363498Y-50358D01*
X71366093Y-50369D01*
X76038170Y-21169D01*
X76028342Y-9760981D01*
G36*
X5848299Y-2033728D02*
X5848299Y-4191037D01*
X5772948Y-4291506D01*
X5717745Y-4316985D01*
X5611859Y-4281688D01*
X5018746Y-3725642D01*
X4938070Y-3420872D01*
X4902253Y-3360807D01*
X4572253Y-3050807D01*
X4533503Y-3025875D01*
X4143503Y-2865875D01*
X4095299Y-2856371D01*
X3715299Y-2856371D01*
X3651931Y-2873310D01*
X3321931Y-3063310D01*
X3301152Y-3078248D01*
X3041153Y-3308247D01*
X3007985Y-3354727D01*
X2837984Y-3764728D01*
X2828354Y-3817105D01*
X2838354Y-4157105D01*
X2847137Y-4199919D01*
X2977136Y-4529920D01*
X3002234Y-4569790D01*
X3262235Y-4849789D01*
X3304552Y-4879792D01*
X3673003Y-5040398D01*
X4240761Y-5598851D01*
X4280696Y-5758595D01*
X4230045Y-5859897D01*
X4083306Y-5936761D01*
X2513712Y-5956381D01*
X2465235Y-5966655D01*
X2424381Y-5994698D01*
X2397368Y-6036241D01*
X2388299Y-6083371D01*
X2388300Y-7983371D01*
X2397967Y-8031972D01*
X2425497Y-8073174D01*
X2466699Y-8100704D01*
X2513751Y-8110362D01*
X4848234Y-8138833D01*
X4838365Y-26868451D01*
X2543201Y-26906388D01*
X2494767Y-26916858D01*
X2454026Y-26945065D01*
X2427180Y-26986716D01*
X2418302Y-27032709D01*
X2408301Y-28952709D01*
X2417715Y-29001360D01*
X2445030Y-29042705D01*
X2486088Y-29070449D01*
X2534552Y-29080369D01*
X4185112Y-29090077D01*
X4274660Y-29173230D01*
X4320221Y-29252962D01*
X4299822Y-29339657D01*
X3734441Y-29914307D01*
X3440707Y-30024457D01*
X3397890Y-30051237D01*
X3007890Y-30421237D01*
X2974556Y-30473998D01*
X2824556Y-30933998D01*
X2822511Y-31005806D01*
X2962511Y-31535806D01*
X2994307Y-31591968D01*
X3364307Y-31971968D01*
X3405138Y-32000045D01*
X3433353Y-32008461D01*
X4003353Y-32108461D01*
X4056101Y-32106579D01*
X4416101Y-32016579D01*
X4466602Y-31990935D01*
X4826602Y-31690935D01*
X4862262Y-31642855D01*
X5070735Y-31150101D01*
X5622239Y-30673378D01*
X5671535Y-30653660D01*
X5749211Y-30664017D01*
X5806059Y-30715696D01*
X5858401Y-30865247D01*
X5868286Y-32941072D01*
X5783385Y-35006989D01*
X3935048Y-35016371D01*
X-177573Y-35016371D01*
X-167744Y-25275761D01*
X68799Y-24960371D01*
X765299Y-24960372D01*
X813900Y-24950705D01*
X855101Y-24923175D01*
X882632Y-24881973D01*
X892299Y-24833633D01*
X922299Y-10233632D01*
X912731Y-10185011D01*
X885286Y-10143753D01*
X844141Y-10116138D01*
X795299Y-10106371D01*
X57905Y-10106371D01*
X-167701Y-9880765D01*
X-167703Y39628D01*
X5838873Y39628D01*
X5848299Y-2033728D01*
X5848299Y-2033728D01*
G37*
X5848299Y-2033728D02*
X5848299Y-4191037D01*
X5772948Y-4291506D01*
X5717745Y-4316985D01*
X5611859Y-4281688D01*
X5018746Y-3725642D01*
X4938070Y-3420872D01*
X4902253Y-3360807D01*
X4572253Y-3050807D01*
X4533503Y-3025875D01*
X4143503Y-2865875D01*
X4095299Y-2856371D01*
X3715299Y-2856371D01*
X3651931Y-2873310D01*
X3321931Y-3063310D01*
X3301152Y-3078248D01*
X3041153Y-3308247D01*
X3007985Y-3354727D01*
X2837984Y-3764728D01*
X2828354Y-3817105D01*
X2838354Y-4157105D01*
X2847137Y-4199919D01*
X2977136Y-4529920D01*
X3002234Y-4569790D01*
X3262235Y-4849789D01*
X3304552Y-4879792D01*
X3673003Y-5040398D01*
X4240761Y-5598851D01*
X4280696Y-5758595D01*
X4230045Y-5859897D01*
X4083306Y-5936761D01*
X2513712Y-5956381D01*
X2465235Y-5966655D01*
X2424381Y-5994698D01*
X2397368Y-6036241D01*
X2388299Y-6083371D01*
X2388300Y-7983371D01*
X2397967Y-8031972D01*
X2425497Y-8073174D01*
X2466699Y-8100704D01*
X2513751Y-8110362D01*
X4848234Y-8138833D01*
X4838365Y-26868451D01*
X2543201Y-26906388D01*
X2494767Y-26916858D01*
X2454026Y-26945065D01*
X2427180Y-26986716D01*
X2418302Y-27032709D01*
X2408301Y-28952709D01*
X2417715Y-29001360D01*
X2445030Y-29042705D01*
X2486088Y-29070449D01*
X2534552Y-29080369D01*
X4185112Y-29090077D01*
X4274660Y-29173230D01*
X4320221Y-29252962D01*
X4299822Y-29339657D01*
X3734441Y-29914307D01*
X3440707Y-30024457D01*
X3397890Y-30051237D01*
X3007890Y-30421237D01*
X2974556Y-30473998D01*
X2824556Y-30933998D01*
X2822511Y-31005806D01*
X2962511Y-31535806D01*
X2994307Y-31591968D01*
X3364307Y-31971968D01*
X3405138Y-32000045D01*
X3433353Y-32008461D01*
X4003353Y-32108461D01*
X4056101Y-32106579D01*
X4416101Y-32016579D01*
X4466602Y-31990935D01*
X4826602Y-31690935D01*
X4862262Y-31642855D01*
X5070735Y-31150101D01*
X5622239Y-30673378D01*
X5671535Y-30653660D01*
X5749211Y-30664017D01*
X5806059Y-30715696D01*
X5858401Y-30865247D01*
X5868286Y-32941072D01*
X5783385Y-35006989D01*
X3935048Y-35016371D01*
X-177573Y-35016371D01*
X-167744Y-25275761D01*
X68799Y-24960371D01*
X765299Y-24960372D01*
X813900Y-24950705D01*
X855101Y-24923175D01*
X882632Y-24881973D01*
X892299Y-24833633D01*
X922299Y-10233632D01*
X912731Y-10185011D01*
X885286Y-10143753D01*
X844141Y-10116138D01*
X795299Y-10106371D01*
X57905Y-10106371D01*
X-167701Y-9880765D01*
X-167703Y39628D01*
X5838873Y39628D01*
X5848299Y-2033728D01*
M02*
