%
M48
METRIC,000.000
T01C0.46
T03C0.46
T05C3.00
T07C3.00
T09C3.00
T11C3.00
T13C0.50
%
T01
X011099Y033151
X011099Y017149
X011610Y035051
X011610Y031248
X011610Y019049
X011610Y015249
X012999Y036440
X012999Y029859
X012999Y020441
X012999Y013859
X014899Y036951
X014899Y029348
X014899Y020949
X014899Y013349
X016799Y036440
X016799Y029859
X016799Y020441
X016799Y013859
X018191Y035051
X018191Y031248
X018191Y019049
X018191Y015249
X018699Y033151
X018699Y017149
X027098Y033151
X027098Y017149
X027609Y035051
X027609Y031248
X027609Y019049
X027609Y015249
X028998Y036440
X028998Y029859
X028998Y020441
X028998Y013859
X030898Y036951
X030898Y029348
X030898Y020949
X030898Y013349
X032801Y036440
X032801Y029859
X032801Y020441
X032801Y013859
X034190Y035051
X034190Y031248
X034190Y019049
X034190Y015249
X034701Y033151
X034701Y017149
X043100Y033151
X043100Y017149
X043608Y035051
X043608Y031248
X043608Y019049
X043608Y015249
X045000Y036440
X045000Y029859
X045000Y020441
X045000Y013859
X046900Y036951
X046900Y029348
X046900Y020949
X046900Y013349
X048800Y036440
X048800Y029859
X048800Y020441
X048800Y013859
X050190Y035051
X050190Y031248
X050190Y019049
X050190Y015249
X050700Y033151
X050700Y017149
X063100Y033151
X063100Y017149
X063608Y035051
X063608Y031248
X063608Y019049
X063608Y015249
X065000Y036440
X065000Y029859
X065000Y020441
X065000Y013859
X066900Y036951
X066900Y029348
X066900Y020949
X066900Y013349
X068800Y036440
X068800Y029859
X068800Y020441
X068800Y013859
X070190Y035051
X070190Y031248
X070190Y019049
X070190Y015249
X070700Y033151
X070700Y017149
X079100Y033151
X079100Y017149
X079608Y035051
X079608Y031248
X079608Y019049
X079608Y015249
X081000Y036440
X081000Y029859
X081000Y020441
X081000Y013859
X082900Y036951
X082900Y029348
X082900Y020949
X082900Y013349
X084800Y036440
X084800Y029859
X084800Y020441
X084800Y013859
X086192Y035051
X086192Y031248
X086192Y019049
X086192Y015249
X086700Y033151
X086700Y017149
T03
X079050Y059498
X079558Y061398
X079558Y057599
X080950Y062790
X080950Y056209
X082850Y063298
X082850Y055699
X084750Y062790
X084750Y056209
X086142Y061398
X086142Y057599
X086650Y059498
T05
X021148Y088700G85X021451Y088700
T07
X046148Y088700G85X046451Y088700
T09
X071148Y088700G85X071451Y088700
T11
X096148Y088800G85X096451Y088800
T13
X085586Y040955
X084586Y040955
X083586Y040955
X082586Y040955
X081586Y040955
X080586Y040955
X080647Y042820
X081647Y042820
X082647Y042820
X083647Y042820
X084647Y042820
X085647Y042820
X051586Y040955
X050586Y040955
X049586Y040955
X048586Y040955
X047586Y040955
X046586Y040955
X046647Y042820
X047647Y042820
X048647Y042820
X049647Y042820
X050647Y042820
X051647Y042820
X016586Y040955
X015586Y040955
X014586Y040955
X013586Y040955
X012586Y040955
X011586Y040955
X011647Y042820
X012647Y042820
X013647Y042820
X014647Y042820
X015647Y042820
X016647Y042820
X012538Y083320
X011538Y083320
X010538Y083320
X009538Y083320
X008538Y083320
X007538Y083320
X007799Y085002
X008799Y085002
X009799Y085002
X010799Y085002
X011799Y085002
X012799Y085002
X037538Y083320
X036538Y083320
X035538Y083320
X034538Y083320
X033538Y083320
X032537Y083320
X032799Y085002
X033799Y085002
X034799Y085002
X035799Y085002
X036799Y085002
X037799Y085002
X062538Y083320
X061538Y083320
X060538Y083320
X059538Y083320
X058538Y083320
X057538Y083320
X057799Y085002
X058799Y085002
X059799Y085002
X060799Y085002
X061799Y085002
X062799Y085002
X087538Y083320
X086538Y083320
X085538Y083320
X084538Y083320
X083538Y083320
X082538Y083320
X082799Y085102
X083799Y085102
X084799Y085102
X085799Y085102
X086799Y085102
M30