%MOIN*%
%OFA0B0*%
%FSLAX46Y46*%
%IPPOS*%
%LPD*%
%ADD10C,0.005905511811023622*%
%ADD11C,0.01968503937007874*%
%ADD22C,0.005905511811023622*%
%ADD23C,0.01968503937007874*%
%ADD34C,0.005905511811023622*%
%ADD35C,0.023622047244094488*%
%ADD36C,0.01968503937007874*%
%ADD37C,0.00039370078740157485*%
%ADD48C,0.005905511811023622*%
%ADD49C,0.011811023622047244*%
%ADD50C,0.01968503937007874*%
%ADD61C,0.005905511811023622*%
%ADD62C,0.01968503937007874*%
%ADD73C,0.005905511811023622*%
%ADD74C,0.01968503937007874*%
%LPD*%
G01G01G01G01*
D10*
D11*
X0002612204Y0003443663D02*
X0002655324Y0003443663D01*
X0002655324Y0003542088D01*
X0002582020Y0003443663D02*
X0002582020Y0003509279D01*
X0002582020Y0003542088D02*
X0002586332Y0003537401D01*
X0002582020Y0003532714D01*
X0002577709Y0003537401D01*
X0002582020Y0003542088D01*
X0002582020Y0003532714D01*
X0002538901Y0003443663D02*
X0002538901Y0003509279D01*
X0002538901Y0003499906D02*
X0002534589Y0003504592D01*
X0002525965Y0003509279D01*
X0002513029Y0003509279D01*
X0002504405Y0003504592D01*
X0002500093Y0003495219D01*
X0002500093Y0003443663D01*
X0002500093Y0003495219D02*
X0002495781Y0003504592D01*
X0002487157Y0003509279D01*
X0002474221Y0003509279D01*
X0002465597Y0003504592D01*
X0002461286Y0003495219D01*
X0002461286Y0003443663D01*
X0002383670Y0003448350D02*
X0002392294Y0003443663D01*
X0002409542Y0003443663D01*
X0002418166Y0003448350D01*
X0002422478Y0003457723D01*
X0002422478Y0003495219D01*
X0002418166Y0003504592D01*
X0002409542Y0003509279D01*
X0002392294Y0003509279D01*
X0002383670Y0003504592D01*
X0002379358Y0003495219D01*
X0002379358Y0003485845D01*
X0002422478Y0003476471D01*
X0002344863Y0003448350D02*
X0002331927Y0003443663D01*
X0002310367Y0003443663D01*
X0002301743Y0003448350D01*
X0002297431Y0003453036D01*
X0002293119Y0003462410D01*
X0002293119Y0003471784D01*
X0002297431Y0003481158D01*
X0002301743Y0003485845D01*
X0002310367Y0003490531D01*
X0002327615Y0003495219D01*
X0002336239Y0003499906D01*
X0002340551Y0003504592D01*
X0002344863Y0003513966D01*
X0002344863Y0003523340D01*
X0002340551Y0003532714D01*
X0002336239Y0003537401D01*
X0002327615Y0003542088D01*
X0002306055Y0003542088D01*
X0002293119Y0003537401D01*
X0002254311Y0003443663D02*
X0002254311Y0003542088D01*
X0002232752Y0003542088D01*
X0002219816Y0003537401D01*
X0002211192Y0003528027D01*
X0002206880Y0003518653D01*
X0002202568Y0003499906D01*
X0002202568Y0003485845D01*
X0002206880Y0003467097D01*
X0002211192Y0003457723D01*
X0002219816Y0003448350D01*
X0002232752Y0003443663D01*
X0002254311Y0003443663D01*
X0002112017Y0003443663D02*
X0002142200Y0003490531D01*
X0002163760Y0003443663D02*
X0002163760Y0003542088D01*
X0002129265Y0003542088D01*
X0002120641Y0003537401D01*
X0002116329Y0003532714D01*
X0002112017Y0003523340D01*
X0002112017Y0003509279D01*
X0002116329Y0003499906D01*
X0002120641Y0003495219D01*
X0002129265Y0003490531D01*
X0002163760Y0003490531D01*
G01G01G01G01*
D22*
D23*
X0003596456Y0003447600D02*
X0003639576Y0003447600D01*
X0003639576Y0003546025D01*
X0003566272Y0003447600D02*
X0003566272Y0003513216D01*
X0003566272Y0003546025D02*
X0003570584Y0003541338D01*
X0003566272Y0003536651D01*
X0003561960Y0003541338D01*
X0003566272Y0003546025D01*
X0003566272Y0003536651D01*
X0003523153Y0003447600D02*
X0003523153Y0003513216D01*
X0003523153Y0003503843D02*
X0003518841Y0003508530D01*
X0003510217Y0003513216D01*
X0003497281Y0003513216D01*
X0003488657Y0003508530D01*
X0003484345Y0003499155D01*
X0003484345Y0003447600D01*
X0003484345Y0003499155D02*
X0003480033Y0003508530D01*
X0003471409Y0003513216D01*
X0003458473Y0003513216D01*
X0003449850Y0003508530D01*
X0003445538Y0003499155D01*
X0003445538Y0003447600D01*
X0003367922Y0003452287D02*
X0003376546Y0003447600D01*
X0003393794Y0003447600D01*
X0003402418Y0003452287D01*
X0003406730Y0003461661D01*
X0003406730Y0003499155D01*
X0003402418Y0003508530D01*
X0003393794Y0003513216D01*
X0003376546Y0003513216D01*
X0003367922Y0003508530D01*
X0003363610Y0003499155D01*
X0003363610Y0003489782D01*
X0003406730Y0003480408D01*
X0003329115Y0003452287D02*
X0003316179Y0003447600D01*
X0003294619Y0003447600D01*
X0003285995Y0003452287D01*
X0003281683Y0003456974D01*
X0003277371Y0003466348D01*
X0003277371Y0003475721D01*
X0003281683Y0003485095D01*
X0003285995Y0003489782D01*
X0003294619Y0003494469D01*
X0003311867Y0003499155D01*
X0003320491Y0003503843D01*
X0003324803Y0003508530D01*
X0003329115Y0003517904D01*
X0003329115Y0003527277D01*
X0003324803Y0003536651D01*
X0003320491Y0003541338D01*
X0003311867Y0003546025D01*
X0003290307Y0003546025D01*
X0003277371Y0003541338D01*
X0003238562Y0003447600D02*
X0003238562Y0003546025D01*
X0003217004Y0003546025D01*
X0003204068Y0003541338D01*
X0003195444Y0003531964D01*
X0003191132Y0003522591D01*
X0003186820Y0003503843D01*
X0003186820Y0003489782D01*
X0003191132Y0003471035D01*
X0003195444Y0003461661D01*
X0003204068Y0003452287D01*
X0003217004Y0003447600D01*
X0003238562Y0003447600D01*
X0003096269Y0003447600D02*
X0003126452Y0003494469D01*
X0003148011Y0003447600D02*
X0003148011Y0003546025D01*
X0003113517Y0003546025D01*
X0003104893Y0003541338D01*
X0003100581Y0003536651D01*
X0003096269Y0003527277D01*
X0003096269Y0003513216D01*
X0003100581Y0003503843D01*
X0003104893Y0003499155D01*
X0003113517Y0003494469D01*
X0003148011Y0003494469D01*
G04 next file*
G01G01G01G01G01G01G01G01*
D34*
D35*
X0003529015Y0001299976D02*
X0003529015Y0001232484D01*
X0003627440Y0001266230D02*
X0003529015Y0001266230D01*
X0003529015Y0001204363D02*
X0003627440Y0001125623D01*
X0003529015Y0001125623D02*
X0003627440Y0001204363D01*
X0003627440Y0001018761D02*
X0003627440Y0001086252D01*
X0003627440Y0001052507D02*
X0003529015Y0001052507D01*
X0003543075Y0001063755D01*
X0003552449Y0001075004D01*
X0003557136Y0001086252D01*
X0002210117Y0001229672D02*
X0002163248Y0001269042D01*
X0002210117Y0001297164D02*
X0002111692Y0001297164D01*
X0002111692Y0001252169D01*
X0002116379Y0001240921D01*
X0002121066Y0001235296D01*
X0002130439Y0001229672D01*
X0002144500Y0001229672D01*
X0002153874Y0001235296D01*
X0002158561Y0001240921D01*
X0002163248Y0001252169D01*
X0002163248Y0001297164D01*
X0002111692Y0001190302D02*
X0002210117Y0001111562D01*
X0002111692Y0001111562D02*
X0002210117Y0001190302D01*
X0002210117Y0001004699D02*
X0002210117Y0001072192D01*
X0002210117Y0001038446D02*
X0002111692Y0001038446D01*
X0002125753Y0001049695D01*
X0002135126Y0001060943D01*
X0002139813Y0001072192D01*
X0003529015Y0000670054D02*
X0003529015Y0000602563D01*
X0003627440Y0000636309D02*
X0003529015Y0000636309D01*
X0003529015Y0000574441D02*
X0003627440Y0000495701D01*
X0003529015Y0000495701D02*
X0003627440Y0000574441D01*
X0003538389Y0000456331D02*
X0003533702Y0000450707D01*
X0003529015Y0000439458D01*
X0003529015Y0000411337D01*
X0003533702Y0000400088D01*
X0003538389Y0000394464D01*
X0003547762Y0000388840D01*
X0003557136Y0000388840D01*
X0003571197Y0000394464D01*
X0003627440Y0000461955D01*
X0003627440Y0000388840D01*
X0002210117Y0000599751D02*
X0002163248Y0000639121D01*
X0002210117Y0000667242D02*
X0002111692Y0000667242D01*
X0002111692Y0000622248D01*
X0002116379Y0000610999D01*
X0002121066Y0000605375D01*
X0002130439Y0000599751D01*
X0002144500Y0000599751D01*
X0002153874Y0000605375D01*
X0002158561Y0000610999D01*
X0002163248Y0000622248D01*
X0002163248Y0000667242D01*
X0002111692Y0000560381D02*
X0002210117Y0000481641D01*
X0002111692Y0000481641D02*
X0002210117Y0000560381D01*
X0002121066Y0000442270D02*
X0002116379Y0000436646D01*
X0002111692Y0000425397D01*
X0002111692Y0000397276D01*
X0002116379Y0000386027D01*
X0002121066Y0000380403D01*
X0002130439Y0000374779D01*
X0002139813Y0000374779D01*
X0002153874Y0000380403D01*
X0002210117Y0000447895D01*
X0002210117Y0000374779D01*
D36*
X0002065198Y0000468705D02*
X0002065198Y0000813193D01*
X0002065198Y0001098626D02*
X0002065198Y0001443114D01*
X0002065222Y0001096681D02*
G75*
G02G02G02G02X0001982519Y0001015973I-0000080732D01X0001982519Y0001015973I-0000080732D01X0001982519Y0001015973I-0000080732D01G02G02X0001982519Y0001015973I-0000080732D01G02G02X0001982519Y0001015973I-0000080732D01X0001982519Y0001015973I-0000080732D01X0001982519Y0001015973I-0000080732D01X0001982519Y0001015973I-0000080732D01*
G01G01G01G01G01G01G01G01*
X0001984489Y0001525815D02*
G75*
G02G02G02G02X0002065198Y0001443114J-0000080732D01X0002065198Y0001443114J-0000080732D01X0002065198Y0001443114J-0000080732D01G02G02X0002065198Y0001443114J-0000080732D01G02G02X0002065198Y0001443114J-0000080732D01X0002065198Y0001443114J-0000080732D01X0002065198Y0001443114J-0000080732D01X0002065198Y0001443114J-0000080732D01*
G01G01G01G01G01G01G01G01*
X0002065222Y0000466760D02*
G75*
G02G02G02G02X0001982519Y0000386051I-0000080732D01X0001982519Y0000386051I-0000080732D01X0001982519Y0000386051I-0000080732D01G02G02X0001982519Y0000386051I-0000080732D01G02G02X0001982519Y0000386051I-0000080732D01X0001982519Y0000386051I-0000080732D01X0001982519Y0000386051I-0000080732D01X0001982519Y0000386051I-0000080732D01*
G01G01G01G01G01G01G01G01*
X0001984489Y0000895894D02*
G75*
G02G02G02G02X0002065198Y0000813193J-0000080732D01X0002065198Y0000813193J-0000080732D01X0002065198Y0000813193J-0000080732D01G02G02X0002065198Y0000813193J-0000080732D01G02G02X0002065198Y0000813193J-0000080732D01X0002065198Y0000813193J-0000080732D01X0002065198Y0000813193J-0000080732D01X0002065198Y0000813193J-0000080732D01*
G01G01G01G01G01G01G01G01*
X0002498269Y0000386027D02*
G75*
G02G02G02G02X0002417560Y0000468729J0000080732D01X0002417560Y0000468729J0000080732D01X0002417560Y0000468729J0000080732D01G02G02X0002417560Y0000468729J0000080732D01G02G02X0002417560Y0000468729J0000080732D01X0002417560Y0000468729J0000080732D01X0002417560Y0000468729J0000080732D01X0002417560Y0000468729J0000080732D01*
G01G01G01G01G01G01G01G01*
X0002417560Y0000468705D02*
X0002417560Y0000817130D01*
X0002417536Y0000817130D02*
G75*
G02G02G02G02X0002500237Y0000897838I0000080732D01X0002500237Y0000897838I0000080732D01X0002500237Y0000897838I0000080732D01G02G02X0002500237Y0000897838I0000080732D01G02G02X0002500237Y0000897838I0000080732D01X0002500237Y0000897838I0000080732D01X0002500237Y0000897838I0000080732D01X0002500237Y0000897838I0000080732D01*
G01G01G01G01G01G01G01G01*
X0003401812Y0000895870D02*
X0002500237Y0000897838D01*
X0003401812Y0000895894D02*
G75*
G02G02G02G02X0003482521Y0000813193J-0000080732D01X0003482521Y0000813193J-0000080732D01X0003482521Y0000813193J-0000080732D01G02G02X0003482521Y0000813193J-0000080732D01G02G02X0003482521Y0000813193J-0000080732D01X0003482521Y0000813193J-0000080732D01X0003482521Y0000813193J-0000080732D01X0003482521Y0000813193J-0000080732D01*
G01G01G01G01G01G01G01G01*
X0003482521Y0000468705D02*
X0003482521Y0000813193D01*
X0003482545Y0000466760D02*
G75*
G02G02G02G02X0003399843Y0000386051I-0000080732D01X0003399843Y0000386051I-0000080732D01X0003399843Y0000386051I-0000080732D01G02G02X0003399843Y0000386051I-0000080732D01G02G02X0003399843Y0000386051I-0000080732D01X0003399843Y0000386051I-0000080732D01X0003399843Y0000386051I-0000080732D01X0003399843Y0000386051I-0000080732D01*
G01G01G01G01G01G01G01G01*
X0003116379Y0000386027D02*
X0002783702Y0000386027D01*
X0002417536Y0001447051D02*
G75*
G02G02G02G02X0002500237Y0001527760I0000080732D01X0002500237Y0001527760I0000080732D01X0002500237Y0001527760I0000080732D01G02G02X0002500237Y0001527760I0000080732D01G02G02X0002500237Y0001527760I0000080732D01X0002500237Y0001527760I0000080732D01X0002500237Y0001527760I0000080732D01X0002500237Y0001527760I0000080732D01*
G01G01G01G01G01G01G01G01*
X0002417560Y0001098626D02*
X0002417560Y0001447051D01*
X0002498269Y0001015949D02*
G75*
G02G02G02G02X0002417560Y0001098650J0000080732D01X0002417560Y0001098650J0000080732D01X0002417560Y0001098650J0000080732D01G02G02X0002417560Y0001098650J0000080732D01G02G02X0002417560Y0001098650J0000080732D01X0002417560Y0001098650J0000080732D01X0002417560Y0001098650J0000080732D01X0002417560Y0001098650J0000080732D01*
G01G01G01G01G01G01G01G01*
X0003116379Y0001015949D02*
X0002783702Y0001015949D01*
X0003401812Y0001525791D02*
X0002500237Y0001527760D01*
X0003401812Y0001525815D02*
G75*
G02G02G02G02X0003482521Y0001443114J-0000080732D01X0003482521Y0001443114J-0000080732D01X0003482521Y0001443114J-0000080732D01G02G02X0003482521Y0001443114J-0000080732D01G02G02X0003482521Y0001443114J-0000080732D01X0003482521Y0001443114J-0000080732D01X0003482521Y0001443114J-0000080732D01X0003482521Y0001443114J-0000080732D01*
G01G01G01G01G01G01G01G01*
X0003482521Y0001098626D02*
X0003482521Y0001443114D01*
X0003482545Y0001096681D02*
G75*
G02G02G02G02X0003399843Y0001015973I-0000080732D01X0003399843Y0001015973I-0000080732D01X0003399843Y0001015973I-0000080732D01G02G02X0003399843Y0001015973I-0000080732D01G02G02X0003399843Y0001015973I-0000080732D01X0003399843Y0001015973I-0000080732D01X0003399843Y0001015973I-0000080732D01X0003399843Y0001015973I-0000080732D01*
G01G01G01G01G01G01G01G01*
X0001699056Y0000386027D02*
X0001366379Y0000386027D01*
X0001069135Y0000386027D02*
X0000736458Y0000386027D01*
X0000370316Y0000468705D02*
X0000370316Y0000817130D01*
X0000451023Y0000386027D02*
G75*
G02G02G02G02X0000370316Y0000468729J0000080732D01X0000370316Y0000468729J0000080732D01X0000370316Y0000468729J0000080732D01G02G02X0000370316Y0000468729J0000080732D01G02G02X0000370316Y0000468729J0000080732D01X0000370316Y0000468729J0000080732D01X0000370316Y0000468729J0000080732D01X0000370316Y0000468729J0000080732D01*
G01G01G01G01G01G01G01G01*
X0000370292Y0000817130D02*
G75*
G02G02G02G02X0000452993Y0000897838I0000080732D01X0000452993Y0000897838I0000080732D01X0000452993Y0000897838I0000080732D01G02G02X0000452993Y0000897838I0000080732D01G02G02X0000452993Y0000897838I0000080732D01X0000452993Y0000897838I0000080732D01X0000452993Y0000897838I0000080732D01X0000452993Y0000897838I0000080732D01*
G01G01G01G01G01G01G01G01*
X0001984489Y0000895870D02*
X0000452993Y0000897838D01*
X0000451023Y0001015949D02*
G75*
G02G02G02G02X0000370316Y0001098650J0000080732D01X0000370316Y0001098650J0000080732D01X0000370316Y0001098650J0000080732D01G02G02X0000370316Y0001098650J0000080732D01G02G02X0000370316Y0001098650J0000080732D01X0000370316Y0001098650J0000080732D01X0000370316Y0001098650J0000080732D01X0000370316Y0001098650J0000080732D01*
G01G01G01G01G01G01G01G01*
X0000370292Y0001447051D02*
G75*
G02G02G02G02X0000452993Y0001527760I0000080732D01X0000452993Y0001527760I0000080732D01X0000452993Y0001527760I0000080732D01G02G02X0000452993Y0001527760I0000080732D01G02G02X0000452993Y0001527760I0000080732D01X0000452993Y0001527760I0000080732D01X0000452993Y0001527760I0000080732D01X0000452993Y0001527760I0000080732D01*
G01G01G01G01G01G01G01G01*
X0000370316Y0001098626D02*
X0000370316Y0001447051D01*
X0001069135Y0001015949D02*
X0000736458Y0001015949D01*
X0001699056Y0001015949D02*
X0001366379Y0001015949D01*
X0001984489Y0001525791D02*
X0000452993Y0001527760D01*
X0003239645Y0000344501D02*
X0003277140Y0000344501D01*
X0003277140Y0000423242D01*
X0002656592Y0000344501D02*
X0002656592Y0000423242D01*
X0002656592Y0000385746D02*
X0002611598Y0000385746D01*
X0002611598Y0000344501D02*
X0002611598Y0000423242D01*
D35*
X0003233552Y0000965518D02*
X0003280421Y0000965518D01*
X0003280421Y0001063943D01*
D36*
X0002656592Y0000974423D02*
X0002656592Y0001053163D01*
X0002656592Y0001015667D02*
X0002611598Y0001015667D01*
X0002611598Y0000974423D02*
X0002611598Y0001053163D01*
X0000609348Y0000344501D02*
X0000609348Y0000423242D01*
X0000609348Y0000385746D02*
X0000564354Y0000385746D01*
X0000564354Y0000344501D02*
X0000564354Y0000423242D01*
X0001250518Y0000423242D02*
X0001231771Y0000344501D01*
X0001216772Y0000400744D01*
X0001201774Y0000344501D01*
X0001183027Y0000423242D01*
X0001822322Y0000344501D02*
X0001859817Y0000344501D01*
X0001859817Y0000423242D01*
X0000609348Y0000974423D02*
X0000609348Y0001053163D01*
X0000609348Y0001015667D02*
X0000564354Y0001015667D01*
X0000564354Y0000974423D02*
X0000564354Y0001053163D01*
X0001250518Y0001053163D02*
X0001231771Y0000974423D01*
X0001216772Y0001030666D01*
X0001201774Y0000974423D01*
X0001183027Y0001053163D01*
X0001822322Y0000974423D02*
X0001859817Y0000974423D01*
X0001859817Y0001053163D01*
X0001216772Y0000100313D02*
X0001273015Y0000100313D01*
X0001273015Y0000218423D01*
X0001177402Y0000100313D02*
X0001177402Y0000179053D01*
X0001177402Y0000218423D02*
X0001183027Y0000212799D01*
X0001177402Y0000207175D01*
X0001171778Y0000212799D01*
X0001177402Y0000218423D01*
X0001177402Y0000207175D01*
X0001121159Y0000100313D02*
X0001121159Y0000179053D01*
X0001121159Y0000167805D02*
X0001115535Y0000173428D01*
X0001104287Y0000179053D01*
X0001087414Y0000179053D01*
X0001076165Y0000173428D01*
X0001070541Y0000162180D01*
X0001070541Y0000100313D01*
X0001070541Y0000162180D02*
X0001064916Y0000173428D01*
X0001053668Y0000179053D01*
X0001036794Y0000179053D01*
X0001025546Y0000173428D01*
X0001019922Y0000162180D01*
X0001019922Y0000100313D01*
X0000918685Y0000105936D02*
X0000929933Y0000100313D01*
X0000952430Y0000100313D01*
X0000963679Y0000105936D01*
X0000969303Y0000117186D01*
X0000969303Y0000162180D01*
X0000963679Y0000173428D01*
X0000952430Y0000179053D01*
X0000929933Y0000179053D01*
X0000918685Y0000173428D01*
X0000913060Y0000162180D01*
X0000913060Y0000150932D01*
X0000969303Y0000139683D01*
X0000868066Y0000105936D02*
X0000851193Y0000100313D01*
X0000823071Y0000100313D01*
X0000811823Y0000105936D01*
X0000806199Y0000111562D01*
X0000800575Y0000122810D01*
X0000800575Y0000134059D01*
X0000806199Y0000145308D01*
X0000811823Y0000150932D01*
X0000823071Y0000156556D01*
X0000845569Y0000162180D01*
X0000856817Y0000167805D01*
X0000862442Y0000173428D01*
X0000868066Y0000184678D01*
X0000868066Y0000195926D01*
X0000862442Y0000207175D01*
X0000856817Y0000212799D01*
X0000845569Y0000218423D01*
X0000817447Y0000218423D01*
X0000800575Y0000212799D01*
X0000749956Y0000100313D02*
X0000749956Y0000218423D01*
X0000721834Y0000218423D01*
X0000704961Y0000212799D01*
X0000693713Y0000201550D01*
X0000688089Y0000190301D01*
X0000682464Y0000167805D01*
X0000682464Y0000150932D01*
X0000688089Y0000128435D01*
X0000693713Y0000117186D01*
X0000704961Y0000105936D01*
X0000721834Y0000100313D01*
X0000749956Y0000100313D01*
X0000564354Y0000100313D02*
X0000603724Y0000156556D01*
X0000631846Y0000100313D02*
X0000631846Y0000218423D01*
X0000586851Y0000218423D01*
X0000575603Y0000212799D01*
X0000569978Y0000207175D01*
X0000564354Y0000195926D01*
X0000564354Y0000179053D01*
X0000569978Y0000167805D01*
X0000575603Y0000162180D01*
X0000586851Y0000156556D01*
X0000631846Y0000156556D01*
D37*
G36*
X0001423625Y0000123894D02*
X0001422184Y0000123442D01*
X0001420586Y0000122369D01*
X0001418601Y0000120413D01*
X0001416001Y0000117308D01*
X0001412560Y0000112797D01*
X0001408049Y0000106614D01*
X0001402245Y0000098497D01*
X0001398529Y0000093272D01*
X0001392698Y0000085027D01*
X0001387450Y0000077539D01*
X0001383001Y0000071122D01*
X0001379574Y0000066095D01*
X0001377383Y0000062771D01*
X0001376643Y0000061486D01*
X0001377283Y0000060397D01*
X0001379483Y0000061593D01*
X0001383277Y0000065095D01*
X0001386017Y0000067973D01*
X0001392876Y0000075418D01*
X0001398358Y0000081469D01*
X0001403052Y0000086807D01*
X0001407545Y0000092111D01*
X0001412427Y0000098061D01*
X0001417748Y0000104668D01*
X0001422350Y0000110545D01*
X0001426181Y0000115692D01*
X0001428936Y0000119682D01*
X0001430312Y0000122084D01*
X0001430402Y0000122525D01*
X0001428793Y0000123516D01*
X0001425521Y0000123981D01*
X0001425132Y0000123986D01*
X0001423625Y0000123894D01*
X0001423625Y0000123894D01*
G37*
X0001423625Y0000123894D02*
X0001422184Y0000123442D01*
X0001420586Y0000122369D01*
X0001418601Y0000120413D01*
X0001416001Y0000117308D01*
X0001412560Y0000112797D01*
X0001408049Y0000106614D01*
X0001402245Y0000098497D01*
X0001398529Y0000093272D01*
X0001392698Y0000085027D01*
X0001387450Y0000077539D01*
X0001383001Y0000071122D01*
X0001379574Y0000066095D01*
X0001377383Y0000062771D01*
X0001376643Y0000061486D01*
X0001377283Y0000060397D01*
X0001379483Y0000061593D01*
X0001383277Y0000065095D01*
X0001386017Y0000067973D01*
X0001392876Y0000075418D01*
X0001398358Y0000081469D01*
X0001403052Y0000086807D01*
X0001407545Y0000092111D01*
X0001412427Y0000098061D01*
X0001417748Y0000104668D01*
X0001422350Y0000110545D01*
X0001426181Y0000115692D01*
X0001428936Y0000119682D01*
X0001430312Y0000122084D01*
X0001430402Y0000122525D01*
X0001428793Y0000123516D01*
X0001425521Y0000123981D01*
X0001425132Y0000123986D01*
X0001423625Y0000123894D01*
G36*
X0001555939Y0000302551D02*
X0001553096Y0000299922D01*
X0001548822Y0000295182D01*
X0001546452Y0000292400D01*
X0001542394Y0000287595D01*
X0001538930Y0000283515D01*
X0001536537Y0000280724D01*
X0001535814Y0000279900D01*
X0001534470Y0000278320D01*
X0001531627Y0000274909D01*
X0001527599Y0000270045D01*
X0001522698Y0000264107D01*
X0001517307Y0000257556D01*
X0001511178Y0000250192D01*
X0001504939Y0000242853D01*
X0001499095Y0000236126D01*
X0001494153Y0000230594D01*
X0001491319Y0000227556D01*
X0001487048Y0000223184D01*
X0001484210Y0000220570D01*
X0001482253Y0000219411D01*
X0001480633Y0000219404D01*
X0001478800Y0000220246D01*
X0001478469Y0000220429D01*
X0001474634Y0000223480D01*
X0001471588Y0000228144D01*
X0001469115Y0000234856D01*
X0001467281Y0000242577D01*
X0001465426Y0000251780D01*
X0001464015Y0000258552D01*
X0001462938Y0000263266D01*
X0001462085Y0000266294D01*
X0001461346Y0000268007D01*
X0001460612Y0000268779D01*
X0001459774Y0000268981D01*
X0001459497Y0000268986D01*
X0001458384Y0000268510D01*
X0001457498Y0000266781D01*
X0001456718Y0000263351D01*
X0001455928Y0000257770D01*
X0001455439Y0000253562D01*
X0001454718Y0000246560D01*
X0001454144Y0000240006D01*
X0001453790Y0000234794D01*
X0001453713Y0000232491D01*
X0001453013Y0000226246D01*
X0001451158Y0000218698D01*
X0001448492Y0000210986D01*
X0001445358Y0000204240D01*
X0001445048Y0000203690D01*
X0001443106Y0000199597D01*
X0001442706Y0000197036D01*
X0001443783Y0000196340D01*
X0001446215Y0000197793D01*
X0001447730Y0000198899D01*
X0001450093Y0000200281D01*
X0001453712Y0000202145D01*
X0001458994Y0000204698D01*
X0001466347Y0000208147D01*
X0001469158Y0000209454D01*
X0001472451Y0000210336D01*
X0001477267Y0000210924D01*
X0001480352Y0000211055D01*
X0001485202Y0000210906D01*
X0001488280Y0000210103D01*
X0001490657Y0000208278D01*
X0001491639Y0000207194D01*
X0001494277Y0000203048D01*
X0001495908Y0000198547D01*
X0001495920Y0000198492D01*
X0001495660Y0000193063D01*
X0001493199Y0000185908D01*
X0001488565Y0000177081D01*
X0001481792Y0000166636D01*
X0001472912Y0000154628D01*
X0001462015Y0000141179D01*
X0001457630Y0000135595D01*
X0001455078Y0000131498D01*
X0001454492Y0000129104D01*
X0001454517Y0000129036D01*
X0001455262Y0000126395D01*
X0001456184Y0000122153D01*
X0001456644Y0000119700D01*
X0001457363Y0000115946D01*
X0001458250Y0000112067D01*
X0001459480Y0000107395D01*
X0001461229Y0000101256D01*
X0001463347Y0000094078D01*
X0001464983Y0000090565D01*
X0001466917Y0000089229D01*
X0001468701Y0000090377D01*
X0001468714Y0000090398D01*
X0001469150Y0000092325D01*
X0001469687Y0000096545D01*
X0001470264Y0000102499D01*
X0001470824Y0000109626D01*
X0001471003Y0000112259D01*
X0001471976Y0000124008D01*
X0001473266Y0000133352D01*
X0001474994Y0000140736D01*
X0001477276Y0000146607D01*
X0001480233Y0000151409D01*
X0001482043Y0000153594D01*
X0001485264Y0000156960D01*
X0001488413Y0000159627D01*
X0001491887Y0000161698D01*
X0001496079Y0000163276D01*
X0001501386Y0000164466D01*
X0001508201Y0000165369D01*
X0001516918Y0000166089D01*
X0001527933Y0000166732D01*
X0001533273Y0000166999D01*
X0001540688Y0000167426D01*
X0001547135Y0000167920D01*
X0001552050Y0000168429D01*
X0001554865Y0000168900D01*
X0001555241Y0000169041D01*
X0001556322Y0000170692D01*
X0001555168Y0000172286D01*
X0001552345Y0000173214D01*
X0001551306Y0000173272D01*
X0001546130Y0000173798D01*
X0001539533Y0000175211D01*
X0001532262Y0000177265D01*
X0001525064Y0000179713D01*
X0001518687Y0000182309D01*
X0001513880Y0000184803D01*
X0001511927Y0000186277D01*
X0001509406Y0000189043D01*
X0001508711Y0000191066D01*
X0001509551Y0000193522D01*
X0001509951Y0000194310D01*
X0001512998Y0000198428D01*
X0001518455Y0000203620D01*
X0001526376Y0000209929D01*
X0001536815Y0000217402D01*
X0001539441Y0000219197D01*
X0001546244Y0000223740D01*
X0001554163Y0000228910D01*
X0001562596Y0000234325D01*
X0001570939Y0000239602D01*
X0001578590Y0000244360D01*
X0001584946Y0000248217D01*
X0001588664Y0000250381D01*
X0001594045Y0000253490D01*
X0001597332Y0000255658D01*
X0001598978Y0000257228D01*
X0001599438Y0000258552D01*
X0001599438Y0000258587D01*
X0001598279Y0000258523D01*
X0001594786Y0000257176D01*
X0001588932Y0000254529D01*
X0001580694Y0000250575D01*
X0001570047Y0000245298D01*
X0001556965Y0000238686D01*
X0001541424Y0000230728D01*
X0001524697Y0000222085D01*
X0001518415Y0000218964D01*
X0001514112Y0000217195D01*
X0001511338Y0000216627D01*
X0001509782Y0000217014D01*
X0001507592Y0000218917D01*
X0001507003Y0000219863D01*
X0001507187Y0000220833D01*
X0001508130Y0000222859D01*
X0001509925Y0000226094D01*
X0001512672Y0000230688D01*
X0001516463Y0000236793D01*
X0001521392Y0000244562D01*
X0001527557Y0000254147D01*
X0001535049Y0000265698D01*
X0001543968Y0000279367D01*
X0001551093Y0000290255D01*
X0001554191Y0000295113D01*
X0001556572Y0000299096D01*
X0001557872Y0000301587D01*
X0001558010Y0000302041D01*
X0001557520Y0000303210D01*
X0001555939Y0000302551D01*
X0001555939Y0000302551D01*
G37*
X0001555939Y0000302551D02*
X0001553096Y0000299922D01*
X0001548822Y0000295182D01*
X0001546452Y0000292400D01*
X0001542394Y0000287595D01*
X0001538930Y0000283515D01*
X0001536537Y0000280724D01*
X0001535814Y0000279900D01*
X0001534470Y0000278320D01*
X0001531627Y0000274909D01*
X0001527599Y0000270045D01*
X0001522698Y0000264107D01*
X0001517307Y0000257556D01*
X0001511178Y0000250192D01*
X0001504939Y0000242853D01*
X0001499095Y0000236126D01*
X0001494153Y0000230594D01*
X0001491319Y0000227556D01*
X0001487048Y0000223184D01*
X0001484210Y0000220570D01*
X0001482253Y0000219411D01*
X0001480633Y0000219404D01*
X0001478800Y0000220246D01*
X0001478469Y0000220429D01*
X0001474634Y0000223480D01*
X0001471588Y0000228144D01*
X0001469115Y0000234856D01*
X0001467281Y0000242577D01*
X0001465426Y0000251780D01*
X0001464015Y0000258552D01*
X0001462938Y0000263266D01*
X0001462085Y0000266294D01*
X0001461346Y0000268007D01*
X0001460612Y0000268779D01*
X0001459774Y0000268981D01*
X0001459497Y0000268986D01*
X0001458384Y0000268510D01*
X0001457498Y0000266781D01*
X0001456718Y0000263351D01*
X0001455928Y0000257770D01*
X0001455439Y0000253562D01*
X0001454718Y0000246560D01*
X0001454144Y0000240006D01*
X0001453790Y0000234794D01*
X0001453713Y0000232491D01*
X0001453013Y0000226246D01*
X0001451158Y0000218698D01*
X0001448492Y0000210986D01*
X0001445358Y0000204240D01*
X0001445048Y0000203690D01*
X0001443106Y0000199597D01*
X0001442706Y0000197036D01*
X0001443783Y0000196340D01*
X0001446215Y0000197793D01*
X0001447730Y0000198899D01*
X0001450093Y0000200281D01*
X0001453712Y0000202145D01*
X0001458994Y0000204698D01*
X0001466347Y0000208147D01*
X0001469158Y0000209454D01*
X0001472451Y0000210336D01*
X0001477267Y0000210924D01*
X0001480352Y0000211055D01*
X0001485202Y0000210906D01*
X0001488280Y0000210103D01*
X0001490657Y0000208278D01*
X0001491639Y0000207194D01*
X0001494277Y0000203048D01*
X0001495908Y0000198547D01*
X0001495920Y0000198492D01*
X0001495660Y0000193063D01*
X0001493199Y0000185908D01*
X0001488565Y0000177081D01*
X0001481792Y0000166636D01*
X0001472912Y0000154628D01*
X0001462015Y0000141179D01*
X0001457630Y0000135595D01*
X0001455078Y0000131498D01*
X0001454492Y0000129104D01*
X0001454517Y0000129036D01*
X0001455262Y0000126395D01*
X0001456184Y0000122153D01*
X0001456644Y0000119700D01*
X0001457363Y0000115946D01*
X0001458250Y0000112067D01*
X0001459480Y0000107395D01*
X0001461229Y0000101256D01*
X0001463347Y0000094078D01*
X0001464983Y0000090565D01*
X0001466917Y0000089229D01*
X0001468701Y0000090377D01*
X0001468714Y0000090398D01*
X0001469150Y0000092325D01*
X0001469687Y0000096545D01*
X0001470264Y0000102499D01*
X0001470824Y0000109626D01*
X0001471003Y0000112259D01*
X0001471976Y0000124008D01*
X0001473266Y0000133352D01*
X0001474994Y0000140736D01*
X0001477276Y0000146607D01*
X0001480233Y0000151409D01*
X0001482043Y0000153594D01*
X0001485264Y0000156960D01*
X0001488413Y0000159627D01*
X0001491887Y0000161698D01*
X0001496079Y0000163276D01*
X0001501386Y0000164466D01*
X0001508201Y0000165369D01*
X0001516918Y0000166089D01*
X0001527933Y0000166732D01*
X0001533273Y0000166999D01*
X0001540688Y0000167426D01*
X0001547135Y0000167920D01*
X0001552050Y0000168429D01*
X0001554865Y0000168900D01*
X0001555241Y0000169041D01*
X0001556322Y0000170692D01*
X0001555168Y0000172286D01*
X0001552345Y0000173214D01*
X0001551306Y0000173272D01*
X0001546130Y0000173798D01*
X0001539533Y0000175211D01*
X0001532262Y0000177265D01*
X0001525064Y0000179713D01*
X0001518687Y0000182309D01*
X0001513880Y0000184803D01*
X0001511927Y0000186277D01*
X0001509406Y0000189043D01*
X0001508711Y0000191066D01*
X0001509551Y0000193522D01*
X0001509951Y0000194310D01*
X0001512998Y0000198428D01*
X0001518455Y0000203620D01*
X0001526376Y0000209929D01*
X0001536815Y0000217402D01*
X0001539441Y0000219197D01*
X0001546244Y0000223740D01*
X0001554163Y0000228910D01*
X0001562596Y0000234325D01*
X0001570939Y0000239602D01*
X0001578590Y0000244360D01*
X0001584946Y0000248217D01*
X0001588664Y0000250381D01*
X0001594045Y0000253490D01*
X0001597332Y0000255658D01*
X0001598978Y0000257228D01*
X0001599438Y0000258552D01*
X0001599438Y0000258587D01*
X0001598279Y0000258523D01*
X0001594786Y0000257176D01*
X0001588932Y0000254529D01*
X0001580694Y0000250575D01*
X0001570047Y0000245298D01*
X0001556965Y0000238686D01*
X0001541424Y0000230728D01*
X0001524697Y0000222085D01*
X0001518415Y0000218964D01*
X0001514112Y0000217195D01*
X0001511338Y0000216627D01*
X0001509782Y0000217014D01*
X0001507592Y0000218917D01*
X0001507003Y0000219863D01*
X0001507187Y0000220833D01*
X0001508130Y0000222859D01*
X0001509925Y0000226094D01*
X0001512672Y0000230688D01*
X0001516463Y0000236793D01*
X0001521392Y0000244562D01*
X0001527557Y0000254147D01*
X0001535049Y0000265698D01*
X0001543968Y0000279367D01*
X0001551093Y0000290255D01*
X0001554191Y0000295113D01*
X0001556572Y0000299096D01*
X0001557872Y0000301587D01*
X0001558010Y0000302041D01*
X0001557520Y0000303210D01*
X0001555939Y0000302551D01*
G36*
X0001411623Y0000150064D02*
X0001407374Y0000148327D01*
X0001400891Y0000145028D01*
X0001399789Y0000144436D01*
X0001393154Y0000140699D01*
X0001385715Y0000136261D01*
X0001377848Y0000131372D01*
X0001369934Y0000126284D01*
X0001362345Y0000121251D01*
X0001355458Y0000116523D01*
X0001349650Y0000112354D01*
X0001345297Y0000108995D01*
X0001342775Y0000106699D01*
X0001342296Y0000105905D01*
X0001342689Y0000105056D01*
X0001344083Y0000105018D01*
X0001346799Y0000105913D01*
X0001351155Y0000107864D01*
X0001357475Y0000110994D01*
X0001363010Y0000113835D01*
X0001375671Y0000120488D01*
X0001385998Y0000126167D01*
X0001394276Y0000131055D01*
X0001400780Y0000135335D01*
X0001405792Y0000139191D01*
X0001409592Y0000142806D01*
X0001412254Y0000146070D01*
X0001413935Y0000148919D01*
X0001413767Y0000150256D01*
X0001411623Y0000150064D01*
X0001411623Y0000150064D01*
G37*
X0001411623Y0000150064D02*
X0001407374Y0000148327D01*
X0001400891Y0000145028D01*
X0001399789Y0000144436D01*
X0001393154Y0000140699D01*
X0001385715Y0000136261D01*
X0001377848Y0000131372D01*
X0001369934Y0000126284D01*
X0001362345Y0000121251D01*
X0001355458Y0000116523D01*
X0001349650Y0000112354D01*
X0001345297Y0000108995D01*
X0001342775Y0000106699D01*
X0001342296Y0000105905D01*
X0001342689Y0000105056D01*
X0001344083Y0000105018D01*
X0001346799Y0000105913D01*
X0001351155Y0000107864D01*
X0001357475Y0000110994D01*
X0001363010Y0000113835D01*
X0001375671Y0000120488D01*
X0001385998Y0000126167D01*
X0001394276Y0000131055D01*
X0001400780Y0000135335D01*
X0001405792Y0000139191D01*
X0001409592Y0000142806D01*
X0001412254Y0000146070D01*
X0001413935Y0000148919D01*
X0001413767Y0000150256D01*
X0001411623Y0000150064D01*
G36*
X0001435665Y0000194153D02*
X0001432814Y0000193732D01*
X0001427736Y0000193212D01*
X0001421057Y0000192647D01*
X0001413403Y0000192093D01*
X0001410153Y0000191884D01*
X0001397156Y0000191043D01*
X0001386802Y0000190290D01*
X0001378875Y0000189603D01*
X0001373169Y0000188960D01*
X0001369465Y0000188338D01*
X0001367550Y0000187717D01*
X0001367217Y0000187429D01*
X0001367863Y0000186303D01*
X0001370450Y0000185319D01*
X0001374777Y0000184235D01*
X0001380402Y0000182671D01*
X0001386567Y0000180858D01*
X0001392510Y0000179026D01*
X0001397470Y0000177407D01*
X0001400689Y0000176230D01*
X0001401243Y0000175978D01*
X0001403984Y0000175116D01*
X0001408471Y0000174262D01*
X0001412386Y0000173751D01*
X0001421011Y0000172849D01*
X0001428646Y0000180734D01*
X0001432602Y0000185003D01*
X0001435909Y0000188907D01*
X0001437910Y0000191665D01*
X0001438017Y0000191855D01*
X0001439013Y0000194080D01*
X0001438206Y0000194633D01*
X0001435665Y0000194153D01*
X0001435665Y0000194153D01*
G37*
X0001435665Y0000194153D02*
X0001432814Y0000193732D01*
X0001427736Y0000193212D01*
X0001421057Y0000192647D01*
X0001413403Y0000192093D01*
X0001410153Y0000191884D01*
X0001397156Y0000191043D01*
X0001386802Y0000190290D01*
X0001378875Y0000189603D01*
X0001373169Y0000188960D01*
X0001369465Y0000188338D01*
X0001367550Y0000187717D01*
X0001367217Y0000187429D01*
X0001367863Y0000186303D01*
X0001370450Y0000185319D01*
X0001374777Y0000184235D01*
X0001380402Y0000182671D01*
X0001386567Y0000180858D01*
X0001392510Y0000179026D01*
X0001397470Y0000177407D01*
X0001400689Y0000176230D01*
X0001401243Y0000175978D01*
X0001403984Y0000175116D01*
X0001408471Y0000174262D01*
X0001412386Y0000173751D01*
X0001421011Y0000172849D01*
X0001428646Y0000180734D01*
X0001432602Y0000185003D01*
X0001435909Y0000188907D01*
X0001437910Y0000191665D01*
X0001438017Y0000191855D01*
X0001439013Y0000194080D01*
X0001438206Y0000194633D01*
X0001435665Y0000194153D01*
G01G01G01G01G01G01G01G01*
D48*
X0002181570Y0002127545D02*
X0002240625Y0002127545D01*
X0001650074Y0002127545D02*
X0001689444Y0002127545D01*
D49*
X0002017903Y0001919728D02*
X0002017903Y0001871921D01*
X0002015091Y0001866297D01*
X0002012279Y0001863485D01*
X0002006654Y0001860671D01*
X0001995406Y0001860671D01*
X0001989782Y0001863485D01*
X0001986970Y0001866297D01*
X0001984158Y0001871921D01*
X0001984158Y0001919728D01*
X0001958848Y0001863485D02*
X0001950411Y0001860671D01*
X0001936351Y0001860671D01*
X0001930727Y0001863485D01*
X0001927915Y0001866297D01*
X0001925101Y0001871921D01*
X0001925101Y0001877545D01*
X0001927915Y0001883170D01*
X0001930727Y0001885982D01*
X0001936351Y0001888794D01*
X0001947600Y0001891606D01*
X0001953224Y0001894418D01*
X0001956036Y0001897230D01*
X0001958848Y0001902855D01*
X0001958848Y0001908479D01*
X0001956036Y0001914103D01*
X0001953224Y0001916915D01*
X0001947600Y0001919728D01*
X0001933539Y0001919728D01*
X0001925101Y0001916915D01*
X0001880108Y0001891606D02*
X0001871672Y0001888794D01*
X0001868859Y0001885982D01*
X0001866047Y0001880357D01*
X0001866047Y0001871921D01*
X0001868859Y0001866297D01*
X0001871672Y0001863485D01*
X0001877296Y0001860671D01*
X0001899792Y0001860671D01*
X0001899792Y0001919728D01*
X0001880108Y0001919728D01*
X0001874483Y0001916915D01*
X0001871672Y0001914103D01*
X0001868859Y0001908479D01*
X0001868859Y0001902855D01*
X0001871672Y0001897230D01*
X0001874483Y0001894418D01*
X0001880108Y0001891606D01*
X0001899792Y0001891606D01*
D48*
X0001689444Y0001954316D02*
X0001689444Y0002127545D01*
X0002181570Y0001954316D02*
X0002181570Y0002127545D01*
X0001689444Y0001954316D02*
X0002181570Y0001954316D01*
D49*
X0001384326Y0002403980D02*
X0001384326Y0002463035D01*
X0001370264Y0002463035D01*
X0001361829Y0002460222D01*
X0001356204Y0002454598D01*
X0001353393Y0002448974D01*
X0001350580Y0002437725D01*
X0001350580Y0002429289D01*
X0001353393Y0002418040D01*
X0001356204Y0002412416D01*
X0001361829Y0002406792D01*
X0001370264Y0002403980D01*
X0001384326Y0002403980D01*
X0001291525Y0002409604D02*
X0001294337Y0002406792D01*
X0001302774Y0002403980D01*
X0001308397Y0002403980D01*
X0001316835Y0002406792D01*
X0001322459Y0002412416D01*
X0001325271Y0002418040D01*
X0001328083Y0002429289D01*
X0001328083Y0002437725D01*
X0001325271Y0002448974D01*
X0001322459Y0002454598D01*
X0001316835Y0002460222D01*
X0001308397Y0002463035D01*
X0001302774Y0002463035D01*
X0001294337Y0002460222D01*
X0001291525Y0002457410D01*
X0001221222Y0002443350D02*
X0001221222Y0002392731D01*
X0001224034Y0002387107D01*
X0001229658Y0002384294D01*
X0001232470Y0002384294D01*
X0001221222Y0002463035D02*
X0001224034Y0002460222D01*
X0001221222Y0002457410D01*
X0001218410Y0002460222D01*
X0001221222Y0002463035D01*
X0001221222Y0002457410D01*
X0001167791Y0002403980D02*
X0001167791Y0002434913D01*
X0001170603Y0002440537D01*
X0001176227Y0002443350D01*
X0001187476Y0002443350D01*
X0001193100Y0002440537D01*
X0001167791Y0002406792D02*
X0001173415Y0002403980D01*
X0001187476Y0002403980D01*
X0001193100Y0002406792D01*
X0001195912Y0002412416D01*
X0001195912Y0002418040D01*
X0001193100Y0002423665D01*
X0001187476Y0002426477D01*
X0001173415Y0002426477D01*
X0001167791Y0002429289D01*
X0001114360Y0002406792D02*
X0001119984Y0002403980D01*
X0001131233Y0002403980D01*
X0001136857Y0002406792D01*
X0001139669Y0002409604D01*
X0001142481Y0002415228D01*
X0001142481Y0002432101D01*
X0001139669Y0002437725D01*
X0001136857Y0002440537D01*
X0001131233Y0002443350D01*
X0001119984Y0002443350D01*
X0001114360Y0002440537D01*
X0001089051Y0002403980D02*
X0001089051Y0002463035D01*
X0001083426Y0002426477D02*
X0001066553Y0002403980D01*
X0001066553Y0002443350D02*
X0001089051Y0002420852D01*
D48*
X0001130389Y0002048805D02*
X0001335114Y0002048805D01*
X0001130389Y0002348018D02*
X0001130389Y0002048805D01*
X0001335114Y0002348018D02*
X0001130389Y0002348018D01*
X0001335114Y0002048805D02*
X0001335114Y0002348018D01*
D49*
X0002170041Y0002380357D02*
X0002170041Y0002332551D01*
X0002167228Y0002326927D01*
X0002164416Y0002324115D01*
X0002158792Y0002321302D01*
X0002147543Y0002321302D01*
X0002141919Y0002324115D01*
X0002139107Y0002326927D01*
X0002136295Y0002332551D01*
X0002136295Y0002380357D01*
X0002110985Y0002324115D02*
X0002102549Y0002321302D01*
X0002088488Y0002321302D01*
X0002082863Y0002324115D01*
X0002080051Y0002326927D01*
X0002077240Y0002332551D01*
X0002077240Y0002338175D01*
X0002080051Y0002343800D01*
X0002082863Y0002346612D01*
X0002088488Y0002349424D01*
X0002099737Y0002352236D01*
X0002105361Y0002355048D01*
X0002108173Y0002357860D01*
X0002110985Y0002363485D01*
X0002110985Y0002369109D01*
X0002108173Y0002374733D01*
X0002105361Y0002377545D01*
X0002099737Y0002380357D01*
X0002085675Y0002380357D01*
X0002077240Y0002377545D01*
X0002032245Y0002352236D02*
X0002023809Y0002349424D01*
X0002020997Y0002346612D01*
X0002018185Y0002340987D01*
X0002018185Y0002332551D01*
X0002020997Y0002326927D01*
X0002023809Y0002324115D01*
X0002029433Y0002321302D01*
X0002051930Y0002321302D01*
X0002051930Y0002380357D01*
X0002032245Y0002380357D01*
X0002026621Y0002377545D01*
X0002023809Y0002374733D01*
X0002020997Y0002369109D01*
X0002020997Y0002363485D01*
X0002023809Y0002357860D01*
X0002026621Y0002355048D01*
X0002032245Y0002352236D01*
X0002051930Y0002352236D01*
X0001947881Y0002321302D02*
X0001947881Y0002360672D01*
X0001947881Y0002355048D02*
X0001945069Y0002357860D01*
X0001939444Y0002360672D01*
X0001931008Y0002360672D01*
X0001925384Y0002357860D01*
X0001922571Y0002352236D01*
X0001922571Y0002321302D01*
X0001922571Y0002352236D02*
X0001919759Y0002357860D01*
X0001914135Y0002360672D01*
X0001905699Y0002360672D01*
X0001900074Y0002357860D01*
X0001897262Y0002352236D01*
X0001897262Y0002321302D01*
X0001869141Y0002321302D02*
X0001869141Y0002360672D01*
X0001869141Y0002380357D02*
X0001871953Y0002377545D01*
X0001869141Y0002374733D01*
X0001866328Y0002377545D01*
X0001869141Y0002380357D01*
X0001869141Y0002374733D01*
X0001815710Y0002324115D02*
X0001821334Y0002321302D01*
X0001832583Y0002321302D01*
X0001838207Y0002324115D01*
X0001841019Y0002326927D01*
X0001843831Y0002332551D01*
X0001843831Y0002349424D01*
X0001841019Y0002355048D01*
X0001838207Y0002357860D01*
X0001832583Y0002360672D01*
X0001821334Y0002360672D01*
X0001815710Y0002357860D01*
X0001790400Y0002321302D02*
X0001790400Y0002360672D01*
X0001790400Y0002349424D02*
X0001787588Y0002355048D01*
X0001784776Y0002357860D01*
X0001779152Y0002360672D01*
X0001773528Y0002360672D01*
X0001745406Y0002321302D02*
X0001751030Y0002324115D01*
X0001753843Y0002326927D01*
X0001756655Y0002332551D01*
X0001756655Y0002349424D01*
X0001753843Y0002355048D01*
X0001751030Y0002357860D01*
X0001745406Y0002360672D01*
X0001736970Y0002360672D01*
X0001731345Y0002357860D01*
X0001728532Y0002355048D01*
X0001725721Y0002349424D01*
X0001725721Y0002332551D01*
X0001728532Y0002326927D01*
X0001731345Y0002324115D01*
X0001736970Y0002321302D01*
X0001745406Y0002321302D01*
D48*
X0001650074Y0002273215D02*
X0001650074Y0002127545D01*
X0002240625Y0002273215D02*
X0001650074Y0002273215D01*
X0002240625Y0002127545D02*
X0002240625Y0002273215D01*
D50*
X0003399934Y0002563812D02*
G75*
G02G02G02G02X0003480643Y0002481111J-0000080732D01X0003480643Y0002481111J-0000080732D01X0003480643Y0002481111J-0000080732D01G02G02X0003480643Y0002481111J-0000080732D01G02G02X0003480643Y0002481111J-0000080732D01X0003480643Y0002481111J-0000080732D01X0003480643Y0002481111J-0000080732D01X0003480643Y0002481111J-0000080732D01*
G01G01G01G01G01G01G01G01*
X0003399934Y0002563788D02*
X0003128281Y0002563788D01*
X0003045580Y0002483080D02*
G75*
G02G02G02G02X0003128281Y0002563788I0000080732D01X0003128281Y0002563788I0000080732D01X0003128281Y0002563788I0000080732D01G02G02X0003128281Y0002563788I0000080732D01G02G02X0003128281Y0002563788I0000080732D01X0003128281Y0002563788I0000080732D01X0003128281Y0002563788I0000080732D01X0003128281Y0002563788I0000080732D01*
G01G01G01G01G01G01G01G01*
X0003126311Y0002051977D02*
G75*
G02G02G02G02X0003045603Y0002134679J0000080732D01X0003045603Y0002134679J0000080732D01X0003045603Y0002134679J0000080732D01G02G02X0003045603Y0002134679J0000080732D01G02G02X0003045603Y0002134679J0000080732D01X0003045603Y0002134679J0000080732D01X0003045603Y0002134679J0000080732D01X0003045603Y0002134679J0000080732D01*
G01G01G01G01G01G01G01G01*
X0003045603Y0002134655D02*
X0003045603Y0002483080D01*
X0003480643Y0002136623D02*
X0003480643Y0002481111D01*
X0003480667Y0002134679D02*
G75*
G02G02G02G02X0003397966Y0002053970I-0000080732D01X0003397966Y0002053970I-0000080732D01X0003397966Y0002053970I-0000080732D01G02G02X0003397966Y0002053970I-0000080732D01G02G02X0003397966Y0002053970I-0000080732D01X0003397966Y0002053970I-0000080732D01X0003397966Y0002053970I-0000080732D01X0003397966Y0002053970I-0000080732D01*
G01G01G01G01G01G01G01G01*
X0003307134Y0002002577D02*
X0003333380Y0002040073D01*
X0003352128Y0002002577D02*
X0003352128Y0002081318D01*
X0003322131Y0002081318D01*
X0003314633Y0002077567D01*
X0003310883Y0002073818D01*
X0003307134Y0002066319D01*
X0003307134Y0002055070D01*
X0003310883Y0002047572D01*
X0003314633Y0002043822D01*
X0003322131Y0002040073D01*
X0003352128Y0002040073D01*
X0003273388Y0002043822D02*
X0003247141Y0002043822D01*
X0003235892Y0002002577D02*
X0003273388Y0002002577D01*
X0003273388Y0002081318D01*
X0003235892Y0002081318D01*
X0003175900Y0002043822D02*
X0003202147Y0002043822D01*
X0003202147Y0002002577D02*
X0003202147Y0002081318D01*
X0003164651Y0002081318D01*
X0003309008Y0001872281D02*
X0003312758Y0001868531D01*
X0003324005Y0001864782D01*
X0003331505Y0001864782D01*
X0003342754Y0001868531D01*
X0003350253Y0001876031D01*
X0003354003Y0001883529D01*
X0003357752Y0001898528D01*
X0003357752Y0001909775D01*
X0003354003Y0001924775D01*
X0003350253Y0001932273D01*
X0003342754Y0001939773D01*
X0003331505Y0001943522D01*
X0003324005Y0001943522D01*
X0003312758Y0001939773D01*
X0003309008Y0001936023D01*
X0003237767Y0001864782D02*
X0003275262Y0001864782D01*
X0003275262Y0001943522D01*
X0003211520Y0001864782D02*
X0003211520Y0001943522D01*
X0003166526Y0001864782D02*
X0003200272Y0001909775D01*
X0003166526Y0001943522D02*
X0003211520Y0001898528D01*
G04 next file*
G01G01G01G01G01G01G01G01*
D61*
D62*
X0000643699Y0003443663D02*
X0000686820Y0003443663D01*
X0000686820Y0003542088D01*
X0000613517Y0003443663D02*
X0000613517Y0003509279D01*
X0000613517Y0003542088D02*
X0000617829Y0003537401D01*
X0000613517Y0003532714D01*
X0000609205Y0003537401D01*
X0000613517Y0003542088D01*
X0000613517Y0003532714D01*
X0000570397Y0003443663D02*
X0000570397Y0003509279D01*
X0000570397Y0003499906D02*
X0000566085Y0003504592D01*
X0000557461Y0003509279D01*
X0000544525Y0003509279D01*
X0000535901Y0003504592D01*
X0000531589Y0003495219D01*
X0000531589Y0003443663D01*
X0000531589Y0003495219D02*
X0000527277Y0003504592D01*
X0000518653Y0003509279D01*
X0000505717Y0003509279D01*
X0000497093Y0003504592D01*
X0000492782Y0003495219D01*
X0000492782Y0003443663D01*
X0000415166Y0003448350D02*
X0000423790Y0003443663D01*
X0000441038Y0003443663D01*
X0000449662Y0003448350D01*
X0000453973Y0003457723D01*
X0000453973Y0003495219D01*
X0000449662Y0003504592D01*
X0000441038Y0003509279D01*
X0000423790Y0003509279D01*
X0000415166Y0003504592D01*
X0000410854Y0003495219D01*
X0000410854Y0003485845D01*
X0000453973Y0003476471D01*
X0000376359Y0003448350D02*
X0000363423Y0003443663D01*
X0000341863Y0003443663D01*
X0000333238Y0003448350D01*
X0000328927Y0003453036D01*
X0000324615Y0003462410D01*
X0000324615Y0003471784D01*
X0000328927Y0003481158D01*
X0000333238Y0003485845D01*
X0000341863Y0003490531D01*
X0000359111Y0003495219D01*
X0000367735Y0003499906D01*
X0000372047Y0003504592D01*
X0000376359Y0003513966D01*
X0000376359Y0003523340D01*
X0000372047Y0003532714D01*
X0000367735Y0003537401D01*
X0000359111Y0003542088D01*
X0000337551Y0003542088D01*
X0000324615Y0003537401D01*
X0000285807Y0003443663D02*
X0000285807Y0003542088D01*
X0000264248Y0003542088D01*
X0000251311Y0003537401D01*
X0000242688Y0003528027D01*
X0000238376Y0003518653D01*
X0000234064Y0003499906D01*
X0000234064Y0003485845D01*
X0000238376Y0003467097D01*
X0000242688Y0003457723D01*
X0000251311Y0003448350D01*
X0000264248Y0003443663D01*
X0000285807Y0003443663D01*
X0000143513Y0003443663D02*
X0000173697Y0003490531D01*
X0000195256Y0003443663D02*
X0000195256Y0003542088D01*
X0000160761Y0003542088D01*
X0000152137Y0003537401D01*
X0000147825Y0003532714D01*
X0000143513Y0003523340D01*
X0000143513Y0003509279D01*
X0000147825Y0003499906D01*
X0000152137Y0003495219D01*
X0000160761Y0003490531D01*
X0000195256Y0003490531D01*
G04 next file*
G04 #@! TF.FileFunction,Legend,Bot*
G04 Gerber Fmt 4.6, Leading zero omitted, Abs format (unit mm)*
G04 Created by KiCad (PCBNEW no-bzr-kicad_new3d-viewer) date 07/10/16 17:41:36*
G01G01G01G01G01G01G01G01*
G04 APERTURE LIST*
G04 APERTURE END LIST*
D73*
D74*
X0001627952Y0003443663D02*
X0001671072Y0003443663D01*
X0001671072Y0003542088D01*
X0001597768Y0003443663D02*
X0001597768Y0003509279D01*
X0001597768Y0003542088D02*
X0001602080Y0003537401D01*
X0001597768Y0003532714D01*
X0001593457Y0003537401D01*
X0001597768Y0003542088D01*
X0001597768Y0003532714D01*
X0001554647Y0003443663D02*
X0001554647Y0003509279D01*
X0001554647Y0003499906D02*
X0001550337Y0003504592D01*
X0001541713Y0003509279D01*
X0001528777Y0003509279D01*
X0001520153Y0003504592D01*
X0001515841Y0003495219D01*
X0001515841Y0003443663D01*
X0001515841Y0003495219D02*
X0001511529Y0003504592D01*
X0001502905Y0003509279D01*
X0001489969Y0003509279D01*
X0001481346Y0003504592D01*
X0001477032Y0003495219D01*
X0001477032Y0003443663D01*
X0001399417Y0003448350D02*
X0001408042Y0003443663D01*
X0001425290Y0003443663D01*
X0001433914Y0003448350D01*
X0001438226Y0003457723D01*
X0001438226Y0003495219D01*
X0001433914Y0003504592D01*
X0001425290Y0003509279D01*
X0001408042Y0003509279D01*
X0001399417Y0003504592D01*
X0001395105Y0003495219D01*
X0001395105Y0003485845D01*
X0001438226Y0003476471D01*
X0001360611Y0003448350D02*
X0001347675Y0003443663D01*
X0001326115Y0003443663D01*
X0001317490Y0003448350D01*
X0001313179Y0003453036D01*
X0001308867Y0003462410D01*
X0001308867Y0003471784D01*
X0001313179Y0003481158D01*
X0001317490Y0003485845D01*
X0001326115Y0003490531D01*
X0001343363Y0003495219D01*
X0001351987Y0003499906D01*
X0001356299Y0003504592D01*
X0001360611Y0003513966D01*
X0001360611Y0003523340D01*
X0001356299Y0003532714D01*
X0001351987Y0003537401D01*
X0001343363Y0003542088D01*
X0001321802Y0003542088D01*
X0001308867Y0003537401D01*
X0001270059Y0003443663D02*
X0001270059Y0003542088D01*
X0001248500Y0003542088D01*
X0001235564Y0003537401D01*
X0001226940Y0003528027D01*
X0001222628Y0003518653D01*
X0001218316Y0003499906D01*
X0001218316Y0003485845D01*
X0001222628Y0003467097D01*
X0001226940Y0003457723D01*
X0001235564Y0003448350D01*
X0001248500Y0003443663D01*
X0001270059Y0003443663D01*
X0001127765Y0003443663D02*
X0001157948Y0003490531D01*
X0001179508Y0003443663D02*
X0001179508Y0003542088D01*
X0001145013Y0003542088D01*
X0001136389Y0003537401D01*
X0001132077Y0003532714D01*
X0001127765Y0003523340D01*
X0001127765Y0003509279D01*
X0001132077Y0003499906D01*
X0001136389Y0003495219D01*
X0001145013Y0003490531D01*
X0001179508Y0003490531D01*
M02*