M48
;DRILL file {KiCad (2016-09-17 revision 679eef1)-makepkg} date 09/24/16 16:36:32
;FORMAT={2:4/ absolute / inch / keep zeros}
FMAT,2
INCH,TZ
T1C0.018
%
G90
G05
M72
T1
X002980Y-002673
X002980Y-008185
X003183Y-001915
X003183Y-003431
X003183Y-007427
X003183Y-008943
X003738Y-001361
X003738Y-003986
X003738Y-006872
X003738Y-009498
X004496Y-001157
X004496Y-004189
X004496Y-006669
X004496Y-009701
X005254Y-001361
X005254Y-003986
X005254Y-006872
X005254Y-009498
X005809Y-001915
X005809Y-003431
X005809Y-007427
X005809Y-008943
X006012Y-002673
X006012Y-008185
X008098Y-002673
X008098Y-008185
X008301Y-001915
X008301Y-003431
X008301Y-007427
X008301Y-008943
X008856Y-001361
X008856Y-003986
X008856Y-006872
X008856Y-009498
X009614Y-001157
X009614Y-004189
X009614Y-006669
X009614Y-009701
X010372Y-001361
X010372Y-003986
X010372Y-006872
X010372Y-009498
X010927Y-001915
X010927Y-003431
X010927Y-007427
X010927Y-008943
X011130Y-002673
X011130Y-008185
X013217Y-002673
X013217Y-008185
X013420Y-001915
X013420Y-003431
X013420Y-007427
X013420Y-008943
X013974Y-001361
X013974Y-003986
X013974Y-006872
X013974Y-009498
X014732Y-001157
X014732Y-004189
X014732Y-006669
X014732Y-009701
X015490Y-001361
X015490Y-003986
X015490Y-006872
X015490Y-009498
X016045Y-001915
X016045Y-003431
X016045Y-007427
X016045Y-008943
X016248Y-002673
X016248Y-008185
X018728Y-002673
X018728Y-008185
X018931Y-001915
X018931Y-003431
X018931Y-007427
X018931Y-008943
X019486Y-001361
X019486Y-003986
X019486Y-006872
X019486Y-009498
X020244Y-001157
X020244Y-004189
X020244Y-006669
X020244Y-009701
X021002Y-001361
X021002Y-003986
X021002Y-006872
X021002Y-009498
X021557Y-001915
X021557Y-003431
X021557Y-007427
X021557Y-008943
X021760Y-002673
X021760Y-008185
X023846Y-002673
X023846Y-008185
X024050Y-001915
X024050Y-003431
X024050Y-007427
X024050Y-008943
X024604Y-001361
X024604Y-003986
X024604Y-006872
X024604Y-009498
X025362Y-001157
X025362Y-004189
X025362Y-006669
X025362Y-009701
X026120Y-001361
X026120Y-003986
X026120Y-006872
X026120Y-009498
X026675Y-001915
X026675Y-003431
X026675Y-007427
X026675Y-008943
X026878Y-002673
X026878Y-008185
T0
M30
