%
M48
METRIC,000.000
T01C0.46
T03C0.46
T05C3.00
T07C3.00
T09C3.00
T11C3.00
T13C0.50
%
T01
X007950Y028369
X007950Y014369
X008466Y030295
X008466Y026444
X008466Y016294
X008466Y012444
X009873Y031704
X009873Y025034
X009873Y017704
X009873Y011036
X011799Y032220
X011799Y024519
X011799Y018220
X011799Y010521
X013724Y031704
X013724Y025034
X013724Y017704
X013724Y011036
X015134Y030295
X015134Y026444
X015134Y016294
X015134Y012444
X015649Y028369
X015649Y014369
X020950Y028369
X020950Y014369
X021466Y030295
X021466Y026444
X021466Y016294
X021466Y012444
X022875Y031704
X022875Y025034
X022875Y017704
X022875Y011036
X024798Y032220
X024798Y024519
X024798Y018220
X024798Y010521
X026724Y031704
X026724Y025034
X026724Y017704
X026724Y011036
X028133Y030295
X028133Y026444
X028133Y016294
X028133Y012444
X028649Y028369
X028649Y014369
X033950Y028369
X033950Y014369
X034466Y030295
X034466Y026444
X034466Y016294
X034466Y012444
X035875Y031704
X035875Y025034
X035875Y017704
X035875Y011036
X037801Y032220
X037801Y024519
X037801Y018220
X037801Y010521
X039723Y031704
X039723Y025034
X039723Y017704
X039723Y011036
X041133Y030295
X041133Y026444
X041133Y016294
X041133Y012444
X041649Y028369
X041649Y014369
X047950Y028369
X047950Y014369
X048466Y030295
X048466Y026444
X048466Y016294
X048466Y012444
X049876Y031704
X049876Y025034
X049876Y017704
X049876Y011036
X051798Y032220
X051798Y024519
X051798Y018220
X051798Y010521
X053724Y031704
X053724Y025034
X053724Y017704
X053724Y011036
X055133Y030295
X055133Y026444
X055133Y016294
X055133Y012444
X055649Y028369
X055649Y014369
X060950Y028369
X060950Y014369
X061466Y030295
X061466Y026444
X061466Y016294
X061466Y012444
X062875Y031704
X062875Y025034
X062875Y017704
X062875Y011036
X064801Y032220
X064801Y024519
X064801Y018220
X064801Y010521
X066724Y031704
X066724Y025034
X066724Y017704
X066724Y011036
X068133Y030295
X068133Y026444
X068133Y016294
X068133Y012444
X068649Y028369
X068649Y014369
T03
X060986Y060653
X061501Y062578
X061501Y058730
X062908Y063988
X062908Y057320
X064834Y064503
X064834Y056804
X066759Y063988
X066759Y057320
X068169Y062578
X068169Y058730
X068684Y060653
T05
X012060Y078319G85X012359Y078319
T07
X012060Y087319G85X012359Y087319
T09
X026060Y078319G85X026359Y078319
T11
X026060Y087319G85X026359Y087319
T13
X061499Y035409
X060499Y035409
X059499Y035409
X058499Y035409
X058250Y036917
X059250Y036917
X060250Y036918
X061250Y036918
X062250Y036918
X038499Y035409
X037499Y035409
X036499Y035409
X035499Y035409
X035250Y036914
X036250Y036914
X037250Y036914
X038250Y036914
X019499Y035409
X018499Y035409
X017499Y035409
X016499Y035409
X015499Y035409
X014499Y035409
X014250Y036911
X015250Y036911
X016250Y036911
X017250Y036912
X018250Y036912
X019250Y036912
X022118Y072410
X021118Y072410
X020118Y072410
X019118Y072410
X018118Y072410
X017118Y072410
X017967Y074625
X018967Y074624
X019967Y074623
X020967Y074623
X022533Y081757
X021576Y082016
X020576Y082016
X019576Y082016
X018576Y082016
X017576Y082016
X022516Y083874
X017967Y083625
X018967Y083624
X019967Y083623
X020967Y083623
X008118Y072410
X007118Y072410
X006118Y072410
X005118Y072410
X004118Y072410
X003118Y072410
X003967Y074625
X004967Y074624
X005967Y074623
X006967Y074623
X008533Y081757
X007576Y082016
X006576Y082016
X005576Y082016
X004576Y082016
X003576Y082016
X008516Y083874
X003967Y083625
X004967Y083624
X005967Y083623
X006967Y083623
X040118Y072410
X039118Y072410
X038118Y072410
X037118Y072410
X036118Y072410
X035118Y072410
X035692Y074400
X036692Y074400
X037692Y074400
X038692Y074400
X039692Y074400
X039953Y078700
X038953Y078700
X037953Y078700
X036953Y078700
X035953Y078700
X035310Y080250
X036310Y080250
X037310Y080250
X038310Y080250
X039310Y080250
X040310Y080250
M30