%MOIN*%
%OFA0B0*%
%FSLAX46Y46*%
%IPPOS*%
%LPD*%
%ADD10C,0.005905511811023622*%
%ADD11C,0.0007874015748031497*%
%ADD22C,0.005905511811023622*%
%ADD23C,0.0039370078740157488*%
%ADD24C,0.0007874015748031497*%
%ADD35C,0.005905511811023622*%
%ADD36C,0.0039370078740157488*%
%ADD47C,0.005905511811023622*%
%ADD48C,0.0039370078740157488*%
%LPD*%
G01G01G01G01*
D10*
D11*
X0000216929Y0000151968D02*
G75*
G03G03X0000216929Y0000151968I-0000051181D01G03G03X0000216929Y0000151968I-0000051181D01X0000216929Y0000151968I-0000051181D01X0000216929Y0000151968I-0000051181D01*
G01G01G01G01*
X0000217322Y0001236614D02*
G75*
G03G03X0000217322Y0001236614I-0000051181D01G03G03X0000217322Y0001236614I-0000051181D01X0000217322Y0001236614I-0000051181D01X0000217322Y0001236614I-0000051181D01*
G01G01G01G01*
X0002898818Y0001237795D02*
G75*
G03G03X0002898818Y0001237795I-0000051181D01G03G03X0002898818Y0001237795I-0000051181D01X0002898818Y0001237795I-0000051181D01X0002898818Y0001237795I-0000051181D01*
G01G01G01G01*
X0000112992Y0000006299D02*
G75*
G02G02X0000014960Y0000104330J0000098031D01G02G02X0000014960Y0000104330J0000098031D01X0000014960Y0000104330J0000098031D01X0000014960Y0000104330J0000098031D01*
G01G01G01G01*
X0000014960Y0001286220D02*
G75*
G02G02X0000112992Y0001384251I0000098031D01G02G02X0000112992Y0001384251I0000098031D01X0000112992Y0001384251I0000098031D01X0000112992Y0001384251I0000098031D01*
G01G01G01G01*
X0002908661Y0001384251D02*
G75*
G02G02X0003006692Y0001286220J-0000098031D01G02G02X0003006692Y0001286220J-0000098031D01X0003006692Y0001286220J-0000098031D01X0003006692Y0001286220J-0000098031D01*
G01G01G01G01*
X0002897244Y0000153543D02*
G75*
G03G03X0002897244Y0000153543I-0000051181D01G03G03X0002897244Y0000153543I-0000051181D01X0002897244Y0000153543I-0000051181D01X0002897244Y0000153543I-0000051181D01*
G01G01G01G01*
X0003006692Y0000104724D02*
G75*
G02G02X0002908661Y0000006692I-0000098031D01G02G02X0002908661Y0000006692I-0000098031D01X0002908661Y0000006692I-0000098031D01X0002908661Y0000006692I-0000098031D01*
G01G01G01G01*
X0000014960Y0000104330D02*
X0000014960Y0001286220D01*
X0002908661Y0000006692D02*
X0000112992Y0000006299D01*
X0003006692Y0001286220D02*
X0003006692Y0000104724D01*
X0000112992Y0001384251D02*
X0002908661Y0001384251D01*
X0002657479Y0000494488D02*
G75*
G02G02X0002657479Y0000637007I-0000106299J0000071259D01G02G02X0002657479Y0000637007I-0000106299J0000071259D01X0002657479Y0000637007I-0000106299J0000071259D01X0002657479Y0000637007I-0000106299J0000071259D01*
G01G01G01G01*
X0002657479Y0000637007D02*
X0002657479Y0000494488D01*
X0002145669Y0000494488D02*
G75*
G02G02X0002145669Y0000637007I-0000106299J0000071259D01G02G02X0002145669Y0000637007I-0000106299J0000071259D01X0002145669Y0000637007I-0000106299J0000071259D01X0002145669Y0000637007I-0000106299J0000071259D01*
G01G01G01G01*
X0002145669Y0000637007D02*
X0002145669Y0000494488D01*
X0002657479Y0001045669D02*
G75*
G02G02X0002657479Y0001188188I-0000106299J0000071259D01G02G02X0002657479Y0001188188I-0000106299J0000071259D01X0002657479Y0001188188I-0000106299J0000071259D01X0002657479Y0001188188I-0000106299J0000071259D01*
G01G01G01G01*
X0002657479Y0001188188D02*
X0002657479Y0001045669D01*
X0002145669Y0001045669D02*
G75*
G02G02X0002145669Y0001188188I-0000106299J0000071259D01G02G02X0002145669Y0001188188I-0000106299J0000071259D01X0002145669Y0001188188I-0000106299J0000071259D01X0002145669Y0001188188I-0000106299J0000071259D01*
G01G01G01G01*
X0002145669Y0001188188D02*
X0002145669Y0001045669D01*
X0001594488Y0000494488D02*
G75*
G02G02X0001594488Y0000637007I-0000106299J0000071259D01G02G02X0001594488Y0000637007I-0000106299J0000071259D01X0001594488Y0000637007I-0000106299J0000071259D01X0001594488Y0000637007I-0000106299J0000071259D01*
G01G01G01G01*
X0001594488Y0000637007D02*
X0001594488Y0000494488D01*
X0001082677Y0000494488D02*
G75*
G02G02X0001082677Y0000637007I-0000106299J0000071259D01G02G02X0001082677Y0000637007I-0000106299J0000071259D01X0001082677Y0000637007I-0000106299J0000071259D01X0001082677Y0000637007I-0000106299J0000071259D01*
G01G01G01G01*
X0001082677Y0000637007D02*
X0001082677Y0000494488D01*
X0000570866Y0000494488D02*
G75*
G02G02X0000570866Y0000637007I-0000106299J0000071259D01G02G02X0000570866Y0000637007I-0000106299J0000071259D01X0000570866Y0000637007I-0000106299J0000071259D01X0000570866Y0000637007I-0000106299J0000071259D01*
G01G01G01G01*
X0000570866Y0000637007D02*
X0000570866Y0000494488D01*
X0001594488Y0001045669D02*
G75*
G02G02X0001594488Y0001188188I-0000106299J0000071259D01G02G02X0001594488Y0001188188I-0000106299J0000071259D01X0001594488Y0001188188I-0000106299J0000071259D01X0001594488Y0001188188I-0000106299J0000071259D01*
G01G01G01G01*
X0001594488Y0001188188D02*
X0001594488Y0001045669D01*
X0001082677Y0001045669D02*
G75*
G02G02X0001082677Y0001188188I-0000106299J0000071259D01G02G02X0001082677Y0001188188I-0000106299J0000071259D01X0001082677Y0001188188I-0000106299J0000071259D01X0001082677Y0001188188I-0000106299J0000071259D01*
G01G01G01G01*
X0001082677Y0001188188D02*
X0001082677Y0001045669D01*
X0000570866Y0001045669D02*
G75*
G02G02X0000570866Y0001188188I-0000106299J0000071259D01G02G02X0000570866Y0001188188I-0000106299J0000071259D01X0000570866Y0001188188I-0000106299J0000071259D01X0000570866Y0001188188I-0000106299J0000071259D01*
G01G01G01G01*
X0000570866Y0001188188D02*
X0000570866Y0001045669D01*
G01G01G01G01*
D22*
D23*
X0001740157Y0001604329D02*
X0001285433Y0001604329D01*
X0001740157Y0001604329D02*
G75*
G03G03X0001759842Y0001624015J0000019685D01G03G03X0001759842Y0001624015J0000019685D01X0001759842Y0001624015J0000019685D01X0001759842Y0001624015J0000019685D01*
G01G01G01G01*
X0001759842Y0001789370D02*
X0001759842Y0001624015D01*
X0000700786Y0001722440D02*
X0000879921Y0001722440D01*
X0000879921Y0001722440D02*
G75*
G03G03X0000899606Y0001742124J0000019685D01G03G03X0000899606Y0001742124J0000019685D01X0000899606Y0001742124J0000019685D01X0000899606Y0001742124J0000019685D01*
G01G01G01G01*
X0000899606Y0002011810D02*
X0000899606Y0001742124D01*
X0000899606Y0002011810D02*
G75*
G03G03X0000879921Y0002031496I-0000019685D01G03G03X0000879921Y0002031496I-0000019685D01X0000879921Y0002031496I-0000019685D01X0000879921Y0002031496I-0000019685D01*
G01G01G01G01*
X0000879921Y0002031496D02*
X0000700786Y0002031496D01*
X0000700786Y0002031496D02*
G75*
G03G03X0000681102Y0002011810J-0000019685D01G03G03X0000681102Y0002011810J-0000019685D01X0000681102Y0002011810J-0000019685D01X0000681102Y0002011810J-0000019685D01*
G01G01G01G01*
X0000681102Y0002011810D02*
X0000681102Y0001742124D01*
X0000681102Y0001742124D02*
G75*
G03G03X0000700786Y0001722440I0000019685D01G03G03X0000700786Y0001722440I0000019685D01X0000700786Y0001722440I0000019685D01X0000700786Y0001722440I0000019685D01*
G01G01G01G01*
X0001265748Y0001624015D02*
G75*
G03G03X0001285433Y0001604329I0000019685D01G03G03X0001285433Y0001604329I0000019685D01X0001285433Y0001604329I0000019685D01X0001285433Y0001604329I0000019685D01*
G01G01G01G01*
X0001265748Y0001789370D02*
X0001265748Y0001624015D01*
X0001759842Y0001789370D02*
X0001771653Y0001789370D01*
X0001265748Y0001789370D02*
X0001248031Y0001789370D01*
X0001771653Y0001789370D02*
G75*
G03G03X0001791338Y0001809054J0000019685D01G03G03X0001791338Y0001809054J0000019685D01X0001791338Y0001809054J0000019685D01X0001791338Y0001809054J0000019685D01*
G01G01G01G01*
X0001791338Y0001935039D02*
X0001791338Y0001809054D01*
X0001228346Y0001809054D02*
G75*
G03G03X0001248031Y0001789370I0000019685D01G03G03X0001248031Y0001789370I0000019685D01X0001248031Y0001789370I0000019685D01X0001248031Y0001789370I0000019685D01*
G01G01G01G01*
X0001228346Y0001935039D02*
X0001228346Y0001809054D01*
X0001248031Y0001954724D02*
G75*
G03G03X0001228346Y0001935039J-0000019685D01G03G03X0001228346Y0001935039J-0000019685D01X0001228346Y0001935039J-0000019685D01X0001228346Y0001935039J-0000019685D01*
G01G01G01G01*
X0001771653Y0001954724D02*
X0001248031Y0001954724D01*
X0001791338Y0001935039D02*
G75*
G03G03X0001771653Y0001954724I-0000019685D01G03G03X0001771653Y0001954724I-0000019685D01X0001771653Y0001954724I-0000019685D01X0001771653Y0001954724I-0000019685D01*
G01G01G01G01*
D22*
X0000216929Y0001608661D02*
G75*
G03G03X0000216929Y0001608661I-0000051181D01G03G03X0000216929Y0001608661I-0000051181D01X0000216929Y0001608661I-0000051181D01X0000216929Y0001608661I-0000051181D01*
G01G01G01G01*
X0000217322Y0002693307D02*
G75*
G03G03X0000217322Y0002693307I-0000051181D01G03G03X0000217322Y0002693307I-0000051181D01X0000217322Y0002693307I-0000051181D01X0000217322Y0002693307I-0000051181D01*
G01G01G01G01*
X0002898818Y0002694488D02*
G75*
G03G03X0002898818Y0002694488I-0000051181D01G03G03X0002898818Y0002694488I-0000051181D01X0002898818Y0002694488I-0000051181D01X0002898818Y0002694488I-0000051181D01*
G01G01G01G01*
D24*
X0000112992Y0001462992D02*
G75*
G02G02X0000014960Y0001561023J0000098031D01G02G02X0000014960Y0001561023J0000098031D01X0000014960Y0001561023J0000098031D01X0000014960Y0001561023J0000098031D01*
G01G01G01G01*
X0000014960Y0002742913D02*
G75*
G02G02X0000112992Y0002840944I0000098031D01G02G02X0000112992Y0002840944I0000098031D01X0000112992Y0002840944I0000098031D01X0000112992Y0002840944I0000098031D01*
G01G01G01G01*
X0002908661Y0002840944D02*
G75*
G02G02X0003006692Y0002742913J-0000098031D01G02G02X0003006692Y0002742913J-0000098031D01X0003006692Y0002742913J-0000098031D01X0003006692Y0002742913J-0000098031D01*
G01G01G01G01*
D22*
X0002897244Y0001610236D02*
G75*
G03G03X0002897244Y0001610236I-0000051181D01G03G03X0002897244Y0001610236I-0000051181D01X0002897244Y0001610236I-0000051181D01X0002897244Y0001610236I-0000051181D01*
G01G01G01G01*
D24*
X0003006692Y0001561417D02*
G75*
G02G02X0002908661Y0001463385I-0000098031D01G02G02X0002908661Y0001463385I-0000098031D01X0002908661Y0001463385I-0000098031D01X0002908661Y0001463385I-0000098031D01*
G01G01G01G01*
X0000014960Y0001561023D02*
X0000014960Y0002742913D01*
X0002908661Y0001463385D02*
X0000112992Y0001462992D01*
X0003006692Y0002742913D02*
X0003006692Y0001561417D01*
X0000112992Y0002840944D02*
X0002908661Y0002840944D01*
D22*
X0002658857Y0002316700D02*
G75*
G02G02X0002658857Y0002459220I-0000106299J0000071259D01G02G02X0002658857Y0002459220I-0000106299J0000071259D01X0002658857Y0002459220I-0000106299J0000071259D01X0002658857Y0002459220I-0000106299J0000071259D01*
G01G01G01G01*
X0002658857Y0002459220D02*
X0002658857Y0002316700D01*
G04 next file*
G01G01G01G01*
D35*
D36*
X0001255905Y0002938976D02*
X0001763779Y0002938976D01*
X0001236220Y0003068897D02*
X0001236220Y0002958661D01*
X0001763779Y0003088582D02*
X0001255905Y0003088582D01*
X0001783464Y0002958661D02*
X0001783464Y0003068897D01*
X0001763779Y0002938976D02*
G75*
G03G03X0001783464Y0002958661J0000019685D01G03G03X0001783464Y0002958661J0000019685D01X0001783464Y0002958661J0000019685D01X0001783464Y0002958661J0000019685D01*
G01G01G01G01*
X0001783464Y0003068897D02*
G75*
G03G03X0001763779Y0003088582I-0000019685D01G03G03X0001763779Y0003088582I-0000019685D01X0001763779Y0003088582I-0000019685D01X0001763779Y0003088582I-0000019685D01*
G01G01G01G01*
X0001255905Y0003088582D02*
G75*
G03G03X0001236220Y0003068897J-0000019685D01G03G03X0001236220Y0003068897J-0000019685D01X0001236220Y0003068897J-0000019685D01X0001236220Y0003068897J-0000019685D01*
G01G01G01G01*
X0001236220Y0002958661D02*
G75*
G03G03X0001255905Y0002938976I0000019685D01G03G03X0001255905Y0002938976I0000019685D01X0001255905Y0002938976I0000019685D01X0001255905Y0002938976I0000019685D01*
G01G01G01G01*
G04 next file*
G04 #@! TF.FileFunction,Profile,NP*
G04 Gerber Fmt 4.6, Leading zero omitted, Abs format (unit mm)*
G04 Created by KiCad (PCBNEW (2016-07-22 BZR 6991, Git 146a78a)-product) date 08/19/16 17:37:13*
G01G01G01G01*
G04 APERTURE LIST*
G04 APERTURE END LIST*
D47*
D48*
X0001244094Y0003169291D02*
X0001244094Y0003326771D01*
X0001722440Y0003169291D02*
X0001244094Y0003169291D01*
X0001722440Y0003326771D02*
X0001722440Y0003169291D01*
X0001263779Y0003346456D02*
X0001702755Y0003346456D01*
X0001263779Y0003346456D02*
G75*
G03G03X0001244094Y0003326771J0000019685D01G03G03X0001244094Y0003326771J0000019685D01X0001244094Y0003326771J0000019685D01X0001244094Y0003326771J0000019685D01*
G01G01G01G01*
X0001722440Y0003326771D02*
G75*
G03G03X0001702755Y0003346456I0000019685D01G03G03X0001702755Y0003346456I0000019685D01X0001702755Y0003346456I0000019685D01X0001702755Y0003346456I0000019685D01*
G01G01G01G01*
M02*