G04 #@! TF.FileFunction,Copper,L2,Bot,Signal*
%FSLAX46Y46*%
G04 Gerber Fmt 4.6, Leading zero omitted, Abs format (unit mm)*
G04 Created by KiCad (PCBNEW (2016-10-28 revision 192d4b8)-makepkg) date 11/04/16 19:07:24*
%MOMM*%
%LPD*%
G01*
G04 APERTURE LIST*
%ADD10C,0.150000*%
%ADD11C,0.800000*%
%ADD12C,0.254000*%
G04 APERTURE END LIST*
D10*
D11*
X51024854Y-12189422D03*
X51540656Y-10264422D03*
X52949854Y-8855224D03*
X54874854Y-8339422D03*
X56799854Y-8855224D03*
X58209052Y-10264422D03*
X58224854Y-12189422D03*
X58209052Y-14114422D03*
X56799854Y-15523620D03*
X54874854Y-16039422D03*
X52949854Y-15523620D03*
X51540656Y-14114422D03*
X62540656Y-14114422D03*
X63949854Y-15523620D03*
X65874854Y-16039422D03*
X67799854Y-15523620D03*
X69209052Y-14114422D03*
X69224854Y-12189422D03*
X69209052Y-10264422D03*
X67799854Y-8855224D03*
X65874854Y-8339422D03*
X63949854Y-8855224D03*
X62540656Y-10264422D03*
X62024854Y-12189422D03*
D12*
G36*
X74716539Y-1096996D02*
X75320070Y-1500261D01*
X75723335Y-2103792D01*
X75867627Y-2829199D01*
X75867627Y-10522209D01*
X75852739Y-10597056D01*
X75817988Y-10649064D01*
X75765979Y-10683816D01*
X75691132Y-10698704D01*
X75014626Y-10698704D01*
X74962198Y-10709133D01*
X74917752Y-10738830D01*
X74888055Y-10783276D01*
X74877626Y-10835704D01*
X74877627Y-25675704D01*
X74888056Y-25728132D01*
X74917753Y-25772578D01*
X74962199Y-25802275D01*
X75014627Y-25812704D01*
X75691132Y-25812704D01*
X75765979Y-25827592D01*
X75817988Y-25862344D01*
X75852739Y-25914352D01*
X75867627Y-25989199D01*
X75867627Y-33302209D01*
X75686035Y-34215133D01*
X75176553Y-34977627D01*
X74414056Y-35487112D01*
X73501122Y-35668706D01*
X2028113Y-35678702D01*
X1302715Y-35534412D01*
X699184Y-35131147D01*
X295919Y-34527616D01*
X151627Y-33802209D01*
X151627Y-31850704D01*
X2422627Y-31850704D01*
X2539624Y-32438888D01*
X2872804Y-32937527D01*
X3371443Y-33270707D01*
X3959627Y-33387704D01*
X4547811Y-33270707D01*
X5046450Y-32937527D01*
X5379630Y-32438888D01*
X5496627Y-31850704D01*
X5379630Y-31262520D01*
X5046450Y-30763881D01*
X4547811Y-30430701D01*
X3959627Y-30313704D01*
X3371443Y-30430701D01*
X2872804Y-30763881D01*
X2539624Y-31262520D01*
X2422627Y-31850704D01*
X151627Y-31850704D01*
X151627Y-26089199D01*
X166515Y-26014352D01*
X201267Y-25962343D01*
X253275Y-25927592D01*
X328122Y-25912704D01*
X1004627Y-25912704D01*
X1057055Y-25902275D01*
X1101501Y-25872578D01*
X1131198Y-25828132D01*
X1141627Y-25775704D01*
X1141627Y-22243620D01*
X16922854Y-22243620D01*
X16922854Y-28943620D01*
X16926255Y-28960718D01*
X16926255Y-28978151D01*
X16964315Y-29169493D01*
X16964315Y-29169494D01*
X16990744Y-29233299D01*
X17099129Y-29395508D01*
X17147964Y-29444343D01*
X17310175Y-29552730D01*
X17310176Y-29552731D01*
X17347552Y-29568212D01*
X17373980Y-29579159D01*
X17373981Y-29579159D01*
X17565324Y-29617219D01*
X17582756Y-29617219D01*
X17599854Y-29620620D01*
X21949854Y-29620620D01*
X21966952Y-29617219D01*
X21984385Y-29617219D01*
X22175727Y-29579159D01*
X22175728Y-29579159D01*
X22239533Y-29552730D01*
X22401744Y-29444343D01*
X22450579Y-29395508D01*
X22558964Y-29233299D01*
X22558965Y-29233298D01*
X22585393Y-29169493D01*
X22623453Y-28978150D01*
X22623453Y-28960718D01*
X22626854Y-28943620D01*
X22626854Y-24243620D01*
X30772854Y-24243620D01*
X30772854Y-27023620D01*
X30776255Y-27040718D01*
X30776255Y-27058151D01*
X30814315Y-27249493D01*
X30814315Y-27249494D01*
X30840744Y-27313299D01*
X30949129Y-27475508D01*
X30997964Y-27524343D01*
X31160175Y-27632730D01*
X31160176Y-27632731D01*
X31197552Y-27648212D01*
X31223980Y-27659159D01*
X31223981Y-27659159D01*
X31415324Y-27697219D01*
X31432756Y-27697219D01*
X31449854Y-27700620D01*
X31772854Y-27700620D01*
X31772854Y-31643620D01*
X31776255Y-31660718D01*
X31776255Y-31678151D01*
X31814315Y-31869493D01*
X31814315Y-31869494D01*
X31840744Y-31933299D01*
X31949129Y-32095508D01*
X31997964Y-32144343D01*
X32160175Y-32252730D01*
X32160176Y-32252731D01*
X32197552Y-32268212D01*
X32223980Y-32279159D01*
X32223981Y-32279159D01*
X32415324Y-32317219D01*
X32432756Y-32317219D01*
X32449854Y-32320620D01*
X43649854Y-32320620D01*
X43666952Y-32317219D01*
X43684385Y-32317219D01*
X43875727Y-32279159D01*
X43875728Y-32279159D01*
X43939533Y-32252730D01*
X44101744Y-32144343D01*
X44150579Y-32095508D01*
X44258964Y-31933299D01*
X44258965Y-31933298D01*
X44274446Y-31895922D01*
X44282820Y-31875704D01*
X70397627Y-31875704D01*
X70514624Y-32463888D01*
X70847804Y-32962527D01*
X71346443Y-33295707D01*
X71934627Y-33412704D01*
X72522811Y-33295707D01*
X73021450Y-32962527D01*
X73354630Y-32463888D01*
X73471627Y-31875704D01*
X73354630Y-31287520D01*
X73021450Y-30788881D01*
X72522811Y-30455701D01*
X71934627Y-30338704D01*
X71346443Y-30455701D01*
X70847804Y-30788881D01*
X70514624Y-31287520D01*
X70397627Y-31875704D01*
X44282820Y-31875704D01*
X44285393Y-31869494D01*
X44285393Y-31869493D01*
X44323453Y-31678150D01*
X44323453Y-31660718D01*
X44326854Y-31643620D01*
X44326854Y-27700620D01*
X44499854Y-27700620D01*
X44516952Y-27697219D01*
X44534385Y-27697219D01*
X44725727Y-27659159D01*
X44725728Y-27659159D01*
X44789533Y-27632730D01*
X44951744Y-27524343D01*
X45000579Y-27475508D01*
X45108964Y-27313299D01*
X45108965Y-27313298D01*
X45135393Y-27249493D01*
X45173453Y-27058150D01*
X45173453Y-27040718D01*
X45176854Y-27023620D01*
X45176854Y-24243620D01*
X45173453Y-24226522D01*
X45173453Y-24209090D01*
X45135393Y-24017747D01*
X45108965Y-23953942D01*
X45108964Y-23953941D01*
X45000577Y-23791730D01*
X44951742Y-23742895D01*
X44789533Y-23634510D01*
X44725728Y-23608081D01*
X44725727Y-23608081D01*
X44534385Y-23570021D01*
X44516952Y-23570021D01*
X44499854Y-23566620D01*
X31449854Y-23566620D01*
X31432756Y-23570021D01*
X31415324Y-23570021D01*
X31223981Y-23608081D01*
X31223980Y-23608081D01*
X31198918Y-23618462D01*
X31160176Y-23634509D01*
X31160175Y-23634510D01*
X30997966Y-23742895D01*
X30949131Y-23791730D01*
X30840744Y-23953941D01*
X30840744Y-23953942D01*
X30814315Y-24017747D01*
X30776255Y-24209089D01*
X30776255Y-24226522D01*
X30772854Y-24243620D01*
X22626854Y-24243620D01*
X22626854Y-22243620D01*
X22623453Y-22226522D01*
X22623453Y-22209090D01*
X22585393Y-22017747D01*
X22558965Y-21953942D01*
X22558964Y-21953941D01*
X22450577Y-21791730D01*
X22401742Y-21742895D01*
X22239533Y-21634510D01*
X22175728Y-21608081D01*
X22175727Y-21608081D01*
X21984385Y-21570021D01*
X21966952Y-21570021D01*
X21949854Y-21566620D01*
X17599854Y-21566620D01*
X17582756Y-21570021D01*
X17565324Y-21570021D01*
X17373981Y-21608081D01*
X17373980Y-21608081D01*
X17348918Y-21618462D01*
X17310176Y-21634509D01*
X17310175Y-21634510D01*
X17147966Y-21742895D01*
X17099131Y-21791730D01*
X16990744Y-21953941D01*
X16990744Y-21953942D01*
X16964315Y-22017747D01*
X16926255Y-22209089D01*
X16926255Y-22226522D01*
X16922854Y-22243620D01*
X1141627Y-22243620D01*
X1141627Y-12818441D01*
X51483802Y-12818441D01*
X51499061Y-12895766D01*
X51499062Y-12895767D01*
X51982645Y-14068255D01*
X51982646Y-14068260D01*
X51988472Y-14077007D01*
X52026335Y-14133860D01*
X52026338Y-14133862D01*
X52921800Y-15032038D01*
X52921802Y-15032041D01*
X52948076Y-15049655D01*
X52987269Y-15075929D01*
X52987274Y-15075930D01*
X54158289Y-15563058D01*
X54158293Y-15563061D01*
X54235571Y-15578554D01*
X55503873Y-15580474D01*
X55581198Y-15565215D01*
X55581200Y-15565213D01*
X56753687Y-15081631D01*
X56753692Y-15081630D01*
X56793068Y-15055406D01*
X56819292Y-15037941D01*
X56819294Y-15037938D01*
X57717473Y-14142473D01*
X57717558Y-14142346D01*
X57717690Y-14142258D01*
X57739606Y-14109459D01*
X57761361Y-14077007D01*
X57761392Y-14076853D01*
X57761478Y-14076724D01*
X57769035Y-14038732D01*
X57776855Y-13999728D01*
X57776824Y-13999572D01*
X57776854Y-13999422D01*
X57776854Y-12818441D01*
X62483802Y-12818441D01*
X62499061Y-12895766D01*
X62499062Y-12895767D01*
X62982645Y-14068255D01*
X62982646Y-14068260D01*
X62988472Y-14077007D01*
X63026335Y-14133860D01*
X63026338Y-14133862D01*
X63921800Y-15032038D01*
X63921802Y-15032041D01*
X63948076Y-15049655D01*
X63987269Y-15075929D01*
X63987274Y-15075930D01*
X65158289Y-15563058D01*
X65158293Y-15563061D01*
X65235571Y-15578554D01*
X66503873Y-15580474D01*
X66581198Y-15565215D01*
X66581200Y-15565213D01*
X67753687Y-15081631D01*
X67753692Y-15081630D01*
X67793068Y-15055406D01*
X67819292Y-15037941D01*
X67819294Y-15037938D01*
X68717473Y-14142473D01*
X68717558Y-14142346D01*
X68717690Y-14142258D01*
X68739606Y-14109459D01*
X68761361Y-14077007D01*
X68761392Y-14076853D01*
X68761478Y-14076724D01*
X68769035Y-14038732D01*
X68776855Y-13999728D01*
X68776824Y-13999572D01*
X68776854Y-13999422D01*
X68776854Y-10379427D01*
X68776855Y-10379422D01*
X68761478Y-10302120D01*
X68717690Y-10236586D01*
X67827690Y-9346586D01*
X67794812Y-9324618D01*
X67762439Y-9302916D01*
X67762157Y-9302799D01*
X67762156Y-9302798D01*
X67762155Y-9302798D01*
X66591416Y-8815784D01*
X66591417Y-8815784D01*
X66591415Y-8815783D01*
X66529630Y-8803396D01*
X66514137Y-8800290D01*
X66514136Y-8800290D01*
X65245835Y-8798370D01*
X65168510Y-8813629D01*
X63996021Y-9297213D01*
X63996016Y-9297214D01*
X63930417Y-9340903D01*
X63032235Y-10236370D01*
X62988347Y-10301837D01*
X62988346Y-10301842D01*
X62501217Y-11472859D01*
X62501215Y-11472861D01*
X62485722Y-11550140D01*
X62483802Y-12818441D01*
X57776854Y-12818441D01*
X57776854Y-10379427D01*
X57776855Y-10379422D01*
X57761478Y-10302120D01*
X57717690Y-10236586D01*
X56827690Y-9346586D01*
X56794812Y-9324618D01*
X56762439Y-9302916D01*
X56762157Y-9302799D01*
X56762156Y-9302798D01*
X56762155Y-9302798D01*
X55591416Y-8815784D01*
X55591417Y-8815784D01*
X55591415Y-8815783D01*
X55529630Y-8803396D01*
X55514137Y-8800290D01*
X55514136Y-8800290D01*
X54245835Y-8798370D01*
X54168510Y-8813629D01*
X52996021Y-9297213D01*
X52996016Y-9297214D01*
X52930417Y-9340903D01*
X52032235Y-10236370D01*
X51988347Y-10301837D01*
X51988346Y-10301842D01*
X51501217Y-11472859D01*
X51501215Y-11472861D01*
X51485722Y-11550140D01*
X51483802Y-12818441D01*
X1141627Y-12818441D01*
X1141627Y-10935704D01*
X1131198Y-10883276D01*
X1101501Y-10838830D01*
X1057055Y-10809133D01*
X1004627Y-10798704D01*
X328122Y-10798704D01*
X253275Y-10783816D01*
X201267Y-10749065D01*
X166515Y-10697056D01*
X151627Y-10622209D01*
X151627Y-6619483D01*
X9822984Y-6619483D01*
X9948622Y-6923550D01*
X10181057Y-7156392D01*
X10484905Y-7282560D01*
X10813906Y-7282847D01*
X11117973Y-7157209D01*
X11350815Y-6924774D01*
X11476983Y-6620926D01*
X11476984Y-6619483D01*
X12868484Y-6619483D01*
X12994122Y-6923550D01*
X13226557Y-7156392D01*
X13530405Y-7282560D01*
X13859406Y-7282847D01*
X14163473Y-7157209D01*
X14396315Y-6924774D01*
X14522483Y-6620926D01*
X14522484Y-6619483D01*
X15913984Y-6619483D01*
X16039622Y-6923550D01*
X16272057Y-7156392D01*
X16575905Y-7282560D01*
X16904906Y-7282847D01*
X17208973Y-7157209D01*
X17441815Y-6924774D01*
X17567983Y-6620926D01*
X17567984Y-6619483D01*
X18959484Y-6619483D01*
X19085122Y-6923550D01*
X19317557Y-7156392D01*
X19621405Y-7282560D01*
X19950406Y-7282847D01*
X20254473Y-7157209D01*
X20487315Y-6924774D01*
X20613483Y-6620926D01*
X20613484Y-6619483D01*
X22004984Y-6619483D01*
X22130622Y-6923550D01*
X22363057Y-7156392D01*
X22666905Y-7282560D01*
X22995906Y-7282847D01*
X23299973Y-7157209D01*
X23532815Y-6924774D01*
X23658983Y-6620926D01*
X23658984Y-6619483D01*
X25050484Y-6619483D01*
X25176122Y-6923550D01*
X25408557Y-7156392D01*
X25712405Y-7282560D01*
X26041406Y-7282847D01*
X26345473Y-7157209D01*
X26578315Y-6924774D01*
X26704483Y-6620926D01*
X26704484Y-6619483D01*
X28095984Y-6619483D01*
X28221622Y-6923550D01*
X28454057Y-7156392D01*
X28757905Y-7282560D01*
X29086906Y-7282847D01*
X29390973Y-7157209D01*
X29623815Y-6924774D01*
X29749983Y-6620926D01*
X29749984Y-6619483D01*
X31141484Y-6619483D01*
X31267122Y-6923550D01*
X31499557Y-7156392D01*
X31803405Y-7282560D01*
X32132406Y-7282847D01*
X32436473Y-7157209D01*
X32669315Y-6924774D01*
X32795483Y-6620926D01*
X32795484Y-6619483D01*
X34186984Y-6619483D01*
X34312622Y-6923550D01*
X34545057Y-7156392D01*
X34848905Y-7282560D01*
X35177906Y-7282847D01*
X35481973Y-7157209D01*
X35714815Y-6924774D01*
X35840983Y-6620926D01*
X35840984Y-6619483D01*
X37232484Y-6619483D01*
X37358122Y-6923550D01*
X37590557Y-7156392D01*
X37894405Y-7282560D01*
X38223406Y-7282847D01*
X38527473Y-7157209D01*
X38760315Y-6924774D01*
X38886483Y-6620926D01*
X38886484Y-6619483D01*
X40277984Y-6619483D01*
X40403622Y-6923550D01*
X40636057Y-7156392D01*
X40939905Y-7282560D01*
X41268906Y-7282847D01*
X41572973Y-7157209D01*
X41805815Y-6924774D01*
X41931983Y-6620926D01*
X41931984Y-6619483D01*
X43323484Y-6619483D01*
X43449122Y-6923550D01*
X43681557Y-7156392D01*
X43985405Y-7282560D01*
X44314406Y-7282847D01*
X44618473Y-7157209D01*
X44851315Y-6924774D01*
X44977483Y-6620926D01*
X44977484Y-6619483D01*
X46368984Y-6619483D01*
X46494622Y-6923550D01*
X46727057Y-7156392D01*
X47030905Y-7282560D01*
X47359906Y-7282847D01*
X47663973Y-7157209D01*
X47896815Y-6924774D01*
X48022983Y-6620926D01*
X48023270Y-6291925D01*
X47897632Y-5987858D01*
X47665197Y-5755016D01*
X47361349Y-5628848D01*
X47032348Y-5628561D01*
X46728281Y-5754199D01*
X46495439Y-5986634D01*
X46369271Y-6290482D01*
X46368984Y-6619483D01*
X44977484Y-6619483D01*
X44977770Y-6291925D01*
X44852132Y-5987858D01*
X44619697Y-5755016D01*
X44315849Y-5628848D01*
X43986848Y-5628561D01*
X43682781Y-5754199D01*
X43449939Y-5986634D01*
X43323771Y-6290482D01*
X43323484Y-6619483D01*
X41931984Y-6619483D01*
X41932270Y-6291925D01*
X41806632Y-5987858D01*
X41574197Y-5755016D01*
X41270349Y-5628848D01*
X40941348Y-5628561D01*
X40637281Y-5754199D01*
X40404439Y-5986634D01*
X40278271Y-6290482D01*
X40277984Y-6619483D01*
X38886484Y-6619483D01*
X38886770Y-6291925D01*
X38761132Y-5987858D01*
X38528697Y-5755016D01*
X38224849Y-5628848D01*
X37895848Y-5628561D01*
X37591781Y-5754199D01*
X37358939Y-5986634D01*
X37232771Y-6290482D01*
X37232484Y-6619483D01*
X35840984Y-6619483D01*
X35841270Y-6291925D01*
X35715632Y-5987858D01*
X35483197Y-5755016D01*
X35179349Y-5628848D01*
X34850348Y-5628561D01*
X34546281Y-5754199D01*
X34313439Y-5986634D01*
X34187271Y-6290482D01*
X34186984Y-6619483D01*
X32795484Y-6619483D01*
X32795770Y-6291925D01*
X32670132Y-5987858D01*
X32437697Y-5755016D01*
X32133849Y-5628848D01*
X31804848Y-5628561D01*
X31500781Y-5754199D01*
X31267939Y-5986634D01*
X31141771Y-6290482D01*
X31141484Y-6619483D01*
X29749984Y-6619483D01*
X29750270Y-6291925D01*
X29624632Y-5987858D01*
X29392197Y-5755016D01*
X29088349Y-5628848D01*
X28759348Y-5628561D01*
X28455281Y-5754199D01*
X28222439Y-5986634D01*
X28096271Y-6290482D01*
X28095984Y-6619483D01*
X26704484Y-6619483D01*
X26704770Y-6291925D01*
X26579132Y-5987858D01*
X26346697Y-5755016D01*
X26042849Y-5628848D01*
X25713848Y-5628561D01*
X25409781Y-5754199D01*
X25176939Y-5986634D01*
X25050771Y-6290482D01*
X25050484Y-6619483D01*
X23658984Y-6619483D01*
X23659270Y-6291925D01*
X23533632Y-5987858D01*
X23301197Y-5755016D01*
X22997349Y-5628848D01*
X22668348Y-5628561D01*
X22364281Y-5754199D01*
X22131439Y-5986634D01*
X22005271Y-6290482D01*
X22004984Y-6619483D01*
X20613484Y-6619483D01*
X20613770Y-6291925D01*
X20488132Y-5987858D01*
X20255697Y-5755016D01*
X19951849Y-5628848D01*
X19622848Y-5628561D01*
X19318781Y-5754199D01*
X19085939Y-5986634D01*
X18959771Y-6290482D01*
X18959484Y-6619483D01*
X17567984Y-6619483D01*
X17568270Y-6291925D01*
X17442632Y-5987858D01*
X17210197Y-5755016D01*
X16906349Y-5628848D01*
X16577348Y-5628561D01*
X16273281Y-5754199D01*
X16040439Y-5986634D01*
X15914271Y-6290482D01*
X15913984Y-6619483D01*
X14522484Y-6619483D01*
X14522770Y-6291925D01*
X14397132Y-5987858D01*
X14164697Y-5755016D01*
X13860849Y-5628848D01*
X13531848Y-5628561D01*
X13227781Y-5754199D01*
X12994939Y-5986634D01*
X12868771Y-6290482D01*
X12868484Y-6619483D01*
X11476984Y-6619483D01*
X11477270Y-6291925D01*
X11351632Y-5987858D01*
X11119197Y-5755016D01*
X10815349Y-5628848D01*
X10486348Y-5628561D01*
X10182281Y-5754199D01*
X9949439Y-5986634D01*
X9823271Y-6290482D01*
X9822984Y-6619483D01*
X151627Y-6619483D01*
X151627Y-4800704D01*
X2422627Y-4800704D01*
X2539624Y-5388888D01*
X2872804Y-5887527D01*
X3371443Y-6220707D01*
X3959627Y-6337704D01*
X4547811Y-6220707D01*
X5046450Y-5887527D01*
X5252278Y-5579483D01*
X11342984Y-5579483D01*
X11468622Y-5883550D01*
X11701057Y-6116392D01*
X12004905Y-6242560D01*
X12333906Y-6242847D01*
X12637973Y-6117209D01*
X12870815Y-5884774D01*
X12996983Y-5580926D01*
X12996984Y-5579483D01*
X14388484Y-5579483D01*
X14514122Y-5883550D01*
X14746557Y-6116392D01*
X15050405Y-6242560D01*
X15379406Y-6242847D01*
X15683473Y-6117209D01*
X15916315Y-5884774D01*
X16042483Y-5580926D01*
X16042484Y-5579483D01*
X17433984Y-5579483D01*
X17559622Y-5883550D01*
X17792057Y-6116392D01*
X18095905Y-6242560D01*
X18424906Y-6242847D01*
X18728973Y-6117209D01*
X18961815Y-5884774D01*
X19087983Y-5580926D01*
X19087984Y-5579483D01*
X20479484Y-5579483D01*
X20605122Y-5883550D01*
X20837557Y-6116392D01*
X21141405Y-6242560D01*
X21470406Y-6242847D01*
X21774473Y-6117209D01*
X22007315Y-5884774D01*
X22133483Y-5580926D01*
X22133484Y-5579483D01*
X23524984Y-5579483D01*
X23650622Y-5883550D01*
X23883057Y-6116392D01*
X24186905Y-6242560D01*
X24515906Y-6242847D01*
X24819973Y-6117209D01*
X25052815Y-5884774D01*
X25178983Y-5580926D01*
X25178984Y-5579483D01*
X26570484Y-5579483D01*
X26696122Y-5883550D01*
X26928557Y-6116392D01*
X27232405Y-6242560D01*
X27561406Y-6242847D01*
X27865473Y-6117209D01*
X28098315Y-5884774D01*
X28224483Y-5580926D01*
X28224484Y-5579483D01*
X29615984Y-5579483D01*
X29741622Y-5883550D01*
X29974057Y-6116392D01*
X30277905Y-6242560D01*
X30606906Y-6242847D01*
X30910973Y-6117209D01*
X31143815Y-5884774D01*
X31269983Y-5580926D01*
X31269984Y-5579483D01*
X32661484Y-5579483D01*
X32787122Y-5883550D01*
X33019557Y-6116392D01*
X33323405Y-6242560D01*
X33652406Y-6242847D01*
X33956473Y-6117209D01*
X34189315Y-5884774D01*
X34315483Y-5580926D01*
X34315484Y-5579483D01*
X35706984Y-5579483D01*
X35832622Y-5883550D01*
X36065057Y-6116392D01*
X36368905Y-6242560D01*
X36697906Y-6242847D01*
X37001973Y-6117209D01*
X37234815Y-5884774D01*
X37360983Y-5580926D01*
X37360984Y-5579483D01*
X38752484Y-5579483D01*
X38878122Y-5883550D01*
X39110557Y-6116392D01*
X39414405Y-6242560D01*
X39743406Y-6242847D01*
X40047473Y-6117209D01*
X40280315Y-5884774D01*
X40406483Y-5580926D01*
X40406484Y-5579483D01*
X41797984Y-5579483D01*
X41923622Y-5883550D01*
X42156057Y-6116392D01*
X42459905Y-6242560D01*
X42788906Y-6242847D01*
X43092973Y-6117209D01*
X43325815Y-5884774D01*
X43451983Y-5580926D01*
X43451984Y-5579483D01*
X44843484Y-5579483D01*
X44969122Y-5883550D01*
X45201557Y-6116392D01*
X45505405Y-6242560D01*
X45834406Y-6242847D01*
X46138473Y-6117209D01*
X46371315Y-5884774D01*
X46497483Y-5580926D01*
X46497484Y-5579483D01*
X47888984Y-5579483D01*
X48014622Y-5883550D01*
X48247057Y-6116392D01*
X48550905Y-6242560D01*
X48879906Y-6242847D01*
X49183973Y-6117209D01*
X49416815Y-5884774D01*
X49542983Y-5580926D01*
X49542984Y-5579483D01*
X50934484Y-5579483D01*
X51060122Y-5883550D01*
X51292557Y-6116392D01*
X51596405Y-6242560D01*
X51925406Y-6242847D01*
X52229473Y-6117209D01*
X52462315Y-5884774D01*
X52588483Y-5580926D01*
X52588484Y-5579483D01*
X53979984Y-5579483D01*
X54105622Y-5883550D01*
X54338057Y-6116392D01*
X54641905Y-6242560D01*
X54970906Y-6242847D01*
X55274973Y-6117209D01*
X55507815Y-5884774D01*
X55633983Y-5580926D01*
X55633984Y-5579483D01*
X57025484Y-5579483D01*
X57151122Y-5883550D01*
X57383557Y-6116392D01*
X57687405Y-6242560D01*
X58016406Y-6242847D01*
X58320473Y-6117209D01*
X58553315Y-5884774D01*
X58679483Y-5580926D01*
X58679484Y-5579483D01*
X60070984Y-5579483D01*
X60196622Y-5883550D01*
X60429057Y-6116392D01*
X60732905Y-6242560D01*
X61061906Y-6242847D01*
X61365973Y-6117209D01*
X61598815Y-5884774D01*
X61724983Y-5580926D01*
X61724984Y-5579483D01*
X63116484Y-5579483D01*
X63242122Y-5883550D01*
X63474557Y-6116392D01*
X63778405Y-6242560D01*
X64107406Y-6242847D01*
X64411473Y-6117209D01*
X64644315Y-5884774D01*
X64770483Y-5580926D01*
X64770770Y-5251925D01*
X64645132Y-4947858D01*
X64412697Y-4715016D01*
X64108849Y-4588848D01*
X63779848Y-4588561D01*
X63475781Y-4714199D01*
X63242939Y-4946634D01*
X63116771Y-5250482D01*
X63116484Y-5579483D01*
X61724984Y-5579483D01*
X61725270Y-5251925D01*
X61599632Y-4947858D01*
X61367197Y-4715016D01*
X61063349Y-4588848D01*
X60734348Y-4588561D01*
X60430281Y-4714199D01*
X60197439Y-4946634D01*
X60071271Y-5250482D01*
X60070984Y-5579483D01*
X58679484Y-5579483D01*
X58679770Y-5251925D01*
X58554132Y-4947858D01*
X58321697Y-4715016D01*
X58017849Y-4588848D01*
X57688848Y-4588561D01*
X57384781Y-4714199D01*
X57151939Y-4946634D01*
X57025771Y-5250482D01*
X57025484Y-5579483D01*
X55633984Y-5579483D01*
X55634270Y-5251925D01*
X55508632Y-4947858D01*
X55276197Y-4715016D01*
X54972349Y-4588848D01*
X54643348Y-4588561D01*
X54339281Y-4714199D01*
X54106439Y-4946634D01*
X53980271Y-5250482D01*
X53979984Y-5579483D01*
X52588484Y-5579483D01*
X52588770Y-5251925D01*
X52463132Y-4947858D01*
X52230697Y-4715016D01*
X51926849Y-4588848D01*
X51597848Y-4588561D01*
X51293781Y-4714199D01*
X51060939Y-4946634D01*
X50934771Y-5250482D01*
X50934484Y-5579483D01*
X49542984Y-5579483D01*
X49543270Y-5251925D01*
X49417632Y-4947858D01*
X49185197Y-4715016D01*
X48881349Y-4588848D01*
X48552348Y-4588561D01*
X48248281Y-4714199D01*
X48015439Y-4946634D01*
X47889271Y-5250482D01*
X47888984Y-5579483D01*
X46497484Y-5579483D01*
X46497770Y-5251925D01*
X46372132Y-4947858D01*
X46139697Y-4715016D01*
X45835849Y-4588848D01*
X45506848Y-4588561D01*
X45202781Y-4714199D01*
X44969939Y-4946634D01*
X44843771Y-5250482D01*
X44843484Y-5579483D01*
X43451984Y-5579483D01*
X43452270Y-5251925D01*
X43326632Y-4947858D01*
X43094197Y-4715016D01*
X42790349Y-4588848D01*
X42461348Y-4588561D01*
X42157281Y-4714199D01*
X41924439Y-4946634D01*
X41798271Y-5250482D01*
X41797984Y-5579483D01*
X40406484Y-5579483D01*
X40406770Y-5251925D01*
X40281132Y-4947858D01*
X40048697Y-4715016D01*
X39744849Y-4588848D01*
X39415848Y-4588561D01*
X39111781Y-4714199D01*
X38878939Y-4946634D01*
X38752771Y-5250482D01*
X38752484Y-5579483D01*
X37360984Y-5579483D01*
X37361270Y-5251925D01*
X37235632Y-4947858D01*
X37003197Y-4715016D01*
X36699349Y-4588848D01*
X36370348Y-4588561D01*
X36066281Y-4714199D01*
X35833439Y-4946634D01*
X35707271Y-5250482D01*
X35706984Y-5579483D01*
X34315484Y-5579483D01*
X34315770Y-5251925D01*
X34190132Y-4947858D01*
X33957697Y-4715016D01*
X33653849Y-4588848D01*
X33324848Y-4588561D01*
X33020781Y-4714199D01*
X32787939Y-4946634D01*
X32661771Y-5250482D01*
X32661484Y-5579483D01*
X31269984Y-5579483D01*
X31270270Y-5251925D01*
X31144632Y-4947858D01*
X30912197Y-4715016D01*
X30608349Y-4588848D01*
X30279348Y-4588561D01*
X29975281Y-4714199D01*
X29742439Y-4946634D01*
X29616271Y-5250482D01*
X29615984Y-5579483D01*
X28224484Y-5579483D01*
X28224770Y-5251925D01*
X28099132Y-4947858D01*
X27866697Y-4715016D01*
X27562849Y-4588848D01*
X27233848Y-4588561D01*
X26929781Y-4714199D01*
X26696939Y-4946634D01*
X26570771Y-5250482D01*
X26570484Y-5579483D01*
X25178984Y-5579483D01*
X25179270Y-5251925D01*
X25053632Y-4947858D01*
X24821197Y-4715016D01*
X24517349Y-4588848D01*
X24188348Y-4588561D01*
X23884281Y-4714199D01*
X23651439Y-4946634D01*
X23525271Y-5250482D01*
X23524984Y-5579483D01*
X22133484Y-5579483D01*
X22133770Y-5251925D01*
X22008132Y-4947858D01*
X21775697Y-4715016D01*
X21471849Y-4588848D01*
X21142848Y-4588561D01*
X20838781Y-4714199D01*
X20605939Y-4946634D01*
X20479771Y-5250482D01*
X20479484Y-5579483D01*
X19087984Y-5579483D01*
X19088270Y-5251925D01*
X18962632Y-4947858D01*
X18730197Y-4715016D01*
X18426349Y-4588848D01*
X18097348Y-4588561D01*
X17793281Y-4714199D01*
X17560439Y-4946634D01*
X17434271Y-5250482D01*
X17433984Y-5579483D01*
X16042484Y-5579483D01*
X16042770Y-5251925D01*
X15917132Y-4947858D01*
X15684697Y-4715016D01*
X15380849Y-4588848D01*
X15051848Y-4588561D01*
X14747781Y-4714199D01*
X14514939Y-4946634D01*
X14388771Y-5250482D01*
X14388484Y-5579483D01*
X12996984Y-5579483D01*
X12997270Y-5251925D01*
X12871632Y-4947858D01*
X12639197Y-4715016D01*
X12335349Y-4588848D01*
X12006348Y-4588561D01*
X11702281Y-4714199D01*
X11469439Y-4946634D01*
X11343271Y-5250482D01*
X11342984Y-5579483D01*
X5252278Y-5579483D01*
X5379630Y-5388888D01*
X5496627Y-4800704D01*
X5440689Y-4519483D01*
X9822984Y-4519483D01*
X9948622Y-4823550D01*
X10181057Y-5056392D01*
X10484905Y-5182560D01*
X10813906Y-5182847D01*
X11117973Y-5057209D01*
X11350815Y-4824774D01*
X11476983Y-4520926D01*
X11476984Y-4519483D01*
X12868484Y-4519483D01*
X12994122Y-4823550D01*
X13226557Y-5056392D01*
X13530405Y-5182560D01*
X13859406Y-5182847D01*
X14163473Y-5057209D01*
X14396315Y-4824774D01*
X14522483Y-4520926D01*
X14522484Y-4519483D01*
X15913984Y-4519483D01*
X16039622Y-4823550D01*
X16272057Y-5056392D01*
X16575905Y-5182560D01*
X16904906Y-5182847D01*
X17208973Y-5057209D01*
X17441815Y-4824774D01*
X17567983Y-4520926D01*
X17567984Y-4519483D01*
X18959484Y-4519483D01*
X19085122Y-4823550D01*
X19317557Y-5056392D01*
X19621405Y-5182560D01*
X19950406Y-5182847D01*
X20254473Y-5057209D01*
X20487315Y-4824774D01*
X20613483Y-4520926D01*
X20613484Y-4519483D01*
X22004984Y-4519483D01*
X22130622Y-4823550D01*
X22363057Y-5056392D01*
X22666905Y-5182560D01*
X22995906Y-5182847D01*
X23299973Y-5057209D01*
X23532815Y-4824774D01*
X23658983Y-4520926D01*
X23658984Y-4519483D01*
X25050484Y-4519483D01*
X25176122Y-4823550D01*
X25408557Y-5056392D01*
X25712405Y-5182560D01*
X26041406Y-5182847D01*
X26345473Y-5057209D01*
X26578315Y-4824774D01*
X26704483Y-4520926D01*
X26704484Y-4519483D01*
X28095984Y-4519483D01*
X28221622Y-4823550D01*
X28454057Y-5056392D01*
X28757905Y-5182560D01*
X29086906Y-5182847D01*
X29390973Y-5057209D01*
X29623815Y-4824774D01*
X29749983Y-4520926D01*
X29749984Y-4519483D01*
X31141484Y-4519483D01*
X31267122Y-4823550D01*
X31499557Y-5056392D01*
X31803405Y-5182560D01*
X32132406Y-5182847D01*
X32436473Y-5057209D01*
X32669315Y-4824774D01*
X32795483Y-4520926D01*
X32795484Y-4519483D01*
X34186984Y-4519483D01*
X34312622Y-4823550D01*
X34545057Y-5056392D01*
X34848905Y-5182560D01*
X35177906Y-5182847D01*
X35481973Y-5057209D01*
X35714815Y-4824774D01*
X35840983Y-4520926D01*
X35840984Y-4519483D01*
X37232484Y-4519483D01*
X37358122Y-4823550D01*
X37590557Y-5056392D01*
X37894405Y-5182560D01*
X38223406Y-5182847D01*
X38527473Y-5057209D01*
X38760315Y-4824774D01*
X38886483Y-4520926D01*
X38886484Y-4519483D01*
X40277984Y-4519483D01*
X40403622Y-4823550D01*
X40636057Y-5056392D01*
X40939905Y-5182560D01*
X41268906Y-5182847D01*
X41572973Y-5057209D01*
X41805815Y-4824774D01*
X41931983Y-4520926D01*
X41931984Y-4519483D01*
X43323484Y-4519483D01*
X43449122Y-4823550D01*
X43681557Y-5056392D01*
X43985405Y-5182560D01*
X44314406Y-5182847D01*
X44618473Y-5057209D01*
X44851315Y-4824774D01*
X44977483Y-4520926D01*
X44977484Y-4519483D01*
X46368984Y-4519483D01*
X46494622Y-4823550D01*
X46727057Y-5056392D01*
X47030905Y-5182560D01*
X47359906Y-5182847D01*
X47663973Y-5057209D01*
X47896815Y-4824774D01*
X48022983Y-4520926D01*
X48022984Y-4519483D01*
X49414484Y-4519483D01*
X49540122Y-4823550D01*
X49772557Y-5056392D01*
X50076405Y-5182560D01*
X50405406Y-5182847D01*
X50709473Y-5057209D01*
X50942315Y-4824774D01*
X51068483Y-4520926D01*
X51068484Y-4519483D01*
X52459984Y-4519483D01*
X52585622Y-4823550D01*
X52818057Y-5056392D01*
X53121905Y-5182560D01*
X53450906Y-5182847D01*
X53754973Y-5057209D01*
X53987815Y-4824774D01*
X54113983Y-4520926D01*
X54113984Y-4519483D01*
X55505484Y-4519483D01*
X55631122Y-4823550D01*
X55863557Y-5056392D01*
X56167405Y-5182560D01*
X56496406Y-5182847D01*
X56800473Y-5057209D01*
X57033315Y-4824774D01*
X57159483Y-4520926D01*
X57159484Y-4519483D01*
X58550984Y-4519483D01*
X58676622Y-4823550D01*
X58909057Y-5056392D01*
X59212905Y-5182560D01*
X59541906Y-5182847D01*
X59845973Y-5057209D01*
X60078815Y-4824774D01*
X60204983Y-4520926D01*
X60204984Y-4519483D01*
X61596484Y-4519483D01*
X61722122Y-4823550D01*
X61954557Y-5056392D01*
X62258405Y-5182560D01*
X62587406Y-5182847D01*
X62891473Y-5057209D01*
X63124315Y-4824774D01*
X63250483Y-4520926D01*
X63250484Y-4519483D01*
X64641984Y-4519483D01*
X64767622Y-4823550D01*
X65000057Y-5056392D01*
X65303905Y-5182560D01*
X65632906Y-5182847D01*
X65936973Y-5057209D01*
X66169815Y-4824774D01*
X66179809Y-4800704D01*
X70422627Y-4800704D01*
X70539624Y-5388888D01*
X70872804Y-5887527D01*
X71371443Y-6220707D01*
X71959627Y-6337704D01*
X72547811Y-6220707D01*
X73046450Y-5887527D01*
X73379630Y-5388888D01*
X73496627Y-4800704D01*
X73379630Y-4212520D01*
X73046450Y-3713881D01*
X72547811Y-3380701D01*
X71959627Y-3263704D01*
X71371443Y-3380701D01*
X70872804Y-3713881D01*
X70539624Y-4212520D01*
X70422627Y-4800704D01*
X66179809Y-4800704D01*
X66295983Y-4520926D01*
X66296270Y-4191925D01*
X66170632Y-3887858D01*
X65938197Y-3655016D01*
X65634349Y-3528848D01*
X65305348Y-3528561D01*
X65001281Y-3654199D01*
X64768439Y-3886634D01*
X64642271Y-4190482D01*
X64641984Y-4519483D01*
X63250484Y-4519483D01*
X63250770Y-4191925D01*
X63125132Y-3887858D01*
X62892697Y-3655016D01*
X62588849Y-3528848D01*
X62259848Y-3528561D01*
X61955781Y-3654199D01*
X61722939Y-3886634D01*
X61596771Y-4190482D01*
X61596484Y-4519483D01*
X60204984Y-4519483D01*
X60205270Y-4191925D01*
X60079632Y-3887858D01*
X59847197Y-3655016D01*
X59543349Y-3528848D01*
X59214348Y-3528561D01*
X58910281Y-3654199D01*
X58677439Y-3886634D01*
X58551271Y-4190482D01*
X58550984Y-4519483D01*
X57159484Y-4519483D01*
X57159770Y-4191925D01*
X57034132Y-3887858D01*
X56801697Y-3655016D01*
X56497849Y-3528848D01*
X56168848Y-3528561D01*
X55864781Y-3654199D01*
X55631939Y-3886634D01*
X55505771Y-4190482D01*
X55505484Y-4519483D01*
X54113984Y-4519483D01*
X54114270Y-4191925D01*
X53988632Y-3887858D01*
X53756197Y-3655016D01*
X53452349Y-3528848D01*
X53123348Y-3528561D01*
X52819281Y-3654199D01*
X52586439Y-3886634D01*
X52460271Y-4190482D01*
X52459984Y-4519483D01*
X51068484Y-4519483D01*
X51068770Y-4191925D01*
X50943132Y-3887858D01*
X50710697Y-3655016D01*
X50406849Y-3528848D01*
X50077848Y-3528561D01*
X49773781Y-3654199D01*
X49540939Y-3886634D01*
X49414771Y-4190482D01*
X49414484Y-4519483D01*
X48022984Y-4519483D01*
X48023270Y-4191925D01*
X47897632Y-3887858D01*
X47665197Y-3655016D01*
X47361349Y-3528848D01*
X47032348Y-3528561D01*
X46728281Y-3654199D01*
X46495439Y-3886634D01*
X46369271Y-4190482D01*
X46368984Y-4519483D01*
X44977484Y-4519483D01*
X44977770Y-4191925D01*
X44852132Y-3887858D01*
X44619697Y-3655016D01*
X44315849Y-3528848D01*
X43986848Y-3528561D01*
X43682781Y-3654199D01*
X43449939Y-3886634D01*
X43323771Y-4190482D01*
X43323484Y-4519483D01*
X41931984Y-4519483D01*
X41932270Y-4191925D01*
X41806632Y-3887858D01*
X41574197Y-3655016D01*
X41270349Y-3528848D01*
X40941348Y-3528561D01*
X40637281Y-3654199D01*
X40404439Y-3886634D01*
X40278271Y-4190482D01*
X40277984Y-4519483D01*
X38886484Y-4519483D01*
X38886770Y-4191925D01*
X38761132Y-3887858D01*
X38528697Y-3655016D01*
X38224849Y-3528848D01*
X37895848Y-3528561D01*
X37591781Y-3654199D01*
X37358939Y-3886634D01*
X37232771Y-4190482D01*
X37232484Y-4519483D01*
X35840984Y-4519483D01*
X35841270Y-4191925D01*
X35715632Y-3887858D01*
X35483197Y-3655016D01*
X35179349Y-3528848D01*
X34850348Y-3528561D01*
X34546281Y-3654199D01*
X34313439Y-3886634D01*
X34187271Y-4190482D01*
X34186984Y-4519483D01*
X32795484Y-4519483D01*
X32795770Y-4191925D01*
X32670132Y-3887858D01*
X32437697Y-3655016D01*
X32133849Y-3528848D01*
X31804848Y-3528561D01*
X31500781Y-3654199D01*
X31267939Y-3886634D01*
X31141771Y-4190482D01*
X31141484Y-4519483D01*
X29749984Y-4519483D01*
X29750270Y-4191925D01*
X29624632Y-3887858D01*
X29392197Y-3655016D01*
X29088349Y-3528848D01*
X28759348Y-3528561D01*
X28455281Y-3654199D01*
X28222439Y-3886634D01*
X28096271Y-4190482D01*
X28095984Y-4519483D01*
X26704484Y-4519483D01*
X26704770Y-4191925D01*
X26579132Y-3887858D01*
X26346697Y-3655016D01*
X26042849Y-3528848D01*
X25713848Y-3528561D01*
X25409781Y-3654199D01*
X25176939Y-3886634D01*
X25050771Y-4190482D01*
X25050484Y-4519483D01*
X23658984Y-4519483D01*
X23659270Y-4191925D01*
X23533632Y-3887858D01*
X23301197Y-3655016D01*
X22997349Y-3528848D01*
X22668348Y-3528561D01*
X22364281Y-3654199D01*
X22131439Y-3886634D01*
X22005271Y-4190482D01*
X22004984Y-4519483D01*
X20613484Y-4519483D01*
X20613770Y-4191925D01*
X20488132Y-3887858D01*
X20255697Y-3655016D01*
X19951849Y-3528848D01*
X19622848Y-3528561D01*
X19318781Y-3654199D01*
X19085939Y-3886634D01*
X18959771Y-4190482D01*
X18959484Y-4519483D01*
X17567984Y-4519483D01*
X17568270Y-4191925D01*
X17442632Y-3887858D01*
X17210197Y-3655016D01*
X16906349Y-3528848D01*
X16577348Y-3528561D01*
X16273281Y-3654199D01*
X16040439Y-3886634D01*
X15914271Y-4190482D01*
X15913984Y-4519483D01*
X14522484Y-4519483D01*
X14522770Y-4191925D01*
X14397132Y-3887858D01*
X14164697Y-3655016D01*
X13860849Y-3528848D01*
X13531848Y-3528561D01*
X13227781Y-3654199D01*
X12994939Y-3886634D01*
X12868771Y-4190482D01*
X12868484Y-4519483D01*
X11476984Y-4519483D01*
X11477270Y-4191925D01*
X11351632Y-3887858D01*
X11119197Y-3655016D01*
X10815349Y-3528848D01*
X10486348Y-3528561D01*
X10182281Y-3654199D01*
X9949439Y-3886634D01*
X9823271Y-4190482D01*
X9822984Y-4519483D01*
X5440689Y-4519483D01*
X5379630Y-4212520D01*
X5046450Y-3713881D01*
X4547811Y-3380701D01*
X3959627Y-3263704D01*
X3371443Y-3380701D01*
X2872804Y-3713881D01*
X2539624Y-4212520D01*
X2422627Y-4800704D01*
X151627Y-4800704D01*
X151627Y-2829200D01*
X295919Y-2103793D01*
X699184Y-1500262D01*
X1302712Y-1096997D01*
X2028121Y-952704D01*
X73991132Y-952704D01*
X74716539Y-1096996D01*
X74716539Y-1096996D01*
G37*
X74716539Y-1096996D02*
X75320070Y-1500261D01*
X75723335Y-2103792D01*
X75867627Y-2829199D01*
X75867627Y-10522209D01*
X75852739Y-10597056D01*
X75817988Y-10649064D01*
X75765979Y-10683816D01*
X75691132Y-10698704D01*
X75014626Y-10698704D01*
X74962198Y-10709133D01*
X74917752Y-10738830D01*
X74888055Y-10783276D01*
X74877626Y-10835704D01*
X74877627Y-25675704D01*
X74888056Y-25728132D01*
X74917753Y-25772578D01*
X74962199Y-25802275D01*
X75014627Y-25812704D01*
X75691132Y-25812704D01*
X75765979Y-25827592D01*
X75817988Y-25862344D01*
X75852739Y-25914352D01*
X75867627Y-25989199D01*
X75867627Y-33302209D01*
X75686035Y-34215133D01*
X75176553Y-34977627D01*
X74414056Y-35487112D01*
X73501122Y-35668706D01*
X2028113Y-35678702D01*
X1302715Y-35534412D01*
X699184Y-35131147D01*
X295919Y-34527616D01*
X151627Y-33802209D01*
X151627Y-31850704D01*
X2422627Y-31850704D01*
X2539624Y-32438888D01*
X2872804Y-32937527D01*
X3371443Y-33270707D01*
X3959627Y-33387704D01*
X4547811Y-33270707D01*
X5046450Y-32937527D01*
X5379630Y-32438888D01*
X5496627Y-31850704D01*
X5379630Y-31262520D01*
X5046450Y-30763881D01*
X4547811Y-30430701D01*
X3959627Y-30313704D01*
X3371443Y-30430701D01*
X2872804Y-30763881D01*
X2539624Y-31262520D01*
X2422627Y-31850704D01*
X151627Y-31850704D01*
X151627Y-26089199D01*
X166515Y-26014352D01*
X201267Y-25962343D01*
X253275Y-25927592D01*
X328122Y-25912704D01*
X1004627Y-25912704D01*
X1057055Y-25902275D01*
X1101501Y-25872578D01*
X1131198Y-25828132D01*
X1141627Y-25775704D01*
X1141627Y-22243620D01*
X16922854Y-22243620D01*
X16922854Y-28943620D01*
X16926255Y-28960718D01*
X16926255Y-28978151D01*
X16964315Y-29169493D01*
X16964315Y-29169494D01*
X16990744Y-29233299D01*
X17099129Y-29395508D01*
X17147964Y-29444343D01*
X17310175Y-29552730D01*
X17310176Y-29552731D01*
X17347552Y-29568212D01*
X17373980Y-29579159D01*
X17373981Y-29579159D01*
X17565324Y-29617219D01*
X17582756Y-29617219D01*
X17599854Y-29620620D01*
X21949854Y-29620620D01*
X21966952Y-29617219D01*
X21984385Y-29617219D01*
X22175727Y-29579159D01*
X22175728Y-29579159D01*
X22239533Y-29552730D01*
X22401744Y-29444343D01*
X22450579Y-29395508D01*
X22558964Y-29233299D01*
X22558965Y-29233298D01*
X22585393Y-29169493D01*
X22623453Y-28978150D01*
X22623453Y-28960718D01*
X22626854Y-28943620D01*
X22626854Y-24243620D01*
X30772854Y-24243620D01*
X30772854Y-27023620D01*
X30776255Y-27040718D01*
X30776255Y-27058151D01*
X30814315Y-27249493D01*
X30814315Y-27249494D01*
X30840744Y-27313299D01*
X30949129Y-27475508D01*
X30997964Y-27524343D01*
X31160175Y-27632730D01*
X31160176Y-27632731D01*
X31197552Y-27648212D01*
X31223980Y-27659159D01*
X31223981Y-27659159D01*
X31415324Y-27697219D01*
X31432756Y-27697219D01*
X31449854Y-27700620D01*
X31772854Y-27700620D01*
X31772854Y-31643620D01*
X31776255Y-31660718D01*
X31776255Y-31678151D01*
X31814315Y-31869493D01*
X31814315Y-31869494D01*
X31840744Y-31933299D01*
X31949129Y-32095508D01*
X31997964Y-32144343D01*
X32160175Y-32252730D01*
X32160176Y-32252731D01*
X32197552Y-32268212D01*
X32223980Y-32279159D01*
X32223981Y-32279159D01*
X32415324Y-32317219D01*
X32432756Y-32317219D01*
X32449854Y-32320620D01*
X43649854Y-32320620D01*
X43666952Y-32317219D01*
X43684385Y-32317219D01*
X43875727Y-32279159D01*
X43875728Y-32279159D01*
X43939533Y-32252730D01*
X44101744Y-32144343D01*
X44150579Y-32095508D01*
X44258964Y-31933299D01*
X44258965Y-31933298D01*
X44274446Y-31895922D01*
X44282820Y-31875704D01*
X70397627Y-31875704D01*
X70514624Y-32463888D01*
X70847804Y-32962527D01*
X71346443Y-33295707D01*
X71934627Y-33412704D01*
X72522811Y-33295707D01*
X73021450Y-32962527D01*
X73354630Y-32463888D01*
X73471627Y-31875704D01*
X73354630Y-31287520D01*
X73021450Y-30788881D01*
X72522811Y-30455701D01*
X71934627Y-30338704D01*
X71346443Y-30455701D01*
X70847804Y-30788881D01*
X70514624Y-31287520D01*
X70397627Y-31875704D01*
X44282820Y-31875704D01*
X44285393Y-31869494D01*
X44285393Y-31869493D01*
X44323453Y-31678150D01*
X44323453Y-31660718D01*
X44326854Y-31643620D01*
X44326854Y-27700620D01*
X44499854Y-27700620D01*
X44516952Y-27697219D01*
X44534385Y-27697219D01*
X44725727Y-27659159D01*
X44725728Y-27659159D01*
X44789533Y-27632730D01*
X44951744Y-27524343D01*
X45000579Y-27475508D01*
X45108964Y-27313299D01*
X45108965Y-27313298D01*
X45135393Y-27249493D01*
X45173453Y-27058150D01*
X45173453Y-27040718D01*
X45176854Y-27023620D01*
X45176854Y-24243620D01*
X45173453Y-24226522D01*
X45173453Y-24209090D01*
X45135393Y-24017747D01*
X45108965Y-23953942D01*
X45108964Y-23953941D01*
X45000577Y-23791730D01*
X44951742Y-23742895D01*
X44789533Y-23634510D01*
X44725728Y-23608081D01*
X44725727Y-23608081D01*
X44534385Y-23570021D01*
X44516952Y-23570021D01*
X44499854Y-23566620D01*
X31449854Y-23566620D01*
X31432756Y-23570021D01*
X31415324Y-23570021D01*
X31223981Y-23608081D01*
X31223980Y-23608081D01*
X31198918Y-23618462D01*
X31160176Y-23634509D01*
X31160175Y-23634510D01*
X30997966Y-23742895D01*
X30949131Y-23791730D01*
X30840744Y-23953941D01*
X30840744Y-23953942D01*
X30814315Y-24017747D01*
X30776255Y-24209089D01*
X30776255Y-24226522D01*
X30772854Y-24243620D01*
X22626854Y-24243620D01*
X22626854Y-22243620D01*
X22623453Y-22226522D01*
X22623453Y-22209090D01*
X22585393Y-22017747D01*
X22558965Y-21953942D01*
X22558964Y-21953941D01*
X22450577Y-21791730D01*
X22401742Y-21742895D01*
X22239533Y-21634510D01*
X22175728Y-21608081D01*
X22175727Y-21608081D01*
X21984385Y-21570021D01*
X21966952Y-21570021D01*
X21949854Y-21566620D01*
X17599854Y-21566620D01*
X17582756Y-21570021D01*
X17565324Y-21570021D01*
X17373981Y-21608081D01*
X17373980Y-21608081D01*
X17348918Y-21618462D01*
X17310176Y-21634509D01*
X17310175Y-21634510D01*
X17147966Y-21742895D01*
X17099131Y-21791730D01*
X16990744Y-21953941D01*
X16990744Y-21953942D01*
X16964315Y-22017747D01*
X16926255Y-22209089D01*
X16926255Y-22226522D01*
X16922854Y-22243620D01*
X1141627Y-22243620D01*
X1141627Y-12818441D01*
X51483802Y-12818441D01*
X51499061Y-12895766D01*
X51499062Y-12895767D01*
X51982645Y-14068255D01*
X51982646Y-14068260D01*
X51988472Y-14077007D01*
X52026335Y-14133860D01*
X52026338Y-14133862D01*
X52921800Y-15032038D01*
X52921802Y-15032041D01*
X52948076Y-15049655D01*
X52987269Y-15075929D01*
X52987274Y-15075930D01*
X54158289Y-15563058D01*
X54158293Y-15563061D01*
X54235571Y-15578554D01*
X55503873Y-15580474D01*
X55581198Y-15565215D01*
X55581200Y-15565213D01*
X56753687Y-15081631D01*
X56753692Y-15081630D01*
X56793068Y-15055406D01*
X56819292Y-15037941D01*
X56819294Y-15037938D01*
X57717473Y-14142473D01*
X57717558Y-14142346D01*
X57717690Y-14142258D01*
X57739606Y-14109459D01*
X57761361Y-14077007D01*
X57761392Y-14076853D01*
X57761478Y-14076724D01*
X57769035Y-14038732D01*
X57776855Y-13999728D01*
X57776824Y-13999572D01*
X57776854Y-13999422D01*
X57776854Y-12818441D01*
X62483802Y-12818441D01*
X62499061Y-12895766D01*
X62499062Y-12895767D01*
X62982645Y-14068255D01*
X62982646Y-14068260D01*
X62988472Y-14077007D01*
X63026335Y-14133860D01*
X63026338Y-14133862D01*
X63921800Y-15032038D01*
X63921802Y-15032041D01*
X63948076Y-15049655D01*
X63987269Y-15075929D01*
X63987274Y-15075930D01*
X65158289Y-15563058D01*
X65158293Y-15563061D01*
X65235571Y-15578554D01*
X66503873Y-15580474D01*
X66581198Y-15565215D01*
X66581200Y-15565213D01*
X67753687Y-15081631D01*
X67753692Y-15081630D01*
X67793068Y-15055406D01*
X67819292Y-15037941D01*
X67819294Y-15037938D01*
X68717473Y-14142473D01*
X68717558Y-14142346D01*
X68717690Y-14142258D01*
X68739606Y-14109459D01*
X68761361Y-14077007D01*
X68761392Y-14076853D01*
X68761478Y-14076724D01*
X68769035Y-14038732D01*
X68776855Y-13999728D01*
X68776824Y-13999572D01*
X68776854Y-13999422D01*
X68776854Y-10379427D01*
X68776855Y-10379422D01*
X68761478Y-10302120D01*
X68717690Y-10236586D01*
X67827690Y-9346586D01*
X67794812Y-9324618D01*
X67762439Y-9302916D01*
X67762157Y-9302799D01*
X67762156Y-9302798D01*
X67762155Y-9302798D01*
X66591416Y-8815784D01*
X66591417Y-8815784D01*
X66591415Y-8815783D01*
X66529630Y-8803396D01*
X66514137Y-8800290D01*
X66514136Y-8800290D01*
X65245835Y-8798370D01*
X65168510Y-8813629D01*
X63996021Y-9297213D01*
X63996016Y-9297214D01*
X63930417Y-9340903D01*
X63032235Y-10236370D01*
X62988347Y-10301837D01*
X62988346Y-10301842D01*
X62501217Y-11472859D01*
X62501215Y-11472861D01*
X62485722Y-11550140D01*
X62483802Y-12818441D01*
X57776854Y-12818441D01*
X57776854Y-10379427D01*
X57776855Y-10379422D01*
X57761478Y-10302120D01*
X57717690Y-10236586D01*
X56827690Y-9346586D01*
X56794812Y-9324618D01*
X56762439Y-9302916D01*
X56762157Y-9302799D01*
X56762156Y-9302798D01*
X56762155Y-9302798D01*
X55591416Y-8815784D01*
X55591417Y-8815784D01*
X55591415Y-8815783D01*
X55529630Y-8803396D01*
X55514137Y-8800290D01*
X55514136Y-8800290D01*
X54245835Y-8798370D01*
X54168510Y-8813629D01*
X52996021Y-9297213D01*
X52996016Y-9297214D01*
X52930417Y-9340903D01*
X52032235Y-10236370D01*
X51988347Y-10301837D01*
X51988346Y-10301842D01*
X51501217Y-11472859D01*
X51501215Y-11472861D01*
X51485722Y-11550140D01*
X51483802Y-12818441D01*
X1141627Y-12818441D01*
X1141627Y-10935704D01*
X1131198Y-10883276D01*
X1101501Y-10838830D01*
X1057055Y-10809133D01*
X1004627Y-10798704D01*
X328122Y-10798704D01*
X253275Y-10783816D01*
X201267Y-10749065D01*
X166515Y-10697056D01*
X151627Y-10622209D01*
X151627Y-6619483D01*
X9822984Y-6619483D01*
X9948622Y-6923550D01*
X10181057Y-7156392D01*
X10484905Y-7282560D01*
X10813906Y-7282847D01*
X11117973Y-7157209D01*
X11350815Y-6924774D01*
X11476983Y-6620926D01*
X11476984Y-6619483D01*
X12868484Y-6619483D01*
X12994122Y-6923550D01*
X13226557Y-7156392D01*
X13530405Y-7282560D01*
X13859406Y-7282847D01*
X14163473Y-7157209D01*
X14396315Y-6924774D01*
X14522483Y-6620926D01*
X14522484Y-6619483D01*
X15913984Y-6619483D01*
X16039622Y-6923550D01*
X16272057Y-7156392D01*
X16575905Y-7282560D01*
X16904906Y-7282847D01*
X17208973Y-7157209D01*
X17441815Y-6924774D01*
X17567983Y-6620926D01*
X17567984Y-6619483D01*
X18959484Y-6619483D01*
X19085122Y-6923550D01*
X19317557Y-7156392D01*
X19621405Y-7282560D01*
X19950406Y-7282847D01*
X20254473Y-7157209D01*
X20487315Y-6924774D01*
X20613483Y-6620926D01*
X20613484Y-6619483D01*
X22004984Y-6619483D01*
X22130622Y-6923550D01*
X22363057Y-7156392D01*
X22666905Y-7282560D01*
X22995906Y-7282847D01*
X23299973Y-7157209D01*
X23532815Y-6924774D01*
X23658983Y-6620926D01*
X23658984Y-6619483D01*
X25050484Y-6619483D01*
X25176122Y-6923550D01*
X25408557Y-7156392D01*
X25712405Y-7282560D01*
X26041406Y-7282847D01*
X26345473Y-7157209D01*
X26578315Y-6924774D01*
X26704483Y-6620926D01*
X26704484Y-6619483D01*
X28095984Y-6619483D01*
X28221622Y-6923550D01*
X28454057Y-7156392D01*
X28757905Y-7282560D01*
X29086906Y-7282847D01*
X29390973Y-7157209D01*
X29623815Y-6924774D01*
X29749983Y-6620926D01*
X29749984Y-6619483D01*
X31141484Y-6619483D01*
X31267122Y-6923550D01*
X31499557Y-7156392D01*
X31803405Y-7282560D01*
X32132406Y-7282847D01*
X32436473Y-7157209D01*
X32669315Y-6924774D01*
X32795483Y-6620926D01*
X32795484Y-6619483D01*
X34186984Y-6619483D01*
X34312622Y-6923550D01*
X34545057Y-7156392D01*
X34848905Y-7282560D01*
X35177906Y-7282847D01*
X35481973Y-7157209D01*
X35714815Y-6924774D01*
X35840983Y-6620926D01*
X35840984Y-6619483D01*
X37232484Y-6619483D01*
X37358122Y-6923550D01*
X37590557Y-7156392D01*
X37894405Y-7282560D01*
X38223406Y-7282847D01*
X38527473Y-7157209D01*
X38760315Y-6924774D01*
X38886483Y-6620926D01*
X38886484Y-6619483D01*
X40277984Y-6619483D01*
X40403622Y-6923550D01*
X40636057Y-7156392D01*
X40939905Y-7282560D01*
X41268906Y-7282847D01*
X41572973Y-7157209D01*
X41805815Y-6924774D01*
X41931983Y-6620926D01*
X41931984Y-6619483D01*
X43323484Y-6619483D01*
X43449122Y-6923550D01*
X43681557Y-7156392D01*
X43985405Y-7282560D01*
X44314406Y-7282847D01*
X44618473Y-7157209D01*
X44851315Y-6924774D01*
X44977483Y-6620926D01*
X44977484Y-6619483D01*
X46368984Y-6619483D01*
X46494622Y-6923550D01*
X46727057Y-7156392D01*
X47030905Y-7282560D01*
X47359906Y-7282847D01*
X47663973Y-7157209D01*
X47896815Y-6924774D01*
X48022983Y-6620926D01*
X48023270Y-6291925D01*
X47897632Y-5987858D01*
X47665197Y-5755016D01*
X47361349Y-5628848D01*
X47032348Y-5628561D01*
X46728281Y-5754199D01*
X46495439Y-5986634D01*
X46369271Y-6290482D01*
X46368984Y-6619483D01*
X44977484Y-6619483D01*
X44977770Y-6291925D01*
X44852132Y-5987858D01*
X44619697Y-5755016D01*
X44315849Y-5628848D01*
X43986848Y-5628561D01*
X43682781Y-5754199D01*
X43449939Y-5986634D01*
X43323771Y-6290482D01*
X43323484Y-6619483D01*
X41931984Y-6619483D01*
X41932270Y-6291925D01*
X41806632Y-5987858D01*
X41574197Y-5755016D01*
X41270349Y-5628848D01*
X40941348Y-5628561D01*
X40637281Y-5754199D01*
X40404439Y-5986634D01*
X40278271Y-6290482D01*
X40277984Y-6619483D01*
X38886484Y-6619483D01*
X38886770Y-6291925D01*
X38761132Y-5987858D01*
X38528697Y-5755016D01*
X38224849Y-5628848D01*
X37895848Y-5628561D01*
X37591781Y-5754199D01*
X37358939Y-5986634D01*
X37232771Y-6290482D01*
X37232484Y-6619483D01*
X35840984Y-6619483D01*
X35841270Y-6291925D01*
X35715632Y-5987858D01*
X35483197Y-5755016D01*
X35179349Y-5628848D01*
X34850348Y-5628561D01*
X34546281Y-5754199D01*
X34313439Y-5986634D01*
X34187271Y-6290482D01*
X34186984Y-6619483D01*
X32795484Y-6619483D01*
X32795770Y-6291925D01*
X32670132Y-5987858D01*
X32437697Y-5755016D01*
X32133849Y-5628848D01*
X31804848Y-5628561D01*
X31500781Y-5754199D01*
X31267939Y-5986634D01*
X31141771Y-6290482D01*
X31141484Y-6619483D01*
X29749984Y-6619483D01*
X29750270Y-6291925D01*
X29624632Y-5987858D01*
X29392197Y-5755016D01*
X29088349Y-5628848D01*
X28759348Y-5628561D01*
X28455281Y-5754199D01*
X28222439Y-5986634D01*
X28096271Y-6290482D01*
X28095984Y-6619483D01*
X26704484Y-6619483D01*
X26704770Y-6291925D01*
X26579132Y-5987858D01*
X26346697Y-5755016D01*
X26042849Y-5628848D01*
X25713848Y-5628561D01*
X25409781Y-5754199D01*
X25176939Y-5986634D01*
X25050771Y-6290482D01*
X25050484Y-6619483D01*
X23658984Y-6619483D01*
X23659270Y-6291925D01*
X23533632Y-5987858D01*
X23301197Y-5755016D01*
X22997349Y-5628848D01*
X22668348Y-5628561D01*
X22364281Y-5754199D01*
X22131439Y-5986634D01*
X22005271Y-6290482D01*
X22004984Y-6619483D01*
X20613484Y-6619483D01*
X20613770Y-6291925D01*
X20488132Y-5987858D01*
X20255697Y-5755016D01*
X19951849Y-5628848D01*
X19622848Y-5628561D01*
X19318781Y-5754199D01*
X19085939Y-5986634D01*
X18959771Y-6290482D01*
X18959484Y-6619483D01*
X17567984Y-6619483D01*
X17568270Y-6291925D01*
X17442632Y-5987858D01*
X17210197Y-5755016D01*
X16906349Y-5628848D01*
X16577348Y-5628561D01*
X16273281Y-5754199D01*
X16040439Y-5986634D01*
X15914271Y-6290482D01*
X15913984Y-6619483D01*
X14522484Y-6619483D01*
X14522770Y-6291925D01*
X14397132Y-5987858D01*
X14164697Y-5755016D01*
X13860849Y-5628848D01*
X13531848Y-5628561D01*
X13227781Y-5754199D01*
X12994939Y-5986634D01*
X12868771Y-6290482D01*
X12868484Y-6619483D01*
X11476984Y-6619483D01*
X11477270Y-6291925D01*
X11351632Y-5987858D01*
X11119197Y-5755016D01*
X10815349Y-5628848D01*
X10486348Y-5628561D01*
X10182281Y-5754199D01*
X9949439Y-5986634D01*
X9823271Y-6290482D01*
X9822984Y-6619483D01*
X151627Y-6619483D01*
X151627Y-4800704D01*
X2422627Y-4800704D01*
X2539624Y-5388888D01*
X2872804Y-5887527D01*
X3371443Y-6220707D01*
X3959627Y-6337704D01*
X4547811Y-6220707D01*
X5046450Y-5887527D01*
X5252278Y-5579483D01*
X11342984Y-5579483D01*
X11468622Y-5883550D01*
X11701057Y-6116392D01*
X12004905Y-6242560D01*
X12333906Y-6242847D01*
X12637973Y-6117209D01*
X12870815Y-5884774D01*
X12996983Y-5580926D01*
X12996984Y-5579483D01*
X14388484Y-5579483D01*
X14514122Y-5883550D01*
X14746557Y-6116392D01*
X15050405Y-6242560D01*
X15379406Y-6242847D01*
X15683473Y-6117209D01*
X15916315Y-5884774D01*
X16042483Y-5580926D01*
X16042484Y-5579483D01*
X17433984Y-5579483D01*
X17559622Y-5883550D01*
X17792057Y-6116392D01*
X18095905Y-6242560D01*
X18424906Y-6242847D01*
X18728973Y-6117209D01*
X18961815Y-5884774D01*
X19087983Y-5580926D01*
X19087984Y-5579483D01*
X20479484Y-5579483D01*
X20605122Y-5883550D01*
X20837557Y-6116392D01*
X21141405Y-6242560D01*
X21470406Y-6242847D01*
X21774473Y-6117209D01*
X22007315Y-5884774D01*
X22133483Y-5580926D01*
X22133484Y-5579483D01*
X23524984Y-5579483D01*
X23650622Y-5883550D01*
X23883057Y-6116392D01*
X24186905Y-6242560D01*
X24515906Y-6242847D01*
X24819973Y-6117209D01*
X25052815Y-5884774D01*
X25178983Y-5580926D01*
X25178984Y-5579483D01*
X26570484Y-5579483D01*
X26696122Y-5883550D01*
X26928557Y-6116392D01*
X27232405Y-6242560D01*
X27561406Y-6242847D01*
X27865473Y-6117209D01*
X28098315Y-5884774D01*
X28224483Y-5580926D01*
X28224484Y-5579483D01*
X29615984Y-5579483D01*
X29741622Y-5883550D01*
X29974057Y-6116392D01*
X30277905Y-6242560D01*
X30606906Y-6242847D01*
X30910973Y-6117209D01*
X31143815Y-5884774D01*
X31269983Y-5580926D01*
X31269984Y-5579483D01*
X32661484Y-5579483D01*
X32787122Y-5883550D01*
X33019557Y-6116392D01*
X33323405Y-6242560D01*
X33652406Y-6242847D01*
X33956473Y-6117209D01*
X34189315Y-5884774D01*
X34315483Y-5580926D01*
X34315484Y-5579483D01*
X35706984Y-5579483D01*
X35832622Y-5883550D01*
X36065057Y-6116392D01*
X36368905Y-6242560D01*
X36697906Y-6242847D01*
X37001973Y-6117209D01*
X37234815Y-5884774D01*
X37360983Y-5580926D01*
X37360984Y-5579483D01*
X38752484Y-5579483D01*
X38878122Y-5883550D01*
X39110557Y-6116392D01*
X39414405Y-6242560D01*
X39743406Y-6242847D01*
X40047473Y-6117209D01*
X40280315Y-5884774D01*
X40406483Y-5580926D01*
X40406484Y-5579483D01*
X41797984Y-5579483D01*
X41923622Y-5883550D01*
X42156057Y-6116392D01*
X42459905Y-6242560D01*
X42788906Y-6242847D01*
X43092973Y-6117209D01*
X43325815Y-5884774D01*
X43451983Y-5580926D01*
X43451984Y-5579483D01*
X44843484Y-5579483D01*
X44969122Y-5883550D01*
X45201557Y-6116392D01*
X45505405Y-6242560D01*
X45834406Y-6242847D01*
X46138473Y-6117209D01*
X46371315Y-5884774D01*
X46497483Y-5580926D01*
X46497484Y-5579483D01*
X47888984Y-5579483D01*
X48014622Y-5883550D01*
X48247057Y-6116392D01*
X48550905Y-6242560D01*
X48879906Y-6242847D01*
X49183973Y-6117209D01*
X49416815Y-5884774D01*
X49542983Y-5580926D01*
X49542984Y-5579483D01*
X50934484Y-5579483D01*
X51060122Y-5883550D01*
X51292557Y-6116392D01*
X51596405Y-6242560D01*
X51925406Y-6242847D01*
X52229473Y-6117209D01*
X52462315Y-5884774D01*
X52588483Y-5580926D01*
X52588484Y-5579483D01*
X53979984Y-5579483D01*
X54105622Y-5883550D01*
X54338057Y-6116392D01*
X54641905Y-6242560D01*
X54970906Y-6242847D01*
X55274973Y-6117209D01*
X55507815Y-5884774D01*
X55633983Y-5580926D01*
X55633984Y-5579483D01*
X57025484Y-5579483D01*
X57151122Y-5883550D01*
X57383557Y-6116392D01*
X57687405Y-6242560D01*
X58016406Y-6242847D01*
X58320473Y-6117209D01*
X58553315Y-5884774D01*
X58679483Y-5580926D01*
X58679484Y-5579483D01*
X60070984Y-5579483D01*
X60196622Y-5883550D01*
X60429057Y-6116392D01*
X60732905Y-6242560D01*
X61061906Y-6242847D01*
X61365973Y-6117209D01*
X61598815Y-5884774D01*
X61724983Y-5580926D01*
X61724984Y-5579483D01*
X63116484Y-5579483D01*
X63242122Y-5883550D01*
X63474557Y-6116392D01*
X63778405Y-6242560D01*
X64107406Y-6242847D01*
X64411473Y-6117209D01*
X64644315Y-5884774D01*
X64770483Y-5580926D01*
X64770770Y-5251925D01*
X64645132Y-4947858D01*
X64412697Y-4715016D01*
X64108849Y-4588848D01*
X63779848Y-4588561D01*
X63475781Y-4714199D01*
X63242939Y-4946634D01*
X63116771Y-5250482D01*
X63116484Y-5579483D01*
X61724984Y-5579483D01*
X61725270Y-5251925D01*
X61599632Y-4947858D01*
X61367197Y-4715016D01*
X61063349Y-4588848D01*
X60734348Y-4588561D01*
X60430281Y-4714199D01*
X60197439Y-4946634D01*
X60071271Y-5250482D01*
X60070984Y-5579483D01*
X58679484Y-5579483D01*
X58679770Y-5251925D01*
X58554132Y-4947858D01*
X58321697Y-4715016D01*
X58017849Y-4588848D01*
X57688848Y-4588561D01*
X57384781Y-4714199D01*
X57151939Y-4946634D01*
X57025771Y-5250482D01*
X57025484Y-5579483D01*
X55633984Y-5579483D01*
X55634270Y-5251925D01*
X55508632Y-4947858D01*
X55276197Y-4715016D01*
X54972349Y-4588848D01*
X54643348Y-4588561D01*
X54339281Y-4714199D01*
X54106439Y-4946634D01*
X53980271Y-5250482D01*
X53979984Y-5579483D01*
X52588484Y-5579483D01*
X52588770Y-5251925D01*
X52463132Y-4947858D01*
X52230697Y-4715016D01*
X51926849Y-4588848D01*
X51597848Y-4588561D01*
X51293781Y-4714199D01*
X51060939Y-4946634D01*
X50934771Y-5250482D01*
X50934484Y-5579483D01*
X49542984Y-5579483D01*
X49543270Y-5251925D01*
X49417632Y-4947858D01*
X49185197Y-4715016D01*
X48881349Y-4588848D01*
X48552348Y-4588561D01*
X48248281Y-4714199D01*
X48015439Y-4946634D01*
X47889271Y-5250482D01*
X47888984Y-5579483D01*
X46497484Y-5579483D01*
X46497770Y-5251925D01*
X46372132Y-4947858D01*
X46139697Y-4715016D01*
X45835849Y-4588848D01*
X45506848Y-4588561D01*
X45202781Y-4714199D01*
X44969939Y-4946634D01*
X44843771Y-5250482D01*
X44843484Y-5579483D01*
X43451984Y-5579483D01*
X43452270Y-5251925D01*
X43326632Y-4947858D01*
X43094197Y-4715016D01*
X42790349Y-4588848D01*
X42461348Y-4588561D01*
X42157281Y-4714199D01*
X41924439Y-4946634D01*
X41798271Y-5250482D01*
X41797984Y-5579483D01*
X40406484Y-5579483D01*
X40406770Y-5251925D01*
X40281132Y-4947858D01*
X40048697Y-4715016D01*
X39744849Y-4588848D01*
X39415848Y-4588561D01*
X39111781Y-4714199D01*
X38878939Y-4946634D01*
X38752771Y-5250482D01*
X38752484Y-5579483D01*
X37360984Y-5579483D01*
X37361270Y-5251925D01*
X37235632Y-4947858D01*
X37003197Y-4715016D01*
X36699349Y-4588848D01*
X36370348Y-4588561D01*
X36066281Y-4714199D01*
X35833439Y-4946634D01*
X35707271Y-5250482D01*
X35706984Y-5579483D01*
X34315484Y-5579483D01*
X34315770Y-5251925D01*
X34190132Y-4947858D01*
X33957697Y-4715016D01*
X33653849Y-4588848D01*
X33324848Y-4588561D01*
X33020781Y-4714199D01*
X32787939Y-4946634D01*
X32661771Y-5250482D01*
X32661484Y-5579483D01*
X31269984Y-5579483D01*
X31270270Y-5251925D01*
X31144632Y-4947858D01*
X30912197Y-4715016D01*
X30608349Y-4588848D01*
X30279348Y-4588561D01*
X29975281Y-4714199D01*
X29742439Y-4946634D01*
X29616271Y-5250482D01*
X29615984Y-5579483D01*
X28224484Y-5579483D01*
X28224770Y-5251925D01*
X28099132Y-4947858D01*
X27866697Y-4715016D01*
X27562849Y-4588848D01*
X27233848Y-4588561D01*
X26929781Y-4714199D01*
X26696939Y-4946634D01*
X26570771Y-5250482D01*
X26570484Y-5579483D01*
X25178984Y-5579483D01*
X25179270Y-5251925D01*
X25053632Y-4947858D01*
X24821197Y-4715016D01*
X24517349Y-4588848D01*
X24188348Y-4588561D01*
X23884281Y-4714199D01*
X23651439Y-4946634D01*
X23525271Y-5250482D01*
X23524984Y-5579483D01*
X22133484Y-5579483D01*
X22133770Y-5251925D01*
X22008132Y-4947858D01*
X21775697Y-4715016D01*
X21471849Y-4588848D01*
X21142848Y-4588561D01*
X20838781Y-4714199D01*
X20605939Y-4946634D01*
X20479771Y-5250482D01*
X20479484Y-5579483D01*
X19087984Y-5579483D01*
X19088270Y-5251925D01*
X18962632Y-4947858D01*
X18730197Y-4715016D01*
X18426349Y-4588848D01*
X18097348Y-4588561D01*
X17793281Y-4714199D01*
X17560439Y-4946634D01*
X17434271Y-5250482D01*
X17433984Y-5579483D01*
X16042484Y-5579483D01*
X16042770Y-5251925D01*
X15917132Y-4947858D01*
X15684697Y-4715016D01*
X15380849Y-4588848D01*
X15051848Y-4588561D01*
X14747781Y-4714199D01*
X14514939Y-4946634D01*
X14388771Y-5250482D01*
X14388484Y-5579483D01*
X12996984Y-5579483D01*
X12997270Y-5251925D01*
X12871632Y-4947858D01*
X12639197Y-4715016D01*
X12335349Y-4588848D01*
X12006348Y-4588561D01*
X11702281Y-4714199D01*
X11469439Y-4946634D01*
X11343271Y-5250482D01*
X11342984Y-5579483D01*
X5252278Y-5579483D01*
X5379630Y-5388888D01*
X5496627Y-4800704D01*
X5440689Y-4519483D01*
X9822984Y-4519483D01*
X9948622Y-4823550D01*
X10181057Y-5056392D01*
X10484905Y-5182560D01*
X10813906Y-5182847D01*
X11117973Y-5057209D01*
X11350815Y-4824774D01*
X11476983Y-4520926D01*
X11476984Y-4519483D01*
X12868484Y-4519483D01*
X12994122Y-4823550D01*
X13226557Y-5056392D01*
X13530405Y-5182560D01*
X13859406Y-5182847D01*
X14163473Y-5057209D01*
X14396315Y-4824774D01*
X14522483Y-4520926D01*
X14522484Y-4519483D01*
X15913984Y-4519483D01*
X16039622Y-4823550D01*
X16272057Y-5056392D01*
X16575905Y-5182560D01*
X16904906Y-5182847D01*
X17208973Y-5057209D01*
X17441815Y-4824774D01*
X17567983Y-4520926D01*
X17567984Y-4519483D01*
X18959484Y-4519483D01*
X19085122Y-4823550D01*
X19317557Y-5056392D01*
X19621405Y-5182560D01*
X19950406Y-5182847D01*
X20254473Y-5057209D01*
X20487315Y-4824774D01*
X20613483Y-4520926D01*
X20613484Y-4519483D01*
X22004984Y-4519483D01*
X22130622Y-4823550D01*
X22363057Y-5056392D01*
X22666905Y-5182560D01*
X22995906Y-5182847D01*
X23299973Y-5057209D01*
X23532815Y-4824774D01*
X23658983Y-4520926D01*
X23658984Y-4519483D01*
X25050484Y-4519483D01*
X25176122Y-4823550D01*
X25408557Y-5056392D01*
X25712405Y-5182560D01*
X26041406Y-5182847D01*
X26345473Y-5057209D01*
X26578315Y-4824774D01*
X26704483Y-4520926D01*
X26704484Y-4519483D01*
X28095984Y-4519483D01*
X28221622Y-4823550D01*
X28454057Y-5056392D01*
X28757905Y-5182560D01*
X29086906Y-5182847D01*
X29390973Y-5057209D01*
X29623815Y-4824774D01*
X29749983Y-4520926D01*
X29749984Y-4519483D01*
X31141484Y-4519483D01*
X31267122Y-4823550D01*
X31499557Y-5056392D01*
X31803405Y-5182560D01*
X32132406Y-5182847D01*
X32436473Y-5057209D01*
X32669315Y-4824774D01*
X32795483Y-4520926D01*
X32795484Y-4519483D01*
X34186984Y-4519483D01*
X34312622Y-4823550D01*
X34545057Y-5056392D01*
X34848905Y-5182560D01*
X35177906Y-5182847D01*
X35481973Y-5057209D01*
X35714815Y-4824774D01*
X35840983Y-4520926D01*
X35840984Y-4519483D01*
X37232484Y-4519483D01*
X37358122Y-4823550D01*
X37590557Y-5056392D01*
X37894405Y-5182560D01*
X38223406Y-5182847D01*
X38527473Y-5057209D01*
X38760315Y-4824774D01*
X38886483Y-4520926D01*
X38886484Y-4519483D01*
X40277984Y-4519483D01*
X40403622Y-4823550D01*
X40636057Y-5056392D01*
X40939905Y-5182560D01*
X41268906Y-5182847D01*
X41572973Y-5057209D01*
X41805815Y-4824774D01*
X41931983Y-4520926D01*
X41931984Y-4519483D01*
X43323484Y-4519483D01*
X43449122Y-4823550D01*
X43681557Y-5056392D01*
X43985405Y-5182560D01*
X44314406Y-5182847D01*
X44618473Y-5057209D01*
X44851315Y-4824774D01*
X44977483Y-4520926D01*
X44977484Y-4519483D01*
X46368984Y-4519483D01*
X46494622Y-4823550D01*
X46727057Y-5056392D01*
X47030905Y-5182560D01*
X47359906Y-5182847D01*
X47663973Y-5057209D01*
X47896815Y-4824774D01*
X48022983Y-4520926D01*
X48022984Y-4519483D01*
X49414484Y-4519483D01*
X49540122Y-4823550D01*
X49772557Y-5056392D01*
X50076405Y-5182560D01*
X50405406Y-5182847D01*
X50709473Y-5057209D01*
X50942315Y-4824774D01*
X51068483Y-4520926D01*
X51068484Y-4519483D01*
X52459984Y-4519483D01*
X52585622Y-4823550D01*
X52818057Y-5056392D01*
X53121905Y-5182560D01*
X53450906Y-5182847D01*
X53754973Y-5057209D01*
X53987815Y-4824774D01*
X54113983Y-4520926D01*
X54113984Y-4519483D01*
X55505484Y-4519483D01*
X55631122Y-4823550D01*
X55863557Y-5056392D01*
X56167405Y-5182560D01*
X56496406Y-5182847D01*
X56800473Y-5057209D01*
X57033315Y-4824774D01*
X57159483Y-4520926D01*
X57159484Y-4519483D01*
X58550984Y-4519483D01*
X58676622Y-4823550D01*
X58909057Y-5056392D01*
X59212905Y-5182560D01*
X59541906Y-5182847D01*
X59845973Y-5057209D01*
X60078815Y-4824774D01*
X60204983Y-4520926D01*
X60204984Y-4519483D01*
X61596484Y-4519483D01*
X61722122Y-4823550D01*
X61954557Y-5056392D01*
X62258405Y-5182560D01*
X62587406Y-5182847D01*
X62891473Y-5057209D01*
X63124315Y-4824774D01*
X63250483Y-4520926D01*
X63250484Y-4519483D01*
X64641984Y-4519483D01*
X64767622Y-4823550D01*
X65000057Y-5056392D01*
X65303905Y-5182560D01*
X65632906Y-5182847D01*
X65936973Y-5057209D01*
X66169815Y-4824774D01*
X66179809Y-4800704D01*
X70422627Y-4800704D01*
X70539624Y-5388888D01*
X70872804Y-5887527D01*
X71371443Y-6220707D01*
X71959627Y-6337704D01*
X72547811Y-6220707D01*
X73046450Y-5887527D01*
X73379630Y-5388888D01*
X73496627Y-4800704D01*
X73379630Y-4212520D01*
X73046450Y-3713881D01*
X72547811Y-3380701D01*
X71959627Y-3263704D01*
X71371443Y-3380701D01*
X70872804Y-3713881D01*
X70539624Y-4212520D01*
X70422627Y-4800704D01*
X66179809Y-4800704D01*
X66295983Y-4520926D01*
X66296270Y-4191925D01*
X66170632Y-3887858D01*
X65938197Y-3655016D01*
X65634349Y-3528848D01*
X65305348Y-3528561D01*
X65001281Y-3654199D01*
X64768439Y-3886634D01*
X64642271Y-4190482D01*
X64641984Y-4519483D01*
X63250484Y-4519483D01*
X63250770Y-4191925D01*
X63125132Y-3887858D01*
X62892697Y-3655016D01*
X62588849Y-3528848D01*
X62259848Y-3528561D01*
X61955781Y-3654199D01*
X61722939Y-3886634D01*
X61596771Y-4190482D01*
X61596484Y-4519483D01*
X60204984Y-4519483D01*
X60205270Y-4191925D01*
X60079632Y-3887858D01*
X59847197Y-3655016D01*
X59543349Y-3528848D01*
X59214348Y-3528561D01*
X58910281Y-3654199D01*
X58677439Y-3886634D01*
X58551271Y-4190482D01*
X58550984Y-4519483D01*
X57159484Y-4519483D01*
X57159770Y-4191925D01*
X57034132Y-3887858D01*
X56801697Y-3655016D01*
X56497849Y-3528848D01*
X56168848Y-3528561D01*
X55864781Y-3654199D01*
X55631939Y-3886634D01*
X55505771Y-4190482D01*
X55505484Y-4519483D01*
X54113984Y-4519483D01*
X54114270Y-4191925D01*
X53988632Y-3887858D01*
X53756197Y-3655016D01*
X53452349Y-3528848D01*
X53123348Y-3528561D01*
X52819281Y-3654199D01*
X52586439Y-3886634D01*
X52460271Y-4190482D01*
X52459984Y-4519483D01*
X51068484Y-4519483D01*
X51068770Y-4191925D01*
X50943132Y-3887858D01*
X50710697Y-3655016D01*
X50406849Y-3528848D01*
X50077848Y-3528561D01*
X49773781Y-3654199D01*
X49540939Y-3886634D01*
X49414771Y-4190482D01*
X49414484Y-4519483D01*
X48022984Y-4519483D01*
X48023270Y-4191925D01*
X47897632Y-3887858D01*
X47665197Y-3655016D01*
X47361349Y-3528848D01*
X47032348Y-3528561D01*
X46728281Y-3654199D01*
X46495439Y-3886634D01*
X46369271Y-4190482D01*
X46368984Y-4519483D01*
X44977484Y-4519483D01*
X44977770Y-4191925D01*
X44852132Y-3887858D01*
X44619697Y-3655016D01*
X44315849Y-3528848D01*
X43986848Y-3528561D01*
X43682781Y-3654199D01*
X43449939Y-3886634D01*
X43323771Y-4190482D01*
X43323484Y-4519483D01*
X41931984Y-4519483D01*
X41932270Y-4191925D01*
X41806632Y-3887858D01*
X41574197Y-3655016D01*
X41270349Y-3528848D01*
X40941348Y-3528561D01*
X40637281Y-3654199D01*
X40404439Y-3886634D01*
X40278271Y-4190482D01*
X40277984Y-4519483D01*
X38886484Y-4519483D01*
X38886770Y-4191925D01*
X38761132Y-3887858D01*
X38528697Y-3655016D01*
X38224849Y-3528848D01*
X37895848Y-3528561D01*
X37591781Y-3654199D01*
X37358939Y-3886634D01*
X37232771Y-4190482D01*
X37232484Y-4519483D01*
X35840984Y-4519483D01*
X35841270Y-4191925D01*
X35715632Y-3887858D01*
X35483197Y-3655016D01*
X35179349Y-3528848D01*
X34850348Y-3528561D01*
X34546281Y-3654199D01*
X34313439Y-3886634D01*
X34187271Y-4190482D01*
X34186984Y-4519483D01*
X32795484Y-4519483D01*
X32795770Y-4191925D01*
X32670132Y-3887858D01*
X32437697Y-3655016D01*
X32133849Y-3528848D01*
X31804848Y-3528561D01*
X31500781Y-3654199D01*
X31267939Y-3886634D01*
X31141771Y-4190482D01*
X31141484Y-4519483D01*
X29749984Y-4519483D01*
X29750270Y-4191925D01*
X29624632Y-3887858D01*
X29392197Y-3655016D01*
X29088349Y-3528848D01*
X28759348Y-3528561D01*
X28455281Y-3654199D01*
X28222439Y-3886634D01*
X28096271Y-4190482D01*
X28095984Y-4519483D01*
X26704484Y-4519483D01*
X26704770Y-4191925D01*
X26579132Y-3887858D01*
X26346697Y-3655016D01*
X26042849Y-3528848D01*
X25713848Y-3528561D01*
X25409781Y-3654199D01*
X25176939Y-3886634D01*
X25050771Y-4190482D01*
X25050484Y-4519483D01*
X23658984Y-4519483D01*
X23659270Y-4191925D01*
X23533632Y-3887858D01*
X23301197Y-3655016D01*
X22997349Y-3528848D01*
X22668348Y-3528561D01*
X22364281Y-3654199D01*
X22131439Y-3886634D01*
X22005271Y-4190482D01*
X22004984Y-4519483D01*
X20613484Y-4519483D01*
X20613770Y-4191925D01*
X20488132Y-3887858D01*
X20255697Y-3655016D01*
X19951849Y-3528848D01*
X19622848Y-3528561D01*
X19318781Y-3654199D01*
X19085939Y-3886634D01*
X18959771Y-4190482D01*
X18959484Y-4519483D01*
X17567984Y-4519483D01*
X17568270Y-4191925D01*
X17442632Y-3887858D01*
X17210197Y-3655016D01*
X16906349Y-3528848D01*
X16577348Y-3528561D01*
X16273281Y-3654199D01*
X16040439Y-3886634D01*
X15914271Y-4190482D01*
X15913984Y-4519483D01*
X14522484Y-4519483D01*
X14522770Y-4191925D01*
X14397132Y-3887858D01*
X14164697Y-3655016D01*
X13860849Y-3528848D01*
X13531848Y-3528561D01*
X13227781Y-3654199D01*
X12994939Y-3886634D01*
X12868771Y-4190482D01*
X12868484Y-4519483D01*
X11476984Y-4519483D01*
X11477270Y-4191925D01*
X11351632Y-3887858D01*
X11119197Y-3655016D01*
X10815349Y-3528848D01*
X10486348Y-3528561D01*
X10182281Y-3654199D01*
X9949439Y-3886634D01*
X9823271Y-4190482D01*
X9822984Y-4519483D01*
X5440689Y-4519483D01*
X5379630Y-4212520D01*
X5046450Y-3713881D01*
X4547811Y-3380701D01*
X3959627Y-3263704D01*
X3371443Y-3380701D01*
X2872804Y-3713881D01*
X2539624Y-4212520D01*
X2422627Y-4800704D01*
X151627Y-4800704D01*
X151627Y-2829200D01*
X295919Y-2103793D01*
X699184Y-1500262D01*
X1302712Y-1096997D01*
X2028121Y-952704D01*
X73991132Y-952704D01*
X74716539Y-1096996D01*
M02*
