G04 #@! TF.FileFunction,Legend,Bot*
%FSLAX46Y46*%
G04 Gerber Fmt 4.6, Leading zero omitted, Abs format (unit mm)*
G04 Created by KiCad (PCBNEW (2016-10-28 revision 192d4b8)-makepkg) date 11/04/16 19:07:24*
%MOMM*%
%LPD*%
G01*
G04 APERTURE LIST*
%ADD10C,0.150000*%
%ADD11C,0.170000*%
%ADD12C,0.500000*%
%ADD13C,0.300000*%
%ADD14C,0.800000*%
%ADD15C,3.000000*%
%ADD16C,0.700000*%
%ADD17C,1.350000*%
%ADD18C,1.000000*%
G04 APERTURE END LIST*
D10*
D11*
X71069244Y-12233620D02*
X71069244Y-12833620D01*
X71169244Y-12533620D02*
X71469244Y-12233620D01*
X72769244Y-12533620D02*
X71169244Y-12533620D01*
X71169244Y-12533620D02*
X71469244Y-12833620D01*
X49569244Y-12233620D02*
X49569244Y-12833620D01*
X47969244Y-12533620D02*
X48269244Y-12833620D01*
X47969244Y-12533620D02*
X48269244Y-12233620D01*
X49569244Y-12533620D02*
X47969244Y-12533620D01*
D12*
X49569244Y-8933620D02*
X49569244Y-9883010D01*
X71129854Y-8984230D02*
X71129854Y-9933620D01*
X71129854Y-13884230D02*
X71129854Y-15833620D01*
D10*
X23017769Y-31386152D02*
X23217768Y-31386153D01*
X22467769Y-31386153D02*
X22767769Y-31386153D01*
X22017770Y-31386152D02*
X22217769Y-31386152D01*
X22017770Y-31036152D02*
X23217769Y-31036152D01*
D11*
X49707815Y-11676477D02*
X49793529Y-11619334D01*
X49836386Y-11562191D01*
X49879244Y-11447905D01*
X49879244Y-11105048D01*
X49836386Y-10990762D01*
X49793529Y-10933620D01*
X49707815Y-10876477D01*
X49579244Y-10876477D01*
X49493529Y-10933620D01*
X49450672Y-10990762D01*
X49407815Y-11105048D01*
X49407815Y-11447905D01*
X49450672Y-11562191D01*
X49493529Y-11619334D01*
X49579244Y-11676477D01*
X49707815Y-11676477D01*
X48636386Y-10876477D02*
X48636386Y-11676477D01*
X49022101Y-10876477D02*
X49022101Y-11505048D01*
X48979244Y-11619334D01*
X48893529Y-11676477D01*
X48764958Y-11676477D01*
X48679244Y-11619334D01*
X48636386Y-11562191D01*
X48336386Y-10876477D02*
X47993529Y-10876477D01*
X48207815Y-10476477D02*
X48207815Y-11505048D01*
X48164958Y-11619334D01*
X48079244Y-11676477D01*
X47993529Y-11676477D01*
D12*
X49579244Y-13833620D02*
X49579244Y-15833620D01*
D11*
X71836386Y-11776477D02*
X71836386Y-10976477D01*
X71836386Y-10576477D02*
X71879244Y-10633620D01*
X71836386Y-10690762D01*
X71793529Y-10633620D01*
X71836386Y-10576477D01*
X71836386Y-10690762D01*
X71407815Y-10976477D02*
X71407815Y-11776477D01*
X71407815Y-11090762D02*
X71364958Y-11033620D01*
X71279244Y-10976477D01*
X71150672Y-10976477D01*
X71064958Y-11033620D01*
X71022101Y-11147905D01*
X71022101Y-11776477D01*
D12*
X51629244Y-17884230D02*
G75*
G02X49578634Y-15833620I0J2050610D01*
G01*
X71129854Y-15833620D02*
G75*
G02X69029244Y-17883620I-2050610J0D01*
G01*
X57129244Y-17883620D02*
X51679244Y-17883620D01*
D13*
X61541282Y-18576477D02*
X61626996Y-18662191D01*
X61884139Y-18747905D01*
X62055568Y-18747905D01*
X62312711Y-18662191D01*
X62484139Y-18490762D01*
X62569854Y-18319334D01*
X62655568Y-17976477D01*
X62655568Y-17719334D01*
X62569854Y-17376477D01*
X62484139Y-17205048D01*
X62312711Y-17033620D01*
X62055568Y-16947905D01*
X61884139Y-16947905D01*
X61626996Y-17033620D01*
X61541282Y-17119334D01*
X59912711Y-18747905D02*
X60769854Y-18747905D01*
X60769854Y-16947905D01*
X59312711Y-18747905D02*
X59312711Y-16947905D01*
X58284139Y-18747905D02*
X59055568Y-17719334D01*
X58284139Y-16947905D02*
X59312711Y-17976477D01*
D12*
X69029244Y-17883620D02*
X63629244Y-17883620D01*
D10*
X43014139Y-21979334D02*
X43014139Y-22979334D01*
X43014139Y-22026953D02*
X42928425Y-21979334D01*
X42756996Y-21979334D01*
X42671282Y-22026953D01*
X42628425Y-22074572D01*
X42585568Y-22169810D01*
X42585568Y-22455524D01*
X42628425Y-22550762D01*
X42671282Y-22598381D01*
X42756996Y-22646000D01*
X42928425Y-22646000D01*
X43014139Y-22598381D01*
X42071282Y-22646000D02*
X42156996Y-22598381D01*
X42199854Y-22503143D01*
X42199854Y-21646000D01*
X41342711Y-21979334D02*
X41342711Y-22646000D01*
X41728425Y-21979334D02*
X41728425Y-22503143D01*
X41685568Y-22598381D01*
X41599854Y-22646000D01*
X41471282Y-22646000D01*
X41385568Y-22598381D01*
X41342711Y-22550762D01*
X40528425Y-21979334D02*
X40528425Y-22788858D01*
X40571282Y-22884096D01*
X40614139Y-22931715D01*
X40699854Y-22979334D01*
X40828425Y-22979334D01*
X40914139Y-22931715D01*
X40528425Y-22598381D02*
X40614139Y-22646000D01*
X40785568Y-22646000D01*
X40871282Y-22598381D01*
X40914139Y-22550762D01*
X40956996Y-22455524D01*
X40956996Y-22169810D01*
X40914139Y-22074572D01*
X40871282Y-22026953D01*
X40785568Y-21979334D01*
X40614139Y-21979334D01*
X40528425Y-22026953D01*
X38771282Y-21598381D02*
X39542711Y-22884096D01*
X37828425Y-22598381D02*
X37742711Y-22646000D01*
X37571282Y-22646000D01*
X37485568Y-22598381D01*
X37442711Y-22503143D01*
X37442711Y-22455524D01*
X37485568Y-22360286D01*
X37571282Y-22312667D01*
X37699854Y-22312667D01*
X37785568Y-22265048D01*
X37828425Y-22169810D01*
X37828425Y-22122191D01*
X37785568Y-22026953D01*
X37699854Y-21979334D01*
X37571282Y-21979334D01*
X37485568Y-22026953D01*
X36928425Y-22646000D02*
X37014139Y-22598381D01*
X37056996Y-22550762D01*
X37099854Y-22455524D01*
X37099854Y-22169810D01*
X37056996Y-22074572D01*
X37014139Y-22026953D01*
X36928425Y-21979334D01*
X36799854Y-21979334D01*
X36714139Y-22026953D01*
X36671282Y-22074572D01*
X36628425Y-22169810D01*
X36628425Y-22455524D01*
X36671282Y-22550762D01*
X36714139Y-22598381D01*
X36799854Y-22646000D01*
X36928425Y-22646000D01*
X35856996Y-22598381D02*
X35942711Y-22646000D01*
X36114139Y-22646000D01*
X36199854Y-22598381D01*
X36242711Y-22550762D01*
X36285568Y-22455524D01*
X36285568Y-22169810D01*
X36242711Y-22074572D01*
X36199854Y-22026953D01*
X36114139Y-21979334D01*
X35942711Y-21979334D01*
X35856996Y-22026953D01*
X35471282Y-22646000D02*
X35471282Y-21646000D01*
X35385568Y-22265048D02*
X35128425Y-22646000D01*
X35128425Y-21979334D02*
X35471282Y-22360286D01*
X34399854Y-22598381D02*
X34485568Y-22646000D01*
X34656996Y-22646000D01*
X34742711Y-22598381D01*
X34785568Y-22503143D01*
X34785568Y-22122191D01*
X34742711Y-22026953D01*
X34656996Y-21979334D01*
X34485568Y-21979334D01*
X34399854Y-22026953D01*
X34356996Y-22122191D01*
X34356996Y-22217429D01*
X34785568Y-22312667D01*
X34099854Y-21979334D02*
X33756996Y-21979334D01*
X33971282Y-21646000D02*
X33971282Y-22503143D01*
X33928425Y-22598381D01*
X33842711Y-22646000D01*
X33756996Y-22646000D01*
X20789198Y-30588532D02*
X20960627Y-30588532D01*
X21046341Y-30636152D01*
X21089198Y-30683771D01*
X21174912Y-30826628D01*
X21217770Y-31017104D01*
X21217770Y-31398056D01*
X21174912Y-31493294D01*
X21132055Y-31540913D01*
X21046341Y-31588532D01*
X20874912Y-31588532D01*
X20789198Y-31540913D01*
X20746341Y-31493294D01*
X20703484Y-31398056D01*
X20703484Y-31159961D01*
X20746341Y-31064723D01*
X20789198Y-31017104D01*
X20874912Y-30969485D01*
X21046341Y-30969485D01*
X21132055Y-31017104D01*
X21174912Y-31064723D01*
X21217770Y-31159961D01*
X20317770Y-31207580D02*
X19632055Y-31207580D01*
X18732055Y-31588532D02*
X19246341Y-31588532D01*
X18989198Y-31588532D02*
X18989198Y-30588532D01*
X19074912Y-30731390D01*
X19160627Y-30826628D01*
X19246341Y-30874247D01*
X18389198Y-30683771D02*
X18346341Y-30636152D01*
X18260627Y-30588532D01*
X18046341Y-30588532D01*
X17960627Y-30636152D01*
X17917770Y-30683771D01*
X17874912Y-30779009D01*
X17874912Y-30874247D01*
X17917770Y-31017104D01*
X18432055Y-31588532D01*
X17874912Y-31588532D01*
X16932055Y-30588532D02*
X16632055Y-31588532D01*
X16332055Y-30588532D01*
D12*
X34050000Y-20000000D02*
X31850000Y-20000000D01*
X44149244Y-19983010D02*
X42399244Y-19983010D01*
X46200464Y-31443620D02*
G75*
G02X44099854Y-33493620I-2050610J0D01*
G01*
X31809955Y-33493620D02*
G75*
G02X29759854Y-31393010I-101J2050610D01*
G01*
X31800000Y-33500000D02*
X44100000Y-33500000D01*
X29749854Y-31493620D02*
X29749854Y-22093620D01*
X29749854Y-22093620D02*
G75*
G02X31850000Y-20000000I2050146J43620D01*
G01*
X44149244Y-19983010D02*
G75*
G02X46199244Y-22083620I0J-2050610D01*
G01*
X46199854Y-31463620D02*
X46199244Y-22083620D01*
X13949854Y-31493620D02*
X13949854Y-22093620D01*
X13949854Y-22103620D02*
G75*
G02X16050464Y-20053620I2050610J0D01*
G01*
X16009955Y-33553620D02*
G75*
G02X13959854Y-31453010I-101J2050610D01*
G01*
X16014627Y-33553704D02*
X23429854Y-33553704D01*
X25520464Y-31503620D02*
G75*
G02X23419854Y-33553620I-2050610J0D01*
G01*
X25519854Y-31463620D02*
X25519244Y-22133620D01*
X23469244Y-20033010D02*
G75*
G02X25519244Y-22133620I0J-2050610D01*
G01*
D13*
X22249854Y-20889989D02*
X22249854Y-19089989D01*
X21564139Y-19089989D01*
X21392711Y-19175704D01*
X21306996Y-19261418D01*
X21221282Y-19432846D01*
X21221282Y-19689989D01*
X21306996Y-19861418D01*
X21392711Y-19947132D01*
X21564139Y-20032846D01*
X22249854Y-20032846D01*
X20621282Y-19089989D02*
X20192711Y-20889989D01*
X19849854Y-19604275D01*
X19506996Y-20889989D01*
X19078425Y-19089989D01*
X17364139Y-20889989D02*
X17964139Y-20032846D01*
X18392711Y-20889989D02*
X18392711Y-19089989D01*
X17706996Y-19089989D01*
X17535568Y-19175704D01*
X17449854Y-19261418D01*
X17364139Y-19432846D01*
X17364139Y-19689989D01*
X17449854Y-19861418D01*
X17535568Y-19947132D01*
X17706996Y-20032846D01*
X18392711Y-20032846D01*
X40421282Y-19089989D02*
X40421282Y-20547132D01*
X40335568Y-20718561D01*
X40249854Y-20804275D01*
X40078425Y-20889989D01*
X39735568Y-20889989D01*
X39564139Y-20804275D01*
X39478425Y-20718561D01*
X39392711Y-20547132D01*
X39392711Y-19089989D01*
X38621282Y-20804275D02*
X38364139Y-20889989D01*
X37935568Y-20889989D01*
X37764139Y-20804275D01*
X37678425Y-20718561D01*
X37592711Y-20547132D01*
X37592711Y-20375704D01*
X37678425Y-20204275D01*
X37764139Y-20118561D01*
X37935568Y-20032846D01*
X38278425Y-19947132D01*
X38449854Y-19861418D01*
X38535568Y-19775704D01*
X38621282Y-19604275D01*
X38621282Y-19432846D01*
X38535568Y-19261418D01*
X38449854Y-19175704D01*
X38278425Y-19089989D01*
X37849854Y-19089989D01*
X37592711Y-19175704D01*
X36221282Y-19947132D02*
X35964139Y-20032846D01*
X35878425Y-20118561D01*
X35792711Y-20289989D01*
X35792711Y-20547132D01*
X35878425Y-20718561D01*
X35964139Y-20804275D01*
X36135568Y-20889989D01*
X36821282Y-20889989D01*
X36821282Y-19089989D01*
X36221282Y-19089989D01*
X36049854Y-19175704D01*
X35964139Y-19261418D01*
X35878425Y-19432846D01*
X35878425Y-19604275D01*
X35964139Y-19775704D01*
X36049854Y-19861418D01*
X36221282Y-19947132D01*
X36821282Y-19947132D01*
D12*
X49569244Y-8933620D02*
G75*
G02X51669854Y-6883620I2050610J0D01*
G01*
X69079854Y-6883620D02*
X51669854Y-6883620D01*
X69079854Y-6883620D02*
G75*
G02X71129854Y-8984230I0J-2050610D01*
G01*
D10*
X14984627Y-24575704D02*
G75*
G02X15634627Y-23925704I650000J0D01*
G01*
X15634627Y-23925704D02*
G75*
G02X16284627Y-24575704I0J-650000D01*
G01*
X15634627Y-23925704D02*
X15634627Y-23375704D01*
X16284627Y-22725704D02*
G75*
G03X16284627Y-22725704I-650000J0D01*
G01*
X16284627Y-26425704D02*
G75*
G03X16284627Y-26425704I-650000J0D01*
G01*
X15634627Y-25775704D02*
X15634627Y-24875704D01*
D13*
X15734627Y-24575704D02*
G75*
G03X15734627Y-24575704I-100000J0D01*
G01*
X15834627Y-24575704D02*
G75*
G03X15834627Y-24575704I-200000J0D01*
G01*
D10*
X15084627Y-24925704D02*
G75*
G02X15284627Y-24025704I550000J350000D01*
G01*
X15984627Y-24025704D02*
G75*
G02X16184627Y-24925704I-350000J-550000D01*
G01*
X15634627Y-22375704D02*
X15634627Y-23075704D01*
X15634627Y-26075704D02*
X15634627Y-26775704D01*
X15984627Y-26425704D02*
X15284627Y-26425704D01*
%LPC*%
D14*
X73764627Y-4795704D02*
G75*
G03X73764627Y-4795704I-1800000J0D01*
G01*
X73744627Y-31875704D02*
G75*
G03X73744627Y-31875704I-1800000J0D01*
G01*
X5754627Y-31845704D02*
G75*
G03X5754627Y-31845704I-1800000J0D01*
G01*
X5764627Y-4805704D02*
G75*
G03X5764627Y-4805704I-1800000J0D01*
G01*
D15*
X57534854Y-12189422D02*
G75*
G03X57534854Y-12189422I-2660000J0D01*
G01*
D16*
X57804854Y-10349422D02*
X57804854Y-14039422D01*
D17*
X58704854Y-12189422D02*
G75*
G03X58704854Y-12189422I-3830000J0D01*
G01*
X69704854Y-12189422D02*
G75*
G03X69704854Y-12189422I-3830000J0D01*
G01*
D16*
X68804854Y-10349422D02*
X68804854Y-14039422D01*
D15*
X68534854Y-12189422D02*
G75*
G03X68534854Y-12189422I-2660000J0D01*
G01*
D18*
X47196127Y-6455704D03*
X44150627Y-6455704D03*
X41105127Y-6455704D03*
X38059627Y-6455704D03*
X35014127Y-6455704D03*
X31968627Y-6455704D03*
X28923127Y-6455704D03*
X25877627Y-6455704D03*
X22832127Y-6455704D03*
X19786627Y-6455704D03*
X16741127Y-6455704D03*
X13695627Y-6455704D03*
X10650127Y-6455704D03*
X18261127Y-5415704D03*
X21306627Y-5415704D03*
X12170127Y-5415704D03*
X27397627Y-5415704D03*
X15215627Y-5415704D03*
X24352127Y-5415704D03*
X48716127Y-5415704D03*
X33488627Y-5415704D03*
X36534127Y-5415704D03*
X42625127Y-5415704D03*
X45670627Y-5415704D03*
X39579627Y-5415704D03*
X30443127Y-5415704D03*
X63943627Y-5415704D03*
X54807127Y-5415704D03*
X57852627Y-5415704D03*
X60898127Y-5415704D03*
X51761627Y-5415704D03*
X65469127Y-4355704D03*
X62423627Y-4355704D03*
X59378127Y-4355704D03*
X56332627Y-4355704D03*
X53287127Y-4355704D03*
X50241627Y-4355704D03*
X47196127Y-4355704D03*
X44150627Y-4355704D03*
X41105127Y-4355704D03*
X38059627Y-4355704D03*
X35014127Y-4355704D03*
X31968627Y-4355704D03*
X28923127Y-4355704D03*
X25877627Y-4355704D03*
X22832127Y-4355704D03*
X19786627Y-4355704D03*
X16741127Y-4355704D03*
X13695627Y-4355704D03*
X10650127Y-4355704D03*
M02*
