G04 #@! TF.FileFunction,Soldermask,Bot*
%FSLAX46Y46*%
G04 Gerber Fmt 4.6, Leading zero omitted, Abs format (unit mm)*
G04 Created by KiCad (PCBNEW (2016-10-28 revision 192d4b8)-makepkg) date 11/04/16 19:07:24*
%MOMM*%
%LPD*%
G01*
G04 APERTURE LIST*
%ADD10C,0.150000*%
%ADD11C,0.800000*%
%ADD12C,3.000000*%
%ADD13C,0.700000*%
%ADD14C,1.350000*%
%ADD15C,1.000000*%
G04 APERTURE END LIST*
D10*
D11*
X73764627Y-4795704D02*
G75*
G03X73764627Y-4795704I-1800000J0D01*
G01*
X73744627Y-31875704D02*
G75*
G03X73744627Y-31875704I-1800000J0D01*
G01*
X5754627Y-31845704D02*
G75*
G03X5754627Y-31845704I-1800000J0D01*
G01*
X5764627Y-4805704D02*
G75*
G03X5764627Y-4805704I-1800000J0D01*
G01*
D12*
X57534854Y-12189422D02*
G75*
G03X57534854Y-12189422I-2660000J0D01*
G01*
D13*
X57804854Y-10349422D02*
X57804854Y-14039422D01*
D14*
X58704854Y-12189422D02*
G75*
G03X58704854Y-12189422I-3830000J0D01*
G01*
X69704854Y-12189422D02*
G75*
G03X69704854Y-12189422I-3830000J0D01*
G01*
D13*
X68804854Y-10349422D02*
X68804854Y-14039422D01*
D12*
X68534854Y-12189422D02*
G75*
G03X68534854Y-12189422I-2660000J0D01*
G01*
D15*
X47196127Y-6455704D03*
X44150627Y-6455704D03*
X41105127Y-6455704D03*
X38059627Y-6455704D03*
X35014127Y-6455704D03*
X31968627Y-6455704D03*
X28923127Y-6455704D03*
X25877627Y-6455704D03*
X22832127Y-6455704D03*
X19786627Y-6455704D03*
X16741127Y-6455704D03*
X13695627Y-6455704D03*
X10650127Y-6455704D03*
X18261127Y-5415704D03*
X21306627Y-5415704D03*
X12170127Y-5415704D03*
X27397627Y-5415704D03*
X15215627Y-5415704D03*
X24352127Y-5415704D03*
X48716127Y-5415704D03*
X33488627Y-5415704D03*
X36534127Y-5415704D03*
X42625127Y-5415704D03*
X45670627Y-5415704D03*
X39579627Y-5415704D03*
X30443127Y-5415704D03*
X63943627Y-5415704D03*
X54807127Y-5415704D03*
X57852627Y-5415704D03*
X60898127Y-5415704D03*
X51761627Y-5415704D03*
X65469127Y-4355704D03*
X62423627Y-4355704D03*
X59378127Y-4355704D03*
X56332627Y-4355704D03*
X53287127Y-4355704D03*
X50241627Y-4355704D03*
X47196127Y-4355704D03*
X44150627Y-4355704D03*
X41105127Y-4355704D03*
X38059627Y-4355704D03*
X35014127Y-4355704D03*
X31968627Y-4355704D03*
X28923127Y-4355704D03*
X25877627Y-4355704D03*
X22832127Y-4355704D03*
X19786627Y-4355704D03*
X16741127Y-4355704D03*
X13695627Y-4355704D03*
X10650127Y-4355704D03*
M02*
