G04 #@! TF.FileFunction,Copper,L2,Bot,Signal*
%FSLAX46Y46*%
G04 Gerber Fmt 4.6, Leading zero omitted, Abs format (unit mm)*
G04 Created by KiCad (PCBNEW (2016-09-17 revision 679eef1)-makepkg) date 09/24/16 15:34:34*
%MOMM*%
%LPD*%
G01*
G04 APERTURE LIST*
%ADD10C,0.150000*%
%ADD11C,5.200000*%
%ADD12C,0.254000*%
G04 APERTURE END LIST*
D10*
D11*
X9260000Y-3680000D03*
D12*
G36*
X4592648Y-520264D02*
X5278163Y-674095D01*
X5621013Y-873916D01*
X5621579Y-874111D01*
X5622029Y-874502D01*
X5978654Y-1078282D01*
X5999679Y-1085314D01*
X6020179Y-1093755D01*
X6633555Y-1214424D01*
X6646908Y-1214396D01*
X6660000Y-1217000D01*
X9246505Y-1217000D01*
X10201055Y-1406872D01*
X10998840Y-1939934D01*
X11531902Y-2737719D01*
X11719090Y-3678774D01*
X11531902Y-4619829D01*
X10998840Y-5417614D01*
X10201055Y-5950676D01*
X9252668Y-6139322D01*
X6660000Y-6139322D01*
X6651819Y-6140949D01*
X6643501Y-6140319D01*
X6260106Y-6186831D01*
X6239537Y-6193581D01*
X6218524Y-6198755D01*
X5651918Y-6463984D01*
X5650799Y-6464807D01*
X5649458Y-6465166D01*
X5007364Y-6781480D01*
X4598560Y-6840553D01*
X297000Y-6842924D01*
X297000Y-517101D01*
X4592648Y-520264D01*
X4592648Y-520264D01*
G37*
X4592648Y-520264D02*
X5278163Y-674095D01*
X5621013Y-873916D01*
X5621579Y-874111D01*
X5622029Y-874502D01*
X5978654Y-1078282D01*
X5999679Y-1085314D01*
X6020179Y-1093755D01*
X6633555Y-1214424D01*
X6646908Y-1214396D01*
X6660000Y-1217000D01*
X9246505Y-1217000D01*
X10201055Y-1406872D01*
X10998840Y-1939934D01*
X11531902Y-2737719D01*
X11719090Y-3678774D01*
X11531902Y-4619829D01*
X10998840Y-5417614D01*
X10201055Y-5950676D01*
X9252668Y-6139322D01*
X6660000Y-6139322D01*
X6651819Y-6140949D01*
X6643501Y-6140319D01*
X6260106Y-6186831D01*
X6239537Y-6193581D01*
X6218524Y-6198755D01*
X5651918Y-6463984D01*
X5650799Y-6464807D01*
X5649458Y-6465166D01*
X5007364Y-6781480D01*
X4598560Y-6840553D01*
X297000Y-6842924D01*
X297000Y-517101D01*
X4592648Y-520264D01*
M02*
