G04 #@! TF.FileFunction,Copper,L2,Bot,Signal*
%FSLAX46Y46*%
G04 Gerber Fmt 4.6, Leading zero omitted, Abs format (unit mm)*
G04 Created by KiCad (PCBNEW (2016-09-17 revision 679eef1)-makepkg) date 09/24/16 15:46:36*
%MOMM*%
%LPD*%
G01*
G04 APERTURE LIST*
%ADD10C,0.150000*%
%ADD11C,0.254000*%
G04 APERTURE END LIST*
D10*
G36*
X8166762Y-600578D02*
X8178411Y-602306D01*
X8189834Y-605167D01*
X8200922Y-609134D01*
X8211568Y-614169D01*
X8221668Y-620224D01*
X8231127Y-627239D01*
X8239853Y-635147D01*
X8247761Y-643873D01*
X8254776Y-653332D01*
X8260831Y-663432D01*
X8265866Y-674078D01*
X8269833Y-685166D01*
X8272694Y-696589D01*
X8274422Y-708238D01*
X8275000Y-720000D01*
X8275000Y-1680000D01*
X8274422Y-1691762D01*
X8272694Y-1703411D01*
X8269833Y-1714834D01*
X8265866Y-1725922D01*
X8260831Y-1736568D01*
X8254776Y-1746668D01*
X8247761Y-1756127D01*
X8239853Y-1764853D01*
X8231127Y-1772761D01*
X8221668Y-1779776D01*
X8211568Y-1785831D01*
X8200922Y-1790866D01*
X8189834Y-1794833D01*
X8178411Y-1797694D01*
X8166762Y-1799422D01*
X8155000Y-1800000D01*
X6195000Y-1800000D01*
X6183238Y-1799422D01*
X6171589Y-1797694D01*
X6160166Y-1794833D01*
X6149078Y-1790866D01*
X6138432Y-1785831D01*
X6128332Y-1779776D01*
X6118873Y-1772761D01*
X6110147Y-1764853D01*
X6102239Y-1756127D01*
X6095224Y-1746668D01*
X6089169Y-1736568D01*
X6084134Y-1725922D01*
X6080167Y-1714834D01*
X6077306Y-1703411D01*
X6075578Y-1691762D01*
X6075000Y-1680000D01*
X6075000Y-720000D01*
X6075578Y-708238D01*
X6077306Y-696589D01*
X6080167Y-685166D01*
X6084134Y-674078D01*
X6089169Y-663432D01*
X6095224Y-653332D01*
X6102239Y-643873D01*
X6110147Y-635147D01*
X6118873Y-627239D01*
X6128332Y-620224D01*
X6138432Y-614169D01*
X6149078Y-609134D01*
X6160166Y-605167D01*
X6171589Y-602306D01*
X6183238Y-600578D01*
X6195000Y-600000D01*
X8155000Y-600000D01*
X8166762Y-600578D01*
X8166762Y-600578D01*
G37*
D11*
G36*
X13727278Y-394790D02*
X13830943Y-464057D01*
X13900210Y-567722D01*
X13928000Y-707433D01*
X13928000Y-3472567D01*
X13900210Y-3612278D01*
X13830943Y-3715943D01*
X13727278Y-3785210D01*
X13587567Y-3813000D01*
X722433Y-3813000D01*
X582722Y-3785210D01*
X479057Y-3715943D01*
X409790Y-3612278D01*
X382000Y-3472567D01*
X382000Y-707433D01*
X409790Y-567722D01*
X479057Y-464057D01*
X582722Y-394790D01*
X722433Y-367000D01*
X13587567Y-367000D01*
X13727278Y-394790D01*
X13727278Y-394790D01*
G37*
X13727278Y-394790D02*
X13830943Y-464057D01*
X13900210Y-567722D01*
X13928000Y-707433D01*
X13928000Y-3472567D01*
X13900210Y-3612278D01*
X13830943Y-3715943D01*
X13727278Y-3785210D01*
X13587567Y-3813000D01*
X722433Y-3813000D01*
X582722Y-3785210D01*
X479057Y-3715943D01*
X409790Y-3612278D01*
X382000Y-3472567D01*
X382000Y-707433D01*
X409790Y-567722D01*
X479057Y-464057D01*
X582722Y-394790D01*
X722433Y-367000D01*
X13587567Y-367000D01*
X13727278Y-394790D01*
M02*
