G04 #@! TF.FileFunction,Legend,Top*
%FSLAX46Y46*%
G04 Gerber Fmt 4.6, Leading zero omitted, Abs format (unit mm)*
G04 Created by KiCad (PCBNEW (2016-09-17 revision 679eef1)-makepkg) date 09/24/16 15:46:36*
%MOMM*%
%LPD*%
G01*
G04 APERTURE LIST*
%ADD10C,0.150000*%
%ADD11C,0.200000*%
G04 APERTURE END LIST*
D10*
D11*
X3983571Y-2542380D02*
X3983571Y-1542380D01*
X4369285Y-2542380D02*
X4369285Y-2018571D01*
X4326428Y-1923333D01*
X4240714Y-1875714D01*
X4112142Y-1875714D01*
X4026428Y-1923333D01*
X3983571Y-1970952D01*
X4926428Y-2542380D02*
X4840714Y-2494761D01*
X4797857Y-2447142D01*
X4755000Y-2351904D01*
X4755000Y-2066190D01*
X4797857Y-1970952D01*
X4840714Y-1923333D01*
X4926428Y-1875714D01*
X5055000Y-1875714D01*
X5140714Y-1923333D01*
X5183571Y-1970952D01*
X5226428Y-2066190D01*
X5226428Y-2351904D01*
X5183571Y-2447142D01*
X5140714Y-2494761D01*
X5055000Y-2542380D01*
X4926428Y-2542380D01*
X5740714Y-2542380D02*
X5655000Y-2494761D01*
X5612142Y-2399523D01*
X5612142Y-1542380D01*
X6426428Y-2494761D02*
X6340714Y-2542380D01*
X6169285Y-2542380D01*
X6083571Y-2494761D01*
X6040714Y-2399523D01*
X6040714Y-2018571D01*
X6083571Y-1923333D01*
X6169285Y-1875714D01*
X6340714Y-1875714D01*
X6426428Y-1923333D01*
X6469285Y-2018571D01*
X6469285Y-2113809D01*
X6040714Y-2209047D01*
X7540714Y-1875714D02*
X7540714Y-2875714D01*
X7540714Y-1923333D02*
X7626428Y-1875714D01*
X7797857Y-1875714D01*
X7883571Y-1923333D01*
X7926428Y-1970952D01*
X7969285Y-2066190D01*
X7969285Y-2351904D01*
X7926428Y-2447142D01*
X7883571Y-2494761D01*
X7797857Y-2542380D01*
X7626428Y-2542380D01*
X7540714Y-2494761D01*
X8483571Y-2542380D02*
X8397857Y-2494761D01*
X8355000Y-2399523D01*
X8355000Y-1542380D01*
X9212142Y-1875714D02*
X9212142Y-2542380D01*
X8826428Y-1875714D02*
X8826428Y-2399523D01*
X8869285Y-2494761D01*
X8955000Y-2542380D01*
X9083571Y-2542380D01*
X9169285Y-2494761D01*
X9212142Y-2447142D01*
X10026428Y-1875714D02*
X10026428Y-2685238D01*
X9983571Y-2780476D01*
X9940714Y-2828095D01*
X9855000Y-2875714D01*
X9726428Y-2875714D01*
X9640714Y-2828095D01*
X10026428Y-2494761D02*
X9940714Y-2542380D01*
X9769285Y-2542380D01*
X9683571Y-2494761D01*
X9640714Y-2447142D01*
X9597857Y-2351904D01*
X9597857Y-2066190D01*
X9640714Y-1970952D01*
X9683571Y-1923333D01*
X9769285Y-1875714D01*
X9940714Y-1875714D01*
X10026428Y-1923333D01*
%LPC*%
D10*
G36*
X1266762Y-925578D02*
X1278411Y-927306D01*
X1289834Y-930167D01*
X1300922Y-934134D01*
X1311568Y-939169D01*
X1321668Y-945224D01*
X1331127Y-952239D01*
X1339853Y-960147D01*
X1347761Y-968873D01*
X1354776Y-978332D01*
X1360831Y-988432D01*
X1365866Y-999078D01*
X1369833Y-1010166D01*
X1372694Y-1021589D01*
X1374422Y-1033238D01*
X1375000Y-1045000D01*
X1375000Y-3005000D01*
X1374422Y-3016762D01*
X1372694Y-3028411D01*
X1369833Y-3039834D01*
X1365866Y-3050922D01*
X1360831Y-3061568D01*
X1354776Y-3071668D01*
X1347761Y-3081127D01*
X1339853Y-3089853D01*
X1331127Y-3097761D01*
X1321668Y-3104776D01*
X1311568Y-3110831D01*
X1300922Y-3115866D01*
X1289834Y-3119833D01*
X1278411Y-3122694D01*
X1266762Y-3124422D01*
X1255000Y-3125000D01*
X295000Y-3125000D01*
X283238Y-3124422D01*
X271589Y-3122694D01*
X260166Y-3119833D01*
X249078Y-3115866D01*
X238432Y-3110831D01*
X228332Y-3104776D01*
X218873Y-3097761D01*
X210147Y-3089853D01*
X202239Y-3081127D01*
X195224Y-3071668D01*
X189169Y-3061568D01*
X184134Y-3050922D01*
X180167Y-3039834D01*
X177306Y-3028411D01*
X175578Y-3016762D01*
X175000Y-3005000D01*
X175000Y-1045000D01*
X175578Y-1033238D01*
X177306Y-1021589D01*
X180167Y-1010166D01*
X184134Y-999078D01*
X189169Y-988432D01*
X195224Y-978332D01*
X202239Y-968873D01*
X210147Y-960147D01*
X218873Y-952239D01*
X228332Y-945224D01*
X238432Y-939169D01*
X249078Y-934134D01*
X260166Y-930167D01*
X271589Y-927306D01*
X283238Y-925578D01*
X295000Y-925000D01*
X1255000Y-925000D01*
X1266762Y-925578D01*
X1266762Y-925578D01*
G37*
G36*
X14016762Y-925578D02*
X14028411Y-927306D01*
X14039834Y-930167D01*
X14050922Y-934134D01*
X14061568Y-939169D01*
X14071668Y-945224D01*
X14081127Y-952239D01*
X14089853Y-960147D01*
X14097761Y-968873D01*
X14104776Y-978332D01*
X14110831Y-988432D01*
X14115866Y-999078D01*
X14119833Y-1010166D01*
X14122694Y-1021589D01*
X14124422Y-1033238D01*
X14125000Y-1045000D01*
X14125000Y-3005000D01*
X14124422Y-3016762D01*
X14122694Y-3028411D01*
X14119833Y-3039834D01*
X14115866Y-3050922D01*
X14110831Y-3061568D01*
X14104776Y-3071668D01*
X14097761Y-3081127D01*
X14089853Y-3089853D01*
X14081127Y-3097761D01*
X14071668Y-3104776D01*
X14061568Y-3110831D01*
X14050922Y-3115866D01*
X14039834Y-3119833D01*
X14028411Y-3122694D01*
X14016762Y-3124422D01*
X14005000Y-3125000D01*
X13045000Y-3125000D01*
X13033238Y-3124422D01*
X13021589Y-3122694D01*
X13010166Y-3119833D01*
X12999078Y-3115866D01*
X12988432Y-3110831D01*
X12978332Y-3104776D01*
X12968873Y-3097761D01*
X12960147Y-3089853D01*
X12952239Y-3081127D01*
X12945224Y-3071668D01*
X12939169Y-3061568D01*
X12934134Y-3050922D01*
X12930167Y-3039834D01*
X12927306Y-3028411D01*
X12925578Y-3016762D01*
X12925000Y-3005000D01*
X12925000Y-1045000D01*
X12925578Y-1033238D01*
X12927306Y-1021589D01*
X12930167Y-1010166D01*
X12934134Y-999078D01*
X12939169Y-988432D01*
X12945224Y-978332D01*
X12952239Y-968873D01*
X12960147Y-960147D01*
X12968873Y-952239D01*
X12978332Y-945224D01*
X12988432Y-939169D01*
X12999078Y-934134D01*
X13010166Y-930167D01*
X13021589Y-927306D01*
X13033238Y-925578D01*
X13045000Y-925000D01*
X14005000Y-925000D01*
X14016762Y-925578D01*
X14016762Y-925578D01*
G37*
M02*
