G04 #@! TF.FileFunction,Copper,L2,Bot,Signal*
%FSLAX46Y46*%
G04 Gerber Fmt 4.6, Leading zero omitted, Abs format (unit mm)*
G04 Created by KiCad (PCBNEW (2016-09-17 revision 679eef1)-makepkg) date 09/25/16 17:17:21*
%MOMM*%
%LPD*%
G01*
G04 APERTURE LIST*
%ADD10C,0.150000*%
%ADD11C,0.254000*%
G04 APERTURE END LIST*
D10*
G36*
X8066762Y-600578D02*
X8078411Y-602306D01*
X8089834Y-605167D01*
X8100922Y-609134D01*
X8111568Y-614169D01*
X8121668Y-620224D01*
X8131127Y-627239D01*
X8139853Y-635147D01*
X8147761Y-643873D01*
X8154776Y-653332D01*
X8160831Y-663432D01*
X8165866Y-674078D01*
X8169833Y-685166D01*
X8172694Y-696589D01*
X8174422Y-708238D01*
X8175000Y-720000D01*
X8175000Y-1680000D01*
X8174422Y-1691762D01*
X8172694Y-1703411D01*
X8169833Y-1714834D01*
X8165866Y-1725922D01*
X8160831Y-1736568D01*
X8154776Y-1746668D01*
X8147761Y-1756127D01*
X8139853Y-1764853D01*
X8131127Y-1772761D01*
X8121668Y-1779776D01*
X8111568Y-1785831D01*
X8100922Y-1790866D01*
X8089834Y-1794833D01*
X8078411Y-1797694D01*
X8066762Y-1799422D01*
X8055000Y-1800000D01*
X6095000Y-1800000D01*
X6083238Y-1799422D01*
X6071589Y-1797694D01*
X6060166Y-1794833D01*
X6049078Y-1790866D01*
X6038432Y-1785831D01*
X6028332Y-1779776D01*
X6018873Y-1772761D01*
X6010147Y-1764853D01*
X6002239Y-1756127D01*
X5995224Y-1746668D01*
X5989169Y-1736568D01*
X5984134Y-1725922D01*
X5980167Y-1714834D01*
X5977306Y-1703411D01*
X5975578Y-1691762D01*
X5975000Y-1680000D01*
X5975000Y-720000D01*
X5975578Y-708238D01*
X5977306Y-696589D01*
X5980167Y-685166D01*
X5984134Y-674078D01*
X5989169Y-663432D01*
X5995224Y-653332D01*
X6002239Y-643873D01*
X6010147Y-635147D01*
X6018873Y-627239D01*
X6028332Y-620224D01*
X6038432Y-614169D01*
X6049078Y-609134D01*
X6060166Y-605167D01*
X6071589Y-602306D01*
X6083238Y-600578D01*
X6095000Y-600000D01*
X8055000Y-600000D01*
X8066762Y-600578D01*
X8066762Y-600578D01*
G37*
D11*
G36*
X13627278Y-394790D02*
X13730943Y-464057D01*
X13800210Y-567722D01*
X13828000Y-707433D01*
X13828000Y-3302567D01*
X13800210Y-3442278D01*
X13730943Y-3545943D01*
X13627278Y-3615210D01*
X13487567Y-3643000D01*
X622433Y-3643000D01*
X482722Y-3615210D01*
X379057Y-3545943D01*
X309790Y-3442278D01*
X282000Y-3302567D01*
X282000Y-707433D01*
X309790Y-567722D01*
X379057Y-464057D01*
X482722Y-394790D01*
X622433Y-367000D01*
X13487567Y-367000D01*
X13627278Y-394790D01*
X13627278Y-394790D01*
G37*
X13627278Y-394790D02*
X13730943Y-464057D01*
X13800210Y-567722D01*
X13828000Y-707433D01*
X13828000Y-3302567D01*
X13800210Y-3442278D01*
X13730943Y-3545943D01*
X13627278Y-3615210D01*
X13487567Y-3643000D01*
X622433Y-3643000D01*
X482722Y-3615210D01*
X379057Y-3545943D01*
X309790Y-3442278D01*
X282000Y-3302567D01*
X282000Y-707433D01*
X309790Y-567722D01*
X379057Y-464057D01*
X482722Y-394790D01*
X622433Y-367000D01*
X13487567Y-367000D01*
X13627278Y-394790D01*
M02*
