G04 #@! TF.FileFunction,Legend,Top*
%FSLAX46Y46*%
G04 Gerber Fmt 4.6, Leading zero omitted, Abs format (unit mm)*
G04 Created by KiCad (PCBNEW (2016-10-28 revision 192d4b8)-makepkg) date 11/04/16 19:07:24*
%MOMM*%
%LPD*%
G01*
G04 APERTURE LIST*
%ADD10C,0.150000*%
%ADD11C,0.170000*%
%ADD12C,0.100000*%
%ADD13C,0.700000*%
%ADD14C,1.350000*%
%ADD15C,3.000000*%
%ADD16C,1.000000*%
%ADD17C,1.200000*%
%ADD18C,0.600000*%
%ADD19C,0.254000*%
G04 APERTURE END LIST*
D10*
D11*
X57049244Y-26743620D02*
G75*
G03X57049244Y-26743620I-1650000J0D01*
G01*
D12*
X54467815Y-25796000D02*
X55024958Y-25796000D01*
X54724958Y-26176953D01*
X54853529Y-26176953D01*
X54939244Y-26224572D01*
X54982101Y-26272191D01*
X55024958Y-26367429D01*
X55024958Y-26605524D01*
X54982101Y-26700762D01*
X54939244Y-26748381D01*
X54853529Y-26796000D01*
X54596386Y-26796000D01*
X54510672Y-26748381D01*
X54467815Y-26700762D01*
X55410672Y-26700762D02*
X55453529Y-26748381D01*
X55410672Y-26796000D01*
X55367815Y-26748381D01*
X55410672Y-26700762D01*
X55410672Y-26796000D01*
X55753529Y-25796000D02*
X56310672Y-25796000D01*
X56010672Y-26176953D01*
X56139244Y-26176953D01*
X56224958Y-26224572D01*
X56267815Y-26272191D01*
X56310672Y-26367429D01*
X56310672Y-26605524D01*
X56267815Y-26700762D01*
X56224958Y-26748381D01*
X56139244Y-26796000D01*
X55882101Y-26796000D01*
X55796386Y-26748381D01*
X55753529Y-26700762D01*
D11*
X55249244Y-26593620D02*
X55699244Y-27043620D01*
X55549244Y-26593620D02*
X55099244Y-27043620D01*
X50449244Y-26443620D02*
X51049244Y-27043620D01*
X51049244Y-26443620D02*
X50449244Y-27043620D01*
X55699244Y-21343620D02*
X55099244Y-21943620D01*
X55099244Y-21343620D02*
X55699244Y-21943620D01*
X50449244Y-21343620D02*
X51049244Y-21943620D01*
X51049244Y-21343620D02*
X50449244Y-21943620D01*
D12*
X7212815Y-10086000D02*
X6912815Y-9609810D01*
X6698529Y-10086000D02*
X6698529Y-9086000D01*
X7041386Y-9086000D01*
X7127101Y-9133620D01*
X7169958Y-9181239D01*
X7212815Y-9276477D01*
X7212815Y-9419334D01*
X7169958Y-9514572D01*
X7127101Y-9562191D01*
X7041386Y-9609810D01*
X6698529Y-9609810D01*
X7898529Y-9562191D02*
X7598529Y-9562191D01*
X7598529Y-10086000D02*
X7598529Y-9086000D01*
X8027101Y-9086000D01*
X8927101Y-9086000D02*
X9441386Y-9086000D01*
X9184244Y-10086000D02*
X9184244Y-9086000D01*
X9741386Y-10086000D02*
X9741386Y-9419334D01*
X9741386Y-9609810D02*
X9784244Y-9514572D01*
X9827101Y-9466953D01*
X9912815Y-9419334D01*
X9998529Y-9419334D01*
X10684244Y-10086000D02*
X10684244Y-9562191D01*
X10641386Y-9466953D01*
X10555672Y-9419334D01*
X10384244Y-9419334D01*
X10298529Y-9466953D01*
X10684244Y-10038381D02*
X10598529Y-10086000D01*
X10384244Y-10086000D01*
X10298529Y-10038381D01*
X10255672Y-9943143D01*
X10255672Y-9847905D01*
X10298529Y-9752667D01*
X10384244Y-9705048D01*
X10598529Y-9705048D01*
X10684244Y-9657429D01*
X11112815Y-9419334D02*
X11112815Y-10086000D01*
X11112815Y-9514572D02*
X11155672Y-9466953D01*
X11241386Y-9419334D01*
X11369958Y-9419334D01*
X11455672Y-9466953D01*
X11498529Y-9562191D01*
X11498529Y-10086000D01*
X11884244Y-10038381D02*
X11969958Y-10086000D01*
X12141386Y-10086000D01*
X12227101Y-10038381D01*
X12269958Y-9943143D01*
X12269958Y-9895524D01*
X12227101Y-9800286D01*
X12141386Y-9752667D01*
X12012815Y-9752667D01*
X11927101Y-9705048D01*
X11884244Y-9609810D01*
X11884244Y-9562191D01*
X11927101Y-9466953D01*
X12012815Y-9419334D01*
X12141386Y-9419334D01*
X12227101Y-9466953D01*
X13041386Y-10038381D02*
X12955672Y-10086000D01*
X12784244Y-10086000D01*
X12698529Y-10038381D01*
X12655672Y-9990762D01*
X12612815Y-9895524D01*
X12612815Y-9609810D01*
X12655672Y-9514572D01*
X12698529Y-9466953D01*
X12784244Y-9419334D01*
X12955672Y-9419334D01*
X13041386Y-9466953D01*
X13769958Y-10038381D02*
X13684244Y-10086000D01*
X13512815Y-10086000D01*
X13427101Y-10038381D01*
X13384244Y-9943143D01*
X13384244Y-9562191D01*
X13427101Y-9466953D01*
X13512815Y-9419334D01*
X13684244Y-9419334D01*
X13769958Y-9466953D01*
X13812815Y-9562191D01*
X13812815Y-9657429D01*
X13384244Y-9752667D01*
X14198529Y-10086000D02*
X14198529Y-9419334D01*
X14198529Y-9086000D02*
X14155672Y-9133620D01*
X14198529Y-9181239D01*
X14241386Y-9133620D01*
X14198529Y-9086000D01*
X14198529Y-9181239D01*
X14541386Y-9419334D02*
X14755672Y-10086000D01*
X14969958Y-9419334D01*
X15655672Y-10038381D02*
X15569958Y-10086000D01*
X15398529Y-10086000D01*
X15312815Y-10038381D01*
X15269958Y-9943143D01*
X15269958Y-9562191D01*
X15312815Y-9466953D01*
X15398529Y-9419334D01*
X15569958Y-9419334D01*
X15655672Y-9466953D01*
X15698529Y-9562191D01*
X15698529Y-9657429D01*
X15269958Y-9752667D01*
X16084244Y-10086000D02*
X16084244Y-9419334D01*
X16084244Y-9609810D02*
X16127101Y-9514572D01*
X16169958Y-9466953D01*
X16255672Y-9419334D01*
X16341386Y-9419334D01*
X16641386Y-9990762D02*
X16684244Y-10038381D01*
X16641386Y-10086000D01*
X16598529Y-10038381D01*
X16641386Y-9990762D01*
X16641386Y-10086000D01*
X16641386Y-9466953D02*
X16684244Y-9514572D01*
X16641386Y-9562191D01*
X16598529Y-9514572D01*
X16641386Y-9466953D01*
X16641386Y-9562191D01*
X18184244Y-10086000D02*
X17755672Y-10086000D01*
X17755672Y-9086000D01*
X18484244Y-10086000D02*
X18484244Y-9419334D01*
X18484244Y-9086000D02*
X18441386Y-9133620D01*
X18484244Y-9181239D01*
X18527101Y-9133620D01*
X18484244Y-9086000D01*
X18484244Y-9181239D01*
X18912815Y-10086000D02*
X18912815Y-9419334D01*
X18912815Y-9514572D02*
X18955672Y-9466953D01*
X19041386Y-9419334D01*
X19169958Y-9419334D01*
X19255672Y-9466953D01*
X19298529Y-9562191D01*
X19298529Y-10086000D01*
X19298529Y-9562191D02*
X19341386Y-9466953D01*
X19427101Y-9419334D01*
X19555672Y-9419334D01*
X19641386Y-9466953D01*
X19684244Y-9562191D01*
X19684244Y-10086000D01*
X20455672Y-10038381D02*
X20369958Y-10086000D01*
X20198529Y-10086000D01*
X20112815Y-10038381D01*
X20069958Y-9943143D01*
X20069958Y-9562191D01*
X20112815Y-9466953D01*
X20198529Y-9419334D01*
X20369958Y-9419334D01*
X20455672Y-9466953D01*
X20498529Y-9562191D01*
X20498529Y-9657429D01*
X20069958Y-9752667D01*
X21569958Y-10086000D02*
X21569958Y-9086000D01*
X21869958Y-9800286D01*
X22169958Y-9086000D01*
X22169958Y-10086000D01*
X22598529Y-10086000D02*
X22598529Y-9419334D01*
X22598529Y-9086000D02*
X22555672Y-9133620D01*
X22598529Y-9181239D01*
X22641386Y-9133620D01*
X22598529Y-9086000D01*
X22598529Y-9181239D01*
X23412815Y-10038381D02*
X23327101Y-10086000D01*
X23155672Y-10086000D01*
X23069958Y-10038381D01*
X23027101Y-9990762D01*
X22984244Y-9895524D01*
X22984244Y-9609810D01*
X23027101Y-9514572D01*
X23069958Y-9466953D01*
X23155672Y-9419334D01*
X23327101Y-9419334D01*
X23412815Y-9466953D01*
X23798529Y-10086000D02*
X23798529Y-9419334D01*
X23798529Y-9609810D02*
X23841386Y-9514572D01*
X23884244Y-9466953D01*
X23969958Y-9419334D01*
X24055672Y-9419334D01*
X24484244Y-10086000D02*
X24398529Y-10038381D01*
X24355672Y-9990762D01*
X24312815Y-9895524D01*
X24312815Y-9609810D01*
X24355672Y-9514572D01*
X24398529Y-9466953D01*
X24484244Y-9419334D01*
X24612815Y-9419334D01*
X24698529Y-9466953D01*
X24741386Y-9514572D01*
X24784244Y-9609810D01*
X24784244Y-9895524D01*
X24741386Y-9990762D01*
X24698529Y-10038381D01*
X24612815Y-10086000D01*
X24484244Y-10086000D01*
X25127101Y-10038381D02*
X25212815Y-10086000D01*
X25384244Y-10086000D01*
X25469958Y-10038381D01*
X25512815Y-9943143D01*
X25512815Y-9895524D01*
X25469958Y-9800286D01*
X25384244Y-9752667D01*
X25255672Y-9752667D01*
X25169958Y-9705048D01*
X25127101Y-9609810D01*
X25127101Y-9562191D01*
X25169958Y-9466953D01*
X25255672Y-9419334D01*
X25384244Y-9419334D01*
X25469958Y-9466953D01*
X25812815Y-9419334D02*
X26027101Y-10086000D01*
X26241386Y-9419334D02*
X26027101Y-10086000D01*
X25941386Y-10324096D01*
X25898529Y-10371715D01*
X25812815Y-10419334D01*
X26541386Y-10038381D02*
X26627101Y-10086000D01*
X26798529Y-10086000D01*
X26884244Y-10038381D01*
X26927101Y-9943143D01*
X26927101Y-9895524D01*
X26884244Y-9800286D01*
X26798529Y-9752667D01*
X26669958Y-9752667D01*
X26584244Y-9705048D01*
X26541386Y-9609810D01*
X26541386Y-9562191D01*
X26584244Y-9466953D01*
X26669958Y-9419334D01*
X26798529Y-9419334D01*
X26884244Y-9466953D01*
X27184244Y-9419334D02*
X27527101Y-9419334D01*
X27312815Y-9086000D02*
X27312815Y-9943143D01*
X27355672Y-10038381D01*
X27441386Y-10086000D01*
X27527101Y-10086000D01*
X28169958Y-10038381D02*
X28084244Y-10086000D01*
X27912815Y-10086000D01*
X27827101Y-10038381D01*
X27784244Y-9943143D01*
X27784244Y-9562191D01*
X27827101Y-9466953D01*
X27912815Y-9419334D01*
X28084244Y-9419334D01*
X28169958Y-9466953D01*
X28212815Y-9562191D01*
X28212815Y-9657429D01*
X27784244Y-9752667D01*
X28598529Y-10086000D02*
X28598529Y-9419334D01*
X28598529Y-9514572D02*
X28641386Y-9466953D01*
X28727101Y-9419334D01*
X28855672Y-9419334D01*
X28941386Y-9466953D01*
X28984244Y-9562191D01*
X28984244Y-10086000D01*
X28984244Y-9562191D02*
X29027101Y-9466953D01*
X29112815Y-9419334D01*
X29241386Y-9419334D01*
X29327101Y-9466953D01*
X29369958Y-9562191D01*
X29369958Y-10086000D01*
X29755672Y-10038381D02*
X29841386Y-10086000D01*
X30012815Y-10086000D01*
X30098529Y-10038381D01*
X30141386Y-9943143D01*
X30141386Y-9895524D01*
X30098529Y-9800286D01*
X30012815Y-9752667D01*
X29884244Y-9752667D01*
X29798529Y-9705048D01*
X29755672Y-9609810D01*
X29755672Y-9562191D01*
X29798529Y-9466953D01*
X29884244Y-9419334D01*
X30012815Y-9419334D01*
X30098529Y-9466953D01*
X31641386Y-10086000D02*
X31212815Y-10086000D01*
X31212815Y-9086000D01*
X31941386Y-10086000D02*
X31941386Y-9086000D01*
X32241386Y-9800286D01*
X32541386Y-9086000D01*
X32541386Y-10086000D01*
X32927101Y-10038381D02*
X33055672Y-10086000D01*
X33269958Y-10086000D01*
X33355672Y-10038381D01*
X33398529Y-9990762D01*
X33441386Y-9895524D01*
X33441386Y-9800286D01*
X33398529Y-9705048D01*
X33355672Y-9657429D01*
X33269958Y-9609810D01*
X33098529Y-9562191D01*
X33012815Y-9514572D01*
X32969958Y-9466953D01*
X32927101Y-9371715D01*
X32927101Y-9276477D01*
X32969958Y-9181239D01*
X33012815Y-9133620D01*
X33098529Y-9086000D01*
X33312815Y-9086000D01*
X33441386Y-9133620D01*
X33741386Y-9086000D02*
X34341386Y-9086000D01*
X33955672Y-10086000D01*
X34855672Y-9086000D02*
X34941386Y-9086000D01*
X35027101Y-9133620D01*
X35069958Y-9181239D01*
X35112815Y-9276477D01*
X35155672Y-9466953D01*
X35155672Y-9705048D01*
X35112815Y-9895524D01*
X35069958Y-9990762D01*
X35027101Y-10038381D01*
X34941386Y-10086000D01*
X34855672Y-10086000D01*
X34769958Y-10038381D01*
X34727101Y-9990762D01*
X34684244Y-9895524D01*
X34641386Y-9705048D01*
X34641386Y-9466953D01*
X34684244Y-9276477D01*
X34727101Y-9181239D01*
X34769958Y-9133620D01*
X34855672Y-9086000D01*
X35712815Y-9086000D02*
X35798529Y-9086000D01*
X35884244Y-9133620D01*
X35927101Y-9181239D01*
X35969958Y-9276477D01*
X36012815Y-9466953D01*
X36012815Y-9705048D01*
X35969958Y-9895524D01*
X35927101Y-9990762D01*
X35884244Y-10038381D01*
X35798529Y-10086000D01*
X35712815Y-10086000D01*
X35627101Y-10038381D01*
X35584244Y-9990762D01*
X35541386Y-9895524D01*
X35498529Y-9705048D01*
X35498529Y-9466953D01*
X35541386Y-9276477D01*
X35584244Y-9181239D01*
X35627101Y-9133620D01*
X35712815Y-9086000D01*
X36355672Y-9181239D02*
X36398529Y-9133620D01*
X36484244Y-9086000D01*
X36698529Y-9086000D01*
X36784244Y-9133620D01*
X36827101Y-9181239D01*
X36869958Y-9276477D01*
X36869958Y-9371715D01*
X36827101Y-9514572D01*
X36312815Y-10086000D01*
X36869958Y-10086000D01*
X37255672Y-10086000D02*
X37255672Y-9086000D01*
X37555672Y-9800286D01*
X37855672Y-9086000D01*
X37855672Y-10086000D01*
X6998529Y-11162191D02*
X6698529Y-11162191D01*
X6698529Y-11686000D02*
X6698529Y-10686000D01*
X7127101Y-10686000D01*
X7469958Y-11686000D02*
X7469958Y-10686000D01*
X7812815Y-10686000D01*
X7898529Y-10733620D01*
X7941386Y-10781239D01*
X7984244Y-10876477D01*
X7984244Y-11019334D01*
X7941386Y-11114572D01*
X7898529Y-11162191D01*
X7812815Y-11209810D01*
X7469958Y-11209810D01*
X8841386Y-10733620D02*
X8755672Y-10686000D01*
X8627101Y-10686000D01*
X8498529Y-10733620D01*
X8412815Y-10828858D01*
X8369958Y-10924096D01*
X8327101Y-11114572D01*
X8327101Y-11257429D01*
X8369958Y-11447905D01*
X8412815Y-11543143D01*
X8498529Y-11638381D01*
X8627101Y-11686000D01*
X8712815Y-11686000D01*
X8841386Y-11638381D01*
X8884244Y-11590762D01*
X8884244Y-11257429D01*
X8712815Y-11257429D01*
X9227101Y-11400286D02*
X9655672Y-11400286D01*
X9141386Y-11686000D02*
X9441386Y-10686000D01*
X9741386Y-11686000D01*
X10041386Y-11590762D02*
X10084244Y-11638381D01*
X10041386Y-11686000D01*
X9998529Y-11638381D01*
X10041386Y-11590762D01*
X10041386Y-11686000D01*
X10041386Y-11066953D02*
X10084244Y-11114572D01*
X10041386Y-11162191D01*
X9998529Y-11114572D01*
X10041386Y-11066953D01*
X10041386Y-11162191D01*
X11112815Y-11400286D02*
X11541386Y-11400286D01*
X11027101Y-11686000D02*
X11327101Y-10686000D01*
X11627101Y-11686000D01*
X12055672Y-11686000D02*
X11969958Y-11638381D01*
X11927101Y-11543143D01*
X11927101Y-10686000D01*
X12269958Y-11019334D02*
X12612815Y-11019334D01*
X12398529Y-10686000D02*
X12398529Y-11543143D01*
X12441386Y-11638381D01*
X12527101Y-11686000D01*
X12612815Y-11686000D01*
X13255672Y-11638381D02*
X13169958Y-11686000D01*
X12998529Y-11686000D01*
X12912815Y-11638381D01*
X12869958Y-11543143D01*
X12869958Y-11162191D01*
X12912815Y-11066953D01*
X12998529Y-11019334D01*
X13169958Y-11019334D01*
X13255672Y-11066953D01*
X13298529Y-11162191D01*
X13298529Y-11257429D01*
X12869958Y-11352667D01*
X13684244Y-11686000D02*
X13684244Y-11019334D01*
X13684244Y-11209810D02*
X13727101Y-11114572D01*
X13769958Y-11066953D01*
X13855672Y-11019334D01*
X13941386Y-11019334D01*
X14627101Y-11686000D02*
X14627101Y-11162191D01*
X14584244Y-11066953D01*
X14498529Y-11019334D01*
X14327101Y-11019334D01*
X14241386Y-11066953D01*
X14627101Y-11638381D02*
X14541386Y-11686000D01*
X14327101Y-11686000D01*
X14241386Y-11638381D01*
X14198529Y-11543143D01*
X14198529Y-11447905D01*
X14241386Y-11352667D01*
X14327101Y-11305048D01*
X14541386Y-11305048D01*
X14627101Y-11257429D01*
X16255672Y-11590762D02*
X16212815Y-11638381D01*
X16084244Y-11686000D01*
X15998529Y-11686000D01*
X15869958Y-11638381D01*
X15784244Y-11543143D01*
X15741386Y-11447905D01*
X15698529Y-11257429D01*
X15698529Y-11114572D01*
X15741386Y-10924096D01*
X15784244Y-10828858D01*
X15869958Y-10733620D01*
X15998529Y-10686000D01*
X16084244Y-10686000D01*
X16212815Y-10733620D01*
X16255672Y-10781239D01*
X16555672Y-11019334D02*
X16769958Y-11686000D01*
X16984244Y-11019334D02*
X16769958Y-11686000D01*
X16684244Y-11924096D01*
X16641386Y-11971715D01*
X16555672Y-12019334D01*
X17712815Y-11638381D02*
X17627101Y-11686000D01*
X17455672Y-11686000D01*
X17369958Y-11638381D01*
X17327101Y-11590762D01*
X17284244Y-11495524D01*
X17284244Y-11209810D01*
X17327101Y-11114572D01*
X17369958Y-11066953D01*
X17455672Y-11019334D01*
X17627101Y-11019334D01*
X17712815Y-11066953D01*
X18227101Y-11686000D02*
X18141386Y-11638381D01*
X18098529Y-11543143D01*
X18098529Y-10686000D01*
X18698529Y-11686000D02*
X18612815Y-11638381D01*
X18569958Y-11590762D01*
X18527101Y-11495524D01*
X18527101Y-11209810D01*
X18569958Y-11114572D01*
X18612815Y-11066953D01*
X18698529Y-11019334D01*
X18827101Y-11019334D01*
X18912815Y-11066953D01*
X18955672Y-11114572D01*
X18998529Y-11209810D01*
X18998529Y-11495524D01*
X18955672Y-11590762D01*
X18912815Y-11638381D01*
X18827101Y-11686000D01*
X18698529Y-11686000D01*
X19384244Y-11019334D02*
X19384244Y-11686000D01*
X19384244Y-11114572D02*
X19427101Y-11066953D01*
X19512815Y-11019334D01*
X19641386Y-11019334D01*
X19727101Y-11066953D01*
X19769958Y-11162191D01*
X19769958Y-11686000D01*
X20541386Y-11638381D02*
X20455672Y-11686000D01*
X20284244Y-11686000D01*
X20198529Y-11638381D01*
X20155672Y-11543143D01*
X20155672Y-11162191D01*
X20198529Y-11066953D01*
X20284244Y-11019334D01*
X20455672Y-11019334D01*
X20541386Y-11066953D01*
X20584244Y-11162191D01*
X20584244Y-11257429D01*
X20155672Y-11352667D01*
X21655672Y-11686000D02*
X21655672Y-10686000D01*
X21955672Y-10686000D02*
X22255672Y-11686000D01*
X22555672Y-10686000D01*
X23541386Y-11162191D02*
X23841386Y-11162191D01*
X23969958Y-11686000D02*
X23541386Y-11686000D01*
X23541386Y-10686000D01*
X23969958Y-10686000D01*
X24355672Y-11686000D02*
X24355672Y-10686000D01*
X24698529Y-10686000D01*
X24784244Y-10733620D01*
X24827101Y-10781239D01*
X24869958Y-10876477D01*
X24869958Y-11019334D01*
X24827101Y-11114572D01*
X24784244Y-11162191D01*
X24698529Y-11209810D01*
X24355672Y-11209810D01*
X25641386Y-11019334D02*
X25641386Y-11686000D01*
X25427101Y-10638381D02*
X25212815Y-11352667D01*
X25769958Y-11352667D01*
X26627101Y-11590762D02*
X26584244Y-11638381D01*
X26455672Y-11686000D01*
X26369958Y-11686000D01*
X26241386Y-11638381D01*
X26155672Y-11543143D01*
X26112815Y-11447905D01*
X26069958Y-11257429D01*
X26069958Y-11114572D01*
X26112815Y-10924096D01*
X26155672Y-10828858D01*
X26241386Y-10733620D01*
X26369958Y-10686000D01*
X26455672Y-10686000D01*
X26584244Y-10733620D01*
X26627101Y-10781239D01*
X27012815Y-11162191D02*
X27312815Y-11162191D01*
X27441386Y-11686000D02*
X27012815Y-11686000D01*
X27012815Y-10686000D01*
X27441386Y-10686000D01*
X28212815Y-11019334D02*
X28212815Y-11686000D01*
X27998529Y-10638381D02*
X27784244Y-11352667D01*
X28341386Y-11352667D01*
X28855672Y-10686000D02*
X28941386Y-10686000D01*
X29027101Y-10733620D01*
X29069958Y-10781239D01*
X29112815Y-10876477D01*
X29155672Y-11066953D01*
X29155672Y-11305048D01*
X29112815Y-11495524D01*
X29069958Y-11590762D01*
X29027101Y-11638381D01*
X28941386Y-11686000D01*
X28855672Y-11686000D01*
X28769958Y-11638381D01*
X28727101Y-11590762D01*
X28684244Y-11495524D01*
X28641386Y-11305048D01*
X28641386Y-11066953D01*
X28684244Y-10876477D01*
X28727101Y-10781239D01*
X28769958Y-10733620D01*
X28855672Y-10686000D01*
X29841386Y-11162191D02*
X29541386Y-11162191D01*
X29541386Y-11686000D02*
X29541386Y-10686000D01*
X29969958Y-10686000D01*
X30269958Y-10781239D02*
X30312815Y-10733620D01*
X30398529Y-10686000D01*
X30612815Y-10686000D01*
X30698529Y-10733620D01*
X30741386Y-10781239D01*
X30784244Y-10876477D01*
X30784244Y-10971715D01*
X30741386Y-11114572D01*
X30227101Y-11686000D01*
X30784244Y-11686000D01*
X31084244Y-10686000D02*
X31641386Y-10686000D01*
X31341386Y-11066953D01*
X31469958Y-11066953D01*
X31555672Y-11114572D01*
X31598529Y-11162191D01*
X31641386Y-11257429D01*
X31641386Y-11495524D01*
X31598529Y-11590762D01*
X31555672Y-11638381D01*
X31469958Y-11686000D01*
X31212815Y-11686000D01*
X31127101Y-11638381D01*
X31084244Y-11590762D01*
X32841386Y-11686000D02*
X32755672Y-11638381D01*
X32712815Y-11590762D01*
X32669958Y-11495524D01*
X32669958Y-11209810D01*
X32712815Y-11114572D01*
X32755672Y-11066953D01*
X32841386Y-11019334D01*
X32969958Y-11019334D01*
X33055672Y-11066953D01*
X33098529Y-11114572D01*
X33141386Y-11209810D01*
X33141386Y-11495524D01*
X33098529Y-11590762D01*
X33055672Y-11638381D01*
X32969958Y-11686000D01*
X32841386Y-11686000D01*
X33527101Y-11686000D02*
X33527101Y-11019334D01*
X33527101Y-11209810D02*
X33569958Y-11114572D01*
X33612815Y-11066953D01*
X33698529Y-11019334D01*
X33784244Y-11019334D01*
X34769958Y-11162191D02*
X35069958Y-11162191D01*
X35198529Y-11686000D02*
X34769958Y-11686000D01*
X34769958Y-10686000D01*
X35198529Y-10686000D01*
X35584244Y-11686000D02*
X35584244Y-10686000D01*
X35927101Y-10686000D01*
X36012815Y-10733620D01*
X36055672Y-10781239D01*
X36098529Y-10876477D01*
X36098529Y-11019334D01*
X36055672Y-11114572D01*
X36012815Y-11162191D01*
X35927101Y-11209810D01*
X35584244Y-11209810D01*
X36869958Y-11019334D02*
X36869958Y-11686000D01*
X36655672Y-10638381D02*
X36441386Y-11352667D01*
X36998529Y-11352667D01*
X37855672Y-11590762D02*
X37812815Y-11638381D01*
X37684244Y-11686000D01*
X37598529Y-11686000D01*
X37469958Y-11638381D01*
X37384244Y-11543143D01*
X37341386Y-11447905D01*
X37298529Y-11257429D01*
X37298529Y-11114572D01*
X37341386Y-10924096D01*
X37384244Y-10828858D01*
X37469958Y-10733620D01*
X37598529Y-10686000D01*
X37684244Y-10686000D01*
X37812815Y-10733620D01*
X37855672Y-10781239D01*
X38241386Y-11162191D02*
X38541386Y-11162191D01*
X38669958Y-11686000D02*
X38241386Y-11686000D01*
X38241386Y-10686000D01*
X38669958Y-10686000D01*
X38969958Y-10686000D02*
X39527101Y-10686000D01*
X39227101Y-11066953D01*
X39355672Y-11066953D01*
X39441386Y-11114572D01*
X39484244Y-11162191D01*
X39527101Y-11257429D01*
X39527101Y-11495524D01*
X39484244Y-11590762D01*
X39441386Y-11638381D01*
X39355672Y-11686000D01*
X39098529Y-11686000D01*
X39012815Y-11638381D01*
X38969958Y-11590762D01*
X40084244Y-10686000D02*
X40169958Y-10686000D01*
X40255672Y-10733620D01*
X40298529Y-10781239D01*
X40341386Y-10876477D01*
X40384244Y-11066953D01*
X40384244Y-11305048D01*
X40341386Y-11495524D01*
X40298529Y-11590762D01*
X40255672Y-11638381D01*
X40169958Y-11686000D01*
X40084244Y-11686000D01*
X39998529Y-11638381D01*
X39955672Y-11590762D01*
X39912815Y-11495524D01*
X39869958Y-11305048D01*
X39869958Y-11066953D01*
X39912815Y-10876477D01*
X39955672Y-10781239D01*
X39998529Y-10733620D01*
X40084244Y-10686000D01*
X41069958Y-11162191D02*
X40769958Y-11162191D01*
X40769958Y-11686000D02*
X40769958Y-10686000D01*
X41198529Y-10686000D01*
X41498529Y-10781239D02*
X41541386Y-10733620D01*
X41627101Y-10686000D01*
X41841386Y-10686000D01*
X41927101Y-10733620D01*
X41969958Y-10781239D01*
X42012815Y-10876477D01*
X42012815Y-10971715D01*
X41969958Y-11114572D01*
X41455672Y-11686000D01*
X42012815Y-11686000D01*
X42312815Y-10686000D02*
X42869958Y-10686000D01*
X42569958Y-11066953D01*
X42698529Y-11066953D01*
X42784244Y-11114572D01*
X42827101Y-11162191D01*
X42869958Y-11257429D01*
X42869958Y-11495524D01*
X42827101Y-11590762D01*
X42784244Y-11638381D01*
X42698529Y-11686000D01*
X42441386Y-11686000D01*
X42355672Y-11638381D01*
X42312815Y-11590762D01*
X6698529Y-13286000D02*
X6698529Y-12286000D01*
X6998529Y-13000286D01*
X7298529Y-12286000D01*
X7298529Y-13286000D01*
X8069958Y-13238381D02*
X7984244Y-13286000D01*
X7812815Y-13286000D01*
X7727101Y-13238381D01*
X7684244Y-13143143D01*
X7684244Y-12762191D01*
X7727101Y-12666953D01*
X7812815Y-12619334D01*
X7984244Y-12619334D01*
X8069958Y-12666953D01*
X8112815Y-12762191D01*
X8112815Y-12857429D01*
X7684244Y-12952667D01*
X8498529Y-13286000D02*
X8498529Y-12619334D01*
X8498529Y-12714572D02*
X8541386Y-12666953D01*
X8627101Y-12619334D01*
X8755672Y-12619334D01*
X8841386Y-12666953D01*
X8884244Y-12762191D01*
X8884244Y-13286000D01*
X8884244Y-12762191D02*
X8927101Y-12666953D01*
X9012815Y-12619334D01*
X9141386Y-12619334D01*
X9227101Y-12666953D01*
X9269958Y-12762191D01*
X9269958Y-13286000D01*
X9827101Y-13286000D02*
X9741386Y-13238381D01*
X9698529Y-13190762D01*
X9655672Y-13095524D01*
X9655672Y-12809810D01*
X9698529Y-12714572D01*
X9741386Y-12666953D01*
X9827101Y-12619334D01*
X9955672Y-12619334D01*
X10041386Y-12666953D01*
X10084244Y-12714572D01*
X10127101Y-12809810D01*
X10127101Y-13095524D01*
X10084244Y-13190762D01*
X10041386Y-13238381D01*
X9955672Y-13286000D01*
X9827101Y-13286000D01*
X10512815Y-13286000D02*
X10512815Y-12619334D01*
X10512815Y-12809810D02*
X10555672Y-12714572D01*
X10598529Y-12666953D01*
X10684244Y-12619334D01*
X10769958Y-12619334D01*
X10984244Y-12619334D02*
X11198529Y-13286000D01*
X11412815Y-12619334D02*
X11198529Y-13286000D01*
X11112815Y-13524096D01*
X11069958Y-13571715D01*
X10984244Y-13619334D01*
X11755672Y-13190762D02*
X11798529Y-13238381D01*
X11755672Y-13286000D01*
X11712815Y-13238381D01*
X11755672Y-13190762D01*
X11755672Y-13286000D01*
X11755672Y-12666953D02*
X11798529Y-12714572D01*
X11755672Y-12762191D01*
X11712815Y-12714572D01*
X11755672Y-12666953D01*
X11755672Y-12762191D01*
X12827101Y-12381239D02*
X12869958Y-12333620D01*
X12955672Y-12286000D01*
X13169958Y-12286000D01*
X13255672Y-12333620D01*
X13298529Y-12381239D01*
X13341386Y-12476477D01*
X13341386Y-12571715D01*
X13298529Y-12714572D01*
X12784244Y-13286000D01*
X13341386Y-13286000D01*
X14155672Y-12286000D02*
X13727101Y-12286000D01*
X13684244Y-12762191D01*
X13727101Y-12714572D01*
X13812815Y-12666953D01*
X14027101Y-12666953D01*
X14112815Y-12714572D01*
X14155672Y-12762191D01*
X14198529Y-12857429D01*
X14198529Y-13095524D01*
X14155672Y-13190762D01*
X14112815Y-13238381D01*
X14027101Y-13286000D01*
X13812815Y-13286000D01*
X13727101Y-13238381D01*
X13684244Y-13190762D01*
X14969958Y-12286000D02*
X14798529Y-12286000D01*
X14712815Y-12333620D01*
X14669958Y-12381239D01*
X14584244Y-12524096D01*
X14541386Y-12714572D01*
X14541386Y-13095524D01*
X14584244Y-13190762D01*
X14627101Y-13238381D01*
X14712815Y-13286000D01*
X14884244Y-13286000D01*
X14969958Y-13238381D01*
X15012815Y-13190762D01*
X15055672Y-13095524D01*
X15055672Y-12857429D01*
X15012815Y-12762191D01*
X14969958Y-12714572D01*
X14884244Y-12666953D01*
X14712815Y-12666953D01*
X14627101Y-12714572D01*
X14584244Y-12762191D01*
X14541386Y-12857429D01*
X16127101Y-13286000D02*
X16127101Y-12286000D01*
X16427101Y-13000286D01*
X16727101Y-12286000D01*
X16727101Y-13286000D01*
X17455672Y-12762191D02*
X17584244Y-12809810D01*
X17627101Y-12857429D01*
X17669958Y-12952667D01*
X17669958Y-13095524D01*
X17627101Y-13190762D01*
X17584244Y-13238381D01*
X17498529Y-13286000D01*
X17155672Y-13286000D01*
X17155672Y-12286000D01*
X17455672Y-12286000D01*
X17541386Y-12333620D01*
X17584244Y-12381239D01*
X17627101Y-12476477D01*
X17627101Y-12571715D01*
X17584244Y-12666953D01*
X17541386Y-12714572D01*
X17455672Y-12762191D01*
X17155672Y-12762191D01*
X17969958Y-12619334D02*
X18184244Y-13286000D01*
X18398529Y-12619334D02*
X18184244Y-13286000D01*
X18098529Y-13524096D01*
X18055672Y-13571715D01*
X17969958Y-13619334D01*
X18612815Y-12619334D02*
X18955672Y-12619334D01*
X18741386Y-12286000D02*
X18741386Y-13143143D01*
X18784244Y-13238381D01*
X18869958Y-13286000D01*
X18955672Y-13286000D01*
X19598529Y-13238381D02*
X19512815Y-13286000D01*
X19341386Y-13286000D01*
X19255672Y-13238381D01*
X19212815Y-13143143D01*
X19212815Y-12762191D01*
X19255672Y-12666953D01*
X19341386Y-12619334D01*
X19512815Y-12619334D01*
X19598529Y-12666953D01*
X19641386Y-12762191D01*
X19641386Y-12857429D01*
X19212815Y-12952667D01*
X19984244Y-13238381D02*
X20069958Y-13286000D01*
X20241386Y-13286000D01*
X20327101Y-13238381D01*
X20369958Y-13143143D01*
X20369958Y-13095524D01*
X20327101Y-13000286D01*
X20241386Y-12952667D01*
X20112815Y-12952667D01*
X20027101Y-12905048D01*
X19984244Y-12809810D01*
X19984244Y-12762191D01*
X20027101Y-12666953D01*
X20112815Y-12619334D01*
X20241386Y-12619334D01*
X20327101Y-12666953D01*
X21441386Y-13286000D02*
X21441386Y-12286000D01*
X21655672Y-12286000D01*
X21784244Y-12333620D01*
X21869958Y-12428858D01*
X21912815Y-12524096D01*
X21955672Y-12714572D01*
X21955672Y-12857429D01*
X21912815Y-13047905D01*
X21869958Y-13143143D01*
X21784244Y-13238381D01*
X21655672Y-13286000D01*
X21441386Y-13286000D01*
X22341386Y-13286000D02*
X22341386Y-12286000D01*
X22555672Y-12286000D01*
X22684244Y-12333620D01*
X22769958Y-12428858D01*
X22812815Y-12524096D01*
X22855672Y-12714572D01*
X22855672Y-12857429D01*
X22812815Y-13047905D01*
X22769958Y-13143143D01*
X22684244Y-13238381D01*
X22555672Y-13286000D01*
X22341386Y-13286000D01*
X23755672Y-13286000D02*
X23455672Y-12809810D01*
X23241386Y-13286000D02*
X23241386Y-12286000D01*
X23584244Y-12286000D01*
X23669958Y-12333620D01*
X23712815Y-12381239D01*
X23755672Y-12476477D01*
X23755672Y-12619334D01*
X23712815Y-12714572D01*
X23669958Y-12762191D01*
X23584244Y-12809810D01*
X23241386Y-12809810D01*
X24098529Y-12381239D02*
X24141386Y-12333620D01*
X24227101Y-12286000D01*
X24441386Y-12286000D01*
X24527101Y-12333620D01*
X24569958Y-12381239D01*
X24612815Y-12476477D01*
X24612815Y-12571715D01*
X24569958Y-12714572D01*
X24055672Y-13286000D01*
X24612815Y-13286000D01*
X25641386Y-13238381D02*
X25769958Y-13286000D01*
X25984244Y-13286000D01*
X26069958Y-13238381D01*
X26112815Y-13190762D01*
X26155672Y-13095524D01*
X26155672Y-13000286D01*
X26112815Y-12905048D01*
X26069958Y-12857429D01*
X25984244Y-12809810D01*
X25812815Y-12762191D01*
X25727101Y-12714572D01*
X25684244Y-12666953D01*
X25641386Y-12571715D01*
X25641386Y-12476477D01*
X25684244Y-12381239D01*
X25727101Y-12333620D01*
X25812815Y-12286000D01*
X26027101Y-12286000D01*
X26155672Y-12333620D01*
X26541386Y-13286000D02*
X26541386Y-12286000D01*
X26755672Y-12286000D01*
X26884244Y-12333620D01*
X26969958Y-12428858D01*
X27012815Y-12524096D01*
X27055672Y-12714572D01*
X27055672Y-12857429D01*
X27012815Y-13047905D01*
X26969958Y-13143143D01*
X26884244Y-13238381D01*
X26755672Y-13286000D01*
X26541386Y-13286000D01*
X27955672Y-13286000D02*
X27655672Y-12809810D01*
X27441386Y-13286000D02*
X27441386Y-12286000D01*
X27784244Y-12286000D01*
X27869958Y-12333620D01*
X27912815Y-12381239D01*
X27955672Y-12476477D01*
X27955672Y-12619334D01*
X27912815Y-12714572D01*
X27869958Y-12762191D01*
X27784244Y-12809810D01*
X27441386Y-12809810D01*
X28298529Y-13000286D02*
X28727101Y-13000286D01*
X28212815Y-13286000D02*
X28512815Y-12286000D01*
X28812815Y-13286000D01*
X29112815Y-13286000D02*
X29112815Y-12286000D01*
X29412815Y-13000286D01*
X29712815Y-12286000D01*
X29712815Y-13286000D01*
X7212815Y-14790762D02*
X7169958Y-14838381D01*
X7041386Y-14886000D01*
X6955672Y-14886000D01*
X6827101Y-14838381D01*
X6741386Y-14743143D01*
X6698529Y-14647905D01*
X6655672Y-14457429D01*
X6655672Y-14314572D01*
X6698529Y-14124096D01*
X6741386Y-14028858D01*
X6827101Y-13933620D01*
X6955672Y-13886000D01*
X7041386Y-13886000D01*
X7169958Y-13933620D01*
X7212815Y-13981239D01*
X7727101Y-14886000D02*
X7641386Y-14838381D01*
X7598529Y-14790762D01*
X7555672Y-14695524D01*
X7555672Y-14409810D01*
X7598529Y-14314572D01*
X7641386Y-14266953D01*
X7727101Y-14219334D01*
X7855672Y-14219334D01*
X7941386Y-14266953D01*
X7984244Y-14314572D01*
X8027101Y-14409810D01*
X8027101Y-14695524D01*
X7984244Y-14790762D01*
X7941386Y-14838381D01*
X7855672Y-14886000D01*
X7727101Y-14886000D01*
X8412815Y-14219334D02*
X8412815Y-14886000D01*
X8412815Y-14314572D02*
X8455672Y-14266953D01*
X8541386Y-14219334D01*
X8669958Y-14219334D01*
X8755672Y-14266953D01*
X8798529Y-14362191D01*
X8798529Y-14886000D01*
X9098529Y-14219334D02*
X9441386Y-14219334D01*
X9227101Y-13886000D02*
X9227101Y-14743143D01*
X9269958Y-14838381D01*
X9355672Y-14886000D01*
X9441386Y-14886000D01*
X9741386Y-14886000D02*
X9741386Y-14219334D01*
X9741386Y-13886000D02*
X9698529Y-13933620D01*
X9741386Y-13981239D01*
X9784244Y-13933620D01*
X9741386Y-13886000D01*
X9741386Y-13981239D01*
X10169958Y-14219334D02*
X10169958Y-14886000D01*
X10169958Y-14314572D02*
X10212815Y-14266953D01*
X10298529Y-14219334D01*
X10427101Y-14219334D01*
X10512815Y-14266953D01*
X10555672Y-14362191D01*
X10555672Y-14886000D01*
X11369958Y-14219334D02*
X11369958Y-14886000D01*
X10984244Y-14219334D02*
X10984244Y-14743143D01*
X11027101Y-14838381D01*
X11112815Y-14886000D01*
X11241386Y-14886000D01*
X11327101Y-14838381D01*
X11369958Y-14790762D01*
X11927101Y-14886000D02*
X11841386Y-14838381D01*
X11798529Y-14790762D01*
X11755672Y-14695524D01*
X11755672Y-14409810D01*
X11798529Y-14314572D01*
X11841386Y-14266953D01*
X11927101Y-14219334D01*
X12055672Y-14219334D01*
X12141386Y-14266953D01*
X12184244Y-14314572D01*
X12227101Y-14409810D01*
X12227101Y-14695524D01*
X12184244Y-14790762D01*
X12141386Y-14838381D01*
X12055672Y-14886000D01*
X11927101Y-14886000D01*
X12998529Y-14219334D02*
X12998529Y-14886000D01*
X12612815Y-14219334D02*
X12612815Y-14743143D01*
X12655672Y-14838381D01*
X12741386Y-14886000D01*
X12869958Y-14886000D01*
X12955672Y-14838381D01*
X12998529Y-14790762D01*
X13384244Y-14838381D02*
X13469958Y-14886000D01*
X13641386Y-14886000D01*
X13727101Y-14838381D01*
X13769958Y-14743143D01*
X13769958Y-14695524D01*
X13727101Y-14600286D01*
X13641386Y-14552667D01*
X13512815Y-14552667D01*
X13427101Y-14505048D01*
X13384244Y-14409810D01*
X13384244Y-14362191D01*
X13427101Y-14266953D01*
X13512815Y-14219334D01*
X13641386Y-14219334D01*
X13727101Y-14266953D01*
X14712815Y-14219334D02*
X15055672Y-14219334D01*
X14841386Y-14886000D02*
X14841386Y-14028858D01*
X14884244Y-13933620D01*
X14969958Y-13886000D01*
X15055672Y-13886000D01*
X15355672Y-14886000D02*
X15355672Y-14219334D01*
X15355672Y-14409810D02*
X15398529Y-14314572D01*
X15441386Y-14266953D01*
X15527101Y-14219334D01*
X15612815Y-14219334D01*
X16255672Y-14838381D02*
X16169958Y-14886000D01*
X15998529Y-14886000D01*
X15912815Y-14838381D01*
X15869958Y-14743143D01*
X15869958Y-14362191D01*
X15912815Y-14266953D01*
X15998529Y-14219334D01*
X16169958Y-14219334D01*
X16255672Y-14266953D01*
X16298529Y-14362191D01*
X16298529Y-14457429D01*
X15869958Y-14552667D01*
X17069958Y-14219334D02*
X17069958Y-15219334D01*
X17069958Y-14838381D02*
X16984244Y-14886000D01*
X16812815Y-14886000D01*
X16727101Y-14838381D01*
X16684244Y-14790762D01*
X16641386Y-14695524D01*
X16641386Y-14409810D01*
X16684244Y-14314572D01*
X16727101Y-14266953D01*
X16812815Y-14219334D01*
X16984244Y-14219334D01*
X17069958Y-14266953D01*
X17884244Y-14219334D02*
X17884244Y-14886000D01*
X17498529Y-14219334D02*
X17498529Y-14743143D01*
X17541386Y-14838381D01*
X17627101Y-14886000D01*
X17755672Y-14886000D01*
X17841386Y-14838381D01*
X17884244Y-14790762D01*
X18655672Y-14838381D02*
X18569958Y-14886000D01*
X18398529Y-14886000D01*
X18312815Y-14838381D01*
X18269958Y-14743143D01*
X18269958Y-14362191D01*
X18312815Y-14266953D01*
X18398529Y-14219334D01*
X18569958Y-14219334D01*
X18655672Y-14266953D01*
X18698529Y-14362191D01*
X18698529Y-14457429D01*
X18269958Y-14552667D01*
X19084244Y-14219334D02*
X19084244Y-14886000D01*
X19084244Y-14314572D02*
X19127101Y-14266953D01*
X19212815Y-14219334D01*
X19341386Y-14219334D01*
X19427101Y-14266953D01*
X19469958Y-14362191D01*
X19469958Y-14886000D01*
X20284244Y-14838381D02*
X20198529Y-14886000D01*
X20027101Y-14886000D01*
X19941386Y-14838381D01*
X19898529Y-14790762D01*
X19855672Y-14695524D01*
X19855672Y-14409810D01*
X19898529Y-14314572D01*
X19941386Y-14266953D01*
X20027101Y-14219334D01*
X20198529Y-14219334D01*
X20284244Y-14266953D01*
X20584244Y-14219334D02*
X20798529Y-14886000D01*
X21012815Y-14219334D02*
X20798529Y-14886000D01*
X20712815Y-15124096D01*
X20669958Y-15171715D01*
X20584244Y-15219334D01*
X22041386Y-14886000D02*
X22041386Y-14219334D01*
X22041386Y-14409810D02*
X22084244Y-14314572D01*
X22127101Y-14266953D01*
X22212815Y-14219334D01*
X22298529Y-14219334D01*
X22984244Y-14886000D02*
X22984244Y-14362191D01*
X22941386Y-14266953D01*
X22855672Y-14219334D01*
X22684244Y-14219334D01*
X22598529Y-14266953D01*
X22984244Y-14838381D02*
X22898529Y-14886000D01*
X22684244Y-14886000D01*
X22598529Y-14838381D01*
X22555672Y-14743143D01*
X22555672Y-14647905D01*
X22598529Y-14552667D01*
X22684244Y-14505048D01*
X22898529Y-14505048D01*
X22984244Y-14457429D01*
X23412815Y-14219334D02*
X23412815Y-14886000D01*
X23412815Y-14314572D02*
X23455672Y-14266953D01*
X23541386Y-14219334D01*
X23669958Y-14219334D01*
X23755672Y-14266953D01*
X23798529Y-14362191D01*
X23798529Y-14886000D01*
X24612815Y-14219334D02*
X24612815Y-15028858D01*
X24569958Y-15124096D01*
X24527101Y-15171715D01*
X24441386Y-15219334D01*
X24312815Y-15219334D01*
X24227101Y-15171715D01*
X24612815Y-14838381D02*
X24527101Y-14886000D01*
X24355672Y-14886000D01*
X24269958Y-14838381D01*
X24227101Y-14790762D01*
X24184244Y-14695524D01*
X24184244Y-14409810D01*
X24227101Y-14314572D01*
X24269958Y-14266953D01*
X24355672Y-14219334D01*
X24527101Y-14219334D01*
X24612815Y-14266953D01*
X25384244Y-14838381D02*
X25298529Y-14886000D01*
X25127101Y-14886000D01*
X25041386Y-14838381D01*
X24998529Y-14743143D01*
X24998529Y-14362191D01*
X25041386Y-14266953D01*
X25127101Y-14219334D01*
X25298529Y-14219334D01*
X25384244Y-14266953D01*
X25427101Y-14362191D01*
X25427101Y-14457429D01*
X24998529Y-14552667D01*
X25812815Y-14790762D02*
X25855672Y-14838381D01*
X25812815Y-14886000D01*
X25769958Y-14838381D01*
X25812815Y-14790762D01*
X25812815Y-14886000D01*
X25812815Y-14266953D02*
X25855672Y-14314572D01*
X25812815Y-14362191D01*
X25769958Y-14314572D01*
X25812815Y-14266953D01*
X25812815Y-14362191D01*
X27398529Y-14886000D02*
X26884244Y-14886000D01*
X27141386Y-14886000D02*
X27141386Y-13886000D01*
X27055672Y-14028858D01*
X26969958Y-14124096D01*
X26884244Y-14171715D01*
X27955672Y-13886000D02*
X28041386Y-13886000D01*
X28127101Y-13933620D01*
X28169958Y-13981239D01*
X28212815Y-14076477D01*
X28255672Y-14266953D01*
X28255672Y-14505048D01*
X28212815Y-14695524D01*
X28169958Y-14790762D01*
X28127101Y-14838381D01*
X28041386Y-14886000D01*
X27955672Y-14886000D01*
X27869958Y-14838381D01*
X27827101Y-14790762D01*
X27784244Y-14695524D01*
X27741386Y-14505048D01*
X27741386Y-14266953D01*
X27784244Y-14076477D01*
X27827101Y-13981239D01*
X27869958Y-13933620D01*
X27955672Y-13886000D01*
X28812815Y-13886000D02*
X28898529Y-13886000D01*
X28984244Y-13933620D01*
X29027101Y-13981239D01*
X29069958Y-14076477D01*
X29112815Y-14266953D01*
X29112815Y-14505048D01*
X29069958Y-14695524D01*
X29027101Y-14790762D01*
X28984244Y-14838381D01*
X28898529Y-14886000D01*
X28812815Y-14886000D01*
X28727101Y-14838381D01*
X28684244Y-14790762D01*
X28641386Y-14695524D01*
X28598529Y-14505048D01*
X28598529Y-14266953D01*
X28641386Y-14076477D01*
X28684244Y-13981239D01*
X28727101Y-13933620D01*
X28812815Y-13886000D01*
X30184244Y-14886000D02*
X30184244Y-13886000D01*
X30269958Y-14505048D02*
X30527101Y-14886000D01*
X30527101Y-14219334D02*
X30184244Y-14600286D01*
X30912815Y-14886000D02*
X30912815Y-13886000D01*
X30912815Y-14362191D02*
X31427101Y-14362191D01*
X31427101Y-14886000D02*
X31427101Y-13886000D01*
X31769958Y-14219334D02*
X32241386Y-14219334D01*
X31769958Y-14886000D01*
X32241386Y-14886000D01*
X33484244Y-14552667D02*
X33141386Y-14552667D01*
X34384244Y-13886000D02*
X34941386Y-13886000D01*
X34641386Y-14266953D01*
X34769958Y-14266953D01*
X34855672Y-14314572D01*
X34898529Y-14362191D01*
X34941386Y-14457429D01*
X34941386Y-14695524D01*
X34898529Y-14790762D01*
X34855672Y-14838381D01*
X34769958Y-14886000D01*
X34512815Y-14886000D01*
X34427101Y-14838381D01*
X34384244Y-14790762D01*
X35327101Y-14790762D02*
X35369958Y-14838381D01*
X35327101Y-14886000D01*
X35284244Y-14838381D01*
X35327101Y-14790762D01*
X35327101Y-14886000D01*
X35884244Y-14314572D02*
X35798529Y-14266953D01*
X35755672Y-14219334D01*
X35712815Y-14124096D01*
X35712815Y-14076477D01*
X35755672Y-13981239D01*
X35798529Y-13933620D01*
X35884244Y-13886000D01*
X36055672Y-13886000D01*
X36141386Y-13933620D01*
X36184244Y-13981239D01*
X36227101Y-14076477D01*
X36227101Y-14124096D01*
X36184244Y-14219334D01*
X36141386Y-14266953D01*
X36055672Y-14314572D01*
X35884244Y-14314572D01*
X35798529Y-14362191D01*
X35755672Y-14409810D01*
X35712815Y-14505048D01*
X35712815Y-14695524D01*
X35755672Y-14790762D01*
X35798529Y-14838381D01*
X35884244Y-14886000D01*
X36055672Y-14886000D01*
X36141386Y-14838381D01*
X36184244Y-14790762D01*
X36227101Y-14695524D01*
X36227101Y-14505048D01*
X36184244Y-14409810D01*
X36141386Y-14362191D01*
X36055672Y-14314572D01*
X37769958Y-13933620D02*
X37684244Y-13886000D01*
X37555672Y-13886000D01*
X37427101Y-13933620D01*
X37341386Y-14028858D01*
X37298529Y-14124096D01*
X37255672Y-14314572D01*
X37255672Y-14457429D01*
X37298529Y-14647905D01*
X37341386Y-14743143D01*
X37427101Y-14838381D01*
X37555672Y-14886000D01*
X37641386Y-14886000D01*
X37769958Y-14838381D01*
X37812815Y-14790762D01*
X37812815Y-14457429D01*
X37641386Y-14457429D01*
X38198529Y-14886000D02*
X38198529Y-13886000D01*
X38198529Y-14362191D02*
X38712815Y-14362191D01*
X38712815Y-14886000D02*
X38712815Y-13886000D01*
X39055672Y-14219334D02*
X39527101Y-14219334D01*
X39055672Y-14886000D01*
X39527101Y-14886000D01*
X6998529Y-15962191D02*
X7127101Y-16009810D01*
X7169958Y-16057429D01*
X7212815Y-16152667D01*
X7212815Y-16295524D01*
X7169958Y-16390762D01*
X7127101Y-16438381D01*
X7041386Y-16486000D01*
X6698529Y-16486000D01*
X6698529Y-15486000D01*
X6998529Y-15486000D01*
X7084244Y-15533620D01*
X7127101Y-15581239D01*
X7169958Y-15676477D01*
X7169958Y-15771715D01*
X7127101Y-15866953D01*
X7084244Y-15914572D01*
X6998529Y-15962191D01*
X6698529Y-15962191D01*
X7984244Y-16486000D02*
X7984244Y-15962191D01*
X7941386Y-15866953D01*
X7855672Y-15819334D01*
X7684244Y-15819334D01*
X7598529Y-15866953D01*
X7984244Y-16438381D02*
X7898529Y-16486000D01*
X7684244Y-16486000D01*
X7598529Y-16438381D01*
X7555672Y-16343143D01*
X7555672Y-16247905D01*
X7598529Y-16152667D01*
X7684244Y-16105048D01*
X7898529Y-16105048D01*
X7984244Y-16057429D01*
X8412815Y-15819334D02*
X8412815Y-16486000D01*
X8412815Y-15914572D02*
X8455672Y-15866953D01*
X8541386Y-15819334D01*
X8669958Y-15819334D01*
X8755672Y-15866953D01*
X8798529Y-15962191D01*
X8798529Y-16486000D01*
X9612815Y-16486000D02*
X9612815Y-15486000D01*
X9612815Y-16438381D02*
X9527101Y-16486000D01*
X9355672Y-16486000D01*
X9269958Y-16438381D01*
X9227101Y-16390762D01*
X9184244Y-16295524D01*
X9184244Y-16009810D01*
X9227101Y-15914572D01*
X9269958Y-15866953D01*
X9355672Y-15819334D01*
X9527101Y-15819334D01*
X9612815Y-15866953D01*
X9955672Y-15819334D02*
X10127101Y-16486000D01*
X10298529Y-16009810D01*
X10469958Y-16486000D01*
X10641386Y-15819334D01*
X10984244Y-16486000D02*
X10984244Y-15819334D01*
X10984244Y-15486000D02*
X10941386Y-15533620D01*
X10984244Y-15581239D01*
X11027101Y-15533620D01*
X10984244Y-15486000D01*
X10984244Y-15581239D01*
X11798529Y-16486000D02*
X11798529Y-15486000D01*
X11798529Y-16438381D02*
X11712815Y-16486000D01*
X11541386Y-16486000D01*
X11455672Y-16438381D01*
X11412815Y-16390762D01*
X11369958Y-16295524D01*
X11369958Y-16009810D01*
X11412815Y-15914572D01*
X11455672Y-15866953D01*
X11541386Y-15819334D01*
X11712815Y-15819334D01*
X11798529Y-15866953D01*
X12098529Y-15819334D02*
X12441386Y-15819334D01*
X12227101Y-15486000D02*
X12227101Y-16343143D01*
X12269958Y-16438381D01*
X12355672Y-16486000D01*
X12441386Y-16486000D01*
X12741386Y-16486000D02*
X12741386Y-15486000D01*
X13127101Y-16486000D02*
X13127101Y-15962191D01*
X13084244Y-15866953D01*
X12998529Y-15819334D01*
X12869958Y-15819334D01*
X12784244Y-15866953D01*
X12741386Y-15914572D01*
X13555672Y-16390762D02*
X13598529Y-16438381D01*
X13555672Y-16486000D01*
X13512815Y-16438381D01*
X13555672Y-16390762D01*
X13555672Y-16486000D01*
X13555672Y-15866953D02*
X13598529Y-15914572D01*
X13555672Y-15962191D01*
X13512815Y-15914572D01*
X13555672Y-15866953D01*
X13555672Y-15962191D01*
X15055672Y-15486000D02*
X14884244Y-15486000D01*
X14798529Y-15533620D01*
X14755672Y-15581239D01*
X14669958Y-15724096D01*
X14627101Y-15914572D01*
X14627101Y-16295524D01*
X14669958Y-16390762D01*
X14712815Y-16438381D01*
X14798529Y-16486000D01*
X14969958Y-16486000D01*
X15055672Y-16438381D01*
X15098529Y-16390762D01*
X15141386Y-16295524D01*
X15141386Y-16057429D01*
X15098529Y-15962191D01*
X15055672Y-15914572D01*
X14969958Y-15866953D01*
X14798529Y-15866953D01*
X14712815Y-15914572D01*
X14669958Y-15962191D01*
X14627101Y-16057429D01*
X15998529Y-16486000D02*
X15484244Y-16486000D01*
X15741386Y-16486000D02*
X15741386Y-15486000D01*
X15655672Y-15628858D01*
X15569958Y-15724096D01*
X15484244Y-15771715D01*
X16384244Y-16390762D02*
X16427101Y-16438381D01*
X16384244Y-16486000D01*
X16341386Y-16438381D01*
X16384244Y-16390762D01*
X16384244Y-16486000D01*
X17198529Y-15819334D02*
X17198529Y-16486000D01*
X16984244Y-15438381D02*
X16769958Y-16152667D01*
X17327101Y-16152667D01*
X18055672Y-15819334D02*
X18055672Y-16486000D01*
X17841386Y-15438381D02*
X17627101Y-16152667D01*
X18184244Y-16152667D01*
X19212815Y-16486000D02*
X19212815Y-15486000D01*
X19512815Y-16200286D01*
X19812815Y-15486000D01*
X19812815Y-16486000D01*
X20241386Y-16486000D02*
X20241386Y-15486000D01*
X20241386Y-15962191D02*
X20755672Y-15962191D01*
X20755672Y-16486000D02*
X20755672Y-15486000D01*
X21098529Y-15819334D02*
X21569958Y-15819334D01*
X21098529Y-16486000D01*
X21569958Y-16486000D01*
X6698529Y-18086000D02*
X6698529Y-17086000D01*
X7041386Y-17086000D01*
X7127101Y-17133620D01*
X7169958Y-17181239D01*
X7212815Y-17276477D01*
X7212815Y-17419334D01*
X7169958Y-17514572D01*
X7127101Y-17562191D01*
X7041386Y-17609810D01*
X6698529Y-17609810D01*
X7727101Y-18086000D02*
X7641386Y-18038381D01*
X7598529Y-17990762D01*
X7555672Y-17895524D01*
X7555672Y-17609810D01*
X7598529Y-17514572D01*
X7641386Y-17466953D01*
X7727101Y-17419334D01*
X7855672Y-17419334D01*
X7941386Y-17466953D01*
X7984244Y-17514572D01*
X8027101Y-17609810D01*
X8027101Y-17895524D01*
X7984244Y-17990762D01*
X7941386Y-18038381D01*
X7855672Y-18086000D01*
X7727101Y-18086000D01*
X8327101Y-17419334D02*
X8498529Y-18086000D01*
X8669958Y-17609810D01*
X8841386Y-18086000D01*
X9012815Y-17419334D01*
X9698529Y-18038381D02*
X9612815Y-18086000D01*
X9441386Y-18086000D01*
X9355672Y-18038381D01*
X9312815Y-17943143D01*
X9312815Y-17562191D01*
X9355672Y-17466953D01*
X9441386Y-17419334D01*
X9612815Y-17419334D01*
X9698529Y-17466953D01*
X9741386Y-17562191D01*
X9741386Y-17657429D01*
X9312815Y-17752667D01*
X10127101Y-18086000D02*
X10127101Y-17419334D01*
X10127101Y-17609810D02*
X10169958Y-17514572D01*
X10212815Y-17466953D01*
X10298529Y-17419334D01*
X10384244Y-17419334D01*
X11541386Y-17086000D02*
X11712815Y-17086000D01*
X11798529Y-17133620D01*
X11884244Y-17228858D01*
X11927101Y-17419334D01*
X11927101Y-17752667D01*
X11884244Y-17943143D01*
X11798529Y-18038381D01*
X11712815Y-18086000D01*
X11541386Y-18086000D01*
X11455672Y-18038381D01*
X11369958Y-17943143D01*
X11327101Y-17752667D01*
X11327101Y-17419334D01*
X11369958Y-17228858D01*
X11455672Y-17133620D01*
X11541386Y-17086000D01*
X12698529Y-17419334D02*
X12698529Y-18086000D01*
X12312815Y-17419334D02*
X12312815Y-17943143D01*
X12355672Y-18038381D01*
X12441386Y-18086000D01*
X12569958Y-18086000D01*
X12655672Y-18038381D01*
X12698529Y-17990762D01*
X12998529Y-17419334D02*
X13341386Y-17419334D01*
X13127101Y-17086000D02*
X13127101Y-17943143D01*
X13169958Y-18038381D01*
X13255672Y-18086000D01*
X13341386Y-18086000D01*
X13641386Y-17419334D02*
X13641386Y-18419334D01*
X13641386Y-17466953D02*
X13727101Y-17419334D01*
X13898529Y-17419334D01*
X13984244Y-17466953D01*
X14027101Y-17514572D01*
X14069958Y-17609810D01*
X14069958Y-17895524D01*
X14027101Y-17990762D01*
X13984244Y-18038381D01*
X13898529Y-18086000D01*
X13727101Y-18086000D01*
X13641386Y-18038381D01*
X14841386Y-17419334D02*
X14841386Y-18086000D01*
X14455672Y-17419334D02*
X14455672Y-17943143D01*
X14498529Y-18038381D01*
X14584244Y-18086000D01*
X14712815Y-18086000D01*
X14798529Y-18038381D01*
X14841386Y-17990762D01*
X15141386Y-17419334D02*
X15484244Y-17419334D01*
X15269958Y-17086000D02*
X15269958Y-17943143D01*
X15312815Y-18038381D01*
X15398529Y-18086000D01*
X15484244Y-18086000D01*
X16727101Y-18466953D02*
X16684244Y-18419334D01*
X16598529Y-18276477D01*
X16555672Y-18181239D01*
X16512815Y-18038381D01*
X16469958Y-17800286D01*
X16469958Y-17609810D01*
X16512815Y-17371715D01*
X16555672Y-17228858D01*
X16598529Y-17133620D01*
X16684244Y-16990762D01*
X16727101Y-16943143D01*
X17584244Y-17990762D02*
X17541386Y-18038381D01*
X17412815Y-18086000D01*
X17327101Y-18086000D01*
X17198529Y-18038381D01*
X17112815Y-17943143D01*
X17069958Y-17847905D01*
X17027101Y-17657429D01*
X17027101Y-17514572D01*
X17069958Y-17324096D01*
X17112815Y-17228858D01*
X17198529Y-17133620D01*
X17327101Y-17086000D01*
X17412815Y-17086000D01*
X17541386Y-17133620D01*
X17584244Y-17181239D01*
X17884244Y-17086000D02*
X18098529Y-18086000D01*
X18269958Y-17371715D01*
X18441386Y-18086000D01*
X18655672Y-17086000D01*
X18912815Y-18466953D02*
X18955672Y-18419334D01*
X19041386Y-18276477D01*
X19084244Y-18181239D01*
X19127101Y-18038381D01*
X19169958Y-17800286D01*
X19169958Y-17609810D01*
X19127101Y-17371715D01*
X19084244Y-17228858D01*
X19041386Y-17133620D01*
X18955672Y-16990762D01*
X18912815Y-16943143D01*
X19598529Y-17990762D02*
X19641386Y-18038381D01*
X19598529Y-18086000D01*
X19555672Y-18038381D01*
X19598529Y-17990762D01*
X19598529Y-18086000D01*
X19598529Y-17466953D02*
X19641386Y-17514572D01*
X19598529Y-17562191D01*
X19555672Y-17514572D01*
X19598529Y-17466953D01*
X19598529Y-17562191D01*
X21098529Y-17419334D02*
X21098529Y-18086000D01*
X20712815Y-17419334D02*
X20712815Y-17943143D01*
X20755672Y-18038381D01*
X20841386Y-18086000D01*
X20969958Y-18086000D01*
X21055672Y-18038381D01*
X21098529Y-17990762D01*
X21527101Y-17419334D02*
X21527101Y-18419334D01*
X21527101Y-17466953D02*
X21612815Y-17419334D01*
X21784244Y-17419334D01*
X21869958Y-17466953D01*
X21912815Y-17514572D01*
X21955672Y-17609810D01*
X21955672Y-17895524D01*
X21912815Y-17990762D01*
X21869958Y-18038381D01*
X21784244Y-18086000D01*
X21612815Y-18086000D01*
X21527101Y-18038381D01*
X22898529Y-17419334D02*
X23241386Y-17419334D01*
X23027101Y-17086000D02*
X23027101Y-17943143D01*
X23069958Y-18038381D01*
X23155672Y-18086000D01*
X23241386Y-18086000D01*
X23669958Y-18086000D02*
X23584244Y-18038381D01*
X23541386Y-17990762D01*
X23498529Y-17895524D01*
X23498529Y-17609810D01*
X23541386Y-17514572D01*
X23584244Y-17466953D01*
X23669958Y-17419334D01*
X23798529Y-17419334D01*
X23884244Y-17466953D01*
X23927101Y-17514572D01*
X23969958Y-17609810D01*
X23969958Y-17895524D01*
X23927101Y-17990762D01*
X23884244Y-18038381D01*
X23798529Y-18086000D01*
X23669958Y-18086000D01*
X25512815Y-18086000D02*
X24998529Y-18086000D01*
X25255672Y-18086000D02*
X25255672Y-17086000D01*
X25169958Y-17228858D01*
X25084244Y-17324096D01*
X24998529Y-17371715D01*
X26069958Y-17086000D02*
X26155672Y-17086000D01*
X26241386Y-17133620D01*
X26284244Y-17181239D01*
X26327101Y-17276477D01*
X26369958Y-17466953D01*
X26369958Y-17705048D01*
X26327101Y-17895524D01*
X26284244Y-17990762D01*
X26241386Y-18038381D01*
X26155672Y-18086000D01*
X26069958Y-18086000D01*
X25984244Y-18038381D01*
X25941386Y-17990762D01*
X25898529Y-17895524D01*
X25855672Y-17705048D01*
X25855672Y-17466953D01*
X25898529Y-17276477D01*
X25941386Y-17181239D01*
X25984244Y-17133620D01*
X26069958Y-17086000D01*
X27827101Y-18086000D02*
X27827101Y-17086000D01*
X27827101Y-18038381D02*
X27741386Y-18086000D01*
X27569958Y-18086000D01*
X27484244Y-18038381D01*
X27441386Y-17990762D01*
X27398529Y-17895524D01*
X27398529Y-17609810D01*
X27441386Y-17514572D01*
X27484244Y-17466953D01*
X27569958Y-17419334D01*
X27741386Y-17419334D01*
X27827101Y-17466953D01*
X28555672Y-17562191D02*
X28684244Y-17609810D01*
X28727101Y-17657429D01*
X28769958Y-17752667D01*
X28769958Y-17895524D01*
X28727101Y-17990762D01*
X28684244Y-18038381D01*
X28598529Y-18086000D01*
X28255672Y-18086000D01*
X28255672Y-17086000D01*
X28555672Y-17086000D01*
X28641386Y-17133620D01*
X28684244Y-17181239D01*
X28727101Y-17276477D01*
X28727101Y-17371715D01*
X28684244Y-17466953D01*
X28641386Y-17514572D01*
X28555672Y-17562191D01*
X28255672Y-17562191D01*
X29155672Y-18086000D02*
X29155672Y-17419334D01*
X29155672Y-17514572D02*
X29198529Y-17466953D01*
X29284244Y-17419334D01*
X29412815Y-17419334D01*
X29498529Y-17466953D01*
X29541386Y-17562191D01*
X29541386Y-18086000D01*
X29541386Y-17562191D02*
X29584244Y-17466953D01*
X29669958Y-17419334D01*
X29798529Y-17419334D01*
X29884244Y-17466953D01*
X29927101Y-17562191D01*
X29927101Y-18086000D01*
X6698529Y-19686000D02*
X6698529Y-18686000D01*
X6998529Y-19400286D01*
X7298529Y-18686000D01*
X7298529Y-19686000D01*
X8112815Y-19019334D02*
X8112815Y-19686000D01*
X7727101Y-19019334D02*
X7727101Y-19543143D01*
X7769958Y-19638381D01*
X7855672Y-19686000D01*
X7984244Y-19686000D01*
X8069958Y-19638381D01*
X8112815Y-19590762D01*
X8669958Y-19686000D02*
X8584244Y-19638381D01*
X8541386Y-19543143D01*
X8541386Y-18686000D01*
X8884244Y-19019334D02*
X9227101Y-19019334D01*
X9012815Y-18686000D02*
X9012815Y-19543143D01*
X9055672Y-19638381D01*
X9141386Y-19686000D01*
X9227101Y-19686000D01*
X9527101Y-19686000D02*
X9527101Y-19019334D01*
X9527101Y-18686000D02*
X9484244Y-18733620D01*
X9527101Y-18781239D01*
X9569958Y-18733620D01*
X9527101Y-18686000D01*
X9527101Y-18781239D01*
X9955672Y-19019334D02*
X9955672Y-20019334D01*
X9955672Y-19066953D02*
X10041386Y-19019334D01*
X10212815Y-19019334D01*
X10298529Y-19066953D01*
X10341386Y-19114572D01*
X10384244Y-19209810D01*
X10384244Y-19495524D01*
X10341386Y-19590762D01*
X10298529Y-19638381D01*
X10212815Y-19686000D01*
X10041386Y-19686000D01*
X9955672Y-19638381D01*
X10898529Y-19686000D02*
X10812815Y-19638381D01*
X10769958Y-19543143D01*
X10769958Y-18686000D01*
X11584244Y-19638381D02*
X11498529Y-19686000D01*
X11327101Y-19686000D01*
X11241386Y-19638381D01*
X11198529Y-19543143D01*
X11198529Y-19162191D01*
X11241386Y-19066953D01*
X11327101Y-19019334D01*
X11498529Y-19019334D01*
X11584244Y-19066953D01*
X11627101Y-19162191D01*
X11627101Y-19257429D01*
X11198529Y-19352667D01*
X11927101Y-19686000D02*
X12398529Y-19019334D01*
X11927101Y-19019334D02*
X12398529Y-19686000D01*
X12741386Y-19686000D02*
X12741386Y-19019334D01*
X12741386Y-18686000D02*
X12698529Y-18733620D01*
X12741386Y-18781239D01*
X12784244Y-18733620D01*
X12741386Y-18686000D01*
X12741386Y-18781239D01*
X13169958Y-19019334D02*
X13169958Y-19686000D01*
X13169958Y-19114572D02*
X13212815Y-19066953D01*
X13298529Y-19019334D01*
X13427101Y-19019334D01*
X13512815Y-19066953D01*
X13555672Y-19162191D01*
X13555672Y-19686000D01*
X14369958Y-19019334D02*
X14369958Y-19828858D01*
X14327101Y-19924096D01*
X14284244Y-19971715D01*
X14198529Y-20019334D01*
X14069958Y-20019334D01*
X13984244Y-19971715D01*
X14369958Y-19638381D02*
X14284244Y-19686000D01*
X14112815Y-19686000D01*
X14027101Y-19638381D01*
X13984244Y-19590762D01*
X13941386Y-19495524D01*
X13941386Y-19209810D01*
X13984244Y-19114572D01*
X14027101Y-19066953D01*
X14112815Y-19019334D01*
X14284244Y-19019334D01*
X14369958Y-19066953D01*
X14798529Y-19590762D02*
X14841386Y-19638381D01*
X14798529Y-19686000D01*
X14755672Y-19638381D01*
X14798529Y-19590762D01*
X14798529Y-19686000D01*
X14798529Y-19066953D02*
X14841386Y-19114572D01*
X14798529Y-19162191D01*
X14755672Y-19114572D01*
X14798529Y-19066953D01*
X14798529Y-19162191D01*
X15869958Y-18781239D02*
X15912815Y-18733620D01*
X15998529Y-18686000D01*
X16212815Y-18686000D01*
X16298529Y-18733620D01*
X16341386Y-18781239D01*
X16384244Y-18876477D01*
X16384244Y-18971715D01*
X16341386Y-19114572D01*
X15827101Y-19686000D01*
X16384244Y-19686000D01*
X16684244Y-19686000D02*
X17155672Y-19019334D01*
X16684244Y-19019334D02*
X17155672Y-19686000D01*
X17455672Y-18781239D02*
X17498529Y-18733620D01*
X17584244Y-18686000D01*
X17798529Y-18686000D01*
X17884244Y-18733620D01*
X17927101Y-18781239D01*
X17969958Y-18876477D01*
X17969958Y-18971715D01*
X17927101Y-19114572D01*
X17412815Y-19686000D01*
X17969958Y-19686000D01*
X19041386Y-19686000D02*
X19041386Y-18686000D01*
X19341386Y-19400286D01*
X19641386Y-18686000D01*
X19641386Y-19686000D01*
X20069958Y-19686000D02*
X20069958Y-18686000D01*
X20498529Y-19686000D02*
X20498529Y-18686000D01*
X20798529Y-19400286D01*
X21098529Y-18686000D01*
X21098529Y-19686000D01*
X21698529Y-18686000D02*
X21869958Y-18686000D01*
X21955672Y-18733620D01*
X22041386Y-18828858D01*
X22084244Y-19019334D01*
X22084244Y-19352667D01*
X22041386Y-19543143D01*
X21955672Y-19638381D01*
X21869958Y-19686000D01*
X21698529Y-19686000D01*
X21612815Y-19638381D01*
X21527101Y-19543143D01*
X21484244Y-19352667D01*
X21484244Y-19019334D01*
X21527101Y-18828858D01*
X21612815Y-18733620D01*
X21698529Y-18686000D01*
%LPC*%
X70446531Y-27566180D02*
X70408436Y-27642370D01*
X70332246Y-27680465D01*
X69646531Y-27680465D01*
X69913198Y-26918561D02*
X70446531Y-26918561D01*
X69913198Y-27261418D02*
X70332246Y-27261418D01*
X70408436Y-27223323D01*
X70446531Y-27147132D01*
X70446531Y-27032846D01*
X70408436Y-26956656D01*
X70370341Y-26918561D01*
X69913198Y-26651894D02*
X69913198Y-26347132D01*
X70446531Y-26537608D02*
X69760817Y-26537608D01*
X69684627Y-26499513D01*
X69646531Y-26423323D01*
X69646531Y-26347132D01*
X69913198Y-26194751D02*
X69913198Y-25889989D01*
X69646531Y-26080465D02*
X70332246Y-26080465D01*
X70408436Y-26042370D01*
X70446531Y-25966180D01*
X70446531Y-25889989D01*
X70408436Y-25318561D02*
X70446531Y-25394751D01*
X70446531Y-25547132D01*
X70408436Y-25623323D01*
X70332246Y-25661418D01*
X70027484Y-25661418D01*
X69951293Y-25623323D01*
X69913198Y-25547132D01*
X69913198Y-25394751D01*
X69951293Y-25318561D01*
X70027484Y-25280465D01*
X70103674Y-25280465D01*
X70179865Y-25661418D01*
X70446531Y-24937608D02*
X69646531Y-24937608D01*
X70141769Y-24861418D02*
X70446531Y-24632846D01*
X69913198Y-24632846D02*
X70217960Y-24937608D01*
D10*
X69682722Y-23955823D02*
X69644627Y-23917727D01*
X69606531Y-23841537D01*
X69606531Y-23651061D01*
X69644627Y-23574870D01*
X69682722Y-23536775D01*
X69758912Y-23498680D01*
X69835103Y-23498680D01*
X69949388Y-23536775D01*
X70406531Y-23993918D01*
X70406531Y-23498680D01*
X69606531Y-23003442D02*
X69606531Y-22927251D01*
X69644627Y-22851061D01*
X69682722Y-22812965D01*
X69758912Y-22774870D01*
X69911293Y-22736775D01*
X70101769Y-22736775D01*
X70254150Y-22774870D01*
X70330341Y-22812965D01*
X70368436Y-22851061D01*
X70406531Y-22927251D01*
X70406531Y-23003442D01*
X70368436Y-23079632D01*
X70330341Y-23117727D01*
X70254150Y-23155823D01*
X70101769Y-23193918D01*
X69911293Y-23193918D01*
X69758912Y-23155823D01*
X69682722Y-23117727D01*
X69644627Y-23079632D01*
X69606531Y-23003442D01*
X70406531Y-21974870D02*
X70406531Y-22432013D01*
X70406531Y-22203442D02*
X69606531Y-22203442D01*
X69720817Y-22279632D01*
X69797007Y-22355823D01*
X69835103Y-22432013D01*
X69606531Y-21289156D02*
X69606531Y-21441537D01*
X69644627Y-21517727D01*
X69682722Y-21555823D01*
X69797007Y-21632013D01*
X69949388Y-21670108D01*
X70254150Y-21670108D01*
X70330341Y-21632013D01*
X70368436Y-21593918D01*
X70406531Y-21517727D01*
X70406531Y-21365346D01*
X70368436Y-21289156D01*
X70330341Y-21251061D01*
X70254150Y-21212965D01*
X70063674Y-21212965D01*
X69987484Y-21251061D01*
X69949388Y-21289156D01*
X69911293Y-21365346D01*
X69911293Y-21517727D01*
X69949388Y-21593918D01*
X69987484Y-21632013D01*
X70063674Y-21670108D01*
X70406531Y-20451061D02*
X70406531Y-20908204D01*
X70406531Y-20679632D02*
X69606531Y-20679632D01*
X69720817Y-20755823D01*
X69797007Y-20832013D01*
X69835103Y-20908204D01*
X70406531Y-19689156D02*
X70406531Y-20146299D01*
X70406531Y-19917727D02*
X69606531Y-19917727D01*
X69720817Y-19993918D01*
X69797007Y-20070108D01*
X69835103Y-20146299D01*
X69606531Y-19193918D02*
X69606531Y-19117727D01*
X69644627Y-19041537D01*
X69682722Y-19003442D01*
X69758912Y-18965346D01*
X69911293Y-18927251D01*
X70101769Y-18927251D01*
X70254150Y-18965346D01*
X70330341Y-19003442D01*
X70368436Y-19041537D01*
X70406531Y-19117727D01*
X70406531Y-19193918D01*
X70368436Y-19270108D01*
X70330341Y-19308204D01*
X70254150Y-19346299D01*
X70101769Y-19384394D01*
X69911293Y-19384394D01*
X69758912Y-19346299D01*
X69682722Y-19308204D01*
X69644627Y-19270108D01*
X69606531Y-19193918D01*
X69873198Y-18241537D02*
X70406531Y-18241537D01*
X69568436Y-18432013D02*
X70139865Y-18622489D01*
X70139865Y-18127251D01*
D12*
X56053198Y-32447608D02*
X56586531Y-32447608D01*
X56243674Y-33247608D01*
X57234150Y-32447608D02*
X57081769Y-32447608D01*
X57005579Y-32485704D01*
X56967484Y-32523799D01*
X56891293Y-32638084D01*
X56853198Y-32790465D01*
X56853198Y-33095227D01*
X56891293Y-33171418D01*
X56929388Y-33209513D01*
X57005579Y-33247608D01*
X57157960Y-33247608D01*
X57234150Y-33209513D01*
X57272246Y-33171418D01*
X57310341Y-33095227D01*
X57310341Y-32904751D01*
X57272246Y-32828561D01*
X57234150Y-32790465D01*
X57157960Y-32752370D01*
X57005579Y-32752370D01*
X56929388Y-32790465D01*
X56891293Y-32828561D01*
X56853198Y-32904751D01*
X57577007Y-33247608D02*
X57996055Y-32714275D01*
X57577007Y-32714275D02*
X57996055Y-33247608D01*
X58224627Y-32447608D02*
X58719865Y-32447608D01*
X58453198Y-32752370D01*
X58567484Y-32752370D01*
X58643674Y-32790465D01*
X58681769Y-32828561D01*
X58719865Y-32904751D01*
X58719865Y-33095227D01*
X58681769Y-33171418D01*
X58643674Y-33209513D01*
X58567484Y-33247608D01*
X58338912Y-33247608D01*
X58262722Y-33209513D01*
X58224627Y-33171418D01*
X59443674Y-32447608D02*
X59062722Y-32447608D01*
X59024627Y-32828561D01*
X59062722Y-32790465D01*
X59138912Y-32752370D01*
X59329388Y-32752370D01*
X59405579Y-32790465D01*
X59443674Y-32828561D01*
X59481769Y-32904751D01*
X59481769Y-33095227D01*
X59443674Y-33171418D01*
X59405579Y-33209513D01*
X59329388Y-33247608D01*
X59138912Y-33247608D01*
X59062722Y-33209513D01*
X59024627Y-33171418D01*
X59748436Y-33247608D02*
X60167484Y-32714275D01*
X59748436Y-32714275D02*
X60167484Y-33247608D01*
X60891293Y-33247608D02*
X60434150Y-33247608D01*
X60662722Y-33247608D02*
X60662722Y-32447608D01*
X60586531Y-32561894D01*
X60510341Y-32638084D01*
X60434150Y-32676180D01*
X61386531Y-32447608D02*
X61462722Y-32447608D01*
X61538912Y-32485704D01*
X61577007Y-32523799D01*
X61615103Y-32599989D01*
X61653198Y-32752370D01*
X61653198Y-32942846D01*
X61615103Y-33095227D01*
X61577007Y-33171418D01*
X61538912Y-33209513D01*
X61462722Y-33247608D01*
X61386531Y-33247608D01*
X61310341Y-33209513D01*
X61272246Y-33171418D01*
X61234150Y-33095227D01*
X61196055Y-32942846D01*
X61196055Y-32752370D01*
X61234150Y-32599989D01*
X61272246Y-32523799D01*
X61310341Y-32485704D01*
X61386531Y-32447608D01*
X62148436Y-32447608D02*
X62224627Y-32447608D01*
X62300817Y-32485704D01*
X62338912Y-32523799D01*
X62377007Y-32599989D01*
X62415103Y-32752370D01*
X62415103Y-32942846D01*
X62377007Y-33095227D01*
X62338912Y-33171418D01*
X62300817Y-33209513D01*
X62224627Y-33247608D01*
X62148436Y-33247608D01*
X62072246Y-33209513D01*
X62034150Y-33171418D01*
X61996055Y-33095227D01*
X61957960Y-32942846D01*
X61957960Y-32752370D01*
X61996055Y-32599989D01*
X62034150Y-32523799D01*
X62072246Y-32485704D01*
X62148436Y-32447608D01*
X63329388Y-33209513D02*
X63405579Y-33247608D01*
X63557960Y-33247608D01*
X63634150Y-33209513D01*
X63672246Y-33133323D01*
X63672246Y-33095227D01*
X63634150Y-33019037D01*
X63557960Y-32980942D01*
X63443674Y-32980942D01*
X63367484Y-32942846D01*
X63329388Y-32866656D01*
X63329388Y-32828561D01*
X63367484Y-32752370D01*
X63443674Y-32714275D01*
X63557960Y-32714275D01*
X63634150Y-32752370D01*
X64015103Y-32714275D02*
X64015103Y-33514275D01*
X64015103Y-32752370D02*
X64091293Y-32714275D01*
X64243674Y-32714275D01*
X64319865Y-32752370D01*
X64357960Y-32790465D01*
X64396055Y-32866656D01*
X64396055Y-33095227D01*
X64357960Y-33171418D01*
X64319865Y-33209513D01*
X64243674Y-33247608D01*
X64091293Y-33247608D01*
X64015103Y-33209513D01*
X64853198Y-33247608D02*
X64777007Y-33209513D01*
X64738912Y-33133323D01*
X64738912Y-32447608D01*
X65157960Y-33247608D02*
X65157960Y-32714275D01*
X65157960Y-32447608D02*
X65119865Y-32485704D01*
X65157960Y-32523799D01*
X65196055Y-32485704D01*
X65157960Y-32447608D01*
X65157960Y-32523799D01*
X65424627Y-32714275D02*
X65729388Y-32714275D01*
X65538912Y-32447608D02*
X65538912Y-33133323D01*
X65577007Y-33209513D01*
X65653198Y-33247608D01*
X65729388Y-33247608D01*
X66567484Y-33209513D02*
X66643674Y-33247608D01*
X66796055Y-33247608D01*
X66872246Y-33209513D01*
X66910341Y-33133323D01*
X66910341Y-33095227D01*
X66872246Y-33019037D01*
X66796055Y-32980942D01*
X66681769Y-32980942D01*
X66605579Y-32942846D01*
X66567484Y-32866656D01*
X66567484Y-32828561D01*
X66605579Y-32752370D01*
X66681769Y-32714275D01*
X66796055Y-32714275D01*
X66872246Y-32752370D01*
X67253198Y-33247608D02*
X67253198Y-32447608D01*
X67596055Y-33247608D02*
X67596055Y-32828561D01*
X67557960Y-32752370D01*
X67481769Y-32714275D01*
X67367484Y-32714275D01*
X67291293Y-32752370D01*
X67253198Y-32790465D01*
X68281769Y-33209513D02*
X68205579Y-33247608D01*
X68053198Y-33247608D01*
X67977007Y-33209513D01*
X67938912Y-33133323D01*
X67938912Y-32828561D01*
X67977007Y-32752370D01*
X68053198Y-32714275D01*
X68205579Y-32714275D01*
X68281769Y-32752370D01*
X68319865Y-32828561D01*
X68319865Y-32904751D01*
X67938912Y-32980942D01*
X68777007Y-33247608D02*
X68700817Y-33209513D01*
X68662722Y-33133323D01*
X68662722Y-32447608D01*
X69196055Y-33247608D02*
X69119865Y-33209513D01*
X69081769Y-33133323D01*
X69081769Y-32447608D01*
D13*
X57794854Y-10209422D02*
X57794854Y-14179422D01*
D14*
X58704854Y-12189422D02*
G75*
G03X58704854Y-12189422I-3830000J0D01*
G01*
D15*
X57534854Y-12189422D02*
G75*
G03X57534854Y-12189422I-2660000J0D01*
G01*
X68534854Y-12189422D02*
G75*
G03X68534854Y-12189422I-2660000J0D01*
G01*
D14*
X69704854Y-12189422D02*
G75*
G03X69704854Y-12189422I-3830000J0D01*
G01*
D13*
X68794854Y-10209422D02*
X68794854Y-14179422D01*
D16*
X47196127Y-6455704D03*
X44150627Y-6455704D03*
X41105127Y-6455704D03*
X38059627Y-6455704D03*
X35014127Y-6455704D03*
X31968627Y-6455704D03*
X28923127Y-6455704D03*
X25877627Y-6455704D03*
X22832127Y-6455704D03*
X19786627Y-6455704D03*
X16741127Y-6455704D03*
X13695627Y-6455704D03*
X10650127Y-6455704D03*
X18261127Y-5415704D03*
X21306627Y-5415704D03*
X12170127Y-5415704D03*
X27397627Y-5415704D03*
X15215627Y-5415704D03*
X24352127Y-5415704D03*
X48716127Y-5415704D03*
X33488627Y-5415704D03*
X36534127Y-5415704D03*
X42625127Y-5415704D03*
X45670627Y-5415704D03*
X39579627Y-5415704D03*
X30443127Y-5415704D03*
X63943627Y-5415704D03*
X54807127Y-5415704D03*
X57852627Y-5415704D03*
X60898127Y-5415704D03*
X51761627Y-5415704D03*
X65469127Y-4355704D03*
X62423627Y-4355704D03*
X59378127Y-4355704D03*
X56332627Y-4355704D03*
X53287127Y-4355704D03*
X50241627Y-4355704D03*
X47196127Y-4355704D03*
X44150627Y-4355704D03*
X41105127Y-4355704D03*
X38059627Y-4355704D03*
X35014127Y-4355704D03*
X31968627Y-4355704D03*
X28923127Y-4355704D03*
X25877627Y-4355704D03*
X22832127Y-4355704D03*
X19786627Y-4355704D03*
X16741127Y-4355704D03*
X13695627Y-4355704D03*
X10650127Y-4355704D03*
D10*
G36*
X31891616Y-27484198D02*
X31903265Y-27485926D01*
X31914688Y-27488787D01*
X31925776Y-27492754D01*
X31936422Y-27497789D01*
X31946522Y-27503844D01*
X31955981Y-27510859D01*
X31964707Y-27518767D01*
X31972615Y-27527493D01*
X31979630Y-27536952D01*
X31985685Y-27547052D01*
X31990720Y-27557698D01*
X31994687Y-27568786D01*
X31997548Y-27580209D01*
X31999276Y-27591858D01*
X31999854Y-27603620D01*
X31999854Y-28563620D01*
X31999276Y-28575382D01*
X31997548Y-28587031D01*
X31994687Y-28598454D01*
X31990720Y-28609542D01*
X31985685Y-28620188D01*
X31979630Y-28630288D01*
X31972615Y-28639747D01*
X31964707Y-28648473D01*
X31955981Y-28656381D01*
X31946522Y-28663396D01*
X31936422Y-28669451D01*
X31925776Y-28674486D01*
X31914688Y-28678453D01*
X31903265Y-28681314D01*
X31891616Y-28683042D01*
X31879854Y-28683620D01*
X30919854Y-28683620D01*
X30908092Y-28683042D01*
X30896443Y-28681314D01*
X30885020Y-28678453D01*
X30873932Y-28674486D01*
X30863286Y-28669451D01*
X30853186Y-28663396D01*
X30843727Y-28656381D01*
X30835001Y-28648473D01*
X30827093Y-28639747D01*
X30820078Y-28630288D01*
X30814023Y-28620188D01*
X30808988Y-28609542D01*
X30805021Y-28598454D01*
X30802160Y-28587031D01*
X30800432Y-28575382D01*
X30799854Y-28563620D01*
X30799854Y-27603620D01*
X30800432Y-27591858D01*
X30802160Y-27580209D01*
X30805021Y-27568786D01*
X30808988Y-27557698D01*
X30814023Y-27547052D01*
X30820078Y-27536952D01*
X30827093Y-27527493D01*
X30835001Y-27518767D01*
X30843727Y-27510859D01*
X30853186Y-27503844D01*
X30863286Y-27497789D01*
X30873932Y-27492754D01*
X30885020Y-27488787D01*
X30896443Y-27485926D01*
X30908092Y-27484198D01*
X30919854Y-27483620D01*
X31879854Y-27483620D01*
X31891616Y-27484198D01*
X31891616Y-27484198D01*
G37*
D17*
X31399854Y-28083620D03*
D10*
G36*
X45201616Y-27474198D02*
X45213265Y-27475926D01*
X45224688Y-27478787D01*
X45235776Y-27482754D01*
X45246422Y-27487789D01*
X45256522Y-27493844D01*
X45265981Y-27500859D01*
X45274707Y-27508767D01*
X45282615Y-27517493D01*
X45289630Y-27526952D01*
X45295685Y-27537052D01*
X45300720Y-27547698D01*
X45304687Y-27558786D01*
X45307548Y-27570209D01*
X45309276Y-27581858D01*
X45309854Y-27593620D01*
X45309854Y-28553620D01*
X45309276Y-28565382D01*
X45307548Y-28577031D01*
X45304687Y-28588454D01*
X45300720Y-28599542D01*
X45295685Y-28610188D01*
X45289630Y-28620288D01*
X45282615Y-28629747D01*
X45274707Y-28638473D01*
X45265981Y-28646381D01*
X45256522Y-28653396D01*
X45246422Y-28659451D01*
X45235776Y-28664486D01*
X45224688Y-28668453D01*
X45213265Y-28671314D01*
X45201616Y-28673042D01*
X45189854Y-28673620D01*
X44229854Y-28673620D01*
X44218092Y-28673042D01*
X44206443Y-28671314D01*
X44195020Y-28668453D01*
X44183932Y-28664486D01*
X44173286Y-28659451D01*
X44163186Y-28653396D01*
X44153727Y-28646381D01*
X44145001Y-28638473D01*
X44137093Y-28629747D01*
X44130078Y-28620288D01*
X44124023Y-28610188D01*
X44118988Y-28599542D01*
X44115021Y-28588454D01*
X44112160Y-28577031D01*
X44110432Y-28565382D01*
X44109854Y-28553620D01*
X44109854Y-27593620D01*
X44110432Y-27581858D01*
X44112160Y-27570209D01*
X44115021Y-27558786D01*
X44118988Y-27547698D01*
X44124023Y-27537052D01*
X44130078Y-27526952D01*
X44137093Y-27517493D01*
X44145001Y-27508767D01*
X44153727Y-27500859D01*
X44163186Y-27493844D01*
X44173286Y-27487789D01*
X44183932Y-27482754D01*
X44195020Y-27478787D01*
X44206443Y-27475926D01*
X44218092Y-27474198D01*
X44229854Y-27473620D01*
X45189854Y-27473620D01*
X45201616Y-27474198D01*
X45201616Y-27474198D01*
G37*
D17*
X44709854Y-28073620D03*
D10*
G36*
X39125735Y-32103909D02*
X39131559Y-32104773D01*
X39137271Y-32106204D01*
X39142815Y-32108187D01*
X39148138Y-32110705D01*
X39153188Y-32113732D01*
X39157918Y-32117239D01*
X39162280Y-32121194D01*
X39166235Y-32125556D01*
X39169742Y-32130286D01*
X39172769Y-32135336D01*
X39175287Y-32140659D01*
X39177270Y-32146203D01*
X39178701Y-32151915D01*
X39179565Y-32157739D01*
X39179854Y-32163620D01*
X39179854Y-32643620D01*
X39179565Y-32649501D01*
X39178701Y-32655325D01*
X39177270Y-32661037D01*
X39175287Y-32666581D01*
X39172769Y-32671904D01*
X39169742Y-32676954D01*
X39166235Y-32681684D01*
X39162280Y-32686046D01*
X39157918Y-32690001D01*
X39153188Y-32693508D01*
X39148138Y-32696535D01*
X39142815Y-32699053D01*
X39137271Y-32701036D01*
X39131559Y-32702467D01*
X39125735Y-32703331D01*
X39119854Y-32703620D01*
X37039854Y-32703620D01*
X37033973Y-32703331D01*
X37028149Y-32702467D01*
X37022437Y-32701036D01*
X37016893Y-32699053D01*
X37011570Y-32696535D01*
X37006520Y-32693508D01*
X37001790Y-32690001D01*
X36997428Y-32686046D01*
X36993473Y-32681684D01*
X36989966Y-32676954D01*
X36986939Y-32671904D01*
X36984421Y-32666581D01*
X36982438Y-32661037D01*
X36981007Y-32655325D01*
X36980143Y-32649501D01*
X36979854Y-32643620D01*
X36979854Y-32163620D01*
X36980143Y-32157739D01*
X36981007Y-32151915D01*
X36982438Y-32146203D01*
X36984421Y-32140659D01*
X36986939Y-32135336D01*
X36989966Y-32130286D01*
X36993473Y-32125556D01*
X36997428Y-32121194D01*
X37001790Y-32117239D01*
X37006520Y-32113732D01*
X37011570Y-32110705D01*
X37016893Y-32108187D01*
X37022437Y-32106204D01*
X37028149Y-32104773D01*
X37033973Y-32103909D01*
X37039854Y-32103620D01*
X39119854Y-32103620D01*
X39125735Y-32103909D01*
X39125735Y-32103909D01*
G37*
D18*
X38079854Y-32403620D03*
D10*
G36*
X30891616Y-24596282D02*
X30903265Y-24598010D01*
X30914688Y-24600871D01*
X30925776Y-24604838D01*
X30936422Y-24609873D01*
X30946522Y-24615928D01*
X30955981Y-24622943D01*
X30964707Y-24630851D01*
X30972615Y-24639577D01*
X30979630Y-24649036D01*
X30985685Y-24659136D01*
X30990720Y-24669782D01*
X30994687Y-24680870D01*
X30997548Y-24692293D01*
X30999276Y-24703942D01*
X30999854Y-24715704D01*
X30999854Y-26675704D01*
X30999276Y-26687466D01*
X30997548Y-26699115D01*
X30994687Y-26710538D01*
X30990720Y-26721626D01*
X30985685Y-26732272D01*
X30979630Y-26742372D01*
X30972615Y-26751831D01*
X30964707Y-26760557D01*
X30955981Y-26768465D01*
X30946522Y-26775480D01*
X30936422Y-26781535D01*
X30925776Y-26786570D01*
X30914688Y-26790537D01*
X30903265Y-26793398D01*
X30891616Y-26795126D01*
X30879854Y-26795704D01*
X29919854Y-26795704D01*
X29908092Y-26795126D01*
X29896443Y-26793398D01*
X29885020Y-26790537D01*
X29873932Y-26786570D01*
X29863286Y-26781535D01*
X29853186Y-26775480D01*
X29843727Y-26768465D01*
X29835001Y-26760557D01*
X29827093Y-26751831D01*
X29820078Y-26742372D01*
X29814023Y-26732272D01*
X29808988Y-26721626D01*
X29805021Y-26710538D01*
X29802160Y-26699115D01*
X29800432Y-26687466D01*
X29799854Y-26675704D01*
X29799854Y-24715704D01*
X29800432Y-24703942D01*
X29802160Y-24692293D01*
X29805021Y-24680870D01*
X29808988Y-24669782D01*
X29814023Y-24659136D01*
X29820078Y-24649036D01*
X29827093Y-24639577D01*
X29835001Y-24630851D01*
X29843727Y-24622943D01*
X29853186Y-24615928D01*
X29863286Y-24609873D01*
X29873932Y-24604838D01*
X29885020Y-24600871D01*
X29896443Y-24598010D01*
X29908092Y-24596282D01*
X29919854Y-24595704D01*
X30879854Y-24595704D01*
X30891616Y-24596282D01*
X30891616Y-24596282D01*
G37*
D17*
X30399854Y-25695704D03*
D10*
G36*
X45841616Y-24591283D02*
X45853265Y-24593011D01*
X45864688Y-24595872D01*
X45875776Y-24599839D01*
X45886422Y-24604874D01*
X45896522Y-24610929D01*
X45905981Y-24617944D01*
X45914707Y-24625852D01*
X45922615Y-24634578D01*
X45929630Y-24644037D01*
X45935685Y-24654137D01*
X45940720Y-24664783D01*
X45944687Y-24675871D01*
X45947548Y-24687294D01*
X45949276Y-24698943D01*
X45949854Y-24710705D01*
X45949854Y-26670705D01*
X45949276Y-26682467D01*
X45947548Y-26694116D01*
X45944687Y-26705539D01*
X45940720Y-26716627D01*
X45935685Y-26727273D01*
X45929630Y-26737373D01*
X45922615Y-26746832D01*
X45914707Y-26755558D01*
X45905981Y-26763466D01*
X45896522Y-26770481D01*
X45886422Y-26776536D01*
X45875776Y-26781571D01*
X45864688Y-26785538D01*
X45853265Y-26788399D01*
X45841616Y-26790127D01*
X45829854Y-26790705D01*
X44869854Y-26790705D01*
X44858092Y-26790127D01*
X44846443Y-26788399D01*
X44835020Y-26785538D01*
X44823932Y-26781571D01*
X44813286Y-26776536D01*
X44803186Y-26770481D01*
X44793727Y-26763466D01*
X44785001Y-26755558D01*
X44777093Y-26746832D01*
X44770078Y-26737373D01*
X44764023Y-26727273D01*
X44758988Y-26716627D01*
X44755021Y-26705539D01*
X44752160Y-26694116D01*
X44750432Y-26682467D01*
X44749854Y-26670705D01*
X44749854Y-24710705D01*
X44750432Y-24698943D01*
X44752160Y-24687294D01*
X44755021Y-24675871D01*
X44758988Y-24664783D01*
X44764023Y-24654137D01*
X44770078Y-24644037D01*
X44777093Y-24634578D01*
X44785001Y-24625852D01*
X44793727Y-24617944D01*
X44803186Y-24610929D01*
X44813286Y-24604874D01*
X44823932Y-24599839D01*
X44835020Y-24595872D01*
X44846443Y-24593011D01*
X44858092Y-24591283D01*
X44869854Y-24590705D01*
X45829854Y-24590705D01*
X45841616Y-24591283D01*
X45841616Y-24591283D01*
G37*
D17*
X45349854Y-25690705D03*
D19*
G36*
X70839362Y-812594D02*
X70583603Y-2708738D01*
X4803355Y-2728665D01*
X4829921Y-762799D01*
X70839362Y-812594D01*
X70839362Y-812594D01*
G37*
X70839362Y-812594D02*
X70583603Y-2708738D01*
X4803355Y-2728665D01*
X4829921Y-762799D01*
X70839362Y-812594D01*
G36*
X70137051Y-35838664D02*
X5941044Y-35818743D01*
X5932214Y-33902664D01*
X70128200Y-33882743D01*
X70137051Y-35838664D01*
X70137051Y-35838664D01*
G37*
X70137051Y-35838664D02*
X5941044Y-35818743D01*
X5932214Y-33902664D01*
X70128200Y-33882743D01*
X70137051Y-35838664D01*
G36*
X76057670Y-10533314D02*
X75821127Y-10848704D01*
X75124627Y-10848704D01*
X75076026Y-10858371D01*
X75034824Y-10885901D01*
X75007294Y-10927103D01*
X74997627Y-10975443D01*
X74967627Y-25575443D01*
X74977195Y-25624064D01*
X75004640Y-25665322D01*
X75045785Y-25692937D01*
X75094627Y-25702704D01*
X75832021Y-25702704D01*
X76057627Y-25928310D01*
X76057627Y-35848704D01*
X70051051Y-35848704D01*
X70041627Y-33775347D01*
X70041627Y-31618037D01*
X70116977Y-31517570D01*
X70172181Y-31492092D01*
X70278067Y-31527387D01*
X70871180Y-32083431D01*
X70951855Y-32388202D01*
X70987673Y-32448268D01*
X71317673Y-32758268D01*
X71356423Y-32783200D01*
X71746423Y-32943200D01*
X71794627Y-32952704D01*
X72174627Y-32952704D01*
X72237995Y-32935765D01*
X72567995Y-32745765D01*
X72588774Y-32730827D01*
X72848774Y-32500827D01*
X72881942Y-32454347D01*
X73051942Y-32044347D01*
X73061572Y-31991970D01*
X73051572Y-31651970D01*
X73042789Y-31609155D01*
X72912789Y-31279155D01*
X72887692Y-31239287D01*
X72627692Y-30959287D01*
X72585374Y-30929284D01*
X72216926Y-30768678D01*
X71649166Y-30210226D01*
X71609229Y-30050479D01*
X71659880Y-29949178D01*
X71806621Y-29872314D01*
X73376214Y-29852694D01*
X73424691Y-29842420D01*
X73465545Y-29814377D01*
X73492558Y-29772834D01*
X73501627Y-29725704D01*
X73501627Y-27825704D01*
X73491960Y-27777103D01*
X73464430Y-27735901D01*
X73423228Y-27708371D01*
X73376176Y-27698713D01*
X71041693Y-27670244D01*
X71051561Y-8940624D01*
X73346726Y-8902687D01*
X73395160Y-8892217D01*
X73435901Y-8864010D01*
X73462747Y-8822359D01*
X73471625Y-8776365D01*
X73481625Y-6856365D01*
X73472211Y-6807715D01*
X73444896Y-6766370D01*
X73403838Y-6738626D01*
X73355374Y-6728706D01*
X71704814Y-6718997D01*
X71615266Y-6635845D01*
X71569705Y-6556113D01*
X71590104Y-6469418D01*
X72155485Y-5894769D01*
X72449220Y-5784618D01*
X72492036Y-5757838D01*
X72882036Y-5387838D01*
X72915370Y-5335077D01*
X73065370Y-4875077D01*
X73067415Y-4803269D01*
X72927415Y-4273269D01*
X72895619Y-4217107D01*
X72525619Y-3837107D01*
X72484788Y-3809030D01*
X72456573Y-3800614D01*
X71886573Y-3700614D01*
X71833825Y-3702496D01*
X71473825Y-3792496D01*
X71423324Y-3818140D01*
X71063324Y-4118140D01*
X71027664Y-4166220D01*
X70819192Y-4658972D01*
X70267688Y-5135696D01*
X70218390Y-5155415D01*
X70140715Y-5145058D01*
X70083867Y-5093379D01*
X70031525Y-4943828D01*
X70021640Y-2868003D01*
X70106444Y-804444D01*
X71392826Y-822691D01*
X71395421Y-822702D01*
X76067498Y-793502D01*
X76057670Y-10533314D01*
X76057670Y-10533314D01*
G37*
X76057670Y-10533314D02*
X75821127Y-10848704D01*
X75124627Y-10848704D01*
X75076026Y-10858371D01*
X75034824Y-10885901D01*
X75007294Y-10927103D01*
X74997627Y-10975443D01*
X74967627Y-25575443D01*
X74977195Y-25624064D01*
X75004640Y-25665322D01*
X75045785Y-25692937D01*
X75094627Y-25702704D01*
X75832021Y-25702704D01*
X76057627Y-25928310D01*
X76057627Y-35848704D01*
X70051051Y-35848704D01*
X70041627Y-33775347D01*
X70041627Y-31618037D01*
X70116977Y-31517570D01*
X70172181Y-31492092D01*
X70278067Y-31527387D01*
X70871180Y-32083431D01*
X70951855Y-32388202D01*
X70987673Y-32448268D01*
X71317673Y-32758268D01*
X71356423Y-32783200D01*
X71746423Y-32943200D01*
X71794627Y-32952704D01*
X72174627Y-32952704D01*
X72237995Y-32935765D01*
X72567995Y-32745765D01*
X72588774Y-32730827D01*
X72848774Y-32500827D01*
X72881942Y-32454347D01*
X73051942Y-32044347D01*
X73061572Y-31991970D01*
X73051572Y-31651970D01*
X73042789Y-31609155D01*
X72912789Y-31279155D01*
X72887692Y-31239287D01*
X72627692Y-30959287D01*
X72585374Y-30929284D01*
X72216926Y-30768678D01*
X71649166Y-30210226D01*
X71609229Y-30050479D01*
X71659880Y-29949178D01*
X71806621Y-29872314D01*
X73376214Y-29852694D01*
X73424691Y-29842420D01*
X73465545Y-29814377D01*
X73492558Y-29772834D01*
X73501627Y-29725704D01*
X73501627Y-27825704D01*
X73491960Y-27777103D01*
X73464430Y-27735901D01*
X73423228Y-27708371D01*
X73376176Y-27698713D01*
X71041693Y-27670244D01*
X71051561Y-8940624D01*
X73346726Y-8902687D01*
X73395160Y-8892217D01*
X73435901Y-8864010D01*
X73462747Y-8822359D01*
X73471625Y-8776365D01*
X73481625Y-6856365D01*
X73472211Y-6807715D01*
X73444896Y-6766370D01*
X73403838Y-6738626D01*
X73355374Y-6728706D01*
X71704814Y-6718997D01*
X71615266Y-6635845D01*
X71569705Y-6556113D01*
X71590104Y-6469418D01*
X72155485Y-5894769D01*
X72449220Y-5784618D01*
X72492036Y-5757838D01*
X72882036Y-5387838D01*
X72915370Y-5335077D01*
X73065370Y-4875077D01*
X73067415Y-4803269D01*
X72927415Y-4273269D01*
X72895619Y-4217107D01*
X72525619Y-3837107D01*
X72484788Y-3809030D01*
X72456573Y-3800614D01*
X71886573Y-3700614D01*
X71833825Y-3702496D01*
X71473825Y-3792496D01*
X71423324Y-3818140D01*
X71063324Y-4118140D01*
X71027664Y-4166220D01*
X70819192Y-4658972D01*
X70267688Y-5135696D01*
X70218390Y-5155415D01*
X70140715Y-5145058D01*
X70083867Y-5093379D01*
X70031525Y-4943828D01*
X70021640Y-2868003D01*
X70106444Y-804444D01*
X71392826Y-822691D01*
X71395421Y-822702D01*
X76067498Y-793502D01*
X76057670Y-10533314D01*
G36*
X5877627Y-2806061D02*
X5877627Y-4963370D01*
X5802276Y-5063839D01*
X5747073Y-5089318D01*
X5641187Y-5054021D01*
X5048074Y-4497975D01*
X4967398Y-4193205D01*
X4931581Y-4133140D01*
X4601581Y-3823140D01*
X4562831Y-3798208D01*
X4172831Y-3638208D01*
X4124627Y-3628704D01*
X3744627Y-3628704D01*
X3681259Y-3645643D01*
X3351259Y-3835643D01*
X3330480Y-3850581D01*
X3070481Y-4080580D01*
X3037313Y-4127060D01*
X2867312Y-4537061D01*
X2857682Y-4589438D01*
X2867682Y-4929438D01*
X2876465Y-4972252D01*
X3006464Y-5302253D01*
X3031562Y-5342123D01*
X3291563Y-5622122D01*
X3333880Y-5652125D01*
X3702331Y-5812731D01*
X4270089Y-6371184D01*
X4310024Y-6530928D01*
X4259373Y-6632230D01*
X4112634Y-6709094D01*
X2543040Y-6728714D01*
X2494563Y-6738988D01*
X2453709Y-6767031D01*
X2426696Y-6808574D01*
X2417627Y-6855704D01*
X2417628Y-8755704D01*
X2427295Y-8804305D01*
X2454825Y-8845507D01*
X2496027Y-8873037D01*
X2543079Y-8882695D01*
X4877562Y-8911166D01*
X4867693Y-27640784D01*
X2572529Y-27678721D01*
X2524095Y-27689191D01*
X2483354Y-27717398D01*
X2456508Y-27759049D01*
X2447630Y-27805042D01*
X2437629Y-29725042D01*
X2447043Y-29773693D01*
X2474358Y-29815038D01*
X2515416Y-29842782D01*
X2563880Y-29852702D01*
X4214440Y-29862410D01*
X4303988Y-29945563D01*
X4349549Y-30025295D01*
X4329150Y-30111990D01*
X3763769Y-30686640D01*
X3470035Y-30796790D01*
X3427218Y-30823570D01*
X3037218Y-31193570D01*
X3003884Y-31246331D01*
X2853884Y-31706331D01*
X2851839Y-31778139D01*
X2991839Y-32308139D01*
X3023635Y-32364301D01*
X3393635Y-32744301D01*
X3434466Y-32772378D01*
X3462681Y-32780794D01*
X4032681Y-32880794D01*
X4085429Y-32878912D01*
X4445429Y-32788912D01*
X4495930Y-32763268D01*
X4855930Y-32463268D01*
X4891590Y-32415188D01*
X5100063Y-31922434D01*
X5651567Y-31445711D01*
X5700863Y-31425993D01*
X5778539Y-31436350D01*
X5835387Y-31488029D01*
X5887729Y-31637580D01*
X5897614Y-33713405D01*
X5812713Y-35779322D01*
X3964376Y-35788704D01*
X-148245Y-35788704D01*
X-138416Y-26048094D01*
X98127Y-25732704D01*
X794627Y-25732705D01*
X843228Y-25723038D01*
X884429Y-25695508D01*
X911960Y-25654306D01*
X921627Y-25605966D01*
X951627Y-11005965D01*
X942059Y-10957344D01*
X914614Y-10916086D01*
X873469Y-10888471D01*
X824627Y-10878704D01*
X87233Y-10878704D01*
X-138373Y-10653098D01*
X-138375Y-732705D01*
X5868201Y-732705D01*
X5877627Y-2806061D01*
X5877627Y-2806061D01*
G37*
X5877627Y-2806061D02*
X5877627Y-4963370D01*
X5802276Y-5063839D01*
X5747073Y-5089318D01*
X5641187Y-5054021D01*
X5048074Y-4497975D01*
X4967398Y-4193205D01*
X4931581Y-4133140D01*
X4601581Y-3823140D01*
X4562831Y-3798208D01*
X4172831Y-3638208D01*
X4124627Y-3628704D01*
X3744627Y-3628704D01*
X3681259Y-3645643D01*
X3351259Y-3835643D01*
X3330480Y-3850581D01*
X3070481Y-4080580D01*
X3037313Y-4127060D01*
X2867312Y-4537061D01*
X2857682Y-4589438D01*
X2867682Y-4929438D01*
X2876465Y-4972252D01*
X3006464Y-5302253D01*
X3031562Y-5342123D01*
X3291563Y-5622122D01*
X3333880Y-5652125D01*
X3702331Y-5812731D01*
X4270089Y-6371184D01*
X4310024Y-6530928D01*
X4259373Y-6632230D01*
X4112634Y-6709094D01*
X2543040Y-6728714D01*
X2494563Y-6738988D01*
X2453709Y-6767031D01*
X2426696Y-6808574D01*
X2417627Y-6855704D01*
X2417628Y-8755704D01*
X2427295Y-8804305D01*
X2454825Y-8845507D01*
X2496027Y-8873037D01*
X2543079Y-8882695D01*
X4877562Y-8911166D01*
X4867693Y-27640784D01*
X2572529Y-27678721D01*
X2524095Y-27689191D01*
X2483354Y-27717398D01*
X2456508Y-27759049D01*
X2447630Y-27805042D01*
X2437629Y-29725042D01*
X2447043Y-29773693D01*
X2474358Y-29815038D01*
X2515416Y-29842782D01*
X2563880Y-29852702D01*
X4214440Y-29862410D01*
X4303988Y-29945563D01*
X4349549Y-30025295D01*
X4329150Y-30111990D01*
X3763769Y-30686640D01*
X3470035Y-30796790D01*
X3427218Y-30823570D01*
X3037218Y-31193570D01*
X3003884Y-31246331D01*
X2853884Y-31706331D01*
X2851839Y-31778139D01*
X2991839Y-32308139D01*
X3023635Y-32364301D01*
X3393635Y-32744301D01*
X3434466Y-32772378D01*
X3462681Y-32780794D01*
X4032681Y-32880794D01*
X4085429Y-32878912D01*
X4445429Y-32788912D01*
X4495930Y-32763268D01*
X4855930Y-32463268D01*
X4891590Y-32415188D01*
X5100063Y-31922434D01*
X5651567Y-31445711D01*
X5700863Y-31425993D01*
X5778539Y-31436350D01*
X5835387Y-31488029D01*
X5887729Y-31637580D01*
X5897614Y-33713405D01*
X5812713Y-35779322D01*
X3964376Y-35788704D01*
X-148245Y-35788704D01*
X-138416Y-26048094D01*
X98127Y-25732704D01*
X794627Y-25732705D01*
X843228Y-25723038D01*
X884429Y-25695508D01*
X911960Y-25654306D01*
X921627Y-25605966D01*
X951627Y-11005965D01*
X942059Y-10957344D01*
X914614Y-10916086D01*
X873469Y-10888471D01*
X824627Y-10878704D01*
X87233Y-10878704D01*
X-138373Y-10653098D01*
X-138375Y-732705D01*
X5868201Y-732705D01*
X5877627Y-2806061D01*
M02*
