M48
;DRILL file {KiCad (2016-10-28 revision 192d4b8)-makepkg} date 11/04/16 19:07:26
;FORMAT={2:4/ absolute / inch / keep zeros}
FMAT,2
INCH,TZ
T1C0.018
T2C0.039
%
G90
G05
M72
T1
X020089Y-004799
X020292Y-004041
X020292Y-005557
X020846Y-003486
X020846Y-006112
X021604Y-003283
X021604Y-006315
X022362Y-003486
X022362Y-006112
X022917Y-004041
X022917Y-005557
X022923Y-004799
X024419Y-004799
X024622Y-004041
X024622Y-005557
X025177Y-003486
X025177Y-006112
X025935Y-003283
X025935Y-006315
X026693Y-003486
X026693Y-006112
X027248Y-004041
X027248Y-005557
X027254Y-004799
T2
X004193Y-001715
X004193Y-002542
X004791Y-002132
X005392Y-001715
X005392Y-002542
X005990Y-002132
X006591Y-001715
X006591Y-002542
X007189Y-002132
X007790Y-001715
X007790Y-002542
X008388Y-002132
X008989Y-001715
X008989Y-002542
X009587Y-002132
X010188Y-001715
X010188Y-002542
X010786Y-002132
X011387Y-001715
X011387Y-002542
X011985Y-002132
X012586Y-001715
X012586Y-002542
X013184Y-002132
X013785Y-001715
X013785Y-002542
X014384Y-002132
X014984Y-001715
X014984Y-002542
X015583Y-002132
X016183Y-001715
X016183Y-002542
X016782Y-002132
X017382Y-001715
X017382Y-002542
X017981Y-002132
X018581Y-001715
X018581Y-002542
X019180Y-002132
X019780Y-001715
X020379Y-002132
X020979Y-001715
X021578Y-002132
X022178Y-001715
X022777Y-002132
X023377Y-001715
X023976Y-002132
X024576Y-001715
X025175Y-002132
X025775Y-001715
T0
M30
