G04 #@! TF.FileFunction,Copper,L2,Bot,Signal*
%FSLAX46Y46*%
G04 Gerber Fmt 4.6, Leading zero omitted, Abs format (unit mm)*
G04 Created by KiCad (PCBNEW (2016-09-17 revision 679eef1)-makepkg) date 09/24/16 15:44:39*
%MOMM*%
%LPD*%
G01*
G04 APERTURE LIST*
%ADD10C,0.150000*%
%ADD11C,0.254000*%
G04 APERTURE END LIST*
D10*
G36*
X7227841Y-500385D02*
X7235607Y-501537D01*
X7243223Y-503445D01*
X7250615Y-506090D01*
X7257712Y-509446D01*
X7264446Y-513482D01*
X7270751Y-518159D01*
X7276569Y-523431D01*
X7281841Y-529249D01*
X7286518Y-535554D01*
X7290554Y-542288D01*
X7293910Y-549385D01*
X7296555Y-556777D01*
X7298463Y-564393D01*
X7299615Y-572159D01*
X7300000Y-580000D01*
X7300000Y-1220000D01*
X7299615Y-1227841D01*
X7298463Y-1235607D01*
X7296555Y-1243223D01*
X7293910Y-1250615D01*
X7290554Y-1257712D01*
X7286518Y-1264446D01*
X7281841Y-1270751D01*
X7276569Y-1276569D01*
X7270751Y-1281841D01*
X7264446Y-1286518D01*
X7257712Y-1290554D01*
X7250615Y-1293910D01*
X7243223Y-1296555D01*
X7235607Y-1298463D01*
X7227841Y-1299615D01*
X7220000Y-1300000D01*
X5180000Y-1300000D01*
X5172159Y-1299615D01*
X5164393Y-1298463D01*
X5156777Y-1296555D01*
X5149385Y-1293910D01*
X5142288Y-1290554D01*
X5135554Y-1286518D01*
X5129249Y-1281841D01*
X5123431Y-1276569D01*
X5118159Y-1270751D01*
X5113482Y-1264446D01*
X5109446Y-1257712D01*
X5106090Y-1250615D01*
X5103445Y-1243223D01*
X5101537Y-1235607D01*
X5100385Y-1227841D01*
X5100000Y-1220000D01*
X5100000Y-580000D01*
X5100385Y-572159D01*
X5101537Y-564393D01*
X5103445Y-556777D01*
X5106090Y-549385D01*
X5109446Y-542288D01*
X5113482Y-535554D01*
X5118159Y-529249D01*
X5123431Y-523431D01*
X5129249Y-518159D01*
X5135554Y-513482D01*
X5142288Y-509446D01*
X5149385Y-506090D01*
X5156777Y-503445D01*
X5164393Y-501537D01*
X5172159Y-500385D01*
X5180000Y-500000D01*
X7220000Y-500000D01*
X7227841Y-500385D01*
X7227841Y-500385D01*
G37*
D11*
G36*
X12333000Y-4332567D02*
X12305210Y-4472278D01*
X12235943Y-4575943D01*
X12132278Y-4645210D01*
X11992567Y-4673000D01*
X777433Y-4673000D01*
X637722Y-4645210D01*
X534057Y-4575943D01*
X464790Y-4472278D01*
X437000Y-4332567D01*
X437000Y-427000D01*
X12333000Y-427000D01*
X12333000Y-4332567D01*
X12333000Y-4332567D01*
G37*
X12333000Y-4332567D02*
X12305210Y-4472278D01*
X12235943Y-4575943D01*
X12132278Y-4645210D01*
X11992567Y-4673000D01*
X777433Y-4673000D01*
X637722Y-4645210D01*
X534057Y-4575943D01*
X464790Y-4472278D01*
X437000Y-4332567D01*
X437000Y-427000D01*
X12333000Y-427000D01*
X12333000Y-4332567D01*
M02*
