G04 #@! TF.FileFunction,Copper,L1,Top,Signal*
%FSLAX46Y46*%
G04 Gerber Fmt 4.6, Leading zero omitted, Abs format (unit mm)*
G04 Created by KiCad (PCBNEW (2016-09-17 revision 679eef1)-makepkg) date 09/24/16 15:44:39*
%MOMM*%
%LPD*%
G01*
G04 APERTURE LIST*
%ADD10C,0.150000*%
%ADD11C,0.254000*%
G04 APERTURE END LIST*
D10*
G36*
X1311762Y-200578D02*
X1323411Y-202306D01*
X1334834Y-205167D01*
X1345922Y-209134D01*
X1356568Y-214169D01*
X1366668Y-220224D01*
X1376127Y-227239D01*
X1384853Y-235147D01*
X1392761Y-243873D01*
X1399776Y-253332D01*
X1405831Y-263432D01*
X1410866Y-274078D01*
X1414833Y-285166D01*
X1417694Y-296589D01*
X1419422Y-308238D01*
X1420000Y-320000D01*
X1420000Y-1280000D01*
X1419422Y-1291762D01*
X1417694Y-1303411D01*
X1414833Y-1314834D01*
X1410866Y-1325922D01*
X1405831Y-1336568D01*
X1399776Y-1346668D01*
X1392761Y-1356127D01*
X1384853Y-1364853D01*
X1376127Y-1372761D01*
X1366668Y-1379776D01*
X1356568Y-1385831D01*
X1345922Y-1390866D01*
X1334834Y-1394833D01*
X1323411Y-1397694D01*
X1311762Y-1399422D01*
X1300000Y-1400000D01*
X340000Y-1400000D01*
X328238Y-1399422D01*
X316589Y-1397694D01*
X305166Y-1394833D01*
X294078Y-1390866D01*
X283432Y-1385831D01*
X273332Y-1379776D01*
X263873Y-1372761D01*
X255147Y-1364853D01*
X247239Y-1356127D01*
X240224Y-1346668D01*
X234169Y-1336568D01*
X229134Y-1325922D01*
X225167Y-1314834D01*
X222306Y-1303411D01*
X220578Y-1291762D01*
X220000Y-1280000D01*
X220000Y-320000D01*
X220578Y-308238D01*
X222306Y-296589D01*
X225167Y-285166D01*
X229134Y-274078D01*
X234169Y-263432D01*
X240224Y-253332D01*
X247239Y-243873D01*
X255147Y-235147D01*
X263873Y-227239D01*
X273332Y-220224D01*
X283432Y-214169D01*
X294078Y-209134D01*
X305166Y-205167D01*
X316589Y-202306D01*
X328238Y-200578D01*
X340000Y-200000D01*
X1300000Y-200000D01*
X1311762Y-200578D01*
X1311762Y-200578D01*
G37*
G36*
X12451762Y-200578D02*
X12463411Y-202306D01*
X12474834Y-205167D01*
X12485922Y-209134D01*
X12496568Y-214169D01*
X12506668Y-220224D01*
X12516127Y-227239D01*
X12524853Y-235147D01*
X12532761Y-243873D01*
X12539776Y-253332D01*
X12545831Y-263432D01*
X12550866Y-274078D01*
X12554833Y-285166D01*
X12557694Y-296589D01*
X12559422Y-308238D01*
X12560000Y-320000D01*
X12560000Y-1280000D01*
X12559422Y-1291762D01*
X12557694Y-1303411D01*
X12554833Y-1314834D01*
X12550866Y-1325922D01*
X12545831Y-1336568D01*
X12539776Y-1346668D01*
X12532761Y-1356127D01*
X12524853Y-1364853D01*
X12516127Y-1372761D01*
X12506668Y-1379776D01*
X12496568Y-1385831D01*
X12485922Y-1390866D01*
X12474834Y-1394833D01*
X12463411Y-1397694D01*
X12451762Y-1399422D01*
X12440000Y-1400000D01*
X11480000Y-1400000D01*
X11468238Y-1399422D01*
X11456589Y-1397694D01*
X11445166Y-1394833D01*
X11434078Y-1390866D01*
X11423432Y-1385831D01*
X11413332Y-1379776D01*
X11403873Y-1372761D01*
X11395147Y-1364853D01*
X11387239Y-1356127D01*
X11380224Y-1346668D01*
X11374169Y-1336568D01*
X11369134Y-1325922D01*
X11365167Y-1314834D01*
X11362306Y-1303411D01*
X11360578Y-1291762D01*
X11360000Y-1280000D01*
X11360000Y-320000D01*
X11360578Y-308238D01*
X11362306Y-296589D01*
X11365167Y-285166D01*
X11369134Y-274078D01*
X11374169Y-263432D01*
X11380224Y-253332D01*
X11387239Y-243873D01*
X11395147Y-235147D01*
X11403873Y-227239D01*
X11413332Y-220224D01*
X11423432Y-214169D01*
X11434078Y-209134D01*
X11445166Y-205167D01*
X11456589Y-202306D01*
X11468238Y-200578D01*
X11480000Y-200000D01*
X12440000Y-200000D01*
X12451762Y-200578D01*
X12451762Y-200578D01*
G37*
G36*
X7317841Y-4100385D02*
X7325607Y-4101537D01*
X7333223Y-4103445D01*
X7340615Y-4106090D01*
X7347712Y-4109446D01*
X7354446Y-4113482D01*
X7360751Y-4118159D01*
X7366569Y-4123431D01*
X7371841Y-4129249D01*
X7376518Y-4135554D01*
X7380554Y-4142288D01*
X7383910Y-4149385D01*
X7386555Y-4156777D01*
X7388463Y-4164393D01*
X7389615Y-4172159D01*
X7390000Y-4180000D01*
X7390000Y-4820000D01*
X7389615Y-4827841D01*
X7388463Y-4835607D01*
X7386555Y-4843223D01*
X7383910Y-4850615D01*
X7380554Y-4857712D01*
X7376518Y-4864446D01*
X7371841Y-4870751D01*
X7366569Y-4876569D01*
X7360751Y-4881841D01*
X7354446Y-4886518D01*
X7347712Y-4890554D01*
X7340615Y-4893910D01*
X7333223Y-4896555D01*
X7325607Y-4898463D01*
X7317841Y-4899615D01*
X7310000Y-4900000D01*
X5270000Y-4900000D01*
X5262159Y-4899615D01*
X5254393Y-4898463D01*
X5246777Y-4896555D01*
X5239385Y-4893910D01*
X5232288Y-4890554D01*
X5225554Y-4886518D01*
X5219249Y-4881841D01*
X5213431Y-4876569D01*
X5208159Y-4870751D01*
X5203482Y-4864446D01*
X5199446Y-4857712D01*
X5196090Y-4850615D01*
X5193445Y-4843223D01*
X5191537Y-4835607D01*
X5190385Y-4827841D01*
X5190000Y-4820000D01*
X5190000Y-4180000D01*
X5190385Y-4172159D01*
X5191537Y-4164393D01*
X5193445Y-4156777D01*
X5196090Y-4149385D01*
X5199446Y-4142288D01*
X5203482Y-4135554D01*
X5208159Y-4129249D01*
X5213431Y-4123431D01*
X5219249Y-4118159D01*
X5225554Y-4113482D01*
X5232288Y-4109446D01*
X5239385Y-4106090D01*
X5246777Y-4103445D01*
X5254393Y-4101537D01*
X5262159Y-4100385D01*
X5270000Y-4100000D01*
X7310000Y-4100000D01*
X7317841Y-4100385D01*
X7317841Y-4100385D01*
G37*
D11*
G36*
X10933000Y-570250D02*
X11039750Y-677000D01*
X11837000Y-677000D01*
X11837000Y-657000D01*
X12083000Y-657000D01*
X12083000Y-677000D01*
X12103000Y-677000D01*
X12103000Y-923000D01*
X12083000Y-923000D01*
X12083000Y-1720250D01*
X12189750Y-1827000D01*
X12333000Y-1827000D01*
X12333000Y-4332567D01*
X12305210Y-4472278D01*
X12235943Y-4575943D01*
X12132278Y-4645210D01*
X11992567Y-4673000D01*
X8010250Y-4673000D01*
X7860250Y-4523000D01*
X6313000Y-4523000D01*
X6313000Y-4543000D01*
X6267000Y-4543000D01*
X6267000Y-4523000D01*
X4719750Y-4523000D01*
X4569750Y-4673000D01*
X777433Y-4673000D01*
X637722Y-4645210D01*
X534057Y-4575943D01*
X464790Y-4472278D01*
X437000Y-4332567D01*
X437000Y-3975282D01*
X4563000Y-3975282D01*
X4563000Y-4320250D01*
X4719750Y-4477000D01*
X6267000Y-4477000D01*
X6267000Y-3629750D01*
X6313000Y-3629750D01*
X6313000Y-4477000D01*
X7860250Y-4477000D01*
X8017000Y-4320250D01*
X8017000Y-3975282D01*
X7921545Y-3744833D01*
X7745167Y-3568455D01*
X7514718Y-3473000D01*
X6469750Y-3473000D01*
X6313000Y-3629750D01*
X6267000Y-3629750D01*
X6110250Y-3473000D01*
X5065282Y-3473000D01*
X4834833Y-3568455D01*
X4658455Y-3744833D01*
X4563000Y-3975282D01*
X437000Y-3975282D01*
X437000Y-1827000D01*
X590250Y-1827000D01*
X697000Y-1720250D01*
X697000Y-923000D01*
X943000Y-923000D01*
X943000Y-1720250D01*
X1049750Y-1827000D01*
X1504935Y-1827000D01*
X1661876Y-1761993D01*
X1781993Y-1641876D01*
X1847000Y-1484936D01*
X1847000Y-1029750D01*
X10933000Y-1029750D01*
X10933000Y-1484936D01*
X10998007Y-1641876D01*
X11118124Y-1761993D01*
X11275065Y-1827000D01*
X11730250Y-1827000D01*
X11837000Y-1720250D01*
X11837000Y-923000D01*
X11039750Y-923000D01*
X10933000Y-1029750D01*
X1847000Y-1029750D01*
X1740250Y-923000D01*
X943000Y-923000D01*
X697000Y-923000D01*
X677000Y-923000D01*
X677000Y-677000D01*
X697000Y-677000D01*
X697000Y-657000D01*
X943000Y-657000D01*
X943000Y-677000D01*
X1740250Y-677000D01*
X1847000Y-570250D01*
X1847000Y-427000D01*
X10933000Y-427000D01*
X10933000Y-570250D01*
X10933000Y-570250D01*
G37*
X10933000Y-570250D02*
X11039750Y-677000D01*
X11837000Y-677000D01*
X11837000Y-657000D01*
X12083000Y-657000D01*
X12083000Y-677000D01*
X12103000Y-677000D01*
X12103000Y-923000D01*
X12083000Y-923000D01*
X12083000Y-1720250D01*
X12189750Y-1827000D01*
X12333000Y-1827000D01*
X12333000Y-4332567D01*
X12305210Y-4472278D01*
X12235943Y-4575943D01*
X12132278Y-4645210D01*
X11992567Y-4673000D01*
X8010250Y-4673000D01*
X7860250Y-4523000D01*
X6313000Y-4523000D01*
X6313000Y-4543000D01*
X6267000Y-4543000D01*
X6267000Y-4523000D01*
X4719750Y-4523000D01*
X4569750Y-4673000D01*
X777433Y-4673000D01*
X637722Y-4645210D01*
X534057Y-4575943D01*
X464790Y-4472278D01*
X437000Y-4332567D01*
X437000Y-3975282D01*
X4563000Y-3975282D01*
X4563000Y-4320250D01*
X4719750Y-4477000D01*
X6267000Y-4477000D01*
X6267000Y-3629750D01*
X6313000Y-3629750D01*
X6313000Y-4477000D01*
X7860250Y-4477000D01*
X8017000Y-4320250D01*
X8017000Y-3975282D01*
X7921545Y-3744833D01*
X7745167Y-3568455D01*
X7514718Y-3473000D01*
X6469750Y-3473000D01*
X6313000Y-3629750D01*
X6267000Y-3629750D01*
X6110250Y-3473000D01*
X5065282Y-3473000D01*
X4834833Y-3568455D01*
X4658455Y-3744833D01*
X4563000Y-3975282D01*
X437000Y-3975282D01*
X437000Y-1827000D01*
X590250Y-1827000D01*
X697000Y-1720250D01*
X697000Y-923000D01*
X943000Y-923000D01*
X943000Y-1720250D01*
X1049750Y-1827000D01*
X1504935Y-1827000D01*
X1661876Y-1761993D01*
X1781993Y-1641876D01*
X1847000Y-1484936D01*
X1847000Y-1029750D01*
X10933000Y-1029750D01*
X10933000Y-1484936D01*
X10998007Y-1641876D01*
X11118124Y-1761993D01*
X11275065Y-1827000D01*
X11730250Y-1827000D01*
X11837000Y-1720250D01*
X11837000Y-923000D01*
X11039750Y-923000D01*
X10933000Y-1029750D01*
X1847000Y-1029750D01*
X1740250Y-923000D01*
X943000Y-923000D01*
X697000Y-923000D01*
X677000Y-923000D01*
X677000Y-677000D01*
X697000Y-677000D01*
X697000Y-657000D01*
X943000Y-657000D01*
X943000Y-677000D01*
X1740250Y-677000D01*
X1847000Y-570250D01*
X1847000Y-427000D01*
X10933000Y-427000D01*
X10933000Y-570250D01*
M02*
