G04 #@! TF.GenerationSoftware,KiCad,Pcbnew,(2017-06-07 revision 51bed4bae)-makepkg*
G04 #@! TF.CreationDate,2017-06-11T00:06:54+02:00*
G04 #@! TF.ProjectId,Front_Panel_76x35_4conn,46726F6E745F50616E656C5F37367833,rev?*
G04 #@! TF.FileFunction,Soldermask,Bot*
G04 #@! TF.FilePolarity,Negative*
%FSLAX46Y46*%
G04 Gerber Fmt 4.6, Leading zero omitted, Abs format (unit mm)*
G04 Created by KiCad (PCBNEW (2017-06-07 revision 51bed4bae)-makepkg) date 06/11/17 00:06:54*
%MOMM*%
%LPD*%
G01*
G04 APERTURE LIST*
%ADD10C,0.150000*%
%ADD11C,0.800000*%
%ADD12C,0.400000*%
%ADD13C,3.000000*%
%ADD14C,0.700000*%
%ADD15C,1.350000*%
%ADD16C,0.010000*%
G04 APERTURE END LIST*
D10*
D11*
X73930000Y-4220000D02*
G75*
G03X73930000Y-4220000I-1800000J0D01*
G01*
X73910000Y-31300000D02*
G75*
G03X73910000Y-31300000I-1800000J0D01*
G01*
X5920000Y-31270000D02*
G75*
G03X5920000Y-31270000I-1800000J0D01*
G01*
X5930000Y-4230000D02*
G75*
G03X5930000Y-4230000I-1800000J0D01*
G01*
D12*
X23850000Y-33151428D02*
X25135714Y-33151428D01*
X25135714Y-30451428D01*
X22950000Y-33151428D02*
X22950000Y-31351428D01*
X22950000Y-30451428D02*
X23078571Y-30580000D01*
X22950000Y-30708571D01*
X22821428Y-30580000D01*
X22950000Y-30451428D01*
X22950000Y-30708571D01*
X21664285Y-33151428D02*
X21664285Y-31351428D01*
X21664285Y-31608571D02*
X21535714Y-31480000D01*
X21278571Y-31351428D01*
X20892857Y-31351428D01*
X20635714Y-31480000D01*
X20507142Y-31737142D01*
X20507142Y-33151428D01*
X20507142Y-31737142D02*
X20378571Y-31480000D01*
X20121428Y-31351428D01*
X19735714Y-31351428D01*
X19478571Y-31480000D01*
X19350000Y-31737142D01*
X19350000Y-33151428D01*
X17035714Y-33022857D02*
X17292857Y-33151428D01*
X17807142Y-33151428D01*
X18064285Y-33022857D01*
X18192857Y-32765714D01*
X18192857Y-31737142D01*
X18064285Y-31480000D01*
X17807142Y-31351428D01*
X17292857Y-31351428D01*
X17035714Y-31480000D01*
X16907142Y-31737142D01*
X16907142Y-31994285D01*
X18192857Y-32251428D01*
X15878571Y-33022857D02*
X15492857Y-33151428D01*
X14850000Y-33151428D01*
X14592857Y-33022857D01*
X14464285Y-32894285D01*
X14335714Y-32637142D01*
X14335714Y-32380000D01*
X14464285Y-32122857D01*
X14592857Y-31994285D01*
X14850000Y-31865714D01*
X15364285Y-31737142D01*
X15621428Y-31608571D01*
X15750000Y-31480000D01*
X15878571Y-31222857D01*
X15878571Y-30965714D01*
X15750000Y-30708571D01*
X15621428Y-30580000D01*
X15364285Y-30451428D01*
X14721428Y-30451428D01*
X14335714Y-30580000D01*
X13178571Y-33151428D02*
X13178571Y-30451428D01*
X12535714Y-30451428D01*
X12150000Y-30580000D01*
X11892857Y-30837142D01*
X11764285Y-31094285D01*
X11635714Y-31608571D01*
X11635714Y-31994285D01*
X11764285Y-32508571D01*
X11892857Y-32765714D01*
X12150000Y-33022857D01*
X12535714Y-33151428D01*
X13178571Y-33151428D01*
X8935714Y-33151428D02*
X9835714Y-31865714D01*
X10478571Y-33151428D02*
X10478571Y-30451428D01*
X9450000Y-30451428D01*
X9192857Y-30580000D01*
X9064285Y-30708571D01*
X8935714Y-30965714D01*
X8935714Y-31351428D01*
X9064285Y-31608571D01*
X9192857Y-31737142D01*
X9450000Y-31865714D01*
X10478571Y-31865714D01*
D13*
X30920000Y-15770000D02*
G75*
G03X30920000Y-15770000I-2660000J0D01*
G01*
D14*
X31190000Y-13930000D02*
X31190000Y-17620000D01*
D15*
X32090000Y-15770000D02*
G75*
G03X32090000Y-15770000I-3830000J0D01*
G01*
D13*
X17920000Y-15770000D02*
G75*
G03X17920000Y-15770000I-2660000J0D01*
G01*
D14*
X18190000Y-13930000D02*
X18190000Y-17620000D01*
D15*
X19090000Y-15770000D02*
G75*
G03X19090000Y-15770000I-3830000J0D01*
G01*
D13*
X63920000Y-15770000D02*
G75*
G03X63920000Y-15770000I-2660000J0D01*
G01*
D14*
X64190000Y-13930000D02*
X64190000Y-17620000D01*
D15*
X65090000Y-15770000D02*
G75*
G03X65090000Y-15770000I-3830000J0D01*
G01*
D13*
X50920000Y-15770000D02*
G75*
G03X50920000Y-15770000I-2660000J0D01*
G01*
D14*
X51190000Y-13930000D02*
X51190000Y-17620000D01*
D15*
X52090000Y-15770000D02*
G75*
G03X52090000Y-15770000I-3830000J0D01*
G01*
D16*
G36*
X31295957Y-30051803D02*
X31332519Y-30040339D01*
X31373131Y-30013087D01*
X31423568Y-29963382D01*
X31489601Y-29884559D01*
X31577003Y-29769953D01*
X31691546Y-29612899D01*
X31839005Y-29406732D01*
X31933381Y-29274000D01*
X32081494Y-29064601D01*
X32214803Y-28874391D01*
X32327766Y-28711415D01*
X32414847Y-28583718D01*
X32470505Y-28499345D01*
X32489230Y-28466643D01*
X32473027Y-28438978D01*
X32417141Y-28469355D01*
X32320790Y-28558314D01*
X32251192Y-28631408D01*
X32076978Y-28820519D01*
X31937731Y-28974222D01*
X31818508Y-29109793D01*
X31704369Y-29244512D01*
X31580375Y-29395656D01*
X31445232Y-29563469D01*
X31328321Y-29712737D01*
X31231011Y-29843491D01*
X31161030Y-29944825D01*
X31126107Y-30005831D01*
X31123823Y-30017041D01*
X31164691Y-30042225D01*
X31247791Y-30054021D01*
X31257674Y-30054143D01*
X31295957Y-30051803D01*
X31295957Y-30051803D01*
G37*
X31295957Y-30051803D02*
X31332519Y-30040339D01*
X31373131Y-30013087D01*
X31423568Y-29963382D01*
X31489601Y-29884559D01*
X31577003Y-29769953D01*
X31691546Y-29612899D01*
X31839005Y-29406732D01*
X31933381Y-29274000D01*
X32081494Y-29064601D01*
X32214803Y-28874391D01*
X32327766Y-28711415D01*
X32414847Y-28583718D01*
X32470505Y-28499345D01*
X32489230Y-28466643D01*
X32473027Y-28438978D01*
X32417141Y-28469355D01*
X32320790Y-28558314D01*
X32251192Y-28631408D01*
X32076978Y-28820519D01*
X31937731Y-28974222D01*
X31818508Y-29109793D01*
X31704369Y-29244512D01*
X31580375Y-29395656D01*
X31445232Y-29563469D01*
X31328321Y-29712737D01*
X31231011Y-29843491D01*
X31161030Y-29944825D01*
X31126107Y-30005831D01*
X31123823Y-30017041D01*
X31164691Y-30042225D01*
X31247791Y-30054021D01*
X31257674Y-30054143D01*
X31295957Y-30051803D01*
G36*
X27935172Y-34589694D02*
X28007384Y-34522919D01*
X28115945Y-34402521D01*
X28176146Y-34331859D01*
X28279211Y-34209805D01*
X28367202Y-34106189D01*
X28427972Y-34035287D01*
X28446340Y-34014359D01*
X28480475Y-33974224D01*
X28552683Y-33887588D01*
X28655009Y-33764054D01*
X28779495Y-33613228D01*
X28916425Y-33446857D01*
X29072094Y-33259781D01*
X29230581Y-33073377D01*
X29379016Y-32902500D01*
X29504530Y-32762006D01*
X29576514Y-32684857D01*
X29684962Y-32573779D01*
X29757087Y-32507379D01*
X29806785Y-32477947D01*
X29847954Y-32477775D01*
X29894490Y-32499153D01*
X29902897Y-32503800D01*
X30000329Y-32581291D01*
X30077679Y-32699770D01*
X30140506Y-32870244D01*
X30187073Y-33066382D01*
X30234191Y-33300134D01*
X30270038Y-33472144D01*
X30297402Y-33591868D01*
X30319069Y-33668762D01*
X30337828Y-33712280D01*
X30356466Y-33731877D01*
X30377769Y-33737010D01*
X30384807Y-33737143D01*
X30413057Y-33725044D01*
X30435580Y-33681138D01*
X30455379Y-33594012D01*
X30475457Y-33452254D01*
X30487869Y-33345400D01*
X30506189Y-33167522D01*
X30520769Y-33001043D01*
X30529748Y-32868659D01*
X30531706Y-32810185D01*
X30549496Y-32651541D01*
X30596577Y-32459854D01*
X30664279Y-32263938D01*
X30743934Y-32092602D01*
X30751806Y-32078655D01*
X30801120Y-31974665D01*
X30811278Y-31909628D01*
X30783943Y-31891943D01*
X30722151Y-31928844D01*
X30683678Y-31956945D01*
X30623660Y-31992034D01*
X30531743Y-32039373D01*
X30397576Y-32104224D01*
X30210805Y-32191847D01*
X30139380Y-32225026D01*
X30055765Y-32247455D01*
X29933452Y-32262362D01*
X29855088Y-32265689D01*
X29731891Y-32261922D01*
X29653706Y-32241518D01*
X29593346Y-32195181D01*
X29568396Y-32167642D01*
X29501383Y-32062326D01*
X29459922Y-31947990D01*
X29459655Y-31946593D01*
X29466234Y-31808693D01*
X29528774Y-31626959D01*
X29646466Y-31402759D01*
X29818500Y-31137464D01*
X30044064Y-30832443D01*
X30320850Y-30490850D01*
X30432211Y-30349019D01*
X30497021Y-30244949D01*
X30511882Y-30184140D01*
X30511288Y-30182422D01*
X30492360Y-30115342D01*
X30468945Y-30007586D01*
X30457255Y-29945285D01*
X30439001Y-29849920D01*
X30416478Y-29751412D01*
X30385228Y-29632727D01*
X30340797Y-29476833D01*
X30287007Y-29294507D01*
X30245442Y-29205250D01*
X30196329Y-29171313D01*
X30151017Y-29200480D01*
X30150681Y-29201019D01*
X30139599Y-29249958D01*
X30125979Y-29357145D01*
X30111311Y-29508368D01*
X30097083Y-29689416D01*
X30092541Y-29756292D01*
X30067831Y-30054708D01*
X30035053Y-30292042D01*
X29991185Y-30479610D01*
X29933206Y-30628725D01*
X29858094Y-30750703D01*
X29812130Y-30806202D01*
X29730324Y-30891693D01*
X29650316Y-30959428D01*
X29562079Y-31012031D01*
X29455586Y-31052125D01*
X29320810Y-31082334D01*
X29147724Y-31105282D01*
X28926301Y-31123592D01*
X28646515Y-31139887D01*
X28510896Y-31146678D01*
X28322554Y-31157520D01*
X28158784Y-31170071D01*
X28033957Y-31182997D01*
X27962445Y-31194961D01*
X27952891Y-31198535D01*
X27925433Y-31240468D01*
X27954762Y-31280967D01*
X28026467Y-31304541D01*
X28052860Y-31306000D01*
X28184312Y-31319364D01*
X28351882Y-31355273D01*
X28536577Y-31407455D01*
X28719403Y-31469637D01*
X28881367Y-31535546D01*
X29003477Y-31598909D01*
X29053069Y-31636344D01*
X29117101Y-31706602D01*
X29134765Y-31757974D01*
X29113417Y-31820366D01*
X29103264Y-31840381D01*
X29025868Y-31944987D01*
X28887260Y-32076838D01*
X28686069Y-32237094D01*
X28420922Y-32426912D01*
X28354227Y-32472512D01*
X28181436Y-32587910D01*
X27980284Y-32719226D01*
X27766088Y-32856757D01*
X27554164Y-32990801D01*
X27359828Y-33111653D01*
X27198397Y-33209612D01*
X27103955Y-33264571D01*
X26967267Y-33343554D01*
X26883796Y-33398605D01*
X26841989Y-33438526D01*
X26830292Y-33472116D01*
X26830286Y-33473012D01*
X26859725Y-33471419D01*
X26948467Y-33437177D01*
X27097143Y-33369975D01*
X27306386Y-33269506D01*
X27576829Y-33135461D01*
X27909104Y-32967529D01*
X28303845Y-32765403D01*
X28728711Y-32545874D01*
X28888284Y-32466595D01*
X28997576Y-32421668D01*
X29067990Y-32407218D01*
X29107552Y-32417067D01*
X29163188Y-32465402D01*
X29178142Y-32489427D01*
X29173477Y-32514066D01*
X29149531Y-32565533D01*
X29103891Y-32647684D01*
X29034141Y-32764374D01*
X28937866Y-32919457D01*
X28812653Y-33116790D01*
X28656085Y-33360228D01*
X28465748Y-33653625D01*
X28239228Y-34000836D01*
X28058225Y-34277385D01*
X27979562Y-34400779D01*
X27919105Y-34501953D01*
X27886061Y-34565219D01*
X27882571Y-34576742D01*
X27895004Y-34606437D01*
X27935172Y-34589694D01*
X27935172Y-34589694D01*
G37*
X27935172Y-34589694D02*
X28007384Y-34522919D01*
X28115945Y-34402521D01*
X28176146Y-34331859D01*
X28279211Y-34209805D01*
X28367202Y-34106189D01*
X28427972Y-34035287D01*
X28446340Y-34014359D01*
X28480475Y-33974224D01*
X28552683Y-33887588D01*
X28655009Y-33764054D01*
X28779495Y-33613228D01*
X28916425Y-33446857D01*
X29072094Y-33259781D01*
X29230581Y-33073377D01*
X29379016Y-32902500D01*
X29504530Y-32762006D01*
X29576514Y-32684857D01*
X29684962Y-32573779D01*
X29757087Y-32507379D01*
X29806785Y-32477947D01*
X29847954Y-32477775D01*
X29894490Y-32499153D01*
X29902897Y-32503800D01*
X30000329Y-32581291D01*
X30077679Y-32699770D01*
X30140506Y-32870244D01*
X30187073Y-33066382D01*
X30234191Y-33300134D01*
X30270038Y-33472144D01*
X30297402Y-33591868D01*
X30319069Y-33668762D01*
X30337828Y-33712280D01*
X30356466Y-33731877D01*
X30377769Y-33737010D01*
X30384807Y-33737143D01*
X30413057Y-33725044D01*
X30435580Y-33681138D01*
X30455379Y-33594012D01*
X30475457Y-33452254D01*
X30487869Y-33345400D01*
X30506189Y-33167522D01*
X30520769Y-33001043D01*
X30529748Y-32868659D01*
X30531706Y-32810185D01*
X30549496Y-32651541D01*
X30596577Y-32459854D01*
X30664279Y-32263938D01*
X30743934Y-32092602D01*
X30751806Y-32078655D01*
X30801120Y-31974665D01*
X30811278Y-31909628D01*
X30783943Y-31891943D01*
X30722151Y-31928844D01*
X30683678Y-31956945D01*
X30623660Y-31992034D01*
X30531743Y-32039373D01*
X30397576Y-32104224D01*
X30210805Y-32191847D01*
X30139380Y-32225026D01*
X30055765Y-32247455D01*
X29933452Y-32262362D01*
X29855088Y-32265689D01*
X29731891Y-32261922D01*
X29653706Y-32241518D01*
X29593346Y-32195181D01*
X29568396Y-32167642D01*
X29501383Y-32062326D01*
X29459922Y-31947990D01*
X29459655Y-31946593D01*
X29466234Y-31808693D01*
X29528774Y-31626959D01*
X29646466Y-31402759D01*
X29818500Y-31137464D01*
X30044064Y-30832443D01*
X30320850Y-30490850D01*
X30432211Y-30349019D01*
X30497021Y-30244949D01*
X30511882Y-30184140D01*
X30511288Y-30182422D01*
X30492360Y-30115342D01*
X30468945Y-30007586D01*
X30457255Y-29945285D01*
X30439001Y-29849920D01*
X30416478Y-29751412D01*
X30385228Y-29632727D01*
X30340797Y-29476833D01*
X30287007Y-29294507D01*
X30245442Y-29205250D01*
X30196329Y-29171313D01*
X30151017Y-29200480D01*
X30150681Y-29201019D01*
X30139599Y-29249958D01*
X30125979Y-29357145D01*
X30111311Y-29508368D01*
X30097083Y-29689416D01*
X30092541Y-29756292D01*
X30067831Y-30054708D01*
X30035053Y-30292042D01*
X29991185Y-30479610D01*
X29933206Y-30628725D01*
X29858094Y-30750703D01*
X29812130Y-30806202D01*
X29730324Y-30891693D01*
X29650316Y-30959428D01*
X29562079Y-31012031D01*
X29455586Y-31052125D01*
X29320810Y-31082334D01*
X29147724Y-31105282D01*
X28926301Y-31123592D01*
X28646515Y-31139887D01*
X28510896Y-31146678D01*
X28322554Y-31157520D01*
X28158784Y-31170071D01*
X28033957Y-31182997D01*
X27962445Y-31194961D01*
X27952891Y-31198535D01*
X27925433Y-31240468D01*
X27954762Y-31280967D01*
X28026467Y-31304541D01*
X28052860Y-31306000D01*
X28184312Y-31319364D01*
X28351882Y-31355273D01*
X28536577Y-31407455D01*
X28719403Y-31469637D01*
X28881367Y-31535546D01*
X29003477Y-31598909D01*
X29053069Y-31636344D01*
X29117101Y-31706602D01*
X29134765Y-31757974D01*
X29113417Y-31820366D01*
X29103264Y-31840381D01*
X29025868Y-31944987D01*
X28887260Y-32076838D01*
X28686069Y-32237094D01*
X28420922Y-32426912D01*
X28354227Y-32472512D01*
X28181436Y-32587910D01*
X27980284Y-32719226D01*
X27766088Y-32856757D01*
X27554164Y-32990801D01*
X27359828Y-33111653D01*
X27198397Y-33209612D01*
X27103955Y-33264571D01*
X26967267Y-33343554D01*
X26883796Y-33398605D01*
X26841989Y-33438526D01*
X26830292Y-33472116D01*
X26830286Y-33473012D01*
X26859725Y-33471419D01*
X26948467Y-33437177D01*
X27097143Y-33369975D01*
X27306386Y-33269506D01*
X27576829Y-33135461D01*
X27909104Y-32967529D01*
X28303845Y-32765403D01*
X28728711Y-32545874D01*
X28888284Y-32466595D01*
X28997576Y-32421668D01*
X29067990Y-32407218D01*
X29107552Y-32417067D01*
X29163188Y-32465402D01*
X29178142Y-32489427D01*
X29173477Y-32514066D01*
X29149531Y-32565533D01*
X29103891Y-32647684D01*
X29034141Y-32764374D01*
X28937866Y-32919457D01*
X28812653Y-33116790D01*
X28656085Y-33360228D01*
X28465748Y-33653625D01*
X28239228Y-34000836D01*
X28058225Y-34277385D01*
X27979562Y-34400779D01*
X27919105Y-34501953D01*
X27886061Y-34565219D01*
X27882571Y-34576742D01*
X27895004Y-34606437D01*
X27935172Y-34589694D01*
G36*
X31600785Y-30716541D02*
X31708718Y-30672415D01*
X31873376Y-30588605D01*
X31901346Y-30573570D01*
X32069914Y-30478669D01*
X32258867Y-30365924D01*
X32458649Y-30241740D01*
X32659702Y-30112520D01*
X32852469Y-29984669D01*
X33027394Y-29864591D01*
X33174919Y-29758692D01*
X33285487Y-29673376D01*
X33349542Y-29615048D01*
X33361714Y-29594912D01*
X33351720Y-29573335D01*
X33316309Y-29572355D01*
X33247338Y-29595089D01*
X33136665Y-29644652D01*
X32976148Y-29724162D01*
X32835571Y-29796303D01*
X32513983Y-29965298D01*
X32251631Y-30109547D01*
X32041407Y-30233703D01*
X31876198Y-30342421D01*
X31748894Y-30440356D01*
X31652384Y-30532164D01*
X31584777Y-30615079D01*
X31542069Y-30687446D01*
X31546320Y-30721409D01*
X31600785Y-30716541D01*
X31600785Y-30716541D01*
G37*
X31600785Y-30716541D02*
X31708718Y-30672415D01*
X31873376Y-30588605D01*
X31901346Y-30573570D01*
X32069914Y-30478669D01*
X32258867Y-30365924D01*
X32458649Y-30241740D01*
X32659702Y-30112520D01*
X32852469Y-29984669D01*
X33027394Y-29864591D01*
X33174919Y-29758692D01*
X33285487Y-29673376D01*
X33349542Y-29615048D01*
X33361714Y-29594912D01*
X33351720Y-29573335D01*
X33316309Y-29572355D01*
X33247338Y-29595089D01*
X33136665Y-29644652D01*
X32976148Y-29724162D01*
X32835571Y-29796303D01*
X32513983Y-29965298D01*
X32251631Y-30109547D01*
X32041407Y-30233703D01*
X31876198Y-30342421D01*
X31748894Y-30440356D01*
X31652384Y-30532164D01*
X31584777Y-30615079D01*
X31542069Y-30687446D01*
X31546320Y-30721409D01*
X31600785Y-30716541D01*
G36*
X30990127Y-31836382D02*
X31062546Y-31825702D01*
X31191529Y-31812481D01*
X31361176Y-31798132D01*
X31555588Y-31784070D01*
X31638143Y-31778753D01*
X31968250Y-31757392D01*
X32231246Y-31738267D01*
X32432535Y-31720816D01*
X32577524Y-31704481D01*
X32671618Y-31688699D01*
X32720223Y-31672909D01*
X32728722Y-31665609D01*
X32712294Y-31636998D01*
X32646555Y-31611996D01*
X32536683Y-31584462D01*
X32393800Y-31544739D01*
X32237226Y-31498690D01*
X32086277Y-31452173D01*
X31960272Y-31411050D01*
X31878528Y-31381181D01*
X31864450Y-31374735D01*
X31794770Y-31352858D01*
X31680855Y-31331156D01*
X31581409Y-31318176D01*
X31362347Y-31295280D01*
X31168377Y-31495543D01*
X31067921Y-31603983D01*
X30983926Y-31703156D01*
X30933106Y-31773221D01*
X30930402Y-31778030D01*
X30905092Y-31834533D01*
X30925600Y-31848591D01*
X30990127Y-31836382D01*
X30990127Y-31836382D01*
G37*
X30990127Y-31836382D02*
X31062546Y-31825702D01*
X31191529Y-31812481D01*
X31361176Y-31798132D01*
X31555588Y-31784070D01*
X31638143Y-31778753D01*
X31968250Y-31757392D01*
X32231246Y-31738267D01*
X32432535Y-31720816D01*
X32577524Y-31704481D01*
X32671618Y-31688699D01*
X32720223Y-31672909D01*
X32728722Y-31665609D01*
X32712294Y-31636998D01*
X32646555Y-31611996D01*
X32536683Y-31584462D01*
X32393800Y-31544739D01*
X32237226Y-31498690D01*
X32086277Y-31452173D01*
X31960272Y-31411050D01*
X31878528Y-31381181D01*
X31864450Y-31374735D01*
X31794770Y-31352858D01*
X31680855Y-31331156D01*
X31581409Y-31318176D01*
X31362347Y-31295280D01*
X31168377Y-31495543D01*
X31067921Y-31603983D01*
X30983926Y-31703156D01*
X30933106Y-31773221D01*
X30930402Y-31778030D01*
X30905092Y-31834533D01*
X30925600Y-31848591D01*
X30990127Y-31836382D01*
M02*
