M48
;DRILL file {KiCad (2017-06-07 revision 51bed4bae)-makepkg} date 06/10/17 23:56:27
;FORMAT={2:4/ absolute / inch / keep zeros}
FMAT,2
INCH,TZ
T1C0.018
%
G90
G05
M72
T1
X009610Y-006209
X009813Y-005451
X009813Y-006967
X010368Y-004896
X010368Y-007521
X011126Y-004693
X011126Y-007724
X011884Y-004896
X011884Y-007521
X012439Y-005451
X012439Y-006967
X012642Y-006209
X004492Y-006209
X004695Y-005451
X004695Y-006967
X005250Y-004896
X005250Y-007521
X006008Y-004693
X006008Y-007724
X006766Y-004896
X006766Y-007521
X007321Y-005451
X007321Y-006967
X007524Y-006209
X022602Y-006209
X022805Y-005451
X022805Y-006967
X023360Y-004896
X023360Y-007521
X024118Y-004693
X024118Y-007724
X024876Y-004896
X024876Y-007521
X025431Y-005451
X025431Y-006967
X025634Y-006209
X017484Y-006209
X017687Y-005451
X017687Y-006967
X018242Y-004896
X018242Y-007521
X019000Y-004693
X019000Y-007724
X019758Y-004896
X019758Y-007521
X020313Y-005451
X020313Y-006967
X020516Y-006209
T0
M30
