%MOIN*%
%OFA0B0*%
%FSLAX46Y46*%
%IPPOS*%
%LPD*%
%ADD10C,0.005905511811023622*%
%ADD11C,0.031496062992125991*%
%ADD12C,0.01*%
%ADD23C,0.005905511811023622*%
%ADD24C,0.20472440944881892*%
%ADD25C,0.01*%
%ADD36C,0.005905511811023622*%
%ADD37C,0.20472440944881892*%
%ADD38C,0.01*%
%ADD49C,0.005905511811023622*%
%ADD50C,0.20472440944881892*%
%ADD51C,0.01*%
%ADD62C,0.005905511811023622*%
%ADD63C,0.20472440944881892*%
%ADD64C,0.01*%
%ADD75C,0.005905511811023622*%
%ADD76C,0.01*%
%ADD87C,0.005905511811023622*%
%ADD88C,0.01*%
%ADD99C,0.005905511811023622*%
%ADD100C,0.031496062992125991*%
%ADD101C,0.01*%
%ADD112C,0.005905511811023622*%
%ADD113C,0.031496062992125991*%
%ADD114C,0.01*%
%LPD*%
G01G01G01G01G01G01G01G01*
D10*
D11*
X0000000000Y0004291338D02*
X0002402599Y0003728396D03*
X0002458079Y0003672916D03*
X0002533867Y0003652609D03*
X0002609654Y0003672916D03*
X0002665134Y0003728396D03*
X0002685442Y0003804184D03*
X0002665134Y0003879971D03*
X0002609654Y0003935451D03*
X0002533867Y0003955759D03*
X0002458079Y0003935451D03*
X0002402599Y0003879971D03*
X0002382292Y0003804184D03*
D12*
G36*
X0002941019Y0004280264D02*
X0002964781Y0004264387D01*
X0002980657Y0004240626D01*
X0002986338Y0004212067D01*
X0002986338Y0003909192D01*
X0002985752Y0003906245D01*
X0002984384Y0003904198D01*
X0002982336Y0003902830D01*
X0002979389Y0003902244D01*
X0002952755Y0003902244D01*
X0002950691Y0003901833D01*
X0002948941Y0003900664D01*
X0002947772Y0003898914D01*
X0002947362Y0003896850D01*
X0002947362Y0003312598D01*
X0002947772Y0003310534D01*
X0002948941Y0003308784D01*
X0002950691Y0003307614D01*
X0002952755Y0003307204D01*
X0002979389Y0003307204D01*
X0002982336Y0003306617D01*
X0002984384Y0003305250D01*
X0002985752Y0003303202D01*
X0002986338Y0003300256D01*
X0002986338Y0003012342D01*
X0002979189Y0002976399D01*
X0002959130Y0002946380D01*
X0002929111Y0002926322D01*
X0002893169Y0002919173D01*
X0000079271Y0002918779D01*
X0000050712Y0002924459D01*
X0000026951Y0002940336D01*
X0000011074Y0002964097D01*
X0000005393Y0002992657D01*
X0000005393Y0003069488D01*
X0000094803Y0003069488D01*
X0000099409Y0003046331D01*
X0000112526Y0003026699D01*
X0000132158Y0003013582D01*
X0000155314Y0003008976D01*
X0000178471Y0003013582D01*
X0000198103Y0003026699D01*
X0000211220Y0003046331D01*
X0000215826Y0003069488D01*
X0000211220Y0003092645D01*
X0000198103Y0003112276D01*
X0000178471Y0003125393D01*
X0000155314Y0003130000D01*
X0000132158Y0003125393D01*
X0000112526Y0003112276D01*
X0000099409Y0003092645D01*
X0000094803Y0003069488D01*
X0000005393Y0003069488D01*
X0000005393Y0003296318D01*
X0000005979Y0003299265D01*
X0000007348Y0003301313D01*
X0000009395Y0003302681D01*
X0000012342Y0003303267D01*
X0000038976Y0003303267D01*
X0000041040Y0003303678D01*
X0000042789Y0003304846D01*
X0000043959Y0003306596D01*
X0000044370Y0003308661D01*
X0000044370Y0003447719D01*
X0000665678Y0003447719D01*
X0000665678Y0003183940D01*
X0000665812Y0003183267D01*
X0000665812Y0003182580D01*
X0000667310Y0003175047D01*
X0000667310Y0003175047D01*
X0000668351Y0003172535D01*
X0000672618Y0003166149D01*
X0000674540Y0003164225D01*
X0000680927Y0003159959D01*
X0000680927Y0003159959D01*
X0000682397Y0003159350D01*
X0000683439Y0003158919D01*
X0000683439Y0003158919D01*
X0000690972Y0003157420D01*
X0000691658Y0003157420D01*
X0000692330Y0003157286D01*
X0000863591Y0003157286D01*
X0000864264Y0003157420D01*
X0000864951Y0003157420D01*
X0000872484Y0003158919D01*
X0000872484Y0003158919D01*
X0000874995Y0003159959D01*
X0000881382Y0003164225D01*
X0000883305Y0003166149D01*
X0000887572Y0003172535D01*
X0000887572Y0003172535D01*
X0000888612Y0003175047D01*
X0000890111Y0003182580D01*
X0000890111Y0003183267D01*
X0000890245Y0003183940D01*
X0000890245Y0003368979D01*
X0001210953Y0003368979D01*
X0001210953Y0003259530D01*
X0001211087Y0003258857D01*
X0001211087Y0003258171D01*
X0001212586Y0003250638D01*
X0001212586Y0003250638D01*
X0001213626Y0003248126D01*
X0001217893Y0003241739D01*
X0001219816Y0003239817D01*
X0001226202Y0003235550D01*
X0001226202Y0003235550D01*
X0001227674Y0003234940D01*
X0001228714Y0003234509D01*
X0001228714Y0003234509D01*
X0001236247Y0003233011D01*
X0001236934Y0003233011D01*
X0001237607Y0003232877D01*
X0001250323Y0003232877D01*
X0001250323Y0003077641D01*
X0001250457Y0003076967D01*
X0001250457Y0003076280D01*
X0001251956Y0003068748D01*
X0001251956Y0003068748D01*
X0001252996Y0003066236D01*
X0001257263Y0003059849D01*
X0001259186Y0003057927D01*
X0001265572Y0003053660D01*
X0001265572Y0003053660D01*
X0001267044Y0003053050D01*
X0001268084Y0003052619D01*
X0001268084Y0003052619D01*
X0001275617Y0003051120D01*
X0001276304Y0003051120D01*
X0001276977Y0003050987D01*
X0001717922Y0003050987D01*
X0001718595Y0003051120D01*
X0001719281Y0003051120D01*
X0001726814Y0003052619D01*
X0001726815Y0003052619D01*
X0001729327Y0003053660D01*
X0001735713Y0003057927D01*
X0001737635Y0003059849D01*
X0001741903Y0003066236D01*
X0001741903Y0003066236D01*
X0001742512Y0003067707D01*
X0001742842Y0003068503D01*
X0002770984Y0003068503D01*
X0002775590Y0003045347D01*
X0002788707Y0003025715D01*
X0002808339Y0003012598D01*
X0002831496Y0003007992D01*
X0002854652Y0003012598D01*
X0002874284Y0003025715D01*
X0002887401Y0003045347D01*
X0002892006Y0003068503D01*
X0002887401Y0003091660D01*
X0002874284Y0003111292D01*
X0002854652Y0003124409D01*
X0002831496Y0003129015D01*
X0002808339Y0003124409D01*
X0002788707Y0003111292D01*
X0002775590Y0003091660D01*
X0002770984Y0003068503D01*
X0001742842Y0003068503D01*
X0001742943Y0003068748D01*
X0001742943Y0003068748D01*
X0001744441Y0003076280D01*
X0001744441Y0003076967D01*
X0001744575Y0003077641D01*
X0001744575Y0003232877D01*
X0001751386Y0003232877D01*
X0001752060Y0003233011D01*
X0001752746Y0003233011D01*
X0001760279Y0003234509D01*
X0001760279Y0003234509D01*
X0001762790Y0003235550D01*
X0001769175Y0003239817D01*
X0001771100Y0003241739D01*
X0001775367Y0003248126D01*
X0001775367Y0003248126D01*
X0001776408Y0003250638D01*
X0001777906Y0003258171D01*
X0001777906Y0003258857D01*
X0001778040Y0003259530D01*
X0001778040Y0003368979D01*
X0001777906Y0003369652D01*
X0001777906Y0003370339D01*
X0001776408Y0003377872D01*
X0001775367Y0003380384D01*
X0001775367Y0003380384D01*
X0001771100Y0003386770D01*
X0001769175Y0003388693D01*
X0001762790Y0003392959D01*
X0001760279Y0003394000D01*
X0001760279Y0003394000D01*
X0001752746Y0003395499D01*
X0001752060Y0003395499D01*
X0001751386Y0003395633D01*
X0001237607Y0003395633D01*
X0001236934Y0003395499D01*
X0001236247Y0003395499D01*
X0001228714Y0003394000D01*
X0001228714Y0003394000D01*
X0001227727Y0003393592D01*
X0001226202Y0003392959D01*
X0001226202Y0003392959D01*
X0001219816Y0003388693D01*
X0001217893Y0003386770D01*
X0001213626Y0003380384D01*
X0001213626Y0003380384D01*
X0001212586Y0003377872D01*
X0001211087Y0003370339D01*
X0001211087Y0003369652D01*
X0001210953Y0003368979D01*
X0000890245Y0003368979D01*
X0000890245Y0003447719D01*
X0000890111Y0003448392D01*
X0000890111Y0003449079D01*
X0000888612Y0003456612D01*
X0000887572Y0003459124D01*
X0000887572Y0003459124D01*
X0000883305Y0003465510D01*
X0000881382Y0003467432D01*
X0000874995Y0003471699D01*
X0000872484Y0003472741D01*
X0000872484Y0003472741D01*
X0000864951Y0003474239D01*
X0000864264Y0003474239D01*
X0000863591Y0003474373D01*
X0000692330Y0003474373D01*
X0000691658Y0003474239D01*
X0000690972Y0003474239D01*
X0000683439Y0003472741D01*
X0000683439Y0003472741D01*
X0000682452Y0003472332D01*
X0000680927Y0003471699D01*
X0000680927Y0003471699D01*
X0000674540Y0003467432D01*
X0000672618Y0003465510D01*
X0000668351Y0003459124D01*
X0000668351Y0003459124D01*
X0000667310Y0003456612D01*
X0000665812Y0003449079D01*
X0000665812Y0003448392D01*
X0000665678Y0003447719D01*
X0000044370Y0003447719D01*
X0000044370Y0003779419D01*
X0002400361Y0003779419D01*
X0002400961Y0003776375D01*
X0002400962Y0003776375D01*
X0002420000Y0003730214D01*
X0002420000Y0003730214D01*
X0002420230Y0003729869D01*
X0002421720Y0003727631D01*
X0002421720Y0003727631D01*
X0002456975Y0003692270D01*
X0002456975Y0003692270D01*
X0002458009Y0003691576D01*
X0002459552Y0003690542D01*
X0002459553Y0003690542D01*
X0002505655Y0003671364D01*
X0002505656Y0003671363D01*
X0002508698Y0003670753D01*
X0002558631Y0003670678D01*
X0002561675Y0003671279D01*
X0002561676Y0003671279D01*
X0002607836Y0003690317D01*
X0002607837Y0003690317D01*
X0002609387Y0003691350D01*
X0002610419Y0003692037D01*
X0002610419Y0003692038D01*
X0002645781Y0003727292D01*
X0002645783Y0003727297D01*
X0002645788Y0003727301D01*
X0002646652Y0003728592D01*
X0002647509Y0003729869D01*
X0002647510Y0003729876D01*
X0002647513Y0003729881D01*
X0002647811Y0003731376D01*
X0002648118Y0003732912D01*
X0002648117Y0003732918D01*
X0002648118Y0003732924D01*
X0002648118Y0003875443D01*
X0002648118Y0003875444D01*
X0002647513Y0003878487D01*
X0002645788Y0003881067D01*
X0002610750Y0003916107D01*
X0002609456Y0003916971D01*
X0002608181Y0003917825D01*
X0002608170Y0003917830D01*
X0002608170Y0003917830D01*
X0002608170Y0003917830D01*
X0002562078Y0003937003D01*
X0002562078Y0003937003D01*
X0002562078Y0003937003D01*
X0002559645Y0003937492D01*
X0002559035Y0003937614D01*
X0002559035Y0003937614D01*
X0002509102Y0003937690D01*
X0002506058Y0003937089D01*
X0002459897Y0003918050D01*
X0002459897Y0003918050D01*
X0002457314Y0003916330D01*
X0002421953Y0003881076D01*
X0002420225Y0003878498D01*
X0002420225Y0003878498D01*
X0002401046Y0003832395D01*
X0002401046Y0003832395D01*
X0002400436Y0003829352D01*
X0002400361Y0003779419D01*
X0000044370Y0003779419D01*
X0000044370Y0003892913D01*
X0000043959Y0003894977D01*
X0000042789Y0003896727D01*
X0000041040Y0003897896D01*
X0000038976Y0003898307D01*
X0000012342Y0003898307D01*
X0000009395Y0003898893D01*
X0000007348Y0003900261D01*
X0000005979Y0003902308D01*
X0000005393Y0003905255D01*
X0000005393Y0004134448D01*
X0000094803Y0004134448D01*
X0000099409Y0004111290D01*
X0000112526Y0004091660D01*
X0000132158Y0004078543D01*
X0000155314Y0004073937D01*
X0000178471Y0004078543D01*
X0000198103Y0004091660D01*
X0000206206Y0004103788D01*
X0000445998Y0004103788D01*
X0000450944Y0004091817D01*
X0000460095Y0004082650D01*
X0000472058Y0004077682D01*
X0000485010Y0004077670D01*
X0000496982Y0004082617D01*
X0000506148Y0004091768D01*
X0000511116Y0004103731D01*
X0000511116Y0004103788D01*
X0000565899Y0004103788D01*
X0000570846Y0004091817D01*
X0000579997Y0004082650D01*
X0000591959Y0004077682D01*
X0000604912Y0004077670D01*
X0000616883Y0004082617D01*
X0000626050Y0004091768D01*
X0000631017Y0004103731D01*
X0000631017Y0004103788D01*
X0000685800Y0004103788D01*
X0000690746Y0004091817D01*
X0000699898Y0004082650D01*
X0000711860Y0004077682D01*
X0000724814Y0004077670D01*
X0000736785Y0004082617D01*
X0000745952Y0004091768D01*
X0000750919Y0004103731D01*
X0000750919Y0004103788D01*
X0000805703Y0004103788D01*
X0000810649Y0004091817D01*
X0000819800Y0004082650D01*
X0000831762Y0004077682D01*
X0000844715Y0004077670D01*
X0000856685Y0004082617D01*
X0000865853Y0004091768D01*
X0000870821Y0004103731D01*
X0000870821Y0004103788D01*
X0000925603Y0004103788D01*
X0000930549Y0004091817D01*
X0000939701Y0004082650D01*
X0000951663Y0004077682D01*
X0000964617Y0004077670D01*
X0000976588Y0004082617D01*
X0000985755Y0004091768D01*
X0000990722Y0004103731D01*
X0000990722Y0004103788D01*
X0001045506Y0004103788D01*
X0001050452Y0004091817D01*
X0001059603Y0004082650D01*
X0001071566Y0004077682D01*
X0001084518Y0004077670D01*
X0001096490Y0004082617D01*
X0001105657Y0004091768D01*
X0001110624Y0004103731D01*
X0001110624Y0004103788D01*
X0001165407Y0004103788D01*
X0001170354Y0004091817D01*
X0001179505Y0004082650D01*
X0001191467Y0004077682D01*
X0001204420Y0004077670D01*
X0001216391Y0004082617D01*
X0001225558Y0004091768D01*
X0001230525Y0004103731D01*
X0001230525Y0004103788D01*
X0001285309Y0004103788D01*
X0001290255Y0004091817D01*
X0001299406Y0004082650D01*
X0001311369Y0004077682D01*
X0001324322Y0004077670D01*
X0001336293Y0004082617D01*
X0001345460Y0004091768D01*
X0001350427Y0004103731D01*
X0001350427Y0004103788D01*
X0001405210Y0004103788D01*
X0001410156Y0004091817D01*
X0001419308Y0004082650D01*
X0001431270Y0004077682D01*
X0001444223Y0004077670D01*
X0001456194Y0004082617D01*
X0001465361Y0004091768D01*
X0001470328Y0004103731D01*
X0001470329Y0004103788D01*
X0001525112Y0004103788D01*
X0001530058Y0004091817D01*
X0001539209Y0004082650D01*
X0001551172Y0004077682D01*
X0001564125Y0004077670D01*
X0001576096Y0004082617D01*
X0001585263Y0004091768D01*
X0001590230Y0004103731D01*
X0001590230Y0004103788D01*
X0001645014Y0004103788D01*
X0001649959Y0004091817D01*
X0001659111Y0004082650D01*
X0001671073Y0004077682D01*
X0001684026Y0004077670D01*
X0001695997Y0004082617D01*
X0001705164Y0004091768D01*
X0001710132Y0004103731D01*
X0001710132Y0004103788D01*
X0001764915Y0004103788D01*
X0001769862Y0004091817D01*
X0001779012Y0004082650D01*
X0001790975Y0004077682D01*
X0001803928Y0004077670D01*
X0001815899Y0004082617D01*
X0001825066Y0004091768D01*
X0001830033Y0004103731D01*
X0001830033Y0004103788D01*
X0001884817Y0004103788D01*
X0001889762Y0004091817D01*
X0001898914Y0004082650D01*
X0001910877Y0004077682D01*
X0001923829Y0004077670D01*
X0001935801Y0004082617D01*
X0001944968Y0004091768D01*
X0001949935Y0004103731D01*
X0001949935Y0004103788D01*
X0002004718Y0004103788D01*
X0002009665Y0004091817D01*
X0002018816Y0004082650D01*
X0002030778Y0004077682D01*
X0002043731Y0004077670D01*
X0002055702Y0004082617D01*
X0002064868Y0004091768D01*
X0002069836Y0004103731D01*
X0002069836Y0004103788D01*
X0002124620Y0004103788D01*
X0002129566Y0004091817D01*
X0002138717Y0004082650D01*
X0002150680Y0004077682D01*
X0002163633Y0004077670D01*
X0002175604Y0004082617D01*
X0002184771Y0004091768D01*
X0002189738Y0004103731D01*
X0002189738Y0004103788D01*
X0002244521Y0004103788D01*
X0002249468Y0004091817D01*
X0002258619Y0004082650D01*
X0002270581Y0004077682D01*
X0002283534Y0004077670D01*
X0002295505Y0004082617D01*
X0002304672Y0004091768D01*
X0002309640Y0004103731D01*
X0002309640Y0004103788D01*
X0002364423Y0004103788D01*
X0002369369Y0004091817D01*
X0002378520Y0004082650D01*
X0002390483Y0004077682D01*
X0002403436Y0004077670D01*
X0002415407Y0004082617D01*
X0002424574Y0004091768D01*
X0002429541Y0004103731D01*
X0002429541Y0004103788D01*
X0002484325Y0004103788D01*
X0002489271Y0004091817D01*
X0002498422Y0004082650D01*
X0002510384Y0004077682D01*
X0002523337Y0004077670D01*
X0002535308Y0004082617D01*
X0002544475Y0004091768D01*
X0002549442Y0004103731D01*
X0002549454Y0004116684D01*
X0002544508Y0004128655D01*
X0002535357Y0004137822D01*
X0002523394Y0004142788D01*
X0002510441Y0004142800D01*
X0002498470Y0004137854D01*
X0002489303Y0004128703D01*
X0002484336Y0004116741D01*
X0002484325Y0004103788D01*
X0002429541Y0004103788D01*
X0002429552Y0004116684D01*
X0002424606Y0004128655D01*
X0002415455Y0004137822D01*
X0002403492Y0004142788D01*
X0002390540Y0004142800D01*
X0002378569Y0004137854D01*
X0002369402Y0004128703D01*
X0002364434Y0004116741D01*
X0002364423Y0004103788D01*
X0002309640Y0004103788D01*
X0002309651Y0004116684D01*
X0002304704Y0004128655D01*
X0002295553Y0004137822D01*
X0002283591Y0004142788D01*
X0002270638Y0004142800D01*
X0002258667Y0004137854D01*
X0002249500Y0004128703D01*
X0002244533Y0004116741D01*
X0002244521Y0004103788D01*
X0002189738Y0004103788D01*
X0002189749Y0004116684D01*
X0002184803Y0004128655D01*
X0002175652Y0004137822D01*
X0002163689Y0004142788D01*
X0002150737Y0004142800D01*
X0002138765Y0004137854D01*
X0002129598Y0004128703D01*
X0002124631Y0004116741D01*
X0002124620Y0004103788D01*
X0002069836Y0004103788D01*
X0002069848Y0004116684D01*
X0002064900Y0004128655D01*
X0002055750Y0004137822D01*
X0002043788Y0004142788D01*
X0002030835Y0004142800D01*
X0002018864Y0004137854D01*
X0002009697Y0004128703D01*
X0002004730Y0004116741D01*
X0002004718Y0004103788D01*
X0001949935Y0004103788D01*
X0001949946Y0004116684D01*
X0001945000Y0004128655D01*
X0001935849Y0004137822D01*
X0001923886Y0004142788D01*
X0001910931Y0004142800D01*
X0001898962Y0004137854D01*
X0001889795Y0004128703D01*
X0001884828Y0004116741D01*
X0001884817Y0004103788D01*
X0001830033Y0004103788D01*
X0001830045Y0004116684D01*
X0001825098Y0004128655D01*
X0001815947Y0004137822D01*
X0001803985Y0004142788D01*
X0001791032Y0004142800D01*
X0001779061Y0004137854D01*
X0001769894Y0004128703D01*
X0001764926Y0004116741D01*
X0001764915Y0004103788D01*
X0001710132Y0004103788D01*
X0001710143Y0004116684D01*
X0001705197Y0004128655D01*
X0001696046Y0004137822D01*
X0001684083Y0004142788D01*
X0001671128Y0004142800D01*
X0001659159Y0004137854D01*
X0001649992Y0004128703D01*
X0001645025Y0004116741D01*
X0001645014Y0004103788D01*
X0001590230Y0004103788D01*
X0001590241Y0004116684D01*
X0001585295Y0004128655D01*
X0001576144Y0004137822D01*
X0001564181Y0004142788D01*
X0001551229Y0004142800D01*
X0001539258Y0004137854D01*
X0001530091Y0004128703D01*
X0001525123Y0004116741D01*
X0001525112Y0004103788D01*
X0001470329Y0004103788D01*
X0001470340Y0004116684D01*
X0001465393Y0004128655D01*
X0001456242Y0004137822D01*
X0001444280Y0004142788D01*
X0001431325Y0004142800D01*
X0001419356Y0004137854D01*
X0001410189Y0004128703D01*
X0001405222Y0004116741D01*
X0001405210Y0004103788D01*
X0001350427Y0004103788D01*
X0001350438Y0004116684D01*
X0001345492Y0004128655D01*
X0001336341Y0004137822D01*
X0001324378Y0004142788D01*
X0001311426Y0004142800D01*
X0001299454Y0004137854D01*
X0001290287Y0004128703D01*
X0001285320Y0004116741D01*
X0001285309Y0004103788D01*
X0001230525Y0004103788D01*
X0001230537Y0004116684D01*
X0001225590Y0004128655D01*
X0001216439Y0004137822D01*
X0001204477Y0004142788D01*
X0001191524Y0004142800D01*
X0001179553Y0004137854D01*
X0001170386Y0004128703D01*
X0001165419Y0004116741D01*
X0001165407Y0004103788D01*
X0001110624Y0004103788D01*
X0001110635Y0004116684D01*
X0001105689Y0004128655D01*
X0001096538Y0004137822D01*
X0001084575Y0004142788D01*
X0001071622Y0004142800D01*
X0001059651Y0004137854D01*
X0001050484Y0004128703D01*
X0001045517Y0004116741D01*
X0001045506Y0004103788D01*
X0000990722Y0004103788D01*
X0000990733Y0004116684D01*
X0000985787Y0004128655D01*
X0000976636Y0004137822D01*
X0000964674Y0004142788D01*
X0000951721Y0004142800D01*
X0000939749Y0004137854D01*
X0000930583Y0004128703D01*
X0000925615Y0004116741D01*
X0000925603Y0004103788D01*
X0000870821Y0004103788D01*
X0000870832Y0004116684D01*
X0000865886Y0004128655D01*
X0000856735Y0004137822D01*
X0000844771Y0004142788D01*
X0000831819Y0004142800D01*
X0000819847Y0004137854D01*
X0000810681Y0004128703D01*
X0000805714Y0004116741D01*
X0000805703Y0004103788D01*
X0000750919Y0004103788D01*
X0000750930Y0004116684D01*
X0000745984Y0004128655D01*
X0000736833Y0004137822D01*
X0000724869Y0004142788D01*
X0000711918Y0004142800D01*
X0000699946Y0004137854D01*
X0000690780Y0004128703D01*
X0000685812Y0004116741D01*
X0000685800Y0004103788D01*
X0000631017Y0004103788D01*
X0000631028Y0004116684D01*
X0000626082Y0004128655D01*
X0000616931Y0004137822D01*
X0000604969Y0004142788D01*
X0000592016Y0004142800D01*
X0000580045Y0004137854D01*
X0000570878Y0004128703D01*
X0000565911Y0004116741D01*
X0000565899Y0004103788D01*
X0000511116Y0004103788D01*
X0000511127Y0004116684D01*
X0000506181Y0004128655D01*
X0000497030Y0004137822D01*
X0000485067Y0004142788D01*
X0000472115Y0004142800D01*
X0000460143Y0004137854D01*
X0000450976Y0004128703D01*
X0000446008Y0004116741D01*
X0000445998Y0004103788D01*
X0000206206Y0004103788D01*
X0000211220Y0004111290D01*
X0000215826Y0004134448D01*
X0000213624Y0004145520D01*
X0000386155Y0004145520D01*
X0000391102Y0004133549D01*
X0000400253Y0004124382D01*
X0000412215Y0004119415D01*
X0000425168Y0004119403D01*
X0000437139Y0004124348D01*
X0000446306Y0004133501D01*
X0000451273Y0004145463D01*
X0000451273Y0004145520D01*
X0000506057Y0004145520D01*
X0000511003Y0004133549D01*
X0000520154Y0004124382D01*
X0000532117Y0004119415D01*
X0000545070Y0004119403D01*
X0000557041Y0004124348D01*
X0000566208Y0004133501D01*
X0000571175Y0004145463D01*
X0000571175Y0004145520D01*
X0000625958Y0004145520D01*
X0000630905Y0004133549D01*
X0000640056Y0004124382D01*
X0000652018Y0004119415D01*
X0000664971Y0004119403D01*
X0000676942Y0004124348D01*
X0000686109Y0004133501D01*
X0000691077Y0004145463D01*
X0000691077Y0004145520D01*
X0000745860Y0004145520D01*
X0000750806Y0004133549D01*
X0000759957Y0004124382D01*
X0000771920Y0004119415D01*
X0000784873Y0004119403D01*
X0000796844Y0004124348D01*
X0000806011Y0004133501D01*
X0000810978Y0004145463D01*
X0000810978Y0004145520D01*
X0000865762Y0004145520D01*
X0000870708Y0004133549D01*
X0000879859Y0004124382D01*
X0000891821Y0004119415D01*
X0000904774Y0004119403D01*
X0000916745Y0004124348D01*
X0000925912Y0004133501D01*
X0000930880Y0004145463D01*
X0000930880Y0004145520D01*
X0000985663Y0004145520D01*
X0000990610Y0004133549D01*
X0000999761Y0004124382D01*
X0001011722Y0004119415D01*
X0001024675Y0004119403D01*
X0001036647Y0004124348D01*
X0001045814Y0004133501D01*
X0001050781Y0004145463D01*
X0001050781Y0004145520D01*
X0001105565Y0004145520D01*
X0001110511Y0004133549D01*
X0001119662Y0004124382D01*
X0001131625Y0004119415D01*
X0001144577Y0004119403D01*
X0001156549Y0004124348D01*
X0001165716Y0004133501D01*
X0001170683Y0004145463D01*
X0001170683Y0004145520D01*
X0001225466Y0004145520D01*
X0001230413Y0004133549D01*
X0001239564Y0004124382D01*
X0001251526Y0004119415D01*
X0001264479Y0004119403D01*
X0001276450Y0004124348D01*
X0001285615Y0004133501D01*
X0001290582Y0004145463D01*
X0001290582Y0004145520D01*
X0001345368Y0004145520D01*
X0001350314Y0004133549D01*
X0001359465Y0004124382D01*
X0001371428Y0004119415D01*
X0001384381Y0004119403D01*
X0001396352Y0004124348D01*
X0001405519Y0004133501D01*
X0001410486Y0004145463D01*
X0001410486Y0004145520D01*
X0001465269Y0004145520D01*
X0001470216Y0004133549D01*
X0001479367Y0004124382D01*
X0001491329Y0004119415D01*
X0001504282Y0004119403D01*
X0001516253Y0004124348D01*
X0001525418Y0004133501D01*
X0001530388Y0004145463D01*
X0001530388Y0004145520D01*
X0001585171Y0004145520D01*
X0001590117Y0004133549D01*
X0001599268Y0004124382D01*
X0001611231Y0004119415D01*
X0001624184Y0004119403D01*
X0001636155Y0004124348D01*
X0001645322Y0004133501D01*
X0001650289Y0004145463D01*
X0001650289Y0004145520D01*
X0001705073Y0004145520D01*
X0001710019Y0004133549D01*
X0001719170Y0004124382D01*
X0001731132Y0004119415D01*
X0001744085Y0004119403D01*
X0001756056Y0004124348D01*
X0001765221Y0004133501D01*
X0001770191Y0004145463D01*
X0001770191Y0004145520D01*
X0001824974Y0004145520D01*
X0001829921Y0004133549D01*
X0001839072Y0004124382D01*
X0001851034Y0004119415D01*
X0001863987Y0004119403D01*
X0001875958Y0004124348D01*
X0001885125Y0004133501D01*
X0001890092Y0004145463D01*
X0001890092Y0004145520D01*
X0001944876Y0004145520D01*
X0001949822Y0004133549D01*
X0001958973Y0004124382D01*
X0001970936Y0004119415D01*
X0001983888Y0004119403D01*
X0001995860Y0004124348D01*
X0002005027Y0004133501D01*
X0002009993Y0004145463D01*
X0002009993Y0004145520D01*
X0002064776Y0004145520D01*
X0002069724Y0004133549D01*
X0002078875Y0004124382D01*
X0002090837Y0004119415D01*
X0002103790Y0004119403D01*
X0002115761Y0004124348D01*
X0002124928Y0004133501D01*
X0002129895Y0004145463D01*
X0002129895Y0004145520D01*
X0002184679Y0004145520D01*
X0002189625Y0004133549D01*
X0002198776Y0004124382D01*
X0002210739Y0004119415D01*
X0002223692Y0004119403D01*
X0002235663Y0004124348D01*
X0002244830Y0004133501D01*
X0002249797Y0004145463D01*
X0002249797Y0004145520D01*
X0002304580Y0004145520D01*
X0002309527Y0004133549D01*
X0002318678Y0004124382D01*
X0002330640Y0004119415D01*
X0002343593Y0004119403D01*
X0002355564Y0004124348D01*
X0002364731Y0004133501D01*
X0002369699Y0004145463D01*
X0002369699Y0004145520D01*
X0002424482Y0004145520D01*
X0002429428Y0004133549D01*
X0002438579Y0004124382D01*
X0002450542Y0004119415D01*
X0002463495Y0004119403D01*
X0002475466Y0004124348D01*
X0002484633Y0004133501D01*
X0002489600Y0004145463D01*
X0002489600Y0004145520D01*
X0002544384Y0004145520D01*
X0002549330Y0004133549D01*
X0002558481Y0004124382D01*
X0002570443Y0004119415D01*
X0002583396Y0004119403D01*
X0002595367Y0004124348D01*
X0002604534Y0004133501D01*
X0002604928Y0004134448D01*
X0002771968Y0004134448D01*
X0002776574Y0004111290D01*
X0002789692Y0004091660D01*
X0002809323Y0004078543D01*
X0002832480Y0004073937D01*
X0002855637Y0004078543D01*
X0002875268Y0004091660D01*
X0002888385Y0004111290D01*
X0002892991Y0004134448D01*
X0002888385Y0004157605D01*
X0002875268Y0004177237D01*
X0002855637Y0004190354D01*
X0002832480Y0004194960D01*
X0002809323Y0004190354D01*
X0002789692Y0004177237D01*
X0002776574Y0004157605D01*
X0002771968Y0004134448D01*
X0002604928Y0004134448D01*
X0002609502Y0004145463D01*
X0002609512Y0004158416D01*
X0002604567Y0004170387D01*
X0002595416Y0004179554D01*
X0002583453Y0004184521D01*
X0002570500Y0004184533D01*
X0002558529Y0004179585D01*
X0002549362Y0004170435D01*
X0002544395Y0004158473D01*
X0002544384Y0004145520D01*
X0002489600Y0004145520D01*
X0002489611Y0004158416D01*
X0002484665Y0004170387D01*
X0002475514Y0004179554D01*
X0002463552Y0004184521D01*
X0002450599Y0004184533D01*
X0002438628Y0004179585D01*
X0002429461Y0004170435D01*
X0002424493Y0004158473D01*
X0002424482Y0004145520D01*
X0002369699Y0004145520D01*
X0002369710Y0004158416D01*
X0002364763Y0004170387D01*
X0002355612Y0004179554D01*
X0002343650Y0004184521D01*
X0002330697Y0004184533D01*
X0002318726Y0004179585D01*
X0002309559Y0004170435D01*
X0002304592Y0004158473D01*
X0002304580Y0004145520D01*
X0002249797Y0004145520D01*
X0002249808Y0004158416D01*
X0002244862Y0004170387D01*
X0002235711Y0004179554D01*
X0002223748Y0004184521D01*
X0002210796Y0004184533D01*
X0002198824Y0004179585D01*
X0002189657Y0004170435D01*
X0002184690Y0004158473D01*
X0002184679Y0004145520D01*
X0002129895Y0004145520D01*
X0002129907Y0004158416D01*
X0002124960Y0004170387D01*
X0002115809Y0004179554D01*
X0002103847Y0004184521D01*
X0002090894Y0004184533D01*
X0002078923Y0004179585D01*
X0002069756Y0004170435D01*
X0002064789Y0004158473D01*
X0002064776Y0004145520D01*
X0002009993Y0004145520D01*
X0002010005Y0004158416D01*
X0002005059Y0004170387D01*
X0001995908Y0004179554D01*
X0001983945Y0004184521D01*
X0001970992Y0004184533D01*
X0001959021Y0004179585D01*
X0001949853Y0004170435D01*
X0001944886Y0004158473D01*
X0001944876Y0004145520D01*
X0001890092Y0004145520D01*
X0001890104Y0004158416D01*
X0001885157Y0004170387D01*
X0001876006Y0004179554D01*
X0001864044Y0004184521D01*
X0001851091Y0004184533D01*
X0001839120Y0004179585D01*
X0001829953Y0004170435D01*
X0001824985Y0004158473D01*
X0001824974Y0004145520D01*
X0001770191Y0004145520D01*
X0001770202Y0004158416D01*
X0001765256Y0004170387D01*
X0001756105Y0004179554D01*
X0001744142Y0004184521D01*
X0001731189Y0004184533D01*
X0001719218Y0004179585D01*
X0001710050Y0004170435D01*
X0001705083Y0004158473D01*
X0001705073Y0004145520D01*
X0001650289Y0004145520D01*
X0001650300Y0004158416D01*
X0001645354Y0004170387D01*
X0001636203Y0004179554D01*
X0001624241Y0004184521D01*
X0001611288Y0004184533D01*
X0001599317Y0004179585D01*
X0001590150Y0004170435D01*
X0001585182Y0004158473D01*
X0001585171Y0004145520D01*
X0001530388Y0004145520D01*
X0001530399Y0004158416D01*
X0001525452Y0004170387D01*
X0001516301Y0004179554D01*
X0001504339Y0004184521D01*
X0001491386Y0004184533D01*
X0001479415Y0004179585D01*
X0001470247Y0004170435D01*
X0001465280Y0004158473D01*
X0001465269Y0004145520D01*
X0001410486Y0004145520D01*
X0001410497Y0004158416D01*
X0001405551Y0004170387D01*
X0001396400Y0004179554D01*
X0001384437Y0004184521D01*
X0001371485Y0004184533D01*
X0001359513Y0004179585D01*
X0001350346Y0004170435D01*
X0001345379Y0004158473D01*
X0001345368Y0004145520D01*
X0001290582Y0004145520D01*
X0001290596Y0004158416D01*
X0001285649Y0004170387D01*
X0001276498Y0004179554D01*
X0001264536Y0004184521D01*
X0001251583Y0004184533D01*
X0001239612Y0004179585D01*
X0001230445Y0004170435D01*
X0001225478Y0004158473D01*
X0001225466Y0004145520D01*
X0001170683Y0004145520D01*
X0001170694Y0004158416D01*
X0001165748Y0004170387D01*
X0001156597Y0004179554D01*
X0001144634Y0004184521D01*
X0001131681Y0004184533D01*
X0001119710Y0004179585D01*
X0001110543Y0004170435D01*
X0001105576Y0004158473D01*
X0001105565Y0004145520D01*
X0001050781Y0004145520D01*
X0001050793Y0004158416D01*
X0001045846Y0004170387D01*
X0001036694Y0004179554D01*
X0001024732Y0004184521D01*
X0001011779Y0004184533D01*
X0000999809Y0004179585D01*
X0000990642Y0004170435D01*
X0000985674Y0004158473D01*
X0000985663Y0004145520D01*
X0000930880Y0004145520D01*
X0000930891Y0004158416D01*
X0000925945Y0004170387D01*
X0000916794Y0004179554D01*
X0000904831Y0004184521D01*
X0000891878Y0004184533D01*
X0000879907Y0004179585D01*
X0000870740Y0004170435D01*
X0000865773Y0004158473D01*
X0000865762Y0004145520D01*
X0000810978Y0004145520D01*
X0000810989Y0004158416D01*
X0000806043Y0004170387D01*
X0000796892Y0004179554D01*
X0000784930Y0004184521D01*
X0000771977Y0004184533D01*
X0000760006Y0004179585D01*
X0000750839Y0004170435D01*
X0000745871Y0004158473D01*
X0000745860Y0004145520D01*
X0000691077Y0004145520D01*
X0000691088Y0004158416D01*
X0000686141Y0004170387D01*
X0000676990Y0004179554D01*
X0000665028Y0004184521D01*
X0000652075Y0004184533D01*
X0000640104Y0004179585D01*
X0000630937Y0004170435D01*
X0000625970Y0004158473D01*
X0000625958Y0004145520D01*
X0000571175Y0004145520D01*
X0000571186Y0004158416D01*
X0000566240Y0004170387D01*
X0000557089Y0004179554D01*
X0000545126Y0004184521D01*
X0000532174Y0004184533D01*
X0000520202Y0004179585D01*
X0000511035Y0004170435D01*
X0000506067Y0004158473D01*
X0000506057Y0004145520D01*
X0000451273Y0004145520D01*
X0000451285Y0004158416D01*
X0000446338Y0004170387D01*
X0000437187Y0004179554D01*
X0000425225Y0004184521D01*
X0000412272Y0004184533D01*
X0000400301Y0004179585D01*
X0000391134Y0004170435D01*
X0000386167Y0004158473D01*
X0000386155Y0004145520D01*
X0000213624Y0004145520D01*
X0000211220Y0004157605D01*
X0000198103Y0004177237D01*
X0000178471Y0004190354D01*
X0000155314Y0004194960D01*
X0000132158Y0004190354D01*
X0000112526Y0004177237D01*
X0000099409Y0004157605D01*
X0000094803Y0004134448D01*
X0000005393Y0004134448D01*
X0000005393Y0004212067D01*
X0000011074Y0004240626D01*
X0000026951Y0004264387D01*
X0000050712Y0004280264D01*
X0000079271Y0004285944D01*
X0002912459Y0004285944D01*
X0002941019Y0004280264D01*
X0002941019Y0004280264D01*
G37*
X0002941019Y0004280264D02*
X0002964781Y0004264387D01*
X0002980657Y0004240626D01*
X0002986338Y0004212067D01*
X0002986338Y0003909192D01*
X0002985752Y0003906245D01*
X0002984384Y0003904198D01*
X0002982336Y0003902830D01*
X0002979389Y0003902244D01*
X0002952755Y0003902244D01*
X0002950691Y0003901833D01*
X0002948941Y0003900664D01*
X0002947772Y0003898914D01*
X0002947362Y0003896850D01*
X0002947362Y0003312598D01*
X0002947772Y0003310534D01*
X0002948941Y0003308784D01*
X0002950691Y0003307614D01*
X0002952755Y0003307204D01*
X0002979389Y0003307204D01*
X0002982336Y0003306617D01*
X0002984384Y0003305250D01*
X0002985752Y0003303202D01*
X0002986338Y0003300256D01*
X0002986338Y0003012342D01*
X0002979189Y0002976399D01*
X0002959130Y0002946380D01*
X0002929111Y0002926322D01*
X0002893169Y0002919173D01*
X0000079271Y0002918779D01*
X0000050712Y0002924459D01*
X0000026951Y0002940336D01*
X0000011074Y0002964097D01*
X0000005393Y0002992657D01*
X0000005393Y0003069488D01*
X0000094803Y0003069488D01*
X0000099409Y0003046331D01*
X0000112526Y0003026699D01*
X0000132158Y0003013582D01*
X0000155314Y0003008976D01*
X0000178471Y0003013582D01*
X0000198103Y0003026699D01*
X0000211220Y0003046331D01*
X0000215826Y0003069488D01*
X0000211220Y0003092645D01*
X0000198103Y0003112276D01*
X0000178471Y0003125393D01*
X0000155314Y0003130000D01*
X0000132158Y0003125393D01*
X0000112526Y0003112276D01*
X0000099409Y0003092645D01*
X0000094803Y0003069488D01*
X0000005393Y0003069488D01*
X0000005393Y0003296318D01*
X0000005979Y0003299265D01*
X0000007348Y0003301313D01*
X0000009395Y0003302681D01*
X0000012342Y0003303267D01*
X0000038976Y0003303267D01*
X0000041040Y0003303678D01*
X0000042789Y0003304846D01*
X0000043959Y0003306596D01*
X0000044370Y0003308661D01*
X0000044370Y0003447719D01*
X0000665678Y0003447719D01*
X0000665678Y0003183940D01*
X0000665812Y0003183267D01*
X0000665812Y0003182580D01*
X0000667310Y0003175047D01*
X0000667310Y0003175047D01*
X0000668351Y0003172535D01*
X0000672618Y0003166149D01*
X0000674540Y0003164225D01*
X0000680927Y0003159959D01*
X0000680927Y0003159959D01*
X0000682397Y0003159350D01*
X0000683439Y0003158919D01*
X0000683439Y0003158919D01*
X0000690972Y0003157420D01*
X0000691658Y0003157420D01*
X0000692330Y0003157286D01*
X0000863591Y0003157286D01*
X0000864264Y0003157420D01*
X0000864951Y0003157420D01*
X0000872484Y0003158919D01*
X0000872484Y0003158919D01*
X0000874995Y0003159959D01*
X0000881382Y0003164225D01*
X0000883305Y0003166149D01*
X0000887572Y0003172535D01*
X0000887572Y0003172535D01*
X0000888612Y0003175047D01*
X0000890111Y0003182580D01*
X0000890111Y0003183267D01*
X0000890245Y0003183940D01*
X0000890245Y0003368979D01*
X0001210953Y0003368979D01*
X0001210953Y0003259530D01*
X0001211087Y0003258857D01*
X0001211087Y0003258171D01*
X0001212586Y0003250638D01*
X0001212586Y0003250638D01*
X0001213626Y0003248126D01*
X0001217893Y0003241739D01*
X0001219816Y0003239817D01*
X0001226202Y0003235550D01*
X0001226202Y0003235550D01*
X0001227674Y0003234940D01*
X0001228714Y0003234509D01*
X0001228714Y0003234509D01*
X0001236247Y0003233011D01*
X0001236934Y0003233011D01*
X0001237607Y0003232877D01*
X0001250323Y0003232877D01*
X0001250323Y0003077641D01*
X0001250457Y0003076967D01*
X0001250457Y0003076280D01*
X0001251956Y0003068748D01*
X0001251956Y0003068748D01*
X0001252996Y0003066236D01*
X0001257263Y0003059849D01*
X0001259186Y0003057927D01*
X0001265572Y0003053660D01*
X0001265572Y0003053660D01*
X0001267044Y0003053050D01*
X0001268084Y0003052619D01*
X0001268084Y0003052619D01*
X0001275617Y0003051120D01*
X0001276304Y0003051120D01*
X0001276977Y0003050987D01*
X0001717922Y0003050987D01*
X0001718595Y0003051120D01*
X0001719281Y0003051120D01*
X0001726814Y0003052619D01*
X0001726815Y0003052619D01*
X0001729327Y0003053660D01*
X0001735713Y0003057927D01*
X0001737635Y0003059849D01*
X0001741903Y0003066236D01*
X0001741903Y0003066236D01*
X0001742512Y0003067707D01*
X0001742842Y0003068503D01*
X0002770984Y0003068503D01*
X0002775590Y0003045347D01*
X0002788707Y0003025715D01*
X0002808339Y0003012598D01*
X0002831496Y0003007992D01*
X0002854652Y0003012598D01*
X0002874284Y0003025715D01*
X0002887401Y0003045347D01*
X0002892006Y0003068503D01*
X0002887401Y0003091660D01*
X0002874284Y0003111292D01*
X0002854652Y0003124409D01*
X0002831496Y0003129015D01*
X0002808339Y0003124409D01*
X0002788707Y0003111292D01*
X0002775590Y0003091660D01*
X0002770984Y0003068503D01*
X0001742842Y0003068503D01*
X0001742943Y0003068748D01*
X0001742943Y0003068748D01*
X0001744441Y0003076280D01*
X0001744441Y0003076967D01*
X0001744575Y0003077641D01*
X0001744575Y0003232877D01*
X0001751386Y0003232877D01*
X0001752060Y0003233011D01*
X0001752746Y0003233011D01*
X0001760279Y0003234509D01*
X0001760279Y0003234509D01*
X0001762790Y0003235550D01*
X0001769175Y0003239817D01*
X0001771100Y0003241739D01*
X0001775367Y0003248126D01*
X0001775367Y0003248126D01*
X0001776408Y0003250638D01*
X0001777906Y0003258171D01*
X0001777906Y0003258857D01*
X0001778040Y0003259530D01*
X0001778040Y0003368979D01*
X0001777906Y0003369652D01*
X0001777906Y0003370339D01*
X0001776408Y0003377872D01*
X0001775367Y0003380384D01*
X0001775367Y0003380384D01*
X0001771100Y0003386770D01*
X0001769175Y0003388693D01*
X0001762790Y0003392959D01*
X0001760279Y0003394000D01*
X0001760279Y0003394000D01*
X0001752746Y0003395499D01*
X0001752060Y0003395499D01*
X0001751386Y0003395633D01*
X0001237607Y0003395633D01*
X0001236934Y0003395499D01*
X0001236247Y0003395499D01*
X0001228714Y0003394000D01*
X0001228714Y0003394000D01*
X0001227727Y0003393592D01*
X0001226202Y0003392959D01*
X0001226202Y0003392959D01*
X0001219816Y0003388693D01*
X0001217893Y0003386770D01*
X0001213626Y0003380384D01*
X0001213626Y0003380384D01*
X0001212586Y0003377872D01*
X0001211087Y0003370339D01*
X0001211087Y0003369652D01*
X0001210953Y0003368979D01*
X0000890245Y0003368979D01*
X0000890245Y0003447719D01*
X0000890111Y0003448392D01*
X0000890111Y0003449079D01*
X0000888612Y0003456612D01*
X0000887572Y0003459124D01*
X0000887572Y0003459124D01*
X0000883305Y0003465510D01*
X0000881382Y0003467432D01*
X0000874995Y0003471699D01*
X0000872484Y0003472741D01*
X0000872484Y0003472741D01*
X0000864951Y0003474239D01*
X0000864264Y0003474239D01*
X0000863591Y0003474373D01*
X0000692330Y0003474373D01*
X0000691658Y0003474239D01*
X0000690972Y0003474239D01*
X0000683439Y0003472741D01*
X0000683439Y0003472741D01*
X0000682452Y0003472332D01*
X0000680927Y0003471699D01*
X0000680927Y0003471699D01*
X0000674540Y0003467432D01*
X0000672618Y0003465510D01*
X0000668351Y0003459124D01*
X0000668351Y0003459124D01*
X0000667310Y0003456612D01*
X0000665812Y0003449079D01*
X0000665812Y0003448392D01*
X0000665678Y0003447719D01*
X0000044370Y0003447719D01*
X0000044370Y0003779419D01*
X0002400361Y0003779419D01*
X0002400961Y0003776375D01*
X0002400962Y0003776375D01*
X0002420000Y0003730214D01*
X0002420000Y0003730214D01*
X0002420230Y0003729869D01*
X0002421720Y0003727631D01*
X0002421720Y0003727631D01*
X0002456975Y0003692270D01*
X0002456975Y0003692270D01*
X0002458009Y0003691576D01*
X0002459552Y0003690542D01*
X0002459553Y0003690542D01*
X0002505655Y0003671364D01*
X0002505656Y0003671363D01*
X0002508698Y0003670753D01*
X0002558631Y0003670678D01*
X0002561675Y0003671279D01*
X0002561676Y0003671279D01*
X0002607836Y0003690317D01*
X0002607837Y0003690317D01*
X0002609387Y0003691350D01*
X0002610419Y0003692037D01*
X0002610419Y0003692038D01*
X0002645781Y0003727292D01*
X0002645783Y0003727297D01*
X0002645788Y0003727301D01*
X0002646652Y0003728592D01*
X0002647509Y0003729869D01*
X0002647510Y0003729876D01*
X0002647513Y0003729881D01*
X0002647811Y0003731376D01*
X0002648118Y0003732912D01*
X0002648117Y0003732918D01*
X0002648118Y0003732924D01*
X0002648118Y0003875443D01*
X0002648118Y0003875444D01*
X0002647513Y0003878487D01*
X0002645788Y0003881067D01*
X0002610750Y0003916107D01*
X0002609456Y0003916971D01*
X0002608181Y0003917825D01*
X0002608170Y0003917830D01*
X0002608170Y0003917830D01*
X0002608170Y0003917830D01*
X0002562078Y0003937003D01*
X0002562078Y0003937003D01*
X0002562078Y0003937003D01*
X0002559645Y0003937492D01*
X0002559035Y0003937614D01*
X0002559035Y0003937614D01*
X0002509102Y0003937690D01*
X0002506058Y0003937089D01*
X0002459897Y0003918050D01*
X0002459897Y0003918050D01*
X0002457314Y0003916330D01*
X0002421953Y0003881076D01*
X0002420225Y0003878498D01*
X0002420225Y0003878498D01*
X0002401046Y0003832395D01*
X0002401046Y0003832395D01*
X0002400436Y0003829352D01*
X0002400361Y0003779419D01*
X0000044370Y0003779419D01*
X0000044370Y0003892913D01*
X0000043959Y0003894977D01*
X0000042789Y0003896727D01*
X0000041040Y0003897896D01*
X0000038976Y0003898307D01*
X0000012342Y0003898307D01*
X0000009395Y0003898893D01*
X0000007348Y0003900261D01*
X0000005979Y0003902308D01*
X0000005393Y0003905255D01*
X0000005393Y0004134448D01*
X0000094803Y0004134448D01*
X0000099409Y0004111290D01*
X0000112526Y0004091660D01*
X0000132158Y0004078543D01*
X0000155314Y0004073937D01*
X0000178471Y0004078543D01*
X0000198103Y0004091660D01*
X0000206206Y0004103788D01*
X0000445998Y0004103788D01*
X0000450944Y0004091817D01*
X0000460095Y0004082650D01*
X0000472058Y0004077682D01*
X0000485010Y0004077670D01*
X0000496982Y0004082617D01*
X0000506148Y0004091768D01*
X0000511116Y0004103731D01*
X0000511116Y0004103788D01*
X0000565899Y0004103788D01*
X0000570846Y0004091817D01*
X0000579997Y0004082650D01*
X0000591959Y0004077682D01*
X0000604912Y0004077670D01*
X0000616883Y0004082617D01*
X0000626050Y0004091768D01*
X0000631017Y0004103731D01*
X0000631017Y0004103788D01*
X0000685800Y0004103788D01*
X0000690746Y0004091817D01*
X0000699898Y0004082650D01*
X0000711860Y0004077682D01*
X0000724814Y0004077670D01*
X0000736785Y0004082617D01*
X0000745952Y0004091768D01*
X0000750919Y0004103731D01*
X0000750919Y0004103788D01*
X0000805703Y0004103788D01*
X0000810649Y0004091817D01*
X0000819800Y0004082650D01*
X0000831762Y0004077682D01*
X0000844715Y0004077670D01*
X0000856685Y0004082617D01*
X0000865853Y0004091768D01*
X0000870821Y0004103731D01*
X0000870821Y0004103788D01*
X0000925603Y0004103788D01*
X0000930549Y0004091817D01*
X0000939701Y0004082650D01*
X0000951663Y0004077682D01*
X0000964617Y0004077670D01*
X0000976588Y0004082617D01*
X0000985755Y0004091768D01*
X0000990722Y0004103731D01*
X0000990722Y0004103788D01*
X0001045506Y0004103788D01*
X0001050452Y0004091817D01*
X0001059603Y0004082650D01*
X0001071566Y0004077682D01*
X0001084518Y0004077670D01*
X0001096490Y0004082617D01*
X0001105657Y0004091768D01*
X0001110624Y0004103731D01*
X0001110624Y0004103788D01*
X0001165407Y0004103788D01*
X0001170354Y0004091817D01*
X0001179505Y0004082650D01*
X0001191467Y0004077682D01*
X0001204420Y0004077670D01*
X0001216391Y0004082617D01*
X0001225558Y0004091768D01*
X0001230525Y0004103731D01*
X0001230525Y0004103788D01*
X0001285309Y0004103788D01*
X0001290255Y0004091817D01*
X0001299406Y0004082650D01*
X0001311369Y0004077682D01*
X0001324322Y0004077670D01*
X0001336293Y0004082617D01*
X0001345460Y0004091768D01*
X0001350427Y0004103731D01*
X0001350427Y0004103788D01*
X0001405210Y0004103788D01*
X0001410156Y0004091817D01*
X0001419308Y0004082650D01*
X0001431270Y0004077682D01*
X0001444223Y0004077670D01*
X0001456194Y0004082617D01*
X0001465361Y0004091768D01*
X0001470328Y0004103731D01*
X0001470329Y0004103788D01*
X0001525112Y0004103788D01*
X0001530058Y0004091817D01*
X0001539209Y0004082650D01*
X0001551172Y0004077682D01*
X0001564125Y0004077670D01*
X0001576096Y0004082617D01*
X0001585263Y0004091768D01*
X0001590230Y0004103731D01*
X0001590230Y0004103788D01*
X0001645014Y0004103788D01*
X0001649959Y0004091817D01*
X0001659111Y0004082650D01*
X0001671073Y0004077682D01*
X0001684026Y0004077670D01*
X0001695997Y0004082617D01*
X0001705164Y0004091768D01*
X0001710132Y0004103731D01*
X0001710132Y0004103788D01*
X0001764915Y0004103788D01*
X0001769862Y0004091817D01*
X0001779012Y0004082650D01*
X0001790975Y0004077682D01*
X0001803928Y0004077670D01*
X0001815899Y0004082617D01*
X0001825066Y0004091768D01*
X0001830033Y0004103731D01*
X0001830033Y0004103788D01*
X0001884817Y0004103788D01*
X0001889762Y0004091817D01*
X0001898914Y0004082650D01*
X0001910877Y0004077682D01*
X0001923829Y0004077670D01*
X0001935801Y0004082617D01*
X0001944968Y0004091768D01*
X0001949935Y0004103731D01*
X0001949935Y0004103788D01*
X0002004718Y0004103788D01*
X0002009665Y0004091817D01*
X0002018816Y0004082650D01*
X0002030778Y0004077682D01*
X0002043731Y0004077670D01*
X0002055702Y0004082617D01*
X0002064868Y0004091768D01*
X0002069836Y0004103731D01*
X0002069836Y0004103788D01*
X0002124620Y0004103788D01*
X0002129566Y0004091817D01*
X0002138717Y0004082650D01*
X0002150680Y0004077682D01*
X0002163633Y0004077670D01*
X0002175604Y0004082617D01*
X0002184771Y0004091768D01*
X0002189738Y0004103731D01*
X0002189738Y0004103788D01*
X0002244521Y0004103788D01*
X0002249468Y0004091817D01*
X0002258619Y0004082650D01*
X0002270581Y0004077682D01*
X0002283534Y0004077670D01*
X0002295505Y0004082617D01*
X0002304672Y0004091768D01*
X0002309640Y0004103731D01*
X0002309640Y0004103788D01*
X0002364423Y0004103788D01*
X0002369369Y0004091817D01*
X0002378520Y0004082650D01*
X0002390483Y0004077682D01*
X0002403436Y0004077670D01*
X0002415407Y0004082617D01*
X0002424574Y0004091768D01*
X0002429541Y0004103731D01*
X0002429541Y0004103788D01*
X0002484325Y0004103788D01*
X0002489271Y0004091817D01*
X0002498422Y0004082650D01*
X0002510384Y0004077682D01*
X0002523337Y0004077670D01*
X0002535308Y0004082617D01*
X0002544475Y0004091768D01*
X0002549442Y0004103731D01*
X0002549454Y0004116684D01*
X0002544508Y0004128655D01*
X0002535357Y0004137822D01*
X0002523394Y0004142788D01*
X0002510441Y0004142800D01*
X0002498470Y0004137854D01*
X0002489303Y0004128703D01*
X0002484336Y0004116741D01*
X0002484325Y0004103788D01*
X0002429541Y0004103788D01*
X0002429552Y0004116684D01*
X0002424606Y0004128655D01*
X0002415455Y0004137822D01*
X0002403492Y0004142788D01*
X0002390540Y0004142800D01*
X0002378569Y0004137854D01*
X0002369402Y0004128703D01*
X0002364434Y0004116741D01*
X0002364423Y0004103788D01*
X0002309640Y0004103788D01*
X0002309651Y0004116684D01*
X0002304704Y0004128655D01*
X0002295553Y0004137822D01*
X0002283591Y0004142788D01*
X0002270638Y0004142800D01*
X0002258667Y0004137854D01*
X0002249500Y0004128703D01*
X0002244533Y0004116741D01*
X0002244521Y0004103788D01*
X0002189738Y0004103788D01*
X0002189749Y0004116684D01*
X0002184803Y0004128655D01*
X0002175652Y0004137822D01*
X0002163689Y0004142788D01*
X0002150737Y0004142800D01*
X0002138765Y0004137854D01*
X0002129598Y0004128703D01*
X0002124631Y0004116741D01*
X0002124620Y0004103788D01*
X0002069836Y0004103788D01*
X0002069848Y0004116684D01*
X0002064900Y0004128655D01*
X0002055750Y0004137822D01*
X0002043788Y0004142788D01*
X0002030835Y0004142800D01*
X0002018864Y0004137854D01*
X0002009697Y0004128703D01*
X0002004730Y0004116741D01*
X0002004718Y0004103788D01*
X0001949935Y0004103788D01*
X0001949946Y0004116684D01*
X0001945000Y0004128655D01*
X0001935849Y0004137822D01*
X0001923886Y0004142788D01*
X0001910931Y0004142800D01*
X0001898962Y0004137854D01*
X0001889795Y0004128703D01*
X0001884828Y0004116741D01*
X0001884817Y0004103788D01*
X0001830033Y0004103788D01*
X0001830045Y0004116684D01*
X0001825098Y0004128655D01*
X0001815947Y0004137822D01*
X0001803985Y0004142788D01*
X0001791032Y0004142800D01*
X0001779061Y0004137854D01*
X0001769894Y0004128703D01*
X0001764926Y0004116741D01*
X0001764915Y0004103788D01*
X0001710132Y0004103788D01*
X0001710143Y0004116684D01*
X0001705197Y0004128655D01*
X0001696046Y0004137822D01*
X0001684083Y0004142788D01*
X0001671128Y0004142800D01*
X0001659159Y0004137854D01*
X0001649992Y0004128703D01*
X0001645025Y0004116741D01*
X0001645014Y0004103788D01*
X0001590230Y0004103788D01*
X0001590241Y0004116684D01*
X0001585295Y0004128655D01*
X0001576144Y0004137822D01*
X0001564181Y0004142788D01*
X0001551229Y0004142800D01*
X0001539258Y0004137854D01*
X0001530091Y0004128703D01*
X0001525123Y0004116741D01*
X0001525112Y0004103788D01*
X0001470329Y0004103788D01*
X0001470340Y0004116684D01*
X0001465393Y0004128655D01*
X0001456242Y0004137822D01*
X0001444280Y0004142788D01*
X0001431325Y0004142800D01*
X0001419356Y0004137854D01*
X0001410189Y0004128703D01*
X0001405222Y0004116741D01*
X0001405210Y0004103788D01*
X0001350427Y0004103788D01*
X0001350438Y0004116684D01*
X0001345492Y0004128655D01*
X0001336341Y0004137822D01*
X0001324378Y0004142788D01*
X0001311426Y0004142800D01*
X0001299454Y0004137854D01*
X0001290287Y0004128703D01*
X0001285320Y0004116741D01*
X0001285309Y0004103788D01*
X0001230525Y0004103788D01*
X0001230537Y0004116684D01*
X0001225590Y0004128655D01*
X0001216439Y0004137822D01*
X0001204477Y0004142788D01*
X0001191524Y0004142800D01*
X0001179553Y0004137854D01*
X0001170386Y0004128703D01*
X0001165419Y0004116741D01*
X0001165407Y0004103788D01*
X0001110624Y0004103788D01*
X0001110635Y0004116684D01*
X0001105689Y0004128655D01*
X0001096538Y0004137822D01*
X0001084575Y0004142788D01*
X0001071622Y0004142800D01*
X0001059651Y0004137854D01*
X0001050484Y0004128703D01*
X0001045517Y0004116741D01*
X0001045506Y0004103788D01*
X0000990722Y0004103788D01*
X0000990733Y0004116684D01*
X0000985787Y0004128655D01*
X0000976636Y0004137822D01*
X0000964674Y0004142788D01*
X0000951721Y0004142800D01*
X0000939749Y0004137854D01*
X0000930583Y0004128703D01*
X0000925615Y0004116741D01*
X0000925603Y0004103788D01*
X0000870821Y0004103788D01*
X0000870832Y0004116684D01*
X0000865886Y0004128655D01*
X0000856735Y0004137822D01*
X0000844771Y0004142788D01*
X0000831819Y0004142800D01*
X0000819847Y0004137854D01*
X0000810681Y0004128703D01*
X0000805714Y0004116741D01*
X0000805703Y0004103788D01*
X0000750919Y0004103788D01*
X0000750930Y0004116684D01*
X0000745984Y0004128655D01*
X0000736833Y0004137822D01*
X0000724869Y0004142788D01*
X0000711918Y0004142800D01*
X0000699946Y0004137854D01*
X0000690780Y0004128703D01*
X0000685812Y0004116741D01*
X0000685800Y0004103788D01*
X0000631017Y0004103788D01*
X0000631028Y0004116684D01*
X0000626082Y0004128655D01*
X0000616931Y0004137822D01*
X0000604969Y0004142788D01*
X0000592016Y0004142800D01*
X0000580045Y0004137854D01*
X0000570878Y0004128703D01*
X0000565911Y0004116741D01*
X0000565899Y0004103788D01*
X0000511116Y0004103788D01*
X0000511127Y0004116684D01*
X0000506181Y0004128655D01*
X0000497030Y0004137822D01*
X0000485067Y0004142788D01*
X0000472115Y0004142800D01*
X0000460143Y0004137854D01*
X0000450976Y0004128703D01*
X0000446008Y0004116741D01*
X0000445998Y0004103788D01*
X0000206206Y0004103788D01*
X0000211220Y0004111290D01*
X0000215826Y0004134448D01*
X0000213624Y0004145520D01*
X0000386155Y0004145520D01*
X0000391102Y0004133549D01*
X0000400253Y0004124382D01*
X0000412215Y0004119415D01*
X0000425168Y0004119403D01*
X0000437139Y0004124348D01*
X0000446306Y0004133501D01*
X0000451273Y0004145463D01*
X0000451273Y0004145520D01*
X0000506057Y0004145520D01*
X0000511003Y0004133549D01*
X0000520154Y0004124382D01*
X0000532117Y0004119415D01*
X0000545070Y0004119403D01*
X0000557041Y0004124348D01*
X0000566208Y0004133501D01*
X0000571175Y0004145463D01*
X0000571175Y0004145520D01*
X0000625958Y0004145520D01*
X0000630905Y0004133549D01*
X0000640056Y0004124382D01*
X0000652018Y0004119415D01*
X0000664971Y0004119403D01*
X0000676942Y0004124348D01*
X0000686109Y0004133501D01*
X0000691077Y0004145463D01*
X0000691077Y0004145520D01*
X0000745860Y0004145520D01*
X0000750806Y0004133549D01*
X0000759957Y0004124382D01*
X0000771920Y0004119415D01*
X0000784873Y0004119403D01*
X0000796844Y0004124348D01*
X0000806011Y0004133501D01*
X0000810978Y0004145463D01*
X0000810978Y0004145520D01*
X0000865762Y0004145520D01*
X0000870708Y0004133549D01*
X0000879859Y0004124382D01*
X0000891821Y0004119415D01*
X0000904774Y0004119403D01*
X0000916745Y0004124348D01*
X0000925912Y0004133501D01*
X0000930880Y0004145463D01*
X0000930880Y0004145520D01*
X0000985663Y0004145520D01*
X0000990610Y0004133549D01*
X0000999761Y0004124382D01*
X0001011722Y0004119415D01*
X0001024675Y0004119403D01*
X0001036647Y0004124348D01*
X0001045814Y0004133501D01*
X0001050781Y0004145463D01*
X0001050781Y0004145520D01*
X0001105565Y0004145520D01*
X0001110511Y0004133549D01*
X0001119662Y0004124382D01*
X0001131625Y0004119415D01*
X0001144577Y0004119403D01*
X0001156549Y0004124348D01*
X0001165716Y0004133501D01*
X0001170683Y0004145463D01*
X0001170683Y0004145520D01*
X0001225466Y0004145520D01*
X0001230413Y0004133549D01*
X0001239564Y0004124382D01*
X0001251526Y0004119415D01*
X0001264479Y0004119403D01*
X0001276450Y0004124348D01*
X0001285615Y0004133501D01*
X0001290582Y0004145463D01*
X0001290582Y0004145520D01*
X0001345368Y0004145520D01*
X0001350314Y0004133549D01*
X0001359465Y0004124382D01*
X0001371428Y0004119415D01*
X0001384381Y0004119403D01*
X0001396352Y0004124348D01*
X0001405519Y0004133501D01*
X0001410486Y0004145463D01*
X0001410486Y0004145520D01*
X0001465269Y0004145520D01*
X0001470216Y0004133549D01*
X0001479367Y0004124382D01*
X0001491329Y0004119415D01*
X0001504282Y0004119403D01*
X0001516253Y0004124348D01*
X0001525418Y0004133501D01*
X0001530388Y0004145463D01*
X0001530388Y0004145520D01*
X0001585171Y0004145520D01*
X0001590117Y0004133549D01*
X0001599268Y0004124382D01*
X0001611231Y0004119415D01*
X0001624184Y0004119403D01*
X0001636155Y0004124348D01*
X0001645322Y0004133501D01*
X0001650289Y0004145463D01*
X0001650289Y0004145520D01*
X0001705073Y0004145520D01*
X0001710019Y0004133549D01*
X0001719170Y0004124382D01*
X0001731132Y0004119415D01*
X0001744085Y0004119403D01*
X0001756056Y0004124348D01*
X0001765221Y0004133501D01*
X0001770191Y0004145463D01*
X0001770191Y0004145520D01*
X0001824974Y0004145520D01*
X0001829921Y0004133549D01*
X0001839072Y0004124382D01*
X0001851034Y0004119415D01*
X0001863987Y0004119403D01*
X0001875958Y0004124348D01*
X0001885125Y0004133501D01*
X0001890092Y0004145463D01*
X0001890092Y0004145520D01*
X0001944876Y0004145520D01*
X0001949822Y0004133549D01*
X0001958973Y0004124382D01*
X0001970936Y0004119415D01*
X0001983888Y0004119403D01*
X0001995860Y0004124348D01*
X0002005027Y0004133501D01*
X0002009993Y0004145463D01*
X0002009993Y0004145520D01*
X0002064776Y0004145520D01*
X0002069724Y0004133549D01*
X0002078875Y0004124382D01*
X0002090837Y0004119415D01*
X0002103790Y0004119403D01*
X0002115761Y0004124348D01*
X0002124928Y0004133501D01*
X0002129895Y0004145463D01*
X0002129895Y0004145520D01*
X0002184679Y0004145520D01*
X0002189625Y0004133549D01*
X0002198776Y0004124382D01*
X0002210739Y0004119415D01*
X0002223692Y0004119403D01*
X0002235663Y0004124348D01*
X0002244830Y0004133501D01*
X0002249797Y0004145463D01*
X0002249797Y0004145520D01*
X0002304580Y0004145520D01*
X0002309527Y0004133549D01*
X0002318678Y0004124382D01*
X0002330640Y0004119415D01*
X0002343593Y0004119403D01*
X0002355564Y0004124348D01*
X0002364731Y0004133501D01*
X0002369699Y0004145463D01*
X0002369699Y0004145520D01*
X0002424482Y0004145520D01*
X0002429428Y0004133549D01*
X0002438579Y0004124382D01*
X0002450542Y0004119415D01*
X0002463495Y0004119403D01*
X0002475466Y0004124348D01*
X0002484633Y0004133501D01*
X0002489600Y0004145463D01*
X0002489600Y0004145520D01*
X0002544384Y0004145520D01*
X0002549330Y0004133549D01*
X0002558481Y0004124382D01*
X0002570443Y0004119415D01*
X0002583396Y0004119403D01*
X0002595367Y0004124348D01*
X0002604534Y0004133501D01*
X0002604928Y0004134448D01*
X0002771968Y0004134448D01*
X0002776574Y0004111290D01*
X0002789692Y0004091660D01*
X0002809323Y0004078543D01*
X0002832480Y0004073937D01*
X0002855637Y0004078543D01*
X0002875268Y0004091660D01*
X0002888385Y0004111290D01*
X0002892991Y0004134448D01*
X0002888385Y0004157605D01*
X0002875268Y0004177237D01*
X0002855637Y0004190354D01*
X0002832480Y0004194960D01*
X0002809323Y0004190354D01*
X0002789692Y0004177237D01*
X0002776574Y0004157605D01*
X0002771968Y0004134448D01*
X0002604928Y0004134448D01*
X0002609502Y0004145463D01*
X0002609512Y0004158416D01*
X0002604567Y0004170387D01*
X0002595416Y0004179554D01*
X0002583453Y0004184521D01*
X0002570500Y0004184533D01*
X0002558529Y0004179585D01*
X0002549362Y0004170435D01*
X0002544395Y0004158473D01*
X0002544384Y0004145520D01*
X0002489600Y0004145520D01*
X0002489611Y0004158416D01*
X0002484665Y0004170387D01*
X0002475514Y0004179554D01*
X0002463552Y0004184521D01*
X0002450599Y0004184533D01*
X0002438628Y0004179585D01*
X0002429461Y0004170435D01*
X0002424493Y0004158473D01*
X0002424482Y0004145520D01*
X0002369699Y0004145520D01*
X0002369710Y0004158416D01*
X0002364763Y0004170387D01*
X0002355612Y0004179554D01*
X0002343650Y0004184521D01*
X0002330697Y0004184533D01*
X0002318726Y0004179585D01*
X0002309559Y0004170435D01*
X0002304592Y0004158473D01*
X0002304580Y0004145520D01*
X0002249797Y0004145520D01*
X0002249808Y0004158416D01*
X0002244862Y0004170387D01*
X0002235711Y0004179554D01*
X0002223748Y0004184521D01*
X0002210796Y0004184533D01*
X0002198824Y0004179585D01*
X0002189657Y0004170435D01*
X0002184690Y0004158473D01*
X0002184679Y0004145520D01*
X0002129895Y0004145520D01*
X0002129907Y0004158416D01*
X0002124960Y0004170387D01*
X0002115809Y0004179554D01*
X0002103847Y0004184521D01*
X0002090894Y0004184533D01*
X0002078923Y0004179585D01*
X0002069756Y0004170435D01*
X0002064789Y0004158473D01*
X0002064776Y0004145520D01*
X0002009993Y0004145520D01*
X0002010005Y0004158416D01*
X0002005059Y0004170387D01*
X0001995908Y0004179554D01*
X0001983945Y0004184521D01*
X0001970992Y0004184533D01*
X0001959021Y0004179585D01*
X0001949853Y0004170435D01*
X0001944886Y0004158473D01*
X0001944876Y0004145520D01*
X0001890092Y0004145520D01*
X0001890104Y0004158416D01*
X0001885157Y0004170387D01*
X0001876006Y0004179554D01*
X0001864044Y0004184521D01*
X0001851091Y0004184533D01*
X0001839120Y0004179585D01*
X0001829953Y0004170435D01*
X0001824985Y0004158473D01*
X0001824974Y0004145520D01*
X0001770191Y0004145520D01*
X0001770202Y0004158416D01*
X0001765256Y0004170387D01*
X0001756105Y0004179554D01*
X0001744142Y0004184521D01*
X0001731189Y0004184533D01*
X0001719218Y0004179585D01*
X0001710050Y0004170435D01*
X0001705083Y0004158473D01*
X0001705073Y0004145520D01*
X0001650289Y0004145520D01*
X0001650300Y0004158416D01*
X0001645354Y0004170387D01*
X0001636203Y0004179554D01*
X0001624241Y0004184521D01*
X0001611288Y0004184533D01*
X0001599317Y0004179585D01*
X0001590150Y0004170435D01*
X0001585182Y0004158473D01*
X0001585171Y0004145520D01*
X0001530388Y0004145520D01*
X0001530399Y0004158416D01*
X0001525452Y0004170387D01*
X0001516301Y0004179554D01*
X0001504339Y0004184521D01*
X0001491386Y0004184533D01*
X0001479415Y0004179585D01*
X0001470247Y0004170435D01*
X0001465280Y0004158473D01*
X0001465269Y0004145520D01*
X0001410486Y0004145520D01*
X0001410497Y0004158416D01*
X0001405551Y0004170387D01*
X0001396400Y0004179554D01*
X0001384437Y0004184521D01*
X0001371485Y0004184533D01*
X0001359513Y0004179585D01*
X0001350346Y0004170435D01*
X0001345379Y0004158473D01*
X0001345368Y0004145520D01*
X0001290582Y0004145520D01*
X0001290596Y0004158416D01*
X0001285649Y0004170387D01*
X0001276498Y0004179554D01*
X0001264536Y0004184521D01*
X0001251583Y0004184533D01*
X0001239612Y0004179585D01*
X0001230445Y0004170435D01*
X0001225478Y0004158473D01*
X0001225466Y0004145520D01*
X0001170683Y0004145520D01*
X0001170694Y0004158416D01*
X0001165748Y0004170387D01*
X0001156597Y0004179554D01*
X0001144634Y0004184521D01*
X0001131681Y0004184533D01*
X0001119710Y0004179585D01*
X0001110543Y0004170435D01*
X0001105576Y0004158473D01*
X0001105565Y0004145520D01*
X0001050781Y0004145520D01*
X0001050793Y0004158416D01*
X0001045846Y0004170387D01*
X0001036694Y0004179554D01*
X0001024732Y0004184521D01*
X0001011779Y0004184533D01*
X0000999809Y0004179585D01*
X0000990642Y0004170435D01*
X0000985674Y0004158473D01*
X0000985663Y0004145520D01*
X0000930880Y0004145520D01*
X0000930891Y0004158416D01*
X0000925945Y0004170387D01*
X0000916794Y0004179554D01*
X0000904831Y0004184521D01*
X0000891878Y0004184533D01*
X0000879907Y0004179585D01*
X0000870740Y0004170435D01*
X0000865773Y0004158473D01*
X0000865762Y0004145520D01*
X0000810978Y0004145520D01*
X0000810989Y0004158416D01*
X0000806043Y0004170387D01*
X0000796892Y0004179554D01*
X0000784930Y0004184521D01*
X0000771977Y0004184533D01*
X0000760006Y0004179585D01*
X0000750839Y0004170435D01*
X0000745871Y0004158473D01*
X0000745860Y0004145520D01*
X0000691077Y0004145520D01*
X0000691088Y0004158416D01*
X0000686141Y0004170387D01*
X0000676990Y0004179554D01*
X0000665028Y0004184521D01*
X0000652075Y0004184533D01*
X0000640104Y0004179585D01*
X0000630937Y0004170435D01*
X0000625970Y0004158473D01*
X0000625958Y0004145520D01*
X0000571175Y0004145520D01*
X0000571186Y0004158416D01*
X0000566240Y0004170387D01*
X0000557089Y0004179554D01*
X0000545126Y0004184521D01*
X0000532174Y0004184533D01*
X0000520202Y0004179585D01*
X0000511035Y0004170435D01*
X0000506067Y0004158473D01*
X0000506057Y0004145520D01*
X0000451273Y0004145520D01*
X0000451285Y0004158416D01*
X0000446338Y0004170387D01*
X0000437187Y0004179554D01*
X0000425225Y0004184521D01*
X0000412272Y0004184533D01*
X0000400301Y0004179585D01*
X0000391134Y0004170435D01*
X0000386167Y0004158473D01*
X0000386155Y0004145520D01*
X0000213624Y0004145520D01*
X0000211220Y0004157605D01*
X0000198103Y0004177237D01*
X0000178471Y0004190354D01*
X0000155314Y0004194960D01*
X0000132158Y0004190354D01*
X0000112526Y0004177237D01*
X0000099409Y0004157605D01*
X0000094803Y0004134448D01*
X0000005393Y0004134448D01*
X0000005393Y0004212067D01*
X0000011074Y0004240626D01*
X0000026951Y0004264387D01*
X0000050712Y0004280264D01*
X0000079271Y0004285944D01*
X0002912459Y0004285944D01*
X0002941019Y0004280264D01*
G01G01G01G01G01G01G01G01*
D23*
D24*
X0003070866Y0004291338D02*
X0003435433Y0004146454D03*
D25*
G36*
X0003251678Y0004270855D02*
X0003278667Y0004264799D01*
X0003292165Y0004256932D01*
X0003292188Y0004256924D01*
X0003292205Y0004256909D01*
X0003306245Y0004248886D01*
X0003307073Y0004248609D01*
X0003307881Y0004248277D01*
X0003332029Y0004243526D01*
X0003332555Y0004243527D01*
X0003333070Y0004243425D01*
X0003434901Y0004243425D01*
X0003472482Y0004235949D01*
X0003503891Y0004214963D01*
X0003524877Y0004183554D01*
X0003532247Y0004146504D01*
X0003524877Y0004109454D01*
X0003503891Y0004078045D01*
X0003472482Y0004057060D01*
X0003435144Y0004049632D01*
X0003333070Y0004049632D01*
X0003332748Y0004049568D01*
X0003332421Y0004049593D01*
X0003317327Y0004047761D01*
X0003316517Y0004047494D01*
X0003315689Y0004047293D01*
X0003293382Y0004036851D01*
X0003293338Y0004036818D01*
X0003293285Y0004036804D01*
X0003268006Y0004024351D01*
X0003251911Y0004022025D01*
X0003082559Y0004021931D01*
X0003082559Y0004270980D01*
X0003251678Y0004270855D01*
X0003251678Y0004270855D01*
G37*
X0003251678Y0004270855D02*
X0003278667Y0004264799D01*
X0003292165Y0004256932D01*
X0003292188Y0004256924D01*
X0003292205Y0004256909D01*
X0003306245Y0004248886D01*
X0003307073Y0004248609D01*
X0003307881Y0004248277D01*
X0003332029Y0004243526D01*
X0003332555Y0004243527D01*
X0003333070Y0004243425D01*
X0003434901Y0004243425D01*
X0003472482Y0004235949D01*
X0003503891Y0004214963D01*
X0003524877Y0004183554D01*
X0003532247Y0004146504D01*
X0003524877Y0004109454D01*
X0003503891Y0004078045D01*
X0003472482Y0004057060D01*
X0003435144Y0004049632D01*
X0003333070Y0004049632D01*
X0003332748Y0004049568D01*
X0003332421Y0004049593D01*
X0003317327Y0004047761D01*
X0003316517Y0004047494D01*
X0003315689Y0004047293D01*
X0003293382Y0004036851D01*
X0003293338Y0004036818D01*
X0003293285Y0004036804D01*
X0003268006Y0004024351D01*
X0003251911Y0004022025D01*
X0003082559Y0004021931D01*
X0003082559Y0004270980D01*
X0003251678Y0004270855D01*
G01G01G01G01G01G01G01G01*
D36*
D37*
X0003070866Y0003937007D02*
X0003435433Y0003792125D03*
D38*
G36*
X0003251678Y0003916525D02*
X0003278667Y0003910468D01*
X0003292165Y0003902601D01*
X0003292188Y0003902594D01*
X0003292205Y0003902578D01*
X0003306245Y0003894555D01*
X0003307073Y0003894278D01*
X0003307881Y0003893946D01*
X0003332029Y0003889195D01*
X0003332555Y0003889197D01*
X0003333070Y0003889094D01*
X0003434901Y0003889094D01*
X0003472482Y0003881619D01*
X0003503891Y0003860632D01*
X0003524877Y0003829223D01*
X0003532247Y0003792173D01*
X0003524877Y0003755124D01*
X0003503891Y0003723715D01*
X0003472482Y0003702729D01*
X0003435144Y0003695302D01*
X0003333070Y0003695302D01*
X0003332748Y0003695237D01*
X0003332421Y0003695263D01*
X0003317327Y0003693431D01*
X0003316517Y0003693166D01*
X0003315689Y0003692962D01*
X0003293382Y0003682520D01*
X0003293338Y0003682487D01*
X0003293285Y0003682472D01*
X0003268006Y0003670020D01*
X0003251911Y0003667694D01*
X0003082559Y0003667601D01*
X0003082559Y0003916649D01*
X0003251678Y0003916525D01*
X0003251678Y0003916525D01*
G37*
X0003251678Y0003916525D02*
X0003278667Y0003910468D01*
X0003292165Y0003902601D01*
X0003292188Y0003902594D01*
X0003292205Y0003902578D01*
X0003306245Y0003894555D01*
X0003307073Y0003894278D01*
X0003307881Y0003893946D01*
X0003332029Y0003889195D01*
X0003332555Y0003889197D01*
X0003333070Y0003889094D01*
X0003434901Y0003889094D01*
X0003472482Y0003881619D01*
X0003503891Y0003860632D01*
X0003524877Y0003829223D01*
X0003532247Y0003792173D01*
X0003524877Y0003755124D01*
X0003503891Y0003723715D01*
X0003472482Y0003702729D01*
X0003435144Y0003695302D01*
X0003333070Y0003695302D01*
X0003332748Y0003695237D01*
X0003332421Y0003695263D01*
X0003317327Y0003693431D01*
X0003316517Y0003693166D01*
X0003315689Y0003692962D01*
X0003293382Y0003682520D01*
X0003293338Y0003682487D01*
X0003293285Y0003682472D01*
X0003268006Y0003670020D01*
X0003251911Y0003667694D01*
X0003082559Y0003667601D01*
X0003082559Y0003916649D01*
X0003251678Y0003916525D01*
G01G01G01G01G01G01G01G01*
D49*
D50*
X0003070866Y0003582677D02*
X0003435433Y0003437795D03*
D51*
G36*
X0003251678Y0003562194D02*
X0003278667Y0003556137D01*
X0003292165Y0003548271D01*
X0003292188Y0003548263D01*
X0003292205Y0003548247D01*
X0003306245Y0003540225D01*
X0003307073Y0003539948D01*
X0003307881Y0003539614D01*
X0003332029Y0003534865D01*
X0003332555Y0003534866D01*
X0003333070Y0003534763D01*
X0003434901Y0003534763D01*
X0003472482Y0003527288D01*
X0003503891Y0003506301D01*
X0003524877Y0003474892D01*
X0003532247Y0003437843D01*
X0003524877Y0003400794D01*
X0003503891Y0003369385D01*
X0003472482Y0003348398D01*
X0003435144Y0003340970D01*
X0003333070Y0003340970D01*
X0003332748Y0003340907D01*
X0003332421Y0003340932D01*
X0003317327Y0003339101D01*
X0003316517Y0003338835D01*
X0003315689Y0003338631D01*
X0003293382Y0003328189D01*
X0003293338Y0003328157D01*
X0003293285Y0003328143D01*
X0003268006Y0003315689D01*
X0003251911Y0003313364D01*
X0003082559Y0003313270D01*
X0003082559Y0003562318D01*
X0003251678Y0003562194D01*
X0003251678Y0003562194D01*
G37*
X0003251678Y0003562194D02*
X0003278667Y0003556137D01*
X0003292165Y0003548271D01*
X0003292188Y0003548263D01*
X0003292205Y0003548247D01*
X0003306245Y0003540225D01*
X0003307073Y0003539948D01*
X0003307881Y0003539614D01*
X0003332029Y0003534865D01*
X0003332555Y0003534866D01*
X0003333070Y0003534763D01*
X0003434901Y0003534763D01*
X0003472482Y0003527288D01*
X0003503891Y0003506301D01*
X0003524877Y0003474892D01*
X0003532247Y0003437843D01*
X0003524877Y0003400794D01*
X0003503891Y0003369385D01*
X0003472482Y0003348398D01*
X0003435144Y0003340970D01*
X0003333070Y0003340970D01*
X0003332748Y0003340907D01*
X0003332421Y0003340932D01*
X0003317327Y0003339101D01*
X0003316517Y0003338835D01*
X0003315689Y0003338631D01*
X0003293382Y0003328189D01*
X0003293338Y0003328157D01*
X0003293285Y0003328143D01*
X0003268006Y0003315689D01*
X0003251911Y0003313364D01*
X0003082559Y0003313270D01*
X0003082559Y0003562318D01*
X0003251678Y0003562194D01*
G04 next file*
G01G01G01G01G01G01G01G01*
D62*
D63*
X0003070866Y0003228346D02*
X0003435433Y0003083464D03*
D64*
G36*
X0003251678Y0003207863D02*
X0003278667Y0003201807D01*
X0003292165Y0003193940D01*
X0003292188Y0003193932D01*
X0003292205Y0003193917D01*
X0003306245Y0003185894D01*
X0003307073Y0003185617D01*
X0003307881Y0003185285D01*
X0003332029Y0003180534D01*
X0003332555Y0003180535D01*
X0003333070Y0003180433D01*
X0003434901Y0003180433D01*
X0003472482Y0003172956D01*
X0003503891Y0003151971D01*
X0003524877Y0003120562D01*
X0003532247Y0003083512D01*
X0003524877Y0003046463D01*
X0003503891Y0003015054D01*
X0003472482Y0002994067D01*
X0003435144Y0002986640D01*
X0003333070Y0002986640D01*
X0003332748Y0002986576D01*
X0003332421Y0002986601D01*
X0003317327Y0002984770D01*
X0003316517Y0002984504D01*
X0003315689Y0002984300D01*
X0003293382Y0002973858D01*
X0003293338Y0002973826D01*
X0003293285Y0002973812D01*
X0003268006Y0002961359D01*
X0003251911Y0002959033D01*
X0003082559Y0002958940D01*
X0003082559Y0003207988D01*
X0003251678Y0003207863D01*
X0003251678Y0003207863D01*
G37*
X0003251678Y0003207863D02*
X0003278667Y0003201807D01*
X0003292165Y0003193940D01*
X0003292188Y0003193932D01*
X0003292205Y0003193917D01*
X0003306245Y0003185894D01*
X0003307073Y0003185617D01*
X0003307881Y0003185285D01*
X0003332029Y0003180534D01*
X0003332555Y0003180535D01*
X0003333070Y0003180433D01*
X0003434901Y0003180433D01*
X0003472482Y0003172956D01*
X0003503891Y0003151971D01*
X0003524877Y0003120562D01*
X0003532247Y0003083512D01*
X0003524877Y0003046463D01*
X0003503891Y0003015054D01*
X0003472482Y0002994067D01*
X0003435144Y0002986640D01*
X0003333070Y0002986640D01*
X0003332748Y0002986576D01*
X0003332421Y0002986601D01*
X0003317327Y0002984770D01*
X0003316517Y0002984504D01*
X0003315689Y0002984300D01*
X0003293382Y0002973858D01*
X0003293338Y0002973826D01*
X0003293285Y0002973812D01*
X0003268006Y0002961359D01*
X0003251911Y0002959033D01*
X0003082559Y0002958940D01*
X0003082559Y0003207988D01*
X0003251678Y0003207863D01*
G01G01G01G01G01G01G01G01*
D75*
G36*
X0003090566Y0001747159D02*
X0003090611Y0001747463D01*
X0003090686Y0001747764D01*
X0003090790Y0001748055D01*
X0003090923Y0001748335D01*
X0003091081Y0001748600D01*
X0003091266Y0001748848D01*
X0003091473Y0001749077D01*
X0003091701Y0001749285D01*
X0003091949Y0001749469D01*
X0003092216Y0001749628D01*
X0003092494Y0001749760D01*
X0003092786Y0001749864D01*
X0003093086Y0001749939D01*
X0003093392Y0001749984D01*
X0003093699Y0001750000D01*
X0003118897Y0001750000D01*
X0003119206Y0001749984D01*
X0003119512Y0001749939D01*
X0003119811Y0001749864D01*
X0003120102Y0001749760D01*
X0003120382Y0001749628D01*
X0003120647Y0001749469D01*
X0003120895Y0001749285D01*
X0003121124Y0001749077D01*
X0003121332Y0001748848D01*
X0003121515Y0001748600D01*
X0003121674Y0001748335D01*
X0003121807Y0001748055D01*
X0003121910Y0001747764D01*
X0003121986Y0001747463D01*
X0003122032Y0001747159D01*
X0003122047Y0001746850D01*
X0003122047Y0001666535D01*
X0003122032Y0001666226D01*
X0003121986Y0001665920D01*
X0003121910Y0001665621D01*
X0003121807Y0001665330D01*
X0003121674Y0001665050D01*
X0003121515Y0001664785D01*
X0003121332Y0001664537D01*
X0003121124Y0001664308D01*
X0003120895Y0001664100D01*
X0003120647Y0001663916D01*
X0003120382Y0001663757D01*
X0003120102Y0001663625D01*
X0003119811Y0001663521D01*
X0003119512Y0001663446D01*
X0003119206Y0001663400D01*
X0003118897Y0001663385D01*
X0003093699Y0001663385D01*
X0003093392Y0001663400D01*
X0003093086Y0001663446D01*
X0003092786Y0001663521D01*
X0003092494Y0001663625D01*
X0003092216Y0001663757D01*
X0003091949Y0001663916D01*
X0003091701Y0001664100D01*
X0003091473Y0001664308D01*
X0003091266Y0001664537D01*
X0003091081Y0001664785D01*
X0003090923Y0001665050D01*
X0003090790Y0001665330D01*
X0003090686Y0001665621D01*
X0003090611Y0001665920D01*
X0003090566Y0001666226D01*
X0003090551Y0001666535D01*
X0003090551Y0001746850D01*
X0003090566Y0001747159D01*
X0003090566Y0001747159D01*
G37*
D76*
G36*
X0003241439Y0001934370D02*
X0003246940Y0001933275D01*
X0003251021Y0001930548D01*
X0003253748Y0001926466D01*
X0003254841Y0001920967D01*
X0003254841Y0001487300D01*
X0003253748Y0001481799D01*
X0003251021Y0001477718D01*
X0003246940Y0001474991D01*
X0003241439Y0001473897D01*
X0003090826Y0001473897D01*
X0003090826Y0001934370D01*
X0003241439Y0001934370D01*
X0003241439Y0001934370D01*
G37*
X0003241439Y0001934370D02*
X0003246940Y0001933275D01*
X0003251021Y0001930548D01*
X0003253748Y0001926466D01*
X0003254841Y0001920967D01*
X0003254841Y0001487300D01*
X0003253748Y0001481799D01*
X0003251021Y0001477718D01*
X0003246940Y0001474991D01*
X0003241439Y0001473897D01*
X0003090826Y0001473897D01*
X0003090826Y0001934370D01*
X0003241439Y0001934370D01*
G04 next file*
G01G01G01G01G01G01G01G01*
D87*
G36*
X0003094510Y0002561683D02*
X0003094578Y0002562142D01*
X0003094691Y0002562591D01*
X0003094847Y0002563028D01*
X0003095046Y0002563447D01*
X0003095284Y0002563845D01*
X0003095560Y0002564217D01*
X0003095871Y0002564561D01*
X0003096215Y0002564872D01*
X0003096586Y0002565148D01*
X0003096985Y0002565387D01*
X0003097404Y0002565585D01*
X0003097841Y0002565741D01*
X0003098290Y0002565854D01*
X0003098748Y0002565922D01*
X0003099211Y0002565944D01*
X0003137007Y0002565944D01*
X0003137470Y0002565922D01*
X0003137929Y0002565854D01*
X0003138379Y0002565741D01*
X0003138814Y0002565585D01*
X0003139234Y0002565387D01*
X0003139632Y0002565148D01*
X0003140005Y0002564872D01*
X0003140348Y0002564561D01*
X0003140659Y0002564217D01*
X0003140936Y0002563845D01*
X0003141174Y0002563447D01*
X0003141372Y0002563028D01*
X0003141528Y0002562591D01*
X0003141641Y0002562142D01*
X0003141709Y0002561683D01*
X0003141732Y0002561220D01*
X0003141732Y0002484055D01*
X0003141709Y0002483592D01*
X0003141641Y0002483133D01*
X0003141528Y0002482683D01*
X0003141372Y0002482247D01*
X0003141174Y0002481828D01*
X0003140936Y0002481430D01*
X0003140659Y0002481057D01*
X0003140348Y0002480714D01*
X0003140005Y0002480403D01*
X0003139632Y0002480126D01*
X0003139234Y0002479888D01*
X0003138814Y0002479690D01*
X0003138379Y0002479534D01*
X0003137929Y0002479421D01*
X0003137470Y0002479353D01*
X0003137007Y0002479330D01*
X0003099211Y0002479330D01*
X0003098748Y0002479353D01*
X0003098290Y0002479421D01*
X0003097841Y0002479534D01*
X0003097404Y0002479690D01*
X0003096985Y0002479888D01*
X0003096586Y0002480126D01*
X0003096215Y0002480403D01*
X0003095871Y0002480714D01*
X0003095560Y0002481057D01*
X0003095284Y0002481430D01*
X0003095046Y0002481828D01*
X0003094847Y0002482247D01*
X0003094691Y0002482683D01*
X0003094578Y0002483133D01*
X0003094510Y0002483592D01*
X0003094488Y0002484055D01*
X0003094488Y0002561220D01*
X0003094510Y0002561683D01*
X0003094510Y0002561683D01*
G37*
D88*
G36*
X0003086409Y0002780601D02*
X0003089136Y0002784682D01*
X0003093217Y0002787408D01*
X0003098717Y0002788503D01*
X0003200888Y0002788503D01*
X0003206388Y0002787408D01*
X0003210470Y0002784682D01*
X0003213197Y0002780601D01*
X0003214291Y0002775101D01*
X0003214291Y0002268599D01*
X0003213197Y0002263099D01*
X0003210470Y0002259017D01*
X0003206388Y0002256290D01*
X0003200888Y0002255196D01*
X0003098717Y0002255196D01*
X0003093217Y0002256290D01*
X0003089136Y0002259017D01*
X0003086409Y0002263099D01*
X0003085314Y0002268599D01*
X0003085314Y0002775101D01*
X0003086409Y0002780601D01*
X0003086409Y0002780601D01*
G37*
X0003086409Y0002780601D02*
X0003089136Y0002784682D01*
X0003093217Y0002787408D01*
X0003098717Y0002788503D01*
X0003200888Y0002788503D01*
X0003206388Y0002787408D01*
X0003210470Y0002784682D01*
X0003213197Y0002780601D01*
X0003214291Y0002775101D01*
X0003214291Y0002268599D01*
X0003213197Y0002263099D01*
X0003210470Y0002259017D01*
X0003206388Y0002256290D01*
X0003200888Y0002255196D01*
X0003098717Y0002255196D01*
X0003093217Y0002256290D01*
X0003089136Y0002259017D01*
X0003086409Y0002263099D01*
X0003085314Y0002268599D01*
X0003085314Y0002775101D01*
X0003086409Y0002780601D01*
G04 next file*
G01G01G01G01G01G01G01G01G01G01G01G01G01G01G01G01*
D99*
D100*
X0000000000Y0001377952D02*
X0002404952Y0000483661D03*
X0002460433Y0000428181D03*
X0002536220Y0000407874D03*
X0002612006Y0000428181D03*
X0002667488Y0000483661D03*
X0002687795Y0000559448D03*
X0002667488Y0000635236D03*
X0002612006Y0000690715D03*
X0002536220Y0000711023D03*
X0002460433Y0000690715D03*
X0002404952Y0000635236D03*
X0002384645Y0000559448D03*
X0001893141Y0000483661D03*
X0001948622Y0000428181D03*
X0002024409Y0000407874D03*
X0002100196Y0000428181D03*
X0002155677Y0000483661D03*
X0002175984Y0000559448D03*
X0002155677Y0000635236D03*
X0002100196Y0000690715D03*
X0002024409Y0000711023D03*
X0001948622Y0000690715D03*
X0001893141Y0000635236D03*
X0001872834Y0000559448D03*
X0002404952Y0001034842D03*
X0002460433Y0000979362D03*
X0002536220Y0000959055D03*
X0002612006Y0000979362D03*
X0002667488Y0001034842D03*
X0002687795Y0001110629D03*
X0002667488Y0001186417D03*
X0002612006Y0001241897D03*
X0002536220Y0001262204D03*
X0002460433Y0001241897D03*
X0002404952Y0001186417D03*
X0002384645Y0001110629D03*
X0001893141Y0001034842D03*
X0001948622Y0000979362D03*
X0002024409Y0000959055D03*
X0002100196Y0000979362D03*
X0002155677Y0001034842D03*
X0002175984Y0001110629D03*
X0002155677Y0001186417D03*
X0002100196Y0001241897D03*
X0002024409Y0001262204D03*
X0001948622Y0001241897D03*
X0001893141Y0001186417D03*
X0001872834Y0001110629D03*
X0001341960Y0000483661D03*
X0001397440Y0000428181D03*
X0001473228Y0000407874D03*
X0001549015Y0000428181D03*
X0001604494Y0000483661D03*
X0001624802Y0000559448D03*
X0001604494Y0000635236D03*
X0001549015Y0000690715D03*
X0001473228Y0000711023D03*
X0001397440Y0000690715D03*
X0001341960Y0000635236D03*
X0001321653Y0000559448D03*
X0000830149Y0000483661D03*
X0000885629Y0000428181D03*
X0000961417Y0000407874D03*
X0001037204Y0000428181D03*
X0001092684Y0000483661D03*
X0001112992Y0000559448D03*
X0001092684Y0000635236D03*
X0001037204Y0000690715D03*
X0000961417Y0000711023D03*
X0000885629Y0000690715D03*
X0000830149Y0000635236D03*
X0000809842Y0000559448D03*
X0000318338Y0000483661D03*
X0000373818Y0000428181D03*
X0000449606Y0000407874D03*
X0000525393Y0000428181D03*
X0000580873Y0000483661D03*
X0000601181Y0000559448D03*
X0000580873Y0000635236D03*
X0000525393Y0000690715D03*
X0000449606Y0000711023D03*
X0000373818Y0000690715D03*
X0000318338Y0000635236D03*
X0000298031Y0000559448D03*
X0001341960Y0001034842D03*
X0001397440Y0000979362D03*
X0001473228Y0000959055D03*
X0001549015Y0000979362D03*
X0001604494Y0001034842D03*
X0001624802Y0001110629D03*
X0001604494Y0001186417D03*
X0001549015Y0001241897D03*
X0001473228Y0001262204D03*
X0001397440Y0001241897D03*
X0001341960Y0001186417D03*
X0001321653Y0001110629D03*
X0000830149Y0001034842D03*
X0000885629Y0000979362D03*
X0000961417Y0000959055D03*
X0001037204Y0000979362D03*
X0001092684Y0001034842D03*
X0001112992Y0001110629D03*
X0001092684Y0001186417D03*
X0001037204Y0001241897D03*
X0000961417Y0001262204D03*
X0000885629Y0001241897D03*
X0000830149Y0001186417D03*
X0000809842Y0001110629D03*
X0000318338Y0001034842D03*
X0000373818Y0000979362D03*
X0000449606Y0000959055D03*
X0000525393Y0000979362D03*
X0000580873Y0001034842D03*
X0000601181Y0001110629D03*
X0000580873Y0001186417D03*
X0000525393Y0001241897D03*
X0000449606Y0001262204D03*
X0000373818Y0001241897D03*
X0000318338Y0001186417D03*
X0000298031Y0001110629D03*
D101*
G36*
X0002941019Y0001366878D02*
X0002964781Y0001351001D01*
X0002980657Y0001327240D01*
X0002986338Y0001298681D01*
X0002986338Y0000995806D01*
X0002985752Y0000992860D01*
X0002984384Y0000990812D01*
X0002982336Y0000989444D01*
X0002979389Y0000988858D01*
X0002952755Y0000988858D01*
X0002950691Y0000988447D01*
X0002948941Y0000987278D01*
X0002947772Y0000985528D01*
X0002947362Y0000983464D01*
X0002947362Y0000399212D01*
X0002947772Y0000397148D01*
X0002948941Y0000395398D01*
X0002950691Y0000394229D01*
X0002952755Y0000393818D01*
X0002979389Y0000393818D01*
X0002982336Y0000393232D01*
X0002984384Y0000391864D01*
X0002985752Y0000389817D01*
X0002986338Y0000386870D01*
X0002986338Y0000098956D01*
X0002979189Y0000063014D01*
X0002959130Y0000032995D01*
X0002929111Y0000012936D01*
X0002893169Y0000005787D01*
X0000079271Y0000005393D01*
X0000050712Y0000011074D01*
X0000026951Y0000026951D01*
X0000011074Y0000050712D01*
X0000005393Y0000079271D01*
X0000005393Y0000156102D01*
X0000094803Y0000156102D01*
X0000099409Y0000132945D01*
X0000112526Y0000113313D01*
X0000132158Y0000100196D01*
X0000155314Y0000095590D01*
X0000178471Y0000100196D01*
X0000198103Y0000113313D01*
X0000211220Y0000132945D01*
X0000215630Y0000155118D01*
X0002770984Y0000155118D01*
X0002775590Y0000131961D01*
X0002788707Y0000112329D01*
X0002808339Y0000099212D01*
X0002831496Y0000094606D01*
X0002854652Y0000099212D01*
X0002874284Y0000112329D01*
X0002887401Y0000131961D01*
X0002892006Y0000155118D01*
X0002887401Y0000178274D01*
X0002874284Y0000197906D01*
X0002854652Y0000211023D01*
X0002831496Y0000215629D01*
X0002808339Y0000211023D01*
X0002788707Y0000197906D01*
X0002775590Y0000178274D01*
X0002770984Y0000155118D01*
X0000215630Y0000155118D01*
X0000215826Y0000156102D01*
X0000211220Y0000179259D01*
X0000198103Y0000198890D01*
X0000178471Y0000212007D01*
X0000155314Y0000216614D01*
X0000132158Y0000212007D01*
X0000112526Y0000198890D01*
X0000099409Y0000179259D01*
X0000094803Y0000156102D01*
X0000005393Y0000156102D01*
X0000005393Y0000382933D01*
X0000005979Y0000385880D01*
X0000007348Y0000387927D01*
X0000009395Y0000389295D01*
X0000012342Y0000389881D01*
X0000038976Y0000389881D01*
X0000041040Y0000390292D01*
X0000042789Y0000391461D01*
X0000043959Y0000393211D01*
X0000044370Y0000395275D01*
X0000044370Y0000534680D01*
X0000318659Y0000534680D01*
X0000319066Y0000532615D01*
X0000338105Y0000486454D01*
X0000338330Y0000486117D01*
X0000339272Y0000484702D01*
X0000374526Y0000449341D01*
X0000375573Y0000448639D01*
X0000376274Y0000448169D01*
X0000422378Y0000428991D01*
X0000424441Y0000428577D01*
X0000474374Y0000428501D01*
X0000476439Y0000428909D01*
X0000522599Y0000447947D01*
X0000523300Y0000448414D01*
X0000524352Y0000449113D01*
X0000559713Y0000484369D01*
X0000559715Y0000484371D01*
X0000559719Y0000484375D01*
X0000560308Y0000485256D01*
X0000560885Y0000486117D01*
X0000560886Y0000486121D01*
X0000560888Y0000486124D01*
X0000561092Y0000487149D01*
X0000561299Y0000488180D01*
X0000561298Y0000488184D01*
X0000561299Y0000488188D01*
X0000561299Y0000534680D01*
X0000830470Y0000534680D01*
X0000830877Y0000532615D01*
X0000849916Y0000486454D01*
X0000850140Y0000486117D01*
X0000851083Y0000484702D01*
X0000886337Y0000449341D01*
X0000887384Y0000448639D01*
X0000888085Y0000448169D01*
X0000934189Y0000428991D01*
X0000936252Y0000428577D01*
X0000986185Y0000428501D01*
X0000988249Y0000428909D01*
X0001034411Y0000447947D01*
X0001035110Y0000448414D01*
X0001036163Y0000449113D01*
X0001071524Y0000484369D01*
X0001071526Y0000484371D01*
X0001071530Y0000484375D01*
X0001072119Y0000485256D01*
X0001072696Y0000486117D01*
X0001072697Y0000486121D01*
X0001072699Y0000486124D01*
X0001072903Y0000487149D01*
X0001073110Y0000488180D01*
X0001073109Y0000488184D01*
X0001073110Y0000488188D01*
X0001073110Y0000534680D01*
X0001342281Y0000534680D01*
X0001342688Y0000532615D01*
X0001361727Y0000486454D01*
X0001361952Y0000486117D01*
X0001362893Y0000484702D01*
X0001398148Y0000449341D01*
X0001399195Y0000448639D01*
X0001399896Y0000448169D01*
X0001445999Y0000428991D01*
X0001448063Y0000428577D01*
X0001497996Y0000428501D01*
X0001500061Y0000428909D01*
X0001546222Y0000447947D01*
X0001546922Y0000448414D01*
X0001547974Y0000449113D01*
X0001583335Y0000484369D01*
X0001583337Y0000484371D01*
X0001583341Y0000484375D01*
X0001583930Y0000485256D01*
X0001584507Y0000486117D01*
X0001584508Y0000486121D01*
X0001584510Y0000486124D01*
X0001584714Y0000487149D01*
X0001584921Y0000488180D01*
X0001584920Y0000488184D01*
X0001584921Y0000488188D01*
X0001584921Y0000534680D01*
X0001893462Y0000534680D01*
X0001893868Y0000532615D01*
X0001912908Y0000486454D01*
X0001913133Y0000486117D01*
X0001914075Y0000484702D01*
X0001949329Y0000449341D01*
X0001950376Y0000448639D01*
X0001951077Y0000448169D01*
X0001997181Y0000428991D01*
X0001999244Y0000428577D01*
X0002049176Y0000428501D01*
X0002051241Y0000428909D01*
X0002097403Y0000447947D01*
X0002098103Y0000448414D01*
X0002099155Y0000449113D01*
X0002134516Y0000484369D01*
X0002134519Y0000484371D01*
X0002134522Y0000484375D01*
X0002135111Y0000485256D01*
X0002135688Y0000486117D01*
X0002135689Y0000486121D01*
X0002135691Y0000486124D01*
X0002135895Y0000487149D01*
X0002136102Y0000488180D01*
X0002136101Y0000488184D01*
X0002136102Y0000488188D01*
X0002136102Y0000534680D01*
X0002405273Y0000534680D01*
X0002405680Y0000532615D01*
X0002424719Y0000486454D01*
X0002424944Y0000486117D01*
X0002425886Y0000484702D01*
X0002461140Y0000449341D01*
X0002462187Y0000448639D01*
X0002462889Y0000448169D01*
X0002508992Y0000428991D01*
X0002511055Y0000428577D01*
X0002560988Y0000428501D01*
X0002563053Y0000428909D01*
X0002609214Y0000447947D01*
X0002609914Y0000448414D01*
X0002610966Y0000449113D01*
X0002646327Y0000484369D01*
X0002646330Y0000484371D01*
X0002646333Y0000484375D01*
X0002646922Y0000485256D01*
X0002647498Y0000486117D01*
X0002647500Y0000486121D01*
X0002647502Y0000486124D01*
X0002647706Y0000487149D01*
X0002647913Y0000488180D01*
X0002647912Y0000488184D01*
X0002647913Y0000488188D01*
X0002647913Y0000630707D01*
X0002647502Y0000632772D01*
X0002646333Y0000634522D01*
X0002611294Y0000669560D01*
X0002610415Y0000670148D01*
X0002609551Y0000670728D01*
X0002563447Y0000689906D01*
X0002561385Y0000690320D01*
X0002511452Y0000690395D01*
X0002511111Y0000690328D01*
X0002509387Y0000689988D01*
X0002463226Y0000670949D01*
X0002462893Y0000670728D01*
X0002461474Y0000669782D01*
X0002426113Y0000634528D01*
X0002424941Y0000632780D01*
X0002405762Y0000586677D01*
X0002405349Y0000584613D01*
X0002405273Y0000534680D01*
X0002136102Y0000534680D01*
X0002136102Y0000630707D01*
X0002135691Y0000632772D01*
X0002134522Y0000634522D01*
X0002099483Y0000669560D01*
X0002098604Y0000670148D01*
X0002097740Y0000670728D01*
X0002051637Y0000689906D01*
X0002049573Y0000690320D01*
X0001999641Y0000690395D01*
X0001999300Y0000690328D01*
X0001997576Y0000689988D01*
X0001951415Y0000670949D01*
X0001951082Y0000670728D01*
X0001949663Y0000669782D01*
X0001914300Y0000634528D01*
X0001913129Y0000632780D01*
X0001893951Y0000586677D01*
X0001893538Y0000584613D01*
X0001893462Y0000534680D01*
X0001584921Y0000534680D01*
X0001584921Y0000630707D01*
X0001584510Y0000632772D01*
X0001583341Y0000634522D01*
X0001548302Y0000669560D01*
X0001547423Y0000670148D01*
X0001546559Y0000670728D01*
X0001500456Y0000689906D01*
X0001498393Y0000690320D01*
X0001448459Y0000690395D01*
X0001448119Y0000690328D01*
X0001446395Y0000689988D01*
X0001400234Y0000670949D01*
X0001399901Y0000670728D01*
X0001398482Y0000669782D01*
X0001363120Y0000634528D01*
X0001361949Y0000632780D01*
X0001342770Y0000586677D01*
X0001342357Y0000584613D01*
X0001342281Y0000534680D01*
X0001073110Y0000534680D01*
X0001073110Y0000630707D01*
X0001072699Y0000632772D01*
X0001071530Y0000634522D01*
X0001036491Y0000669560D01*
X0001035612Y0000670148D01*
X0001034748Y0000670728D01*
X0000988645Y0000689906D01*
X0000986582Y0000690320D01*
X0000936648Y0000690395D01*
X0000936308Y0000690328D01*
X0000934584Y0000689988D01*
X0000888423Y0000670949D01*
X0000888090Y0000670728D01*
X0000886671Y0000669782D01*
X0000851308Y0000634528D01*
X0000850138Y0000632780D01*
X0000830959Y0000586677D01*
X0000830545Y0000584613D01*
X0000830470Y0000534680D01*
X0000561299Y0000534680D01*
X0000561299Y0000630707D01*
X0000560888Y0000632772D01*
X0000559719Y0000634522D01*
X0000524680Y0000669560D01*
X0000523800Y0000670148D01*
X0000522937Y0000670728D01*
X0000476834Y0000689906D01*
X0000474770Y0000690320D01*
X0000424837Y0000690395D01*
X0000424497Y0000690328D01*
X0000422773Y0000689988D01*
X0000376611Y0000670949D01*
X0000376279Y0000670728D01*
X0000374860Y0000669782D01*
X0000339498Y0000634528D01*
X0000338327Y0000632780D01*
X0000319148Y0000586677D01*
X0000318734Y0000584613D01*
X0000318659Y0000534680D01*
X0000044370Y0000534680D01*
X0000044370Y0000979527D01*
X0000043959Y0000981591D01*
X0000042789Y0000983341D01*
X0000041040Y0000984510D01*
X0000038976Y0000984921D01*
X0000012342Y0000984921D01*
X0000009395Y0000985507D01*
X0000007348Y0000986875D01*
X0000005979Y0000988923D01*
X0000005393Y0000991869D01*
X0000005393Y0001085861D01*
X0000318659Y0001085861D01*
X0000319066Y0001083796D01*
X0000338105Y0001037635D01*
X0000338330Y0001037298D01*
X0000339272Y0001035884D01*
X0000374526Y0001000521D01*
X0000375573Y0000999821D01*
X0000376274Y0000999350D01*
X0000422378Y0000980172D01*
X0000424441Y0000979758D01*
X0000474374Y0000979682D01*
X0000476439Y0000980089D01*
X0000522599Y0000999129D01*
X0000523548Y0000999760D01*
X0000524352Y0001000294D01*
X0000559713Y0001035550D01*
X0000559715Y0001035553D01*
X0000559719Y0001035555D01*
X0000560308Y0001036437D01*
X0000560885Y0001037298D01*
X0000560886Y0001037302D01*
X0000560888Y0001037304D01*
X0000561092Y0001038330D01*
X0000561299Y0001039361D01*
X0000561298Y0001039366D01*
X0000561299Y0001039369D01*
X0000561299Y0001085861D01*
X0000830470Y0001085861D01*
X0000830877Y0001083796D01*
X0000849916Y0001037635D01*
X0000850140Y0001037298D01*
X0000851083Y0001035884D01*
X0000886337Y0001000521D01*
X0000887384Y0000999821D01*
X0000888085Y0000999350D01*
X0000934189Y0000980172D01*
X0000936252Y0000979758D01*
X0000986185Y0000979682D01*
X0000988249Y0000980089D01*
X0001034411Y0000999129D01*
X0001035358Y0000999760D01*
X0001036163Y0001000294D01*
X0001071524Y0001035550D01*
X0001071526Y0001035553D01*
X0001071530Y0001035555D01*
X0001072119Y0001036437D01*
X0001072696Y0001037298D01*
X0001072697Y0001037302D01*
X0001072699Y0001037304D01*
X0001072903Y0001038330D01*
X0001073110Y0001039361D01*
X0001073109Y0001039366D01*
X0001073110Y0001039369D01*
X0001073110Y0001085861D01*
X0001342281Y0001085861D01*
X0001342688Y0001083796D01*
X0001361727Y0001037635D01*
X0001361952Y0001037298D01*
X0001362893Y0001035884D01*
X0001398148Y0001000521D01*
X0001399195Y0000999821D01*
X0001399896Y0000999350D01*
X0001445999Y0000980172D01*
X0001448063Y0000979758D01*
X0001497996Y0000979682D01*
X0001500061Y0000980089D01*
X0001546222Y0000999129D01*
X0001547170Y0000999760D01*
X0001547974Y0001000294D01*
X0001583335Y0001035550D01*
X0001583337Y0001035553D01*
X0001583341Y0001035555D01*
X0001583930Y0001036437D01*
X0001584507Y0001037298D01*
X0001584508Y0001037302D01*
X0001584510Y0001037304D01*
X0001584714Y0001038330D01*
X0001584921Y0001039361D01*
X0001584920Y0001039366D01*
X0001584921Y0001039369D01*
X0001584921Y0001085861D01*
X0001893462Y0001085861D01*
X0001893868Y0001083796D01*
X0001912908Y0001037635D01*
X0001913133Y0001037298D01*
X0001914075Y0001035884D01*
X0001949329Y0001000521D01*
X0001950376Y0000999821D01*
X0001951077Y0000999350D01*
X0001997181Y0000980172D01*
X0001999244Y0000979758D01*
X0002049176Y0000979682D01*
X0002051241Y0000980089D01*
X0002097403Y0000999129D01*
X0002098351Y0000999760D01*
X0002099155Y0001000294D01*
X0002134516Y0001035550D01*
X0002134519Y0001035553D01*
X0002134522Y0001035555D01*
X0002135111Y0001036437D01*
X0002135688Y0001037298D01*
X0002135689Y0001037302D01*
X0002135691Y0001037304D01*
X0002135895Y0001038330D01*
X0002136102Y0001039361D01*
X0002136101Y0001039366D01*
X0002136102Y0001039369D01*
X0002136102Y0001085861D01*
X0002405273Y0001085861D01*
X0002405680Y0001083796D01*
X0002424719Y0001037635D01*
X0002424944Y0001037298D01*
X0002425886Y0001035884D01*
X0002461140Y0001000521D01*
X0002462187Y0000999821D01*
X0002462889Y0000999350D01*
X0002508992Y0000980172D01*
X0002511055Y0000979758D01*
X0002560988Y0000979682D01*
X0002563053Y0000980089D01*
X0002609214Y0000999129D01*
X0002610162Y0000999760D01*
X0002610966Y0001000294D01*
X0002646327Y0001035550D01*
X0002646330Y0001035553D01*
X0002646333Y0001035555D01*
X0002646922Y0001036437D01*
X0002647498Y0001037298D01*
X0002647500Y0001037302D01*
X0002647502Y0001037304D01*
X0002647706Y0001038330D01*
X0002647913Y0001039361D01*
X0002647912Y0001039366D01*
X0002647913Y0001039369D01*
X0002647913Y0001181889D01*
X0002647502Y0001183953D01*
X0002646333Y0001185703D01*
X0002611294Y0001220743D01*
X0002610815Y0001221062D01*
X0002771968Y0001221062D01*
X0002776574Y0001197906D01*
X0002789692Y0001178274D01*
X0002809323Y0001165157D01*
X0002832480Y0001160551D01*
X0002855637Y0001165157D01*
X0002875268Y0001178274D01*
X0002888385Y0001197906D01*
X0002892991Y0001221062D01*
X0002888385Y0001244219D01*
X0002875268Y0001263851D01*
X0002855637Y0001276968D01*
X0002832480Y0001281574D01*
X0002809323Y0001276968D01*
X0002789692Y0001263851D01*
X0002776574Y0001244219D01*
X0002771968Y0001221062D01*
X0002610815Y0001221062D01*
X0002610415Y0001221330D01*
X0002609551Y0001221909D01*
X0002563447Y0001241087D01*
X0002561385Y0001241501D01*
X0002511452Y0001241576D01*
X0002511111Y0001241509D01*
X0002509387Y0001241169D01*
X0002463226Y0001222130D01*
X0002462893Y0001221909D01*
X0002461474Y0001220964D01*
X0002426113Y0001185709D01*
X0002424941Y0001183961D01*
X0002405762Y0001137858D01*
X0002405349Y0001135794D01*
X0002405273Y0001085861D01*
X0002136102Y0001085861D01*
X0002136102Y0001181889D01*
X0002135691Y0001183953D01*
X0002134522Y0001185703D01*
X0002099483Y0001220743D01*
X0002098604Y0001221330D01*
X0002097740Y0001221909D01*
X0002051637Y0001241087D01*
X0002049573Y0001241501D01*
X0001999641Y0001241576D01*
X0001999300Y0001241509D01*
X0001997576Y0001241169D01*
X0001951415Y0001222130D01*
X0001951082Y0001221909D01*
X0001949663Y0001220964D01*
X0001914300Y0001185709D01*
X0001913129Y0001183961D01*
X0001893951Y0001137858D01*
X0001893538Y0001135794D01*
X0001893462Y0001085861D01*
X0001584921Y0001085861D01*
X0001584921Y0001181889D01*
X0001584510Y0001183953D01*
X0001583341Y0001185703D01*
X0001548302Y0001220743D01*
X0001547423Y0001221330D01*
X0001546559Y0001221909D01*
X0001500456Y0001241087D01*
X0001498393Y0001241501D01*
X0001448459Y0001241576D01*
X0001448119Y0001241509D01*
X0001446395Y0001241169D01*
X0001400234Y0001222130D01*
X0001399901Y0001221909D01*
X0001398482Y0001220964D01*
X0001363120Y0001185709D01*
X0001361949Y0001183961D01*
X0001342770Y0001137858D01*
X0001342357Y0001135794D01*
X0001342281Y0001085861D01*
X0001073110Y0001085861D01*
X0001073110Y0001181889D01*
X0001072699Y0001183953D01*
X0001071530Y0001185703D01*
X0001036491Y0001220743D01*
X0001035612Y0001221330D01*
X0001034748Y0001221909D01*
X0000988645Y0001241087D01*
X0000986582Y0001241501D01*
X0000936648Y0001241576D01*
X0000936308Y0001241509D01*
X0000934584Y0001241169D01*
X0000888423Y0001222130D01*
X0000888090Y0001221909D01*
X0000886671Y0001220964D01*
X0000851308Y0001185709D01*
X0000850138Y0001183961D01*
X0000830959Y0001137858D01*
X0000830545Y0001135794D01*
X0000830470Y0001085861D01*
X0000561299Y0001085861D01*
X0000561299Y0001181889D01*
X0000560888Y0001183953D01*
X0000559719Y0001185703D01*
X0000524680Y0001220743D01*
X0000523800Y0001221330D01*
X0000522937Y0001221909D01*
X0000476834Y0001241087D01*
X0000474770Y0001241501D01*
X0000424837Y0001241576D01*
X0000424497Y0001241509D01*
X0000422773Y0001241169D01*
X0000376611Y0001222130D01*
X0000376279Y0001221909D01*
X0000374860Y0001220964D01*
X0000339498Y0001185709D01*
X0000338327Y0001183961D01*
X0000319148Y0001137858D01*
X0000318734Y0001135794D01*
X0000318659Y0001085861D01*
X0000005393Y0001085861D01*
X0000005393Y0001221062D01*
X0000094803Y0001221062D01*
X0000099409Y0001197906D01*
X0000112526Y0001178274D01*
X0000132158Y0001165157D01*
X0000155314Y0001160551D01*
X0000178471Y0001165157D01*
X0000198103Y0001178274D01*
X0000211220Y0001197906D01*
X0000215826Y0001221062D01*
X0000211220Y0001244219D01*
X0000198103Y0001263851D01*
X0000178471Y0001276968D01*
X0000155314Y0001281574D01*
X0000132158Y0001276968D01*
X0000112526Y0001263851D01*
X0000099409Y0001244219D01*
X0000094803Y0001221062D01*
X0000005393Y0001221062D01*
X0000005393Y0001298681D01*
X0000011074Y0001327240D01*
X0000026951Y0001351001D01*
X0000050712Y0001366878D01*
X0000079271Y0001372559D01*
X0002912459Y0001372559D01*
X0002941019Y0001366878D01*
X0002941019Y0001366878D01*
G37*
X0002941019Y0001366878D02*
X0002964781Y0001351001D01*
X0002980657Y0001327240D01*
X0002986338Y0001298681D01*
X0002986338Y0000995806D01*
X0002985752Y0000992860D01*
X0002984384Y0000990812D01*
X0002982336Y0000989444D01*
X0002979389Y0000988858D01*
X0002952755Y0000988858D01*
X0002950691Y0000988447D01*
X0002948941Y0000987278D01*
X0002947772Y0000985528D01*
X0002947362Y0000983464D01*
X0002947362Y0000399212D01*
X0002947772Y0000397148D01*
X0002948941Y0000395398D01*
X0002950691Y0000394229D01*
X0002952755Y0000393818D01*
X0002979389Y0000393818D01*
X0002982336Y0000393232D01*
X0002984384Y0000391864D01*
X0002985752Y0000389817D01*
X0002986338Y0000386870D01*
X0002986338Y0000098956D01*
X0002979189Y0000063014D01*
X0002959130Y0000032995D01*
X0002929111Y0000012936D01*
X0002893169Y0000005787D01*
X0000079271Y0000005393D01*
X0000050712Y0000011074D01*
X0000026951Y0000026951D01*
X0000011074Y0000050712D01*
X0000005393Y0000079271D01*
X0000005393Y0000156102D01*
X0000094803Y0000156102D01*
X0000099409Y0000132945D01*
X0000112526Y0000113313D01*
X0000132158Y0000100196D01*
X0000155314Y0000095590D01*
X0000178471Y0000100196D01*
X0000198103Y0000113313D01*
X0000211220Y0000132945D01*
X0000215630Y0000155118D01*
X0002770984Y0000155118D01*
X0002775590Y0000131961D01*
X0002788707Y0000112329D01*
X0002808339Y0000099212D01*
X0002831496Y0000094606D01*
X0002854652Y0000099212D01*
X0002874284Y0000112329D01*
X0002887401Y0000131961D01*
X0002892006Y0000155118D01*
X0002887401Y0000178274D01*
X0002874284Y0000197906D01*
X0002854652Y0000211023D01*
X0002831496Y0000215629D01*
X0002808339Y0000211023D01*
X0002788707Y0000197906D01*
X0002775590Y0000178274D01*
X0002770984Y0000155118D01*
X0000215630Y0000155118D01*
X0000215826Y0000156102D01*
X0000211220Y0000179259D01*
X0000198103Y0000198890D01*
X0000178471Y0000212007D01*
X0000155314Y0000216614D01*
X0000132158Y0000212007D01*
X0000112526Y0000198890D01*
X0000099409Y0000179259D01*
X0000094803Y0000156102D01*
X0000005393Y0000156102D01*
X0000005393Y0000382933D01*
X0000005979Y0000385880D01*
X0000007348Y0000387927D01*
X0000009395Y0000389295D01*
X0000012342Y0000389881D01*
X0000038976Y0000389881D01*
X0000041040Y0000390292D01*
X0000042789Y0000391461D01*
X0000043959Y0000393211D01*
X0000044370Y0000395275D01*
X0000044370Y0000534680D01*
X0000318659Y0000534680D01*
X0000319066Y0000532615D01*
X0000338105Y0000486454D01*
X0000338330Y0000486117D01*
X0000339272Y0000484702D01*
X0000374526Y0000449341D01*
X0000375573Y0000448639D01*
X0000376274Y0000448169D01*
X0000422378Y0000428991D01*
X0000424441Y0000428577D01*
X0000474374Y0000428501D01*
X0000476439Y0000428909D01*
X0000522599Y0000447947D01*
X0000523300Y0000448414D01*
X0000524352Y0000449113D01*
X0000559713Y0000484369D01*
X0000559715Y0000484371D01*
X0000559719Y0000484375D01*
X0000560308Y0000485256D01*
X0000560885Y0000486117D01*
X0000560886Y0000486121D01*
X0000560888Y0000486124D01*
X0000561092Y0000487149D01*
X0000561299Y0000488180D01*
X0000561298Y0000488184D01*
X0000561299Y0000488188D01*
X0000561299Y0000534680D01*
X0000830470Y0000534680D01*
X0000830877Y0000532615D01*
X0000849916Y0000486454D01*
X0000850140Y0000486117D01*
X0000851083Y0000484702D01*
X0000886337Y0000449341D01*
X0000887384Y0000448639D01*
X0000888085Y0000448169D01*
X0000934189Y0000428991D01*
X0000936252Y0000428577D01*
X0000986185Y0000428501D01*
X0000988249Y0000428909D01*
X0001034411Y0000447947D01*
X0001035110Y0000448414D01*
X0001036163Y0000449113D01*
X0001071524Y0000484369D01*
X0001071526Y0000484371D01*
X0001071530Y0000484375D01*
X0001072119Y0000485256D01*
X0001072696Y0000486117D01*
X0001072697Y0000486121D01*
X0001072699Y0000486124D01*
X0001072903Y0000487149D01*
X0001073110Y0000488180D01*
X0001073109Y0000488184D01*
X0001073110Y0000488188D01*
X0001073110Y0000534680D01*
X0001342281Y0000534680D01*
X0001342688Y0000532615D01*
X0001361727Y0000486454D01*
X0001361952Y0000486117D01*
X0001362893Y0000484702D01*
X0001398148Y0000449341D01*
X0001399195Y0000448639D01*
X0001399896Y0000448169D01*
X0001445999Y0000428991D01*
X0001448063Y0000428577D01*
X0001497996Y0000428501D01*
X0001500061Y0000428909D01*
X0001546222Y0000447947D01*
X0001546922Y0000448414D01*
X0001547974Y0000449113D01*
X0001583335Y0000484369D01*
X0001583337Y0000484371D01*
X0001583341Y0000484375D01*
X0001583930Y0000485256D01*
X0001584507Y0000486117D01*
X0001584508Y0000486121D01*
X0001584510Y0000486124D01*
X0001584714Y0000487149D01*
X0001584921Y0000488180D01*
X0001584920Y0000488184D01*
X0001584921Y0000488188D01*
X0001584921Y0000534680D01*
X0001893462Y0000534680D01*
X0001893868Y0000532615D01*
X0001912908Y0000486454D01*
X0001913133Y0000486117D01*
X0001914075Y0000484702D01*
X0001949329Y0000449341D01*
X0001950376Y0000448639D01*
X0001951077Y0000448169D01*
X0001997181Y0000428991D01*
X0001999244Y0000428577D01*
X0002049176Y0000428501D01*
X0002051241Y0000428909D01*
X0002097403Y0000447947D01*
X0002098103Y0000448414D01*
X0002099155Y0000449113D01*
X0002134516Y0000484369D01*
X0002134519Y0000484371D01*
X0002134522Y0000484375D01*
X0002135111Y0000485256D01*
X0002135688Y0000486117D01*
X0002135689Y0000486121D01*
X0002135691Y0000486124D01*
X0002135895Y0000487149D01*
X0002136102Y0000488180D01*
X0002136101Y0000488184D01*
X0002136102Y0000488188D01*
X0002136102Y0000534680D01*
X0002405273Y0000534680D01*
X0002405680Y0000532615D01*
X0002424719Y0000486454D01*
X0002424944Y0000486117D01*
X0002425886Y0000484702D01*
X0002461140Y0000449341D01*
X0002462187Y0000448639D01*
X0002462889Y0000448169D01*
X0002508992Y0000428991D01*
X0002511055Y0000428577D01*
X0002560988Y0000428501D01*
X0002563053Y0000428909D01*
X0002609214Y0000447947D01*
X0002609914Y0000448414D01*
X0002610966Y0000449113D01*
X0002646327Y0000484369D01*
X0002646330Y0000484371D01*
X0002646333Y0000484375D01*
X0002646922Y0000485256D01*
X0002647498Y0000486117D01*
X0002647500Y0000486121D01*
X0002647502Y0000486124D01*
X0002647706Y0000487149D01*
X0002647913Y0000488180D01*
X0002647912Y0000488184D01*
X0002647913Y0000488188D01*
X0002647913Y0000630707D01*
X0002647502Y0000632772D01*
X0002646333Y0000634522D01*
X0002611294Y0000669560D01*
X0002610415Y0000670148D01*
X0002609551Y0000670728D01*
X0002563447Y0000689906D01*
X0002561385Y0000690320D01*
X0002511452Y0000690395D01*
X0002511111Y0000690328D01*
X0002509387Y0000689988D01*
X0002463226Y0000670949D01*
X0002462893Y0000670728D01*
X0002461474Y0000669782D01*
X0002426113Y0000634528D01*
X0002424941Y0000632780D01*
X0002405762Y0000586677D01*
X0002405349Y0000584613D01*
X0002405273Y0000534680D01*
X0002136102Y0000534680D01*
X0002136102Y0000630707D01*
X0002135691Y0000632772D01*
X0002134522Y0000634522D01*
X0002099483Y0000669560D01*
X0002098604Y0000670148D01*
X0002097740Y0000670728D01*
X0002051637Y0000689906D01*
X0002049573Y0000690320D01*
X0001999641Y0000690395D01*
X0001999300Y0000690328D01*
X0001997576Y0000689988D01*
X0001951415Y0000670949D01*
X0001951082Y0000670728D01*
X0001949663Y0000669782D01*
X0001914300Y0000634528D01*
X0001913129Y0000632780D01*
X0001893951Y0000586677D01*
X0001893538Y0000584613D01*
X0001893462Y0000534680D01*
X0001584921Y0000534680D01*
X0001584921Y0000630707D01*
X0001584510Y0000632772D01*
X0001583341Y0000634522D01*
X0001548302Y0000669560D01*
X0001547423Y0000670148D01*
X0001546559Y0000670728D01*
X0001500456Y0000689906D01*
X0001498393Y0000690320D01*
X0001448459Y0000690395D01*
X0001448119Y0000690328D01*
X0001446395Y0000689988D01*
X0001400234Y0000670949D01*
X0001399901Y0000670728D01*
X0001398482Y0000669782D01*
X0001363120Y0000634528D01*
X0001361949Y0000632780D01*
X0001342770Y0000586677D01*
X0001342357Y0000584613D01*
X0001342281Y0000534680D01*
X0001073110Y0000534680D01*
X0001073110Y0000630707D01*
X0001072699Y0000632772D01*
X0001071530Y0000634522D01*
X0001036491Y0000669560D01*
X0001035612Y0000670148D01*
X0001034748Y0000670728D01*
X0000988645Y0000689906D01*
X0000986582Y0000690320D01*
X0000936648Y0000690395D01*
X0000936308Y0000690328D01*
X0000934584Y0000689988D01*
X0000888423Y0000670949D01*
X0000888090Y0000670728D01*
X0000886671Y0000669782D01*
X0000851308Y0000634528D01*
X0000850138Y0000632780D01*
X0000830959Y0000586677D01*
X0000830545Y0000584613D01*
X0000830470Y0000534680D01*
X0000561299Y0000534680D01*
X0000561299Y0000630707D01*
X0000560888Y0000632772D01*
X0000559719Y0000634522D01*
X0000524680Y0000669560D01*
X0000523800Y0000670148D01*
X0000522937Y0000670728D01*
X0000476834Y0000689906D01*
X0000474770Y0000690320D01*
X0000424837Y0000690395D01*
X0000424497Y0000690328D01*
X0000422773Y0000689988D01*
X0000376611Y0000670949D01*
X0000376279Y0000670728D01*
X0000374860Y0000669782D01*
X0000339498Y0000634528D01*
X0000338327Y0000632780D01*
X0000319148Y0000586677D01*
X0000318734Y0000584613D01*
X0000318659Y0000534680D01*
X0000044370Y0000534680D01*
X0000044370Y0000979527D01*
X0000043959Y0000981591D01*
X0000042789Y0000983341D01*
X0000041040Y0000984510D01*
X0000038976Y0000984921D01*
X0000012342Y0000984921D01*
X0000009395Y0000985507D01*
X0000007348Y0000986875D01*
X0000005979Y0000988923D01*
X0000005393Y0000991869D01*
X0000005393Y0001085861D01*
X0000318659Y0001085861D01*
X0000319066Y0001083796D01*
X0000338105Y0001037635D01*
X0000338330Y0001037298D01*
X0000339272Y0001035884D01*
X0000374526Y0001000521D01*
X0000375573Y0000999821D01*
X0000376274Y0000999350D01*
X0000422378Y0000980172D01*
X0000424441Y0000979758D01*
X0000474374Y0000979682D01*
X0000476439Y0000980089D01*
X0000522599Y0000999129D01*
X0000523548Y0000999760D01*
X0000524352Y0001000294D01*
X0000559713Y0001035550D01*
X0000559715Y0001035553D01*
X0000559719Y0001035555D01*
X0000560308Y0001036437D01*
X0000560885Y0001037298D01*
X0000560886Y0001037302D01*
X0000560888Y0001037304D01*
X0000561092Y0001038330D01*
X0000561299Y0001039361D01*
X0000561298Y0001039366D01*
X0000561299Y0001039369D01*
X0000561299Y0001085861D01*
X0000830470Y0001085861D01*
X0000830877Y0001083796D01*
X0000849916Y0001037635D01*
X0000850140Y0001037298D01*
X0000851083Y0001035884D01*
X0000886337Y0001000521D01*
X0000887384Y0000999821D01*
X0000888085Y0000999350D01*
X0000934189Y0000980172D01*
X0000936252Y0000979758D01*
X0000986185Y0000979682D01*
X0000988249Y0000980089D01*
X0001034411Y0000999129D01*
X0001035358Y0000999760D01*
X0001036163Y0001000294D01*
X0001071524Y0001035550D01*
X0001071526Y0001035553D01*
X0001071530Y0001035555D01*
X0001072119Y0001036437D01*
X0001072696Y0001037298D01*
X0001072697Y0001037302D01*
X0001072699Y0001037304D01*
X0001072903Y0001038330D01*
X0001073110Y0001039361D01*
X0001073109Y0001039366D01*
X0001073110Y0001039369D01*
X0001073110Y0001085861D01*
X0001342281Y0001085861D01*
X0001342688Y0001083796D01*
X0001361727Y0001037635D01*
X0001361952Y0001037298D01*
X0001362893Y0001035884D01*
X0001398148Y0001000521D01*
X0001399195Y0000999821D01*
X0001399896Y0000999350D01*
X0001445999Y0000980172D01*
X0001448063Y0000979758D01*
X0001497996Y0000979682D01*
X0001500061Y0000980089D01*
X0001546222Y0000999129D01*
X0001547170Y0000999760D01*
X0001547974Y0001000294D01*
X0001583335Y0001035550D01*
X0001583337Y0001035553D01*
X0001583341Y0001035555D01*
X0001583930Y0001036437D01*
X0001584507Y0001037298D01*
X0001584508Y0001037302D01*
X0001584510Y0001037304D01*
X0001584714Y0001038330D01*
X0001584921Y0001039361D01*
X0001584920Y0001039366D01*
X0001584921Y0001039369D01*
X0001584921Y0001085861D01*
X0001893462Y0001085861D01*
X0001893868Y0001083796D01*
X0001912908Y0001037635D01*
X0001913133Y0001037298D01*
X0001914075Y0001035884D01*
X0001949329Y0001000521D01*
X0001950376Y0000999821D01*
X0001951077Y0000999350D01*
X0001997181Y0000980172D01*
X0001999244Y0000979758D01*
X0002049176Y0000979682D01*
X0002051241Y0000980089D01*
X0002097403Y0000999129D01*
X0002098351Y0000999760D01*
X0002099155Y0001000294D01*
X0002134516Y0001035550D01*
X0002134519Y0001035553D01*
X0002134522Y0001035555D01*
X0002135111Y0001036437D01*
X0002135688Y0001037298D01*
X0002135689Y0001037302D01*
X0002135691Y0001037304D01*
X0002135895Y0001038330D01*
X0002136102Y0001039361D01*
X0002136101Y0001039366D01*
X0002136102Y0001039369D01*
X0002136102Y0001085861D01*
X0002405273Y0001085861D01*
X0002405680Y0001083796D01*
X0002424719Y0001037635D01*
X0002424944Y0001037298D01*
X0002425886Y0001035884D01*
X0002461140Y0001000521D01*
X0002462187Y0000999821D01*
X0002462889Y0000999350D01*
X0002508992Y0000980172D01*
X0002511055Y0000979758D01*
X0002560988Y0000979682D01*
X0002563053Y0000980089D01*
X0002609214Y0000999129D01*
X0002610162Y0000999760D01*
X0002610966Y0001000294D01*
X0002646327Y0001035550D01*
X0002646330Y0001035553D01*
X0002646333Y0001035555D01*
X0002646922Y0001036437D01*
X0002647498Y0001037298D01*
X0002647500Y0001037302D01*
X0002647502Y0001037304D01*
X0002647706Y0001038330D01*
X0002647913Y0001039361D01*
X0002647912Y0001039366D01*
X0002647913Y0001039369D01*
X0002647913Y0001181889D01*
X0002647502Y0001183953D01*
X0002646333Y0001185703D01*
X0002611294Y0001220743D01*
X0002610815Y0001221062D01*
X0002771968Y0001221062D01*
X0002776574Y0001197906D01*
X0002789692Y0001178274D01*
X0002809323Y0001165157D01*
X0002832480Y0001160551D01*
X0002855637Y0001165157D01*
X0002875268Y0001178274D01*
X0002888385Y0001197906D01*
X0002892991Y0001221062D01*
X0002888385Y0001244219D01*
X0002875268Y0001263851D01*
X0002855637Y0001276968D01*
X0002832480Y0001281574D01*
X0002809323Y0001276968D01*
X0002789692Y0001263851D01*
X0002776574Y0001244219D01*
X0002771968Y0001221062D01*
X0002610815Y0001221062D01*
X0002610415Y0001221330D01*
X0002609551Y0001221909D01*
X0002563447Y0001241087D01*
X0002561385Y0001241501D01*
X0002511452Y0001241576D01*
X0002511111Y0001241509D01*
X0002509387Y0001241169D01*
X0002463226Y0001222130D01*
X0002462893Y0001221909D01*
X0002461474Y0001220964D01*
X0002426113Y0001185709D01*
X0002424941Y0001183961D01*
X0002405762Y0001137858D01*
X0002405349Y0001135794D01*
X0002405273Y0001085861D01*
X0002136102Y0001085861D01*
X0002136102Y0001181889D01*
X0002135691Y0001183953D01*
X0002134522Y0001185703D01*
X0002099483Y0001220743D01*
X0002098604Y0001221330D01*
X0002097740Y0001221909D01*
X0002051637Y0001241087D01*
X0002049573Y0001241501D01*
X0001999641Y0001241576D01*
X0001999300Y0001241509D01*
X0001997576Y0001241169D01*
X0001951415Y0001222130D01*
X0001951082Y0001221909D01*
X0001949663Y0001220964D01*
X0001914300Y0001185709D01*
X0001913129Y0001183961D01*
X0001893951Y0001137858D01*
X0001893538Y0001135794D01*
X0001893462Y0001085861D01*
X0001584921Y0001085861D01*
X0001584921Y0001181889D01*
X0001584510Y0001183953D01*
X0001583341Y0001185703D01*
X0001548302Y0001220743D01*
X0001547423Y0001221330D01*
X0001546559Y0001221909D01*
X0001500456Y0001241087D01*
X0001498393Y0001241501D01*
X0001448459Y0001241576D01*
X0001448119Y0001241509D01*
X0001446395Y0001241169D01*
X0001400234Y0001222130D01*
X0001399901Y0001221909D01*
X0001398482Y0001220964D01*
X0001363120Y0001185709D01*
X0001361949Y0001183961D01*
X0001342770Y0001137858D01*
X0001342357Y0001135794D01*
X0001342281Y0001085861D01*
X0001073110Y0001085861D01*
X0001073110Y0001181889D01*
X0001072699Y0001183953D01*
X0001071530Y0001185703D01*
X0001036491Y0001220743D01*
X0001035612Y0001221330D01*
X0001034748Y0001221909D01*
X0000988645Y0001241087D01*
X0000986582Y0001241501D01*
X0000936648Y0001241576D01*
X0000936308Y0001241509D01*
X0000934584Y0001241169D01*
X0000888423Y0001222130D01*
X0000888090Y0001221909D01*
X0000886671Y0001220964D01*
X0000851308Y0001185709D01*
X0000850138Y0001183961D01*
X0000830959Y0001137858D01*
X0000830545Y0001135794D01*
X0000830470Y0001085861D01*
X0000561299Y0001085861D01*
X0000561299Y0001181889D01*
X0000560888Y0001183953D01*
X0000559719Y0001185703D01*
X0000524680Y0001220743D01*
X0000523800Y0001221330D01*
X0000522937Y0001221909D01*
X0000476834Y0001241087D01*
X0000474770Y0001241501D01*
X0000424837Y0001241576D01*
X0000424497Y0001241509D01*
X0000422773Y0001241169D01*
X0000376611Y0001222130D01*
X0000376279Y0001221909D01*
X0000374860Y0001220964D01*
X0000339498Y0001185709D01*
X0000338327Y0001183961D01*
X0000319148Y0001137858D01*
X0000318734Y0001135794D01*
X0000318659Y0001085861D01*
X0000005393Y0001085861D01*
X0000005393Y0001221062D01*
X0000094803Y0001221062D01*
X0000099409Y0001197906D01*
X0000112526Y0001178274D01*
X0000132158Y0001165157D01*
X0000155314Y0001160551D01*
X0000178471Y0001165157D01*
X0000198103Y0001178274D01*
X0000211220Y0001197906D01*
X0000215826Y0001221062D01*
X0000211220Y0001244219D01*
X0000198103Y0001263851D01*
X0000178471Y0001276968D01*
X0000155314Y0001281574D01*
X0000132158Y0001276968D01*
X0000112526Y0001263851D01*
X0000099409Y0001244219D01*
X0000094803Y0001221062D01*
X0000005393Y0001221062D01*
X0000005393Y0001298681D01*
X0000011074Y0001327240D01*
X0000026951Y0001351001D01*
X0000050712Y0001366878D01*
X0000079271Y0001372559D01*
X0002912459Y0001372559D01*
X0002941019Y0001366878D01*
G04 next file*
G04 #@! TF.FileFunction,Copper,L2,Bot,Signal*
G04 Gerber Fmt 4.6, Leading zero omitted, Abs format (unit mm)*
G04 Created by KiCad (PCBNEW (2016-09-17 revision 679eef1)-makepkg) date 09/24/16 16:35:10*
G01G01G01G01G01G01G01G01G01G01G01G01G01G01G01G01*
G04 APERTURE LIST*
G04 APERTURE END LIST*
D112*
D113*
X0000000000Y0002834645D02*
X0000953936Y0002223228D03*
X0000974244Y0002299015D03*
X0001029724Y0002354495D03*
X0001105511Y0002374803D03*
X0001181299Y0002354495D03*
X0001236779Y0002299015D03*
X0001257086Y0002223228D03*
X0001236779Y0002147440D03*
X0001181299Y0002091959D03*
X0001105511Y0002071653D03*
X0001029724Y0002091959D03*
X0000974244Y0002147440D03*
X0000442125Y0002223228D03*
X0000462433Y0002299015D03*
X0000517912Y0002354495D03*
X0000593700Y0002374803D03*
X0000669488Y0002354495D03*
X0000724968Y0002299015D03*
X0000745275Y0002223228D03*
X0000724968Y0002147440D03*
X0000669488Y0002091959D03*
X0000593700Y0002071653D03*
X0000517912Y0002091959D03*
X0000462433Y0002147440D03*
X0002253149Y0002223228D03*
X0002273456Y0002299015D03*
X0002328937Y0002354495D03*
X0002404724Y0002374803D03*
X0002480511Y0002354495D03*
X0002535991Y0002299015D03*
X0002556299Y0002223228D03*
X0002535991Y0002147440D03*
X0002480511Y0002091959D03*
X0002404724Y0002071653D03*
X0002328937Y0002091959D03*
X0002273456Y0002147440D03*
X0001741338Y0002223228D03*
X0001761645Y0002299015D03*
X0001817125Y0002354495D03*
X0001892913Y0002374803D03*
X0001968700Y0002354495D03*
X0002024181Y0002299015D03*
X0002044487Y0002223228D03*
X0002024181Y0002147440D03*
X0001968700Y0002091959D03*
X0001892913Y0002071653D03*
X0001817125Y0002091959D03*
X0001761645Y0002147440D03*
D114*
G36*
X0002941019Y0002823571D02*
X0002964781Y0002807693D01*
X0002980657Y0002783933D01*
X0002986338Y0002755374D01*
X0002986338Y0002452499D01*
X0002985752Y0002449553D01*
X0002984384Y0002447505D01*
X0002982336Y0002446137D01*
X0002979389Y0002445551D01*
X0002952755Y0002445551D01*
X0002950691Y0002445140D01*
X0002948941Y0002443971D01*
X0002947772Y0002442221D01*
X0002947362Y0002440157D01*
X0002947362Y0001855905D01*
X0002947772Y0001853841D01*
X0002948941Y0001852091D01*
X0002950691Y0001850922D01*
X0002952755Y0001850511D01*
X0002979389Y0001850511D01*
X0002982336Y0001849925D01*
X0002984384Y0001848557D01*
X0002985752Y0001846509D01*
X0002986338Y0001843563D01*
X0002986338Y0001555649D01*
X0002979189Y0001519707D01*
X0002959130Y0001489688D01*
X0002929111Y0001469629D01*
X0002893169Y0001462480D01*
X0000079271Y0001462086D01*
X0000050712Y0001467767D01*
X0000026951Y0001483643D01*
X0000011074Y0001507405D01*
X0000005393Y0001535964D01*
X0000005393Y0001612795D01*
X0000094803Y0001612795D01*
X0000099409Y0001589638D01*
X0000112526Y0001570006D01*
X0000132158Y0001556889D01*
X0000155314Y0001552283D01*
X0000178471Y0001556889D01*
X0000198103Y0001570006D01*
X0000211220Y0001589638D01*
X0000215630Y0001611811D01*
X0002770984Y0001611811D01*
X0002775590Y0001588654D01*
X0002788707Y0001569022D01*
X0002808339Y0001555905D01*
X0002831496Y0001551299D01*
X0002854652Y0001555905D01*
X0002874284Y0001569022D01*
X0002887401Y0001588654D01*
X0002892006Y0001611811D01*
X0002887401Y0001634967D01*
X0002874284Y0001654599D01*
X0002854652Y0001667716D01*
X0002831496Y0001672322D01*
X0002808339Y0001667716D01*
X0002788707Y0001654599D01*
X0002775590Y0001634967D01*
X0002770984Y0001611811D01*
X0000215630Y0001611811D01*
X0000215826Y0001612795D01*
X0000211220Y0001635952D01*
X0000198103Y0001655583D01*
X0000178471Y0001668700D01*
X0000155314Y0001673307D01*
X0000132158Y0001668700D01*
X0000112526Y0001655583D01*
X0000099409Y0001635952D01*
X0000094803Y0001612795D01*
X0000005393Y0001612795D01*
X0000005393Y0001839626D01*
X0000005979Y0001842572D01*
X0000007348Y0001844620D01*
X0000009395Y0001845988D01*
X0000012342Y0001846574D01*
X0000038976Y0001846574D01*
X0000041040Y0001846985D01*
X0000042789Y0001848154D01*
X0000043959Y0001849904D01*
X0000044370Y0001851968D01*
X0000044370Y0002198459D01*
X0000462753Y0002198459D01*
X0000463161Y0002196395D01*
X0000482200Y0002150234D01*
X0000482424Y0002149896D01*
X0000483366Y0002148482D01*
X0000518621Y0002113120D01*
X0000519667Y0002112419D01*
X0000520368Y0002111949D01*
X0000566472Y0002092769D01*
X0000568536Y0002092356D01*
X0000618469Y0002092280D01*
X0000620533Y0002092687D01*
X0000666695Y0002111727D01*
X0000667395Y0002112193D01*
X0000668446Y0002112894D01*
X0000703807Y0002148148D01*
X0000703810Y0002148152D01*
X0000703813Y0002148154D01*
X0000704403Y0002149036D01*
X0000704980Y0002149896D01*
X0000704980Y0002149900D01*
X0000704983Y0002149904D01*
X0000705186Y0002150929D01*
X0000705393Y0002151960D01*
X0000705392Y0002151964D01*
X0000705393Y0002151968D01*
X0000705393Y0002198459D01*
X0000974564Y0002198459D01*
X0000974971Y0002196395D01*
X0000994011Y0002150234D01*
X0000994235Y0002149896D01*
X0000995177Y0002148482D01*
X0001030432Y0002113120D01*
X0001031477Y0002112419D01*
X0001032180Y0002111949D01*
X0001078283Y0002092769D01*
X0001080347Y0002092356D01*
X0001130280Y0002092280D01*
X0001132344Y0002092687D01*
X0001178506Y0002111727D01*
X0001179206Y0002112193D01*
X0001180257Y0002112894D01*
X0001215619Y0002148148D01*
X0001215621Y0002148152D01*
X0001215624Y0002148154D01*
X0001216214Y0002149036D01*
X0001216791Y0002149896D01*
X0001216791Y0002149900D01*
X0001216794Y0002149904D01*
X0001216997Y0002150929D01*
X0001217204Y0002151960D01*
X0001217203Y0002151964D01*
X0001217204Y0002151968D01*
X0001217204Y0002198459D01*
X0001761966Y0002198459D01*
X0001762373Y0002196395D01*
X0001781412Y0002150234D01*
X0001781637Y0002149896D01*
X0001782579Y0002148482D01*
X0001817833Y0002113120D01*
X0001818880Y0002112419D01*
X0001819581Y0002111949D01*
X0001865685Y0002092769D01*
X0001867748Y0002092356D01*
X0001917681Y0002092280D01*
X0001919746Y0002092687D01*
X0001965907Y0002111727D01*
X0001966607Y0002112193D01*
X0001967659Y0002112894D01*
X0002003019Y0002148148D01*
X0002003023Y0002148152D01*
X0002003026Y0002148154D01*
X0002003615Y0002149036D01*
X0002004192Y0002149896D01*
X0002004193Y0002149900D01*
X0002004195Y0002149904D01*
X0002004398Y0002150929D01*
X0002004606Y0002151960D01*
X0002004605Y0002151964D01*
X0002004606Y0002151968D01*
X0002004606Y0002198459D01*
X0002273777Y0002198459D01*
X0002274184Y0002196395D01*
X0002293223Y0002150234D01*
X0002293448Y0002149896D01*
X0002294390Y0002148482D01*
X0002329644Y0002113120D01*
X0002330691Y0002112419D01*
X0002331392Y0002111949D01*
X0002377496Y0002092769D01*
X0002379559Y0002092356D01*
X0002429492Y0002092280D01*
X0002431557Y0002092687D01*
X0002477718Y0002111727D01*
X0002478418Y0002112193D01*
X0002479470Y0002112894D01*
X0002514831Y0002148148D01*
X0002514834Y0002148152D01*
X0002514837Y0002148154D01*
X0002515426Y0002149036D01*
X0002516003Y0002149896D01*
X0002516004Y0002149900D01*
X0002516006Y0002149904D01*
X0002516210Y0002150929D01*
X0002516417Y0002151960D01*
X0002516416Y0002151964D01*
X0002516417Y0002151968D01*
X0002516417Y0002294488D01*
X0002516006Y0002296552D01*
X0002514837Y0002298302D01*
X0002479798Y0002333341D01*
X0002478919Y0002333928D01*
X0002478055Y0002334507D01*
X0002431952Y0002353685D01*
X0002429889Y0002354099D01*
X0002379956Y0002354175D01*
X0002379615Y0002354108D01*
X0002377891Y0002353767D01*
X0002331730Y0002334729D01*
X0002331397Y0002334507D01*
X0002329978Y0002333562D01*
X0002294617Y0002298307D01*
X0002293445Y0002296559D01*
X0002274266Y0002250456D01*
X0002273853Y0002248393D01*
X0002273777Y0002198459D01*
X0002004606Y0002198459D01*
X0002004606Y0002294488D01*
X0002004195Y0002296552D01*
X0002003026Y0002298302D01*
X0001967987Y0002333341D01*
X0001967108Y0002333928D01*
X0001966244Y0002334507D01*
X0001920141Y0002353685D01*
X0001918078Y0002354099D01*
X0001868145Y0002354175D01*
X0001867804Y0002354108D01*
X0001866080Y0002353767D01*
X0001819918Y0002334729D01*
X0001819586Y0002334507D01*
X0001818167Y0002333562D01*
X0001782806Y0002298307D01*
X0001781634Y0002296559D01*
X0001762455Y0002250456D01*
X0001762042Y0002248393D01*
X0001761966Y0002198459D01*
X0001217204Y0002198459D01*
X0001217204Y0002294488D01*
X0001216794Y0002296552D01*
X0001215624Y0002298302D01*
X0001180585Y0002333341D01*
X0001179707Y0002333928D01*
X0001178843Y0002334507D01*
X0001132740Y0002353685D01*
X0001130676Y0002354099D01*
X0001080743Y0002354175D01*
X0001080403Y0002354108D01*
X0001078678Y0002353767D01*
X0001032516Y0002334729D01*
X0001032184Y0002334507D01*
X0001030764Y0002333562D01*
X0000995403Y0002298307D01*
X0000994232Y0002296559D01*
X0000975054Y0002250456D01*
X0000974640Y0002248393D01*
X0000974564Y0002198459D01*
X0000705393Y0002198459D01*
X0000705393Y0002294488D01*
X0000704983Y0002296552D01*
X0000703813Y0002298302D01*
X0000668774Y0002333341D01*
X0000667896Y0002333928D01*
X0000667032Y0002334507D01*
X0000620928Y0002353685D01*
X0000618865Y0002354099D01*
X0000568932Y0002354175D01*
X0000568592Y0002354108D01*
X0000566867Y0002353767D01*
X0000520706Y0002334729D01*
X0000520373Y0002334507D01*
X0000518954Y0002333562D01*
X0000483593Y0002298307D01*
X0000482420Y0002296559D01*
X0000463243Y0002250456D01*
X0000462829Y0002248393D01*
X0000462753Y0002198459D01*
X0000044370Y0002198459D01*
X0000044370Y0002436220D01*
X0000043959Y0002438284D01*
X0000042789Y0002440034D01*
X0000041040Y0002441203D01*
X0000038976Y0002441614D01*
X0000012342Y0002441614D01*
X0000009395Y0002442200D01*
X0000007348Y0002443568D01*
X0000005979Y0002445616D01*
X0000005393Y0002448562D01*
X0000005393Y0002677754D01*
X0000094803Y0002677754D01*
X0000099409Y0002654599D01*
X0000112526Y0002634967D01*
X0000132158Y0002621850D01*
X0000155314Y0002617244D01*
X0000178471Y0002621850D01*
X0000198103Y0002634967D01*
X0000211220Y0002654599D01*
X0000215826Y0002677754D01*
X0002771968Y0002677754D01*
X0002776574Y0002654599D01*
X0002789692Y0002634967D01*
X0002809323Y0002621850D01*
X0002832480Y0002617244D01*
X0002855637Y0002621850D01*
X0002875268Y0002634967D01*
X0002888385Y0002654599D01*
X0002892991Y0002677754D01*
X0002888385Y0002700912D01*
X0002875268Y0002720544D01*
X0002855637Y0002733660D01*
X0002832480Y0002738267D01*
X0002809323Y0002733660D01*
X0002789692Y0002720544D01*
X0002776574Y0002700912D01*
X0002771968Y0002677754D01*
X0000215826Y0002677754D01*
X0000211220Y0002700912D01*
X0000198103Y0002720544D01*
X0000178471Y0002733660D01*
X0000155314Y0002738267D01*
X0000132158Y0002733660D01*
X0000112526Y0002720544D01*
X0000099409Y0002700912D01*
X0000094803Y0002677754D01*
X0000005393Y0002677754D01*
X0000005393Y0002755374D01*
X0000011074Y0002783933D01*
X0000026951Y0002807693D01*
X0000050712Y0002823571D01*
X0000079271Y0002829251D01*
X0002912459Y0002829251D01*
X0002941019Y0002823571D01*
X0002941019Y0002823571D01*
G37*
X0002941019Y0002823571D02*
X0002964781Y0002807693D01*
X0002980657Y0002783933D01*
X0002986338Y0002755374D01*
X0002986338Y0002452499D01*
X0002985752Y0002449553D01*
X0002984384Y0002447505D01*
X0002982336Y0002446137D01*
X0002979389Y0002445551D01*
X0002952755Y0002445551D01*
X0002950691Y0002445140D01*
X0002948941Y0002443971D01*
X0002947772Y0002442221D01*
X0002947362Y0002440157D01*
X0002947362Y0001855905D01*
X0002947772Y0001853841D01*
X0002948941Y0001852091D01*
X0002950691Y0001850922D01*
X0002952755Y0001850511D01*
X0002979389Y0001850511D01*
X0002982336Y0001849925D01*
X0002984384Y0001848557D01*
X0002985752Y0001846509D01*
X0002986338Y0001843563D01*
X0002986338Y0001555649D01*
X0002979189Y0001519707D01*
X0002959130Y0001489688D01*
X0002929111Y0001469629D01*
X0002893169Y0001462480D01*
X0000079271Y0001462086D01*
X0000050712Y0001467767D01*
X0000026951Y0001483643D01*
X0000011074Y0001507405D01*
X0000005393Y0001535964D01*
X0000005393Y0001612795D01*
X0000094803Y0001612795D01*
X0000099409Y0001589638D01*
X0000112526Y0001570006D01*
X0000132158Y0001556889D01*
X0000155314Y0001552283D01*
X0000178471Y0001556889D01*
X0000198103Y0001570006D01*
X0000211220Y0001589638D01*
X0000215630Y0001611811D01*
X0002770984Y0001611811D01*
X0002775590Y0001588654D01*
X0002788707Y0001569022D01*
X0002808339Y0001555905D01*
X0002831496Y0001551299D01*
X0002854652Y0001555905D01*
X0002874284Y0001569022D01*
X0002887401Y0001588654D01*
X0002892006Y0001611811D01*
X0002887401Y0001634967D01*
X0002874284Y0001654599D01*
X0002854652Y0001667716D01*
X0002831496Y0001672322D01*
X0002808339Y0001667716D01*
X0002788707Y0001654599D01*
X0002775590Y0001634967D01*
X0002770984Y0001611811D01*
X0000215630Y0001611811D01*
X0000215826Y0001612795D01*
X0000211220Y0001635952D01*
X0000198103Y0001655583D01*
X0000178471Y0001668700D01*
X0000155314Y0001673307D01*
X0000132158Y0001668700D01*
X0000112526Y0001655583D01*
X0000099409Y0001635952D01*
X0000094803Y0001612795D01*
X0000005393Y0001612795D01*
X0000005393Y0001839626D01*
X0000005979Y0001842572D01*
X0000007348Y0001844620D01*
X0000009395Y0001845988D01*
X0000012342Y0001846574D01*
X0000038976Y0001846574D01*
X0000041040Y0001846985D01*
X0000042789Y0001848154D01*
X0000043959Y0001849904D01*
X0000044370Y0001851968D01*
X0000044370Y0002198459D01*
X0000462753Y0002198459D01*
X0000463161Y0002196395D01*
X0000482200Y0002150234D01*
X0000482424Y0002149896D01*
X0000483366Y0002148482D01*
X0000518621Y0002113120D01*
X0000519667Y0002112419D01*
X0000520368Y0002111949D01*
X0000566472Y0002092769D01*
X0000568536Y0002092356D01*
X0000618469Y0002092280D01*
X0000620533Y0002092687D01*
X0000666695Y0002111727D01*
X0000667395Y0002112193D01*
X0000668446Y0002112894D01*
X0000703807Y0002148148D01*
X0000703810Y0002148152D01*
X0000703813Y0002148154D01*
X0000704403Y0002149036D01*
X0000704980Y0002149896D01*
X0000704980Y0002149900D01*
X0000704983Y0002149904D01*
X0000705186Y0002150929D01*
X0000705393Y0002151960D01*
X0000705392Y0002151964D01*
X0000705393Y0002151968D01*
X0000705393Y0002198459D01*
X0000974564Y0002198459D01*
X0000974971Y0002196395D01*
X0000994011Y0002150234D01*
X0000994235Y0002149896D01*
X0000995177Y0002148482D01*
X0001030432Y0002113120D01*
X0001031477Y0002112419D01*
X0001032180Y0002111949D01*
X0001078283Y0002092769D01*
X0001080347Y0002092356D01*
X0001130280Y0002092280D01*
X0001132344Y0002092687D01*
X0001178506Y0002111727D01*
X0001179206Y0002112193D01*
X0001180257Y0002112894D01*
X0001215619Y0002148148D01*
X0001215621Y0002148152D01*
X0001215624Y0002148154D01*
X0001216214Y0002149036D01*
X0001216791Y0002149896D01*
X0001216791Y0002149900D01*
X0001216794Y0002149904D01*
X0001216997Y0002150929D01*
X0001217204Y0002151960D01*
X0001217203Y0002151964D01*
X0001217204Y0002151968D01*
X0001217204Y0002198459D01*
X0001761966Y0002198459D01*
X0001762373Y0002196395D01*
X0001781412Y0002150234D01*
X0001781637Y0002149896D01*
X0001782579Y0002148482D01*
X0001817833Y0002113120D01*
X0001818880Y0002112419D01*
X0001819581Y0002111949D01*
X0001865685Y0002092769D01*
X0001867748Y0002092356D01*
X0001917681Y0002092280D01*
X0001919746Y0002092687D01*
X0001965907Y0002111727D01*
X0001966607Y0002112193D01*
X0001967659Y0002112894D01*
X0002003019Y0002148148D01*
X0002003023Y0002148152D01*
X0002003026Y0002148154D01*
X0002003615Y0002149036D01*
X0002004192Y0002149896D01*
X0002004193Y0002149900D01*
X0002004195Y0002149904D01*
X0002004398Y0002150929D01*
X0002004606Y0002151960D01*
X0002004605Y0002151964D01*
X0002004606Y0002151968D01*
X0002004606Y0002198459D01*
X0002273777Y0002198459D01*
X0002274184Y0002196395D01*
X0002293223Y0002150234D01*
X0002293448Y0002149896D01*
X0002294390Y0002148482D01*
X0002329644Y0002113120D01*
X0002330691Y0002112419D01*
X0002331392Y0002111949D01*
X0002377496Y0002092769D01*
X0002379559Y0002092356D01*
X0002429492Y0002092280D01*
X0002431557Y0002092687D01*
X0002477718Y0002111727D01*
X0002478418Y0002112193D01*
X0002479470Y0002112894D01*
X0002514831Y0002148148D01*
X0002514834Y0002148152D01*
X0002514837Y0002148154D01*
X0002515426Y0002149036D01*
X0002516003Y0002149896D01*
X0002516004Y0002149900D01*
X0002516006Y0002149904D01*
X0002516210Y0002150929D01*
X0002516417Y0002151960D01*
X0002516416Y0002151964D01*
X0002516417Y0002151968D01*
X0002516417Y0002294488D01*
X0002516006Y0002296552D01*
X0002514837Y0002298302D01*
X0002479798Y0002333341D01*
X0002478919Y0002333928D01*
X0002478055Y0002334507D01*
X0002431952Y0002353685D01*
X0002429889Y0002354099D01*
X0002379956Y0002354175D01*
X0002379615Y0002354108D01*
X0002377891Y0002353767D01*
X0002331730Y0002334729D01*
X0002331397Y0002334507D01*
X0002329978Y0002333562D01*
X0002294617Y0002298307D01*
X0002293445Y0002296559D01*
X0002274266Y0002250456D01*
X0002273853Y0002248393D01*
X0002273777Y0002198459D01*
X0002004606Y0002198459D01*
X0002004606Y0002294488D01*
X0002004195Y0002296552D01*
X0002003026Y0002298302D01*
X0001967987Y0002333341D01*
X0001967108Y0002333928D01*
X0001966244Y0002334507D01*
X0001920141Y0002353685D01*
X0001918078Y0002354099D01*
X0001868145Y0002354175D01*
X0001867804Y0002354108D01*
X0001866080Y0002353767D01*
X0001819918Y0002334729D01*
X0001819586Y0002334507D01*
X0001818167Y0002333562D01*
X0001782806Y0002298307D01*
X0001781634Y0002296559D01*
X0001762455Y0002250456D01*
X0001762042Y0002248393D01*
X0001761966Y0002198459D01*
X0001217204Y0002198459D01*
X0001217204Y0002294488D01*
X0001216794Y0002296552D01*
X0001215624Y0002298302D01*
X0001180585Y0002333341D01*
X0001179707Y0002333928D01*
X0001178843Y0002334507D01*
X0001132740Y0002353685D01*
X0001130676Y0002354099D01*
X0001080743Y0002354175D01*
X0001080403Y0002354108D01*
X0001078678Y0002353767D01*
X0001032516Y0002334729D01*
X0001032184Y0002334507D01*
X0001030764Y0002333562D01*
X0000995403Y0002298307D01*
X0000994232Y0002296559D01*
X0000975054Y0002250456D01*
X0000974640Y0002248393D01*
X0000974564Y0002198459D01*
X0000705393Y0002198459D01*
X0000705393Y0002294488D01*
X0000704983Y0002296552D01*
X0000703813Y0002298302D01*
X0000668774Y0002333341D01*
X0000667896Y0002333928D01*
X0000667032Y0002334507D01*
X0000620928Y0002353685D01*
X0000618865Y0002354099D01*
X0000568932Y0002354175D01*
X0000568592Y0002354108D01*
X0000566867Y0002353767D01*
X0000520706Y0002334729D01*
X0000520373Y0002334507D01*
X0000518954Y0002333562D01*
X0000483593Y0002298307D01*
X0000482420Y0002296559D01*
X0000463243Y0002250456D01*
X0000462829Y0002248393D01*
X0000462753Y0002198459D01*
X0000044370Y0002198459D01*
X0000044370Y0002436220D01*
X0000043959Y0002438284D01*
X0000042789Y0002440034D01*
X0000041040Y0002441203D01*
X0000038976Y0002441614D01*
X0000012342Y0002441614D01*
X0000009395Y0002442200D01*
X0000007348Y0002443568D01*
X0000005979Y0002445616D01*
X0000005393Y0002448562D01*
X0000005393Y0002677754D01*
X0000094803Y0002677754D01*
X0000099409Y0002654599D01*
X0000112526Y0002634967D01*
X0000132158Y0002621850D01*
X0000155314Y0002617244D01*
X0000178471Y0002621850D01*
X0000198103Y0002634967D01*
X0000211220Y0002654599D01*
X0000215826Y0002677754D01*
X0002771968Y0002677754D01*
X0002776574Y0002654599D01*
X0002789692Y0002634967D01*
X0002809323Y0002621850D01*
X0002832480Y0002617244D01*
X0002855637Y0002621850D01*
X0002875268Y0002634967D01*
X0002888385Y0002654599D01*
X0002892991Y0002677754D01*
X0002888385Y0002700912D01*
X0002875268Y0002720544D01*
X0002855637Y0002733660D01*
X0002832480Y0002738267D01*
X0002809323Y0002733660D01*
X0002789692Y0002720544D01*
X0002776574Y0002700912D01*
X0002771968Y0002677754D01*
X0000215826Y0002677754D01*
X0000211220Y0002700912D01*
X0000198103Y0002720544D01*
X0000178471Y0002733660D01*
X0000155314Y0002738267D01*
X0000132158Y0002733660D01*
X0000112526Y0002720544D01*
X0000099409Y0002700912D01*
X0000094803Y0002677754D01*
X0000005393Y0002677754D01*
X0000005393Y0002755374D01*
X0000011074Y0002783933D01*
X0000026951Y0002807693D01*
X0000050712Y0002823571D01*
X0000079271Y0002829251D01*
X0002912459Y0002829251D01*
X0002941019Y0002823571D01*
M02*