%
M48
METRIC,000.000
T01C0.46
T03C0.46
T05C0.46
T06C0.99
T07C3.10
T09C3.10
T11C3.10
T13C3.10
T15C0.50
%
T01
X007569Y028210
X007569Y014210
X008084Y030135
X008084Y026285
X008084Y016135
X008084Y012284
X009494Y031543
X009494Y024875
X009494Y017545
X009494Y010875
X011419Y032061
X011419Y024359
X011419Y018060
X011419Y010359
X013345Y031543
X013345Y024875
X013345Y017545
X013345Y010875
X014754Y030135
X014754Y026285
X014754Y016135
X014754Y012284
X015270Y028210
X015270Y014210
X020568Y028210
X020568Y014210
X021084Y030135
X021084Y026285
X021084Y016135
X021084Y012284
X022494Y031543
X022494Y024875
X022494Y017545
X022494Y010875
X024419Y032061
X024419Y024359
X024419Y018060
X024419Y010359
X026344Y031543
X026344Y024875
X026344Y017545
X026344Y010875
X027754Y030135
X027754Y026285
X027754Y016135
X027754Y012284
X028270Y028210
X028270Y014210
X033571Y028210
X033571Y014210
X034086Y030135
X034086Y026285
X034086Y016135
X034086Y012284
X035493Y031543
X035493Y024875
X035493Y017545
X035493Y010875
X037419Y032061
X037419Y024359
X037419Y018060
X037419Y010359
X039344Y031543
X039344Y024875
X039344Y017545
X039344Y010875
X040754Y030135
X040754Y026285
X040754Y016135
X040754Y012284
X041269Y028210
X041269Y014210
X047569Y028210
X047569Y014210
X048084Y030135
X048084Y026285
X048084Y016135
X048084Y012284
X049494Y031543
X049494Y024875
X049494Y017545
X049494Y010875
X051419Y032061
X051419Y024359
X051419Y018060
X051419Y010359
X053345Y031543
X053345Y024875
X053345Y017545
X053345Y010875
X054754Y030135
X054754Y026285
X054754Y016135
X054754Y012284
X055270Y028210
X055270Y014210
X060568Y028210
X060568Y014210
X061086Y030135
X061086Y026285
X061086Y016135
X061086Y012284
X062494Y031543
X062494Y024875
X062494Y017545
X062494Y010875
X064419Y032061
X064419Y024359
X064419Y018060
X064419Y010359
X066344Y031543
X066344Y024875
X066344Y017545
X066344Y010875
X067754Y030135
X067754Y026285
X067754Y016135
X067754Y012284
X068270Y028210
X068270Y014210
T03
X011229Y056470
X011744Y058395
X011744Y054545
X013154Y059805
X013154Y053135
X015079Y060321
X015079Y052619
X017005Y059805
X017005Y053135
X018415Y058395
X018415Y054545
X018930Y056470
X024229Y056470
X024744Y058395
X024744Y054545
X026154Y059805
X026154Y053135
X028079Y060321
X028079Y052619
X030005Y059805
X030005Y053135
X031414Y058395
X031414Y054545
X031930Y056470
X044229Y056470
X044744Y058395
X044744Y054545
X046154Y059805
X046154Y053135
X048079Y060321
X048079Y052619
X050004Y059805
X050004Y053135
X051414Y058395
X051414Y054545
X051930Y056470
X057228Y056470
X057746Y058395
X057746Y054545
X059154Y059805
X059154Y053135
X061079Y060321
X061079Y052619
X063004Y059805
X063004Y053135
X064414Y058395
X064414Y054545
X064930Y056470
T05
X060510Y096625
X061026Y098550
X061026Y094702
X062435Y099960
X062435Y093292
X064361Y100475
X064361Y092777
X066286Y099960
X066286Y093292
X067693Y098550
X067693Y094702
X068209Y096625
T06
X010634Y105459
X012156Y104400
X013680Y105459
X015201Y104400
X016725Y105459
X018247Y104400
X019771Y105459
X021292Y104400
X022816Y105459
X024338Y104400
X025862Y105459
X027383Y104400
X028907Y105459
X030429Y104400
X031953Y105459
X033474Y104400
X034998Y105459
X036520Y104400
X038044Y105459
X039565Y104400
X041089Y105459
X042611Y104400
X044135Y105459
X045656Y104400
X047180Y105459
X048701Y104400
X050225Y105459
X051747Y104400
X053271Y105459
X054792Y104400
X056316Y105459
X057838Y104400
X059362Y105459
X060883Y104400
X062407Y105459
X063929Y104400
X065453Y105459
T07
X087260Y105319G85X087260Y105319
T09
X087260Y096319G85X087260Y096319
T11
X087260Y087319G85X087260Y087319
T13
X087260Y078319G85X087260Y078319
T15
X076239Y065194
X076239Y066194
X076239Y067194
X076239Y068194
X076239Y069194
X077940Y068565
X077940Y067565
X077940Y066565
X077940Y065565
X039326Y072250
X038326Y072250
X037326Y072250
X036326Y072250
X035326Y072250
X035000Y073754
X036000Y073754
X037000Y073754
X038000Y073755
X039000Y073755
X013326Y035250
X012326Y035250
X011326Y035250
X010326Y035250
X009326Y035250
X009000Y036750
X010000Y036751
X011000Y036751
X012000Y036751
X013000Y036751
X076239Y039700
X076239Y040700
X076239Y041700
X076239Y042700
X076239Y043700
X078080Y044126
X078080Y043126
X078080Y042126
X078080Y041126
X078080Y040126
X039326Y035250
X038326Y035250
X037326Y035250
X036326Y035250
X035326Y035250
X035000Y036754
X036000Y036754
X037000Y036754
X038000Y036755
X039000Y036755
X066326Y072250
X065325Y072250
X064325Y072250
X063326Y072250
X062326Y072250
X062000Y073758
X063000Y073758
X064000Y073758
X065000Y073758
X066000Y073758
X066326Y035250
X065325Y035250
X064325Y035250
X063326Y035250
X062326Y035250
X062000Y036758
X063000Y036758
X064000Y036758
X065000Y036758
X066000Y036758
X014326Y072250
X013326Y072250
X012326Y072250
X011326Y072250
X010326Y072250
X010000Y073751
X011000Y073751
X012000Y073751
X013000Y073751
X014000Y073751
X076239Y103194
X076239Y104194
X076239Y105194
X076239Y106194
X076225Y107193
X077810Y106655
X077810Y105655
X077810Y104655
X077810Y103655
X077810Y102655
X079060Y101770
X080060Y101771
X081060Y101771
X082060Y101772
X083055Y101830
X082702Y099861
X081703Y099867
X080703Y099868
X079703Y099868
X079060Y092770
X080060Y092771
X081060Y092771
X082060Y092772
X083055Y092830
X082702Y090861
X081703Y090867
X080703Y090868
X079703Y090868
X079060Y083770
X080060Y083771
X081060Y083771
X082060Y083772
X083055Y083830
X082702Y081861
X081703Y081867
X080703Y081868
X079703Y081868
X076120Y075711
X076239Y076700
X076239Y077700
X076239Y078700
X076239Y079700
X077810Y079655
X077810Y078655
X077810Y077655
X077810Y076655
X077810Y075655
M30