%MOIN*%
%OFA0B0*%
%FSLAX46Y46*%
%IPPOS*%
%LPD*%
%ADD10C,0.005905511811023622*%
%ADD11C,0.0039370078740157488*%
%ADD12C,0.027559055118110236*%
%ADD13C,0.053149606299212608*%
%ADD14C,0.11811023622047245*%
%ADD15C,0.03937007874015748*%
%ADD16C,0.01*%
%ADD27C,0.005905511811023622*%
%ADD28C,0.20472440944881892*%
%ADD29C,0.01*%
%ADD40C,0.005905511811023622*%
%ADD41C,0.20472440944881892*%
%ADD42C,0.01*%
%ADD53C,0.005905511811023622*%
%ADD54C,0.20472440944881892*%
%ADD55C,0.01*%
%ADD66C,0.005905511811023622*%
%ADD67C,0.20472440944881892*%
%ADD68C,0.01*%
%ADD79C,0.005905511811023622*%
%ADD90C,0.005905511811023622*%
%ADD101C,0.005905511811023622*%
%ADD102C,0.0039370078740157488*%
%ADD103C,0.027559055118110236*%
%ADD104C,0.053149606299212608*%
%ADD105C,0.11811023622047245*%
%ADD106C,0.01*%
%ADD117C,0.005905511811023622*%
%ADD118C,0.0039370078740157488*%
%ADD119C,0.027559055118110236*%
%ADD120C,0.053149606299212608*%
%ADD121C,0.11811023622047245*%
%ADD122C,0.01*%
%LPD*%
G01G01G01G01G01G01G01G01*
D10*
D11*
X0002772909Y0003238170D02*
X0002771409Y0003235170D01*
X0002768410Y0003233670D01*
X0002741413Y0003233670D01*
X0002751912Y0003263666D02*
X0002772909Y0003263666D01*
X0002751912Y0003250168D02*
X0002768410Y0003250168D01*
X0002771409Y0003251668D01*
X0002772909Y0003254668D01*
X0002772909Y0003259167D01*
X0002771409Y0003262167D01*
X0002769910Y0003263666D01*
X0002751912Y0003274164D02*
X0002751912Y0003286164D01*
X0002772909Y0003278665D02*
X0002745912Y0003278665D01*
X0002742913Y0003280165D01*
X0002741413Y0003283164D01*
X0002741413Y0003286164D01*
X0002751912Y0003292163D02*
X0002751912Y0003304162D01*
X0002741413Y0003296662D02*
X0002768410Y0003296662D01*
X0002771409Y0003298162D01*
X0002772909Y0003301162D01*
X0002772909Y0003304162D01*
X0002771409Y0003326659D02*
X0002772909Y0003323659D01*
X0002772909Y0003317660D01*
X0002771409Y0003314660D01*
X0002768410Y0003313160D01*
X0002756411Y0003313160D01*
X0002753411Y0003314660D01*
X0002751912Y0003317660D01*
X0002751912Y0003323659D01*
X0002753411Y0003326659D01*
X0002756411Y0003328158D01*
X0002759411Y0003328158D01*
X0002762410Y0003313160D01*
X0002772909Y0003341657D02*
X0002741413Y0003341657D01*
X0002760911Y0003344655D02*
X0002772909Y0003353655D01*
X0002751912Y0003353655D02*
X0002763909Y0003341657D01*
D10*
X0002742838Y0003380310D02*
X0002741338Y0003381810D01*
X0002739838Y0003384809D01*
X0002739838Y0003392308D01*
X0002741338Y0003395308D01*
X0002742838Y0003396808D01*
X0002745837Y0003398308D01*
X0002748837Y0003398308D01*
X0002753337Y0003396808D01*
X0002771334Y0003378809D01*
X0002771334Y0003398308D01*
X0002739838Y0003417805D02*
X0002739838Y0003420805D01*
X0002741338Y0003423804D01*
X0002742838Y0003425304D01*
X0002745837Y0003426804D01*
X0002751837Y0003428304D01*
X0002759336Y0003428304D01*
X0002765335Y0003426804D01*
X0002768335Y0003425304D01*
X0002769835Y0003423804D01*
X0002771334Y0003420805D01*
X0002771334Y0003417805D01*
X0002769835Y0003414804D01*
X0002768335Y0003413306D01*
X0002765335Y0003411806D01*
X0002759336Y0003410306D01*
X0002751837Y0003410306D01*
X0002745837Y0003411806D01*
X0002742838Y0003413306D01*
X0002741338Y0003414804D01*
X0002739838Y0003417805D01*
X0002771334Y0003458300D02*
X0002771334Y0003440302D01*
X0002771334Y0003449301D02*
X0002739838Y0003449301D01*
X0002744338Y0003446302D01*
X0002747337Y0003443301D01*
X0002748837Y0003440302D01*
X0002739838Y0003485297D02*
X0002739838Y0003479296D01*
X0002741338Y0003476298D01*
X0002742838Y0003474798D01*
X0002747337Y0003471798D01*
X0002753337Y0003470299D01*
X0002765335Y0003470299D01*
X0002768335Y0003471798D01*
X0002769835Y0003473298D01*
X0002771334Y0003476298D01*
X0002771334Y0003482297D01*
X0002769835Y0003485297D01*
X0002768335Y0003486796D01*
X0002765335Y0003488296D01*
X0002757836Y0003488296D01*
X0002754836Y0003486796D01*
X0002753337Y0003485297D01*
X0002751837Y0003482297D01*
X0002751837Y0003476298D01*
X0002753337Y0003473298D01*
X0002754836Y0003471798D01*
X0002757836Y0003470299D01*
X0002739838Y0003507794D02*
X0002739838Y0003510793D01*
X0002741338Y0003513793D01*
X0002742838Y0003515293D01*
X0002745837Y0003516793D01*
X0002751837Y0003518293D01*
X0002759336Y0003518293D01*
X0002765335Y0003516793D01*
X0002768335Y0003515293D01*
X0002769835Y0003513793D01*
X0002771334Y0003510793D01*
X0002771334Y0003507794D01*
X0002769835Y0003504794D01*
X0002768335Y0003503294D01*
X0002765335Y0003501794D01*
X0002759336Y0003500295D01*
X0002751837Y0003500295D01*
X0002745837Y0003501794D01*
X0002742838Y0003503294D01*
X0002741338Y0003504794D01*
X0002739838Y0003507794D01*
X0002771334Y0003533291D02*
X0002771334Y0003539290D01*
X0002769835Y0003542290D01*
X0002768335Y0003543789D01*
X0002763835Y0003546789D01*
X0002757836Y0003548289D01*
X0002745837Y0003548289D01*
X0002742838Y0003546789D01*
X0002741338Y0003545289D01*
X0002739838Y0003542290D01*
X0002739838Y0003536290D01*
X0002741338Y0003533291D01*
X0002742838Y0003531791D01*
X0002745837Y0003530291D01*
X0002753337Y0003530291D01*
X0002756336Y0003531791D01*
X0002757836Y0003533291D01*
X0002759336Y0003536290D01*
X0002759336Y0003542290D01*
X0002757836Y0003545289D01*
X0002756336Y0003546789D01*
X0002753337Y0003548289D01*
X0002742838Y0003560287D02*
X0002741338Y0003561787D01*
X0002739838Y0003564787D01*
X0002739838Y0003572286D01*
X0002741338Y0003575285D01*
X0002742838Y0003576784D01*
X0002745837Y0003578285D01*
X0002748837Y0003578285D01*
X0002753337Y0003576784D01*
X0002771334Y0003558787D01*
X0002771334Y0003578285D01*
X0002750337Y0003605282D02*
X0002771334Y0003605282D01*
X0002738338Y0003597783D02*
X0002760836Y0003590284D01*
X0002760836Y0003609781D01*
D11*
X0002206242Y0003045988D02*
X0002227240Y0003045988D01*
X0002213742Y0003014491D01*
X0002252737Y0003045988D02*
X0002246737Y0003045988D01*
X0002243738Y0003044488D01*
X0002242238Y0003042987D01*
X0002239238Y0003038488D01*
X0002237739Y0003032489D01*
X0002237739Y0003020491D01*
X0002239238Y0003017491D01*
X0002240738Y0003015991D01*
X0002243738Y0003014491D01*
X0002249737Y0003014491D01*
X0002252737Y0003015991D01*
X0002254236Y0003017491D01*
X0002255736Y0003020491D01*
X0002255736Y0003027990D01*
X0002254236Y0003030989D01*
X0002252737Y0003032489D01*
X0002249737Y0003033989D01*
X0002243738Y0003033989D01*
X0002240738Y0003032489D01*
X0002239238Y0003030989D01*
X0002237739Y0003027990D01*
X0002266235Y0003014491D02*
X0002282733Y0003035489D01*
X0002266235Y0003035489D02*
X0002282733Y0003014491D01*
X0002291732Y0003045988D02*
X0002311229Y0003045988D01*
X0002300731Y0003033989D01*
X0002305230Y0003033989D01*
X0002308230Y0003032489D01*
X0002309730Y0003030989D01*
X0002311229Y0003027990D01*
X0002311229Y0003020491D01*
X0002309730Y0003017491D01*
X0002308230Y0003015991D01*
X0002305230Y0003014491D01*
X0002296231Y0003014491D01*
X0002293232Y0003015991D01*
X0002291732Y0003017491D01*
X0002339726Y0003045988D02*
X0002324728Y0003045988D01*
X0002323228Y0003030989D01*
X0002324728Y0003032489D01*
X0002327727Y0003033989D01*
X0002335226Y0003033989D01*
X0002338226Y0003032489D01*
X0002339726Y0003030989D01*
X0002341226Y0003027990D01*
X0002341226Y0003020491D01*
X0002339726Y0003017491D01*
X0002338226Y0003015991D01*
X0002335226Y0003014491D01*
X0002327727Y0003014491D01*
X0002324728Y0003015991D01*
X0002323228Y0003017491D01*
X0002351724Y0003014491D02*
X0002368222Y0003035489D01*
X0002351724Y0003035489D02*
X0002368222Y0003014491D01*
X0002396719Y0003014491D02*
X0002378721Y0003014491D01*
X0002387720Y0003014491D02*
X0002387720Y0003045988D01*
X0002384720Y0003041488D01*
X0002381721Y0003038488D01*
X0002378721Y0003036989D01*
X0002416216Y0003045988D02*
X0002419216Y0003045988D01*
X0002422215Y0003044488D01*
X0002423715Y0003042987D01*
X0002425215Y0003039988D01*
X0002426715Y0003033989D01*
X0002426715Y0003026490D01*
X0002425215Y0003020491D01*
X0002423715Y0003017491D01*
X0002422215Y0003015991D01*
X0002419216Y0003014491D01*
X0002416216Y0003014491D01*
X0002413217Y0003015991D01*
X0002411717Y0003017491D01*
X0002410217Y0003020491D01*
X0002408717Y0003026490D01*
X0002408717Y0003033989D01*
X0002410217Y0003039988D01*
X0002411717Y0003042987D01*
X0002413217Y0003044488D01*
X0002416216Y0003045988D01*
X0002446212Y0003045988D02*
X0002449212Y0003045988D01*
X0002452212Y0003044488D01*
X0002453712Y0003042987D01*
X0002455211Y0003039988D01*
X0002456711Y0003033989D01*
X0002456711Y0003026490D01*
X0002455211Y0003020491D01*
X0002453712Y0003017491D01*
X0002452212Y0003015991D01*
X0002449212Y0003014491D01*
X0002446212Y0003014491D01*
X0002443213Y0003015991D01*
X0002441713Y0003017491D01*
X0002440213Y0003020491D01*
X0002438713Y0003026490D01*
X0002438713Y0003033989D01*
X0002440213Y0003039988D01*
X0002441713Y0003042987D01*
X0002443213Y0003044488D01*
X0002446212Y0003045988D01*
X0002492707Y0003015991D02*
X0002495706Y0003014491D01*
X0002501706Y0003014491D01*
X0002504705Y0003015991D01*
X0002506205Y0003018990D01*
X0002506205Y0003020491D01*
X0002504705Y0003023490D01*
X0002501706Y0003024990D01*
X0002497206Y0003024990D01*
X0002494206Y0003026490D01*
X0002492707Y0003029490D01*
X0002492707Y0003030989D01*
X0002494206Y0003033989D01*
X0002497206Y0003035489D01*
X0002501706Y0003035489D01*
X0002504705Y0003033989D01*
X0002519703Y0003035489D02*
X0002519703Y0003003993D01*
X0002519703Y0003033989D02*
X0002522702Y0003035489D01*
X0002528701Y0003035489D01*
X0002531702Y0003033989D01*
X0002533202Y0003032489D01*
X0002534701Y0003029490D01*
X0002534701Y0003020491D01*
X0002533202Y0003017491D01*
X0002531702Y0003015991D01*
X0002528701Y0003014491D01*
X0002522702Y0003014491D01*
X0002519703Y0003015991D01*
X0002552699Y0003014491D02*
X0002549699Y0003015991D01*
X0002548200Y0003018990D01*
X0002548200Y0003045988D01*
X0002564698Y0003014491D02*
X0002564698Y0003035489D01*
X0002564698Y0003045988D02*
X0002563198Y0003044488D01*
X0002564698Y0003042987D01*
X0002566197Y0003044488D01*
X0002564698Y0003045988D01*
X0002564698Y0003042987D01*
X0002575196Y0003035489D02*
X0002587194Y0003035489D01*
X0002579696Y0003045988D02*
X0002579696Y0003018990D01*
X0002581195Y0003015991D01*
X0002584195Y0003014491D01*
X0002587194Y0003014491D01*
X0002620190Y0003015991D02*
X0002623190Y0003014491D01*
X0002629190Y0003014491D01*
X0002632189Y0003015991D01*
X0002633689Y0003018990D01*
X0002633689Y0003020491D01*
X0002632189Y0003023490D01*
X0002629190Y0003024990D01*
X0002624690Y0003024990D01*
X0002621691Y0003026490D01*
X0002620190Y0003029490D01*
X0002620190Y0003030989D01*
X0002621691Y0003033989D01*
X0002624690Y0003035489D01*
X0002629190Y0003035489D01*
X0002632189Y0003033989D01*
X0002647187Y0003014491D02*
X0002647187Y0003045988D01*
X0002660686Y0003014491D02*
X0002660686Y0003030989D01*
X0002659186Y0003033989D01*
X0002656185Y0003035489D01*
X0002651686Y0003035489D01*
X0002648687Y0003033989D01*
X0002647187Y0003032489D01*
X0002687682Y0003015991D02*
X0002684682Y0003014491D01*
X0002678683Y0003014491D01*
X0002675684Y0003015991D01*
X0002674184Y0003018990D01*
X0002674184Y0003030989D01*
X0002675684Y0003033989D01*
X0002678683Y0003035489D01*
X0002684682Y0003035489D01*
X0002687682Y0003033989D01*
X0002689182Y0003030989D01*
X0002689182Y0003027990D01*
X0002674184Y0003024990D01*
X0002707180Y0003014491D02*
X0002704180Y0003015991D01*
X0002702680Y0003018990D01*
X0002702680Y0003045988D01*
X0002723678Y0003014491D02*
X0002720677Y0003015991D01*
X0002719178Y0003018990D01*
X0002719178Y0003045988D01*
D12*
X0002648827Y0003882137D02*
X0002648827Y0003725837D01*
D13*
X0002684654Y0003804184D02*
G75*
G03G03G03G03X0002684654Y0003804184I-0000150787D01X0002684654Y0003804184I-0000150787D01X0002684654Y0003804184I-0000150787D01G03G03X0002684654Y0003804184I-0000150787D01G03G03X0002684654Y0003804184I-0000150787D01X0002684654Y0003804184I-0000150787D01X0002684654Y0003804184I-0000150787D01X0002684654Y0003804184I-0000150787D01*
G01G01G01G01G01G01G01G01*
D14*
X0002638591Y0003804184D02*
G75*
G03G03G03G03X0002638591Y0003804184I-0000104724D01X0002638591Y0003804184I-0000104724D01X0002638591Y0003804184I-0000104724D01G03G03X0002638591Y0003804184I-0000104724D01G03G03X0002638591Y0003804184I-0000104724D01X0002638591Y0003804184I-0000104724D01X0002638591Y0003804184I-0000104724D01X0002638591Y0003804184I-0000104724D01*
G01G01G01G01G01G01G01G01*
D15*
X0000718366Y0004110235D03*
X0000838267Y0004110235D03*
X0000478562Y0004110235D03*
X0001078070Y0004110235D03*
X0000598464Y0004110235D03*
X0000958169Y0004110235D03*
X0001917381Y0004110235D03*
X0001317873Y0004110235D03*
X0001437775Y0004110235D03*
X0001677578Y0004110235D03*
X0001797480Y0004110235D03*
X0001557677Y0004110235D03*
X0001197972Y0004110235D03*
X0002516889Y0004110235D03*
X0002157185Y0004110235D03*
X0002277086Y0004110235D03*
X0002396988Y0004110235D03*
X0002037283Y0004110235D03*
X0002576948Y0004151968D03*
X0002457047Y0004151968D03*
X0002337145Y0004151968D03*
X0002217244Y0004151968D03*
X0002097342Y0004151968D03*
X0001977440Y0004151968D03*
X0001857539Y0004151968D03*
X0001737637Y0004151968D03*
X0001617736Y0004151968D03*
X0001497834Y0004151968D03*
X0001377933Y0004151968D03*
X0001258031Y0004151968D03*
X0001138129Y0004151968D03*
X0001018227Y0004151968D03*
X0000898326Y0004151968D03*
X0000778425Y0004151968D03*
X0000658523Y0004151968D03*
X0000538622Y0004151968D03*
X0000418720Y0004151968D03*
D10*
G36*
X0001254999Y0003241397D02*
X0001255458Y0003241329D01*
X0001255907Y0003241217D01*
X0001256344Y0003241060D01*
X0001256763Y0003240862D01*
X0001257161Y0003240623D01*
X0001257533Y0003240347D01*
X0001257877Y0003240036D01*
X0001258188Y0003239693D01*
X0001258464Y0003239320D01*
X0001258703Y0003238923D01*
X0001258901Y0003238504D01*
X0001259057Y0003238066D01*
X0001259170Y0003237617D01*
X0001259238Y0003237159D01*
X0001259260Y0003236696D01*
X0001259260Y0003198900D01*
X0001259238Y0003198437D01*
X0001259170Y0003197979D01*
X0001259057Y0003197529D01*
X0001258901Y0003197092D01*
X0001258703Y0003196673D01*
X0001258464Y0003196276D01*
X0001258188Y0003195903D01*
X0001257877Y0003195560D01*
X0001257533Y0003195248D01*
X0001257161Y0003194972D01*
X0001256763Y0003194734D01*
X0001256344Y0003194536D01*
X0001255907Y0003194378D01*
X0001255458Y0003194267D01*
X0001254999Y0003194199D01*
X0001254536Y0003194176D01*
X0001216741Y0003194176D01*
X0001216278Y0003194199D01*
X0001215819Y0003194267D01*
X0001215369Y0003194378D01*
X0001214933Y0003194536D01*
X0001214514Y0003194734D01*
X0001214116Y0003194972D01*
X0001213744Y0003195248D01*
X0001213400Y0003195560D01*
X0001213089Y0003195903D01*
X0001212813Y0003196276D01*
X0001212574Y0003196673D01*
X0001212376Y0003197092D01*
X0001212220Y0003197529D01*
X0001212107Y0003197979D01*
X0001212039Y0003198437D01*
X0001212016Y0003198900D01*
X0001212016Y0003236696D01*
X0001212039Y0003237159D01*
X0001212107Y0003237617D01*
X0001212220Y0003238066D01*
X0001212376Y0003238504D01*
X0001212574Y0003238923D01*
X0001212813Y0003239320D01*
X0001213089Y0003239693D01*
X0001213400Y0003240036D01*
X0001213744Y0003240347D01*
X0001214116Y0003240623D01*
X0001214514Y0003240862D01*
X0001214933Y0003241060D01*
X0001215369Y0003241217D01*
X0001215819Y0003241329D01*
X0001216278Y0003241397D01*
X0001216741Y0003241420D01*
X0001254536Y0003241420D01*
X0001254999Y0003241397D01*
X0001254999Y0003241397D01*
G37*
G36*
X0001779015Y0003241791D02*
X0001779473Y0003241723D01*
X0001779923Y0003241610D01*
X0001780360Y0003241454D01*
X0001780779Y0003241256D01*
X0001781176Y0003241018D01*
X0001781549Y0003240740D01*
X0001781892Y0003240430D01*
X0001782203Y0003240087D01*
X0001782480Y0003239714D01*
X0001782718Y0003239317D01*
X0001782917Y0003238897D01*
X0001783073Y0003238461D01*
X0001783185Y0003238010D01*
X0001783253Y0003237552D01*
X0001783276Y0003237088D01*
X0001783276Y0003199294D01*
X0001783253Y0003198831D01*
X0001783185Y0003198372D01*
X0001783073Y0003197923D01*
X0001782917Y0003197485D01*
X0001782718Y0003197067D01*
X0001782480Y0003196669D01*
X0001782203Y0003196297D01*
X0001781892Y0003195953D01*
X0001781549Y0003195642D01*
X0001781176Y0003195366D01*
X0001780779Y0003195128D01*
X0001780360Y0003194929D01*
X0001779923Y0003194773D01*
X0001779473Y0003194661D01*
X0001779015Y0003194591D01*
X0001778552Y0003194570D01*
X0001740756Y0003194570D01*
X0001740293Y0003194591D01*
X0001739835Y0003194661D01*
X0001739385Y0003194773D01*
X0001738949Y0003194929D01*
X0001738528Y0003195128D01*
X0001738132Y0003195366D01*
X0001737759Y0003195642D01*
X0001737416Y0003195953D01*
X0001737104Y0003196297D01*
X0001736828Y0003196669D01*
X0001736590Y0003197067D01*
X0001736392Y0003197485D01*
X0001736234Y0003197923D01*
X0001736123Y0003198372D01*
X0001736055Y0003198831D01*
X0001736032Y0003199294D01*
X0001736032Y0003237088D01*
X0001736055Y0003237552D01*
X0001736123Y0003238010D01*
X0001736234Y0003238461D01*
X0001736392Y0003238897D01*
X0001736590Y0003239317D01*
X0001736828Y0003239714D01*
X0001737104Y0003240087D01*
X0001737416Y0003240430D01*
X0001737759Y0003240740D01*
X0001738132Y0003241018D01*
X0001738528Y0003241256D01*
X0001738949Y0003241454D01*
X0001739385Y0003241610D01*
X0001739835Y0003241723D01*
X0001740293Y0003241791D01*
X0001740756Y0003241814D01*
X0001778552Y0003241814D01*
X0001779015Y0003241791D01*
X0001779015Y0003241791D01*
G37*
G36*
X0001539807Y0003059519D02*
X0001540036Y0003059484D01*
X0001540261Y0003059428D01*
X0001540477Y0003059351D01*
X0001540689Y0003059251D01*
X0001540888Y0003059132D01*
X0001541074Y0003058994D01*
X0001541246Y0003058838D01*
X0001541401Y0003058667D01*
X0001541538Y0003058481D01*
X0001541659Y0003058282D01*
X0001541758Y0003058071D01*
X0001541836Y0003057854D01*
X0001541892Y0003057629D01*
X0001541924Y0003057400D01*
X0001541938Y0003057168D01*
X0001541938Y0003038271D01*
X0001541924Y0003038039D01*
X0001541892Y0003037810D01*
X0001541836Y0003037585D01*
X0001541758Y0003037367D01*
X0001541659Y0003037157D01*
X0001541538Y0003036958D01*
X0001541401Y0003036771D01*
X0001541246Y0003036600D01*
X0001541074Y0003036445D01*
X0001540888Y0003036306D01*
X0001540689Y0003036186D01*
X0001540477Y0003036088D01*
X0001540261Y0003036010D01*
X0001540036Y0003035954D01*
X0001539807Y0003035920D01*
X0001539575Y0003035908D01*
X0001457686Y0003035908D01*
X0001457454Y0003035920D01*
X0001457225Y0003035954D01*
X0001457000Y0003036010D01*
X0001456782Y0003036088D01*
X0001456572Y0003036186D01*
X0001456373Y0003036306D01*
X0001456187Y0003036445D01*
X0001456015Y0003036600D01*
X0001455860Y0003036771D01*
X0001455722Y0003036958D01*
X0001455601Y0003037157D01*
X0001455503Y0003037367D01*
X0001455425Y0003037585D01*
X0001455368Y0003037810D01*
X0001455335Y0003038039D01*
X0001455323Y0003038271D01*
X0001455323Y0003057168D01*
X0001455335Y0003057400D01*
X0001455368Y0003057629D01*
X0001455425Y0003057854D01*
X0001455503Y0003058071D01*
X0001455601Y0003058282D01*
X0001455722Y0003058481D01*
X0001455860Y0003058667D01*
X0001456015Y0003058838D01*
X0001456187Y0003058994D01*
X0001456373Y0003059132D01*
X0001456572Y0003059251D01*
X0001456782Y0003059351D01*
X0001457000Y0003059428D01*
X0001457225Y0003059484D01*
X0001457454Y0003059519D01*
X0001457686Y0003059530D01*
X0001539575Y0003059530D01*
X0001539807Y0003059519D01*
X0001539807Y0003059519D01*
G37*
G36*
X0001215629Y0003355095D02*
X0001216088Y0003355027D01*
X0001216537Y0003354914D01*
X0001216974Y0003354758D01*
X0001217393Y0003354560D01*
X0001217791Y0003354320D01*
X0001218163Y0003354044D01*
X0001218507Y0003353734D01*
X0001218818Y0003353390D01*
X0001219094Y0003353018D01*
X0001219332Y0003352619D01*
X0001219531Y0003352201D01*
X0001219687Y0003351765D01*
X0001219800Y0003351315D01*
X0001219868Y0003350856D01*
X0001219890Y0003350393D01*
X0001219890Y0003273228D01*
X0001219868Y0003272765D01*
X0001219800Y0003272306D01*
X0001219687Y0003271855D01*
X0001219531Y0003271420D01*
X0001219332Y0003271001D01*
X0001219094Y0003270603D01*
X0001218818Y0003270231D01*
X0001218507Y0003269887D01*
X0001218163Y0003269576D01*
X0001217791Y0003269300D01*
X0001217393Y0003269061D01*
X0001216974Y0003268863D01*
X0001216537Y0003268707D01*
X0001216088Y0003268594D01*
X0001215629Y0003268526D01*
X0001215166Y0003268502D01*
X0001177371Y0003268502D01*
X0001176908Y0003268526D01*
X0001176449Y0003268594D01*
X0001175999Y0003268707D01*
X0001175563Y0003268863D01*
X0001175144Y0003269061D01*
X0001174746Y0003269300D01*
X0001174374Y0003269576D01*
X0001174030Y0003269887D01*
X0001173719Y0003270231D01*
X0001173442Y0003270603D01*
X0001173204Y0003271001D01*
X0001173006Y0003271420D01*
X0001172850Y0003271855D01*
X0001172737Y0003272306D01*
X0001172669Y0003272765D01*
X0001172646Y0003273228D01*
X0001172646Y0003350393D01*
X0001172669Y0003350856D01*
X0001172737Y0003351315D01*
X0001172850Y0003351765D01*
X0001173006Y0003352201D01*
X0001173204Y0003352619D01*
X0001173442Y0003353018D01*
X0001173719Y0003353390D01*
X0001174030Y0003353734D01*
X0001174374Y0003354044D01*
X0001174746Y0003354320D01*
X0001175144Y0003354560D01*
X0001175563Y0003354758D01*
X0001175999Y0003354914D01*
X0001176449Y0003355027D01*
X0001176908Y0003355095D01*
X0001177371Y0003355118D01*
X0001215166Y0003355118D01*
X0001215629Y0003355095D01*
X0001215629Y0003355095D01*
G37*
G36*
X0001804212Y0003355292D02*
X0001804670Y0003355224D01*
X0001805120Y0003355111D01*
X0001805557Y0003354955D01*
X0001805975Y0003354757D01*
X0001806373Y0003354518D01*
X0001806746Y0003354242D01*
X0001807089Y0003353931D01*
X0001807401Y0003353587D01*
X0001807677Y0003353215D01*
X0001807915Y0003352817D01*
X0001808113Y0003352398D01*
X0001808269Y0003351961D01*
X0001808382Y0003351512D01*
X0001808449Y0003351053D01*
X0001808473Y0003350590D01*
X0001808473Y0003273425D01*
X0001808449Y0003272962D01*
X0001808382Y0003272503D01*
X0001808269Y0003272053D01*
X0001808113Y0003271617D01*
X0001807915Y0003271198D01*
X0001807677Y0003270800D01*
X0001807401Y0003270428D01*
X0001807089Y0003270084D01*
X0001806746Y0003269773D01*
X0001806373Y0003269496D01*
X0001805975Y0003269258D01*
X0001805557Y0003269059D01*
X0001805120Y0003268904D01*
X0001804670Y0003268791D01*
X0001804212Y0003268723D01*
X0001803749Y0003268700D01*
X0001765953Y0003268700D01*
X0001765490Y0003268723D01*
X0001765032Y0003268791D01*
X0001764582Y0003268904D01*
X0001764145Y0003269059D01*
X0001763726Y0003269258D01*
X0001763327Y0003269496D01*
X0001762956Y0003269773D01*
X0001762613Y0003270084D01*
X0001762301Y0003270428D01*
X0001762025Y0003270800D01*
X0001761787Y0003271198D01*
X0001761589Y0003271617D01*
X0001761432Y0003272053D01*
X0001761320Y0003272503D01*
X0001761252Y0003272962D01*
X0001761229Y0003273425D01*
X0001761229Y0003350590D01*
X0001761252Y0003351053D01*
X0001761320Y0003351512D01*
X0001761432Y0003351961D01*
X0001761589Y0003352398D01*
X0001761787Y0003352817D01*
X0001762025Y0003353215D01*
X0001762301Y0003353587D01*
X0001762613Y0003353931D01*
X0001762956Y0003354242D01*
X0001763327Y0003354518D01*
X0001763726Y0003354757D01*
X0001764145Y0003354955D01*
X0001764582Y0003355111D01*
X0001765032Y0003355224D01*
X0001765490Y0003355292D01*
X0001765953Y0003355314D01*
X0001803749Y0003355314D01*
X0001804212Y0003355292D01*
X0001804212Y0003355292D01*
G37*
D16*
G36*
X0002788375Y0004291461D02*
X0002778306Y0004216809D01*
X0000188532Y0004216025D01*
X0000189578Y0004293421D01*
X0002788375Y0004291461D01*
X0002788375Y0004291461D01*
G37*
X0002788375Y0004291461D02*
X0002778306Y0004216809D01*
X0000188532Y0004216025D01*
X0000189578Y0004293421D01*
X0002788375Y0004291461D01*
G36*
X0002760725Y0002912481D02*
X0000233323Y0002913266D01*
X0000232975Y0002988702D01*
X0002760376Y0002989486D01*
X0002760725Y0002912481D01*
X0002760725Y0002912481D01*
G37*
X0002760725Y0002912481D02*
X0000233323Y0002913266D01*
X0000232975Y0002988702D01*
X0002760376Y0002989486D01*
X0002760725Y0002912481D01*
G36*
X0002993820Y0003908755D02*
X0002984507Y0003896338D01*
X0002957086Y0003896338D01*
X0002955173Y0003895957D01*
X0002953551Y0003894874D01*
X0002952467Y0003893252D01*
X0002952086Y0003891348D01*
X0002950905Y0003316545D01*
X0002951282Y0003314631D01*
X0002952362Y0003313007D01*
X0002953982Y0003311919D01*
X0002955905Y0003311535D01*
X0002984936Y0003311535D01*
X0002993818Y0003302653D01*
X0002993818Y0002912086D01*
X0002757339Y0002912086D01*
X0002756968Y0002993714D01*
X0002756968Y0003078648D01*
X0002759935Y0003082603D01*
X0002762108Y0003083606D01*
X0002766277Y0003082216D01*
X0002789628Y0003060325D01*
X0002792804Y0003048326D01*
X0002794214Y0003045962D01*
X0002807206Y0003033757D01*
X0002808732Y0003032775D01*
X0002824086Y0003026476D01*
X0002825984Y0003026102D01*
X0002840944Y0003026102D01*
X0002843439Y0003026769D01*
X0002856431Y0003034249D01*
X0002857249Y0003034836D01*
X0002867486Y0003043892D01*
X0002868791Y0003045722D01*
X0002875484Y0003061864D01*
X0002875863Y0003063926D01*
X0002875470Y0003077312D01*
X0002875124Y0003078997D01*
X0002870006Y0003091990D01*
X0002869017Y0003093559D01*
X0002858782Y0003104583D01*
X0002857116Y0003105764D01*
X0002842610Y0003112087D01*
X0002820257Y0003134073D01*
X0002818685Y0003140363D01*
X0002820678Y0003144351D01*
X0002826456Y0003147377D01*
X0002888251Y0003148150D01*
X0002890160Y0003148554D01*
X0002891768Y0003149658D01*
X0002892831Y0003151294D01*
X0002893188Y0003153149D01*
X0002893188Y0003227952D01*
X0002892808Y0003229866D01*
X0002891723Y0003231487D01*
X0002890102Y0003232572D01*
X0002888249Y0003232952D01*
X0002796341Y0003234072D01*
X0002796729Y0003971459D01*
X0002887090Y0003972953D01*
X0002888997Y0003973365D01*
X0002890601Y0003974476D01*
X0002891658Y0003976115D01*
X0002892006Y0003977926D01*
X0002892401Y0004053517D01*
X0002892030Y0004055430D01*
X0002890955Y0004057060D01*
X0002889339Y0004058150D01*
X0002887430Y0004058543D01*
X0002822448Y0004058925D01*
X0002818922Y0004062198D01*
X0002817129Y0004065337D01*
X0002817932Y0004068751D01*
X0002840191Y0004091375D01*
X0002851755Y0004095712D01*
X0002853441Y0004096765D01*
X0002868795Y0004111333D01*
X0002870107Y0004113410D01*
X0002876013Y0004131520D01*
X0002876094Y0004134347D01*
X0002870582Y0004155213D01*
X0002869330Y0004157425D01*
X0002854763Y0004172385D01*
X0002853155Y0004173491D01*
X0002852045Y0004173822D01*
X0002829604Y0004177759D01*
X0002827527Y0004177685D01*
X0002813354Y0004174142D01*
X0002811366Y0004173132D01*
X0002797192Y0004161321D01*
X0002795788Y0004159428D01*
X0002787581Y0004140028D01*
X0002765868Y0004121260D01*
X0002763927Y0004120483D01*
X0002760869Y0004120891D01*
X0002758631Y0004122925D01*
X0002756570Y0004128814D01*
X0002756181Y0004210539D01*
X0002759520Y0004291781D01*
X0002810165Y0004291063D01*
X0002810267Y0004291063D01*
X0002994207Y0004292212D01*
X0002993820Y0003908755D01*
X0002993820Y0003908755D01*
G37*
X0002993820Y0003908755D02*
X0002984507Y0003896338D01*
X0002957086Y0003896338D01*
X0002955173Y0003895957D01*
X0002953551Y0003894874D01*
X0002952467Y0003893252D01*
X0002952086Y0003891348D01*
X0002950905Y0003316545D01*
X0002951282Y0003314631D01*
X0002952362Y0003313007D01*
X0002953982Y0003311919D01*
X0002955905Y0003311535D01*
X0002984936Y0003311535D01*
X0002993818Y0003302653D01*
X0002993818Y0002912086D01*
X0002757339Y0002912086D01*
X0002756968Y0002993714D01*
X0002756968Y0003078648D01*
X0002759935Y0003082603D01*
X0002762108Y0003083606D01*
X0002766277Y0003082216D01*
X0002789628Y0003060325D01*
X0002792804Y0003048326D01*
X0002794214Y0003045962D01*
X0002807206Y0003033757D01*
X0002808732Y0003032775D01*
X0002824086Y0003026476D01*
X0002825984Y0003026102D01*
X0002840944Y0003026102D01*
X0002843439Y0003026769D01*
X0002856431Y0003034249D01*
X0002857249Y0003034836D01*
X0002867486Y0003043892D01*
X0002868791Y0003045722D01*
X0002875484Y0003061864D01*
X0002875863Y0003063926D01*
X0002875470Y0003077312D01*
X0002875124Y0003078997D01*
X0002870006Y0003091990D01*
X0002869017Y0003093559D01*
X0002858782Y0003104583D01*
X0002857116Y0003105764D01*
X0002842610Y0003112087D01*
X0002820257Y0003134073D01*
X0002818685Y0003140363D01*
X0002820678Y0003144351D01*
X0002826456Y0003147377D01*
X0002888251Y0003148150D01*
X0002890160Y0003148554D01*
X0002891768Y0003149658D01*
X0002892831Y0003151294D01*
X0002893188Y0003153149D01*
X0002893188Y0003227952D01*
X0002892808Y0003229866D01*
X0002891723Y0003231487D01*
X0002890102Y0003232572D01*
X0002888249Y0003232952D01*
X0002796341Y0003234072D01*
X0002796729Y0003971459D01*
X0002887090Y0003972953D01*
X0002888997Y0003973365D01*
X0002890601Y0003974476D01*
X0002891658Y0003976115D01*
X0002892006Y0003977926D01*
X0002892401Y0004053517D01*
X0002892030Y0004055430D01*
X0002890955Y0004057060D01*
X0002889339Y0004058150D01*
X0002887430Y0004058543D01*
X0002822448Y0004058925D01*
X0002818922Y0004062198D01*
X0002817129Y0004065337D01*
X0002817932Y0004068751D01*
X0002840191Y0004091375D01*
X0002851755Y0004095712D01*
X0002853441Y0004096765D01*
X0002868795Y0004111333D01*
X0002870107Y0004113410D01*
X0002876013Y0004131520D01*
X0002876094Y0004134347D01*
X0002870582Y0004155213D01*
X0002869330Y0004157425D01*
X0002854763Y0004172385D01*
X0002853155Y0004173491D01*
X0002852045Y0004173822D01*
X0002829604Y0004177759D01*
X0002827527Y0004177685D01*
X0002813354Y0004174142D01*
X0002811366Y0004173132D01*
X0002797192Y0004161321D01*
X0002795788Y0004159428D01*
X0002787581Y0004140028D01*
X0002765868Y0004121260D01*
X0002763927Y0004120483D01*
X0002760869Y0004120891D01*
X0002758631Y0004122925D01*
X0002756570Y0004128814D01*
X0002756181Y0004210539D01*
X0002759520Y0004291781D01*
X0002810165Y0004291063D01*
X0002810267Y0004291063D01*
X0002994207Y0004292212D01*
X0002993820Y0003908755D01*
G36*
X0000230826Y0004212978D02*
X0000230826Y0004128044D01*
X0000227860Y0004124088D01*
X0000225686Y0004123086D01*
X0000221518Y0004124475D01*
X0000198167Y0004146366D01*
X0000194990Y0004158366D01*
X0000193580Y0004160730D01*
X0000180588Y0004172935D01*
X0000179063Y0004173917D01*
X0000163708Y0004180214D01*
X0000161811Y0004180589D01*
X0000146850Y0004180589D01*
X0000144355Y0004179922D01*
X0000131363Y0004172443D01*
X0000130545Y0004171855D01*
X0000120309Y0004162800D01*
X0000119003Y0004160970D01*
X0000112309Y0004144828D01*
X0000111931Y0004142766D01*
X0000112325Y0004129380D01*
X0000112670Y0004127694D01*
X0000117788Y0004114702D01*
X0000118776Y0004113133D01*
X0000129011Y0004102108D01*
X0000130677Y0004100927D01*
X0000145185Y0004094604D01*
X0000167537Y0004072618D01*
X0000169110Y0004066328D01*
X0000167115Y0004062341D01*
X0000161338Y0004059315D01*
X0000099543Y0004058542D01*
X0000097635Y0004058137D01*
X0000096026Y0004057034D01*
X0000094963Y0004055398D01*
X0000094606Y0004053543D01*
X0000094606Y0003978740D01*
X0000094986Y0003976826D01*
X0000096070Y0003975204D01*
X0000097692Y0003974120D01*
X0000099545Y0003973740D01*
X0000191454Y0003972619D01*
X0000191065Y0003235233D01*
X0000100704Y0003233739D01*
X0000098797Y0003233327D01*
X0000097193Y0003232216D01*
X0000096137Y0003230576D01*
X0000095787Y0003228766D01*
X0000095393Y0003153175D01*
X0000095764Y0003151260D01*
X0000096839Y0003149632D01*
X0000098456Y0003148540D01*
X0000100364Y0003148149D01*
X0000165345Y0003147767D01*
X0000168872Y0003144493D01*
X0000170666Y0003141354D01*
X0000169863Y0003137941D01*
X0000147604Y0003115317D01*
X0000136039Y0003110980D01*
X0000134353Y0003109926D01*
X0000118999Y0003095359D01*
X0000117686Y0003093282D01*
X0000111781Y0003075171D01*
X0000111701Y0003072345D01*
X0000117212Y0003051478D01*
X0000118464Y0003049267D01*
X0000133031Y0003034307D01*
X0000134639Y0003033201D01*
X0000135750Y0003032870D01*
X0000158191Y0003028933D01*
X0000160267Y0003029007D01*
X0000174441Y0003032550D01*
X0000176428Y0003033560D01*
X0000190602Y0003045371D01*
X0000192006Y0003047264D01*
X0000200213Y0003066664D01*
X0000221926Y0003085432D01*
X0000223867Y0003086209D01*
X0000226925Y0003085801D01*
X0000229163Y0003083766D01*
X0000231224Y0003077878D01*
X0000231613Y0002996153D01*
X0000228271Y0002914818D01*
X0000155501Y0002914448D01*
X-0000006412Y0002914448D01*
X-0000006025Y0003297937D01*
X0000003286Y0003310354D01*
X0000030708Y0003310354D01*
X0000032622Y0003310734D01*
X0000034244Y0003311818D01*
X0000035328Y0003313440D01*
X0000035708Y0003315344D01*
X0000036889Y0003890147D01*
X0000036513Y0003892061D01*
X0000035432Y0003893685D01*
X0000033812Y0003894772D01*
X0000031889Y0003895157D01*
X0000002858Y0003895157D01*
X-0000006023Y0003904039D01*
X-0000006023Y0004294606D01*
X0000230455Y0004294606D01*
X0000230826Y0004212978D01*
X0000230826Y0004212978D01*
G37*
X0000230826Y0004212978D02*
X0000230826Y0004128044D01*
X0000227860Y0004124088D01*
X0000225686Y0004123086D01*
X0000221518Y0004124475D01*
X0000198167Y0004146366D01*
X0000194990Y0004158366D01*
X0000193580Y0004160730D01*
X0000180588Y0004172935D01*
X0000179063Y0004173917D01*
X0000163708Y0004180214D01*
X0000161811Y0004180589D01*
X0000146850Y0004180589D01*
X0000144355Y0004179922D01*
X0000131363Y0004172443D01*
X0000130545Y0004171855D01*
X0000120309Y0004162800D01*
X0000119003Y0004160970D01*
X0000112309Y0004144828D01*
X0000111931Y0004142766D01*
X0000112325Y0004129380D01*
X0000112670Y0004127694D01*
X0000117788Y0004114702D01*
X0000118776Y0004113133D01*
X0000129011Y0004102108D01*
X0000130677Y0004100927D01*
X0000145185Y0004094604D01*
X0000167537Y0004072618D01*
X0000169110Y0004066328D01*
X0000167115Y0004062341D01*
X0000161338Y0004059315D01*
X0000099543Y0004058542D01*
X0000097635Y0004058137D01*
X0000096026Y0004057034D01*
X0000094963Y0004055398D01*
X0000094606Y0004053543D01*
X0000094606Y0003978740D01*
X0000094986Y0003976826D01*
X0000096070Y0003975204D01*
X0000097692Y0003974120D01*
X0000099545Y0003973740D01*
X0000191454Y0003972619D01*
X0000191065Y0003235233D01*
X0000100704Y0003233739D01*
X0000098797Y0003233327D01*
X0000097193Y0003232216D01*
X0000096137Y0003230576D01*
X0000095787Y0003228766D01*
X0000095393Y0003153175D01*
X0000095764Y0003151260D01*
X0000096839Y0003149632D01*
X0000098456Y0003148540D01*
X0000100364Y0003148149D01*
X0000165345Y0003147767D01*
X0000168872Y0003144493D01*
X0000170666Y0003141354D01*
X0000169863Y0003137941D01*
X0000147604Y0003115317D01*
X0000136039Y0003110980D01*
X0000134353Y0003109926D01*
X0000118999Y0003095359D01*
X0000117686Y0003093282D01*
X0000111781Y0003075171D01*
X0000111701Y0003072345D01*
X0000117212Y0003051478D01*
X0000118464Y0003049267D01*
X0000133031Y0003034307D01*
X0000134639Y0003033201D01*
X0000135750Y0003032870D01*
X0000158191Y0003028933D01*
X0000160267Y0003029007D01*
X0000174441Y0003032550D01*
X0000176428Y0003033560D01*
X0000190602Y0003045371D01*
X0000192006Y0003047264D01*
X0000200213Y0003066664D01*
X0000221926Y0003085432D01*
X0000223867Y0003086209D01*
X0000226925Y0003085801D01*
X0000229163Y0003083766D01*
X0000231224Y0003077878D01*
X0000231613Y0002996153D01*
X0000228271Y0002914818D01*
X0000155501Y0002914448D01*
X-0000006412Y0002914448D01*
X-0000006025Y0003297937D01*
X0000003286Y0003310354D01*
X0000030708Y0003310354D01*
X0000032622Y0003310734D01*
X0000034244Y0003311818D01*
X0000035328Y0003313440D01*
X0000035708Y0003315344D01*
X0000036889Y0003890147D01*
X0000036513Y0003892061D01*
X0000035432Y0003893685D01*
X0000033812Y0003894772D01*
X0000031889Y0003895157D01*
X0000002858Y0003895157D01*
X-0000006023Y0003904039D01*
X-0000006023Y0004294606D01*
X0000230455Y0004294606D01*
X0000230826Y0004212978D01*
G01G01G01G01G01G01G01G01*
D27*
D28*
X0003070866Y0004291338D02*
X0003435433Y0004146454D03*
D29*
G36*
X0003153907Y0004007124D02*
X0003078867Y0004007124D01*
X0003078107Y0004282951D01*
X0003153147Y0004282951D01*
X0003153907Y0004007124D01*
X0003153907Y0004007124D01*
G37*
X0003153907Y0004007124D02*
X0003078867Y0004007124D01*
X0003078107Y0004282951D01*
X0003153147Y0004282951D01*
X0003153907Y0004007124D01*
G01G01G01G01G01G01G01G01*
D40*
D41*
X0003070866Y0003937007D02*
X0003435433Y0003792125D03*
D42*
G36*
X0003153907Y0003652793D02*
X0003078867Y0003652793D01*
X0003078107Y0003928620D01*
X0003153147Y0003928620D01*
X0003153907Y0003652793D01*
X0003153907Y0003652793D01*
G37*
X0003153907Y0003652793D02*
X0003078867Y0003652793D01*
X0003078107Y0003928620D01*
X0003153147Y0003928620D01*
X0003153907Y0003652793D01*
G01G01G01G01G01G01G01G01*
D53*
D54*
X0003070866Y0003582677D02*
X0003435433Y0003437795D03*
D55*
G36*
X0003153907Y0003298463D02*
X0003078867Y0003298463D01*
X0003078107Y0003574290D01*
X0003153147Y0003574290D01*
X0003153907Y0003298463D01*
X0003153907Y0003298463D01*
G37*
X0003153907Y0003298463D02*
X0003078867Y0003298463D01*
X0003078107Y0003574290D01*
X0003153147Y0003574290D01*
X0003153907Y0003298463D01*
G04 next file*
G01G01G01G01G01G01G01G01*
D66*
D67*
X0003070866Y0003228346D02*
X0003435433Y0003083464D03*
D68*
G36*
X0003153907Y0002944131D02*
X0003078867Y0002944131D01*
X0003078107Y0003219959D01*
X0003153147Y0003219959D01*
X0003153907Y0002944131D01*
X0003153907Y0002944131D01*
G37*
X0003153907Y0002944131D02*
X0003078867Y0002944131D01*
X0003078107Y0003219959D01*
X0003153147Y0003219959D01*
X0003153907Y0002944131D01*
G01G01G01G01G01G01G01G01*
D79*
G36*
X0003081912Y0001508337D02*
X0003081980Y0001508795D01*
X0003082092Y0001509244D01*
X0003082249Y0001509681D01*
X0003082447Y0001510101D01*
X0003082684Y0001510498D01*
X0003082962Y0001510871D01*
X0003083273Y0001511214D01*
X0003083617Y0001511524D01*
X0003083989Y0001511802D01*
X0003084387Y0001512040D01*
X0003084806Y0001512238D01*
X0003085241Y0001512395D01*
X0003085692Y0001512507D01*
X0003086151Y0001512575D01*
X0003086614Y0001512598D01*
X0003124409Y0001512598D01*
X0003124872Y0001512575D01*
X0003125331Y0001512507D01*
X0003125780Y0001512395D01*
X0003126217Y0001512238D01*
X0003126636Y0001512040D01*
X0003127034Y0001511802D01*
X0003127406Y0001511524D01*
X0003127750Y0001511214D01*
X0003128061Y0001510871D01*
X0003128337Y0001510498D01*
X0003128576Y0001510101D01*
X0003128774Y0001509681D01*
X0003128929Y0001509244D01*
X0003129043Y0001508795D01*
X0003129111Y0001508337D01*
X0003129133Y0001507874D01*
X0003129133Y0001470078D01*
X0003129111Y0001469614D01*
X0003129043Y0001469157D01*
X0003128929Y0001468707D01*
X0003128774Y0001468270D01*
X0003128576Y0001467851D01*
X0003128337Y0001467454D01*
X0003128061Y0001467081D01*
X0003127750Y0001466738D01*
X0003127406Y0001466426D01*
X0003127034Y0001466150D01*
X0003126636Y0001465912D01*
X0003126217Y0001465713D01*
X0003125780Y0001465555D01*
X0003125331Y0001465445D01*
X0003124872Y0001465377D01*
X0003124409Y0001465354D01*
X0003086614Y0001465354D01*
X0003086151Y0001465377D01*
X0003085692Y0001465445D01*
X0003085241Y0001465555D01*
X0003084806Y0001465713D01*
X0003084387Y0001465912D01*
X0003083989Y0001466150D01*
X0003083617Y0001466426D01*
X0003083273Y0001466738D01*
X0003082962Y0001467081D01*
X0003082684Y0001467454D01*
X0003082447Y0001467851D01*
X0003082249Y0001468270D01*
X0003082092Y0001468707D01*
X0003081980Y0001469157D01*
X0003081912Y0001469614D01*
X0003081889Y0001470078D01*
X0003081889Y0001507874D01*
X0003081912Y0001508337D01*
X0003081912Y0001508337D01*
G37*
G36*
X0003082699Y0001938258D02*
X0003082767Y0001938716D01*
X0003082880Y0001939166D01*
X0003083036Y0001939603D01*
X0003083235Y0001940022D01*
X0003083473Y0001940420D01*
X0003083749Y0001940792D01*
X0003084060Y0001941135D01*
X0003084404Y0001941447D01*
X0003084776Y0001941723D01*
X0003085173Y0001941961D01*
X0003085593Y0001942160D01*
X0003086030Y0001942316D01*
X0003086479Y0001942427D01*
X0003086938Y0001942496D01*
X0003087401Y0001942519D01*
X0003125196Y0001942519D01*
X0003125659Y0001942496D01*
X0003126118Y0001942427D01*
X0003126568Y0001942316D01*
X0003127004Y0001942160D01*
X0003127423Y0001941961D01*
X0003127820Y0001941723D01*
X0003128192Y0001941447D01*
X0003128536Y0001941135D01*
X0003128848Y0001940792D01*
X0003129125Y0001940420D01*
X0003129362Y0001940022D01*
X0003129561Y0001939603D01*
X0003129717Y0001939166D01*
X0003129830Y0001938716D01*
X0003129898Y0001938258D01*
X0003129921Y0001937795D01*
X0003129921Y0001900000D01*
X0003129898Y0001899536D01*
X0003129830Y0001899078D01*
X0003129717Y0001898628D01*
X0003129561Y0001898192D01*
X0003129362Y0001897772D01*
X0003129125Y0001897375D01*
X0003128848Y0001897002D01*
X0003128536Y0001896658D01*
X0003128192Y0001896347D01*
X0003127820Y0001896071D01*
X0003127423Y0001895833D01*
X0003127004Y0001895635D01*
X0003126568Y0001895479D01*
X0003126118Y0001895366D01*
X0003125659Y0001895298D01*
X0003125196Y0001895275D01*
X0003087401Y0001895275D01*
X0003086938Y0001895298D01*
X0003086479Y0001895366D01*
X0003086030Y0001895479D01*
X0003085593Y0001895635D01*
X0003085173Y0001895833D01*
X0003084776Y0001896071D01*
X0003084404Y0001896347D01*
X0003084060Y0001896658D01*
X0003083749Y0001897002D01*
X0003083473Y0001897375D01*
X0003083235Y0001897772D01*
X0003083036Y0001898192D01*
X0003082880Y0001898628D01*
X0003082767Y0001899078D01*
X0003082699Y0001899536D01*
X0003082677Y0001900000D01*
X0003082677Y0001937795D01*
X0003082699Y0001938258D01*
X0003082699Y0001938258D01*
G37*
G36*
X0003232298Y0001746765D02*
X0003232343Y0001747070D01*
X0003232419Y0001747370D01*
X0003232523Y0001747662D01*
X0003232655Y0001747941D01*
X0003232814Y0001748206D01*
X0003232998Y0001748454D01*
X0003233204Y0001748682D01*
X0003233435Y0001748891D01*
X0003233683Y0001749075D01*
X0003233948Y0001749233D01*
X0003234227Y0001749366D01*
X0003234518Y0001749470D01*
X0003234818Y0001749545D01*
X0003235124Y0001749591D01*
X0003235433Y0001749605D01*
X0003260629Y0001749605D01*
X0003260938Y0001749591D01*
X0003261244Y0001749545D01*
X0003261544Y0001749470D01*
X0003261835Y0001749366D01*
X0003262114Y0001749233D01*
X0003262379Y0001749075D01*
X0003262627Y0001748891D01*
X0003262857Y0001748682D01*
X0003263064Y0001748454D01*
X0003263248Y0001748206D01*
X0003263407Y0001747941D01*
X0003263539Y0001747662D01*
X0003263643Y0001747370D01*
X0003263719Y0001747070D01*
X0003263764Y0001746765D01*
X0003263779Y0001746456D01*
X0003263779Y0001666141D01*
X0003263764Y0001665832D01*
X0003263718Y0001665527D01*
X0003263643Y0001665227D01*
X0003263539Y0001664936D01*
X0003263407Y0001664657D01*
X0003263248Y0001664391D01*
X0003263064Y0001664143D01*
X0003262857Y0001663914D01*
X0003262627Y0001663707D01*
X0003262379Y0001663522D01*
X0003262114Y0001663364D01*
X0003261835Y0001663231D01*
X0003261544Y0001663127D01*
X0003261244Y0001663052D01*
X0003260938Y0001663007D01*
X0003260629Y0001662992D01*
X0003235433Y0001662992D01*
X0003235124Y0001663007D01*
X0003234818Y0001663052D01*
X0003234518Y0001663127D01*
X0003234227Y0001663231D01*
X0003233948Y0001663364D01*
X0003233683Y0001663522D01*
X0003233435Y0001663707D01*
X0003233204Y0001663914D01*
X0003232998Y0001664143D01*
X0003232814Y0001664391D01*
X0003232655Y0001664657D01*
X0003232523Y0001664936D01*
X0003232419Y0001665227D01*
X0003232343Y0001665527D01*
X0003232298Y0001665832D01*
X0003232282Y0001666141D01*
X0003232282Y0001746456D01*
X0003232298Y0001746765D01*
X0003232298Y0001746765D01*
G37*
G04 next file*
G01G01G01G01G01G01G01G01*
D90*
G36*
X0003107109Y0002289636D02*
X0003107177Y0002290094D01*
X0003107290Y0002290544D01*
X0003107446Y0002290981D01*
X0003107644Y0002291400D01*
X0003107882Y0002291797D01*
X0003108158Y0002292170D01*
X0003108469Y0002292513D01*
X0003108813Y0002292825D01*
X0003109186Y0002293101D01*
X0003109583Y0002293339D01*
X0003110003Y0002293538D01*
X0003110439Y0002293694D01*
X0003110888Y0002293806D01*
X0003111347Y0002293874D01*
X0003111811Y0002293897D01*
X0003188976Y0002293897D01*
X0003189439Y0002293874D01*
X0003189898Y0002293806D01*
X0003190347Y0002293694D01*
X0003190784Y0002293538D01*
X0003191203Y0002293339D01*
X0003191601Y0002293101D01*
X0003191973Y0002292825D01*
X0003192317Y0002292513D01*
X0003192628Y0002292170D01*
X0003192904Y0002291797D01*
X0003193142Y0002291400D01*
X0003193341Y0002290981D01*
X0003193497Y0002290544D01*
X0003193610Y0002290094D01*
X0003193678Y0002289636D01*
X0003193700Y0002289173D01*
X0003193700Y0002251377D01*
X0003193678Y0002250914D01*
X0003193610Y0002250456D01*
X0003193497Y0002250006D01*
X0003193341Y0002249570D01*
X0003193142Y0002249150D01*
X0003192904Y0002248753D01*
X0003192628Y0002248380D01*
X0003192317Y0002248037D01*
X0003191973Y0002247725D01*
X0003191601Y0002247449D01*
X0003191203Y0002247211D01*
X0003190784Y0002247013D01*
X0003190347Y0002246856D01*
X0003189898Y0002246744D01*
X0003189439Y0002246676D01*
X0003188976Y0002246653D01*
X0003111811Y0002246653D01*
X0003111347Y0002246676D01*
X0003110888Y0002246744D01*
X0003110439Y0002246856D01*
X0003110003Y0002247013D01*
X0003109583Y0002247211D01*
X0003109186Y0002247449D01*
X0003108813Y0002247725D01*
X0003108469Y0002248037D01*
X0003108158Y0002248380D01*
X0003107882Y0002248753D01*
X0003107644Y0002249150D01*
X0003107446Y0002249570D01*
X0003107290Y0002250006D01*
X0003107177Y0002250456D01*
X0003107109Y0002250914D01*
X0003107086Y0002251377D01*
X0003107086Y0002289173D01*
X0003107109Y0002289636D01*
X0003107109Y0002289636D01*
G37*
G36*
X0003110652Y0002793573D02*
X0003110720Y0002794031D01*
X0003110832Y0002794481D01*
X0003110989Y0002794918D01*
X0003111187Y0002795337D01*
X0003111426Y0002795734D01*
X0003111702Y0002796107D01*
X0003112013Y0002796450D01*
X0003112357Y0002796762D01*
X0003112729Y0002797038D01*
X0003113127Y0002797276D01*
X0003113546Y0002797475D01*
X0003113982Y0002797630D01*
X0003114432Y0002797743D01*
X0003114891Y0002797810D01*
X0003115354Y0002797834D01*
X0003192519Y0002797834D01*
X0003192982Y0002797810D01*
X0003193441Y0002797743D01*
X0003193891Y0002797630D01*
X0003194327Y0002797475D01*
X0003194745Y0002797276D01*
X0003195143Y0002797038D01*
X0003195515Y0002796762D01*
X0003195859Y0002796450D01*
X0003196171Y0002796107D01*
X0003196447Y0002795734D01*
X0003196685Y0002795337D01*
X0003196884Y0002794918D01*
X0003197040Y0002794481D01*
X0003197153Y0002794031D01*
X0003197221Y0002793573D01*
X0003197244Y0002793110D01*
X0003197244Y0002755314D01*
X0003197221Y0002754851D01*
X0003197153Y0002754393D01*
X0003197040Y0002753942D01*
X0003196884Y0002753507D01*
X0003196685Y0002753087D01*
X0003196447Y0002752690D01*
X0003196171Y0002752317D01*
X0003195859Y0002751974D01*
X0003195515Y0002751661D01*
X0003195143Y0002751385D01*
X0003194745Y0002751148D01*
X0003194327Y0002750950D01*
X0003193891Y0002750793D01*
X0003193441Y0002750681D01*
X0003192982Y0002750613D01*
X0003192519Y0002750590D01*
X0003115354Y0002750590D01*
X0003114891Y0002750613D01*
X0003114432Y0002750681D01*
X0003113982Y0002750793D01*
X0003113546Y0002750950D01*
X0003113127Y0002751148D01*
X0003112729Y0002751385D01*
X0003112357Y0002751661D01*
X0003112013Y0002751974D01*
X0003111702Y0002752317D01*
X0003111426Y0002752690D01*
X0003111187Y0002753087D01*
X0003110989Y0002753507D01*
X0003110832Y0002753942D01*
X0003110720Y0002754393D01*
X0003110652Y0002754851D01*
X0003110629Y0002755314D01*
X0003110629Y0002793110D01*
X0003110652Y0002793573D01*
X0003110652Y0002793573D01*
G37*
G04 next file*
G01G01G01G01G01G01G01G01G01G01G01G01G01G01G01G01*
D101*
D102*
X0002772909Y0000324784D02*
X0002771409Y0000321784D01*
X0002768410Y0000320284D01*
X0002741413Y0000320284D01*
X0002751912Y0000350281D02*
X0002772909Y0000350281D01*
X0002751912Y0000336782D02*
X0002768410Y0000336782D01*
X0002771409Y0000338282D01*
X0002772909Y0000341282D01*
X0002772909Y0000345781D01*
X0002771409Y0000348781D01*
X0002769910Y0000350281D01*
X0002751912Y0000360779D02*
X0002751912Y0000372778D01*
X0002772909Y0000365279D02*
X0002745912Y0000365279D01*
X0002742913Y0000366779D01*
X0002741413Y0000369778D01*
X0002741413Y0000372778D01*
X0002751912Y0000378776D02*
X0002751912Y0000390776D01*
X0002741413Y0000383276D02*
X0002768410Y0000383276D01*
X0002771409Y0000384776D01*
X0002772909Y0000387776D01*
X0002772909Y0000390776D01*
X0002771409Y0000413273D02*
X0002772909Y0000410273D01*
X0002772909Y0000404274D01*
X0002771409Y0000401274D01*
X0002768410Y0000399775D01*
X0002756411Y0000399775D01*
X0002753411Y0000401274D01*
X0002751912Y0000404274D01*
X0002751912Y0000410273D01*
X0002753411Y0000413273D01*
X0002756411Y0000414773D01*
X0002759411Y0000414773D01*
X0002762410Y0000399775D01*
X0002772909Y0000428271D02*
X0002741413Y0000428271D01*
X0002760911Y0000431271D02*
X0002772909Y0000440270D01*
X0002751912Y0000440270D02*
X0002763909Y0000428271D01*
D101*
X0002742838Y0000466924D02*
X0002741338Y0000468424D01*
X0002739838Y0000471423D01*
X0002739838Y0000478922D01*
X0002741338Y0000481922D01*
X0002742838Y0000483422D01*
X0002745837Y0000484922D01*
X0002748837Y0000484922D01*
X0002753337Y0000483422D01*
X0002771334Y0000465424D01*
X0002771334Y0000484922D01*
X0002739838Y0000504418D02*
X0002739838Y0000507418D01*
X0002741338Y0000510418D01*
X0002742838Y0000511918D01*
X0002745837Y0000513418D01*
X0002751837Y0000514918D01*
X0002759336Y0000514918D01*
X0002765335Y0000513418D01*
X0002768335Y0000511918D01*
X0002769835Y0000510418D01*
X0002771334Y0000507418D01*
X0002771334Y0000504418D01*
X0002769835Y0000501420D01*
X0002768335Y0000499920D01*
X0002765335Y0000498420D01*
X0002759336Y0000496920D01*
X0002751837Y0000496920D01*
X0002745837Y0000498420D01*
X0002742838Y0000499920D01*
X0002741338Y0000501420D01*
X0002739838Y0000504418D01*
X0002771334Y0000544914D02*
X0002771334Y0000526916D01*
X0002771334Y0000535915D02*
X0002739838Y0000535915D01*
X0002744338Y0000532916D01*
X0002747337Y0000529916D01*
X0002748837Y0000526916D01*
X0002739838Y0000571911D02*
X0002739838Y0000565912D01*
X0002741338Y0000562912D01*
X0002742838Y0000561412D01*
X0002747337Y0000558413D01*
X0002753337Y0000556913D01*
X0002765335Y0000556913D01*
X0002768335Y0000558413D01*
X0002769835Y0000559912D01*
X0002771334Y0000562912D01*
X0002771334Y0000568911D01*
X0002769835Y0000571911D01*
X0002768335Y0000573411D01*
X0002765335Y0000574910D01*
X0002757836Y0000574910D01*
X0002754836Y0000573411D01*
X0002753337Y0000571911D01*
X0002751837Y0000568911D01*
X0002751837Y0000562912D01*
X0002753337Y0000559912D01*
X0002754836Y0000558413D01*
X0002757836Y0000556913D01*
X0002739838Y0000594408D02*
X0002739838Y0000597408D01*
X0002741338Y0000600407D01*
X0002742838Y0000601907D01*
X0002745837Y0000603407D01*
X0002751837Y0000604907D01*
X0002759336Y0000604907D01*
X0002765335Y0000603407D01*
X0002768335Y0000601907D01*
X0002769835Y0000600407D01*
X0002771334Y0000597408D01*
X0002771334Y0000594408D01*
X0002769835Y0000591408D01*
X0002768335Y0000589909D01*
X0002765335Y0000588409D01*
X0002759336Y0000586909D01*
X0002751837Y0000586909D01*
X0002745837Y0000588409D01*
X0002742838Y0000589909D01*
X0002741338Y0000591408D01*
X0002739838Y0000594408D01*
X0002771334Y0000619905D02*
X0002771334Y0000625904D01*
X0002769835Y0000628904D01*
X0002768335Y0000630404D01*
X0002763835Y0000633403D01*
X0002757836Y0000634903D01*
X0002745837Y0000634903D01*
X0002742838Y0000633403D01*
X0002741338Y0000631903D01*
X0002739838Y0000628904D01*
X0002739838Y0000622904D01*
X0002741338Y0000619905D01*
X0002742838Y0000618405D01*
X0002745837Y0000616905D01*
X0002753337Y0000616905D01*
X0002756336Y0000618405D01*
X0002757836Y0000619905D01*
X0002759336Y0000622904D01*
X0002759336Y0000628904D01*
X0002757836Y0000631903D01*
X0002756336Y0000633403D01*
X0002753337Y0000634903D01*
X0002742838Y0000646901D02*
X0002741338Y0000648401D01*
X0002739838Y0000651401D01*
X0002739838Y0000658899D01*
X0002741338Y0000661899D01*
X0002742838Y0000663398D01*
X0002745837Y0000664899D01*
X0002748837Y0000664899D01*
X0002753337Y0000663398D01*
X0002771334Y0000645402D01*
X0002771334Y0000664899D01*
X0002750337Y0000691896D02*
X0002771334Y0000691896D01*
X0002738338Y0000684397D02*
X0002760836Y0000676898D01*
X0002760836Y0000696395D01*
D102*
X0002206242Y0000132602D02*
X0002227240Y0000132602D01*
X0002213742Y0000101106D01*
X0002252737Y0000132602D02*
X0002246737Y0000132602D01*
X0002243738Y0000131102D01*
X0002242238Y0000129602D01*
X0002239238Y0000125100D01*
X0002237739Y0000119103D01*
X0002237739Y0000107105D01*
X0002239238Y0000104105D01*
X0002240738Y0000102604D01*
X0002243738Y0000101106D01*
X0002249737Y0000101106D01*
X0002252737Y0000102604D01*
X0002254236Y0000104105D01*
X0002255736Y0000107105D01*
X0002255736Y0000114604D01*
X0002254236Y0000117604D01*
X0002252737Y0000119103D01*
X0002249737Y0000120603D01*
X0002243738Y0000120603D01*
X0002240738Y0000119103D01*
X0002239238Y0000117604D01*
X0002237739Y0000114604D01*
X0002266235Y0000101106D02*
X0002282733Y0000122103D01*
X0002266235Y0000122103D02*
X0002282733Y0000101106D01*
X0002291732Y0000132602D02*
X0002311229Y0000132602D01*
X0002300731Y0000120603D01*
X0002305230Y0000120603D01*
X0002308230Y0000119103D01*
X0002309730Y0000117604D01*
X0002311229Y0000114604D01*
X0002311229Y0000107105D01*
X0002309730Y0000104105D01*
X0002308230Y0000102604D01*
X0002305230Y0000101106D01*
X0002296231Y0000101106D01*
X0002293232Y0000102604D01*
X0002291732Y0000104105D01*
X0002339726Y0000132602D02*
X0002324728Y0000132602D01*
X0002323228Y0000117604D01*
X0002324728Y0000119103D01*
X0002327727Y0000120603D01*
X0002335226Y0000120603D01*
X0002338226Y0000119103D01*
X0002339726Y0000117604D01*
X0002341226Y0000114604D01*
X0002341226Y0000107105D01*
X0002339726Y0000104105D01*
X0002338226Y0000102604D01*
X0002335226Y0000101106D01*
X0002327727Y0000101106D01*
X0002324728Y0000102604D01*
X0002323228Y0000104105D01*
X0002351724Y0000101106D02*
X0002368222Y0000122103D01*
X0002351724Y0000122103D02*
X0002368222Y0000101106D01*
X0002396719Y0000101106D02*
X0002378721Y0000101106D01*
X0002387720Y0000101106D02*
X0002387720Y0000132602D01*
X0002384720Y0000128102D01*
X0002381721Y0000125100D01*
X0002378721Y0000123603D01*
X0002416216Y0000132602D02*
X0002419216Y0000132602D01*
X0002422215Y0000131102D01*
X0002423715Y0000129602D01*
X0002425215Y0000126599D01*
X0002426715Y0000120603D01*
X0002426715Y0000113104D01*
X0002425215Y0000107105D01*
X0002423715Y0000104105D01*
X0002422215Y0000102604D01*
X0002419216Y0000101106D01*
X0002416216Y0000101106D01*
X0002413217Y0000102604D01*
X0002411717Y0000104105D01*
X0002410217Y0000107105D01*
X0002408717Y0000113104D01*
X0002408717Y0000120603D01*
X0002410217Y0000126599D01*
X0002411717Y0000129602D01*
X0002413217Y0000131102D01*
X0002416216Y0000132602D01*
X0002446212Y0000132602D02*
X0002449212Y0000132602D01*
X0002452212Y0000131102D01*
X0002453712Y0000129602D01*
X0002455211Y0000126599D01*
X0002456711Y0000120603D01*
X0002456711Y0000113104D01*
X0002455211Y0000107105D01*
X0002453712Y0000104105D01*
X0002452212Y0000102604D01*
X0002449212Y0000101106D01*
X0002446212Y0000101106D01*
X0002443213Y0000102604D01*
X0002441713Y0000104105D01*
X0002440213Y0000107105D01*
X0002438713Y0000113104D01*
X0002438713Y0000120603D01*
X0002440213Y0000126599D01*
X0002441713Y0000129602D01*
X0002443213Y0000131102D01*
X0002446212Y0000132602D01*
X0002492707Y0000102604D02*
X0002495706Y0000101106D01*
X0002501706Y0000101106D01*
X0002504705Y0000102604D01*
X0002506205Y0000105605D01*
X0002506205Y0000107105D01*
X0002504705Y0000110104D01*
X0002501706Y0000111604D01*
X0002497206Y0000111604D01*
X0002494206Y0000113104D01*
X0002492707Y0000116104D01*
X0002492707Y0000117604D01*
X0002494206Y0000120603D01*
X0002497206Y0000122103D01*
X0002501706Y0000122103D01*
X0002504705Y0000120603D01*
X0002519703Y0000122103D02*
X0002519703Y0000090607D01*
X0002519703Y0000120603D02*
X0002522702Y0000122103D01*
X0002528701Y0000122103D01*
X0002531702Y0000120603D01*
X0002533202Y0000119103D01*
X0002534701Y0000116104D01*
X0002534701Y0000107105D01*
X0002533202Y0000104105D01*
X0002531702Y0000102604D01*
X0002528701Y0000101106D01*
X0002522702Y0000101106D01*
X0002519703Y0000102604D01*
X0002552699Y0000101106D02*
X0002549699Y0000102604D01*
X0002548200Y0000105605D01*
X0002548200Y0000132602D01*
X0002564698Y0000101106D02*
X0002564698Y0000122103D01*
X0002564698Y0000132602D02*
X0002563198Y0000131102D01*
X0002564698Y0000129602D01*
X0002566197Y0000131102D01*
X0002564698Y0000132602D01*
X0002564698Y0000129602D01*
X0002575196Y0000122103D02*
X0002587194Y0000122103D01*
X0002579696Y0000132602D02*
X0002579696Y0000105605D01*
X0002581195Y0000102604D01*
X0002584195Y0000101106D01*
X0002587194Y0000101106D01*
X0002620190Y0000102604D02*
X0002623190Y0000101106D01*
X0002629190Y0000101106D01*
X0002632189Y0000102604D01*
X0002633689Y0000105605D01*
X0002633689Y0000107105D01*
X0002632189Y0000110104D01*
X0002629190Y0000111604D01*
X0002624690Y0000111604D01*
X0002621691Y0000113104D01*
X0002620190Y0000116104D01*
X0002620190Y0000117604D01*
X0002621691Y0000120603D01*
X0002624690Y0000122103D01*
X0002629190Y0000122103D01*
X0002632189Y0000120603D01*
X0002647187Y0000101106D02*
X0002647187Y0000132602D01*
X0002660686Y0000101106D02*
X0002660686Y0000117604D01*
X0002659186Y0000120603D01*
X0002656185Y0000122103D01*
X0002651686Y0000122103D01*
X0002648687Y0000120603D01*
X0002647187Y0000119103D01*
X0002687682Y0000102604D02*
X0002684682Y0000101106D01*
X0002678683Y0000101106D01*
X0002675684Y0000102604D01*
X0002674184Y0000105605D01*
X0002674184Y0000117604D01*
X0002675684Y0000120603D01*
X0002678683Y0000122103D01*
X0002684682Y0000122103D01*
X0002687682Y0000120603D01*
X0002689182Y0000117604D01*
X0002689182Y0000114604D01*
X0002674184Y0000111604D01*
X0002707180Y0000101106D02*
X0002704180Y0000102604D01*
X0002702680Y0000105605D01*
X0002702680Y0000132602D01*
X0002723678Y0000101106D02*
X0002720677Y0000102604D01*
X0002719178Y0000105605D01*
X0002719178Y0000132602D01*
D103*
X0002651181Y0000637401D02*
X0002651181Y0000481101D01*
D104*
X0002687007Y0000559448D02*
G75*
G03G03G03G03X0002687007Y0000559448I-0000150787D01X0002687007Y0000559448I-0000150787D01G03G03X0002687007Y0000559448I-0000150787D01G03G03X0002687007Y0000559448I-0000150787D01X0002687007Y0000559448I-0000150787D01X0002687007Y0000559448I-0000150787D01X0002687007Y0000559448I-0000150787D01G03G03G03G03X0002687007Y0000559448I-0000150787D01X0002687007Y0000559448I-0000150787D01X0002687007Y0000559448I-0000150787D01G03G03X0002687007Y0000559448I-0000150787D01G03G03X0002687007Y0000559448I-0000150787D01X0002687007Y0000559448I-0000150787D01X0002687007Y0000559448I-0000150787D01X0002687007Y0000559448I-0000150787D01X0002687007Y0000559448I-0000150787D01*
G01G01G01G01G01G01G01G01G01G01G01G01G01G01G01G01*
D105*
X0002640944Y0000559448D02*
G75*
G03G03G03G03X0002640944Y0000559448I-0000104724D01X0002640944Y0000559448I-0000104724D01G03G03X0002640944Y0000559448I-0000104724D01G03G03X0002640944Y0000559448I-0000104724D01X0002640944Y0000559448I-0000104724D01X0002640944Y0000559448I-0000104724D01X0002640944Y0000559448I-0000104724D01G03G03G03G03X0002640944Y0000559448I-0000104724D01X0002640944Y0000559448I-0000104724D01X0002640944Y0000559448I-0000104724D01G03G03X0002640944Y0000559448I-0000104724D01G03G03X0002640944Y0000559448I-0000104724D01X0002640944Y0000559448I-0000104724D01X0002640944Y0000559448I-0000104724D01X0002640944Y0000559448I-0000104724D01X0002640944Y0000559448I-0000104724D01*
G01G01G01G01G01G01G01G01G01G01G01G01G01G01G01G01*
D103*
X0002139370Y0000637401D02*
X0002139370Y0000481101D01*
D104*
X0002175196Y0000559448D02*
G75*
G03G03G03G03X0002175196Y0000559448I-0000150787D01X0002175196Y0000559448I-0000150787D01G03G03X0002175196Y0000559448I-0000150787D01G03G03X0002175196Y0000559448I-0000150787D01X0002175196Y0000559448I-0000150787D01X0002175196Y0000559448I-0000150787D01X0002175196Y0000559448I-0000150787D01G03G03G03G03X0002175196Y0000559448I-0000150787D01X0002175196Y0000559448I-0000150787D01X0002175196Y0000559448I-0000150787D01G03G03X0002175196Y0000559448I-0000150787D01G03G03X0002175196Y0000559448I-0000150787D01X0002175196Y0000559448I-0000150787D01X0002175196Y0000559448I-0000150787D01X0002175196Y0000559448I-0000150787D01X0002175196Y0000559448I-0000150787D01*
G01G01G01G01G01G01G01G01G01G01G01G01G01G01G01G01*
D105*
X0002129133Y0000559448D02*
G75*
G03G03G03G03X0002129133Y0000559448I-0000104724D01X0002129133Y0000559448I-0000104724D01G03G03X0002129133Y0000559448I-0000104724D01G03G03X0002129133Y0000559448I-0000104724D01X0002129133Y0000559448I-0000104724D01X0002129133Y0000559448I-0000104724D01X0002129133Y0000559448I-0000104724D01G03G03G03G03X0002129133Y0000559448I-0000104724D01X0002129133Y0000559448I-0000104724D01X0002129133Y0000559448I-0000104724D01G03G03X0002129133Y0000559448I-0000104724D01G03G03X0002129133Y0000559448I-0000104724D01X0002129133Y0000559448I-0000104724D01X0002129133Y0000559448I-0000104724D01X0002129133Y0000559448I-0000104724D01X0002129133Y0000559448I-0000104724D01*
G01G01G01G01G01G01G01G01G01G01G01G01G01G01G01G01*
D103*
X0002651181Y0001188582D02*
X0002651181Y0001032283D01*
D104*
X0002687007Y0001110629D02*
G75*
G03G03G03G03X0002687007Y0001110629I-0000150787D01X0002687007Y0001110629I-0000150787D01G03G03X0002687007Y0001110629I-0000150787D01G03G03X0002687007Y0001110629I-0000150787D01X0002687007Y0001110629I-0000150787D01X0002687007Y0001110629I-0000150787D01X0002687007Y0001110629I-0000150787D01G03G03G03G03X0002687007Y0001110629I-0000150787D01X0002687007Y0001110629I-0000150787D01X0002687007Y0001110629I-0000150787D01G03G03X0002687007Y0001110629I-0000150787D01G03G03X0002687007Y0001110629I-0000150787D01X0002687007Y0001110629I-0000150787D01X0002687007Y0001110629I-0000150787D01X0002687007Y0001110629I-0000150787D01X0002687007Y0001110629I-0000150787D01*
G01G01G01G01G01G01G01G01G01G01G01G01G01G01G01G01*
D105*
X0002640944Y0001110629D02*
G75*
G03G03G03G03X0002640944Y0001110629I-0000104724D01X0002640944Y0001110629I-0000104724D01G03G03X0002640944Y0001110629I-0000104724D01G03G03X0002640944Y0001110629I-0000104724D01X0002640944Y0001110629I-0000104724D01X0002640944Y0001110629I-0000104724D01X0002640944Y0001110629I-0000104724D01G03G03G03G03X0002640944Y0001110629I-0000104724D01X0002640944Y0001110629I-0000104724D01X0002640944Y0001110629I-0000104724D01G03G03X0002640944Y0001110629I-0000104724D01G03G03X0002640944Y0001110629I-0000104724D01X0002640944Y0001110629I-0000104724D01X0002640944Y0001110629I-0000104724D01X0002640944Y0001110629I-0000104724D01X0002640944Y0001110629I-0000104724D01*
G01G01G01G01G01G01G01G01G01G01G01G01G01G01G01G01*
D103*
X0002139370Y0001188582D02*
X0002139370Y0001032283D01*
D104*
X0002175196Y0001110629D02*
G75*
G03G03G03G03X0002175196Y0001110629I-0000150787D01X0002175196Y0001110629I-0000150787D01G03G03X0002175196Y0001110629I-0000150787D01G03G03X0002175196Y0001110629I-0000150787D01X0002175196Y0001110629I-0000150787D01X0002175196Y0001110629I-0000150787D01X0002175196Y0001110629I-0000150787D01G03G03G03G03X0002175196Y0001110629I-0000150787D01X0002175196Y0001110629I-0000150787D01X0002175196Y0001110629I-0000150787D01G03G03X0002175196Y0001110629I-0000150787D01G03G03X0002175196Y0001110629I-0000150787D01X0002175196Y0001110629I-0000150787D01X0002175196Y0001110629I-0000150787D01X0002175196Y0001110629I-0000150787D01X0002175196Y0001110629I-0000150787D01*
G01G01G01G01G01G01G01G01G01G01G01G01G01G01G01G01*
D105*
X0002129133Y0001110629D02*
G75*
G03G03G03G03X0002129133Y0001110629I-0000104724D01X0002129133Y0001110629I-0000104724D01G03G03X0002129133Y0001110629I-0000104724D01G03G03X0002129133Y0001110629I-0000104724D01X0002129133Y0001110629I-0000104724D01X0002129133Y0001110629I-0000104724D01X0002129133Y0001110629I-0000104724D01G03G03G03G03X0002129133Y0001110629I-0000104724D01X0002129133Y0001110629I-0000104724D01X0002129133Y0001110629I-0000104724D01G03G03X0002129133Y0001110629I-0000104724D01G03G03X0002129133Y0001110629I-0000104724D01X0002129133Y0001110629I-0000104724D01X0002129133Y0001110629I-0000104724D01X0002129133Y0001110629I-0000104724D01X0002129133Y0001110629I-0000104724D01*
G01G01G01G01G01G01G01G01G01G01G01G01G01G01G01G01*
D103*
X0001588188Y0000637401D02*
X0001588188Y0000481101D01*
D104*
X0001624015Y0000559448D02*
G75*
G03G03G03G03X0001624015Y0000559448I-0000150787D01X0001624015Y0000559448I-0000150787D01G03G03X0001624015Y0000559448I-0000150787D01G03G03X0001624015Y0000559448I-0000150787D01X0001624015Y0000559448I-0000150787D01X0001624015Y0000559448I-0000150787D01X0001624015Y0000559448I-0000150787D01G03G03G03G03X0001624015Y0000559448I-0000150787D01X0001624015Y0000559448I-0000150787D01X0001624015Y0000559448I-0000150787D01G03G03X0001624015Y0000559448I-0000150787D01G03G03X0001624015Y0000559448I-0000150787D01X0001624015Y0000559448I-0000150787D01X0001624015Y0000559448I-0000150787D01X0001624015Y0000559448I-0000150787D01X0001624015Y0000559448I-0000150787D01*
G01G01G01G01G01G01G01G01G01G01G01G01G01G01G01G01*
D105*
X0001577952Y0000559448D02*
G75*
G03G03G03G03X0001577952Y0000559448I-0000104724D01X0001577952Y0000559448I-0000104724D01G03G03X0001577952Y0000559448I-0000104724D01G03G03X0001577952Y0000559448I-0000104724D01X0001577952Y0000559448I-0000104724D01X0001577952Y0000559448I-0000104724D01X0001577952Y0000559448I-0000104724D01G03G03G03G03X0001577952Y0000559448I-0000104724D01X0001577952Y0000559448I-0000104724D01X0001577952Y0000559448I-0000104724D01G03G03X0001577952Y0000559448I-0000104724D01G03G03X0001577952Y0000559448I-0000104724D01X0001577952Y0000559448I-0000104724D01X0001577952Y0000559448I-0000104724D01X0001577952Y0000559448I-0000104724D01X0001577952Y0000559448I-0000104724D01*
G01G01G01G01G01G01G01G01G01G01G01G01G01G01G01G01*
D103*
X0001076377Y0000637401D02*
X0001076377Y0000481101D01*
D104*
X0001112204Y0000559448D02*
G75*
G03G03G03G03X0001112204Y0000559448I-0000150787D01X0001112204Y0000559448I-0000150787D01G03G03X0001112204Y0000559448I-0000150787D01G03G03X0001112204Y0000559448I-0000150787D01X0001112204Y0000559448I-0000150787D01X0001112204Y0000559448I-0000150787D01X0001112204Y0000559448I-0000150787D01G03G03G03G03X0001112204Y0000559448I-0000150787D01X0001112204Y0000559448I-0000150787D01X0001112204Y0000559448I-0000150787D01G03G03X0001112204Y0000559448I-0000150787D01G03G03X0001112204Y0000559448I-0000150787D01X0001112204Y0000559448I-0000150787D01X0001112204Y0000559448I-0000150787D01X0001112204Y0000559448I-0000150787D01X0001112204Y0000559448I-0000150787D01*
G01G01G01G01G01G01G01G01G01G01G01G01G01G01G01G01*
D105*
X0001066141Y0000559448D02*
G75*
G03G03G03G03X0001066141Y0000559448I-0000104724D01X0001066141Y0000559448I-0000104724D01G03G03X0001066141Y0000559448I-0000104724D01G03G03X0001066141Y0000559448I-0000104724D01X0001066141Y0000559448I-0000104724D01X0001066141Y0000559448I-0000104724D01X0001066141Y0000559448I-0000104724D01G03G03G03G03X0001066141Y0000559448I-0000104724D01X0001066141Y0000559448I-0000104724D01X0001066141Y0000559448I-0000104724D01G03G03X0001066141Y0000559448I-0000104724D01G03G03X0001066141Y0000559448I-0000104724D01X0001066141Y0000559448I-0000104724D01X0001066141Y0000559448I-0000104724D01X0001066141Y0000559448I-0000104724D01X0001066141Y0000559448I-0000104724D01*
G01G01G01G01G01G01G01G01G01G01G01G01G01G01G01G01*
D103*
X0000564566Y0000637401D02*
X0000564566Y0000481101D01*
D104*
X0000600393Y0000559448D02*
G75*
G03G03G03G03X0000600393Y0000559448I-0000150787D01X0000600393Y0000559448I-0000150787D01G03G03X0000600393Y0000559448I-0000150787D01G03G03X0000600393Y0000559448I-0000150787D01X0000600393Y0000559448I-0000150787D01X0000600393Y0000559448I-0000150787D01X0000600393Y0000559448I-0000150787D01G03G03G03G03X0000600393Y0000559448I-0000150787D01X0000600393Y0000559448I-0000150787D01X0000600393Y0000559448I-0000150787D01G03G03X0000600393Y0000559448I-0000150787D01G03G03X0000600393Y0000559448I-0000150787D01X0000600393Y0000559448I-0000150787D01X0000600393Y0000559448I-0000150787D01X0000600393Y0000559448I-0000150787D01X0000600393Y0000559448I-0000150787D01*
G01G01G01G01G01G01G01G01G01G01G01G01G01G01G01G01*
D105*
X0000554330Y0000559448D02*
G75*
G03G03G03G03X0000554330Y0000559448I-0000104724D01X0000554330Y0000559448I-0000104724D01G03G03X0000554330Y0000559448I-0000104724D01G03G03X0000554330Y0000559448I-0000104724D01X0000554330Y0000559448I-0000104724D01X0000554330Y0000559448I-0000104724D01X0000554330Y0000559448I-0000104724D01G03G03G03G03X0000554330Y0000559448I-0000104724D01X0000554330Y0000559448I-0000104724D01X0000554330Y0000559448I-0000104724D01G03G03X0000554330Y0000559448I-0000104724D01G03G03X0000554330Y0000559448I-0000104724D01X0000554330Y0000559448I-0000104724D01X0000554330Y0000559448I-0000104724D01X0000554330Y0000559448I-0000104724D01X0000554330Y0000559448I-0000104724D01*
G01G01G01G01G01G01G01G01G01G01G01G01G01G01G01G01*
D103*
X0001588188Y0001188582D02*
X0001588188Y0001032283D01*
D104*
X0001624015Y0001110629D02*
G75*
G03G03G03G03X0001624015Y0001110629I-0000150787D01X0001624015Y0001110629I-0000150787D01G03G03X0001624015Y0001110629I-0000150787D01G03G03X0001624015Y0001110629I-0000150787D01X0001624015Y0001110629I-0000150787D01X0001624015Y0001110629I-0000150787D01X0001624015Y0001110629I-0000150787D01G03G03G03G03X0001624015Y0001110629I-0000150787D01X0001624015Y0001110629I-0000150787D01X0001624015Y0001110629I-0000150787D01G03G03X0001624015Y0001110629I-0000150787D01G03G03X0001624015Y0001110629I-0000150787D01X0001624015Y0001110629I-0000150787D01X0001624015Y0001110629I-0000150787D01X0001624015Y0001110629I-0000150787D01X0001624015Y0001110629I-0000150787D01*
G01G01G01G01G01G01G01G01G01G01G01G01G01G01G01G01*
D105*
X0001577952Y0001110629D02*
G75*
G03G03G03G03X0001577952Y0001110629I-0000104724D01X0001577952Y0001110629I-0000104724D01G03G03X0001577952Y0001110629I-0000104724D01G03G03X0001577952Y0001110629I-0000104724D01X0001577952Y0001110629I-0000104724D01X0001577952Y0001110629I-0000104724D01X0001577952Y0001110629I-0000104724D01G03G03G03G03X0001577952Y0001110629I-0000104724D01X0001577952Y0001110629I-0000104724D01X0001577952Y0001110629I-0000104724D01G03G03X0001577952Y0001110629I-0000104724D01G03G03X0001577952Y0001110629I-0000104724D01X0001577952Y0001110629I-0000104724D01X0001577952Y0001110629I-0000104724D01X0001577952Y0001110629I-0000104724D01X0001577952Y0001110629I-0000104724D01*
G01G01G01G01G01G01G01G01G01G01G01G01G01G01G01G01*
D103*
X0001076377Y0001188582D02*
X0001076377Y0001032283D01*
D104*
X0001112204Y0001110629D02*
G75*
G03G03G03G03X0001112204Y0001110629I-0000150787D01X0001112204Y0001110629I-0000150787D01G03G03X0001112204Y0001110629I-0000150787D01G03G03X0001112204Y0001110629I-0000150787D01X0001112204Y0001110629I-0000150787D01X0001112204Y0001110629I-0000150787D01X0001112204Y0001110629I-0000150787D01G03G03G03G03X0001112204Y0001110629I-0000150787D01X0001112204Y0001110629I-0000150787D01X0001112204Y0001110629I-0000150787D01G03G03X0001112204Y0001110629I-0000150787D01G03G03X0001112204Y0001110629I-0000150787D01X0001112204Y0001110629I-0000150787D01X0001112204Y0001110629I-0000150787D01X0001112204Y0001110629I-0000150787D01X0001112204Y0001110629I-0000150787D01*
G01G01G01G01G01G01G01G01G01G01G01G01G01G01G01G01*
D105*
X0001066141Y0001110629D02*
G75*
G03G03G03G03X0001066141Y0001110629I-0000104724D01X0001066141Y0001110629I-0000104724D01G03G03X0001066141Y0001110629I-0000104724D01G03G03X0001066141Y0001110629I-0000104724D01X0001066141Y0001110629I-0000104724D01X0001066141Y0001110629I-0000104724D01X0001066141Y0001110629I-0000104724D01G03G03G03G03X0001066141Y0001110629I-0000104724D01X0001066141Y0001110629I-0000104724D01X0001066141Y0001110629I-0000104724D01G03G03X0001066141Y0001110629I-0000104724D01G03G03X0001066141Y0001110629I-0000104724D01X0001066141Y0001110629I-0000104724D01X0001066141Y0001110629I-0000104724D01X0001066141Y0001110629I-0000104724D01X0001066141Y0001110629I-0000104724D01*
G01G01G01G01G01G01G01G01G01G01G01G01G01G01G01G01*
D103*
X0000564566Y0001188582D02*
X0000564566Y0001032283D01*
D104*
X0000600393Y0001110629D02*
G75*
G03G03G03G03X0000600393Y0001110629I-0000150787D01X0000600393Y0001110629I-0000150787D01G03G03X0000600393Y0001110629I-0000150787D01G03G03X0000600393Y0001110629I-0000150787D01X0000600393Y0001110629I-0000150787D01X0000600393Y0001110629I-0000150787D01X0000600393Y0001110629I-0000150787D01G03G03G03G03X0000600393Y0001110629I-0000150787D01X0000600393Y0001110629I-0000150787D01X0000600393Y0001110629I-0000150787D01G03G03X0000600393Y0001110629I-0000150787D01G03G03X0000600393Y0001110629I-0000150787D01X0000600393Y0001110629I-0000150787D01X0000600393Y0001110629I-0000150787D01X0000600393Y0001110629I-0000150787D01X0000600393Y0001110629I-0000150787D01*
G01G01G01G01G01G01G01G01G01G01G01G01G01G01G01G01*
D105*
X0000554330Y0001110629D02*
G75*
G03G03G03G03X0000554330Y0001110629I-0000104724D01X0000554330Y0001110629I-0000104724D01G03G03X0000554330Y0001110629I-0000104724D01G03G03X0000554330Y0001110629I-0000104724D01X0000554330Y0001110629I-0000104724D01X0000554330Y0001110629I-0000104724D01X0000554330Y0001110629I-0000104724D01G03G03G03G03X0000554330Y0001110629I-0000104724D01X0000554330Y0001110629I-0000104724D01X0000554330Y0001110629I-0000104724D01G03G03X0000554330Y0001110629I-0000104724D01G03G03X0000554330Y0001110629I-0000104724D01X0000554330Y0001110629I-0000104724D01X0000554330Y0001110629I-0000104724D01X0000554330Y0001110629I-0000104724D01X0000554330Y0001110629I-0000104724D01*
G01G01G01G01G01G01G01G01G01G01G01G01G01G01G01G01*
D106*
G36*
X0002788375Y0001378075D02*
X0002778306Y0001303423D01*
X0000188532Y0001302639D01*
X0000189578Y0001380035D01*
X0002788375Y0001378075D01*
X0002788375Y0001378075D01*
G37*
X0002788375Y0001378075D02*
X0002778306Y0001303423D01*
X0000188532Y0001302639D01*
X0000189578Y0001380035D01*
X0002788375Y0001378075D01*
G36*
X0002760725Y-0000000903D02*
X0000233323Y-0000000119D01*
X0000232975Y0000075316D01*
X0002760376Y0000076100D01*
X0002760725Y-0000000903D01*
X0002760725Y-0000000903D01*
G37*
X0002760725Y-0000000903D02*
X0000233323Y-0000000119D01*
X0000232975Y0000075316D01*
X0002760376Y0000076100D01*
X0002760725Y-0000000903D01*
G36*
X0002672462Y0000187677D02*
X0000320258Y0000187677D01*
X0000320258Y0000240669D01*
X0002672462Y0000240669D01*
X0002672462Y0000187677D01*
X0002672462Y0000187677D01*
G37*
X0002672462Y0000187677D02*
X0000320258Y0000187677D01*
X0000320258Y0000240669D01*
X0002672462Y0000240669D01*
X0002672462Y0000187677D01*
G36*
X0002993820Y0000995369D02*
X0002984507Y0000982951D01*
X0002957086Y0000982951D01*
X0002955173Y0000982572D01*
X0002953551Y0000981488D01*
X0002952467Y0000979865D01*
X0002952086Y0000977963D01*
X0002950905Y0000403159D01*
X0002951282Y0000401245D01*
X0002952362Y0000399621D01*
X0002953982Y0000398534D01*
X0002955905Y0000398149D01*
X0002984936Y0000398149D01*
X0002993818Y0000389267D01*
X0002993818Y-0000001299D01*
X0002757339Y-0000001299D01*
X0002756968Y0000080329D01*
X0002756968Y0000165262D01*
X0002759935Y0000169217D01*
X0002762108Y0000170220D01*
X0002766277Y0000168831D01*
X0002789628Y0000146939D01*
X0002792804Y0000134941D01*
X0002794214Y0000132576D01*
X0002807206Y0000120370D01*
X0002808732Y0000119388D01*
X0002824086Y0000113090D01*
X0002825984Y0000112716D01*
X0002840944Y0000112716D01*
X0002843439Y0000113383D01*
X0002856431Y0000120863D01*
X0002857249Y0000121451D01*
X0002867486Y0000130506D01*
X0002868791Y0000132336D01*
X0002875484Y0000148478D01*
X0002875863Y0000150540D01*
X0002875470Y0000163926D01*
X0002875124Y0000165611D01*
X0002870006Y0000178604D01*
X0002869017Y0000180172D01*
X0002858782Y0000191197D01*
X0002857116Y0000192378D01*
X0002842610Y0000198701D01*
X0002820257Y0000220688D01*
X0002818685Y0000226977D01*
X0002820678Y0000230965D01*
X0002826456Y0000233991D01*
X0002888251Y0000234764D01*
X0002890160Y0000235168D01*
X0002891768Y0000236272D01*
X0002892831Y0000237908D01*
X0002893188Y0000239762D01*
X0002893188Y0000314566D01*
X0002892808Y0000316480D01*
X0002891723Y0000318102D01*
X0002890102Y0000319186D01*
X0002888249Y0000319566D01*
X0002796341Y0000320687D01*
X0002796729Y0001058074D01*
X0002887090Y0001059567D01*
X0002888997Y0001059979D01*
X0002890601Y0001061090D01*
X0002891658Y0001062730D01*
X0002892006Y0001064540D01*
X0002892401Y0001140131D01*
X0002892030Y0001142046D01*
X0002890955Y0001143674D01*
X0002889339Y0001144766D01*
X0002887430Y0001145157D01*
X0002822448Y0001145539D01*
X0002818922Y0001148813D01*
X0002817129Y0001151952D01*
X0002817932Y0001155365D01*
X0002840191Y0001177989D01*
X0002851755Y0001182326D01*
X0002853441Y0001183380D01*
X0002868795Y0001197947D01*
X0002870107Y0001200024D01*
X0002876013Y0001218134D01*
X0002876094Y0001220962D01*
X0002870582Y0001241828D01*
X0002869330Y0001244039D01*
X0002854763Y0001258999D01*
X0002853155Y0001260105D01*
X0002852045Y0001260436D01*
X0002829604Y0001264373D01*
X0002827527Y0001264299D01*
X0002813354Y0001260756D01*
X0002811366Y0001259746D01*
X0002797192Y0001247935D01*
X0002795788Y0001246042D01*
X0002787581Y0001226642D01*
X0002765868Y0001207874D01*
X0002763927Y0001207097D01*
X0002760869Y0001207505D01*
X0002758631Y0001209540D01*
X0002756570Y0001215428D01*
X0002756181Y0001297153D01*
X0002759520Y0001378396D01*
X0002810165Y0001377676D01*
X0002810267Y0001377676D01*
X0002994207Y0001378826D01*
X0002993820Y0000995369D01*
X0002993820Y0000995369D01*
G37*
X0002993820Y0000995369D02*
X0002984507Y0000982951D01*
X0002957086Y0000982951D01*
X0002955173Y0000982572D01*
X0002953551Y0000981488D01*
X0002952467Y0000979865D01*
X0002952086Y0000977963D01*
X0002950905Y0000403159D01*
X0002951282Y0000401245D01*
X0002952362Y0000399621D01*
X0002953982Y0000398534D01*
X0002955905Y0000398149D01*
X0002984936Y0000398149D01*
X0002993818Y0000389267D01*
X0002993818Y-0000001299D01*
X0002757339Y-0000001299D01*
X0002756968Y0000080329D01*
X0002756968Y0000165262D01*
X0002759935Y0000169217D01*
X0002762108Y0000170220D01*
X0002766277Y0000168831D01*
X0002789628Y0000146939D01*
X0002792804Y0000134941D01*
X0002794214Y0000132576D01*
X0002807206Y0000120370D01*
X0002808732Y0000119388D01*
X0002824086Y0000113090D01*
X0002825984Y0000112716D01*
X0002840944Y0000112716D01*
X0002843439Y0000113383D01*
X0002856431Y0000120863D01*
X0002857249Y0000121451D01*
X0002867486Y0000130506D01*
X0002868791Y0000132336D01*
X0002875484Y0000148478D01*
X0002875863Y0000150540D01*
X0002875470Y0000163926D01*
X0002875124Y0000165611D01*
X0002870006Y0000178604D01*
X0002869017Y0000180172D01*
X0002858782Y0000191197D01*
X0002857116Y0000192378D01*
X0002842610Y0000198701D01*
X0002820257Y0000220688D01*
X0002818685Y0000226977D01*
X0002820678Y0000230965D01*
X0002826456Y0000233991D01*
X0002888251Y0000234764D01*
X0002890160Y0000235168D01*
X0002891768Y0000236272D01*
X0002892831Y0000237908D01*
X0002893188Y0000239762D01*
X0002893188Y0000314566D01*
X0002892808Y0000316480D01*
X0002891723Y0000318102D01*
X0002890102Y0000319186D01*
X0002888249Y0000319566D01*
X0002796341Y0000320687D01*
X0002796729Y0001058074D01*
X0002887090Y0001059567D01*
X0002888997Y0001059979D01*
X0002890601Y0001061090D01*
X0002891658Y0001062730D01*
X0002892006Y0001064540D01*
X0002892401Y0001140131D01*
X0002892030Y0001142046D01*
X0002890955Y0001143674D01*
X0002889339Y0001144766D01*
X0002887430Y0001145157D01*
X0002822448Y0001145539D01*
X0002818922Y0001148813D01*
X0002817129Y0001151952D01*
X0002817932Y0001155365D01*
X0002840191Y0001177989D01*
X0002851755Y0001182326D01*
X0002853441Y0001183380D01*
X0002868795Y0001197947D01*
X0002870107Y0001200024D01*
X0002876013Y0001218134D01*
X0002876094Y0001220962D01*
X0002870582Y0001241828D01*
X0002869330Y0001244039D01*
X0002854763Y0001258999D01*
X0002853155Y0001260105D01*
X0002852045Y0001260436D01*
X0002829604Y0001264373D01*
X0002827527Y0001264299D01*
X0002813354Y0001260756D01*
X0002811366Y0001259746D01*
X0002797192Y0001247935D01*
X0002795788Y0001246042D01*
X0002787581Y0001226642D01*
X0002765868Y0001207874D01*
X0002763927Y0001207097D01*
X0002760869Y0001207505D01*
X0002758631Y0001209540D01*
X0002756570Y0001215428D01*
X0002756181Y0001297153D01*
X0002759520Y0001378396D01*
X0002810165Y0001377676D01*
X0002810267Y0001377676D01*
X0002994207Y0001378826D01*
X0002993820Y0000995369D01*
G36*
X0000230826Y0001299592D02*
X0000230826Y0001214658D01*
X0000227860Y0001210703D01*
X0000225686Y0001209700D01*
X0000221518Y0001211089D01*
X0000198167Y0001232981D01*
X0000194990Y0001244980D01*
X0000193580Y0001247345D01*
X0000180588Y0001259549D01*
X0000179063Y0001260531D01*
X0000163708Y0001266830D01*
X0000161811Y0001267204D01*
X0000146850Y0001267204D01*
X0000144355Y0001266537D01*
X0000131363Y0001259057D01*
X0000130545Y0001258469D01*
X0000120309Y0001249414D01*
X0000119003Y0001247584D01*
X0000112309Y0001231442D01*
X0000111931Y0001229380D01*
X0000112325Y0001215994D01*
X0000112670Y0001214309D01*
X0000117788Y0001201316D01*
X0000118776Y0001199747D01*
X0000129010Y0001188723D01*
X0000130676Y0001187542D01*
X0000145185Y0001181219D01*
X0000167537Y0001159233D01*
X0000169110Y0001152943D01*
X0000167115Y0001148955D01*
X0000161338Y0001145929D01*
X0000099543Y0001145157D01*
X0000097635Y0001144752D01*
X0000096026Y0001143648D01*
X0000094963Y0001142012D01*
X0000094606Y0001140157D01*
X0000094606Y0001065354D01*
X0000094986Y0001063440D01*
X0000096070Y0001061818D01*
X0000097692Y0001060734D01*
X0000099545Y0001060354D01*
X0000191454Y0001059233D01*
X0000191065Y0000321847D01*
X0000100704Y0000320353D01*
X0000098797Y0000319941D01*
X0000097193Y0000318830D01*
X0000096137Y0000317191D01*
X0000095787Y0000315379D01*
X0000095393Y0000239789D01*
X0000095764Y0000237874D01*
X0000096839Y0000236246D01*
X0000098456Y0000235154D01*
X0000100364Y0000234763D01*
X0000165345Y0000234381D01*
X0000168872Y0000231107D01*
X0000170666Y0000227968D01*
X0000169863Y0000224555D01*
X0000147604Y0000201930D01*
X0000136039Y0000197595D01*
X0000134353Y0000196540D01*
X0000118999Y0000181973D01*
X0000117686Y0000179896D01*
X0000111781Y0000161786D01*
X0000111701Y0000158959D01*
X0000117212Y0000138093D01*
X0000118464Y0000135881D01*
X0000133031Y0000120921D01*
X0000134639Y0000119815D01*
X0000135750Y0000119484D01*
X0000158191Y0000115547D01*
X0000160267Y0000115621D01*
X0000174441Y0000119165D01*
X0000176428Y0000120174D01*
X0000190602Y0000131985D01*
X0000192006Y0000133878D01*
X0000200213Y0000153278D01*
X0000221926Y0000172046D01*
X0000223867Y0000172823D01*
X0000226925Y0000172415D01*
X0000229163Y0000170380D01*
X0000231224Y0000164493D01*
X0000231613Y0000082767D01*
X0000228271Y0000001432D01*
X0000155501Y0000001062D01*
X-0000006412Y0000001062D01*
X-0000006025Y0000384551D01*
X0000003286Y0000396968D01*
X0000030708Y0000396968D01*
X0000032622Y0000397349D01*
X0000034244Y0000398431D01*
X0000035328Y0000400055D01*
X0000035708Y0000401958D01*
X0000036889Y0000976761D01*
X0000036513Y0000978675D01*
X0000035432Y0000980299D01*
X0000033812Y0000981387D01*
X0000031889Y0000981771D01*
X0000002858Y0000981771D01*
X-0000006023Y0000990653D01*
X-0000006023Y0001381220D01*
X0000230455Y0001381220D01*
X0000230826Y0001299592D01*
X0000230826Y0001299592D01*
G37*
X0000230826Y0001299592D02*
X0000230826Y0001214658D01*
X0000227860Y0001210703D01*
X0000225686Y0001209700D01*
X0000221518Y0001211089D01*
X0000198167Y0001232981D01*
X0000194990Y0001244980D01*
X0000193580Y0001247345D01*
X0000180588Y0001259549D01*
X0000179063Y0001260531D01*
X0000163708Y0001266830D01*
X0000161811Y0001267204D01*
X0000146850Y0001267204D01*
X0000144355Y0001266537D01*
X0000131363Y0001259057D01*
X0000130545Y0001258469D01*
X0000120309Y0001249414D01*
X0000119003Y0001247584D01*
X0000112309Y0001231442D01*
X0000111931Y0001229380D01*
X0000112325Y0001215994D01*
X0000112670Y0001214309D01*
X0000117788Y0001201316D01*
X0000118776Y0001199747D01*
X0000129010Y0001188723D01*
X0000130676Y0001187542D01*
X0000145185Y0001181219D01*
X0000167537Y0001159233D01*
X0000169110Y0001152943D01*
X0000167115Y0001148955D01*
X0000161338Y0001145929D01*
X0000099543Y0001145157D01*
X0000097635Y0001144752D01*
X0000096026Y0001143648D01*
X0000094963Y0001142012D01*
X0000094606Y0001140157D01*
X0000094606Y0001065354D01*
X0000094986Y0001063440D01*
X0000096070Y0001061818D01*
X0000097692Y0001060734D01*
X0000099545Y0001060354D01*
X0000191454Y0001059233D01*
X0000191065Y0000321847D01*
X0000100704Y0000320353D01*
X0000098797Y0000319941D01*
X0000097193Y0000318830D01*
X0000096137Y0000317191D01*
X0000095787Y0000315379D01*
X0000095393Y0000239789D01*
X0000095764Y0000237874D01*
X0000096839Y0000236246D01*
X0000098456Y0000235154D01*
X0000100364Y0000234763D01*
X0000165345Y0000234381D01*
X0000168872Y0000231107D01*
X0000170666Y0000227968D01*
X0000169863Y0000224555D01*
X0000147604Y0000201930D01*
X0000136039Y0000197595D01*
X0000134353Y0000196540D01*
X0000118999Y0000181973D01*
X0000117686Y0000179896D01*
X0000111781Y0000161786D01*
X0000111701Y0000158959D01*
X0000117212Y0000138093D01*
X0000118464Y0000135881D01*
X0000133031Y0000120921D01*
X0000134639Y0000119815D01*
X0000135750Y0000119484D01*
X0000158191Y0000115547D01*
X0000160267Y0000115621D01*
X0000174441Y0000119165D01*
X0000176428Y0000120174D01*
X0000190602Y0000131985D01*
X0000192006Y0000133878D01*
X0000200213Y0000153278D01*
X0000221926Y0000172046D01*
X0000223867Y0000172823D01*
X0000226925Y0000172415D01*
X0000229163Y0000170380D01*
X0000231224Y0000164493D01*
X0000231613Y0000082767D01*
X0000228271Y0000001432D01*
X0000155501Y0000001062D01*
X-0000006412Y0000001062D01*
X-0000006025Y0000384551D01*
X0000003286Y0000396968D01*
X0000030708Y0000396968D01*
X0000032622Y0000397349D01*
X0000034244Y0000398431D01*
X0000035328Y0000400055D01*
X0000035708Y0000401958D01*
X0000036889Y0000976761D01*
X0000036513Y0000978675D01*
X0000035432Y0000980299D01*
X0000033812Y0000981387D01*
X0000031889Y0000981771D01*
X0000002858Y0000981771D01*
X-0000006023Y0000990653D01*
X-0000006023Y0001381220D01*
X0000230455Y0001381220D01*
X0000230826Y0001299592D01*
G04 next file*
G04 #@! TF.FileFunction,Soldermask,Top*
G04 Gerber Fmt 4.6, Leading zero omitted, Abs format (unit mm)*
G04 Created by KiCad (PCBNEW (2016-09-17 revision 679eef1)-makepkg) date 09/24/16 16:35:10*
G01G01G01G01G01G01G01G01G01G01G01G01G01G01G01G01*
G04 APERTURE LIST*
G04 APERTURE END LIST*
D117*
D118*
X0002772909Y0001781477D02*
X0002771409Y0001778477D01*
X0002768410Y0001776977D01*
X0002741413Y0001776977D01*
X0002751912Y0001806974D02*
X0002772909Y0001806974D01*
X0002751912Y0001793475D02*
X0002768410Y0001793475D01*
X0002771409Y0001794974D01*
X0002772909Y0001797975D01*
X0002772909Y0001802474D01*
X0002771409Y0001805474D01*
X0002769910Y0001806974D01*
X0002751912Y0001817472D02*
X0002751912Y0001829471D01*
X0002772909Y0001821972D02*
X0002745912Y0001821972D01*
X0002742913Y0001823472D01*
X0002741413Y0001826471D01*
X0002741413Y0001829471D01*
X0002751912Y0001835470D02*
X0002751912Y0001847469D01*
X0002741413Y0001839970D02*
X0002768410Y0001839970D01*
X0002771409Y0001841469D01*
X0002772909Y0001844469D01*
X0002772909Y0001847469D01*
X0002771409Y0001869966D02*
X0002772909Y0001866966D01*
X0002772909Y0001860967D01*
X0002771409Y0001857967D01*
X0002768410Y0001856467D01*
X0002756411Y0001856467D01*
X0002753411Y0001857967D01*
X0002751912Y0001860967D01*
X0002751912Y0001866966D01*
X0002753411Y0001869966D01*
X0002756411Y0001871466D01*
X0002759411Y0001871466D01*
X0002762410Y0001856467D01*
X0002772909Y0001884964D02*
X0002741413Y0001884964D01*
X0002760911Y0001887963D02*
X0002772909Y0001896961D01*
X0002751912Y0001896961D02*
X0002763909Y0001884964D01*
D117*
X0002742838Y0001923617D02*
X0002741338Y0001925115D01*
X0002739838Y0001928116D01*
X0002739838Y0001935615D01*
X0002741338Y0001938615D01*
X0002742838Y0001940115D01*
X0002745837Y0001941615D01*
X0002748837Y0001941615D01*
X0002753337Y0001940115D01*
X0002771334Y0001922117D01*
X0002771334Y0001941615D01*
X0002739838Y0001961112D02*
X0002739838Y0001964112D01*
X0002741338Y0001967111D01*
X0002742838Y0001968611D01*
X0002745837Y0001970111D01*
X0002751837Y0001971611D01*
X0002759336Y0001971611D01*
X0002765335Y0001970111D01*
X0002768335Y0001968611D01*
X0002769835Y0001967111D01*
X0002771334Y0001964112D01*
X0002771334Y0001961112D01*
X0002769835Y0001958113D01*
X0002768335Y0001956613D01*
X0002765335Y0001955113D01*
X0002759336Y0001953613D01*
X0002751837Y0001953613D01*
X0002745837Y0001955113D01*
X0002742838Y0001956613D01*
X0002741338Y0001958113D01*
X0002739838Y0001961112D01*
X0002771334Y0002001607D02*
X0002771334Y0001983608D01*
X0002771334Y0001992608D02*
X0002739838Y0001992608D01*
X0002744338Y0001989608D01*
X0002747337Y0001986609D01*
X0002748837Y0001983608D01*
X0002739838Y0002028604D02*
X0002739838Y0002022605D01*
X0002741338Y0002019604D01*
X0002742838Y0002018104D01*
X0002747337Y0002015105D01*
X0002753337Y0002013605D01*
X0002765335Y0002013605D01*
X0002768335Y0002015105D01*
X0002769835Y0002016605D01*
X0002771334Y0002019604D01*
X0002771334Y0002025604D01*
X0002769835Y0002028604D01*
X0002768335Y0002030104D01*
X0002765335Y0002031603D01*
X0002757836Y0002031603D01*
X0002754836Y0002030104D01*
X0002753337Y0002028604D01*
X0002751837Y0002025604D01*
X0002751837Y0002019604D01*
X0002753337Y0002016605D01*
X0002754836Y0002015105D01*
X0002757836Y0002013605D01*
X0002739838Y0002051101D02*
X0002739838Y0002054101D01*
X0002741338Y0002057100D01*
X0002742838Y0002058600D01*
X0002745837Y0002060099D01*
X0002751837Y0002061599D01*
X0002759336Y0002061599D01*
X0002765335Y0002060099D01*
X0002768335Y0002058600D01*
X0002769835Y0002057100D01*
X0002771334Y0002054101D01*
X0002771334Y0002051101D01*
X0002769835Y0002048101D01*
X0002768335Y0002046602D01*
X0002765335Y0002045102D01*
X0002759336Y0002043602D01*
X0002751837Y0002043602D01*
X0002745837Y0002045102D01*
X0002742838Y0002046602D01*
X0002741338Y0002048101D01*
X0002739838Y0002051101D01*
X0002771334Y0002076598D02*
X0002771334Y0002082596D01*
X0002769835Y0002085597D01*
X0002768335Y0002087095D01*
X0002763835Y0002090096D01*
X0002757836Y0002091596D01*
X0002745837Y0002091596D01*
X0002742838Y0002090096D01*
X0002741338Y0002088596D01*
X0002739838Y0002085597D01*
X0002739838Y0002079597D01*
X0002741338Y0002076598D01*
X0002742838Y0002075098D01*
X0002745837Y0002073598D01*
X0002753337Y0002073598D01*
X0002756336Y0002075098D01*
X0002757836Y0002076598D01*
X0002759336Y0002079597D01*
X0002759336Y0002085597D01*
X0002757836Y0002088596D01*
X0002756336Y0002090096D01*
X0002753337Y0002091596D01*
X0002742838Y0002103594D02*
X0002741338Y0002105094D01*
X0002739838Y0002108094D01*
X0002739838Y0002115593D01*
X0002741338Y0002118592D01*
X0002742838Y0002120092D01*
X0002745837Y0002121592D01*
X0002748837Y0002121592D01*
X0002753337Y0002120092D01*
X0002771334Y0002102095D01*
X0002771334Y0002121592D01*
X0002750337Y0002148589D02*
X0002771334Y0002148589D01*
X0002738338Y0002141090D02*
X0002760836Y0002133591D01*
X0002760836Y0002153088D01*
D118*
X0002206242Y0001589295D02*
X0002227240Y0001589295D01*
X0002213742Y0001557799D01*
X0002252737Y0001589295D02*
X0002246737Y0001589295D01*
X0002243738Y0001587795D01*
X0002242238Y0001586294D01*
X0002239238Y0001581796D01*
X0002237739Y0001575796D01*
X0002237739Y0001563798D01*
X0002239238Y0001560798D01*
X0002240738Y0001559297D01*
X0002243738Y0001557799D01*
X0002249737Y0001557799D01*
X0002252737Y0001559297D01*
X0002254236Y0001560798D01*
X0002255736Y0001563798D01*
X0002255736Y0001571297D01*
X0002254236Y0001574294D01*
X0002252737Y0001575796D01*
X0002249737Y0001577296D01*
X0002243738Y0001577296D01*
X0002240738Y0001575796D01*
X0002239238Y0001574294D01*
X0002237739Y0001571297D01*
X0002266235Y0001557799D02*
X0002282733Y0001578796D01*
X0002266235Y0001578796D02*
X0002282733Y0001557799D01*
X0002291732Y0001589295D02*
X0002311229Y0001589295D01*
X0002300731Y0001577296D01*
X0002305230Y0001577296D01*
X0002308230Y0001575796D01*
X0002309730Y0001574294D01*
X0002311229Y0001571297D01*
X0002311229Y0001563798D01*
X0002309730Y0001560798D01*
X0002308230Y0001559297D01*
X0002305230Y0001557799D01*
X0002296231Y0001557799D01*
X0002293232Y0001559297D01*
X0002291732Y0001560798D01*
X0002339726Y0001589295D02*
X0002324728Y0001589295D01*
X0002323228Y0001574294D01*
X0002324728Y0001575796D01*
X0002327727Y0001577296D01*
X0002335226Y0001577296D01*
X0002338226Y0001575796D01*
X0002339726Y0001574294D01*
X0002341226Y0001571297D01*
X0002341226Y0001563798D01*
X0002339726Y0001560798D01*
X0002338226Y0001559297D01*
X0002335226Y0001557799D01*
X0002327727Y0001557799D01*
X0002324728Y0001559297D01*
X0002323228Y0001560798D01*
X0002351724Y0001557799D02*
X0002368222Y0001578796D01*
X0002351724Y0001578796D02*
X0002368222Y0001557799D01*
X0002396719Y0001557799D02*
X0002378721Y0001557799D01*
X0002387720Y0001557799D02*
X0002387720Y0001589295D01*
X0002384720Y0001584795D01*
X0002381721Y0001581796D01*
X0002378721Y0001580294D01*
X0002416216Y0001589295D02*
X0002419216Y0001589295D01*
X0002422215Y0001587795D01*
X0002423715Y0001586294D01*
X0002425215Y0001583295D01*
X0002426715Y0001577296D01*
X0002426715Y0001569797D01*
X0002425215Y0001563798D01*
X0002423715Y0001560798D01*
X0002422215Y0001559297D01*
X0002419216Y0001557799D01*
X0002416216Y0001557799D01*
X0002413217Y0001559297D01*
X0002411717Y0001560798D01*
X0002410217Y0001563798D01*
X0002408717Y0001569797D01*
X0002408717Y0001577296D01*
X0002410217Y0001583295D01*
X0002411717Y0001586294D01*
X0002413217Y0001587795D01*
X0002416216Y0001589295D01*
X0002446212Y0001589295D02*
X0002449212Y0001589295D01*
X0002452212Y0001587795D01*
X0002453712Y0001586294D01*
X0002455211Y0001583295D01*
X0002456711Y0001577296D01*
X0002456711Y0001569797D01*
X0002455211Y0001563798D01*
X0002453712Y0001560798D01*
X0002452212Y0001559297D01*
X0002449212Y0001557799D01*
X0002446212Y0001557799D01*
X0002443213Y0001559297D01*
X0002441713Y0001560798D01*
X0002440213Y0001563798D01*
X0002438713Y0001569797D01*
X0002438713Y0001577296D01*
X0002440213Y0001583295D01*
X0002441713Y0001586294D01*
X0002443213Y0001587795D01*
X0002446212Y0001589295D01*
X0002492707Y0001559297D02*
X0002495706Y0001557799D01*
X0002501706Y0001557799D01*
X0002504705Y0001559297D01*
X0002506205Y0001562298D01*
X0002506205Y0001563798D01*
X0002504705Y0001566797D01*
X0002501706Y0001568297D01*
X0002497206Y0001568297D01*
X0002494206Y0001569797D01*
X0002492707Y0001572797D01*
X0002492707Y0001574294D01*
X0002494206Y0001577296D01*
X0002497206Y0001578796D01*
X0002501706Y0001578796D01*
X0002504705Y0001577296D01*
X0002519703Y0001578796D02*
X0002519703Y0001547300D01*
X0002519703Y0001577296D02*
X0002522702Y0001578796D01*
X0002528701Y0001578796D01*
X0002531702Y0001577296D01*
X0002533202Y0001575796D01*
X0002534701Y0001572797D01*
X0002534701Y0001563798D01*
X0002533202Y0001560798D01*
X0002531702Y0001559297D01*
X0002528701Y0001557799D01*
X0002522702Y0001557799D01*
X0002519703Y0001559297D01*
X0002552699Y0001557799D02*
X0002549699Y0001559297D01*
X0002548200Y0001562298D01*
X0002548200Y0001589295D01*
X0002564698Y0001557799D02*
X0002564698Y0001578796D01*
X0002564698Y0001589295D02*
X0002563198Y0001587795D01*
X0002564698Y0001586294D01*
X0002566197Y0001587795D01*
X0002564698Y0001589295D01*
X0002564698Y0001586294D01*
X0002575196Y0001578796D02*
X0002587194Y0001578796D01*
X0002579696Y0001589295D02*
X0002579696Y0001562298D01*
X0002581195Y0001559297D01*
X0002584195Y0001557799D01*
X0002587194Y0001557799D01*
X0002620190Y0001559297D02*
X0002623190Y0001557799D01*
X0002629190Y0001557799D01*
X0002632189Y0001559297D01*
X0002633689Y0001562298D01*
X0002633689Y0001563798D01*
X0002632189Y0001566797D01*
X0002629190Y0001568297D01*
X0002624690Y0001568297D01*
X0002621691Y0001569797D01*
X0002620190Y0001572797D01*
X0002620190Y0001574294D01*
X0002621691Y0001577296D01*
X0002624690Y0001578796D01*
X0002629190Y0001578796D01*
X0002632189Y0001577296D01*
X0002647187Y0001557799D02*
X0002647187Y0001589295D01*
X0002660686Y0001557799D02*
X0002660686Y0001574294D01*
X0002659186Y0001577296D01*
X0002656185Y0001578796D01*
X0002651686Y0001578796D01*
X0002648687Y0001577296D01*
X0002647187Y0001575796D01*
X0002687682Y0001559297D02*
X0002684682Y0001557799D01*
X0002678683Y0001557799D01*
X0002675684Y0001559297D01*
X0002674184Y0001562298D01*
X0002674184Y0001574294D01*
X0002675684Y0001577296D01*
X0002678683Y0001578796D01*
X0002684682Y0001578796D01*
X0002687682Y0001577296D01*
X0002689182Y0001574294D01*
X0002689182Y0001571297D01*
X0002674184Y0001568297D01*
X0002707180Y0001557799D02*
X0002704180Y0001559297D01*
X0002702680Y0001562298D01*
X0002702680Y0001589295D01*
X0002723678Y0001557799D02*
X0002720677Y0001559297D01*
X0002719178Y0001562298D01*
X0002719178Y0001589295D01*
D119*
X0001220472Y0002301181D02*
X0001220472Y0002144881D01*
D120*
X0001256299Y0002223228D02*
G75*
G03G03G03G03X0001256299Y0002223228I-0000150787D01X0001256299Y0002223228I-0000150787D01G03G03X0001256299Y0002223228I-0000150787D01G03G03X0001256299Y0002223228I-0000150787D01X0001256299Y0002223228I-0000150787D01X0001256299Y0002223228I-0000150787D01X0001256299Y0002223228I-0000150787D01G03G03G03G03X0001256299Y0002223228I-0000150787D01X0001256299Y0002223228I-0000150787D01X0001256299Y0002223228I-0000150787D01G03G03X0001256299Y0002223228I-0000150787D01G03G03X0001256299Y0002223228I-0000150787D01X0001256299Y0002223228I-0000150787D01X0001256299Y0002223228I-0000150787D01X0001256299Y0002223228I-0000150787D01X0001256299Y0002223228I-0000150787D01*
G01G01G01G01G01G01G01G01G01G01G01G01G01G01G01G01*
D121*
X0001210236Y0002223228D02*
G75*
G03G03G03G03X0001210236Y0002223228I-0000104724D01X0001210236Y0002223228I-0000104724D01G03G03X0001210236Y0002223228I-0000104724D01G03G03X0001210236Y0002223228I-0000104724D01X0001210236Y0002223228I-0000104724D01X0001210236Y0002223228I-0000104724D01X0001210236Y0002223228I-0000104724D01G03G03G03G03X0001210236Y0002223228I-0000104724D01X0001210236Y0002223228I-0000104724D01X0001210236Y0002223228I-0000104724D01G03G03X0001210236Y0002223228I-0000104724D01G03G03X0001210236Y0002223228I-0000104724D01X0001210236Y0002223228I-0000104724D01X0001210236Y0002223228I-0000104724D01X0001210236Y0002223228I-0000104724D01X0001210236Y0002223228I-0000104724D01*
G01G01G01G01G01G01G01G01G01G01G01G01G01G01G01G01*
D119*
X0000708660Y0002301181D02*
X0000708660Y0002144881D01*
D120*
X0000744488Y0002223228D02*
G75*
G03G03G03G03X0000744488Y0002223228I-0000150787D01X0000744488Y0002223228I-0000150787D01G03G03X0000744488Y0002223228I-0000150787D01G03G03X0000744488Y0002223228I-0000150787D01X0000744488Y0002223228I-0000150787D01X0000744488Y0002223228I-0000150787D01X0000744488Y0002223228I-0000150787D01G03G03G03G03X0000744488Y0002223228I-0000150787D01X0000744488Y0002223228I-0000150787D01X0000744488Y0002223228I-0000150787D01G03G03X0000744488Y0002223228I-0000150787D01G03G03X0000744488Y0002223228I-0000150787D01X0000744488Y0002223228I-0000150787D01X0000744488Y0002223228I-0000150787D01X0000744488Y0002223228I-0000150787D01X0000744488Y0002223228I-0000150787D01*
G01G01G01G01G01G01G01G01G01G01G01G01G01G01G01G01*
D121*
X0000698425Y0002223228D02*
G75*
G03G03G03G03X0000698425Y0002223228I-0000104724D01X0000698425Y0002223228I-0000104724D01G03G03X0000698425Y0002223228I-0000104724D01G03G03X0000698425Y0002223228I-0000104724D01X0000698425Y0002223228I-0000104724D01X0000698425Y0002223228I-0000104724D01X0000698425Y0002223228I-0000104724D01G03G03G03G03X0000698425Y0002223228I-0000104724D01X0000698425Y0002223228I-0000104724D01X0000698425Y0002223228I-0000104724D01G03G03X0000698425Y0002223228I-0000104724D01G03G03X0000698425Y0002223228I-0000104724D01X0000698425Y0002223228I-0000104724D01X0000698425Y0002223228I-0000104724D01X0000698425Y0002223228I-0000104724D01X0000698425Y0002223228I-0000104724D01*
G01G01G01G01G01G01G01G01G01G01G01G01G01G01G01G01*
D119*
X0002519685Y0002301181D02*
X0002519685Y0002144881D01*
D120*
X0002555511Y0002223228D02*
G75*
G03G03G03G03X0002555511Y0002223228I-0000150787D01X0002555511Y0002223228I-0000150787D01G03G03X0002555511Y0002223228I-0000150787D01G03G03X0002555511Y0002223228I-0000150787D01X0002555511Y0002223228I-0000150787D01X0002555511Y0002223228I-0000150787D01X0002555511Y0002223228I-0000150787D01G03G03G03G03X0002555511Y0002223228I-0000150787D01X0002555511Y0002223228I-0000150787D01X0002555511Y0002223228I-0000150787D01G03G03X0002555511Y0002223228I-0000150787D01G03G03X0002555511Y0002223228I-0000150787D01X0002555511Y0002223228I-0000150787D01X0002555511Y0002223228I-0000150787D01X0002555511Y0002223228I-0000150787D01X0002555511Y0002223228I-0000150787D01*
G01G01G01G01G01G01G01G01G01G01G01G01G01G01G01G01*
D121*
X0002509448Y0002223228D02*
G75*
G03G03G03G03X0002509448Y0002223228I-0000104724D01X0002509448Y0002223228I-0000104724D01G03G03X0002509448Y0002223228I-0000104724D01G03G03X0002509448Y0002223228I-0000104724D01X0002509448Y0002223228I-0000104724D01X0002509448Y0002223228I-0000104724D01X0002509448Y0002223228I-0000104724D01G03G03G03G03X0002509448Y0002223228I-0000104724D01X0002509448Y0002223228I-0000104724D01X0002509448Y0002223228I-0000104724D01G03G03X0002509448Y0002223228I-0000104724D01G03G03X0002509448Y0002223228I-0000104724D01X0002509448Y0002223228I-0000104724D01X0002509448Y0002223228I-0000104724D01X0002509448Y0002223228I-0000104724D01X0002509448Y0002223228I-0000104724D01*
G01G01G01G01G01G01G01G01G01G01G01G01G01G01G01G01*
D119*
X0002007874Y0002301181D02*
X0002007874Y0002144881D01*
D120*
X0002043699Y0002223228D02*
G75*
G03G03G03G03X0002043699Y0002223228I-0000150787D01X0002043699Y0002223228I-0000150787D01G03G03X0002043699Y0002223228I-0000150787D01G03G03X0002043699Y0002223228I-0000150787D01X0002043699Y0002223228I-0000150787D01X0002043699Y0002223228I-0000150787D01X0002043699Y0002223228I-0000150787D01G03G03G03G03X0002043699Y0002223228I-0000150787D01X0002043699Y0002223228I-0000150787D01X0002043699Y0002223228I-0000150787D01G03G03X0002043699Y0002223228I-0000150787D01G03G03X0002043699Y0002223228I-0000150787D01X0002043699Y0002223228I-0000150787D01X0002043699Y0002223228I-0000150787D01X0002043699Y0002223228I-0000150787D01X0002043699Y0002223228I-0000150787D01*
G01G01G01G01G01G01G01G01G01G01G01G01G01G01G01G01*
D121*
X0001997637Y0002223228D02*
G75*
G03G03G03G03X0001997637Y0002223228I-0000104724D01X0001997637Y0002223228I-0000104724D01G03G03X0001997637Y0002223228I-0000104724D01G03G03X0001997637Y0002223228I-0000104724D01X0001997637Y0002223228I-0000104724D01X0001997637Y0002223228I-0000104724D01X0001997637Y0002223228I-0000104724D01G03G03G03G03X0001997637Y0002223228I-0000104724D01X0001997637Y0002223228I-0000104724D01X0001997637Y0002223228I-0000104724D01G03G03X0001997637Y0002223228I-0000104724D01G03G03X0001997637Y0002223228I-0000104724D01X0001997637Y0002223228I-0000104724D01X0001997637Y0002223228I-0000104724D01X0001997637Y0002223228I-0000104724D01X0001997637Y0002223228I-0000104724D01*
G01G01G01G01G01G01G01G01G01G01G01G01G01G01G01G01*
D122*
G36*
X0002788375Y0002834767D02*
X0002778306Y0002760116D01*
X0000188532Y0002759332D01*
X0000189578Y0002836728D01*
X0002788375Y0002834767D01*
X0002788375Y0002834767D01*
G37*
X0002788375Y0002834767D02*
X0002778306Y0002760116D01*
X0000188532Y0002759332D01*
X0000189578Y0002836728D01*
X0002788375Y0002834767D01*
G36*
X0002760725Y0001455787D02*
X0000233323Y0001456573D01*
X0000232975Y0001532009D01*
X0002760376Y0001532793D01*
X0002760725Y0001455787D01*
X0002760725Y0001455787D01*
G37*
X0002760725Y0001455787D02*
X0000233323Y0001456573D01*
X0000232975Y0001532009D01*
X0002760376Y0001532793D01*
X0002760725Y0001455787D01*
G36*
X0002993820Y0002452062D02*
X0002984507Y0002439645D01*
X0002957086Y0002439645D01*
X0002955173Y0002439265D01*
X0002953551Y0002438181D01*
X0002952467Y0002436559D01*
X0002952086Y0002434655D01*
X0002950905Y0001859852D01*
X0002951282Y0001857938D01*
X0002952362Y0001856314D01*
X0002953982Y0001855227D01*
X0002955905Y0001854842D01*
X0002984936Y0001854842D01*
X0002993818Y0001845960D01*
X0002993818Y0001455393D01*
X0002757339Y0001455393D01*
X0002756968Y0001537021D01*
X0002756968Y0001621955D01*
X0002759935Y0001625910D01*
X0002762108Y0001626913D01*
X0002766277Y0001625524D01*
X0002789628Y0001603632D01*
X0002792804Y0001591633D01*
X0002794214Y0001589269D01*
X0002807206Y0001577063D01*
X0002808732Y0001576082D01*
X0002824086Y0001569783D01*
X0002825984Y0001569409D01*
X0002840944Y0001569409D01*
X0002843439Y0001570076D01*
X0002856431Y0001577556D01*
X0002857249Y0001578144D01*
X0002867486Y0001587199D01*
X0002868791Y0001589029D01*
X0002875484Y0001605170D01*
X0002875863Y0001607233D01*
X0002875470Y0001620619D01*
X0002875124Y0001622305D01*
X0002870006Y0001635297D01*
X0002869017Y0001636864D01*
X0002858782Y0001647890D01*
X0002857116Y0001649071D01*
X0002842610Y0001655394D01*
X0002820257Y0001677381D01*
X0002818685Y0001683670D01*
X0002820678Y0001687658D01*
X0002826456Y0001690684D01*
X0002888251Y0001691457D01*
X0002890160Y0001691861D01*
X0002891768Y0001692965D01*
X0002892831Y0001694601D01*
X0002893188Y0001696456D01*
X0002893188Y0001771259D01*
X0002892808Y0001773173D01*
X0002891723Y0001774795D01*
X0002890102Y0001775879D01*
X0002888249Y0001776259D01*
X0002796341Y0001777380D01*
X0002796729Y0002514766D01*
X0002887090Y0002516260D01*
X0002888997Y0002516672D01*
X0002890601Y0002517783D01*
X0002891658Y0002519423D01*
X0002892006Y0002521233D01*
X0002892401Y0002596824D01*
X0002892030Y0002598738D01*
X0002890955Y0002600366D01*
X0002889339Y0002601459D01*
X0002887430Y0002601850D01*
X0002822448Y0002602232D01*
X0002818922Y0002605506D01*
X0002817129Y0002608644D01*
X0002817932Y0002612058D01*
X0002840191Y0002634682D01*
X0002851755Y0002639019D01*
X0002853441Y0002640073D01*
X0002868795Y0002654640D01*
X0002870107Y0002656717D01*
X0002876013Y0002674827D01*
X0002876094Y0002677654D01*
X0002870582Y0002698521D01*
X0002869330Y0002700732D01*
X0002854763Y0002715692D01*
X0002853155Y0002716798D01*
X0002852045Y0002717129D01*
X0002829604Y0002721066D01*
X0002827527Y0002720992D01*
X0002813354Y0002717449D01*
X0002811366Y0002716439D01*
X0002797192Y0002704628D01*
X0002795788Y0002702735D01*
X0002787581Y0002683335D01*
X0002765868Y0002664567D01*
X0002763927Y0002663789D01*
X0002760869Y0002664198D01*
X0002758631Y0002666233D01*
X0002756570Y0002672121D01*
X0002756181Y0002753846D01*
X0002759520Y0002835088D01*
X0002810165Y0002834369D01*
X0002810267Y0002834369D01*
X0002994207Y0002835519D01*
X0002993820Y0002452062D01*
X0002993820Y0002452062D01*
G37*
X0002993820Y0002452062D02*
X0002984507Y0002439645D01*
X0002957086Y0002439645D01*
X0002955173Y0002439265D01*
X0002953551Y0002438181D01*
X0002952467Y0002436559D01*
X0002952086Y0002434655D01*
X0002950905Y0001859852D01*
X0002951282Y0001857938D01*
X0002952362Y0001856314D01*
X0002953982Y0001855227D01*
X0002955905Y0001854842D01*
X0002984936Y0001854842D01*
X0002993818Y0001845960D01*
X0002993818Y0001455393D01*
X0002757339Y0001455393D01*
X0002756968Y0001537021D01*
X0002756968Y0001621955D01*
X0002759935Y0001625910D01*
X0002762108Y0001626913D01*
X0002766277Y0001625524D01*
X0002789628Y0001603632D01*
X0002792804Y0001591633D01*
X0002794214Y0001589269D01*
X0002807206Y0001577063D01*
X0002808732Y0001576082D01*
X0002824086Y0001569783D01*
X0002825984Y0001569409D01*
X0002840944Y0001569409D01*
X0002843439Y0001570076D01*
X0002856431Y0001577556D01*
X0002857249Y0001578144D01*
X0002867486Y0001587199D01*
X0002868791Y0001589029D01*
X0002875484Y0001605170D01*
X0002875863Y0001607233D01*
X0002875470Y0001620619D01*
X0002875124Y0001622305D01*
X0002870006Y0001635297D01*
X0002869017Y0001636864D01*
X0002858782Y0001647890D01*
X0002857116Y0001649071D01*
X0002842610Y0001655394D01*
X0002820257Y0001677381D01*
X0002818685Y0001683670D01*
X0002820678Y0001687658D01*
X0002826456Y0001690684D01*
X0002888251Y0001691457D01*
X0002890160Y0001691861D01*
X0002891768Y0001692965D01*
X0002892831Y0001694601D01*
X0002893188Y0001696456D01*
X0002893188Y0001771259D01*
X0002892808Y0001773173D01*
X0002891723Y0001774795D01*
X0002890102Y0001775879D01*
X0002888249Y0001776259D01*
X0002796341Y0001777380D01*
X0002796729Y0002514766D01*
X0002887090Y0002516260D01*
X0002888997Y0002516672D01*
X0002890601Y0002517783D01*
X0002891658Y0002519423D01*
X0002892006Y0002521233D01*
X0002892401Y0002596824D01*
X0002892030Y0002598738D01*
X0002890955Y0002600366D01*
X0002889339Y0002601459D01*
X0002887430Y0002601850D01*
X0002822448Y0002602232D01*
X0002818922Y0002605506D01*
X0002817129Y0002608644D01*
X0002817932Y0002612058D01*
X0002840191Y0002634682D01*
X0002851755Y0002639019D01*
X0002853441Y0002640073D01*
X0002868795Y0002654640D01*
X0002870107Y0002656717D01*
X0002876013Y0002674827D01*
X0002876094Y0002677654D01*
X0002870582Y0002698521D01*
X0002869330Y0002700732D01*
X0002854763Y0002715692D01*
X0002853155Y0002716798D01*
X0002852045Y0002717129D01*
X0002829604Y0002721066D01*
X0002827527Y0002720992D01*
X0002813354Y0002717449D01*
X0002811366Y0002716439D01*
X0002797192Y0002704628D01*
X0002795788Y0002702735D01*
X0002787581Y0002683335D01*
X0002765868Y0002664567D01*
X0002763927Y0002663789D01*
X0002760869Y0002664198D01*
X0002758631Y0002666233D01*
X0002756570Y0002672121D01*
X0002756181Y0002753846D01*
X0002759520Y0002835088D01*
X0002810165Y0002834369D01*
X0002810267Y0002834369D01*
X0002994207Y0002835519D01*
X0002993820Y0002452062D01*
G36*
X0000230826Y0002756284D02*
X0000230826Y0002671351D01*
X0000227860Y0002667396D01*
X0000225686Y0002666393D01*
X0000221518Y0002667782D01*
X0000198167Y0002689674D01*
X0000194990Y0002701673D01*
X0000193580Y0002704037D01*
X0000180588Y0002716241D01*
X0000179063Y0002717224D01*
X0000163708Y0002723523D01*
X0000161811Y0002723897D01*
X0000146850Y0002723897D01*
X0000144355Y0002723230D01*
X0000131363Y0002715750D01*
X0000130545Y0002715162D01*
X0000120309Y0002706107D01*
X0000119003Y0002704276D01*
X0000112309Y0002688135D01*
X0000111931Y0002686073D01*
X0000112325Y0002672687D01*
X0000112670Y0002671002D01*
X0000117788Y0002658009D01*
X0000118776Y0002656440D01*
X0000129010Y0002645416D01*
X0000130676Y0002644235D01*
X0000145185Y0002637912D01*
X0000167537Y0002615925D01*
X0000169110Y0002609636D01*
X0000167115Y0002605648D01*
X0000161338Y0002602622D01*
X0000099543Y0002601850D01*
X0000097635Y0002601445D01*
X0000096026Y0002600341D01*
X0000094963Y0002598705D01*
X0000094606Y0002596850D01*
X0000094606Y0002522047D01*
X0000094986Y0002520133D01*
X0000096070Y0002518511D01*
X0000097692Y0002517427D01*
X0000099545Y0002517047D01*
X0000191454Y0002515926D01*
X0000191065Y0001778540D01*
X0000100704Y0001777046D01*
X0000098797Y0001776634D01*
X0000097193Y0001775523D01*
X0000096137Y0001773884D01*
X0000095787Y0001772073D01*
X0000095393Y0001696482D01*
X0000095764Y0001694567D01*
X0000096839Y0001692939D01*
X0000098456Y0001691847D01*
X0000100364Y0001691456D01*
X0000165345Y0001691074D01*
X0000168872Y0001687800D01*
X0000170666Y0001684661D01*
X0000169863Y0001681248D01*
X0000147604Y0001658624D01*
X0000136039Y0001654287D01*
X0000134353Y0001653232D01*
X0000118999Y0001638666D01*
X0000117686Y0001636588D01*
X0000111781Y0001618478D01*
X0000111701Y0001615652D01*
X0000117212Y0001594786D01*
X0000118464Y0001592574D01*
X0000133031Y0001577614D01*
X0000134639Y0001576508D01*
X0000135750Y0001576177D01*
X0000158191Y0001572240D01*
X0000160267Y0001572314D01*
X0000174441Y0001575857D01*
X0000176428Y0001576867D01*
X0000190602Y0001588678D01*
X0000192006Y0001590571D01*
X0000200213Y0001609971D01*
X0000221926Y0001628739D01*
X0000223867Y0001629516D01*
X0000226925Y0001629108D01*
X0000229163Y0001627073D01*
X0000231224Y0001621185D01*
X0000231613Y0001539460D01*
X0000228271Y0001458125D01*
X0000155501Y0001457755D01*
X-0000006412Y0001457755D01*
X-0000006025Y0001841244D01*
X0000003286Y0001853661D01*
X0000030708Y0001853661D01*
X0000032622Y0001854041D01*
X0000034244Y0001855125D01*
X0000035328Y0001856747D01*
X0000035708Y0001858651D01*
X0000036889Y0002433454D01*
X0000036513Y0002435368D01*
X0000035432Y0002436992D01*
X0000033812Y0002438080D01*
X0000031889Y0002438464D01*
X0000002858Y0002438464D01*
X-0000006023Y0002447346D01*
X-0000006023Y0002837913D01*
X0000230455Y0002837913D01*
X0000230826Y0002756284D01*
X0000230826Y0002756284D01*
G37*
X0000230826Y0002756284D02*
X0000230826Y0002671351D01*
X0000227860Y0002667396D01*
X0000225686Y0002666393D01*
X0000221518Y0002667782D01*
X0000198167Y0002689674D01*
X0000194990Y0002701673D01*
X0000193580Y0002704037D01*
X0000180588Y0002716241D01*
X0000179063Y0002717224D01*
X0000163708Y0002723523D01*
X0000161811Y0002723897D01*
X0000146850Y0002723897D01*
X0000144355Y0002723230D01*
X0000131363Y0002715750D01*
X0000130545Y0002715162D01*
X0000120309Y0002706107D01*
X0000119003Y0002704276D01*
X0000112309Y0002688135D01*
X0000111931Y0002686073D01*
X0000112325Y0002672687D01*
X0000112670Y0002671002D01*
X0000117788Y0002658009D01*
X0000118776Y0002656440D01*
X0000129010Y0002645416D01*
X0000130676Y0002644235D01*
X0000145185Y0002637912D01*
X0000167537Y0002615925D01*
X0000169110Y0002609636D01*
X0000167115Y0002605648D01*
X0000161338Y0002602622D01*
X0000099543Y0002601850D01*
X0000097635Y0002601445D01*
X0000096026Y0002600341D01*
X0000094963Y0002598705D01*
X0000094606Y0002596850D01*
X0000094606Y0002522047D01*
X0000094986Y0002520133D01*
X0000096070Y0002518511D01*
X0000097692Y0002517427D01*
X0000099545Y0002517047D01*
X0000191454Y0002515926D01*
X0000191065Y0001778540D01*
X0000100704Y0001777046D01*
X0000098797Y0001776634D01*
X0000097193Y0001775523D01*
X0000096137Y0001773884D01*
X0000095787Y0001772073D01*
X0000095393Y0001696482D01*
X0000095764Y0001694567D01*
X0000096839Y0001692939D01*
X0000098456Y0001691847D01*
X0000100364Y0001691456D01*
X0000165345Y0001691074D01*
X0000168872Y0001687800D01*
X0000170666Y0001684661D01*
X0000169863Y0001681248D01*
X0000147604Y0001658624D01*
X0000136039Y0001654287D01*
X0000134353Y0001653232D01*
X0000118999Y0001638666D01*
X0000117686Y0001636588D01*
X0000111781Y0001618478D01*
X0000111701Y0001615652D01*
X0000117212Y0001594786D01*
X0000118464Y0001592574D01*
X0000133031Y0001577614D01*
X0000134639Y0001576508D01*
X0000135750Y0001576177D01*
X0000158191Y0001572240D01*
X0000160267Y0001572314D01*
X0000174441Y0001575857D01*
X0000176428Y0001576867D01*
X0000190602Y0001588678D01*
X0000192006Y0001590571D01*
X0000200213Y0001609971D01*
X0000221926Y0001628739D01*
X0000223867Y0001629516D01*
X0000226925Y0001629108D01*
X0000229163Y0001627073D01*
X0000231224Y0001621185D01*
X0000231613Y0001539460D01*
X0000228271Y0001458125D01*
X0000155501Y0001457755D01*
X-0000006412Y0001457755D01*
X-0000006025Y0001841244D01*
X0000003286Y0001853661D01*
X0000030708Y0001853661D01*
X0000032622Y0001854041D01*
X0000034244Y0001855125D01*
X0000035328Y0001856747D01*
X0000035708Y0001858651D01*
X0000036889Y0002433454D01*
X0000036513Y0002435368D01*
X0000035432Y0002436992D01*
X0000033812Y0002438080D01*
X0000031889Y0002438464D01*
X0000002858Y0002438464D01*
X-0000006023Y0002447346D01*
X-0000006023Y0002837913D01*
X0000230455Y0002837913D01*
X0000230826Y0002756284D01*
M02*