G04 #@! TF.FileFunction,Legend,Top*
%FSLAX46Y46*%
G04 Gerber Fmt 4.6, Leading zero omitted, Abs format (unit mm)*
G04 Created by KiCad (PCBNEW no-bzr-kicad_new3d-viewer) date 06/27/16 23:32:51*
%MOMM*%
%LPD*%
G01*
G04 APERTURE LIST*
%ADD10C,0.100000*%
%ADD11C,0.300000*%
%ADD12C,0.400000*%
G04 APERTURE END LIST*
D10*
D11*
X83998891Y-74273461D02*
X84284605Y-74273461D01*
X84427462Y-74202032D01*
X84498891Y-74130604D01*
X84641748Y-73916318D01*
X84713176Y-73630604D01*
X84713176Y-73059175D01*
X84641748Y-72916318D01*
X84570319Y-72844890D01*
X84427462Y-72773461D01*
X84141748Y-72773461D01*
X83998891Y-72844890D01*
X83927462Y-72916318D01*
X83856033Y-73059175D01*
X83856033Y-73416318D01*
X83927462Y-73559175D01*
X83998891Y-73630604D01*
X84141748Y-73702032D01*
X84427462Y-73702032D01*
X84570319Y-73630604D01*
X84641748Y-73559175D01*
X84713176Y-73416318D01*
X85213176Y-72773461D02*
X86213176Y-72773461D01*
X85570319Y-74273461D01*
X86641748Y-74273461D02*
X87427462Y-73273461D01*
X86641748Y-73273461D02*
X87427462Y-74273461D01*
X88641748Y-73273461D02*
X88641748Y-74273461D01*
X88284605Y-72702032D02*
X87927462Y-73773461D01*
X88856033Y-73773461D01*
X89713176Y-72773461D02*
X89856033Y-72773461D01*
X89998891Y-72844890D01*
X90070319Y-72916318D01*
X90141748Y-73059175D01*
X90213176Y-73344890D01*
X90213176Y-73702032D01*
X90141748Y-73987747D01*
X90070319Y-74130604D01*
X89998891Y-74202032D01*
X89856033Y-74273461D01*
X89713176Y-74273461D01*
X89570319Y-74202032D01*
X89498891Y-74130604D01*
X89427462Y-73987747D01*
X89356033Y-73702032D01*
X89356033Y-73344890D01*
X89427462Y-73059175D01*
X89498891Y-72916318D01*
X89570319Y-72844890D01*
X89713176Y-72773461D01*
X90713176Y-74273461D02*
X91498891Y-73273461D01*
X90713176Y-73273461D02*
X91498891Y-74273461D01*
X92856033Y-74273461D02*
X91998891Y-74273461D01*
X92427462Y-74273461D02*
X92427462Y-72773461D01*
X92284605Y-72987747D01*
X92141748Y-73130604D01*
X91998891Y-73202032D01*
X93784605Y-72773461D02*
X93927462Y-72773461D01*
X94070319Y-72844890D01*
X94141748Y-72916318D01*
X94213176Y-73059175D01*
X94284605Y-73344890D01*
X94284605Y-73702032D01*
X94213176Y-73987747D01*
X94141748Y-74130604D01*
X94070319Y-74202032D01*
X93927462Y-74273461D01*
X93784605Y-74273461D01*
X93641748Y-74202032D01*
X93570319Y-74130604D01*
X93498891Y-73987747D01*
X93427462Y-73702032D01*
X93427462Y-73344890D01*
X93498891Y-73059175D01*
X93570319Y-72916318D01*
X93641748Y-72844890D01*
X93784605Y-72773461D01*
X95213176Y-72773461D02*
X95356033Y-72773461D01*
X95498891Y-72844890D01*
X95570319Y-72916318D01*
X95641748Y-73059175D01*
X95713176Y-73344890D01*
X95713176Y-73702032D01*
X95641748Y-73987747D01*
X95570319Y-74130604D01*
X95498891Y-74202032D01*
X95356033Y-74273461D01*
X95213176Y-74273461D01*
X95070319Y-74202032D01*
X94998891Y-74130604D01*
X94927462Y-73987747D01*
X94856033Y-73702032D01*
X94856033Y-73344890D01*
X94927462Y-73059175D01*
X94998891Y-72916318D01*
X95070319Y-72844890D01*
X95213176Y-72773461D01*
X98070319Y-74202032D02*
X97927462Y-74273461D01*
X97641748Y-74273461D01*
X97498891Y-74202032D01*
X97427462Y-74059175D01*
X97427462Y-73487747D01*
X97498891Y-73344890D01*
X97641748Y-73273461D01*
X97927462Y-73273461D01*
X98070319Y-73344890D01*
X98141748Y-73487747D01*
X98141748Y-73630604D01*
X97427462Y-73773461D01*
X98784605Y-73273461D02*
X98784605Y-74273461D01*
X98784605Y-73416318D02*
X98856033Y-73344890D01*
X98998891Y-73273461D01*
X99213176Y-73273461D01*
X99356033Y-73344890D01*
X99427462Y-73487747D01*
X99427462Y-74273461D01*
X100784605Y-74202032D02*
X100641748Y-74273461D01*
X100356033Y-74273461D01*
X100213176Y-74202032D01*
X100141748Y-74130604D01*
X100070319Y-73987747D01*
X100070319Y-73559175D01*
X100141748Y-73416318D01*
X100213176Y-73344890D01*
X100356033Y-73273461D01*
X100641748Y-73273461D01*
X100784605Y-73344890D01*
X101641748Y-74273461D02*
X101498891Y-74202032D01*
X101427462Y-74059175D01*
X101427462Y-72773461D01*
X102427462Y-74273461D02*
X102284605Y-74202032D01*
X102213176Y-74130604D01*
X102141748Y-73987747D01*
X102141748Y-73559175D01*
X102213176Y-73416318D01*
X102284605Y-73344890D01*
X102427462Y-73273461D01*
X102641748Y-73273461D01*
X102784605Y-73344890D01*
X102856033Y-73416318D01*
X102927462Y-73559175D01*
X102927462Y-73987747D01*
X102856033Y-74130604D01*
X102784605Y-74202032D01*
X102641748Y-74273461D01*
X102427462Y-74273461D01*
X103498891Y-74202032D02*
X103641748Y-74273461D01*
X103927462Y-74273461D01*
X104070319Y-74202032D01*
X104141748Y-74059175D01*
X104141748Y-73987747D01*
X104070319Y-73844890D01*
X103927462Y-73773461D01*
X103713176Y-73773461D01*
X103570319Y-73702032D01*
X103498891Y-73559175D01*
X103498891Y-73487747D01*
X103570319Y-73344890D01*
X103713176Y-73273461D01*
X103927462Y-73273461D01*
X104070319Y-73344890D01*
X105427462Y-73273461D02*
X105427462Y-74273461D01*
X104784605Y-73273461D02*
X104784605Y-74059175D01*
X104856033Y-74202032D01*
X104998891Y-74273461D01*
X105213176Y-74273461D01*
X105356033Y-74202032D01*
X105427462Y-74130604D01*
X106141748Y-74273461D02*
X106141748Y-73273461D01*
X106141748Y-73559175D02*
X106213176Y-73416318D01*
X106284605Y-73344890D01*
X106427462Y-73273461D01*
X106570319Y-73273461D01*
X107641748Y-74202032D02*
X107498891Y-74273461D01*
X107213176Y-74273461D01*
X107070319Y-74202032D01*
X106998891Y-74059175D01*
X106998891Y-73487747D01*
X107070319Y-73344890D01*
X107213176Y-73273461D01*
X107498891Y-73273461D01*
X107641748Y-73344890D01*
X107713176Y-73487747D01*
X107713176Y-73630604D01*
X106998891Y-73773461D01*
X109427462Y-74202032D02*
X109570319Y-74273461D01*
X109856033Y-74273461D01*
X109998891Y-74202032D01*
X110070319Y-74059175D01*
X110070319Y-73987747D01*
X109998891Y-73844890D01*
X109856033Y-73773461D01*
X109641748Y-73773461D01*
X109498891Y-73702032D01*
X109427462Y-73559175D01*
X109427462Y-73487747D01*
X109498891Y-73344890D01*
X109641748Y-73273461D01*
X109856033Y-73273461D01*
X109998891Y-73344890D01*
X110713176Y-73273461D02*
X110713176Y-74773461D01*
X110713176Y-73344890D02*
X110856033Y-73273461D01*
X111141748Y-73273461D01*
X111284605Y-73344890D01*
X111356033Y-73416318D01*
X111427462Y-73559175D01*
X111427462Y-73987747D01*
X111356033Y-74130604D01*
X111284605Y-74202032D01*
X111141748Y-74273461D01*
X110856033Y-74273461D01*
X110713176Y-74202032D01*
X112284605Y-74273461D02*
X112141748Y-74202032D01*
X112070319Y-74059175D01*
X112070319Y-72773461D01*
X112856034Y-74273461D02*
X112856034Y-73273461D01*
X112856034Y-72773461D02*
X112784605Y-72844890D01*
X112856034Y-72916318D01*
X112927462Y-72844890D01*
X112856034Y-72773461D01*
X112856034Y-72916318D01*
X113356033Y-73273461D02*
X113927462Y-73273461D01*
X113570319Y-72773461D02*
X113570319Y-74059175D01*
X113641748Y-74202032D01*
X113784605Y-74273461D01*
X113927462Y-74273461D01*
X115498891Y-74202032D02*
X115641748Y-74273461D01*
X115927462Y-74273461D01*
X116070319Y-74202032D01*
X116141748Y-74059175D01*
X116141748Y-73987747D01*
X116070319Y-73844890D01*
X115927462Y-73773461D01*
X115713176Y-73773461D01*
X115570319Y-73702032D01*
X115498891Y-73559175D01*
X115498891Y-73487747D01*
X115570319Y-73344890D01*
X115713176Y-73273461D01*
X115927462Y-73273461D01*
X116070319Y-73344890D01*
X116784605Y-74273461D02*
X116784605Y-72773461D01*
X117427462Y-74273461D02*
X117427462Y-73487747D01*
X117356033Y-73344890D01*
X117213176Y-73273461D01*
X116998891Y-73273461D01*
X116856033Y-73344890D01*
X116784605Y-73416318D01*
X118713176Y-74202032D02*
X118570319Y-74273461D01*
X118284605Y-74273461D01*
X118141748Y-74202032D01*
X118070319Y-74059175D01*
X118070319Y-73487747D01*
X118141748Y-73344890D01*
X118284605Y-73273461D01*
X118570319Y-73273461D01*
X118713176Y-73344890D01*
X118784605Y-73487747D01*
X118784605Y-73630604D01*
X118070319Y-73773461D01*
X119641748Y-74273461D02*
X119498891Y-74202032D01*
X119427462Y-74059175D01*
X119427462Y-72773461D01*
X120427462Y-74273461D02*
X120284605Y-74202032D01*
X120213176Y-74059175D01*
X120213176Y-72773461D01*
D12*
X107444129Y-64652032D02*
X108053653Y-64652032D01*
X107672700Y-64118699D02*
X107672700Y-65490128D01*
X107748891Y-65642509D01*
X107901272Y-65718699D01*
X108053653Y-65718699D01*
X108434605Y-65718699D02*
X109272700Y-64652032D01*
X108434605Y-64652032D02*
X109272700Y-65718699D01*
X109806034Y-64271080D02*
X109882224Y-64194890D01*
X110034605Y-64118699D01*
X110415557Y-64118699D01*
X110567938Y-64194890D01*
X110644129Y-64271080D01*
X110720319Y-64423461D01*
X110720319Y-64575842D01*
X110644129Y-64804413D01*
X109729843Y-65718699D01*
X110720319Y-65718699D01*
X112167938Y-65718699D02*
X111406034Y-65718699D01*
X111406034Y-64118699D01*
X91253653Y-64652032D02*
X91863176Y-64652032D01*
X91482224Y-64118699D02*
X91482224Y-65490128D01*
X91558414Y-65642509D01*
X91710795Y-65718699D01*
X91863176Y-65718699D01*
X92244129Y-65718699D02*
X93082224Y-64652032D01*
X92244129Y-64652032D02*
X93082224Y-65718699D01*
X93615557Y-64271080D02*
X93691748Y-64194890D01*
X93844129Y-64118699D01*
X94225081Y-64118699D01*
X94377462Y-64194890D01*
X94453653Y-64271080D01*
X94529843Y-64423461D01*
X94529843Y-64575842D01*
X94453653Y-64804413D01*
X93539367Y-65718699D01*
X94529843Y-65718699D01*
X95215557Y-65718699D02*
X95215557Y-64118699D01*
X95215557Y-64880604D02*
X96129843Y-64880604D01*
X96129843Y-65718699D02*
X96129843Y-64118699D01*
X71634605Y-65718699D02*
X71634605Y-64652032D01*
X71634605Y-64956794D02*
X71710795Y-64804413D01*
X71786986Y-64728223D01*
X71939367Y-64652032D01*
X72091748Y-64652032D01*
X72472700Y-65718699D02*
X73310795Y-64652032D01*
X72472700Y-64652032D02*
X73310795Y-65718699D01*
X73844129Y-64271080D02*
X73920319Y-64194890D01*
X74072700Y-64118699D01*
X74453653Y-64118699D01*
X74606034Y-64194890D01*
X74682224Y-64271080D01*
X74758414Y-64423461D01*
X74758414Y-64575842D01*
X74682224Y-64804413D01*
X73767938Y-65718699D01*
X74758414Y-65718699D01*
X76206034Y-65718699D02*
X75444129Y-65718699D01*
X75444129Y-64118699D01*
X55367938Y-65718699D02*
X55367938Y-64652032D01*
X55367938Y-64956794D02*
X55444129Y-64804413D01*
X55520319Y-64728223D01*
X55672700Y-64652032D01*
X55825081Y-64652032D01*
X56206034Y-65718699D02*
X57044129Y-64652032D01*
X56206034Y-64652032D02*
X57044129Y-65718699D01*
X57577462Y-64271080D02*
X57653653Y-64194890D01*
X57806034Y-64118699D01*
X58186986Y-64118699D01*
X58339367Y-64194890D01*
X58415557Y-64271080D01*
X58491748Y-64423461D01*
X58491748Y-64575842D01*
X58415557Y-64804413D01*
X57501272Y-65718699D01*
X58491748Y-65718699D01*
X59025081Y-64118699D02*
X59406034Y-65718699D01*
X59710795Y-64575842D01*
X60015557Y-65718699D01*
X60396510Y-64118699D01*
X39444129Y-65718699D02*
X39444129Y-64652032D01*
X39444129Y-64956794D02*
X39520319Y-64804413D01*
X39596510Y-64728223D01*
X39748891Y-64652032D01*
X39901272Y-64652032D01*
X40282224Y-65718699D02*
X41120319Y-64652032D01*
X40282224Y-64652032D02*
X41120319Y-65718699D01*
X41653653Y-64271080D02*
X41729843Y-64194890D01*
X41882224Y-64118699D01*
X42263176Y-64118699D01*
X42415557Y-64194890D01*
X42491748Y-64271080D01*
X42567938Y-64423461D01*
X42567938Y-64575842D01*
X42491748Y-64804413D01*
X41577462Y-65718699D01*
X42567938Y-65718699D01*
X43253653Y-65718699D02*
X43253653Y-64118699D01*
X43253653Y-64880604D02*
X44167938Y-64880604D01*
X44167938Y-65718699D02*
X44167938Y-64118699D01*
X39444129Y-49718699D02*
X39444129Y-48652032D01*
X39444129Y-48956794D02*
X39520319Y-48804413D01*
X39596510Y-48728223D01*
X39748891Y-48652032D01*
X39901272Y-48652032D01*
X40282224Y-49718699D02*
X41120319Y-48652032D01*
X40282224Y-48652032D02*
X41120319Y-49718699D01*
X42567938Y-49718699D02*
X41653653Y-49718699D01*
X42110795Y-49718699D02*
X42110795Y-48118699D01*
X41958414Y-48347270D01*
X41806034Y-48499651D01*
X41653653Y-48575842D01*
X43253653Y-49718699D02*
X43253653Y-48118699D01*
X43253653Y-48880604D02*
X44167938Y-48880604D01*
X44167938Y-49718699D02*
X44167938Y-48118699D01*
X55367938Y-49718699D02*
X55367938Y-48652032D01*
X55367938Y-48956794D02*
X55444129Y-48804413D01*
X55520319Y-48728223D01*
X55672700Y-48652032D01*
X55825081Y-48652032D01*
X56206034Y-49718699D02*
X57044129Y-48652032D01*
X56206034Y-48652032D02*
X57044129Y-49718699D01*
X58491748Y-49718699D02*
X57577462Y-49718699D01*
X58034605Y-49718699D02*
X58034605Y-48118699D01*
X57882224Y-48347270D01*
X57729843Y-48499651D01*
X57577462Y-48575842D01*
X59025081Y-48118699D02*
X59406034Y-49718699D01*
X59710795Y-48575842D01*
X60015557Y-49718699D01*
X60396510Y-48118699D01*
X71634605Y-49718699D02*
X71634605Y-48652032D01*
X71634605Y-48956794D02*
X71710795Y-48804413D01*
X71786986Y-48728223D01*
X71939367Y-48652032D01*
X72091748Y-48652032D01*
X72472700Y-49718699D02*
X73310795Y-48652032D01*
X72472700Y-48652032D02*
X73310795Y-49718699D01*
X74758414Y-49718699D02*
X73844129Y-49718699D01*
X74301272Y-49718699D02*
X74301272Y-48118699D01*
X74148891Y-48347270D01*
X73996510Y-48499651D01*
X73844129Y-48575842D01*
X76206034Y-49718699D02*
X75444129Y-49718699D01*
X75444129Y-48118699D01*
X91253653Y-48652032D02*
X91863176Y-48652032D01*
X91482224Y-48118699D02*
X91482224Y-49490128D01*
X91558414Y-49642509D01*
X91710795Y-49718699D01*
X91863176Y-49718699D01*
X92244129Y-49718699D02*
X93082224Y-48652032D01*
X92244129Y-48652032D02*
X93082224Y-49718699D01*
X94529843Y-49718699D02*
X93615557Y-49718699D01*
X94072700Y-49718699D02*
X94072700Y-48118699D01*
X93920319Y-48347270D01*
X93767938Y-48499651D01*
X93615557Y-48575842D01*
X95215557Y-49718699D02*
X95215557Y-48118699D01*
X95215557Y-48880604D02*
X96129843Y-48880604D01*
X96129843Y-49718699D02*
X96129843Y-48118699D01*
X107444129Y-48652032D02*
X108053653Y-48652032D01*
X107672700Y-48118699D02*
X107672700Y-49490128D01*
X107748891Y-49642509D01*
X107901272Y-49718699D01*
X108053653Y-49718699D01*
X108434605Y-49718699D02*
X109272700Y-48652032D01*
X108434605Y-48652032D02*
X109272700Y-49718699D01*
X110720319Y-49718699D02*
X109806034Y-49718699D01*
X110263176Y-49718699D02*
X110263176Y-48118699D01*
X110110795Y-48347270D01*
X109958414Y-48499651D01*
X109806034Y-48575842D01*
X112167938Y-49718699D02*
X111406034Y-49718699D01*
X111406034Y-48118699D01*
M02*
