G04 #@! TF.FileFunction,Legend,Bot*
%FSLAX46Y46*%
G04 Gerber Fmt 4.6, Leading zero omitted, Abs format (unit mm)*
G04 Created by KiCad (PCBNEW no-bzr-kicad_new3d-viewer) date 06/27/16 23:32:51*
%MOMM*%
%LPD*%
G01*
G04 APERTURE LIST*
%ADD10C,0.100000*%
%ADD11C,0.600000*%
%ADD12C,0.500000*%
%ADD13C,0.010000*%
G04 APERTURE END LIST*
D10*
D11*
X122636986Y-44980604D02*
X122636986Y-46694890D01*
X125136986Y-45837747D02*
X122636986Y-45837747D01*
X122636986Y-47409175D02*
X125136986Y-49409175D01*
X122636986Y-49409175D02*
X125136986Y-47409175D01*
X125136986Y-52123461D02*
X125136986Y-50409175D01*
X125136986Y-51266318D02*
X122636986Y-51266318D01*
X122994129Y-50980604D01*
X123232224Y-50694890D01*
X123351272Y-50409175D01*
X89136986Y-46766318D02*
X87946510Y-45766318D01*
X89136986Y-45052032D02*
X86636986Y-45052032D01*
X86636986Y-46194890D01*
X86756034Y-46480604D01*
X86875081Y-46623461D01*
X87113176Y-46766318D01*
X87470319Y-46766318D01*
X87708414Y-46623461D01*
X87827462Y-46480604D01*
X87946510Y-46194890D01*
X87946510Y-45052032D01*
X86636986Y-47766318D02*
X89136986Y-49766318D01*
X86636986Y-49766318D02*
X89136986Y-47766318D01*
X89136986Y-52480604D02*
X89136986Y-50766318D01*
X89136986Y-51623461D02*
X86636986Y-51623461D01*
X86994129Y-51337747D01*
X87232224Y-51052032D01*
X87351272Y-50766318D01*
X122636986Y-60980604D02*
X122636986Y-62694890D01*
X125136986Y-61837747D02*
X122636986Y-61837747D01*
X122636986Y-63409175D02*
X125136986Y-65409175D01*
X122636986Y-65409175D02*
X125136986Y-63409175D01*
X122875081Y-66409175D02*
X122756034Y-66552032D01*
X122636986Y-66837747D01*
X122636986Y-67552032D01*
X122756034Y-67837747D01*
X122875081Y-67980604D01*
X123113176Y-68123461D01*
X123351272Y-68123461D01*
X123708414Y-67980604D01*
X125136986Y-66266318D01*
X125136986Y-68123461D01*
X89136986Y-62766318D02*
X87946510Y-61766318D01*
X89136986Y-61052032D02*
X86636986Y-61052032D01*
X86636986Y-62194890D01*
X86756034Y-62480604D01*
X86875081Y-62623461D01*
X87113176Y-62766318D01*
X87470319Y-62766318D01*
X87708414Y-62623461D01*
X87827462Y-62480604D01*
X87946510Y-62194890D01*
X87946510Y-61052032D01*
X86636986Y-63766318D02*
X89136986Y-65766318D01*
X86636986Y-65766318D02*
X89136986Y-63766318D01*
X86875081Y-66766318D02*
X86756034Y-66909175D01*
X86636986Y-67194890D01*
X86636986Y-67909175D01*
X86756034Y-68194890D01*
X86875081Y-68337747D01*
X87113176Y-68480604D01*
X87351272Y-68480604D01*
X87708414Y-68337747D01*
X89136986Y-66623461D01*
X89136986Y-68480604D01*
D12*
X85456034Y-66094890D02*
X85456034Y-57344890D01*
X85456034Y-50094890D02*
X85456034Y-41344890D01*
X85456644Y-50144280D02*
G75*
G02X83356034Y-52194280I-2050610J0D01*
G01*
X83406034Y-39244280D02*
G75*
G02X85456034Y-41344890I0J-2050610D01*
G01*
X85456644Y-66144280D02*
G75*
G02X83356034Y-68194280I-2050610J0D01*
G01*
X83406034Y-55244280D02*
G75*
G02X85456034Y-57344890I0J-2050610D01*
G01*
X96456034Y-68194890D02*
G75*
G02X94406034Y-66094280I0J2050610D01*
G01*
X94406034Y-66094890D02*
X94406034Y-57244890D01*
X94405424Y-57244890D02*
G75*
G02X96506034Y-55194890I2050610J0D01*
G01*
X119406034Y-55244890D02*
X96506034Y-55194890D01*
X119406034Y-55244280D02*
G75*
G02X121456034Y-57344890I0J-2050610D01*
G01*
X121456034Y-66094890D02*
X121456034Y-57344890D01*
X121456644Y-66144280D02*
G75*
G02X119356034Y-68194280I-2050610J0D01*
G01*
X112156034Y-68194890D02*
X103706034Y-68194890D01*
X94405424Y-41244890D02*
G75*
G02X96506034Y-39194890I2050610J0D01*
G01*
X94406034Y-50094890D02*
X94406034Y-41244890D01*
X96456034Y-52194890D02*
G75*
G02X94406034Y-50094280I0J2050610D01*
G01*
X112156034Y-52194890D02*
X103706034Y-52194890D01*
X119406034Y-39244890D02*
X96506034Y-39194890D01*
X119406034Y-39244280D02*
G75*
G02X121456034Y-41344890I0J-2050610D01*
G01*
X121456034Y-50094890D02*
X121456034Y-41344890D01*
X121456644Y-50144280D02*
G75*
G02X119356034Y-52194280I-2050610J0D01*
G01*
X76156034Y-68194890D02*
X67706034Y-68194890D01*
X60156034Y-68194890D02*
X51706034Y-68194890D01*
X42406034Y-66094890D02*
X42406034Y-57244890D01*
X44456034Y-68194890D02*
G75*
G02X42406034Y-66094280I0J2050610D01*
G01*
X42405424Y-57244890D02*
G75*
G02X44506034Y-55194890I2050610J0D01*
G01*
X83406034Y-55244890D02*
X44506034Y-55194890D01*
X44456034Y-52194890D02*
G75*
G02X42406034Y-50094280I0J2050610D01*
G01*
X42405424Y-41244890D02*
G75*
G02X44506034Y-39194890I2050610J0D01*
G01*
X42406034Y-50094890D02*
X42406034Y-41244890D01*
X60156034Y-52194890D02*
X51706034Y-52194890D01*
X76156034Y-52194890D02*
X67706034Y-52194890D01*
X83406034Y-39244890D02*
X44506034Y-39194890D01*
X115286986Y-69249651D02*
X116239367Y-69249651D01*
X116239367Y-67249651D01*
X100477462Y-69249651D02*
X100477462Y-67249651D01*
X100477462Y-68202032D02*
X99334605Y-68202032D01*
X99334605Y-69249651D02*
X99334605Y-67249651D01*
D11*
X115132224Y-53475842D02*
X116322700Y-53475842D01*
X116322700Y-50975842D01*
D12*
X100477462Y-53249651D02*
X100477462Y-51249651D01*
X100477462Y-52202032D02*
X99334605Y-52202032D01*
X99334605Y-53249651D02*
X99334605Y-51249651D01*
X48477462Y-69249651D02*
X48477462Y-67249651D01*
X48477462Y-68202032D02*
X47334605Y-68202032D01*
X47334605Y-69249651D02*
X47334605Y-67249651D01*
X64763176Y-67249651D02*
X64286986Y-69249651D01*
X63906034Y-67821080D01*
X63525081Y-69249651D01*
X63048891Y-67249651D01*
X79286986Y-69249651D02*
X80239367Y-69249651D01*
X80239367Y-67249651D01*
X48477462Y-53249651D02*
X48477462Y-51249651D01*
X48477462Y-52202032D02*
X47334605Y-52202032D01*
X47334605Y-53249651D02*
X47334605Y-51249651D01*
X64763176Y-51249651D02*
X64286986Y-53249651D01*
X63906034Y-51821080D01*
X63525081Y-53249651D01*
X63048891Y-51249651D01*
X79286986Y-53249651D02*
X80239367Y-53249651D01*
X80239367Y-51249651D01*
X63906034Y-75452032D02*
X65334605Y-75452032D01*
X65334605Y-72452032D01*
X62906034Y-75452032D02*
X62906034Y-73452032D01*
X62906034Y-72452032D02*
X63048891Y-72594890D01*
X62906034Y-72737747D01*
X62763176Y-72594890D01*
X62906034Y-72452032D01*
X62906034Y-72737747D01*
X61477462Y-75452032D02*
X61477462Y-73452032D01*
X61477462Y-73737747D02*
X61334605Y-73594890D01*
X61048891Y-73452032D01*
X60620319Y-73452032D01*
X60334605Y-73594890D01*
X60191748Y-73880604D01*
X60191748Y-75452032D01*
X60191748Y-73880604D02*
X60048891Y-73594890D01*
X59763176Y-73452032D01*
X59334605Y-73452032D01*
X59048891Y-73594890D01*
X58906034Y-73880604D01*
X58906034Y-75452032D01*
X56334605Y-75309175D02*
X56620319Y-75452032D01*
X57191748Y-75452032D01*
X57477462Y-75309175D01*
X57620319Y-75023461D01*
X57620319Y-73880604D01*
X57477462Y-73594890D01*
X57191748Y-73452032D01*
X56620319Y-73452032D01*
X56334605Y-73594890D01*
X56191748Y-73880604D01*
X56191748Y-74166318D01*
X57620319Y-74452032D01*
X55048891Y-75309175D02*
X54620319Y-75452032D01*
X53906034Y-75452032D01*
X53620319Y-75309175D01*
X53477462Y-75166318D01*
X53334605Y-74880604D01*
X53334605Y-74594890D01*
X53477462Y-74309175D01*
X53620319Y-74166318D01*
X53906034Y-74023461D01*
X54477462Y-73880604D01*
X54763176Y-73737747D01*
X54906034Y-73594890D01*
X55048891Y-73309175D01*
X55048891Y-73023461D01*
X54906034Y-72737747D01*
X54763176Y-72594890D01*
X54477462Y-72452032D01*
X53763176Y-72452032D01*
X53334605Y-72594890D01*
X52048891Y-75452032D02*
X52048891Y-72452032D01*
X51334605Y-72452032D01*
X50906034Y-72594890D01*
X50620319Y-72880604D01*
X50477462Y-73166318D01*
X50334605Y-73737747D01*
X50334605Y-74166318D01*
X50477462Y-74737747D01*
X50620319Y-75023461D01*
X50906034Y-75309175D01*
X51334605Y-75452032D01*
X52048891Y-75452032D01*
X47334605Y-75452032D02*
X48334605Y-74023461D01*
X49048891Y-75452032D02*
X49048891Y-72452032D01*
X47906034Y-72452032D01*
X47620319Y-72594890D01*
X47477462Y-72737747D01*
X47334605Y-73023461D01*
X47334605Y-73452032D01*
X47477462Y-73737747D01*
X47620319Y-73880604D01*
X47906034Y-74023461D01*
X49048891Y-74023461D01*
D13*
G36*
X69160077Y-74853087D02*
X69123515Y-74864551D01*
X69082903Y-74891803D01*
X69032466Y-74941508D01*
X68966433Y-75020331D01*
X68879031Y-75134937D01*
X68764488Y-75291991D01*
X68617029Y-75498158D01*
X68522653Y-75630890D01*
X68374540Y-75840289D01*
X68241231Y-76030499D01*
X68128268Y-76193475D01*
X68041187Y-76321172D01*
X67985529Y-76405545D01*
X67966804Y-76438247D01*
X67983007Y-76465912D01*
X68038893Y-76435535D01*
X68135244Y-76346576D01*
X68204842Y-76273482D01*
X68379056Y-76084371D01*
X68518303Y-75930668D01*
X68637526Y-75795097D01*
X68751665Y-75660378D01*
X68875659Y-75509234D01*
X69010802Y-75341421D01*
X69127713Y-75192153D01*
X69225023Y-75061399D01*
X69295004Y-74960065D01*
X69329927Y-74899059D01*
X69332211Y-74887849D01*
X69291343Y-74862665D01*
X69208243Y-74850869D01*
X69198360Y-74850747D01*
X69160077Y-74853087D01*
X69160077Y-74853087D01*
G37*
X69160077Y-74853087D02*
X69123515Y-74864551D01*
X69082903Y-74891803D01*
X69032466Y-74941508D01*
X68966433Y-75020331D01*
X68879031Y-75134937D01*
X68764488Y-75291991D01*
X68617029Y-75498158D01*
X68522653Y-75630890D01*
X68374540Y-75840289D01*
X68241231Y-76030499D01*
X68128268Y-76193475D01*
X68041187Y-76321172D01*
X67985529Y-76405545D01*
X67966804Y-76438247D01*
X67983007Y-76465912D01*
X68038893Y-76435535D01*
X68135244Y-76346576D01*
X68204842Y-76273482D01*
X68379056Y-76084371D01*
X68518303Y-75930668D01*
X68637526Y-75795097D01*
X68751665Y-75660378D01*
X68875659Y-75509234D01*
X69010802Y-75341421D01*
X69127713Y-75192153D01*
X69225023Y-75061399D01*
X69295004Y-74960065D01*
X69329927Y-74899059D01*
X69332211Y-74887849D01*
X69291343Y-74862665D01*
X69208243Y-74850869D01*
X69198360Y-74850747D01*
X69160077Y-74853087D01*
G36*
X72520862Y-70315196D02*
X72448650Y-70381971D01*
X72340089Y-70502369D01*
X72279888Y-70573031D01*
X72176823Y-70695085D01*
X72088832Y-70798701D01*
X72028062Y-70869603D01*
X72009694Y-70890531D01*
X71975559Y-70930666D01*
X71903351Y-71017302D01*
X71801025Y-71140836D01*
X71676539Y-71291662D01*
X71539609Y-71458033D01*
X71383940Y-71645109D01*
X71225453Y-71831513D01*
X71077018Y-72002390D01*
X70951504Y-72142884D01*
X70879520Y-72220033D01*
X70771072Y-72331111D01*
X70698947Y-72397511D01*
X70649249Y-72426943D01*
X70608080Y-72427115D01*
X70561544Y-72405737D01*
X70553137Y-72401090D01*
X70455705Y-72323599D01*
X70378355Y-72205120D01*
X70315528Y-72034646D01*
X70268961Y-71838508D01*
X70221843Y-71604756D01*
X70185996Y-71432746D01*
X70158632Y-71313022D01*
X70136965Y-71236128D01*
X70118206Y-71192610D01*
X70099568Y-71173013D01*
X70078265Y-71167880D01*
X70071227Y-71167747D01*
X70042977Y-71179846D01*
X70020454Y-71223752D01*
X70000655Y-71310878D01*
X69980577Y-71452636D01*
X69968165Y-71559490D01*
X69949845Y-71737368D01*
X69935265Y-71903847D01*
X69926286Y-72036231D01*
X69924328Y-72094705D01*
X69906538Y-72253349D01*
X69859457Y-72445036D01*
X69791755Y-72640952D01*
X69712100Y-72812288D01*
X69704228Y-72826235D01*
X69654914Y-72930225D01*
X69644756Y-72995262D01*
X69672091Y-73012947D01*
X69733883Y-72976046D01*
X69772356Y-72947945D01*
X69832374Y-72912856D01*
X69924291Y-72865517D01*
X70058458Y-72800666D01*
X70245229Y-72713043D01*
X70316654Y-72679864D01*
X70400269Y-72657435D01*
X70522582Y-72642528D01*
X70600946Y-72639201D01*
X70724143Y-72642968D01*
X70802328Y-72663372D01*
X70862688Y-72709709D01*
X70887638Y-72737248D01*
X70954651Y-72842564D01*
X70996112Y-72956900D01*
X70996379Y-72958297D01*
X70989800Y-73096197D01*
X70927260Y-73277931D01*
X70809568Y-73502131D01*
X70637534Y-73767426D01*
X70411970Y-74072447D01*
X70135184Y-74414040D01*
X70023823Y-74555871D01*
X69959013Y-74659941D01*
X69944152Y-74720750D01*
X69944746Y-74722468D01*
X69963674Y-74789548D01*
X69987089Y-74897304D01*
X69998779Y-74959605D01*
X70017033Y-75054970D01*
X70039556Y-75153478D01*
X70070806Y-75272163D01*
X70115237Y-75428057D01*
X70169027Y-75610383D01*
X70210592Y-75699640D01*
X70259705Y-75733577D01*
X70305017Y-75704410D01*
X70305353Y-75703871D01*
X70316435Y-75654932D01*
X70330055Y-75547745D01*
X70344723Y-75396522D01*
X70358951Y-75215474D01*
X70363493Y-75148598D01*
X70388203Y-74850182D01*
X70420981Y-74612848D01*
X70464849Y-74425280D01*
X70522828Y-74276165D01*
X70597940Y-74154187D01*
X70643904Y-74098688D01*
X70725710Y-74013197D01*
X70805718Y-73945462D01*
X70893955Y-73892859D01*
X71000448Y-73852765D01*
X71135224Y-73822556D01*
X71308310Y-73799608D01*
X71529733Y-73781298D01*
X71809519Y-73765003D01*
X71945138Y-73758212D01*
X72133480Y-73747370D01*
X72297250Y-73734819D01*
X72422077Y-73721893D01*
X72493589Y-73709929D01*
X72503143Y-73706355D01*
X72530601Y-73664422D01*
X72501272Y-73623923D01*
X72429567Y-73600349D01*
X72403174Y-73598890D01*
X72271722Y-73585526D01*
X72104152Y-73549617D01*
X71919457Y-73497435D01*
X71736631Y-73435253D01*
X71574667Y-73369344D01*
X71452557Y-73305981D01*
X71402965Y-73268546D01*
X71338933Y-73198288D01*
X71321269Y-73146916D01*
X71342617Y-73084524D01*
X71352770Y-73064509D01*
X71430166Y-72959903D01*
X71568774Y-72828052D01*
X71769965Y-72667796D01*
X72035112Y-72477978D01*
X72101807Y-72432378D01*
X72274598Y-72316980D01*
X72475750Y-72185664D01*
X72689946Y-72048133D01*
X72901870Y-71914089D01*
X73096206Y-71793237D01*
X73257637Y-71695278D01*
X73352079Y-71640319D01*
X73488767Y-71561336D01*
X73572238Y-71506285D01*
X73614045Y-71466364D01*
X73625742Y-71432774D01*
X73625748Y-71431878D01*
X73596309Y-71433471D01*
X73507567Y-71467713D01*
X73358891Y-71534915D01*
X73149648Y-71635384D01*
X72879205Y-71769429D01*
X72546930Y-71937361D01*
X72152189Y-72139487D01*
X71727323Y-72359016D01*
X71567750Y-72438295D01*
X71458458Y-72483222D01*
X71388044Y-72497672D01*
X71348482Y-72487823D01*
X71292846Y-72439488D01*
X71277892Y-72415463D01*
X71282557Y-72390824D01*
X71306503Y-72339357D01*
X71352143Y-72257206D01*
X71421893Y-72140516D01*
X71518168Y-71985433D01*
X71643381Y-71788100D01*
X71799949Y-71544662D01*
X71990286Y-71251265D01*
X72216806Y-70904054D01*
X72397809Y-70627505D01*
X72476472Y-70504111D01*
X72536929Y-70402937D01*
X72569973Y-70339671D01*
X72573463Y-70328148D01*
X72561030Y-70298453D01*
X72520862Y-70315196D01*
X72520862Y-70315196D01*
G37*
X72520862Y-70315196D02*
X72448650Y-70381971D01*
X72340089Y-70502369D01*
X72279888Y-70573031D01*
X72176823Y-70695085D01*
X72088832Y-70798701D01*
X72028062Y-70869603D01*
X72009694Y-70890531D01*
X71975559Y-70930666D01*
X71903351Y-71017302D01*
X71801025Y-71140836D01*
X71676539Y-71291662D01*
X71539609Y-71458033D01*
X71383940Y-71645109D01*
X71225453Y-71831513D01*
X71077018Y-72002390D01*
X70951504Y-72142884D01*
X70879520Y-72220033D01*
X70771072Y-72331111D01*
X70698947Y-72397511D01*
X70649249Y-72426943D01*
X70608080Y-72427115D01*
X70561544Y-72405737D01*
X70553137Y-72401090D01*
X70455705Y-72323599D01*
X70378355Y-72205120D01*
X70315528Y-72034646D01*
X70268961Y-71838508D01*
X70221843Y-71604756D01*
X70185996Y-71432746D01*
X70158632Y-71313022D01*
X70136965Y-71236128D01*
X70118206Y-71192610D01*
X70099568Y-71173013D01*
X70078265Y-71167880D01*
X70071227Y-71167747D01*
X70042977Y-71179846D01*
X70020454Y-71223752D01*
X70000655Y-71310878D01*
X69980577Y-71452636D01*
X69968165Y-71559490D01*
X69949845Y-71737368D01*
X69935265Y-71903847D01*
X69926286Y-72036231D01*
X69924328Y-72094705D01*
X69906538Y-72253349D01*
X69859457Y-72445036D01*
X69791755Y-72640952D01*
X69712100Y-72812288D01*
X69704228Y-72826235D01*
X69654914Y-72930225D01*
X69644756Y-72995262D01*
X69672091Y-73012947D01*
X69733883Y-72976046D01*
X69772356Y-72947945D01*
X69832374Y-72912856D01*
X69924291Y-72865517D01*
X70058458Y-72800666D01*
X70245229Y-72713043D01*
X70316654Y-72679864D01*
X70400269Y-72657435D01*
X70522582Y-72642528D01*
X70600946Y-72639201D01*
X70724143Y-72642968D01*
X70802328Y-72663372D01*
X70862688Y-72709709D01*
X70887638Y-72737248D01*
X70954651Y-72842564D01*
X70996112Y-72956900D01*
X70996379Y-72958297D01*
X70989800Y-73096197D01*
X70927260Y-73277931D01*
X70809568Y-73502131D01*
X70637534Y-73767426D01*
X70411970Y-74072447D01*
X70135184Y-74414040D01*
X70023823Y-74555871D01*
X69959013Y-74659941D01*
X69944152Y-74720750D01*
X69944746Y-74722468D01*
X69963674Y-74789548D01*
X69987089Y-74897304D01*
X69998779Y-74959605D01*
X70017033Y-75054970D01*
X70039556Y-75153478D01*
X70070806Y-75272163D01*
X70115237Y-75428057D01*
X70169027Y-75610383D01*
X70210592Y-75699640D01*
X70259705Y-75733577D01*
X70305017Y-75704410D01*
X70305353Y-75703871D01*
X70316435Y-75654932D01*
X70330055Y-75547745D01*
X70344723Y-75396522D01*
X70358951Y-75215474D01*
X70363493Y-75148598D01*
X70388203Y-74850182D01*
X70420981Y-74612848D01*
X70464849Y-74425280D01*
X70522828Y-74276165D01*
X70597940Y-74154187D01*
X70643904Y-74098688D01*
X70725710Y-74013197D01*
X70805718Y-73945462D01*
X70893955Y-73892859D01*
X71000448Y-73852765D01*
X71135224Y-73822556D01*
X71308310Y-73799608D01*
X71529733Y-73781298D01*
X71809519Y-73765003D01*
X71945138Y-73758212D01*
X72133480Y-73747370D01*
X72297250Y-73734819D01*
X72422077Y-73721893D01*
X72493589Y-73709929D01*
X72503143Y-73706355D01*
X72530601Y-73664422D01*
X72501272Y-73623923D01*
X72429567Y-73600349D01*
X72403174Y-73598890D01*
X72271722Y-73585526D01*
X72104152Y-73549617D01*
X71919457Y-73497435D01*
X71736631Y-73435253D01*
X71574667Y-73369344D01*
X71452557Y-73305981D01*
X71402965Y-73268546D01*
X71338933Y-73198288D01*
X71321269Y-73146916D01*
X71342617Y-73084524D01*
X71352770Y-73064509D01*
X71430166Y-72959903D01*
X71568774Y-72828052D01*
X71769965Y-72667796D01*
X72035112Y-72477978D01*
X72101807Y-72432378D01*
X72274598Y-72316980D01*
X72475750Y-72185664D01*
X72689946Y-72048133D01*
X72901870Y-71914089D01*
X73096206Y-71793237D01*
X73257637Y-71695278D01*
X73352079Y-71640319D01*
X73488767Y-71561336D01*
X73572238Y-71506285D01*
X73614045Y-71466364D01*
X73625742Y-71432774D01*
X73625748Y-71431878D01*
X73596309Y-71433471D01*
X73507567Y-71467713D01*
X73358891Y-71534915D01*
X73149648Y-71635384D01*
X72879205Y-71769429D01*
X72546930Y-71937361D01*
X72152189Y-72139487D01*
X71727323Y-72359016D01*
X71567750Y-72438295D01*
X71458458Y-72483222D01*
X71388044Y-72497672D01*
X71348482Y-72487823D01*
X71292846Y-72439488D01*
X71277892Y-72415463D01*
X71282557Y-72390824D01*
X71306503Y-72339357D01*
X71352143Y-72257206D01*
X71421893Y-72140516D01*
X71518168Y-71985433D01*
X71643381Y-71788100D01*
X71799949Y-71544662D01*
X71990286Y-71251265D01*
X72216806Y-70904054D01*
X72397809Y-70627505D01*
X72476472Y-70504111D01*
X72536929Y-70402937D01*
X72569973Y-70339671D01*
X72573463Y-70328148D01*
X72561030Y-70298453D01*
X72520862Y-70315196D01*
G36*
X68855249Y-74188349D02*
X68747316Y-74232475D01*
X68582658Y-74316285D01*
X68554688Y-74331320D01*
X68386120Y-74426221D01*
X68197167Y-74538966D01*
X67997385Y-74663150D01*
X67796332Y-74792370D01*
X67603565Y-74920221D01*
X67428640Y-75040299D01*
X67281115Y-75146198D01*
X67170547Y-75231514D01*
X67106492Y-75289842D01*
X67094320Y-75309978D01*
X67104314Y-75331555D01*
X67139725Y-75332535D01*
X67208696Y-75309801D01*
X67319369Y-75260238D01*
X67479886Y-75180728D01*
X67620463Y-75108587D01*
X67942051Y-74939592D01*
X68204403Y-74795343D01*
X68414627Y-74671187D01*
X68579836Y-74562469D01*
X68707140Y-74464534D01*
X68803650Y-74372726D01*
X68871257Y-74289811D01*
X68913965Y-74217444D01*
X68909714Y-74183481D01*
X68855249Y-74188349D01*
X68855249Y-74188349D01*
G37*
X68855249Y-74188349D02*
X68747316Y-74232475D01*
X68582658Y-74316285D01*
X68554688Y-74331320D01*
X68386120Y-74426221D01*
X68197167Y-74538966D01*
X67997385Y-74663150D01*
X67796332Y-74792370D01*
X67603565Y-74920221D01*
X67428640Y-75040299D01*
X67281115Y-75146198D01*
X67170547Y-75231514D01*
X67106492Y-75289842D01*
X67094320Y-75309978D01*
X67104314Y-75331555D01*
X67139725Y-75332535D01*
X67208696Y-75309801D01*
X67319369Y-75260238D01*
X67479886Y-75180728D01*
X67620463Y-75108587D01*
X67942051Y-74939592D01*
X68204403Y-74795343D01*
X68414627Y-74671187D01*
X68579836Y-74562469D01*
X68707140Y-74464534D01*
X68803650Y-74372726D01*
X68871257Y-74289811D01*
X68913965Y-74217444D01*
X68909714Y-74183481D01*
X68855249Y-74188349D01*
G36*
X69465907Y-73068508D02*
X69393488Y-73079188D01*
X69264505Y-73092409D01*
X69094858Y-73106758D01*
X68900446Y-73120820D01*
X68817891Y-73126137D01*
X68487784Y-73147498D01*
X68224788Y-73166623D01*
X68023499Y-73184074D01*
X67878510Y-73200409D01*
X67784416Y-73216191D01*
X67735811Y-73231981D01*
X67727312Y-73239281D01*
X67743740Y-73267892D01*
X67809479Y-73292894D01*
X67919351Y-73320428D01*
X68062234Y-73360151D01*
X68218808Y-73406200D01*
X68369757Y-73452717D01*
X68495762Y-73493840D01*
X68577506Y-73523709D01*
X68591584Y-73530155D01*
X68661264Y-73552032D01*
X68775179Y-73573734D01*
X68874625Y-73586714D01*
X69093687Y-73609610D01*
X69287657Y-73409347D01*
X69388113Y-73300907D01*
X69472108Y-73201734D01*
X69522928Y-73131669D01*
X69525632Y-73126860D01*
X69550942Y-73070357D01*
X69530434Y-73056299D01*
X69465907Y-73068508D01*
X69465907Y-73068508D01*
G37*
X69465907Y-73068508D02*
X69393488Y-73079188D01*
X69264505Y-73092409D01*
X69094858Y-73106758D01*
X68900446Y-73120820D01*
X68817891Y-73126137D01*
X68487784Y-73147498D01*
X68224788Y-73166623D01*
X68023499Y-73184074D01*
X67878510Y-73200409D01*
X67784416Y-73216191D01*
X67735811Y-73231981D01*
X67727312Y-73239281D01*
X67743740Y-73267892D01*
X67809479Y-73292894D01*
X67919351Y-73320428D01*
X68062234Y-73360151D01*
X68218808Y-73406200D01*
X68369757Y-73452717D01*
X68495762Y-73493840D01*
X68577506Y-73523709D01*
X68591584Y-73530155D01*
X68661264Y-73552032D01*
X68775179Y-73573734D01*
X68874625Y-73586714D01*
X69093687Y-73609610D01*
X69287657Y-73409347D01*
X69388113Y-73300907D01*
X69472108Y-73201734D01*
X69522928Y-73131669D01*
X69525632Y-73126860D01*
X69550942Y-73070357D01*
X69530434Y-73056299D01*
X69465907Y-73068508D01*
M02*
