G04 #@! TF.FileFunction,Copper,L2,Bot,Signal*
%FSLAX46Y46*%
G04 Gerber Fmt 4.6, Leading zero omitted, Abs format (unit mm)*
G04 Created by KiCad (PCBNEW (2016-07-22 BZR 6991, Git 146a78a)-product) date 08/19/16 17:40:47*
%MOMM*%
%LPD*%
G01*
G04 APERTURE LIST*
%ADD10C,0.150000*%
%ADD11C,0.800000*%
%ADD12C,0.254000*%
G04 APERTURE END LIST*
D10*
D11*
X61950000Y-21630000D03*
X62465802Y-19705000D03*
X63875000Y-18295802D03*
X65800000Y-17780000D03*
X67725000Y-18295802D03*
X69134198Y-19705000D03*
X69650000Y-21630000D03*
X69134198Y-23555000D03*
X67725000Y-24964198D03*
X65800000Y-25480000D03*
X63875000Y-24964198D03*
X62465802Y-23555000D03*
X48950000Y-21630000D03*
X49465802Y-19705000D03*
X50875000Y-18295802D03*
X52800000Y-17780000D03*
X54725000Y-18295802D03*
X56134198Y-19705000D03*
X56650000Y-21630000D03*
X56134198Y-23555000D03*
X54725000Y-24964198D03*
X52800000Y-25480000D03*
X50875000Y-24964198D03*
X49465802Y-23555000D03*
X61950000Y-7630000D03*
X62465802Y-5705000D03*
X63875000Y-4295802D03*
X65800000Y-3780000D03*
X67725000Y-4295802D03*
X69134198Y-5705000D03*
X69650000Y-7630000D03*
X69134198Y-9555000D03*
X67725000Y-10964198D03*
X65800000Y-11480000D03*
X63875000Y-10964198D03*
X62465802Y-9555000D03*
X48950000Y-7630000D03*
X49465802Y-5705000D03*
X50875000Y-4295802D03*
X52800000Y-3780000D03*
X54725000Y-4295802D03*
X56134198Y-5705000D03*
X56650000Y-7630000D03*
X56134198Y-9555000D03*
X54725000Y-10964198D03*
X52800000Y-11480000D03*
X50875000Y-10964198D03*
X49465802Y-9555000D03*
X34950000Y-21630000D03*
X35465802Y-19705000D03*
X36875000Y-18295802D03*
X38800000Y-17780000D03*
X40725000Y-18295802D03*
X42134198Y-19705000D03*
X42650000Y-21630000D03*
X42134198Y-23555000D03*
X40725000Y-24964198D03*
X38800000Y-25480000D03*
X36875000Y-24964198D03*
X35465802Y-23555000D03*
X21950000Y-21630000D03*
X22465802Y-19705000D03*
X23875000Y-18295802D03*
X25800000Y-17780000D03*
X27725000Y-18295802D03*
X29134198Y-19705000D03*
X29650000Y-21630000D03*
X29134198Y-23555000D03*
X27725000Y-24964198D03*
X25800000Y-25480000D03*
X23875000Y-24964198D03*
X22465802Y-23555000D03*
X8950000Y-21630000D03*
X9465802Y-19705000D03*
X10875000Y-18295802D03*
X12800000Y-17780000D03*
X14725000Y-18295802D03*
X16134198Y-19705000D03*
X16650000Y-21630000D03*
X16134198Y-23555000D03*
X14725000Y-24964198D03*
X12800000Y-25480000D03*
X10875000Y-24964198D03*
X9465802Y-23555000D03*
X34950000Y-7630000D03*
X35465802Y-5705000D03*
X36875000Y-4295802D03*
X38800000Y-3780000D03*
X40725000Y-4295802D03*
X42134198Y-5705000D03*
X42650000Y-7630000D03*
X42134198Y-9555000D03*
X40725000Y-10964198D03*
X38800000Y-11480000D03*
X36875000Y-10964198D03*
X35465802Y-9555000D03*
X21950000Y-7630000D03*
X22465802Y-5705000D03*
X23875000Y-4295802D03*
X25800000Y-3780000D03*
X27725000Y-4295802D03*
X29134198Y-5705000D03*
X29650000Y-7630000D03*
X29134198Y-9555000D03*
X27725000Y-10964198D03*
X25800000Y-11480000D03*
X23875000Y-10964198D03*
X22465802Y-9555000D03*
X8950000Y-7630000D03*
X9465802Y-5705000D03*
X10875000Y-4295802D03*
X12800000Y-3780000D03*
X14725000Y-4295802D03*
X16134198Y-5705000D03*
X16650000Y-7630000D03*
X16134198Y-9555000D03*
X14725000Y-10964198D03*
X12800000Y-11480000D03*
X10875000Y-10964198D03*
X9465802Y-9555000D03*
D12*
G36*
X75779429Y-1158592D02*
X76541926Y-1668077D01*
X77051408Y-2430571D01*
X77233000Y-3343495D01*
X77233000Y-33326505D01*
X77051408Y-34239429D01*
X76541926Y-35001923D01*
X75779429Y-35511408D01*
X74866495Y-35693002D01*
X3883485Y-35702998D01*
X2970571Y-35521408D01*
X2208077Y-35011926D01*
X1698592Y-34249429D01*
X1517000Y-33336505D01*
X1517000Y-32140000D01*
X3708000Y-32140000D01*
X3822333Y-32714791D01*
X4147926Y-33202074D01*
X4635209Y-33527667D01*
X5210000Y-33642000D01*
X5784791Y-33527667D01*
X6272074Y-33202074D01*
X6597667Y-32714791D01*
X6712000Y-32140000D01*
X6704044Y-32100000D01*
X71788000Y-32100000D01*
X71902333Y-32674791D01*
X72227926Y-33162074D01*
X72715209Y-33487667D01*
X73290000Y-33602000D01*
X73864791Y-33487667D01*
X74352074Y-33162074D01*
X74677667Y-32674791D01*
X74792000Y-32100000D01*
X74677667Y-31525209D01*
X74352074Y-31037926D01*
X73864791Y-30712333D01*
X73290000Y-30598000D01*
X72715209Y-30712333D01*
X72227926Y-31037926D01*
X71902333Y-31525209D01*
X71788000Y-32100000D01*
X6704044Y-32100000D01*
X6597667Y-31565209D01*
X6272074Y-31077926D01*
X5784791Y-30752333D01*
X5210000Y-30638000D01*
X4635209Y-30752333D01*
X4147926Y-31077926D01*
X3822333Y-31565209D01*
X3708000Y-32140000D01*
X1517000Y-32140000D01*
X1517000Y-22259019D01*
X9408948Y-22259019D01*
X9424207Y-22336344D01*
X9424208Y-22336345D01*
X9907791Y-23508833D01*
X9907792Y-23508838D01*
X9913618Y-23517585D01*
X9951481Y-23574438D01*
X9951484Y-23574440D01*
X10846946Y-24472616D01*
X10846948Y-24472619D01*
X10873222Y-24490233D01*
X10912415Y-24516507D01*
X10912420Y-24516508D01*
X12083435Y-25003636D01*
X12083439Y-25003639D01*
X12160717Y-25019132D01*
X13429019Y-25021052D01*
X13506344Y-25005793D01*
X13506346Y-25005791D01*
X14678833Y-24522209D01*
X14678838Y-24522208D01*
X14718214Y-24495984D01*
X14744438Y-24478519D01*
X14744440Y-24478516D01*
X15642619Y-23583051D01*
X15642704Y-23582924D01*
X15642836Y-23582836D01*
X15664752Y-23550037D01*
X15686507Y-23517585D01*
X15686538Y-23517431D01*
X15686624Y-23517302D01*
X15694181Y-23479310D01*
X15702001Y-23440306D01*
X15701970Y-23440150D01*
X15702000Y-23440000D01*
X15702000Y-22259019D01*
X22408948Y-22259019D01*
X22424207Y-22336344D01*
X22424208Y-22336345D01*
X22907791Y-23508833D01*
X22907792Y-23508838D01*
X22913618Y-23517585D01*
X22951481Y-23574438D01*
X22951484Y-23574440D01*
X23846946Y-24472616D01*
X23846948Y-24472619D01*
X23873222Y-24490233D01*
X23912415Y-24516507D01*
X23912420Y-24516508D01*
X25083435Y-25003636D01*
X25083439Y-25003639D01*
X25160717Y-25019132D01*
X26429019Y-25021052D01*
X26506344Y-25005793D01*
X26506346Y-25005791D01*
X27678833Y-24522209D01*
X27678838Y-24522208D01*
X27718214Y-24495984D01*
X27744438Y-24478519D01*
X27744440Y-24478516D01*
X28642619Y-23583051D01*
X28642704Y-23582924D01*
X28642836Y-23582836D01*
X28664752Y-23550037D01*
X28686507Y-23517585D01*
X28686538Y-23517431D01*
X28686624Y-23517302D01*
X28694181Y-23479310D01*
X28702001Y-23440306D01*
X28701970Y-23440150D01*
X28702000Y-23440000D01*
X28702000Y-22259019D01*
X35408948Y-22259019D01*
X35424207Y-22336344D01*
X35424208Y-22336345D01*
X35907791Y-23508833D01*
X35907792Y-23508838D01*
X35913618Y-23517585D01*
X35951481Y-23574438D01*
X35951484Y-23574440D01*
X36846946Y-24472616D01*
X36846948Y-24472619D01*
X36873222Y-24490233D01*
X36912415Y-24516507D01*
X36912420Y-24516508D01*
X38083435Y-25003636D01*
X38083439Y-25003639D01*
X38160717Y-25019132D01*
X39429019Y-25021052D01*
X39506344Y-25005793D01*
X39506346Y-25005791D01*
X40678833Y-24522209D01*
X40678838Y-24522208D01*
X40718214Y-24495984D01*
X40744438Y-24478519D01*
X40744440Y-24478516D01*
X41642619Y-23583051D01*
X41642704Y-23582924D01*
X41642836Y-23582836D01*
X41664752Y-23550037D01*
X41686507Y-23517585D01*
X41686538Y-23517431D01*
X41686624Y-23517302D01*
X41694181Y-23479310D01*
X41702001Y-23440306D01*
X41701970Y-23440150D01*
X41702000Y-23440000D01*
X41702000Y-22259019D01*
X49408948Y-22259019D01*
X49424207Y-22336344D01*
X49424208Y-22336345D01*
X49907791Y-23508833D01*
X49907792Y-23508838D01*
X49913618Y-23517585D01*
X49951481Y-23574438D01*
X49951484Y-23574440D01*
X50846946Y-24472616D01*
X50846948Y-24472619D01*
X50873222Y-24490233D01*
X50912415Y-24516507D01*
X50912420Y-24516508D01*
X52083435Y-25003636D01*
X52083439Y-25003639D01*
X52160717Y-25019132D01*
X53429019Y-25021052D01*
X53506344Y-25005793D01*
X53506346Y-25005791D01*
X54678833Y-24522209D01*
X54678838Y-24522208D01*
X54718214Y-24495984D01*
X54744438Y-24478519D01*
X54744440Y-24478516D01*
X55642619Y-23583051D01*
X55642704Y-23582924D01*
X55642836Y-23582836D01*
X55664752Y-23550037D01*
X55686507Y-23517585D01*
X55686538Y-23517431D01*
X55686624Y-23517302D01*
X55694181Y-23479310D01*
X55702001Y-23440306D01*
X55701970Y-23440150D01*
X55702000Y-23440000D01*
X55702000Y-22259019D01*
X62408948Y-22259019D01*
X62424207Y-22336344D01*
X62424208Y-22336345D01*
X62907791Y-23508833D01*
X62907792Y-23508838D01*
X62913618Y-23517585D01*
X62951481Y-23574438D01*
X62951484Y-23574440D01*
X63846946Y-24472616D01*
X63846948Y-24472619D01*
X63873222Y-24490233D01*
X63912415Y-24516507D01*
X63912420Y-24516508D01*
X65083435Y-25003636D01*
X65083439Y-25003639D01*
X65160717Y-25019132D01*
X66429019Y-25021052D01*
X66506344Y-25005793D01*
X66506346Y-25005791D01*
X67678833Y-24522209D01*
X67678838Y-24522208D01*
X67718214Y-24495984D01*
X67744438Y-24478519D01*
X67744440Y-24478516D01*
X68642619Y-23583051D01*
X68642704Y-23582924D01*
X68642836Y-23582836D01*
X68664752Y-23550037D01*
X68686507Y-23517585D01*
X68686538Y-23517431D01*
X68686624Y-23517302D01*
X68694181Y-23479310D01*
X68702001Y-23440306D01*
X68701970Y-23440150D01*
X68702000Y-23440000D01*
X68702000Y-19820005D01*
X68702001Y-19820000D01*
X68686624Y-19742698D01*
X68642836Y-19677164D01*
X67752836Y-18787164D01*
X67719958Y-18765196D01*
X67687585Y-18743494D01*
X67687303Y-18743377D01*
X67687302Y-18743376D01*
X67687301Y-18743376D01*
X66516562Y-18256362D01*
X66516563Y-18256362D01*
X66516561Y-18256361D01*
X66454776Y-18243974D01*
X66439283Y-18240868D01*
X66439282Y-18240868D01*
X65170981Y-18238948D01*
X65093656Y-18254207D01*
X63921167Y-18737791D01*
X63921162Y-18737792D01*
X63855563Y-18781481D01*
X62957381Y-19676948D01*
X62913493Y-19742415D01*
X62913492Y-19742420D01*
X62426363Y-20913437D01*
X62426361Y-20913439D01*
X62410868Y-20990718D01*
X62408948Y-22259019D01*
X55702000Y-22259019D01*
X55702000Y-19820005D01*
X55702001Y-19820000D01*
X55686624Y-19742698D01*
X55642836Y-19677164D01*
X54752836Y-18787164D01*
X54719958Y-18765196D01*
X54687585Y-18743494D01*
X54687303Y-18743377D01*
X54687302Y-18743376D01*
X54687301Y-18743376D01*
X53516562Y-18256362D01*
X53516563Y-18256362D01*
X53516561Y-18256361D01*
X53454776Y-18243974D01*
X53439283Y-18240868D01*
X53439282Y-18240868D01*
X52170981Y-18238948D01*
X52093656Y-18254207D01*
X50921167Y-18737791D01*
X50921162Y-18737792D01*
X50855563Y-18781481D01*
X49957381Y-19676948D01*
X49913493Y-19742415D01*
X49913492Y-19742420D01*
X49426363Y-20913437D01*
X49426361Y-20913439D01*
X49410868Y-20990718D01*
X49408948Y-22259019D01*
X41702000Y-22259019D01*
X41702000Y-19820005D01*
X41702001Y-19820000D01*
X41686624Y-19742698D01*
X41642836Y-19677164D01*
X40752836Y-18787164D01*
X40719958Y-18765196D01*
X40687585Y-18743494D01*
X40687303Y-18743377D01*
X40687302Y-18743376D01*
X40687301Y-18743376D01*
X39516562Y-18256362D01*
X39516563Y-18256362D01*
X39516561Y-18256361D01*
X39454776Y-18243974D01*
X39439283Y-18240868D01*
X39439282Y-18240868D01*
X38170981Y-18238948D01*
X38093656Y-18254207D01*
X36921167Y-18737791D01*
X36921162Y-18737792D01*
X36855563Y-18781481D01*
X35957381Y-19676948D01*
X35913493Y-19742415D01*
X35913492Y-19742420D01*
X35426363Y-20913437D01*
X35426361Y-20913439D01*
X35410868Y-20990718D01*
X35408948Y-22259019D01*
X28702000Y-22259019D01*
X28702000Y-19820005D01*
X28702001Y-19820000D01*
X28686624Y-19742698D01*
X28642836Y-19677164D01*
X27752836Y-18787164D01*
X27719958Y-18765196D01*
X27687585Y-18743494D01*
X27687303Y-18743377D01*
X27687302Y-18743376D01*
X27687301Y-18743376D01*
X26516562Y-18256362D01*
X26516563Y-18256362D01*
X26516561Y-18256361D01*
X26454776Y-18243974D01*
X26439283Y-18240868D01*
X26439282Y-18240868D01*
X25170981Y-18238948D01*
X25093656Y-18254207D01*
X23921167Y-18737791D01*
X23921162Y-18737792D01*
X23855563Y-18781481D01*
X22957381Y-19676948D01*
X22913493Y-19742415D01*
X22913492Y-19742420D01*
X22426363Y-20913437D01*
X22426361Y-20913439D01*
X22410868Y-20990718D01*
X22408948Y-22259019D01*
X15702000Y-22259019D01*
X15702000Y-19820005D01*
X15702001Y-19820000D01*
X15686624Y-19742698D01*
X15642836Y-19677164D01*
X14752836Y-18787164D01*
X14719958Y-18765196D01*
X14687585Y-18743494D01*
X14687303Y-18743377D01*
X14687302Y-18743376D01*
X14687301Y-18743376D01*
X13516562Y-18256362D01*
X13516563Y-18256362D01*
X13516561Y-18256361D01*
X13454776Y-18243974D01*
X13439283Y-18240868D01*
X13439282Y-18240868D01*
X12170981Y-18238948D01*
X12093656Y-18254207D01*
X10921167Y-18737791D01*
X10921162Y-18737792D01*
X10855563Y-18781481D01*
X9957381Y-19676948D01*
X9913493Y-19742415D01*
X9913492Y-19742420D01*
X9426363Y-20913437D01*
X9426361Y-20913439D01*
X9410868Y-20990718D01*
X9408948Y-22259019D01*
X1517000Y-22259019D01*
X1517000Y-8259019D01*
X9408948Y-8259019D01*
X9424207Y-8336344D01*
X9424208Y-8336345D01*
X9907791Y-9508833D01*
X9907792Y-9508838D01*
X9913618Y-9517585D01*
X9951481Y-9574438D01*
X9951484Y-9574440D01*
X10846946Y-10472616D01*
X10846948Y-10472619D01*
X10873222Y-10490233D01*
X10912415Y-10516507D01*
X10912420Y-10516508D01*
X12083435Y-11003636D01*
X12083439Y-11003639D01*
X12160717Y-11019132D01*
X13429019Y-11021052D01*
X13506344Y-11005793D01*
X13506346Y-11005791D01*
X14678833Y-10522209D01*
X14678838Y-10522208D01*
X14718214Y-10495984D01*
X14744438Y-10478519D01*
X14744440Y-10478516D01*
X15642619Y-9583051D01*
X15642704Y-9582924D01*
X15642836Y-9582836D01*
X15664752Y-9550037D01*
X15686507Y-9517585D01*
X15686538Y-9517431D01*
X15686624Y-9517302D01*
X15694181Y-9479310D01*
X15702001Y-9440306D01*
X15701970Y-9440150D01*
X15702000Y-9440000D01*
X15702000Y-8259019D01*
X22408948Y-8259019D01*
X22424207Y-8336344D01*
X22424208Y-8336345D01*
X22907791Y-9508833D01*
X22907792Y-9508838D01*
X22913618Y-9517585D01*
X22951481Y-9574438D01*
X22951484Y-9574440D01*
X23846946Y-10472616D01*
X23846948Y-10472619D01*
X23873222Y-10490233D01*
X23912415Y-10516507D01*
X23912420Y-10516508D01*
X25083435Y-11003636D01*
X25083439Y-11003639D01*
X25160717Y-11019132D01*
X26429019Y-11021052D01*
X26506344Y-11005793D01*
X26506346Y-11005791D01*
X27678833Y-10522209D01*
X27678838Y-10522208D01*
X27718214Y-10495984D01*
X27744438Y-10478519D01*
X27744440Y-10478516D01*
X28642619Y-9583051D01*
X28642704Y-9582924D01*
X28642836Y-9582836D01*
X28664752Y-9550037D01*
X28686507Y-9517585D01*
X28686538Y-9517431D01*
X28686624Y-9517302D01*
X28694181Y-9479310D01*
X28702001Y-9440306D01*
X28701970Y-9440150D01*
X28702000Y-9440000D01*
X28702000Y-8259019D01*
X35408948Y-8259019D01*
X35424207Y-8336344D01*
X35424208Y-8336345D01*
X35907791Y-9508833D01*
X35907792Y-9508838D01*
X35913618Y-9517585D01*
X35951481Y-9574438D01*
X35951484Y-9574440D01*
X36846946Y-10472616D01*
X36846948Y-10472619D01*
X36873222Y-10490233D01*
X36912415Y-10516507D01*
X36912420Y-10516508D01*
X38083435Y-11003636D01*
X38083439Y-11003639D01*
X38160717Y-11019132D01*
X39429019Y-11021052D01*
X39506344Y-11005793D01*
X39506346Y-11005791D01*
X40678833Y-10522209D01*
X40678838Y-10522208D01*
X40718214Y-10495984D01*
X40744438Y-10478519D01*
X40744440Y-10478516D01*
X41642619Y-9583051D01*
X41642704Y-9582924D01*
X41642836Y-9582836D01*
X41664752Y-9550037D01*
X41686507Y-9517585D01*
X41686538Y-9517431D01*
X41686624Y-9517302D01*
X41694181Y-9479310D01*
X41702001Y-9440306D01*
X41701970Y-9440150D01*
X41702000Y-9440000D01*
X41702000Y-8259019D01*
X49408948Y-8259019D01*
X49424207Y-8336344D01*
X49424208Y-8336345D01*
X49907791Y-9508833D01*
X49907792Y-9508838D01*
X49913618Y-9517585D01*
X49951481Y-9574438D01*
X49951484Y-9574440D01*
X50846946Y-10472616D01*
X50846948Y-10472619D01*
X50873222Y-10490233D01*
X50912415Y-10516507D01*
X50912420Y-10516508D01*
X52083435Y-11003636D01*
X52083439Y-11003639D01*
X52160717Y-11019132D01*
X53429019Y-11021052D01*
X53506344Y-11005793D01*
X53506346Y-11005791D01*
X54678833Y-10522209D01*
X54678838Y-10522208D01*
X54718214Y-10495984D01*
X54744438Y-10478519D01*
X54744440Y-10478516D01*
X55642619Y-9583051D01*
X55642704Y-9582924D01*
X55642836Y-9582836D01*
X55664752Y-9550037D01*
X55686507Y-9517585D01*
X55686538Y-9517431D01*
X55686624Y-9517302D01*
X55694181Y-9479310D01*
X55702001Y-9440306D01*
X55701970Y-9440150D01*
X55702000Y-9440000D01*
X55702000Y-8259019D01*
X62408948Y-8259019D01*
X62424207Y-8336344D01*
X62424208Y-8336345D01*
X62907791Y-9508833D01*
X62907792Y-9508838D01*
X62913618Y-9517585D01*
X62951481Y-9574438D01*
X62951484Y-9574440D01*
X63846946Y-10472616D01*
X63846948Y-10472619D01*
X63873222Y-10490233D01*
X63912415Y-10516507D01*
X63912420Y-10516508D01*
X65083435Y-11003636D01*
X65083439Y-11003639D01*
X65160717Y-11019132D01*
X66429019Y-11021052D01*
X66506344Y-11005793D01*
X66506346Y-11005791D01*
X67678833Y-10522209D01*
X67678838Y-10522208D01*
X67718214Y-10495984D01*
X67744438Y-10478519D01*
X67744440Y-10478516D01*
X68642619Y-9583051D01*
X68642704Y-9582924D01*
X68642836Y-9582836D01*
X68664752Y-9550037D01*
X68686507Y-9517585D01*
X68686538Y-9517431D01*
X68686624Y-9517302D01*
X68694181Y-9479310D01*
X68702001Y-9440306D01*
X68701970Y-9440150D01*
X68702000Y-9440000D01*
X68702000Y-5820005D01*
X68702001Y-5820000D01*
X68686624Y-5742698D01*
X68642836Y-5677164D01*
X67752836Y-4787164D01*
X67719958Y-4765196D01*
X67687585Y-4743494D01*
X67687303Y-4743377D01*
X67687302Y-4743376D01*
X67687301Y-4743376D01*
X67246482Y-4560000D01*
X71828000Y-4560000D01*
X71942333Y-5134791D01*
X72267926Y-5622074D01*
X72755209Y-5947667D01*
X73330000Y-6062000D01*
X73904791Y-5947667D01*
X74392074Y-5622074D01*
X74717667Y-5134791D01*
X74832000Y-4560000D01*
X74717667Y-3985209D01*
X74392074Y-3497926D01*
X73904791Y-3172333D01*
X73330000Y-3058000D01*
X72755209Y-3172333D01*
X72267926Y-3497926D01*
X71942333Y-3985209D01*
X71828000Y-4560000D01*
X67246482Y-4560000D01*
X66516562Y-4256362D01*
X66516563Y-4256362D01*
X66516561Y-4256361D01*
X66454776Y-4243974D01*
X66439283Y-4240868D01*
X66439282Y-4240868D01*
X65170981Y-4238948D01*
X65093656Y-4254207D01*
X63921167Y-4737791D01*
X63921162Y-4737792D01*
X63855563Y-4781481D01*
X62957381Y-5676948D01*
X62913493Y-5742415D01*
X62913492Y-5742420D01*
X62426363Y-6913437D01*
X62426361Y-6913439D01*
X62410868Y-6990718D01*
X62408948Y-8259019D01*
X55702000Y-8259019D01*
X55702000Y-5820005D01*
X55702001Y-5820000D01*
X55686624Y-5742698D01*
X55642836Y-5677164D01*
X54752836Y-4787164D01*
X54719958Y-4765196D01*
X54687585Y-4743494D01*
X54687303Y-4743377D01*
X54687302Y-4743376D01*
X54687301Y-4743376D01*
X53516562Y-4256362D01*
X53516563Y-4256362D01*
X53516561Y-4256361D01*
X53454776Y-4243974D01*
X53439283Y-4240868D01*
X53439282Y-4240868D01*
X52170981Y-4238948D01*
X52093656Y-4254207D01*
X50921167Y-4737791D01*
X50921162Y-4737792D01*
X50855563Y-4781481D01*
X49957381Y-5676948D01*
X49913493Y-5742415D01*
X49913492Y-5742420D01*
X49426363Y-6913437D01*
X49426361Y-6913439D01*
X49410868Y-6990718D01*
X49408948Y-8259019D01*
X41702000Y-8259019D01*
X41702000Y-5820005D01*
X41702001Y-5820000D01*
X41686624Y-5742698D01*
X41642836Y-5677164D01*
X40752836Y-4787164D01*
X40719958Y-4765196D01*
X40687585Y-4743494D01*
X40687303Y-4743377D01*
X40687302Y-4743376D01*
X40687301Y-4743376D01*
X39516562Y-4256362D01*
X39516563Y-4256362D01*
X39516561Y-4256361D01*
X39454776Y-4243974D01*
X39439283Y-4240868D01*
X39439282Y-4240868D01*
X38170981Y-4238948D01*
X38093656Y-4254207D01*
X36921167Y-4737791D01*
X36921162Y-4737792D01*
X36855563Y-4781481D01*
X35957381Y-5676948D01*
X35913493Y-5742415D01*
X35913492Y-5742420D01*
X35426363Y-6913437D01*
X35426361Y-6913439D01*
X35410868Y-6990718D01*
X35408948Y-8259019D01*
X28702000Y-8259019D01*
X28702000Y-5820005D01*
X28702001Y-5820000D01*
X28686624Y-5742698D01*
X28642836Y-5677164D01*
X27752836Y-4787164D01*
X27719958Y-4765196D01*
X27687585Y-4743494D01*
X27687303Y-4743377D01*
X27687302Y-4743376D01*
X27687301Y-4743376D01*
X26516562Y-4256362D01*
X26516563Y-4256362D01*
X26516561Y-4256361D01*
X26454776Y-4243974D01*
X26439283Y-4240868D01*
X26439282Y-4240868D01*
X25170981Y-4238948D01*
X25093656Y-4254207D01*
X23921167Y-4737791D01*
X23921162Y-4737792D01*
X23855563Y-4781481D01*
X22957381Y-5676948D01*
X22913493Y-5742415D01*
X22913492Y-5742420D01*
X22426363Y-6913437D01*
X22426361Y-6913439D01*
X22410868Y-6990718D01*
X22408948Y-8259019D01*
X15702000Y-8259019D01*
X15702000Y-5820005D01*
X15702001Y-5820000D01*
X15686624Y-5742698D01*
X15642836Y-5677164D01*
X14752836Y-4787164D01*
X14719958Y-4765196D01*
X14687585Y-4743494D01*
X14687303Y-4743377D01*
X14687302Y-4743376D01*
X14687301Y-4743376D01*
X13516562Y-4256362D01*
X13516563Y-4256362D01*
X13516561Y-4256361D01*
X13454776Y-4243974D01*
X13439283Y-4240868D01*
X13439282Y-4240868D01*
X12170981Y-4238948D01*
X12093656Y-4254207D01*
X10921167Y-4737791D01*
X10921162Y-4737792D01*
X10855563Y-4781481D01*
X9957381Y-5676948D01*
X9913493Y-5742415D01*
X9913492Y-5742420D01*
X9426363Y-6913437D01*
X9426361Y-6913439D01*
X9410868Y-6990718D01*
X9408948Y-8259019D01*
X1517000Y-8259019D01*
X1517000Y-4590000D01*
X3718000Y-4590000D01*
X3832333Y-5164791D01*
X4157926Y-5652074D01*
X4645209Y-5977667D01*
X5220000Y-6092000D01*
X5794791Y-5977667D01*
X6282074Y-5652074D01*
X6607667Y-5164791D01*
X6722000Y-4590000D01*
X6607667Y-4015209D01*
X6282074Y-3527926D01*
X5794791Y-3202333D01*
X5220000Y-3088000D01*
X4645209Y-3202333D01*
X4157926Y-3527926D01*
X3832333Y-4015209D01*
X3718000Y-4590000D01*
X1517000Y-4590000D01*
X1517000Y-3343495D01*
X1698592Y-2430571D01*
X2208077Y-1668074D01*
X2970571Y-1158592D01*
X3883495Y-977000D01*
X74866505Y-977000D01*
X75779429Y-1158592D01*
X75779429Y-1158592D01*
G37*
X75779429Y-1158592D02*
X76541926Y-1668077D01*
X77051408Y-2430571D01*
X77233000Y-3343495D01*
X77233000Y-33326505D01*
X77051408Y-34239429D01*
X76541926Y-35001923D01*
X75779429Y-35511408D01*
X74866495Y-35693002D01*
X3883485Y-35702998D01*
X2970571Y-35521408D01*
X2208077Y-35011926D01*
X1698592Y-34249429D01*
X1517000Y-33336505D01*
X1517000Y-32140000D01*
X3708000Y-32140000D01*
X3822333Y-32714791D01*
X4147926Y-33202074D01*
X4635209Y-33527667D01*
X5210000Y-33642000D01*
X5784791Y-33527667D01*
X6272074Y-33202074D01*
X6597667Y-32714791D01*
X6712000Y-32140000D01*
X6704044Y-32100000D01*
X71788000Y-32100000D01*
X71902333Y-32674791D01*
X72227926Y-33162074D01*
X72715209Y-33487667D01*
X73290000Y-33602000D01*
X73864791Y-33487667D01*
X74352074Y-33162074D01*
X74677667Y-32674791D01*
X74792000Y-32100000D01*
X74677667Y-31525209D01*
X74352074Y-31037926D01*
X73864791Y-30712333D01*
X73290000Y-30598000D01*
X72715209Y-30712333D01*
X72227926Y-31037926D01*
X71902333Y-31525209D01*
X71788000Y-32100000D01*
X6704044Y-32100000D01*
X6597667Y-31565209D01*
X6272074Y-31077926D01*
X5784791Y-30752333D01*
X5210000Y-30638000D01*
X4635209Y-30752333D01*
X4147926Y-31077926D01*
X3822333Y-31565209D01*
X3708000Y-32140000D01*
X1517000Y-32140000D01*
X1517000Y-22259019D01*
X9408948Y-22259019D01*
X9424207Y-22336344D01*
X9424208Y-22336345D01*
X9907791Y-23508833D01*
X9907792Y-23508838D01*
X9913618Y-23517585D01*
X9951481Y-23574438D01*
X9951484Y-23574440D01*
X10846946Y-24472616D01*
X10846948Y-24472619D01*
X10873222Y-24490233D01*
X10912415Y-24516507D01*
X10912420Y-24516508D01*
X12083435Y-25003636D01*
X12083439Y-25003639D01*
X12160717Y-25019132D01*
X13429019Y-25021052D01*
X13506344Y-25005793D01*
X13506346Y-25005791D01*
X14678833Y-24522209D01*
X14678838Y-24522208D01*
X14718214Y-24495984D01*
X14744438Y-24478519D01*
X14744440Y-24478516D01*
X15642619Y-23583051D01*
X15642704Y-23582924D01*
X15642836Y-23582836D01*
X15664752Y-23550037D01*
X15686507Y-23517585D01*
X15686538Y-23517431D01*
X15686624Y-23517302D01*
X15694181Y-23479310D01*
X15702001Y-23440306D01*
X15701970Y-23440150D01*
X15702000Y-23440000D01*
X15702000Y-22259019D01*
X22408948Y-22259019D01*
X22424207Y-22336344D01*
X22424208Y-22336345D01*
X22907791Y-23508833D01*
X22907792Y-23508838D01*
X22913618Y-23517585D01*
X22951481Y-23574438D01*
X22951484Y-23574440D01*
X23846946Y-24472616D01*
X23846948Y-24472619D01*
X23873222Y-24490233D01*
X23912415Y-24516507D01*
X23912420Y-24516508D01*
X25083435Y-25003636D01*
X25083439Y-25003639D01*
X25160717Y-25019132D01*
X26429019Y-25021052D01*
X26506344Y-25005793D01*
X26506346Y-25005791D01*
X27678833Y-24522209D01*
X27678838Y-24522208D01*
X27718214Y-24495984D01*
X27744438Y-24478519D01*
X27744440Y-24478516D01*
X28642619Y-23583051D01*
X28642704Y-23582924D01*
X28642836Y-23582836D01*
X28664752Y-23550037D01*
X28686507Y-23517585D01*
X28686538Y-23517431D01*
X28686624Y-23517302D01*
X28694181Y-23479310D01*
X28702001Y-23440306D01*
X28701970Y-23440150D01*
X28702000Y-23440000D01*
X28702000Y-22259019D01*
X35408948Y-22259019D01*
X35424207Y-22336344D01*
X35424208Y-22336345D01*
X35907791Y-23508833D01*
X35907792Y-23508838D01*
X35913618Y-23517585D01*
X35951481Y-23574438D01*
X35951484Y-23574440D01*
X36846946Y-24472616D01*
X36846948Y-24472619D01*
X36873222Y-24490233D01*
X36912415Y-24516507D01*
X36912420Y-24516508D01*
X38083435Y-25003636D01*
X38083439Y-25003639D01*
X38160717Y-25019132D01*
X39429019Y-25021052D01*
X39506344Y-25005793D01*
X39506346Y-25005791D01*
X40678833Y-24522209D01*
X40678838Y-24522208D01*
X40718214Y-24495984D01*
X40744438Y-24478519D01*
X40744440Y-24478516D01*
X41642619Y-23583051D01*
X41642704Y-23582924D01*
X41642836Y-23582836D01*
X41664752Y-23550037D01*
X41686507Y-23517585D01*
X41686538Y-23517431D01*
X41686624Y-23517302D01*
X41694181Y-23479310D01*
X41702001Y-23440306D01*
X41701970Y-23440150D01*
X41702000Y-23440000D01*
X41702000Y-22259019D01*
X49408948Y-22259019D01*
X49424207Y-22336344D01*
X49424208Y-22336345D01*
X49907791Y-23508833D01*
X49907792Y-23508838D01*
X49913618Y-23517585D01*
X49951481Y-23574438D01*
X49951484Y-23574440D01*
X50846946Y-24472616D01*
X50846948Y-24472619D01*
X50873222Y-24490233D01*
X50912415Y-24516507D01*
X50912420Y-24516508D01*
X52083435Y-25003636D01*
X52083439Y-25003639D01*
X52160717Y-25019132D01*
X53429019Y-25021052D01*
X53506344Y-25005793D01*
X53506346Y-25005791D01*
X54678833Y-24522209D01*
X54678838Y-24522208D01*
X54718214Y-24495984D01*
X54744438Y-24478519D01*
X54744440Y-24478516D01*
X55642619Y-23583051D01*
X55642704Y-23582924D01*
X55642836Y-23582836D01*
X55664752Y-23550037D01*
X55686507Y-23517585D01*
X55686538Y-23517431D01*
X55686624Y-23517302D01*
X55694181Y-23479310D01*
X55702001Y-23440306D01*
X55701970Y-23440150D01*
X55702000Y-23440000D01*
X55702000Y-22259019D01*
X62408948Y-22259019D01*
X62424207Y-22336344D01*
X62424208Y-22336345D01*
X62907791Y-23508833D01*
X62907792Y-23508838D01*
X62913618Y-23517585D01*
X62951481Y-23574438D01*
X62951484Y-23574440D01*
X63846946Y-24472616D01*
X63846948Y-24472619D01*
X63873222Y-24490233D01*
X63912415Y-24516507D01*
X63912420Y-24516508D01*
X65083435Y-25003636D01*
X65083439Y-25003639D01*
X65160717Y-25019132D01*
X66429019Y-25021052D01*
X66506344Y-25005793D01*
X66506346Y-25005791D01*
X67678833Y-24522209D01*
X67678838Y-24522208D01*
X67718214Y-24495984D01*
X67744438Y-24478519D01*
X67744440Y-24478516D01*
X68642619Y-23583051D01*
X68642704Y-23582924D01*
X68642836Y-23582836D01*
X68664752Y-23550037D01*
X68686507Y-23517585D01*
X68686538Y-23517431D01*
X68686624Y-23517302D01*
X68694181Y-23479310D01*
X68702001Y-23440306D01*
X68701970Y-23440150D01*
X68702000Y-23440000D01*
X68702000Y-19820005D01*
X68702001Y-19820000D01*
X68686624Y-19742698D01*
X68642836Y-19677164D01*
X67752836Y-18787164D01*
X67719958Y-18765196D01*
X67687585Y-18743494D01*
X67687303Y-18743377D01*
X67687302Y-18743376D01*
X67687301Y-18743376D01*
X66516562Y-18256362D01*
X66516563Y-18256362D01*
X66516561Y-18256361D01*
X66454776Y-18243974D01*
X66439283Y-18240868D01*
X66439282Y-18240868D01*
X65170981Y-18238948D01*
X65093656Y-18254207D01*
X63921167Y-18737791D01*
X63921162Y-18737792D01*
X63855563Y-18781481D01*
X62957381Y-19676948D01*
X62913493Y-19742415D01*
X62913492Y-19742420D01*
X62426363Y-20913437D01*
X62426361Y-20913439D01*
X62410868Y-20990718D01*
X62408948Y-22259019D01*
X55702000Y-22259019D01*
X55702000Y-19820005D01*
X55702001Y-19820000D01*
X55686624Y-19742698D01*
X55642836Y-19677164D01*
X54752836Y-18787164D01*
X54719958Y-18765196D01*
X54687585Y-18743494D01*
X54687303Y-18743377D01*
X54687302Y-18743376D01*
X54687301Y-18743376D01*
X53516562Y-18256362D01*
X53516563Y-18256362D01*
X53516561Y-18256361D01*
X53454776Y-18243974D01*
X53439283Y-18240868D01*
X53439282Y-18240868D01*
X52170981Y-18238948D01*
X52093656Y-18254207D01*
X50921167Y-18737791D01*
X50921162Y-18737792D01*
X50855563Y-18781481D01*
X49957381Y-19676948D01*
X49913493Y-19742415D01*
X49913492Y-19742420D01*
X49426363Y-20913437D01*
X49426361Y-20913439D01*
X49410868Y-20990718D01*
X49408948Y-22259019D01*
X41702000Y-22259019D01*
X41702000Y-19820005D01*
X41702001Y-19820000D01*
X41686624Y-19742698D01*
X41642836Y-19677164D01*
X40752836Y-18787164D01*
X40719958Y-18765196D01*
X40687585Y-18743494D01*
X40687303Y-18743377D01*
X40687302Y-18743376D01*
X40687301Y-18743376D01*
X39516562Y-18256362D01*
X39516563Y-18256362D01*
X39516561Y-18256361D01*
X39454776Y-18243974D01*
X39439283Y-18240868D01*
X39439282Y-18240868D01*
X38170981Y-18238948D01*
X38093656Y-18254207D01*
X36921167Y-18737791D01*
X36921162Y-18737792D01*
X36855563Y-18781481D01*
X35957381Y-19676948D01*
X35913493Y-19742415D01*
X35913492Y-19742420D01*
X35426363Y-20913437D01*
X35426361Y-20913439D01*
X35410868Y-20990718D01*
X35408948Y-22259019D01*
X28702000Y-22259019D01*
X28702000Y-19820005D01*
X28702001Y-19820000D01*
X28686624Y-19742698D01*
X28642836Y-19677164D01*
X27752836Y-18787164D01*
X27719958Y-18765196D01*
X27687585Y-18743494D01*
X27687303Y-18743377D01*
X27687302Y-18743376D01*
X27687301Y-18743376D01*
X26516562Y-18256362D01*
X26516563Y-18256362D01*
X26516561Y-18256361D01*
X26454776Y-18243974D01*
X26439283Y-18240868D01*
X26439282Y-18240868D01*
X25170981Y-18238948D01*
X25093656Y-18254207D01*
X23921167Y-18737791D01*
X23921162Y-18737792D01*
X23855563Y-18781481D01*
X22957381Y-19676948D01*
X22913493Y-19742415D01*
X22913492Y-19742420D01*
X22426363Y-20913437D01*
X22426361Y-20913439D01*
X22410868Y-20990718D01*
X22408948Y-22259019D01*
X15702000Y-22259019D01*
X15702000Y-19820005D01*
X15702001Y-19820000D01*
X15686624Y-19742698D01*
X15642836Y-19677164D01*
X14752836Y-18787164D01*
X14719958Y-18765196D01*
X14687585Y-18743494D01*
X14687303Y-18743377D01*
X14687302Y-18743376D01*
X14687301Y-18743376D01*
X13516562Y-18256362D01*
X13516563Y-18256362D01*
X13516561Y-18256361D01*
X13454776Y-18243974D01*
X13439283Y-18240868D01*
X13439282Y-18240868D01*
X12170981Y-18238948D01*
X12093656Y-18254207D01*
X10921167Y-18737791D01*
X10921162Y-18737792D01*
X10855563Y-18781481D01*
X9957381Y-19676948D01*
X9913493Y-19742415D01*
X9913492Y-19742420D01*
X9426363Y-20913437D01*
X9426361Y-20913439D01*
X9410868Y-20990718D01*
X9408948Y-22259019D01*
X1517000Y-22259019D01*
X1517000Y-8259019D01*
X9408948Y-8259019D01*
X9424207Y-8336344D01*
X9424208Y-8336345D01*
X9907791Y-9508833D01*
X9907792Y-9508838D01*
X9913618Y-9517585D01*
X9951481Y-9574438D01*
X9951484Y-9574440D01*
X10846946Y-10472616D01*
X10846948Y-10472619D01*
X10873222Y-10490233D01*
X10912415Y-10516507D01*
X10912420Y-10516508D01*
X12083435Y-11003636D01*
X12083439Y-11003639D01*
X12160717Y-11019132D01*
X13429019Y-11021052D01*
X13506344Y-11005793D01*
X13506346Y-11005791D01*
X14678833Y-10522209D01*
X14678838Y-10522208D01*
X14718214Y-10495984D01*
X14744438Y-10478519D01*
X14744440Y-10478516D01*
X15642619Y-9583051D01*
X15642704Y-9582924D01*
X15642836Y-9582836D01*
X15664752Y-9550037D01*
X15686507Y-9517585D01*
X15686538Y-9517431D01*
X15686624Y-9517302D01*
X15694181Y-9479310D01*
X15702001Y-9440306D01*
X15701970Y-9440150D01*
X15702000Y-9440000D01*
X15702000Y-8259019D01*
X22408948Y-8259019D01*
X22424207Y-8336344D01*
X22424208Y-8336345D01*
X22907791Y-9508833D01*
X22907792Y-9508838D01*
X22913618Y-9517585D01*
X22951481Y-9574438D01*
X22951484Y-9574440D01*
X23846946Y-10472616D01*
X23846948Y-10472619D01*
X23873222Y-10490233D01*
X23912415Y-10516507D01*
X23912420Y-10516508D01*
X25083435Y-11003636D01*
X25083439Y-11003639D01*
X25160717Y-11019132D01*
X26429019Y-11021052D01*
X26506344Y-11005793D01*
X26506346Y-11005791D01*
X27678833Y-10522209D01*
X27678838Y-10522208D01*
X27718214Y-10495984D01*
X27744438Y-10478519D01*
X27744440Y-10478516D01*
X28642619Y-9583051D01*
X28642704Y-9582924D01*
X28642836Y-9582836D01*
X28664752Y-9550037D01*
X28686507Y-9517585D01*
X28686538Y-9517431D01*
X28686624Y-9517302D01*
X28694181Y-9479310D01*
X28702001Y-9440306D01*
X28701970Y-9440150D01*
X28702000Y-9440000D01*
X28702000Y-8259019D01*
X35408948Y-8259019D01*
X35424207Y-8336344D01*
X35424208Y-8336345D01*
X35907791Y-9508833D01*
X35907792Y-9508838D01*
X35913618Y-9517585D01*
X35951481Y-9574438D01*
X35951484Y-9574440D01*
X36846946Y-10472616D01*
X36846948Y-10472619D01*
X36873222Y-10490233D01*
X36912415Y-10516507D01*
X36912420Y-10516508D01*
X38083435Y-11003636D01*
X38083439Y-11003639D01*
X38160717Y-11019132D01*
X39429019Y-11021052D01*
X39506344Y-11005793D01*
X39506346Y-11005791D01*
X40678833Y-10522209D01*
X40678838Y-10522208D01*
X40718214Y-10495984D01*
X40744438Y-10478519D01*
X40744440Y-10478516D01*
X41642619Y-9583051D01*
X41642704Y-9582924D01*
X41642836Y-9582836D01*
X41664752Y-9550037D01*
X41686507Y-9517585D01*
X41686538Y-9517431D01*
X41686624Y-9517302D01*
X41694181Y-9479310D01*
X41702001Y-9440306D01*
X41701970Y-9440150D01*
X41702000Y-9440000D01*
X41702000Y-8259019D01*
X49408948Y-8259019D01*
X49424207Y-8336344D01*
X49424208Y-8336345D01*
X49907791Y-9508833D01*
X49907792Y-9508838D01*
X49913618Y-9517585D01*
X49951481Y-9574438D01*
X49951484Y-9574440D01*
X50846946Y-10472616D01*
X50846948Y-10472619D01*
X50873222Y-10490233D01*
X50912415Y-10516507D01*
X50912420Y-10516508D01*
X52083435Y-11003636D01*
X52083439Y-11003639D01*
X52160717Y-11019132D01*
X53429019Y-11021052D01*
X53506344Y-11005793D01*
X53506346Y-11005791D01*
X54678833Y-10522209D01*
X54678838Y-10522208D01*
X54718214Y-10495984D01*
X54744438Y-10478519D01*
X54744440Y-10478516D01*
X55642619Y-9583051D01*
X55642704Y-9582924D01*
X55642836Y-9582836D01*
X55664752Y-9550037D01*
X55686507Y-9517585D01*
X55686538Y-9517431D01*
X55686624Y-9517302D01*
X55694181Y-9479310D01*
X55702001Y-9440306D01*
X55701970Y-9440150D01*
X55702000Y-9440000D01*
X55702000Y-8259019D01*
X62408948Y-8259019D01*
X62424207Y-8336344D01*
X62424208Y-8336345D01*
X62907791Y-9508833D01*
X62907792Y-9508838D01*
X62913618Y-9517585D01*
X62951481Y-9574438D01*
X62951484Y-9574440D01*
X63846946Y-10472616D01*
X63846948Y-10472619D01*
X63873222Y-10490233D01*
X63912415Y-10516507D01*
X63912420Y-10516508D01*
X65083435Y-11003636D01*
X65083439Y-11003639D01*
X65160717Y-11019132D01*
X66429019Y-11021052D01*
X66506344Y-11005793D01*
X66506346Y-11005791D01*
X67678833Y-10522209D01*
X67678838Y-10522208D01*
X67718214Y-10495984D01*
X67744438Y-10478519D01*
X67744440Y-10478516D01*
X68642619Y-9583051D01*
X68642704Y-9582924D01*
X68642836Y-9582836D01*
X68664752Y-9550037D01*
X68686507Y-9517585D01*
X68686538Y-9517431D01*
X68686624Y-9517302D01*
X68694181Y-9479310D01*
X68702001Y-9440306D01*
X68701970Y-9440150D01*
X68702000Y-9440000D01*
X68702000Y-5820005D01*
X68702001Y-5820000D01*
X68686624Y-5742698D01*
X68642836Y-5677164D01*
X67752836Y-4787164D01*
X67719958Y-4765196D01*
X67687585Y-4743494D01*
X67687303Y-4743377D01*
X67687302Y-4743376D01*
X67687301Y-4743376D01*
X67246482Y-4560000D01*
X71828000Y-4560000D01*
X71942333Y-5134791D01*
X72267926Y-5622074D01*
X72755209Y-5947667D01*
X73330000Y-6062000D01*
X73904791Y-5947667D01*
X74392074Y-5622074D01*
X74717667Y-5134791D01*
X74832000Y-4560000D01*
X74717667Y-3985209D01*
X74392074Y-3497926D01*
X73904791Y-3172333D01*
X73330000Y-3058000D01*
X72755209Y-3172333D01*
X72267926Y-3497926D01*
X71942333Y-3985209D01*
X71828000Y-4560000D01*
X67246482Y-4560000D01*
X66516562Y-4256362D01*
X66516563Y-4256362D01*
X66516561Y-4256361D01*
X66454776Y-4243974D01*
X66439283Y-4240868D01*
X66439282Y-4240868D01*
X65170981Y-4238948D01*
X65093656Y-4254207D01*
X63921167Y-4737791D01*
X63921162Y-4737792D01*
X63855563Y-4781481D01*
X62957381Y-5676948D01*
X62913493Y-5742415D01*
X62913492Y-5742420D01*
X62426363Y-6913437D01*
X62426361Y-6913439D01*
X62410868Y-6990718D01*
X62408948Y-8259019D01*
X55702000Y-8259019D01*
X55702000Y-5820005D01*
X55702001Y-5820000D01*
X55686624Y-5742698D01*
X55642836Y-5677164D01*
X54752836Y-4787164D01*
X54719958Y-4765196D01*
X54687585Y-4743494D01*
X54687303Y-4743377D01*
X54687302Y-4743376D01*
X54687301Y-4743376D01*
X53516562Y-4256362D01*
X53516563Y-4256362D01*
X53516561Y-4256361D01*
X53454776Y-4243974D01*
X53439283Y-4240868D01*
X53439282Y-4240868D01*
X52170981Y-4238948D01*
X52093656Y-4254207D01*
X50921167Y-4737791D01*
X50921162Y-4737792D01*
X50855563Y-4781481D01*
X49957381Y-5676948D01*
X49913493Y-5742415D01*
X49913492Y-5742420D01*
X49426363Y-6913437D01*
X49426361Y-6913439D01*
X49410868Y-6990718D01*
X49408948Y-8259019D01*
X41702000Y-8259019D01*
X41702000Y-5820005D01*
X41702001Y-5820000D01*
X41686624Y-5742698D01*
X41642836Y-5677164D01*
X40752836Y-4787164D01*
X40719958Y-4765196D01*
X40687585Y-4743494D01*
X40687303Y-4743377D01*
X40687302Y-4743376D01*
X40687301Y-4743376D01*
X39516562Y-4256362D01*
X39516563Y-4256362D01*
X39516561Y-4256361D01*
X39454776Y-4243974D01*
X39439283Y-4240868D01*
X39439282Y-4240868D01*
X38170981Y-4238948D01*
X38093656Y-4254207D01*
X36921167Y-4737791D01*
X36921162Y-4737792D01*
X36855563Y-4781481D01*
X35957381Y-5676948D01*
X35913493Y-5742415D01*
X35913492Y-5742420D01*
X35426363Y-6913437D01*
X35426361Y-6913439D01*
X35410868Y-6990718D01*
X35408948Y-8259019D01*
X28702000Y-8259019D01*
X28702000Y-5820005D01*
X28702001Y-5820000D01*
X28686624Y-5742698D01*
X28642836Y-5677164D01*
X27752836Y-4787164D01*
X27719958Y-4765196D01*
X27687585Y-4743494D01*
X27687303Y-4743377D01*
X27687302Y-4743376D01*
X27687301Y-4743376D01*
X26516562Y-4256362D01*
X26516563Y-4256362D01*
X26516561Y-4256361D01*
X26454776Y-4243974D01*
X26439283Y-4240868D01*
X26439282Y-4240868D01*
X25170981Y-4238948D01*
X25093656Y-4254207D01*
X23921167Y-4737791D01*
X23921162Y-4737792D01*
X23855563Y-4781481D01*
X22957381Y-5676948D01*
X22913493Y-5742415D01*
X22913492Y-5742420D01*
X22426363Y-6913437D01*
X22426361Y-6913439D01*
X22410868Y-6990718D01*
X22408948Y-8259019D01*
X15702000Y-8259019D01*
X15702000Y-5820005D01*
X15702001Y-5820000D01*
X15686624Y-5742698D01*
X15642836Y-5677164D01*
X14752836Y-4787164D01*
X14719958Y-4765196D01*
X14687585Y-4743494D01*
X14687303Y-4743377D01*
X14687302Y-4743376D01*
X14687301Y-4743376D01*
X13516562Y-4256362D01*
X13516563Y-4256362D01*
X13516561Y-4256361D01*
X13454776Y-4243974D01*
X13439283Y-4240868D01*
X13439282Y-4240868D01*
X12170981Y-4238948D01*
X12093656Y-4254207D01*
X10921167Y-4737791D01*
X10921162Y-4737792D01*
X10855563Y-4781481D01*
X9957381Y-5676948D01*
X9913493Y-5742415D01*
X9913492Y-5742420D01*
X9426363Y-6913437D01*
X9426361Y-6913439D01*
X9410868Y-6990718D01*
X9408948Y-8259019D01*
X1517000Y-8259019D01*
X1517000Y-4590000D01*
X3718000Y-4590000D01*
X3832333Y-5164791D01*
X4157926Y-5652074D01*
X4645209Y-5977667D01*
X5220000Y-6092000D01*
X5794791Y-5977667D01*
X6282074Y-5652074D01*
X6607667Y-5164791D01*
X6722000Y-4590000D01*
X6607667Y-4015209D01*
X6282074Y-3527926D01*
X5794791Y-3202333D01*
X5220000Y-3088000D01*
X4645209Y-3202333D01*
X4157926Y-3527926D01*
X3832333Y-4015209D01*
X3718000Y-4590000D01*
X1517000Y-4590000D01*
X1517000Y-3343495D01*
X1698592Y-2430571D01*
X2208077Y-1668074D01*
X2970571Y-1158592D01*
X3883495Y-977000D01*
X74866505Y-977000D01*
X75779429Y-1158592D01*
M02*
