M48
;DRILL file {KiCad (2016-07-22 BZR 6991, Git 146a78a)-product} date 08/19/16 16:59:04
;FORMAT={2:4/ absolute / inch / keep zeros}
FMAT,2
INCH,TZ
T1C0.018
%
G90
G05
M72
T1
X003524Y-003004
X003524Y-008516
X003727Y-002246
X003727Y-003762
X003727Y-007758
X003727Y-009274
X004281Y-001691
X004281Y-004317
X004281Y-007203
X004281Y-009828
X005039Y-001488
X005039Y-004520
X005039Y-007000
X005039Y-010031
X005797Y-001691
X005797Y-004317
X005797Y-007203
X005797Y-009828
X006352Y-002246
X006352Y-003762
X006352Y-007758
X006352Y-009274
X006555Y-003004
X006555Y-008516
X008642Y-003004
X008642Y-008516
X008845Y-002246
X008845Y-003762
X008845Y-007758
X008845Y-009274
X009400Y-001691
X009400Y-004317
X009400Y-007203
X009400Y-009828
X010157Y-001488
X010157Y-004520
X010157Y-007000
X010157Y-010031
X010915Y-001691
X010915Y-004317
X010915Y-007203
X010915Y-009828
X011470Y-002246
X011470Y-003762
X011470Y-007758
X011470Y-009274
X011673Y-003004
X011673Y-008516
X013760Y-003004
X013760Y-008516
X013963Y-002246
X013963Y-003762
X013963Y-007758
X013963Y-009274
X014518Y-001691
X014518Y-004317
X014518Y-007203
X014518Y-009828
X015276Y-001488
X015276Y-004520
X015276Y-007000
X015276Y-010031
X016033Y-001691
X016033Y-004317
X016033Y-007203
X016033Y-009828
X016588Y-002246
X016588Y-003762
X016588Y-007758
X016588Y-009274
X016791Y-003004
X016791Y-008516
X019272Y-003004
X019272Y-008516
X019475Y-002246
X019475Y-003762
X019475Y-007758
X019475Y-009274
X020030Y-001691
X020030Y-004317
X020030Y-007203
X020030Y-009828
X020787Y-001488
X020787Y-004520
X020787Y-007000
X020787Y-010031
X021545Y-001691
X021545Y-004317
X021545Y-007203
X021545Y-009828
X022100Y-002246
X022100Y-003762
X022100Y-007758
X022100Y-009274
X022303Y-003004
X022303Y-008516
X024390Y-003004
X024390Y-008516
X024593Y-002246
X024593Y-003762
X024593Y-007758
X024593Y-009274
X025148Y-001691
X025148Y-004317
X025148Y-007203
X025148Y-009828
X025906Y-001488
X025906Y-004520
X025906Y-007000
X025906Y-010031
X026663Y-001691
X026663Y-004317
X026663Y-007203
X026663Y-009828
X027218Y-002246
X027218Y-003762
X027218Y-007758
X027218Y-009274
X027421Y-003004
X027421Y-008516
T0
M30
