G04 #@! TF.FileFunction,Legend,Top*
%FSLAX46Y46*%
G04 Gerber Fmt 4.6, Leading zero omitted, Abs format (unit mm)*
G04 Created by KiCad (PCBNEW (2016-07-22 BZR 6991, Git 146a78a)-product) date 08/19/16 17:40:47*
%MOMM*%
%LPD*%
G01*
G04 APERTURE LIST*
%ADD10C,0.150000*%
%ADD11C,0.250000*%
%ADD12C,0.300000*%
%ADD13C,0.400000*%
%ADD14C,0.700000*%
%ADD15C,1.350000*%
%ADD16C,3.000000*%
%ADD17C,0.254000*%
G04 APERTURE END LIST*
D10*
D11*
X62732976Y-28307619D02*
X62780595Y-28260000D01*
X62875833Y-28212380D01*
X63113928Y-28212380D01*
X63209166Y-28260000D01*
X63256785Y-28307619D01*
X63304404Y-28402857D01*
X63304404Y-28498095D01*
X63256785Y-28640952D01*
X62685357Y-29212380D01*
X63304404Y-29212380D01*
X63923452Y-28212380D02*
X64018690Y-28212380D01*
X64113928Y-28260000D01*
X64161547Y-28307619D01*
X64209166Y-28402857D01*
X64256785Y-28593333D01*
X64256785Y-28831428D01*
X64209166Y-29021904D01*
X64161547Y-29117142D01*
X64113928Y-29164761D01*
X64018690Y-29212380D01*
X63923452Y-29212380D01*
X63828214Y-29164761D01*
X63780595Y-29117142D01*
X63732976Y-29021904D01*
X63685357Y-28831428D01*
X63685357Y-28593333D01*
X63732976Y-28402857D01*
X63780595Y-28307619D01*
X63828214Y-28260000D01*
X63923452Y-28212380D01*
X65209166Y-29212380D02*
X64637738Y-29212380D01*
X64923452Y-29212380D02*
X64923452Y-28212380D01*
X64828214Y-28355238D01*
X64732976Y-28450476D01*
X64637738Y-28498095D01*
X66066309Y-28212380D02*
X65875833Y-28212380D01*
X65780595Y-28260000D01*
X65732976Y-28307619D01*
X65637738Y-28450476D01*
X65590119Y-28640952D01*
X65590119Y-29021904D01*
X65637738Y-29117142D01*
X65685357Y-29164761D01*
X65780595Y-29212380D01*
X65971071Y-29212380D01*
X66066309Y-29164761D01*
X66113928Y-29117142D01*
X66161547Y-29021904D01*
X66161547Y-28783809D01*
X66113928Y-28688571D01*
X66066309Y-28640952D01*
X65971071Y-28593333D01*
X65780595Y-28593333D01*
X65685357Y-28640952D01*
X65637738Y-28688571D01*
X65590119Y-28783809D01*
X66780595Y-28212380D02*
X66875833Y-28212380D01*
X66971071Y-28260000D01*
X67018690Y-28307619D01*
X67066309Y-28402857D01*
X67113928Y-28593333D01*
X67113928Y-28831428D01*
X67066309Y-29021904D01*
X67018690Y-29117142D01*
X66971071Y-29164761D01*
X66875833Y-29212380D01*
X66780595Y-29212380D01*
X66685357Y-29164761D01*
X66637738Y-29117142D01*
X66590119Y-29021904D01*
X66542500Y-28831428D01*
X66542500Y-28593333D01*
X66590119Y-28402857D01*
X66637738Y-28307619D01*
X66685357Y-28260000D01*
X66780595Y-28212380D01*
X67685357Y-28640952D02*
X67590119Y-28593333D01*
X67542500Y-28545714D01*
X67494880Y-28450476D01*
X67494880Y-28402857D01*
X67542500Y-28307619D01*
X67590119Y-28260000D01*
X67685357Y-28212380D01*
X67875833Y-28212380D01*
X67971071Y-28260000D01*
X68018690Y-28307619D01*
X68066309Y-28402857D01*
X68066309Y-28450476D01*
X68018690Y-28545714D01*
X67971071Y-28593333D01*
X67875833Y-28640952D01*
X67685357Y-28640952D01*
X67590119Y-28688571D01*
X67542500Y-28736190D01*
X67494880Y-28831428D01*
X67494880Y-29021904D01*
X67542500Y-29117142D01*
X67590119Y-29164761D01*
X67685357Y-29212380D01*
X67875833Y-29212380D01*
X67971071Y-29164761D01*
X68018690Y-29117142D01*
X68066309Y-29021904D01*
X68066309Y-28831428D01*
X68018690Y-28736190D01*
X67971071Y-28688571D01*
X67875833Y-28640952D01*
X69018690Y-29212380D02*
X68447261Y-29212380D01*
X68732976Y-29212380D02*
X68732976Y-28212380D01*
X68637738Y-28355238D01*
X68542500Y-28450476D01*
X68447261Y-28498095D01*
X69494880Y-29212380D02*
X69685357Y-29212380D01*
X69780595Y-29164761D01*
X69828214Y-29117142D01*
X69923452Y-28974285D01*
X69971071Y-28783809D01*
X69971071Y-28402857D01*
X69923452Y-28307619D01*
X69875833Y-28260000D01*
X69780595Y-28212380D01*
X69590119Y-28212380D01*
X69494880Y-28260000D01*
X69447261Y-28307619D01*
X69399642Y-28402857D01*
X69399642Y-28640952D01*
X69447261Y-28736190D01*
X69494880Y-28783809D01*
X69590119Y-28831428D01*
X69780595Y-28831428D01*
X69875833Y-28783809D01*
X69923452Y-28736190D01*
X69971071Y-28640952D01*
X63693452Y-32540952D02*
X63598214Y-32493333D01*
X63550595Y-32445714D01*
X63502976Y-32350476D01*
X63502976Y-32302857D01*
X63550595Y-32207619D01*
X63598214Y-32160000D01*
X63693452Y-32112380D01*
X63883928Y-32112380D01*
X63979166Y-32160000D01*
X64026785Y-32207619D01*
X64074404Y-32302857D01*
X64074404Y-32350476D01*
X64026785Y-32445714D01*
X63979166Y-32493333D01*
X63883928Y-32540952D01*
X63693452Y-32540952D01*
X63598214Y-32588571D01*
X63550595Y-32636190D01*
X63502976Y-32731428D01*
X63502976Y-32921904D01*
X63550595Y-33017142D01*
X63598214Y-33064761D01*
X63693452Y-33112380D01*
X63883928Y-33112380D01*
X63979166Y-33064761D01*
X64026785Y-33017142D01*
X64074404Y-32921904D01*
X64074404Y-32731428D01*
X64026785Y-32636190D01*
X63979166Y-32588571D01*
X63883928Y-32540952D01*
X64407738Y-33112380D02*
X64931547Y-32445714D01*
X64407738Y-32445714D02*
X64931547Y-33112380D01*
X65312500Y-33112380D02*
X65312500Y-32112380D01*
X65645833Y-32826666D01*
X65979166Y-32112380D01*
X65979166Y-33112380D01*
X66407738Y-32207619D02*
X66455357Y-32160000D01*
X66550595Y-32112380D01*
X66788690Y-32112380D01*
X66883928Y-32160000D01*
X66931547Y-32207619D01*
X66979166Y-32302857D01*
X66979166Y-32398095D01*
X66931547Y-32540952D01*
X66360119Y-33112380D01*
X66979166Y-33112380D01*
X67407738Y-33017142D02*
X67455357Y-33064761D01*
X67407738Y-33112380D01*
X67360119Y-33064761D01*
X67407738Y-33017142D01*
X67407738Y-33112380D01*
X68360119Y-32112380D02*
X67883928Y-32112380D01*
X67836309Y-32588571D01*
X67883928Y-32540952D01*
X67979166Y-32493333D01*
X68217261Y-32493333D01*
X68312500Y-32540952D01*
X68360119Y-32588571D01*
X68407738Y-32683809D01*
X68407738Y-32921904D01*
X68360119Y-33017142D01*
X68312500Y-33064761D01*
X68217261Y-33112380D01*
X67979166Y-33112380D01*
X67883928Y-33064761D01*
X67836309Y-33017142D01*
X69598214Y-32731428D02*
X70360119Y-32731428D01*
X70836309Y-32445714D02*
X71598214Y-32731428D01*
X70836309Y-33017142D01*
D12*
X39192857Y-31992857D02*
X39992857Y-31992857D01*
X39478571Y-33192857D01*
X40964285Y-31992857D02*
X40735714Y-31992857D01*
X40621428Y-32050000D01*
X40564285Y-32107142D01*
X40449999Y-32278571D01*
X40392857Y-32507142D01*
X40392857Y-32964285D01*
X40449999Y-33078571D01*
X40507142Y-33135714D01*
X40621428Y-33192857D01*
X40849999Y-33192857D01*
X40964285Y-33135714D01*
X41021428Y-33078571D01*
X41078571Y-32964285D01*
X41078571Y-32678571D01*
X41021428Y-32564285D01*
X40964285Y-32507142D01*
X40849999Y-32450000D01*
X40621428Y-32450000D01*
X40507142Y-32507142D01*
X40449999Y-32564285D01*
X40392857Y-32678571D01*
X41478571Y-33192857D02*
X42107142Y-32392857D01*
X41478571Y-32392857D02*
X42107142Y-33192857D01*
X42449999Y-31992857D02*
X43192857Y-31992857D01*
X42792857Y-32450000D01*
X42964285Y-32450000D01*
X43078571Y-32507142D01*
X43135714Y-32564285D01*
X43192857Y-32678571D01*
X43192857Y-32964285D01*
X43135714Y-33078571D01*
X43078571Y-33135714D01*
X42964285Y-33192857D01*
X42621428Y-33192857D01*
X42507142Y-33135714D01*
X42449999Y-33078571D01*
X44278571Y-31992857D02*
X43707142Y-31992857D01*
X43650000Y-32564285D01*
X43707142Y-32507142D01*
X43821428Y-32450000D01*
X44107142Y-32450000D01*
X44221428Y-32507142D01*
X44278571Y-32564285D01*
X44335714Y-32678571D01*
X44335714Y-32964285D01*
X44278571Y-33078571D01*
X44221428Y-33135714D01*
X44107142Y-33192857D01*
X43821428Y-33192857D01*
X43707142Y-33135714D01*
X43650000Y-33078571D01*
X44735714Y-33192857D02*
X45364285Y-32392857D01*
X44735714Y-32392857D02*
X45364285Y-33192857D01*
X46450000Y-33192857D02*
X45764285Y-33192857D01*
X46107142Y-33192857D02*
X46107142Y-31992857D01*
X45992857Y-32164285D01*
X45878571Y-32278571D01*
X45764285Y-32335714D01*
X47192857Y-31992857D02*
X47307142Y-31992857D01*
X47421428Y-32050000D01*
X47478571Y-32107142D01*
X47535714Y-32221428D01*
X47592857Y-32450000D01*
X47592857Y-32735714D01*
X47535714Y-32964285D01*
X47478571Y-33078571D01*
X47421428Y-33135714D01*
X47307142Y-33192857D01*
X47192857Y-33192857D01*
X47078571Y-33135714D01*
X47021428Y-33078571D01*
X46964285Y-32964285D01*
X46907142Y-32735714D01*
X46907142Y-32450000D01*
X46964285Y-32221428D01*
X47021428Y-32107142D01*
X47078571Y-32050000D01*
X47192857Y-31992857D01*
X48335714Y-31992857D02*
X48450000Y-31992857D01*
X48564285Y-32050000D01*
X48621428Y-32107142D01*
X48678571Y-32221428D01*
X48735714Y-32450000D01*
X48735714Y-32735714D01*
X48678571Y-32964285D01*
X48621428Y-33078571D01*
X48564285Y-33135714D01*
X48450000Y-33192857D01*
X48335714Y-33192857D01*
X48221428Y-33135714D01*
X48164285Y-33078571D01*
X48107142Y-32964285D01*
X48050000Y-32735714D01*
X48050000Y-32450000D01*
X48107142Y-32221428D01*
X48164285Y-32107142D01*
X48221428Y-32050000D01*
X48335714Y-31992857D01*
X50107142Y-33135714D02*
X50221428Y-33192857D01*
X50450000Y-33192857D01*
X50564285Y-33135714D01*
X50621428Y-33021428D01*
X50621428Y-32964285D01*
X50564285Y-32850000D01*
X50450000Y-32792857D01*
X50278571Y-32792857D01*
X50164285Y-32735714D01*
X50107142Y-32621428D01*
X50107142Y-32564285D01*
X50164285Y-32450000D01*
X50278571Y-32392857D01*
X50450000Y-32392857D01*
X50564285Y-32450000D01*
X51135714Y-32392857D02*
X51135714Y-33592857D01*
X51135714Y-32450000D02*
X51250000Y-32392857D01*
X51478571Y-32392857D01*
X51592857Y-32450000D01*
X51650000Y-32507142D01*
X51707142Y-32621428D01*
X51707142Y-32964285D01*
X51650000Y-33078571D01*
X51592857Y-33135714D01*
X51478571Y-33192857D01*
X51250000Y-33192857D01*
X51135714Y-33135714D01*
X52392857Y-33192857D02*
X52278571Y-33135714D01*
X52221428Y-33021428D01*
X52221428Y-31992857D01*
X52850000Y-33192857D02*
X52850000Y-32392857D01*
X52850000Y-31992857D02*
X52792857Y-32050000D01*
X52850000Y-32107142D01*
X52907142Y-32050000D01*
X52850000Y-31992857D01*
X52850000Y-32107142D01*
X53250000Y-32392857D02*
X53707142Y-32392857D01*
X53421428Y-31992857D02*
X53421428Y-33021428D01*
X53478571Y-33135714D01*
X53592857Y-33192857D01*
X53707142Y-33192857D01*
X54964285Y-33135714D02*
X55078571Y-33192857D01*
X55307142Y-33192857D01*
X55421428Y-33135714D01*
X55478571Y-33021428D01*
X55478571Y-32964285D01*
X55421428Y-32850000D01*
X55307142Y-32792857D01*
X55135714Y-32792857D01*
X55021428Y-32735714D01*
X54964285Y-32621428D01*
X54964285Y-32564285D01*
X55021428Y-32450000D01*
X55135714Y-32392857D01*
X55307142Y-32392857D01*
X55421428Y-32450000D01*
X55992857Y-33192857D02*
X55992857Y-31992857D01*
X56507142Y-33192857D02*
X56507142Y-32564285D01*
X56450000Y-32450000D01*
X56335714Y-32392857D01*
X56164285Y-32392857D01*
X56050000Y-32450000D01*
X55992857Y-32507142D01*
X57535714Y-33135714D02*
X57421428Y-33192857D01*
X57192857Y-33192857D01*
X57078571Y-33135714D01*
X57021428Y-33021428D01*
X57021428Y-32564285D01*
X57078571Y-32450000D01*
X57192857Y-32392857D01*
X57421428Y-32392857D01*
X57535714Y-32450000D01*
X57592857Y-32564285D01*
X57592857Y-32678571D01*
X57021428Y-32792857D01*
X58278571Y-33192857D02*
X58164285Y-33135714D01*
X58107142Y-33021428D01*
X58107142Y-31992857D01*
X58907142Y-33192857D02*
X58792857Y-33135714D01*
X58735714Y-33021428D01*
X58735714Y-31992857D01*
D13*
X66758095Y-15657142D02*
X67367619Y-15657142D01*
X66986666Y-15123809D02*
X66986666Y-16495238D01*
X67062857Y-16647619D01*
X67215238Y-16723809D01*
X67367619Y-16723809D01*
X67748571Y-16723809D02*
X68586666Y-15657142D01*
X67748571Y-15657142D02*
X68586666Y-16723809D01*
X69120000Y-15276190D02*
X69196190Y-15200000D01*
X69348571Y-15123809D01*
X69729523Y-15123809D01*
X69881904Y-15200000D01*
X69958095Y-15276190D01*
X70034285Y-15428571D01*
X70034285Y-15580952D01*
X69958095Y-15809523D01*
X69043809Y-16723809D01*
X70034285Y-16723809D01*
X71481904Y-16723809D02*
X70720000Y-16723809D01*
X70720000Y-15123809D01*
X55027619Y-15657142D02*
X55637142Y-15657142D01*
X55256190Y-15123809D02*
X55256190Y-16495238D01*
X55332380Y-16647619D01*
X55484761Y-16723809D01*
X55637142Y-16723809D01*
X56018095Y-16723809D02*
X56856190Y-15657142D01*
X56018095Y-15657142D02*
X56856190Y-16723809D01*
X57389523Y-15276190D02*
X57465714Y-15200000D01*
X57618095Y-15123809D01*
X57999047Y-15123809D01*
X58151428Y-15200000D01*
X58227619Y-15276190D01*
X58303809Y-15428571D01*
X58303809Y-15580952D01*
X58227619Y-15809523D01*
X57313333Y-16723809D01*
X58303809Y-16723809D01*
X58989523Y-16723809D02*
X58989523Y-15123809D01*
X58989523Y-15885714D02*
X59903809Y-15885714D01*
X59903809Y-16723809D02*
X59903809Y-15123809D01*
X32178571Y-16723809D02*
X32178571Y-15657142D01*
X32178571Y-15961904D02*
X32254761Y-15809523D01*
X32330952Y-15733333D01*
X32483333Y-15657142D01*
X32635714Y-15657142D01*
X33016666Y-16723809D02*
X33854761Y-15657142D01*
X33016666Y-15657142D02*
X33854761Y-16723809D01*
X34388095Y-15276190D02*
X34464285Y-15200000D01*
X34616666Y-15123809D01*
X34997619Y-15123809D01*
X35150000Y-15200000D01*
X35226190Y-15276190D01*
X35302380Y-15428571D01*
X35302380Y-15580952D01*
X35226190Y-15809523D01*
X34311904Y-16723809D01*
X35302380Y-16723809D01*
X36750000Y-16723809D02*
X35988095Y-16723809D01*
X35988095Y-15123809D01*
X18681904Y-16723809D02*
X18681904Y-15657142D01*
X18681904Y-15961904D02*
X18758095Y-15809523D01*
X18834285Y-15733333D01*
X18986666Y-15657142D01*
X19139047Y-15657142D01*
X19520000Y-16723809D02*
X20358095Y-15657142D01*
X19520000Y-15657142D02*
X20358095Y-16723809D01*
X20891428Y-15276190D02*
X20967619Y-15200000D01*
X21120000Y-15123809D01*
X21500952Y-15123809D01*
X21653333Y-15200000D01*
X21729523Y-15276190D01*
X21805714Y-15428571D01*
X21805714Y-15580952D01*
X21729523Y-15809523D01*
X20815238Y-16723809D01*
X21805714Y-16723809D01*
X22339047Y-15123809D02*
X22720000Y-16723809D01*
X23024761Y-15580952D01*
X23329523Y-16723809D01*
X23710476Y-15123809D01*
X6808095Y-16723809D02*
X6808095Y-15657142D01*
X6808095Y-15961904D02*
X6884285Y-15809523D01*
X6960476Y-15733333D01*
X7112857Y-15657142D01*
X7265238Y-15657142D01*
X7646190Y-16723809D02*
X8484285Y-15657142D01*
X7646190Y-15657142D02*
X8484285Y-16723809D01*
X9017619Y-15276190D02*
X9093809Y-15200000D01*
X9246190Y-15123809D01*
X9627142Y-15123809D01*
X9779523Y-15200000D01*
X9855714Y-15276190D01*
X9931904Y-15428571D01*
X9931904Y-15580952D01*
X9855714Y-15809523D01*
X8941428Y-16723809D01*
X9931904Y-16723809D01*
X10617619Y-16723809D02*
X10617619Y-15123809D01*
X10617619Y-15885714D02*
X11531904Y-15885714D01*
X11531904Y-16723809D02*
X11531904Y-15123809D01*
X6808095Y-13773809D02*
X6808095Y-12707142D01*
X6808095Y-13011904D02*
X6884285Y-12859523D01*
X6960476Y-12783333D01*
X7112857Y-12707142D01*
X7265238Y-12707142D01*
X7646190Y-13773809D02*
X8484285Y-12707142D01*
X7646190Y-12707142D02*
X8484285Y-13773809D01*
X9931904Y-13773809D02*
X9017619Y-13773809D01*
X9474761Y-13773809D02*
X9474761Y-12173809D01*
X9322380Y-12402380D01*
X9170000Y-12554761D01*
X9017619Y-12630952D01*
X10617619Y-13773809D02*
X10617619Y-12173809D01*
X10617619Y-12935714D02*
X11531904Y-12935714D01*
X11531904Y-13773809D02*
X11531904Y-12173809D01*
X18681904Y-13773809D02*
X18681904Y-12707142D01*
X18681904Y-13011904D02*
X18758095Y-12859523D01*
X18834285Y-12783333D01*
X18986666Y-12707142D01*
X19139047Y-12707142D01*
X19520000Y-13773809D02*
X20358095Y-12707142D01*
X19520000Y-12707142D02*
X20358095Y-13773809D01*
X21805714Y-13773809D02*
X20891428Y-13773809D01*
X21348571Y-13773809D02*
X21348571Y-12173809D01*
X21196190Y-12402380D01*
X21043809Y-12554761D01*
X20891428Y-12630952D01*
X22339047Y-12173809D02*
X22720000Y-13773809D01*
X23024761Y-12630952D01*
X23329523Y-13773809D01*
X23710476Y-12173809D01*
X32178571Y-13773809D02*
X32178571Y-12707142D01*
X32178571Y-13011904D02*
X32254761Y-12859523D01*
X32330952Y-12783333D01*
X32483333Y-12707142D01*
X32635714Y-12707142D01*
X33016666Y-13773809D02*
X33854761Y-12707142D01*
X33016666Y-12707142D02*
X33854761Y-13773809D01*
X35302380Y-13773809D02*
X34388095Y-13773809D01*
X34845238Y-13773809D02*
X34845238Y-12173809D01*
X34692857Y-12402380D01*
X34540476Y-12554761D01*
X34388095Y-12630952D01*
X36750000Y-13773809D02*
X35988095Y-13773809D01*
X35988095Y-12173809D01*
X55027619Y-12707142D02*
X55637142Y-12707142D01*
X55256190Y-12173809D02*
X55256190Y-13545238D01*
X55332380Y-13697619D01*
X55484761Y-13773809D01*
X55637142Y-13773809D01*
X56018095Y-13773809D02*
X56856190Y-12707142D01*
X56018095Y-12707142D02*
X56856190Y-13773809D01*
X58303809Y-13773809D02*
X57389523Y-13773809D01*
X57846666Y-13773809D02*
X57846666Y-12173809D01*
X57694285Y-12402380D01*
X57541904Y-12554761D01*
X57389523Y-12630952D01*
X58989523Y-13773809D02*
X58989523Y-12173809D01*
X58989523Y-12935714D02*
X59903809Y-12935714D01*
X59903809Y-13773809D02*
X59903809Y-12173809D01*
X66758095Y-12707142D02*
X67367619Y-12707142D01*
X66986666Y-12173809D02*
X66986666Y-13545238D01*
X67062857Y-13697619D01*
X67215238Y-13773809D01*
X67367619Y-13773809D01*
X67748571Y-13773809D02*
X68586666Y-12707142D01*
X67748571Y-12707142D02*
X68586666Y-13773809D01*
X70034285Y-13773809D02*
X69120000Y-13773809D01*
X69577142Y-13773809D02*
X69577142Y-12173809D01*
X69424761Y-12402380D01*
X69272380Y-12554761D01*
X69120000Y-12630952D01*
X71481904Y-13773809D02*
X70720000Y-13773809D01*
X70720000Y-12173809D01*
%LPC*%
D14*
X68720000Y-19650000D02*
X68720000Y-23620000D01*
D15*
X69630000Y-21630000D02*
G75*
G03X69630000Y-21630000I-3830000J0D01*
G01*
D16*
X68460000Y-21630000D02*
G75*
G03X68460000Y-21630000I-2660000J0D01*
G01*
D14*
X55720000Y-19650000D02*
X55720000Y-23620000D01*
D15*
X56630000Y-21630000D02*
G75*
G03X56630000Y-21630000I-3830000J0D01*
G01*
D16*
X55460000Y-21630000D02*
G75*
G03X55460000Y-21630000I-2660000J0D01*
G01*
D14*
X68720000Y-5650000D02*
X68720000Y-9620000D01*
D15*
X69630000Y-7630000D02*
G75*
G03X69630000Y-7630000I-3830000J0D01*
G01*
D16*
X68460000Y-7630000D02*
G75*
G03X68460000Y-7630000I-2660000J0D01*
G01*
D14*
X55720000Y-5650000D02*
X55720000Y-9620000D01*
D15*
X56630000Y-7630000D02*
G75*
G03X56630000Y-7630000I-3830000J0D01*
G01*
D16*
X55460000Y-7630000D02*
G75*
G03X55460000Y-7630000I-2660000J0D01*
G01*
D14*
X41720000Y-19650000D02*
X41720000Y-23620000D01*
D15*
X42630000Y-21630000D02*
G75*
G03X42630000Y-21630000I-3830000J0D01*
G01*
D16*
X41460000Y-21630000D02*
G75*
G03X41460000Y-21630000I-2660000J0D01*
G01*
D14*
X28720000Y-19650000D02*
X28720000Y-23620000D01*
D15*
X29630000Y-21630000D02*
G75*
G03X29630000Y-21630000I-3830000J0D01*
G01*
D16*
X28460000Y-21630000D02*
G75*
G03X28460000Y-21630000I-2660000J0D01*
G01*
D14*
X15720000Y-19650000D02*
X15720000Y-23620000D01*
D15*
X16630000Y-21630000D02*
G75*
G03X16630000Y-21630000I-3830000J0D01*
G01*
D16*
X15460000Y-21630000D02*
G75*
G03X15460000Y-21630000I-2660000J0D01*
G01*
D14*
X41720000Y-5650000D02*
X41720000Y-9620000D01*
D15*
X42630000Y-7630000D02*
G75*
G03X42630000Y-7630000I-3830000J0D01*
G01*
D16*
X41460000Y-7630000D02*
G75*
G03X41460000Y-7630000I-2660000J0D01*
G01*
D14*
X28720000Y-5650000D02*
X28720000Y-9620000D01*
D15*
X29630000Y-7630000D02*
G75*
G03X29630000Y-7630000I-3830000J0D01*
G01*
D16*
X28460000Y-7630000D02*
G75*
G03X28460000Y-7630000I-2660000J0D01*
G01*
D14*
X15720000Y-5650000D02*
X15720000Y-9620000D01*
D15*
X16630000Y-7630000D02*
G75*
G03X16630000Y-7630000I-3830000J0D01*
G01*
D16*
X15460000Y-7630000D02*
G75*
G03X15460000Y-7630000I-2660000J0D01*
G01*
D17*
G36*
X74774827Y-156982D02*
X74811147Y-2663072D01*
X3654759Y-2702930D01*
X3609280Y-147018D01*
X74774827Y-156982D01*
X74774827Y-156982D01*
G37*
X74774827Y-156982D02*
X74811147Y-2663072D01*
X3654759Y-2702930D01*
X3609280Y-147018D01*
X74774827Y-156982D01*
G36*
X74562943Y-33988670D02*
X74582018Y-36463072D01*
X3425589Y-36502930D01*
X3397395Y-33978706D01*
X74562943Y-33988670D01*
X74562943Y-33988670D01*
G37*
X74562943Y-33988670D02*
X74582018Y-36463072D01*
X3425589Y-36502930D01*
X3397395Y-33978706D01*
X74562943Y-33988670D01*
G36*
X78673000Y-36503000D02*
X72627000Y-36503000D01*
X72627000Y-157000D01*
X78673000Y-157000D01*
X78673000Y-36503000D01*
X78673000Y-36503000D01*
G37*
X78673000Y-36503000D02*
X72627000Y-36503000D01*
X72627000Y-157000D01*
X78673000Y-157000D01*
X78673000Y-36503000D01*
G36*
X6173000Y-36469854D02*
X127000Y-36469854D01*
X127000Y-123854D01*
X6173000Y-123854D01*
X6173000Y-36469854D01*
X6173000Y-36469854D01*
G37*
X6173000Y-36469854D02*
X127000Y-36469854D01*
X127000Y-123854D01*
X6173000Y-123854D01*
X6173000Y-36469854D01*
G36*
X72439650Y-31342987D02*
X5706247Y-31333019D01*
X5697758Y-29906981D01*
X72941483Y-29897026D01*
X72439650Y-31342987D01*
X72439650Y-31342987D01*
G37*
X72439650Y-31342987D02*
X5706247Y-31333019D01*
X5697758Y-29906981D01*
X72941483Y-29897026D01*
X72439650Y-31342987D01*
M02*
