G04 #@! TF.FileFunction,Legend,Bot*
%FSLAX46Y46*%
G04 Gerber Fmt 4.6, Leading zero omitted, Abs format (unit mm)*
G04 Created by KiCad (PCBNEW (2016-07-22 BZR 6991, Git 146a78a)-product) date 08/19/16 17:40:47*
%MOMM*%
%LPD*%
G01*
G04 APERTURE LIST*
%ADD10C,0.150000*%
%ADD11C,0.400000*%
%ADD12C,0.500000*%
%ADD13C,0.450000*%
%ADD14C,0.010000*%
%ADD15C,1.000000*%
%ADD16C,3.000000*%
%ADD17C,0.700000*%
%ADD18C,1.350000*%
G04 APERTURE END LIST*
D10*
D11*
X65242857Y-14744285D02*
X66100000Y-14744285D01*
X66100000Y-12944285D01*
D12*
X62000000Y-13830000D02*
X56700000Y-13830000D01*
D11*
X53314285Y-14759175D02*
X53314285Y-12959175D01*
X53314285Y-13816318D02*
X52285714Y-13816318D01*
X52285714Y-14759175D02*
X52285714Y-12959175D01*
D12*
X49090000Y-13820000D02*
G75*
G02X47040000Y-11719390I0J2050610D01*
G01*
X46990000Y-3920000D02*
X47040000Y-11719390D01*
X46989390Y-3880000D02*
G75*
G02X49090000Y-1830000I2050610J0D01*
G01*
X69600000Y-1830000D02*
X49100000Y-1830000D01*
X69500000Y-1830000D02*
G75*
G02X71550000Y-3930610I0J-2050610D01*
G01*
X71550000Y-11800000D02*
X71550000Y-3930610D01*
X71550000Y-11800000D02*
G75*
G02X69449390Y-13850000I-2050610J0D01*
G01*
D11*
X72504761Y-8806190D02*
X72504761Y-10063333D01*
X74504761Y-9434761D02*
X72504761Y-9434761D01*
X72504761Y-10587142D02*
X74504761Y-12053809D01*
X72504761Y-12053809D02*
X74504761Y-10587142D01*
X74504761Y-14044285D02*
X74504761Y-12787142D01*
X74504761Y-13415714D02*
X72504761Y-13415714D01*
X72790476Y-13206190D01*
X72980952Y-12996666D01*
X73076190Y-12787142D01*
D12*
X46989390Y-17880000D02*
G75*
G02X49090000Y-15830000I2050610J0D01*
G01*
X46990000Y-17920000D02*
X47040000Y-25719390D01*
X49090000Y-27820000D02*
G75*
G02X47040000Y-25719390I0J2050610D01*
G01*
X42500000Y-1830000D02*
G75*
G02X44550000Y-3930610I0J-2050610D01*
G01*
X44550000Y-11750000D02*
X44550000Y-3930610D01*
X44550000Y-11780000D02*
G75*
G02X42449390Y-13830000I-2050610J0D01*
G01*
D11*
X38242857Y-14744285D02*
X39100000Y-14744285D01*
X39100000Y-12944285D01*
D12*
X35000000Y-13830000D02*
X29700000Y-13830000D01*
D11*
X26571428Y-12959175D02*
X26142857Y-14759175D01*
X25800000Y-13473461D01*
X25457142Y-14759175D01*
X25028571Y-12959175D01*
D12*
X22000000Y-13830000D02*
X16700000Y-13830000D01*
D11*
X13314285Y-14744285D02*
X13314285Y-12944285D01*
X13314285Y-13801428D02*
X12285714Y-13801428D01*
X12285714Y-14744285D02*
X12285714Y-12944285D01*
D12*
X9106034Y-13794890D02*
G75*
G02X7056034Y-11694280I0J2050610D01*
G01*
X42600000Y-1830000D02*
X9150000Y-1830000D01*
X7049390Y-3880000D02*
G75*
G02X9150000Y-1830000I2050610J0D01*
G01*
X7056034Y-11694890D02*
X7056034Y-3844890D01*
D11*
X6034761Y-10045714D02*
X5082380Y-9312380D01*
X6034761Y-8788571D02*
X4034761Y-8788571D01*
X4034761Y-9626666D01*
X4130000Y-9836190D01*
X4225238Y-9940952D01*
X4415714Y-10045714D01*
X4701428Y-10045714D01*
X4891904Y-9940952D01*
X4987142Y-9836190D01*
X5082380Y-9626666D01*
X5082380Y-8788571D01*
X4034761Y-10779047D02*
X6034761Y-12245714D01*
X4034761Y-12245714D02*
X6034761Y-10779047D01*
X6034761Y-14236190D02*
X6034761Y-12979047D01*
X6034761Y-13607619D02*
X4034761Y-13607619D01*
X4320476Y-13398095D01*
X4510952Y-13188571D01*
X4606190Y-12979047D01*
X53314285Y-28759175D02*
X53314285Y-26959175D01*
X53314285Y-27816318D02*
X52285714Y-27816318D01*
X52285714Y-28759175D02*
X52285714Y-26959175D01*
X65242857Y-28744285D02*
X66100000Y-28744285D01*
X66100000Y-26944285D01*
D12*
X62000000Y-27830000D02*
X56700000Y-27830000D01*
X69600000Y-15830000D02*
X49100000Y-15830000D01*
X69500000Y-15830000D02*
G75*
G02X71550000Y-17930610I0J-2050610D01*
G01*
X71550000Y-25800000D02*
X71550000Y-17930610D01*
X71550000Y-25780000D02*
G75*
G02X69449390Y-27830000I-2050610J0D01*
G01*
D11*
X72504761Y-22806190D02*
X72504761Y-24063333D01*
X74504761Y-23434761D02*
X72504761Y-23434761D01*
X72504761Y-24587142D02*
X74504761Y-26053809D01*
X72504761Y-26053809D02*
X74504761Y-24587142D01*
X72695238Y-26787142D02*
X72600000Y-26891904D01*
X72504761Y-27101428D01*
X72504761Y-27625238D01*
X72600000Y-27834761D01*
X72695238Y-27939523D01*
X72885714Y-28044285D01*
X73076190Y-28044285D01*
X73361904Y-27939523D01*
X74504761Y-26682380D01*
X74504761Y-28044285D01*
D12*
X22000000Y-27830000D02*
X16700000Y-27830000D01*
D11*
X6034761Y-24045714D02*
X5082380Y-23312380D01*
X6034761Y-22788571D02*
X4034761Y-22788571D01*
X4034761Y-23626666D01*
X4130000Y-23836190D01*
X4225238Y-23940952D01*
X4415714Y-24045714D01*
X4701428Y-24045714D01*
X4891904Y-23940952D01*
X4987142Y-23836190D01*
X5082380Y-23626666D01*
X5082380Y-22788571D01*
X4034761Y-24779047D02*
X6034761Y-26245714D01*
X4034761Y-26245714D02*
X6034761Y-24779047D01*
X4225238Y-26979047D02*
X4130000Y-27083809D01*
X4034761Y-27293333D01*
X4034761Y-27817142D01*
X4130000Y-28026666D01*
X4225238Y-28131428D01*
X4415714Y-28236190D01*
X4606190Y-28236190D01*
X4891904Y-28131428D01*
X6034761Y-26874285D01*
X6034761Y-28236190D01*
D12*
X44550000Y-25800000D02*
X44550000Y-17930610D01*
X44550000Y-25780000D02*
G75*
G02X42449390Y-27830000I-2050610J0D01*
G01*
X42500000Y-15830000D02*
G75*
G02X44550000Y-17930610I0J-2050610D01*
G01*
X35000000Y-27830000D02*
X29700000Y-27830000D01*
X7056034Y-25694890D02*
X7056034Y-17844890D01*
X9106034Y-27794890D02*
G75*
G02X7056034Y-25694280I0J2050610D01*
G01*
X7049390Y-17880000D02*
G75*
G02X9150000Y-15830000I2050610J0D01*
G01*
X42600000Y-15830000D02*
X9150000Y-15830000D01*
D11*
X13314285Y-28744285D02*
X13314285Y-26944285D01*
X13314285Y-27801428D02*
X12285714Y-27801428D01*
X12285714Y-28744285D02*
X12285714Y-26944285D01*
X26571428Y-26959175D02*
X26142857Y-28759175D01*
X25800000Y-27473461D01*
X25457142Y-28759175D01*
X25028571Y-26959175D01*
X38242857Y-28744285D02*
X39100000Y-28744285D01*
X39100000Y-26944285D01*
D13*
X25050000Y-33751428D02*
X26335714Y-33751428D01*
X26335714Y-31051428D01*
X24150000Y-33751428D02*
X24150000Y-31951428D01*
X24150000Y-31051428D02*
X24278571Y-31180000D01*
X24150000Y-31308571D01*
X24021428Y-31180000D01*
X24150000Y-31051428D01*
X24150000Y-31308571D01*
X22864285Y-33751428D02*
X22864285Y-31951428D01*
X22864285Y-32208571D02*
X22735714Y-32080000D01*
X22478571Y-31951428D01*
X22092857Y-31951428D01*
X21835714Y-32080000D01*
X21707142Y-32337142D01*
X21707142Y-33751428D01*
X21707142Y-32337142D02*
X21578571Y-32080000D01*
X21321428Y-31951428D01*
X20935714Y-31951428D01*
X20678571Y-32080000D01*
X20550000Y-32337142D01*
X20550000Y-33751428D01*
X18235714Y-33622857D02*
X18492857Y-33751428D01*
X19007142Y-33751428D01*
X19264285Y-33622857D01*
X19392857Y-33365714D01*
X19392857Y-32337142D01*
X19264285Y-32080000D01*
X19007142Y-31951428D01*
X18492857Y-31951428D01*
X18235714Y-32080000D01*
X18107142Y-32337142D01*
X18107142Y-32594285D01*
X19392857Y-32851428D01*
X17078571Y-33622857D02*
X16692857Y-33751428D01*
X16050000Y-33751428D01*
X15792857Y-33622857D01*
X15664285Y-33494285D01*
X15535714Y-33237142D01*
X15535714Y-32980000D01*
X15664285Y-32722857D01*
X15792857Y-32594285D01*
X16050000Y-32465714D01*
X16564285Y-32337142D01*
X16821428Y-32208571D01*
X16950000Y-32080000D01*
X17078571Y-31822857D01*
X17078571Y-31565714D01*
X16950000Y-31308571D01*
X16821428Y-31180000D01*
X16564285Y-31051428D01*
X15921428Y-31051428D01*
X15535714Y-31180000D01*
X14378571Y-33751428D02*
X14378571Y-31051428D01*
X13735714Y-31051428D01*
X13350000Y-31180000D01*
X13092857Y-31437142D01*
X12964285Y-31694285D01*
X12835714Y-32208571D01*
X12835714Y-32594285D01*
X12964285Y-33108571D01*
X13092857Y-33365714D01*
X13350000Y-33622857D01*
X13735714Y-33751428D01*
X14378571Y-33751428D01*
X10135714Y-33751428D02*
X11035714Y-32465714D01*
X11678571Y-33751428D02*
X11678571Y-31051428D01*
X10650000Y-31051428D01*
X10392857Y-31180000D01*
X10264285Y-31308571D01*
X10135714Y-31565714D01*
X10135714Y-31951428D01*
X10264285Y-32208571D01*
X10392857Y-32337142D01*
X10650000Y-32465714D01*
X11678571Y-32465714D01*
D14*
G36*
X30454043Y-33738197D02*
X30417481Y-33749661D01*
X30376869Y-33776913D01*
X30326432Y-33826618D01*
X30260399Y-33905441D01*
X30172997Y-34020047D01*
X30058454Y-34177101D01*
X29910995Y-34383268D01*
X29816619Y-34516000D01*
X29668506Y-34725399D01*
X29535197Y-34915609D01*
X29422234Y-35078585D01*
X29335153Y-35206282D01*
X29279495Y-35290655D01*
X29260770Y-35323357D01*
X29276973Y-35351022D01*
X29332859Y-35320645D01*
X29429210Y-35231686D01*
X29498808Y-35158592D01*
X29673022Y-34969481D01*
X29812269Y-34815778D01*
X29931492Y-34680207D01*
X30045631Y-34545488D01*
X30169625Y-34394344D01*
X30304768Y-34226531D01*
X30421679Y-34077263D01*
X30518989Y-33946509D01*
X30588970Y-33845175D01*
X30623893Y-33784169D01*
X30626177Y-33772959D01*
X30585309Y-33747775D01*
X30502209Y-33735979D01*
X30492326Y-33735857D01*
X30454043Y-33738197D01*
X30454043Y-33738197D01*
G37*
X30454043Y-33738197D02*
X30417481Y-33749661D01*
X30376869Y-33776913D01*
X30326432Y-33826618D01*
X30260399Y-33905441D01*
X30172997Y-34020047D01*
X30058454Y-34177101D01*
X29910995Y-34383268D01*
X29816619Y-34516000D01*
X29668506Y-34725399D01*
X29535197Y-34915609D01*
X29422234Y-35078585D01*
X29335153Y-35206282D01*
X29279495Y-35290655D01*
X29260770Y-35323357D01*
X29276973Y-35351022D01*
X29332859Y-35320645D01*
X29429210Y-35231686D01*
X29498808Y-35158592D01*
X29673022Y-34969481D01*
X29812269Y-34815778D01*
X29931492Y-34680207D01*
X30045631Y-34545488D01*
X30169625Y-34394344D01*
X30304768Y-34226531D01*
X30421679Y-34077263D01*
X30518989Y-33946509D01*
X30588970Y-33845175D01*
X30623893Y-33784169D01*
X30626177Y-33772959D01*
X30585309Y-33747775D01*
X30502209Y-33735979D01*
X30492326Y-33735857D01*
X30454043Y-33738197D01*
G36*
X33814828Y-29200306D02*
X33742616Y-29267081D01*
X33634055Y-29387479D01*
X33573854Y-29458141D01*
X33470789Y-29580195D01*
X33382798Y-29683811D01*
X33322028Y-29754713D01*
X33303660Y-29775641D01*
X33269525Y-29815776D01*
X33197317Y-29902412D01*
X33094991Y-30025946D01*
X32970505Y-30176772D01*
X32833575Y-30343143D01*
X32677906Y-30530219D01*
X32519419Y-30716623D01*
X32370984Y-30887500D01*
X32245470Y-31027994D01*
X32173486Y-31105143D01*
X32065038Y-31216221D01*
X31992913Y-31282621D01*
X31943215Y-31312053D01*
X31902046Y-31312225D01*
X31855510Y-31290847D01*
X31847103Y-31286200D01*
X31749671Y-31208709D01*
X31672321Y-31090230D01*
X31609494Y-30919756D01*
X31562927Y-30723618D01*
X31515809Y-30489866D01*
X31479962Y-30317856D01*
X31452598Y-30198132D01*
X31430931Y-30121238D01*
X31412172Y-30077720D01*
X31393534Y-30058123D01*
X31372231Y-30052990D01*
X31365193Y-30052857D01*
X31336943Y-30064956D01*
X31314420Y-30108862D01*
X31294621Y-30195988D01*
X31274543Y-30337746D01*
X31262131Y-30444600D01*
X31243811Y-30622478D01*
X31229231Y-30788957D01*
X31220252Y-30921341D01*
X31218294Y-30979815D01*
X31200504Y-31138459D01*
X31153423Y-31330146D01*
X31085721Y-31526062D01*
X31006066Y-31697398D01*
X30998194Y-31711345D01*
X30948880Y-31815335D01*
X30938722Y-31880372D01*
X30966057Y-31898057D01*
X31027849Y-31861156D01*
X31066322Y-31833055D01*
X31126340Y-31797966D01*
X31218257Y-31750627D01*
X31352424Y-31685776D01*
X31539195Y-31598153D01*
X31610620Y-31564974D01*
X31694235Y-31542545D01*
X31816548Y-31527638D01*
X31894912Y-31524311D01*
X32018109Y-31528078D01*
X32096294Y-31548482D01*
X32156654Y-31594819D01*
X32181604Y-31622358D01*
X32248617Y-31727674D01*
X32290078Y-31842010D01*
X32290345Y-31843407D01*
X32283766Y-31981307D01*
X32221226Y-32163041D01*
X32103534Y-32387241D01*
X31931500Y-32652536D01*
X31705936Y-32957557D01*
X31429150Y-33299150D01*
X31317789Y-33440981D01*
X31252979Y-33545051D01*
X31238118Y-33605860D01*
X31238712Y-33607578D01*
X31257640Y-33674658D01*
X31281055Y-33782414D01*
X31292745Y-33844715D01*
X31310999Y-33940080D01*
X31333522Y-34038588D01*
X31364772Y-34157273D01*
X31409203Y-34313167D01*
X31462993Y-34495493D01*
X31504558Y-34584750D01*
X31553671Y-34618687D01*
X31598983Y-34589520D01*
X31599319Y-34588981D01*
X31610401Y-34540042D01*
X31624021Y-34432855D01*
X31638689Y-34281632D01*
X31652917Y-34100584D01*
X31657459Y-34033708D01*
X31682169Y-33735292D01*
X31714947Y-33497958D01*
X31758815Y-33310390D01*
X31816794Y-33161275D01*
X31891906Y-33039297D01*
X31937870Y-32983798D01*
X32019676Y-32898307D01*
X32099684Y-32830572D01*
X32187921Y-32777969D01*
X32294414Y-32737875D01*
X32429190Y-32707666D01*
X32602276Y-32684718D01*
X32823699Y-32666408D01*
X33103485Y-32650113D01*
X33239104Y-32643322D01*
X33427446Y-32632480D01*
X33591216Y-32619929D01*
X33716043Y-32607003D01*
X33787555Y-32595039D01*
X33797109Y-32591465D01*
X33824567Y-32549532D01*
X33795238Y-32509033D01*
X33723533Y-32485459D01*
X33697140Y-32484000D01*
X33565688Y-32470636D01*
X33398118Y-32434727D01*
X33213423Y-32382545D01*
X33030597Y-32320363D01*
X32868633Y-32254454D01*
X32746523Y-32191091D01*
X32696931Y-32153656D01*
X32632899Y-32083398D01*
X32615235Y-32032026D01*
X32636583Y-31969634D01*
X32646736Y-31949619D01*
X32724132Y-31845013D01*
X32862740Y-31713162D01*
X33063931Y-31552906D01*
X33329078Y-31363088D01*
X33395773Y-31317488D01*
X33568564Y-31202090D01*
X33769716Y-31070774D01*
X33983912Y-30933243D01*
X34195836Y-30799199D01*
X34390172Y-30678347D01*
X34551603Y-30580388D01*
X34646045Y-30525429D01*
X34782733Y-30446446D01*
X34866204Y-30391395D01*
X34908011Y-30351474D01*
X34919708Y-30317884D01*
X34919714Y-30316988D01*
X34890275Y-30318581D01*
X34801533Y-30352823D01*
X34652857Y-30420025D01*
X34443614Y-30520494D01*
X34173171Y-30654539D01*
X33840896Y-30822471D01*
X33446155Y-31024597D01*
X33021289Y-31244126D01*
X32861716Y-31323405D01*
X32752424Y-31368332D01*
X32682010Y-31382782D01*
X32642448Y-31372933D01*
X32586812Y-31324598D01*
X32571858Y-31300573D01*
X32576523Y-31275934D01*
X32600469Y-31224467D01*
X32646109Y-31142316D01*
X32715859Y-31025626D01*
X32812134Y-30870543D01*
X32937347Y-30673210D01*
X33093915Y-30429772D01*
X33284252Y-30136375D01*
X33510772Y-29789164D01*
X33691775Y-29512615D01*
X33770438Y-29389221D01*
X33830895Y-29288047D01*
X33863939Y-29224781D01*
X33867429Y-29213258D01*
X33854996Y-29183563D01*
X33814828Y-29200306D01*
X33814828Y-29200306D01*
G37*
X33814828Y-29200306D02*
X33742616Y-29267081D01*
X33634055Y-29387479D01*
X33573854Y-29458141D01*
X33470789Y-29580195D01*
X33382798Y-29683811D01*
X33322028Y-29754713D01*
X33303660Y-29775641D01*
X33269525Y-29815776D01*
X33197317Y-29902412D01*
X33094991Y-30025946D01*
X32970505Y-30176772D01*
X32833575Y-30343143D01*
X32677906Y-30530219D01*
X32519419Y-30716623D01*
X32370984Y-30887500D01*
X32245470Y-31027994D01*
X32173486Y-31105143D01*
X32065038Y-31216221D01*
X31992913Y-31282621D01*
X31943215Y-31312053D01*
X31902046Y-31312225D01*
X31855510Y-31290847D01*
X31847103Y-31286200D01*
X31749671Y-31208709D01*
X31672321Y-31090230D01*
X31609494Y-30919756D01*
X31562927Y-30723618D01*
X31515809Y-30489866D01*
X31479962Y-30317856D01*
X31452598Y-30198132D01*
X31430931Y-30121238D01*
X31412172Y-30077720D01*
X31393534Y-30058123D01*
X31372231Y-30052990D01*
X31365193Y-30052857D01*
X31336943Y-30064956D01*
X31314420Y-30108862D01*
X31294621Y-30195988D01*
X31274543Y-30337746D01*
X31262131Y-30444600D01*
X31243811Y-30622478D01*
X31229231Y-30788957D01*
X31220252Y-30921341D01*
X31218294Y-30979815D01*
X31200504Y-31138459D01*
X31153423Y-31330146D01*
X31085721Y-31526062D01*
X31006066Y-31697398D01*
X30998194Y-31711345D01*
X30948880Y-31815335D01*
X30938722Y-31880372D01*
X30966057Y-31898057D01*
X31027849Y-31861156D01*
X31066322Y-31833055D01*
X31126340Y-31797966D01*
X31218257Y-31750627D01*
X31352424Y-31685776D01*
X31539195Y-31598153D01*
X31610620Y-31564974D01*
X31694235Y-31542545D01*
X31816548Y-31527638D01*
X31894912Y-31524311D01*
X32018109Y-31528078D01*
X32096294Y-31548482D01*
X32156654Y-31594819D01*
X32181604Y-31622358D01*
X32248617Y-31727674D01*
X32290078Y-31842010D01*
X32290345Y-31843407D01*
X32283766Y-31981307D01*
X32221226Y-32163041D01*
X32103534Y-32387241D01*
X31931500Y-32652536D01*
X31705936Y-32957557D01*
X31429150Y-33299150D01*
X31317789Y-33440981D01*
X31252979Y-33545051D01*
X31238118Y-33605860D01*
X31238712Y-33607578D01*
X31257640Y-33674658D01*
X31281055Y-33782414D01*
X31292745Y-33844715D01*
X31310999Y-33940080D01*
X31333522Y-34038588D01*
X31364772Y-34157273D01*
X31409203Y-34313167D01*
X31462993Y-34495493D01*
X31504558Y-34584750D01*
X31553671Y-34618687D01*
X31598983Y-34589520D01*
X31599319Y-34588981D01*
X31610401Y-34540042D01*
X31624021Y-34432855D01*
X31638689Y-34281632D01*
X31652917Y-34100584D01*
X31657459Y-34033708D01*
X31682169Y-33735292D01*
X31714947Y-33497958D01*
X31758815Y-33310390D01*
X31816794Y-33161275D01*
X31891906Y-33039297D01*
X31937870Y-32983798D01*
X32019676Y-32898307D01*
X32099684Y-32830572D01*
X32187921Y-32777969D01*
X32294414Y-32737875D01*
X32429190Y-32707666D01*
X32602276Y-32684718D01*
X32823699Y-32666408D01*
X33103485Y-32650113D01*
X33239104Y-32643322D01*
X33427446Y-32632480D01*
X33591216Y-32619929D01*
X33716043Y-32607003D01*
X33787555Y-32595039D01*
X33797109Y-32591465D01*
X33824567Y-32549532D01*
X33795238Y-32509033D01*
X33723533Y-32485459D01*
X33697140Y-32484000D01*
X33565688Y-32470636D01*
X33398118Y-32434727D01*
X33213423Y-32382545D01*
X33030597Y-32320363D01*
X32868633Y-32254454D01*
X32746523Y-32191091D01*
X32696931Y-32153656D01*
X32632899Y-32083398D01*
X32615235Y-32032026D01*
X32636583Y-31969634D01*
X32646736Y-31949619D01*
X32724132Y-31845013D01*
X32862740Y-31713162D01*
X33063931Y-31552906D01*
X33329078Y-31363088D01*
X33395773Y-31317488D01*
X33568564Y-31202090D01*
X33769716Y-31070774D01*
X33983912Y-30933243D01*
X34195836Y-30799199D01*
X34390172Y-30678347D01*
X34551603Y-30580388D01*
X34646045Y-30525429D01*
X34782733Y-30446446D01*
X34866204Y-30391395D01*
X34908011Y-30351474D01*
X34919708Y-30317884D01*
X34919714Y-30316988D01*
X34890275Y-30318581D01*
X34801533Y-30352823D01*
X34652857Y-30420025D01*
X34443614Y-30520494D01*
X34173171Y-30654539D01*
X33840896Y-30822471D01*
X33446155Y-31024597D01*
X33021289Y-31244126D01*
X32861716Y-31323405D01*
X32752424Y-31368332D01*
X32682010Y-31382782D01*
X32642448Y-31372933D01*
X32586812Y-31324598D01*
X32571858Y-31300573D01*
X32576523Y-31275934D01*
X32600469Y-31224467D01*
X32646109Y-31142316D01*
X32715859Y-31025626D01*
X32812134Y-30870543D01*
X32937347Y-30673210D01*
X33093915Y-30429772D01*
X33284252Y-30136375D01*
X33510772Y-29789164D01*
X33691775Y-29512615D01*
X33770438Y-29389221D01*
X33830895Y-29288047D01*
X33863939Y-29224781D01*
X33867429Y-29213258D01*
X33854996Y-29183563D01*
X33814828Y-29200306D01*
G36*
X30149215Y-33073459D02*
X30041282Y-33117585D01*
X29876624Y-33201395D01*
X29848654Y-33216430D01*
X29680086Y-33311331D01*
X29491133Y-33424076D01*
X29291351Y-33548260D01*
X29090298Y-33677480D01*
X28897531Y-33805331D01*
X28722606Y-33925409D01*
X28575081Y-34031308D01*
X28464513Y-34116624D01*
X28400458Y-34174952D01*
X28388286Y-34195088D01*
X28398280Y-34216665D01*
X28433691Y-34217645D01*
X28502662Y-34194911D01*
X28613335Y-34145348D01*
X28773852Y-34065838D01*
X28914429Y-33993697D01*
X29236017Y-33824702D01*
X29498369Y-33680453D01*
X29708593Y-33556297D01*
X29873802Y-33447579D01*
X30001106Y-33349644D01*
X30097616Y-33257836D01*
X30165223Y-33174921D01*
X30207931Y-33102554D01*
X30203680Y-33068591D01*
X30149215Y-33073459D01*
X30149215Y-33073459D01*
G37*
X30149215Y-33073459D02*
X30041282Y-33117585D01*
X29876624Y-33201395D01*
X29848654Y-33216430D01*
X29680086Y-33311331D01*
X29491133Y-33424076D01*
X29291351Y-33548260D01*
X29090298Y-33677480D01*
X28897531Y-33805331D01*
X28722606Y-33925409D01*
X28575081Y-34031308D01*
X28464513Y-34116624D01*
X28400458Y-34174952D01*
X28388286Y-34195088D01*
X28398280Y-34216665D01*
X28433691Y-34217645D01*
X28502662Y-34194911D01*
X28613335Y-34145348D01*
X28773852Y-34065838D01*
X28914429Y-33993697D01*
X29236017Y-33824702D01*
X29498369Y-33680453D01*
X29708593Y-33556297D01*
X29873802Y-33447579D01*
X30001106Y-33349644D01*
X30097616Y-33257836D01*
X30165223Y-33174921D01*
X30207931Y-33102554D01*
X30203680Y-33068591D01*
X30149215Y-33073459D01*
G36*
X30759873Y-31953618D02*
X30687454Y-31964298D01*
X30558471Y-31977519D01*
X30388824Y-31991868D01*
X30194412Y-32005930D01*
X30111857Y-32011247D01*
X29781750Y-32032608D01*
X29518754Y-32051733D01*
X29317465Y-32069184D01*
X29172476Y-32085519D01*
X29078382Y-32101301D01*
X29029777Y-32117091D01*
X29021278Y-32124391D01*
X29037706Y-32153002D01*
X29103445Y-32178004D01*
X29213317Y-32205538D01*
X29356200Y-32245261D01*
X29512774Y-32291310D01*
X29663723Y-32337827D01*
X29789728Y-32378950D01*
X29871472Y-32408819D01*
X29885550Y-32415265D01*
X29955230Y-32437142D01*
X30069145Y-32458844D01*
X30168591Y-32471824D01*
X30387653Y-32494720D01*
X30581623Y-32294457D01*
X30682079Y-32186017D01*
X30766074Y-32086844D01*
X30816894Y-32016779D01*
X30819598Y-32011970D01*
X30844908Y-31955467D01*
X30824400Y-31941409D01*
X30759873Y-31953618D01*
X30759873Y-31953618D01*
G37*
X30759873Y-31953618D02*
X30687454Y-31964298D01*
X30558471Y-31977519D01*
X30388824Y-31991868D01*
X30194412Y-32005930D01*
X30111857Y-32011247D01*
X29781750Y-32032608D01*
X29518754Y-32051733D01*
X29317465Y-32069184D01*
X29172476Y-32085519D01*
X29078382Y-32101301D01*
X29029777Y-32117091D01*
X29021278Y-32124391D01*
X29037706Y-32153002D01*
X29103445Y-32178004D01*
X29213317Y-32205538D01*
X29356200Y-32245261D01*
X29512774Y-32291310D01*
X29663723Y-32337827D01*
X29789728Y-32378950D01*
X29871472Y-32408819D01*
X29885550Y-32415265D01*
X29955230Y-32437142D01*
X30069145Y-32458844D01*
X30168591Y-32471824D01*
X30387653Y-32494720D01*
X30581623Y-32294457D01*
X30682079Y-32186017D01*
X30766074Y-32086844D01*
X30816894Y-32016779D01*
X30819598Y-32011970D01*
X30844908Y-31955467D01*
X30824400Y-31941409D01*
X30759873Y-31953618D01*
%LPC*%
D15*
X7016662Y-32150000D02*
G75*
G03X7016662Y-32150000I-1796662J0D01*
G01*
X7006662Y-4580000D02*
G75*
G03X7006662Y-4580000I-1796662J0D01*
G01*
X75130000Y-4570000D02*
G75*
G03X75130000Y-4570000I-1796662J0D01*
G01*
X75092758Y-32094890D02*
G75*
G03X75092758Y-32094890I-1796662J0D01*
G01*
D16*
X68460000Y-21630000D02*
G75*
G03X68460000Y-21630000I-2660000J0D01*
G01*
D17*
X68730000Y-19790000D02*
X68730000Y-23480000D01*
D18*
X69630000Y-21630000D02*
G75*
G03X69630000Y-21630000I-3830000J0D01*
G01*
D16*
X55460000Y-21630000D02*
G75*
G03X55460000Y-21630000I-2660000J0D01*
G01*
D17*
X55730000Y-19790000D02*
X55730000Y-23480000D01*
D18*
X56630000Y-21630000D02*
G75*
G03X56630000Y-21630000I-3830000J0D01*
G01*
D16*
X68460000Y-7630000D02*
G75*
G03X68460000Y-7630000I-2660000J0D01*
G01*
D17*
X68730000Y-5790000D02*
X68730000Y-9480000D01*
D18*
X69630000Y-7630000D02*
G75*
G03X69630000Y-7630000I-3830000J0D01*
G01*
D16*
X55460000Y-7630000D02*
G75*
G03X55460000Y-7630000I-2660000J0D01*
G01*
D17*
X55730000Y-5790000D02*
X55730000Y-9480000D01*
D18*
X56630000Y-7630000D02*
G75*
G03X56630000Y-7630000I-3830000J0D01*
G01*
D16*
X41460000Y-21630000D02*
G75*
G03X41460000Y-21630000I-2660000J0D01*
G01*
D17*
X41730000Y-19790000D02*
X41730000Y-23480000D01*
D18*
X42630000Y-21630000D02*
G75*
G03X42630000Y-21630000I-3830000J0D01*
G01*
D16*
X28460000Y-21630000D02*
G75*
G03X28460000Y-21630000I-2660000J0D01*
G01*
D17*
X28730000Y-19790000D02*
X28730000Y-23480000D01*
D18*
X29630000Y-21630000D02*
G75*
G03X29630000Y-21630000I-3830000J0D01*
G01*
D16*
X15460000Y-21630000D02*
G75*
G03X15460000Y-21630000I-2660000J0D01*
G01*
D17*
X15730000Y-19790000D02*
X15730000Y-23480000D01*
D18*
X16630000Y-21630000D02*
G75*
G03X16630000Y-21630000I-3830000J0D01*
G01*
D16*
X41460000Y-7630000D02*
G75*
G03X41460000Y-7630000I-2660000J0D01*
G01*
D17*
X41730000Y-5790000D02*
X41730000Y-9480000D01*
D18*
X42630000Y-7630000D02*
G75*
G03X42630000Y-7630000I-3830000J0D01*
G01*
D16*
X28460000Y-7630000D02*
G75*
G03X28460000Y-7630000I-2660000J0D01*
G01*
D17*
X28730000Y-5790000D02*
X28730000Y-9480000D01*
D18*
X29630000Y-7630000D02*
G75*
G03X29630000Y-7630000I-3830000J0D01*
G01*
D16*
X15460000Y-7630000D02*
G75*
G03X15460000Y-7630000I-2660000J0D01*
G01*
D17*
X15730000Y-5790000D02*
X15730000Y-9480000D01*
D18*
X16630000Y-7630000D02*
G75*
G03X16630000Y-7630000I-3830000J0D01*
G01*
M02*
