%MOIN*%
%OFA0B0*%
%FSLAX46Y46*%
%IPPOS*%
%LPD*%
%ADD10C,0.0039370078740157488*%
%ADD11C,0.00984251968503937*%
%ADD12O,0.08X0.068*%
%ADD13R,0.08X0.068*%
%ADD14R,0.041338582677165357X0.041338582677165357*%
%ADD15C,0.041338582677165357*%
%ADD26C,0.0039370078740157488*%
%ADD27C,0.005905511811023622*%
%ADD38C,0.0039370078740157488*%
%ADD49C,0.0039370078740157488*%
%ADD50C,0.21653543307086615*%
%ADD51C,0.01*%
%ADD62C,0.0039370078740157488*%
%ADD63C,0.21653543307086615*%
%ADD64C,0.01*%
%ADD75C,0.0039370078740157488*%
%ADD76C,0.21653543307086615*%
%ADD77C,0.01*%
%ADD88C,0.0039370078740157488*%
%ADD89C,0.21653543307086615*%
%ADD90C,0.01*%
%LPD*%
G04 #@! TF.FileFunction,Copper,L1,Top,Signal*
G04 Gerber Fmt 4.6, Leading zero omitted, Abs format (unit mm)*
G04 Created by KiCad (PCBNEW no-bzr-kicad_new3d-viewer) date 13/05/2016 23:43:42*
G01*
G04 APERTURE LIST*
G04 APERTURE END LIST*
D10*
D11*
X0002319500Y0003364266D02*
X0002341998Y0003364266D01*
X0002330749Y0003364266D02*
X0002330749Y0003324896D01*
X0002334499Y0003330520D01*
X0002338248Y0003334270D01*
X0002341998Y0003336145D01*
D12*
X0002105552Y0003375590D03*
X0002105552Y0003475590D03*
X0002105552Y0003575590D03*
X0002105552Y0003675589D03*
X0002105552Y0003775590D03*
D13*
X0002405552Y0003375590D03*
D12*
X0002405552Y0003475590D03*
X0002405552Y0003575590D03*
X0002405552Y0003675589D03*
X0002405552Y0003775590D03*
D14*
X0002278072Y0003334251D03*
D15*
X0002278072Y0003384251D03*
X0002278072Y0003434251D03*
X0002278072Y0003484251D03*
X0002278072Y0003534251D03*
X0002228072Y0003384251D03*
X0002228072Y0003434251D03*
X0002228072Y0003484251D03*
X0002228072Y0003534251D03*
X0002228072Y0003334251D03*
D11*
X0002105552Y0003475590D02*
X0002122875Y0003475590D01*
X0002122875Y0003475590D02*
X0002169332Y0003429133D01*
X0002169332Y0003413761D02*
X0002169332Y0003429133D01*
X0002228072Y0003384251D02*
X0002198841Y0003384251D01*
X0002198841Y0003384251D02*
X0002169332Y0003413761D01*
X0002334686Y0003411810D02*
X0002307127Y0003384251D01*
X0002381143Y0003475590D02*
X0002334686Y0003429133D01*
X0002334686Y0003429133D02*
X0002334686Y0003411810D01*
X0002405552Y0003475590D02*
X0002381143Y0003475590D01*
X0002278072Y0003384251D02*
X0002307127Y0003384251D01*
X0002228072Y0003484251D02*
X0002192954Y0003484251D01*
X0002192954Y0003484251D02*
X0002165395Y0003511810D01*
X0002117521Y0003677165D02*
X0002097836Y0003677165D01*
X0002165395Y0003511810D02*
X0002165395Y0003629291D01*
X0002165395Y0003629291D02*
X0002117521Y0003677165D01*
X0002405552Y0003674802D02*
X0002387442Y0003674802D01*
X0002311064Y0003484251D02*
X0002278072Y0003484251D01*
X0002387442Y0003674802D02*
X0002338623Y0003625983D01*
X0002338623Y0003625983D02*
X0002338623Y0003511810D01*
X0002338623Y0003511810D02*
X0002311064Y0003484251D01*
X0002140749Y0003334251D02*
X0002228072Y0003334251D01*
X0002097836Y0003464566D02*
X0002097836Y0003477165D01*
X0002140749Y0003334251D02*
X0002097836Y0003377165D01*
X0002405552Y0003559054D02*
X0002405552Y0003574802D01*
X0002405552Y0003460628D02*
X0002405552Y0003474802D01*
G04 split*
G04 #@! TF.FileFunction,Copper,L1,Top,Signal*
G04 Gerber Fmt 4.6, Leading zero omitted, Abs format (unit mm)*
G04 Created by KiCad (PCBNEW no-bzr-kicad_new3d-viewer) date 06/27/16 23:25:45*
G01G01*
G04 APERTURE LIST*
G04 APERTURE END LIST*
D26*
D27*
X0001319037Y0000652338D02*
X0001319037Y0000353127D01*
X0001114313Y0000652338D02*
X0001319037Y0000652338D01*
X0001114313Y0000353127D02*
X0001114313Y0000652338D01*
X0001319037Y0000353127D02*
X0001114313Y0000353127D01*
X0002165494Y0000431867D02*
X0002165494Y0000258637D01*
X0002224549Y0000431867D02*
X0002165494Y0000431867D01*
X0002224549Y0000577536D02*
X0002224549Y0000431867D01*
X0001633998Y0000577536D02*
X0002224549Y0000577536D01*
X0001633998Y0000431867D02*
X0001633998Y0000577536D01*
X0001673368Y0000431867D02*
X0001633998Y0000431867D01*
X0001673368Y0000258637D02*
X0001673368Y0000431867D01*
X0002165494Y0000258637D02*
X0001673368Y0000258637D01*
X0000212598Y0000149606D02*
G75*
G03G03X0005399999Y0003800002I-0001600000J0000000000D01X0005399999Y0003800002I-0001600000J0000000000D01*
G01G01*
X0000098425Y0000000000D02*
G75*
G02G02X0000000000Y0002500002I0000000000J0002500000D01X0000000000Y0002500002I0000000000J0002500000D01*
G01G01*
X0003724409Y0000149606D02*
G75*
G03G03X0094599999Y0003800002I-0001400000J0000000000D01X0094599999Y0003800002I-0001400000J0000000000D01*
G01G01*
X0003818897Y0000098425D02*
G75*
G02G02X0094499999Y0000000002I-0002500000J0000000000D01X0094499999Y0000000002I-0002500000J0000000000D01*
G01G01*
X0003732283Y0001425196D02*
G75*
G03G03X0094799999Y0036200002I-0001600000J0000000000D01X0094799999Y0036200002I-0001600000J0000000000D01*
G01G01*
X0003720472Y0001574803D02*
G75*
G02G02X0096999999Y0037500002I0000000000J-0002500000D01X0096999999Y0037500002I0000000000J-0002500000D01*
G01G01*
X0000000000Y0001476378D02*
G75*
G02G02X0002499999Y0040000002I0002500000J0000000000D01X0002499999Y0040000002I0002500000J0000000000D01*
G01G01*
X0000204724Y0001425196D02*
G75*
G03G03X0005199999Y0036200002I-0001400000J0000000000D01X0005199999Y0036200002I-0001400000J0000000000D01*
G01G01*
X0000000000Y0001476378D02*
X0000000000Y0000098425D01*
X0003818897Y0000098425D02*
X0003818897Y0001476378D01*
X0003720472Y0000000000D02*
X0000098425Y0000000000D01*
X0003720472Y0001574803D02*
X0000098425Y0001574803D01*
X0003352720Y0000585253D02*
G75*
G02G02X0085149999Y0018050002I-0002709089J0001584562D01X0085149999Y0018050002I-0002709089J0001584562D01*
G01G01*
X0003352362Y0000710630D02*
X0003352362Y0000584645D01*
D26*
G36*
X-0000007874Y-0000007873D02*
X0003826771Y-0000007873D01*
X0003826771Y0001476378D01*
X0003823818Y0001476378D01*
X0003823818Y0000098425D01*
X0003823724Y0000097949D01*
X0003823724Y0000097465D01*
X0003816231Y0000059799D01*
X0003816231Y0000059799D01*
X0003815497Y0000058025D01*
X0003794161Y0000026094D01*
X0003792803Y0000024736D01*
X0003760872Y0000003400D01*
X0003760872Y0000003400D01*
X0003759832Y0000002969D01*
X0003759098Y0000002665D01*
X0003759098Y0000002665D01*
X0003721432Y-0000004826D01*
X0003720947Y-0000004826D01*
X0003720472Y-0000004921D01*
X0000098425Y-0000004921D01*
X0000097949Y-0000004826D01*
X0000097465Y-0000004826D01*
X0000059799Y0000002665D01*
X0000059799Y0000002665D01*
X0000058025Y0000003400D01*
X0000026093Y0000024736D01*
X0000024736Y0000026094D01*
X0000003400Y0000058025D01*
X0000003400Y0000058025D01*
X0000002665Y0000059799D01*
X-0000004826Y0000097465D01*
X-0000004826Y0000097949D01*
X-0000004921Y0000098425D01*
X-0000004921Y0001476378D01*
X-0000004826Y0001476853D01*
X-0000004826Y0001477338D01*
X0000002665Y0001515002D01*
X0000003400Y0001516777D01*
X0000003400Y0001516777D01*
X0000024736Y0001548709D01*
X0000026093Y0001550066D01*
X0000058025Y0001571401D01*
X0000059799Y0001572137D01*
X0000059799Y0001572137D01*
X0000097465Y0001579629D01*
X0000097949Y0001579629D01*
X0000098425Y0001579723D01*
X0003720472Y0001579723D01*
X0003720947Y0001579629D01*
X0003721432Y0001579629D01*
X0003759098Y0001572137D01*
X0003759832Y0001571833D01*
X0003760872Y0001571401D01*
X0003760872Y0001571401D01*
X0003792803Y0001550066D01*
X0003794161Y0001548709D01*
X0003815497Y0001516777D01*
X0003815497Y0001516777D01*
X0003816231Y0001515002D01*
X0003823724Y0001477338D01*
X0003823724Y0001476853D01*
X0003823818Y0001476378D01*
X0003826771Y0001476378D01*
X0003826771Y0001582677D01*
X-0000007874Y0001582677D01*
X-0000007874Y-0000007873D01*
X-0000007874Y-0000007873D01*
G37*
X-0000007874Y-0000007873D02*
X0003826771Y-0000007873D01*
X0003826771Y0001476378D01*
X0003823818Y0001476378D01*
X0003823818Y0000098425D01*
X0003823724Y0000097949D01*
X0003823724Y0000097465D01*
X0003816231Y0000059799D01*
X0003816231Y0000059799D01*
X0003815497Y0000058025D01*
X0003794161Y0000026094D01*
X0003792803Y0000024736D01*
X0003760872Y0000003400D01*
X0003760872Y0000003400D01*
X0003759832Y0000002969D01*
X0003759098Y0000002665D01*
X0003759098Y0000002665D01*
X0003721432Y-0000004826D01*
X0003720947Y-0000004826D01*
X0003720472Y-0000004921D01*
X0000098425Y-0000004921D01*
X0000097949Y-0000004826D01*
X0000097465Y-0000004826D01*
X0000059799Y0000002665D01*
X0000059799Y0000002665D01*
X0000058025Y0000003400D01*
X0000026093Y0000024736D01*
X0000024736Y0000026094D01*
X0000003400Y0000058025D01*
X0000003400Y0000058025D01*
X0000002665Y0000059799D01*
X-0000004826Y0000097465D01*
X-0000004826Y0000097949D01*
X-0000004921Y0000098425D01*
X-0000004921Y0001476378D01*
X-0000004826Y0001476853D01*
X-0000004826Y0001477338D01*
X0000002665Y0001515002D01*
X0000003400Y0001516777D01*
X0000003400Y0001516777D01*
X0000024736Y0001548709D01*
X0000026093Y0001550066D01*
X0000058025Y0001571401D01*
X0000059799Y0001572137D01*
X0000059799Y0001572137D01*
X0000097465Y0001579629D01*
X0000097949Y0001579629D01*
X0000098425Y0001579723D01*
X0003720472Y0001579723D01*
X0003720947Y0001579629D01*
X0003721432Y0001579629D01*
X0003759098Y0001572137D01*
X0003759832Y0001571833D01*
X0003760872Y0001571401D01*
X0003760872Y0001571401D01*
X0003792803Y0001550066D01*
X0003794161Y0001548709D01*
X0003815497Y0001516777D01*
X0003815497Y0001516777D01*
X0003816231Y0001515002D01*
X0003823724Y0001477338D01*
X0003823724Y0001476853D01*
X0003823818Y0001476378D01*
X0003826771Y0001476378D01*
X0003826771Y0001582677D01*
X-0000007874Y0001582677D01*
X-0000007874Y-0000007873D01*
G36*
X0000062679Y0001562675D02*
X0000032376Y0001542427D01*
X0000012127Y0001512123D01*
X0000004921Y0001475893D01*
X0000004921Y0000098909D01*
X0000012127Y0000062679D01*
X0000032376Y0000032376D01*
X0000062679Y0000012127D01*
X0000098909Y0000004921D01*
X0003719986Y0000004921D01*
X0003756217Y0000012127D01*
X0003786521Y0000032376D01*
X0003806769Y0000062679D01*
X0003813976Y0000098909D01*
X0003813976Y0000149606D01*
X0003729330Y0000149606D01*
X0003724760Y0000126628D01*
X0003711745Y0000107152D01*
X0003692266Y0000094137D01*
X0003669291Y0000089567D01*
X0003646315Y0000094137D01*
X0003638611Y0000099284D01*
X0003626908Y0000106598D01*
X0003626224Y0000107325D01*
X0003624016Y0000111373D01*
X0003613822Y0000126628D01*
X0003609251Y0000149606D01*
X0000217519Y0000149606D01*
X0000212350Y0000123617D01*
X0000197628Y0000101584D01*
X0000175595Y0000086862D01*
X0000149606Y0000081692D01*
X0000123615Y0000086862D01*
X0000101584Y0000101584D01*
X0000086862Y0000123617D01*
X0000081692Y0000149606D01*
X0000086862Y0000175595D01*
X0000101584Y0000197628D01*
X0000123615Y0000212350D01*
X0000149606Y0000217519D01*
X0000175595Y0000212350D01*
X0000197628Y0000197628D01*
X0000212350Y0000175595D01*
X0000217519Y0000149606D01*
X0003609251Y0000149606D01*
X0003613822Y0000172582D01*
X0003623773Y0000187475D01*
X0003626230Y0000191900D01*
X0003627010Y0000192673D01*
X0003631058Y0000194881D01*
X0003646315Y0000205075D01*
X0003669291Y0000209645D01*
X0003692266Y0000205075D01*
X0003711745Y0000192060D01*
X0003720634Y0000178757D01*
X0003723994Y0000174436D01*
X0003724377Y0000173580D01*
X0003724483Y0000172996D01*
X0003724760Y0000172582D01*
X0003729330Y0000149606D01*
X0003813976Y0000149606D01*
X0003813976Y0000584307D01*
X0003357549Y0000584307D01*
X0003356819Y0000582531D01*
X0003349038Y0000570813D01*
X0003348599Y0000570371D01*
X0003348225Y0000569873D01*
X0003312341Y0000537675D01*
X0003310688Y0000536696D01*
X0003310688Y0000536696D01*
X0003265215Y0000520682D01*
X0003263315Y0000520410D01*
X0003237776Y0000521792D01*
X0003236407Y0000521661D01*
X0003235814Y0000521695D01*
X0003234514Y0000521969D01*
X0003215174Y0000523016D01*
X0003215174Y0000523016D01*
X0003213313Y0000523491D01*
X0003202366Y0000528737D01*
X0003198413Y0000529569D01*
X0003197749Y0000529843D01*
X0003191163Y0000534105D01*
X0003169834Y0000544323D01*
X0003168298Y0000545475D01*
X0003139530Y0000577536D01*
X0002229470Y0000577536D01*
X0002229470Y0000431867D01*
X0002229095Y0000429983D01*
X0002228029Y0000428387D01*
X0002226432Y0000427319D01*
X0002224549Y0000426945D01*
X0002170415Y0000426945D01*
X0002170415Y0000258637D01*
X0002170040Y0000256755D01*
X0002168973Y0000255158D01*
X0002167377Y0000254091D01*
X0002165494Y0000253717D01*
X0001673368Y0000253717D01*
X0001671484Y0000254091D01*
X0001669888Y0000255158D01*
X0001668821Y0000256755D01*
X0001668446Y0000258637D01*
X0001668446Y0000426945D01*
X0001633998Y0000426945D01*
X0001632114Y0000427319D01*
X0001630518Y0000428387D01*
X0001629451Y0000429983D01*
X0001629076Y0000431867D01*
X0001629076Y0000577536D01*
X0001629451Y0000579419D01*
X0001630518Y0000581016D01*
X0001632114Y0000582083D01*
X0001633998Y0000582457D01*
X0002224549Y0000582457D01*
X0002226432Y0000582083D01*
X0002228029Y0000581016D01*
X0002229095Y0000579419D01*
X0002229470Y0000577536D01*
X0003139530Y0000577536D01*
X0003136100Y0000581359D01*
X0003135121Y0000583011D01*
X0003135121Y0000583011D01*
X0003127359Y0000605051D01*
X0003126192Y0000607387D01*
X0003126009Y0000607944D01*
X0003125714Y0000609724D01*
X0003119107Y0000628485D01*
X0003118835Y0000630385D01*
X0003118835Y0000630385D01*
X0003120023Y0000652338D01*
X0001323958Y0000652338D01*
X0001323958Y0000353127D01*
X0001323584Y0000351243D01*
X0001322517Y0000349647D01*
X0001320920Y0000348580D01*
X0001319037Y0000348205D01*
X0001114313Y0000348205D01*
X0001112429Y0000348580D01*
X0001110833Y0000349647D01*
X0001109766Y0000351243D01*
X0001109391Y0000353127D01*
X0001109391Y0000652338D01*
X0001109766Y0000654222D01*
X0001110833Y0000655819D01*
X0001112429Y0000656886D01*
X0001114313Y0000657260D01*
X0001319037Y0000657260D01*
X0001320920Y0000656886D01*
X0001322517Y0000655819D01*
X0001323584Y0000654222D01*
X0001323958Y0000652338D01*
X0003120023Y0000652338D01*
X0003121441Y0000678526D01*
X0003121917Y0000680385D01*
X0003142747Y0000723865D01*
X0003143900Y0000725402D01*
X0003179784Y0000757600D01*
X0003181436Y0000758578D01*
X0003226910Y0000774592D01*
X0003228810Y0000774865D01*
X0003276951Y0000772258D01*
X0003278812Y0000771783D01*
X0003302641Y0000760366D01*
X0003309735Y0000757752D01*
X0003310394Y0000757348D01*
X0003311942Y0000755909D01*
X0003322290Y0000750952D01*
X0003323827Y0000749800D01*
X0003356025Y0000713916D01*
X0003356448Y0000713202D01*
X0003356908Y0000712513D01*
X0003356935Y0000712380D01*
X0003357003Y0000712264D01*
X0003357121Y0000711443D01*
X0003357283Y0000710630D01*
X0003357283Y0000586851D01*
X0003357543Y0000586227D01*
X0003357549Y0000584307D01*
X0003813976Y0000584307D01*
X0003813976Y0001425196D01*
X0003737204Y0001425196D01*
X0003732035Y0001399207D01*
X0003717313Y0001377174D01*
X0003695280Y0001362453D01*
X0003669291Y0001357283D01*
X0003643301Y0001362453D01*
X0003621269Y0001377174D01*
X0003606547Y0001399207D01*
X0003601377Y0001425196D01*
X0000209645Y0001425196D01*
X0000205075Y0001402220D01*
X0000192060Y0001382742D01*
X0000172582Y0001369727D01*
X0000149606Y0001365157D01*
X0000126628Y0001369727D01*
X0000118926Y0001374875D01*
X0000107224Y0001382189D01*
X0000106539Y0001382915D01*
X0000104331Y0001386964D01*
X0000094137Y0001402220D01*
X0000089566Y0001425196D01*
X0000094137Y0001448172D01*
X0000104088Y0001463065D01*
X0000106546Y0001467491D01*
X0000107325Y0001468263D01*
X0000111373Y0001470472D01*
X0000126628Y0001480666D01*
X0000149606Y0001485236D01*
X0000172582Y0001480666D01*
X0000192060Y0001467650D01*
X0000200949Y0001454347D01*
X0000204309Y0001450027D01*
X0000204692Y0001449171D01*
X0000204798Y0001448586D01*
X0000205075Y0001448172D01*
X0000209645Y0001425196D01*
X0003601377Y0001425196D01*
X0003606547Y0001451186D01*
X0003621269Y0001473218D01*
X0003643301Y0001487940D01*
X0003669291Y0001493110D01*
X0003695280Y0001487940D01*
X0003717313Y0001473218D01*
X0003732035Y0001451186D01*
X0003737204Y0001425196D01*
X0003813976Y0001425196D01*
X0003813976Y0001475893D01*
X0003806769Y0001512123D01*
X0003786521Y0001542427D01*
X0003756217Y0001562675D01*
X0003719986Y0001569881D01*
X0000098909Y0001569881D01*
X0000062679Y0001562675D01*
X0000062679Y0001562675D01*
G37*
X0000062679Y0001562675D02*
X0000032376Y0001542427D01*
X0000012127Y0001512123D01*
X0000004921Y0001475893D01*
X0000004921Y0000098909D01*
X0000012127Y0000062679D01*
X0000032376Y0000032376D01*
X0000062679Y0000012127D01*
X0000098909Y0000004921D01*
X0003719986Y0000004921D01*
X0003756217Y0000012127D01*
X0003786521Y0000032376D01*
X0003806769Y0000062679D01*
X0003813976Y0000098909D01*
X0003813976Y0000149606D01*
X0003729330Y0000149606D01*
X0003724760Y0000126628D01*
X0003711745Y0000107152D01*
X0003692266Y0000094137D01*
X0003669291Y0000089567D01*
X0003646315Y0000094137D01*
X0003638611Y0000099284D01*
X0003626908Y0000106598D01*
X0003626224Y0000107325D01*
X0003624016Y0000111373D01*
X0003613822Y0000126628D01*
X0003609251Y0000149606D01*
X0000217519Y0000149606D01*
X0000212350Y0000123617D01*
X0000197628Y0000101584D01*
X0000175595Y0000086862D01*
X0000149606Y0000081692D01*
X0000123615Y0000086862D01*
X0000101584Y0000101584D01*
X0000086862Y0000123617D01*
X0000081692Y0000149606D01*
X0000086862Y0000175595D01*
X0000101584Y0000197628D01*
X0000123615Y0000212350D01*
X0000149606Y0000217519D01*
X0000175595Y0000212350D01*
X0000197628Y0000197628D01*
X0000212350Y0000175595D01*
X0000217519Y0000149606D01*
X0003609251Y0000149606D01*
X0003613822Y0000172582D01*
X0003623773Y0000187475D01*
X0003626230Y0000191900D01*
X0003627010Y0000192673D01*
X0003631058Y0000194881D01*
X0003646315Y0000205075D01*
X0003669291Y0000209645D01*
X0003692266Y0000205075D01*
X0003711745Y0000192060D01*
X0003720634Y0000178757D01*
X0003723994Y0000174436D01*
X0003724377Y0000173580D01*
X0003724483Y0000172996D01*
X0003724760Y0000172582D01*
X0003729330Y0000149606D01*
X0003813976Y0000149606D01*
X0003813976Y0000584307D01*
X0003357549Y0000584307D01*
X0003356819Y0000582531D01*
X0003349038Y0000570813D01*
X0003348599Y0000570371D01*
X0003348225Y0000569873D01*
X0003312341Y0000537675D01*
X0003310688Y0000536696D01*
X0003310688Y0000536696D01*
X0003265215Y0000520682D01*
X0003263315Y0000520410D01*
X0003237776Y0000521792D01*
X0003236407Y0000521661D01*
X0003235814Y0000521695D01*
X0003234514Y0000521969D01*
X0003215174Y0000523016D01*
X0003215174Y0000523016D01*
X0003213313Y0000523491D01*
X0003202366Y0000528737D01*
X0003198413Y0000529569D01*
X0003197749Y0000529843D01*
X0003191163Y0000534105D01*
X0003169834Y0000544323D01*
X0003168298Y0000545475D01*
X0003139530Y0000577536D01*
X0002229470Y0000577536D01*
X0002229470Y0000431867D01*
X0002229095Y0000429983D01*
X0002228029Y0000428387D01*
X0002226432Y0000427319D01*
X0002224549Y0000426945D01*
X0002170415Y0000426945D01*
X0002170415Y0000258637D01*
X0002170040Y0000256755D01*
X0002168973Y0000255158D01*
X0002167377Y0000254091D01*
X0002165494Y0000253717D01*
X0001673368Y0000253717D01*
X0001671484Y0000254091D01*
X0001669888Y0000255158D01*
X0001668821Y0000256755D01*
X0001668446Y0000258637D01*
X0001668446Y0000426945D01*
X0001633998Y0000426945D01*
X0001632114Y0000427319D01*
X0001630518Y0000428387D01*
X0001629451Y0000429983D01*
X0001629076Y0000431867D01*
X0001629076Y0000577536D01*
X0001629451Y0000579419D01*
X0001630518Y0000581016D01*
X0001632114Y0000582083D01*
X0001633998Y0000582457D01*
X0002224549Y0000582457D01*
X0002226432Y0000582083D01*
X0002228029Y0000581016D01*
X0002229095Y0000579419D01*
X0002229470Y0000577536D01*
X0003139530Y0000577536D01*
X0003136100Y0000581359D01*
X0003135121Y0000583011D01*
X0003135121Y0000583011D01*
X0003127359Y0000605051D01*
X0003126192Y0000607387D01*
X0003126009Y0000607944D01*
X0003125714Y0000609724D01*
X0003119107Y0000628485D01*
X0003118835Y0000630385D01*
X0003118835Y0000630385D01*
X0003120023Y0000652338D01*
X0001323958Y0000652338D01*
X0001323958Y0000353127D01*
X0001323584Y0000351243D01*
X0001322517Y0000349647D01*
X0001320920Y0000348580D01*
X0001319037Y0000348205D01*
X0001114313Y0000348205D01*
X0001112429Y0000348580D01*
X0001110833Y0000349647D01*
X0001109766Y0000351243D01*
X0001109391Y0000353127D01*
X0001109391Y0000652338D01*
X0001109766Y0000654222D01*
X0001110833Y0000655819D01*
X0001112429Y0000656886D01*
X0001114313Y0000657260D01*
X0001319037Y0000657260D01*
X0001320920Y0000656886D01*
X0001322517Y0000655819D01*
X0001323584Y0000654222D01*
X0001323958Y0000652338D01*
X0003120023Y0000652338D01*
X0003121441Y0000678526D01*
X0003121917Y0000680385D01*
X0003142747Y0000723865D01*
X0003143900Y0000725402D01*
X0003179784Y0000757600D01*
X0003181436Y0000758578D01*
X0003226910Y0000774592D01*
X0003228810Y0000774865D01*
X0003276951Y0000772258D01*
X0003278812Y0000771783D01*
X0003302641Y0000760366D01*
X0003309735Y0000757752D01*
X0003310394Y0000757348D01*
X0003311942Y0000755909D01*
X0003322290Y0000750952D01*
X0003323827Y0000749800D01*
X0003356025Y0000713916D01*
X0003356448Y0000713202D01*
X0003356908Y0000712513D01*
X0003356935Y0000712380D01*
X0003357003Y0000712264D01*
X0003357121Y0000711443D01*
X0003357283Y0000710630D01*
X0003357283Y0000586851D01*
X0003357543Y0000586227D01*
X0003357549Y0000584307D01*
X0003813976Y0000584307D01*
X0003813976Y0001425196D01*
X0003737204Y0001425196D01*
X0003732035Y0001399207D01*
X0003717313Y0001377174D01*
X0003695280Y0001362453D01*
X0003669291Y0001357283D01*
X0003643301Y0001362453D01*
X0003621269Y0001377174D01*
X0003606547Y0001399207D01*
X0003601377Y0001425196D01*
X0000209645Y0001425196D01*
X0000205075Y0001402220D01*
X0000192060Y0001382742D01*
X0000172582Y0001369727D01*
X0000149606Y0001365157D01*
X0000126628Y0001369727D01*
X0000118926Y0001374875D01*
X0000107224Y0001382189D01*
X0000106539Y0001382915D01*
X0000104331Y0001386964D01*
X0000094137Y0001402220D01*
X0000089566Y0001425196D01*
X0000094137Y0001448172D01*
X0000104088Y0001463065D01*
X0000106546Y0001467491D01*
X0000107325Y0001468263D01*
X0000111373Y0001470472D01*
X0000126628Y0001480666D01*
X0000149606Y0001485236D01*
X0000172582Y0001480666D01*
X0000192060Y0001467650D01*
X0000200949Y0001454347D01*
X0000204309Y0001450027D01*
X0000204692Y0001449171D01*
X0000204798Y0001448586D01*
X0000205075Y0001448172D01*
X0000209645Y0001425196D01*
X0003601377Y0001425196D01*
X0003606547Y0001451186D01*
X0003621269Y0001473218D01*
X0003643301Y0001487940D01*
X0003669291Y0001493110D01*
X0003695280Y0001487940D01*
X0003717313Y0001473218D01*
X0003732035Y0001451186D01*
X0003737204Y0001425196D01*
X0003813976Y0001425196D01*
X0003813976Y0001475893D01*
X0003806769Y0001512123D01*
X0003786521Y0001542427D01*
X0003756217Y0001562675D01*
X0003719986Y0001569881D01*
X0000098909Y0001569881D01*
X0000062679Y0001562675D01*
G36*
X0000186784Y0000105948D02*
X0000190667Y0000108544D01*
X0000191960Y0000110478D01*
X0000186784Y0000105948D01*
X0000186784Y0000105948D01*
G37*
X0000186784Y0000105948D02*
X0000190667Y0000108544D01*
X0000191960Y0000110478D01*
X0000186784Y0000105948D01*
G36*
X0000095955Y0000171828D02*
X0000095828Y0000171187D01*
X0000096035Y0000171947D01*
X0000095955Y0000171828D01*
X0000095955Y0000171828D01*
G37*
X0000095955Y0000171828D02*
X0000095828Y0000171187D01*
X0000096035Y0000171947D01*
X0000095955Y0000171828D01*
G36*
X0003706469Y0001381539D02*
X0003710353Y0001384134D01*
X0003711645Y0001386068D01*
X0003706469Y0001381539D01*
X0003706469Y0001381539D01*
G37*
X0003706469Y0001381539D02*
X0003710353Y0001384134D01*
X0003711645Y0001386068D01*
X0003706469Y0001381539D01*
G36*
X0003615640Y0001447417D02*
X0003615513Y0001446778D01*
X0003615720Y0001447539D01*
X0003615640Y0001447417D01*
X0003615640Y0001447417D01*
G37*
X0003615640Y0001447417D02*
X0003615513Y0001446778D01*
X0003615720Y0001447539D01*
X0003615640Y0001447417D01*
G04 split*
G04 #@! TF.FileFunction,Copper,L1,Top,Signal*
G04 Gerber Fmt 4.6, Leading zero omitted, Abs format (unit mm)*
G04 Created by KiCad (PCBNEW no-bzr-kicad_new3d-viewer) date 06/27/16 23:32:51*
G01G01G01G01*
G04 APERTURE LIST*
G04 APERTURE END LIST*
D38*
G36*
X-0000007874Y0001645668D02*
X0003826771Y0001645668D01*
X0003826771Y0003129921D01*
X0003823818Y0003129921D01*
X0003823818Y0001751968D01*
X0003823724Y0001751493D01*
X0003823724Y0001751008D01*
X0003816231Y0001713342D01*
X0003816231Y0001713342D01*
X0003815497Y0001711568D01*
X0003794161Y0001679636D01*
X0003792803Y0001678279D01*
X0003760872Y0001656943D01*
X0003760872Y0001656943D01*
X0003759832Y0001656513D01*
X0003759098Y0001656208D01*
X0003759098Y0001656208D01*
X0003721432Y0001648716D01*
X0003720947Y0001648716D01*
X0003720472Y0001648622D01*
X0000098425Y0001648622D01*
X0000097949Y0001648716D01*
X0000097465Y0001648716D01*
X0000059799Y0001656208D01*
X0000059799Y0001656208D01*
X0000058025Y0001656943D01*
X0000026093Y0001678279D01*
X0000024736Y0001679636D01*
X0000003400Y0001711568D01*
X0000003400Y0001711568D01*
X0000002665Y0001713342D01*
X-0000004826Y0001751008D01*
X-0000004826Y0001751493D01*
X-0000004921Y0001751968D01*
X-0000004921Y0003129921D01*
X-0000004826Y0003130396D01*
X-0000004826Y0003130881D01*
X0000002665Y0003168547D01*
X0000003400Y0003170321D01*
X0000003400Y0003170321D01*
X0000024736Y0003202251D01*
X0000026093Y0003203610D01*
X0000058025Y0003224946D01*
X0000059799Y0003225681D01*
X0000059799Y0003225681D01*
X0000097465Y0003233173D01*
X0000097949Y0003233173D01*
X0000098425Y0003233267D01*
X0003720472Y0003233267D01*
X0003720947Y0003233173D01*
X0003721432Y0003233173D01*
X0003759098Y0003225681D01*
X0003759832Y0003225376D01*
X0003760872Y0003224946D01*
X0003760872Y0003224946D01*
X0003792803Y0003203610D01*
X0003794161Y0003202251D01*
X0003815497Y0003170321D01*
X0003815497Y0003170321D01*
X0003816231Y0003168547D01*
X0003823724Y0003130881D01*
X0003823724Y0003130396D01*
X0003823818Y0003129921D01*
X0003826771Y0003129921D01*
X0003826771Y0003236220D01*
X-0000007874Y0003236220D01*
X-0000007874Y0001645668D01*
X-0000007874Y0001645668D01*
G37*
X-0000007874Y0001645668D02*
X0003826771Y0001645668D01*
X0003826771Y0003129921D01*
X0003823818Y0003129921D01*
X0003823818Y0001751968D01*
X0003823724Y0001751493D01*
X0003823724Y0001751008D01*
X0003816231Y0001713342D01*
X0003816231Y0001713342D01*
X0003815497Y0001711568D01*
X0003794161Y0001679636D01*
X0003792803Y0001678279D01*
X0003760872Y0001656943D01*
X0003760872Y0001656943D01*
X0003759832Y0001656513D01*
X0003759098Y0001656208D01*
X0003759098Y0001656208D01*
X0003721432Y0001648716D01*
X0003720947Y0001648716D01*
X0003720472Y0001648622D01*
X0000098425Y0001648622D01*
X0000097949Y0001648716D01*
X0000097465Y0001648716D01*
X0000059799Y0001656208D01*
X0000059799Y0001656208D01*
X0000058025Y0001656943D01*
X0000026093Y0001678279D01*
X0000024736Y0001679636D01*
X0000003400Y0001711568D01*
X0000003400Y0001711568D01*
X0000002665Y0001713342D01*
X-0000004826Y0001751008D01*
X-0000004826Y0001751493D01*
X-0000004921Y0001751968D01*
X-0000004921Y0003129921D01*
X-0000004826Y0003130396D01*
X-0000004826Y0003130881D01*
X0000002665Y0003168547D01*
X0000003400Y0003170321D01*
X0000003400Y0003170321D01*
X0000024736Y0003202251D01*
X0000026093Y0003203610D01*
X0000058025Y0003224946D01*
X0000059799Y0003225681D01*
X0000059799Y0003225681D01*
X0000097465Y0003233173D01*
X0000097949Y0003233173D01*
X0000098425Y0003233267D01*
X0003720472Y0003233267D01*
X0003720947Y0003233173D01*
X0003721432Y0003233173D01*
X0003759098Y0003225681D01*
X0003759832Y0003225376D01*
X0003760872Y0003224946D01*
X0003760872Y0003224946D01*
X0003792803Y0003203610D01*
X0003794161Y0003202251D01*
X0003815497Y0003170321D01*
X0003815497Y0003170321D01*
X0003816231Y0003168547D01*
X0003823724Y0003130881D01*
X0003823724Y0003130396D01*
X0003823818Y0003129921D01*
X0003826771Y0003129921D01*
X0003826771Y0003236220D01*
X-0000007874Y0003236220D01*
X-0000007874Y0001645668D01*
G36*
X0000062679Y0003216218D02*
X0000032376Y0003195970D01*
X0000012127Y0003165666D01*
X0000004921Y0003129436D01*
X0000004921Y0001752453D01*
X0000012127Y0001716222D01*
X0000032376Y0001685919D01*
X0000062679Y0001665671D01*
X0000098909Y0001658464D01*
X0003719986Y0001658464D01*
X0003756217Y0001665671D01*
X0003786521Y0001685919D01*
X0003806769Y0001716222D01*
X0003813976Y0001752453D01*
X0003813976Y0001803149D01*
X0003733267Y0001803149D01*
X0003728397Y0001778666D01*
X0003714529Y0001757911D01*
X0003693773Y0001744043D01*
X0003669291Y0001739173D01*
X0003644808Y0001744043D01*
X0003624053Y0001757911D01*
X0003610184Y0001778666D01*
X0003605314Y0001803149D01*
X0000213582Y0001803149D01*
X0000208712Y0001778666D01*
X0000194844Y0001757911D01*
X0000174088Y0001744043D01*
X0000149606Y0001739173D01*
X0000125123Y0001744043D01*
X0000104368Y0001757911D01*
X0000090498Y0001778666D01*
X0000085629Y0001803149D01*
X0000090498Y0001827632D01*
X0000104368Y0001848387D01*
X0000125123Y0001862256D01*
X0000149606Y0001867126D01*
X0000174088Y0001862256D01*
X0000194844Y0001848387D01*
X0000208712Y0001827632D01*
X0000213582Y0001803149D01*
X0003605314Y0001803149D01*
X0003610184Y0001827632D01*
X0003624053Y0001848387D01*
X0003644808Y0001862256D01*
X0003669291Y0001867126D01*
X0003693773Y0001862256D01*
X0003714529Y0001848387D01*
X0003728397Y0001827632D01*
X0003733267Y0001803149D01*
X0003813976Y0001803149D01*
X0003813976Y0002237850D01*
X0003357549Y0002237850D01*
X0003356819Y0002236074D01*
X0003349038Y0002224357D01*
X0003348599Y0002223915D01*
X0003348225Y0002223416D01*
X0003312341Y0002191219D01*
X0003310688Y0002190240D01*
X0003310688Y0002190240D01*
X0003265215Y0002174225D01*
X0003263315Y0002173953D01*
X0003237776Y0002175336D01*
X0003236407Y0002175205D01*
X0003235814Y0002175239D01*
X0003234514Y0002175512D01*
X0003215174Y0002176560D01*
X0003215174Y0002176560D01*
X0003213313Y0002177035D01*
X0003202366Y0002182280D01*
X0003198413Y0002183113D01*
X0003197749Y0002183386D01*
X0003191163Y0002187648D01*
X0003169834Y0002197866D01*
X0003168298Y0002199018D01*
X0003136100Y0002234902D01*
X0003135121Y0002236554D01*
X0003135121Y0002236554D01*
X0003134665Y0002237850D01*
X0002727628Y0002237850D01*
X0002726898Y0002236074D01*
X0002719117Y0002224357D01*
X0002718677Y0002223915D01*
X0002718304Y0002223416D01*
X0002682420Y0002191219D01*
X0002680768Y0002190240D01*
X0002680768Y0002190240D01*
X0002635294Y0002174225D01*
X0002633393Y0002173953D01*
X0002607855Y0002175336D01*
X0002606485Y0002175205D01*
X0002605893Y0002175239D01*
X0002604593Y0002175512D01*
X0002585252Y0002176560D01*
X0002585252Y0002176560D01*
X0002583392Y0002177035D01*
X0002572445Y0002182280D01*
X0002568491Y0002183113D01*
X0002567828Y0002183386D01*
X0002561241Y0002187648D01*
X0002539913Y0002197866D01*
X0002538377Y0002199018D01*
X0002506179Y0002234902D01*
X0002505200Y0002236554D01*
X0002505200Y0002236554D01*
X0002504744Y0002237850D01*
X0001940226Y0002237850D01*
X0001939496Y0002236074D01*
X0001931715Y0002224357D01*
X0001931276Y0002223915D01*
X0001930902Y0002223416D01*
X0001895018Y0002191219D01*
X0001893365Y0002190240D01*
X0001893365Y0002190240D01*
X0001847892Y0002174225D01*
X0001845991Y0002173953D01*
X0001820453Y0002175336D01*
X0001819084Y0002175205D01*
X0001818492Y0002175239D01*
X0001817190Y0002175512D01*
X0001797851Y0002176560D01*
X0001797851Y0002176560D01*
X0001795991Y0002177035D01*
X0001785043Y0002182280D01*
X0001781090Y0002183113D01*
X0001780425Y0002183386D01*
X0001773839Y0002187648D01*
X0001752512Y0002197866D01*
X0001750975Y0002199018D01*
X0001718777Y0002234902D01*
X0001717799Y0002236554D01*
X0001717799Y0002236554D01*
X0001717342Y0002237850D01*
X0001310305Y0002237850D01*
X0001309575Y0002236074D01*
X0001301794Y0002224357D01*
X0001301355Y0002223915D01*
X0001300981Y0002223416D01*
X0001265097Y0002191219D01*
X0001263445Y0002190240D01*
X0001263445Y0002190240D01*
X0001217971Y0002174225D01*
X0001216070Y0002173953D01*
X0001190532Y0002175336D01*
X0001189162Y0002175205D01*
X0001188570Y0002175239D01*
X0001187270Y0002175512D01*
X0001167930Y0002176560D01*
X0001167930Y0002176560D01*
X0001166069Y0002177035D01*
X0001155122Y0002182280D01*
X0001151169Y0002183113D01*
X0001150505Y0002183386D01*
X0001143918Y0002187648D01*
X0001122590Y0002197866D01*
X0001121054Y0002199018D01*
X0001088856Y0002234902D01*
X0001087877Y0002236554D01*
X0001087877Y0002236554D01*
X0001087421Y0002237850D01*
X0000680384Y0002237850D01*
X0000679654Y0002236074D01*
X0000671873Y0002224357D01*
X0000671433Y0002223915D01*
X0000671060Y0002223416D01*
X0000635175Y0002191219D01*
X0000633524Y0002190240D01*
X0000633524Y0002190240D01*
X0000588050Y0002174225D01*
X0000586149Y0002173953D01*
X0000560611Y0002175336D01*
X0000559241Y0002175205D01*
X0000558649Y0002175239D01*
X0000557349Y0002175512D01*
X0000538008Y0002176560D01*
X0000538008Y0002176560D01*
X0000536148Y0002177035D01*
X0000525200Y0002182280D01*
X0000521247Y0002183113D01*
X0000520584Y0002183386D01*
X0000513997Y0002187648D01*
X0000492669Y0002197866D01*
X0000491133Y0002199018D01*
X0000458935Y0002234902D01*
X0000457956Y0002236554D01*
X0000457956Y0002236554D01*
X0000450193Y0002258595D01*
X0000449026Y0002260930D01*
X0000448845Y0002261487D01*
X0000448548Y0002263267D01*
X0000441942Y0002282028D01*
X0000441669Y0002283929D01*
X0000441669Y0002283929D01*
X0000444276Y0002332069D01*
X0000444752Y0002333930D01*
X0000465582Y0002377409D01*
X0000466734Y0002378945D01*
X0000502618Y0002411143D01*
X0000504270Y0002412122D01*
X0000549744Y0002428136D01*
X0000551645Y0002428408D01*
X0000599786Y0002425802D01*
X0000601646Y0002425326D01*
X0000625475Y0002413909D01*
X0000632570Y0002411295D01*
X0000633229Y0002410891D01*
X0000634778Y0002409452D01*
X0000645125Y0002404495D01*
X0000646662Y0002403343D01*
X0000678859Y0002367459D01*
X0000679282Y0002366746D01*
X0000679743Y0002366056D01*
X0000679769Y0002365924D01*
X0000679838Y0002365807D01*
X0000679956Y0002364986D01*
X0000680118Y0002364173D01*
X0000680118Y0002240394D01*
X0000680378Y0002239770D01*
X0000680384Y0002237850D01*
X0001087421Y0002237850D01*
X0001080115Y0002258595D01*
X0001078947Y0002260930D01*
X0001078766Y0002261487D01*
X0001078470Y0002263267D01*
X0001071863Y0002282028D01*
X0001071591Y0002283929D01*
X0001071591Y0002283929D01*
X0001074197Y0002332069D01*
X0001074673Y0002333930D01*
X0001095504Y0002377409D01*
X0001096656Y0002378945D01*
X0001132540Y0002411143D01*
X0001134191Y0002412122D01*
X0001179665Y0002428136D01*
X0001181566Y0002428408D01*
X0001229707Y0002425802D01*
X0001231567Y0002425326D01*
X0001255397Y0002413909D01*
X0001262490Y0002411295D01*
X0001263150Y0002410891D01*
X0001264699Y0002409452D01*
X0001275046Y0002404495D01*
X0001276583Y0002403343D01*
X0001308780Y0002367459D01*
X0001309203Y0002366746D01*
X0001309664Y0002366056D01*
X0001309691Y0002365924D01*
X0001309759Y0002365807D01*
X0001309877Y0002364986D01*
X0001310039Y0002364173D01*
X0001310039Y0002240394D01*
X0001310299Y0002239770D01*
X0001310305Y0002237850D01*
X0001717342Y0002237850D01*
X0001710036Y0002258595D01*
X0001708869Y0002260930D01*
X0001708688Y0002261487D01*
X0001708389Y0002263267D01*
X0001701784Y0002282028D01*
X0001701512Y0002283929D01*
X0001701512Y0002283929D01*
X0001704118Y0002332069D01*
X0001704594Y0002333930D01*
X0001725425Y0002377409D01*
X0001726576Y0002378945D01*
X0001762461Y0002411143D01*
X0001764112Y0002412122D01*
X0001809587Y0002428136D01*
X0001811486Y0002428408D01*
X0001859628Y0002425802D01*
X0001861489Y0002425326D01*
X0001885318Y0002413909D01*
X0001892412Y0002411295D01*
X0001893071Y0002410891D01*
X0001894620Y0002409452D01*
X0001904968Y0002404495D01*
X0001906504Y0002403343D01*
X0001938702Y0002367459D01*
X0001939125Y0002366746D01*
X0001939585Y0002366056D01*
X0001939612Y0002365924D01*
X0001939681Y0002365807D01*
X0001939798Y0002364986D01*
X0001939960Y0002364173D01*
X0001939960Y0002240394D01*
X0001940221Y0002239770D01*
X0001940226Y0002237850D01*
X0002504744Y0002237850D01*
X0002497438Y0002258595D01*
X0002496270Y0002260930D01*
X0002496089Y0002261487D01*
X0002495792Y0002263267D01*
X0002489186Y0002282028D01*
X0002488913Y0002283929D01*
X0002488913Y0002283929D01*
X0002491520Y0002332069D01*
X0002491996Y0002333930D01*
X0002512827Y0002377409D01*
X0002513978Y0002378945D01*
X0002549862Y0002411143D01*
X0002551514Y0002412122D01*
X0002596988Y0002428136D01*
X0002598889Y0002428408D01*
X0002647030Y0002425802D01*
X0002648890Y0002425326D01*
X0002672719Y0002413909D01*
X0002679813Y0002411295D01*
X0002680473Y0002410891D01*
X0002682022Y0002409452D01*
X0002692369Y0002404495D01*
X0002693906Y0002403343D01*
X0002726103Y0002367459D01*
X0002726526Y0002366746D01*
X0002726987Y0002366056D01*
X0002727013Y0002365924D01*
X0002727082Y0002365807D01*
X0002727200Y0002364986D01*
X0002727362Y0002364173D01*
X0002727362Y0002240394D01*
X0002727622Y0002239770D01*
X0002727628Y0002237850D01*
X0003134665Y0002237850D01*
X0003127359Y0002258595D01*
X0003126192Y0002260930D01*
X0003126009Y0002261487D01*
X0003125714Y0002263267D01*
X0003119107Y0002282028D01*
X0003118835Y0002283929D01*
X0003118835Y0002283929D01*
X0003121441Y0002332069D01*
X0003121917Y0002333930D01*
X0003142747Y0002377409D01*
X0003143900Y0002378945D01*
X0003179784Y0002411143D01*
X0003181436Y0002412122D01*
X0003226910Y0002428136D01*
X0003228810Y0002428408D01*
X0003276951Y0002425802D01*
X0003278811Y0002425326D01*
X0003302641Y0002413909D01*
X0003309735Y0002411295D01*
X0003310394Y0002410891D01*
X0003311942Y0002409452D01*
X0003322290Y0002404495D01*
X0003323827Y0002403343D01*
X0003356025Y0002367459D01*
X0003356448Y0002366746D01*
X0003356908Y0002366056D01*
X0003356935Y0002365924D01*
X0003357003Y0002365807D01*
X0003357121Y0002364986D01*
X0003357283Y0002364173D01*
X0003357283Y0002240394D01*
X0003357543Y0002239770D01*
X0003357549Y0002237850D01*
X0003813976Y0002237850D01*
X0003813976Y0002867771D01*
X0003357549Y0002867771D01*
X0003356819Y0002865994D01*
X0003349038Y0002854277D01*
X0003348599Y0002853836D01*
X0003348225Y0002853337D01*
X0003312341Y0002821140D01*
X0003310688Y0002820161D01*
X0003310688Y0002820161D01*
X0003265215Y0002804146D01*
X0003263315Y0002803874D01*
X0003237776Y0002805257D01*
X0003236407Y0002805127D01*
X0003235814Y0002805160D01*
X0003234514Y0002805434D01*
X0003215174Y0002806481D01*
X0003215174Y0002806481D01*
X0003213313Y0002806956D01*
X0003202366Y0002812202D01*
X0003198413Y0002813034D01*
X0003197749Y0002813307D01*
X0003191163Y0002817569D01*
X0003169834Y0002827788D01*
X0003168298Y0002828939D01*
X0003136100Y0002864823D01*
X0003135121Y0002866475D01*
X0003135121Y0002866475D01*
X0003134665Y0002867771D01*
X0002727628Y0002867771D01*
X0002726898Y0002865994D01*
X0002719117Y0002854277D01*
X0002718677Y0002853836D01*
X0002718304Y0002853337D01*
X0002682420Y0002821140D01*
X0002680768Y0002820161D01*
X0002680768Y0002820161D01*
X0002635294Y0002804146D01*
X0002633393Y0002803874D01*
X0002607855Y0002805257D01*
X0002606485Y0002805127D01*
X0002605893Y0002805160D01*
X0002604593Y0002805434D01*
X0002585252Y0002806481D01*
X0002585252Y0002806481D01*
X0002583392Y0002806956D01*
X0002572445Y0002812202D01*
X0002568491Y0002813034D01*
X0002567828Y0002813307D01*
X0002561241Y0002817569D01*
X0002539913Y0002827788D01*
X0002538377Y0002828939D01*
X0002506179Y0002864823D01*
X0002505200Y0002866475D01*
X0002505200Y0002866475D01*
X0002504744Y0002867771D01*
X0001940226Y0002867771D01*
X0001939496Y0002865994D01*
X0001931715Y0002854277D01*
X0001931276Y0002853836D01*
X0001930902Y0002853337D01*
X0001895018Y0002821140D01*
X0001893365Y0002820161D01*
X0001893365Y0002820161D01*
X0001847892Y0002804146D01*
X0001845991Y0002803874D01*
X0001820453Y0002805257D01*
X0001819084Y0002805127D01*
X0001818492Y0002805160D01*
X0001817190Y0002805434D01*
X0001797851Y0002806481D01*
X0001797851Y0002806481D01*
X0001795991Y0002806956D01*
X0001785043Y0002812202D01*
X0001781090Y0002813034D01*
X0001780425Y0002813307D01*
X0001773839Y0002817569D01*
X0001752512Y0002827788D01*
X0001750975Y0002828939D01*
X0001718777Y0002864823D01*
X0001717799Y0002866475D01*
X0001717799Y0002866475D01*
X0001717342Y0002867771D01*
X0001310305Y0002867771D01*
X0001309575Y0002865994D01*
X0001301794Y0002854277D01*
X0001301355Y0002853836D01*
X0001300981Y0002853337D01*
X0001265097Y0002821140D01*
X0001263445Y0002820161D01*
X0001263445Y0002820161D01*
X0001217971Y0002804146D01*
X0001216070Y0002803874D01*
X0001190532Y0002805257D01*
X0001189162Y0002805127D01*
X0001188570Y0002805160D01*
X0001187270Y0002805434D01*
X0001167930Y0002806481D01*
X0001167930Y0002806481D01*
X0001166069Y0002806956D01*
X0001155122Y0002812202D01*
X0001151169Y0002813034D01*
X0001150505Y0002813307D01*
X0001143918Y0002817569D01*
X0001122590Y0002827788D01*
X0001121054Y0002828939D01*
X0001088856Y0002864823D01*
X0001087877Y0002866475D01*
X0001087877Y0002866475D01*
X0001087421Y0002867771D01*
X0000680384Y0002867771D01*
X0000679654Y0002865994D01*
X0000671873Y0002854277D01*
X0000671433Y0002853836D01*
X0000671060Y0002853337D01*
X0000635175Y0002821140D01*
X0000633524Y0002820161D01*
X0000633524Y0002820161D01*
X0000588050Y0002804146D01*
X0000586149Y0002803874D01*
X0000560611Y0002805257D01*
X0000559241Y0002805127D01*
X0000558649Y0002805160D01*
X0000557349Y0002805434D01*
X0000538008Y0002806481D01*
X0000538008Y0002806481D01*
X0000536148Y0002806956D01*
X0000525200Y0002812202D01*
X0000521247Y0002813034D01*
X0000520584Y0002813307D01*
X0000513997Y0002817569D01*
X0000492669Y0002827788D01*
X0000491133Y0002828939D01*
X0000458935Y0002864823D01*
X0000457956Y0002866475D01*
X0000457956Y0002866475D01*
X0000450193Y0002888516D01*
X0000449026Y0002890851D01*
X0000448845Y0002891408D01*
X0000448548Y0002893189D01*
X0000441942Y0002911949D01*
X0000441669Y0002913849D01*
X0000441669Y0002913849D01*
X0000444276Y0002961991D01*
X0000444752Y0002963851D01*
X0000465582Y0003007329D01*
X0000466734Y0003008866D01*
X0000502618Y0003041064D01*
X0000504270Y0003042043D01*
X0000549744Y0003058057D01*
X0000551645Y0003058330D01*
X0000599786Y0003055723D01*
X0000601646Y0003055247D01*
X0000625475Y0003043830D01*
X0000632570Y0003041217D01*
X0000633229Y0003040812D01*
X0000634778Y0003039374D01*
X0000645125Y0003034416D01*
X0000646345Y0003033502D01*
X0000646662Y0003033264D01*
X0000678859Y0002997381D01*
X0000679282Y0002996667D01*
X0000679743Y0002995977D01*
X0000679769Y0002995845D01*
X0000679838Y0002995729D01*
X0000679956Y0002994908D01*
X0000680118Y0002994094D01*
X0000680118Y0002870315D01*
X0000680378Y0002869691D01*
X0000680384Y0002867771D01*
X0001087421Y0002867771D01*
X0001080115Y0002888516D01*
X0001078947Y0002890851D01*
X0001078766Y0002891408D01*
X0001078470Y0002893189D01*
X0001071863Y0002911949D01*
X0001071591Y0002913849D01*
X0001071591Y0002913849D01*
X0001074197Y0002961991D01*
X0001074673Y0002963851D01*
X0001095504Y0003007329D01*
X0001096656Y0003008866D01*
X0001132540Y0003041064D01*
X0001134191Y0003042043D01*
X0001179665Y0003058057D01*
X0001181566Y0003058330D01*
X0001229707Y0003055723D01*
X0001231567Y0003055247D01*
X0001255397Y0003043830D01*
X0001262490Y0003041217D01*
X0001263150Y0003040812D01*
X0001264699Y0003039374D01*
X0001275046Y0003034416D01*
X0001276267Y0003033502D01*
X0001276583Y0003033264D01*
X0001308780Y0002997381D01*
X0001309203Y0002996667D01*
X0001309664Y0002995977D01*
X0001309691Y0002995845D01*
X0001309759Y0002995729D01*
X0001309877Y0002994908D01*
X0001310039Y0002994094D01*
X0001310039Y0002870315D01*
X0001310299Y0002869691D01*
X0001310305Y0002867771D01*
X0001717342Y0002867771D01*
X0001710036Y0002888516D01*
X0001708869Y0002890851D01*
X0001708688Y0002891408D01*
X0001708389Y0002893189D01*
X0001701784Y0002911949D01*
X0001701512Y0002913849D01*
X0001701512Y0002913849D01*
X0001704118Y0002961991D01*
X0001704594Y0002963851D01*
X0001725425Y0003007329D01*
X0001726576Y0003008866D01*
X0001762461Y0003041064D01*
X0001764112Y0003042043D01*
X0001809587Y0003058057D01*
X0001811486Y0003058330D01*
X0001859628Y0003055723D01*
X0001861489Y0003055247D01*
X0001885318Y0003043830D01*
X0001892412Y0003041217D01*
X0001893071Y0003040812D01*
X0001894620Y0003039374D01*
X0001904968Y0003034416D01*
X0001906188Y0003033502D01*
X0001906504Y0003033264D01*
X0001938702Y0002997381D01*
X0001939125Y0002996667D01*
X0001939585Y0002995977D01*
X0001939612Y0002995845D01*
X0001939681Y0002995729D01*
X0001939798Y0002994908D01*
X0001939960Y0002994094D01*
X0001939960Y0002870315D01*
X0001940221Y0002869691D01*
X0001940226Y0002867771D01*
X0002504744Y0002867771D01*
X0002497438Y0002888516D01*
X0002496270Y0002890851D01*
X0002496089Y0002891408D01*
X0002495792Y0002893189D01*
X0002489186Y0002911949D01*
X0002488913Y0002913849D01*
X0002488913Y0002913849D01*
X0002491520Y0002961991D01*
X0002491996Y0002963851D01*
X0002512827Y0003007329D01*
X0002513978Y0003008866D01*
X0002549862Y0003041064D01*
X0002551514Y0003042043D01*
X0002596988Y0003058057D01*
X0002598889Y0003058330D01*
X0002647030Y0003055723D01*
X0002648890Y0003055247D01*
X0002672719Y0003043830D01*
X0002679813Y0003041217D01*
X0002680473Y0003040812D01*
X0002682022Y0003039374D01*
X0002692369Y0003034416D01*
X0002693590Y0003033502D01*
X0002693906Y0003033264D01*
X0002726103Y0002997381D01*
X0002726526Y0002996667D01*
X0002726987Y0002995977D01*
X0002727013Y0002995845D01*
X0002727082Y0002995729D01*
X0002727200Y0002994908D01*
X0002727362Y0002994094D01*
X0002727362Y0002870315D01*
X0002727622Y0002869691D01*
X0002727628Y0002867771D01*
X0003134665Y0002867771D01*
X0003127359Y0002888516D01*
X0003126192Y0002890851D01*
X0003126009Y0002891408D01*
X0003125714Y0002893189D01*
X0003119107Y0002911949D01*
X0003118835Y0002913849D01*
X0003118835Y0002913849D01*
X0003121441Y0002961991D01*
X0003121917Y0002963851D01*
X0003142747Y0003007329D01*
X0003143900Y0003008866D01*
X0003179784Y0003041064D01*
X0003181436Y0003042043D01*
X0003226910Y0003058057D01*
X0003228810Y0003058330D01*
X0003276951Y0003055723D01*
X0003278811Y0003055247D01*
X0003302641Y0003043830D01*
X0003309735Y0003041217D01*
X0003310394Y0003040812D01*
X0003311942Y0003039374D01*
X0003322290Y0003034416D01*
X0003323511Y0003033502D01*
X0003323827Y0003033264D01*
X0003356025Y0002997381D01*
X0003356448Y0002996667D01*
X0003356908Y0002995977D01*
X0003356935Y0002995845D01*
X0003357003Y0002995729D01*
X0003357121Y0002994908D01*
X0003357283Y0002994094D01*
X0003357283Y0002870315D01*
X0003357543Y0002869691D01*
X0003357549Y0002867771D01*
X0003813976Y0002867771D01*
X0003813976Y0003078739D01*
X0003733267Y0003078739D01*
X0003728397Y0003054257D01*
X0003714529Y0003033502D01*
X0003693773Y0003019633D01*
X0003669291Y0003014763D01*
X0003644808Y0003019633D01*
X0003624053Y0003033502D01*
X0003610184Y0003054257D01*
X0003605314Y0003078739D01*
X0000213582Y0003078739D01*
X0000208712Y0003054257D01*
X0000194844Y0003033502D01*
X0000174088Y0003019633D01*
X0000149606Y0003014763D01*
X0000125123Y0003019633D01*
X0000104368Y0003033502D01*
X0000090498Y0003054257D01*
X0000085629Y0003078739D01*
X0000090498Y0003103222D01*
X0000104368Y0003123978D01*
X0000125123Y0003137846D01*
X0000149606Y0003142716D01*
X0000174088Y0003137846D01*
X0000194844Y0003123978D01*
X0000208712Y0003103222D01*
X0000213582Y0003078739D01*
X0003605314Y0003078739D01*
X0003610184Y0003103222D01*
X0003624053Y0003123978D01*
X0003644808Y0003137846D01*
X0003669291Y0003142716D01*
X0003693773Y0003137846D01*
X0003714529Y0003123978D01*
X0003728397Y0003103222D01*
X0003733267Y0003078739D01*
X0003813976Y0003078739D01*
X0003813976Y0003129436D01*
X0003806769Y0003165666D01*
X0003786521Y0003195970D01*
X0003756217Y0003216218D01*
X0003719986Y0003223425D01*
X0000098909Y0003223425D01*
X0000062679Y0003216218D01*
X0000062679Y0003216218D01*
G37*
X0000062679Y0003216218D02*
X0000032376Y0003195970D01*
X0000012127Y0003165666D01*
X0000004921Y0003129436D01*
X0000004921Y0001752453D01*
X0000012127Y0001716222D01*
X0000032376Y0001685919D01*
X0000062679Y0001665671D01*
X0000098909Y0001658464D01*
X0003719986Y0001658464D01*
X0003756217Y0001665671D01*
X0003786521Y0001685919D01*
X0003806769Y0001716222D01*
X0003813976Y0001752453D01*
X0003813976Y0001803149D01*
X0003733267Y0001803149D01*
X0003728397Y0001778666D01*
X0003714529Y0001757911D01*
X0003693773Y0001744043D01*
X0003669291Y0001739173D01*
X0003644808Y0001744043D01*
X0003624053Y0001757911D01*
X0003610184Y0001778666D01*
X0003605314Y0001803149D01*
X0000213582Y0001803149D01*
X0000208712Y0001778666D01*
X0000194844Y0001757911D01*
X0000174088Y0001744043D01*
X0000149606Y0001739173D01*
X0000125123Y0001744043D01*
X0000104368Y0001757911D01*
X0000090498Y0001778666D01*
X0000085629Y0001803149D01*
X0000090498Y0001827632D01*
X0000104368Y0001848387D01*
X0000125123Y0001862256D01*
X0000149606Y0001867126D01*
X0000174088Y0001862256D01*
X0000194844Y0001848387D01*
X0000208712Y0001827632D01*
X0000213582Y0001803149D01*
X0003605314Y0001803149D01*
X0003610184Y0001827632D01*
X0003624053Y0001848387D01*
X0003644808Y0001862256D01*
X0003669291Y0001867126D01*
X0003693773Y0001862256D01*
X0003714529Y0001848387D01*
X0003728397Y0001827632D01*
X0003733267Y0001803149D01*
X0003813976Y0001803149D01*
X0003813976Y0002237850D01*
X0003357549Y0002237850D01*
X0003356819Y0002236074D01*
X0003349038Y0002224357D01*
X0003348599Y0002223915D01*
X0003348225Y0002223416D01*
X0003312341Y0002191219D01*
X0003310688Y0002190240D01*
X0003310688Y0002190240D01*
X0003265215Y0002174225D01*
X0003263315Y0002173953D01*
X0003237776Y0002175336D01*
X0003236407Y0002175205D01*
X0003235814Y0002175239D01*
X0003234514Y0002175512D01*
X0003215174Y0002176560D01*
X0003215174Y0002176560D01*
X0003213313Y0002177035D01*
X0003202366Y0002182280D01*
X0003198413Y0002183113D01*
X0003197749Y0002183386D01*
X0003191163Y0002187648D01*
X0003169834Y0002197866D01*
X0003168298Y0002199018D01*
X0003136100Y0002234902D01*
X0003135121Y0002236554D01*
X0003135121Y0002236554D01*
X0003134665Y0002237850D01*
X0002727628Y0002237850D01*
X0002726898Y0002236074D01*
X0002719117Y0002224357D01*
X0002718677Y0002223915D01*
X0002718304Y0002223416D01*
X0002682420Y0002191219D01*
X0002680768Y0002190240D01*
X0002680768Y0002190240D01*
X0002635294Y0002174225D01*
X0002633393Y0002173953D01*
X0002607855Y0002175336D01*
X0002606485Y0002175205D01*
X0002605893Y0002175239D01*
X0002604593Y0002175512D01*
X0002585252Y0002176560D01*
X0002585252Y0002176560D01*
X0002583392Y0002177035D01*
X0002572445Y0002182280D01*
X0002568491Y0002183113D01*
X0002567828Y0002183386D01*
X0002561241Y0002187648D01*
X0002539913Y0002197866D01*
X0002538377Y0002199018D01*
X0002506179Y0002234902D01*
X0002505200Y0002236554D01*
X0002505200Y0002236554D01*
X0002504744Y0002237850D01*
X0001940226Y0002237850D01*
X0001939496Y0002236074D01*
X0001931715Y0002224357D01*
X0001931276Y0002223915D01*
X0001930902Y0002223416D01*
X0001895018Y0002191219D01*
X0001893365Y0002190240D01*
X0001893365Y0002190240D01*
X0001847892Y0002174225D01*
X0001845991Y0002173953D01*
X0001820453Y0002175336D01*
X0001819084Y0002175205D01*
X0001818492Y0002175239D01*
X0001817190Y0002175512D01*
X0001797851Y0002176560D01*
X0001797851Y0002176560D01*
X0001795991Y0002177035D01*
X0001785043Y0002182280D01*
X0001781090Y0002183113D01*
X0001780425Y0002183386D01*
X0001773839Y0002187648D01*
X0001752512Y0002197866D01*
X0001750975Y0002199018D01*
X0001718777Y0002234902D01*
X0001717799Y0002236554D01*
X0001717799Y0002236554D01*
X0001717342Y0002237850D01*
X0001310305Y0002237850D01*
X0001309575Y0002236074D01*
X0001301794Y0002224357D01*
X0001301355Y0002223915D01*
X0001300981Y0002223416D01*
X0001265097Y0002191219D01*
X0001263445Y0002190240D01*
X0001263445Y0002190240D01*
X0001217971Y0002174225D01*
X0001216070Y0002173953D01*
X0001190532Y0002175336D01*
X0001189162Y0002175205D01*
X0001188570Y0002175239D01*
X0001187270Y0002175512D01*
X0001167930Y0002176560D01*
X0001167930Y0002176560D01*
X0001166069Y0002177035D01*
X0001155122Y0002182280D01*
X0001151169Y0002183113D01*
X0001150505Y0002183386D01*
X0001143918Y0002187648D01*
X0001122590Y0002197866D01*
X0001121054Y0002199018D01*
X0001088856Y0002234902D01*
X0001087877Y0002236554D01*
X0001087877Y0002236554D01*
X0001087421Y0002237850D01*
X0000680384Y0002237850D01*
X0000679654Y0002236074D01*
X0000671873Y0002224357D01*
X0000671433Y0002223915D01*
X0000671060Y0002223416D01*
X0000635175Y0002191219D01*
X0000633524Y0002190240D01*
X0000633524Y0002190240D01*
X0000588050Y0002174225D01*
X0000586149Y0002173953D01*
X0000560611Y0002175336D01*
X0000559241Y0002175205D01*
X0000558649Y0002175239D01*
X0000557349Y0002175512D01*
X0000538008Y0002176560D01*
X0000538008Y0002176560D01*
X0000536148Y0002177035D01*
X0000525200Y0002182280D01*
X0000521247Y0002183113D01*
X0000520584Y0002183386D01*
X0000513997Y0002187648D01*
X0000492669Y0002197866D01*
X0000491133Y0002199018D01*
X0000458935Y0002234902D01*
X0000457956Y0002236554D01*
X0000457956Y0002236554D01*
X0000450193Y0002258595D01*
X0000449026Y0002260930D01*
X0000448845Y0002261487D01*
X0000448548Y0002263267D01*
X0000441942Y0002282028D01*
X0000441669Y0002283929D01*
X0000441669Y0002283929D01*
X0000444276Y0002332069D01*
X0000444752Y0002333930D01*
X0000465582Y0002377409D01*
X0000466734Y0002378945D01*
X0000502618Y0002411143D01*
X0000504270Y0002412122D01*
X0000549744Y0002428136D01*
X0000551645Y0002428408D01*
X0000599786Y0002425802D01*
X0000601646Y0002425326D01*
X0000625475Y0002413909D01*
X0000632570Y0002411295D01*
X0000633229Y0002410891D01*
X0000634778Y0002409452D01*
X0000645125Y0002404495D01*
X0000646662Y0002403343D01*
X0000678859Y0002367459D01*
X0000679282Y0002366746D01*
X0000679743Y0002366056D01*
X0000679769Y0002365924D01*
X0000679838Y0002365807D01*
X0000679956Y0002364986D01*
X0000680118Y0002364173D01*
X0000680118Y0002240394D01*
X0000680378Y0002239770D01*
X0000680384Y0002237850D01*
X0001087421Y0002237850D01*
X0001080115Y0002258595D01*
X0001078947Y0002260930D01*
X0001078766Y0002261487D01*
X0001078470Y0002263267D01*
X0001071863Y0002282028D01*
X0001071591Y0002283929D01*
X0001071591Y0002283929D01*
X0001074197Y0002332069D01*
X0001074673Y0002333930D01*
X0001095504Y0002377409D01*
X0001096656Y0002378945D01*
X0001132540Y0002411143D01*
X0001134191Y0002412122D01*
X0001179665Y0002428136D01*
X0001181566Y0002428408D01*
X0001229707Y0002425802D01*
X0001231567Y0002425326D01*
X0001255397Y0002413909D01*
X0001262490Y0002411295D01*
X0001263150Y0002410891D01*
X0001264699Y0002409452D01*
X0001275046Y0002404495D01*
X0001276583Y0002403343D01*
X0001308780Y0002367459D01*
X0001309203Y0002366746D01*
X0001309664Y0002366056D01*
X0001309691Y0002365924D01*
X0001309759Y0002365807D01*
X0001309877Y0002364986D01*
X0001310039Y0002364173D01*
X0001310039Y0002240394D01*
X0001310299Y0002239770D01*
X0001310305Y0002237850D01*
X0001717342Y0002237850D01*
X0001710036Y0002258595D01*
X0001708869Y0002260930D01*
X0001708688Y0002261487D01*
X0001708389Y0002263267D01*
X0001701784Y0002282028D01*
X0001701512Y0002283929D01*
X0001701512Y0002283929D01*
X0001704118Y0002332069D01*
X0001704594Y0002333930D01*
X0001725425Y0002377409D01*
X0001726576Y0002378945D01*
X0001762461Y0002411143D01*
X0001764112Y0002412122D01*
X0001809587Y0002428136D01*
X0001811486Y0002428408D01*
X0001859628Y0002425802D01*
X0001861489Y0002425326D01*
X0001885318Y0002413909D01*
X0001892412Y0002411295D01*
X0001893071Y0002410891D01*
X0001894620Y0002409452D01*
X0001904968Y0002404495D01*
X0001906504Y0002403343D01*
X0001938702Y0002367459D01*
X0001939125Y0002366746D01*
X0001939585Y0002366056D01*
X0001939612Y0002365924D01*
X0001939681Y0002365807D01*
X0001939798Y0002364986D01*
X0001939960Y0002364173D01*
X0001939960Y0002240394D01*
X0001940221Y0002239770D01*
X0001940226Y0002237850D01*
X0002504744Y0002237850D01*
X0002497438Y0002258595D01*
X0002496270Y0002260930D01*
X0002496089Y0002261487D01*
X0002495792Y0002263267D01*
X0002489186Y0002282028D01*
X0002488913Y0002283929D01*
X0002488913Y0002283929D01*
X0002491520Y0002332069D01*
X0002491996Y0002333930D01*
X0002512827Y0002377409D01*
X0002513978Y0002378945D01*
X0002549862Y0002411143D01*
X0002551514Y0002412122D01*
X0002596988Y0002428136D01*
X0002598889Y0002428408D01*
X0002647030Y0002425802D01*
X0002648890Y0002425326D01*
X0002672719Y0002413909D01*
X0002679813Y0002411295D01*
X0002680473Y0002410891D01*
X0002682022Y0002409452D01*
X0002692369Y0002404495D01*
X0002693906Y0002403343D01*
X0002726103Y0002367459D01*
X0002726526Y0002366746D01*
X0002726987Y0002366056D01*
X0002727013Y0002365924D01*
X0002727082Y0002365807D01*
X0002727200Y0002364986D01*
X0002727362Y0002364173D01*
X0002727362Y0002240394D01*
X0002727622Y0002239770D01*
X0002727628Y0002237850D01*
X0003134665Y0002237850D01*
X0003127359Y0002258595D01*
X0003126192Y0002260930D01*
X0003126009Y0002261487D01*
X0003125714Y0002263267D01*
X0003119107Y0002282028D01*
X0003118835Y0002283929D01*
X0003118835Y0002283929D01*
X0003121441Y0002332069D01*
X0003121917Y0002333930D01*
X0003142747Y0002377409D01*
X0003143900Y0002378945D01*
X0003179784Y0002411143D01*
X0003181436Y0002412122D01*
X0003226910Y0002428136D01*
X0003228810Y0002428408D01*
X0003276951Y0002425802D01*
X0003278811Y0002425326D01*
X0003302641Y0002413909D01*
X0003309735Y0002411295D01*
X0003310394Y0002410891D01*
X0003311942Y0002409452D01*
X0003322290Y0002404495D01*
X0003323827Y0002403343D01*
X0003356025Y0002367459D01*
X0003356448Y0002366746D01*
X0003356908Y0002366056D01*
X0003356935Y0002365924D01*
X0003357003Y0002365807D01*
X0003357121Y0002364986D01*
X0003357283Y0002364173D01*
X0003357283Y0002240394D01*
X0003357543Y0002239770D01*
X0003357549Y0002237850D01*
X0003813976Y0002237850D01*
X0003813976Y0002867771D01*
X0003357549Y0002867771D01*
X0003356819Y0002865994D01*
X0003349038Y0002854277D01*
X0003348599Y0002853836D01*
X0003348225Y0002853337D01*
X0003312341Y0002821140D01*
X0003310688Y0002820161D01*
X0003310688Y0002820161D01*
X0003265215Y0002804146D01*
X0003263315Y0002803874D01*
X0003237776Y0002805257D01*
X0003236407Y0002805127D01*
X0003235814Y0002805160D01*
X0003234514Y0002805434D01*
X0003215174Y0002806481D01*
X0003215174Y0002806481D01*
X0003213313Y0002806956D01*
X0003202366Y0002812202D01*
X0003198413Y0002813034D01*
X0003197749Y0002813307D01*
X0003191163Y0002817569D01*
X0003169834Y0002827788D01*
X0003168298Y0002828939D01*
X0003136100Y0002864823D01*
X0003135121Y0002866475D01*
X0003135121Y0002866475D01*
X0003134665Y0002867771D01*
X0002727628Y0002867771D01*
X0002726898Y0002865994D01*
X0002719117Y0002854277D01*
X0002718677Y0002853836D01*
X0002718304Y0002853337D01*
X0002682420Y0002821140D01*
X0002680768Y0002820161D01*
X0002680768Y0002820161D01*
X0002635294Y0002804146D01*
X0002633393Y0002803874D01*
X0002607855Y0002805257D01*
X0002606485Y0002805127D01*
X0002605893Y0002805160D01*
X0002604593Y0002805434D01*
X0002585252Y0002806481D01*
X0002585252Y0002806481D01*
X0002583392Y0002806956D01*
X0002572445Y0002812202D01*
X0002568491Y0002813034D01*
X0002567828Y0002813307D01*
X0002561241Y0002817569D01*
X0002539913Y0002827788D01*
X0002538377Y0002828939D01*
X0002506179Y0002864823D01*
X0002505200Y0002866475D01*
X0002505200Y0002866475D01*
X0002504744Y0002867771D01*
X0001940226Y0002867771D01*
X0001939496Y0002865994D01*
X0001931715Y0002854277D01*
X0001931276Y0002853836D01*
X0001930902Y0002853337D01*
X0001895018Y0002821140D01*
X0001893365Y0002820161D01*
X0001893365Y0002820161D01*
X0001847892Y0002804146D01*
X0001845991Y0002803874D01*
X0001820453Y0002805257D01*
X0001819084Y0002805127D01*
X0001818492Y0002805160D01*
X0001817190Y0002805434D01*
X0001797851Y0002806481D01*
X0001797851Y0002806481D01*
X0001795991Y0002806956D01*
X0001785043Y0002812202D01*
X0001781090Y0002813034D01*
X0001780425Y0002813307D01*
X0001773839Y0002817569D01*
X0001752512Y0002827788D01*
X0001750975Y0002828939D01*
X0001718777Y0002864823D01*
X0001717799Y0002866475D01*
X0001717799Y0002866475D01*
X0001717342Y0002867771D01*
X0001310305Y0002867771D01*
X0001309575Y0002865994D01*
X0001301794Y0002854277D01*
X0001301355Y0002853836D01*
X0001300981Y0002853337D01*
X0001265097Y0002821140D01*
X0001263445Y0002820161D01*
X0001263445Y0002820161D01*
X0001217971Y0002804146D01*
X0001216070Y0002803874D01*
X0001190532Y0002805257D01*
X0001189162Y0002805127D01*
X0001188570Y0002805160D01*
X0001187270Y0002805434D01*
X0001167930Y0002806481D01*
X0001167930Y0002806481D01*
X0001166069Y0002806956D01*
X0001155122Y0002812202D01*
X0001151169Y0002813034D01*
X0001150505Y0002813307D01*
X0001143918Y0002817569D01*
X0001122590Y0002827788D01*
X0001121054Y0002828939D01*
X0001088856Y0002864823D01*
X0001087877Y0002866475D01*
X0001087877Y0002866475D01*
X0001087421Y0002867771D01*
X0000680384Y0002867771D01*
X0000679654Y0002865994D01*
X0000671873Y0002854277D01*
X0000671433Y0002853836D01*
X0000671060Y0002853337D01*
X0000635175Y0002821140D01*
X0000633524Y0002820161D01*
X0000633524Y0002820161D01*
X0000588050Y0002804146D01*
X0000586149Y0002803874D01*
X0000560611Y0002805257D01*
X0000559241Y0002805127D01*
X0000558649Y0002805160D01*
X0000557349Y0002805434D01*
X0000538008Y0002806481D01*
X0000538008Y0002806481D01*
X0000536148Y0002806956D01*
X0000525200Y0002812202D01*
X0000521247Y0002813034D01*
X0000520584Y0002813307D01*
X0000513997Y0002817569D01*
X0000492669Y0002827788D01*
X0000491133Y0002828939D01*
X0000458935Y0002864823D01*
X0000457956Y0002866475D01*
X0000457956Y0002866475D01*
X0000450193Y0002888516D01*
X0000449026Y0002890851D01*
X0000448845Y0002891408D01*
X0000448548Y0002893189D01*
X0000441942Y0002911949D01*
X0000441669Y0002913849D01*
X0000441669Y0002913849D01*
X0000444276Y0002961991D01*
X0000444752Y0002963851D01*
X0000465582Y0003007329D01*
X0000466734Y0003008866D01*
X0000502618Y0003041064D01*
X0000504270Y0003042043D01*
X0000549744Y0003058057D01*
X0000551645Y0003058330D01*
X0000599786Y0003055723D01*
X0000601646Y0003055247D01*
X0000625475Y0003043830D01*
X0000632570Y0003041217D01*
X0000633229Y0003040812D01*
X0000634778Y0003039374D01*
X0000645125Y0003034416D01*
X0000646345Y0003033502D01*
X0000646662Y0003033264D01*
X0000678859Y0002997381D01*
X0000679282Y0002996667D01*
X0000679743Y0002995977D01*
X0000679769Y0002995845D01*
X0000679838Y0002995729D01*
X0000679956Y0002994908D01*
X0000680118Y0002994094D01*
X0000680118Y0002870315D01*
X0000680378Y0002869691D01*
X0000680384Y0002867771D01*
X0001087421Y0002867771D01*
X0001080115Y0002888516D01*
X0001078947Y0002890851D01*
X0001078766Y0002891408D01*
X0001078470Y0002893189D01*
X0001071863Y0002911949D01*
X0001071591Y0002913849D01*
X0001071591Y0002913849D01*
X0001074197Y0002961991D01*
X0001074673Y0002963851D01*
X0001095504Y0003007329D01*
X0001096656Y0003008866D01*
X0001132540Y0003041064D01*
X0001134191Y0003042043D01*
X0001179665Y0003058057D01*
X0001181566Y0003058330D01*
X0001229707Y0003055723D01*
X0001231567Y0003055247D01*
X0001255397Y0003043830D01*
X0001262490Y0003041217D01*
X0001263150Y0003040812D01*
X0001264699Y0003039374D01*
X0001275046Y0003034416D01*
X0001276267Y0003033502D01*
X0001276583Y0003033264D01*
X0001308780Y0002997381D01*
X0001309203Y0002996667D01*
X0001309664Y0002995977D01*
X0001309691Y0002995845D01*
X0001309759Y0002995729D01*
X0001309877Y0002994908D01*
X0001310039Y0002994094D01*
X0001310039Y0002870315D01*
X0001310299Y0002869691D01*
X0001310305Y0002867771D01*
X0001717342Y0002867771D01*
X0001710036Y0002888516D01*
X0001708869Y0002890851D01*
X0001708688Y0002891408D01*
X0001708389Y0002893189D01*
X0001701784Y0002911949D01*
X0001701512Y0002913849D01*
X0001701512Y0002913849D01*
X0001704118Y0002961991D01*
X0001704594Y0002963851D01*
X0001725425Y0003007329D01*
X0001726576Y0003008866D01*
X0001762461Y0003041064D01*
X0001764112Y0003042043D01*
X0001809587Y0003058057D01*
X0001811486Y0003058330D01*
X0001859628Y0003055723D01*
X0001861489Y0003055247D01*
X0001885318Y0003043830D01*
X0001892412Y0003041217D01*
X0001893071Y0003040812D01*
X0001894620Y0003039374D01*
X0001904968Y0003034416D01*
X0001906188Y0003033502D01*
X0001906504Y0003033264D01*
X0001938702Y0002997381D01*
X0001939125Y0002996667D01*
X0001939585Y0002995977D01*
X0001939612Y0002995845D01*
X0001939681Y0002995729D01*
X0001939798Y0002994908D01*
X0001939960Y0002994094D01*
X0001939960Y0002870315D01*
X0001940221Y0002869691D01*
X0001940226Y0002867771D01*
X0002504744Y0002867771D01*
X0002497438Y0002888516D01*
X0002496270Y0002890851D01*
X0002496089Y0002891408D01*
X0002495792Y0002893189D01*
X0002489186Y0002911949D01*
X0002488913Y0002913849D01*
X0002488913Y0002913849D01*
X0002491520Y0002961991D01*
X0002491996Y0002963851D01*
X0002512827Y0003007329D01*
X0002513978Y0003008866D01*
X0002549862Y0003041064D01*
X0002551514Y0003042043D01*
X0002596988Y0003058057D01*
X0002598889Y0003058330D01*
X0002647030Y0003055723D01*
X0002648890Y0003055247D01*
X0002672719Y0003043830D01*
X0002679813Y0003041217D01*
X0002680473Y0003040812D01*
X0002682022Y0003039374D01*
X0002692369Y0003034416D01*
X0002693590Y0003033502D01*
X0002693906Y0003033264D01*
X0002726103Y0002997381D01*
X0002726526Y0002996667D01*
X0002726987Y0002995977D01*
X0002727013Y0002995845D01*
X0002727082Y0002995729D01*
X0002727200Y0002994908D01*
X0002727362Y0002994094D01*
X0002727362Y0002870315D01*
X0002727622Y0002869691D01*
X0002727628Y0002867771D01*
X0003134665Y0002867771D01*
X0003127359Y0002888516D01*
X0003126192Y0002890851D01*
X0003126009Y0002891408D01*
X0003125714Y0002893189D01*
X0003119107Y0002911949D01*
X0003118835Y0002913849D01*
X0003118835Y0002913849D01*
X0003121441Y0002961991D01*
X0003121917Y0002963851D01*
X0003142747Y0003007329D01*
X0003143900Y0003008866D01*
X0003179784Y0003041064D01*
X0003181436Y0003042043D01*
X0003226910Y0003058057D01*
X0003228810Y0003058330D01*
X0003276951Y0003055723D01*
X0003278811Y0003055247D01*
X0003302641Y0003043830D01*
X0003309735Y0003041217D01*
X0003310394Y0003040812D01*
X0003311942Y0003039374D01*
X0003322290Y0003034416D01*
X0003323511Y0003033502D01*
X0003323827Y0003033264D01*
X0003356025Y0002997381D01*
X0003356448Y0002996667D01*
X0003356908Y0002995977D01*
X0003356935Y0002995845D01*
X0003357003Y0002995729D01*
X0003357121Y0002994908D01*
X0003357283Y0002994094D01*
X0003357283Y0002870315D01*
X0003357543Y0002869691D01*
X0003357549Y0002867771D01*
X0003813976Y0002867771D01*
X0003813976Y0003078739D01*
X0003733267Y0003078739D01*
X0003728397Y0003054257D01*
X0003714529Y0003033502D01*
X0003693773Y0003019633D01*
X0003669291Y0003014763D01*
X0003644808Y0003019633D01*
X0003624053Y0003033502D01*
X0003610184Y0003054257D01*
X0003605314Y0003078739D01*
X0000213582Y0003078739D01*
X0000208712Y0003054257D01*
X0000194844Y0003033502D01*
X0000174088Y0003019633D01*
X0000149606Y0003014763D01*
X0000125123Y0003019633D01*
X0000104368Y0003033502D01*
X0000090498Y0003054257D01*
X0000085629Y0003078739D01*
X0000090498Y0003103222D01*
X0000104368Y0003123978D01*
X0000125123Y0003137846D01*
X0000149606Y0003142716D01*
X0000174088Y0003137846D01*
X0000194844Y0003123978D01*
X0000208712Y0003103222D01*
X0000213582Y0003078739D01*
X0003605314Y0003078739D01*
X0003610184Y0003103222D01*
X0003624053Y0003123978D01*
X0003644808Y0003137846D01*
X0003669291Y0003142716D01*
X0003693773Y0003137846D01*
X0003714529Y0003123978D01*
X0003728397Y0003103222D01*
X0003733267Y0003078739D01*
X0003813976Y0003078739D01*
X0003813976Y0003129436D01*
X0003806769Y0003165666D01*
X0003786521Y0003195970D01*
X0003756217Y0003216218D01*
X0003719986Y0003223425D01*
X0000098909Y0003223425D01*
X0000062679Y0003216218D01*
G04 split*
G04 #@! TF.FileFunction,Copper,L1,Top,Signal*
G04 Gerber Fmt 4.6, Leading zero omitted, Abs format (unit mm)*
G04 Created by KiCad (PCBNEW no-bzr-kicad_new3d-viewer) date 06/27/16 23:34:47*
G01G01*
G04 APERTURE LIST*
G04 APERTURE END LIST*
D49*
D50*
X-0002314877Y0004446850D02*
X0000807169Y0003442913D03*
D51*
G36*
X0000649458Y0003564751D02*
X0000662614Y0003557083D01*
X0000662646Y0003557072D01*
X0000662673Y0003557049D01*
X0000676713Y0003549026D01*
X0000677933Y0003548618D01*
X0000679123Y0003548128D01*
X0000703272Y0003543377D01*
X0000704047Y0003543379D01*
X0000704806Y0003543228D01*
X0000806386Y0003543228D01*
X0000845480Y0003535451D01*
X0000877959Y0003513750D01*
X0000899660Y0003481272D01*
X0000907279Y0003442961D01*
X0000899660Y0003404650D01*
X0000877959Y0003372172D01*
X0000845480Y0003350471D01*
X0000806629Y0003342743D01*
X0000704806Y0003342743D01*
X0000704332Y0003342648D01*
X0000703849Y0003342685D01*
X0000688755Y0003340854D01*
X0000687560Y0003340462D01*
X0000686341Y0003340161D01*
X0000664034Y0003329719D01*
X0000663969Y0003329672D01*
X0000663891Y0003329651D01*
X0000638976Y0003317376D01*
X0000623466Y0003315135D01*
X0000008033Y0003315135D01*
X0000007955Y0003570658D01*
X0000623134Y0003570658D01*
X0000649458Y0003564751D01*
X0000649458Y0003564751D01*
G37*
X0000649458Y0003564751D02*
X0000662614Y0003557083D01*
X0000662646Y0003557072D01*
X0000662673Y0003557049D01*
X0000676713Y0003549026D01*
X0000677933Y0003548618D01*
X0000679123Y0003548128D01*
X0000703272Y0003543377D01*
X0000704047Y0003543379D01*
X0000704806Y0003543228D01*
X0000806386Y0003543228D01*
X0000845480Y0003535451D01*
X0000877959Y0003513750D01*
X0000899660Y0003481272D01*
X0000907279Y0003442961D01*
X0000899660Y0003404650D01*
X0000877959Y0003372172D01*
X0000845480Y0003350471D01*
X0000806629Y0003342743D01*
X0000704806Y0003342743D01*
X0000704332Y0003342648D01*
X0000703849Y0003342685D01*
X0000688755Y0003340854D01*
X0000687560Y0003340462D01*
X0000686341Y0003340161D01*
X0000664034Y0003329719D01*
X0000663969Y0003329672D01*
X0000663891Y0003329651D01*
X0000638976Y0003317376D01*
X0000623466Y0003315135D01*
X0000008033Y0003315135D01*
X0000007955Y0003570658D01*
X0000623134Y0003570658D01*
X0000649458Y0003564751D01*
G04 split*
G04 #@! TF.FileFunction,Copper,L1,Top,Signal*
G04 Gerber Fmt 4.6, Leading zero omitted, Abs format (unit mm)*
G04 Created by KiCad (PCBNEW no-bzr-kicad_new3d-viewer) date 06/27/16 23:34:47*
G01G01G01G01*
G04 APERTURE LIST*
G04 APERTURE END LIST*
D62*
D63*
X-0002314877Y0004801180D02*
X0000807169Y0003797243D03*
D64*
G36*
X0000649458Y0003919081D02*
X0000662614Y0003911414D01*
X0000662646Y0003911402D01*
X0000662673Y0003911380D01*
X0000676713Y0003903357D01*
X0000677933Y0003902949D01*
X0000679123Y0003902459D01*
X0000703272Y0003897708D01*
X0000704047Y0003897709D01*
X0000704806Y0003897557D01*
X0000806386Y0003897557D01*
X0000845480Y0003889782D01*
X0000877959Y0003868080D01*
X0000899660Y0003835602D01*
X0000907279Y0003797292D01*
X0000899660Y0003758981D01*
X0000877959Y0003726503D01*
X0000845480Y0003704801D01*
X0000806629Y0003697073D01*
X0000704806Y0003697073D01*
X0000704332Y0003696979D01*
X0000703849Y0003697015D01*
X0000688755Y0003695183D01*
X0000687560Y0003694792D01*
X0000686341Y0003694492D01*
X0000664034Y0003684049D01*
X0000663969Y0003684002D01*
X0000663891Y0003683981D01*
X0000638976Y0003671707D01*
X0000623466Y0003669466D01*
X0000008033Y0003669466D01*
X0000007955Y0003924989D01*
X0000623134Y0003924989D01*
X0000649458Y0003919081D01*
X0000649458Y0003919081D01*
G37*
X0000649458Y0003919081D02*
X0000662614Y0003911414D01*
X0000662646Y0003911402D01*
X0000662673Y0003911380D01*
X0000676713Y0003903357D01*
X0000677933Y0003902949D01*
X0000679123Y0003902459D01*
X0000703272Y0003897708D01*
X0000704047Y0003897709D01*
X0000704806Y0003897557D01*
X0000806386Y0003897557D01*
X0000845480Y0003889782D01*
X0000877959Y0003868080D01*
X0000899660Y0003835602D01*
X0000907279Y0003797292D01*
X0000899660Y0003758981D01*
X0000877959Y0003726503D01*
X0000845480Y0003704801D01*
X0000806629Y0003697073D01*
X0000704806Y0003697073D01*
X0000704332Y0003696979D01*
X0000703849Y0003697015D01*
X0000688755Y0003695183D01*
X0000687560Y0003694792D01*
X0000686341Y0003694492D01*
X0000664034Y0003684049D01*
X0000663969Y0003684002D01*
X0000663891Y0003683981D01*
X0000638976Y0003671707D01*
X0000623466Y0003669466D01*
X0000008033Y0003669466D01*
X0000007955Y0003924989D01*
X0000623134Y0003924989D01*
X0000649458Y0003919081D01*
G04 split*
G04 #@! TF.FileFunction,Copper,L1,Top,Signal*
G04 Gerber Fmt 4.6, Leading zero omitted, Abs format (unit mm)*
G04 Created by KiCad (PCBNEW no-bzr-kicad_new3d-viewer) date 06/27/16 23:34:47*
G01G01G01G01*
G04 APERTURE LIST*
G04 APERTURE END LIST*
D75*
D76*
X-0001291255Y0004446850D02*
X0001830792Y0003442913D03*
D77*
G36*
X0001673079Y0003564751D02*
X0001686235Y0003557083D01*
X0001686268Y0003557072D01*
X0001686295Y0003557049D01*
X0001700335Y0003549026D01*
X0001701555Y0003548618D01*
X0001702746Y0003548128D01*
X0001726893Y0003543377D01*
X0001727669Y0003543379D01*
X0001728429Y0003543228D01*
X0001830008Y0003543228D01*
X0001869102Y0003535451D01*
X0001901581Y0003513750D01*
X0001923282Y0003481272D01*
X0001930902Y0003442961D01*
X0001923282Y0003404650D01*
X0001901581Y0003372172D01*
X0001869102Y0003350471D01*
X0001830251Y0003342743D01*
X0001728429Y0003342743D01*
X0001727954Y0003342648D01*
X0001727472Y0003342685D01*
X0001712377Y0003340854D01*
X0001711183Y0003340462D01*
X0001709963Y0003340161D01*
X0001687656Y0003329719D01*
X0001687591Y0003329672D01*
X0001687513Y0003329651D01*
X0001662598Y0003317376D01*
X0001647088Y0003315135D01*
X0001031655Y0003315135D01*
X0001031577Y0003570658D01*
X0001646756Y0003570658D01*
X0001673079Y0003564751D01*
X0001673079Y0003564751D01*
G37*
X0001673079Y0003564751D02*
X0001686235Y0003557083D01*
X0001686268Y0003557072D01*
X0001686295Y0003557049D01*
X0001700335Y0003549026D01*
X0001701555Y0003548618D01*
X0001702746Y0003548128D01*
X0001726893Y0003543377D01*
X0001727669Y0003543379D01*
X0001728429Y0003543228D01*
X0001830008Y0003543228D01*
X0001869102Y0003535451D01*
X0001901581Y0003513750D01*
X0001923282Y0003481272D01*
X0001930902Y0003442961D01*
X0001923282Y0003404650D01*
X0001901581Y0003372172D01*
X0001869102Y0003350471D01*
X0001830251Y0003342743D01*
X0001728429Y0003342743D01*
X0001727954Y0003342648D01*
X0001727472Y0003342685D01*
X0001712377Y0003340854D01*
X0001711183Y0003340462D01*
X0001709963Y0003340161D01*
X0001687656Y0003329719D01*
X0001687591Y0003329672D01*
X0001687513Y0003329651D01*
X0001662598Y0003317376D01*
X0001647088Y0003315135D01*
X0001031655Y0003315135D01*
X0001031577Y0003570658D01*
X0001646756Y0003570658D01*
X0001673079Y0003564751D01*
G04 split*
G04 #@! TF.FileFunction,Copper,L1,Top,Signal*
G04 Gerber Fmt 4.6, Leading zero omitted, Abs format (unit mm)*
G04 Created by KiCad (PCBNEW no-bzr-kicad_new3d-viewer) date 06/27/16 23:34:47*
G01G01G01G01G01G01G01G01*
G04 APERTURE LIST*
G04 APERTURE END LIST*
D88*
D89*
X-0001291255Y0004801180D02*
X0001830792Y0003797243D03*
D90*
G36*
X0001673079Y0003919081D02*
X0001686235Y0003911414D01*
X0001686268Y0003911402D01*
X0001686295Y0003911380D01*
X0001700335Y0003903357D01*
X0001701555Y0003902949D01*
X0001702746Y0003902459D01*
X0001726893Y0003897708D01*
X0001727669Y0003897709D01*
X0001728429Y0003897557D01*
X0001830008Y0003897557D01*
X0001869102Y0003889782D01*
X0001901581Y0003868080D01*
X0001923282Y0003835602D01*
X0001930902Y0003797292D01*
X0001923282Y0003758981D01*
X0001901581Y0003726503D01*
X0001869102Y0003704801D01*
X0001830251Y0003697073D01*
X0001728429Y0003697073D01*
X0001727954Y0003696979D01*
X0001727472Y0003697015D01*
X0001712377Y0003695183D01*
X0001711183Y0003694792D01*
X0001709963Y0003694492D01*
X0001687656Y0003684049D01*
X0001687591Y0003684002D01*
X0001687513Y0003683981D01*
X0001662598Y0003671707D01*
X0001647088Y0003669466D01*
X0001031655Y0003669466D01*
X0001031577Y0003924989D01*
X0001646756Y0003924989D01*
X0001673079Y0003919081D01*
X0001673079Y0003919081D01*
G37*
X0001673079Y0003919081D02*
X0001686235Y0003911414D01*
X0001686268Y0003911402D01*
X0001686295Y0003911380D01*
X0001700335Y0003903357D01*
X0001701555Y0003902949D01*
X0001702746Y0003902459D01*
X0001726893Y0003897708D01*
X0001727669Y0003897709D01*
X0001728429Y0003897557D01*
X0001830008Y0003897557D01*
X0001869102Y0003889782D01*
X0001901581Y0003868080D01*
X0001923282Y0003835602D01*
X0001930902Y0003797292D01*
X0001923282Y0003758981D01*
X0001901581Y0003726503D01*
X0001869102Y0003704801D01*
X0001830251Y0003697073D01*
X0001728429Y0003697073D01*
X0001727954Y0003696979D01*
X0001727472Y0003697015D01*
X0001712377Y0003695183D01*
X0001711183Y0003694792D01*
X0001709963Y0003694492D01*
X0001687656Y0003684049D01*
X0001687591Y0003684002D01*
X0001687513Y0003683981D01*
X0001662598Y0003671707D01*
X0001647088Y0003669466D01*
X0001031655Y0003669466D01*
X0001031577Y0003924989D01*
X0001646756Y0003924989D01*
X0001673079Y0003919081D01*
M02*
