%
M48
METRIC
M71
T01C3.00
T03C3.00
T05C3.00
T07C3.00
T09C0.66
T10C1.02
T11C0.50
%
T01
X020351Y087450G85X020653Y087450
T03
X020351Y096450G85X020653Y096450
T05
X046351Y087450G85X046653Y087450
T07
X046351Y096450G85X046653Y096450
T09
X056592Y089769
X056592Y088499
X056592Y087229
X056592Y085959
X056592Y084689
X057862Y089769
X057862Y088499
X057862Y087229
X057862Y085959
X057862Y084689
T10
X053481Y095898
X053481Y093358
X053481Y090818
X053481Y088278
X053481Y085738
X061101Y095898
X061101Y093358
X061101Y090818
X061101Y088278
X061101Y085738
T11
X079130Y040250
X078130Y040250
X077130Y040250
X076130Y040250
X075130Y040250
X074130Y040250
X074238Y041750
X075238Y041750
X076238Y041750
X077238Y041750
X078238Y041750
X079238Y041750
X022130Y040250
X021130Y040250
X020130Y040250
X019130Y040250
X018130Y040250
X017130Y040250
X017238Y041750
X018238Y041750
X019238Y041750
X020238Y041750
X021238Y041750
X022238Y041750
X010130Y082250
X009130Y082250
X008130Y082250
X007130Y082250
X006130Y082250
X005130Y082250
X006002Y083752
X007002Y083752
X008002Y083752
X009002Y083752
X010002Y083752
X010717Y091146
X009717Y091146
X008717Y091146
X007717Y091146
X006717Y091146
X005717Y091146
X006002Y092752
X007002Y092752
X008002Y092752
X009002Y092752
X010002Y092752
X039130Y082250
X038130Y082250
X037130Y082250
X036130Y082250
X035130Y082250
X034130Y082250
X035002Y083752
X036002Y083752
X037002Y083752
X038002Y083752
X039002Y083752
X039717Y091146
X038717Y091146
X037717Y091146
X036717Y091146
X035717Y091146
X034717Y091146
X035002Y092752
X036002Y092752
X037002Y092752
X038002Y092752
X039002Y092752
X051130Y040250
X050130Y040250
X049130Y040250
X048130Y040250
X047130Y040250
X046130Y040250
X046238Y041750
X047238Y041750
X048238Y041750
X049238Y041750
X050238Y041750
X051238Y041750
X059130Y082250
X058130Y082250
X057130Y082250
X056130Y082250
X055130Y082250
X054130Y082250
X054502Y083854
X055494Y083749
X056494Y083749
X057494Y083749
X058494Y083749
M30
