%MOIN*%
%OFA0B0*%
%FSLAX46Y46*%
%IPPOS*%
%LPD*%
%ADD10C,0.0039370078740157488*%
%ADD11C,0.01968503937007874*%
%ADD22C,0.0039370078740157488*%
%ADD23C,0.01968503937007874*%
%ADD34C,0.0039370078740157488*%
%ADD35C,0.005905511811023622*%
%ADD36C,0.011811023622047244*%
%ADD47C,0.0039370078740157488*%
%ADD48C,0.011811023622047244*%
%ADD49C,0.015748031496062995*%
%ADD60C,0.0039370078740157488*%
%ADD61C,0.01968503937007874*%
%ADD72C,0.0039370078740157488*%
%ADD73C,0.01968503937007874*%
%LPD*%
G04 #@! TF.FileFunction,Legend,Top*
G04 Gerber Fmt 4.6, Leading zero omitted, Abs format (unit mm)*
G04 Created by KiCad (PCBNEW no-bzr-kicad_new3d-viewer) date 06/27/16 23:34:47*
G01*
G04 APERTURE LIST*
G04 APERTURE END LIST*
D10*
D11*
X0001208276Y0003462410D02*
X0001223274Y0003462410D01*
X0001230773Y0003466159D01*
X0001234522Y0003469909D01*
X0001242021Y0003481158D01*
X0001245771Y0003496156D01*
X0001245771Y0003526152D01*
X0001242021Y0003533651D01*
X0001238272Y0003537401D01*
X0001230773Y0003541149D01*
X0001215775Y0003541149D01*
X0001208276Y0003537401D01*
X0001204526Y0003533651D01*
X0001200777Y0003526152D01*
X0001200777Y0003507405D01*
X0001204526Y0003499906D01*
X0001208276Y0003496156D01*
X0001215775Y0003492407D01*
X0001230773Y0003492407D01*
X0001238272Y0003496156D01*
X0001242021Y0003499906D01*
X0001245771Y0003507405D01*
X0001272017Y0003541149D02*
X0001324511Y0003541149D01*
X0001290765Y0003462410D01*
X0001414500Y0003462410D02*
X0001414500Y0003514903D01*
X0001414500Y0003507405D02*
X0001418249Y0003511154D01*
X0001425748Y0003514903D01*
X0001436997Y0003514903D01*
X0001444496Y0003511154D01*
X0001448245Y0003503655D01*
X0001448245Y0003462410D01*
X0001448245Y0003503655D02*
X0001451995Y0003511154D01*
X0001459493Y0003514903D01*
X0001470743Y0003514903D01*
X0001478242Y0003511154D01*
X0001481991Y0003503655D01*
X0001481991Y0003462410D01*
X0001519487Y0003462410D02*
X0001519487Y0003514903D01*
X0001519487Y0003507405D02*
X0001523235Y0003511154D01*
X0001530735Y0003514903D01*
X0001541984Y0003514903D01*
X0001549483Y0003511154D01*
X0001553232Y0003503655D01*
X0001553232Y0003462410D01*
X0001553232Y0003503655D02*
X0001556982Y0003511154D01*
X0001564481Y0003514903D01*
X0001575730Y0003514903D01*
X0001583229Y0003511154D01*
X0001586978Y0003503655D01*
X0001586978Y0003462410D01*
X0001242959Y0003353955D02*
X0001235460Y0003350206D01*
X0001220462Y0003350206D01*
X0001212962Y0003353955D01*
X0001209213Y0003361454D01*
X0001209213Y0003391450D01*
X0001212962Y0003398950D01*
X0001220462Y0003402699D01*
X0001235460Y0003402699D01*
X0001242959Y0003398950D01*
X0001246708Y0003391450D01*
X0001246708Y0003383951D01*
X0001209213Y0003376452D01*
X0001280454Y0003402699D02*
X0001280454Y0003350206D01*
X0001280454Y0003395200D02*
X0001284204Y0003398950D01*
X0001291703Y0003402699D01*
X0001302951Y0003402699D01*
X0001310450Y0003398950D01*
X0001314200Y0003391450D01*
X0001314200Y0003350206D01*
X0001385441Y0003353955D02*
X0001377942Y0003350206D01*
X0001362944Y0003350206D01*
X0001355445Y0003353955D01*
X0001351695Y0003357705D01*
X0001347946Y0003365204D01*
X0001347946Y0003387701D01*
X0001351695Y0003395200D01*
X0001355445Y0003398950D01*
X0001362944Y0003402699D01*
X0001377942Y0003402699D01*
X0001385441Y0003398950D01*
X0001430435Y0003350206D02*
X0001422936Y0003353955D01*
X0001419187Y0003361454D01*
X0001419187Y0003428946D01*
X0001460431Y0003357705D02*
X0001464181Y0003353955D01*
X0001460431Y0003350206D01*
X0001456682Y0003353955D01*
X0001460431Y0003357705D01*
X0001460431Y0003350206D01*
G04 split*
G04 #@! TF.FileFunction,Legend,Top*
G04 Gerber Fmt 4.6, Leading zero omitted, Abs format (unit mm)*
G04 Created by KiCad (PCBNEW no-bzr-kicad_new3d-viewer) date 06/27/16 23:34:47*
G01G01*
G04 APERTURE LIST*
G04 APERTURE END LIST*
D22*
D23*
X0001208276Y0003816741D02*
X0001223274Y0003816741D01*
X0001230773Y0003820491D01*
X0001234522Y0003824240D01*
X0001242021Y0003835489D01*
X0001245771Y0003850487D01*
X0001245771Y0003880483D01*
X0001242021Y0003887982D01*
X0001238272Y0003891732D01*
X0001230773Y0003895481D01*
X0001215775Y0003895481D01*
X0001208276Y0003891732D01*
X0001204526Y0003887982D01*
X0001200777Y0003880483D01*
X0001200777Y0003861735D01*
X0001204526Y0003854236D01*
X0001208276Y0003850487D01*
X0001215775Y0003846737D01*
X0001230773Y0003846737D01*
X0001238272Y0003850487D01*
X0001242021Y0003854236D01*
X0001245771Y0003861735D01*
X0001272017Y0003895481D02*
X0001324511Y0003895481D01*
X0001290765Y0003816741D01*
X0001414500Y0003816741D02*
X0001414500Y0003869234D01*
X0001414500Y0003861735D02*
X0001418249Y0003865485D01*
X0001425748Y0003869234D01*
X0001436997Y0003869234D01*
X0001444496Y0003865485D01*
X0001448245Y0003857986D01*
X0001448245Y0003816741D01*
X0001448245Y0003857986D02*
X0001451995Y0003865485D01*
X0001459493Y0003869234D01*
X0001470743Y0003869234D01*
X0001478242Y0003865485D01*
X0001481991Y0003857986D01*
X0001481991Y0003816741D01*
X0001519487Y0003816741D02*
X0001519487Y0003869234D01*
X0001519487Y0003861735D02*
X0001523235Y0003865485D01*
X0001530735Y0003869234D01*
X0001541984Y0003869234D01*
X0001549483Y0003865485D01*
X0001553232Y0003857986D01*
X0001553232Y0003816741D01*
X0001553232Y0003857986D02*
X0001556982Y0003865485D01*
X0001564481Y0003869234D01*
X0001575730Y0003869234D01*
X0001583229Y0003865485D01*
X0001586978Y0003857986D01*
X0001586978Y0003816741D01*
X0001242959Y0003708286D02*
X0001235460Y0003704535D01*
X0001220462Y0003704535D01*
X0001212962Y0003708286D01*
X0001209213Y0003715785D01*
X0001209213Y0003745781D01*
X0001212962Y0003753279D01*
X0001220462Y0003757029D01*
X0001235460Y0003757029D01*
X0001242959Y0003753279D01*
X0001246708Y0003745781D01*
X0001246708Y0003738282D01*
X0001209213Y0003730783D01*
X0001280454Y0003757029D02*
X0001280454Y0003704535D01*
X0001280454Y0003749531D02*
X0001284204Y0003753279D01*
X0001291703Y0003757029D01*
X0001302951Y0003757029D01*
X0001310450Y0003753279D01*
X0001314200Y0003745781D01*
X0001314200Y0003704535D01*
X0001385441Y0003708286D02*
X0001377942Y0003704535D01*
X0001362944Y0003704535D01*
X0001355445Y0003708286D01*
X0001351695Y0003712035D01*
X0001347946Y0003719534D01*
X0001347946Y0003742032D01*
X0001351695Y0003749531D01*
X0001355445Y0003753279D01*
X0001362944Y0003757029D01*
X0001377942Y0003757029D01*
X0001385441Y0003753279D01*
X0001430435Y0003704535D02*
X0001422936Y0003708286D01*
X0001419187Y0003715785D01*
X0001419187Y0003783275D01*
X0001460431Y0003712035D02*
X0001464181Y0003708286D01*
X0001460431Y0003704535D01*
X0001456682Y0003708286D01*
X0001460431Y0003712035D01*
X0001460431Y0003704535D01*
G04 split*
G04 #@! TF.FileFunction,Legend,Top*
G04 Gerber Fmt 4.6, Leading zero omitted, Abs format (unit mm)*
G04 Created by KiCad (PCBNEW no-bzr-kicad_new3d-viewer) date 06/27/16 23:25:45*
G01G01*
G04 APERTURE LIST*
G04 APERTURE END LIST*
D34*
D35*
X0001319037Y0000652338D02*
X0001319037Y0000353127D01*
X0001114313Y0000652338D02*
X0001319037Y0000652338D01*
X0001114313Y0000353127D02*
X0001114313Y0000652338D01*
X0001319037Y0000353127D02*
X0001114313Y0000353127D01*
X0002165494Y0000431867D02*
X0002165494Y0000258637D01*
X0002224549Y0000431867D02*
X0002165494Y0000431867D01*
X0002224549Y0000577536D02*
X0002224549Y0000431867D01*
X0001633998Y0000577536D02*
X0002224549Y0000577536D01*
X0001633998Y0000431867D02*
X0001633998Y0000577536D01*
X0001673368Y0000431867D02*
X0001633998Y0000431867D01*
X0001673368Y0000258637D02*
X0001673368Y0000431867D01*
X0002165494Y0000258637D02*
X0001673368Y0000258637D01*
D36*
X0001989876Y0000118953D02*
X0002001124Y0000118953D01*
X0002006749Y0000121765D01*
X0002009561Y0000124578D01*
X0002015184Y0000133014D01*
X0002017996Y0000144263D01*
X0002017996Y0000166760D01*
X0002015184Y0000172384D01*
X0002012373Y0000175195D01*
X0002006749Y0000178009D01*
X0001995500Y0000178009D01*
X0001989876Y0000175195D01*
X0001987064Y0000172384D01*
X0001984251Y0000166760D01*
X0001984251Y0000152699D01*
X0001987064Y0000147075D01*
X0001989876Y0000144263D01*
X0001995500Y0000141451D01*
X0002006749Y0000141451D01*
X0002012373Y0000144263D01*
X0002015184Y0000147075D01*
X0002017996Y0000152699D01*
X0002037682Y0000178009D02*
X0002077052Y0000178009D01*
X0002051743Y0000118953D01*
X0002093925Y0000118953D02*
X0002124859Y0000158324D01*
X0002093925Y0000158324D02*
X0002124859Y0000118953D01*
X0002172665Y0000158324D02*
X0002172665Y0000118953D01*
X0002158605Y0000180821D02*
X0002144544Y0000138639D01*
X0002181102Y0000138639D01*
X0002214848Y0000178009D02*
X0002220472Y0000178009D01*
X0002226096Y0000175195D01*
X0002228908Y0000172384D01*
X0002231720Y0000166760D01*
X0002234533Y0000155511D01*
X0002234533Y0000141451D01*
X0002231720Y0000130202D01*
X0002228908Y0000124578D01*
X0002226096Y0000121765D01*
X0002220472Y0000118953D01*
X0002214848Y0000118953D01*
X0002209223Y0000121765D01*
X0002206411Y0000124578D01*
X0002203599Y0000130202D01*
X0002200787Y0000141451D01*
X0002200787Y0000155511D01*
X0002203599Y0000166760D01*
X0002206411Y0000172384D01*
X0002209223Y0000175195D01*
X0002214848Y0000178009D01*
X0002254218Y0000118953D02*
X0002285151Y0000158324D01*
X0002254218Y0000158324D02*
X0002285151Y0000118953D01*
X0002338582Y0000118953D02*
X0002304836Y0000118953D01*
X0002321709Y0000118953D02*
X0002321709Y0000178009D01*
X0002316085Y0000169572D01*
X0002310461Y0000163948D01*
X0002304836Y0000161136D01*
X0002375140Y0000178009D02*
X0002380764Y0000178009D01*
X0002386389Y0000175195D01*
X0002389201Y0000172384D01*
X0002392013Y0000166760D01*
X0002394825Y0000155511D01*
X0002394825Y0000141451D01*
X0002392013Y0000130202D01*
X0002389201Y0000124578D01*
X0002386389Y0000121765D01*
X0002380764Y0000118953D01*
X0002375140Y0000118953D01*
X0002369516Y0000121765D01*
X0002366704Y0000124578D01*
X0002363891Y0000130202D01*
X0002361079Y0000141451D01*
X0002361079Y0000155511D01*
X0002363891Y0000166760D01*
X0002366704Y0000172384D01*
X0002369516Y0000175195D01*
X0002375140Y0000178009D01*
X0002431383Y0000178009D02*
X0002437007Y0000178009D01*
X0002442632Y0000175195D01*
X0002445444Y0000172384D01*
X0002448256Y0000166760D01*
X0002451068Y0000155511D01*
X0002451068Y0000141451D01*
X0002448256Y0000130202D01*
X0002445444Y0000124578D01*
X0002442632Y0000121765D01*
X0002437007Y0000118953D01*
X0002431383Y0000118953D01*
X0002425759Y0000121765D01*
X0002422947Y0000124578D01*
X0002420134Y0000130202D01*
X0002417322Y0000141451D01*
X0002417322Y0000155511D01*
X0002420134Y0000166760D01*
X0002422947Y0000172384D01*
X0002425759Y0000175195D01*
X0002431383Y0000178009D01*
X0002543869Y0000121765D02*
X0002538245Y0000118953D01*
X0002526996Y0000118953D01*
X0002521372Y0000121765D01*
X0002518560Y0000127390D01*
X0002518560Y0000149887D01*
X0002521372Y0000155511D01*
X0002526996Y0000158324D01*
X0002538245Y0000158324D01*
X0002543869Y0000155511D01*
X0002546681Y0000149887D01*
X0002546681Y0000144263D01*
X0002518560Y0000138639D01*
X0002571990Y0000158324D02*
X0002571990Y0000118953D01*
X0002571990Y0000152699D02*
X0002574803Y0000155511D01*
X0002580427Y0000158324D01*
X0002588863Y0000158324D01*
X0002594488Y0000155511D01*
X0002597300Y0000149887D01*
X0002597300Y0000118953D01*
X0002650731Y0000121765D02*
X0002645106Y0000118953D01*
X0002633858Y0000118953D01*
X0002628233Y0000121765D01*
X0002625421Y0000124578D01*
X0002622609Y0000130202D01*
X0002622609Y0000147075D01*
X0002625421Y0000152699D01*
X0002628233Y0000155511D01*
X0002633858Y0000158324D01*
X0002645106Y0000158324D01*
X0002650731Y0000155511D01*
X0002684476Y0000118953D02*
X0002678852Y0000121765D01*
X0002676040Y0000127390D01*
X0002676040Y0000178009D01*
X0002715410Y0000118953D02*
X0002709786Y0000121765D01*
X0002706974Y0000124578D01*
X0002704161Y0000130202D01*
X0002704161Y0000147075D01*
X0002706974Y0000152699D01*
X0002709786Y0000155511D01*
X0002715410Y0000158324D01*
X0002723845Y0000158324D01*
X0002729471Y0000155511D01*
X0002732283Y0000152699D01*
X0002735095Y0000147075D01*
X0002735095Y0000130202D01*
X0002732283Y0000124578D01*
X0002729471Y0000121765D01*
X0002723845Y0000118953D01*
X0002715410Y0000118953D01*
X0002757592Y0000121765D02*
X0002763217Y0000118953D01*
X0002774465Y0000118953D01*
X0002780089Y0000121765D01*
X0002782902Y0000127390D01*
X0002782902Y0000130202D01*
X0002780089Y0000135826D01*
X0002774465Y0000138639D01*
X0002766029Y0000138639D01*
X0002760404Y0000141451D01*
X0002757592Y0000147075D01*
X0002757592Y0000149887D01*
X0002760404Y0000155511D01*
X0002766029Y0000158324D01*
X0002774465Y0000158324D01*
X0002780089Y0000155511D01*
X0002833520Y0000158324D02*
X0002833520Y0000118953D01*
X0002808211Y0000158324D02*
X0002808211Y0000127390D01*
X0002811022Y0000121765D01*
X0002816647Y0000118953D01*
X0002825084Y0000118953D01*
X0002830708Y0000121765D01*
X0002833520Y0000124578D01*
X0002861642Y0000118953D02*
X0002861642Y0000158324D01*
X0002861642Y0000147075D02*
X0002864454Y0000152699D01*
X0002867266Y0000155511D01*
X0002872889Y0000158324D01*
X0002878515Y0000158324D01*
X0002920697Y0000121765D02*
X0002915073Y0000118953D01*
X0002903824Y0000118953D01*
X0002898200Y0000121765D01*
X0002895387Y0000127390D01*
X0002895387Y0000149887D01*
X0002898200Y0000155511D01*
X0002903824Y0000158324D01*
X0002915073Y0000158324D01*
X0002920697Y0000155511D01*
X0002923509Y0000149887D01*
X0002923509Y0000144263D01*
X0002895387Y0000138639D01*
X0002991001Y0000121765D02*
X0002996625Y0000118953D01*
X0003007873Y0000118953D01*
X0003013498Y0000121765D01*
X0003016310Y0000127390D01*
X0003016310Y0000130202D01*
X0003013498Y0000135826D01*
X0003007873Y0000138639D01*
X0002999437Y0000138639D01*
X0002993813Y0000141451D01*
X0002991001Y0000147075D01*
X0002991001Y0000149887D01*
X0002993813Y0000155511D01*
X0002999437Y0000158324D01*
X0003007873Y0000158324D01*
X0003013498Y0000155511D01*
X0003041619Y0000158324D02*
X0003041619Y0000099268D01*
X0003041619Y0000155511D02*
X0003047244Y0000158324D01*
X0003058492Y0000158324D01*
X0003064116Y0000155511D01*
X0003066929Y0000152699D01*
X0003069741Y0000147075D01*
X0003069741Y0000130202D01*
X0003066929Y0000124578D01*
X0003064116Y0000121765D01*
X0003058492Y0000118953D01*
X0003047244Y0000118953D01*
X0003041619Y0000121765D01*
X0003103487Y0000118953D02*
X0003097862Y0000121765D01*
X0003095049Y0000127390D01*
X0003095049Y0000178009D01*
X0003125984Y0000118953D02*
X0003125984Y0000158324D01*
X0003125984Y0000178009D02*
X0003123171Y0000175195D01*
X0003125984Y0000172384D01*
X0003128796Y0000175195D01*
X0003125984Y0000178009D01*
X0003125984Y0000172384D01*
X0003145669Y0000158324D02*
X0003168166Y0000158324D01*
X0003154105Y0000178009D02*
X0003154105Y0000127390D01*
X0003156917Y0000121765D01*
X0003162542Y0000118953D01*
X0003168166Y0000118953D01*
X0003230033Y0000121765D02*
X0003235657Y0000118953D01*
X0003246905Y0000118953D01*
X0003252530Y0000121765D01*
X0003255343Y0000127390D01*
X0003255343Y0000130202D01*
X0003252530Y0000135826D01*
X0003246905Y0000138639D01*
X0003238470Y0000138639D01*
X0003232844Y0000141451D01*
X0003230033Y0000147075D01*
X0003230033Y0000149887D01*
X0003232844Y0000155511D01*
X0003238470Y0000158324D01*
X0003246905Y0000158324D01*
X0003252530Y0000155511D01*
X0003280652Y0000118953D02*
X0003280652Y0000178009D01*
X0003305961Y0000118953D02*
X0003305961Y0000149887D01*
X0003303149Y0000155511D01*
X0003297525Y0000158324D01*
X0003289088Y0000158324D01*
X0003283464Y0000155511D01*
X0003280652Y0000152699D01*
X0003356580Y0000121765D02*
X0003350956Y0000118953D01*
X0003339707Y0000118953D01*
X0003334083Y0000121765D01*
X0003331270Y0000127390D01*
X0003331270Y0000149887D01*
X0003334083Y0000155511D01*
X0003339707Y0000158324D01*
X0003350956Y0000158324D01*
X0003356580Y0000155511D01*
X0003359392Y0000149887D01*
X0003359392Y0000144263D01*
X0003331270Y0000138639D01*
X0003393138Y0000118953D02*
X0003387514Y0000121765D01*
X0003384701Y0000127390D01*
X0003384701Y0000178009D01*
X0003424071Y0000118953D02*
X0003418447Y0000121765D01*
X0003415635Y0000127390D01*
X0003415635Y0000178009D01*
D35*
X0000212598Y0000149606D02*
G75*
G03G03X0005399999Y0003800002I-0001600000J0000000000D01X0005399999Y0003800002I-0001600000J0000000000D01*
G01G01*
X0000098425Y0000000000D02*
G75*
G02G02X0000000000Y0002500002I0000000000J0002500000D01X0000000000Y0002500002I0000000000J0002500000D01*
G01G01*
X0003724409Y0000149606D02*
G75*
G03G03X0094599999Y0003800002I-0001400000J0000000000D01X0094599999Y0003800002I-0001400000J0000000000D01*
G01G01*
X0003818897Y0000098425D02*
G75*
G02G02X0094499999Y0000000002I-0002500000J0000000000D01X0094499999Y0000000002I-0002500000J0000000000D01*
G01G01*
X0003732283Y0001425196D02*
G75*
G03G03X0094799999Y0036200002I-0001600000J0000000000D01X0094799999Y0036200002I-0001600000J0000000000D01*
G01G01*
X0003720472Y0001574803D02*
G75*
G02G02X0096999999Y0037500002I0000000000J-0002500000D01X0096999999Y0037500002I0000000000J-0002500000D01*
G01G01*
X0000000000Y0001476378D02*
G75*
G02G02X0002499999Y0040000002I0002500000J0000000000D01X0002499999Y0040000002I0002500000J0000000000D01*
G01G01*
X0000204724Y0001425196D02*
G75*
G03G03X0005199999Y0036200002I-0001400000J0000000000D01X0005199999Y0036200002I-0001400000J0000000000D01*
G01G01*
X0000000000Y0001476378D02*
X0000000000Y0000098425D01*
X0003818897Y0000098425D02*
X0003818897Y0001476378D01*
X0003720472Y0000000000D02*
X0000098425Y0000000000D01*
X0003720472Y0001574803D02*
X0000098425Y0001574803D01*
X0003352720Y0000585253D02*
G75*
G02G02X0085149999Y0018050002I-0002709089J0001584562D01X0085149999Y0018050002I-0002709089J0001584562D01*
G01G01*
X0003352362Y0000710630D02*
X0003352362Y0000584645D01*
G04 split*
G04 #@! TF.FileFunction,Legend,Top*
G04 Gerber Fmt 4.6, Leading zero omitted, Abs format (unit mm)*
G04 Created by KiCad (PCBNEW no-bzr-kicad_new3d-viewer) date 06/27/16 23:32:51*
G01G01G01G01*
G04 APERTURE LIST*
G04 APERTURE END LIST*
D47*
D48*
X0001989876Y0001772496D02*
X0002001124Y0001772496D01*
X0002006749Y0001775309D01*
X0002009561Y0001778121D01*
X0002015184Y0001786556D01*
X0002017996Y0001797805D01*
X0002017996Y0001820303D01*
X0002015184Y0001825928D01*
X0002012373Y0001828740D01*
X0002006749Y0001831552D01*
X0001995500Y0001831552D01*
X0001989876Y0001828740D01*
X0001987064Y0001825928D01*
X0001984251Y0001820303D01*
X0001984251Y0001806243D01*
X0001987064Y0001800618D01*
X0001989876Y0001797805D01*
X0001995500Y0001794994D01*
X0002006749Y0001794994D01*
X0002012373Y0001797805D01*
X0002015184Y0001800618D01*
X0002017996Y0001806243D01*
X0002037682Y0001831552D02*
X0002077052Y0001831552D01*
X0002051743Y0001772496D01*
X0002093925Y0001772496D02*
X0002124859Y0001811865D01*
X0002093925Y0001811865D02*
X0002124859Y0001772496D01*
X0002172665Y0001811865D02*
X0002172665Y0001772496D01*
X0002158605Y0001834363D02*
X0002144544Y0001792182D01*
X0002181102Y0001792182D01*
X0002214848Y0001831552D02*
X0002220472Y0001831552D01*
X0002226096Y0001828740D01*
X0002228908Y0001825928D01*
X0002231720Y0001820303D01*
X0002234533Y0001809054D01*
X0002234533Y0001794994D01*
X0002231720Y0001783745D01*
X0002228908Y0001778121D01*
X0002226096Y0001775309D01*
X0002220472Y0001772496D01*
X0002214848Y0001772496D01*
X0002209223Y0001775309D01*
X0002206411Y0001778121D01*
X0002203599Y0001783745D01*
X0002200787Y0001794994D01*
X0002200787Y0001809054D01*
X0002203599Y0001820303D01*
X0002206411Y0001825928D01*
X0002209223Y0001828740D01*
X0002214848Y0001831552D01*
X0002254218Y0001772496D02*
X0002285151Y0001811865D01*
X0002254218Y0001811865D02*
X0002285151Y0001772496D01*
X0002338582Y0001772496D02*
X0002304836Y0001772496D01*
X0002321709Y0001772496D02*
X0002321709Y0001831552D01*
X0002316085Y0001823114D01*
X0002310461Y0001817491D01*
X0002304836Y0001814679D01*
X0002375140Y0001831552D02*
X0002380764Y0001831552D01*
X0002386389Y0001828740D01*
X0002389201Y0001825928D01*
X0002392013Y0001820303D01*
X0002394825Y0001809054D01*
X0002394825Y0001794994D01*
X0002392013Y0001783745D01*
X0002389201Y0001778121D01*
X0002386389Y0001775309D01*
X0002380764Y0001772496D01*
X0002375140Y0001772496D01*
X0002369516Y0001775309D01*
X0002366704Y0001778121D01*
X0002363891Y0001783745D01*
X0002361079Y0001794994D01*
X0002361079Y0001809054D01*
X0002363891Y0001820303D01*
X0002366704Y0001825928D01*
X0002369516Y0001828740D01*
X0002375140Y0001831552D01*
X0002431383Y0001831552D02*
X0002437007Y0001831552D01*
X0002442632Y0001828740D01*
X0002445444Y0001825928D01*
X0002448256Y0001820303D01*
X0002451068Y0001809054D01*
X0002451068Y0001794994D01*
X0002448256Y0001783745D01*
X0002445444Y0001778121D01*
X0002442632Y0001775309D01*
X0002437007Y0001772496D01*
X0002431383Y0001772496D01*
X0002425759Y0001775309D01*
X0002422947Y0001778121D01*
X0002420134Y0001783745D01*
X0002417322Y0001794994D01*
X0002417322Y0001809054D01*
X0002420134Y0001820303D01*
X0002422947Y0001825928D01*
X0002425759Y0001828740D01*
X0002431383Y0001831552D01*
X0002543869Y0001775309D02*
X0002538245Y0001772496D01*
X0002526996Y0001772496D01*
X0002521372Y0001775309D01*
X0002518560Y0001780933D01*
X0002518560Y0001803430D01*
X0002521372Y0001809054D01*
X0002526996Y0001811865D01*
X0002538245Y0001811865D01*
X0002543869Y0001809054D01*
X0002546681Y0001803430D01*
X0002546681Y0001797805D01*
X0002518560Y0001792182D01*
X0002571990Y0001811865D02*
X0002571990Y0001772496D01*
X0002571990Y0001806243D02*
X0002574803Y0001809054D01*
X0002580427Y0001811865D01*
X0002588863Y0001811865D01*
X0002594488Y0001809054D01*
X0002597300Y0001803430D01*
X0002597300Y0001772496D01*
X0002650731Y0001775309D02*
X0002645106Y0001772496D01*
X0002633858Y0001772496D01*
X0002628233Y0001775309D01*
X0002625421Y0001778121D01*
X0002622609Y0001783745D01*
X0002622609Y0001800618D01*
X0002625421Y0001806243D01*
X0002628233Y0001809054D01*
X0002633858Y0001811865D01*
X0002645106Y0001811865D01*
X0002650731Y0001809054D01*
X0002684476Y0001772496D02*
X0002678852Y0001775309D01*
X0002676040Y0001780933D01*
X0002676040Y0001831552D01*
X0002715410Y0001772496D02*
X0002709786Y0001775309D01*
X0002706974Y0001778121D01*
X0002704161Y0001783745D01*
X0002704161Y0001800618D01*
X0002706974Y0001806243D01*
X0002709786Y0001809054D01*
X0002715410Y0001811865D01*
X0002723845Y0001811865D01*
X0002729471Y0001809054D01*
X0002732283Y0001806243D01*
X0002735095Y0001800618D01*
X0002735095Y0001783745D01*
X0002732283Y0001778121D01*
X0002729471Y0001775309D01*
X0002723845Y0001772496D01*
X0002715410Y0001772496D01*
X0002757592Y0001775309D02*
X0002763217Y0001772496D01*
X0002774465Y0001772496D01*
X0002780089Y0001775309D01*
X0002782902Y0001780933D01*
X0002782902Y0001783745D01*
X0002780089Y0001789370D01*
X0002774465Y0001792182D01*
X0002766029Y0001792182D01*
X0002760404Y0001794994D01*
X0002757592Y0001800618D01*
X0002757592Y0001803430D01*
X0002760404Y0001809054D01*
X0002766029Y0001811865D01*
X0002774465Y0001811865D01*
X0002780089Y0001809054D01*
X0002833520Y0001811865D02*
X0002833520Y0001772496D01*
X0002808211Y0001811865D02*
X0002808211Y0001780933D01*
X0002811022Y0001775309D01*
X0002816647Y0001772496D01*
X0002825084Y0001772496D01*
X0002830708Y0001775309D01*
X0002833520Y0001778121D01*
X0002861642Y0001772496D02*
X0002861642Y0001811865D01*
X0002861642Y0001800618D02*
X0002864454Y0001806243D01*
X0002867266Y0001809054D01*
X0002872889Y0001811865D01*
X0002878515Y0001811865D01*
X0002920697Y0001775309D02*
X0002915073Y0001772496D01*
X0002903824Y0001772496D01*
X0002898200Y0001775309D01*
X0002895387Y0001780933D01*
X0002895387Y0001803430D01*
X0002898200Y0001809054D01*
X0002903824Y0001811865D01*
X0002915073Y0001811865D01*
X0002920697Y0001809054D01*
X0002923509Y0001803430D01*
X0002923509Y0001797805D01*
X0002895387Y0001792182D01*
X0002991001Y0001775309D02*
X0002996625Y0001772496D01*
X0003007873Y0001772496D01*
X0003013498Y0001775309D01*
X0003016310Y0001780933D01*
X0003016310Y0001783745D01*
X0003013498Y0001789370D01*
X0003007873Y0001792182D01*
X0002999437Y0001792182D01*
X0002993813Y0001794994D01*
X0002991001Y0001800618D01*
X0002991001Y0001803430D01*
X0002993813Y0001809054D01*
X0002999437Y0001811865D01*
X0003007873Y0001811865D01*
X0003013498Y0001809054D01*
X0003041619Y0001811865D02*
X0003041619Y0001752812D01*
X0003041619Y0001809054D02*
X0003047243Y0001811865D01*
X0003058492Y0001811865D01*
X0003064116Y0001809054D01*
X0003066929Y0001806243D01*
X0003069741Y0001800618D01*
X0003069741Y0001783745D01*
X0003066929Y0001778121D01*
X0003064116Y0001775309D01*
X0003058492Y0001772496D01*
X0003047243Y0001772496D01*
X0003041619Y0001775309D01*
X0003103486Y0001772496D02*
X0003097862Y0001775309D01*
X0003095049Y0001780933D01*
X0003095049Y0001831552D01*
X0003125984Y0001772496D02*
X0003125984Y0001811865D01*
X0003125984Y0001831552D02*
X0003123171Y0001828740D01*
X0003125984Y0001825928D01*
X0003128796Y0001828740D01*
X0003125984Y0001831552D01*
X0003125984Y0001825928D01*
X0003145669Y0001811865D02*
X0003168166Y0001811865D01*
X0003154105Y0001831552D02*
X0003154105Y0001780933D01*
X0003156917Y0001775309D01*
X0003162542Y0001772496D01*
X0003168166Y0001772496D01*
X0003230033Y0001775309D02*
X0003235657Y0001772496D01*
X0003246905Y0001772496D01*
X0003252530Y0001775309D01*
X0003255342Y0001780933D01*
X0003255342Y0001783745D01*
X0003252530Y0001789370D01*
X0003246905Y0001792182D01*
X0003238470Y0001792182D01*
X0003232844Y0001794994D01*
X0003230033Y0001800618D01*
X0003230033Y0001803430D01*
X0003232844Y0001809054D01*
X0003238470Y0001811865D01*
X0003246905Y0001811865D01*
X0003252530Y0001809054D01*
X0003280652Y0001772496D02*
X0003280652Y0001831552D01*
X0003305961Y0001772496D02*
X0003305961Y0001803430D01*
X0003303149Y0001809054D01*
X0003297525Y0001811865D01*
X0003289088Y0001811865D01*
X0003283464Y0001809054D01*
X0003280652Y0001806243D01*
X0003356580Y0001775309D02*
X0003350956Y0001772496D01*
X0003339707Y0001772496D01*
X0003334083Y0001775309D01*
X0003331270Y0001780933D01*
X0003331270Y0001803430D01*
X0003334083Y0001809054D01*
X0003339707Y0001811865D01*
X0003350956Y0001811865D01*
X0003356580Y0001809054D01*
X0003359392Y0001803430D01*
X0003359392Y0001797805D01*
X0003331270Y0001792182D01*
X0003393138Y0001772496D02*
X0003387513Y0001775309D01*
X0003384701Y0001780933D01*
X0003384701Y0001831552D01*
X0003424071Y0001772496D02*
X0003418447Y0001775309D01*
X0003415635Y0001780933D01*
X0003415635Y0001831552D01*
D49*
X0002912917Y0002151293D02*
X0002936914Y0002151293D01*
X0002921915Y0002172291D02*
X0002921915Y0002118297D01*
X0002924915Y0002112298D01*
X0002930914Y0002109298D01*
X0002936914Y0002109298D01*
X0002951912Y0002109298D02*
X0002984908Y0002151293D01*
X0002951912Y0002151293D02*
X0002984908Y0002109298D01*
X0003005904Y0002166291D02*
X0003008905Y0002169291D01*
X0003014904Y0002172291D01*
X0003029902Y0002172291D01*
X0003035901Y0002169291D01*
X0003038900Y0002166291D01*
X0003041900Y0002160292D01*
X0003041900Y0002154293D01*
X0003038900Y0002145294D01*
X0003002905Y0002109298D01*
X0003041900Y0002109298D01*
X0003098893Y0002109298D02*
X0003068897Y0002109298D01*
X0003068897Y0002172291D01*
X0002275496Y0002151293D02*
X0002299493Y0002151293D01*
X0002284495Y0002172291D02*
X0002284495Y0002118297D01*
X0002287495Y0002112298D01*
X0002293494Y0002109298D01*
X0002299493Y0002109298D01*
X0002314491Y0002109298D02*
X0002347487Y0002151293D01*
X0002314491Y0002151293D02*
X0002347487Y0002109298D01*
X0002368485Y0002166291D02*
X0002371484Y0002169291D01*
X0002377483Y0002172291D01*
X0002392482Y0002172291D01*
X0002398481Y0002169291D01*
X0002401480Y0002166291D01*
X0002404480Y0002160292D01*
X0002404480Y0002154293D01*
X0002401480Y0002145294D01*
X0002365485Y0002109298D01*
X0002404480Y0002109298D01*
X0002431477Y0002109298D02*
X0002431477Y0002172291D01*
X0002431477Y0002142294D02*
X0002467472Y0002142294D01*
X0002467472Y0002109298D02*
X0002467472Y0002172291D01*
X0001503092Y0002109298D02*
X0001503092Y0002151293D01*
X0001503092Y0002139295D02*
X0001506092Y0002145294D01*
X0001509092Y0002148294D01*
X0001515091Y0002151293D01*
X0001521091Y0002151293D01*
X0001536089Y0002109298D02*
X0001569085Y0002151293D01*
X0001536089Y0002151293D02*
X0001569085Y0002109298D01*
X0001590082Y0002166291D02*
X0001593082Y0002169291D01*
X0001599079Y0002172291D01*
X0001614079Y0002172291D01*
X0001620077Y0002169291D01*
X0001623078Y0002166291D01*
X0001626077Y0002160292D01*
X0001626077Y0002154293D01*
X0001623078Y0002145294D01*
X0001587082Y0002109298D01*
X0001626077Y0002109298D01*
X0001683070Y0002109298D02*
X0001653074Y0002109298D01*
X0001653074Y0002172291D01*
X0000862673Y0002109298D02*
X0000862673Y0002151293D01*
X0000862673Y0002139295D02*
X0000865671Y0002145294D01*
X0000868671Y0002148294D01*
X0000874671Y0002151293D01*
X0000880671Y0002151293D01*
X0000895669Y0002109298D02*
X0000928665Y0002151293D01*
X0000895669Y0002151293D02*
X0000928665Y0002109298D01*
X0000949662Y0002166291D02*
X0000952662Y0002169291D01*
X0000958661Y0002172291D01*
X0000973658Y0002172291D01*
X0000979658Y0002169291D01*
X0000982658Y0002166291D01*
X0000985657Y0002160292D01*
X0000985657Y0002154293D01*
X0000982658Y0002145294D01*
X0000946662Y0002109298D01*
X0000985657Y0002109298D01*
X0001006655Y0002172291D02*
X0001021652Y0002109298D01*
X0001033651Y0002154293D01*
X0001045650Y0002109298D01*
X0001060648Y0002172291D01*
X0000235751Y0002109298D02*
X0000235751Y0002151293D01*
X0000235751Y0002139295D02*
X0000238751Y0002145294D01*
X0000241750Y0002148294D01*
X0000247750Y0002151293D01*
X0000253749Y0002151293D01*
X0000268747Y0002109298D02*
X0000301743Y0002151293D01*
X0000268747Y0002151293D02*
X0000301743Y0002109298D01*
X0000322740Y0002166291D02*
X0000325740Y0002169291D01*
X0000331738Y0002172291D01*
X0000346737Y0002172291D01*
X0000352737Y0002169291D01*
X0000355736Y0002166291D01*
X0000358736Y0002160292D01*
X0000358736Y0002154293D01*
X0000355736Y0002145294D01*
X0000319741Y0002109298D01*
X0000358736Y0002109298D01*
X0000385732Y0002109298D02*
X0000385732Y0002172291D01*
X0000385732Y0002142294D02*
X0000421727Y0002142294D01*
X0000421727Y0002109298D02*
X0000421727Y0002172291D01*
X0000235751Y0002739220D02*
X0000235751Y0002781214D01*
X0000235751Y0002769216D02*
X0000238751Y0002775215D01*
X0000241750Y0002778215D01*
X0000247750Y0002781214D01*
X0000253749Y0002781214D01*
X0000268747Y0002739220D02*
X0000301743Y0002781214D01*
X0000268747Y0002781214D02*
X0000301743Y0002739220D01*
X0000358736Y0002739220D02*
X0000322740Y0002739220D01*
X0000340738Y0002739220D02*
X0000340738Y0002802211D01*
X0000334738Y0002793213D01*
X0000328740Y0002787214D01*
X0000322740Y0002784214D01*
X0000385732Y0002739220D02*
X0000385732Y0002802211D01*
X0000385732Y0002772216D02*
X0000421727Y0002772216D01*
X0000421727Y0002739220D02*
X0000421727Y0002802211D01*
X0000862673Y0002739220D02*
X0000862673Y0002781214D01*
X0000862673Y0002769216D02*
X0000865671Y0002775215D01*
X0000868671Y0002778215D01*
X0000874671Y0002781214D01*
X0000880671Y0002781214D01*
X0000895669Y0002739220D02*
X0000928665Y0002781214D01*
X0000895669Y0002781214D02*
X0000928665Y0002739220D01*
X0000985657Y0002739220D02*
X0000949662Y0002739220D01*
X0000967660Y0002739220D02*
X0000967660Y0002802211D01*
X0000961660Y0002793213D01*
X0000955661Y0002787214D01*
X0000949662Y0002784214D01*
X0001006655Y0002802211D02*
X0001021652Y0002739220D01*
X0001033651Y0002784214D01*
X0001045650Y0002739220D01*
X0001060648Y0002802211D01*
X0001503092Y0002739220D02*
X0001503092Y0002781214D01*
X0001503092Y0002769216D02*
X0001506092Y0002775215D01*
X0001509092Y0002778215D01*
X0001515091Y0002781214D01*
X0001521091Y0002781214D01*
X0001536089Y0002739220D02*
X0001569085Y0002781214D01*
X0001536089Y0002781214D02*
X0001569085Y0002739220D01*
X0001626077Y0002739220D02*
X0001590082Y0002739220D01*
X0001608080Y0002739220D02*
X0001608080Y0002802211D01*
X0001602080Y0002793213D01*
X0001596081Y0002787214D01*
X0001590082Y0002784214D01*
X0001683070Y0002739220D02*
X0001653074Y0002739220D01*
X0001653074Y0002802211D01*
X0002275496Y0002781214D02*
X0002299493Y0002781214D01*
X0002284495Y0002802211D02*
X0002284495Y0002748219D01*
X0002287495Y0002742218D01*
X0002293494Y0002739220D01*
X0002299493Y0002739220D01*
X0002314491Y0002739220D02*
X0002347487Y0002781214D01*
X0002314491Y0002781214D02*
X0002347487Y0002739220D01*
X0002404480Y0002739220D02*
X0002368485Y0002739220D01*
X0002386482Y0002739220D02*
X0002386482Y0002802211D01*
X0002380483Y0002793213D01*
X0002374484Y0002787214D01*
X0002368485Y0002784214D01*
X0002431477Y0002739220D02*
X0002431477Y0002802211D01*
X0002431477Y0002772216D02*
X0002467472Y0002772216D01*
X0002467472Y0002739220D02*
X0002467472Y0002802211D01*
X0002912917Y0002781214D02*
X0002936914Y0002781214D01*
X0002921915Y0002802211D02*
X0002921915Y0002748219D01*
X0002924915Y0002742218D01*
X0002930914Y0002739220D01*
X0002936914Y0002739220D01*
X0002951912Y0002739220D02*
X0002984908Y0002781214D01*
X0002951912Y0002781214D02*
X0002984908Y0002739220D01*
X0003041900Y0002739220D02*
X0003005904Y0002739220D01*
X0003023903Y0002739220D02*
X0003023903Y0002802211D01*
X0003017903Y0002793213D01*
X0003011904Y0002787214D01*
X0003005904Y0002784214D01*
X0003098893Y0002739220D02*
X0003068897Y0002739220D01*
X0003068897Y0002802211D01*
G04 split*
G04 #@! TF.FileFunction,Legend,Top*
G04 Gerber Fmt 4.6, Leading zero omitted, Abs format (unit mm)*
G04 Created by KiCad (PCBNEW no-bzr-kicad_new3d-viewer) date 06/27/16 23:34:47*
G01G01G01G01*
G04 APERTURE LIST*
G04 APERTURE END LIST*
D60*
D61*
X0000184654Y0003462410D02*
X0000199652Y0003462410D01*
X0000207151Y0003466159D01*
X0000210900Y0003469909D01*
X0000218399Y0003481158D01*
X0000222149Y0003496156D01*
X0000222149Y0003526152D01*
X0000218399Y0003533651D01*
X0000214650Y0003537401D01*
X0000207151Y0003541149D01*
X0000192153Y0003541149D01*
X0000184654Y0003537401D01*
X0000180903Y0003533651D01*
X0000177153Y0003526152D01*
X0000177153Y0003507405D01*
X0000180903Y0003499906D01*
X0000184654Y0003496156D01*
X0000192153Y0003492407D01*
X0000207151Y0003492407D01*
X0000214650Y0003496156D01*
X0000218399Y0003499906D01*
X0000222149Y0003507405D01*
X0000248396Y0003541149D02*
X0000300889Y0003541149D01*
X0000267143Y0003462410D01*
X0000390878Y0003462410D02*
X0000390878Y0003514903D01*
X0000390878Y0003507405D02*
X0000394627Y0003511154D01*
X0000402126Y0003514903D01*
X0000413375Y0003514903D01*
X0000420874Y0003511154D01*
X0000424624Y0003503655D01*
X0000424624Y0003462410D01*
X0000424624Y0003503655D02*
X0000428373Y0003511154D01*
X0000435872Y0003514903D01*
X0000447121Y0003514903D01*
X0000454620Y0003511154D01*
X0000458369Y0003503655D01*
X0000458369Y0003462410D01*
X0000495865Y0003462410D02*
X0000495865Y0003514903D01*
X0000495865Y0003507405D02*
X0000499614Y0003511154D01*
X0000507113Y0003514903D01*
X0000518362Y0003514903D01*
X0000525861Y0003511154D01*
X0000529610Y0003503655D01*
X0000529610Y0003462410D01*
X0000529610Y0003503655D02*
X0000533360Y0003511154D01*
X0000540859Y0003514903D01*
X0000552108Y0003514903D01*
X0000559607Y0003511154D01*
X0000563356Y0003503655D01*
X0000563356Y0003462410D01*
X0000219337Y0003353955D02*
X0000211838Y0003350206D01*
X0000196840Y0003350206D01*
X0000189340Y0003353955D01*
X0000185590Y0003361454D01*
X0000185590Y0003391450D01*
X0000189340Y0003398950D01*
X0000196840Y0003402699D01*
X0000211838Y0003402699D01*
X0000219337Y0003398950D01*
X0000223086Y0003391450D01*
X0000223086Y0003383951D01*
X0000185590Y0003376452D01*
X0000256832Y0003402699D02*
X0000256832Y0003350206D01*
X0000256832Y0003395200D02*
X0000260581Y0003398950D01*
X0000268081Y0003402699D01*
X0000279329Y0003402699D01*
X0000286828Y0003398950D01*
X0000290578Y0003391450D01*
X0000290578Y0003350206D01*
X0000361819Y0003353955D02*
X0000354319Y0003350206D01*
X0000339322Y0003350206D01*
X0000331823Y0003353955D01*
X0000328073Y0003357705D01*
X0000324324Y0003365204D01*
X0000324324Y0003387701D01*
X0000328073Y0003395200D01*
X0000331823Y0003398950D01*
X0000339322Y0003402699D01*
X0000354319Y0003402699D01*
X0000361819Y0003398950D01*
X0000406813Y0003350206D02*
X0000399314Y0003353955D01*
X0000395565Y0003361454D01*
X0000395565Y0003428946D01*
X0000436810Y0003357705D02*
X0000440559Y0003353955D01*
X0000436810Y0003350206D01*
X0000433060Y0003353955D01*
X0000436810Y0003357705D01*
X0000436810Y0003350206D01*
G04 split*
G04 #@! TF.FileFunction,Legend,Top*
G04 Gerber Fmt 4.6, Leading zero omitted, Abs format (unit mm)*
G04 Created by KiCad (PCBNEW no-bzr-kicad_new3d-viewer) date 06/27/16 23:34:47*
G01G01G01G01G01G01G01G01*
G04 APERTURE LIST*
G04 APERTURE END LIST*
D72*
D73*
X0000184654Y0003816741D02*
X0000199652Y0003816741D01*
X0000207151Y0003820491D01*
X0000210900Y0003824240D01*
X0000218399Y0003835489D01*
X0000222149Y0003850487D01*
X0000222149Y0003880483D01*
X0000218399Y0003887982D01*
X0000214650Y0003891732D01*
X0000207151Y0003895481D01*
X0000192153Y0003895481D01*
X0000184654Y0003891732D01*
X0000180903Y0003887982D01*
X0000177153Y0003880483D01*
X0000177153Y0003861735D01*
X0000180903Y0003854236D01*
X0000184654Y0003850487D01*
X0000192153Y0003846737D01*
X0000207151Y0003846737D01*
X0000214650Y0003850487D01*
X0000218399Y0003854236D01*
X0000222149Y0003861735D01*
X0000248396Y0003895481D02*
X0000300889Y0003895481D01*
X0000267143Y0003816741D01*
X0000390878Y0003816741D02*
X0000390878Y0003869234D01*
X0000390878Y0003861735D02*
X0000394627Y0003865485D01*
X0000402126Y0003869234D01*
X0000413375Y0003869234D01*
X0000420874Y0003865485D01*
X0000424624Y0003857986D01*
X0000424624Y0003816741D01*
X0000424624Y0003857986D02*
X0000428373Y0003865485D01*
X0000435872Y0003869234D01*
X0000447121Y0003869234D01*
X0000454620Y0003865485D01*
X0000458369Y0003857986D01*
X0000458369Y0003816741D01*
X0000495865Y0003816741D02*
X0000495865Y0003869234D01*
X0000495865Y0003861735D02*
X0000499614Y0003865485D01*
X0000507113Y0003869234D01*
X0000518362Y0003869234D01*
X0000525861Y0003865485D01*
X0000529610Y0003857986D01*
X0000529610Y0003816741D01*
X0000529610Y0003857986D02*
X0000533360Y0003865485D01*
X0000540859Y0003869234D01*
X0000552108Y0003869234D01*
X0000559607Y0003865485D01*
X0000563356Y0003857986D01*
X0000563356Y0003816741D01*
X0000219337Y0003708286D02*
X0000211838Y0003704535D01*
X0000196840Y0003704535D01*
X0000189340Y0003708286D01*
X0000185590Y0003715785D01*
X0000185590Y0003745781D01*
X0000189340Y0003753279D01*
X0000196840Y0003757029D01*
X0000211838Y0003757029D01*
X0000219337Y0003753279D01*
X0000223086Y0003745781D01*
X0000223086Y0003738282D01*
X0000185590Y0003730783D01*
X0000256832Y0003757029D02*
X0000256832Y0003704535D01*
X0000256832Y0003749531D02*
X0000260581Y0003753279D01*
X0000268081Y0003757029D01*
X0000279329Y0003757029D01*
X0000286828Y0003753279D01*
X0000290578Y0003745781D01*
X0000290578Y0003704535D01*
X0000361819Y0003708286D02*
X0000354319Y0003704535D01*
X0000339322Y0003704535D01*
X0000331823Y0003708286D01*
X0000328073Y0003712035D01*
X0000324324Y0003719534D01*
X0000324324Y0003742032D01*
X0000328073Y0003749531D01*
X0000331823Y0003753279D01*
X0000339322Y0003757029D01*
X0000354319Y0003757029D01*
X0000361819Y0003753279D01*
X0000406813Y0003704535D02*
X0000399314Y0003708286D01*
X0000395565Y0003715785D01*
X0000395565Y0003783275D01*
X0000436810Y0003712035D02*
X0000440559Y0003708286D01*
X0000436810Y0003704535D01*
X0000433060Y0003708286D01*
X0000436810Y0003712035D01*
X0000436810Y0003704535D01*
M02*
